<svg xmlns="http://www.w3.org/2000/svg" xmlns:xlink="http://www.w3.org/1999/xlink" width="136" height="50" viewBox="0 0 136 50">
  <defs>
    <filter id="confluence-a">
      <feColorMatrix in="SourceGraphic" values="0 0 0 0 0.000000 0 0 0 0 0.000000 0 0 0 0 0.000000 0 0 0 1.000000 0"/>
    </filter>
    <rect id="confluence-b" width="136" height="50"/>
  </defs>
  <g fill="none" fill-rule="evenodd" filter="url(#confluence-a)">
    <mask id="confluence-c" fill="#fff">
      <use xlink:href="#confluence-b"/>
    </mask>
    <use fill="#D8D8D8" fill-opacity="0" xlink:href="#confluence-b"/>
    <g mask="url(#confluence-c)">
      <g transform="translate(2 15)">
        <path fill="#205081" fill-rule="nonzero" d="M41.3166903,4.88275862 C37.6893579,4.88275862 35.771458,6.62068966 35.771458,9.88965517 L35.771458,12.9793103 C35.771458,16.2482759 37.6893579,17.9862069 41.3166903,17.9862069 C44.9440226,17.9862069 46.8619225,16.2482759 46.8619225,12.9793103 L46.8619225,9.88965517 C46.8619225,6.62068966 44.9440226,4.88275862 41.3166903,4.88275862 Z M39.2320165,9.79310345 C39.2320165,8.44137931 39.8574186,7.87586207 41.3166903,7.87586207 C42.7759619,7.87586207 43.401364,8.45517241 43.401364,9.79310345 L43.401364,13.0758621 C43.401364,14.4275862 42.7759619,14.9931034 41.3166903,14.9931034 C39.8574186,14.9931034 39.2320165,14.4137931 39.2320165,13.0758621 L39.2320165,9.79310345 Z M56.2568524,4.88275862 C54.8809677,4.88275862 53.0186591,5.35172414 51.4482049,6.08275862 L51.2536353,5.44827586 C51.198044,5.26896552 51.0312701,5.13103448 50.8367006,5.13103448 L48.9188007,5.13103448 C48.6825376,5.13103448 48.4740703,5.32413793 48.4740703,5.57241379 L48.4740703,17.2965517 C48.4740703,17.5310345 48.6686398,17.7241379 48.9188007,17.7241379 L51.5037962,17.7241379 C51.7400592,17.7241379 51.9485266,17.5310345 51.9485266,17.2965517 L51.9485266,9.1862069 C52.8796809,8.71724138 54.1860764,8.23448276 54.9782525,8.23448276 C55.5619611,8.23448276 55.7704285,8.45517241 55.7704285,9.02068966 L55.7704285,17.3103448 C55.7704285,17.5448276 55.9649981,17.737931 56.2151589,17.737931 L58.8001544,17.737931 C59.0364174,17.737931 59.2448848,17.5448276 59.2448848,17.3103448 L59.2448848,8.68965517 C59.230987,6.16551724 58.2303436,4.88275862 56.2568524,4.88275862 Z M68.5564277,0.275862069 C67.8615365,0.0965517241 67.0554626,0 66.3049801,0 C63.5393128,0 62.1912238,1.29655172 62.1912238,3.97241379 L62.1912238,5.48965517 L60.7597478,5.48965517 C60.5234848,5.48965517 60.3150174,5.68275862 60.3150174,5.93103448 L60.3150174,7.87586207 C60.3150174,8.11034483 60.5095869,8.30344828 60.7597478,8.30344828 L62.1912238,8.30344828 L62.1912238,17.2965517 C62.1912238,17.5310345 62.3857933,17.7241379 62.6220564,17.7241379 L65.2070519,17.7241379 C65.4433149,17.7241379 65.6378844,17.5310345 65.6378844,17.2965517 L65.6378844,8.30344828 L68.1811865,8.30344828 C68.4035517,8.30344828 68.5981212,8.12413793 68.612019,7.90344828 L68.612019,5.95862069 C68.612019,5.82068966 68.5842234,5.72413793 68.5008364,5.62758621 C68.4174495,5.54482759 68.3062669,5.48965517 68.1811865,5.48965517 L65.6378844,5.48965517 L65.6378844,4.13793103 C65.6378844,3.2 65.8185562,2.86896552 66.8469952,2.86896552 C67.1666452,2.86896552 67.6391713,2.92413793 68.0977995,2.99310345 C68.2089821,3.00689655 68.3340625,2.97931034 68.4313473,2.91034483 C68.5286321,2.84137931 68.5842234,2.73103448 68.612019,2.62068966 L68.8760777,0.75862069 C68.9038734,0.537931034 68.7648951,0.331034483 68.5564277,0.275862069 Z M73.226097,0.331034483 L70.6411015,0.331034483 C70.4048385,0.331034483 70.1963711,0.524137931 70.1963711,0.772413793 L70.1963711,17.3103448 C70.1963711,17.5448276 70.3909407,17.737931 70.6411015,17.737931 L73.226097,17.737931 C73.4623601,17.737931 73.6708274,17.5448276 73.6708274,17.3103448 L73.6708274,0.772413793 C73.6708274,0.537931034 73.4623601,0.331034483 73.226097,0.331034483 Z M85.8870158,5.14482759 L83.3020203,5.14482759 C83.0657573,5.14482759 82.8572899,5.33793103 82.8572899,5.5862069 L82.8572899,13.7103448 C81.9261356,14.1793103 80.6197401,14.662069 79.827564,14.662069 C79.2438554,14.662069 79.035388,14.4413793 79.035388,13.8758621 L79.035388,5.57241379 C79.035388,5.33793103 78.8408184,5.13103448 78.5906576,5.13103448 L76.0056621,5.13103448 C75.769399,5.13103448 75.5609317,5.32413793 75.5609317,5.57241379 L75.5609317,14.1793103 C75.5609317,16.7034483 76.5615751,17.9862069 78.5350663,17.9862069 C79.910951,17.9862069 81.7732596,17.5172414 83.3437138,16.7862069 L83.5382834,17.4206897 C83.5938747,17.6 83.7606486,17.737931 83.9552181,17.737931 L85.873118,17.737931 C86.109381,17.737931 86.3178484,17.5448276 86.3178484,17.3103448 L86.3178484,5.5862069 C86.3317462,5.33793103 86.1371767,5.14482759 85.8870158,5.14482759 L85.8870158,5.14482759 Z M93.1277828,4.88275862 C89.6672243,4.88275862 87.8327114,6.59310345 87.8327114,9.83448276 L87.8327114,13.0758621 C87.8327114,16.4275862 89.5421439,17.9862069 93.2250676,17.9862069 C94.7260327,17.9862069 96.3242826,17.7241379 97.6167803,17.2689655 C97.8252477,17.2 97.9364303,16.9793103 97.8947368,16.7724138 L97.5055977,14.937931 C97.4778021,14.8137931 97.408313,14.7172414 97.3110282,14.6482759 C97.2137434,14.5793103 97.0747652,14.5655172 96.9635826,14.6068966 C95.7822674,14.937931 94.6426457,15.1034483 93.5030241,15.1034483 C91.6129198,15.1034483 91.2932698,14.4965517 91.2932698,13.2275862 L91.2932698,12.7862069 L97.7140651,12.7862069 C97.9503281,12.7862069 98.1587955,12.5931034 98.1587955,12.3586207 L98.1587955,10 C98.1448977,6.51034483 96.5605456,4.88275862 93.1277828,4.88275862 L93.1277828,4.88275862 Z M91.2932698,9.95862069 L91.2932698,9.54482759 C91.2932698,8.33103448 91.8908763,7.77931034 93.1555784,7.77931034 C94.5592588,7.77931034 94.8372153,8.45517241 94.8372153,9.54482759 L94.8372153,9.95862069 L91.2932698,9.95862069 Z M107.498134,4.88275862 C106.122249,4.88275862 104.259941,5.35172414 102.689487,6.08275862 L102.494917,5.44827586 C102.439326,5.26896552 102.272552,5.13103448 102.077982,5.13103448 L100.160082,5.13103448 C99.9238193,5.13103448 99.7153519,5.32413793 99.7153519,5.57241379 L99.7153519,17.2965517 C99.7153519,17.5310345 99.9099215,17.7241379 100.160082,17.7241379 L102.745078,17.7241379 C102.981341,17.7241379 103.189808,17.5310345 103.189808,17.2965517 L103.189808,9.1862069 C104.120963,8.71724138 105.427358,8.23448276 106.219534,8.23448276 C106.803243,8.23448276 107.01171,8.45517241 107.01171,9.02068966 L107.01171,17.3103448 C107.01171,17.5448276 107.20628,17.737931 107.456441,17.737931 L110.041436,17.737931 C110.277699,17.737931 110.486167,17.5448276 110.486167,17.3103448 L110.486167,8.68965517 C110.458371,6.16551724 109.457727,4.88275862 107.498134,4.88275862 L107.498134,4.88275862 Z M120.423112,15.0758621 C120.409214,14.9517241 120.339725,14.8551724 120.24244,14.7862069 C120.145155,14.7172414 120.020075,14.6896552 119.894994,14.7172414 C119.158409,14.8827586 118.380131,14.9793103 117.643547,14.9793103 C116.003603,14.9793103 115.531077,14.5655172 115.531077,13.1310345 L115.531077,9.73793103 C115.531077,8.30344828 116.003603,7.88965517 117.643547,7.88965517 C118.088277,7.88965517 119.061125,7.95862069 119.894994,8.15172414 C120.020075,8.17931034 120.145155,8.15172414 120.24244,8.08275862 C120.339725,8.0137931 120.409214,7.90344828 120.423112,7.79310345 L120.728864,5.76551724 C120.756659,5.54482759 120.631579,5.35172414 120.423112,5.28275862 C119.422468,4.99310345 118.268949,4.88275862 117.574057,4.88275862 C113.668768,4.88275862 112.070519,6.30344828 112.070519,9.76551724 L112.070519,13.1034483 C112.070519,16.5655172 113.668768,17.9862069 117.574057,17.9862069 C118.51911,17.9862069 119.617038,17.8344828 120.437009,17.5862069 C120.645477,17.5172414 120.770557,17.3241379 120.742762,17.1034483 L120.423112,15.0758621 L120.423112,15.0758621 Z M126.968987,4.88275862 C123.508429,4.88275862 121.673916,6.59310345 121.673916,9.83448276 L121.673916,13.0758621 C121.673916,16.4275862 123.383348,17.9862069 127.066272,17.9862069 C128.567237,17.9862069 130.165487,17.7241379 131.457985,17.2689655 C131.666452,17.2 131.777635,16.9793103 131.735941,16.7724138 L131.346802,14.937931 C131.319007,14.8137931 131.249517,14.7172414 131.152233,14.6482759 C131.054948,14.5793103 130.91597,14.5655172 130.804787,14.6068966 C129.623472,14.937931 128.48385,15.1034483 127.344229,15.1034483 C125.454124,15.1034483 125.134474,14.4965517 125.134474,13.2275862 L125.134474,12.7862069 L131.55527,12.7862069 C131.791533,12.7862069 132,12.5931034 132,12.3586207 L132,10 C131.986102,6.51034483 130.40175,4.88275862 126.968987,4.88275862 Z M125.134474,9.95862069 L125.134474,9.54482759 C125.134474,8.33103448 125.732081,7.77931034 126.996783,7.77931034 C128.400463,7.77931034 128.67842,8.45517241 128.67842,9.54482759 L128.67842,9.95862069 L125.134474,9.95862069 Z M30.281817,3.65517241 C31.3241539,3.65517241 32.7556299,3.79310345 34.1176168,4.02758621 C34.2287994,4.04137931 34.3538798,4.0137931 34.4511646,3.94482759 C34.5484494,3.87586207 34.6040407,3.76551724 34.6318363,3.65517241 L34.9236906,1.39310345 C34.9514863,1.17241379 34.812508,0.965517241 34.5901428,0.910344828 C33.2142581,0.579310345 31.6577017,0.4 30.1845322,0.4 C26.0846738,0.4 24,2.09655172 24,5.43448276 L24,12.9655172 C24,16.3034483 26.0846738,18 30.1845322,18 C31.6577017,18 33.2142581,17.8206897 34.5901428,17.4896552 C34.812508,17.4344828 34.9514863,17.2275862 34.9236906,17.0068966 L34.6318363,14.7448276 C34.6179385,14.6206897 34.5484494,14.5241379 34.4511646,14.4551724 C34.3538798,14.3862069 34.2287994,14.3586207 34.1176168,14.3724138 C32.7556299,14.6068966 31.3241539,14.7448276 30.281817,14.7448276 C28.2527345,14.7448276 27.5578433,14.1517241 27.5578433,12.4 L27.5578433,6.0137931 C27.5578433,4.24827586 28.2527345,3.65517241 30.281817,3.65517241 Z"/>
        <g>
          <path fill="#205081" fill-rule="nonzero" d="M16.2574026,13.2973719 C15.9711807,12.7357089 15.6277144,12.1740459 15.2270038,11.5983413 C14.9407819,11.1911356 14.640249,10.7839299 14.3110938,10.3907658 C14.182294,10.2363085 14.2395383,10.0397264 14.339716,9.9414354 L14.640249,9.64656231 C16.014114,8.27048792 17.4309123,6.8522888 18.5185554,5.32175708 C19.677754,3.69293434 20.3217532,2.14836104 20.4791752,0.547621441 C20.4934863,0.393164112 20.4219309,0.224665207 20.293131,0.126374179 C20.2072645,0.0561663017 20.1070868,0.0280831508 19.9925981,0.0280831508 C19.9353537,0.0280831508 19.8781093,0.0421247263 19.8208649,0.0561663017 C18.761844,0.449330413 17.702823,0.758245073 16.7153576,0.968868704 C16.5150023,1.01099343 16.3575802,1.16545076 16.2860248,1.33394966 C15.5704701,3.24360392 13.7529612,5.06900873 11.8495857,6.97866298 C11.7780302,7.04887086 11.6635415,7.14716189 11.4918083,7.14716189 C11.3200752,7.14716189 11.2055865,7.06291244 11.134031,6.97866298 C9.23065551,5.06900873 7.41314659,3.2576455 6.6975919,1.33394966 C6.62603643,1.16545076 6.4686144,1.01099343 6.26825909,0.968868704 C5.29510471,0.744203497 4.22177267,0.421247263 3.16275173,0.0280831508 C3.10550736,0 3.04826298,0 2.99101861,0 C2.89084095,0 2.7763522,0.0280831508 2.69048564,0.0982910279 C2.56168579,0.196582056 2.49013032,0.365080961 2.50444142,0.519538291 C2.66186345,2.10623631 3.30586267,3.67889276 4.46506127,5.30771551 C5.5527044,6.83824723 6.96950269,8.25644635 8.34336769,9.63252074 C10.8764313,12.1600043 13.2520729,14.5470721 13.4667393,17.3132625 C13.4819117,17.565904 13.6953794,17.7630311 13.9533165,17.7625929 L16.9157129,17.7625929 C17.0445127,17.7625929 17.1733126,17.7064266 17.2734902,17.6081356 C17.3593568,17.5098445 17.4166012,17.3834704 17.4022901,17.2570962 C17.3736679,16.7375579 17.3021124,16.2180196 17.1733126,15.6844397 L17.1733126,15.642315 C17.1733126,15.5299824 17.2591791,15.445733 17.3736679,15.445733 L17.4022901,15.445733 C19.8208649,15.7967723 21.352152,16.3443938 21.3664631,16.9622231 C21.3664631,17.5379277 19.9925981,18.4085054 17.7457563,19.0544178 C17.545401,19.1105841 17.4022901,19.2931246 17.4022901,19.4897067 C17.4022901,19.742455 17.6169565,19.9530787 17.8745562,19.9530787 C17.9174895,19.9530787 17.9461116,19.9530787 17.9747338,19.9390371 C20.9800635,19.2509999 22.9836167,18.1136323 22.9836167,16.8077658 C22.9693056,15.2912756 20.2788199,13.9292428 16.2574026,13.2973719 L16.2574026,13.2973719 Z M8.30043441,11.8089649 C8.24319003,11.7527986 8.11439019,11.6685492 7.95696816,11.6685492 C7.74230175,11.6685492 7.59919081,11.8089649 7.55625753,11.8791728 C7.22710237,12.3565864 6.95519159,12.8339999 6.711903,13.3114135 C2.69048564,13.9292428 0,15.3053172 0,16.8358489 C0,18.1276739 1.97493095,19.2790831 4.99457174,19.9671202 C5.02319393,19.9811618 5.06612721,19.9811618 5.10906049,19.9811618 C5.36666018,19.9811618 5.58132659,19.7705382 5.58132659,19.5177898 C5.58132659,19.3071662 5.43821565,19.1386673 5.23786033,19.082501 C3.0053297,18.4365885 1.63146469,17.5660109 1.63146469,16.9903063 C1.63146469,16.3724769 3.16275173,15.8248555 5.58132659,15.4738161 L5.60994877,15.4738161 C5.72443752,15.4738161 5.81030409,15.5580656 5.81030409,15.6703982 L5.81030409,15.7125229 C5.68150424,16.2320612 5.60994877,16.7515995 5.58132659,17.2711378 C5.58132659,17.3975119 5.62425987,17.5379277 5.71012643,17.6221772 C5.79599299,17.7204682 5.92479284,17.7766345 6.06790378,17.7766345 L9.0159891,17.7766345 C9.27358879,17.7766345 9.4882552,17.5800524 9.50256629,17.3273041 C9.57412176,16.470768 9.83172145,15.6282734 10.3326097,14.7296126 C10.5043429,14.420698 10.375543,14.1258249 10.2753654,13.9994507 C9.78878817,13.3816214 9.18772223,12.7076258 8.30043441,11.8089649 Z"/>
          <path fill="#205081" fill-rule="nonzero" d="M11.1483421,4.60563674 C11.2628308,4.71796934 11.3916307,4.73201092 11.4918083,4.73201092 C11.5776749,4.73201092 11.7207858,4.71796934 11.8352746,4.60563674 C12.8799844,3.60868488 13.4381171,2.44323412 13.5669169,2.12027789 C13.581228,2.07815316 13.6098502,2.02198686 13.6098502,1.93773741 C13.6098502,1.68498905 13.3951838,1.48840699 13.1662063,1.48840699 C12.9801621,1.48840699 12.4363405,1.5445733 11.5061194,1.5445733 C10.5758983,1.5445733 10.0320768,1.48840699 9.84603254,1.48840699 C9.61705504,1.48840699 9.40238863,1.67094747 9.40238863,1.93773741 C9.40238863,2.00794529 9.41669973,2.06411159 9.44532191,2.12027789 C9.53118848,2.44323412 10.1036322,3.60868488 11.1483421,4.60563674 L11.1483421,4.60563674 Z"/>
        </g>
      </g>
    </g>
  </g>
</svg>
