<?xml version="1.0" encoding="UTF-8"?>
<svg width="35px" height="27px" viewBox="0 0 35 27" version="1.1" xmlns="http://www.w3.org/2000/svg" xmlns:xlink="http://www.w3.org/1999/xlink">
    <title>icon-39-2</title>
    <defs>
        <linearGradient x1="100%" y1="79.755102%" x2="0%" y2="20.244898%" id="linearGradient-1">
            <stop stop-color="#1E85E9" offset="0%"></stop>
            <stop stop-color="#8671F3" offset="20.275549%"></stop>
            <stop stop-color="#C06CFD" stop-opacity="0.99" offset="70.7268792%"></stop>
            <stop stop-color="#FFBEE8" offset="100%"></stop>
        </linearGradient>
    </defs>
    <g id="Page-1" stroke="none" stroke-width="1" fill="none" fill-rule="evenodd">
        <g id="mobile-a1qa-pre-certification" transform="translate(-167.000000, -1296.000000)" fill="url(#linearGradient-1)" fill-rule="nonzero">
            <g id="2-our-pre-cert" transform="translate(20.000000, 925.000000)">
                <g id="1" transform="translate(0.000000, 180.000000)">
                    <g id="automotive" transform="translate(145.000000, 191.000000)">
                        <path d="M11.45,20.7692308 C13.189697,20.7692308 14.6,22.164036 14.6,23.8846154 C14.6,25.6051948 13.189697,27 11.45,27 C9.71030304,27 8.3,25.6051948 8.3,23.8846154 C8.3,22.164036 9.71030304,20.7692308 11.45,20.7692308 Z M30.35,20.7692308 C32.089697,20.7692308 33.5,22.164036 33.5,23.8846154 C33.5,25.6051948 32.089697,27 30.35,27 C28.610303,27 27.2,25.6051948 27.2,23.8846154 C27.2,22.164036 28.610303,20.7692308 30.35,20.7692308 Z M11.45,21.5480769 C10.1452273,21.5480769 9.0875,22.5941808 9.0875,23.8846154 C9.0875,25.1750499 10.1452273,26.2211538 11.45,26.2211538 C12.7547727,26.2211538 13.8125,25.1750499 13.8125,23.8846154 C13.8125,22.5941808 12.7547727,21.5480769 11.45,21.5480769 Z M30.35,21.5480769 C29.0452273,21.5480769 27.9875,22.5941808 27.9875,23.8846154 C27.9875,25.1750499 29.0452273,26.2211538 30.35,26.2211538 C31.6547727,26.2211538 32.7125,25.1750499 32.7125,23.8846154 C32.7125,22.5941808 31.6547727,21.5480769 30.35,21.5480769 Z M24.8666667,-6.03961325e-14 L24.866,8.559 L30.4106596,8.55933959 L37,15.7603294 L37,23.538098 L34.0558729,23.5384615 L33.969093,22.9185018 C33.7308934,21.2168735 32.1923317,19.9305624 30.3642793,19.9305624 C28.6015144,19.9305624 27.1079317,21.1266348 26.7899168,22.7378134 L26.7594656,22.9185018 L26.6726816,23.5384615 L15.2269615,23.5383854 C15.1261048,21.5288431 13.4674223,19.9305624 11.4360375,19.9305624 C9.40465276,19.9305624 7.74597029,21.5288431 7.64511355,23.5383854 L2,23.5383854 L2,-6.03961325e-14 L24.8666667,-6.03961325e-14 Z M30.0610488,9.27261789 L24.8666667,9.27261789 L24.8666667,22.8249056 L25.977048,22.825079 C26.2641876,20.7886315 28.1182886,19.2172841 30.3627409,19.2172841 C32.5347916,19.2172841 34.3412687,20.6888894 34.715794,22.6294925 L34.7484339,22.825079 L36.2854167,22.8249056 L36.2854167,16.0256994 L30.0610488,9.27261789 Z M24.1520833,0.713278299 L2.71458333,0.713278299 L2.71458333,22.8249056 L7.016375,22.8249056 L7.04229734,22.7077035 C7.49490366,20.7536072 9.21223836,19.2937751 11.2726754,19.2201967 L11.4360375,19.2172841 C13.5685748,19.2172841 15.3652607,20.7021837 15.8297777,22.7077035 L15.8543417,22.8249056 L24.1520833,22.8249056 L24.1520833,0.713278299 Z" id="icon-39-2"></path>
                    </g>
                </g>
            </g>
        </g>
    </g>
</svg>