<?xml version="1.0" encoding="UTF-8"?>
<svg width="35px" height="23px" viewBox="0 0 35 23" version="1.1" xmlns="http://www.w3.org/2000/svg" xmlns:xlink="http://www.w3.org/1999/xlink">
    <title>icon-39-1</title>
    <defs>
        <linearGradient x1="100%" y1="71.5918367%" x2="0%" y2="28.4081633%" id="linearGradient-1">
            <stop stop-color="#1E85E9" offset="0%"></stop>
            <stop stop-color="#8671F3" offset="20.275549%"></stop>
            <stop stop-color="#C06CFD" stop-opacity="0.99" offset="70.7268792%"></stop>
            <stop stop-color="#FFBEE8" offset="100%"></stop>
        </linearGradient>
    </defs>
    <g id="Page-1" stroke="none" stroke-width="1" fill="none" fill-rule="evenodd">
        <g id="01-mobile-a1qa-AR-&amp;-VR-testing" transform="translate(-34.000000, -5441.000000)" fill="url(#linearGradient-1)" fill-rule="nonzero">
            <g id="4-block" transform="translate(0.000000, 4158.000000)">
                <g id="Card-1" transform="translate(34.000000, 1283.000000)">
                    <path d="M22.3589326,0 C23.0704907,0 23.6552475,0.526247151 23.7215803,1.19913153 L23.7278468,1.32692308 L23.727,4.331 L28.0458029,4.33193735 C28.3644143,4.33193735 28.671538,4.4396013 28.915441,4.63409181 L29.0159494,4.72270004 L34.6012323,10.1611013 C34.8246972,10.3786896 34.962405,10.6635989 34.9933404,10.9664928 L35,11.0972617 L35,17.6938374 C35,18.2257452 34.67302,18.7018971 34.1769299,18.9107448 L34.0595175,18.9540991 L32.8404153,19.3446723 C32.6696039,21.3909714 30.9022522,23 28.747199,23 C26.6386468,23 24.9012452,21.4596603 24.6672578,19.4765125 L23.2715421,19.4769231 L23.271,19.461 L12.7514808,19.461432 C12.531923,21.3871307 10.8952865,22.8988607 8.87475806,22.9951282 L8.66979018,23 C6.55589626,23 4.81503582,21.4518459 4.58809958,19.461432 L1.36891424,19.4615385 C0.657356161,19.4615385 0.0725992915,18.9352913 0.00626650432,18.2624069 L0,18.1346154 L0,1.32692308 C0,0.637191896 0.542900512,0.0703723232 1.23707866,0.00607428059 L1.36891424,0 L22.3589326,0 Z M8.66979018,15.9230769 C6.90571911,15.9230769 5.47565696,17.3092722 5.47565696,19.0192308 C5.47565696,20.7291893 6.90571911,22.1153846 8.66979018,22.1153846 C10.4338613,22.1153846 11.8639234,20.7291893 11.8639234,19.0192308 C11.8639234,17.3092722 10.4338613,15.9230769 8.66979018,15.9230769 Z M28.747199,15.9230769 C26.983128,15.9230769 25.5530658,17.3092722 25.5530658,19.0192308 C25.5530658,20.7291893 26.983128,22.1153846 28.747199,22.1153846 C30.5112701,22.1153846 31.9413322,20.7291893 31.9413322,19.0192308 C31.9413322,17.3092722 30.5112701,15.9230769 28.747199,15.9230769 Z M34.087,11.189 L23.727,11.189 L23.727,18.576 L24.6655948,18.5762726 C24.8854951,16.6509347 26.5219674,15.1395882 28.5422311,15.0433333 L28.747199,15.0384615 C30.8062064,15.0384615 32.5113001,16.5072647 32.8081707,18.422902 L33.7738963,18.1139247 C33.9342572,18.0627024 34.050036,17.9309376 34.079843,17.774093 L34.0873905,17.6938374 L34.087,11.189 Z M22.3589326,0.884615385 L1.36891424,0.884615385 C1.14490521,0.884615385 0.958597372,1.04108187 0.919961173,1.24741771 L0.912609493,1.32692308 L0.912609493,18.1346154 C0.912609493,18.351753 1.07402744,18.5323459 1.28689288,18.5697969 L1.36891424,18.5769231 L4.58818597,18.5762726 C4.81547724,16.5862231 6.55616426,15.0384615 8.66979018,15.0384615 C10.7834161,15.0384615 12.5241031,16.5862231 12.7513944,18.5762726 L22.8152373,18.5769231 L22.8152373,1.32692308 C22.8152373,1.10978548 22.6538194,0.929192595 22.4409539,0.891741554 L22.3589326,0.884615385 Z M28.0458029,5.21655273 L23.727,5.216 L23.727,10.289 L33.445,10.289 L28.3691851,5.34680696 C28.3006794,5.28010286 28.2124987,5.23676262 28.1178223,5.22209468 L28.0458029,5.21655273 Z" id="icon-39-1"></path>
                </g>
            </g>
        </g>
    </g>
</svg>