<?xml version="1.0" encoding="UTF-8"?>
<svg width="32px" height="33px" viewBox="0 0 32 33" version="1.1" xmlns="http://www.w3.org/2000/svg" xmlns:xlink="http://www.w3.org/1999/xlink">
    <title>icon-38-8</title>
    <defs>
        <linearGradient x1="60.3305785%" y1="100%" x2="39.6694215%" y2="0%" id="linearGradient-1">
            <stop stop-color="#1E85E9" offset="0%"></stop>
            <stop stop-color="#8671F3" offset="20.275549%"></stop>
            <stop stop-color="#C06CFD" stop-opacity="0.99" offset="70.7268792%"></stop>
            <stop stop-color="#FFBEE8" offset="100%"></stop>
        </linearGradient>
    </defs>
    <g id="Page-1" stroke="none" stroke-width="1" fill="none" fill-rule="evenodd">
        <g id="a1qa-Testing-environment-V2" transform="translate(-630.000000, -2860.000000)" fill="url(#linearGradient-1)" fill-rule="nonzero">
            <g id="6-block" transform="translate(375.000000, 2705.000000)">
                <g id="2" transform="translate(238.000000, 137.000000)">
                    <path d="M32.6093132,45.062405 C32.8572495,45.062405 33.0634577,45.2408446 33.1062208,45.4761567 L33.1143577,45.5668272 L33.1143577,56.1229948 C33.1143577,56.4015795 32.8882416,56.627417 32.6093132,56.627417 C32.3613768,56.627417 32.1551686,56.4489775 32.1124055,56.2136653 L32.1042686,56.1229948 L32.1042686,45.5668272 C32.1042686,45.2882425 32.3303847,45.062405 32.6093132,45.062405 Z M29.5767029,45.4931836 C29.8246392,45.4931836 30.0308474,45.6716231 30.0736105,45.9069352 L30.0817474,45.9976058 L30.0817474,52.9957249 C30.0817474,53.2743096 29.8556313,53.5001471 29.5767029,53.5001471 C29.3287665,53.5001471 29.1225583,53.3217076 29.0797952,53.0863955 L29.0716583,52.9957249 L29.0716583,45.9976058 C29.0716583,45.7190211 29.2977744,45.4931836 29.5767029,45.4931836 Z M35.637238,45.4931836 C35.8851744,45.4931836 36.0913825,45.6716231 36.1341456,45.9069352 L36.1422826,45.9976058 L36.1422826,52.9957249 C36.1422826,53.2743096 35.9161664,53.5001471 35.637238,53.5001471 C35.3893016,53.5001471 35.1830934,53.3217076 35.1403303,53.0863955 L35.1321934,52.9957249 L35.1321934,45.9976058 C35.1321934,45.7190211 35.3583096,45.4931836 35.637238,45.4931836 Z M32.3916587,12.7139671 C32.5660079,12.5962311 32.795182,12.5988218 32.9668183,12.720469 C38.5547065,16.6808821 41.2617163,23.3394092 40.3528858,29.818904 C40.4443219,29.8554394 40.525888,29.9214332 40.5833839,30.0119287 C41.5525746,31.5373858 42.1994684,33.2980031 42.5251408,35.2896943 C42.8582825,37.327065 42.3763262,39.7608708 41.0975509,42.5955397 C40.9564045,42.9084198 40.5504164,42.9922439 40.2966281,42.7609058 L40.2966281,42.7609058 L36.636417,39.424417 L35.0810253,42.6095628 C35.0084518,42.7580844 34.8686604,42.8600529 34.708632,42.8861556 L34.6271488,42.8927492 L30.586792,42.8927492 C30.3969972,42.8927492 30.2232256,42.7864729 30.1369475,42.6176304 L30.1369475,42.6176304 L28.540417,39.494417 L24.9582059,42.7609058 C24.7044176,42.9922439 24.2984295,42.9084198 24.1572831,42.5955397 C22.8785078,39.7608708 22.3965515,37.327065 22.7296932,35.2896943 C23.0553656,33.2980031 23.7022594,31.5373858 24.6714501,30.0119287 C24.6905714,29.9818329 24.7123548,29.9544469 24.7362995,29.9298827 C23.8063282,23.3665989 26.6201364,16.6114107 32.3916587,12.7139671 Z M38.1771769,20.7449147 L26.9700492,20.7443912 C25.0268118,25.2065191 25.0522194,30.447788 27.4083705,35.0586698 L27.4083705,35.0586698 L30.8954867,41.8839048 L34.3116084,41.8839048 L37.798832,34.7473927 C40.0117498,30.2186623 40.0280228,25.1211726 38.1771769,20.7449147 Z M25.0172599,31.4370862 L24.9091365,31.6498472 C24.3491525,32.7895674 23.9548143,34.0564765 23.7265757,35.4522986 C23.4594118,37.0861735 23.7927015,39.0675368 24.7397703,41.3931604 L24.7995985,41.5378712 L28.064417,38.562417 L26.5086813,35.5172767 C25.8336058,34.1961842 25.3390042,32.8262797 25.0172599,31.4370862 Z M40.1063715,31.1888592 L40.0504297,31.4312332 C39.7494149,32.7081255 39.3033855,33.9685139 38.706585,35.1898644 L38.706585,35.1898644 L37.098417,38.479417 L40.4550614,41.5378712 L40.5150637,41.3931604 C41.4621325,39.0675368 41.7954222,37.0861735 41.5282583,35.4522986 C41.2687703,33.8653667 40.7945857,32.4450647 40.1063715,31.1888592 Z M32.6069704,23.7247055 C34.5594694,23.7247055 36.1422826,25.3055681 36.1422826,27.2556609 C36.1422826,29.2057538 34.5594694,30.7866163 32.6069704,30.7866163 C30.6544714,30.7866163 29.0716583,29.2057538 29.0716583,27.2556609 C29.0716583,25.3055681 30.6544714,23.7247055 32.6069704,23.7247055 Z M32.6069704,24.7335499 C31.2123283,24.7335499 30.0817474,25.8627375 30.0817474,27.2556609 C30.0817474,28.6485844 31.2123283,29.7777719 32.6069704,29.7777719 C34.0016126,29.7777719 35.1321934,28.6485844 35.1321934,27.2556609 C35.1321934,25.8627375 34.0016126,24.7335499 32.6069704,24.7335499 Z M32.6671832,13.7502609 C30.4082879,15.3466558 28.6506017,17.4140718 27.4497665,19.7359126 L37.7105891,19.7355064 C36.5545178,17.436178 34.8609765,15.3767021 32.6819271,13.7604934 L32.6819271,13.7604934 Z" id="icon-38-8" transform="translate(32.627417, 34.627417) rotate(45.000000) translate(-32.627417, -34.627417) "></path>
                </g>
            </g>
        </g>
    </g>
</svg>