<?xml version="1.0" encoding="UTF-8"?>
<svg width="22px" height="38px" viewBox="0 0 22 38" version="1.1" xmlns="http://www.w3.org/2000/svg" xmlns:xlink="http://www.w3.org/1999/xlink">
    <title>icon-39-8</title>
    <defs>
        <linearGradient x1="66.7590028%" y1="100%" x2="33.2409972%" y2="0%" id="linearGradient-1">
            <stop stop-color="#1E85E9" offset="0%"></stop>
            <stop stop-color="#8671F3" offset="20.275549%"></stop>
            <stop stop-color="#C06CFD" stop-opacity="0.99" offset="70.7268792%"></stop>
            <stop stop-color="#FFBEE8" offset="100%"></stop>
        </linearGradient>
    </defs>
    <g id="Page-1" stroke="none" stroke-width="1" fill="none" fill-rule="evenodd">
        <g id="a1qa-qa-mobile-app-testing" transform="translate(-806.000000, -4500.000000)" fill="url(#linearGradient-1)" fill-rule="nonzero">
            <g id="#4-improve-business" transform="translate(0.000000, 4233.000000)">
                <g id="Card-2" transform="translate(775.000000, 245.000000)">
                    <path d="M50.8,22 C52.0150264,22 53,22.9721817 53,24.1714286 L53,24.1714286 L53,57.8285714 C53,59.0278183 52.0150264,60 50.8,60 L50.8,60 L33.2,60 C31.9849736,60 31,59.0278183 31,57.8285714 L31,57.8285714 L31,24.1714286 C31,22.9721817 31.9849736,22 33.2,22 L33.2,22 Z M50.8,23.0857143 L33.2,23.0857143 L33.0717168,23.0930187 C32.5246442,23.1557351 32.1,23.6146354 32.1,24.1714286 L32.1,24.1714286 L32.1,57.8285714 L32.1074005,57.9551887 C32.1709421,58.4951564 32.6358806,58.9142857 33.2,58.9142857 L33.2,58.9142857 L50.8,58.9142857 L50.9282832,58.9069813 C51.4753558,58.8442649 51.9,58.3853646 51.9,57.8285714 L51.9,57.8285714 L51.9,24.1714286 L51.8925995,24.0448113 C51.8290579,23.5048436 51.3641194,23.0857143 50.8,23.0857143 L50.8,23.0857143 Z M42,55.6571429 C42.6075132,55.6571429 43.1,56.1432337 43.1,56.7428571 C43.1,57.3424806 42.6075132,57.8285714 42,57.8285714 C41.3924868,57.8285714 40.9,57.3424806 40.9,56.7428571 C40.9,56.1432337 41.3924868,55.6571429 42,55.6571429 Z M40.1666667,35.5714286 C40.6729277,35.5714286 41.0833333,35.9765043 41.0833333,36.4761905 L41.0833333,39.1904762 C41.0833333,39.6901624 40.6729277,40.0952381 40.1666667,40.0952381 L37.4166667,40.0952381 C36.9104056,40.0952381 36.5,39.6901624 36.5,39.1904762 L36.5,36.4761905 C36.5,35.9765043 36.9104056,35.5714286 37.4166667,35.5714286 L40.1666667,35.5714286 Z M46.5833333,35.5714286 C47.0895944,35.5714286 47.5,35.9765043 47.5,36.4761905 L47.5,39.1904762 C47.5,39.6901624 47.0895944,40.0952381 46.5833333,40.0952381 L43.8333333,40.0952381 C43.3270723,40.0952381 42.9166667,39.6901624 42.9166667,39.1904762 L42.9166667,36.4761905 C42.9166667,35.9765043 43.3270723,35.5714286 43.8333333,35.5714286 L46.5833333,35.5714286 Z M40.1666667,36.4761905 L37.4166667,36.4761905 L37.4166667,39.1904762 L40.1666667,39.1904762 L40.1666667,36.4761905 Z M46.5833333,36.4761905 L43.8333333,36.4761905 L43.8333333,39.1904762 L46.5833333,39.1904762 L46.5833333,36.4761905 Z M40.1666667,29.2380952 C40.6729277,29.2380952 41.0833333,29.6431709 41.0833333,30.1428571 L41.0833333,32.8571429 C41.0833333,33.3568291 40.6729277,33.7619048 40.1666667,33.7619048 L37.4166667,33.7619048 C36.9104056,33.7619048 36.5,33.3568291 36.5,32.8571429 L36.5,30.1428571 C36.5,29.6431709 36.9104056,29.2380952 37.4166667,29.2380952 L40.1666667,29.2380952 Z M46.5833333,29.2380952 C47.0895944,29.2380952 47.5,29.6431709 47.5,30.1428571 L47.5,32.8571429 C47.5,33.3568291 47.0895944,33.7619048 46.5833333,33.7619048 L43.8333333,33.7619048 C43.3270723,33.7619048 42.9166667,33.3568291 42.9166667,32.8571429 L42.9166667,30.1428571 C42.9166667,29.6431709 43.3270723,29.2380952 43.8333333,29.2380952 L46.5833333,29.2380952 Z M40.1666667,30.1428571 L37.4166667,30.1428571 L37.4166667,32.8571429 L40.1666667,32.8571429 L40.1666667,30.1428571 Z M46.5833333,30.1428571 L43.8333333,30.1428571 L43.8333333,32.8571429 L46.5833333,32.8571429 L46.5833333,30.1428571 Z" id="icon-39-8"></path>
                </g>
            </g>
        </g>
    </g>
</svg>