<?xml version="1.0" encoding="UTF-8"?>
<svg width="42px" height="37px" viewBox="0 0 42 37" version="1.1" xmlns="http://www.w3.org/2000/svg" xmlns:xlink="http://www.w3.org/1999/xlink">
    <title>icon-39-3</title>
    <defs>
        <linearGradient x1="100%" y1="88.72%" x2="0%" y2="11.28%" id="linearGradient-1">
            <stop stop-color="#1E85E9" offset="0%"></stop>
            <stop stop-color="#8671F3" offset="20.275549%"></stop>
            <stop stop-color="#C06CFD" stop-opacity="0.99" offset="70.7268792%"></stop>
            <stop stop-color="#FFBEE8" offset="100%"></stop>
        </linearGradient>
    </defs>
    <g id="Page-1" stroke="none" stroke-width="1" fill="none" fill-rule="evenodd">
        <g id="a1qa-ERP-testing-v2" transform="translate(-405.000000, -2829.000000)" fill="url(#linearGradient-1)" fill-rule="nonzero">
            <g id="Group-13" transform="translate(375.000000, 2799.000000)">
                <g id="Group-5" transform="translate(30.000000, 30.000000)">
                    <path d="M37.902439,1.77635684e-14 C40.1654595,1.77635684e-14 42,1.83861729 42,4.10666667 L42,27.72 C42,29.9880494 40.1654595,31.8266667 37.902439,31.8266667 L27.755,31.826 L29.7073171,36.96 L13.3170732,36.96 L15.268,31.826 L4.09756098,31.8266667 C1.83454054,31.8266667 0,29.9880494 0,27.72 L0,4.10666667 C0,1.83861729 1.83454054,1.77635684e-14 4.09756098,1.77635684e-14 L37.902439,1.77635684e-14 Z M26.6597561,31.8266667 L16.3636098,31.8266667 L14.802439,35.9333333 L28.2209268,35.9333333 L26.6597561,31.8266667 Z M40.975,23.613 L1.024,23.613 L1.02439024,27.72 C1.02439024,29.3602857 2.30377167,30.7010918 3.91698885,30.7947715 L4.09756098,30.8 L15.658,30.8 L15.6585366,30.8 L27.3658537,30.8 L27.365,30.8 L37.902439,30.8 C39.5390877,30.8 40.8769209,29.5177755 40.9703929,27.9009734 L40.9756098,27.72 L40.975,23.613 Z M21,25.6666667 C21.8486327,25.6666667 22.5365854,26.3561482 22.5365854,27.2066667 C22.5365854,28.0571852 21.8486327,28.7466667 21,28.7466667 C20.1513673,28.7466667 19.4634146,28.0571852 19.4634146,27.2066667 C19.4634146,26.3561482 20.1513673,25.6666667 21,25.6666667 Z M21,26.6933333 C20.7171224,26.6933333 20.4878049,26.9231605 20.4878049,27.2066667 C20.4878049,27.4901728 20.7171224,27.72 21,27.72 C21.2828776,27.72 21.5121951,27.4901728 21.5121951,27.2066667 C21.5121951,26.9231605 21.2828776,26.6933333 21,26.6933333 Z M37.902439,1.02666667 L4.09756098,1.02666667 C2.46091227,1.02666667 1.1230791,2.30889116 1.02960715,3.92569327 L1.02439024,4.10666667 L1.024,22.586 L40.975,22.586 L40.9756098,4.10666667 C40.9756098,2.46638096 39.6962283,1.12557483 38.0830111,1.03189517 L37.902439,1.02666667 Z M24.8681896,5.04748279 L25.6204042,5.42134533 L18.6526698,19.440486 L17.9004552,19.0666234 L24.8681896,5.04748279 Z M14.7000883,6.84301515 L15.294058,7.43698485 L10.01448,12.71592 L15.294058,17.9961039 L14.7000883,18.5900736 L8.82655908,12.7165444 L14.7000883,6.84301515 Z M28.7405288,6.84301515 L34.614058,12.7165444 L28.7405288,18.5900736 L28.1465591,17.9961039 L33.4261371,12.71592 L28.1465591,7.43698485 L28.7405288,6.84301515 Z" id="icon-39-3"></path>
                </g>
            </g>
        </g>
    </g>
</svg>