<?xml version="1.0" encoding="UTF-8"?>
<svg width="62px" height="62px" viewBox="0 0 62 62" version="1.1" xmlns="http://www.w3.org/2000/svg" xmlns:xlink="http://www.w3.org/1999/xlink">
    <title>icon-39-6</title>
    <defs>
        <linearGradient x1="100%" y1="100%" x2="0%" y2="0%" id="linearGradient-1">
            <stop stop-color="#1E85E9" offset="0%"></stop>
            <stop stop-color="#8671F3" offset="20.275549%"></stop>
            <stop stop-color="#C06CFD" stop-opacity="0.99" offset="70.7268792%"></stop>
            <stop stop-color="#FFBEE8" offset="100%"></stop>
        </linearGradient>
        <rect id="path-2" x="0" y="0" width="60" height="60" rx="4"></rect>
        <linearGradient x1="99.7433978%" y1="100%" x2="0.256602198%" y2="0%" id="linearGradient-3">
            <stop stop-color="#1E85E9" offset="0%"></stop>
            <stop stop-color="#8671F3" offset="20.275549%"></stop>
            <stop stop-color="#C06CFD" stop-opacity="0.99" offset="70.7268792%"></stop>
            <stop stop-color="#FFBEE8" offset="100%"></stop>
        </linearGradient>
    </defs>
    <g id="Page-1" stroke="none" stroke-width="1" fill="none" fill-rule="evenodd">
        <g id="a1qa-test_automation" transform="translate(-929.000000, -6759.000000)">
            <g id="11-block" transform="translate(420.000000, 6394.000000)">
                <g id="5" transform="translate(400.000000, 366.000000)">
                    <g id="icon-39-6" transform="translate(110.000000, 0.000000)">
                        <g id="Rectangle-Copy-10" opacity="0.0620721756">
                            <use fill="#FAFAFA" xlink:href="#path-2"></use>
                            <use stroke-opacity="0.02" stroke="#000000" stroke-width="1" fill="url(#linearGradient-1)" xlink:href="#path-2"></use>
                        </g>
                        <path d="M53.3818112,7 L53.3928061,7.00012007 C53.4135436,7.00057322 53.4342585,7.00230896 53.4548217,7.00532742 L53.3818112,7 C53.4182692,7 53.4538158,7.00390204 53.4880562,7.01131127 C53.5037126,7.01472577 53.5197774,7.01902629 53.5356377,7.02413908 C53.5470504,7.02780344 53.5579839,7.03177581 53.5687322,7.03611089 C53.584462,7.04244395 53.599955,7.04961563 53.6151231,7.05762172 C53.6273023,7.06408824 53.639382,7.07113306 53.6511264,7.07865546 C53.6613958,7.08518006 53.6715026,7.09218792 53.6813971,7.0996107 C53.6971204,7.11145488 53.7118667,7.12391631 53.7258471,7.1371772 C53.7286514,7.13982968 53.7318305,7.1429199 53.7349783,7.14606078 L53.7427034,7.15394005 C53.7579992,7.16988724 53.7722482,7.1868462 53.7853402,7.20470649 L53.7349783,7.14606078 C53.7601272,7.17115478 53.7820462,7.19826042 53.8007349,7.22686098 C53.8099198,7.2409952 53.8184881,7.25567712 53.8263065,7.27080947 C53.832825,7.28338008 53.8387373,7.29615901 53.8440818,7.30911717 C53.8490129,7.32103289 53.8535479,7.33334044 53.8576022,7.34586434 C53.8627973,7.36207245 53.8671134,7.37820536 53.8706105,7.39447917 C53.8716736,7.39917914 53.8727593,7.40463615 53.8737555,7.41012437 L53.8771358,7.43158518 C53.8794164,7.44818739 53.8808626,7.4648824 53.8814746,7.48160242 L53.8818112,7.5 L53.8818112,13.5 C53.8818112,13.7761424 53.6579535,14 53.3818112,14 C53.1363513,14 52.9322028,13.8231248 52.8898668,13.5898756 L52.8818112,13.5 L52.88,8.71 L43.1507939,18.461998 C43.3105638,18.7246221 43.4115326,19.0269621 43.4354198,19.3507377 L43.4409056,19.5 L43.4409056,40.5 C43.4409056,41.6045695 42.5454751,42.5 41.4409056,42.5 L41.4409056,42.5 L20.4409056,42.5 C20.0794931,42.5 19.7404707,42.4041368 19.4478785,42.2364505 L9.704,52 L14.5,52 C14.7454599,52 14.9496084,52.1768752 14.9919443,52.4101244 L15,52.5 C15,52.7454599 14.8231248,52.9496084 14.5898756,52.9919443 L14.5,53 L8.5,53 L8.48071077,52.9996302 C8.46329901,52.9989623 8.44591531,52.9973894 8.42863623,52.9949115 L8.5,53 C8.46390296,53 8.42869933,52.9961748 8.39477235,52.9889078 C8.37892059,52.9854937 8.36243941,52.9811045 8.34617349,52.9758609 C8.33476076,52.9721966 8.32382724,52.9682242 8.31307894,52.9638891 C8.29734912,52.9575561 8.28185618,52.9503844 8.2666881,52.9423783 C8.25423048,52.9357648 8.24188643,52.9285501 8.22989352,52.9208367 C8.22055972,52.9148804 8.21153852,52.9086466 8.20268484,52.9020828 C8.18698315,52.8904117 8.17193624,52.8778391 8.15767597,52.864439 C8.15432347,52.8612988 8.1505562,52.8576544 8.14683286,52.8539392 L8.13458875,52.8412864 C8.1229392,52.8288187 8.11192025,52.8157542 8.10158273,52.8021439 L8.14683286,52.8539392 C8.1199693,52.8271343 8.09679099,52.798034 8.07729862,52.7672682 C8.07001934,52.7556825 8.06329334,52.7440467 8.05703434,52.7321272 C8.04995151,52.7186972 8.04350852,52.7048948 8.03772937,52.6908828 C8.03279825,52.6789671 8.02826323,52.6666596 8.02420896,52.6541357 C8.01869924,52.6369517 8.01417196,52.6198169 8.010567,52.6025279 C8.00973354,52.5987734 8.00886503,52.5943348 8.00805567,52.5898756 L8.00569464,52.575464 C8.00247304,52.5542486 8.00061829,52.5328654 8.00013053,52.5114565 L8,52.5 L8,46.5 C8,46.2238576 8.22385763,46 8.5,46 C8.74545989,46 8.94960837,46.1768752 8.99194433,46.4101244 L9,46.5 L9,51.29 L18.7310173,41.538002 C18.5712474,41.2753779 18.4702786,40.9730379 18.4463913,40.6492623 L18.4409056,40.5 L18.4409056,19.5 C18.4409056,18.3954305 19.3363361,17.5 20.4409056,17.5 L20.4409056,17.5 L41.4409056,17.5 C41.8024011,17.5 42.1414962,17.5959073 42.4341342,17.763665 L52.175,8 L47.3818112,8 C47.1363513,8 46.9322028,7.82312484 46.8898668,7.58987563 L46.8818112,7.5 C46.8818112,7.25454011 47.0586863,7.05039163 47.2919355,7.00805567 L47.3818112,7 L53.3818112,7 Z M41.4409056,18.5 L20.4409056,18.5 C19.8886208,18.5 19.4409056,18.9477153 19.4409056,19.5 L19.4409056,19.5 L19.4409056,40.5 C19.4409056,40.5986223 19.4551822,40.6939101 19.4817815,40.7839094 L24.5869664,35.6699851 C24.7820152,35.4745098 25.0985975,35.4741642 25.2940727,35.669213 C25.4678285,35.8425897 25.4874078,36.1119929 25.3526246,36.3070083 L25.2948448,36.3763193 L20.2095703,41.4731074 C20.2838226,41.490693 20.3612772,41.5 20.4409056,41.5 L20.4409056,41.5 L41.4409056,41.5 C41.9931903,41.5 42.4409056,41.0522847 42.4409056,40.5 L42.4409056,40.5 L42.4409056,19.5 C42.4409056,19.4010125 42.426523,19.3053841 42.3997336,19.2150908 L37.2948448,24.3300149 C37.099796,24.5254902 36.7832137,24.5258358 36.5877384,24.330787 C36.4139827,24.1574103 36.3944034,23.8880071 36.5291866,23.6929917 L36.5869664,23.6236807 L41.6712188,18.5266511 C41.5972779,18.5092218 41.5201687,18.5 41.4409056,18.5 L41.4409056,18.5 Z" id="Combined-Shape" fill="url(#linearGradient-3)" fill-rule="nonzero"></path>
                    </g>
                </g>
            </g>
        </g>
    </g>
</svg>