<?xml version="1.0" encoding="UTF-8"?>
<svg width="42px" height="35px" viewBox="0 0 42 35" version="1.1" xmlns="http://www.w3.org/2000/svg" xmlns:xlink="http://www.w3.org/1999/xlink">
    <title>icon-39-4</title>
    <defs>
        <linearGradient x1="100%" y1="83.3194502%" x2="0%" y2="16.6805498%" id="linearGradient-1">
            <stop stop-color="#1E85E9" offset="0%"></stop>
            <stop stop-color="#8671F3" offset="20.275549%"></stop>
            <stop stop-color="#C06CFD" stop-opacity="0.99" offset="70.7268792%"></stop>
            <stop stop-color="#FFBEE8" offset="100%"></stop>
        </linearGradient>
    </defs>
    <g id="Page-1" stroke="none" stroke-width="1" fill="none" fill-rule="evenodd">
        <g id="a1qa-ERP-testing-v2" transform="translate(-1005.000000, -2829.000000)" fill="url(#linearGradient-1)" fill-rule="nonzero">
            <g id="Group-13" transform="translate(375.000000, 2799.000000)">
                <g id="Group-5" transform="translate(630.000000, 30.000000)">
                    <path d="M40.0465116,0 C41.1253935,0 42,0.877156408 42,1.95918367 L42,32.3265306 C42,33.4085579 41.1253935,34.2857143 40.0465116,34.2857143 L1.95348837,34.2857143 C0.874606535,34.2857143 0,33.4085579 0,32.3265306 L0,1.95918367 C0,0.877156408 0.874606535,0 1.95348837,0 L40.0465116,0 Z M41.023,10.428 L0.976,10.428 L0.976744186,32.3265306 C0.976744186,32.8289004 1.3538067,33.2429458 1.83957937,33.299532 L1.95348837,33.3061224 L40.0465116,33.3061224 C40.5474211,33.3061224 40.9602628,32.9279606 41.0166845,32.4407717 L41.0232558,32.3265306 L41.023,10.428 Z M21.2381941,13.7142857 C22.858991,13.7142857 24.4117593,14.162692 25.7454696,14.9909335 L26.0092461,15.1616259 L25.4785357,15.9050791 C24.2424211,15.0721283 22.7758218,14.6190476 21.2381941,14.6190476 C17.1237703,14.6190476 13.7883708,17.8596532 13.7883708,21.8571429 C13.7883708,25.8546325 17.1237703,29.0952381 21.2381941,29.0952381 C25.2749873,29.0952381 28.561876,25.9757658 28.6844724,22.0825908 L28.6880175,21.8571429 L29.6192454,21.8571429 C29.6192454,26.3543187 25.8669209,30 21.2381941,30 C16.6094673,30 12.8571429,26.3543187 12.8571429,21.8571429 C12.8571429,17.359967 16.6094673,13.7142857 21.2381941,13.7142857 Z M21.2381941,17.3333333 C22.1111641,17.3333333 22.9490294,17.5676602 23.6746699,18.0014435 L23.8889182,18.1375273 L23.3582078,18.8809804 C22.7401798,18.4645248 22.0072388,18.2380952 21.2381941,18.2380952 C19.1809822,18.2380952 17.5132824,19.858398 17.5132824,21.8571429 C17.5132824,23.8558877 19.1809822,25.4761905 21.2381941,25.4761905 C23.2330663,25.4761905 24.8616754,23.9526 24.9585471,22.0377698 L24.9631058,21.8571429 L25.8943337,21.8571429 C25.8943337,24.3555739 23.809709,26.3809524 21.2381941,26.3809524 C18.6666792,26.3809524 16.5820545,24.3555739 16.5820545,21.8571429 C16.5820545,19.3587118 18.6666792,17.3333333 21.2381941,17.3333333 Z M29.189766,15.1076371 L30.0688565,15.4061278 L29.2997293,17.5429048 L31.7142857,18.548482 L31.3474571,19.3800894 L28.9721429,18.3902857 L21.4560492,22.2569517 L21.0203391,21.457334 L28.2421429,17.7422857 L29.189766,15.1076371 Z M40.0465116,0.979591837 L1.95348837,0.979591837 C1.45257895,0.979591837 1.03973719,1.35775366 0.983315459,1.84494257 L0.976744186,1.95918367 L0.976,9.428 L41.023,9.428 L41.0232558,1.95918367 C41.0232558,1.45681387 40.6461933,1.0427685 40.1604206,0.986182267 L40.0465116,0.979591837 Z M4.71428571,2.57142857 C5.89775304,2.57142857 6.85714286,3.53081839 6.85714286,4.71428571 C6.85714286,5.89775304 5.89775304,6.85714286 4.71428571,6.85714286 C3.53081839,6.85714286 2.57142857,5.89775304 2.57142857,4.71428571 C2.57142857,3.53081839 3.53081839,2.57142857 4.71428571,2.57142857 Z M9.85714286,2.57142857 C11.0406102,2.57142857 12,3.53081839 12,4.71428571 C12,5.89775304 11.0406102,6.85714286 9.85714286,6.85714286 C8.67367554,6.85714286 7.71428571,5.89775304 7.71428571,4.71428571 C7.71428571,3.53081839 8.67367554,2.57142857 9.85714286,2.57142857 Z M15,2.57142857 C16.1834673,2.57142857 17.1428571,3.53081839 17.1428571,4.71428571 C17.1428571,5.89775304 16.1834673,6.85714286 15,6.85714286 C13.8165327,6.85714286 12.8571429,5.89775304 12.8571429,4.71428571 C12.8571429,3.53081839 13.8165327,2.57142857 15,2.57142857 Z M4.71428571,3.64285714 C4.12255205,3.64285714 3.64285714,4.12255205 3.64285714,4.71428571 C3.64285714,5.30601937 4.12255205,5.78571429 4.71428571,5.78571429 C5.30601937,5.78571429 5.78571429,5.30601937 5.78571429,4.71428571 C5.78571429,4.12255205 5.30601937,3.64285714 4.71428571,3.64285714 Z M9.85714286,3.64285714 C9.2654092,3.64285714 8.78571429,4.12255205 8.78571429,4.71428571 C8.78571429,5.30601937 9.2654092,5.78571429 9.85714286,5.78571429 C10.4488765,5.78571429 10.9285714,5.30601937 10.9285714,4.71428571 C10.9285714,4.12255205 10.4488765,3.64285714 9.85714286,3.64285714 Z M15,3.64285714 C14.4082663,3.64285714 13.9285714,4.12255205 13.9285714,4.71428571 C13.9285714,5.30601937 14.4082663,5.78571429 15,5.78571429 C15.5917337,5.78571429 16.0714286,5.30601937 16.0714286,4.71428571 C16.0714286,4.12255205 15.5917337,3.64285714 15,3.64285714 Z" id="icon-39-4"></path>
                </g>
            </g>
        </g>
    </g>
</svg>