<?xml version="1.0" encoding="UTF-8"?>
<svg width="62px" height="62px" viewBox="0 0 62 62" version="1.1" xmlns="http://www.w3.org/2000/svg" xmlns:xlink="http://www.w3.org/1999/xlink">
    <title>icon-39-5</title>
    <defs>
        <linearGradient x1="100%" y1="100%" x2="0%" y2="0%" id="linearGradient-1">
            <stop stop-color="#1E85E9" offset="0%"></stop>
            <stop stop-color="#8671F3" offset="20.275549%"></stop>
            <stop stop-color="#C06CFD" stop-opacity="0.99" offset="70.7268792%"></stop>
            <stop stop-color="#FFBEE8" offset="100%"></stop>
        </linearGradient>
        <linearGradient x1="100%" y1="88.9484456%" x2="0%" y2="11.0515544%" id="linearGradient-2">
            <stop stop-color="#1E85E9" offset="0%"></stop>
            <stop stop-color="#8671F3" offset="20.275549%"></stop>
            <stop stop-color="#C06CFD" stop-opacity="0.99" offset="70.7268792%"></stop>
            <stop stop-color="#FFBEE8" offset="100%"></stop>
        </linearGradient>
    </defs>
    <g id="Page-1" stroke="none" stroke-width="1" fill="none" fill-rule="evenodd">
        <g id="a1qa-process-maturity" transform="translate(-688.000000, -4572.000000)" fill-rule="nonzero">
            <g id="#8" transform="translate(375.000000, 4495.000000)">
                <g id="ico" transform="translate(312.000000, 78.000000)">
                    <g id="icon-39-5" transform="translate(2.000000, 0.000000)">
                        <g id="Rectangle" opacity="0.0620721756">
                            <g id="path-2-link" fill="#FAFAFA">
                                <rect id="path-2" x="0" y="0" width="60" height="60" rx="4"></rect>
                            </g>
                            <g id="path-2-link" fill="url(#linearGradient-1)" stroke="#000000" stroke-opacity="0.02">
                                <rect id="path-2" x="0" y="0" width="60" height="60" rx="4"></rect>
                            </g>
                        </g>
                        <path d="M15,45 C14.4627872,45 13.9581141,44.7865413 13.5857864,44.4142136 C13.2621571,44.0905843 13.057143,43.6651109 13.0083805,43.1785819 L13.0083805,43.1785819 L13,43 L13,18 C13,17.4627872 13.2134587,16.9581141 13.5857864,16.5857864 C13.9094157,16.2621571 14.3348891,16.057143 14.8214181,16.0083805 L14.8214181,16.0083805 L15,16 L31.7428571,16 C32.2800699,16 32.784743,16.2134587 33.1570707,16.5857864 C33.4806938,16.9094096 33.6857119,17.3348788 33.7344764,17.8213793 L33.7344764,17.8213793 L33.7428571,18 L33.741,26 L44,26 C44.4775225,26 44.9293346,26.1686587 45.2853396,26.4676361 L45.2853396,26.4676361 L45.4142136,26.5857864 C45.7378429,26.9094157 45.942857,27.3348891 45.9916195,27.8214181 L45.9916195,27.8214181 L46,28 L46,43 C46,43.5372128 45.7865413,44.0418859 45.4142136,44.4142136 C45.0905843,44.7378429 44.6651109,44.942857 44.1785819,44.9916195 L44.1785819,44.9916195 L44,45 Z M26,36 L21,36 L21,44 L26,44 L26,36 Z M15.0252156,16.9993638 L14.8971516,17.0051857 C14.6671016,17.0285485 14.4550711,17.1307153 14.2928932,17.2928932 C14.1062428,17.4795436 14,17.7307297 14,18 L14,18 L13.9993638,42.9747844 L14.0051857,43.1028484 C14.0285485,43.3328984 14.1307153,43.5449289 14.2928932,43.7071068 C14.4795436,43.8937572 14.7307297,44 15,44 L15,44 L20,44 L20,35 L27,35 L27,44 L43.9747844,44.0006362 L44.1028484,43.9948143 C44.3328984,43.9714515 44.5449289,43.8692847 44.7071068,43.7071068 C44.8937572,43.5204564 45,43.2692703 45,43 L45,43 L45.0006362,28.0252156 L44.9948143,27.8971516 C44.9714515,27.6671016 44.8692847,27.4550711 44.7071068,27.2928932 C44.5204564,27.1062428 44.2692703,27 44,27 L44,27 L32.7418928,27 L32.7434935,18.0251649 L32.7376719,17.8971208 C32.7143097,17.6671 32.6121396,17.4550689 32.4499639,17.2928932 C32.2633135,17.1062428 32.0121274,17 31.7428571,17 L31.7428571,17 L15.0252156,16.9993638 Z" id="Combined-Shape" fill="url(#linearGradient-2)"></path>
                    </g>
                </g>
            </g>
        </g>
    </g>
</svg>