<?xml version="1.0" encoding="UTF-8"?>
<svg width="34px" height="36px" viewBox="0 0 34 36" version="1.1" xmlns="http://www.w3.org/2000/svg" xmlns:xlink="http://www.w3.org/1999/xlink">
    <title>icon-38-9</title>
    <defs>
        <linearGradient x1="95.05758%" y1="100%" x2="4.94242002%" y2="0%" id="linearGradient-1">
            <stop stop-color="#1E85E9" offset="0%"></stop>
            <stop stop-color="#8671F3" offset="20.275549%"></stop>
            <stop stop-color="#C06CFD" stop-opacity="0.99" offset="70.7268792%"></stop>
            <stop stop-color="#FFBEE8" offset="100%"></stop>
        </linearGradient>
    </defs>
    <g id="Page-1" stroke="none" stroke-width="1" fill="none" fill-rule="evenodd">
        <g id="a1qa-Testing-environment-V2" transform="translate(-868.000000, -2859.000000)" stroke="url(#linearGradient-1)">
            <g id="6-block" transform="translate(375.000000, 2705.000000)">
                <g id="3" transform="translate(475.000000, 137.000000)">
                    <path d="M31.740611,18 C34.2547323,18 36.2928303,20.038098 36.2928303,22.5522192 L36.292,25.489 L43.1717697,25.4890025 L43.171,34.107 L46.4477808,34.1078526 C48.89007,34.1078526 50.8831487,36.0311516 50.9950452,38.4457779 L51,38.6600718 C51,41.174193 48.961902,43.212291 46.4477808,43.212291 L46.4477808,43.212291 L43.171,43.212 L43.1717697,51.7094021 L36.508,51.7090025 L36.5085354,49.8655344 C36.5085354,47.3514132 34.4704374,45.3133152 31.9563162,45.3133152 C29.442195,45.3133152 27.404097,47.3514132 27.404097,49.8655344 L27.404,51.7090025 L19.0004158,51.7094021 L19,43.2120025 L22.6361726,43.212291 C25.0784618,43.212291 27.0715405,41.288992 27.183437,38.8743657 L27.1883918,38.6600718 C27.1883918,36.2177826 25.2650929,34.2247039 22.8504665,34.1128074 L22.6361726,34.1078526 L19,34.1070025 L19.0004158,25.4890025 L27.188,25.489 L27.1883918,22.5522192 C27.1883918,20.038098 29.2264898,18 31.740611,18 Z" id="icon-38-9"></path>
                </g>
            </g>
        </g>
    </g>
</svg>