<?xml version="1.0" encoding="UTF-8"?>
<svg width="62px" height="62px" viewBox="0 0 62 62" version="1.1" xmlns="http://www.w3.org/2000/svg" xmlns:xlink="http://www.w3.org/1999/xlink">
    <title>icon-39-9</title>
    <defs>
        <linearGradient x1="100%" y1="100%" x2="0%" y2="0%" id="linearGradient-1">
            <stop stop-color="#1E85E9" offset="0%"></stop>
            <stop stop-color="#8671F3" offset="20.275549%"></stop>
            <stop stop-color="#C06CFD" stop-opacity="0.99" offset="70.7268792%"></stop>
            <stop stop-color="#FFBEE8" offset="100%"></stop>
        </linearGradient>
        <linearGradient x1="95.703132%" y1="100%" x2="4.29686801%" y2="0%" id="linearGradient-2">
            <stop stop-color="#1E85E9" offset="0%"></stop>
            <stop stop-color="#8671F3" offset="20.275549%"></stop>
            <stop stop-color="#C06CFD" stop-opacity="0.99" offset="70.7268792%"></stop>
            <stop stop-color="#FFBEE8" offset="100%"></stop>
        </linearGradient>
    </defs>
    <g id="Page-1" stroke="none" stroke-width="1" fill="none" fill-rule="evenodd">
        <g id="a1qa-test_automation" transform="translate(-1379.000000, -681.000000)">
            <g id="1-block" transform="translate(385.000000, 590.000000)">
                <g id="#4" transform="translate(900.000000, 92.000000)">
                    <g id="icon-39-9" transform="translate(95.000000, 0.000000)">
                        <rect id="Rectangle" stroke-opacity="0.02" stroke="#000000" fill="url(#linearGradient-1)" opacity="0.0620721756" x="0" y="0" width="60" height="60" rx="4"></rect>
                        <path d="M43.4370555,11.1836564 C43.5487018,11.28245 43.6056987,11.4200072 43.6057187,11.5582194 L43.6140625,11.5581055 L43.614,14.585 L46.6531918,14.5843365 C46.8145875,14.5575611 46.9858664,14.6104391 47.1044922,14.7401733 C47.2701298,14.9213218 47.2773571,15.1913388 47.1337886,15.3799803 L47.0728967,15.4465739 L43.8196631,18.3989052 C43.7365163,18.4749326 43.6308037,18.5200876 43.5200437,18.5284806 L43.4363011,18.5277905 L42.0386444,18.3977887 C44.3562485,21.2010864 45.7733867,24.7761616 45.8469853,28.6799405 L45.85,29 C45.85,34.3927143 43.2862459,39.1866317 39.3110845,42.2294054 L40.6606441,44.6645004 C41.1425995,45.5339708 40.8284564,46.6295179 39.958986,47.1114732 C39.1352771,47.5680625 38.108663,47.3101479 37.5930881,46.5424498 L37.5120132,46.4098151 L36.2301197,44.0974277 C34.0943515,45.0936452 31.7121476,45.65 29.2,45.65 C26.6878524,45.65 24.3056485,45.0936452 22.1698803,44.0974277 L20.8879868,46.4098151 C20.4060315,47.2792855 19.3104845,47.5934285 18.441014,47.1114732 C17.5715436,46.6295179 17.2574005,45.5339708 17.7393559,44.6645004 L19.0889155,42.2294054 C15.1137541,39.1866317 12.55,34.3927143 12.55,29 C12.55,19.8044589 20.0044589,12.35 29.2,12.35 C33.2319522,12.35 36.9291739,13.7831522 39.810042,16.1678336 L39.8098151,14.7177394 C39.8098151,14.6261865 39.8349344,14.5370056 39.8816214,14.4595701 L39.935366,14.3863969 L42.7312638,11.2267629 C42.9142593,11.0199604 43.230253,11.000661 43.4370555,11.1836564 Z M38.5758813,42.7611393 C38.0810628,43.0989265 37.5670886,43.4107216 37.0359243,43.694559 L38.2991709,45.9734864 C38.5030751,46.3413393 38.9266378,46.5103915 39.3155127,46.4077104 L39.4205183,46.3729145 L39.5226573,46.3243155 C39.9239514,46.1018746 40.0886562,45.6180218 39.9220855,45.2029681 L39.8734864,45.1008291 L38.5758813,42.7611393 Z M19.8241187,42.7611393 L18.5265136,45.1008291 C18.2855359,45.5355643 18.4426075,46.0833378 18.8773427,46.3243155 L18.9794817,46.3729145 C19.3945354,46.5394853 19.8783882,46.3747804 20.1008291,45.9734864 L21.3640757,43.694559 C20.8329114,43.4107216 20.3189372,43.0989265 19.8241187,42.7611393 Z M29.2,13.25 C20.5015152,13.25 13.45,20.3015152 13.45,29 C13.45,34.310091 16.0778414,39.0064167 20.104008,41.859461 L22.6333014,43.2611841 L22.6075377,43.3080993 C24.6130409,44.2336718 26.846223,44.75 29.2,44.75 C31.553777,44.75 33.7869591,44.2336718 35.7924623,43.3080993 L35.7666986,43.2611841 L38.295992,41.859461 C42.3221586,39.0064167 44.95,34.310091 44.95,29 C44.95,24.8579051 43.3510484,21.0892654 40.7367092,18.2776448 L40.574,18.2630997 L37.467284,21.3700736 C39.3188041,23.3752629 40.45,26.055529 40.45,29 C40.45,35.2132034 35.4132034,40.25 29.2,40.25 C22.9867966,40.25 17.95,35.2132034 17.95,29 C17.95,22.7867966 22.9867966,17.75 29.2,17.75 C32.144471,17.75 34.8247371,18.8811959 36.8299264,20.732716 L39.809,17.7520997 L39.809,17.3600997 L39.7283952,17.2859169 C36.9385498,14.7768124 33.2475779,13.25 29.2,13.25 Z M29.2,18.65 C23.4838528,18.65 18.85,23.2838528 18.85,29 C18.85,34.7161472 23.4838528,39.35 29.2,39.35 C34.9161472,39.35 39.55,34.7161472 39.55,29 C39.55,26.3042237 38.5193691,23.849164 36.8306366,22.0073504 L33.0047183,25.833321 C33.719819,26.6915656 34.15,27.7955457 34.15,29 C34.15,31.7338095 31.9338095,33.95 29.2,33.95 C26.4661905,33.95 24.25,31.7338095 24.25,29 C24.25,26.2661905 26.4661905,24.05 29.2,24.05 C30.4044543,24.05 31.5084344,24.480181 32.366679,25.1952817 L36.1926496,21.3693634 C34.350836,19.6806309 31.8957763,18.65 29.2,18.65 Z M29.2,24.95 C26.9632468,24.95 25.15,26.7632468 25.15,29 C25.15,31.2367532 26.9632468,33.05 29.2,33.05 C31.4367532,33.05 33.25,31.2367532 33.25,29 C33.25,28.0440626 32.9188081,27.1654792 32.3649089,26.4727344 L29.5181981,29.3181981 L28.8818019,28.6818019 L31.7281704,25.8358147 C31.0352858,25.2814803 30.1563536,24.95 29.2,24.95 Z M45.541,15.4850997 L43.351,15.4851055 L41.492,17.3440997 L43.306,17.512 L45.541,15.4850997 Z M42.714,12.7550997 L40.809,14.908 L40.809,16.7530997 L42.714,14.8481055 L42.714,12.7550997 Z" id="Combined-Shape" fill="url(#linearGradient-2)" fill-rule="nonzero"></path>
                    </g>
                </g>
            </g>
        </g>
    </g>
</svg>