<?xml version="1.0" encoding="UTF-8"?>
<svg width="62px" height="62px" viewBox="0 0 62 62" version="1.1" xmlns="http://www.w3.org/2000/svg" xmlns:xlink="http://www.w3.org/1999/xlink">
    <title>icon-38-7</title>
    <defs>
        <linearGradient x1="100%" y1="100%" x2="0%" y2="0%" id="linearGradient-1">
            <stop stop-color="#1E85E9" offset="0%"></stop>
            <stop stop-color="#8671F3" offset="20.275549%"></stop>
            <stop stop-color="#C06CFD" stop-opacity="0.99" offset="70.7268792%"></stop>
            <stop stop-color="#FFBEE8" offset="100%"></stop>
        </linearGradient>
        <rect id="path-2" x="0" y="0" width="60" height="60" rx="4"></rect>
        <linearGradient x1="92.0138889%" y1="100%" x2="7.98611111%" y2="0%" id="linearGradient-3">
            <stop stop-color="#1E85E9" offset="0%"></stop>
            <stop stop-color="#8671F3" offset="20.275549%"></stop>
            <stop stop-color="#C06CFD" stop-opacity="0.99" offset="70.7268792%"></stop>
            <stop stop-color="#FFBEE8" offset="100%"></stop>
        </linearGradient>
    </defs>
    <g id="Page-1" stroke="none" stroke-width="1" fill="none" fill-rule="evenodd">
        <g id="a1qa-qa-outsourcing-v2" transform="translate(-529.000000, -5409.000000)">
            <g id="#10" transform="translate(405.000000, 5220.000000)">
                <g id="#1" transform="translate(0.000000, 190.000000)">
                    <g id="icon-38-7" transform="translate(125.000000, 0.000000)">
                        <g id="Rectangle" opacity="0.0620721756">
                            <use fill="#FAFAFA" xlink:href="#path-2"></use>
                            <use stroke-opacity="0.02" stroke="#000000" stroke-width="1" fill="url(#linearGradient-1)" xlink:href="#path-2"></use>
                        </g>
                        <path d="M27.8028109,14.1657127 C27.8375331,14.4410004 27.6450148,14.6926318 27.3728091,14.7277472 C20.0460789,15.6729183 14.4937313,22.0037046 14.4937313,29.5409562 C14.4937313,37.242186 20.2720774,43.6217642 27.7331288,44.3961536 L23.9704591,41.7910619 C23.7683686,41.6511823 23.702227,41.3908513 23.8017973,41.1768381 L23.8469621,41.09908 C23.9884254,40.899252 24.251704,40.8338508 24.4681403,40.9323064 L24.5467788,40.9769655 L29.5716919,44.455025 C29.8314876,44.634846 29.8551054,44.997053 29.6425453,45.2100351 L29.5716919,45.2691214 L24.4232818,47.372914 C24.1959299,47.5302786 23.8826113,47.4756061 23.723465,47.2507996 C23.5820016,47.0509715 23.6099706,46.7839796 23.7776089,46.6165929 L23.8469621,46.5588176 L27.1343957,45.3362613 C19.4121051,44.2842517 13.5,37.58888 13.5,29.5409562 C13.5,21.4962728 19.4256672,14.7398275 27.2470687,13.7308423 C27.5192744,13.6957269 27.7680886,13.890425 27.8028109,14.1657127 Z M36.3214469,11.7542312 C36.4629103,11.9540592 36.4349413,12.2210511 36.2673031,12.3884378 L36.1979499,12.4462131 L32.6118056,14.2215277 C40.4579801,15.159832 46.5,21.9134257 46.5,30.0492931 C46.5,38.0939765 40.5743328,44.8504218 32.7529313,45.859407 C32.4807256,45.8945224 32.2319114,45.6998243 32.1971891,45.4245366 C32.1624669,45.1492489 32.3549852,44.8976175 32.6271909,44.8625021 C39.9539211,43.917331 45.5062687,37.5865447 45.5062687,30.0492931 C45.5062687,22.3242962 39.692202,15.9291211 32.1977456,15.1870863 L36.029288,18.1026087 C36.2313786,18.2424883 36.2975202,18.5028194 36.1979499,18.7168326 L36.1527851,18.7945907 C36.0113217,18.9944187 35.7480432,19.0598198 35.5316068,18.9613642 L35.4529683,18.9167051 L30.4280553,15.1336468 C30.1682595,14.9538258 30.1446417,14.5916188 30.3572019,14.3786367 L30.4280553,14.3195505 L35.6216302,11.6321167 C35.848982,11.4747522 36.1623007,11.5294247 36.3214469,11.7542312 Z" id="ico-continuous" fill="url(#linearGradient-3)" fill-rule="nonzero" transform="translate(30.000000, 29.500000) rotate(-90.000000) translate(-30.000000, -29.500000) "></path>
                    </g>
                </g>
            </g>
        </g>
    </g>
</svg>