<svg xmlns="http://www.w3.org/2000/svg" width="429" height="297" viewBox="0 0 429 297">
  <defs>
    <linearGradient id="img-illustration-specialization-a" x1="100%" x2="0%" y1="73.612%" y2="26.388%">
      <stop offset="0%" stop-color="#1E85E9"/>
      <stop offset="20.276%" stop-color="#8671F3"/>
      <stop offset="70.727%" stop-color="#C06CFD" stop-opacity=".99"/>
      <stop offset="100%" stop-color="#FFBEE8"/>
    </linearGradient>
    <linearGradient id="img-illustration-specialization-b" x1="108.096%" x2="0%" y1="108.696%" y2="0%">
      <stop offset="0%" stop-color="#1E85E9"/>
      <stop offset="20.276%" stop-color="#8671F3"/>
      <stop offset="70.727%" stop-color="#CFA9FC"/>
      <stop offset="100%" stop-color="#F4D9FB"/>
    </linearGradient>
  </defs>
  <g fill="none" fill-rule="evenodd">
    <g opacity=".5" transform="translate(5.416 5)">
      <path stroke="url(#img-illustration-specialization-a)" stroke-dasharray="4 5" stroke-linecap="round" d="M5.58968107,263.689803 C32.1203114,309.679439 145.592969,293.82217 259.037956,228.271602 C372.482942,162.721034 442.940949,72.2998335 416.410319,26.3101974 C389.879689,-19.6794388 276.407031,-3.82217039 162.962044,61.7283976 C49.5170578,127.278966 -20.9409492,217.700167 5.58968107,263.689803 Z"/>
      <path stroke="#E3E0E0" d="M146.794225,12.5961958 C78.5153284,-7.45765807 23.1051558,-4.05207816 5.58968107,26.3101974 C-11.6934846,56.2697758 12.1830599,105.085072 62.2901926,153.597026 M195.779199,245.875184 C297.530099,296.309744 392.443994,305.234333 416.410319,263.689803 C440.555334,221.835522 384.369809,143.180934 288.558658,79.9640647"/>
    </g>
    <g fill-rule="nonzero" transform="translate(146)">
      <polygon fill="url(#img-illustration-specialization-b)" points="70 140 65.605 139.862 61.227 139.448 56.883 138.76 52.592 137.801 48.369 136.574 44.231 135.084 40.195 133.338 36.277 131.341 32.492 129.103 28.855 126.631 25.38 123.936 22.082 121.028 18.972 117.918 16.064 114.62 13.369 111.145 10.897 107.508 8.659 103.723 6.662 99.805 4.916 95.769 3.426 91.631 2.199 87.408 1.24 83.117 .552 78.773 .138 74.395 0 70 .138 65.605 .552 61.227 1.24 56.883 2.199 52.592 3.426 48.369 4.916 44.231 6.662 40.195 8.659 36.277 10.897 32.492 13.369 28.855 16.064 25.38 18.972 22.082 22.082 18.972 25.38 16.064 28.855 13.369 32.492 10.897 36.277 8.659 40.195 6.662 44.231 4.916 48.369 3.426 52.592 2.199 56.883 1.24 61.227 .552 65.605 .138 70 0 74.395 .138 78.773 .552 83.117 1.24 87.408 2.199 91.631 3.426 95.769 4.916 99.805 6.662 103.723 8.659 107.508 10.897 111.145 13.369 114.62 16.064 117.918 18.972 121.028 22.082 123.936 25.38 126.631 28.855 129.103 32.492 131.341 36.277 133.338 40.195 135.084 44.231 136.574 48.369 137.801 52.592 138.76 56.883 139.448 61.227 139.862 65.605 140 70 139.862 74.395 139.448 78.773 138.76 83.117 137.801 87.408 136.574 91.631 135.084 95.769 133.338 99.805 131.341 103.723 129.103 107.508 126.631 111.145 123.936 114.62 121.028 117.918 117.918 121.028 114.62 123.936 111.145 126.631 107.508 129.103 103.723 131.341 99.805 133.338 95.769 135.084 91.631 136.574 87.408 137.801 83.117 138.76 78.773 139.448 74.395 139.862"/>
      <polygon fill="#FFF" points="70 120 66.86 119.901 63.733 119.606 60.631 119.114 57.566 118.429 54.549 117.553 51.594 116.489 48.711 115.241 45.912 113.815 43.209 112.216 40.611 110.451 38.129 108.526 35.773 106.448 33.552 104.227 31.474 101.871 29.549 99.389 27.784 96.791 26.185 94.088 24.759 91.289 23.511 88.406 22.447 85.451 21.571 82.434 20.886 79.369 20.394 76.267 20.099 73.14 20 70 20.099 66.86 20.394 63.733 20.886 60.631 21.571 57.566 22.447 54.549 23.511 51.594 24.759 48.711 26.185 45.912 27.784 43.209 29.549 40.611 31.474 38.129 33.552 35.773 35.773 33.552 38.129 31.474 40.611 29.549 43.209 27.784 45.912 26.185 48.711 24.759 51.594 23.511 54.549 22.447 57.566 21.571 60.631 20.886 63.733 20.394 66.86 20.099 70 20 73.14 20.099 76.267 20.394 79.369 20.886 82.434 21.571 85.451 22.447 88.406 23.511 91.289 24.759 94.088 26.185 96.791 27.784 99.389 29.549 101.871 31.474 104.227 33.552 106.448 35.773 108.526 38.129 110.451 40.611 112.216 43.209 113.815 45.912 115.241 48.711 116.489 51.594 117.553 54.549 118.429 57.566 119.114 60.631 119.606 63.733 119.901 66.86 120 70 119.901 73.14 119.606 76.267 119.114 79.369 118.429 82.434 117.553 85.451 116.489 88.406 115.241 91.289 113.815 94.088 112.216 96.791 110.451 99.389 108.526 101.871 106.448 104.227 104.227 106.448 101.871 108.526 99.389 110.451 96.791 112.216 94.088 113.815 91.289 115.241 88.406 116.489 85.451 117.553 82.434 118.429 79.369 119.114 76.267 119.606 73.14 119.901"/>
      <g fill="#5055FE" transform="translate(51 50)">
        <path d="M33 1C33.2454599 1 33.4496084 1.17687516 33.4919443 1.41012437L33.5 1.5 33.5 37.5C33.5 37.7761424 33.2761424 38 33 38 32.7545401 38 32.5503916 37.8231248 32.5080557 37.5898756L32.5 37.5 32.5 1.5C32.5 1.22385763 32.7238576 1 33 1zM21 21C21.2454599 21 21.4496084 21.1768752 21.4919443 21.4101244L21.5 21.5 21.5 37.5C21.5 37.7761424 21.2761424 38 21 38 20.7545401 38 20.5503916 37.8231248 20.5080557 37.5898756L20.5 37.5 20.5 21.5C20.5 21.2238576 20.7238576 21 21 21zM15 25C15.2454599 25 15.4496084 25.1768752 15.4919443 25.4101244L15.5 25.5 15.5 37.5C15.5 37.7761424 15.2761424 38 15 38 14.7545401 38 14.5503916 37.8231248 14.5080557 37.5898756L14.5 37.5 14.5 25.5C14.5 25.2238576 14.7238576 25 15 25zM27 17C27.2454599 17 27.4496084 17.1768752 27.4919443 17.4101244L27.5 17.5 27.5 37.5C27.5 37.7761424 27.2761424 38 27 38 26.7545401 38 26.5503916 37.8231248 26.5080557 37.5898756L26.5 37.5 26.5 17.5C26.5 17.2238576 26.7238576 17 27 17zM9 29C9.24545989 29 9.44960837 29.1768752 9.49194433 29.4101244L9.5 29.5 9.5 37.5C9.5 37.7761424 9.27614237 38 9 38 8.75454011 38 8.55039163 37.8231248 8.50805567 37.5898756L8.5 37.5 8.5 29.5C8.5 29.2238576 8.72385763 29 9 29zM3 33C3.24545989 33 3.44960837 33.1768752 3.49194433 33.4101244L3.5 33.5 3.5 37.5C3.5 37.7761424 3.27614237 38 3 38 2.75454011 38 2.55039163 37.8231248 2.50805567 37.5898756L2.5 37.5 2.5 33.5C2.5 33.2238576 2.72385763 33 3 33z"/>
        <path d="M32.5733591.239274995C32.7520768-.0531722212 33.1563145-.0775428225 33.3726189.166163191L33.4266409.239274995 38.9266409 9.239275C39.0706354 9.47490227 38.9963523 9.78264647 38.760725 9.92664092 38.5512785 10.054636 38.2848508 10.0101648 38.1270985 9.83321362L38.0733591 9.760725 33 1.458 27.9266409 9.760725C27.7986459 9.97017147 27.5412683 10.0521361 27.3201649 9.96663281L27.239275 9.92664092C27.0298285 9.79864586 26.9478639 9.54126827 27.0333672 9.32016487L27.0733591 9.239275 32.5733591.239274995zM36.5 39C36.7761424 39 37 39.2238576 37 39.5 37 39.7454599 36.8231248 39.9496084 36.5898756 39.9919443L36.5 40 .5 40C.223857625 40 0 39.7761424 0 39.5 0 39.2545401.176875161 39.0503916.410124368 39.0080557L.5 39 36.5 39z"/>
      </g>
    </g>
    <g fill-rule="nonzero" transform="translate(68 125)">
      <polygon fill="url(#img-illustration-specialization-b)" points="70 140 65.605 139.862 61.227 139.448 56.883 138.76 52.592 137.801 48.369 136.574 44.231 135.084 40.195 133.338 36.277 131.341 32.492 129.103 28.855 126.631 25.38 123.936 22.082 121.028 18.972 117.918 16.064 114.62 13.369 111.145 10.897 107.508 8.659 103.723 6.662 99.805 4.916 95.769 3.426 91.631 2.199 87.408 1.24 83.117 .552 78.773 .138 74.395 0 70 .138 65.605 .552 61.227 1.24 56.883 2.199 52.592 3.426 48.369 4.916 44.231 6.662 40.195 8.659 36.277 10.897 32.492 13.369 28.855 16.064 25.38 18.972 22.082 22.082 18.972 25.38 16.064 28.855 13.369 32.492 10.897 36.277 8.659 40.195 6.662 44.231 4.916 48.369 3.426 52.592 2.199 56.883 1.24 61.227 .552 65.605 .138 70 0 74.395 .138 78.773 .552 83.117 1.24 87.408 2.199 91.631 3.426 95.769 4.916 99.805 6.662 103.723 8.659 107.508 10.897 111.145 13.369 114.62 16.064 117.918 18.972 121.028 22.082 123.936 25.38 126.631 28.855 129.103 32.492 131.341 36.277 133.338 40.195 135.084 44.231 136.574 48.369 137.801 52.592 138.76 56.883 139.448 61.227 139.862 65.605 140 70 139.862 74.395 139.448 78.773 138.76 83.117 137.801 87.408 136.574 91.631 135.084 95.769 133.338 99.805 131.341 103.723 129.103 107.508 126.631 111.145 123.936 114.62 121.028 117.918 117.918 121.028 114.62 123.936 111.145 126.631 107.508 129.103 103.723 131.341 99.805 133.338 95.769 135.084 91.631 136.574 87.408 137.801 83.117 138.76 78.773 139.448 74.395 139.862"/>
      <polygon fill="#FFF" points="70 120 66.86 119.901 63.733 119.606 60.631 119.114 57.566 118.429 54.549 117.553 51.594 116.489 48.711 115.241 45.912 113.815 43.209 112.216 40.611 110.451 38.129 108.526 35.773 106.448 33.552 104.227 31.474 101.871 29.549 99.389 27.784 96.791 26.185 94.088 24.759 91.289 23.511 88.406 22.447 85.451 21.571 82.434 20.886 79.369 20.394 76.267 20.099 73.14 20 70 20.099 66.86 20.394 63.733 20.886 60.631 21.571 57.566 22.447 54.549 23.511 51.594 24.759 48.711 26.185 45.912 27.784 43.209 29.549 40.611 31.474 38.129 33.552 35.773 35.773 33.552 38.129 31.474 40.611 29.549 43.209 27.784 45.912 26.185 48.711 24.759 51.594 23.511 54.549 22.447 57.566 21.571 60.631 20.886 63.733 20.394 66.86 20.099 70 20 73.14 20.099 76.267 20.394 79.369 20.886 82.434 21.571 85.451 22.447 88.406 23.511 91.289 24.759 94.088 26.185 96.791 27.784 99.389 29.549 101.871 31.474 104.227 33.552 106.448 35.773 108.526 38.129 110.451 40.611 112.216 43.209 113.815 45.912 115.241 48.711 116.489 51.594 117.553 54.549 118.429 57.566 119.114 60.631 119.606 63.733 119.901 66.86 120 70 119.901 73.14 119.606 76.267 119.114 79.369 118.429 82.434 117.553 85.451 116.489 88.406 115.241 91.289 113.815 94.088 112.216 96.791 110.451 99.389 108.526 101.871 106.448 104.227 104.227 106.448 101.871 108.526 99.389 110.451 96.791 112.216 94.088 113.815 91.289 115.241 88.406 116.489 85.451 117.553 82.434 118.429 79.369 119.114 76.267 119.606 73.14 119.901"/>
      <path fill="#5055FE" d="M70,47 C78.0137261,47 85.0702139,51.0984245 89.1877662,57.3135763 L89.1924733,57.3104888 L89.3062687,57.4942828 C91.6428887,61.0941497 93,65.3885897 93,70 C93,74.3339589 91.8012806,78.3879419 89.7173062,81.8484846 C89.7183275,81.8492223 89.7193053,81.8499284 89.7202829,81.8506346 L89.1984324,82.6938503 L89.1884254,82.6854285 C85.0709671,88.901138 78.0141538,93 70,93 C61.9862739,93 54.9297861,88.9015755 50.8122338,82.6864237 L50.8095143,82.6880652 L50.6846343,82.4916908 C50.5805465,82.3310749 50.4784076,82.1690786 50.3782512,82.0057354 L50.2800993,81.8503586 C48.1987194,78.3879419 47,74.3339589 47,70 C47,65.3453925 48.3826558,61.0137215 50.7596535,57.3933011 L50.8065331,57.3097657 C54.9297861,51.0984245 61.9862739,47 70,47 Z M70,78 C68.5803993,78 67.1934802,78.0575601 65.8508365,78.1667509 L65.050656,78.2384136 L64.6547245,78.2788028 L63.8715267,78.3685189 C63.3533388,78.4322546 62.8431624,78.5037768 62.3417396,78.5827061 L61.756,78.679 L61.7726363,78.771377 L61.9126704,79.4961143 C61.9368839,79.6157092 61.9615307,79.734699 61.9866049,79.8530721 L62.1421309,80.5558183 C62.1956507,80.7875385 62.2508326,81.0166994 62.307629,81.2432081 L62.4828147,81.914685 C62.6627494,82.57802 62.8567884,83.216651 63.0636511,83.8280736 L63.2747409,84.4303341 C63.3106191,84.5291683 63.3468418,84.6272236 63.3834028,84.7244883 L63.6067826,85.298497 C63.6446736,85.3925531 63.6828912,85.4857954 63.7214294,85.5782123 L63.9564589,86.1227172 C65.5881376,89.7745538 67.7388715,92 70,92 C72.2611285,92 74.4118624,89.7745538 76.0435411,86.1227172 L76.2785706,85.5782123 C76.3171088,85.4857954 76.3553264,85.3925531 76.3932174,85.298497 L76.6165972,84.7244883 C76.6531582,84.6272236 76.6893809,84.5291683 76.7252591,84.4303341 L76.9363489,83.8280736 C77.1432116,83.216651 77.3372506,82.57802 77.5171853,81.914685 L77.692371,81.2432081 L77.7763488,80.9014675 L77.9368964,80.20633 C77.9887424,79.9720735 78.0389026,79.735304 78.0873296,79.4961143 L78.2273637,78.771377 L78.243,78.679 L77.6582604,78.5827061 C77.1568376,78.5037768 76.6466612,78.4322546 76.1284733,78.3685189 L75.3452755,78.2788028 L74.949344,78.2384136 L74.1491635,78.1667509 C72.9407842,78.0684792 71.6965418,78.0120283 70.4248882,78.0017209 L70,78 Z M79.1622101,79.2299605 L79.016257,79.9601516 C78.9910379,80.080698 78.9653753,80.2006609 78.939274,80.3200291 L78.7774412,81.0290121 L78.605314,81.7231845 L78.423126,82.4020091 C77.2159149,86.7303291 75.3952956,90.0670955 73.2435013,91.7631716 C79.5494965,90.8310863 84.984048,87.2233851 88.3561945,82.1308585 C87.6914884,81.7157611 86.9430955,81.3230125 86.1227172,80.9564589 L85.5782123,80.7214294 C85.4857954,80.6828912 85.3925531,80.6446736 85.298497,80.6067826 L84.7244883,80.3834028 C84.6272236,80.3468418 84.5291683,80.3106191 84.4303341,80.2747409 L83.8280736,80.0636511 C83.216651,79.8567884 82.57802,79.6627494 81.914685,79.4828147 L81.2432081,79.307629 L80.9014675,79.2236512 L80.20633,79.0631036 C79.9720735,79.0112576 79.735304,78.9610974 79.4961143,78.9126704 L79.2307567,78.8617911 C79.2083594,78.9850619 79.1855089,79.1077888 79.1622101,79.2299605 Z M60.768,78.861 L60.5038857,78.9126704 C60.3842908,78.9368839 60.265301,78.9615307 60.1469279,78.9866049 L59.4441817,79.1421309 C59.2124615,79.1956507 58.9833006,79.2508326 58.7567919,79.307629 L58.085315,79.4828147 C57.42198,79.6627494 56.783349,79.8567884 56.1719264,80.0636511 L55.5696659,80.2747409 C55.4708317,80.3106191 55.3727764,80.3468418 55.2755117,80.3834028 L54.701503,80.6067826 C54.6074469,80.6446736 54.5142046,80.6828912 54.4217877,80.7214294 L53.8772828,80.9564589 C53.057173,81.3228925 52.3090014,81.715504 51.6418183,82.1296649 C55.0159938,87.2232927 60.4506068,90.8308585 66.756753,91.7626103 C64.6047044,90.0670955 62.7840851,86.7303291 61.576874,82.4020091 L61.394686,81.7231845 L61.2225588,81.0290121 L61.060726,80.3200291 C61.0346247,80.2006609 61.0089621,80.080698 60.983743,79.9601516 L60.8377899,79.2299605 L60.768,78.861 Z M51.1138149,58.7088367 L51.0756224,58.7742079 C49.1219464,62.0606161 48,65.8992857 48,70 C48,74.1283585 49.1371242,77.9911274 51.1152469,81.2921809 C52.8425565,80.2120511 55.0482265,79.2880284 57.5979909,78.576874 L58.2768155,78.394686 L58.9709879,78.2225588 L59.6799709,78.060726 C59.7993391,78.0346247 59.919302,78.0089621 60.0398484,77.983743 L60.601,77.871 L60.578753,77.7297144 L60.4661365,76.9607341 C60.4483255,76.8315679 60.430997,76.7019078 60.4141559,76.5717648 L60.3189962,75.7852037 C60.2446348,75.1250577 60.1827004,74.4534025 60.1338014,73.7716375 L60.0814186,72.9487563 C60.0583947,72.5349789 60.0401511,72.1177634 60.0268193,71.6974123 L60.0067438,70.8526184 C60.0045023,70.7111525 60.0028164,70.5693605 60.0016908,70.4272537 L60,70 C60,69.7145495 60.0022609,69.4303135 60.0067438,69.1473816 L60.0268193,68.3025877 C60.0401511,67.8822366 60.0583947,67.4650211 60.0814186,67.0512437 L60.1338014,66.2283625 C60.1827004,65.5465975 60.2446348,64.8749423 60.3189962,64.2147963 L60.4141559,63.4282352 C60.430997,63.2980922 60.4483255,63.1684321 60.4661365,63.0392659 L60.578753,62.2702856 L60.601,62.128 L60.0398484,62.016257 C59.919302,61.9910379 59.7993391,61.9653753 59.6799709,61.939274 L58.9709879,61.7774412 L58.2768155,61.605314 L57.5979909,61.423126 C55.0482913,60.7119896 52.8426686,59.7879958 51.1138149,58.7088367 Z M88.8847531,58.7078191 L88.6824474,58.8339604 C86.9853608,59.8594996 84.8526101,60.7396292 82.4020091,61.423126 L81.7231845,61.605314 L81.0290121,61.7774412 L80.3200291,61.939274 C80.2006609,61.9653753 80.080698,61.9910379 79.9601516,62.016257 L79.398,62.128 L79.421247,62.2702856 L79.5338635,63.0392659 C79.5516745,63.1684321 79.569003,63.2980922 79.5858441,63.4282352 L79.6810038,64.2147963 C79.7553652,64.8749423 79.8172996,65.5465975 79.8661986,66.2283625 L79.9185814,67.0512437 C79.9416053,67.4650211 79.9598489,67.8822366 79.9731807,68.3025877 L79.9932562,69.1473816 C79.9977391,69.4303135 80,69.7145495 80,70 C80,70.2854505 79.9977391,70.5696865 79.9932562,70.8526184 L79.9731807,71.6974123 C79.9598489,72.1177634 79.9416053,72.5349789 79.9185814,72.9487563 L79.8661986,73.7716375 C79.8172996,74.4534025 79.7553652,75.1250577 79.6810038,75.7852037 L79.5858441,76.5717648 C79.569003,76.7019078 79.5516745,76.8315679 79.5338635,76.9607341 L79.421247,77.7297144 L79.398,77.871 L79.9601516,77.983743 C80.080698,78.0089621 80.2006609,78.0346247 80.3200291,78.060726 L81.0290121,78.2225588 L81.7231845,78.394686 L82.4020091,78.576874 C84.9516837,79.2880034 87.1572882,80.2119861 88.8861342,81.2911315 C90.8628758,77.9911274 92,74.1283585 92,70 C92,65.8716415 90.8628758,62.0088726 88.8847531,58.7078191 Z M78.412,62.309 L77.7297144,62.421247 L76.9607341,62.5338635 C76.8315679,62.5516745 76.7019078,62.569003 76.5717648,62.5858441 L75.7852037,62.6810038 C75.1250577,62.7553652 74.4534025,62.8172996 73.7716375,62.8661986 L72.9487563,62.9185814 C72.5349789,62.9416053 72.1177634,62.9598489 71.6974123,62.9731807 L70.8526184,62.9932562 C70.5696865,62.9977391 70.2854505,63 70,63 C69.7145495,63 69.4303135,62.9977391 69.1473816,62.9932562 L68.3025877,62.9731807 C67.8822366,62.9598489 67.4650211,62.9416053 67.0512437,62.9185814 L66.2283625,62.8661986 C65.5465975,62.8172996 64.8749423,62.7553652 64.2147963,62.6810038 L63.4282352,62.5858441 C63.2980922,62.569003 63.1684321,62.5516745 63.0392659,62.5338635 L62.2702856,62.421247 L61.587,62.309 L61.5827061,62.3417396 C61.5037768,62.8431624 61.4322546,63.3533388 61.3685189,63.8715267 L61.2788028,64.6547245 L61.2384136,65.050656 L61.1667509,65.8508365 C61.0684792,67.0592158 61.0120283,68.3034582 61.0017209,69.5751118 L61,70 C61,71.4196007 61.0575601,72.8065198 61.1667509,74.1491635 L61.2384136,74.949344 L61.2788028,75.3452755 L61.3685189,76.1284733 C61.4322546,76.6466612 61.5037768,77.1568376 61.5827061,77.6582604 L61.587,77.69 L62.2702856,77.578753 L63.0392659,77.4661365 C63.1684321,77.4483255 63.2980922,77.430997 63.4282352,77.4141559 L64.2147963,77.3189962 C64.8749423,77.2446348 65.5465975,77.1827004 66.2283625,77.1338014 L67.0512437,77.0814186 C67.4650211,77.0583947 67.8822366,77.0401511 68.3025877,77.0268193 L69.1473816,77.0067438 C69.2888475,77.0045023 69.4306395,77.0028164 69.5727463,77.0016908 L70,77 C70.2854505,77 70.5696865,77.0022609 70.8526184,77.0067438 L71.6974123,77.0268193 C72.1177634,77.0401511 72.5349789,77.0583947 72.9487563,77.0814186 L73.7716375,77.1338014 C74.4534025,77.1827004 75.1250577,77.2446348 75.7852037,77.3189962 L76.5717648,77.4141559 C76.7019078,77.430997 76.8315679,77.4483255 76.9607341,77.4661365 L77.7297144,77.578753 L78.412,77.69 L78.4172939,77.6582604 C78.4962232,77.1568376 78.5677454,76.6466612 78.6314811,76.1284733 L78.7211972,75.3452755 L78.7615864,74.949344 L78.8332491,74.1491635 C78.9424399,72.8065198 79,71.4196007 79,70 C79,68.5803993 78.9424399,67.1934802 78.8332491,65.8508365 L78.7615864,65.050656 L78.7211972,64.6547245 L78.6314811,63.8715267 C78.5677454,63.3533388 78.4962232,62.8431624 78.4172939,62.3417396 L78.412,62.309 Z M70,48 C67.7388715,48 65.5881376,50.2254462 63.9564589,53.8772828 L63.7214294,54.4217877 C63.6828912,54.5142046 63.6446736,54.6074469 63.6067826,54.701503 L63.3834028,55.2755117 C63.3468418,55.3727764 63.3106191,55.4708317 63.2747409,55.5696659 L63.0636511,56.1719264 C62.8567884,56.783349 62.6627494,57.42198 62.4828147,58.085315 L62.307629,58.7567919 L62.2236512,59.0985325 L62.0631036,59.79367 C62.0112576,60.0279265 61.9610974,60.264696 61.9126704,60.5038857 L61.7726363,61.228623 L61.756,61.32 L62.3417396,61.4172939 C62.8431624,61.4962232 63.3533388,61.5677454 63.8715267,61.6314811 L64.6547245,61.7211972 L65.050656,61.7615864 L65.050656,61.7615864 L65.8508365,61.8332491 C67.1934802,61.9424399 68.5803993,62 70,62 C71.4196007,62 72.8065198,61.9424399 74.1491635,61.8332491 L74.949344,61.7615864 L75.3452755,61.7211972 L75.3452755,61.7211972 L76.1284733,61.6314811 C76.6466612,61.5677454 77.1568376,61.4962232 77.6582604,61.4172939 L78.243,61.32 L78.2273637,61.228623 L78.0873296,60.5038857 C78.0631161,60.3842908 78.0384693,60.265301 78.0133951,60.1469279 L77.8578691,59.4441817 C77.8043493,59.2124615 77.7491674,58.9833006 77.692371,58.7567919 L77.5171853,58.085315 C77.3372506,57.42198 77.1432116,56.783349 76.9363489,56.1719264 L76.7252591,55.5696659 C76.6893809,55.4708317 76.6531582,55.3727764 76.6165972,55.2755117 L76.3932174,54.701503 C76.3553264,54.6074469 76.3171088,54.5142046 76.2785706,54.4217877 L76.0435411,53.8772828 C74.4613072,50.3361079 72.3909994,48.1361853 70.2052416,48.0061085 L70,48 Z M66.7564987,48.2368284 L66.4314857,48.2879429 C60.2637004,49.2939633 54.9575437,52.8646972 51.6435111,57.8696493 C52.3087564,58.2843674 53.0570388,58.6770475 53.8772828,59.0435411 L54.4217877,59.2785706 C54.5142046,59.3171088 54.6074469,59.3553264 54.701503,59.3932174 L55.2755117,59.6165972 L55.5696659,59.7252591 L56.1719264,59.9363489 C56.783349,60.1432116 57.42198,60.3372506 58.085315,60.5171853 L58.7567919,60.692371 L59.0985325,60.7763488 L59.0985325,60.7763488 L59.79367,60.9368964 C60.0279265,60.9887424 60.264696,61.0389026 60.5038857,61.0873296 L60.7692433,61.1382089 C60.7916406,61.0149381 60.8144911,60.8922112 60.8377899,60.7700395 L60.983743,60.0398484 C61.0089621,59.919302 61.0346247,59.7993391 61.060726,59.6799709 L61.2225588,58.9709879 L61.394686,58.2768155 L61.576874,57.5979909 C62.7840851,53.2696709 64.6047044,49.9329045 66.7564987,48.2368284 Z M73.243247,48.2373897 L73.3000595,48.2818473 C75.427194,49.9915296 77.2265061,53.3076444 78.423126,57.5979909 L78.605314,58.2768155 L78.7774412,58.9709879 L78.939274,59.6799709 C78.9653753,59.7993391 78.9910379,59.919302 79.016257,60.0398484 L79.1622101,60.7700395 L79.231,61.138 L79.4961143,61.0873296 C79.6157092,61.0631161 79.734699,61.0384693 79.8530721,61.0133951 L80.5558183,60.8578691 C80.7875385,60.8043493 81.0166994,60.7491674 81.2432081,60.692371 L81.914685,60.5171853 C82.57802,60.3372506 83.216651,60.1432116 83.8280736,59.9363489 L84.4303341,59.7252591 C84.5291683,59.6893809 84.6272236,59.6531582 84.7244883,59.6165972 L85.298497,59.3932174 C85.3925531,59.3553264 85.4857954,59.3171088 85.5782123,59.2785706 L86.1227172,59.0435411 C86.9430531,58.6770065 87.6914111,58.2842795 88.3587335,57.8699925 C84.9840062,52.7767073 79.5493932,49.1691415 73.243247,48.2373897 Z"/>
    </g>
    <g fill-rule="nonzero" transform="translate(224 125)">
      <polygon fill="url(#img-illustration-specialization-b)" points="70 140 65.605 139.862 61.227 139.448 56.883 138.76 52.592 137.801 48.369 136.574 44.231 135.084 40.195 133.338 36.277 131.341 32.492 129.103 28.855 126.631 25.38 123.936 22.082 121.028 18.972 117.918 16.064 114.62 13.369 111.145 10.897 107.508 8.659 103.723 6.662 99.805 4.916 95.769 3.426 91.631 2.199 87.408 1.24 83.117 .552 78.773 .138 74.395 0 70 .138 65.605 .552 61.227 1.24 56.883 2.199 52.592 3.426 48.369 4.916 44.231 6.662 40.195 8.659 36.277 10.897 32.492 13.369 28.855 16.064 25.38 18.972 22.082 22.082 18.972 25.38 16.064 28.855 13.369 32.492 10.897 36.277 8.659 40.195 6.662 44.231 4.916 48.369 3.426 52.592 2.199 56.883 1.24 61.227 .552 65.605 .138 70 0 74.395 .138 78.773 .552 83.117 1.24 87.408 2.199 91.631 3.426 95.769 4.916 99.805 6.662 103.723 8.659 107.508 10.897 111.145 13.369 114.62 16.064 117.918 18.972 121.028 22.082 123.936 25.38 126.631 28.855 129.103 32.492 131.341 36.277 133.338 40.195 135.084 44.231 136.574 48.369 137.801 52.592 138.76 56.883 139.448 61.227 139.862 65.605 140 70 139.862 74.395 139.448 78.773 138.76 83.117 137.801 87.408 136.574 91.631 135.084 95.769 133.338 99.805 131.341 103.723 129.103 107.508 126.631 111.145 123.936 114.62 121.028 117.918 117.918 121.028 114.62 123.936 111.145 126.631 107.508 129.103 103.723 131.341 99.805 133.338 95.769 135.084 91.631 136.574 87.408 137.801 83.117 138.76 78.773 139.448 74.395 139.862"/>
      <polygon fill="#FFF" points="70 120 66.86 119.901 63.733 119.606 60.631 119.114 57.566 118.429 54.549 117.553 51.594 116.489 48.711 115.241 45.912 113.815 43.209 112.216 40.611 110.451 38.129 108.526 35.773 106.448 33.552 104.227 31.474 101.871 29.549 99.389 27.784 96.791 26.185 94.088 24.759 91.289 23.511 88.406 22.447 85.451 21.571 82.434 20.886 79.369 20.394 76.267 20.099 73.14 20 70 20.099 66.86 20.394 63.733 20.886 60.631 21.571 57.566 22.447 54.549 23.511 51.594 24.759 48.711 26.185 45.912 27.784 43.209 29.549 40.611 31.474 38.129 33.552 35.773 35.773 33.552 38.129 31.474 40.611 29.549 43.209 27.784 45.912 26.185 48.711 24.759 51.594 23.511 54.549 22.447 57.566 21.571 60.631 20.886 63.733 20.394 66.86 20.099 70 20 73.14 20.099 76.267 20.394 79.369 20.886 82.434 21.571 85.451 22.447 88.406 23.511 91.289 24.759 94.088 26.185 96.791 27.784 99.389 29.549 101.871 31.474 104.227 33.552 106.448 35.773 108.526 38.129 110.451 40.611 112.216 43.209 113.815 45.912 115.241 48.711 116.489 51.594 117.553 54.549 118.429 57.566 119.114 60.631 119.606 63.733 119.901 66.86 120 70 119.901 73.14 119.606 76.267 119.114 79.369 118.429 82.434 117.553 85.451 116.489 88.406 115.241 91.289 113.815 94.088 112.216 96.791 110.451 99.389 108.526 101.871 106.448 104.227 104.227 106.448 101.871 108.526 99.389 110.451 96.791 112.216 94.088 113.815 91.289 115.241 88.406 116.489 85.451 117.553 82.434 118.429 79.369 119.114 76.267 119.606 73.14 119.901"/>
      <path fill="#5055FE" d="M62.4704353,61.2699102 C62.5813215,61.2699102 62.6876962,61.3092954 62.7715906,61.3796606 L62.8300157,61.438112 L70.223,70.257 L77.5407955,61.4399203 C77.6123245,61.3537255 77.71127,61.2966359 77.8193742,61.2772478 L77.9018842,61.2699102 L85.845818,61.2699102 C86.216802,61.2699102 86.4318313,61.6754799 86.2536624,61.9809952 L86.2093785,62.044747 L75.3404495,75.3640751 C77.5393444,77.1894635 78.9411765,79.9536468 78.9411765,83.0475674 C78.9411765,88.5441441 74.5166964,93 69.0588235,93 C63.6009507,93 59.1764706,88.5441441 59.1764706,83.0475674 C59.1764706,79.3356313 61.194273,76.0983202 64.1854858,74.3874325 L54.0867175,62.0451998 C53.8506512,61.7566541 54.0251327,61.3313636 54.3728355,61.2759406 L54.4499081,61.2699102 L62.4704353,61.2699102 Z M69.0588235,74.0429855 C64.1207481,74.0429855 60.1176471,78.0744741 60.1176471,83.0475674 C60.1176471,88.0206606 64.1207481,92.0521493 69.0588235,92.0521493 C73.9968989,92.0521493 78,88.0206606 78,83.0475674 C78,78.0744741 73.9968989,74.0429855 69.0588235,74.0429855 Z M92.5882353,48 C93.3192004,48 93.9204148,48.4826787 93.9927112,49.1012145 L94,49.2266304 L94,88.4788016 C94,89.1139102 93.444471,89.6362833 92.73258,89.699099 L92.5882353,89.7056484 L78.5983407,89.7056484 C78.8263938,89.400764 79.0391938,89.0845137 79.2356589,88.7579438 L92.5882353,88.7575812 C92.8192564,88.7575812 93.0113961,88.6138801 93.0512417,88.4243783 L93.0588235,88.3513595 L93.058,58.311 L46.941,58.311 L46.9411765,88.3513595 C46.9411765,88.5507818 47.1076472,88.7166409 47.3271759,88.7510364 L47.4117647,88.7575812 L58.8819882,88.7579438 C59.0784532,89.0845137 59.2912533,89.400764 59.5193064,89.7056484 L47.4117647,89.7056484 C46.6807996,89.7056484 46.0795852,89.2227532 46.0072888,88.6042174 L46,88.4788016 L46,49.2266304 C46,48.5915217 46.555529,48.0691487 47.26742,48.006333 L47.4117647,48 L92.5882353,48 Z M68.6368301,77.1507199 C68.8094483,76.7984769 69.3081988,76.7984769 69.480817,77.1507199 L69.480817,77.1507199 L71.0296471,80.3131791 L74.4971654,80.8211556 C74.855581,80.8736058 75.0140734,81.2892497 74.8112616,81.567886 L74.8112616,81.567886 L74.7579717,81.629527 L72.2484706,84.0913121 L72.8418971,87.5684167 C72.9034358,87.9297591 72.5560471,88.2110328 72.2287651,88.0983161 L72.2287651,88.0983161 L72.1590974,88.0680177 L69.0588235,86.4258684 L65.9585497,88.0680177 C65.636329,88.2386204 65.2633564,87.9928096 65.2686658,87.6445073 L65.2686658,87.6445073 L65.27575,87.5684167 L65.8682353,84.0913121 L63.3596753,81.629527 C63.1003234,81.3749285 63.2146895,80.9448454 63.5413927,80.8394791 L63.5413927,80.8394791 L63.6204816,80.8211556 L67.0870588,80.3131791 L68.6368301,77.1507199 Z M69.0588235,78.4316954 L67.821188,80.9568285 C67.7526412,81.0967044 67.6201397,81.1936551 67.4668644,81.2160852 L67.4668644,81.2160852 L64.6992941,81.6202652 L66.7019636,83.5869018 C66.7906925,83.6740044 66.8408293,83.7918214 66.8439294,83.9141782 L66.8439294,83.9141782 L66.8373032,84.0063881 L66.3642353,86.7813124 L68.8398395,85.4716333 C68.9495144,85.4135649 69.0762691,85.4019512 69.1927759,85.4367923 L69.1927759,85.4367923 L69.2778076,85.4716333 L71.7524706,86.7813124 L71.2803439,84.0063881 C71.2593978,83.8833972 71.2875997,83.7584026 71.3565048,83.6575788 L71.3565048,83.6575788 L71.4156835,83.5869018 L73.4174118,81.6202652 L70.6507827,81.2160852 C70.5281624,81.1981411 70.4188374,81.1325039 70.3449162,81.0353502 L70.3449162,81.0353502 L70.296459,80.9568285 L69.0588235,78.4316954 Z M84.8489412,62.2177609 L78.1214118,62.2177609 L69.0938748,73.095196 C71.1278865,73.1023086 73.0171296,73.7282704 74.5856541,74.7958836 L84.8489412,62.2177609 Z M62.2512941,62.2177609 L55.4465882,62.2177609 L65.045738,73.9499702 C65.9063556,73.5643591 66.8318166,73.2989692 67.8010929,73.1749778 L69.61,70.996 L62.2512941,62.2177609 Z M92.5882353,48.9478507 L47.4117647,48.9478507 C47.1807436,48.9478507 46.9886039,49.0915518 46.9487583,49.2810536 L46.941,49.3540725 L46.941,57.363 L93.058,57.363 L93.0588235,49.3540725 C93.0588235,49.1546502 92.8923528,48.9887911 92.6728241,48.9543955 L92.5882353,48.9478507 Z M55.894761,52.6937805 C56.1546597,52.6937805 56.3653493,52.9059641 56.3653493,53.1677058 C56.3653493,53.4003652 56.1988785,53.5938675 55.9793499,53.6339956 L55.894761,53.6416312 L51.1741728,53.6416312 C50.9142741,53.6416312 50.7035846,53.4294476 50.7035846,53.1677058 C50.7035846,52.9350465 50.8700553,52.7415442 51.089584,52.7014161 L51.1741728,52.6937805 L55.894761,52.6937805 Z M64.3676471,52.6937805 C64.6275458,52.6937805 64.8382353,52.9059641 64.8382353,53.1677058 C64.8382353,53.4003652 64.6717646,53.5938675 64.4522359,53.6339956 L64.3676471,53.6416312 L59.6470588,53.6416312 C59.3871601,53.6416312 59.1764706,53.4294476 59.1764706,53.1677058 C59.1764706,52.9350465 59.3429413,52.7415442 59.56247,52.7014161 L59.6470588,52.6937805 L64.3676471,52.6937805 Z M89.7731394,52.6817665 C90.0330381,52.6816008 90.2440257,52.8936499 90.2440257,53.1553916 C90.2440257,53.3880509 90.077823,53.5816594 89.8583196,53.6219276 L89.7737356,53.6296171 L70.9414746,53.6416312 C70.6815759,53.6417969 70.4705882,53.4297478 70.4705882,53.1680061 C70.4705882,52.9353468 70.636791,52.7417383 70.8562944,52.7014701 L70.9408784,52.6937806 L89.7731394,52.6817665 Z"/>
    </g>
    <g fill="#5055FE" fill-rule="nonzero" transform="translate(0 253)">
      <circle cx="6" cy="6" r="6" opacity=".103"/>
      <circle cx="6" cy="6" r="2.571"/>
    </g>
    <g fill="#5055FE" fill-rule="nonzero" transform="translate(377 2)">
      <circle cx="6" cy="6" r="6" opacity=".103"/>
      <circle cx="6" cy="6" r="2.571"/>
    </g>
    <g fill="#5055FE" fill-rule="nonzero" transform="translate(307 285)">
      <circle cx="6" cy="6" r="6" opacity=".103"/>
      <circle cx="6" cy="6" r="2.571"/>
    </g>
    <g fill="#5055FE" fill-rule="nonzero" transform="translate(303 89)">
      <circle cx="6" cy="6" r="6" opacity=".103"/>
      <circle cx="6" cy="6" r="2.571"/>
    </g>
    <g fill="#5055FE" fill-rule="nonzero" transform="translate(0 58)">
      <circle cx="6" cy="6" r="6" opacity=".103"/>
      <circle cx="6" cy="6" r="2.571"/>
    </g>
  </g>
</svg>
