<svg xmlns="http://www.w3.org/2000/svg" width="379" height="357" viewBox="0 0 379 357">
  <defs>
    <linearGradient id="img-scenarios-a" x1="100%" x2="0%" y1="99.293%" y2=".707%">
      <stop offset="0%" stop-color="#1E85E9"/>
      <stop offset="20.276%" stop-color="#8671F3"/>
      <stop offset="70.727%" stop-color="#C06CFD" stop-opacity=".99"/>
      <stop offset="100%" stop-color="#FFBEE8"/>
    </linearGradient>
    <linearGradient id="img-scenarios-b" x1="108.096%" x2="0%" y1="99.036%" y2="8.229%">
      <stop offset="0%" stop-color="#1E85E9"/>
      <stop offset="20.276%" stop-color="#8671F3"/>
      <stop offset="70.727%" stop-color="#CFA9FC"/>
      <stop offset="100%" stop-color="#F4D9FB"/>
    </linearGradient>
  </defs>
  <g fill="none" fill-rule="evenodd" transform="translate(0 1)">
    <ellipse cx="190.5" cy="182.5" stroke="url(#img-scenarios-a)" stroke-width=".5" opacity=".499" rx="70.5" ry="70"/>
    <path stroke="#E3E0E0" stroke-dasharray="3" stroke-linecap="round" d="M190.5,227.5 C215.628956,227.5 236,207.352814 236,182.5 C236,157.647186 215.628956,137.5 190.5,137.5 C165.371044,137.5 145,157.647186 145,182.5 C145,207.352814 165.371044,227.5 190.5,227.5 Z" opacity=".499"/>
    <path fill="url(#img-scenarios-b)" fill-rule="nonzero" d="M273.5,165 C314.645214,165 348,198.354786 348,239.5 C348,280.645214 314.645214,314 273.5,314 C232.354786,314 199,280.645214 199,239.5 C199,198.354786 232.354786,165 273.5,165 Z M108.5,165 C149.645214,165 183,198.354786 183,239.5 C183,280.645214 149.645214,314 108.5,314 C67.354786,314 34,280.645214 34,239.5 C34,198.354786 67.354786,165 108.5,165 Z M273.5,183 C242.295912,183 217,208.295912 217,239.5 C217,270.704088 242.295912,296 273.5,296 C304.704088,296 330,270.704088 330,239.5 C330,208.295912 304.704088,183 273.5,183 Z M108.5,183 C77.295912,183 52,208.295912 52,239.5 C52,270.704088 77.295912,296 108.5,296 C139.704088,296 165,270.704088 165,239.5 C165,208.295912 139.704088,183 108.5,183 Z M190.5,27 C231.645214,27 265,60.3547861 265,101.5 C265,142.645214 231.645214,176 190.5,176 C149.354786,176 116,142.645214 116,101.5 C116,60.3547861 149.354786,27 190.5,27 Z M190.5,45 C159.295912,45 134,70.2959116 134,101.5 C134,132.704088 159.295912,158 190.5,158 C221.704088,158 247,132.704088 247,101.5 C247,70.2959116 221.704088,45 190.5,45 Z"/>
    <circle cx="41.5" cy="41.5" r="41.5" fill="#000" fill-rule="nonzero" transform="translate(149 60)"/>
    <circle cx="41.5" cy="41.5" r="41.5" fill="#FFF" fill-rule="nonzero" transform="translate(149 60)"/>
    <g stroke="#5055FE" stroke-width=".9" transform="translate(174 81)">
      <circle cx="17.82" cy="3.96" r="3.96"/>
      <path stroke-linejoin="round" d="M24.7499999,13.8599999 L24.7499999,15.8399999 L10.8899999,15.8399999 L10.8899999,13.8599999 C10.8899999,10.7886831 12.887983,8.18402019 15.6551047,7.27485556 C16.2776814,7.68349898 17.0212218,7.91999996 17.8199999,7.91999996 C18.6187781,7.91999996 19.3623184,7.68349898 19.9844181,7.2767 C22.7520168,8.18402019 24.7499999,10.7886831 24.7499999,13.8599999 Z"/>
      <circle cx="6.93" cy="23.76" r="3.96"/>
      <path stroke-linejoin="round" d="M13.8599999,33.6599998 L13.8599999,35.6399998 L0,35.6399998 L0,33.6599998 C0,30.588683 1.99798303,27.9840201 4.76510476,27.0748555 C5.38768143,27.4834989 6.13122182,27.7199999 6.92999997,27.7199999 C7.72877812,27.7199999 8.4723185,27.4834989 9.09441813,27.0766999 C11.8620169,27.9840201 13.8599999,30.588683 13.8599999,33.6599998 Z"/>
      <circle cx="30.69" cy="23.76" r="3.96"/>
      <path stroke-linejoin="round" d="M37.6199998,33.6599998 L37.6199998,35.6399998 L23.7599999,35.6399998 L23.7599999,33.6599998 C23.7599999,30.588683 25.7579829,27.9840201 28.5251047,27.0748555 C29.1476813,27.4834989 29.8912217,27.7199999 30.6899999,27.7199999 C31.488778,27.7199999 32.2323184,27.4834989 32.854418,27.0766999 C35.6220168,27.9840201 37.6199998,30.588683 37.6199998,33.6599998 Z"/>
      <polyline stroke-linecap="round" points="17.82 18.958 17.82 22.306 14.181 25.772"/>
      <polyline stroke-linecap="round" points="21.459 18.193 21.459 22.306 17.82 25.772" transform="matrix(-1 0 0 1 39.279 0)"/>
    </g>
    <circle cx="41.5" cy="41.5" r="41.5" fill="#000" fill-rule="nonzero" transform="translate(232 198)"/>
    <circle cx="41.5" cy="41.5" r="41.5" fill="#FFF" fill-rule="nonzero" transform="translate(232 198)"/>
    <g stroke="#5055FE" stroke-linecap="round" stroke-width=".9" transform="translate(253 224)">
      <path d="M0,25.8859862 L7.83495393,25.8859862 C10.6920595,25.8859862 13.3276988,24.3471465 14.732098,21.8590317 L22.0296279,8.93030652 C23.4340271,6.44219175 26.0696664,4.90335203 28.926772,4.90335203 L39.0262059,4.90335203 L39.0262059,4.90335203"/>
      <polyline stroke-linejoin="round" points="30.69 8.91 35.64 .99 40.59 8.91" transform="rotate(90 35.64 4.95)"/>
      <g transform="matrix(1 0 0 -1 0 30.69)">
        <path d="M-1.15463195e-12,26.8859862 L7.83495393,26.8859862 C10.6920595,26.8859862 13.3276988,25.3471465 14.732098,22.8590317 L17.5064881,17.9437622 L17.5064881,17.9437622 M19.3361791,14.609237 L22.0296279,9.93030652 C23.4340271,7.44219175 26.0696664,5.90335203 28.926772,5.90335203 L39.0262059,5.90335203"/>
        <polyline stroke-linejoin="round" points="31.5 9.09 36.45 1.17 41.4 9.09" transform="rotate(90 36.45 5.13)"/>
      </g>
    </g>
    <circle cx="41.5" cy="41.5" r="41.5" fill="#000" fill-rule="nonzero" transform="translate(67 196)"/>
    <circle cx="41.5" cy="41.5" r="41.5" fill="#FFF" fill-rule="nonzero" transform="translate(67 196)"/>
    <g stroke="#5055FE" stroke-width=".9" transform="translate(90 221)">
      <polygon stroke-linejoin="round" points="9.9 27.72 17.82 27.72 19.8 32.67 7.92 32.67"/>
      <rect width="3.96" height="1.98" x="21.78" y="20.79" stroke-linejoin="round" rx=".99"/>
      <path stroke-linejoin="round" d="M14.8739282,16.8299999 L14.8739282,16.8299999 L14.8499999,16.8299999 C13.2097142,16.8299999 11.8799999,15.5002856 11.8799999,13.8599999 C11.8799999,12.2197142 13.2097142,10.8899999 14.8499999,10.8899999 L14.8698193,10.8899999 L14.8698193,10.8899999"/>
      <path stroke-linejoin="round" d="M36.2452301,16.8299999 L36.2213018,16.8299999 C34.5810161,16.8299999 33.2513019,15.5002856 33.2513019,13.8599999 C33.2513019,12.2197142 34.5810161,10.8899999 36.2213018,10.8899999 L36.2411212,10.8899999" transform="matrix(-1 0 0 1 69.497 0)"/>
      <path stroke-linecap="round" d="M27.7199999,23.7109349 L27.7199999,26.7299999 C27.7199999,27.2767618 27.2767618,27.7199999 26.7299999,27.7199999 L0.989999995,27.7199999 C0.443238096,27.7199999 0,27.2767618 0,26.7299999 L0,8.90999996 C0,8.36323806 0.443238096,7.91999996 0.989999995,7.91999996 L12.9821484,7.91999996 M16.7799682,7.91999996 L26.7299999,7.91999996 C27.2767618,7.91999996 27.7199999,8.36323806 27.7199999,8.90999996 L27.7199999,19.8855614"/>
      <polyline points="25.74 21.78 28.345 21.78 33.252 16.83"/>
      <path stroke-linecap="round" d="M14.8499999,16.8299999 L14.8499999,9.15967525 C14.8499999,4.1009263 18.9509262,0 24.0096752,0 C29.0684241,0 33.1693504,4.1009263 33.1693504,9.15967525 L33.1693504,15.5903246 L33.1693504,16.8299999"/>
      <line x2="27.72" y1="24.692" y2="24.692"/>
    </g>
    <path stroke="#E3E0E0" stroke-dasharray="3" stroke-linecap="round" d="M270,350 C329.646753,350 378,301.646753 378,242 C378,186.730823 336.483759,141.158283 282.935585,134.766691 M299,108 C299,48.353247 250.646753,0 191,0 C131.353247,0 83,48.353247 83,108" opacity=".499"/>
    <g fill="#5055FE" fill-rule="nonzero" transform="translate(294 100)">
      <circle cx="6" cy="6" r="6" opacity=".103"/>
      <circle cx="6" cy="6" r="2.571"/>
    </g>
    <g fill="#5055FE" fill-rule="nonzero" transform="translate(250 151)">
      <circle cx="6" cy="6" r="6" opacity=".103"/>
      <circle cx="6" cy="6" r="2.571"/>
    </g>
    <g fill="#5055FE" fill-rule="nonzero" transform="translate(185 246)">
      <circle cx="6" cy="6" r="6" opacity=".103"/>
      <circle cx="6" cy="6" r="2.571"/>
    </g>
    <g fill="#5055FE" fill-rule="nonzero" transform="translate(118 151)">
      <circle cx="6" cy="6" r="6" opacity=".103"/>
      <circle cx="6" cy="6" r="2.571"/>
    </g>
    <g fill="#5055FE" fill-rule="nonzero" transform="translate(264 344)">
      <circle cx="6" cy="6" r="6" opacity=".103"/>
      <circle cx="6" cy="6" r="2.571"/>
    </g>
    <path stroke="#E3E0E0" stroke-dasharray="3" stroke-linecap="round" d="M6,233 C6,292.646753 54.353247,341 114,341 C149.499871,341 180.999292,323.872043 200.685185,297.429208" opacity=".499"/>
    <g fill="#5055FE" fill-rule="nonzero" transform="translate(0 226)">
      <circle cx="6" cy="6" r="6" opacity=".103"/>
      <circle cx="6" cy="6" r="2.571"/>
    </g>
  </g>
</svg>
