<svg xmlns="http://www.w3.org/2000/svg" width="52" height="39" viewBox="0 0 52 39">
  <g fill="none">
    <rect width="52" height="39"/>
    <path fill="#000" d="M50.9045135,6.04715184 L51.5320426,9.49557368 L49.4950632,13.4131482 C49.4950632,13.4131482 48.7111498,11.7676275 47.3783976,10.8273299 C46.2817157,10.0434165 45.5754965,9.88703231 44.4788147,10.1221067 C43.0683683,10.4348752 41.4228475,12.1590861 40.7176244,14.2747556 C39.8560169,16.7828799 39.8560169,17.9582519 39.8560169,19.1336239 C39.7773268,20.9365249 40.0910913,21.9545166 40.0910913,21.9545166 C40.0910913,21.9545166 38.8370292,19.6824628 38.8370292,16.3127311 C38.8370292,13.9619872 39.2294839,11.7676275 40.3261657,9.65195792 C41.3441574,7.77136276 42.7546037,6.67368487 44.0086659,6.51730063 C45.3404221,6.36091639 46.4381,6.98744942 47.2220133,7.6926726 C48.0836207,8.39789579 48.9462242,10.0434165 48.9462242,10.0434165 L50.9045135,6.04715184 Z M51.218278,25.7943971 C51.218278,25.7943971 50.2779805,27.3622237 49.7291415,27.9887568 C49.1803026,28.6152898 48.1623109,29.7119716 46.9082488,30.2608106 C45.6541866,30.8096495 45.0276536,30.8873436 43.8522816,30.8096495 C42.5982195,30.6522692 41.4228475,29.9480421 41.0313889,29.7119716 C40.6389342,29.3992031 39.6209425,28.5365996 39.0721036,27.6749922 C38.5232646,26.8910789 37.5829671,25.2455581 37.5829671,25.2455581 C37.5829671,25.2455581 38.131806,26.8910789 38.4445745,27.595306 C38.8459824,28.5336308 39.3451153,29.4270619 39.933711,30.2608106 C40.6389342,31.2797983 42.1280707,32.9263151 44.2437403,33.3167777 C46.4381,33.7082363 47.9262404,32.7679387 48.3186951,32.5328643 C48.6314636,32.29779 49.415377,31.5935628 49.8855257,31.122418 C50.4343647,30.573579 50.9035174,29.8693519 51.218278,29.3992031 L51.6884268,28.4599016 L51.218278,25.7943971 L51.218278,25.7943971 Z"/>
    <polygon fill="#000" points="13.761 6.205 18.697 22.818 23.556 6.205 27.082 6.205 19.011 33.554 18.697 33.554 13.604 16.548 8.51 33.554 8.197 33.554 .047 6.205 3.653 6.205 8.51 22.818 11.88 11.611 10.235 6.205"/>
    <path fill="#000" d="M37.1905124,24.7754093 C37.1905124,27.2048434 36.5639793,29.3215091 35.2322231,31.04572 C33.9004669,32.6912407 32.176256,33.5538442 30.0605864,33.5538442 C28.4927598,33.5538442 27.1610035,33.0050053 25.9856316,32.0657038 C24.8102596,31.0467161 23.9486522,29.7139638 23.3998132,27.9897528 L26.1420158,26.8143809 C26.5334744,27.8313765 27.0823134,28.69398 27.7098425,29.2428189 C28.4150657,29.8713441 29.1979829,30.1841126 30.0605864,30.1841126 C31.000884,30.1841126 31.8624914,29.6352736 32.4900205,28.5385918 C33.1165536,27.5196041 33.5080122,26.266538 33.5080122,24.7764054 C33.5080122,23.1328768 33.1165536,21.8778186 32.4103343,20.937521 C31.626421,19.9185333 30.3733549,19.3696943 28.5704538,19.3696943 L27.2386976,19.3696943 L27.2386976,17.7241736 L32.0188757,9.57426384 L26.2984,9.57426384 L24.6528793,12.2387723 L23.6348876,12.2387723 L23.6348876,6.20453216 L36.8777439,6.20453216 L36.8777439,7.85005292 L31.8624914,16.4701114 C33.5867024,17.0189504 34.9184586,18.036942 35.8597522,19.5270746 C36.7213596,21.0152151 37.1905124,22.7384299 37.1905124,24.7754093 L37.1905124,24.7754093 Z"/>
  </g>
</svg>
