<?xml version="1.0" encoding="UTF-8"?>
<svg width="160px" height="50px" viewBox="0 0 160 50" version="1.1" xmlns="http://www.w3.org/2000/svg" xmlns:xlink="http://www.w3.org/1999/xlink">
    <title>adidas</title>
    <defs>
        <rect id="path-1" x="0" y="0" width="160" height="50"></rect>
    </defs>
    <g id="Page-1" stroke="none" stroke-width="1" fill="none" fill-rule="evenodd">
        <g id="a1qa-main" transform="translate(-579.000000, -2120.000000)">
            <g id="3-block-deliver-globally" transform="translate(0.000000, 1849.000000)">
                <g id="logo-2" transform="translate(569.000000, 251.000000)">
                    <g id="adidas" transform="translate(10.000000, 20.000000)">
                        <mask id="mask-2" fill="white">
                            <use xlink:href="#path-1"></use>
                        </mask>
                        <use id="Mask" fill-opacity="0" fill="#D8D8D8" xlink:href="#path-1"></use>
                        <path d="M102.062665,36.1042591 C103.340403,36.1042591 104.532121,36.4849055 105.529133,37.1348638 L105.529133,36.4293396 L108.487178,36.4293396 L108.487178,48.6414582 L105.529133,48.6414582 L105.529133,47.9681785 C104.532121,48.6197592 103.340403,49 102.062665,49 L102.029472,49 C98.4978318,48.9780981 95.6266159,46.0898902 95.6266159,42.5513184 C95.6266159,39.0129493 98.4978318,36.1259582 102.029472,36.1042591 L102.062665,36.1042591 Z M94.5979895,32.2404039 L94.5979895,48.6414582 L91.6411593,48.6414582 L91.6411593,47.9681785 C90.6330156,48.6197592 89.4526313,49 88.1736793,49 L88.1417004,49 C84.6100603,48.9780981 81.7390468,46.0898902 81.7390468,42.5513184 C81.7390468,39.0129493 84.6100603,36.1259582 88.1417004,36.1042591 L88.1736793,36.1042591 C89.4526313,36.1042591 90.6330156,36.4849055 91.6411593,37.1348638 L91.6411593,32.2404039 L94.5979895,32.2404039 Z M75.8879475,32.2404039 L75.8879475,48.6414582 L72.9311173,48.6414582 L72.9311173,47.9681785 C71.9241879,48.6197592 70.7324694,49 69.453315,49 L69.4213361,49 C65.889696,48.9780981 63.0186824,46.0898902 63.0186824,42.5513184 C63.0186824,39.0129493 65.889696,36.1259582 69.4213361,36.1042591 L69.453315,36.1042591 C70.7324694,36.1042591 71.9241879,36.4849055 72.9311173,37.1348638 L72.9311173,32.2404039 L75.8879475,32.2404039 Z M55.4243102,36.1042591 C56.7020479,36.1042591 57.8937664,36.4849055 58.9021125,37.1348638 L58.9021125,36.4293396 L61.8589428,36.4293396 L61.8589428,48.6414582 L58.9021125,48.6414582 L58.9021125,47.9681785 C57.8937664,48.6197592 56.7020479,49 55.4243102,49 L55.3909146,49 C51.8708111,48.9780981 49,46.0898902 49,42.5513184 C49,39.0129493 51.8708111,36.1259582 55.3909146,36.1042591 L55.4243102,36.1042591 Z M115.160822,35.9628298 C116.579631,35.9628298 117.717309,36.169478 118.573047,36.5708095 C118.648542,36.6028511 118.714321,36.6361095 118.779493,36.6801161 C119.396604,37.0155392 119.862119,37.4616884 120.174014,38.0157246 C120.485707,38.5683413 120.642161,39.2312785 120.642161,40.0012916 L117.500744,40.0012916 C117.402985,39.4792969 117.251592,39.1116294 117.044944,38.9049812 C116.708761,38.5683413 116.13557,38.3947487 115.34379,38.3947487 C114.563951,38.3947487 114.022739,38.5243348 113.719952,38.7853321 C113.491849,38.9810294 113.372435,39.2519636 113.372435,39.5886035 C113.372435,40.0653748 114.034276,40.4460212 115.34379,40.7392629 C116.839712,41.0643435 117.912623,41.3468371 118.572643,41.574576 C118.7463,41.639876 118.897694,41.6942251 119.006381,41.7479658 C120.339778,42.3778474 121,43.3344319 121,44.6144747 C121,46.1774166 120.3501,47.3173279 119.060624,48.0333974 C118.897694,48.1210049 118.7463,48.1966475 118.572643,48.2726956 C117.738966,48.6312374 116.764218,48.8149697 115.670055,48.8149697 C114.034276,48.8149697 112.711808,48.5219308 111.704676,47.9463983 C111.070969,47.5771084 110.597358,47.113316 110.281819,46.5542099 C109.966483,45.994901 109.808816,45.3421035 109.808816,44.5927756 L113.101626,44.5927756 C113.101626,45.1571544 113.308072,45.6026952 113.708415,45.9060767 C114.110175,46.2214231 114.792458,46.3846732 115.755669,46.3846732 C116.481873,46.3846732 117.023085,46.2317657 117.381329,45.9283842 C117.663471,45.6890859 117.792804,45.4280886 117.792804,45.1247072 C117.792804,44.6144747 117.144119,44.2135487 115.853427,43.9308524 C113.925385,43.5181643 112.711808,43.1815244 112.213707,42.9422262 C110.892656,42.3239039 110.242352,41.3693474 110.242352,40.0436757 C110.242352,38.9810294 110.578332,38.0798079 111.271342,37.3420393 C112.138212,36.4191188 113.437607,35.9628298 115.160822,35.9628298 Z M80.5792666,36.1037724 L80.5792666,48.6413771 L77.3619503,48.6413771 L77.3619503,36.1037724 L80.5792666,36.1037724 Z M102.062665,39.0127465 L102.029472,39.0127465 C100.090905,39.0245086 98.5194884,40.6093524 98.5194884,42.5513184 C98.5194884,44.4949067 100.090905,46.0795476 102.029472,46.1014495 L102.062665,46.1014495 C103.774344,46.1014495 105.214809,44.8532456 105.529133,43.2250037 L105.529133,41.8790526 C105.214809,40.2508107 103.774344,39.0127465 102.062665,39.0127465 Z M88.1736793,39.0127465 L88.1417004,39.0127465 C86.2021218,39.0245086 84.6317169,40.6093524 84.6317169,42.5513184 C84.6317169,44.4949067 86.2021218,46.0795476 88.1417004,46.1014495 L88.1736793,46.1014495 C89.8849531,46.1014495 91.3268354,44.8532456 91.6411593,43.2250037 L91.6411593,41.8790526 C91.3268354,40.2508107 89.8849531,39.0127465 88.1736793,39.0127465 Z M69.453315,39.0127465 L69.4213361,39.0127465 C67.4817575,39.0245086 65.9115549,40.6093524 65.9115549,42.5513184 C65.9115549,44.4949067 67.4817575,46.0795476 69.4213361,46.1014495 L69.453315,46.1014495 C71.1763279,46.1014495 72.6167934,44.8532456 72.9311173,43.2250037 L72.9311173,41.8790526 C72.6167934,40.2508107 71.1763279,39.0127465 69.453315,39.0127465 Z M55.4243102,39.0127465 L55.3909146,39.0127465 C53.4628726,39.0245086 51.8926701,40.6093524 51.8926701,42.5513184 C51.8926701,44.4949067 53.4628726,46.0795476 55.3909146,46.1014495 L55.4243102,46.1014495 C57.1471207,46.1014495 58.5877887,44.8532456 58.9021125,43.2250037 L58.9021125,41.8790526 C58.5877887,40.2508107 57.1471207,39.0127465 55.4243102,39.0127465 Z M80.5792666,32.3046088 L80.5792666,35.1374537 L77.3619503,35.1374537 L77.3619503,32.3046088 L80.5792666,32.3046088 Z M118.582924,30.8291933 C118.897653,30.8291933 119.201655,30.915584 119.504037,31.0782257 C119.808443,31.2418813 120.046868,31.4692146 120.208584,31.7725961 C120.381634,32.0771944 120.458748,32.3917296 120.458748,32.7287751 C120.458748,33.0437159 120.381634,33.3584539 120.208584,33.6620381 C120.046868,33.9654196 119.818361,34.1943753 119.515978,34.3558002 C119.211977,34.5310152 118.90919,34.6066578 118.582924,34.6066578 L118.572804,34.6066578 C118.248158,34.6066578 117.944562,34.5310152 117.641774,34.3558002 C117.337368,34.1939697 117.11048,33.9654196 116.94755,33.6620381 C116.7745,33.3584539 116.699005,33.0437159 116.699005,32.7287751 C116.699005,32.3917296 116.7745,32.0771944 116.94755,31.7725961 C117.120802,31.4692146 117.349309,31.2418813 117.652097,31.0782257 C117.956098,30.9151784 118.258481,30.8395358 118.572804,30.8291933 L118.582924,30.8291933 Z M118.582924,31.1437285 L118.572804,31.1437285 C118.312521,31.1437285 118.053249,31.2197767 117.804705,31.3495655 C117.554338,31.4909137 117.359429,31.6862054 117.218358,31.9358462 C117.078501,32.1860954 117.002602,32.4458759 117.002602,32.7287751 C117.002602,33.0001149 117.078501,33.2594899 117.218358,33.5103474 C117.349309,33.7482261 117.544219,33.9447345 117.792763,34.0846632 C118.041915,34.2264169 118.302401,34.291717 118.572804,34.291717 L118.582924,34.291717 C118.854947,34.291717 119.114219,34.2260113 119.364585,34.0846632 C119.613129,33.9447345 119.808443,33.7482261 119.93818,33.5103474 C120.078847,33.2594899 120.144424,33.0001149 120.144424,32.7287751 C120.144424,32.4458759 120.078847,32.1860954 119.93818,31.9358462 C119.796704,31.6862054 119.6022,31.4909137 119.353048,31.3495655 C119.104099,31.2197767 118.843613,31.1437285 118.582924,31.1437285 Z M118.453289,31.7299078 C118.497209,31.7299078 118.540724,31.7402503 118.572703,31.7402503 C118.745956,31.7402503 118.87549,31.762355 118.962926,31.7943966 C119.070804,31.827655 119.157835,31.891941 119.223412,31.9896883 C119.288584,32.0772958 119.320563,32.1746374 119.320563,32.2827272 C119.320563,32.434418 119.266928,32.5656264 119.157835,32.6733106 C119.049957,32.7826172 118.909089,32.8483228 118.736038,32.8582597 C118.811533,32.8903014 118.865168,32.9239654 118.909089,32.9663495 L119.211876,33.3688978 L119.4503,33.769621 L119.060077,33.769621 L118.87549,33.4445404 C118.757695,33.2389062 118.660139,33.0859986 118.572703,33.0103561 C118.562381,33.0000135 118.551047,32.9882514 118.529188,32.9779089 L118.270321,32.9022663 L118.075007,32.9022663 L118.075007,33.769621 L117.749349,33.769621 L117.749349,31.7299078 L118.453289,31.7299078 Z M118.572703,32.0113874 L118.075007,32.0113874 L118.075007,32.6193671 L118.572703,32.6193671 C118.714179,32.6092273 118.811533,32.5873255 118.865168,32.5331792 C118.930947,32.4780189 118.962926,32.4019707 118.962926,32.3159856 C118.962926,32.2506856 118.952604,32.1965393 118.919411,32.1529384 C118.887432,32.0989949 118.843512,32.0653309 118.779554,32.0450514 C118.736038,32.0332892 118.670461,32.0229467 118.572703,32.0113874 Z M92.1927339,1 L102.029472,17.3907118 L110.924655,32.2403836 L96.6353668,32.2403836 L88.1417409,18.0528378 L81.706906,7.31727041 L88.1417409,3.44205869 L92.1927339,1 Z M79.5723778,12.114267 L88.1417004,26.3993572 L91.6296226,32.2404647 L77.3504541,32.2404647 L69.4213159,19.0192377 L69.0750131,18.4432995 L69.4213159,18.2376653 L79.5723778,12.114267 Z M66.9506048,23.2414115 L69.4212754,27.3547047 L72.3461268,32.2404444 L58.0568384,32.2404444 L56.4532402,29.5588847 L66.9506048,23.2414115 Z" id="Combined-Shape" fill="#000000" mask="url(#mask-2)"></path>
                    </g>
                </g>
            </g>
        </g>
    </g>
</svg>