<?xml version="1.0" encoding="UTF-8"?>
<svg width="1130px" height="1130px" viewBox="0 0 1130 1130" version="1.1" xmlns="http://www.w3.org/2000/svg" xmlns:xlink="http://www.w3.org/1999/xlink">
    <title>picture</title>
    <defs>
        <linearGradient x1="100%" y1="100%" x2="0%" y2="0%" id="linearGradient-1">
            <stop stop-color="#1E85E9" offset="0%"></stop>
            <stop stop-color="#8671F3" offset="20.275549%"></stop>
            <stop stop-color="#C06CFD" stop-opacity="0.99" offset="70.7268792%"></stop>
            <stop stop-color="#FFBEE8" offset="100%"></stop>
        </linearGradient>
    </defs>
    <g id="Page-1" stroke="none" stroke-width="1" fill="none" fill-rule="evenodd">
        <g id="a1qa-Software-testing-projects-V12" transform="translate(-783.000000, -1122.000000)">
            <g id="2-block" transform="translate(375.000000, 1312.000000)">
                <g id="card" transform="translate(0.000000, 187.000000)">
                    <g id="picture" transform="translate(408.000000, -377.000000)">
                        <g id="Group" transform="translate(536.000000, 519.897959)">
                            <g id="Group-2" transform="translate(-2.250000, 0.000000)">
                                <rect id="Rectangle" fill="#FFFFFF" opacity="0" x="2.25" y="0.83454727" width="106.490461" height="94.7242525"></rect>
                                <g id="logo" transform="translate(1.726101, 0.462193)" fill="#000000" fill-rule="nonzero">
                                    <g id="Group" transform="translate(34.761308, 46.468603)">
                                        <path d="M17.8855469,24.5755394 C16.4763149,25.5429038 14.584173,25.7658832 12.8775938,25.7658832 C10.2435744,25.7658832 8.01756901,24.6132629 8.01756901,21.2659577 C8.01756901,17.6590702 10.5774379,16.7290557 13.6936218,16.7290557 C15.2146386,16.7290557 16.6987663,16.9893851 17.8855469,17.2497144 L17.8855469,24.5755394 Z M12.6547697,0.106820941 C8.87085865,0.106820941 4.90138508,0.776506069 1.71067804,1.92875293 L1.71067804,7.72995171 C3.52904197,7.24664298 7.46088137,6.20532556 11.1710145,6.20532556 C14.732474,6.20532556 17.9231811,7.06026658 17.9231811,10.4818982 L17.9231811,12.1925272 C16.5504653,11.7831715 14.3613489,11.4485157 11.9870426,11.4485157 C5.90297571,11.4485157 0.18966132,13.606224 0.18966132,21.7119165 C0.18966132,29.5957501 6.34787869,31.9387143 12.6547697,31.9387143 C17.2919703,31.9387143 22.040583,30.4506911 25.41648,27.7738181 L25.41648,11.2998627 C25.41648,2.3381087 19.1841121,0.106820941 12.6547697,0.106820941 L12.6547697,0.106820941 Z" id="Shape"></path>
                                    </g>
                                    <g id="Group" transform="translate(36.583396, 0.287221)">
                                        <polygon id="Path" points="7.38263406 32.1575852 0.66772905 32.1575852 0.66772905 38.4043692 21.6653611 38.4043692 21.6653611 32.1575852 14.9508287 32.1575852 14.9508287 0.102712443 0.18593713 3.11498827 0.18593713 8.99014001 7.38263406 7.80016967"></polygon>
                                    </g>
                                    <g id="Group" transform="translate(2.666437, 7.571588)">
                                        <path d="M17.8158698,24.5755394 C16.4062651,25.5425303 14.5141233,25.7655097 12.807544,25.7655097 C10.1738972,25.7655097 7.94789187,24.6128894 7.94789187,21.2659577 C7.94789187,17.6590702 10.5073882,16.7294292 13.6239447,16.7294292 C15.1449614,16.7294292 16.6287166,16.9897586 17.8158698,17.2500879 L17.8158698,24.5755394 Z M11.9173654,11.4488892 C5.83329856,11.4488892 0.119984176,13.6058505 0.119984176,21.71229 C0.119984176,29.5957501 6.27820154,31.9383408 12.5847199,31.9383408 C17.2226658,31.9383408 21.9709059,30.4510646 25.3468028,27.7738181 L25.3468028,11.2998627 C25.3468028,2.3381087 19.114435,0.107194441 12.5847199,0.107194441 C8.80080889,0.107194441 4.83133532,0.776506069 1.64100089,1.92912643 L1.64100089,7.73032521 C3.45936483,7.24664298 7.39157684,6.20569906 11.1013374,6.20569906 C14.6624243,6.20569906 17.8535039,7.06064008 17.8535039,10.4822717 L17.8535039,12.1925272 C16.4804156,11.7831715 14.2912992,11.4488892 11.9173654,11.4488892 L11.9173654,11.4488892 Z" id="Shape"></path>
                                    </g>
                                    <g id="Group" transform="translate(0.323058, 46.432000)">
                                        <path d="M19.306332,23.1248662 C17.8594658,24.5378159 15.7817614,25.207501 14.1865942,25.207501 C10.3289053,25.207501 8.02837683,22.603834 8.02837683,16.28235 C8.02837683,10.8161805 9.77184504,6.68863429 15.7817614,6.68863429 C16.8947641,6.68863429 18.0819173,6.91198717 19.306332,7.3952959 L19.306332,23.1248662 Z M26.8745266,3.45337908 C23.386845,1.37111774 20.2333995,0.14342392 15.6334604,0.14342392 C4.80078085,0.14342392 0.200841753,7.02329011 0.200841753,16.9520351 C0.31188119,26.8060801 5.43161899,31.9753173 12.4800149,31.9753173 C14.9284718,31.9753173 17.4510791,31.2313057 19.306332,30.0783118 L19.306332,47.2589288 L34.0712236,44.3213529 L34.0712236,38.4458277 L26.8745266,39.5614716 L26.8745266,3.45337908 Z" id="Shape"></path>
                                    </g>
                                </g>
                            </g>
                        </g>
                        <circle id="Oval" stroke="#E3E0E0" stroke-width="1.10204082" cx="565" cy="565" r="121.44898"></circle>
                        <circle id="Oval" stroke="url(#linearGradient-1)" stroke-width="2.20408163" stroke-linecap="square" cx="565" cy="565" r="234"></circle>
                        <circle id="Oval" stroke="#E3E0E0" stroke-width="1.10204082" opacity="0.5" cx="565" cy="565" r="395.44898"></circle>
                        <circle id="Oval" stroke="#E3E0E0" stroke-width="1.10204082" opacity="0.200000003" cx="565" cy="565" r="564.44898"></circle>
                        <circle id="Oval" fill="#5055FE" transform="translate(191.510204, 435.510204) rotate(51.000000) translate(-191.510204, -435.510204) " cx="191.510204" cy="435.510204" r="5.51020408"></circle>
                        <circle id="Oval" fill="#5055FE" transform="translate(200.510204, 720.510204) rotate(51.000000) translate(-200.510204, -720.510204) " cx="200.510204" cy="720.510204" r="5.51020408"></circle>
                        <circle id="Oval" fill="#5055FE" transform="translate(515.510204, 675.510204) rotate(51.000000) translate(-515.510204, -675.510204) " cx="515.510204" cy="675.510204" r="5.51020408"></circle>
                        <circle id="Oval" fill="#5055FE" transform="translate(619.510204, 456.510204) rotate(51.000000) translate(-619.510204, -456.510204) " cx="619.510204" cy="456.510204" r="5.51020408"></circle>
                    </g>
                </g>
            </g>
        </g>
    </g>
</svg>