<?xml version="1.0" encoding="UTF-8"?>
<svg width="160px" height="50px" viewBox="0 0 160 50" version="1.1" xmlns="http://www.w3.org/2000/svg" xmlns:xlink="http://www.w3.org/1999/xlink">
    <title>pearson</title>
    <defs>
        <rect id="path-1" x="0" y="0" width="160" height="50"></rect>
    </defs>
    <g id="Page-1" stroke="none" stroke-width="1" fill="none" fill-rule="evenodd">
        <g id="a1qa-main" transform="translate(-385.000000, -2225.000000)">
            <g id="3-block-deliver-globally" transform="translate(0.000000, 1849.000000)">
                <g id="logo-4" transform="translate(375.000000, 356.000000)">
                    <g id="pearson" transform="translate(10.000000, 20.000000)">
                        <mask id="mask-2" fill="white">
                            <use xlink:href="#path-1"></use>
                        </mask>
                        <use id="Mask" fill-opacity="0" fill="#D8D8D8" xlink:href="#path-1"></use>
                        <path d="M22,42.8525744 C36.4059995,38.4492914 56.1448884,34.3551473 79.826844,34.3551473 C103.161998,34.3551473 122.6542,38.4492914 137,42.7032005 L137,42.851925 C121.657637,39.437757 102.609733,35.7274389 79.826844,35.7274389 C56.7933416,35.7274389 37.4529471,39.4877648 22,43 L22,42.8525744 Z M135.056603,12.4452419 C134.707839,14.8670476 134.556686,26.0642458 135.005565,28.4873504 C134.25896,28.439291 133.660891,28.439291 132.912324,28.5380077 C131.616726,26.5097698 125.393931,18.1863957 123.898759,16.3523439 C123.799299,19.5729753 123.748915,25.6667814 123.94718,28.5380077 C123.252269,28.4873504 122.602507,28.439291 121.856557,28.5380077 C122.205321,26.3603959 122.25636,14.6183076 121.856557,12.4452419 C122.554086,12.4946003 123.351729,12.5433092 123.998219,12.4946003 C125.839538,14.9657643 131.019312,21.852551 132.963363,24.3795679 C132.963363,21.4070271 133.062823,15.0651304 132.861285,12.4946003 C133.660891,12.593317 134.25896,12.593317 135.056603,12.4452419 L135.056603,12.4452419 Z M117.126317,20.2672392 C117.126317,24.8250918 113.789171,28.735441 109.200269,28.735441 C104.360753,28.735441 101.160365,24.924458 101.160365,20.2672392 C101.160365,16.1055522 104.609403,12.2971669 109.14923,12.2971669 C113.789171,12.2971669 117.126317,16.1055522 117.126317,20.2672392 Z M78.0790958,20.9608537 C79.5755765,22.7936067 82.4821649,26.6097853 83.927607,28.5386571 C83.927607,28.5386571 82.3840136,28.3399249 80.8312594,28.5386571 C80.1284958,27.3514593 76.5839237,22.2493661 75.9361248,21.6544682 L75.7365504,20.2672392 C77.8801757,20.3165976 79.4754622,19.2268175 79.4754622,16.8978834 C79.4754622,14.9157565 77.7303313,13.8753348 75.9361248,13.8753348 C75.3374016,13.8753348 74.9389072,13.8259764 74.3408384,13.8753348 C74.190994,16.8978834 74.3408384,25.1218913 74.4900284,28.4873504 C73.5929251,28.439291 72.6964762,28.439291 71.7987186,28.5380077 C72.1474831,25.617423 72.0984074,15.2625638 71.7987186,12.3458758 C73.0949707,12.4445925 73.6426552,12.4445925 74.0915339,12.4445925 C74.5901428,12.3952342 75.0390216,12.3458758 76.2351592,12.3458758 C78.5783589,12.3458758 81.8860591,13.1349597 81.8860591,16.5510761 C81.8847504,19.3755419 79.7758053,20.7627709 78.0790958,20.9608537 L78.0790958,20.9608537 Z M67.2117793,28.5386571 C66.3644061,28.4399405 65.1682684,28.4879999 64.4203552,28.5386571 C64.1213207,27.450176 63.5232519,25.6180725 62.8754531,23.8346779 C60.5819834,23.685304 58.4390125,23.685304 56.5446916,23.8346779 C56.1455428,25.1225408 55.3982839,27.598251 55.1489795,28.5386571 C54.4021554,28.4880007 53.6527183,28.4880007 52.9058942,28.5386571 C53.9528418,26.2629781 58.189708,14.7183232 58.7871225,12.4458914 C59.6351501,12.5439586 60.382409,12.5939664 61.2304366,12.4458914 C61.8782354,14.916406 66.2145617,26.311687 67.2117793,28.5386571 Z M49.1669825,26.8072187 C49.1172524,27.4008176 49.1172524,27.9937671 49.1172524,28.587366 C47.1228172,28.3892832 42.6373009,28.3892832 40.6925957,28.587366 C40.9916301,26.1136042 40.9412458,14.8670476 40.6925957,12.3465253 C42.2374978,12.4946003 47.4218516,12.5439586 49.0171381,12.3958836 C48.9674065,12.9871553 48.9674065,13.581512 49.0171381,14.1727837 C47.4715816,14.0240592 44.6801575,13.9253426 43.2347154,13.9740514 C43.2347154,15.0151227 43.1849854,17.9383051 43.2347154,19.3248847 C44.8300019,19.4242508 47.0730872,19.3748925 48.7181037,19.1268019 C48.6677009,19.7366954 48.6677009,20.3496613 48.7181037,20.9595548 C46.8735128,20.761472 44.8300019,20.7121137 43.2347154,20.8108304 C43.1352554,22.5448666 43.1352554,25.0218757 43.1849854,26.9539948 C44.8300019,27.0053015 47.521966,26.9065848 49.1669825,26.8072187 L49.1669825,26.8072187 Z M35.6580862,16.6998006 C35.6580862,20.2672392 32.0192889,22.1499999 28.828716,22.0506338 C28.828716,21.6544682 28.7789859,21.1589365 28.6788716,20.8121293 C31.47095,20.6634048 33.3148866,19.3755419 33.3148866,16.848525 C33.3148866,14.916406 31.7699845,13.4317592 29.3266704,13.4317592 C29.2769404,13.4317592 28.0808027,13.3824009 27.3328895,13.4317592 C27.2831595,14.4202248 27.2831595,25.2212574 27.5821939,28.5386571 C26.5856306,28.3899327 25.7879874,28.3899327 24.8411541,28.4879999 C25.0400742,26.311687 25.1899186,14.3221576 24.8411541,12.0016664 C26.1367518,12.1003831 26.6850907,12.1003831 27.2340838,12.0510247 C27.7817683,12.0510247 28.3804915,12.0016664 29.5766292,12.0016664 C32.2188633,11.952308 35.6580862,12.9875342 35.6580862,16.6998006 Z M114.589432,20.3165976 C114.589432,17.6408562 112.890759,13.8759842 109.14923,13.8759842 C105.259165,13.8759842 103.762684,17.6415057 103.762684,20.3165976 C103.762684,23.4878706 105.407701,27.2033843 109.200923,27.2033843 C112.842338,27.2033843 114.589432,23.4878706 114.589432,20.3165976 L114.589432,20.3165976 Z M62.1766155,22.0506338 C61.4790867,19.8704242 60.2822946,16.5510761 59.5343814,14.6683154 C58.6372782,17.4427734 57.8396349,19.7710581 57.0923761,22.0506338 C58.9866969,22.2987244 60.2325646,22.2987244 62.1766155,22.0506338 Z M97.0321197,24.0327607 C97.0321197,27.6976171 94.0476646,28.6860827 92.1095028,28.6860827 C90.6692954,28.6860827 88.8685455,27.9937671 87.5690217,27.3508098 C87.6174431,26.3110375 87.6684818,25.8655136 87.5690217,24.9738163 C88.5184724,25.8161553 90.5201054,26.9552937 91.9616214,26.9552937 C93.6027118,26.9552937 94.5966577,25.9648797 94.6476964,24.4782846 C94.6961178,23.4372134 93.8500532,22.4961577 92.907146,21.7531849 C91.9118914,20.9602043 90.7687554,20.2672392 90.0214966,19.7710581 C88.7193554,18.8300024 87.9177862,17.838939 87.9177862,16.2042689 C87.9177862,14.074067 89.8677261,12.3465253 92.6094203,12.3465253 C93.9998976,12.3465253 95.2922236,12.7407425 96.6349339,13.6291925 C96.1860551,14.2227915 95.8883294,14.8176893 95.6403337,15.4619455 C95.0448822,14.6689649 93.9992432,13.8759842 92.6571872,13.8759842 C91.0658268,13.8759842 90.2701466,14.8670476 90.2701466,16.1062017 C90.2701466,16.6510917 90.6189111,17.1466234 91.2654012,17.6915135 C91.9105827,18.2364035 92.8063773,18.8306519 93.9495132,19.5242664 C95.8399081,20.7127631 97.0321197,21.704476 97.0321197,24.0327607 L97.0321197,24.0327607 Z" id="Shape" fill="#000000" fill-rule="nonzero" mask="url(#mask-2)"></path>
                    </g>
                </g>
            </g>
        </g>
    </g>
</svg>