<?xml version="1.0" encoding="UTF-8"?>
<svg width="160px" height="50px" viewBox="0 0 160 50" version="1.1" xmlns="http://www.w3.org/2000/svg" xmlns:xlink="http://www.w3.org/1999/xlink">
    <title>telecom-austria-group</title>
    <defs>
        <rect id="path-1" x="0" y="0" width="160" height="50"></rect>
    </defs>
    <g id="Page-1" stroke="none" stroke-width="1" fill="none" fill-rule="evenodd">
        <g id="a1qa-main" transform="translate(-385.000000, -2330.000000)">
            <g id="3-block-deliver-globally" transform="translate(0.000000, 1849.000000)">
                <g id="logo-7" transform="translate(375.000000, 461.000000)">
                    <g id="telecom-austria-group" transform="translate(10.000000, 20.000000)">
                        <mask id="mask-2" fill="white">
                            <use xlink:href="#path-1"></use>
                        </mask>
                        <use id="Mask" fill-opacity="0" fill="#D8D8D8" xlink:href="#path-1"></use>
                        <path d="M62.6608449,35.9846903 C64.1234303,35.9846903 65.1408462,36.4192108 65.7722165,37.3178599 C66.34152,38.131152 66.6077121,39.3194814 66.6077121,41.0604974 C66.6077121,42.7980457 66.34152,43.9695705 65.7676685,44.7465859 C65.1499422,45.5900197 64.1317238,46 62.6608449,46 C59.8563299,46 58.7113023,44.5684031 58.7113023,41.0594304 C58.7123724,37.5029779 59.8929815,35.9846903 62.6608449,35.9846903 Z M44.5525547,35.9846903 C45.9942729,35.9846903 47.7704033,36.3682633 47.7888628,36.371731 L47.8669815,36.3869352 L47.8212339,37.9825775 L47.7144895,37.96764 C47.6976352,37.9639057 46.0245037,37.7457118 44.787981,37.7457118 C43.0573306,37.7457118 42.5835354,38.4416381 42.5835354,40.9762074 C42.5835354,43.5366505 43.0485022,44.2363111 44.7489216,44.2363111 C44.7489216,44.2363111 45.9803613,44.1525545 46.0683786,44.1477532 L46.0683786,42.3139115 L44.9800674,42.3139115 L44.9800674,40.6745237 L47.8653764,40.6745237 L47.8653764,45.6681747 L47.7824421,45.6823119 C47.76318,45.6855128 45.8032566,46 44.6073984,46 C41.8427453,46 40.7169799,44.54493 40.7169799,40.9762074 C40.7169799,37.4304244 41.8296364,35.9846903 44.5525547,35.9846903 Z M70.3614229,36.1337983 L70.3614229,42.6830805 C70.3614229,43.7297707 70.9023681,44.1933659 72.1118704,44.1933659 C73.3529412,44.1933659 73.9045876,43.7297707 73.9045876,42.6830805 L73.9045876,36.1337983 L75.7294085,36.1337983 L75.7294085,42.6830805 C75.7294085,44.9290365 74.5798329,45.9730592 72.1116029,45.9730592 C69.676279,45.9730592 68.5392773,44.9290365 68.5392773,42.6830805 L68.5392773,36.1337983 L70.3614229,36.1337983 Z M81.6757935,36.1337983 C83.8912078,36.1337983 85.0156356,37.2549091 85.0156356,39.4653885 C85.0156356,41.7265487 83.8318162,42.9719606 81.6757935,42.9719606 L79.9261486,42.9719606 L79.9261486,45.8482246 L78.1149718,45.8482246 L78.1149718,36.1337983 L81.6757935,36.1337983 Z M53.7432738,36.1337983 C56.0440301,36.1337983 57.070542,37.1116694 57.070542,39.2992091 C57.070542,40.6667883 56.5919312,41.5435646 55.5905671,42.0722445 C55.6443406,42.2114831 57.1186974,45.8482246 57.1186974,45.8482246 L55.1272055,45.8482246 C55.1272055,45.8482246 54.8359002,45.1274565 54.5277354,44.3646124 L54.3735187,43.9828261 C54.092871,43.2879774 53.8364919,42.6528215 53.8157744,42.6001242 L51.8545133,42.6001242 L51.8545133,45.8482246 L50.0462794,45.8482246 L50.0462794,36.1337983 L53.7432738,36.1337983 Z M62.6608449,37.734242 C61.1412756,37.734242 60.5791954,38.6344915 60.5791954,41.0607641 C60.5791954,43.444625 61.1043564,44.2496481 62.6608449,44.2496481 C64.2355253,44.2496481 64.7403541,43.4747666 64.7403541,41.0607641 C64.7403541,38.6344915 64.1777389,37.734242 62.6608449,37.734242 Z M81.6629521,37.8846837 L79.9266836,37.8846837 L79.9266836,41.2245429 L81.6629521,41.2245429 C82.9024177,41.2245429 83.1624567,40.2677443 83.1624567,39.4653885 C83.1624567,38.3720188 82.6996301,37.8846837 81.6629521,37.8846837 Z M53.7435413,37.8721469 L51.8542458,37.8721469 L51.8542458,40.8652433 L53.7716319,40.8652433 C54.7360769,40.8652433 55.2042541,40.3608368 55.2042541,39.3266834 C55.2042541,38.3352086 54.7414275,37.8721469 53.7435413,37.8721469 Z M62.1865145,21.8236981 C63.2462001,21.8236981 64.7770056,22.1541897 64.8412128,22.1696607 L64.9257522,22.188866 L64.7836939,23.8349223 L64.6849754,23.8202516 C64.6702613,23.8181176 62.9703769,23.6015243 62.1865145,23.6015243 C61.742415,23.6015243 61.3978366,23.6807462 61.1690987,23.8397236 C60.9398256,23.9949667 60.82238,24.2350332 60.82238,24.5481867 C60.82238,25.2889254 61.0968656,25.4468358 62.6335568,26.0085915 C64.3286257,26.6372991 65.1258645,27.1246342 65.1258645,28.8683176 C65.1258645,30.8187249 64.0437064,31.8528783 61.9928229,31.8528783 C60.9478515,31.8528783 59.1390825,31.5095831 59.0644417,31.4949124 L58.9761568,31.4762405 L59.1610199,29.8283171 L59.260541,29.8445882 C59.2768603,29.8467222 61.0158041,30.0753189 61.9778413,30.0753189 C62.8925257,30.0753189 63.2994385,29.716286 63.2994385,28.9109961 C63.2994385,28.2588153 63.0698979,28.0622275 61.7651551,27.6127696 C59.6538098,26.8437564 58.9964891,26.3222785 58.9964891,24.5780616 C58.9964891,23.6772786 59.2961225,22.976551 59.8900386,22.4977516 C60.4371371,22.0570961 61.2300955,21.8236981 62.1865145,21.8236981 Z M51.604908,21.989344 L51.604908,28.5383595 C51.604908,29.5823822 52.1439806,30.0491783 53.3534828,30.0491783 C54.5926809,30.0491783 55.1424547,29.5823822 55.1424547,28.5383595 L55.1424547,21.989344 L56.9699508,21.989344 L56.9699508,28.5383595 C56.9699508,30.780581 55.8201077,31.8272712 53.3534828,31.8272712 C50.9154837,31.8272712 49.7790171,30.780581 49.7790171,28.5383595 L49.7790171,21.989344 L51.604908,21.989344 Z M46.0667735,21.989344 L48.3603065,31.7027033 L46.5338805,31.7027033 C46.5338805,31.7027033 46.0453711,29.9654217 46.0087195,29.8315179 L42.7007134,29.8315179 C42.6824427,29.904244 42.5516234,30.4244159 42.4325455,30.897884 L42.3562636,31.2011875 C42.2844491,31.4867265 42.2301285,31.7027033 42.2301285,31.7027033 L40.4015622,31.7027033 L42.7234534,21.989344 L46.0667735,21.989344 Z M92.9050897,21.989344 L95.1964825,31.7027033 L93.3732668,31.7027033 C93.3732668,31.7027033 92.88556,29.9654217 92.8470357,29.8315179 L89.5363543,29.8315179 C89.5163683,29.9123247 89.3568779,30.5455336 89.2289216,31.0532991 L89.1573001,31.3374823 C89.1030495,31.5527194 89.0652343,31.7027033 89.0652343,31.7027033 L87.2369356,31.7027033 L89.5615021,21.989344 L92.9050897,21.989344 Z M85.4985269,21.989344 L85.4985269,31.7027033 L83.6737061,31.7027033 L83.6737061,21.989344 L85.4985269,21.989344 Z M73.0169237,21.989344 L73.0169237,23.7399626 L70.3972719,23.7399626 L70.3972719,31.7027033 L68.5721835,31.7027033 L68.5721835,23.7399626 L65.9217657,23.7399626 L65.9217657,21.989344 L73.0169237,21.989344 Z M78.2792351,21.989344 C80.580794,21.989344 81.6035605,22.9648144 81.6035605,25.1526209 C81.6035605,26.5191331 81.1252172,27.3993771 80.1225154,27.9272567 C80.1498417,27.9919032 80.4816606,28.8100732 80.8293384,29.6681311 L80.9898802,30.0643914 C81.3356062,30.9178317 81.6527859,31.7013696 81.6527859,31.7013696 L79.6575486,31.7013696 C79.6575486,31.7013696 79.3670447,30.9807859 79.0597133,30.2183105 L78.9059123,29.836724 C78.6260188,29.1422696 78.3703129,28.507663 78.3495954,28.4556699 L76.3875318,28.4556699 L76.3875318,31.7013696 L74.5795653,31.7013696 L74.5795653,21.989344 L78.2792351,21.989344 Z M91.4628365,23.6708768 L90.9719193,23.6708768 C90.9577593,23.7366379 90.743084,24.6432634 90.5120781,25.6186535 L90.4049711,26.0709047 C90.2980459,26.5224158 90.1936781,26.9632717 90.1099759,27.3175627 L90.0338329,27.6401874 C89.9772387,27.8803097 89.9391873,28.0427459 89.9301582,28.0835667 L92.4826601,28.0835667 L92.4376229,27.8884603 C92.2403279,27.0344963 91.492217,23.7999602 91.4628365,23.6708768 Z M44.6266605,23.6708768 L44.1357433,23.6708768 C44.1104617,23.7771063 43.5654032,26.077544 43.272897,27.3175627 L43.1968631,27.6401874 C43.174254,27.7362363 43.1546028,27.8198555 43.1385766,27.8882334 L43.0931796,28.0835667 L43.0931796,28.0835667 L45.6424712,28.0835667 L45.5976391,27.8884603 C45.4012173,27.0344963 44.6562799,23.7999602 44.6266605,23.6708768 Z M78.2789675,23.7255587 L77.6351526,23.7259835 C77.5845998,23.7259944 77.5327448,23.7260042 77.4802474,23.726013 L76.3877993,23.7260921 L76.3877993,23.7260921 L76.3877993,26.720789 L78.3057205,26.720789 C79.2701655,26.720789 79.7383426,26.2169159 79.7383426,25.1816956 C79.7383426,24.1867532 79.2755161,23.7255587 78.2789675,23.7255587 Z M118.533375,3 L121,5.45961516 L108.2094,18.2127504 L105.742508,15.7531353 L118.533375,3 Z M84.8516399,7.10228386 C87.6203058,7.10228386 88.7993097,8.61950445 88.7993097,12.1778242 C88.7993097,15.5934377 87.5226575,17.1175935 84.6555405,17.1175935 C81.5345378,17.1175935 80.9055752,15.2269361 80.9055752,12.1778242 C80.9055752,8.6192377 82.0869868,7.10228386 84.8516399,7.10228386 Z M93.688417,7.25139186 C93.688417,7.25139186 95.6066057,13.6641029 95.7813026,14.2423965 C95.9535918,13.6638361 97.8739208,7.25139186 97.8739208,7.25139186 L100.666932,7.25139186 L100.666932,16.9682188 L98.8447865,16.9682188 L98.8447865,9.45653648 L98.8233841,9.45653648 C98.8119071,9.49446032 98.6448869,10.0503876 98.4087402,10.8365484 L98.2735968,11.2864669 C97.6392764,13.3982818 96.6831456,16.5819784 96.6831456,16.5819784 L94.8818674,16.5819784 C94.8818674,16.5819784 92.7721274,9.59444137 92.7290551,9.45653648 L92.6948112,9.45653648 L92.6948112,16.9682188 L90.8830994,16.9682188 L90.8830994,7.25139186 L93.688417,7.25139186 Z M74.3133732,7.25139186 L74.3133732,11.3255879 L74.5709233,11.3252273 C74.6122985,11.3251545 74.6569415,11.3250731 74.7038673,11.3249857 L75.1612414,11.3241006 C75.2129992,11.3239987 75.2640849,11.3238979 75.3135133,11.3238008 L75.6870309,11.3230905 C75.7482717,11.3229837 75.7910638,11.3229205 75.8075272,11.3229205 C75.8575552,11.2154241 77.7845724,7.25112512 77.7845724,7.25112512 L79.8474948,7.25139186 C79.8474948,7.25139186 77.4490901,12.0071102 77.4057502,12.0948678 C77.427069,12.1360043 77.9863735,13.2094385 78.5746178,14.3383527 L78.8102524,14.7905618 C79.3971643,15.916905 79.9451432,16.9684855 79.9451432,16.9684855 L77.8554678,16.9684855 C77.8554678,16.9684855 77.4601673,16.2069103 77.0191536,15.3571083 L76.8136359,14.9610792 C76.3324614,14.0338361 75.8606457,13.124413 75.8348152,13.0738059 L75.6065419,13.0739862 C75.5669599,13.0740226 75.5236509,13.0740633 75.4776272,13.074107 L74.5746999,13.0749593 C74.5325471,13.0749957 74.493754,13.0750279 74.4593332,13.0750546 L74.3133732,13.0751396 L74.3133732,13.0751396 L74.3133732,16.9684855 L72.5016613,16.9684855 L72.5016613,7.25139186 L74.3133732,7.25139186 Z M70.3608878,7.25139186 L70.3608878,8.98974041 L66.0057701,8.98974041 L66.0057701,11.2818425 L69.5336856,11.2818425 L69.5336856,12.9908496 L66.0057701,12.9908496 L66.0057701,15.2306705 L70.3608878,15.2306705 L70.3608878,16.9682188 L64.205562,16.9682188 L64.205562,7.25139186 L70.3608878,7.25139186 Z M58.7615979,7.25139186 L58.7615979,15.2151995 L62.4567196,15.2151995 L62.4567196,16.9682188 L56.9509562,16.9682188 L56.9509562,7.25139186 L58.7615979,7.25139186 Z M54.8131255,7.25139186 L54.8131255,8.98974041 L50.451587,8.98974041 L50.451587,11.2818425 L53.9851207,11.2818425 L53.9851207,12.9908496 L50.451587,12.9908496 L50.451587,15.2306705 L54.8131255,15.2306705 L54.8131255,16.9682188 L48.6567295,16.9682188 L48.6567295,7.25139186 L54.8131255,7.25139186 Z M47.0924827,7.25139186 L47.0924827,9.00174374 L44.4733659,9.00174374 L44.4733659,16.9682188 L42.6482776,16.9682188 L42.6482776,9.00174374 L40,9.00174374 L40,7.25139186 L47.0924827,7.25139186 Z M84.8516399,8.85263574 C83.3342108,8.85263574 82.7729316,9.75208507 82.7729316,12.1778242 C82.7718631,14.5624852 83.295954,15.3672416 84.8516399,15.3672416 C86.4284605,15.3672416 86.9324867,14.5896928 86.9324867,12.1778242 C86.9324867,9.75181833 86.3685339,8.85263574 84.8516399,8.85263574 Z" id="Combined-Shape" fill="#000000" mask="url(#mask-2)"></path>
                    </g>
                </g>
            </g>
        </g>
    </g>
</svg>