<?xml version="1.0" encoding="UTF-8"?>
<svg width="160px" height="50px" viewBox="0 0 160 50" version="1.1" xmlns="http://www.w3.org/2000/svg" xmlns:xlink="http://www.w3.org/1999/xlink">
    <title>yahoo</title>
    <defs>
        <rect id="path-1" x="0" y="0" width="160" height="50"></rect>
    </defs>
    <g id="Page-1" stroke="none" stroke-width="1" fill="none" fill-rule="evenodd">
        <g id="a1qa-About-us-V1-2" transform="translate(-1361.000000, -5951.000000)">
            <g id="9-block" transform="translate(375.000000, 5714.000000)">
                <g id="logo-10" transform="translate(961.000000, 217.000000)">
                    <g id="yahoo" transform="translate(25.000000, 20.000000)">
                        <mask id="mask-2" fill="white">
                            <use xlink:href="#path-1"></use>
                        </mask>
                        <use id="Mask" fill-opacity="0" fill="#D8D8D8" xlink:href="#path-1"></use>
                        <path d="M24.2643836,7.2309589 L23.9561644,8.97753425 C23.0315068,9.1830137 18.8191781,9.28575342 17.6890411,9.5939726 C18.5004215,10.7820653 19.4425738,12.0764103 20.4094555,13.3686595 L20.9386606,14.0726636 C23.2369863,17.1168037 25.5657534,20.0391781 26.5246575,21.4090411 C27.3465753,20.2789041 35.0520548,14.8336986 35.2575342,13.189863 C34.8054795,13.1076712 33.9589041,12.9761644 33.0663014,12.8479452 L32.5280044,12.771829 C31.3618082,12.609589 30.2356164,12.4706849 29.9150685,12.4706849 L29.6068493,10.6213699 L46.8671233,10.6213699 L45.7369863,12.3679452 C45.0178082,12.4706849 41.9356164,13.0871233 40.9082192,13.2926027 C39.7780822,13.6008219 29.2986301,21.82 28.5794521,23.7720548 C28.5500978,23.94818 28.5375175,24.6610679 28.5345221,25.5896194 L28.5344556,26.5781661 C28.5351046,26.8373285 28.5362029,27.1032803 28.5376381,27.3710043 L28.5409247,27.9073288 C28.552544,29.6037573 28.5746762,31.2371093 28.5787864,31.5328369 L28.5794521,31.580274 L28.5794521,31.580274 L34.5383562,31.9912329 L34.3328767,33.9432877 C34.0863014,33.9124658 33.4143836,33.900137 32.5002055,33.8979795 L31.7720088,33.8981384 C29.8095997,33.9027536 27.1253639,33.9370912 25.008399,33.9425557 L24.469863,33.9432877 L24.469863,33.9432877 C22.7232877,33.9432877 17.3808219,34.1487671 15.5315068,34.0460274 L15.7369863,32.1967123 C16.8671233,32.2994521 18.6136986,32.0939726 19.6410959,31.7857534 C20.6684932,31.4775342 21.490411,31.0665753 21.490411,30.0391781 L21.490411,23.8747945 C21.2849315,23.309726 18.9989726,20.2789041 16.4818493,17.1710274 L15.9758904,16.5491324 C13.6054795,13.6487671 11.1410959,10.82 10.0863014,10.0049315 C9.46986301,9.79945205 5.05205479,9.28575342 4.02465753,9.08027397 L4.23013699,7.2309589 L24.2643836,7.2309589 Z M42.860274,15.3473973 C43.1768234,15.4001555 45.0647128,15.4258217 47.0353428,15.4383079 L47.6586611,15.441829 C48.3850235,15.4454638 49.1013477,15.4475083 49.7331931,15.4486584 L50.2523499,15.4494413 C50.3348492,15.4495407 50.4151903,15.4496259 50.4931563,15.4496989 L55.8054795,15.450137 L55.4972603,16.8884932 L52.7232877,17.2994521 C54.2643836,20.9980822 57.5520548,29.32 58.4767123,30.7583562 C58.8151491,30.8006608 59.3974594,30.930063 60.0156334,31.06049 L60.5494283,31.170528 C61.259928,31.3122264 61.9396454,31.4231426 62.2780822,31.3747945 L62.2780822,31.3747945 L62.0726027,32.9158904 L49.8465753,32.9158904 L50.0520548,31.1693151 C50.9767123,31.1693151 53.339726,30.7583562 53.339726,30.7583562 L53.339726,30.7583562 L51.3876712,25.4158904 C51.3876712,25.4158904 49.9202963,25.443064 48.3690714,25.4974112 L47.8507888,25.5165334 C46.5568074,25.5668549 45.3113503,25.636047 44.9150685,25.7241096 C44.709589,26.0323288 43.3739726,28.8063014 43.3739726,28.8063014 L43.3739726,28.8063014 L46.3534247,29.5254795 L46.1479452,31.1693151 L46.1479452,31.1693151 L45.9848218,31.1686793 C45.354854,31.1649577 43.5019337,31.1457452 41.5715583,31.1336501 L40.6052192,31.1283003 C40.1775805,31.1262793 39.7555448,31.1247959 39.3516827,31.1240981 L38.4789642,31.1239585 C37.2779896,31.1259744 36.3685569,31.1382542 36.1821918,31.1693151 L36.1821918,31.1693151 L36.3876712,29.4227397 C37.209589,29.32 39.3671233,28.8063014 40.1890411,28.6008219 C41.2164384,27.2652055 46.0452055,17.6076712 46.0452055,17.6076712 L46.0452055,17.6076712 L42.7575342,16.7857534 Z M150.017808,26.5460274 L149.606849,30.1419178 L147.552055,30.1419178 L145.394521,30.2446575 L145.805479,26.5460274 L147.963014,26.6487671 L150.017808,26.5460274 Z M101.730137,11.5460274 C109.435616,11.7515068 114.469863,14.9364384 114.469863,20.1761644 L114.469863,20.1761644 L114.469863,20.3816438 C114.367123,25.5186301 109.435616,28.8063014 101.730137,29.0117808 L101.730137,29.0117808 L100.908219,29.0117808 C93.2027397,28.8063014 88.2712329,25.3131507 88.2712329,20.3816438 L88.2712329,20.3816438 L88.2712329,20.1761644 C88.2712329,14.9364384 92.7917808,11.7515068 100.908219,11.5460274 L100.908219,11.5460274 Z M88.5794521,9.69671233 L88.4767123,11.3405479 C87.860274,11.3405479 85.6,11.7515068 84.7780822,11.8542466 L84.7780822,26.4432877 C84.7780822,26.4432877 85.197428,26.4957059 85.7693483,26.567781 L86.1286753,26.6131227 C87.1243221,26.7389265 88.3739726,26.8982779 88.7849315,26.9569863 L88.4767123,28.3953425 C85.2917808,28.189863 79.7438356,28.2926027 76.5589041,28.3953425 L76.7643836,26.7515068 C77.2780822,26.7515068 79.8465753,26.3405479 80.4630137,26.2378082 L80.4630137,20.4843836 C78.9219178,20.4843836 70.0863014,20.689863 68.7506849,20.9980822 L68.7506849,26.1350685 C68.7506849,26.1350685 69.9078201,26.2601642 71.0832883,26.3895735 L71.522724,26.4380683 C72.3217761,26.5264812 73.0622107,26.6097969 73.3739726,26.6487671 L73.1684932,28.3953425 C69.7780822,28.189863 62.8945205,28.189863 59.6068493,28.3953425 L59.8123288,26.5460274 C60.839726,26.5460274 63.6136986,26.2378082 64.230137,26.1350685 C64.3260274,24.9843836 64.3324201,23.1177169 64.3328463,21.2033181 L64.3328767,18.2241096 C64.3328767,17.2994521 64.3328767,14.8336986 64.230137,13.9090411 C63.9065068,13.9090411 63.0835616,13.8466267 62.2013228,13.7779709 L61.609208,13.7318921 C60.7223459,13.6632363 59.8739726,13.6008219 59.5041096,13.6008219 L59.709589,11.9569863 C62.5863014,12.1624658 71.3191781,12.1624658 73.6821918,11.9569863 L73.4767123,13.4980822 C72.7575342,13.4980822 69.6753425,14.0117808 68.7506849,14.0117808 L68.7506849,18.5323288 L80.4630137,18.5323288 L80.4630137,11.8542466 C79.6410959,11.7515068 77.4835616,11.3405479 76.5589041,11.2378082 L76.7643836,9.69671233 C78.7164384,9.79945205 86.5246575,9.79945205 88.5794521,9.69671233 Z M130.394521,8.66931507 C138.921918,8.87479452 144.161644,12.4706849 144.367123,18.0186301 L144.367123,18.0186301 L144.353737,18.2913291 C143.993939,23.9799673 138.687543,27.2684161 130.394521,27.4706849 L130.394521,27.4706849 L129.778082,27.4706849 C121.250685,27.2652055 116.010959,23.8747945 115.805479,18.1213699 L115.805479,18.1213699 L115.805479,17.9158904 C115.908219,12.1624658 121.250685,8.87479452 129.778082,8.66931507 L129.778082,8.66931507 Z M102.141096,13.9090411 L100.49726,13.9090411 C97.8260274,14.0117808 92.6890411,15.5528767 92.6890411,20.0734247 L92.6890411,20.0734247 L92.6890411,20.4843836 C92.6890411,25.1076712 97.8260274,26.5460274 100.49726,26.6487671 L100.49726,26.6487671 L102.141096,26.6487671 C104.812329,26.5460274 109.949315,25.0049315 109.949315,20.4843836 L109.949315,20.4843836 L109.949315,20.0734247 C109.949315,15.450137 104.812329,14.0117808 102.141096,13.9090411 L102.141096,13.9090411 Z M131.113699,11.2378082 L128.853425,11.2378082 C125.976712,11.4432877 120.736986,13.0871233 120.634247,18.0186301 C120.736986,22.950137 125.976712,24.6967123 128.853425,24.9021918 L128.853425,24.9021918 L131.113699,24.9021918 C133.990411,24.7994521 139.332877,22.950137 139.332877,18.0186301 C139.230137,13.0871233 133.990411,11.4432877 131.113699,11.2378082 L131.113699,11.2378082 Z M48.5109589,17.710411 C48.5109589,17.710411 46.0452055,23.0528767 45.7369863,23.7720548 L45.7369863,23.7720548 L50.8739726,23.7720548 Z M154.024658,7.02547945 L153.408219,9.49123288 L150.017808,23.5665753 L146.832877,23.5665753 L146.832877,7.02547945 L154.024658,7.02547945 Z" id="Combined-Shape" fill="#000000" fill-rule="nonzero" mask="url(#mask-2)"></path>
                    </g>
                </g>
            </g>
        </g>
    </g>
</svg>