<?xml version="1.0" encoding="UTF-8"?>
<svg xmlns="http://www.w3.org/2000/svg" width="20" height="20" viewBox="0 0 20 20" fill="none">
  <path fill-rule="evenodd" clip-rule="evenodd" d="M10.398 15.804C11.881 15.0348 17 12.0163 17 7C17 3.13401 13.866 0 10 0C6.13401 0 3 3.13401 3 7C3 12.0163 8.11903 15.0348 9.60196 15.804C9.85483 15.9351 10.1452 15.9351 10.398 15.804ZM10 10C11.6569 10 13 8.65685 13 7C13 5.34315 11.6569 4 10 4C8.34315 4 7 5.34315 7 7C7 8.65685 8.34315 10 10 10Z" fill="white"></path>
</svg>
