<svg xmlns="http://www.w3.org/2000/svg" width="40" height="40"  xmlns:v="https://vecta.io/nano"><linearGradient id="A" gradientUnits="userSpaceOnUse" x1="33.795" y1="46.52" x2="-6.632" y2="6.45"><stop offset="0" stop-color="#1e85e9"/><stop offset=".203" stop-color="#8671f3"/><stop offset=".707" stop-color="#c06cfd" stop-opacity=".99"/><stop offset="1" stop-color="#ffbee8"/></linearGradient><path d="M9.533 21.144c-.141 0-.256.116-.256.257v.44h-3.84v-3.84h3.327c.141 0 .256-.115.256-.256s-.115-.256-.256-.256H5.147c-.154 0-.222.127-.222.252v4.381c-.006.126.081.224.196.231h4.408c.074-.005.135-.02.183-.062s.075-.102.078-.166v-.724c-.001-.141-.115-.257-.257-.257z" fill="url(#A)"/><linearGradient id="B" gradientUnits="userSpaceOnUse" x1="34.914" y1="45.39" x2="-5.512" y2="5.321"><stop offset="0" stop-color="#1e85e9"/><stop offset=".203" stop-color="#8671f3"/><stop offset=".707" stop-color="#c06cfd" stop-opacity=".99"/><stop offset="1" stop-color="#ffbee8"/></linearGradient><path d="M9.744 18.66h0l-1.732 1.453-.654-.653c-.051-.052-.122-.101-.186-.08-.067 0-.13.026-.178.073s-.077.112-.078.18.025.133.073.182l.827.827c.094.094.243.1.346.015l1.912-1.604c.052-.044.084-.106.091-.174s-.015-.134-.059-.187a.26.26 0 0 0-.362-.032z" fill="url(#B)"/><linearGradient id="C" gradientUnits="userSpaceOnUse" x1="38.319" y1="41.955" x2="-2.107" y2="1.885"><stop offset="0" stop-color="#1e85e9"/><stop offset=".203" stop-color="#8671f3"/><stop offset=".707" stop-color="#c06cfd" stop-opacity=".99"/><stop offset="1" stop-color="#ffbee8"/></linearGradient><path d="M18.15 18.698h-6.072c-.141 0-.256.115-.256.256s.115.256.256.256h6.072c.141 0 .256-.115.256-.256s-.115-.256-.256-.256z" fill="url(#C)"/><linearGradient id="D" gradientUnits="userSpaceOnUse" x1="30.124" y1="50.224" x2="-10.303" y2="10.154"><stop offset="0" stop-color="#1e85e9"/><stop offset=".203" stop-color="#8671f3"/><stop offset=".707" stop-color="#c06cfd" stop-opacity=".99"/><stop offset="1" stop-color="#ffbee8"/></linearGradient><path d="M9.533 25.225H5.181c-.141 0-.256.116-.256.257v4.352c0 .141.115.257.256.257h4.352c.141 0 .256-.116.256-.257v-4.352c0-.141-.114-.257-.256-.257zm-.256 4.433h-3.84v-3.92h3.84v3.92z" fill="url(#D)"/><linearGradient id="E" gradientUnits="userSpaceOnUse" x1="37.625" y1="42.655" x2="-2.801" y2="2.586"><stop offset="0" stop-color="#1e85e9"/><stop offset=".203" stop-color="#8671f3"/><stop offset=".707" stop-color="#c06cfd" stop-opacity=".99"/><stop offset="1" stop-color="#ffbee8"/></linearGradient><path d="M4.925 14.442c0 .122.07.254.222.254h4.381a.26.26 0 0 0 .26-.256v-.72c0-.141-.115-.256-.256-.256s-.256.115-.256.256v.464h-3.84v-3.84h3.327c.141 0 .256-.115.256-.256s-.115-.256-.256-.256H5.147c-.07 0-.119.019-.157.054s-.063.087-.066.142v4.414z" fill="url(#E)"/><linearGradient id="F" gradientUnits="userSpaceOnUse" x1="38.754" y1="41.516" x2="-1.672" y2="1.447"><stop offset="0" stop-color="#1e85e9"/><stop offset=".203" stop-color="#8671f3"/><stop offset=".707" stop-color="#c06cfd" stop-opacity=".99"/><stop offset="1" stop-color="#ffbee8"/></linearGradient><path d="M9.744 10.979h0l-1.732 1.453-.654-.654c-.051-.053-.122-.082-.186-.08s-.13.026-.178.073c-.102.099-.104.261-.005.362l.827.826c.095.096.243.101.346.015l1.912-1.604c.052-.044.084-.106.091-.174s-.015-.134-.059-.187a.26.26 0 0 0-.362-.03z" fill="url(#F)"/><linearGradient id="G" gradientUnits="userSpaceOnUse" x1="42.147" y1="38.093" x2="1.721" y2="-1.977"><stop offset="0" stop-color="#1e85e9"/><stop offset=".203" stop-color="#8671f3"/><stop offset=".707" stop-color="#c06cfd" stop-opacity=".99"/><stop offset="1" stop-color="#ffbee8"/></linearGradient><path d="M11.821 11.297c0 .141.115.256.256.256h6.072c.141 0 .256-.115.256-.256s-.115-.256-.256-.256h-6.072c-.141.001-.256.115-.256.256z" fill="url(#G)"/><linearGradient id="H" gradientUnits="userSpaceOnUse" x1="41.957" y1="38.285" x2="1.531" y2="-1.785"><stop offset="0" stop-color="#1e85e9"/><stop offset=".203" stop-color="#8671f3"/><stop offset=".707" stop-color="#c06cfd" stop-opacity=".99"/><stop offset="1" stop-color="#ffbee8"/></linearGradient><path d="M11.821 13.232c0 .141.115.256.256.256h9.207c.141 0 .257-.115.257-.256s-.116-.256-.257-.256h-9.207c-.141-.001-.256.115-.256.256z" fill="url(#H)"/><linearGradient id="I" gradientUnits="userSpaceOnUse" x1="39.485" y1="40.779" x2="-.942" y2=".709"><stop offset="0" stop-color="#1e85e9"/><stop offset=".203" stop-color="#8671f3"/><stop offset=".707" stop-color="#c06cfd" stop-opacity=".99"/><stop offset="1" stop-color="#ffbee8"/></linearGradient><path d="M4.617 5.883h-.161c-.141 0-.256.115-.256.256s.115.256.256.256h.161c.141 0 .256-.115.256-.256s-.115-.256-.256-.256z" fill="url(#I)"/><linearGradient id="J" gradientUnits="userSpaceOnUse" x1="42.161" y1="38.079" x2="1.734" y2="-1.99"><stop offset="0" stop-color="#1e85e9"/><stop offset=".203" stop-color="#8671f3"/><stop offset=".707" stop-color="#c06cfd" stop-opacity=".99"/><stop offset="1" stop-color="#ffbee8"/></linearGradient><path d="M6.229 6.395h7.415c.141 0 .256-.115.256-.256s-.115-.256-.256-.256H6.229c-.141 0-.256.115-.256.256s.115.256.256.256z" fill="url(#J)"/><linearGradient id="K" gradientUnits="userSpaceOnUse" x1="38.854" y1="41.415" x2="-1.572" y2="1.346"><stop offset="0" stop-color="#1e85e9"/><stop offset=".203" stop-color="#8671f3"/><stop offset=".707" stop-color="#c06cfd" stop-opacity=".99"/><stop offset="1" stop-color="#ffbee8"/></linearGradient><path d="M37.285 36.899l-4.802-4.803a.26.26 0 0 0-.363 0l-.472.472-.48-.477.118-.159a7.6 7.6 0 0 0-.711-9.841 7.5 7.5 0 0 0-1.647-1.243l-.117-.065V4.566c0-.295-.128-.576-.351-.771L24.42.27c-.201-.174-.458-.27-.724-.27H8.821c-.435 0-.859.12-1.228.35a2.38 2.38 0 0 0-1.136 2.034v1.162h-1.87c-1.32.004-2.398 1.082-2.402 2.403v25.447c.003 1.321 1.082 2.398 2.403 2.402h16.575l.056.036c1.201.767 2.589 1.173 4.014 1.173a7.56 7.56 0 0 0 4.515-1.514l.154-.116.489.462-.482.472c-.046.046-.073.11-.073.177s.026.13.073.179l.027.028 4.779 4.777a1.82 1.82 0 0 0 2.572-.006 1.82 1.82 0 0 0-.002-2.567zM24.216.829l3.678 3.121h-3.678V.829zM4.587 33.285a1.9 1.9 0 0 1-1.89-1.889V5.948a1.89 1.89 0 0 1 1.89-1.89h14.926v3.729a.22.22 0 0 0 .22.221h4.292v5.526a.27.27 0 0 0 .255.277c.04-.004.127-.023.177-.07s.079-.11.081-.179V8.104c0-.294-.127-.573-.349-.766L20.156 3.82a1.11 1.11 0 0 0-.731-.274H6.968v-1.12a1.94 1.94 0 0 1 .386-1.177c.353-.462.909-.737 1.489-.737h14.86V4.24c0 .122.1.221.221.221h4.373v16.064l-.31-.121c-1.028-.403-2.116-.576-3.208-.509l-.241.014v-2.971c0-.141-.115-.256-.256-.256s-.257.115-.257.256v3.037l-.185.036c-.735.14-1.444.389-2.107.737l-.149.079-.119-.12c-.048-.049-.113-.076-.182-.076h-9.207c-.141 0-.256.115-.256.256s.115.256.256.256h8.941l-.507.405a7.48 7.48 0 0 0-2.724 4.694l-.03.192h-5.68c-.141 0-.256.116-.256.257s.115.256.256.256h5.632l-.008.235-.004.241c0 .258.013.52.039.776l.025.25h-5.683c-.141 0-.256.116-.256.257s.115.256.256.256h5.773l.04.177c.317 1.38 1.013 2.638 2.014 3.638l.531.509H4.587zm15.438-25.79V4.368l3.594 3.128h-3.594zm10.184 24.922a7.05 7.05 0 0 1-4.97 2.077 7.01 7.01 0 0 1-4.983-2.085c-1.328-1.337-2.055-3.112-2.048-4.997.007-1.871.739-3.631 2.06-4.956 1.063-1.058 2.463-1.763 3.946-1.986.338-.05.663-.09 1.023-.075 1.877 0 3.642.729 4.971 2.056a6.99 6.99 0 0 1 2.067 4.975c.004 1.858-.749 3.677-2.066 4.991h0zm.089.603l.501-.503.487.414-.54.539-.448-.45zm.156 1.466l1.848-1.847.743.743-1.848 1.848-.743-.744zm6.47 4.623c-.255.254-.59.381-.924.381s-.67-.127-.924-.381l-3.517-3.517 1.848-1.848 3.517 3.517a1.31 1.31 0 0 1 0 1.848z" fill="url(#K)"/><linearGradient id="L" gradientUnits="userSpaceOnUse" x1="39.103" y1="41.165" x2="-1.324" y2="1.095"><stop offset="0" stop-color="#1e85e9"/><stop offset=".203" stop-color="#8671f3"/><stop offset=".707" stop-color="#c06cfd" stop-opacity=".99"/><stop offset="1" stop-color="#ffbee8"/></linearGradient><path d="M29.484 23.181h0c-1.17-1.171-2.708-1.757-4.245-1.757s-3.074.586-4.244 1.755a6.01 6.01 0 0 0-.001 8.488c2.337 2.34 6.145 2.341 8.488.002a6.01 6.01 0 0 0 .002-8.488zm-.363 8.126a5.45 5.45 0 0 1-3.882 1.608h-.001c-1.467-.001-2.845-.572-3.882-1.609s-1.608-2.416-1.608-3.883a5.45 5.45 0 0 1 1.608-3.882c.829-.829 1.923-1.379 3.083-1.55.264-.039.529-.057.791-.057a5.5 5.5 0 0 1 5.499 5.48 5.45 5.45 0 0 1-1.608 3.893z" fill="url(#L)"/><defs /></svg>