<svg xmlns="http://www.w3.org/2000/svg" width="40" height="40"  xmlns:v="https://vecta.io/nano"><linearGradient id="A" gradientUnits="userSpaceOnUse" x1="40.289" y1="40.363" x2="-.235" y2="-.281"><stop offset="0" stop-color="#1e85e9"/><stop offset=".203" stop-color="#8671f3"/><stop offset=".707" stop-color="#c06cfd" stop-opacity=".99"/><stop offset="1" stop-color="#ffbee8"/></linearGradient><path d="M26.006 18.453l3.246-.649c.757-.152 1.308-.823 1.308-1.595v-1.857a1.63 1.63 0 0 0-1.308-1.595l-3.245-.649-.069-.214c-.193-.607-.438-1.196-.727-1.753l-.104-.201 1.835-2.754a1.63 1.63 0 0 0-.203-2.053l-1.314-1.314a1.63 1.63 0 0 0-2.052-.203l-2.754 1.837-.199-.105c-.559-.29-1.148-.534-1.753-.727l-.214-.068-.649-3.245A1.63 1.63 0 0 0 16.209 0h-1.858a1.63 1.63 0 0 0-1.595 1.308l-.649 3.246-.215.068c-.602.191-1.191.435-1.753.726l-.2.104-2.754-1.837a1.63 1.63 0 0 0-2.053.204L3.819 5.132a1.63 1.63 0 0 0-.203 2.053L5.452 9.94l-.104.2c-.29.559-.534 1.149-.726 1.753l-.068.214-3.246.649A1.63 1.63 0 0 0 0 14.351v1.858a1.63 1.63 0 0 0 1.308 1.595l3.245.649.068.215c.191.601.435 1.19.726 1.753l.104.2-1.836 2.754a1.63 1.63 0 0 0 .203 2.052l1.313 1.315c.547.544 1.409.63 2.053.202l2.754-1.835.201.104a11.21 11.21 0 0 0 1.753.727l.214.069.649 3.245c.152.757.823 1.308 1.595 1.308h1.858a1.63 1.63 0 0 0 1.595-1.308l.649-3.245.214-.069c.484-.154.956-.34 1.403-.553.13-.062.186-.218.124-.348s-.218-.186-.348-.124c-.542.258-1.111.471-1.689.632-.095.027-.166.104-.186.201l-.681 3.404c-.103.515-.558.888-1.082.888h-1.858c-.524 0-.98-.373-1.082-.888l-.681-3.405a.26.26 0 0 0-.187-.2 10.57 10.57 0 0 1-2.344-.971.26.26 0 0 0-.274.011L6.895 26.51a1.11 1.11 0 0 1-1.393-.138l-1.313-1.315c-.371-.369-.429-.955-.138-1.392l1.926-2.889c.055-.082.059-.187.01-.273a10.6 10.6 0 0 1-.972-2.345.26.26 0 0 0-.201-.186l-3.404-.681c-.514-.103-.887-.558-.887-1.082v-1.858c0-.524.373-.979.887-1.082l3.405-.681a.26.26 0 0 0 .201-.187c.229-.818.556-1.607.971-2.344.048-.086.044-.191-.011-.274L4.051 6.895c-.292-.437-.233-1.023.137-1.393l1.314-1.313a1.11 1.11 0 0 1 1.392-.139l2.89 1.927c.082.055.186.059.273.01.737-.416 1.526-.742 2.345-.972a.26.26 0 0 0 .186-.201l.681-3.405a1.11 1.11 0 0 1 1.083-.887h1.857c.524 0 .98.373 1.082.888l.681 3.404a.26.26 0 0 0 .186.201c.818.229 1.607.557 2.345.972a.26.26 0 0 0 .273-.01l2.889-1.926a1.11 1.11 0 0 1 1.392.138l1.314 1.314c.371.371.429.957.138 1.393l-1.926 2.889c-.056.082-.06.187-.011.273.416.737.742 1.526.972 2.346.026.096.104.167.201.186l3.404.681c.514.103.887.558.887 1.082v1.858c0 .523-.372.979-.886 1.082l-3.406.681c-.098.019-.174.09-.2.185-.167.596-.386 1.178-.652 1.73-.062.129-.007.286.123.349s.288.007.349-.123a11.1 11.1 0 0 0 .572-1.445l.07-.217z" fill="url(#A)"/><linearGradient id="B" gradientUnits="userSpaceOnUse" x1="42.647" y1="38.012" x2="2.123" y2="-2.633"><stop offset="0" stop-color="#1e85e9"/><stop offset=".203" stop-color="#8671f3"/><stop offset=".707" stop-color="#c06cfd" stop-opacity=".99"/><stop offset="1" stop-color="#ffbee8"/></linearGradient><path d="M21.382 18.403c.491-.959.75-2.039.75-3.123 0-3.778-3.074-6.853-6.853-6.853-1.798 0-3.496.691-4.783 1.946-.104.101-.105.267-.005.37.05.051.077.105.188.079a.26.26 0 0 0 .182-.074C12.05 9.588 13.62 8.95 15.28 8.95a6.34 6.34 0 0 1 6.33 6.33c0 1.017-.233 1.987-.694 2.884-.065.128-.014.286.113.352s.289.012.353-.113z" fill="url(#B)"/><linearGradient id="C" gradientUnits="userSpaceOnUse" x1="37.589" y1="43.055" x2="-2.935" y2="2.41"><stop offset="0" stop-color="#1e85e9"/><stop offset=".203" stop-color="#8671f3"/><stop offset=".707" stop-color="#c06cfd" stop-opacity=".99"/><stop offset="1" stop-color="#ffbee8"/></linearGradient><path d="M18.988 20.41c-1.083.784-2.365 1.199-3.708 1.199a6.34 6.34 0 0 1-6.33-6.33 6.31 6.31 0 0 1 .343-2.061c.022-.066.018-.137-.012-.2a.26.26 0 0 0-.15-.132c-.028-.009-.057-.014-.086-.014-.039 0-.078.009-.114.026-.063.031-.11.084-.133.15-.246.716-.371 1.466-.371 2.23 0 3.779 3.074 6.853 6.853 6.853a6.8 6.8 0 0 0 4.015-1.299c.117-.085.143-.249.059-.366s-.249-.141-.366-.056z" fill="url(#C)"/><linearGradient id="D" gradientUnits="userSpaceOnUse" x1="40.311" y1="40.342" x2="-.214" y2="-.303"><stop offset="0" stop-color="#1e85e9"/><stop offset=".203" stop-color="#8671f3"/><stop offset=".707" stop-color="#c06cfd" stop-opacity=".99"/><stop offset="1" stop-color="#ffbee8"/></linearGradient><path d="M40 30.48v-1.221c0-.55-.392-1.028-.932-1.136l-2.078-.416-.071-.21c-.107-.319-.238-.635-.388-.937l-.099-.198 1.175-1.764a1.16 1.16 0 0 0-.144-1.461l-.863-.865c-.388-.388-1.004-.448-1.462-.143l-1.764 1.175-.198-.099c-.302-.15-.617-.281-.937-.388l-.21-.071-.416-2.078a1.16 1.16 0 0 0-1.136-.932h-1.221c-.55 0-1.028.392-1.136.932l-.416 2.078-.21.071c-.319.107-.635.238-.937.388l-.198.099-1.764-1.175c-.458-.306-1.073-.247-1.461.144l-.863.863a1.16 1.16 0 0 0-.145 1.462l1.175 1.764-.099.198c-.207.415-.375.853-.5 1.3-.039.139.043.285.181.323a.24.24 0 0 0 .198-.024c.061-.035.104-.091.123-.157.148-.53.361-1.042.632-1.522a.26.26 0 0 0-.012-.274l-1.265-1.898a.64.64 0 0 1 .078-.801l.864-.865a.64.64 0 0 1 .802-.08l1.9 1.266c.082.056.187.059.273.011a6.85 6.85 0 0 1 1.521-.631.26.26 0 0 0 .187-.201l.447-2.236c.058-.295.319-.511.623-.511h1.221c.302 0 .563.214.623.51l.448 2.238a.26.26 0 0 0 .185.2 6.88 6.88 0 0 1 1.522.631.26.26 0 0 0 .274-.011l1.898-1.265c.251-.169.588-.133.801.078l.865.864a.64.64 0 0 1 .08.802l-1.266 1.9a.26.26 0 0 0-.011.273 6.85 6.85 0 0 1 .631 1.521.26.26 0 0 0 .201.187l2.236.447c.296.058.511.319.511.623v1.221c0 .302-.214.563-.509.623l-2.239.448a.26.26 0 0 0-.2.185 6.94 6.94 0 0 1-.63 1.522c-.05.087-.045.191.01.274l1.265 1.898a.64.64 0 0 1-.078.801l-.864.865c-.216.213-.553.244-.802.08l-1.899-1.267c-.082-.054-.186-.059-.275-.009-.477.269-.988.481-1.52.63a.26.26 0 0 0-.187.201l-.446 2.236a.64.64 0 0 1-.624.511h-1.221c-.302 0-.563-.214-.623-.509l-.448-2.239a.26.26 0 0 0-.185-.2c-.532-.149-1.044-.361-1.522-.631-.086-.048-.192-.046-.274.011l-1.898 1.265a.64.64 0 0 1-.803-.079l-.863-.863a.64.64 0 0 1-.08-.802l1.267-1.899c.055-.083.058-.188.009-.275-.269-.477-.481-.988-.63-1.52a.26.26 0 0 0-.201-.187l-2.236-.446a.64.64 0 0 1-.511-.624v-1.221c0-.302.214-.563.51-.623l.139-.028c.067-.013.126-.053.165-.111a.26.26 0 0 0 .039-.195c-.029-.141-.167-.238-.308-.205l-.139.027a1.16 1.16 0 0 0-.93 1.136v1.221c0 .55.392 1.028.932 1.136l2.078.416.071.21c.107.319.238.635.388.937l.099.198-1.175 1.764a1.16 1.16 0 0 0 .144 1.461l.864.864c.389.39 1.004.451 1.461.144l1.764-1.175.198.099c.302.15.617.281.937.388l.21.071.416 2.078a1.17 1.17 0 0 0 1.14.929h1.221c.55 0 1.028-.392 1.136-.932l.416-2.078.21-.071c.319-.107.635-.238.937-.388l.198-.099 1.764 1.175a1.16 1.16 0 0 0 1.462-.144l.863-.863a1.16 1.16 0 0 0 .144-1.462l-1.175-1.764.099-.198c.15-.302.281-.617.388-.937l.071-.21 2.078-.416c.537-.105.929-.583.929-1.133z" fill="url(#D)"/><path d="M33.091 29.87a3.23 3.23 0 0 0-3.222-3.223 3.23 3.23 0 0 0-3.223 3.223 3.23 3.23 0 0 0 3.223 3.222 3.19 3.19 0 0 0 1.968-.671.26.26 0 0 0 .048-.366c-.089-.113-.253-.135-.368-.048-.475.368-1.045.562-1.647.562-1.489 0-2.7-1.211-2.7-2.699s1.211-2.7 2.7-2.7 2.699 1.211 2.699 2.7c.001.286.522.288.522 0z" fill="url(#D)"/><path d="M15.28 11.741c-1.952 0-3.54 1.587-3.54 3.539s1.588 3.54 3.54 3.54 3.539-1.588 3.539-3.54-1.587-3.539-3.539-3.539zm0 6.555a3.02 3.02 0 0 1-3.017-3.017 3.02 3.02 0 0 1 3.017-3.016 3.02 3.02 0 0 1 3.016 3.016 3.02 3.02 0 0 1-3.016 3.017z" fill="url(#A)"/><defs /></svg>