<?xml version="1.0" encoding="UTF-8"?>
<svg width="160px" height="50px" viewBox="0 0 160 50" version="1.1" xmlns="http://www.w3.org/2000/svg" xmlns:xlink="http://www.w3.org/1999/xlink">
    <title>bd</title>
    <defs>
        <rect id="path-1" x="0" y="0" width="160" height="50"></rect>
    </defs>
    <g id="Page-1" stroke="none" stroke-width="1" fill="none" fill-rule="evenodd">
        <g id="a1qa-About-us-V1-2" transform="translate(-880.000000, -5831.000000)">
            <g id="9-block" transform="translate(375.000000, 5714.000000)">
                <g id="logo-3" transform="translate(480.000000, 97.000000)">
                    <g id="bd" transform="translate(25.000000, 20.000000)">
                        <mask id="mask-2" fill="white">
                            <use xlink:href="#path-1"></use>
                        </mask>
                        <use id="Mask" fill-opacity="0" fill="#D8D8D8" xlink:href="#path-1"></use>
                        <g mask="url(#mask-2)" fill-rule="nonzero">
                            <g transform="translate(28.000000, 4.000000)">
                                <path d="M39.0886766,16.0966126 C39.3317158,17.3205862 39.4600931,18.5851578 39.4600931,19.8804521 C39.4600931,30.5818548 30.784748,39.255554 20.0849912,39.255554 C9.3852344,39.255554 0.709889337,30.5813062 0.709889337,19.8804521 C0.709889337,18.5851578 0.836620806,17.3216834 1.08020856,16.0966126 L20.0844426,23.8963584 L39.0886766,16.0966126 Z M60.8546692,4.90309677 C67.9296866,4.90309677 71.1369254,8.39561853 71.1369254,12.7275305 C71.1369254,16.3067344 68.742743,18.3739386 67.1056577,19.1529806 L67.1056577,19.1529806 L67.1062063,19.1529806 L67.1062063,19.2939762 C68.6961102,19.8535697 72.055317,21.9997753 72.055317,26.8045987 C72.055317,32.9518979 66.8401251,35.413012 61.302344,35.413012 L61.302344,35.413012 L50.9443781,35.413012 L50.9443781,9.71340636 L47.796939,9.71340636 L47.796939,4.90309677 Z M85.8992212,4.90309677 C96.6884033,4.90309677 103.349212,10.6307008 103.349212,20.1580544 C103.349212,29.6870538 96.6895005,35.413012 85.8986726,35.413012 L85.8986726,35.413012 L78.4988716,35.413012 L78.4988716,9.71230911 L75.3497866,9.71230911 L75.3497866,4.90309677 Z M60.5589624,21.7759379 L56.7559211,21.7759379 L56.7559211,30.6043483 L60.5589624,30.6043483 C63.8550778,30.6043483 65.9573938,29.0698551 65.9573938,26.3662505 C65.9573938,23.4091829 63.9763231,21.7759379 60.5589624,21.7759379 L60.5589624,21.7759379 Z M87.1039931,9.71121187 L84.3104146,9.71121187 L84.3104146,30.6043483 L87.1050904,30.6043483 C93.5020121,30.6043483 97.1580229,26.568143 97.1580229,20.1580544 C97.1580229,13.7512575 93.5020121,9.71121187 87.1039931,9.71121187 L87.1039931,9.71121187 Z M60.5008086,9.71121187 L56.7559211,9.71121187 L56.7559211,17.2295151 L60.5008086,17.2295151 C62.9899024,17.2295151 65.0384535,15.9984094 65.0384535,13.5142532 C65.0384535,11.0482014 63.3766803,9.71121187 60.5008086,9.71121187 L60.5008086,9.71121187 Z M4.69342696,8.10868971 L12.6632453,16.4411466 L1.16359897,15.6911816 C1.77200703,12.9361186 2.97688751,10.3478915 4.69342696,8.10868971 L4.69342696,8.10868971 Z M35.4727151,8.10704385 C37.1894131,10.3463579 38.3948142,12.9344964 39.004189,15.6895357 L39.004189,15.6895357 L27.4875354,16.4175559 C27.4875354,16.4175559 29.5036915,14.3189426 31.613429,12.1231801 L32.4052121,11.2991245 C33.5882017,10.0679375 34.7247617,8.88517141 35.4727151,8.10704385 Z M11.4293965,2.54128304 L15.2022637,13.8736 L4.91013229,7.83163607 C6.67249768,5.61493615 8.89733449,3.80949128 11.4293965,2.54128304 L11.4293965,2.54128304 Z M28.736197,2.54073442 C31.2688667,3.80848104 33.4941545,5.61398804 35.2565584,7.83108745 L35.2565584,7.83108745 L24.9457739,13.8631762 Z M19.9258911,0.506447476 L18.4045649,12.6238412 L11.7229088,2.39754432 C14.2846633,1.17094554 17.0856836,0.525204704 19.9258911,0.506447476 L19.9258911,0.506447476 Z M20.2413482,0.506447476 C23.0814475,0.525078488 25.8824171,1.17043299 28.4443305,2.39644708 L21.7538965,12.6232925 L20.2413482,0.506447476 Z" id="Combined-Shape" fill="#000000"></path>
                                <path d="M1.07911132,16.0966126 L20.0833454,23.8963584 L39.0886766,16.0966126 L39.0047376,15.6895357 L27.488084,16.4175559 C27.488084,16.4175559 33.2294036,10.4414265 35.4738124,8.10704385 L35.2571071,7.83108745 L24.9457739,13.8631762 L28.736197,2.54073442 L28.4443305,2.39644708 L21.7538965,12.6232925 L20.2413482,0.506447476 L19.9258911,0.506447476 L18.4040162,12.6238412 L11.7229088,2.39754432 L11.4293965,2.54128304 L15.2022637,13.8736 L4.91013229,7.83218469 L4.69342696,8.10923833 L12.6632453,16.4416952 L1.16359897,15.6922788 L1.07911132,16.0966126 L1.07911132,16.0966126 Z" id="Path" fill="#FFFFFF"></path>
                                <path d="M28.7789894,25.1137486 C28.0871782,28.9156926 24.9600381,31.8683712 21.0719605,32.2962957 C22.2477658,31.881022 23.0343825,30.7700001 23.0354754,29.5230161 C23.0349267,27.8963546 21.7165903,26.5785668 20.0932205,26.5785668 C18.4698508,26.5785668 17.1493198,27.8963546 17.1493198,29.5252106 C17.1498632,30.771523 17.9362922,31.8820213 19.1117374,32.2962957 C15.2648065,31.8700171 12.1634515,28.9705547 11.4321396,25.2240214 L7.43104613,23.5084833 C7.5577776,30.3964209 13.1767546,35.9468229 20.0981581,35.9468229 C27.0535761,35.9512093 32.6966925,30.3525312 32.7756939,23.4141205 L28.7789894,25.1137486 L28.7789894,25.1137486 Z" id="Path" fill="#FFFFFF"></path>
                            </g>
                        </g>
                    </g>
                </g>
            </g>
        </g>
    </g>
</svg>