<svg xmlns="http://www.w3.org/2000/svg" xmlns:xlink="http://www.w3.org/1999/xlink" width="40" height="40" xmlns:v="https://vecta.io/nano"><linearGradient id="A" gradientUnits="userSpaceOnUse" x1="40.296" y1="39.773" x2=".59" y2="-.198"><stop offset="0" stop-color="#1e85e9"/><stop offset=".203" stop-color="#8671f3"/><stop offset=".707" stop-color="#c06cfd" stop-opacity=".99"/><stop offset="1" stop-color="#ffbee8"/></linearGradient><path d="M40 31.197V7.485a1.56 1.56 0 0 0-1.558-1.557h-6.346V2.216A1.56 1.56 0 0 0 30.538.658H9.461a1.56 1.56 0 0 0-1.558 1.558v3.712H1.558A1.56 1.56 0 0 0 0 7.485v23.712a1.56 1.56 0 0 0 1.558 1.559h14.25v3.471h-5.029a.24.24 0 0 0-.24.241v2.393H9.461a.24.24 0 1 0 0 .482h21.077c.132 0 .241-.108.241-.241s-.108-.241-.241-.241h-1.077v-2.393c0-.132-.108-.241-.241-.241h-5.028v-3.471h14.25A1.56 1.56 0 0 0 40 31.197zM8.384 2.216a1.08 1.08 0 0 1 1.077-1.077h21.077a1.08 1.08 0 0 1 1.076 1.077v3.952a1.08 1.08 0 0 1-1.076 1.077H9.461a1.08 1.08 0 0 1-1.077-1.077V2.216zm29.159 9.461v13.351H2.456V11.677h5.448v1.077c0 .4.153.781.429 1.072l.234.246-.234.246a1.55 1.55 0 0 0-.429 1.071v3.952a1.56 1.56 0 0 0 1.558 1.558h21.015c.921 0 1.62-.699 1.62-1.558v-3.952c0-.4-.153-.78-.43-1.071l-.234-.246.234-.246a1.55 1.55 0 0 0 .43-1.072v-1.077h5.446zm-5.447-.48V8.446l.354-.062h5.093v2.813h-5.447zm-29.64 0V8.384h5.468l-.019.374-.001 2.439H2.456zm7.005 3.115h21.077a1.08 1.08 0 0 1 1.076 1.077v3.952a1.08 1.08 0 0 1-1.076 1.077H9.461a1.08 1.08 0 0 1-1.077-1.077v-3.952a1.08 1.08 0 0 1 1.077-1.077zm22.154-1.557a1.08 1.08 0 0 1-1.076 1.077H9.461a1.08 1.08 0 0 1-1.077-1.077V8.803a1.08 1.08 0 0 1 1.077-1.077h21.077a1.08 1.08 0 0 1 1.076 1.077v3.952zM.48 7.485a1.08 1.08 0 0 1 1.077-1.077h6.344l.081.245c.071.217.193.42.351.587l.234.246-.339.356-.209.062H2.216a.24.24 0 0 0-.24.24v17.125c0 .132.108.241.24.241h35.567c.132 0 .241-.108.241-.241V8.144a.24.24 0 0 0-.241-.24h-5.969l-.311-.372.163-.293a1.56 1.56 0 0 0 .351-.586l.081-.245h6.344a1.08 1.08 0 0 1 1.076 1.077v19.519H.48V7.485zm28.5 29.222v2.153H11.018v-2.153H28.98zm-12.692-3.953h7.423v3.472h-7.423v-3.472zm-14.73-.481a1.08 1.08 0 0 1-1.077-1.076v-3.711H39.52v3.711a1.08 1.08 0 0 1-1.076 1.076H1.558z" fill="url(#A)"/><linearGradient id="B" gradientUnits="userSpaceOnUse" x1="35.027" y1="45.007" x2="-4.679" y2="5.036"><stop offset="0" stop-color="#1e85e9"/><stop offset=".203" stop-color="#8671f3"/><stop offset=".707" stop-color="#c06cfd" stop-opacity=".99"/><stop offset="1" stop-color="#ffbee8"/></linearGradient><path d="M20 28.651a1.23 1.23 0 0 0-1.228 1.229A1.23 1.23 0 0 0 20 31.109a1.23 1.23 0 0 0 1.229-1.229A1.23 1.23 0 0 0 20 28.651zm0 1.976a.75.75 0 0 1-.748-.747.75.75 0 0 1 .748-.747.75.75 0 0 1 .748.747.75.75 0 0 1-.748.747z" fill="url(#B)"/><linearGradient id="C" gradientUnits="userSpaceOnUse" x1="37.446" y1="42.604" x2="-2.259" y2="2.633"><stop offset="0" stop-color="#1e85e9"/><stop offset=".203" stop-color="#8671f3"/><stop offset=".707" stop-color="#c06cfd" stop-opacity=".99"/><stop offset="1" stop-color="#ffbee8"/></linearGradient><path d="M4.192 9.551a.24.24 0 1 0 0 .48h1.317a.24.24 0 1 0 0-.48H4.192z" fill="url(#C)"/><linearGradient id="D" gradientUnits="userSpaceOnUse" x1="52.015" y1="28.132" x2="12.309" y2="-11.839"><stop offset="0" stop-color="#1e85e9"/><stop offset=".203" stop-color="#8671f3"/><stop offset=".707" stop-color="#c06cfd" stop-opacity=".99"/><stop offset="1" stop-color="#ffbee8"/></linearGradient><path d="M28.234 2.964a1.23 1.23 0 0 0-1.23 1.229 1.23 1.23 0 0 0 1.23 1.228 1.23 1.23 0 0 0 1.229-1.228 1.23 1.23 0 0 0-1.229-1.229zm0 1.976a.75.75 0 0 1-.748-.748.75.75 0 0 1 .748-.748.75.75 0 0 1 .747.748.75.75 0 0 1-.747.748z" fill="url(#D)"/><linearGradient id="E" gradientUnits="userSpaceOnUse" x1="50.191" y1="29.943" x2="10.485" y2="-10.027"><stop offset="0" stop-color="#1e85e9"/><stop offset=".203" stop-color="#8671f3"/><stop offset=".707" stop-color="#c06cfd" stop-opacity=".99"/><stop offset="1" stop-color="#ffbee8"/></linearGradient><path d="M24.611 2.964a1.23 1.23 0 0 0-1.229 1.229 1.23 1.23 0 0 0 1.229 1.228 1.23 1.23 0 0 0 1.229-1.228 1.23 1.23 0 0 0-1.229-1.229zm0 1.976a.75.75 0 0 1-.747-.748.75.75 0 0 1 .747-.748.75.75 0 0 1 .747.748.75.75 0 0 1-.747.748z" fill="url(#E)"/><linearGradient id="F" gradientUnits="userSpaceOnUse" x1="45.545" y1="34.558" x2="5.84" y2="-5.412"><stop offset="0" stop-color="#1e85e9"/><stop offset=".203" stop-color="#8671f3"/><stop offset=".707" stop-color="#c06cfd" stop-opacity=".99"/><stop offset="1" stop-color="#ffbee8"/></linearGradient><use xlink:href="#T" fill="url(#F)"/><linearGradient id="G" gradientUnits="userSpaceOnUse" x1="44.228" y1="33.233" x2="4.522" y2="-6.738"><stop offset="0" stop-color="#1e85e9"/><stop offset=".203" stop-color="#8671f3"/><stop offset=".707" stop-color="#c06cfd" stop-opacity=".99"/><stop offset="1" stop-color="#ffbee8"/></linearGradient><use xlink:href="#T" y="2.634" fill="url(#G)"/><linearGradient id="H" gradientUnits="userSpaceOnUse" x1="48.534" y1="31.59" x2="8.828" y2="-8.381"><stop offset="0" stop-color="#1e85e9"/><stop offset=".203" stop-color="#8671f3"/><stop offset=".707" stop-color="#c06cfd" stop-opacity=".99"/><stop offset="1" stop-color="#ffbee8"/></linearGradient><use xlink:href="#U" fill="url(#H)"/><linearGradient id="I" gradientUnits="userSpaceOnUse" x1="48.721" y1="31.403" x2="9.015" y2="-8.567"><stop offset="0" stop-color="#1e85e9"/><stop offset=".203" stop-color="#8671f3"/><stop offset=".707" stop-color="#c06cfd" stop-opacity=".99"/><stop offset="1" stop-color="#ffbee8"/></linearGradient><path d="M28.234 9.551a1.23 1.23 0 0 0-1.23 1.228 1.23 1.23 0 0 0 1.23 1.228 1.23 1.23 0 0 0 1.229-1.228 1.23 1.23 0 0 0-1.229-1.228zm0 1.976a.75.75 0 0 1-.748-.748.75.75 0 0 1 .748-.748.75.75 0 0 1 .747.748.75.75 0 0 1-.747.748z" fill="url(#I)"/><linearGradient id="J" gradientUnits="userSpaceOnUse" x1="46.898" y1="33.215" x2="7.192" y2="-6.756"><stop offset="0" stop-color="#1e85e9"/><stop offset=".203" stop-color="#8671f3"/><stop offset=".707" stop-color="#c06cfd" stop-opacity=".99"/><stop offset="1" stop-color="#ffbee8"/></linearGradient><path d="M24.611 9.551a1.23 1.23 0 0 0-1.229 1.228 1.23 1.23 0 0 0 1.229 1.228 1.23 1.23 0 0 0 1.229-1.228 1.23 1.23 0 0 0-1.229-1.228zm0 1.976a.75.75 0 0 1-.747-.748.75.75 0 0 1 .747-.748.75.75 0 0 1 .747.748.75.75 0 0 1-.747.748z" fill="url(#J)"/><linearGradient id="K" gradientUnits="userSpaceOnUse" x1="42.252" y1="31.244" x2="2.546" y2="-8.727"><stop offset="0" stop-color="#1e85e9"/><stop offset=".203" stop-color="#8671f3"/><stop offset=".707" stop-color="#c06cfd" stop-opacity=".99"/><stop offset="1" stop-color="#ffbee8"/></linearGradient><use xlink:href="#T" y="6.586" fill="url(#K)"/><linearGradient id="L" gradientUnits="userSpaceOnUse" x1="40.935" y1="29.917" x2="1.229" y2="-10.053"><stop offset="0" stop-color="#1e85e9"/><stop offset=".203" stop-color="#8671f3"/><stop offset=".707" stop-color="#c06cfd" stop-opacity=".99"/><stop offset="1" stop-color="#ffbee8"/></linearGradient><use xlink:href="#T" y="9.221" fill="url(#L)"/><linearGradient id="M" gradientUnits="userSpaceOnUse" x1="45.24" y1="28.274" x2="5.535" y2="-11.696"><stop offset="0" stop-color="#1e85e9"/><stop offset=".203" stop-color="#8671f3"/><stop offset=".707" stop-color="#c06cfd" stop-opacity=".99"/><stop offset="1" stop-color="#ffbee8"/></linearGradient><use xlink:href="#U" y="6.587" fill="url(#M)"/><linearGradient id="N" gradientUnits="userSpaceOnUse" x1="45.428" y1="34.675" x2="5.722" y2="-5.296"><stop offset="0" stop-color="#1e85e9"/><stop offset=".203" stop-color="#8671f3"/><stop offset=".707" stop-color="#c06cfd" stop-opacity=".99"/><stop offset="1" stop-color="#ffbee8"/></linearGradient><path d="M28.234 16.137a1.23 1.23 0 0 0-1.23 1.228 1.23 1.23 0 0 0 1.23 1.229 1.23 1.23 0 0 0 1.229-1.229 1.23 1.23 0 0 0-1.229-1.228zm0 1.976a.75.75 0 0 1-.748-.748.75.75 0 0 1 .748-.748.75.75 0 0 1 .747.748.75.75 0 0 1-.747.748z" fill="url(#N)"/><linearGradient id="O" gradientUnits="userSpaceOnUse" x1="43.605" y1="36.486" x2="3.899" y2="-3.485"><stop offset="0" stop-color="#1e85e9"/><stop offset=".203" stop-color="#8671f3"/><stop offset=".707" stop-color="#c06cfd" stop-opacity=".99"/><stop offset="1" stop-color="#ffbee8"/></linearGradient><path d="M24.611 16.137a1.23 1.23 0 0 0-1.229 1.228 1.23 1.23 0 0 0 1.229 1.229 1.23 1.23 0 0 0 1.229-1.229 1.23 1.23 0 0 0-1.229-1.228zm0 1.976a.75.75 0 0 1-.747-.748.75.75 0 0 1 .747-.748.75.75 0 0 1 .747.748.75.75 0 0 1-.747.748z" fill="url(#O)"/><linearGradient id="P" gradientUnits="userSpaceOnUse" x1="38.959" y1="41.101" x2="-.747" y2="1.131"><stop offset="0" stop-color="#1e85e9"/><stop offset=".203" stop-color="#8671f3"/><stop offset=".707" stop-color="#c06cfd" stop-opacity=".99"/><stop offset="1" stop-color="#ffbee8"/></linearGradient><path d="M10.778 15.808a.24.24 0 0 0 0 .48h6.587a.24.24 0 1 0 0-.48h-6.587z" fill="url(#P)"/><linearGradient id="Q" gradientUnits="userSpaceOnUse" x1="37.642" y1="42.41" x2="-2.064" y2="2.439"><stop offset="0" stop-color="#1e85e9"/><stop offset=".203" stop-color="#8671f3"/><stop offset=".707" stop-color="#c06cfd" stop-opacity=".99"/><stop offset="1" stop-color="#ffbee8"/></linearGradient><path d="M10.778 18.442a.24.24 0 0 0 0 .48h6.587a.24.24 0 0 0 0-.48h-6.587z" fill="url(#Q)"/><linearGradient id="R" gradientUnits="userSpaceOnUse" x1="41.947" y1="38.133" x2="2.241" y2="-1.838"><stop offset="0" stop-color="#1e85e9"/><stop offset=".203" stop-color="#8671f3"/><stop offset=".707" stop-color="#c06cfd" stop-opacity=".99"/><stop offset="1" stop-color="#ffbee8"/></linearGradient><path d="M20.988 17.125a.24.24 0 0 0 0 .48h.659c.132 0 .241-.108.241-.24a.24.24 0 0 0-.241-.24h-.659z" fill="url(#R)"/><defs ><path id="T" d="M10.778 2.635a.24.24 0 1 0 0 .48h6.587a.24.24 0 1 0 0-.48h-6.587z"/><path id="U" d="M20.988 3.952a.24.24 0 1 0 0 .48h.659c.132 0 .241-.108.241-.24a.24.24 0 0 0-.241-.24h-.659z"/></defs></svg>