<svg xmlns="http://www.w3.org/2000/svg" width="88" height="108" viewBox="0 0 88 108">
  <path fill="#FFF" fill-rule="evenodd" d="M111.946999,127 C115.62718,127 118,129.582609 118,134.710045 C118,140.973613 115.985957,145 110.897848,145 C109.239864,145 108.242356,144.568216 107.962401,144.417091 C107.348131,144.117541 106.918686,143.534633 107.171461,142.797901 C107.503058,141.834483 108.397282,142.088156 109.033296,142.266267 C109.443715,142.393103 110.15855,142.568516 110.97667,142.568516 C113.890374,142.568516 115.295583,139.977811 115.347225,136.914843 C114.428539,138.129235 112.917327,138.787706 111.283805,138.787706 C107.986863,138.787706 106,136.407496 106,133.212294 C106,130.141229 107.937939,127 111.946999,127 Z M144.509708,127 C149.022402,127 151,130.726278 151,135.998651 C151,141.298006 149.022402,145 144.509708,145 C139.999787,145 138,141.298006 138,135.998651 C138,130.726278 139.999787,127 144.509708,127 Z M128.512481,127 C133.025176,127 135,130.726278 135,135.998651 C135,141.298006 133.025176,145 128.512481,145 C124.00256,145 122,141.298006 122,135.998651 C122,130.726278 124.00256,127 128.512481,127 Z M160.893928,127 C161.605161,127 162,127.539316 162,128.721977 L162,128.721977 L162,143.510722 C162,144.332015 161.581628,145 160.648134,145 C159.743404,145 159.35118,144.332015 159.35118,143.510722 L159.35118,143.510722 L159.35118,131.188593 L157.188717,133.400608 C156.720663,133.915285 155.9336,134.325932 155.345263,133.786616 C154.780461,133.271939 154.953039,132.395894 155.541376,131.779924 L155.541376,131.779924 L159.128919,128.029354 C159.620507,127.514677 160.062413,127 160.893928,127 Z M128.512481,129.433818 C125.930233,129.433818 124.837423,131.89192 124.837423,135.998651 C124.837423,140.10808 126.113292,142.566182 128.512481,142.566182 C130.914444,142.566182 132.165351,140.10808 132.165351,135.998651 C132.165351,131.89192 130.914444,129.433818 128.512481,129.433818 Z M144.509708,129.433818 C141.930233,129.433818 140.834649,131.89192 140.834649,135.998651 C140.834649,140.10808 142.110518,142.566182 144.509708,142.566182 C146.911671,142.566182 148.162577,140.10808 148.162577,135.998651 C148.162577,131.89192 146.911671,129.433818 144.509708,129.433818 Z M111.919819,129.431484 C109.851416,129.431484 108.780521,131.18021 108.780521,133.112444 C108.780521,134.961019 110.082446,136.331934 111.868177,136.331934 C113.458211,136.331934 115.192299,135.265967 115.192299,133.366117 C115.192299,131.509445 114.300793,129.431484 111.919819,129.431484 Z M121.697039,90 C122.152862,90.6036905 122.666697,91.6504565 123.03688,92.353839 C124.304894,92.0630707 130.976472,91.4012265 131.274828,91.2516885 C131.357705,90.9553817 131.321792,90.398768 131.609098,90.0166153 L131.609098,90.0166153 L132.534555,90.0304614 C132.607394,90.3503066 132.622929,90.5925059 132.626046,90.7769356 L132.626743,90.9837919 C132.628789,91.3796881 132.686496,91.3735343 133.84677,91.4289188 C136.714305,91.5701491 138.985128,92.1932241 141.065334,92.3676851 C142.424513,89.8726158 141.927253,90.0110769 143.432847,90.0304614 C143.233943,91.257227 142.562641,91.6919949 142.488052,92.7526071 L142.488052,92.7526071 L148.524241,94.7519856 C149.364059,94.1815258 151.604494,91.2904576 152.27027,90.0332307 L152.27027,90.0332307 L153.612874,90.0304614 C152.994061,92.0187631 150.281228,94.1538336 149.875132,95.4802911 C150.985681,95.8790591 152.339334,97.0587479 153.529997,97.346747 C154.518993,97.3052087 158.665592,92.6972226 159.557899,91.5701491 C160.375616,90.5289215 160.209862,89.925231 162,90.0636921 C161.439201,91.6255335 157.823012,95.3972144 156.726277,96.3525962 C155.626778,97.3135163 154.844974,98.0473603 153.593536,98.9972035 C152.529951,99.8085857 151.430453,100.475968 150.181776,101.204274 C136.247433,109.348557 118.683089,106.717796 107.177034,96.3525962 C106.28749,95.5495217 102.383996,91.5092262 102,90.024923 C103.707261,90.0027692 103.011096,89.8726158 104.439339,91.6587642 C105.547125,93.0433754 109.442332,97.2304396 110.378839,97.4353621 C111.215894,97.3107471 113.470141,95.964905 114.113817,95.4276759 C113.508817,94.2286026 110.630232,91.4870724 110.376076,90.0166153 L110.376076,90.0166153 L111.494912,90.0083077 C112.79884,91.481534 113.555781,93.1347597 115.384594,94.7686009 C115.7704,94.752845 117.083764,94.3125683 118.445807,93.8394121 L118.991137,93.6493244 C120.078657,93.2693551 121.122332,92.9017631 121.672176,92.7470686 L121.672176,92.7470686 L120.65003,90 Z M132.128459,101.508888 C129.169759,101.492273 125.990055,102.342424 124.407109,103.799035 C126.230397,104.987032 138.037571,105.06457 139.675768,103.779651 C138.482343,102.411655 134.636862,101.525504 132.128459,101.508888 Z M115.210553,96.5519802 C114.564114,96.6821336 113.970164,97.0504402 113.417653,97.3661315 L112.066762,98.243975 C112.044661,98.2661288 112.00046,98.3159748 111.986648,98.3381286 C111.964547,98.3547439 111.925871,98.3990515 111.898246,98.4350514 C112.782264,99.4319714 115.669138,100.835967 117.174732,101.553196 C118.042175,101.963041 119.122335,102.378424 120.105806,102.724577 C121.451172,103.181499 122.362816,103.738112 123.299323,102.774423 C122.901515,102.21504 121.909756,101.738734 121.238455,101.28735 C118.691376,99.5704326 115.688476,96.8676715 115.210553,96.5519802 Z M148.698283,96.4993649 C148.161397,96.9043637 147.743824,97.2681811 147.341084,97.6349899 L147.073641,97.8804571 C146.137256,98.7445363 145.155215,99.6783457 142.800221,101.243043 C141.767024,101.932579 140.979695,102.203963 140.71449,102.774423 C141.753211,103.724266 142.424513,103.200883 143.811317,102.727346 C145.739583,102.07381 147.933054,101.057505 149.695566,100.068893 C150.424881,99.6618169 151.770247,98.9501267 152.198444,98.2218213 C151.212211,97.7870533 149.958009,96.7042874 148.698283,96.4993649 Z M122.329665,93.9267573 C121.199779,94.0873722 118.53391,94.967985 117.379161,95.5135218 C117.307335,95.5467524 117.136056,95.6325983 117.028316,95.6935212 C116.818362,95.8181362 116.818362,95.8264439 116.688522,95.9261359 C117.102905,96.8372101 123.636355,102.176271 125.310465,101.730426 L126.840923,100.941198 C126.576753,100.359661 125.371587,98.695315 124.197985,96.9474056 L123.847825,96.4215252 C123.269043,95.5442104 122.722467,94.6709859 122.329665,93.9267573 Z M141.79465,93.9710649 L139.603941,97.4796697 C138.95474,98.4959743 137.631475,100.046739 137.247479,100.941198 L138.639808,101.675042 C139.742069,102.023964 141.982504,100.312584 142.800221,99.7476628 C144.076523,98.8670501 146.720291,96.8676715 147.322529,95.765521 C145.955062,95.2089073 143.435609,94.0790646 141.79465,93.9710649 Z M132.703071,92.7830685 L132.642295,95.0953692 C132.642295,96.1919813 132.512455,99.3876639 132.816336,100.140892 L135.741885,100.61166 C136.714305,99.5122789 139.965836,94.9901387 140.344307,93.6415274 C139.30006,93.1569135 134.0954,92.5504538 132.703071,92.7830685 Z M131.310742,92.7055303 C129.622819,92.6972226 124.832543,93.0572215 123.73857,93.6415274 C124.241355,94.9347543 125.771813,97.1362861 126.520466,98.1830521 C128.421106,100.82766 128.194576,100.628276 129.539942,100.428892 C130.155992,100.343046 130.783093,100.273815 131.34113,100.174123 L131.310742,92.7055303 Z M96.9814827,56.0004553 C100.869715,56.0076736 105.602698,56.0983794 108.107487,56.1041047 L108.577825,56.1040668 C108.971175,56.1040668 109.394573,56.0872282 109.782459,56.0900347 L109.782459,56.0900347 L110.771297,56.2668394 C111.175574,57.0582513 110.926998,62.292234 110.896951,63.6814144 L110.896951,63.6814144 L106.370695,63.751575 L106.335184,79.5854251 C107.575329,79.6555857 109.637685,79.8716804 110.733055,79.5545544 C110.89469,80.0061953 110.950933,81.2310179 110.958133,82.5876504 L110.958179,83.2208123 C110.951118,84.7091296 110.897233,86.2358782 110.866903,87 L110.866903,87 L91.0300476,86.9466779 L91.1038007,79.9109704 C91.7114292,79.5289847 91.7192193,79.6189636 91.6952457,79.6778176 L91.6846828,79.6996685 C91.6816177,79.7053391 91.6795606,79.7089078 91.6801676,79.7089078 L91.6801676,79.7089078 L93.3874156,79.6611985 C94.0539252,79.6527793 94.7969195,79.6611985 95.4579659,79.6162957 C95.5755141,79.1861306 95.6269931,76.5277386 95.6313947,73.514094 L95.6315569,72.7849574 C95.6274644,68.6254001 95.5391078,64.0859076 95.4142604,63.8778641 C94.6494133,63.4176104 92.1226863,63.7066722 91,63.6140602 L91,63.6140602 L91.1119955,56.1658081 C91.8319001,56.0504799 93.6302962,56.0076612 95.8434283,56.0009629 Z M116.013892,71.772318 C109.741679,66.3347837 113.240389,54.9312172 126.687172,56.0808362 C128.253841,56.2143227 129.892478,56.5139864 131.290301,56.9280672 C132.51651,57.2903879 134.520518,58.4100405 135.237421,58.4972154 L135.237421,58.4972154 L135.303853,56.8844798 C136.447023,56.7264753 140.900682,56.6147824 141.916525,56.887204 L141.916525,56.887204 L141.958045,67.0675977 L135.572345,67.0539766 C134.946785,66.8414878 134.323992,64.7247723 130.136059,63.4416667 C128.168034,62.8396151 124.137875,61.9215544 122.778803,63.7059156 C122.150474,65.3431692 126.565381,66.0269473 128.558318,66.5881357 C130.864034,67.2419475 133.081175,67.8276538 135.378588,68.4923624 C139.386604,69.6474299 143.076303,73.1889101 142.9988,77.8391462 C142.832722,86.8671967 131.309677,88.6324884 123.335164,85.6903355 C122.244585,85.2898759 121.375444,84.6060977 120.34576,84.3636425 L120.34576,84.3636425 L120.149234,86.3250778 C118.892577,86.3632168 114.306056,86.5076002 113.32066,86.2569724 L113.32066,86.2569724 L113.389859,75.4173185 L119.606713,75.4036974 C121.16231,77.7574197 123.182926,79.1794603 126.252601,79.7978572 C127.963205,80.1438326 129.734703,80.1302115 131.437003,79.8414446 C133.612625,79.4736755 134.016748,78.2995386 131.9989,77.6184847 C126.911377,75.8940562 119.393579,74.703574 116.013892,71.772318 Z M159.470957,56.101993 C164.016276,55.5993957 170.041332,57.0121017 173.118384,59.0686757 C176.568238,61.3697565 178.320408,64.2576537 178.899685,69.5172669 C179.392931,74.0487932 178.036504,79.3953422 175.507185,81.981681 C168.036804,89.6293108 150.684297,88.2709396 145.895223,79.7104844 C144.871451,77.8766832 144.246291,75.9016115 144.077096,73.5380457 C143.325756,63.0432698 148.037402,57.3625615 159.470957,56.101993 Z M160.314064,63.6083522 C158.037103,63.9397948 157.010463,64.6407143 156.543026,66.6103526 C155.969485,69.0228198 155.69992,76.1406849 157.386133,78.047838 C158.366889,79.1589857 160.649585,79.7376518 162.851986,79.4225097 C166.95962,78.8329766 166.891243,75.4208755 166.794598,71.8070138 L166.782905,71.36367 L166.782905,71.36367 L166.772621,70.9193786 C166.768114,70.6971743 166.76477,70.4750156 166.763541,70.2535041 C166.754938,68.4495872 166.947074,66.1349227 165.728298,64.8499035 C164.670113,63.7441894 162.456242,63.2932101 160.314064,63.6083522 Z M132.61432,37.0135704 C141.305361,36.7212885 151.373685,41.1890265 156.956311,46.6839267 C158.009688,47.7166562 161.782248,51.7223104 162,52.8747363 C160.287922,53.0334036 160.388633,52.3903834 159.561174,51.3270339 C158.423418,49.860057 154.443993,45.5676881 153.534877,45.5203663 C152.707418,45.7848118 150.562558,47.0179632 150.056283,47.541287 C150.440072,48.5461802 153.529433,51.4133267 153.75263,52.9164909 C152.397121,52.9777309 152.655702,53.0751582 151.983392,52.0925342 C151.621378,51.5664267 151.313803,51.1739339 150.976287,50.7369028 C150.453681,50.0576953 149.2506,48.8106257 148.872255,48.14812 L148.872255,48.14812 L142.669035,50.274819 L143.681583,52.9109236 C142.459448,53.0139182 142.562881,53.0528891 142.097435,52.1203706 C141.838854,51.5914795 141.615658,51.1460975 141.289029,50.7062828 C140.529618,50.6366918 137.750554,51.2351739 136.675401,51.3520867 C131.019284,51.986756 134.024266,51.2296066 132.95728,52.9331927 L132.95728,52.9331927 L131.906625,52.9304091 L131.762364,51.5914795 C130.303423,51.449514 128.942471,51.4355958 127.510749,51.2602266 C126.381159,51.1238284 124.432275,50.6589609 123.45239,50.7146337 L123.45239,50.7146337 L122.407178,52.93876 L121.193209,52.93876 C121.39463,51.9450014 122.058775,51.2073375 122.105047,50.2191462 C120.13711,49.6596351 118.095682,48.7326839 116.291059,48.2706 C115.403718,48.8997021 113.699806,51.1433139 113.008443,52.1899615 C112.450452,53.0389709 112.545719,52.9916491 111.269146,53 C111.633881,51.5831286 114.086317,48.8440294 114.894722,47.7083053 C114.437442,47.1710633 112.2327,45.9239937 111.358968,45.6289281 C109.671388,46.4612357 106.611967,49.8210861 105.403442,51.3994085 C104.652196,52.3764652 104.660362,53.0083509 103,52.9304091 C103.430061,51.4745667 107.224396,47.4633452 108.193394,46.5920667 C110.17494,44.8049715 112.050332,43.2628364 114.690579,41.7652394 C119.971074,38.7700456 125.31145,37.2613141 132.61432,37.0135704 Z M126.996309,44.8439424 C126.304946,45.8070809 124.663637,48.1954418 124.266239,49.3951896 C126.049087,49.8878934 128.730162,50.274819 130.744372,50.2803863 L131.778695,50.2358481 C131.800471,48.9191876 132.004613,43.7277038 131.667097,42.7812671 C128.51241,42.3943415 129.160223,41.8236958 126.996309,44.8439424 Z M136.07386,42.4862015 L133.196808,42.850858 L133.150535,50.1913099 C134.808175,50.4891591 139.067955,49.8127352 140.556837,49.3506514 C140.026066,47.894809 138.289491,45.4758281 137.285108,44.1062785 C136.865935,43.5439837 136.386879,43.0206599 136.07386,42.4862015 Z M121.968952,43.2433509 C121.212262,43.7833765 117.76361,46.2691648 117.456034,47.2072506 C118.278049,47.8085162 121.658655,48.9748603 122.899843,49.0193985 C123.730024,47.4522106 127.276665,42.3052651 127.331104,42.0018486 C125.485652,40.601679 124.217245,41.6566776 121.968952,43.2433509 Z M137.491973,41.9378249 L142.140985,49.008264 C143.33318,48.715982 146.825383,47.7166562 147.533078,47.0374487 C146.525973,45.4507754 142.366903,42.7033252 140.499677,41.6093557 C139.040736,40.7547791 138.929138,41.4312029 137.491973,41.9378249 Z M120.972735,40.2398061 C119.203497,40.88561 113.555545,43.32686 112.703589,44.6852751 C113.329627,45.4285063 114.829397,46.2023575 115.950821,46.5336103 L119.802316,43.2878891 C120.689657,42.5891961 123.479609,40.8410718 123.931445,40.317748 C123.033216,39.204293 122.360906,39.7304005 120.972735,40.2398061 Z M140.954235,40.1228934 C141.169266,40.5988954 144.024543,42.3052651 145.072476,43.134789 C145.818278,43.7137856 146.351772,44.1591676 147.043135,44.7186787 C147.729055,45.2809735 148.262548,46.0381228 148.943025,46.4222648 C149.539122,46.2942175 151.692148,45.0722007 152.190257,44.6852751 C151.997001,44.1730858 152.31002,44.5767132 151.727533,44.1146294 C150.09439,42.820238 146.112244,40.9524173 144.073538,40.2592916 C142.644538,39.7749387 142.029387,39.3072876 140.954235,40.1228934 Z M125.746955,38.9231456 C125.695239,38.9370638 125.469321,38.9983038 125.379498,39.042842 C124.99571,39.2293458 125.186243,39.1012984 124.949437,39.3601767 C127.548856,40.6155972 128.51241,41.5481157 132.445562,41.523063 C134.876223,41.5035775 138.896475,40.5794099 139.925355,39.1291348 C135.981316,38.2439381 129.9278,37.8987671 125.746955,38.9231456 Z" transform="translate(-91 -37)"/>
</svg>
