<svg xmlns="http://www.w3.org/2000/svg" width="87" height="108" viewBox="0 0 87 108">
  <path fill="#FFF" fill-rule="evenodd" d="M107.465122,127 C110.966341,127 112.554634,128.949202 112.554634,131.59924 C112.554634,134.500303 110.615909,136.028126 108.663659,137.471626 L108.195845,137.817107 C106.486802,139.082774 104.886556,140.362992 104.707073,142.536122 L104.707073,142.536122 L111.658537,142.536122 C112.433902,142.536122 113,142.922129 113,143.768061 C113,144.564715 112.433902,145 111.658537,145 L111.658537,145 L103.518537,145 C102.450732,145 102,144.307376 102,143.406692 C102,136.513308 109.850244,135.869962 109.850244,131.727909 C109.850244,130.597262 109.056098,129.592548 107.266585,129.592548 C106.346341,129.592548 105.353659,129.874525 104.261707,130.389202 C103.564146,130.725932 102.820976,130.906616 102.426585,130.26327 C102.101951,129.748593 102.152927,128.976578 102.896098,128.409886 C104.13561,127.462662 106.021707,127 107.465122,127 Z M134.512665,127 C139.021433,127 141,130.726278 141,135.998651 C141,141.298006 139.021433,145 134.512665,145 C130.003897,145 128,141.298006 128,135.998651 C128,130.726278 130.003897,127 134.512665,127 Z M150.51548,127 C155.018619,127 157,130.726278 157,135.998651 C157,141.298006 155.018619,145 150.51548,145 C146.006711,145 144,141.298006 144,135.998651 C144,130.726278 146.006711,127 150.51548,127 Z M166.898465,127 C167.612472,127 168,127.539316 168,128.721977 L168,128.721977 L168,143.510722 C168,144.332015 167.585929,145 166.648961,145 C165.746499,145 165.353662,144.332015 165.353662,143.510722 L165.353662,143.510722 L165.353662,131.191331 L163.187753,133.400608 C162.72325,133.915285 161.937577,134.325932 161.345668,133.786616 C160.780302,133.277414 160.952831,132.401369 161.542086,131.782662 L161.542086,131.782662 L165.128046,128.029354 C165.619092,127.514677 166.065015,127 166.898465,127 Z M124.590027,127 C125.924451,127 126.309835,128.018458 125.754044,129.369927 L125.754044,129.369927 L119.781905,143.683844 C119.3939,144.624599 118.811892,145.27397 117.865473,144.885458 C117.162868,144.596848 116.942649,143.73657 117.380466,142.693136 L117.380466,142.693136 L122.864976,129.761215 L116.431426,129.761215 C115.487629,129.761215 115,129.239498 115,128.381995 C115,127.496741 115.487629,127 116.431426,127 L116.431426,127 Z M134.512665,129.433818 C131.931803,129.433818 130.836978,131.89192 130.836978,135.998651 C130.836978,140.10808 132.117558,142.566182 134.512665,142.566182 C136.910587,142.566182 138.163022,140.10808 138.163022,135.998651 C138.163022,131.89192 136.910587,129.433818 134.512665,129.433818 Z M150.51548,129.433818 C147.931803,129.433818 146.839792,131.89192 146.839792,135.998651 C146.839792,140.10808 148.111929,142.566182 150.51548,142.566182 C152.910587,142.566182 154.165837,140.10808 154.165837,135.998651 C154.165837,131.89192 152.910587,129.433818 150.51548,129.433818 Z M121.697039,90 C122.150099,90.6036905 122.666697,91.6504565 123.03688,92.353839 C124.304894,92.0630707 130.976472,91.4012265 131.274828,91.2516885 C131.357705,90.9553817 131.324555,90.398768 131.609098,90.0166153 L131.609098,90.0166153 L132.534555,90.0304614 C132.607394,90.3503066 132.622929,90.5925059 132.626046,90.7769356 L132.626743,90.9837919 C132.628789,91.3796881 132.686496,91.3735343 133.84677,91.4289188 C136.714305,91.5701491 138.985128,92.1932241 141.065334,92.3676851 C142.424513,89.8726158 141.92449,90.0110769 143.430084,90.0304614 C143.233943,91.257227 142.562641,91.6919949 142.490814,92.7526071 L142.490814,92.7526071 L148.524241,94.7519856 C149.364059,94.1815258 151.604494,91.2904576 152.27027,90.0332307 L152.27027,90.0332307 L153.612874,90.0304614 C152.994061,92.0187631 150.281228,94.1538336 149.87237,95.4802911 C150.985681,95.8790591 152.339334,97.0587479 153.529997,97.346747 C154.521755,97.3052087 158.665592,92.6972226 159.555136,91.5701491 C160.372853,90.5289215 160.209862,89.925231 162,90.0636921 C161.439201,91.6255335 157.82025,95.3972144 156.726277,96.3525962 C155.626778,97.3135163 154.844974,98.0473603 153.593536,98.9972035 C152.529951,99.8085857 151.433215,100.475968 150.181776,101.204274 C136.247433,109.348557 118.680326,106.717796 107.177034,96.3525962 C106.28749,95.5495217 102.383996,91.5092262 102,90.024923 C103.707261,90.0027692 103.011096,89.8726158 104.439339,91.6587642 C105.547125,93.0433754 109.442332,97.2304396 110.378839,97.4353621 C111.215894,97.3107471 113.470141,95.964905 114.113817,95.4276759 C113.506055,94.2286026 110.630232,91.4870724 110.373314,90.0166153 L110.373314,90.0166153 L111.494912,90.0083077 C112.796077,91.481534 113.555781,93.1347597 115.384594,94.7686009 C116.127722,94.7381395 120.343386,93.1209136 121.669414,92.7470686 L121.669414,92.7470686 L120.65003,90 Z M132.125696,101.508888 C129.169759,101.492273 125.987292,102.342424 124.404346,103.799035 C126.230397,104.987032 138.037571,105.06457 139.67853,103.779651 C138.482343,102.411655 134.636862,101.525504 132.125696,101.508888 Z M115.210553,96.5519802 C114.564114,96.6821336 113.970164,97.0504402 113.417653,97.3661315 L112.066762,98.243975 C112.044661,98.2661288 112.00046,98.3159748 111.983885,98.3381286 C111.961785,98.3547439 111.923109,98.3990515 111.898246,98.4350514 C112.782264,99.4319714 115.669138,100.835967 117.174732,101.553196 C118.042175,101.963041 119.122335,102.378424 120.103043,102.724577 C121.451172,103.181499 122.362816,103.738112 123.296561,102.774423 C122.898752,102.21504 121.909756,101.738734 121.238455,101.28735 C118.691376,99.5704326 115.688476,96.8676715 115.210553,96.5519802 Z M148.698283,96.4993649 C148.161397,96.9043637 147.743824,97.2681811 147.341084,97.6349899 L147.073641,97.8804571 C146.137256,98.7445363 145.155215,99.6783457 142.800221,101.243043 C141.767024,101.932579 140.979695,102.203963 140.71449,102.774423 C141.753211,103.724266 142.424513,103.200883 143.81408,102.727346 C145.73682,102.07381 147.930291,101.057505 149.698329,100.068893 C150.424881,99.6618169 151.770247,98.9501267 152.195681,98.2218213 C151.212211,97.7870533 149.958009,96.7042874 148.698283,96.4993649 Z M122.329665,93.9267573 C121.199779,94.0873722 118.53391,94.967985 117.379161,95.5135218 C117.304572,95.5467524 117.136056,95.6325983 117.028316,95.6935212 C116.818362,95.8181362 116.818362,95.8264439 116.688522,95.9261359 C117.102905,96.8372101 123.636355,102.176271 125.310465,101.730426 L126.840923,100.941198 C126.576753,100.359661 125.371587,98.695315 124.197985,96.9474056 L123.847825,96.4215252 C123.269043,95.5442104 122.722467,94.6709859 122.329665,93.9267573 Z M141.79465,93.9710649 L139.603941,97.4796697 C138.95474,98.4959743 137.631475,100.046739 137.247479,100.941198 L138.637046,101.675042 C139.742069,102.023964 141.982504,100.312584 142.800221,99.7476628 C144.076523,98.8670501 146.720291,96.8676715 147.319766,95.765521 C145.9523,95.2089073 143.435609,94.0790646 141.79465,93.9710649 Z M132.703071,92.7830685 L132.642295,95.0953692 C132.642295,96.1919813 132.512455,99.3876639 132.816336,100.140892 L135.739122,100.61166 C136.714305,99.5122789 139.965836,94.9901387 140.341544,93.6415274 C139.30006,93.1569135 134.0954,92.5504538 132.703071,92.7830685 Z M131.310742,92.7055303 C129.622819,92.6972226 124.832543,93.0572215 123.73857,93.6415274 C124.241355,94.9347543 125.771813,97.1362861 126.520466,98.1830521 C128.421106,100.82766 128.194576,100.628276 129.539942,100.428892 C130.155992,100.343046 130.783093,100.273815 131.34113,100.174123 L131.310742,92.7055303 Z M159.029912,56.1052831 C163.44235,55.586473 169.297745,57.0447502 172.286726,59.1676653 C175.637839,61.5429745 177.339859,64.5240296 177.902556,69.9533078 C178.381684,74.6310124 177.064081,80.1500307 174.607156,82.8197997 C167.350589,90.7141273 150.491956,89.3119377 145.84274,80.4753387 C144.84827,78.5823827 144.241003,76.543599 144.073865,74.1037891 C143.349601,63.2704721 147.923606,57.4065151 159.029912,56.1052831 Z M116.014161,71.772318 C109.741388,66.3347837 113.240411,54.9312172 126.688396,56.0808362 C128.255205,56.2143227 129.893988,56.5139864 131.291936,56.9280672 C132.518255,57.2903879 134.519674,58.4100405 135.239409,58.4972154 L135.239409,58.4972154 L135.305846,56.8844798 C136.449119,56.7264753 140.900407,56.6147824 141.921878,56.887204 L141.921878,56.887204 L141.957865,67.0675977 L135.574363,67.0539766 C134.948747,66.8414878 134.325899,64.7247723 130.13759,63.4416667 C128.16939,62.8396151 124.13887,61.9215544 122.782445,63.7059156 C122.151292,65.3431692 126.566594,66.0269473 128.559708,66.5881357 C130.865631,67.2419475 133.08297,67.8276538 135.37782,68.4923624 C139.388962,69.6474299 143.078992,73.1889101 142.998714,77.8391462 C142.835389,86.8671967 131.314082,88.6324884 123.336088,85.6903355 C122.242643,85.2898759 121.376192,84.6060977 120.346417,84.3636425 L120.346417,84.3636425 L120.149873,86.3250778 C118.893104,86.3632168 114.306173,86.5076002 113.320689,86.2569724 L113.320689,86.2569724 L113.389894,75.4173185 L119.607303,75.4036974 C121.165808,77.7574197 123.183836,79.1794603 126.253786,79.7978572 C127.96731,80.1438326 129.736199,80.1302115 131.438651,79.8414446 C133.614468,79.4736755 134.015859,78.2995386 132.000599,77.6184847 C130.445939,77.091576 128.664358,76.6145188 126.843255,76.1224199 L125.847134,75.8521206 C122.022278,74.8072645 118.173599,73.6450649 116.014161,71.772318 Z M96.9814844,55.0004406 C97.8889617,55.0020705 98.8424068,55.0080993 99.8027843,55.0164557 L101.038302,55.0283192 C104.052773,55.0596571 106.970473,55.1052192 108.579597,55.1007098 C108.972987,55.1007098 109.396427,55.0844144 109.784353,55.0871303 L109.784353,55.0871303 L110.773291,55.2582317 C111.174876,56.0241141 110.926275,61.0892587 110.898957,62.4336268 L110.898957,62.4336268 L106.372245,62.5015242 L106.33673,77.8246049 C107.577,77.8925023 109.639564,78.1016262 110.735044,77.79473 C110.895471,78.2318019 110.951593,79.4171141 110.959027,80.7299843 L110.959203,81.3427216 C110.952493,82.7830286 110.899239,84.2605273 110.868906,85 L110.868906,85 L91.0300506,84.948398 L91.1010793,78.1396487 C91.8851266,77.6643671 91.6775043,77.9441043 91.6802362,77.9441043 L91.6802362,77.9441043 L93.3876562,77.8979341 C94.0542331,77.8897864 94.7973023,77.8979341 95.4584153,77.8544797 C95.7452619,76.8387349 95.6387189,62.9849535 95.4147054,62.6237395 C94.6497812,62.1783327 92.1200676,62.4580699 91,62.3684453 L91,62.3684453 L91.1092749,55.1604595 C91.8301799,55.0488516 93.62937,55.0074141 95.8431298,55.0009318 Z M159.851673,63.853783 C157.639883,64.1959172 156.639842,64.9194471 156.185784,66.952622 C155.628658,69.4429108 155.366809,76.7903844 157.004759,78.7590586 C157.957445,79.9060497 160.174806,80.5033825 162.31417,80.1780745 C166.045142,79.6090405 166.229339,76.4924944 166.162302,73.0402509 L166.152164,72.5781566 C166.137433,71.9598963 166.119392,71.3341331 166.116555,70.7132946 C166.108198,68.8511868 166.294836,66.4618556 165.105372,65.1353843 C164.083045,63.9940019 161.929753,63.528475 159.851673,63.853783 Z M132.116258,37.0127222 C140.954604,36.7387079 151.193578,40.9272123 156.870825,46.0786813 C157.942056,47.0468652 161.778557,50.802166 162,51.8825653 C160.256136,52.0313159 160.361321,51.4284844 159.519838,50.4315943 C158.362798,49.0563034 154.315925,45.0322076 153.391401,44.9878434 C152.549917,45.2357611 150.368703,46.3918405 149.85108,46.8824566 C150.244141,47.8245439 153.385865,50.5124938 153.612844,51.9217102 C152.234361,51.9791227 152.497324,52.0704608 151.810851,51.1492508 C151.442702,50.6560251 151.132681,50.288063 150.789445,49.8783464 C150.257981,49.2415893 149.03174,48.0724616 148.649751,47.4513625 L148.649751,47.4513625 L142.338623,49.4451428 L143.37387,51.9164909 C142.128252,52.0130483 142.23067,52.0495835 141.760103,51.1753474 C141.49714,50.679512 141.270161,50.2619664 140.937996,49.8496401 C140.162945,49.7843986 137.339546,50.3454755 136.246171,50.4550812 C130.494187,51.0500837 133.550101,50.3402562 132.46503,51.9373682 L132.46503,51.9373682 L131.396568,51.9347585 L131.247094,50.679512 C129.766193,50.5464193 128.382174,50.533371 126.926186,50.3689625 C125.77745,50.2410891 123.795534,49.8052759 122.79904,49.8574691 L122.79904,49.8574691 L121.738882,51.9425875 L120.501569,51.9425875 C120.703635,51.0109388 121.381805,50.3193789 121.428861,49.3929496 C119.42757,48.8684079 117.351541,47.9993911 115.516331,47.5661875 C114.613951,48.1559707 112.881159,50.2593567 112.178077,51.2405889 C111.610629,52.0365352 111.704743,51.992171 110.409301,52 C110.780218,50.671683 113.27422,48.1037775 114.09356,47.0390362 C113.631297,46.5353718 111.389186,45.3662441 110.500646,45.0896201 C108.784462,45.8699085 105.673187,49.0197682 104.444178,50.4994455 C103.677431,51.4154361 103.688503,52.007829 102,51.9347585 C102.43735,50.5699063 106.295996,46.8093861 107.281417,45.9925625 C109.296549,44.3171608 111.203728,42.8714091 113.885957,41.467412 C119.258719,38.6594177 124.689611,37.244982 132.116258,37.0127222 Z M126.403026,44.353696 C125.699945,45.2566384 124.030817,47.4957267 123.626684,48.6204902 C125.439749,49.0824 128.166267,49.4451428 130.214615,49.4503621 L131.26647,49.4086076 C131.285846,48.1742383 131.496217,43.3072223 131.15298,42.4199379 C127.944824,42.0571951 128.603617,41.5222148 126.403026,44.353696 Z M135.634434,42.1433139 L132.708618,42.4851794 L132.661561,49.366853 C134.347297,49.6460866 138.679277,49.0119392 140.196162,48.5787357 C139.653626,47.2138834 137.887618,44.9460888 136.866211,43.6621361 C136.442702,43.1349847 135.949991,42.6443687 135.634434,42.1433139 Z M121.290459,42.8531415 C120.520945,43.3594155 117.011072,45.689842 116.701052,46.5692974 C117.536999,47.132984 120.974903,48.2264315 122.237129,48.2681861 C123.08138,46.7989475 126.688134,41.973686 126.743495,41.6892331 C124.866765,40.3765741 123.576859,41.3656352 121.290459,42.8531415 Z M137.07935,41.6292109 L141.804392,48.2577475 C143.016793,47.9837332 146.568186,47.0468652 147.285108,46.4101081 C146.263702,44.9226019 142.034139,42.3468674 140.135265,41.321271 C138.651596,40.5201054 138.538107,41.1542528 137.07935,41.6292109 Z M120.277357,40.0373182 C118.478132,40.6427594 112.734453,42.9314313 111.868057,44.2049454 C112.504706,44.9017246 114.029895,45.6272101 115.170327,45.9377597 L119.087101,42.894896 C119.989481,42.2398713 122.826721,40.6010048 123.286215,40.1103887 C122.375531,39.0665247 121.689057,39.5597505 120.277357,40.0373182 Z M140.600295,39.9277125 C140.816202,40.3739644 143.719875,41.973686 144.785569,42.7513647 C145.54678,43.294174 146.086547,43.7117196 146.789629,44.2362613 C147.487175,44.7634126 148.026942,45.4732402 148.72172,45.8333733 C149.32792,45.7133289 151.517439,44.5676881 152.026758,44.2049454 C151.824691,43.7247679 152.145783,44.1031686 151.553423,43.6699651 C149.8926,42.4564731 145.84296,40.7053912 143.772467,40.0555859 C142.316479,39.601505 141.690902,39.1630821 140.600295,39.9277125 Z M125.132497,38.802949 C125.079904,38.8159973 124.850157,38.8734099 124.758812,38.9151644 C124.368518,39.0900116 124.565049,38.9699673 124.321462,39.2126657 C126.964938,40.3896224 127.944824,41.2638585 131.944639,41.2403715 C134.416498,41.2221039 138.50489,40.3556968 139.551209,38.9960639 C135.540321,38.166192 129.384204,37.8425941 125.132497,38.802949 Z" transform="translate(-91 -37)"/>
</svg>
