<?xml version="1.0" encoding="UTF-8"?>
<svg width="44px" height="48px" viewBox="0 0 44 48" version="1.1" xmlns="http://www.w3.org/2000/svg" xmlns:xlink="http://www.w3.org/1999/xlink">
    <title>icon-1</title>
    <defs>
        <linearGradient x1="90.1456289%" y1="100%" x2="9.8543711%" y2="0%" id="linearGradient-1">
            <stop stop-color="#1E85E9" offset="0%"></stop>
            <stop stop-color="#8671F3" offset="20.275549%"></stop>
            <stop stop-color="#C06CFD" stop-opacity="0.99" offset="70.7268792%"></stop>
            <stop stop-color="#FFBEE8" offset="100%"></stop>
        </linearGradient>
    </defs>
    <g id="Page-1" stroke="none" stroke-width="1" fill="none" fill-rule="evenodd">
        <g id="a1qa-Industry-expertise-1-2" transform="translate(-405.000000, -3944.000000)" fill="url(#linearGradient-1)" fill-rule="nonzero">
            <g id="6-block" transform="translate(0.000000, 3755.000000)">
                <g id="Card-1" transform="translate(375.000000, 165.000000)">
                    <path d="M52,24 C55.0375661,24 57.7875661,26.6862915 59.7781746,31.0294373 L60.0334738,31.6052461 C60.2364613,32.0785334 60.430765,32.5697707 60.6158303,33.0777484 C61.1478838,32.983585 61.6703086,32.9062648 62.1815365,32.8454306 L62.8078512,32.7786218 C67.5644299,32.3309665 71.2658266,33.3693906 72.7846097,36 C74.3033928,38.6306094 73.3519961,42.3553251 70.5860258,46.2508154 L70.2150103,46.7598155 C69.906628,47.1722477 69.578359,47.5861345 69.2309736,48.0003909 C69.5788872,48.4145315 69.9068761,48.8280841 70.2150103,49.2401846 L70.5860258,49.7491846 C73.3519961,53.644675 74.3033928,57.3693906 72.7846097,60 C71.2658266,62.6306094 67.5644299,63.6690336 62.8078512,63.2213782 L62.1815365,63.1545694 C61.6703086,63.0937353 61.1478838,63.0164151 60.6155858,62.9227333 C60.430765,63.4302293 60.2364613,63.9214666 60.0334738,64.394754 L59.7781746,64.9705628 C57.7875661,69.3137085 55.0375661,72 52,72 C48.9624339,72 46.2124339,69.3137085 44.2218254,64.9705628 L43.9665262,64.394754 C43.7635387,63.9214666 43.569235,63.4302293 43.3841697,62.9222516 C42.8515706,63.0164958 42.3294245,63.093767 41.8184635,63.1545694 L41.1921488,63.2213782 C36.4355701,63.6690336 32.7341734,62.6306094 31.2153903,60 C29.6966072,57.3693906 30.6480039,53.644675 33.4139742,49.7491846 L33.7849897,49.2401846 C34.0931239,48.8280841 34.4211128,48.4145315 34.768188,48.0006089 C34.421641,47.5861345 34.093372,47.1722477 33.7849897,46.7598155 L33.4139742,46.2508154 C30.6480039,42.3553251 29.6966072,38.6306094 31.2153903,36 C32.7341734,33.3693906 36.4355701,32.3309665 41.1921488,32.7786218 L41.8184635,32.8454306 C42.3294245,32.906233 42.8515706,32.9835042 43.3835804,33.07712 C43.569235,32.5697707 43.7635387,32.0785334 43.9665262,31.6052461 L44.2218254,31.0294373 C46.2124339,26.6862915 48.9624339,24 52,24 Z M51.9013053,60.3240627 L51.1639321,60.629394 L50.4304653,60.9186287 L49.7014608,61.1917143 L48.9774747,61.4485987 C48.8572594,61.4900598 48.7372764,61.5308436 48.6175372,61.5709491 L47.9021209,61.8034335 C47.7834035,61.8408213 47.664953,61.8775286 47.5467811,61.9135544 L46.8411858,62.121521 L46.4910692,62.2193536 L46.4910692,62.2193536 L45.7965456,62.4026847 C45.3180051,62.5240181 44.8452818,62.6334747 44.379208,62.7309761 C44.4104707,62.8145658 44.4414327,62.8972193 44.4726366,62.979366 L44.7057108,63.5724977 C44.7452634,63.6698104 44.7851656,63.7663445 44.8254117,63.8620891 L45.0709679,64.4269953 C46.9012931,68.4988824 49.3749242,71 52,71 C54.6250758,71 57.0987069,68.4988824 58.9290321,64.4269953 L59.1745883,63.8620891 L59.2942892,63.5724977 L59.2942892,63.5724977 L59.5273634,62.979366 L59.6197911,62.7307667 C59.1540415,62.6333179 58.6816523,62.5239312 58.2034544,62.4026847 L57.5089308,62.2193536 L57.1588142,62.121521 L57.1588142,62.121521 L56.4532189,61.9135544 C56.335047,61.8775286 56.2165965,61.8408213 56.0978791,61.8034335 L55.3824628,61.5709491 C55.2627236,61.5308436 55.1427406,61.4900598 55.0225253,61.4485987 L54.2985392,61.1917143 L53.5695347,60.9186287 L52.8360679,60.629394 L52.0986947,60.3240627 L52.0002202,60.2819964 C51.9672387,60.2960664 51.934267,60.3100885 51.9013053,60.3240627 Z M35.4328552,48.766416 L35.2638068,48.9707951 L35.2638068,48.9707951 L34.8666768,49.4692091 C34.8021778,49.552119 34.7385279,49.6349424 34.6757337,49.7176688 L34.3092887,50.2127798 C31.6980937,53.8338315 30.7688778,57.2266177 32.0814157,59.5 C33.3939536,61.7733823 36.7968005,62.6650509 41.2383209,62.2142155 L41.850322,62.1444203 C41.9533623,62.1314021 42.0569144,62.1176914 42.160966,62.1032886 L42.7911702,62.008571 L43.0528832,61.9649428 C42.9043264,61.5126693 42.7627948,61.0486657 42.6286364,60.5736914 L42.440144,59.8805509 C42.409595,59.7637857 42.3794825,59.6464068 42.3498112,59.5284247 L42.1771179,58.8133779 C42.1492312,58.6930252 42.1217954,58.5720904 42.0948155,58.4505841 L41.9384447,57.7147733 C41.9133075,57.5910234 41.8886358,57.4667231 41.8644345,57.3418831 L41.7249099,56.5864505 L41.5969067,55.8185712 L41.4806579,55.038753 L41.3763959,54.2475035 L41.3634327,54.1410714 C41.3348093,54.1195827 41.3062322,54.0980786 41.2777013,54.0765593 L40.64459,53.590641 L40.0273721,53.1000574 L39.4263707,52.6052639 L38.8419092,52.1067157 C38.7458952,52.0233367 38.6505839,51.9398203 38.5559819,51.8561758 L37.9969364,51.3528494 C37.9051989,51.2687309 37.8141842,51.1845035 37.723899,51.1001765 L37.190997,50.5930963 C37.1036571,50.5084092 37.0170602,50.4236415 36.9312132,50.3388027 L36.425182,49.8289932 C36.0810692,49.4754734 35.7501326,49.1210542 35.4328552,48.766416 Z M67.574818,49.8289932 L67.0687868,50.3388027 C66.9829398,50.4236415 66.8963429,50.5084092 66.809003,50.5930963 L66.276101,51.1001765 C66.1858158,51.1845035 66.0948011,51.2687309 66.0030636,51.3528494 L65.4440181,51.8561758 L65.1580908,52.1067157 L65.1580908,52.1067157 L64.5736293,52.6052639 L63.9726279,53.1000574 L63.35541,53.590641 L62.7222987,54.0765593 L62.6366277,54.1408345 C62.632323,54.1764233 62.6279817,54.2119797 62.6236041,54.2475035 L62.5193421,55.038753 L62.4030933,55.8185712 L62.2750901,56.5864505 L62.1355655,57.3418831 C62.1113642,57.4667231 62.0866925,57.5910234 62.0615553,57.7147733 L61.9051845,58.4505841 C61.8782046,58.5720904 61.8507688,58.6930252 61.8228821,58.8133779 L61.6501888,59.5284247 L61.559856,59.8805509 L61.559856,59.8805509 L61.3713636,60.5736914 C61.2372052,61.0486657 61.0956736,61.5126693 60.9471168,61.9649428 C61.0348163,61.9799731 61.1219824,61.994504 61.2088298,62.008571 L61.839034,62.1032886 C61.9430856,62.1176914 62.0466377,62.1314021 62.149678,62.1444203 L62.7616791,62.2142155 C67.2031995,62.6650509 70.6060464,61.7733823 71.9185843,59.5 C73.2311222,57.2266177 72.3019063,53.8338315 69.6907113,50.2127798 L69.3242663,49.7176688 C69.2614721,49.6349424 69.1978222,49.552119 69.1333232,49.4692091 L68.7361932,48.9707951 L68.5671448,48.766416 C68.2498674,49.1210542 67.9189308,49.4754734 67.574818,49.8289932 Z M42.4824975,54.9565312 L42.5418667,55.3715737 C42.5613122,55.4999675 42.581246,55.6278449 42.6016621,55.7551948 L42.7299017,56.5128786 L42.869442,57.2573809 C42.893625,57.380337 42.9182674,57.5027221 42.9433633,57.6245251 L43.099335,58.3482722 L43.2659147,59.0575272 L43.442825,59.7517659 L43.6297888,60.430464 C43.7615854,60.8911402 43.9002993,61.3404497 44.0455264,61.7776284 C44.4969479,61.6847109 44.9552872,61.5802127 45.420008,61.4640475 L46.1012597,61.2866139 L46.7909432,61.0927034 L47.4884659,60.8823381 L48.1932351,60.65554 C48.3112676,60.6163722 48.4295774,60.5765206 48.548152,60.5359857 L49.2626801,60.28458 L49.9829732,60.0167968 C50.1034696,59.9708027 50.2241815,59.9241272 50.3450965,59.8767706 L50.7347066,59.719 L50.4282022,59.5784851 C50.2418842,59.4911527 50.0553694,59.4023273 49.8686968,59.3120124 L49.1212581,58.9428178 C48.9965756,58.8799643 48.8718462,58.8164511 48.7470815,58.7522791 L47.9981615,58.3593516 C47.4987222,58.092142 46.999088,57.814428 46.5,57.5262795 C46.000912,57.2381309 45.5105875,56.9442919 45.0294576,56.6453696 L44.3147124,56.1932496 C44.1967555,56.1172862 44.0793867,56.041024 43.9626128,55.9644726 L43.2691615,55.5017689 C43.0036329,55.3214403 42.7413835,55.1396548 42.4824975,54.9565312 Z M61.5177066,54.954 L61.7435393,54.7956932 C61.4115686,55.0333135 61.073941,55.2687574 60.7308385,55.5017689 L60.0373872,55.9644726 C59.9206133,56.041024 59.8032445,56.1172862 59.6852876,56.1932496 L58.9705424,56.6453696 C58.4894125,56.9442919 57.999088,57.2381309 57.5,57.5262795 C57.000912,57.814428 56.5012778,58.092142 56.0018385,58.3593516 L55.2529185,58.7522791 C55.1281538,58.8164511 55.0034244,58.8799643 54.8787419,58.9428178 L54.1313032,59.3120124 C53.842111,59.4519278 53.5532973,59.5882685 53.2650076,59.7210209 L53.6549035,59.8767706 C53.7758185,59.9241272 53.8965304,59.9708027 54.0170268,60.0167968 L54.7373199,60.28458 L55.451848,60.5359857 C55.5704226,60.5765206 55.6887324,60.6163722 55.8067649,60.65554 L56.5115341,60.8823381 L57.2090568,61.0927034 L57.8987403,61.2866139 L58.579992,61.4640475 C59.0447128,61.5802127 59.5030521,61.6847109 59.9541468,61.7775097 C60.0997007,61.3404497 60.2384146,60.8911402 60.3702112,60.430464 L60.557175,59.7517659 L60.7340853,59.0575272 L60.900665,58.3482722 L61.0566367,57.6245251 C61.0817326,57.5027221 61.106375,57.380337 61.130558,57.2573809 L61.2700983,56.5128786 L61.3983379,55.7551948 L61.4581333,55.3715737 L61.4581333,55.3715737 L61.5177066,54.954 Z M51.9999178,36.8087859 L51.9500729,36.8306677 C51.7866829,36.9022713 51.623034,36.9750817 51.4591557,37.049098 L50.7202526,37.3903064 C50.473501,37.5067531 50.2263318,37.6259091 49.9788436,37.7477707 L49.2355213,38.121469 C49.1115077,38.1851036 48.9874391,38.2494137 48.8633278,38.3143989 L48.1182465,38.7124065 L47.3727334,39.1265928 L46.6290372,39.5559659 L45.8975848,39.9945062 L45.1803595,40.4407617 C45.062025,40.5157526 44.9442965,40.5910441 44.8271805,40.6666257 L44.1318872,41.1235126 C43.9026078,41.2769128 43.6758311,41.4313897 43.4516095,41.5868595 L42.7866628,42.0561641 C42.6256103,42.1718644 42.4659674,42.2880562 42.3077549,42.4047062 C42.2862679,42.5995154 42.2654787,42.7957378 42.2458185,42.9929339 L42.1718621,43.8034469 C42.1493321,44.0753634 42.1289396,44.3489963 42.1107308,44.6242581 L42.0627018,45.4548433 C42.0558042,45.5940595 42.0494641,45.7336612 42.0436873,45.8736373 L42.0158314,46.7179004 L42.0017706,47.5706269 L42.0017706,48.4293732 L42.0158314,49.2820996 L42.0436873,50.1263628 C42.0494641,50.2663389 42.0558042,50.4059405 42.0627018,50.5451567 L42.1107308,51.3757419 C42.1289396,51.6510037 42.1493321,51.9246366 42.1718621,52.1965531 L42.2458185,53.0070661 C42.265445,53.203924 42.2861966,53.3998115 42.308055,53.5946942 C42.4659674,53.7119438 42.6256103,53.8281356 42.7866628,53.943836 L43.4516095,54.4131406 C43.6758311,54.5686104 43.9026078,54.7230872 44.1318872,54.8764874 L44.8271805,55.3333743 C44.9442965,55.4089559 45.062025,55.4842474 45.1803595,55.5592384 L45.8975848,56.0054939 L46.6290372,56.4440341 C46.752114,56.5164533 46.8757705,56.5885301 47,56.6602541 L47.3727334,56.8734073 L48.1182465,57.2875935 L48.8633278,57.6856011 C48.9874391,57.7505863 49.1115077,57.8148964 49.2355213,57.878531 L49.9788436,58.2522293 C50.2263318,58.3740909 50.473501,58.493247 50.7202526,58.6096937 L51.4591557,58.9509021 C51.6397905,59.0324864 51.8201465,59.1126058 52.0001844,59.1912588 C52.1799218,59.1125755 52.3602437,59.032471 52.5408443,58.9509021 L53.2797474,58.6096937 C53.526499,58.493247 53.7736682,58.3740909 54.0211564,58.2522293 L54.7644787,57.878531 C54.8884923,57.8148964 55.0125609,57.7505863 55.1366722,57.6856011 L55.8817535,57.2875935 L56.6272666,56.8734073 C56.7515219,56.8030292 56.8757705,56.731978 57,56.6602541 L57.3709628,56.4440341 L58.1024152,56.0054939 L58.8196405,55.5592384 L59.1728195,55.3333743 L59.1728195,55.3333743 L59.8681128,54.8764874 C60.0973922,54.7230872 60.3241689,54.5686104 60.5483905,54.4131406 L61.2133372,53.943836 C61.3744249,53.8281104 61.5341023,53.7118931 61.6923488,53.5952174 C61.7138034,53.3998115 61.734555,53.203924 61.7541815,53.0070661 L61.8281379,52.1965531 C61.8506679,51.9246366 61.8710604,51.6510037 61.8892692,51.3757419 L61.9372982,50.5451567 C61.9441958,50.4059405 61.9505359,50.2663389 61.9563127,50.1263628 L61.9841686,49.2820996 L61.9982294,48.4293732 C61.9994079,48.2865759 62,48.1434479 62,48 L61.9982294,47.5706269 L61.9841686,46.7179004 L61.9563127,45.8736373 C61.9505359,45.7336612 61.9441958,45.5940595 61.9372982,45.4548433 L61.8892692,44.6242581 C61.8710604,44.3489963 61.8506679,44.0753634 61.8281379,43.8034469 L61.7541815,42.9929339 C61.734555,42.7960761 61.7138034,42.6001886 61.691945,42.4053059 C61.5341023,42.2881069 61.3744249,42.1718896 61.2133372,42.0561641 L60.5483905,41.5868595 C60.3241689,41.4313897 60.0973922,41.2769128 59.8681128,41.1235126 L59.1728195,40.6666257 L58.8196405,40.4407617 L58.8196405,40.4407617 L58.1024152,39.9945062 L57.3709628,39.5559659 L56.6272666,39.1265928 L55.8817535,38.7124065 L55.1366722,38.3143989 C55.0125609,38.2494137 54.8884923,38.1851036 54.7644787,38.121469 L54.0211564,37.7477707 C53.7736682,37.6259091 53.526499,37.5067531 53.2797474,37.3903064 L52.5408443,37.049098 C52.3602437,36.967529 52.1799218,36.8874246 51.9999178,36.8087859 Z M52,47.5 C55.5898509,47.5 58.5,50.4101491 58.5,54 C58.5,54.2761424 58.2761424,54.5 58,54.5 C57.7238576,54.5 57.5,54.2761424 57.5,54 C57.5,50.9624339 55.0375661,48.5 52,48.5 C48.9624339,48.5 46.5,50.9624339 46.5,54 C46.5,54.2761424 46.2761424,54.5 46,54.5 C45.7238576,54.5 45.5,54.2761424 45.5,54 C45.5,50.4101491 48.4101491,47.5 52,47.5 Z M41.2167845,43.2351256 L40.8869633,43.4948032 C40.7854937,43.5758404 40.6847155,43.6570422 40.5846353,43.738398 L39.9925817,44.2282986 L39.417594,44.7213952 C39.3232024,44.8038164 39.229535,44.8863499 39.1365984,44.9689851 L38.5878009,45.4659342 L38.0568579,45.9648238 L37.5440847,46.465152 L37.0497968,46.9664165 C36.7165014,47.3111384 36.3965272,47.6561679 36.0903353,48.0007714 C36.3971468,48.3445002 36.716824,48.6891954 37.0497968,49.0335835 L37.5440847,49.534848 L38.0568579,50.0351762 L38.5878009,50.5340659 L39.1365984,51.0310149 C39.229535,51.1136502 39.3232024,51.1961836 39.417594,51.2786048 L39.9925817,51.7717014 L40.5846353,52.261602 C40.6847155,52.3429579 40.7854937,52.4241596 40.8869633,52.5051969 L41.2177066,52.764 L41.1868389,52.4280258 C41.169312,52.2230035 41.1529796,52.0170641 41.1378584,51.8102435 L41.0838708,50.9783452 C41.0759623,50.8389403 41.0686017,50.6991649 41.0617939,50.5590295 L41.0276191,49.713982 C41.0138871,49.2893831 41.0052174,48.8617348 41.0017407,48.4313228 L41,48 C41,47.4237029 41.0093098,46.8521499 41.0276191,46.286018 L41.0617939,45.4409705 C41.0686017,45.3008351 41.0759623,45.1610597 41.0838708,45.0216548 L41.1378584,44.1897565 C41.1612815,43.8693873 41.1876105,43.5511328 41.2167845,43.2351256 Z M62.7817066,43.235 L62.7570125,42.9596941 C62.7968124,43.3659993 62.8318991,43.7761153 62.8621416,44.1897565 L62.9161292,45.0216548 C62.9240377,45.1610597 62.9313983,45.3008351 62.9382061,45.4409705 L62.9723809,46.286018 C62.9906902,46.8521499 63,47.4237029 63,48 C63,48.5762971 62.9906902,49.1478501 62.9723809,49.713982 L62.9382061,50.5590295 C62.9313983,50.6991649 62.9240377,50.8389403 62.9161292,50.9783452 L62.8621416,51.8102435 C62.8387185,52.1306127 62.8123895,52.4488673 62.7832155,52.7648744 L63.1130367,52.5051969 C63.2145063,52.4241596 63.3152845,52.3429579 63.4153647,52.261602 L64.0074183,51.7717014 L64.582406,51.2786048 C64.6767976,51.1961836 64.770465,51.1136502 64.8634016,51.0310149 L65.4121991,50.5340659 L65.9431421,50.0351762 L66.4559153,49.534848 L66.9502032,49.0335835 C67.283176,48.6891954 67.6028532,48.3445002 67.9087754,48.0002294 C67.6034728,47.6561679 67.2834986,47.3111384 66.9502032,46.9664165 L66.4559153,46.465152 L65.9431421,45.9648238 L65.4121991,45.4659342 L64.8634016,44.9689851 C64.770465,44.8863499 64.6767976,44.8038164 64.582406,44.7213952 L64.0074183,44.2282986 L63.4153647,43.738398 C63.3152845,43.6570422 63.2145063,43.5758404 63.1130367,43.4948032 L62.7817066,43.235 Z M32.0814157,36.5 C30.7688778,38.7733823 31.6980937,42.1661685 34.3092887,45.7872202 L34.6757337,46.2823312 C34.7385279,46.3650576 34.8021778,46.447881 34.8666768,46.5307909 L35.2638068,47.029205 L35.4328552,47.233584 C35.7501326,46.8789458 36.0810692,46.5245266 36.425182,46.1710068 L36.9312132,45.6611973 C37.0170602,45.5763585 37.1036571,45.4915908 37.190997,45.4069037 L37.723899,44.8998235 C37.8141842,44.8154965 37.9051989,44.7312691 37.9969364,44.6471507 L38.5559819,44.1438242 C38.6505839,44.0601798 38.7458952,43.9766633 38.8419092,43.8932844 L39.4263707,43.3947362 L40.0273721,42.8999426 L40.64459,42.409359 L41.2777013,41.9234408 L41.363493,41.8581677 C41.3677582,41.8229122 41.3720592,41.7876884 41.3763959,41.7524965 L41.4806579,40.961247 L41.5969067,40.1814288 L41.7249099,39.4135495 L41.8644345,38.6581169 C41.8886358,38.5332769 41.9133075,38.4089767 41.9384447,38.2852267 L42.0948155,37.5494159 C42.1217954,37.4279096 42.1492312,37.3069749 42.1771179,37.1866222 L42.3498112,36.4715754 C42.3794825,36.3535932 42.409595,36.2362143 42.440144,36.1194492 L42.6286364,35.4263086 C42.7627948,34.9513343 42.9043264,34.4873307 43.0528832,34.0350573 C42.9645209,34.0199164 42.8776874,34.0054425 42.7911702,33.9914291 L42.160966,33.8967114 C42.0569144,33.8823086 41.9533623,33.8685979 41.850322,33.8555797 L41.2383209,33.7857845 C36.7968005,33.3349491 33.3939536,34.2266177 32.0814157,36.5 Z M62.7616791,33.7857845 L62.149678,33.8555797 C62.0466377,33.8685979 61.9430856,33.8823086 61.839034,33.8967114 L61.2088298,33.9914291 L60.9471168,34.0350573 C61.0956736,34.4873307 61.2372052,34.9513343 61.3713636,35.4263086 L61.559856,36.1194492 L61.6501888,36.4715754 L61.6501888,36.4715754 L61.8228821,37.1866222 C61.8507688,37.3069749 61.8782046,37.4279096 61.9051845,37.5494159 L62.0615553,38.2852267 C62.0866925,38.4089767 62.1113642,38.5332769 62.1355655,38.6581169 L62.2750901,39.4135495 L62.4030933,40.1814288 L62.5193421,40.961247 L62.6236041,41.7524965 L62.6365673,41.8589287 C62.6651907,41.8804174 62.6937678,41.9019214 62.7222987,41.9234408 L63.35541,42.409359 L63.9726279,42.8999426 L64.5736293,43.3947362 L65.1580908,43.8932844 L65.4440181,44.1438242 L65.4440181,44.1438242 L66.0030636,44.6471507 C66.0948011,44.7312691 66.1858158,44.8154965 66.276101,44.8998235 L66.809003,45.4069037 C66.8963429,45.4915908 66.9829398,45.5763585 67.0687868,45.6611973 L67.574818,46.1710068 C67.9189308,46.5245266 68.2498674,46.8789458 68.5671448,47.233584 L68.7361932,47.029205 L68.7361932,47.029205 L69.1333232,46.5307909 C69.1978222,46.447881 69.2614721,46.3650576 69.3242663,46.2823312 L69.6907113,45.7872202 C72.3019063,42.1661685 73.2311222,38.7733823 71.9185843,36.5 C70.6060464,34.2266177 67.2031995,33.3349491 62.7616791,33.7857845 Z M52,39 C54.209139,39 56,40.790861 56,43 C56,45.209139 54.209139,47 52,47 C49.790861,47 48,45.209139 48,43 C48,40.790861 49.790861,39 52,39 Z M52,40 C50.3431458,40 49,41.3431458 49,43 C49,44.6568542 50.3431458,46 52,46 C53.6568542,46 55,44.6568542 55,43 C55,41.3431458 53.6568542,40 52,40 Z M59.9544736,34.2223717 L59.9148299,34.2306044 C59.4764269,34.3213682 59.0312176,34.4231607 58.579992,34.5359525 L57.8987403,34.7133861 L57.2090568,34.9072966 L56.5115341,35.117662 L55.8067649,35.34446 C55.6887324,35.3836278 55.5704226,35.4234794 55.451848,35.4640144 L54.7373199,35.7154201 L54.0170268,35.9832032 C53.8965304,36.0291973 53.7758185,36.0758729 53.6549035,36.1232295 L53.2647066,36.28 L53.5717978,36.421515 C53.7581158,36.5088473 53.9446306,36.5976728 54.1313032,36.6879877 L54.8787419,37.0571822 C55.0034244,37.1200357 55.1281538,37.183549 55.2529185,37.2477209 L56.0018385,37.6406484 C56.376418,37.8410556 56.7511071,38.0473715 57.1255932,38.2595667 L57.5,38.4737206 C57.999088,38.7618691 58.4894125,39.0557081 58.9705424,39.3546304 L59.6852876,39.8067504 C59.8032445,39.8827139 59.9206133,39.958976 60.0373872,40.0355275 L60.7308385,40.4982312 C60.9970505,40.6790239 61.2599665,40.8612811 61.5195015,41.044883 L61.4581333,40.6284263 L61.3983379,40.2448052 L61.3983379,40.2448052 L61.2700983,39.4871214 L61.130558,38.7426192 C61.106375,38.619663 61.0817326,38.497278 61.0566367,38.3754749 L60.900665,37.6517278 L60.7340853,36.9424728 L60.557175,36.2482342 L60.3702112,35.569536 C60.2384146,35.1088598 60.0997007,34.6595503 59.9544736,34.2223717 Z M44.0458532,34.2224903 L44.0327686,34.2608585 C43.8921708,34.6859085 43.757721,35.1223673 43.6297888,35.569536 L43.442825,36.2482342 L43.2659147,36.9424728 L43.099335,37.6517278 L42.9433633,38.3754749 C42.9182674,38.497278 42.893625,38.619663 42.869442,38.7426192 L42.7299017,39.4871214 L42.6016621,40.2448052 C42.581246,40.3721551 42.5613122,40.5000325 42.5418667,40.6284263 L42.4827066,41.044 L42.7586367,40.8495407 C42.9274277,40.7318507 43.0976102,40.6147369 43.2691615,40.4982312 L43.9626128,40.0355275 C44.0793867,39.958976 44.1967555,39.8827139 44.3147124,39.8067504 L45.0294576,39.3546304 C45.3903051,39.1304387 45.7563245,38.9091063 46.1273339,38.6908895 L46.5,38.4737206 C46.999088,38.185572 47.4987222,37.907858 47.9981615,37.6406484 L48.7470815,37.2477209 C48.8718462,37.183549 48.9965756,37.1200357 49.1212581,37.0571822 L49.8686968,36.6879877 C50.1580728,36.5479834 50.4470697,36.4115583 50.7355419,36.2787261 L50.3450965,36.1232295 C50.2241815,36.0758729 50.1034696,36.0291973 49.9829732,35.9832032 L49.2626801,35.7154201 L48.548152,35.4640144 C48.4295774,35.4234794 48.3112676,35.3836278 48.1932351,35.34446 L47.4884659,35.117662 L46.7909432,34.9072966 L46.1012597,34.7133861 L45.420008,34.5359525 C44.9552872,34.4197873 44.4969479,34.3152892 44.0458532,34.2224903 Z M52,25 C49.3749242,25 46.9012931,27.5011176 45.0709679,31.5730048 L44.8254117,32.1379109 C44.7851656,32.2336555 44.7452634,32.3301896 44.7057108,32.4275023 L44.4726366,33.020634 L44.379208,33.2690239 C44.8452818,33.3665254 45.3180051,33.475982 45.7965456,33.5973154 L46.4910692,33.7806465 L46.8411858,33.8784791 L46.8411858,33.8784791 L47.5467811,34.0864456 C47.664953,34.1224714 47.7834035,34.1591787 47.9021209,34.1965666 L48.6175372,34.4290509 C48.7372764,34.4691564 48.8572594,34.5099402 48.9774747,34.5514013 L49.7014608,34.8082857 L50.4304653,35.0813714 L51.1639321,35.370606 L51.9013053,35.6759373 L52.000247,35.7178043 C52.0330726,35.7038013 52.0658886,35.6898456 52.0986947,35.6759373 L52.8360679,35.370606 L53.5695347,35.0813714 L54.2985392,34.8082857 L55.0225253,34.5514013 C55.1427406,34.5099402 55.2627236,34.4691564 55.3824628,34.4290509 L56.0978791,34.1965666 C56.2165965,34.1591787 56.335047,34.1224714 56.4532189,34.0864456 L57.1588142,33.8784791 L57.5089308,33.7806465 L57.5089308,33.7806465 L58.2034544,33.5973154 C58.6816523,33.4760688 59.1540415,33.3666821 59.6197911,33.2692333 C59.5895293,33.1854343 59.5585673,33.1027808 59.5273634,33.020634 L59.2942892,32.4275023 L59.1745883,32.1379109 L59.1745883,32.1379109 L58.9290321,31.5730048 C57.0987069,27.5011176 54.6250758,25 52,25 Z" id="icon-1"></path>
                </g>
            </g>
        </g>
    </g>
</svg>