<?xml version="1.0" encoding="UTF-8"?>
<svg width="40px" height="40px" viewBox="0 0 40 40" version="1.1" xmlns="http://www.w3.org/2000/svg" xmlns:xlink="http://www.w3.org/1999/xlink">
    <title>ico_1</title>
    <defs>
        <linearGradient x1="99.7127325%" y1="91.7313043%" x2="2.14702012%" y2="-1.77217047%" id="linearGradient-1">
            <stop stop-color="#1E85E9" offset="0%"></stop>
            <stop stop-color="#8671F3" offset="20.275549%"></stop>
            <stop stop-color="#C06CFD" stop-opacity="0.99" offset="70.7268792%"></stop>
            <stop stop-color="#FFBEE8" offset="100%"></stop>
        </linearGradient>
    </defs>
    <g id="Page-1" stroke="none" stroke-width="1" fill="none" fill-rule="evenodd">
        <g id="a1qa-Industry-expertise-1-2" transform="translate(-400.000000, -750.000000)" fill="url(#linearGradient-1)" fill-rule="nonzero">
            <g id="1-block" transform="translate(374.000000, 590.000000)">
                <g id="card-1" transform="translate(0.000000, 140.000000)">
                    <path d="M45.595459,20 C45.8409189,20 46.0450674,20.1768752 46.0874033,20.4101244 L46.095459,20.5 L46.0955719,25.9407324 C53.3197187,26.2038163 59.095459,32.1432302 59.095459,39.4316406 L59.095459,39.4316406 L64.6794434,39.4316406 C64.9555857,39.4316406 65.1794434,39.6554983 65.1794434,39.9316406 C65.1794434,40.1771005 65.0025682,40.381249 64.769319,40.423585 L64.6794434,40.4316406 L59.0589581,40.4319811 C58.5591074,47.2563306 52.9862218,52.67161 46.0955719,52.9225488 L46.095459,58.7924805 C46.095459,59.0686228 45.8716014,59.2924805 45.595459,59.2924805 C45.3499991,59.2924805 45.1458506,59.1156053 45.1035147,58.8823561 L45.095459,58.7924805 L45.095346,52.9225488 C38.2046962,52.67161 32.6318106,47.2563306 32.1319599,40.4319811 L26.5,40.4316406 C26.2238576,40.4316406 26,40.207783 26,39.9316406 C26,39.6861807 26.1768752,39.4820323 26.4101244,39.4396963 L26.5,39.4316406 L32.095459,39.4316406 C32.095459,32.1432302 37.8711992,26.2038163 45.095346,25.9407324 L45.095459,20.5 C45.095459,20.2238576 45.3193166,20 45.595459,20 Z M39.1718928,40.4315477 L33.1348887,40.4317961 C33.631406,46.703585 38.7570997,51.6724529 45.095391,51.9218207 L45.095127,45.9126705 C42.0725902,45.6825876 39.6279435,43.3853114 39.1718928,40.4315477 Z M58.0560292,40.4317961 L52.0190252,40.4315477 C51.5629744,43.3853114 49.1183278,45.6825876 46.0957909,45.9126705 L46.095527,51.9218207 C52.4338182,51.6724529 57.559512,46.703585 58.0560292,40.4317961 Z M45.595459,33.9316406 C42.5578929,33.9316406 40.095459,36.3940745 40.095459,39.4316406 C40.095459,42.4692067 42.5578929,44.9316406 45.595459,44.9316406 C48.6330251,44.9316406 51.095459,42.4692067 51.095459,39.4316406 C51.095459,36.3940745 48.6330251,33.9316406 45.595459,33.9316406 Z M46.095527,26.9414605 L46.0957909,32.9506107 C49.4518572,33.2060828 52.095459,36.0101386 52.095459,39.4316406 L52.095459,39.4316406 L58.095459,39.4316406 C58.095459,32.6955603 52.7672618,27.2039471 46.095527,26.9414605 Z M45.095391,26.9414605 C38.4236562,27.2039471 33.095459,32.6955603 33.095459,39.4316406 L33.095459,39.4316406 L39.095459,39.4316406 C39.095459,36.0101386 41.7390608,33.2060828 45.095127,32.9506107 Z" id="ico_1"></path>
                </g>
            </g>
        </g>
    </g>
</svg>