<?xml version="1.0" encoding="UTF-8"?>
<svg width="45px" height="47px" viewBox="0 0 45 47" version="1.1" xmlns="http://www.w3.org/2000/svg" xmlns:xlink="http://www.w3.org/1999/xlink">
    <title>media_ico</title>
    <g id="Page-1" stroke="none" stroke-width="1" fill="none" fill-rule="evenodd">
        <g id="a1qa-Industry-expertise-1-2" transform="translate(-1028.000000, -2694.000000)" fill="#5055FE" fill-rule="nonzero">
            <g id="3-block" transform="translate(375.000000, 1960.000000)">
                <g id="5-card" transform="translate(560.000000, 642.000000)">
                    <path d="M96.1207979,92.5173614 L95.8341138,92.5 C94.5475085,92.5 93.5,93.524169 93.5,94.7932479 L93.5,136.206404 C93.5,136.587628 93.5967207,136.962714 93.7812572,137.297788 C94.3936009,138.40966 95.8048,138.823587 96.9365914,138.227739 L136.268008,117.521161 C136.670306,117.309366 137.000873,116.986164 137.218387,116.59121 C137.834309,115.472841 137.406238,114.077728 136.268008,113.478491 L96.9365914,92.7719129 C96.6827106,92.6382538 96.4061001,92.5520497 96.1207979,92.5173614 Z M95.697298,93.5067049 L95.826,93.5 L96.0302271,93.5127919 C96.1649871,93.5300984 96.3246112,93.5798443 96.4707422,93.656777 L135.802159,114.363355 C136.447681,114.7032 136.687002,115.48316 136.342442,116.108799 C136.219627,116.331802 136.0319,116.515347 135.802159,116.636297 L96.4707422,137.342875 C95.8187818,137.686109 95.0053401,137.447514 94.657202,136.815377 C94.5539354,136.627869 94.5,136.418706 94.5,136.206404 L94.5,94.7932479 C94.5,94.1260404 95.0227848,93.5732033 95.697298,93.5067049 Z" id="media_ico"></path>
                </g>
            </g>
        </g>
    </g>
</svg>