<?xml version="1.0" encoding="UTF-8"?>
<svg width="48px" height="49px" viewBox="0 0 48 49" version="1.1" xmlns="http://www.w3.org/2000/svg" xmlns:xlink="http://www.w3.org/1999/xlink">
    <title>icon-2</title>
    <defs>
        <linearGradient x1="98.4810524%" y1="100%" x2="1.51894761%" y2="0%" id="linearGradient-1">
            <stop stop-color="#1E85E9" offset="0%"></stop>
            <stop stop-color="#8671F3" offset="20.275549%"></stop>
            <stop stop-color="#C06CFD" stop-opacity="0.99" offset="70.7268792%"></stop>
            <stop stop-color="#FFBEE8" offset="100%"></stop>
        </linearGradient>
    </defs>
    <g id="Page-1" stroke="none" stroke-width="1" fill="none" fill-rule="evenodd">
        <g id="a1qa-Industry-expertise-1-2" transform="translate(-804.000000, -3939.000000)" fill="url(#linearGradient-1)" fill-rule="nonzero">
            <g id="6-block" transform="translate(0.000000, 3755.000000)">
                <g id="Card-2" transform="translate(775.000000, 165.000000)">
                    <path d="M57.2,63.7461388 C57.4454599,63.7461388 57.6496084,63.9230139 57.6919443,64.1562631 L57.7,64.2461388 L57.7,66.2461388 C57.7,67.0258349 57.1051119,67.6665874 56.34446,67.7392722 L56.2,67.7461388 L50.2,67.7461388 C49.4203039,67.7461388 48.7795513,67.1512507 48.7068666,66.3905988 L48.7,66.2461388 L48.7,64.2461388 C48.7,63.9699964 48.9238576,63.7461388 49.2,63.7461388 C49.4454599,63.7461388 49.6496084,63.9230139 49.6919443,64.1562631 L49.7,64.2461388 L49.7,66.2461388 C49.7,66.4915986 49.8768752,66.6957471 50.1101244,66.7380831 L50.2,66.7461388 L56.2,66.7461388 C56.4454599,66.7461388 56.6496084,66.5692636 56.6919443,66.3360144 L56.7,66.2461388 L56.7,64.2461388 C56.7,63.9699964 56.9238576,63.7461388 57.2,63.7461388 Z M53.2028986,28.5 C61.0387876,28.5 67.5,34.9199172 67.5,42.7712674 C67.5,47.2109494 65.4213044,51.3538487 61.8630828,54.0668514 L61.8630828,54.0668514 L61.6024827,54.2606153 L61.5567295,54.2851713 L61.2597364,54.5767296 C59.0299144,56.8098113 57.8874807,58.9875718 57.7942554,61.1044134 L57.7942554,61.1044134 L57.7876041,61.4012492 C57.7876041,62.0099329 57.2893974,62.5 56.6789085,62.5 L56.6789085,62.5 L49.3745607,62.5 C48.7640718,62.5 48.265865,62.0099329 48.265865,61.4012492 C48.265865,59.3490725 46.9987751,56.9489031 44.5409034,54.3634213 L44.5409034,54.3634213 L44.2142923,54.1254188 C40.6139827,51.4229383 38.5,47.2480408 38.5,42.7712674 C38.5,34.8559075 45.0261597,28.5 53.2028986,28.5 Z M54.8432,19 C55.98704,19.0081969 56.97392,19.8076368 57.224,20.928685 L57.8,24.0531546 C58.1072,25.1486476 58.88,26.0522365 59.912,26.5218713 C60.96848,26.9389494 62.15744,26.8463725 63.1376,26.2711422 L65.48,24.4967521 C66.46448,23.800979 67.80512,23.9234505 68.648,24.7860548 L71.24,27.3704927 C72.10928,28.2200784 72.23168,29.5798013 71.528,30.5721097 L69.7424,33.0794001 C68.79488,34.8291995 69.43904,37.0192213 71.18096,37.9710273 C71.43056,38.1074817 71.69552,38.2130772 71.9696,38.2868494 L75.08,38.8654549 C76.18928,39.1152196 76.9832,40.0959559 77,41.2377374 L77,44.9600993 C76.9832,46.1013986 76.18928,47.0826171 75.08,47.3323818 L71.9696,47.9302741 C70.04288,48.4023198 68.86208,50.3531846 69.332,52.2886199 C69.41792,52.6415693 69.55616,52.9800535 69.7424,53.2920183 L71.528,55.7993087 C72.14624,56.7593116 72.0272,58.0201894 71.24,58.8466309 L68.648,61.4310687 C67.80704,62.2396699 66.51632,62.3447832 65.55728,61.6817978 L63.06128,59.8881208 C62.1590349,59.3731397 61.1288965,59.2936162 60.2113994,59.5830126 L60.6873784,58.4564614 C61.5769032,58.3380452 62.5077174,58.4795004 63.3608859,58.9138196 L63.5569925,59.0196341 L63.6448468,59.0760556 L66.1259301,60.8592183 C66.6528004,61.2234443 67.3484446,61.1960195 67.8338219,60.8166948 L67.941927,60.7229297 L70.5159115,58.1569239 C70.9485421,57.7027268 71.0423676,57.0269547 70.7850906,56.506155 L70.7134496,56.3794015 L68.8837691,53.8046127 C68.6464501,53.407087 68.4700277,52.975587 68.3602331,52.5245631 C67.7775541,50.1247131 69.1839295,47.704859 71.5679647,47.0054554 L71.7808322,46.9482524 L74.8603399,46.3568053 C75.4741499,46.2186003 75.9263269,45.7012109 75.991939,45.0919555 L76.0001082,44.9600993 L76.0001082,41.2524497 C75.9907663,40.6175418 75.5790581,40.067323 75.0192481,39.8824992 L74.8971146,39.8485891 L71.7096875,39.2524816 C71.3580127,39.1578238 71.0194085,39.0223892 70.7014604,38.8485694 C68.5411457,37.6681475 67.7030988,34.9999521 68.7615812,32.8017191 L68.8630474,32.6032289 L68.9278496,32.4993073 L70.7122838,29.9936573 C71.1035299,29.4419339 71.0660382,28.6985591 70.6328074,28.1850072 L70.533927,28.0786317 L67.9327632,25.484937 C67.4688614,25.0101795 66.75208,24.9138308 66.2064961,25.2168446 L66.0838241,25.2938697 L63.7414241,27.0682598 L63.6437475,27.1335892 C62.3983334,27.8644902 60.8872823,27.9819997 59.4977996,27.432057 C58.2738228,26.8750588 57.3395366,25.8342877 56.894278,24.4900147 L56.8165715,24.2344509 L56.2479899,21.1464103 C56.0991639,20.4792593 55.513513,20.0048292 54.836034,19.9998898 L51.1524456,19.9998898 C50.5242683,20.0092165 49.9776896,20.4220446 49.7932916,20.9867639 L49.7594235,21.1100083 L49.1663284,24.3099844 C49.0724279,24.6626253 48.9379407,25.0017552 48.7649526,25.321051 C47.5895799,27.4916294 44.9274791,28.3355956 42.7345141,27.27011 L42.5365004,27.1679712 L42.4324332,27.1024943 L39.9426608,25.3132565 C39.3988494,24.9287348 38.6716051,24.9662015 38.1634608,25.3960812 L38.058073,25.4941939 L35.4589591,28.0856543 C34.9760021,28.5576695 34.8802302,29.2957304 35.2023442,29.8614591 L35.277776,29.9798892 L37.063856,32.4100323 L37.1277397,32.508601 C37.3314521,32.8674783 37.4862703,33.2516369 37.5886344,33.6524796 C38.1975512,36.0453516 36.81787,38.4814712 34.4268569,39.2101629 L34.2132854,39.2699837 L31.1396047,39.8410438 C30.5221149,39.9800406 30.0687647,40.5027333 30.0071291,41.122773 L29.9998918,41.2570242 L29.9998918,44.9646739 C30.0092337,45.5995818 30.4209419,46.1498006 30.9807741,46.3346285 L31.1029127,46.3685395 L34.2128327,46.947145 L34.3267266,46.9753365 L34.6359486,47.0722954 C34.8630814,47.1530528 35.0840517,47.2519702 35.2980596,47.3685542 C37.4584326,48.549008 38.2968459,51.2172305 37.238415,53.4154096 L37.1369526,53.6138947 L37.0721504,53.7178163 L35.2878487,56.2232793 C34.8964363,56.7755056 34.9338995,57.5187215 35.367127,58.032482 L35.466007,58.1389082 L38.0672368,60.7321866 C38.5310957,61.2069003 39.2481858,61.3032676 39.7901795,61.0028504 L39.9119518,60.9264714 L42.2538718,59.1327944 L42.3459112,59.0701112 C42.7425468,58.8311765 43.1731231,58.6535993 43.6233181,58.5431636 C44.2711997,58.3844329 44.9203732,58.3722167 45.5364877,58.4862416 L46.0418759,59.6678876 C45.3721511,59.3989708 44.6155386,59.329645 43.86128,59.5144381 C43.50944,59.6007467 43.17248,59.739612 42.86192,59.9266945 L40.52,61.7203715 C39.536,62.4161446 38.19488,62.2936731 37.352,61.4310687 L34.76,58.8471131 C33.89072,57.9970452 33.76832,56.6378045 34.472,55.6450139 L36.2576,53.1377235 C37.20512,51.3879241 36.56048,49.1979023 34.81856,48.2460963 C34.65216,48.1554481 34.4791467,48.0778721 34.3009422,48.0145112 L34.02992,47.9302741 L30.92,47.3516687 C29.81072,47.101904 29.0168,46.1211677 29,44.9793862 L29,41.2570242 C29.00816,40.1080102 29.804,39.1166661 30.92,38.8654549 L34.0304,38.2868494 C35.95136,37.7935883 37.11056,35.8287405 36.61952,33.8990912 C36.53936,33.5851977 36.41792,33.2838407 36.25808,33.0022527 L34.472,30.5721097 C33.76832,29.5798013 33.89072,28.2200784 34.76,27.3704927 L37.352,24.7860548 C38.19488,23.9234505 39.536,23.800979 40.52,24.4967521 L43.016,26.2904291 C44.75792,27.2422351 46.93808,26.5946791 47.8856,24.8448797 C48.02144,24.5941507 48.12656,24.3284743 48.2,24.0526724 L48.776,20.928685 C49.02464,19.8143872 50.00096,19.016876 51.1376,19 L54.8432,19 Z M53.2028986,29.5 C45.572615,29.5 39.5,35.4141946 39.5,42.7712674 C39.5,46.9314507 41.4643753,50.810889 44.8088648,53.3214086 L44.8088648,53.3214086 L45.1969282,53.6139845 C47.8828987,56.4267869 49.265865,59.0464536 49.265865,61.4012492 C49.265865,61.4539274 49.3127029,61.5 49.3745607,61.5 L49.3745607,61.5 L56.6789085,61.5 C56.7407663,61.5 56.7876041,61.4539274 56.7877251,61.3902521 L56.7877251,61.3902521 L56.7948593,61.0714461 C56.900665,58.6658316 58.1594237,56.266327 60.5556301,53.8666522 L60.5556301,53.8666522 L60.9175113,53.5203164 L61.01505,53.451429 L61.2614092,53.2681306 C64.5684561,50.7465989 66.5,46.8969772 66.5,42.7712674 C66.5,35.4736423 60.4879331,29.5 53.2028986,29.5 Z M54.5,59 C54.7761424,59 55,59.2238576 55,59.5 C55,59.7761424 54.7761424,60 54.5,60 L51.5,60 C51.2238576,60 51,59.7761424 51,59.5 C51,59.2238576 51.2238576,59 51.5,59 L54.5,59 Z" id="icon-2"></path>
                </g>
            </g>
        </g>
    </g>
</svg>