<?xml version="1.0" encoding="UTF-8"?>
<svg width="62px" height="62px" viewBox="0 0 62 62" version="1.1" xmlns="http://www.w3.org/2000/svg" xmlns:xlink="http://www.w3.org/1999/xlink">
    <title>ico-1</title>
    <defs>
        <linearGradient x1="100%" y1="100%" x2="0%" y2="0%" id="linearGradient-1">
            <stop stop-color="#1E85E9" offset="0%"></stop>
            <stop stop-color="#8671F3" offset="20.275549%"></stop>
            <stop stop-color="#C06CFD" stop-opacity="0.99" offset="70.7268792%"></stop>
            <stop stop-color="#FFBEE8" offset="100%"></stop>
        </linearGradient>
        <rect id="path-2" x="0" y="0" width="60" height="60" rx="3.99999976"></rect>
        <linearGradient x1="100%" y1="95.4362826%" x2="0%" y2="4.56371736%" id="linearGradient-3">
            <stop stop-color="#1E85E9" offset="0%"></stop>
            <stop stop-color="#8671F3" offset="20.275549%"></stop>
            <stop stop-color="#C06CFD" stop-opacity="0.99" offset="70.7268792%"></stop>
            <stop stop-color="#FFBEE8" offset="100%"></stop>
        </linearGradient>
    </defs>
    <g id="Page-1" stroke="none" stroke-width="1" fill="none" fill-rule="evenodd">
        <g id="a1qa-QA-Academy-V1" transform="translate(-1028.000000, -3198.000000)">
            <g id="5-block" transform="translate(375.000000, 2947.000000)">
                <g id="ico-1" transform="translate(654.000000, 252.000000)">
                    <g id="Rectangle" opacity="0.0620721756">
                        <use fill="#FAFAFA" xlink:href="#path-2"></use>
                        <use stroke-opacity="0.02" stroke="#000000" stroke-width="1" fill="url(#linearGradient-1)" xlink:href="#path-2"></use>
                    </g>
                    <path d="M29.5539216,8 C35.0253308,8 39.4607843,12.4354535 39.4607843,17.9068627 C39.4607843,23.2369764 35.2514582,27.5839492 29.9756771,27.8049101 L29.9753781,32.3759412 L34.9332766,34.360582 C36.7427196,32.4082371 39.3291476,31.1862745 42.2009804,31.1862745 C47.6723896,31.1862745 52.1078431,35.621728 52.1078431,41.0931373 C52.1078431,46.5645465 47.6723896,51 42.2009804,51 C36.7295712,51 32.2941176,46.5645465 32.2941176,41.0931373 C32.2941176,38.8127426 33.0645947,36.7123024 34.3594285,35.037937 L29.553,33.116 L24.7484147,35.037937 C25.9905921,36.6442118 26.7501931,38.6426119 26.8099195,40.8158394 L26.8137255,41.0931373 C26.8137255,46.5645465 22.378272,51 16.9068627,51 C11.4354535,51 7,46.5645465 7,41.0931373 C7,35.621728 11.4354535,31.1862745 16.9068627,31.1862745 C19.7781996,31.1862745 22.3642303,32.4078152 24.1736291,34.3595706 L29.1323529,32.3759412 L29.1321661,27.8049101 C23.856385,27.5839492 19.6470588,23.2369764 19.6470588,17.9068627 C19.6470588,12.4354535 24.0825124,8 29.5539216,8 Z M16.9102917,44.776597 C14.7180506,44.776597 12.7823466,46.2990376 12.0668896,48.5374473 C12.0472161,48.5989987 12.0147278,48.6528892 11.9733122,48.6971145 C13.3921487,49.6204331 15.0868608,50.1568627 16.9068627,50.1568627 C18.7138796,50.1568627 20.397388,49.6280603 21.8110818,48.7167616 C21.8055881,48.7072869 21.8025041,48.6979087 21.7997284,48.6883572 C21.1268202,46.3728027 19.1550823,44.776597 16.9102917,44.776597 Z M42.2044094,44.776597 C40.0121683,44.776597 38.0764642,46.2990376 37.3610073,48.5374473 C37.3413338,48.5989987 37.3088455,48.6528892 37.2674299,48.6971145 C38.6857571,49.6202719 40.380705,50.1568627 42.2009804,50.1568627 C44.0079972,50.1568627 45.6915056,49.6280603 47.1051994,48.7167616 C47.0997058,48.7072869 47.0966217,48.6979087 47.093846,48.6883572 C46.4209379,46.3728027 44.4492,44.776597 42.2044094,44.776597 Z M16.9068627,32.0294118 C11.9011054,32.0294118 7.84313725,36.0873799 7.84313725,41.0931373 C7.84313725,43.977165 9.19013821,46.5465838 11.2893356,48.2065891 L11.2637785,48.2807511 C12.0873848,45.7039806 14.3385101,43.9334598 16.9102917,43.9334598 C19.459104,43.9334598 21.6882251,45.6720574 22.5304924,48.2000386 C24.6264554,46.5411095 25.9705882,43.9740929 25.9705882,41.0931373 C25.9705882,36.0873799 21.9126201,32.0294118 16.9068627,32.0294118 Z M42.2009804,32.0294118 C37.195223,32.0294118 33.1372549,36.0873799 33.1372549,41.0931373 C33.1372549,43.9768293 34.4839423,46.5459856 36.5827202,48.2060094 L36.5578962,48.2807511 C37.3815024,45.7039806 39.6326277,43.9334598 42.2044094,43.9334598 C44.7532216,43.9334598 46.9823428,45.6720574 47.82461,48.2000386 C49.9205731,46.5411095 51.2647059,43.9740929 51.2647059,41.0931373 C51.2647059,36.0873799 47.2067378,32.0294118 42.2009804,32.0294118 Z M16.9068627,35.4019608 C18.8858831,35.4019608 20.4901961,37.0062738 20.4901961,38.9852941 C20.4901961,40.9643145 18.8858831,42.5686275 16.9068627,42.5686275 C14.9278424,42.5686275 13.3235294,40.9643145 13.3235294,38.9852941 C13.3235294,37.0062738 14.9278424,35.4019608 16.9068627,35.4019608 Z M42.2009804,35.4019608 C44.1800007,35.4019608 45.7843137,37.0062738 45.7843137,38.9852941 C45.7843137,40.9643145 44.1800007,42.5686275 42.2009804,42.5686275 C40.22196,42.5686275 38.6176471,40.9643145 38.6176471,38.9852941 C38.6176471,37.0062738 40.22196,35.4019608 42.2009804,35.4019608 Z M16.9068627,36.245098 C15.3934942,36.245098 14.1666667,37.4719256 14.1666667,38.9852941 C14.1666667,40.4986626 15.3934942,41.7254902 16.9068627,41.7254902 C18.4202313,41.7254902 19.6470588,40.4986626 19.6470588,38.9852941 C19.6470588,37.4719256 18.4202313,36.245098 16.9068627,36.245098 Z M42.2009804,36.245098 C40.6876119,36.245098 39.4607843,37.4719256 39.4607843,38.9852941 C39.4607843,40.4986626 40.6876119,41.7254902 42.2009804,41.7254902 C43.7143489,41.7254902 44.9411765,40.4986626 44.9411765,38.9852941 C44.9411765,37.4719256 43.7143489,36.245098 42.2009804,36.245098 Z M29.5573505,21.5903225 C27.3651095,21.5903225 25.4294054,23.1127631 24.7139485,25.3511728 C24.6942749,25.4127242 24.6617867,25.4666147 24.6203711,25.51084 C26.0392076,26.4341586 27.7339196,26.9705882 29.5539216,26.9705882 C31.3609384,26.9705882 33.0444468,26.4417858 34.4581406,25.5304871 C34.452647,25.5210123 34.4495629,25.5116342 34.4467872,25.5020827 C33.773879,23.1865282 31.8021411,21.5903225 29.5573505,21.5903225 Z M29.5539216,8.84313725 C24.5481642,8.84313725 20.4901961,12.9011054 20.4901961,17.9068627 C20.4901961,20.7905548 21.8368835,23.3597111 23.9356614,25.0197349 L23.9108373,25.0944766 C24.7344436,22.5177061 26.9855689,20.7471853 29.5573505,20.7471853 C32.1064836,20.7471853 34.3358451,22.4862206 35.1778692,25.0147188 C37.2735142,23.354835 38.6176471,20.7878184 38.6176471,17.9068627 C38.6176471,12.9011054 34.5596789,8.84313725 29.5539216,8.84313725 Z M29.5539216,12.2156863 C31.5329419,12.2156863 33.1372549,13.8199993 33.1372549,15.7990196 C33.1372549,17.77804 31.5329419,19.3823529 29.5539216,19.3823529 C27.5749012,19.3823529 25.9705882,17.77804 25.9705882,15.7990196 C25.9705882,13.8199993 27.5749012,12.2156863 29.5539216,12.2156863 Z M29.5539216,13.0588235 C28.0405531,13.0588235 26.8137255,14.2856511 26.8137255,15.7990196 C26.8137255,17.3123881 28.0405531,18.5392157 29.5539216,18.5392157 C31.0672901,18.5392157 32.2941176,17.3123881 32.2941176,15.7990196 C32.2941176,14.2856511 31.0672901,13.0588235 29.5539216,13.0588235 Z" id="icon-26-7" fill="url(#linearGradient-3)" fill-rule="nonzero"></path>
                </g>
            </g>
        </g>
    </g>
</svg>