<?xml version="1.0" encoding="UTF-8"?>
<svg width="62px" height="62px" viewBox="0 0 62 62" version="1.1" xmlns="http://www.w3.org/2000/svg" xmlns:xlink="http://www.w3.org/1999/xlink">
    <title>ico-9</title>
    <defs>
        <linearGradient x1="100%" y1="100%" x2="0%" y2="0%" id="linearGradient-1">
            <stop stop-color="#1E85E9" offset="0%"></stop>
            <stop stop-color="#8671F3" offset="20.275549%"></stop>
            <stop stop-color="#C06CFD" stop-opacity="0.99" offset="70.7268792%"></stop>
            <stop stop-color="#FFBEE8" offset="100%"></stop>
        </linearGradient>
        <rect id="path-2" x="0" y="0" width="60" height="60" rx="4"></rect>
        <linearGradient x1="100%" y1="97.1836735%" x2="0%" y2="2.81632653%" id="linearGradient-3">
            <stop stop-color="#1E85E9" offset="0%"></stop>
            <stop stop-color="#8671F3" offset="20.275549%"></stop>
            <stop stop-color="#C06CFD" stop-opacity="0.99" offset="70.7268792%"></stop>
            <stop stop-color="#FFBEE8" offset="100%"></stop>
        </linearGradient>
    </defs>
    <g id="Page-1" stroke="none" stroke-width="1" fill="none" fill-rule="evenodd">
        <g id="a1qa-Clients-V1" transform="translate(-1274.000000, -1201.000000)">
            <g id="3-block" transform="translate(375.000000, 992.000000)">
                <g id="ico-9" transform="translate(900.000000, 210.000000)">
                    <g id="Rectangle" opacity="0.0620721756">
                        <use fill="#FAFAFA" xlink:href="#path-2"></use>
                        <use stroke-opacity="0.02" stroke="#000000" stroke-width="1" fill="url(#linearGradient-1)" xlink:href="#path-2"></use>
                    </g>
                    <path d="M30.5,27 C32.4329966,27 34,28.5670034 34,30.5 C34,31.8221044 33.2669404,32.9729936 32.1851038,33.5683851 L36.9681646,46.3244383 C37.080528,46.6240741 36.8868471,46.9420371 36.5848884,46.9929501 L36.5,47 L24.5,47 C24.1799888,47 23.9502767,46.7070066 24.0086301,46.4063971 L24.0318354,46.3244383 L28.8148962,33.5683851 C27.7330596,32.9729936 27,31.8221044 27,30.5 C27,28.5670034 28.5670034,27 30.5,27 Z M31.2488494,33.9197061 C31.0075863,33.9722942 30.7570287,34 30.5,34 C30.2429713,34 29.9924137,33.9722942 29.7511506,33.9197061 L25.221,46 L35.778,46 Z M30.5,28 C29.1192881,28 28,29.1192881 28,30.5 C28,31.8807119 29.1192881,33 30.5,33 C31.8807119,33 33,31.8807119 33,30.5 C33,29.1192881 31.8807119,28 30.5,28 Z M30.5,13 C40.1649831,13 48,20.8350169 48,30.5 C48,30.7761424 47.7761424,31 47.5,31 C47.2238576,31 47,30.7761424 47,30.5 C47,21.3873016 39.6126984,14 30.5,14 C21.3873016,14 14,21.3873016 14,30.5 C14,30.7761424 13.7761424,31 13.5,31 C13.2238576,31 13,30.7761424 13,30.5 C13,20.8350169 20.8350169,13 30.5,13 Z M30.5,20 C36.2989899,20 41,24.7010101 41,30.5 C41,30.7761424 40.7761424,31 40.5,31 C40.2238576,31 40,30.7761424 40,30.5 C40,25.2532949 35.7467051,21 30.5,21 C25.2532949,21 21,25.2532949 21,30.5 C21,30.7761424 20.7761424,31 20.5,31 C20.2238576,31 20,30.7761424 20,30.5 C20,24.7010101 24.7010101,20 30.5,20 Z" id="Combined-Shape" fill="url(#linearGradient-3)" fill-rule="nonzero"></path>
                </g>
            </g>
        </g>
    </g>
</svg>