<?xml version="1.0" encoding="UTF-8"?>
<svg width="23px" height="44px" viewBox="0 0 23 44" version="1.1" xmlns="http://www.w3.org/2000/svg" xmlns:xlink="http://www.w3.org/1999/xlink">
    <title>dollar_ico</title>
    <g id="Page-1" stroke="none" stroke-width="1" fill="none" fill-rule="evenodd">
        <g id="a1qa-Industry-expertise-1-2" transform="translate(-863.000000, -2590.000000)" fill="#5055FE" fill-rule="nonzero">
            <g id="3-block" transform="translate(375.000000, 1960.000000)">
                <g id="4-card" transform="translate(0.000000, 537.000000)">
                    <g id="dollar_ico" transform="translate(488.000000, 93.000000)">
                        <path d="M11.4878301,0 C11.7639724,0 11.9878301,0.223857625 11.9878301,0.5 L11.9878301,43.5 C11.9878301,43.7761424 11.7639724,44 11.4878301,44 C11.2116877,44 10.9878301,43.7761424 10.9878301,43.5 L10.9878301,0.5 C10.9878301,0.223857625 11.2116877,0 11.4878301,0 Z" id="Rectangle"></path>
                        <path d="M11.6483934,3.5 C17.7381301,3.5 21.5714348,7.1211092 22.9146021,14.0580702 C22.9670952,14.3291773 22.7898735,14.5915072 22.5187663,14.6440002 C22.2476591,14.6964933 21.9853293,14.5192715 21.9328363,14.2481644 C20.6758631,7.75636449 17.2286771,4.5 11.6483934,4.5 C4.95404914,4.5 1,7.59271723 1,12.0387505 C1,17.0127547 5.92849212,21.3033241 16.4147304,24.4768692 C26.1953684,29.0390472 22.2514861,41.0603175 11.7312696,39.9759889 C5.11858165,39.294413 1.53880232,35.7180238 0.941028873,29.1923059 C0.915838947,28.9173148 1.11834277,28.6739701 1.39333382,28.6487801 C1.66832488,28.6235902 1.91166964,28.826094 1.93685957,29.1010851 C2.49079817,35.1482709 5.6939832,38.3484224 11.8337974,38.9812588 C21.269455,39.9538008 24.7148678,29.4519058 16.0587592,25.40863 C5.26604851,22.1478246 -8.24229573e-13,17.5633906 -8.24229573e-13,12.0387505 C-8.24229573e-13,6.97916319 4.44812156,3.5 11.6483934,3.5 Z" id="Path" transform="translate(11.461906, 21.772403) scale(-1, -1) translate(-11.461906, -21.772403) "></path>
                    </g>
                </g>
            </g>
        </g>
    </g>
</svg>