<?xml version="1.0" encoding="UTF-8"?>
<svg width="44px" height="44px" viewBox="0 0 44 44" version="1.1" xmlns="http://www.w3.org/2000/svg" xmlns:xlink="http://www.w3.org/1999/xlink">
    <title>Combined Shape</title>
    <defs>
        <linearGradient x1="100%" y1="100%" x2="0%" y2="0%" id="linearGradient-1">
            <stop stop-color="#1E85E9" offset="0%"></stop>
            <stop stop-color="#8671F3" offset="20.275549%"></stop>
            <stop stop-color="#C06CFD" stop-opacity="0.99" offset="70.7268792%"></stop>
            <stop stop-color="#FFBEE8" offset="100%"></stop>
        </linearGradient>
    </defs>
    <g id="Page-1" stroke="none" stroke-width="1" fill="none" fill-rule="evenodd">
        <g id="a1qa-QA-Academy-V1" transform="translate(-935.000000, -1855.000000)" fill="url(#linearGradient-1)" fill-rule="nonzero">
            <g id="3-block" transform="translate(375.000000, 1594.000000)">
                <g id="Card-2" transform="translate(400.000000, 243.000000)">
                    <path d="M182,18 C194.150264,18 204,27.8497355 204,40 C204,52.1502645 194.150264,62 182,62 C170.302578,62 160.737399,52.8707857 160.040655,41.3485506 L160,41.3489796 L160,40.4489796 C160.0015,40.2995569 160,40.1499537 160,40 C160,27.8497355 169.849736,18 182,18 Z M167.210521,41.3483321 L160.940356,41.34857 C161.635749,52.3745177 170.798664,61.1020408 182,61.1020408 C193.201336,61.1020408 202.364251,52.3745177 203.059644,41.34857 L196.78944,41.3489929 C196.324246,49.112731 189.880628,55.2653061 182,55.2653061 C174.119148,55.2653061 167.675389,49.1123819 167.210521,41.3483321 Z M179.359,41.348 L168.110233,41.348505 C168.573825,48.6161945 174.615286,54.3673469 182,54.3673469 C189.384819,54.3673469 195.426346,48.6160317 195.889786,41.3481963 L184.64,41.348 L184.656348,41.4536892 L184.742423,42.0935623 L184.776071,42.3946708 L184.796245,42.633851 L184.802965,42.8112526 C184.802965,44.3592876 183.548035,45.614218 182,45.614218 C180.5093,45.614218 179.290395,44.450524 179.20215,42.9820014 L179.197035,42.8112526 L179.200021,42.6998418 L179.208984,42.560996 L179.257577,42.0935623 L179.343652,41.4536892 L179.359,41.348 Z M182,31.6534694 L181.344348,35.1472105 L180.846515,37.8863197 L180.509234,39.8295357 L180.271418,41.3069748 L180.17347,41.9925061 L180.123264,42.4085874 L180.102065,42.6432004 L180.094994,42.8112526 C180.094994,43.8633585 180.947894,44.7162588 182,44.7162588 C183.002006,44.7162588 183.823326,43.942653 183.899275,42.9601277 L183.905006,42.8112526 L183.897935,42.6432004 L183.876736,42.4085874 L183.82653,41.9925061 L183.678475,40.9814467 L183.454037,39.6120439 L183.05367,37.3280917 L182.528053,34.4594151 L182,31.6534694 Z M182,18.8979592 C170.345665,18.8979592 160.897959,28.3456647 160.897959,40 C160.897959,40.1500328 160.899525,40.2996999 160.902641,40.4489859 L179.5,40.448 L179.703712,39.2102916 L180.064618,37.155934 L180.78822,33.2291581 L182,26.881355 L182.607334,30.043672 L183.660514,35.6434622 L184.172307,38.4924992 L184.406663,39.865157 L184.501,40.448 L203.097359,40.4489859 C203.100475,40.2996999 203.102041,40.1500328 203.102041,40 C203.102041,28.3456647 193.654335,18.8979592 182,18.8979592 Z M201.258267,33.1221106 L201.514015,33.9828798 L197.468376,35.1849035 L197.212627,34.3241344 L201.258267,33.1221106 Z M162.771163,33.1224538 L166.777561,34.3244776 L166.519514,35.1845603 L162.513116,33.9825366 L162.771163,33.1224538 Z M182.45102,19.8535754 L182.45102,23.8693997 L181.55102,23.8693997 L181.55102,19.8535754 L182.45102,19.8535754 Z" id="Combined-Shape"></path>
                </g>
            </g>
        </g>
    </g>
</svg>