<?xml version="1.0" encoding="UTF-8"?>
<svg width="46px" height="41px" viewBox="0 0 46 41" version="1.1" xmlns="http://www.w3.org/2000/svg" xmlns:xlink="http://www.w3.org/1999/xlink">
    <title>icon-3</title>
    <defs>
        <linearGradient x1="100%" y1="89.721172%" x2="0%" y2="10.278828%" id="linearGradient-1">
            <stop stop-color="#1E85E9" offset="0%"></stop>
            <stop stop-color="#8671F3" offset="20.275549%"></stop>
            <stop stop-color="#C06CFD" stop-opacity="0.99" offset="70.7268792%"></stop>
            <stop stop-color="#FFBEE8" offset="100%"></stop>
        </linearGradient>
    </defs>
    <g id="Page-1" stroke="none" stroke-width="1" fill="none" fill-rule="evenodd">
        <g id="a1qa-Industry-expertise-1-2" transform="translate(-1204.000000, -3944.000000)" fill="url(#linearGradient-1)" fill-rule="nonzero">
            <g id="6-block" transform="translate(0.000000, 3755.000000)">
                <g id="Card-3" transform="translate(1175.000000, 165.000000)">
                    <path d="M57,24 C58.1045695,24 59,24.8954305 59,26 L59,29 L73,29 C74.1045695,29 75,29.8954305 75,31 L75,63 C75,64.1045695 74.1045695,65 73,65 L31,65 C29.8954305,65 29,64.1045695 29,63 L29,31 C29,29.8954305 29.8954305,29 31,29 L45,29 L45,26 C45,24.8954305 45.8954305,24 47,24 L57,24 Z M74.0006171,43.8748949 C72.6360619,46.3349229 70.0124808,48 67,48 L56,48 L56,51 C56,52.1045695 55.1045695,53 54,53 L50,53 C48.8954305,53 48,52.1045695 48,51 L48,48 L37,48 C33.9883325,48 31.3653547,46.3358218 30.0004884,43.8768872 L30,63 C30,63.5128358 30.3860402,63.9355072 30.8833789,63.9932723 L31,64 L73,64 C73.5128358,64 73.9355072,63.6139598 73.9932723,63.1166211 L74,63 L74.0006171,43.8748949 Z M49,51 C49,51.5128358 49.3860402,51.9355072 49.8833789,51.9932723 L50,52 L54,52 C54.5128358,52 54.9355072,51.6139598 54.9932723,51.1166211 L55,51 L55,45 C55,44.4871642 54.6139598,44.0644928 54.1166211,44.0067277 L54,44 L50,44 C49.4871642,44 49.0644928,44.3860402 49.0067277,44.8833789 L49,45 L49,51 Z M73,30 L31,30 C30.4871642,30 30.0644928,30.3860402 30.0067277,30.8833789 L30,31 L30,40 C30,43.7854517 33.0047834,46.8690987 36.7593502,46.995941 L37,47 L48,47 L48,45 C48,43.8954305 48.8954305,43 50,43 L54,43 C55.1045695,43 56,43.8954305 56,45 L56,47 L67,47 C70.7854517,47 73.8690987,43.9952166 73.995941,40.2406498 L74,40 L74,31 C74,30.4871642 73.6139598,30.0644928 73.1166211,30.0067277 L73,30 Z M57,25 L47,25 C46.4871642,25 46.0644928,25.3860402 46.0067277,25.8833789 L46,26 L46,29 L58,29 L58,26 C58,25.4871642 57.6139598,25.0644928 57.1166211,25.0067277 L57,25 Z" id="icon-3"></path>
                </g>
            </g>
        </g>
    </g>
</svg>