<?xml version="1.0" encoding="UTF-8"?>
<svg width="42px" height="46px" viewBox="0 0 42 46" version="1.1" xmlns="http://www.w3.org/2000/svg" xmlns:xlink="http://www.w3.org/1999/xlink">
    <title>telecom_ico</title>
    <g id="Page-1" stroke="none" stroke-width="1" fill="none" fill-rule="evenodd">
        <g id="a1qa-Industry-expertise-1-2" transform="translate(-1025.000000, -2273.000000)" fill="#5055FE" fill-rule="nonzero">
            <g id="3-block" transform="translate(375.000000, 1960.000000)">
                <g id="1-card" transform="translate(560.000000, 222.000000)">
                    <path d="M97.4642797,102.464571 L119.535535,124.535553 C117.677595,127.475667 114.888158,129.768491 111.581854,130.999396 L114.428746,135.742752 C114.613322,136.050379 114.422975,136.435308 114.086917,136.492708 L114,136.5 L96,136.5 C95.6569006,136.5 95.424522,136.166707 95.5215423,135.85395 L95.5527864,135.776393 L98.3992237,130.082857 C93.3975146,127.37765 90,122.085591 90,116 C90,110.301684 92.9788518,105.299116 97.4642797,102.464571 Z M99.2932928,130.530776 L96.809,135.5 L113.117,135.5 L110.612391,131.325169 C109.15189,131.764121 107.603491,132 106,132 C103.605104,132 101.333103,131.473826 99.2932928,130.530776 Z M97.338,103.752 L97.1375124,103.896379 C93.3229254,106.691674 91,111.146132 91,116 C91,124.284271 97.7157288,131 106,131 C110.85393,131 115.308437,128.677015 118.103723,124.862348 L118.247,124.661 L97.338,103.752 Z M115,104.5 C116.932997,104.5 118.5,106.067003 118.5,108 C118.5,109.932997 116.932997,111.5 115,111.5 C113.067003,111.5 111.5,109.932997 111.5,108 C111.5,106.067003 113.067003,104.5 115,104.5 Z M115,105.5 C113.619288,105.5 112.5,106.619288 112.5,108 C112.5,109.380712 113.619288,110.5 115,110.5 C116.380712,110.5 117.5,109.380712 117.5,108 C117.5,106.619288 116.380712,105.5 115,105.5 Z M115,91.5 C124.112698,91.5 131.5,98.8873016 131.5,108 C131.5,108.276142 131.276142,108.5 131,108.5 C130.723858,108.5 130.5,108.276142 130.5,108 C130.5,99.4395864 123.560414,92.5 115,92.5 C114.723858,92.5 114.5,92.2761424 114.5,92 C114.5,91.7238576 114.723858,91.5 115,91.5 Z M116.100643,97.5647491 L116.190855,97.5668313 C121.123654,98.12397 125.009683,102.092932 125.456991,107.04354 C125.48184,107.318562 125.279035,107.561656 125.004013,107.586505 C124.728991,107.611354 124.485897,107.408549 124.461048,107.133527 C124.056484,102.655986 120.539946,99.0644008 116.078623,98.5605133 C115.804225,98.5295212 115.606906,98.2819539 115.637898,98.0075562 C115.665447,97.7636471 115.864116,97.5806395 116.100643,97.5647491 Z" id="telecom_ico"></path>
                </g>
            </g>
        </g>
    </g>
</svg>