<?xml version="1.0" encoding="UTF-8"?>
<svg width="62px" height="62px" viewBox="0 0 62 62" version="1.1" xmlns="http://www.w3.org/2000/svg" xmlns:xlink="http://www.w3.org/1999/xlink">
    <title>ico-1</title>
    <defs>
        <linearGradient x1="100%" y1="100%" x2="0%" y2="0%" id="linearGradient-1">
            <stop stop-color="#1E85E9" offset="0%"></stop>
            <stop stop-color="#8671F3" offset="20.275549%"></stop>
            <stop stop-color="#C06CFD" stop-opacity="0.99" offset="70.7268792%"></stop>
            <stop stop-color="#FFBEE8" offset="100%"></stop>
        </linearGradient>
        <rect id="path-2" x="0" y="0" width="60" height="60" rx="3.99999976"></rect>
        <linearGradient x1="100%" y1="95.8061224%" x2="0%" y2="4.19387755%" id="linearGradient-3">
            <stop stop-color="#1E85E9" offset="0%"></stop>
            <stop stop-color="#8671F3" offset="20.275549%"></stop>
            <stop stop-color="#C06CFD" stop-opacity="0.99" offset="70.7268792%"></stop>
            <stop stop-color="#FFBEE8" offset="100%"></stop>
        </linearGradient>
    </defs>
    <g id="Page-1" stroke="none" stroke-width="1" fill="none" fill-rule="evenodd">
        <g id="a1qa-QA-Academy-V1" transform="translate(-632.000000, -3198.000000)">
            <g id="5-block" transform="translate(375.000000, 2947.000000)">
                <g id="ico-1" transform="translate(258.000000, 252.000000)">
                    <g id="Rectangle" opacity="0.0620721756">
                        <use fill="#FAFAFA" xlink:href="#path-2"></use>
                        <use stroke-opacity="0.02" stroke="#000000" stroke-width="1" fill="url(#linearGradient-1)" xlink:href="#path-2"></use>
                    </g>
                    <path d="M39.5,12 C39.7761424,12 40,12.2238576 40,12.5 L40,15.5 L46,15.5 C46.7796961,15.5 47.4204487,16.0948881 47.4931334,16.85554 L47.5,17 L47.5,44 C47.5,44.8284271 46.8284271,45.5 46,45.5 L46,45.5 L14,45.5 C13.1715729,45.5 12.5,44.8284271 12.5,44 L12.5,44 L12.5,17 C12.5,16.1715729 13.1715729,15.5 14,15.5 L14,15.5 L20,15.5 L20,12.5 C20,12.2238576 20.2238576,12 20.5,12 C20.7761424,12 21,12.2238576 21,12.5 L21,15.5 L39,15.5 L39,12.5 C39,12.2238576 39.2238576,12 39.5,12 Z M46.5,22.999 L13.5,23 L13.5,44 C13.5,44.2454599 13.6768752,44.4496084 13.9101244,44.4919443 L14,44.5 L46,44.5 C46.2761424,44.5 46.5,44.2761424 46.5,44 L46.5,44 L46.5,22.999 Z M36.3420081,29.5299508 C36.5234449,29.6952725 36.5552168,29.9635111 36.4294127,30.1644362 L36.3748344,30.2362952 L29.0853871,38.2362952 C28.9266319,38.4105255 28.6720708,38.4473017 28.473375,38.3369328 L28.3920822,38.2805946 L23.6815294,34.2788509 C23.4710766,34.1000655 23.4454051,33.7845255 23.6241905,33.5740727 C23.7831109,33.3870036 24.0500842,33.3459345 24.2552574,33.4646842 L24.3289687,33.5167339 L28.671,37.205 L35.6356637,29.562777 C35.8216506,29.3586607 36.1378918,29.3439639 36.3420081,29.5299508 Z M20,16.5 L14,16.5 C13.7238576,16.5 13.5,16.7238576 13.5,17 L13.5,17 L13.5,22 L46.5,21.999 L46.5,17 C46.5,16.7545401 46.3231248,16.5503916 46.0898756,16.5080557 L46,16.5 L40,16.5 L40,18.5 C40,18.7761424 39.7761424,19 39.5,19 C39.2238576,19 39,18.7761424 39,18.5 L39,16.5 L21,16.5 L21,18.5 C21,18.7761424 20.7761424,19 20.5,19 C20.2238576,19 20,18.7761424 20,18.5 L20,16.5 Z" id="Combined-Shape" fill="url(#linearGradient-3)" fill-rule="nonzero"></path>
                </g>
            </g>
        </g>
    </g>
</svg>