<?xml version="1.0" encoding="UTF-8"?>
<svg width="42px" height="42px" viewBox="0 0 42 42" version="1.1" xmlns="http://www.w3.org/2000/svg" xmlns:xlink="http://www.w3.org/1999/xlink">
    <title>Combined Shape</title>
    <defs>
        <linearGradient x1="100%" y1="100%" x2="0%" y2="0%" id="linearGradient-1">
            <stop stop-color="#1E85E9" offset="0%"></stop>
            <stop stop-color="#8671F3" offset="20.275549%"></stop>
            <stop stop-color="#C06CFD" stop-opacity="0.99" offset="70.7268792%"></stop>
            <stop stop-color="#FFBEE8" offset="100%"></stop>
        </linearGradient>
    </defs>
    <g id="Page-1" stroke="none" stroke-width="1" fill="none" fill-rule="evenodd">
        <g id="a1qa-process-maturity" transform="translate(-1337.000000, -760.000000)" fill="url(#linearGradient-1)" fill-rule="nonzero">
            <g id="1st-block" transform="translate(375.000000, 590.000000)">
                <g id="Card-1" transform="translate(800.000000, 144.000000)">
                    <path d="M184.6128,26 C185.61366,26.00714 186.47718,26.7035 186.696,27.68 L187.2,30.4016 C187.4688,31.35584 188.145,32.14292 189.048,32.552 C189.97242,32.9153 191.01276,32.83466 191.8704,32.3336 L193.92,30.788 C194.78142,30.18194 195.95448,30.28862 196.692,31.04 L198.96,33.2912 C199.72062,34.03124 199.82772,35.21564 199.212,36.08 L197.6496,38.264 C196.82052,39.78818 197.38416,41.69582 198.90834,42.5249 C199.12674,42.64376 199.35858,42.73574 199.5984,42.8 L202.32,43.304 C203.29062,43.52156 203.9853,44.37584 204,45.3704 L204,48.6128 C203.9853,49.60694 203.29062,50.46164 202.32,50.6792 L199.5984,51.2 C197.91252,51.61118 196.87932,53.3105 197.2905,54.99638 C197.36568,55.30382 197.48664,55.59866 197.6496,55.8704 L199.212,58.0544 C199.75296,58.89062 199.6488,59.98892 198.96,60.7088 L196.692,62.96 C195.95616,63.66434 194.82678,63.7559 193.98762,63.1784 L191.80362,61.616 C190.29498,60.75878 188.37768,61.28672 187.52046,62.79536 C187.37682,63.04736 187.2693,63.31742 187.20042,63.5984 L186.696,66.32 C186.47718,67.2965 185.61366,67.99286 184.6128,68 L181.3872,68 C180.39264,67.9853 179.53836,67.29062 179.3208,66.32 L178.8,63.5984 C178.38882,61.91252 176.6895,60.87932 175.00362,61.2905 C174.69576,61.36568 174.40092,61.48664 174.12918,61.6496 L172.08,63.212 C171.219,63.81806 170.04552,63.71138 169.308,62.96 L167.04,60.70922 C166.27938,59.96876 166.17228,58.78478 166.788,57.92 L168.3504,55.736 C169.17948,54.21182 168.61542,52.30418 167.09124,51.4751 C166.94564,51.39614 166.794253,51.3285667 166.638324,51.2733756 L166.40118,51.2 L163.68,50.696 C162.70938,50.47844 162.0147,49.62416 162,48.6296 L162,45.3872 C162.00714,44.38634 162.7035,43.52282 163.68,43.304 L166.4016,42.8 C168.08244,42.37034 169.09674,40.65884 168.66708,38.978 C168.59694,38.70458 168.49068,38.44208 168.35082,38.1968 L166.788,36.08 C166.17228,35.21564 166.27938,34.03124 167.04,33.2912 L169.308,31.04 C170.04552,30.28862 171.219,30.18194 172.08,30.788 L174.264,32.3504 C175.78818,33.17948 177.69582,32.61542 178.5249,31.09124 C178.64376,30.87284 178.73574,30.64142 178.8,30.40118 L179.304,27.68 C179.52156,26.70938 180.37584,26.0147 181.3704,26 L184.6128,26 Z M184.604915,27.1051424 L181.386734,27.1051424 C180.947343,27.1116368 180.564326,27.391165 180.42506,27.7661161 L180.39078,27.8812866 L179.867727,30.6867782 C179.780737,31.011995 179.656112,31.3248396 179.495818,31.6193726 C178.411182,33.6133668 175.961072,34.3915209 173.936808,33.4239176 L173.735867,33.3213185 L173.620925,33.2493222 L171.443808,31.6918068 C171.063469,31.4240854 170.557555,31.4425961 170.191863,31.7301265 L170.086628,31.824439 L167.810749,34.0833826 C167.474664,34.4103742 167.401112,34.9158498 167.607011,35.309179 L167.677182,35.4235227 L169.240002,37.5403227 L169.310963,37.6493214 C169.499629,37.9801956 169.643043,38.3344533 169.737911,38.7042718 C170.300604,40.9055396 169.031334,43.1454529 166.819789,43.8258614 L166.602857,43.8867854 L163.92168,44.3825162 C163.490274,44.4791883 163.171363,44.834799 163.114358,45.258303 L163.105142,45.3872 L163.105142,48.6132655 C163.111637,49.0526571 163.391165,49.4356744 163.766116,49.5749403 L163.881287,49.6092202 L166.602467,50.1132202 L166.727881,50.1441246 L167.007113,50.2314536 C167.217135,50.3057908 167.421399,50.3968178 167.619373,50.5041815 C169.613367,51.5888177 170.391521,54.0389284 169.423918,56.063192 L169.321318,56.2641326 L169.249322,56.3790751 L167.688364,58.5610554 C167.416189,58.9433251 167.434435,59.4537174 167.723673,59.8195636 L167.818555,59.9247084 L170.09678,62.1857697 C170.42254,62.5176513 170.923493,62.5906713 171.300706,62.398638 L171.409859,62.3330703 L173.459039,60.7706703 L173.560742,60.7017154 C173.927516,60.4817647 174.325571,60.3183389 174.741727,60.2167129 C176.949402,59.6782689 179.174396,60.9721804 179.827339,63.1747143 L179.885566,63.3906682 L180.399303,66.0782586 C180.495469,66.5072954 180.847284,66.8252365 181.261317,66.8847747 L181.3872,66.894765 L184.604915,66.894765 C185.047256,66.8916094 185.434291,66.6116303 185.574709,66.2344664 L185.609245,66.1185813 L186.126941,63.3352453 C186.220275,62.9545124 186.365973,62.5888368 186.559492,62.2493312 C187.680897,60.2757468 190.144549,59.5436756 192.150632,60.5487191 L192.349649,60.6550321 L192.446695,60.7170778 L194.614209,62.2679094 C194.98449,62.5227327 195.471548,62.5092413 195.814928,62.2580265 L195.913372,62.175561 L198.161412,59.9446901 C198.462738,59.6297675 198.533898,59.1659953 198.374682,58.8113096 L198.313078,58.6974751 L196.701715,56.4388377 C196.481888,56.0722695 196.318457,55.6743452 196.216713,55.2582728 C195.678269,53.0505975 196.97218,50.8256045 199.174714,50.1726609 L199.390668,50.1144337 L202.078259,49.6006974 C202.507134,49.5045671 202.825207,49.1525245 202.884771,48.7386299 L202.894858,48.6128 L202.894858,45.3867345 C202.888363,44.9473429 202.608835,44.5643256 202.233906,44.4250638 L202.118743,44.3907854 L199.312335,43.8676018 C198.987352,43.7805221 198.674295,43.6558699 198.380207,43.4958185 C196.386253,42.4112039 195.608434,39.9611114 196.576079,37.9368118 L196.678682,37.7358674 L196.750678,37.6209249 L198.311784,35.438738 C198.583774,35.0569123 198.565502,34.5464518 198.276256,34.1807375 L198.181372,34.075639 L195.90322,31.8142303 C195.577417,31.4823049 195.0767,31.4092982 194.695838,31.6040157 L194.58547,31.6704715 L192.53587,33.2160715 L192.427949,33.2879299 C191.277949,33.9597956 189.883161,34.0677753 188.591909,33.558771 C187.467015,33.0491676 186.606864,32.0981535 186.190514,30.8552787 L186.113215,30.6028566 L185.617484,27.9216804 C185.511145,27.4471338 185.09149,27.1087062 184.604915,27.1051424 Z M176.535481,41.6189836 C176.745777,41.4132883 177.073146,41.4277308 177.26668,41.6512419 L177.26668,41.6512419 L185.576128,51.2471687 L191.024665,47.1281074 L191.105299,47.0780302 C191.327419,46.9672771 191.599053,47.0375146 191.746289,47.2575473 C191.911929,47.5050841 191.857403,47.8484683 191.624502,48.0245173 L191.624502,48.0245173 L185.803599,52.424509 L185.720593,52.4757252 C185.520018,52.5743107 185.277384,52.5271541 185.122906,52.3487483 L185.122906,52.3487483 L176.50513,42.3961304 L176.448275,42.317384 C176.317044,42.0970554 176.348551,41.8018239 176.535481,41.6189836 Z" id="Combined-Shape" transform="translate(183.000000, 47.000000) scale(-1, 1) translate(-183.000000, -47.000000) "></path>
                </g>
            </g>
        </g>
    </g>
</svg>