<?xml version="1.0" encoding="UTF-8"?>
<svg width="38px" height="46px" viewBox="0 0 38 46" version="1.1" xmlns="http://www.w3.org/2000/svg" xmlns:xlink="http://www.w3.org/1999/xlink">
    <title>ecomm_ico</title>
    <g id="Page-1" stroke="none" stroke-width="1" fill="none" fill-rule="evenodd">
        <g id="a1qa-Industry-expertise-1-2" transform="translate(-1031.000000, -2484.000000)" fill="#5055FE" fill-rule="nonzero">
            <g id="3-block" transform="translate(375.000000, 1960.000000)">
                <g id="3-card" transform="translate(560.000000, 432.000000)">
                    <path d="M115,92.5 C120.461815,92.5 124.94962,96.670235 125.45303,102.000321 L129.159734,102 C130.199912,102 131.066444,102.797325 131.152826,103.833909 L133.819492,135.833909 C133.911222,136.934663 133.093246,137.901362 131.992492,137.993092 C131.937248,137.997695 131.881836,138 131.826401,138 L98.1735991,138 C97.0690296,138 96.1735991,137.104569 96.1735991,136 C96.1735991,135.944565 96.1759039,135.889153 96.1805076,135.833909 L98.8471742,103.833909 C98.9335563,102.797325 99.8000885,102 100.840266,102 L104.54697,102.000321 C105.05038,96.670235 109.538185,92.5 115,92.5 Z M129.159734,103 L100.840266,103 C100.360184,103 99.9540811,103.339689 99.8604735,103.799599 L99.84372,103.916955 L97.1770533,135.916955 C97.1747515,135.944577 97.1735991,135.972282 97.1735991,136 C97.1735991,136.512836 97.5596393,136.935507 98.056978,136.993272 L98.1735991,137 L131.826401,137 C131.854119,137 131.881824,136.998848 131.909446,136.996546 C132.420511,136.953957 132.809663,136.534149 132.825927,136.033732 L132.822947,135.916955 L130.15628,103.916955 C130.116411,103.438531 129.744171,103.062041 129.278075,103.00695 L129.159734,103 Z M115,93.5 C110.0909,93.5 106.051479,97.2235392 105.551963,102.000392 L124.448037,102.000392 C123.948521,97.2235392 119.9091,93.5 115,93.5 Z" id="ecomm_ico"></path>
                </g>
            </g>
        </g>
    </g>
</svg>