<?xml version="1.0" encoding="UTF-8"?>
<svg width="33px" height="47px" viewBox="0 0 33 47" version="1.1" xmlns="http://www.w3.org/2000/svg" xmlns:xlink="http://www.w3.org/1999/xlink">
    <title>it_ico</title>
    <g id="Page-1" stroke="none" stroke-width="1" fill="none" fill-rule="evenodd">
        <g id="a1qa-Industry-expertise-1-2" transform="translate(-854.000000, -2792.000000)" fill="#5055FE" fill-rule="nonzero">
            <g id="3-block" transform="translate(375.000000, 1960.000000)">
                <g id="6-card" transform="translate(0.000000, 747.000000)">
                    <path d="M502.867731,85.9841037 L480.1541,108.580921 C479.292323,109.438266 479.280589,110.837716 480.127798,111.709661 C480.540495,112.134407 481.105324,112.373993 481.695252,112.373993 L489.381914,112.373993 C489.921782,112.373993 490.361842,112.819281 490.361842,113.371505 C490.361842,113.494441 490.339515,113.616294 490.296012,113.73093 L484.418161,129.219692 C484.090217,130.083859 484.517031,131.0542 485.375091,131.38761 C485.966042,131.617232 486.634713,131.489108 487.100893,131.057585 L510.788635,109.130835 C511.680501,108.305272 511.74199,106.907137 510.926469,106.005059 C510.510701,105.545163 509.922147,105.282817 509.304738,105.282817 L501.809508,105.282817 C501.26964,105.282817 500.82958,104.837529 500.82958,104.285305 C500.82958,104.189208 500.843223,104.093626 500.870077,104.00152 L505.636288,87.6537525 L505.676645,87.4794774 C505.816861,86.6193669 505.31865,85.810288 504.510842,85.5691404 C503.928791,85.3953862 503.299433,85.5546221 502.867731,85.9841037 Z M504.224795,86.527356 C504.547886,86.6238055 504.749986,86.9520099 504.695374,87.2893372 L504.668576,87.4035717 L499.910047,103.721622 C499.856675,103.904685 499.82958,104.094509 499.82958,104.285305 C499.82958,105.387187 500.714694,106.282817 501.809508,106.282817 L509.304738,106.282817 C509.638914,106.282817 509.958144,106.425113 510.184669,106.675681 C510.633048,107.171649 510.599098,107.943622 510.109333,108.396976 L486.421591,130.323726 C486.235748,130.495753 485.971277,130.546428 485.737273,130.455503 C485.392947,130.32171 485.21933,129.927 485.353103,129.574494 L491.230953,114.085732 C491.317487,113.857706 491.361842,113.615627 491.361842,113.371505 C491.361842,112.269623 490.476728,111.373993 489.381914,111.373993 L481.695252,111.373993 C481.375992,111.373993 481.069726,111.244083 480.845005,111.012801 C480.379421,110.533623 480.3859,109.760895 480.859381,109.289848 L503.573012,86.6930311 C503.745307,86.5216228 503.994437,86.4585895 504.224795,86.527356 Z" id="it_ico"></path>
                </g>
            </g>
        </g>
    </g>
</svg>