<?xml version="1.0" encoding="UTF-8"?>
<svg width="32px" height="27px" viewBox="0 0 32 27" version="1.1" xmlns="http://www.w3.org/2000/svg" xmlns:xlink="http://www.w3.org/1999/xlink">
    <title>Combined Shape</title>
    <defs>
        <linearGradient x1="100%" y1="85.5957031%" x2="0%" y2="14.4042969%" id="linearGradient-1">
            <stop stop-color="#1E85E9" offset="0%"></stop>
            <stop stop-color="#8671F3" offset="20.275549%"></stop>
            <stop stop-color="#C06CFD" stop-opacity="0.99" offset="70.7268792%"></stop>
            <stop stop-color="#FFBEE8" offset="100%"></stop>
        </linearGradient>
    </defs>
    <g id="Page-1" stroke="none" stroke-width="1" fill="none" fill-rule="evenodd">
        <g id="a1qa-process-maturity" transform="translate(-605.000000, -2460.000000)" fill="url(#linearGradient-1)" fill-rule="nonzero">
            <g id="6-block" transform="translate(0.000000, 1936.000000)">
                <g id="Card-1-Copy" transform="translate(575.000000, 494.000000)">
                    <path d="M59.7777778,30 C61.0050772,30 62,30.8394661 62,31.875 L62,31.875 L62,55.125 C62,56.1605339 61.0050772,57 59.7777778,57 L59.7777778,57 L32.2222222,57 C30.9949228,57 30,56.1605339 30,55.125 L30,55.125 L30,31.875 C30,30.8394661 30.9949228,30 32.2222222,30 L32.2222222,30 Z M61.111,35.4 L30.8888889,35.4 L30.8888889,55.125 C30.8888889,55.7463203 31.4858426,56.25 32.2222222,56.25 L32.2222222,56.25 L59.7777778,56.25 C60.5141574,56.25 61.1111111,55.7463203 61.1111111,55.125 L61.1111111,55.125 L61.111,35.4 Z M36.3607777,37.8231921 L36.416176,37.8746192 L42.816176,44.9857303 C42.9550291,45.1400115 42.9704572,45.3794999 42.8624604,45.552716 L42.816176,45.6142697 L36.416176,52.7253808 C36.2599663,52.8989471 36.0067003,52.8989471 35.8504906,52.7253808 C35.7116375,52.5710996 35.6962094,52.3316112 35.8042063,52.1583951 L35.8504906,52.0968414 L41.9678013,45.3 L35.8504906,38.5031586 C35.7116375,38.3488774 35.6962094,38.109389 35.8042063,37.9361729 L35.8504906,37.8746192 C35.9893437,37.720338 36.2048832,37.7031957 36.3607777,37.8231921 Z M56.2222222,50.7 C56.4676821,50.7 56.6666667,50.9014719 56.6666667,51.15 C56.6666667,51.3709139 56.5094443,51.5546475 56.3021117,51.5927499 L56.2222222,51.6 L45.5555556,51.6 C45.3100957,51.6 45.1111111,51.3985281 45.1111111,51.15 C45.1111111,50.9290861 45.2683335,50.7453525 45.4756661,50.7072501 L45.5555556,50.7 L56.2222222,50.7 Z M59.7777778,30.75 L38.011,30.75 L38.0111111,34.5 L61.111,34.5 L61.1111111,31.875 C61.1111111,31.2925122 60.5864448,30.8134195 59.9141034,30.7558082 L59.7777778,30.75 Z M37.111,30.75 L32.2222222,30.75 C31.4858426,30.75 30.8888889,31.2536797 30.8888889,31.875 L30.8888889,31.875 L30.8888889,34.5 L37.1111111,34.5 L37.111,30.75 Z" id="Combined-Shape"></path>
                </g>
            </g>
        </g>
    </g>
</svg>