<?xml version="1.0" encoding="UTF-8"?>
<svg width="41px" height="41px" viewBox="0 0 41 41" version="1.1" xmlns="http://www.w3.org/2000/svg" xmlns:xlink="http://www.w3.org/1999/xlink">
    <title>ico_2</title>
    <defs>
        <linearGradient x1="100%" y1="99.9978513%" x2="0%" y2="0.00214866046%" id="linearGradient-1">
            <stop stop-color="#1E85E9" offset="0%"></stop>
            <stop stop-color="#8671F3" offset="20.275549%"></stop>
            <stop stop-color="#C06CFD" stop-opacity="0.99" offset="70.7268792%"></stop>
            <stop stop-color="#FFBEE8" offset="100%"></stop>
        </linearGradient>
    </defs>
    <g id="Page-1" stroke="none" stroke-width="1" fill="none" fill-rule="evenodd">
        <g id="a1qa-Industry-expertise-1-2" transform="translate(-803.000000, -750.000000)" fill="url(#linearGradient-1)" fill-rule="nonzero">
            <g id="1-block" transform="translate(374.000000, 590.000000)">
                <g id="card-2" transform="translate(400.000000, 140.000000)">
                    <path d="M65.4907227,40 C65.766865,40 65.9907227,40.2238576 65.9907227,40.5 L65.9907227,40.5 L65.99,48.505 L69.5,48.5056152 C69.8775528,48.5056152 70.1085142,48.9018193 69.9504699,49.2234004 L69.9504699,49.2234004 L69.9069824,49.2960724 L61.7036132,60.7904572 C61.50325,61.0712018 61.0855158,61.0695554 60.8873717,60.7872403 L60.8873717,60.7872403 L52.8199889,49.2928555 C52.587442,48.9615233 52.824453,48.5056152 53.229248,48.5056152 L53.229248,48.5056152 L57.102,48.505 L57.1020508,40.5 C57.1020508,40.2545401 57.2789259,40.0503916 57.5121751,40.0080557 L57.5121751,40.0080557 L57.6020508,40 Z M64.99,41 L58.102,41 L58.1020508,49.0056152 C58.1020508,49.2510751 57.9251756,49.4552236 57.6919264,49.4975596 L57.6919264,49.4975596 L57.6020508,49.5056152 L54.19,49.505 L61.299,59.634 L68.529,49.505 L65.4907227,49.5056152 C65.2452628,49.5056152 65.0411143,49.3287401 64.9987783,49.0954909 L64.9987783,49.0954909 L64.9907227,49.0056152 L64.99,41 Z M46.5,20 C56.1649831,20 64,27.8350169 64,37.5 C64,37.7761424 63.7761424,38 63.5,38 C63.2238576,38 63,37.7761424 63,37.5 C63,28.3873016 55.6126984,21 46.5,21 C37.3873016,21 30,28.3873016 30,37.5 C30,46.6126984 37.3873016,54 46.5,54 C48.6931011,54 50.8257107,53.5722056 52.8077516,52.7515305 C53.0628881,52.6458898 53.3553559,52.7670801 53.4609966,53.0222167 C53.5666373,53.2773532 53.4454469,53.569821 53.1903104,53.6754617 C51.0875043,54.5461402 48.8249557,55 46.5,55 C36.8350169,55 29,47.1649831 29,37.5 C29,27.8350169 36.8350169,20 46.5,20 Z M47,27 C47.2454599,27 47.4496084,27.1768752 47.4919443,27.4101244 L47.5,27.5 L47.50152,29.135686 C49.3464083,29.5077521 50.5590191,30.9601482 51.096703,33.4022545 C51.1560798,33.6719377 50.9855927,33.9386935 50.7159095,33.9980702 C50.4462264,34.0574469 50.1794706,33.8869599 50.1200939,33.6172767 C49.6856212,31.6439457 48.8249071,30.5186064 47.5014296,30.1636582 L47.5,37.179 L48.2602171,37.5257721 C48.6183991,37.6921742 48.9861775,37.8682919 49.2083149,37.9898598 C50.7455621,38.8311405 51.6518555,39.829008 51.6518555,41.1665039 C51.6518555,43.9178555 50.5947538,45.3567496 47.5009199,45.6379467 L47.5,48.3291016 C47.5,48.6052439 47.2761424,48.8291016 47,48.8291016 C46.7545401,48.8291016 46.5503916,48.6522264 46.5080557,48.4189772 L46.5,48.3291016 L46.5014368,45.6878619 C46.4256202,45.6889233 46.3488099,45.6894531 46.2709961,45.6894531 C43.0941595,45.6894531 41.4335937,43.8941054 41.4335937,40.5 C41.4335937,40.2238576 41.6574514,40 41.9335937,40 C42.2097361,40 42.4335937,40.2238576 42.4335937,40.5 C42.4335937,43.3584987 43.6646296,44.6894531 46.2709961,44.6894531 L46.5,44.687 L46.5,37.798 L43.7897673,36.3376233 C42.5132379,35.6374251 42.4197226,35.5387137 42.1357317,35.2294899 L42.0434467,35.1295954 C41.55857,34.6106072 41.4335937,34.1186897 41.4335937,33.1308594 C41.4335937,30.624577 43.2397098,29.0400391 46.5,29.0400391 L46.5,27.5 C46.5,27.2238576 46.7238576,27 47,27 Z M47.4999821,38.2771274 L47.5009744,44.6388795 C49.9695709,44.4102591 50.6518555,43.3866537 50.6518555,41.1665039 C50.6518555,40.2933279 49.9773718,39.5506927 48.7282396,38.867087 L48.5211671,38.7594221 C48.2392131,38.6179923 47.8443764,38.4346772 47.4999821,38.2771274 Z M46.5,30.0400391 C43.7649941,30.0400391 42.4335937,31.2081004 42.4335937,33.1308594 L42.4398545,33.4713184 C42.4595966,33.9276309 42.5302373,34.1554884 42.7100853,34.3740865 L42.9418968,34.6233137 C43.2222317,34.8980823 43.6139683,35.1145552 46.4995624,36.6638599 L46.5,30.0400391 L46.5,30.0400391 Z" id="ico_2"></path>
                </g>
            </g>
        </g>
    </g>
</svg>