<?xml version="1.0" encoding="UTF-8"?>
<svg width="62px" height="62px" viewBox="0 0 62 62" version="1.1" xmlns="http://www.w3.org/2000/svg" xmlns:xlink="http://www.w3.org/1999/xlink">
    <title>icon-31-6</title>
    <defs>
        <linearGradient x1="100%" y1="100%" x2="0%" y2="0%" id="linearGradient-1">
            <stop stop-color="#1E85E9" offset="0%"></stop>
            <stop stop-color="#8671F3" offset="20.276%"></stop>
            <stop stop-color="#C06CFD" stop-opacity="0.99" offset="70.727%"></stop>
            <stop stop-color="#FFBEE8" offset="100%"></stop>
        </linearGradient>
        <linearGradient x1="100%" y1="98.8167925%" x2="0%" y2="1.18320745%" id="linearGradient-2">
            <stop stop-color="#1E85E9" offset="0%"></stop>
            <stop stop-color="#8671F3" offset="20.276%"></stop>
            <stop stop-color="#C06CFD" stop-opacity="0.99" offset="70.727%"></stop>
            <stop stop-color="#FFBEE8" offset="100%"></stop>
        </linearGradient>
    </defs>
    <g id="Page-1" stroke="none" stroke-width="1" fill="none" fill-rule="evenodd">
        <g id="a1qa-QA-Academy-V1" transform="translate(-434.000000, -3198.000000)" fill-rule="nonzero">
            <g id="5-block" transform="translate(375.000000, 2947.000000)">
                <g id="icon-31-6" transform="translate(60.000000, 252.000000)">
                    <g id="Group" opacity="0.062">
                        <g id="ico-services-4-a-link" fill="#FAFAFA">
                            <rect id="ico-services-4-a" x="0" y="0" width="60" height="60" rx="4"></rect>
                        </g>
                        <g id="ico-services-4-a-link" fill="url(#linearGradient-1)" stroke="#000000" stroke-opacity="0.02">
                            <rect id="ico-services-4-a" x="0" y="0" width="60" height="60" rx="4"></rect>
                        </g>
                    </g>
                    <path d="M46,7.5 C46.8284271,7.5 47.5,8.17157288 47.5,9 L47.5,9 L47.5009942,12.043548 C49.4802933,12.3342019 51,14.0445963 51,16.1111111 L51,39.75 C51,42.020504 49.1654595,43.8611111 46.902439,43.8611111 L36.755,43.861 L38.7073171,49 L22.3170732,49 L24.268,43.861 L13.097561,43.8611111 C10.8345405,43.8611111 9,42.020504 9,39.75 L9,16.1111111 C9,13.8406071 10.8345405,12 13.097561,12 L30.5,12 L30.5,9 C30.5,8.22030388 31.0948881,7.57955132 31.85554,7.50686658 L32,7.5 Z M35.6597561,43.8611111 L25.3636098,43.8611111 L23.802439,47.9722222 L37.2209268,47.9722222 L35.6597561,43.8611111 Z M49.975,35.638 L10.024,35.638 L10.024,39.75 C10.024,41.3920609 11.3037717,42.7343181 12.9169889,42.8280992 L13.097561,42.8333333 L46.902439,42.8333333 C48.5390877,42.8333333 49.8769209,41.5497211 49.9703929,39.9311693 L49.9756098,39.75 L49.975,35.638 Z M30,37.6944444 C30.8486327,37.6944444 31.5365854,38.3846721 31.5365854,39.2361111 C31.5365854,40.0875501 30.8486327,40.7777778 30,40.7777778 C29.1513673,40.7777778 28.4634146,40.0875501 28.4634146,39.2361111 C28.4634146,38.3846721 29.1513673,37.6944444 30,37.6944444 Z M30,38.7222222 C29.7171224,38.7222222 29.4878049,38.9522981 29.4878049,39.2361111 C29.4878049,39.5199241 29.7171224,39.75 30,39.75 C30.2828776,39.75 30.5121951,39.5199241 30.5121951,39.2361111 C30.5121951,38.9522981 30.2828776,38.7222222 30,38.7222222 Z M30.5,13.027 L13.097561,13.0277778 C11.4609123,13.0277778 10.1230791,14.31139 10.0296071,15.9299419 L10.024,16.1111111 L10.024,34.611 L49.975,34.611 L49.9756098,16.1111111 C49.9756098,14.6136675 48.9116567,13.3655453 47.5008282,13.0861931 L47.5,17 C47.5,17.8284271 46.8284271,18.5 46,18.5 L46,18.5 L41.215,18.5 L39.3207614,20.357134 C39.1464709,20.5279117 38.8787646,20.5453953 38.685346,20.410592 L38.685346,20.410592 L38.6166238,20.3529042 L36.77,18.5 L32,18.5 C31.2203039,18.5 30.5795513,17.9051119 30.5068666,17.14446 L30.5068666,17.14446 L30.5,17 L30.5,13.027 Z M31.5,17 C31.5,17.2761424 31.7238576,17.5 32,17.5 L32,17.5 L36.9781494,17.5 C37.1110755,17.5 37.2385304,17.5529306 37.3323508,17.6470958 L37.3323508,17.6470958 L38.974,19.295 L40.6620267,17.642866 C40.7321207,17.5741847 40.8203123,17.5281632 40.9152276,17.5094451 L40.9152276,17.5094451 L41.0119629,17.5 L46,17.5 C46.2761424,17.5 46.5,17.2761424 46.5,17 L46.5,17 L46.5,9 C46.5,8.72385763 46.2761424,8.5 46,8.5 L46,8.5 L32,8.5 C31.7238576,8.5 31.5,8.72385763 31.5,9 L31.5,9 Z" id="Combined-Shape" fill="url(#linearGradient-2)"></path>
                </g>
            </g>
        </g>
    </g>
</svg>