<?xml version="1.0" encoding="UTF-8"?>
<svg width="62px" height="62px" viewBox="0 0 62 62" version="1.1" xmlns="http://www.w3.org/2000/svg" xmlns:xlink="http://www.w3.org/1999/xlink">
    <title>ico</title>
    <defs>
        <linearGradient x1="100%" y1="100%" x2="0%" y2="0%" id="linearGradient-1">
            <stop stop-color="#1E85E9" offset="0%"></stop>
            <stop stop-color="#8671F3" offset="20.275549%"></stop>
            <stop stop-color="#C06CFD" stop-opacity="0.99" offset="70.7268792%"></stop>
            <stop stop-color="#FFBEE8" offset="100%"></stop>
        </linearGradient>
        <rect id="path-2" x="0" y="0" width="60" height="60" rx="4"></rect>
        <linearGradient x1="78.2826102%" y1="100%" x2="21.7173898%" y2="0%" id="linearGradient-3">
            <stop stop-color="#1E85E9" offset="0%"></stop>
            <stop stop-color="#8671F3" offset="20.275549%"></stop>
            <stop stop-color="#C06CFD" stop-opacity="0.99" offset="70.7268792%"></stop>
            <stop stop-color="#FFBEE8" offset="100%"></stop>
        </linearGradient>
    </defs>
    <g id="Page-1" stroke="none" stroke-width="1" fill="none" fill-rule="evenodd">
        <g id="a1qa-About-us-V1-2" transform="translate(-374.000000, -5298.000000)">
            <g id="8-block" transform="translate(375.000000, 4989.000000)">
                <g id="ico" transform="translate(0.000000, 310.000000)">
                    <g id="Rectangle" opacity="0.0620721756">
                        <use fill="#FAFAFA" xlink:href="#path-2"></use>
                        <use stroke-opacity="0.02" stroke="#000000" stroke-width="1" fill="url(#linearGradient-1)" xlink:href="#path-2"></use>
                    </g>
                    <path d="M38,9.28199647 L38.6942956,9.9997591 C39.1362093,10.4611354 39.5566736,10.9123069 39.9556676,11.3533488 L39.9556676,11.3533488 L40.5380532,12.0073238 C43.8413393,15.7779707 45.5,18.7759468 45.5,21.0516175 C45.5,24.5682954 43.0463683,27.5147656 39.7475886,28.2967072 C41.5821549,31.4597913 42.5,34.1917273 42.5,36.5 C42.5,44.2319865 36.2319865,50.5 28.5,50.5 C20.7680135,50.5 14.5,44.2319865 14.5,36.5 C14.5,33.0252199 16.5799352,28.5903737 20.7323445,23.1689448 L21.0644719,22.7388871 L21.6889107,21.9483106 L22.0117533,21.5479551 L22.0117533,21.5479551 L22.3416771,21.1442186 L23.0227663,20.3265937 L23.1974634,20.120071 L23.1974634,20.120071 L23.3739303,19.9127011 L24.0974944,19.0747445 L24.2828092,18.8631347 L24.2828092,18.8631347 L24.4698933,18.6506762 L25.2359214,17.792349 L26.0302527,16.9204197 L26.8528824,16.0348711 L27.0629609,15.8113538 L27.0629609,15.8113538 L27.2748077,15.586984 L28.1398758,14.6809739 L28.5,14.3070763 L28.8601242,14.6809739 L29.7251923,15.586984 L29.9370391,15.8113538 L29.9370391,15.8113538 L30.1471176,16.0348711 L30.9697473,16.9204197 L31.5145008,17.5200503 C32.3345594,15.9091338 33.6511454,14.0743239 35.4619468,12.0073238 L35.4619468,12.0073238 L36.0443324,11.3533488 C36.5430749,10.8020464 37.0753648,10.2349165 37.6411611,9.6518123 L37.6411611,9.6518123 L38,9.28199647 Z M28.5,15.75 L27.9976707,16.2780428 L27.7865611,16.5016764 L27.7865611,16.5016764 L27.5772528,16.7244276 L26.7580314,17.6066032 L25.9676248,18.4746381 L25.206028,19.3285142 L25.0201297,19.5397687 L25.0201297,19.5397687 L24.8360317,19.7501369 L24.11764,20.5827406 L23.9425418,20.7886728 L23.9425418,20.7886728 L23.7692434,20.9937169 L23.0940453,21.8050073 C22.6810437,22.3076184 22.2849109,22.8018906 21.9056412,23.2878041 L21.5319923,23.7709305 L20.9575346,24.532331 C20.7086141,24.8675559 20.4682184,25.1985451 20.2363457,25.5252916 L19.8949284,26.0122283 L19.4067696,26.7306888 C19.1962008,27.0468171 18.9941523,27.3586937 18.8006222,27.6663113 L18.5167154,28.1245427 L18.1148096,28.7998997 C16.3709044,31.8066104 15.5,34.3757943 15.5,36.5 C15.5,43.6797017 21.3202983,49.5 28.5,49.5 C35.6797017,49.5 41.5,43.6797017 41.5,36.5 C41.5,34.468151 40.7031801,32.0291765 39.1077056,29.1895975 L38.8851904,28.7998997 L38.6883391,28.4690454 C38.4616522,28.4895321 38.2320547,28.5 38,28.5 C33.8586894,28.5 30.5,25.1660774 30.5,21.0516175 C30.5,20.2863793 30.6875565,19.4394649 31.0621357,18.5089593 L31.0323752,18.4746381 L30.2419686,17.6066032 L29.4227472,16.7244276 L29.2134389,16.5016764 L29.2134389,16.5016764 L29.0023293,16.2780428 L28.5,15.75 Z M38,10.72 L37.7049342,11.0309981 L37.0679854,11.7150278 C36.861435,11.9402027 36.6606496,12.1625389 36.465626,12.3820256 L36.465626,12.3820256 L35.8978377,13.031926 C32.9617907,16.452352 31.5,19.1404931 31.5,21.0516175 C31.5,24.612129 34.4093241,27.5 38,27.5 C41.5906759,27.5 44.5,24.612129 44.5,21.0516175 C44.5,19.1404931 43.0382093,16.452352 40.1021623,13.031926 L40.1021623,13.031926 L39.534374,12.3820256 C39.3393504,12.1625389 39.138565,11.9402027 38.9320146,11.7150278 L38.9320146,11.7150278 L38.2950658,11.0309981 L38,10.72 Z" id="Combined-Shape" fill="url(#linearGradient-3)" fill-rule="nonzero"></path>
                </g>
            </g>
        </g>
    </g>
</svg>