<?xml version="1.0" encoding="UTF-8"?>
<svg width="44px" height="44px" viewBox="0 0 44 44" version="1.1" xmlns="http://www.w3.org/2000/svg" xmlns:xlink="http://www.w3.org/1999/xlink">
    <title>cross-ico</title>
    <g id="Page-1" stroke="none" stroke-width="1" fill="none" fill-rule="evenodd">
        <g id="a1qa-Industry-expertise-1-2" transform="translate(-853.000000, -2380.000000)" fill-rule="nonzero" stroke="#5055FE">
            <g id="3-block" transform="translate(375.000000, 1960.000000)">
                <g id="2-card" transform="translate(4.000000, 327.000000)">
                    <path d="M505,93.5 C505.414214,93.5 505.789214,93.6678932 506.06066,93.9393398 C506.332107,94.2107864 506.5,94.5857864 506.5,95 L506.5,95 L506.5,104.5 L516,104.5 C516.414214,104.5 516.789214,104.667893 517.06066,104.93934 C517.332107,105.210786 517.5,105.585786 517.5,106 L517.5,106 L517.5,124 C517.5,124.414214 517.332107,124.789214 517.06066,125.06066 C516.789214,125.332107 516.414214,125.5 516,125.5 L516,125.5 L506.5,125.5 L506.5,135 C506.5,135.414214 506.332107,135.789214 506.06066,136.06066 C505.789214,136.332107 505.414214,136.5 505,136.5 L505,136.5 L487,136.5 C486.585786,136.5 486.210786,136.332107 485.93934,136.06066 C485.667893,135.789214 485.5,135.414214 485.5,135 L485.5,135 L485.5,125.5 L476,125.5 C475.585786,125.5 475.210786,125.332107 474.93934,125.06066 C474.667893,124.789214 474.5,124.414214 474.5,124 L474.5,124 L474.5,106 C474.5,105.585786 474.667893,105.210786 474.93934,104.93934 C475.210786,104.667893 475.585786,104.5 476,104.5 L476,104.5 L485.5,104.5 L485.5,95 C485.5,94.5857864 485.667893,94.2107864 485.93934,93.9393398 C486.210786,93.6678932 486.585786,93.5 487,93.5 L487,93.5 Z" id="cross-ico"></path>
                </g>
            </g>
        </g>
    </g>
</svg>