<svg xmlns="http://www.w3.org/2000/svg" xmlns:xlink="http://www.w3.org/1999/xlink" width="542" height="371" viewBox="0 0 542 371">
  <defs>
    <linearGradient id="img-illustration-csr-a" x1="78.125%" x2="21.875%" y1="55.452%" y2="59.645%">
      <stop offset="0%" stop-color="#1E85E9" stop-opacity=".3"/>
      <stop offset="20.276%" stop-color="#8671F3" stop-opacity=".397"/>
      <stop offset="70.727%" stop-color="#C06CFD" stop-opacity=".4"/>
      <stop offset="100%" stop-color="#FFBEE8" stop-opacity=".3"/>
    </linearGradient>
    <linearGradient id="img-illustration-csr-b" x1="34.573%" x2="-14.868%" y1="30.518%" y2="30.518%">
      <stop offset="0%" stop-color="#E3E0E0"/>
      <stop offset="100%" stop-color="#FFF" stop-opacity="0"/>
    </linearGradient>
    <linearGradient id="img-illustration-csr-c" x1="34.573%" x2="-14.868%" y1="30.518%" y2="30.518%">
      <stop offset="0%" stop-color="#E3E0E0"/>
      <stop offset="100%" stop-color="#FFF" stop-opacity="0"/>
    </linearGradient>
    <linearGradient id="img-illustration-csr-d" x1="34.573%" x2="-14.868%" y1="30.518%" y2="30.518%">
      <stop offset="0%" stop-color="#E3E0E0"/>
      <stop offset="100%" stop-color="#FFF" stop-opacity="0"/>
    </linearGradient>
    <linearGradient id="img-illustration-csr-e" x1="100%" x2="100%" y1="84.392%" y2="100%">
      <stop offset="0%" stop-color="#E3E0E0"/>
      <stop offset="100%" stop-color="#FFF" stop-opacity="0"/>
    </linearGradient>
    <linearGradient id="img-illustration-csr-f" x1="57.1%" x2="66.259%" y1="28.366%" y2="0%">
      <stop offset="0%" stop-color="#E3E0E0"/>
      <stop offset="100%" stop-color="#FFF" stop-opacity="0"/>
    </linearGradient>
    <linearGradient id="img-illustration-csr-g" x1="76.893%" x2="100%" y1="41.418%" y2="33.469%">
      <stop offset="0%" stop-color="#E3E0E0"/>
      <stop offset="100%" stop-color="#FFF" stop-opacity="0"/>
    </linearGradient>
    <linearGradient id="img-illustration-csr-h" x1="84.684%" x2="100%" y1="0%" y2="0%">
      <stop offset="0%" stop-color="#E3E0E0"/>
      <stop offset="100%" stop-color="#FFF" stop-opacity="0"/>
    </linearGradient>
    <linearGradient id="img-illustration-csr-i" x1="77.808%" x2="22.192%" y1="100%" y2="0%">
      <stop offset="0%" stop-color="#1E85E9" stop-opacity=".352"/>
      <stop offset="20.276%" stop-color="#8671F3" stop-opacity=".4"/>
      <stop offset="70.727%" stop-color="#C06CFD" stop-opacity=".4"/>
      <stop offset="100%" stop-color="#FFBEE8" stop-opacity=".3"/>
    </linearGradient>
    <linearGradient id="img-illustration-csr-j" x1="75.913%" x2="24.087%" y1="55.452%" y2="59.645%">
      <stop offset="0%" stop-color="#1E85E9" stop-opacity=".3"/>
      <stop offset="20.276%" stop-color="#8671F3" stop-opacity=".397"/>
      <stop offset="70.727%" stop-color="#C06CFD" stop-opacity=".4"/>
      <stop offset="100%" stop-color="#FFBEE8" stop-opacity=".3"/>
    </linearGradient>
    <circle id="img-illustration-csr-l" cx="40" cy="263.022" r="40"/>
    <filter id="img-illustration-csr-k" width="155%" height="155%" x="-27.5%" y="-21.2%" filterUnits="objectBoundingBox">
      <feOffset dy="5" in="SourceAlpha" result="shadowOffsetOuter1"/>
      <feGaussianBlur in="shadowOffsetOuter1" result="shadowBlurOuter1" stdDeviation="6.5"/>
      <feColorMatrix in="shadowBlurOuter1" values="0 0 0 0 0.0415817482   0 0 0 0 0.0415817482   0 0 0 0 0.0415817482  0 0 0 0.1 0"/>
    </filter>
    <circle id="img-illustration-csr-n" cx="70" cy="151.022" r="40"/>
    <filter id="img-illustration-csr-m" width="155%" height="155%" x="-27.5%" y="-21.2%" filterUnits="objectBoundingBox">
      <feOffset dy="5" in="SourceAlpha" result="shadowOffsetOuter1"/>
      <feGaussianBlur in="shadowOffsetOuter1" result="shadowBlurOuter1" stdDeviation="6.5"/>
      <feColorMatrix in="shadowBlurOuter1" values="0 0 0 0 0.0415817482   0 0 0 0 0.0415817482   0 0 0 0 0.0415817482  0 0 0 0.1 0"/>
    </filter>
    <circle id="img-illustration-csr-p" cx="152" cy="70.022" r="40"/>
    <filter id="img-illustration-csr-o" width="155%" height="155%" x="-27.5%" y="-21.2%" filterUnits="objectBoundingBox">
      <feOffset dy="5" in="SourceAlpha" result="shadowOffsetOuter1"/>
      <feGaussianBlur in="shadowOffsetOuter1" result="shadowBlurOuter1" stdDeviation="6.5"/>
      <feColorMatrix in="shadowBlurOuter1" values="0 0 0 0 0.0415817482   0 0 0 0 0.0415817482   0 0 0 0 0.0415817482  0 0 0 0.1 0"/>
    </filter>
    <circle id="img-illustration-csr-r" cx="263" cy="40.022" r="40"/>
    <filter id="img-illustration-csr-q" width="155%" height="155%" x="-27.5%" y="-21.2%" filterUnits="objectBoundingBox">
      <feOffset dy="5" in="SourceAlpha" result="shadowOffsetOuter1"/>
      <feGaussianBlur in="shadowOffsetOuter1" result="shadowBlurOuter1" stdDeviation="6.5"/>
      <feColorMatrix in="shadowBlurOuter1" values="0 0 0 0 0.0415817482   0 0 0 0 0.0415817482   0 0 0 0 0.0415817482  0 0 0 0.1 0"/>
    </filter>
    <circle id="img-illustration-csr-t" cx="374.688" cy="69.79" r="40"/>
    <filter id="img-illustration-csr-s" width="155%" height="155%" x="-27.5%" y="-21.2%" filterUnits="objectBoundingBox">
      <feOffset dy="5" in="SourceAlpha" result="shadowOffsetOuter1"/>
      <feGaussianBlur in="shadowOffsetOuter1" result="shadowBlurOuter1" stdDeviation="6.5"/>
      <feColorMatrix in="shadowBlurOuter1" values="0 0 0 0 0.0415817482   0 0 0 0 0.0415817482   0 0 0 0 0.0415817482  0 0 0 0.1 0"/>
    </filter>
    <circle id="img-illustration-csr-v" cx="456" cy="151.022" r="40"/>
    <filter id="img-illustration-csr-u" width="155%" height="155%" x="-27.5%" y="-21.2%" filterUnits="objectBoundingBox">
      <feOffset dy="5" in="SourceAlpha" result="shadowOffsetOuter1"/>
      <feGaussianBlur in="shadowOffsetOuter1" result="shadowBlurOuter1" stdDeviation="6.5"/>
      <feColorMatrix in="shadowBlurOuter1" values="0 0 0 0 0.0415817482   0 0 0 0 0.0415817482   0 0 0 0 0.0415817482  0 0 0 0.1 0"/>
    </filter>
    <circle id="img-illustration-csr-x" cx="486" cy="263.022" r="40"/>
    <filter id="img-illustration-csr-w" width="155%" height="155%" x="-27.5%" y="-21.2%" filterUnits="objectBoundingBox">
      <feOffset dy="5" in="SourceAlpha" result="shadowOffsetOuter1"/>
      <feGaussianBlur in="shadowOffsetOuter1" result="shadowBlurOuter1" stdDeviation="6.5"/>
      <feColorMatrix in="shadowBlurOuter1" values="0 0 0 0 0.0415817482   0 0 0 0 0.0415817482   0 0 0 0 0.0415817482  0 0 0 0.1 0"/>
    </filter>
  </defs>
  <g fill="none" fill-rule="evenodd" transform="translate(8 7.978)">
    <g transform="rotate(-90 215.664 121.914)">
      <path stroke="url(#img-illustration-csr-a)" stroke-width="1.114" d="M0.601082709,298.350165 C22.7365733,311.318479 48.4933117,318.75 75.9813743,318.75 C158.614058,318.75 225.601083,251.592712 225.601083,168.75 C225.601083,85.9072875 158.614058,18.75 75.9813743,18.75 C52.2279632,18.75 29.7673841,24.2993409 9.81915953,34.1754005" opacity=".569"/>
      <line x1="-9.819" x2="158.931" y1="84.375" y2="84.375" stroke="url(#img-illustration-csr-b)" stroke-dasharray="2.5" stroke-width="1.114" opacity=".7" transform="rotate(-90 74.556 84.375)"/>
      <line x1="43.306" x2="192.056" y1="51.25" y2="137.5" stroke="url(#img-illustration-csr-c)" stroke-dasharray="2.5" stroke-width="1.114" opacity=".7" transform="rotate(-90 117.68 94.375)"/>
      <line x1="107.056" x2="193.306" y1="50" y2="201.25" stroke="url(#img-illustration-csr-d)" stroke-dasharray="2.5" stroke-width="1.114" opacity=".7" transform="rotate(-90 150.18 125.625)"/>
      <line x1="161.431" x2="161.431" y1="81.875" y2="255.625" stroke="url(#img-illustration-csr-e)" stroke-dasharray="2.5" stroke-width="1.114" opacity=".7" transform="rotate(-90 330.18 0)"/>
      <line x1="193.306" x2="107.056" y1="136.25" y2="287.5" stroke="url(#img-illustration-csr-f)" stroke-dasharray="2.5" stroke-width="1.114" opacity=".7" transform="rotate(-90 150.18 211.875)"/>
      <line x1="192.681" x2="42.681" y1="200.625" y2="286.875" stroke="url(#img-illustration-csr-g)" stroke-dasharray="2.5" stroke-width="1.114" opacity=".7" transform="rotate(-90 117.68 243.75)"/>
      <line x1="161.431" x2="-12.319" y1="255.625" y2="255.625" stroke="url(#img-illustration-csr-h)" stroke-dasharray="2.5" stroke-width="1.114" opacity=".7" transform="rotate(-90 74.556 255.625)"/>
      <g fill="#5055FE" transform="rotate(-90 196.208 130.847)">
        <circle cx="307.056" cy="9.194" r="8.75" opacity=".2"/>
        <circle cx="307.056" cy="9.194" r="3.75"/>
        <circle cx="287.127" cy="83.569" r="8.75" opacity=".2" transform="rotate(30 287.127 83.57)"/>
        <circle cx="232.681" cy="138.016" r="8.75" opacity=".2" transform="rotate(60 232.68 138.016)"/>
        <circle cx="158.306" cy="157.944" r="8.75" opacity=".2" transform="rotate(90 158.306 157.944)"/>
        <circle cx="83.931" cy="138.016" r="8.75" opacity=".2" transform="rotate(120 83.93 138.016)"/>
        <circle cx="29.484" cy="83.569" r="8.75" opacity=".2" transform="rotate(150 29.484 83.57)"/>
        <circle cx="9.556" cy="9.194" r="8.75" opacity=".2" transform="rotate(180 9.556 9.194)"/>
        <circle cx="287.127" cy="83.569" r="3.75" transform="rotate(30 287.127 83.57)"/>
        <circle cx="232.681" cy="138.016" r="3.75" transform="rotate(60 232.68 138.016)"/>
        <circle cx="158.306" cy="157.944" r="3.75" transform="rotate(90 158.306 157.944)"/>
        <circle cx="83.931" cy="138.016" r="3.75" transform="rotate(120 83.93 138.016)"/>
        <circle cx="29.484" cy="83.569" r="3.75" transform="rotate(150 29.484 83.57)"/>
        <circle cx="9.556" cy="9.194" r="3.75" transform="rotate(180 9.556 9.194)"/>
      </g>
    </g>
    <path fill="url(#img-illustration-csr-i)" d="M243.75,170.52241 C284.398806,170.52241 317.5,203.55205 317.5,244.27241 C317.5,284.992771 284.398806,318.02241 243.75,318.02241 C230.576668,318.02241 218.058919,314.674589 207.5,308.02241 L225,275.52241 C230.785273,278.815597 237.01694,280.52241 243.75,280.52241 C263.569066,280.52241 279.82324,264.303373 280,244.27241 C279.82324,224.241448 263.569066,208.02241 243.75,208.02241 C238.135405,208.02241 232.931007,209.193001 228.75,211.77241 L224.75,213.93745 L207.75,180.147899 C217.409516,175.273959 232.057486,170.52241 243.75,170.52241 Z" transform="rotate(-90 262.5 244.272)"/>
    <path stroke="url(#img-illustration-csr-j)" stroke-width="1.114" d="M101.245807,402.481067 C130.92776,416.907727 164.257649,425 199.47759,425 C323.741658,425 424.47759,324.264069 424.47759,200 C424.47759,75.7359313 323.741658,-25 199.47759,-25 C163.97124,-25 130.385808,-16.7755795 100.52241,-2.12785792" opacity=".569" transform="rotate(-90 262.5 200)"/>
    <g transform="rotate(-90 40 263.022)">
      <use fill="#000" filter="url(#img-illustration-csr-k)" xlink:href="#img-illustration-csr-l"/>
      <use fill="#FFF" xlink:href="#img-illustration-csr-l"/>
    </g>
    <g transform="rotate(-60 70 151.022)">
      <use fill="#000" filter="url(#img-illustration-csr-m)" xlink:href="#img-illustration-csr-n"/>
      <use fill="#FFF" xlink:href="#img-illustration-csr-n"/>
    </g>
    <g transform="rotate(-30 152 70.022)">
      <use fill="#000" filter="url(#img-illustration-csr-o)" xlink:href="#img-illustration-csr-p"/>
      <use fill="#FFF" xlink:href="#img-illustration-csr-p"/>
    </g>
    <use fill="#000" filter="url(#img-illustration-csr-q)" xlink:href="#img-illustration-csr-r"/>
    <use fill="#FFF" xlink:href="#img-illustration-csr-r"/>
    <path stroke="#5055FE" d="M38.7619375,20.9523482 L35.6190804,20.9523482 L35.6190804,12.5714286 C35.6190804,10.2562232 33.743875,8.38091964 31.4285714,8.38091964 L23.0476518,8.38091964 L23.0476518,5.2380625 C23.0476518,2.34663393 20.7009196,0 17.8094911,0 C14.9180625,0 12.5714286,2.34663393 12.5714286,5.2380625 L12.5714286,8.38091964 L4.19050893,8.38091964 C1.87530357,8.38091964 0.0210178571,10.256125 0.0210178571,12.5714286 L0.0105089286,20.5333661 L3.14285714,20.5333661 C6.26479464,20.5333661 8.8,23.0685714 8.8,26.1905089 C8.8,29.3124464 6.26479464,31.8476518 3.14285714,31.8476518 L0.0105089286,31.8476518 L0,39.8094911 C0,42.1247946 1.87520536,44 4.19050893,44 L12.1524464,44 L12.1524464,40.8571429 C12.1524464,37.7352054 14.6876518,35.2 17.8095893,35.2 C20.9315268,35.2 23.4667321,37.7352054 23.4667321,40.8571429 L23.4667321,44 L31.4285714,44 C33.7437768,44 35.6190804,42.1247946 35.6190804,39.8094911 L35.6190804,31.4285714 L38.7619375,31.4285714 C41.6533661,31.4285714 44,29.0819375 44,26.1905089 C44,23.2990804 41.6533661,20.9523482 38.7619375,20.9523482 Z" transform="translate(243 15.022)"/>
    <g transform="rotate(30 374.687 69.79)">
      <use fill="#000" filter="url(#img-illustration-csr-s)" xlink:href="#img-illustration-csr-t"/>
      <use fill="#FFF" xlink:href="#img-illustration-csr-t"/>
    </g>
    <g transform="rotate(60 456 151.022)">
      <use fill="#000" filter="url(#img-illustration-csr-u)" xlink:href="#img-illustration-csr-v"/>
      <use fill="#FFF" xlink:href="#img-illustration-csr-v"/>
    </g>
    <g transform="rotate(90 486 263.022)">
      <use fill="#000" filter="url(#img-illustration-csr-w)" xlink:href="#img-illustration-csr-x"/>
      <use fill="#FFF" xlink:href="#img-illustration-csr-x"/>
    </g>
    <g stroke="#5055FE" transform="translate(51 129.022)">
      <path d="M36.6469646,7.40249462 C33.4407152,7.07604301 30.8735495,4.5311828 30.5428763,1.35122581 C30.4626792,0.580903226 29.8198133,0 29.0472397,0 L8.95276032,0 C8.18027262,0 7.53732079,0.580903226 7.45729564,1.35122581 C7.12653647,4.53109677 4.5593708,7.07604301 1.35312134,7.40249462 C0.581751062,7.48103226 0,8.12455914 0,8.89944086 L0,18.5221505 C0,24.2696774 1.80980624,29.7463226 5.23378257,34.36 C6.88113173,36.5797849 8.85502821,38.5276559 11.100632,40.1494194 C13.3739996,41.7913118 15.8760105,43.0623656 18.5372122,43.9272258 C18.8356519,44.0242581 19.1644341,44.0242581 19.4628737,43.9272258 C22.1239895,43.0622796 24.6260004,41.7912258 26.899368,40.1494194 C29.1449718,38.5275699 31.1188683,36.5797849 32.7662174,34.36 C36.1901938,29.7463226 38,24.2696774 38,18.5221505 L38,8.89944086 C38,8.12455914 37.4183349,7.48094624 36.6469646,7.40249462 Z"/>
      <polyline stroke-linecap="round" stroke-linejoin="round" points="7.067 14.01 10.189 17.189 17.747 9.579"/>
      <path d="M4.28710938,32.873291 C9.4431944,30.6592175 14.4707823,27.0347871 19.369873,22 C24.2689638,16.9652129 28.4258648,11.1507597 31.8405762,4.55664062"/>
      <path stroke-linecap="round" d="M10.2871094,39.873291 C15.4431944,37.6592175 20.4707823,34.0347871 25.369873,29 C30.2689638,23.9652129 34.4258648,18.1507597 37.8405762,11.5566406"/>
    </g>
    <g stroke="#5055FE" transform="translate(13 239.022)">
      <ellipse cx="27" cy="24.3" rx="10.8" ry="24.3"/>
      <ellipse cx="27" cy="24.3" rx="10.8" ry="24.3" transform="rotate(58 27 24.3)"/>
      <ellipse cx="27" cy="24.3" rx="10.8" ry="24.3" transform="scale(-1 1) rotate(58 0 -24.41)"/>
      <path d="M24.9285228,19.8 C24.2600287,19.8080873 23.6245847,20.0918257 23.1725819,20.5840625 C22.699173,21.0843318 22.4574286,21.7600757 22.5061687,22.446875 C22.6625303,24.7334375 26.1159328,27.9990625 27,28.8 C27.8837572,27.999375 31.3359088,24.7334375 31.493834,22.446875 C31.5425627,21.7601708 31.3008137,21.0845277 30.8274208,20.584375 C30.3753243,20.0918653 29.7396143,19.8079961 29.0708545,19.8 C28.352883,19.8095134 27.6793634,20.1491456 27.2451764,20.720625 C27.1858361,20.7958626 27.0952407,20.8397458 26.9993759,20.8396875 C26.9035111,20.8397458 26.8129158,20.7958626 26.7535755,20.720625 C26.3195539,20.1492802 25.6462851,19.8096582 24.9285228,19.8 L24.9285228,19.8 Z"/>
    </g>
    <g transform="translate(436 123.16)">
      <path stroke="#5055FE" d="M10.5971903,18.5194056 C7.68012508,18.5490592 4.90727877,19.5894332 2.93490288,21.3943015 C0.869118713,23.2286223 -0.185766209,25.7063498 0.0269181056,28.224614 C0.709223308,36.6086765 15.778616,48.5826348 19.6363696,51.5194056 C23.4927586,48.5837806 38.5566929,36.6086765 39.2458212,28.224614 C39.4584555,25.7066986 38.4035509,23.2293405 36.3378364,21.3954473 C34.3650516,19.5895784 31.5910444,18.5487248 28.6728197,18.5194056 C25.5398529,18.5542883 22.6008584,19.7996061 20.7062242,21.8950306 C20.4472847,22.1709019 20.0519595,22.331807 19.6336404,22.3315931 C19.2153213,22.331807 18.8199961,22.1709019 18.5610566,21.8950306 C16.6671441,19.8000997 13.7292441,18.554819 10.5971903,18.5194056 L10.5971903,18.5194056 Z"/>
      <path fill="#5055FE" fill-rule="nonzero" d="M19.6363636,0 L20.0547351,0.681543183 L20.7743591,1.86933803 C20.8511966,1.99795837 20.9269939,2.1254615 21.0017512,2.25184919 L21.0017512,2.25184919 L21.437815,2.99680397 L21.8489221,3.71507216 L22.2350773,4.40673796 L22.5962852,5.07188553 L22.9325506,5.71059905 L23.2438782,6.32296272 L23.5302725,6.90906069 L23.7917385,7.46897716 L24.0282806,8.00279631 C24.0656275,8.08959606 24.1019362,8.17531194 24.1372067,8.25994569 L24.1372067,8.25994569 L24.3363719,8.75477667 L24.5106251,9.22372078 C24.861189,10.211783 25.0363636,11.0181512 25.0363636,11.6466784 C25.0363636,14.629016 22.6187013,17.0466784 19.6363636,17.0466784 C16.654026,17.0466784 14.2363636,14.629016 14.2363636,11.6466784 C14.2363636,11.0181512 14.4115382,10.211783 14.7621021,9.22372078 L14.7621021,9.22372078 L14.9363553,8.75477667 L15.1355206,8.25994569 C15.1707911,8.17531194 15.2070997,8.08959606 15.2444467,8.00279631 L15.2444467,8.00279631 L15.4809888,7.46897716 L15.7424547,6.90906069 L16.0288491,6.32296272 L16.3401766,5.71059905 L16.676442,5.07188553 L17.03765,4.40673796 C17.0999301,4.29367251 17.1632497,4.17950215 17.2276089,4.0642251 L17.2276089,4.0642251 L17.6262395,3.35926863 L18.0498243,2.62766766 L18.4983681,1.86933803 L18.9718756,1.08419555 L19.6363636,0 Z M19.6363636,1.88249655 L19.3444474,2.36783286 L18.8865981,3.1425288 L18.455637,3.88810278 L18.0515695,4.60445578 C17.9864664,4.72140737 17.9224841,4.83713729 17.8596227,4.95164349 L17.8596227,4.95164349 L17.4959062,5.62397942 C17.4375289,5.73358245 17.3802727,5.84195763 17.3241379,5.94910289 L17.3241379,5.94910289 L17.0007846,6.57719898 L16.7043472,7.17567809 L16.434831,7.74444123 C16.3921554,7.83675325 16.3506017,7.92782298 16.3101701,8.01764836 L16.3101701,8.01764836 L16.0810463,8.54165189 C15.5059603,9.89908733 15.2181818,10.9369122 15.2181818,11.6466784 C15.2181818,12.6873069 15.5779507,13.6439069 16.1798934,14.3988831 C16.5899256,15.9235958 17.9819896,17.0466784 19.6363636,17.0466784 C21.2907376,17.0466784 22.6828017,15.9235958 23.0917345,14.3982519 C23.6947765,13.6439069 24.0545455,12.6873069 24.0545455,11.6466784 C24.0545455,10.9369122 23.766767,9.89908733 23.191681,8.54165189 L23.191681,8.54165189 L22.9625571,8.01764836 C22.9221255,7.92782298 22.8805719,7.83675325 22.8378963,7.74444123 L22.8378963,7.74444123 L22.5683801,7.17567809 L22.2719426,6.57719898 L21.9485894,5.94910289 C21.8363197,5.73481236 21.7195649,5.51560217 21.5983259,5.29148882 L21.5983259,5.29148882 L21.2211577,4.60445578 L20.8170903,3.88810278 L20.3861292,3.1425288 L19.9282799,2.36783286 L19.6363636,1.88249655 Z"/>
      <path fill="#5055FE" fill-rule="nonzero" d="M19.6363636,5.79922319 L19.0037034,6.83192542 L18.5977446,7.50991867 C18.5325974,7.62022399 18.4687065,7.7291856 18.4060714,7.8368081 L18.0453298,8.46651063 L17.7147177,9.06429546 C17.6095339,9.258262 17.5093696,9.44694575 17.4142228,9.63038351 L17.1438327,10.1649956 L16.9035351,10.6683528 C16.3403966,11.887861 16.0592602,12.8164244 16.0592602,13.4695749 C16.0592602,15.4451546 17.660784,17.0466784 19.6363636,17.0466784 C21.6119433,17.0466784 23.2134671,15.4451546 23.2134671,13.4695749 C23.2134671,12.8164244 22.9323307,11.887861 22.3691922,10.6683528 L22.1288946,10.1649956 L21.8585045,9.63038351 C21.7633577,9.44694575 21.6631934,9.258262 21.5580096,9.06429546 L21.2273974,8.46651063 L20.8666559,7.8368081 L20.4757725,7.17496698 L20.0547351,6.48076637 L19.6363636,5.79922319 Z M19.6363636,7.68307837 L19.8087364,7.97448925 C19.9328727,8.18456949 20.0522479,8.38948769 20.1668599,8.58920703 L20.4964043,9.17273162 L20.7973573,9.72484212 L21.0697065,10.2453176 L21.3134396,10.7339373 C21.3899133,10.8914766 21.4616155,11.0436698 21.5285444,11.1904801 L21.7150084,11.6147253 C21.7436984,11.6827291 21.7711944,11.7493779 21.7974964,11.8146672 L21.9409763,12.1900517 C22.1346957,12.7285462 22.2316489,13.1561722 22.2316489,13.4695749 C22.2316489,14.9029114 21.0697001,16.0648602 19.6363636,16.0648602 C18.2030272,16.0648602 17.0410784,14.9029114 17.0410784,13.4695749 C17.0410784,13.1561722 17.1380316,12.7285462 17.331751,12.1900517 L17.4752309,11.8146672 C17.5015328,11.7493779 17.5290289,11.6827291 17.5577188,11.6147253 L17.7441829,11.1904801 C17.8111117,11.0436698 17.882814,10.8914766 17.9592877,10.7339373 L18.2030208,10.2453176 L18.47537,9.72484212 L18.7763229,9.17273162 L19.1058673,8.58920703 L19.6363636,7.68307837 Z"/>
    </g>
    <g stroke="#5055FE" transform="translate(460 235.986)">
      <circle cx="22.179" cy="28.963" r="22.179"/>
      <circle cx="22.179" cy="28.963" r="15.429"/>
      <circle cx="22.179" cy="28.963" r="8.679"/>
      <line x1="22.179" x2="45.837" y1="28.963" y2="7.626" stroke-linecap="round"/>
      <polygon stroke-linecap="round" stroke-linejoin="round" points="40.465 12.073 40.465 3.821 45.837 0 45.837 7.626"/>
      <polyline stroke-linecap="round" stroke-linejoin="round" points="40.465 12.073 49.126 12.073 53.365 7.788 45.648 7.788"/>
    </g>
    <g stroke="#5055FE" transform="translate(127 45.022)">
      <circle cx="25" cy="25" r="25"/>
      <polyline stroke-linejoin="round" points="43.153 7.502 40.586 9.233 36.306 8.367 33.739 7.502 30.315 8.367 27.748 7.502 29.459 4.04 32.883 4.04 35.848 2.488"/>
      <polyline stroke-linejoin="round" points="15.903 1.53 18.333 3.174 23.468 4.04 22.613 6.636 20.045 7.502 17.477 11.829 13.198 14.426 7.207 15.291 7.207 17.888 8.919 19.619 8.919 23.081 6.351 21.35 3.784 19.619 2.078 14.899"/>
      <polygon stroke-linejoin="round" points="25.18 28.274 24.324 32.602 20.901 36.064 20.901 38.66 17.478 41.257 17.478 45.584 14.91 44.719 13.198 40.391 13.198 31.736 8.919 30.871 7.207 27.409 7.207 24.812 8.919 23.081 11.487 20.484 13.198 23.946 19.189 23.946 21.757 28.274"/>
      <polyline stroke-linejoin="round" points="45.464 39.266 43.153 36.929 43.153 33.467 41.441 30.005 39.73 26.543 39.73 23.081 37.162 21.35 33.739 22.215 27.748 19.619 26.892 13.56 29.46 10.964 34.595 10.964 36.306 13.56 41.441 14.426 46.577 12.695 46.833 12.548"/>
    </g>
    <g transform="translate(352 50.065)">
      <path stroke="#5055FE" d="M19.6668303,-3.97903932e-13 C18.3081802,0.0162665873 17.0167013,0.586967702 16.098049,1.57703511 C15.1358909,2.58325883 14.6445685,3.94242569 14.7436282,5.32382915 C15.0614181,9.9229387 22.0801273,16.4912993 23.8769117,18.1022762 C25.6730606,16.4919279 32.6892275,9.9229387 33.0101953,5.32382915 C33.1092318,3.94261704 32.6179002,2.58365277 31.6557745,1.57766366 C30.7369317,0.587047342 29.4449122,0.0160831084 28.085722,-3.97903932e-13 C26.6265137,0.0191350043 25.2576498,0.702258853 24.3752064,1.85171201 C24.254603,2.00304226 24.0704766,2.09130735 23.8756406,2.09119003 C23.6808046,2.09130735 23.4966782,2.00304226 23.3760748,1.85171201 C22.4939675,0.702529608 21.1256133,0.0194261245 19.6668303,-3.97903932e-13 L19.6668303,-3.97903932e-13 Z"/>
      <path fill="#5055FE" fill-rule="nonzero" d="M36.0916381,2.500035 C37.5876597,2.51773722 39.0101403,3.14635427 40.0171178,4.23207575 C41.0766723,5.33993552 41.6180629,6.83735675 41.5089821,8.35863905 C41.356545,10.5428928 39.8520533,13.1933771 37.3805975,16.1542415 C35.7337767,18.1271732 33.885714,19.9728027 32.2106852,21.4745601 L32.2106852,21.4745601 L31.8769057,21.7738122 L31.0349063,21.0131259 C29.4973609,19.5996651 27.8538893,17.9292528 26.3718259,16.1540417 C26.3048345,16.0737997 26.238554,15.9937857 26.172992,15.914003 C26.4010088,15.6867417 26.6358575,15.4464873 26.8757134,15.1961615 L27.1394682,15.5131632 C28.7506291,17.4430068 30.5649244,19.2544216 32.2106919,20.7299984 L31.992992,20.532035 L31.877,20.4260739 L32.0406429,20.2782719 C33.3792276,19.0475586 34.8049695,17.6126435 36.1237469,16.0888137 L36.1237469,16.0888137 L36.6128953,15.5134348 C38.9584135,12.7034467 40.3778467,10.2028111 40.5114757,8.28806968 C40.6004007,7.04787734 40.159128,5.82737003 39.2891905,4.91768741 C38.4637232,4.02774041 37.3021647,3.514429 36.079806,3.49996417 L36.079806,3.49996417 L35.8483612,3.51009087 C34.7153299,3.58948893 33.6613355,4.11565968 32.9201689,4.97429314 L33.0215208,4.86536761 C33.0124343,4.45647965 32.9521061,4.05282522 32.8436999,3.66315472 C33.7489838,2.93270409 34.8869237,2.51567511 36.079166,2.500035 L36.079166,2.500035 Z"/>
      <path stroke="#5055FE" stroke-linecap="round" d="M7,21.7738122 L14.0056152,21.7738122 C15.4593096,21.8071315 16.9677732,22.1095111 18.5310059,22.6809509 C20.0942386,23.2523907 21.3275986,24.1610821 22.231086,25.4070251 L28.111084,25.4070251 C29.4248861,25.5377217 30.0817871,26.3378926 30.0817871,27.8075378 C30.0817871,29.277183 29.4248861,30.0648213 28.111084,30.1704528 L16.2548828,30.1704528"/>
      <path stroke="#5055FE" stroke-linecap="round" stroke-linejoin="round" d="M8.2409668,33.0518005 C15.1075846,36.4154073 20.1043165,38.0972106 23.2311625,38.0972106 C26.3580085,38.0972106 33.7356255,34.6663838 45.3640137,27.8047302 C44.0459426,26.0941182 42.7136579,25.2388122 41.3671596,25.2388122 C40.0206613,25.2388122 36.2588704,26.5059021 30.0817871,29.0400817"/>
      <path stroke="#5055FE" stroke-linejoin="round" d="M0,17.9570739 L5,17.9570739 C6.1045695,17.9570739 7,18.8525044 7,19.9570739 L7,33.9570739 C7,35.0616434 6.1045695,35.9570739 5,35.9570739 L0,35.9570739 L0,35.9570739 L0,17.9570739 Z"/>
    </g>
  </g>
</svg>
