<svg xmlns="http://www.w3.org/2000/svg" xmlns:xlink="http://www.w3.org/1999/xlink" width="456" height="477" viewBox="0 0 456 477">
  <defs>
    <linearGradient id="img-illustration-a1qa-a" x1="108.096%" x2="0%" y1="59.616%" y2="41.808%">
      <stop offset="0%" stop-color="#1E85E9"/>
      <stop offset="20.276%" stop-color="#8671F3"/>
      <stop offset="70.727%" stop-color="#CFA9FC"/>
      <stop offset="100%" stop-color="#F4D9FB"/>
    </linearGradient>
    <linearGradient id="img-illustration-a1qa-b" x1="108.096%" x2="0%" y1="61.757%" y2="39.984%">
      <stop offset="0%" stop-color="#1E85E9"/>
      <stop offset="20.276%" stop-color="#8671F3"/>
      <stop offset="70.727%" stop-color="#CFA9FC"/>
      <stop offset="100%" stop-color="#F4D9FB"/>
    </linearGradient>
    <linearGradient id="img-illustration-a1qa-c" x1="100%" x2="0%" y1="100%" y2="0%">
      <stop offset="0%" stop-color="#1E85E9"/>
      <stop offset="20.276%" stop-color="#8671F3"/>
      <stop offset="70.727%" stop-color="#C06CFD" stop-opacity=".4"/>
      <stop offset="100%" stop-color="#FFBEE8" stop-opacity=".3"/>
    </linearGradient>
    <circle id="img-illustration-a1qa-e" cx="323.35" cy="133.25" r="43.55"/>
    <filter id="img-illustration-a1qa-d" width="166.6%" height="166.6%" x="-33.3%" y="-25.3%" filterUnits="objectBoundingBox">
      <feOffset dy="7" in="SourceAlpha" result="shadowOffsetOuter1"/>
      <feGaussianBlur in="shadowOffsetOuter1" result="shadowBlurOuter1" stdDeviation="8.5"/>
      <feColorMatrix in="shadowBlurOuter1" values="0 0 0 0 0.0415817482   0 0 0 0 0.0415817482   0 0 0 0 0.0415817482  0 0 0 0.1 0"/>
    </filter>
    <circle id="img-illustration-a1qa-g" cx="223.331" cy="233.078" r="94.9"/>
    <filter id="img-illustration-a1qa-f" width="130.6%" height="130.6%" x="-15.3%" y="-11.6%" filterUnits="objectBoundingBox">
      <feOffset dy="7" in="SourceAlpha" result="shadowOffsetOuter1"/>
      <feGaussianBlur in="shadowOffsetOuter1" result="shadowBlurOuter1" stdDeviation="8.5"/>
      <feColorMatrix in="shadowBlurOuter1" values="0 0 0 0 0.0415817482   0 0 0 0 0.0415817482   0 0 0 0 0.0415817482  0 0 0 0.05 0"/>
    </filter>
    <ellipse id="img-illustration-a1qa-i" cx="222.887" cy="233.554" rx="60.45" ry="59.8"/>
    <filter id="img-illustration-a1qa-h" width="148%" height="148.5%" x="-24%" y="-18.4%" filterUnits="objectBoundingBox">
      <feOffset dy="7" in="SourceAlpha" result="shadowOffsetOuter1"/>
      <feGaussianBlur in="shadowOffsetOuter1" result="shadowBlurOuter1" stdDeviation="8.5"/>
      <feColorMatrix in="shadowBlurOuter1" values="0 0 0 0 0.0415817482   0 0 0 0 0.0415817482   0 0 0 0 0.0415817482  0 0 0 0.05 0"/>
    </filter>
    <circle id="img-illustration-a1qa-k" cx="323.441" cy="334.412" r="43.55"/>
    <filter id="img-illustration-a1qa-j" width="166.6%" height="166.6%" x="-33.3%" y="-25.3%" filterUnits="objectBoundingBox">
      <feOffset dy="7" in="SourceAlpha" result="shadowOffsetOuter1"/>
      <feGaussianBlur in="shadowOffsetOuter1" result="shadowBlurOuter1" stdDeviation="8.5"/>
      <feColorMatrix in="shadowBlurOuter1" values="0 0 0 0 0.0415817482   0 0 0 0 0.0415817482   0 0 0 0 0.0415817482  0 0 0 0.1 0"/>
    </filter>
    <circle id="img-illustration-a1qa-m" cx="121.941" cy="334.412" r="43.55"/>
    <filter id="img-illustration-a1qa-l" width="166.6%" height="166.6%" x="-33.3%" y="-25.3%" filterUnits="objectBoundingBox">
      <feOffset dy="7" in="SourceAlpha" result="shadowOffsetOuter1"/>
      <feGaussianBlur in="shadowOffsetOuter1" result="shadowBlurOuter1" stdDeviation="8.5"/>
      <feColorMatrix in="shadowBlurOuter1" values="0 0 0 0 0.0415817482   0 0 0 0 0.0415817482   0 0 0 0 0.0415817482  0 0 0 0.1 0"/>
    </filter>
    <circle id="img-illustration-a1qa-o" cx="123.15" cy="133.25" r="43.55"/>
    <filter id="img-illustration-a1qa-n" width="166.6%" height="166.6%" x="-33.3%" y="-25.3%" filterUnits="objectBoundingBox">
      <feOffset dy="7" in="SourceAlpha" result="shadowOffsetOuter1"/>
      <feGaussianBlur in="shadowOffsetOuter1" result="shadowBlurOuter1" stdDeviation="8.5"/>
      <feColorMatrix in="shadowBlurOuter1" values="0 0 0 0 0.0415817482   0 0 0 0 0.0415817482   0 0 0 0 0.0415817482  0 0 0 0.1 0"/>
    </filter>
  </defs>
  <g fill="none" fill-rule="evenodd" transform="translate(1)">
    <path stroke="url(#img-illustration-a1qa-a)" stroke-width=".65" d="M46.7855727,332.896735 C21.3300135,346.360718 -87.9519343,559.461471 273.982327,323.452517 C361.865418,266.145988 477.336323,214.888185 399.086634,366.723437" opacity=".499" transform="scale(1 -1) rotate(-10 -3786.075 0)"/>
    <path stroke="url(#img-illustration-a1qa-b)" stroke-width=".65" d="M83.1928386,119.97389 C67.1880563,141.933893 -78.9390542,352.782243 276.081222,105.114933 C369.130895,40.202127 478.404116,4.40661329 428.741502,122.189895" opacity=".499" transform="scale(-1 1) rotate(-10 0 2884.144)"/>
    <path fill="url(#img-illustration-a1qa-c)" d="M324.75369,264.650037 L324.75364,264.654922 L325.32424,264.659435 C363.531117,265.278901 394.312659,296.443988 394.312659,334.798489 C394.312659,373.540409 362.906127,404.946941 324.164207,404.946941 C285.809706,404.946941 254.644619,374.165399 254.025153,335.958522 L254.02064,335.387922 L254.015755,335.387972 L254.01564,283.512922 L197.42464,283.512922 L197.42464,264.649922 L324.75369,264.650037 Z M192.70864,208.058922 L192.709545,335.387972 L192.70364,335.387922 L192.700147,335.958522 C192.080681,374.165399 160.915594,404.946941 122.561093,404.946941 C83.8191722,404.946941 52.4126404,373.540409 52.4126404,334.798489 C52.4126404,296.64783 82.8678633,265.610369 120.79252,264.671896 L120.792644,264.650037 L173.84564,264.649922 L173.84564,208.058922 L192.70864,208.058922 Z M324.164207,283.513486 L272.87864,283.512922 L272.879204,334.798489 C272.879204,363.122414 295.840282,386.083492 324.164207,386.083492 C352.488132,386.083492 375.44921,363.122414 375.44921,334.798489 C375.44921,306.757803 352.945058,283.973244 325.012298,283.520357 L324.164207,283.513486 Z M173.84564,283.512922 L122.561093,283.513486 C94.2371676,283.513486 71.2760897,306.474564 71.2760897,334.798489 C71.2760897,363.122414 94.2371676,386.083492 122.561093,386.083492 C150.601778,386.083492 173.386338,363.579339 173.839225,335.64658 L173.846095,334.798489 L173.84564,283.512922 Z M324.164207,63.0469222 C362.906127,63.0469222 394.312659,94.453454 394.312659,133.195374 C394.312659,171.549875 363.531117,202.714962 325.32424,203.334429 L324.75364,203.337922 L324.75369,203.343826 L272.87864,203.342922 L272.87864,259.933922 L254.01564,259.933922 L254.015755,131.426926 L254.037609,131.427035 C254.97596,93.5022701 286.01347,63.0469222 324.164207,63.0469222 Z M120.792644,203.343826 L120.792753,203.321973 C82.8679884,202.383621 52.4126404,171.346112 52.4126404,133.195374 C52.4126404,94.453454 83.8191722,63.0469222 122.561093,63.0469222 C160.711752,63.0469222 191.749212,93.502145 192.687685,131.426801 L192.709545,131.426926 L192.70864,184.479922 L249.29964,184.479922 L249.29964,203.342922 L120.792644,203.343826 Z M122.561093,81.9103715 C94.2371676,81.9103715 71.2760897,104.871449 71.2760897,133.195374 C71.2760897,161.23606 93.7802422,184.020619 121.713001,184.473506 L122.561093,184.480377 L173.84564,184.479922 L173.846095,133.195374 C173.846095,104.871449 150.885018,81.9103715 122.561093,81.9103715 Z M324.164207,81.9103715 C296.123521,81.9103715 273.338962,104.414524 272.886075,132.347283 L272.879204,133.195374 L272.87864,184.479922 L324.164207,184.480377 C352.488132,184.480377 375.44921,161.519299 375.44921,133.195374 C375.44921,104.871449 352.488132,81.9103715 324.164207,81.9103715 Z" opacity=".755"/>
    <g transform="rotate(90 323.35 133.25)">
      <use fill="#000" filter="url(#img-illustration-a1qa-d)" xlink:href="#img-illustration-a1qa-e"/>
      <use fill="#FFF" xlink:href="#img-illustration-a1qa-e"/>
    </g>
    <path fill="#5055FE" fill-rule="nonzero" d="M20.4218201,2.44203894 C22.6485342,-0.086419985 26.5033636,-0.331032492 29.0318225,1.89568161 C29.2253037,2.0660728 29.4077887,2.24855784 29.5781799,2.44203894 L29.5781799,2.44203894 L32.1047019,5.31093312 C33.0870923,6.42644852 34.4791677,7.09683668 35.9638232,7.16938798 L35.9638232,7.16938798 L39.7820757,7.35597617 C43.147238,7.52042301 45.7419306,10.3817366 45.5774837,13.7468989 C45.5649,14.0044057 45.5360051,14.2608558 45.4909726,14.5147065 L45.4909726,14.5147065 L44.8232415,18.2787472 C44.5636069,19.7423235 44.9074211,21.248672 45.7763658,22.4546574 L45.7763658,22.4546574 L48.0111267,25.5562232 C49.9807014,28.289744 49.3614007,32.1023562 46.62788,34.0719308 C46.4187073,34.2226454 46.2001908,34.3599484 45.973645,34.4830139 L45.973645,34.4830139 L42.614476,36.3078017 C41.3083264,37.0173361 40.3449804,38.2253338 39.9438812,39.6566217 L39.9438812,39.6566217 L38.91233,43.3376228 C38.3007448,45.5200119 36.576923,47.0909113 34.5264399,47.6086616 L37.7669326,52.0826112 L37.8194977,52.1440632 C37.8766753,52.200878 37.9470494,52.2433227 38.0248518,52.2672676 C38.2887775,52.3484947 38.5685791,52.2003882 38.6498062,51.9364625 L38.6498062,51.9364625 L40.0438968,47.4067383 L45.3407398,47.4067383 L45.4199879,47.4004186 C45.4982372,47.3878573 45.5727784,47.3568045 45.6372063,47.3093641 C45.8595704,47.1456302 45.9070996,46.8326358 45.7433656,46.6102717 L45.7433656,46.6102717 L40.5754921,39.5918767 L40.5286887,39.5147277 C40.4244786,39.301801 40.4839944,39.0383256 40.6816513,38.8927843 C40.9040155,38.7290503 41.2170098,38.7765795 41.3807438,38.9989436 L41.3807438,38.9989436 L46.5486173,46.0173386 L46.6287431,46.1377367 C47.0212293,46.7933501 46.8579911,47.6523082 46.2301395,48.1146158 L46.2301395,48.1146158 L46.0969997,48.202144 C45.8683116,48.3356543 45.6074387,48.4067383 45.3407398,48.4067383 L45.3407398,48.4067383 L40.7823753,48.406 L39.6055657,52.2306118 L39.5565101,52.366661 C39.2632957,53.0722811 38.4759045,53.4523741 37.7307025,53.2230271 C37.4194929,53.1272476 37.1479007,52.9328022 36.9569448,52.669058 L36.9569448,52.669058 L33.4395791,47.8109475 L33.4213566,47.7815308 C32.7553111,47.8234191 32.0709882,47.7558795 31.3920415,47.5656138 C31.143791,47.496045 30.9002004,47.4108089 30.662735,47.3104184 L30.662735,47.3104184 L27.1416507,45.8218509 C25.7725435,45.2430495 24.2274565,45.2430495 22.8583493,45.8218509 L22.8583493,45.8218509 L19.337265,47.3104184 C19.1775096,47.3779564 19.0164928,47.438169 18.8545889,47.4912081 L14.9539496,52.7196002 C14.7636199,52.9748039 14.4970286,53.1628325 14.1927511,53.2564784 C13.4475491,53.4858255 12.6601579,53.1057325 12.3669435,52.4001124 L12.3178879,52.2640632 L11.131,48.406 L6.40269581,48.4067383 C6.17698643,48.4067383 5.95493778,48.355813 5.7528014,48.2586406 L5.6051866,48.177163 C4.9448231,47.7626198 4.71842364,46.9181087 5.06128124,46.2352302 L5.13227106,46.1092291 L9.57652508,39.0295738 C9.62410479,38.9537797 9.68867716,38.8951363 9.7621916,38.8554845 C9.27078921,37.7780354 8.43983428,36.8805304 7.38552403,36.3078017 L7.38552403,36.3078017 L4.02635498,34.4830139 C1.0657993,32.8747632 -0.0304604976,29.1710139 1.5777902,26.2104582 C1.70085572,25.9839124 1.83815874,25.7653959 1.98887326,25.5562232 L1.98887326,25.5562232 L4.22363423,22.4546574 C5.0925789,21.248672 5.43639312,19.7423235 5.17675848,18.2787472 L5.17675848,18.2787472 L4.5090274,14.5147065 C3.92053215,11.1973229 6.1327332,8.03098256 9.45011675,7.44248731 C9.70396743,7.39745486 9.96041754,7.36855987 10.2179243,7.35597617 L10.2179243,7.35597617 L14.0361768,7.16938798 C15.5208323,7.09683668 16.9129077,6.42644852 17.8952981,5.31093312 L17.8952981,5.31093312 Z M10.1507509,39.9943492 L5.97922089,46.6409019 C5.8324035,46.8747806 5.90298067,47.1833958 6.13685941,47.3302132 C6.18996066,47.3635475 6.24861172,47.3864472 6.30967765,47.3980099 L6.40269581,47.4067383 L11.8692617,47.4067383 L13.2736474,51.9699139 C13.3548745,52.2338396 13.6346761,52.381946 13.8986018,52.3007189 C13.9746712,52.2773075 14.0436744,52.2361992 14.1001867,52.1812203 L14.1523346,52.1217595 L17.3923188,47.7783652 C14.8617668,47.9575471 12.3858383,46.5339961 11.3428654,44.0669293 C11.2424749,43.8294639 11.1572388,43.5858733 11.08767,43.3376228 L11.08767,43.3376228 L10.1507509,39.9943492 Z M28.181572,2.48723929 C26.0685213,0.798126185 22.9792368,1.05113516 21.1722877,3.10294618 L21.1722877,3.10294618 L18.6457657,5.97184035 C17.4847588,7.29017674 15.8395789,8.08245366 14.084986,8.1681961 L14.084986,8.1681961 L10.2667335,8.35478429 C10.0514379,8.36530524 9.83702582,8.38946368 9.62478702,8.42711429 C6.85119794,8.91914181 5.00162686,11.5664471 5.49365438,14.3400362 L5.49365438,14.3400362 L6.16138546,18.1040769 C6.4682264,19.8337579 6.0619005,21.613988 5.0349659,23.0392435 L5.0349659,23.0392435 L2.80020492,26.1408093 C2.67419593,26.3156939 2.5594,26.4983906 2.45650771,26.6878003 C1.11188581,29.1630537 2.02844374,32.2596745 4.50369714,33.6042964 L4.50369714,33.6042964 L7.86286619,35.4290842 C9.40649747,36.2676248 10.5449973,37.6952585 11.0190237,39.3867805 L11.0190237,39.3867805 L12.0505748,43.0677817 C12.1087398,43.2753382 12.1800037,43.4789988 12.2639379,43.6775383 C13.3608109,46.2721013 16.353311,47.4862189 18.947874,46.3893459 L18.947874,46.3893459 L22.4689582,44.9007784 C24.086994,44.2167404 25.913006,44.2167404 27.5310418,44.9007784 L27.5310418,44.9007784 L31.052126,46.3893459 C31.2506655,46.4732801 31.4543261,46.544544 31.6618826,46.602709 C34.3742828,47.3628227 37.1893115,45.7801818 37.9494252,43.0677817 L37.9494252,43.0677817 L38.9809763,39.3867805 C39.4550027,37.6952585 40.5935025,36.2676248 42.1371338,35.4290842 L42.1371338,35.4290842 L45.4963029,33.6042964 C45.6857126,33.5014041 45.8684093,33.3866082 46.0432938,33.2605992 C48.3287285,31.6138825 48.8465118,28.426244 47.1997951,26.1408093 L47.1997951,26.1408093 L44.9650341,23.0392435 C43.9380995,21.613988 43.5317736,19.8337579 43.8386145,18.1040769 L43.8386145,18.1040769 L44.5063456,14.3400362 C44.5439962,14.1277974 44.5681547,13.9133853 44.5786756,13.6980897 C44.7161659,10.8845539 42.5468023,8.49227456 39.7332665,8.35478429 L39.7332665,8.35478429 L35.915014,8.1681961 C34.1604211,8.08245366 32.5152412,7.29017674 31.3542343,5.97184035 L31.3542343,5.97184035 L28.8277123,3.10294618 C28.6852521,2.94118102 28.5326805,2.78860942 28.3709153,2.64614922 L28.3709153,2.64614922 Z M25,9.5 C33.5604136,9.5 40.5,16.4395864 40.5,25 C40.5,33.5604136 33.5604136,40.5 25,40.5 C16.4395864,40.5 9.5,33.5604136 9.5,25 C9.5,16.4395864 16.4395864,9.5 25,9.5 Z M25,10.5 C16.9918711,10.5 10.5,16.9918711 10.5,25 C10.5,33.0081289 16.9918711,39.5 25,39.5 C33.0081289,39.5 39.5,33.0081289 39.5,25 C39.5,16.9918711 33.0081289,10.5 25,10.5 Z M24.551632,14.7787171 C24.7350388,14.4070943 25.2649612,14.4070943 25.448368,14.7787171 L25.448368,14.7787171 L28.271,20.498 L34.5824643,21.4150265 C34.9632809,21.4703624 35.131679,21.9088745 34.9161915,22.2028409 L34.9161915,22.2028409 L34.859571,22.2678732 L30.292,26.719 L31.3706567,33.0056474 C31.4360415,33.3868703 31.0669411,33.6836193 30.7192039,33.5647011 L30.7192039,33.5647011 L30.645182,33.5327357 L25,30.564 L19.354818,33.5327357 C19.0124586,33.7127247 18.6161752,33.4533898 18.6218164,33.0859244 L18.6218164,33.0859244 L18.6293433,33.0056474 L19.707,26.719 L15.140429,22.2678732 C14.8648675,21.9992672 14.9863815,21.5455216 15.3335037,21.4343581 L15.3335037,21.4343581 L15.4175357,21.4150265 L21.728,20.498 Z M25,16.13 L22.5094418,21.1761979 C22.4366108,21.3237696 22.295828,21.4260543 22.1329729,21.4497185 L22.1329729,21.4497185 L16.563,22.258 L20.5937233,26.1870418 C20.6879977,26.2789367 20.7412681,26.4032357 20.744562,26.5323244 L20.744562,26.5323244 L20.7375216,26.6296075 L19.785,32.176 L24.7673294,29.5574343 C24.883859,29.496171 25.0185359,29.4839184 25.1423244,29.5206763 L25.1423244,29.5206763 L25.2326706,29.5574343 L30.214,32.176 L29.2624784,26.6296075 C29.2402232,26.4998499 29.2701877,26.3679783 29.3433994,26.2616072 L29.3433994,26.2616072 L29.4062767,26.1870418 L33.436,22.258 L27.8670271,21.4497185 C27.736743,21.4307872 27.6205852,21.3615387 27.542044,21.2590398 L27.542044,21.2590398 L27.4905582,21.1761979 L25,16.13 Z" transform="translate(298 106)"/>
    <g opacity=".697" transform="rotate(90 223.33 233.078)">
      <use fill="#000" filter="url(#img-illustration-a1qa-f)" xlink:href="#img-illustration-a1qa-g"/>
      <use fill="#FFF" xlink:href="#img-illustration-a1qa-g"/>
    </g>
    <g transform="rotate(90 222.887 233.554)">
      <use fill="#000" filter="url(#img-illustration-a1qa-h)" xlink:href="#img-illustration-a1qa-i"/>
      <use fill="#FFF" xlink:href="#img-illustration-a1qa-i"/>
    </g>
    <g transform="rotate(90 323.441 334.412)">
      <use fill="#000" filter="url(#img-illustration-a1qa-j)" xlink:href="#img-illustration-a1qa-k"/>
      <use fill="#FFF" xlink:href="#img-illustration-a1qa-k"/>
    </g>
    <g transform="translate(296 306)">
      <path fill="#5055FE" fill-rule="nonzero" d="M32.5,28.5 C34.1568542,28.5 35.5,29.8431458 35.5,31.5 C35.5,33.1568542 34.1568542,34.5 32.5,34.5 C31.731693,34.5 31.0308431,34.2111821 30.5000983,33.7361945 L30.5,45.5 L33,45.5 C34.3254834,45.5 35.4100387,46.5315359 35.4946823,47.8356243 L35.5,48 L35.5,49 C35.5,50.3807119 34.3807119,51.5 33,51.5 L33,51.5 C33.314041,51.9178676 33.5,52.4372173 33.5,53 L33.5,53 L33.5,54 C33.5,55.3807119 32.3807119,56.5 31,56.5 L31,56.5 L25,56.5 C23.6192881,56.5 22.5,55.3807119 22.5,54 L22.5,54 L22.5,53 C22.5,52.4477153 22.6790861,51.9372583 22.982355,51.5235325 L23,51.5 C21.6192881,51.5 20.5,50.3807119 20.5,49 L20.5,49 L20.5,48 C20.5,46.6192881 21.6192881,45.5 23,45.5 L23,45.5 L25.5,45.5 L25.5008825,33.7353163 C25.0108812,34.1742259 24.3757205,34.4543804 23.6762728,34.4949073 L23.5,34.5 C21.8431458,34.5 20.5,33.1568542 20.5,31.5 C20.5,29.8431458 21.8431458,28.5 23.5,28.5 C25.1568542,28.5 26.5,29.8431458 26.5,31.5 C26.5,31.6221532 26.4926993,31.7426012 26.4785104,31.8609316 C26.4848436,31.8761278 26.4888314,31.8929737 26.4919443,31.9101244 L26.5,32 L26.5,33.458 L29.5,33.458 L29.5,32 C29.5,31.951269 29.5069713,31.9041662 29.5199711,31.8596346 C29.5073007,31.7426012 29.5,31.6221532 29.5,31.5 C29.5,29.8431458 30.8431458,28.5 32.5,28.5 Z M31,51.5 L25,51.5 C24.1715729,51.5 23.5,52.1715729 23.5,53 L23.5,53 L23.5,54 C23.5,54.8284271 24.1715729,55.5 25,55.5 L25,55.5 L31,55.5 C31.8284271,55.5 32.5,54.8284271 32.5,54 L32.5,54 L32.5,53 C32.5,52.1715729 31.8284271,51.5 31,51.5 L31,51.5 Z M33,46.5 L23,46.5 C22.1715729,46.5 21.5,47.1715729 21.5,48 L21.5,48 L21.5,49 C21.5,49.8284271 22.1715729,50.5 23,50.5 L23,50.5 L33,50.5 C33.8284271,50.5 34.5,49.8284271 34.5,49 L34.5,49 L34.5,48 C34.5,47.1715729 33.8284271,46.5 33,46.5 L33,46.5 Z M29.9733333,0.5 C31.8325311,0.5 33.4103556,1.84548406 33.7223735,3.65868249 L33.7509155,3.85470349 L34.239,7.691 L34.4715583,7.77039325 C35.1802623,8.0211964 35.8728812,8.30823797 36.545734,8.62967714 L36.759,8.735 L39.8125256,6.36057316 C41.2985402,5.21128501 43.367365,5.29896854 44.7096024,6.54071819 L44.8556833,6.68343541 L48.3284243,10.1596308 C49.6486287,11.4417438 49.8225786,13.5034084 48.771292,15.0261194 L48.6445478,15.19935 L46.272,18.256 L46.3787148,18.4706388 C46.7007261,19.1437949 46.9876879,19.8371363 47.2375851,20.5463855 L47.315,20.777 L51.1541953,21.2666826 C52.9948405,21.4905296 54.4001743,23.0147502 54.4949052,24.8520057 L54.5,25.0500074 L54.5,30.0014795 C54.5,31.8620273 53.1558783,33.4413051 51.3441159,33.7536603 L51.148249,33.7822341 L47.315,34.271 L47.2364716,34.5034461 C46.9857293,35.2122496 46.6989243,35.9052113 46.378071,36.5780535 L46.272,36.792 L48.644741,39.8479652 C49.7948483,41.33231 49.7065333,43.4049175 48.4654091,44.7491004 L48.3227667,44.8953896 L44.8499447,48.3715043 C43.5663184,49.6958363 41.4994126,49.8695283 39.9802372,48.8106759 L39.8137616,48.6879493 L36.5123033,46.1215837 C36.2942838,45.9521077 36.2549314,45.6379805 36.4244074,45.419961 C36.5750527,45.2261659 36.8399903,45.1735399 37.0501276,45.2832662 L37.12603,45.3320651 L40.4278715,47.8987289 C41.5101689,48.7417321 43.0200763,48.6868997 44.0060741,47.7966938 L44.1371917,47.67013 L47.6206499,44.1833671 C48.5902516,43.2414743 48.72615,41.7373475 47.9640469,40.6118669 L47.8545516,40.4608277 L45.0959518,36.9075532 L45.2401716,36.6246596 C45.6263602,35.8671334 45.9666513,35.0802221 46.2576472,34.2710817 L46.4665982,33.6601703 L46.5644749,33.3586702 L51.0256045,32.7897911 C52.3777391,32.6280244 53.4107741,31.5203327 53.4945129,30.1778579 L53.5,30.0014795 L53.5,25.0500074 C53.5,23.6897965 52.5244164,22.5305689 51.2047469,22.2857188 L51.0307167,22.259026 L46.5638441,21.6906113 L46.4663064,21.3882042 C46.2020175,20.5687998 45.88626,19.7698842 45.5224234,18.9985972 L45.240584,18.425424 L45.0956135,18.1423272 L47.854188,14.5867071 C48.6958732,13.4998964 48.6416178,11.9893583 47.7527369,11.0028845 L47.6263583,10.8717026 L44.1429796,7.38486059 C43.2028872,6.41523125 41.7026576,6.2798764 40.57656,7.04134477 L40.425408,7.15074607 L36.8750434,9.91244462 L36.5917234,9.76772669 C35.8340807,9.38072798 35.0478129,9.04018353 34.2390443,8.74918025 L33.6283448,8.54026499 L33.3267442,8.44237065 L32.7584434,3.97711362 C32.5967908,2.62330603 31.4902351,1.58930829 30.1494837,1.50549217 L29.9733333,1.5 L25.0266667,1.5 C23.6677695,1.5 22.5104745,2.47679282 22.2675418,3.79972846 L22.2410989,3.97419645 L21.6733446,8.44455229 L21.3716552,8.54247547 C20.5520192,8.80851523 19.7533526,9.12486789 18.9817801,9.48844654 L18.4082766,9.76993717 L18.1248261,9.91472178 L14.5751526,7.1511815 C13.4908343,6.31019813 11.9805771,6.36410081 10.9959383,7.25279252 L10.8650167,7.37914642 L7.38155838,10.8659093 C6.41199232,11.8077676 6.27603225,13.3139107 7.03826979,14.4397469 L7.14778468,14.5908241 L9.90398166,18.1440641 L9.75982838,18.4268273 C9.37363982,19.1843535 9.03334871,19.9712648 8.74235277,20.7804052 L8.53340175,21.3913166 L8.43552511,21.6928167 L3.97439545,22.2616958 C2.62226089,22.4234625 1.58922592,23.5311542 1.50548712,24.873629 L1.5,25.0500074 L1.5,30.0014795 C1.5,31.3618176 2.47579569,32.5212233 3.79722319,32.7677511 L3.97149161,32.7946714 L8.43836422,33.3630861 L8.53590193,33.6654931 C8.80019086,34.4848976 9.1159483,35.2838132 9.47978493,36.0551001 L9.7616243,36.6282734 L9.90659485,36.9113702 L7.14802029,40.4669903 C6.30633513,41.5538009 6.36059052,43.0643391 7.24947142,44.0508129 L7.37585,44.1819947 L10.8589074,47.6685056 C11.7992038,48.6365561 13.3015263,48.7714271 14.4259066,48.0101166 L14.5768003,47.9007408 L17.8760503,45.3343751 C18.0940149,45.1648285 18.4081548,45.204079 18.5777014,45.4220435 C18.7284095,45.6157898 18.7141422,45.8855265 18.5560276,46.062154 L18.490033,46.1236946 L15.1899983,48.6906695 C13.7064979,49.8399064 11.6356888,49.7528457 10.2926857,48.5127869 L10.146525,48.3702619 L6.67378406,44.8940665 C5.35357967,43.6119535 5.17962974,41.5502889 6.23091633,40.027578 L6.35766057,39.8543474 L8.729,36.797 L8.62349358,36.5830585 C8.30148225,35.9099025 8.01452039,35.2165611 7.76462319,34.5073118 L7.686,34.275 L3.84743971,33.7869447 C2.00507223,33.5607281 0.599817776,32.0366746 0.505094362,30.1994756 L0.5,30.0014795 L0.5,25.0500074 C0.5,23.1894596 1.84412171,21.6101817 3.65588405,21.2978265 L3.85175096,21.2692527 L7.685,20.78 L7.76352839,20.5480408 C8.01427068,19.8392373 8.30107566,19.1462756 8.62192902,18.4734334 L8.727,18.258 L6.35746729,15.2035217 C5.20734053,13.7191517 5.2956951,11.6444913 6.53680148,10.3001819 L6.67944167,10.1538868 L10.1522637,6.67777206 C11.4343436,5.35503548 13.5004815,5.18287269 15.0219914,6.23913324 L15.1887393,6.36155472 L18.239,8.737 L18.454266,8.63188762 C19.1271188,8.31044845 19.8197377,8.02340688 20.5284417,7.77260373 L20.76,7.693 L21.2486381,3.85168473 C21.4696901,2.00779523 22.9920042,0.600000522 24.8287178,0.505103728 L25.0266667,0.5 L29.9733333,0.5 Z M29.5,34.458 L26.5,34.458 L26.5,45.5 L29.5,45.5 L29.5,34.458 Z M23.5,29.5 C22.3954305,29.5 21.5,30.3954305 21.5,31.5 C21.5,32.6045695 22.3954305,33.5 23.5,33.5 C24.6045695,33.5 25.5,32.6045695 25.5,31.5 C25.5,30.3954305 24.6045695,29.5 23.5,29.5 Z M32.5,29.5 C31.3954305,29.5 30.5,30.3954305 30.5,31.5 C30.5,32.6045695 31.3954305,33.5 32.5,33.5 C33.6045695,33.5 34.5,32.6045695 34.5,31.5 C34.5,30.3954305 33.6045695,29.5 32.5,29.5 Z M27.5,12.5 C35.6794071,12.5 42.3297302,19.0467864 42.4967822,27.1861718 L42.5,27.5 L41.5,27.5 C41.5,19.7680135 35.2319865,13.5 27.5,13.5 C19.8724998,13.5 13.6696731,19.5997524 13.503422,27.187355 L13.5,27.5 L12.5,27.5 C12.5,19.2157288 19.2157288,12.5 27.5,12.5 Z"/>
      <path stroke="#5055FE" d="M42,27.0615234 C42,35.7546387 37.2836914,37.7558594 35.6640625,40.9423828 C34.5843099,43.0667318 34.0296224,44.7526042 34,46 L22,46 C22.1459961,44.1486003 21.6333822,42.4627279 20.4621582,40.9423828 C18.7053223,38.6618652 13,35.5090332 13,27.0615234"/>
    </g>
    <g transform="rotate(90 121.941 334.412)">
      <use fill="#000" filter="url(#img-illustration-a1qa-l)" xlink:href="#img-illustration-a1qa-m"/>
      <use fill="#FFF" xlink:href="#img-illustration-a1qa-m"/>
    </g>
    <g transform="rotate(90 123.15 133.25)">
      <use fill="#000" filter="url(#img-illustration-a1qa-n)" xlink:href="#img-illustration-a1qa-o"/>
      <use fill="#FFF" xlink:href="#img-illustration-a1qa-o"/>
    </g>
    <g fill="#5055FE" fill-rule="nonzero" transform="rotate(-140 76.575 114.868)">
      <circle cx="10.416" cy="10.067" r="7.07" opacity=".152" transform="rotate(45 10.416 10.067)"/>
      <circle cx="10.416" cy="10.067" r="2.357" transform="rotate(45 10.416 10.067)"/>
    </g>
    <g fill="#5055FE" fill-rule="nonzero" transform="rotate(-140 47.662 -.286)">
      <circle cx="10.416" cy="10.067" r="7.07" opacity=".152" transform="rotate(45 10.416 10.067)"/>
      <circle cx="10.416" cy="10.067" r="2.357" transform="rotate(45 10.416 10.067)"/>
    </g>
    <g fill="#5055FE" fill-rule="nonzero" transform="rotate(-140 259.617 55.737)">
      <circle cx="10.416" cy="10.067" r="7.07" opacity=".152" transform="rotate(45 10.416 10.067)"/>
      <circle cx="10.416" cy="10.067" r="2.357" transform="rotate(45 10.416 10.067)"/>
    </g>
    <g fill="#5055FE" fill-rule="nonzero" transform="rotate(-140 277.28 168.798)">
      <circle cx="10.416" cy="10.067" r="7.07" opacity=".152" transform="rotate(45 10.416 10.067)"/>
      <circle cx="10.416" cy="10.067" r="2.357" transform="rotate(45 10.416 10.067)"/>
    </g>
    <g fill="#000" fill-rule="nonzero" transform="translate(201.631 202.324)">
      <path d="M12.5861256,17.2318386 C11.5944438,17.9101337 10.2629366,18.0664821 9.06201043,18.0664821 C7.20844122,18.0664821 5.64199301,17.2582895 5.64199301,14.9112313 C5.64199301,12.3821595 7.44338224,11.7300534 9.63625241,11.7300534 C10.7065975,11.7300534 11.7509837,11.9125907 12.5861256,12.0951281 L12.5861256,17.2318386 Z M8.90520828,0.0749005418 C6.24245608,0.0749005418 3.44912284,0.544469323 1.20381047,1.35239999 L1.20381047,5.42007557 C2.48339991,5.0811899 5.25024985,4.35104056 7.86108428,4.35104056 C10.3672965,4.35104056 12.6126089,4.95050679 12.6126089,7.34968114 L12.6126089,8.54913737 C11.6466238,8.26210592 10.1061344,8.02745247 8.43532626,8.02745247 C4.15394587,8.02745247 0.133465374,9.54039104 0.133465374,15.223928 C0.133465374,20.7519022 4.46702574,22.3947382 8.90520828,22.3947382 C12.1684236,22.3947382 15.5100399,21.3513684 17.8856711,19.4744028 L17.8856711,7.92322025 C17.8856711,1.63943144 13.4999308,0.0749005418 8.90520828,0.0749005418 L8.90520828,0.0749005418 Z" transform="translate(24.462 32.583)"/>
      <polygon points="5.195 22.548 .47 22.548 .47 26.928 15.246 26.928 15.246 22.548 10.521 22.548 10.521 .072 .131 2.184 .131 6.304 5.195 5.469" transform="translate(25.744 .201)"/>
      <path d="M12.5370935,17.2318386 C11.5451495,17.9098719 10.2136423,18.0662202 9.01271615,18.0662202 C7.15940916,18.0662202 5.59296095,17.2580276 5.59296095,14.9112313 C5.59296095,12.3821595 7.39408796,11.7303153 9.58722035,11.7303153 C10.6575654,11.7303153 11.7016894,11.9128526 12.5370935,12.0953899 L12.5370935,17.2318386 Z M8.38629419,8.02771436 C4.1049138,8.02771436 0.0844333091,9.54012915 0.0844333091,15.2241898 C0.0844333091,20.7519022 4.41799368,22.3944763 8.85591401,22.3944763 C12.1196537,22.3944763 15.4610078,21.3516303 17.836639,19.4744028 L17.836639,7.92322025 C17.836639,1.63943144 13.4508987,0.0751624318 8.85591401,0.0751624318 C6.19316181,0.0751624318 3.39982856,0.544469323 1.15477841,1.35266188 L1.15477841,5.42033746 C2.43436784,5.0811899 5.20148,4.35130245 7.81205221,4.35130245 C10.3180023,4.35130245 12.5635768,4.95076868 12.5635768,7.34994303 L12.5635768,8.54913737 C11.5973295,8.26210592 10.0568402,8.02771436 8.38629419,8.02771436 L8.38629419,8.02771436 Z" transform="translate(1.876 5.309)"/>
      <path d="M13.5859373,16.2146578 C12.5677722,17.2053877 11.105684,17.6749565 9.98315888,17.6749565 C7.26848892,17.6749565 5.64959851,15.8493213 5.64959851,11.4168329 C5.64959851,7.58407269 6.87648354,4.68992623 11.105684,4.68992623 C11.8889081,4.68992623 12.7243122,4.84653646 13.5859373,5.18542212 L13.5859373,16.2146578 Z M18.9117039,2.421435 C16.4574094,0.961398213 14.2383182,0.100565762 11.001324,0.100565762 C3.37832726,0.100565762 0.141333085,4.92457968 0.141333085,11.8864017 C0.219471948,18.7958458 3.8222504,22.4204034 8.78223273,22.4204034 C10.5052209,22.4204034 12.280389,21.8987185 13.5859373,21.0902641 L13.5859373,33.1369425 L23.9760462,31.0771776 L23.9760462,26.9573859 L18.9117039,27.7396514 L18.9117039,2.421435 Z" transform="translate(.227 32.557)"/>
    </g>
    <path fill="#5055FE" fill-rule="nonzero" d="M139,113.5 C140.325483,113.5 141.410039,114.531536 141.494682,115.835624 L141.5,116 L141.5,138.977 L141.799,139.582 L148.405999,140.5421 C149.177592,140.654219 149.726141,141.335063 149.68869,142.098262 L149.68869,142.098262 L149.674712,142.242208 C149.627276,142.568663 149.473545,142.870377 149.237319,143.10064 L149.237319,143.10064 L144.456,147.759 L145.585382,154.340146 C145.717186,155.108621 145.239176,155.840715 144.501758,156.040938 L144.501758,156.040938 L144.360537,156.072126 C144.035401,156.127892 143.700949,156.07492 143.408958,155.921411 L143.408958,155.921411 L137.5,152.814 L131.591042,155.921411 C130.900908,156.284236 130.056932,156.05585 129.638634,155.416396 L129.638634,155.416396 L129.565333,155.291726 C129.411824,154.999735 129.358852,154.665283 129.414618,154.340146 L129.414618,154.340146 L130.415,148.5 L105,148.5 C103.674517,148.5 102.589961,147.468464 102.505318,146.164376 L102.5,146 L102.5,116 C102.5,114.674517 103.531536,113.589961 104.835624,113.505318 L105,113.5 L139,113.5 Z M137.637123,133.778631 C137.409224,133.713367 137.160264,133.818156 137.051632,134.038269 L137.051632,134.038269 L133.864482,140.496139 L126.737799,141.531707 C126.62898,141.547519 126.528409,141.598763 126.451655,141.677505 C126.258904,141.875246 126.262951,142.191803 126.460692,142.384554 L126.460692,142.384554 L131.617609,147.411305 L130.400226,154.509191 C130.381638,154.61757 130.399295,154.729054 130.450464,154.826384 C130.578965,155.070807 130.881278,155.16478 131.125701,155.03628 L131.125701,155.03628 L137.5,151.685112 L143.874299,155.03628 C143.97163,155.087449 144.083114,155.105106 144.191492,155.086518 C144.463661,155.039838 144.646455,154.78136 144.599774,154.509191 L144.599774,154.509191 L143.382391,147.411305 L148.539308,142.384554 C148.618049,142.307799 148.669293,142.207228 148.685105,142.09841 C148.724814,141.825137 148.535473,141.571416 148.262201,141.531707 L148.262201,141.531707 L141.135518,140.496139 L137.948368,134.038269 C137.899703,133.939662 137.819889,133.859849 137.721283,133.811183 L137.721283,133.811183 Z M133.2,139.582 L135.705,134.504 L122.5,134.504 L122.5,147.5 L130.277,147.5 L125.762681,143.10064 C125.243608,142.59467 125.169431,141.804332 125.546381,141.217239 L125.634063,141.094722 L125.735569,140.979493 C125.965832,140.743267 126.267545,140.589537 126.594001,140.5421 L126.594001,140.5421 L133.2,139.582 Z M121.5,134.504 L103.5,134.504 L103.5,146 C103.5,146.779696 104.094888,147.420449 104.85554,147.493133 L105,147.5 L121.5,147.5 L121.5,134.504 Z M140.5,136.95 L140.5,134.504 L139.293,134.504 L140.5,136.95 Z M140.5,123 L122.5,123 L122.5,133.504 L136.205031,133.502423 C136.598503,132.827861 137.452875,132.563561 138.163849,132.914447 C138.459667,133.060443 138.699109,133.299884 138.845104,133.595703 L138.793,133.504 L140.5,133.504 L140.5,123 Z M121.5,123 L103.5,123 L103.5,133.504 L121.5,133.504 L121.5,123 Z M139,114.5 L105,114.5 C104.220304,114.5 103.579551,115.094888 103.506867,115.85554 L103.5,116 L103.5,122 L140.5,122 L140.5,116 C140.5,115.220304 139.905112,114.579551 139.14446,114.506867 L139,114.5 Z M108,116.5 C108.828427,116.5 109.5,117.171573 109.5,118 C109.5,118.828427 108.828427,119.5 108,119.5 C107.171573,119.5 106.5,118.828427 106.5,118 C106.5,117.171573 107.171573,116.5 108,116.5 Z M112,116.5 C112.828427,116.5 113.5,117.171573 113.5,118 C113.5,118.828427 112.828427,119.5 112,119.5 C111.171573,119.5 110.5,118.828427 110.5,118 C110.5,117.171573 111.171573,116.5 112,116.5 Z M108,117.5 C107.723858,117.5 107.5,117.723858 107.5,118 C107.5,118.276142 107.723858,118.5 108,118.5 C108.276142,118.5 108.5,118.276142 108.5,118 C108.5,117.723858 108.276142,117.5 108,117.5 Z M112,117.5 C111.723858,117.5 111.5,117.723858 111.5,118 C111.5,118.276142 111.723858,118.5 112,118.5 C112.276142,118.5 112.5,118.276142 112.5,118 C112.5,117.723858 112.276142,117.5 112,117.5 Z"/>
    <path fill="#5055FE" fill-rule="nonzero" d="M27.9568143,0.751819892 C28.3638449,0.558626853 28.8361582,0.558626853 29.2431888,0.751819892 L29.2431888,0.751819892 L55.491388,13.2102672 C56.2397919,13.5654898 56.5585285,14.4601558 56.203306,15.2085597 C56.0533521,15.5244914 55.7977229,15.7780994 55.4806108,15.9255407 L55.4806108,15.9255407 L47.5084395,19.6319251 L47.5088916,29.2546387 L47.4891631,29.2542441 C47.2897142,31.4905317 45.5890573,33.4982781 42.8915065,35.0516903 L42.8918121,38.3471649 C43.8132041,38.5258171 44.5088916,39.3369387 44.5088916,40.3105469 C44.5088916,41.1882519 43.9435083,41.9339046 43.157072,42.2031747 L45.0825401,48.2527504 C45.1851001,48.5752117 44.9444379,48.9042969 44.6060596,48.9042969 L44.6060596,48.9042969 L40.544292,48.9042969 C40.2097537,48.9042969 39.9695838,48.582135 40.0651092,48.2615249 L40.0651092,48.2615249 L41.8697182,42.2062345 C41.0785954,41.9395899 40.5088916,41.1915991 40.5088916,40.3105469 C40.5088916,39.4216846 41.0887404,38.6682532 41.8908089,38.407882 L41.8913094,35.5844431 C38.4518808,37.2796959 33.7182503,38.3105469 28.5088916,38.3105469 C18.3415636,38.3105469 9.98642688,34.3837264 9.52864764,29.2545527 L9.50889159,29.2546387 L9.50843953,19.5569251 L1.7162957,15.9259838 C1.009548,15.5966911 0.679986178,14.7868487 0.935351541,14.0666662 L0.99013788,13.9328218 C1.13765897,13.6162033 1.39105264,13.3609951 1.70661055,13.2112187 L1.70661055,13.2112187 Z M42.524,43.509 L41.215,47.904 L43.922,47.904 L42.524,43.509 Z M42.5088916,39.3105469 C41.9566068,39.3105469 41.5088916,39.7582621 41.5088916,40.3105469 C41.5088916,40.8628316 41.9566068,41.3105469 42.5088916,41.3105469 C43.0611763,41.3105469 43.5088916,40.8628316 43.5088916,40.3105469 C43.5088916,39.7582621 43.0611763,39.3105469 42.5088916,39.3105469 Z M10.5084395,20.0229251 L10.5088916,28.8105469 C10.5088916,33.4068559 18.5331452,37.3105469 28.5088916,37.3105469 C33.8335272,37.3105469 38.602187,36.1983942 41.8914076,34.4623853 L41.8894395,22.2439251 L29.2028371,28.143388 C28.8516326,28.3066804 28.453011,28.3269496 28.0900528,28.2042287 L27.9369249,28.1428797 L10.5084395,20.0229251 Z M46.5084395,20.0969251 L42.8904395,21.7789251 L42.89102,33.8869904 C45.0890151,32.5049793 46.4190958,30.8084101 46.5045105,28.9964964 L46.5088916,28.8105469 L46.5084395,20.0969251 Z M28.8143973,1.65522337 C28.6787205,1.59082569 28.5212827,1.59082569 28.3856058,1.65522337 L28.3856058,1.65522337 L2.13540205,14.1146222 C2.03021608,14.1645477 1.94575152,14.249617 1.89657783,14.3551566 C1.77995331,14.605463 1.88832395,14.9029194 2.13863043,15.0195439 L2.13863043,15.0195439 L28.3592597,27.2364397 C28.4930019,27.2987538 28.6474382,27.2988158 28.7812304,27.2366092 L28.7812304,27.2366092 L41.1934395,21.4639251 L27.7306687,14.8924404 C27.5100861,14.7847656 27.404217,14.5362637 27.4684902,14.3080829 L27.5006764,14.2237824 C27.6083512,14.0031998 27.8568531,13.8973307 28.0850339,13.9616039 L28.1693344,13.9937901 L42.3624395,20.9209251 L55.0590041,15.0187619 C55.1382821,14.9819016 55.2060321,14.925135 55.2560395,14.8546276 L55.2999025,14.7797682 C55.41831,14.5303002 55.3120645,14.2320782 55.0625965,14.1136707 L55.0625965,14.1136707 Z" transform="translate(93.991 312.19)"/>
  </g>
</svg>
