<svg xmlns="http://www.w3.org/2000/svg" xmlns:xlink="http://www.w3.org/1999/xlink" width="516" height="236" viewBox="0 0 516 236">
  <defs>
    <linearGradient id="img-principles-d" x1="100%" x2="0%" y1="100%" y2="0%">
      <stop offset="0%" stop-color="#1E85E9" stop-opacity=".3"/>
      <stop offset="20.276%" stop-color="#8671F3" stop-opacity=".397"/>
      <stop offset="70.727%" stop-color="#C06CFD" stop-opacity=".4"/>
      <stop offset="100%" stop-color="#FFBEE8" stop-opacity=".3"/>
    </linearGradient>
    <circle id="img-principles-a" cx="256.734" cy="117.15" r="117"/>
    <mask id="img-principles-e" width="235" height="235" x="-.5" y="-.5" maskContentUnits="userSpaceOnUse" maskUnits="objectBoundingBox">
      <rect width="235" height="235" x="139.234" y="-.35" fill="#fff"/>
      <use xlink:href="#img-principles-a"/>
    </mask>
    <circle id="img-principles-b" cx="95" cy="118" r="95"/>
    <mask id="img-principles-f" width="191" height="191" x="-.5" y="-.5" maskContentUnits="userSpaceOnUse" maskUnits="objectBoundingBox">
      <rect width="191" height="191" x="-.5" y="22.5" fill="#fff"/>
      <use xlink:href="#img-principles-b"/>
    </mask>
    <circle id="img-principles-c" cx="419" cy="118" r="95"/>
    <mask id="img-principles-g" width="191" height="191" x="-.5" y="-.5" maskContentUnits="userSpaceOnUse" maskUnits="objectBoundingBox">
      <rect width="191" height="191" x="323.5" y="22.5" fill="#fff"/>
      <use xlink:href="#img-principles-c"/>
    </mask>
    <circle id="img-principles-i" cx="253.734" cy="117.15" r="39.5"/>
    <filter id="img-principles-h" width="129.1%" height="129.1%" x="-14.6%" y="-12%" filterUnits="objectBoundingBox">
      <feMorphology in="SourceAlpha" radius="1" result="shadowSpreadOuter1"/>
      <feOffset dy="2" in="shadowSpreadOuter1" result="shadowOffsetOuter1"/>
      <feGaussianBlur in="shadowOffsetOuter1" result="shadowBlurOuter1" stdDeviation="4.5"/>
      <feColorMatrix in="shadowBlurOuter1" values="0 0 0 0 0.0415817482   0 0 0 0 0.0415817482   0 0 0 0 0.0415817482  0 0 0 0.1 0"/>
    </filter>
    <linearGradient id="img-principles-j" x1="83.556%" x2="21.12%" y1="108.696%" y2="0%">
      <stop offset="0%" stop-color="#A086F5"/>
      <stop offset="20.276%" stop-color="#9C83F5"/>
      <stop offset="70.727%" stop-color="#D4B1FC"/>
      <stop offset="100%" stop-color="#EED7FD"/>
    </linearGradient>
    <linearGradient id="img-principles-k" x1="108.096%" x2="0%" y1="108.696%" y2="0%">
      <stop offset="0%" stop-color="#A086F5"/>
      <stop offset="20.276%" stop-color="#9C83F5"/>
      <stop offset="70.727%" stop-color="#D4B1FC"/>
      <stop offset="100%" stop-color="#EED7FD"/>
    </linearGradient>
    <circle id="img-principles-m" cx="255" cy="120" r="38"/>
    <filter id="img-principles-l" width="130.3%" height="130.3%" x="-15.1%" y="-12.5%" filterUnits="objectBoundingBox">
      <feMorphology in="SourceAlpha" radius="1" result="shadowSpreadOuter1"/>
      <feOffset dy="2" in="shadowSpreadOuter1" result="shadowOffsetOuter1"/>
      <feGaussianBlur in="shadowOffsetOuter1" result="shadowBlurOuter1" stdDeviation="4.5"/>
      <feColorMatrix in="shadowBlurOuter1" values="0 0 0 0 0.0415817482   0 0 0 0 0.0415817482   0 0 0 0 0.0415817482  0 0 0 0.1 0"/>
    </filter>
    <circle id="img-principles-o" cx="422" cy="122" r="38"/>
    <filter id="img-principles-n" width="130.3%" height="130.3%" x="-15.1%" y="-12.5%" filterUnits="objectBoundingBox">
      <feMorphology in="SourceAlpha" radius="1" result="shadowSpreadOuter1"/>
      <feOffset dy="2" in="shadowSpreadOuter1" result="shadowOffsetOuter1"/>
      <feGaussianBlur in="shadowOffsetOuter1" result="shadowBlurOuter1" stdDeviation="4.5"/>
      <feColorMatrix in="shadowBlurOuter1" values="0 0 0 0 0.0415817482   0 0 0 0 0.0415817482   0 0 0 0 0.0415817482  0 0 0 0.1 0"/>
    </filter>
    <circle id="img-principles-q" cx="90" cy="121" r="38"/>
    <filter id="img-principles-p" width="130.3%" height="130.3%" x="-15.1%" y="-12.5%" filterUnits="objectBoundingBox">
      <feMorphology in="SourceAlpha" radius="1" result="shadowSpreadOuter1"/>
      <feOffset dy="2" in="shadowSpreadOuter1" result="shadowOffsetOuter1"/>
      <feGaussianBlur in="shadowOffsetOuter1" result="shadowBlurOuter1" stdDeviation="4.5"/>
      <feColorMatrix in="shadowBlurOuter1" values="0 0 0 0 0.0415817482   0 0 0 0 0.0415817482   0 0 0 0 0.0415817482  0 0 0 0.1 0"/>
    </filter>
  </defs>
  <g fill="none" fill-rule="evenodd" transform="translate(1 1)">
    <use stroke="url(#img-principles-d)" stroke-dasharray="2" mask="url(#img-principles-e)" xlink:href="#img-principles-a"/>
    <g fill="#5055FE" transform="translate(180 20)">
      <circle cx="5" cy="5" r="5" opacity=".103"/>
      <circle cx="5" cy="5" r="2.143"/>
    </g>
    <g fill="#5055FE" transform="translate(325 20)">
      <circle cx="5" cy="5" r="5" opacity=".103"/>
      <circle cx="5" cy="5" r="2.143"/>
    </g>
    <g fill="#5055FE" transform="translate(180 206)">
      <circle cx="5" cy="5" r="5" opacity=".103"/>
      <circle cx="5" cy="5" r="2.143"/>
    </g>
    <g fill="#5055FE" transform="translate(325 206)">
      <circle cx="5" cy="5" r="5" opacity=".103"/>
      <circle cx="5" cy="5" r="2.143"/>
    </g>
    <use stroke="url(#img-principles-d)" stroke-dasharray="2" mask="url(#img-principles-f)" xlink:href="#img-principles-b"/>
    <use stroke="url(#img-principles-d)" stroke-dasharray="2" mask="url(#img-principles-g)" xlink:href="#img-principles-c"/>
    <use fill="#000" filter="url(#img-principles-h)" xlink:href="#img-principles-i"/>
    <use fill="#FFF" xlink:href="#img-principles-i"/>
    <path stroke="url(#img-principles-j)" stroke-linecap="round" stroke-linejoin="round" stroke-width="20" d="M72.2831768,164.213711 C78.5681449,166.694941 85.4085003,168.056917 92.5638758,168.056917 C123.336796,168.056917 148.283177,142.866114 148.283177,111.791683 C148.283177,94.1319461 140.226246,78.3724439 127.62174,68.0569169" transform="rotate(-30 110.283 118.057)"/>
    <path stroke="url(#img-principles-j)" stroke-linecap="round" stroke-linejoin="round" stroke-width="20" d="M363.283177,164.213711 C369.568145,166.694941 376.4085,168.056917 383.563876,168.056917 C414.336796,168.056917 439.283177,142.866114 439.283177,111.791683 C439.283177,94.1319461 431.226246,78.3724439 418.62174,68.0569169" transform="scale(-1 1) rotate(-30 0 1615.666)"/>
    <circle cx="255.538" cy="119.18" r="79" fill="#FFF" stroke="url(#img-principles-k)" stroke-width="20" opacity=".8"/>
    <use fill="#000" filter="url(#img-principles-l)" xlink:href="#img-principles-m"/>
    <use fill="#FFF" xlink:href="#img-principles-m"/>
    <path fill="#5055FE" fill-rule="nonzero" d="M265.653702,106.97674 L265.726429,107.012966 L272.772194,111.461076 C273.00026,111.605058 273.020993,111.923152 272.834394,112.098791 L272.772194,112.146892 L265.726429,116.595002 C265.538941,116.713366 265.291959,116.655794 265.174779,116.466412 C265.072246,116.300701 265.103067,116.088981 265.237977,115.959345 L265.302083,115.909186 L271.251549,112.153 L263.891299,112.153917 C261.471801,112.153917 259.246557,113.442145 258.056765,115.513304 L257.937411,115.730334 L254.979057,121.354983 C255.001177,121.378941 255.020691,121.405971 255.036918,121.435868 L255.036918,121.435868 L257.372453,125.738945 L257.494999,125.959596 C258.67138,127.990952 260.752229,129.231577 262.996874,129.231577 L262.996874,129.231577 L270.709,129.231 L264.912141,125.904177 L264.852761,125.862604 C264.707134,125.739645 264.664752,125.525427 264.761839,125.352827 C264.857409,125.182924 265.056457,125.109644 265.233506,125.16789 L265.307672,125.201006 L272.353437,129.244742 L272.420399,129.292564 C272.598966,129.449631 272.601171,129.733934 272.427013,129.894142 L272.353437,129.947913 L265.307672,133.991649 L265.24192,134.021892 C265.08839,134.076253 264.916671,134.030471 264.809602,133.907588 L264.761839,133.839828 L264.731898,133.773412 C264.678082,133.61833 264.723406,133.444875 264.845059,133.336725 L264.912141,133.288478 L270.585,130.032 L262.996874,130.032232 L262.743032,130.02757 C260.211739,129.934526 257.903586,128.454616 256.658488,126.115034 L256.658488,126.115034 L254.534,122.201 L252.10857,126.813109 C250.853866,129.198764 248.401308,130.72298 245.699552,130.815914 L245.437345,130.82042 L239.427922,130.82042 C239.204593,130.82042 239.023549,130.641187 239.023549,130.420093 C239.023549,130.223564 239.166596,130.060111 239.355236,130.026215 L239.427922,130.019765 L245.437345,130.019765 C247.856844,130.019765 250.082088,128.731537 251.27188,126.660378 L251.391234,126.443348 L257.220075,115.360573 C258.474779,112.974918 260.927337,111.450702 263.629093,111.357768 L263.891299,111.353262 L271.092549,111.353 L265.302083,107.698782 C265.138031,107.595214 265.073887,107.391261 265.138915,107.215019 L265.174779,107.141557 C265.277311,106.975847 265.479224,106.911054 265.653702,106.97674 Z M245.839065,110.549625 L246.080528,110.554178 C248.48831,110.645064 250.681753,112.090609 251.863408,114.372942 L251.863408,114.372942 L254.141959,118.773901 L254.169316,118.84088 C254.224891,119.022534 254.143211,119.223116 253.96655,119.312759 C253.767807,119.413608 253.524113,119.33586 253.422245,119.139105 L253.422245,119.139105 L251.143694,114.738147 L251.028045,114.524099 C249.917886,112.553537 247.954587,111.35028 245.839065,111.35028 L245.839065,111.35028 L239.404374,111.35028 L239.331687,111.34383 C239.143047,111.309933 239,111.146481 239,110.949952 C239,110.728857 239.181044,110.549625 239.404374,110.549625 L239.404374,110.549625 L245.839065,110.549625 Z"/>
    <use fill="#000" filter="url(#img-principles-n)" xlink:href="#img-principles-o"/>
    <use fill="#FFF" xlink:href="#img-principles-o"/>
    <path fill="#5055FE" fill-rule="nonzero" d="M422,106 C430.836556,106 438,113.163444 438,122 C438,130.836556 430.836556,138 422,138 C413.163444,138 406,130.836556 406,122 C406,113.163444 413.163444,106 422,106 Z M422,106.820513 C413.616601,106.820513 406.820513,113.616601 406.820513,122 C406.820513,130.383399 413.616601,137.179487 422,137.179487 C430.383399,137.179487 437.179487,130.383399 437.179487,122 C437.179487,113.616601 430.383399,106.820513 422,106.820513 Z M426.923077,113.384615 C428.509125,113.384615 429.794872,114.670362 429.794872,116.25641 C429.794872,117.842459 428.509125,119.128205 426.923077,119.128205 C425.867809,119.128205 424.94548,118.559028 424.446338,117.710922 L418.253969,121.444301 C418.289219,121.624088 418.307692,121.809887 418.307692,122 C418.307692,122.190113 418.289219,122.375912 418.253969,122.555699 L424.446338,126.289078 C424.94548,125.440972 425.867809,124.871795 426.923077,124.871795 C428.509125,124.871795 429.794872,126.157541 429.794872,127.74359 C429.794872,129.329638 428.509125,130.615385 426.923077,130.615385 C425.337028,130.615385 424.051282,129.329638 424.051282,127.74359 C424.051282,127.507631 424.079739,127.278318 424.133409,127.058897 L417.973742,123.345303 C417.491362,124.253397 416.535847,124.871795 415.435897,124.871795 C413.849849,124.871795 412.564103,123.586049 412.564103,122 C412.564103,120.413951 413.849849,119.128205 415.435897,119.128205 C416.535847,119.128205 417.491362,119.746603 417.973742,120.654697 L424.133409,116.941103 C424.079739,116.721682 424.051282,116.492369 424.051282,116.25641 C424.051282,114.670362 425.337028,113.384615 426.923077,113.384615 Z M426.923077,125.692308 C425.790185,125.692308 424.871795,126.610698 424.871795,127.74359 C424.871795,128.876482 425.790185,129.794872 426.923077,129.794872 C428.055969,129.794872 428.974359,128.876482 428.974359,127.74359 C428.974359,126.610698 428.055969,125.692308 426.923077,125.692308 Z M415.435897,119.948718 C414.303006,119.948718 413.384615,120.867108 413.384615,122 C413.384615,123.132892 414.303006,124.051282 415.435897,124.051282 C416.568789,124.051282 417.487179,123.132892 417.487179,122 C417.487179,120.867108 416.568789,119.948718 415.435897,119.948718 Z M426.923077,114.205128 C425.790185,114.205128 424.871795,115.123518 424.871795,116.25641 C424.871795,117.389302 425.790185,118.307692 426.923077,118.307692 C428.055969,118.307692 428.974359,117.389302 428.974359,116.25641 C428.974359,115.123518 428.055969,114.205128 426.923077,114.205128 Z"/>
    <use fill="#000" filter="url(#img-principles-p)" xlink:href="#img-principles-q"/>
    <use fill="#FFF" xlink:href="#img-principles-q"/>
    <path fill="#5055FE" fill-rule="nonzero" d="M92.7980365,107 L92.7980364,110.170149 C92.7980834,110.237212 92.84493,110.295148 92.9106798,110.30927 C94.2612102,110.599912 95.5473203,111.134713 96.7036076,111.885987 C96.759847,111.922096 96.833633,111.91422 96.8803364,111.8677 L96.8803364,111.8677 L99.1262171,109.621819 L102.375294,112.871662 L100.132214,115.11975 C100.08475,115.167189 100.076861,115.241332 100.11266,115.296738 C100.865193,116.455185 101.399976,117.741252 101.690769,119.091943 C101.704852,119.15751 101.762788,119.204357 101.829523,119.204404 L101.829523,119.204404 L105,119.204404 L105,123.798036 L101.829851,123.798036 C101.762788,123.798083 101.704852,123.84493 101.690722,123.910718 C101.399976,125.261189 100.865193,126.547256 100.114013,127.703608 C100.077904,127.759847 100.08578,127.833633 100.1323,127.880336 L100.1323,127.880336 L102.378181,130.126217 L99.1283381,133.375294 L96.8802498,131.132214 C96.8328113,131.08475 96.7586681,131.076861 96.7032947,131.112639 C95.5448799,131.865287 94.2587698,132.400088 92.9080574,132.690769 C92.8424896,132.704852 92.795643,132.762788 92.7955961,132.829523 L92.7955961,132.829523 L92.7955961,136 L88.2019635,136 L88.2019636,132.829851 C88.2019166,132.762788 88.15507,132.704852 88.0893471,132.690736 C86.7389344,132.400203 85.4529707,131.865373 84.2967181,131.11383 C84.2404476,131.077644 84.1665724,131.085523 84.1197162,131.132248 L84.1197162,131.132248 L81.8746405,133.378039 L78.621913,130.128375 L80.8671763,127.88025 C80.9146397,127.832811 80.9225285,127.758668 80.8866069,127.703072 C80.1352265,126.545174 79.6007704,125.260237 79.3092308,123.910498 C79.2951476,123.84493 79.237212,123.798083 79.1704769,123.798036 L79.1704769,123.798036 L76,123.798036 L76,119.201964 L79.1701488,119.201964 C79.237212,119.201917 79.2951476,119.15507 79.3093107,119.089131 C79.6004433,117.739035 80.1349096,116.453211 80.8853772,115.296392 C80.9214856,115.240153 80.9136096,115.166367 80.8668264,115.1194 L80.8668264,115.1194 L78.6220823,112.871079 L81.8718726,109.622055 L84.1199338,111.86797 C84.1673942,111.915508 84.2416269,111.9234 84.2972456,111.887407 C85.4554111,111.134627 86.7413748,110.599797 88.0900715,110.309637 C88.155413,110.295322 88.2019747,110.237446 88.2019635,110.170477 L88.2019635,110.170477 L88.2019635,107 L92.7980365,107 Z M91.8620645,107.935484 L89.137,107.935484 L89.1374474,110.170399 C89.1375252,110.637902 88.8371435,111.047246 88.4004636,111.192995 L88.4004636,111.192995 L88.2885491,111.223821 C87.0495465,111.490385 85.8696759,111.981091 84.8062843,112.672269 C84.379297,112.948601 83.8172494,112.888847 83.4583346,112.529345 L83.4583346,112.529345 L81.8720323,110.944 L79.944,112.871097 L81.5292224,114.458824 C81.8565752,114.787459 81.9339628,115.284279 81.7330846,115.694212 L81.7330846,115.694212 L81.6713792,115.803665 C80.9815058,116.867089 80.4909751,118.047212 80.2238547,119.285954 C80.1172244,119.782395 79.6785691,120.137091 79.1704769,120.137447 L79.1704769,120.137447 L76.9354839,120.137 L76.9354839,122.862065 L79.170805,122.862553 C79.6395103,122.862881 80.04933,123.165133 80.193384,123.601681 L80.193384,123.601681 L80.223741,123.713519 C80.4912104,124.951819 80.9817318,126.131128 81.6718427,127.19461 C81.9475854,127.621363 81.8878556,128.182733 81.5287872,128.541613 L81.5287872,128.541613 L79.944,130.127032 L81.8729677,132.055065 L83.4586403,130.47035 C83.7874285,130.142482 84.2848292,130.065031 84.6950847,130.266385 L84.6950847,130.266385 L84.8046197,130.328234 C85.8672355,131.018909 87.0471061,131.509615 88.2859536,131.776145 C88.7823955,131.882776 89.1370911,132.321431 89.1374474,132.829523 L89.1374474,132.829523 L89.137,135.064516 L91.8592581,135.064516 L91.8601123,132.829195 C91.8604411,132.36049 92.1626923,131.95067 92.5995123,131.806557 L92.5995123,131.806557 L92.711424,131.776184 C93.9506184,131.509503 95.1307031,131.01879 96.19461,130.327547 C96.6213629,130.051805 97.1827327,130.111534 97.5414544,130.470445 L97.5414544,130.470445 L99.1279677,132.052258 L101.055065,130.126097 L99.4701675,128.541176 C99.1428147,128.212541 99.0654271,127.715721 99.2664263,127.305602 L99.2664263,127.305602 L99.3281678,127.196092 C100.01869,126.133106 100.509405,124.953015 100.776145,123.714046 C100.882776,123.217605 101.321431,122.862909 101.829523,122.862553 L101.829523,122.862553 L104.064516,122.862065 L104.064516,120.139806 L101.829195,120.139888 C101.36049,120.139559 100.95067,119.837308 100.806564,119.400517 L100.806564,119.400517 L100.776193,119.288614 C100.509405,118.049426 100.01869,116.869335 99.3275473,115.80539 C99.0518045,115.378637 99.1115343,114.817267 99.4704447,114.458546 L99.4704447,114.458546 L101.052258,112.871097 L99.1260968,110.944935 L97.5411764,112.529833 C97.2125414,112.857185 96.7157205,112.934573 96.3055769,112.733557 L96.3055769,112.733557 L96.1960601,112.671811 C95.1331435,111.98121 93.9530588,111.490497 92.7140464,111.223855 C92.2176045,111.117224 91.8629089,110.678569 91.8625526,110.170477 L91.8625526,110.170477 L91.8620645,107.935484 Z M90.5000002,115.887097 C93.5999211,115.887097 96.1129032,118.400079 96.1129032,121.500566 C96.1094665,124.598749 93.5987497,127.109466 90.5000002,127.112903 C87.4000792,127.112903 84.8870968,124.599921 84.8870968,121.5 C84.8870968,118.400079 87.4000792,115.887097 90.5000002,115.887097 Z M90.5,116.822581 C87.9167326,116.822581 85.8225806,118.916733 85.8225806,121.5 C85.8225806,124.083267 87.9167326,126.177419 90.4994235,126.177419 C93.081822,126.174555 95.1745551,124.081822 95.1774194,121.5 C95.1774194,118.916733 93.0832674,116.822581 90.5,116.822581 Z"/>
  </g>
</svg>
