<svg xmlns="http://www.w3.org/2000/svg" width="459" height="400" viewBox="0 0 459 400">
  <defs>
    <linearGradient id="img-illustration-courses-a" x1="80.328%" x2="25.632%" y1="112.867%" y2="0%">
      <stop offset="0%" stop-color="#1E85E9"/>
      <stop offset="20.276%" stop-color="#8671F3"/>
      <stop offset="70.727%" stop-color="#CFA9FC"/>
      <stop offset="100%" stop-color="#F4D9FB"/>
    </linearGradient>
    <linearGradient id="img-illustration-courses-b" x1="108.096%" x2="0%" y1="58.484%" y2="42.772%">
      <stop offset="0%" stop-color="#1E85E9"/>
      <stop offset="20.276%" stop-color="#8671F3"/>
      <stop offset="70.727%" stop-color="#CFA9FC"/>
      <stop offset="100%" stop-color="#F4D9FB"/>
    </linearGradient>
    <linearGradient id="img-illustration-courses-c" x1="108.096%" x2="0%" y1="57.226%" y2="43.844%">
      <stop offset="0%" stop-color="#1E85E9"/>
      <stop offset="20.276%" stop-color="#8671F3"/>
      <stop offset="70.727%" stop-color="#CFA9FC"/>
      <stop offset="100%" stop-color="#F4D9FB"/>
    </linearGradient>
  </defs>
  <g fill="none" fill-rule="evenodd" transform="rotate(90 229 229.5)">
    <g fill-rule="nonzero" transform="matrix(-1 0 0 1 346 15)">
      <path fill="url(#img-illustration-courses-a)" d="M62.1599984,0 C94.3685464,0 120.855589,24.4812737 124.006199,55.8399653 L124,56.5 L124,56.5 C124,61.2126451 124.537081,65.7905306 125.562532,70.1668702 C126.055235,72.4360179 126.704067,74.6040011 127.499002,76.6760181 C135.216036,97.9162007 155.053573,113 180.5,113 C188.525784,113 195.993613,111.499514 202.699202,108.778633 C203.017028,108.678689 203.27376,108.574442 203.465741,108.465116 L203.513137,108.440798 C204.841097,107.877167 206.138268,107.265226 207.403017,106.607213 C213.646479,104.00316 224.563266,100.576744 233.839994,100.576744 C268.170014,100.576744 296,128.389231 296,162.697674 C296,197.006118 268.170014,224.818605 233.839994,224.818605 C223.509924,224.818605 213.768392,222.30036 205.196532,217.844633 L202.04627,216.549481 C198.968322,215.28269 195.791564,214.333043 192.561419,213.693392 C187.359484,211.946387 181.790262,211 176,211 C147.281193,211 124,234.281193 124,263 C124,291.718807 147.281193,315 176,315 C185.970247,315 195.285124,312.194022 203.198007,307.328687 C212.25606,302.191572 222.663219,299.75814 233.839994,299.75814 C268.170014,299.75814 296,327.570627 296,361.87907 C296,396.187513 268.170014,424 233.839994,424 C199.509974,424 171.679995,396.187513 171.679995,361.87907 L171.41504,360.569038 C168.707236,331.602564 142.470548,309.762695 115.822266,309.762695 C106.373219,309.762695 96.9759212,312.591033 88.6609809,317.508743 L89.3129972,317.198719 C81.1091344,321.18635 71.895961,323.423256 62.1599984,323.423256 C27.8299785,323.423256 0,295.610769 0,261.302326 C0,226.993882 27.8299785,199.181395 62.1599984,199.181395 C72.279201,199.181395 81.8336478,201.597882 90.2770705,205.884929 C92.3007918,207.260744 94.425903,208.498461 96.6379203,209.586485 C96.8994882,209.740405 97.180221,209.899256 97.4786168,210.061373 C97.5316643,210.090194 97.6597422,210.125982 97.8570738,210.167013 C104.595399,213.269647 112.095627,215 120,215 C149.271092,215 173,191.271092 173,162 C173,132.728908 149.271092,109 120,109 C109.803275,109 100.2791,111.879528 92.1962858,116.869773 C91.2982981,117.155819 90.4881524,117.462693 89.7784375,117.788679 C79.8560069,122.34624 72.0805131,124.24186 62.1599984,124.24186 C27.8299785,124.24186 0,96.4293734 0,62.1209302 C0,27.8124871 27.8299785,0 62.1599984,0 Z" opacity=".9"/>
      <path fill="#FFF" d="M62,315 C91.2710917,315 115,291.271092 115,262 C115,232.728908 91.2710917,209 62,209 C32.7289083,209 9,232.728908 9,262 C9,291.271092 32.7289083,315 62,315 Z"/>
      <circle cx="36" cy="36" r="36" fill="#000" transform="translate(26 226)"/>
      <circle cx="36" cy="36" r="36" fill="#FFF" transform="translate(26 226)"/>
      <path fill="#FFF" d="M234,415 C263.271092,415 287,391.271092 287,362 C287,332.728908 263.271092,309 234,309 C204.728908,309 181,332.728908 181,362 C181,391.271092 204.728908,415 234,415 Z"/>
      <circle cx="36" cy="36" r="36" fill="#000" transform="translate(198 326)"/>
      <circle cx="36" cy="36" r="36" fill="#FFF" transform="translate(198 326)"/>
      <path fill="#FFF" d="M61,115 C90.2710917,115 114,91.2710917 114,62 C114,32.7289083 90.2710917,9 61,9 C31.7289083,9 8,32.7289083 8,62 C8,91.2710917 31.7289083,115 61,115 Z"/>
      <circle cx="36" cy="36" r="36" fill="#000" transform="translate(25 26)"/>
      <circle cx="36" cy="36" r="36" fill="#FFF" transform="translate(25 26)"/>
      <path fill="#FFF" d="M234,215 C263.271092,215 287,191.271092 287,162 C287,132.728908 263.271092,109 234,109 C204.728908,109 181,132.728908 181,162 C181,191.271092 204.728908,215 234,215 Z"/>
      <circle cx="36" cy="36" r="36" fill="#000" transform="translate(198 126)"/>
      <circle cx="36" cy="36" r="36" fill="#FFF" transform="translate(198 126)"/>
      <path fill="#5055FE" d="M233.5,349.086194 C234.73031,349.086194 235.753048,349.974914 235.961265,351.145403 C236.134142,351.10635 236.314717,351.086194 236.5,351.086194 L251.5,351.086194 C252.880712,351.086194 254,352.205482 254,353.586194 L254,369.586194 L253.994682,369.75057 C253.927673,370.782973 253.233982,371.644558 252.290193,371.958743 L252.166,371.995194 L253.198632,374.292623 L253.227865,374.374434 C253.336612,374.781827 252.897247,375.152147 252.502841,374.93654 L247.29,372.086194 L236.5,372.086194 C235.269343,372.086194 234.246374,371.196973 234.038559,370.025994 C233.934532,370.050892 233.826241,370.067539 233.71588,370.076994 L233.5,370.086194 L222.71,370.086194 L217.497159,372.93654 C217.129046,373.137773 216.72177,372.828599 216.757518,372.455256 L216.772135,372.374434 L216.801368,372.292623 L217.834,369.995194 L217.709807,369.958743 C216.821535,369.663039 216.154803,368.882442 216.023572,367.930909 L216.005318,367.75057 L216,367.586194 L216,351.586194 C216,350.260711 217.031536,349.176156 218.335624,349.091512 L218.5,349.086194 L233.5,349.086194 Z M251.5,352.086194 L236.5,352.086194 C235.671573,352.086194 235,352.757767 235,353.586194 L235,369.586194 C235,370.414621 235.671573,371.086194 236.5,371.086194 L247.416504,371.086194 L247.499592,371.093146 C247.554311,371.102367 247.607308,371.120667 247.656338,371.147469 L251.676,373.343194 L250.976417,371.791386 C250.827516,371.460514 251.06954,371.086194 251.432373,371.086194 L251.5,371.086194 C252.328427,371.086194 253,370.414621 253,369.586194 L253,353.586194 C253,352.757767 252.328427,352.086194 251.5,352.086194 Z M233.5,350.086194 L218.5,350.086194 C217.720304,350.086194 217.079551,350.681082 217.006867,351.441734 L217,351.586194 L217,367.586194 C217,368.36589 217.594888,369.006643 218.35554,369.079328 L218.5,369.086194 L218.567627,369.086194 C218.90255,369.086194 219.134535,369.405141 219.051129,369.71445 L219.023583,369.791386 L218.324,371.343194 L222.343662,369.147469 L222.419902,369.113715 L222.419902,369.113715 L222.500408,369.093146 L222.583496,369.086194 L233.5,369.086194 C233.675267,369.086194 233.843514,369.056134 233.999865,369.000889 L234,353.586194 C234,352.812996 234.351009,352.121779 234.902372,351.6632 L235,351.586194 C235,350.806498 234.405112,350.165746 233.64446,350.093061 L233.5,350.086194 Z M243.826,356.786194 C244.05,356.786194 244.176,356.926194 244.26,357.122194 L244.26,357.122194 L247.774,365.928194 C247.802,366.012194 247.816,366.096194 247.816,366.180194 C247.816,366.390194 247.69,366.586194 247.424,366.586194 C247.242,366.586194 247.088,366.474194 247.004,366.264194 L247.004,366.264194 L245.926,363.506194 L241.684,363.506194 L240.69,366.166194 C240.606,366.390194 240.48,366.586194 240.256,366.586194 C240.004,366.586194 239.864,366.404194 239.864,366.222194 C239.864,366.124194 239.892,366.026194 239.934,365.914194 L239.934,365.914194 L243.35,357.178194 C243.462,356.898194 243.616,356.786194 243.826,356.786194 Z M225.876,353.786194 C228.844,353.786194 230.398,355.970194 230.398,358.756194 C230.398,360.478194 229.796,361.976194 228.648,362.858194 C229.362,363.572194 229.894,363.894194 230.342,364.216194 C230.706,364.468194 230.734,364.636194 230.65,364.804194 C230.566,364.958194 230.37,365.028194 229.95,364.818194 C229.474,364.566194 228.69,363.978194 227.976,363.278194 C227.388,363.572194 226.674,363.726194 225.876,363.726194 C222.908,363.726194 221.354,361.542194 221.354,358.756194 C221.354,355.970194 222.908,353.786194 225.876,353.786194 Z M225.876,354.542194 C223.524,354.542194 222.222,356.376194 222.222,358.756194 C222.222,361.136194 223.524,362.970194 225.876,362.970194 C226.45,362.970194 226.982,362.872194 227.43,362.662194 C227.024,362.186194 226.604,361.598194 226.394,361.122194 C226.24,360.786194 226.31,360.590194 226.478,360.492194 C226.66,360.394194 226.842,360.450194 227.052,360.786194 C227.346,361.276194 227.64,361.738194 228.074,362.256194 C229.026,361.500194 229.53,360.240194 229.53,358.756194 C229.53,356.376194 228.228,354.542194 225.876,354.542194 Z M243.784,358.046194 L241.978,362.750194 L245.646,362.750194 L243.784,358.046194 Z" transform="scale(1 -1) rotate(90 597.043 0)"/>
      <path fill="#5055FE" d="M234.58868,143 C235.957992,143 237.09591,143.989123 237.324733,145.290763 L239.783333,145.290956 C240.566641,145.290956 241.233333,145.845638 241.233333,146.577769 L241.233333,146.577769 L241.233,147.221 L245.647778,147.221175 C246.887645,147.221175 247.911387,148.143753 247.994547,149.322321 L248,149.477444 L248,178.743731 C248,179.943299 247.027918,180.915859 245.808214,180.994823 L245.647778,181 L221.352222,181 C220.112355,181 219.088613,180.077422 219.005453,178.898854 L219,178.743731 L219,149.477444 C219,148.277876 219.972082,147.305316 221.191786,147.226352 L221.352222,147.221175 L225.766,147.221 L225.766667,146.577769 C225.766667,145.888705 226.357232,145.356827 227.079758,145.296638 L227.216667,145.290956 L229.675363,145.290214 C229.895243,144.040928 230.952583,143.079651 232.248092,143.004708 L232.41132,143 L234.58868,143 Z M225.766,148.186 L221.352222,148.186 C220.627005,148.186 220.039559,148.703326 219.972957,149.353975 L219.966667,149.477444 L219.966667,178.743731 C219.966667,179.409583 220.511452,179.965793 221.217952,180.028925 L221.352222,180.034891 L245.647778,180.034891 C246.372995,180.034891 246.960441,179.517849 247.027043,178.8672 L247.033333,178.743731 L247.033333,149.477444 C247.033333,148.811592 246.488548,148.255382 245.782048,148.19225 L245.647778,148.186 L241.233,148.186 L241.233333,149.7948 C241.233333,150.483864 240.642768,151.015741 239.920242,151.075931 L239.783333,151.081612 L227.216667,151.081612 C226.433359,151.081612 225.766667,150.52693 225.766667,149.7948 L225.766667,149.7948 L225.766,148.186 Z M226.25,169.418689 C226.516938,169.418689 226.733333,169.634736 226.733333,169.901243 L226.733333,169.901243 L226.733333,173.76168 C226.733333,174.028188 226.516938,174.244235 226.25,174.244235 L226.25,174.244235 L222.383333,174.244235 C222.116396,174.244235 221.9,174.028188 221.9,173.76168 L221.9,173.76168 L221.9,169.901243 C221.9,169.634736 222.116396,169.418689 222.383333,169.418689 L222.383333,169.418689 L226.25,169.418689 Z M225.766667,170.383046 L222.866667,170.383046 L222.866667,173.278374 L225.766667,173.278374 L225.766667,170.383046 Z M244.407568,171.348907 C244.674506,171.348907 244.890902,171.564954 244.890902,171.831461 C244.890902,172.068357 244.719922,172.265383 244.494448,172.306242 L244.407568,172.314016 L229.674634,172.314016 C229.407696,172.314016 229.1913,172.097969 229.1913,171.831461 C229.1913,171.594566 229.36228,171.397541 229.587754,171.356682 L229.674634,171.348907 L244.407568,171.348907 Z M226.25,162.662924 C226.516938,162.662924 226.733333,162.878971 226.733333,163.145478 L226.733333,163.145478 L226.733333,167.005915 C226.733333,167.272423 226.516938,167.48847 226.25,167.48847 L226.25,167.48847 L222.383333,167.48847 C222.116396,167.48847 221.9,167.272423 221.9,167.005915 L221.9,167.005915 L221.9,163.145478 C221.9,162.878971 222.116396,162.662924 222.383333,162.662924 L222.383333,162.662924 L226.25,162.662924 Z M225.766667,163.627281 L222.866667,163.627281 L222.866667,166.522609 L225.766667,166.522609 L225.766667,163.627281 Z M244.407568,164.593142 C244.674506,164.593142 244.890902,164.809189 244.890902,165.075697 C244.890902,165.312592 244.719922,165.509618 244.494448,165.550477 L244.407568,165.558251 L229.674634,165.558251 C229.407696,165.558251 229.1913,165.342204 229.1913,165.075697 C229.1913,164.838801 229.36228,164.641776 229.587754,164.600917 L229.674634,164.593142 L244.407568,164.593142 Z M226.25,155.907159 C226.516938,155.907159 226.733333,156.123206 226.733333,156.389713 L226.733333,156.389713 L226.733333,160.25015 C226.733333,160.516658 226.516938,160.732705 226.25,160.732705 L226.25,160.732705 L222.383333,160.732705 C222.116396,160.732705 221.9,160.516658 221.9,160.25015 L221.9,160.25015 L221.9,156.389713 C221.9,156.123206 222.116396,155.907159 222.383333,155.907159 L222.383333,155.907159 L226.25,155.907159 Z M225.766667,156.871516 L222.866667,156.871516 L222.866667,159.766844 L225.766667,159.766844 L225.766667,156.871516 Z M244.407568,157.647937 C244.674506,157.647937 244.890902,157.863984 244.890902,158.130492 C244.890902,158.367387 244.719922,158.564413 244.494448,158.605271 L244.407568,158.613046 L229.674634,158.613046 C229.407696,158.613046 229.1913,158.396999 229.1913,158.130492 C229.1913,157.893596 229.36228,157.69657 229.587754,157.655711 L229.674634,157.647937 L244.407568,157.647937 Z M239.783333,146.256066 L227.216667,146.256066 C226.932224,146.256066 226.733333,146.421541 226.733333,146.577769 L226.733333,146.577769 L226.733333,149.7948 C226.733333,149.951028 226.932224,150.116503 227.216667,150.116503 L227.216667,150.116503 L239.783333,150.116503 C240.067776,150.116503 240.266667,149.951028 240.266667,149.7948 L240.266667,149.7948 L240.266667,146.577769 C240.266667,146.421541 240.067776,146.256066 239.783333,146.256066 L239.783333,146.256066 Z M234.58868,143.965109 L232.41132,143.965109 C231.578535,143.965109 230.877015,144.526217 230.66535,145.29042 L236.334609,145.290272 C236.135005,144.569856 235.500065,144.029962 234.730234,143.97055 L234.58868,143.965109 Z" transform="rotate(90 233.5 162)"/>
      <path fill="#5055FE" d="M20.9670268,30.9210931 C20.9216357,30.9181496 20.8820092,30.9103914 20.8431463,30.8974067 L20.843236,30.8962079 C17.559832,29.8121074 14.2793497,29.2705395 11,29.2705395 C8.13955111,29.2705395 5.2783508,29.6825813 2.41513775,30.5072446 C1.61907558,30.7365133 0.787875861,30.2770473 0.558595006,29.4809891 C0.532681201,29.391017 0.515276911,29.2989158 0.506553363,29.2058987 L0.5,29.0658378 L0.5,4.29755071 C0.5,3.54382117 1.05928176,2.90714099 1.80672525,2.81002536 L2.52527556,2.71888563 C2.91630819,2.67072953 3.2418625,2.63346315 3.50271234,2.60703885 L3.5,2.21381692 C3.5,1.46198416 4.05650604,0.826271138 4.80174652,0.726904127 C7.36577919,0.385027554 9.9593992,0.429528317 12.5810295,0.860078511 C15.3840768,1.32042282 18.1461263,2.5128534 20.8648539,4.43175058 C20.9126016,4.46544058 20.9580293,4.5016605 21.001007,4.54015942 C21.0427095,4.50107172 21.0877866,4.46516667 21.1351461,4.43175058 C23.8538737,2.5128534 26.6159232,1.32042282 29.4189705,0.860078511 C32.0406008,0.429528317 34.6342208,0.385027554 37.1982535,0.726904127 C37.943494,0.826271138 38.5,1.46198416 38.5,2.21381692 L38.4982698,2.60713837 C38.7589545,2.63355668 39.0841824,2.67078995 39.4747244,2.71888563 L39.4747244,2.71888563 L40.1932748,2.81002536 C40.9407182,2.90714099 41.5,3.54382117 41.5,4.29755071 L41.5,4.29755071 L41.5,29.0658378 L41.4934466,29.2058987 C41.4847231,29.2989158 41.4673188,29.391017 41.441405,29.4809891 C41.2121241,30.2770473 40.3809244,30.7365133 39.5848623,30.5072446 C36.7216492,29.6825813 33.8604489,29.2705395 31,29.2705395 C27.7206503,29.2705395 24.440168,29.8121074 21.156764,30.8962079 L21.156764,30.8962079 L21.1567524,30.8963064 L21.1147444,30.9093873 C21.089885,30.9152575 21.0648388,30.9190916 21.0398147,30.9209856 C21.0376599,30.9207379 21.0353176,30.9209238 21.0329732,30.9210931 L20.9670268,30.9210931 L20.9670268,30.9210931 Z M38.5,3.61199986 L38.5,24.8285872 C38.5,24.895546 38.4955165,24.9624298 38.4865795,25.0287896 C38.3760115,25.8497904 37.6208295,26.4257136 36.7998247,26.3151684 C34.394922,25.9912891 31.9924447,26.0501105 29.5904164,26.4917569 C27.5296842,26.8706513 25.4591435,27.7763005 23.3787389,29.2130787 C25.9176618,28.5852348 28.4585121,28.2705395 31,28.2705395 C33.955044,28.2705395 36.9093367,28.6959875 39.861624,29.546306 C40.1269737,29.6227276 40.404042,29.4695713 40.4804686,29.20422 C40.4934253,29.1592344 40.5,29.1126521 40.5,29.0658378 L40.5,29.0658378 L40.5,4.29755071 L40.493265,4.21543513 C40.4577977,4.00134609 40.285891,3.83046465 40.0644274,3.8016898 C39.3839697,3.71327766 38.8481526,3.64879473 38.4595519,3.60839953 L38.5,3.61199986 Z M3.5,3.61199986 L3.54044811,3.60839953 C3.15184744,3.64879473 2.61603032,3.71327766 1.9355726,3.8016898 C1.71410899,3.83046465 1.54220234,4.00134609 1.50673498,4.21543513 L1.5,4.29755071 L1.5,29.0658378 C1.5,29.1126521 1.50657469,29.1592344 1.51953145,29.20422 C1.595958,29.4695713 1.87302634,29.6227276 2.13837603,29.546306 C5.09066334,28.6959875 8.04495595,28.2705395 11,28.2705395 C13.5414879,28.2705395 16.0823382,28.5852348 18.6217953,29.2142179 C16.5408565,27.7763005 14.4703158,26.8706513 12.4095836,26.4917569 C10.0075553,26.0501105 7.605078,25.9912891 5.20017528,26.3151684 C4.37917046,26.4257136 3.62398846,25.8497904 3.51342051,25.0287896 C3.50448353,24.9624298 3.5,24.895546 3.5,24.8285872 L3.5,24.8285872 L3.5,3.61199986 Z M11.7883594,1.75093745 C9.47844074,1.42762888 7.19402998,1.41677784 4.93391234,1.71813175 C4.68549485,1.75125462 4.5,1.96315078 4.5,2.21378112 L4.5,2.21378112 L4.5,24.8285872 L4.50447341,24.8953199 C4.54132905,25.1689843 4.79305927,25.3609609 5.06671944,25.3241136 C7.57628467,24.9861389 10.0848378,25.0475575 12.5904164,25.5082431 C15.133346,25.9757962 17.6666313,27.1819801 20.1901869,29.1200509 L20.1901869,29.1200509 L20.5,29.363 L20.5,5.65728879 L20.490728,5.56140709 C20.4723846,5.46751959 20.4274296,5.38077817 20.3612827,5.31165413 L20.3612827,5.31165413 L20.2882727,5.24879037 C17.6882634,3.41368549 15.0659171,2.28156747 12.4189705,1.84685958 L12.4189705,1.84685958 Z M30.2116406,1.75093745 L29.5810295,1.84685958 C26.9340829,2.28156747 24.3117366,3.41368549 21.7117273,5.24879037 L21.6387173,5.31165413 C21.5505215,5.40381951 21.5,5.52730469 21.5,5.65728879 L21.5,29.363 L21.8098131,29.1200509 C24.3333687,27.1819801 26.866654,25.9757962 29.4095836,25.5082431 C31.9151622,25.0475575 34.4237153,24.9861389 36.9332806,25.3241136 C37.2069407,25.3609609 37.4586709,25.1689843 37.4955266,24.8953199 L37.5,24.8285872 L37.5,2.21378112 C37.5,1.96315078 37.3145051,1.75125462 37.0660877,1.71813175 C34.80597,1.41677784 32.5215593,1.42762888 30.2116406,1.75093745 Z" transform="rotate(90 -82 159.5)"/>
      <path fill="#5055FE" d="M61,45 C70.3888407,45 78,52.6111593 78,62 C78,71.3888407 70.3888407,79 61,79 C51.6111593,79 44,71.3888407 44,62 C44,52.6111593 51.6111593,45 61,45 Z M61,45.9444444 C52.1327615,45.9444444 44.9444444,53.1327615 44.9444444,62 C44.9444444,70.8672385 52.1327615,78.0555556 61,78.0555556 C69.8672385,78.0555556 77.0555556,70.8672385 77.0555556,62 C77.0555556,53.1327615 69.8672385,45.9444444 61,45.9444444 Z M70.2206596,51.8682385 C70.6349923,51.6360983 71.0942475,52.0920628 70.8650927,52.5080541 L70.8650927,52.5080541 L64.2232305,64.565218 C64.1801147,64.6434873 64.115676,64.7079167 64.0374005,64.7510212 L64.0374005,64.7510212 L51.9787493,71.391436 C51.5627247,71.6205309 51.1068263,71.1612093 51.3390269,70.7469101 L51.3390269,70.7469101 L58.0550835,58.7639207 C58.0976211,58.6880239 58.1602998,58.6253543 58.2362029,58.5828277 L58.2362029,58.5828277 L70.2206596,51.8682385 Z M58.568,59.777 L52.9715024,69.765518 L63.022,64.231 L58.568,59.777 Z M69.2396724,53.5000193 L59.242,59.099 L63.7,63.557 L69.2396724,53.5000193 Z"/>
    </g>
    <path stroke="url(#img-illustration-courses-b)" stroke-width=".5" d="M34.5970443,338.156406 C20.7531704,355.277834 3.04277664,371.181441 1.00671011,386.201316 C-9.83984375,466.215339 123.5,360.715339 263.5,297.715339 C356.833334,255.715339 414.054687,255.715339 346.369991,374.095847" opacity=".499" transform="matrix(1 0 0 -1 0 687.215)"/>
    <path stroke="url(#img-illustration-courses-c)" stroke-width=".5" d="M54.1852362,84.8746353 C40.3413622,101.996063 21.217479,147.20072 19.1070488,162.16998 C6.14800211,254.088368 167.512413,133.213979 318.140382,73.5285096 C373.819284,51.466064 432.554872,55.2215467 375.248394,139.341586" opacity=".499" transform="matrix(-1 0 0 1 417.107 0)"/>
    <g fill="#5055FE" fill-rule="nonzero" transform="rotate(-140 49.158 67.995)">
      <circle cx="8.725" cy="8.791" r="6" opacity=".152" transform="rotate(45 8.725 8.791)"/>
      <circle cx="8.725" cy="8.791" r="2" transform="rotate(45 8.725 8.791)"/>
    </g>
    <g fill="#5055FE" fill-rule="nonzero" transform="rotate(-140 82.511 173.632)">
      <circle cx="8.725" cy="8.791" r="6" opacity=".152" transform="rotate(45 8.725 8.791)"/>
      <circle cx="8.725" cy="8.791" r="2" transform="rotate(45 8.725 8.791)"/>
    </g>
    <g fill="#5055FE" fill-rule="nonzero" transform="rotate(-140 201.195 -16.787)">
      <circle cx="8.725" cy="8.791" r="6" opacity=".152" transform="rotate(45 8.725 8.791)"/>
      <circle cx="8.725" cy="8.791" r="2" transform="rotate(45 8.725 8.791)"/>
    </g>
    <g fill="#5055FE" fill-rule="nonzero" transform="rotate(-140 233.506 99.989)">
      <circle cx="8.725" cy="8.791" r="6" opacity=".152" transform="rotate(45 8.725 8.791)"/>
      <circle cx="8.725" cy="8.791" r="2" transform="rotate(45 8.725 8.791)"/>
    </g>
    <g fill="#5055FE" fill-rule="nonzero" transform="rotate(-140 177.208 35.544)">
      <circle cx="8.725" cy="8.791" r="6" opacity=".152" transform="rotate(45 8.725 8.791)"/>
      <circle cx="8.725" cy="8.791" r="2" transform="rotate(45 8.725 8.791)"/>
    </g>
    <g fill="#5055FE" fill-rule="nonzero" transform="rotate(-140 175.741 150.193)">
      <circle cx="8.848" cy="9.382" r="6" opacity=".152" transform="rotate(45 8.848 9.382)"/>
      <circle cx="8.848" cy="9.382" r="2" transform="rotate(45 8.848 9.382)"/>
    </g>
    <path stroke="#E3E0E0" stroke-dasharray="3" d="M105,183 C63.026359,183 29,217.026359 29,259" transform="matrix(1 0 0 -1 0 442)"/>
    <path stroke="#E3E0E0" stroke-dasharray="3" d="M109,382 C67.026359,382 33,416.026359 33,458" transform="matrix(1 0 0 -1 0 840)"/>
    <path stroke="#E3E0E0" stroke-dasharray="3" d="M282,0 C240.026359,0 206,34.026359 206,76"/>
  </g>
</svg>
