<?xml version="1.0" encoding="UTF-8"?>
<svg width="160px" height="50px" viewBox="0 0 160 50" version="1.1" xmlns="http://www.w3.org/2000/svg" xmlns:xlink="http://www.w3.org/1999/xlink">
    <title>intercall</title>
    <defs>
        <rect id="path-1" x="0" y="0" width="160" height="50"></rect>
    </defs>
    <g id="Page-1" stroke="none" stroke-width="1" fill="none" fill-rule="evenodd">
        <g id="a1qa-Industry-expertise-1-2" transform="translate(-385.000000, -3595.000000)">
            <g id="5-block" transform="translate(375.000000, 3495.000000)">
                <g id="Group-37-Copy-11" transform="translate(0.000000, 90.000000)">
                    <g id="intercall" transform="translate(10.000000, 10.000000)">
                        <mask id="mask-2" fill="white">
                            <use xlink:href="#path-1"></use>
                        </mask>
                        <use id="Mask" fill-opacity="0" fill="#D8D8D8" xlink:href="#path-1"></use>
                        <path d="M48.4197015,15.2546435 C48.2667347,15.3083644 48.3635491,16.4432192 48.3635491,16.6379576 L48.3635491,33.7503136 C48.3635491,33.9741509 48.557178,33.8958078 48.7508068,33.8958078 L50.6038349,33.8958078 C50.7974638,33.8958078 50.8787879,33.9428137 50.8787879,33.7167381 L50.8787879,15.3262714 C50.8787879,15.1986842 50.5883446,15.2546435 50.4915302,15.2546435 L48.4197015,15.2546435" id="Path" fill="#12100B" fill-rule="nonzero" mask="url(#mask-2)"></path>
                        <path d="M60.4009161,19.4848485 C59.1730936,19.4848485 57.8360342,19.9645722 57.0582677,20.989334 C57.0582677,20.7641116 57.1740588,19.7753854 56.955585,19.7753854 L55.0264617,19.7753854 C54.849498,19.7753854 54.2727273,19.6695308 54.2727273,19.8834921 L54.2727273,33.797731 C54.2727273,33.9666477 55.1466223,33.8765588 55.290815,33.8765588 L56.3831838,33.8765588 C56.5120833,33.8765588 56.8769344,33.9463777 56.9905408,33.8765588 C57.1041472,33.8067398 57.0538982,33.3765651 57.0538982,33.1873783 L57.0538982,25.658194 C57.0538982,24.7573045 57.2046451,23.7820916 57.7661226,23.0613799 C58.3276002,22.3406683 59.2298968,22.0839148 60.1081613,22.1604904 C62.0482082,22.3249027 62.5113726,24.2235274 62.5113726,25.9374698 L62.5113726,33.4306185 C62.5113726,33.6693542 62.4305373,33.8810632 62.6795974,33.8810632 L64.7070339,33.8810632 C64.8184555,33.8810632 65.1439814,33.9441255 65.2357403,33.8810632 C65.3274993,33.818001 65.296913,33.8112443 65.296913,33.6896242 L65.296913,27.6086199 C65.296913,26.0568376 65.3777483,24.4757765 64.9517245,22.971291 C64.3268895,20.7618594 62.6293484,19.5006141 60.4074703,19.5006141" id="Path" fill="#12100B" fill-rule="nonzero" mask="url(#mask-2)"></path>
                        <path d="M73.3275798,32.0458092 C72.254689,32.0458092 71.9284566,31.3952829 71.9284566,30.3964251 L71.9284566,22.9661229 C71.9284566,22.5854958 72.0019738,22.6893032 72.3879388,22.6893032 L75.3470038,22.6893032 C75.4917407,22.6893032 75.4480899,22.583189 75.4480899,22.4586201 L75.4480899,20.0710502 C75.4480899,19.9626291 75.3470038,19.9972316 75.25281,19.9972316 L71.9652152,19.9972316 C71.8985903,19.9972316 71.9330514,14.9798744 71.9330514,14.3939394 C70.9773286,14.8991354 70.0216057,15.4066381 69.0750725,15.9279819 C68.9510123,15.9994937 69.0566932,17.0652495 69.0566932,17.2036594 L69.0566932,19.9949247 C69.0566932,19.9949247 68.4111207,19.9949247 68.3674699,19.9949247 L67.2968765,19.9949247 C67.1475448,19.9949247 67.0234846,19.9441745 67.0234846,20.1056526 L67.0234846,22.1818004 C67.0234846,22.2394712 66.9706442,22.6431666 67.0234846,22.6869964 C67.0763251,22.7308261 67.5955399,22.6869964 67.6920312,22.6869964 C67.8574448,22.6869964 69.0589906,22.6131778 69.0589906,22.7446671 L69.0589906,28.7908708 C69.0589906,29.9189111 68.9464175,31.1599861 69.20143,32.2649581 C69.4104944,33.166929 69.9090326,33.9927744 70.7590745,34.4103108 C71.8043964,34.9270409 73.1483817,34.8024721 74.2258674,34.4564474 C74.4372292,34.3895493 75.1080731,34.2257643 75.1448317,33.9950813 C75.1815903,33.7643982 75.2206462,33.4299077 75.2551074,33.1484743 C75.3332194,32.5740734 75.4067365,31.9950589 75.4848485,31.4252717 C74.8375211,31.8239737 74.0960267,32.0421582 73.3367694,32.0573433" id="Path" fill="#12100B" fill-rule="nonzero" mask="url(#mask-2)"></path>
                        <path d="M98.5115037,19.4898061 C97.2812033,19.4839432 96.1157866,20.036377 95.3478956,20.9894277 C95.3478956,20.7642593 95.4659915,19.7802733 95.2434261,19.7802733 L93.2357954,19.7802733 C93.0541094,19.7802733 92.4545455,19.6744442 92.4545455,19.8883542 L92.4545455,33.7992588 C92.4545455,33.9681351 93.3629756,33.8780677 93.5128666,33.8780677 L94.6484044,33.8780677 C94.7823978,33.8780677 95.1616674,33.9478699 95.2774923,33.8780677 C95.3933171,33.8082655 95.3433535,33.362432 95.3433535,33.1755423 L95.3433535,28.7937649 C95.3433535,27.5756038 95.2525104,26.3169124 95.3819617,25.0964996 C95.4841601,24.1147653 95.8588876,23.0699838 96.7968418,22.5813684 C97.8392654,22.0477193 99.2246214,22.2999079 100.203455,22.8448154 C100.405581,22.1017597 100.616791,21.3587039 100.823459,20.6178998 C100.893862,20.3634595 101.050566,20.167563 100.812103,20.0167002 C100.104031,19.6339661 99.3034254,19.4516873 98.4978773,19.4898061" id="Path" fill="#12100B" fill-rule="nonzero" mask="url(#mask-2)"></path>
                        <path d="M115.561912,29.7298227 C115.435509,29.6663606 114.908102,30.4596362 114.768623,30.6046923 C114.394316,30.9989524 113.962587,31.3293841 113.489334,31.583821 C112.486825,32.1119159 111.320864,32.243373 110.220283,32.1731115 C107.796827,32.0235224 105.963979,30.4596362 105.255685,28.0639439 C104.54739,25.6682516 104.641103,22.5767433 105.909495,20.3941022 C107.177887,18.2114611 109.614419,17.5247111 111.92019,17.9009503 C112.693333,18.0170479 113.422906,18.3447934 114.034176,18.8506145 C114.360385,19.1339554 114.656964,19.452269 114.918999,19.8002788 C115.058479,19.9793324 115.126039,20.2535791 115.337438,20.1515865 C116.169956,19.7209512 116.993757,19.2903159 117.826275,18.8664801 C116.697059,17.0554388 114.891795,15.8172318 112.846421,15.450862 C110.74987,15.0406252 108.465893,15.2106128 106.526256,16.1874751 C102.701466,18.120801 101.313209,22.778462 101.927791,26.9374926 C102.44866,30.4211057 104.614951,33.3856899 107.940665,34.3648186 C111.495213,35.4142089 115.81254,34.3784176 117.909091,31.0443936 C117.122339,30.6069588 116.342126,30.1627245 115.557554,29.7207567" id="Path" fill="#12100B" fill-rule="nonzero" mask="url(#mask-2)"></path>
                        <path d="M125.538797,20.3339556 C124.597223,20.3231575 123.659144,20.4529542 122.754176,20.7192478 C122.520501,20.7901062 120.770106,21.4389029 120.882616,21.6625496 C121.233128,22.3600614 121.572821,23.0642162 121.936315,23.7550851 C122.629857,23.3484533 123.391564,23.0780908 124.182187,22.9579287 C125.013029,22.8317123 125.98451,22.7564253 126.77857,23.1151457 C127.972907,23.6598692 127.929634,24.9220335 127.929634,26.0601957 C126.250639,25.3338977 123.991785,25.3648982 122.304136,26.0225523 C120.616487,26.6802063 119.606061,28.2058751 119.606061,30.074764 C119.606061,31.9768677 120.527777,33.6708251 122.295481,34.3904802 C124.23703,35.1592244 126.438293,34.698972 127.929634,33.2124602 C127.929634,33.4161779 127.83876,34.4901248 128.011853,34.4901248 L129.879085,34.4901248 C130.078141,34.4901248 130.636364,34.6119125 130.636364,34.3639083 L130.636364,25.2143242 C130.636364,24.0850193 130.450289,22.9557144 129.75143,22.0456275 C128.756149,20.7436054 127.081482,20.3339556 125.538797,20.3339556 M127.929634,30.4999141 C126.960317,31.8462227 125.093085,32.6145929 123.515782,32.0078683 C122.345245,31.5517177 121.761059,29.9020468 122.620029,28.8635291 C123.632619,27.6412226 125.891473,27.9047271 127.213465,28.3165912 C127.349775,28.3586634 127.929634,28.4959514 127.929634,28.6553827 L127.929634,30.4999141" id="Shape" fill="#12100B" fill-rule="nonzero" mask="url(#mask-2)"></path>
                        <path d="M134.109284,15.8746458 C133.950725,16.1505956 134.079921,16.9627406 134.079921,17.2925343 L134.079921,33.8226017 C134.079921,33.9661853 135.107618,33.887663 135.244645,33.887663 C135.381671,33.887663 136.575758,33.9280459 136.575758,33.8562541 L136.575758,14.3939394 C135.7536,14.8845169 134.931442,15.3780856 134.109284,15.8746458" id="Path" fill="#12100B" fill-rule="nonzero" mask="url(#mask-2)"></path>
                        <path d="M142.435689,14.4432893 C141.994671,14.703498 141.551667,14.9637066 141.110649,15.2284017 C140.989468,15.3001834 139.988238,15.7600349 139.988238,15.912571 L139.988238,33.4609538 C139.988238,33.5125469 139.94652,33.8378077 139.988238,33.8871576 C140.029956,33.9365075 140.341847,33.8871576 140.385552,33.8871576 L141.420553,33.8871576 C141.551667,33.8871576 142.515152,33.9656688 142.515152,33.8176191 L142.515152,14.3939394 L142.429729,14.4432893" id="Path" fill="#12100B" fill-rule="nonzero" mask="url(#mask-2)"></path>
                        <path d="M78.2973951,22.2169438 C75.7124724,24.812123 75.7124724,29.8468152 78.1002976,32.5531846 C80.7124061,35.5019487 85.7168708,35.3574014 88.6234929,32.9223361 L87.205297,31.5880537 C87.094288,31.4813111 86.9787481,31.3656733 86.8745356,31.2744974 C86.7250133,31.1321739 86.6479867,31.2945116 86.4735441,31.392359 C85.8143221,31.7952529 85.0845047,32.0742675 84.3213298,32.2151664 C83.1296827,32.4175326 81.8451505,32.2462997 80.8959107,31.4635207 C79.9897152,30.7274416 79.5773963,29.6199872 79.432405,28.510309 L89.7585028,28.510309 C89.8944321,28.510309 89.8921666,27.4339879 89.9034941,27.2894407 C89.9533547,26.0179145 89.6693884,24.7551548 89.0788562,23.6223879 C87.1305358,19.8419212 81.2606544,19.2481655 78.2973951,22.2169438 M79.4958387,26.2086719 C79.6249715,25.2168554 79.9965117,24.2072484 80.7984947,23.5401072 C81.6004777,22.872966 82.7717354,22.7106283 83.8161258,22.8596232 C85.6489062,23.122032 86.6298628,24.5586094 86.7771196,26.2798337 L79.4845112,26.2798337 C79.4845112,26.2553718 79.4845112,26.23091 79.4958387,26.2064481" id="Shape" fill="#12100B" fill-rule="nonzero" mask="url(#mask-2)"></path>
                        <path d="M147.606061,16.0909091 L147.114185,16.0909091 C147.008371,15.8737434 146.868721,15.6702832 146.699166,15.4862542 C146.629029,15.4291104 146.536993,15.3966899 146.440931,15.3952884 L146.302591,15.3952884 L146.302591,16.0909091 L145.909091,16.0909091 L145.909091,14.3946648 L146.886693,14.3946648 C147.047717,14.3873636 147.205593,14.4354048 147.326307,14.528438 C147.432093,14.6180253 147.489101,14.7425442 147.483092,14.8708974 C147.487737,14.9875575 147.439102,15.1010702 147.347826,15.1866022 C147.244577,15.2778683 147.107138,15.3338771 146.960474,15.3444546 L146.960474,15.3444546 C147.024011,15.3610768 147.082715,15.3893585 147.132631,15.427394 C147.222459,15.5263094 147.30364,15.6309456 147.375494,15.7404233 L147.606061,16.0909091 Z M146.302591,15.1250665 L146.689943,15.1250665 C146.945103,15.1250665 147.071146,15.0474781 147.071146,14.8896257 C147.071146,14.7317733 146.935881,14.6595358 146.665349,14.6595358 L146.302591,14.6595358 L146.302591,15.1250665 Z" id="Shape" fill="#12100B" fill-rule="nonzero" mask="url(#mask-2)"></path>
                        <path d="M146.54545,14.5616749 L146.54545,14.5616749 C146.151076,14.7890055 145.908342,15.2100085 145.909093,15.6653852 C145.908852,16.2418275 146.29569,16.7465352 146.85218,16.8958303 C147.408671,17.0451255 147.995996,16.8017661 148.284042,16.3025356 C148.572087,15.8033051 148.489,15.1727378 148.08148,14.7652526 C147.845373,14.5242075 147.521105,14.3901085 147.1838,14.3940227 C146.960067,14.3934282 146.740045,14.4512132 146.54545,14.5616749 M146.082641,15.6653852 C146.081163,15.1658786 146.415755,14.7278776 146.897888,14.5981834 C147.38002,14.4684892 147.889035,14.6795591 148.138116,15.1124612 C148.387198,15.5453633 148.314011,16.0917592 147.959794,16.4437703 C147.645411,16.758936 147.1721,16.8533241 146.760967,16.682842 C146.349833,16.5123599 146.082025,16.1106566 146.082641,15.6653852" id="Shape" fill="#12100B" fill-rule="nonzero" mask="url(#mask-2)"></path>
                        <path d="M28.8499547,14.5410423 C29.0478167,14.8579805 29.2588696,15.2250814 29.2588696,15.2250814 C29.31045,15.2902763 29.3231217,15.3796753 29.2918146,15.457508 C29.2605074,15.5353407 29.1903346,15.588895 29.1093738,15.5967427 L23.1735123,17.1928339 C22.9855953,17.2308184 22.7924917,17.161157 22.6678648,17.0104235 C22.6678648,17.0104235 22.4612089,16.7322476 22.2501561,16.4700326 C21.0267435,14.9521954 19.5637654,13.6607762 17.9235725,12.6508143 C13.1116081,15.4257046 10.4127358,20.958939 11.1083241,26.6234528 C11.9140487,33.2572895 17.0705817,38.4107335 23.49229,39 C24.0292176,38.1165771 24.4989145,37.1910797 24.8971106,36.2319218 L24.8971106,36.2319218 C26.547346,32.2421699 26.8608296,27.7939366 25.7874898,23.5977199 C25.712742,23.3081433 25.6731695,23.1781759 25.6270017,23.0185668 C25.5883767,22.8523788 25.6867133,22.6851163 25.8468485,22.6446254 L31.4463445,21.1351792 C31.6175036,21.0887442 31.7938983,21.1887152 31.848664,21.3631922 C31.848664,21.3631922 31.8992287,21.5433225 31.9651828,21.7986971 C32.5409674,24.0025691 32.8322415,26.2759381 32.8313789,28.5592834 C32.8322532,31.4930564 32.356591,34.4060207 31.4243598,37.1758958 C36.1229839,34.3608494 38.732136,28.8947673 38.0417462,23.3127036 C37.5362496,19.1341369 35.2641694,15.4055542 31.8420686,13.1387622 L31.8420686,13.1387622 C30.9333885,12.5355106 29.9584068,12.0471349 28.9378934,11.6840391 L28.8367639,11.6452769 C28.4520321,11.5130293 28.0629034,11.3967427 27.6649809,11.2941368 L27.6034238,11.280456 C27.1150872,11.1576191 26.6203498,11.0639795 26.1216569,11 C27.1335216,12.0913892 28.0467766,13.2766976 28.8499547,14.5410423" id="SVGID" fill="#000000" fill-rule="nonzero" mask="url(#mask-2)"></path>
                    </g>
                </g>
            </g>
        </g>
    </g>
</svg>