<svg xmlns="http://www.w3.org/2000/svg" width="40" height="40"  xmlns:v="https://vecta.io/nano"><linearGradient id="A" gradientUnits="userSpaceOnUse" x1="40.356" y1="40.833" x2=".238" y2="-.227"><stop offset="0" stop-color="#1e85e9"/><stop offset=".203" stop-color="#8671f3"/><stop offset=".707" stop-color="#c06cfd" stop-opacity=".99"/><stop offset="1" stop-color="#ffbee8"/></linearGradient><path d="M39.993 12.294c.068-1.002-.37-1.943-1.213-2.553-.685-.496-1.576-.611-2.4-.424l-.331.075V4.851a.9.9 0 0 0-.899-.899h-4.452a.57.57 0 0 0-.537.757 2.41 2.41 0 0 1 .114 1.137c-.115.854-.724 1.609-1.533 1.905-.893.327-1.821.117-2.473-.493-.49-.457-.759-1.078-.759-1.749a2.4 2.4 0 0 1 .137-.801c.062-.172.035-.365-.071-.516a.57.57 0 0 0-.466-.241H14.799l.1-.436a2.91 2.91 0 0 0 .006-1.26A2.89 2.89 0 0 0 12.386.012c-.841-.077-1.644.19-2.253.761-.58.542-.912 1.307-.912 2.1 0 .216.024.432.072.642l.099.435H4.851a.9.9 0 0 0-.899.899V9.3a.57.57 0 0 0 .759.537c.266-.095.544-.14.828-.137a2.43 2.43 0 0 1 2.334 1.999 2.39 2.39 0 0 1-.614 2.03 2.42 2.42 0 0 1-2.549.622c-.173-.062-.366-.035-.516.072s-.242.281-.242.466v10.312l-.436-.101a2.88 2.88 0 0 0-.871-.064c-1.409.11-2.544 1.258-2.638 2.669-.054.805.219 1.573.768 2.161a2.94 2.94 0 0 0 2.741.84l.436-.099v4.542a.9.9 0 0 0 .899.899h4.451c.185 0 .359-.09.465-.242a.57.57 0 0 0 .072-.517c-.227-.639-.172-1.343.163-2.03s1.072-1.103 1.839-1.153l.258-.01c.61 0 1.184.226 1.632.644a2.37 2.37 0 0 1 .759 1.749 2.39 2.39 0 0 1-.138.801c-.061.173-.034.365.072.515a.57.57 0 0 0 .466.243h10.312l-.101.436c-.065.281-.086.575-.064.87.111 1.409 1.258 2.544 2.669 2.638a2.84 2.84 0 0 0 2.161-.767 2.89 2.89 0 0 0 .839-2.741l-.099-.435h4.541a.9.9 0 0 0 .9-.9v-4.451c0-.185-.09-.359-.242-.465a.57.57 0 0 0-.517-.072c-.468.166-.977.18-1.476.046a2.34 2.34 0 0 1-1.627-1.627c-.23-.851-.019-1.7.553-2.312a2.41 2.41 0 0 1 2.551-.622c.173.061.365.036.516-.071s.242-.281.242-.466V14.798l.435.1a2.82 2.82 0 0 0 .871.063c1.411-.11 2.545-1.257 2.639-2.667zM4.432 14.798l.436.1c.964.224 2.051-.1 2.741-.839.619-.662.887-1.552.732-2.468-.214-1.267-1.329-2.271-2.611-2.362a2.92 2.92 0 0 0-.862.064l-.436.1V4.494l.419-.063h4.451a.57.57 0 0 0 .466-.242c.106-.149.133-.341.072-.514-.092-.257-.138-.526-.138-.801a2.37 2.37 0 0 1 .76-1.749 2.37 2.37 0 0 1 1.953-.624c1.137.147 2.043 1.16 2.075 2.306a2.38 2.38 0 0 1-.136.867c-.062.173-.035.367.072.517a.57.57 0 0 0 .465.241h4.87v4.87a.57.57 0 0 0 .758.537 2.43 2.43 0 0 1 .992-.13c1.174.092 2.118 1.047 2.197 2.222a2.38 2.38 0 0 1-.64 1.801 2.42 2.42 0 0 1-2.55.621c-.172-.061-.366-.035-.516.072a.57.57 0 0 0-.241.466v4.87H14.8l.099-.435c.048-.21.072-.426.072-.642 0-.793-.332-1.559-.911-2.1-.712-.667-1.691-.923-2.676-.691-.901.213-1.667.893-1.98 1.764-.199.555-.233 1.13-.11 1.668l.1.436H4.432v-4.963zM19.76 35.567h-4.961l.1-.435a2.88 2.88 0 0 0-.838-2.741c-.587-.549-1.356-.832-2.162-.768-1.41.094-2.557 1.229-2.667 2.638-.023.295-.002.588.063.872l.099.435H4.495l-.063-.418v-4.451a.57.57 0 0 0-.242-.467c-.15-.105-.344-.132-.515-.07-.892.316-1.905.068-2.551-.622-.513-.549-.736-1.286-.611-2.046.184-1.114 1.206-1.971 2.334-1.982.283-.003.561.041.826.136a.56.56 0 0 0 .517-.072.57.57 0 0 0 .241-.465v-4.87h4.87a.57.57 0 0 0 .537-.759c-.135-.378-.17-.781-.107-1.19.132-.852.756-1.596 1.573-1.871.883-.297 1.786-.087 2.426.512.49.459.76 1.08.76 1.75 0 .273-.047.543-.138.8a.57.57 0 0 0 .538.757h4.87v4.96l-.435-.099a2.94 2.94 0 0 0-2.742.84c-.549.587-.822 1.356-.768 2.161a2.89 2.89 0 0 0 2.638 2.669c.293.022.587.001.871-.064l.436-.101v4.961zM35.568 25.2l-.365-.083c-.724-.165-1.504-.102-2.139.282-1.133.685-1.653 1.913-1.373 3.169.266 1.189 1.332 2.101 2.547 2.2.303.025.604.007.894-.061l.436-.101v4.899l-.418.063h-4.451c-.185 0-.36.09-.466.243a.57.57 0 0 0-.071.515c.091.256.137.526.137.8 0 .671-.269 1.292-.759 1.749-.448.419-1.024.645-1.636.645-.083 0-.166-.005-.253-.01-.786-.052-1.535-.482-1.864-1.198-.315-.686-.359-1.37-.138-1.987.061-.173.034-.366-.073-.516a.57.57 0 0 0-.465-.242h-4.87v-4.869a.57.57 0 0 0-.241-.465c-.151-.105-.344-.132-.517-.072a2.44 2.44 0 0 1-1.296.088c-.838-.162-1.552-.801-1.791-1.62-.254-.869-.045-1.736.539-2.36a2.41 2.41 0 0 1 2.55-.622c.171.061.364.034.515-.072s.242-.28.242-.465v-4.87h4.96l-.099.436a2.89 2.89 0 0 0-.073.641c0 .792.333 1.559.912 2.1.584.547 1.365.825 2.161.767 1.411-.094 2.557-1.229 2.668-2.638.024-.295.003-.587-.063-.87l-.101-.436h4.962v4.96zm1.585-10.71c-.285.003-.562-.043-.827-.137-.174-.063-.367-.035-.517.071s-.242.281-.242.466v4.87h-4.869a.57.57 0 0 0-.537.758c.228.642.173 1.358-.18 2.053-.344.676-1.068 1.081-1.825 1.131l-.251.01c-.612 0-1.188-.226-1.636-.645-.49-.457-.759-1.078-.759-1.749 0-.273.046-.543.137-.8a.56.56 0 0 0-.072-.515c-.106-.152-.28-.242-.465-.242h-4.87V14.8l.436.1c.963.224 2.05-.1 2.741-.839s.943-1.752.662-2.772c-.261-.949-1.046-1.718-1.998-1.966-.475-.124-.954-.133-1.405-.028l-.436.1V4.432h4.96l-.099.435c-.048.212-.073.427-.073.642 0 .793.333 1.558.912 2.1.601.563 1.387.831 2.219.764 1.221-.098 2.284-1.029 2.548-2.224a2.9 2.9 0 0 0-.001-1.281l-.101-.436h4.899l.063.418v4.452a.57.57 0 0 0 .242.466c.15.106.339.133.516.072a2.42 2.42 0 0 1 2.55.622c.509.544.732 1.273.615 2.025-.175 1.122-1.201 1.989-2.337 2.003z" fill="url(#A)"/><defs /></svg>