<?xml version="1.0" encoding="UTF-8"?>
<svg width="160px" height="50px" viewBox="0 0 160 50" version="1.1" xmlns="http://www.w3.org/2000/svg" xmlns:xlink="http://www.w3.org/1999/xlink">
    <title>loccitane</title>
    <defs>
        <rect id="path-1" x="0" y="0" width="160" height="50"></rect>
    </defs>
    <g id="Page-1" stroke="none" stroke-width="1" fill="none" fill-rule="evenodd">
        <g id="a1qa-About-us-V1-2" transform="translate(-400.000000, -5951.000000)">
            <g id="9-block" transform="translate(375.000000, 5714.000000)">
                <g id="logo-6" transform="translate(0.000000, 217.000000)">
                    <g id="loccitane" transform="translate(25.000000, 20.000000)">
                        <mask id="mask-2" fill="white">
                            <use xlink:href="#path-1"></use>
                        </mask>
                        <use id="Mask" fill-opacity="0" fill="#D8D8D8" xlink:href="#path-1"></use>
                        <g id="l-occitane-en-provence-logo-1" mask="url(#mask-2)" fill="#000000" fill-rule="nonzero">
                            <g transform="translate(11.000000, 9.000000)" id="Shape">
                                <path d="M128.054259,16.3125169 C128.054259,18.7788835 127.844169,18.8502647 126.750033,18.9651051 L125.891207,19.0583285 C125.725251,19.2227079 125.748895,19.6392858 125.936918,19.7325092 C126.981965,19.685222 128.403284,19.6631546 129.428066,19.6631546 L132.080654,19.6631546 C134.804624,19.6631546 136.805098,19.685222 137.826503,19.7325092 C138.15346,19.1042646 138.665063,17.3372986 138.805798,16.3582279 C138.665063,16.1244938 138.270327,16.0567155 138.060462,16.2177172 C137.245545,18.1047027 136.735744,18.7788835 133.77804,18.7315963 C131.823502,18.7315963 131.428541,18.5451495 131.14752,18.2215697 C130.801872,17.8252578 130.75436,16.9866976 130.75436,15.7993379 L130.75436,12.8450121 C130.75436,12.2640548 130.776427,12.2167675 131.311674,12.2167675 L132.429679,12.2167675 C134.454023,12.2167675 134.850335,12.2640548 135.014714,13.2397479 L135.175716,14.1715314 C135.363739,14.3102406 135.800583,14.3102406 135.919251,14.149464 C135.895607,13.4041273 135.849896,12.5876345 135.849896,11.706741 C135.849896,10.842961 135.895607,10.0044009 135.919251,9.37593111 C135.800583,9.19128575 135.363739,9.19128575 135.175716,9.35566515 L135.014714,10.1449115 C134.850335,11.147851 134.454023,11.1696932 132.429679,11.1696932 L131.311674,11.1696932 C130.776427,11.1696932 130.75436,11.147851 130.75436,10.5414487 L130.75436,6.60602553 C130.75436,5.28153283 130.75436,5.23402043 131.753922,5.23402043 L133.31395,5.23402043 C133.94242,5.23402043 134.638668,5.28130766 135.175716,5.44411082 C135.919251,5.63033242 136.268276,6.21151495 136.640944,7.56145268 C136.827166,7.70218847 137.289455,7.65625231 137.38448,7.46822929 C137.245545,6.46889257 137.106611,4.63099571 137.013613,4.23468371 C136.711875,4.2803947 135.363739,4.30403831 133.871264,4.30403831 L129.428066,4.30403831 C128.403284,4.30403831 127.310724,4.2803947 126.424652,4.23468371 C126.23843,4.32610568 126.214786,4.74606129 126.377364,4.90886445 L126.750033,4.95457544 C127.844394,5.11715343 128.054259,5.18830944 128.054259,7.65625231 L128.054259,16.3122917 L128.054259,16.3125169 Z M122.893196,10.1453618 C122.893196,8.30746497 122.893196,6.28312132 123.220154,5.56142818 C123.382732,5.1887598 123.777468,5.09396017 124.216113,5.02618181 L124.756538,4.90931481 C124.941184,4.7449354 124.893896,4.35200107 124.709251,4.23513407 C123.872267,4.27926881 123.265865,4.30291242 122.264727,4.30291242 C121.356812,4.30291242 120.494833,4.27926881 119.590071,4.23535924 C119.356337,4.30291242 119.332693,4.7449354 119.542784,4.90931481 L120.07803,4.97889458 C120.660564,5.07031656 121.031656,5.21082717 121.239945,5.56142818 C121.660126,6.25947771 121.683769,8.39866176 121.683769,10.1453618 L121.683769,14.6833593 C121.683769,15.0542263 121.683769,15.1728947 121.614415,15.2422493 C121.380456,15.1017387 119.215601,12.6337958 118.239908,11.5648793 L115.9109,9.05280173 C115.095983,8.16853059 112.560262,5.23469596 112.165526,4.23513407 C111.604835,4.27926881 111.049322,4.30291242 110.559787,4.30291242 C109.977028,4.30291242 108.698021,4.32655604 107.81375,4.23535924 C107.581818,4.30291242 107.558174,4.77038043 107.719176,4.90931481 L108.067975,4.97889458 C108.396734,5.0500506 109.047046,5.23469596 109.304424,5.44275976 C110.093895,6.11874192 110.070027,6.4914103 110.070027,8.30746497 L110.070027,13.8227318 C110.070027,15.6608539 110.070027,17.6867737 109.768739,18.4066655 C109.605936,18.7793338 109.187782,18.8723321 108.743732,18.9403356 L108.232355,19.0587788 C108.045908,19.2213568 108.091619,19.6160926 108.278066,19.7329596 C109.090956,19.6856723 109.722803,19.6618036 110.700298,19.6618036 C111.584569,19.6618036 112.494285,19.6854472 113.352886,19.7329596 C113.585044,19.6618036 113.608687,19.2213568 113.398822,19.0587788 L112.885418,18.9894242 C112.306262,18.8962008 111.909725,18.7554651 111.699634,18.4066655 C111.305124,17.7086159 111.281255,15.5676305 111.281255,13.8227318 L111.281255,9.28473431 C111.281255,8.04986217 111.281255,7.79586221 111.350835,7.79586221 C111.745571,8.14488698 112.494285,9.02893294 114.003423,10.7281206 L119.44956,16.941437 C121.124879,18.8504899 121.800636,19.6397362 122.171728,20.1292716 C122.45275,20.1531404 122.778131,20.059917 122.962776,19.8041156 C122.893196,19.2670678 122.893196,16.4061906 122.893196,15.7065648 L122.893196,10.1453618 Z M100.486482,13.9621165 C101.137244,13.9621165 101.208175,13.9621165 101.440333,14.5890101 L102.534694,17.7550024 C102.837783,18.7561406 102.768203,18.8966512 101.928067,18.9880732 L101.418266,19.0576529 C101.277755,19.1981636 101.301173,19.6165429 101.48762,19.7334099 C102.302537,19.7113426 103.325517,19.6622539 104.326655,19.6622539 C105.534506,19.6622539 106.39671,19.6861227 107.352137,19.7334099 C107.512913,19.6165429 107.512913,19.2218072 107.328493,19.0576529 L106.979469,18.9880732 C105.793685,18.7797842 105.675017,18.6154048 105.13977,17.0569529 L101.789132,7.30857861 C101.418266,6.25992807 101.114952,5.16556654 100.744085,4.11871742 C100.647484,4.00185042 100.532418,3.93249582 100.345971,3.93249582 C100.30026,3.93249582 99.5330814,4.88612155 98.7179397,5.04869954 C98.7877447,5.44343529 98.5774291,6.00074903 98.2743405,6.74788721 L95.0862807,15.0328344 C94.600123,16.2879725 94.2258784,17.2670433 93.9462082,17.870068 C93.5989849,18.6374722 93.3431835,18.8491388 92.6672013,18.9407859 L91.9696021,19.0576529 C91.806799,19.2677433 91.8288664,19.6165429 91.9932458,19.7334099 C92.8061357,19.6861227 93.5296303,19.6622539 94.295233,19.6622539 C95.2506601,19.6861227 96.0196405,19.6861227 96.7615996,19.7334099 C96.9496226,19.6404117 96.9750677,19.2218072 96.8088868,19.0576529 L96.1349313,18.9405608 C95.2725023,18.8257204 95.1795041,18.7559154 95.6469721,17.3823341 L96.5990216,14.5890101 C96.809112,13.9623417 96.7854684,13.9623417 97.3916456,13.9623417 L100.486707,13.9623417 L100.486482,13.9621165 Z M97.764314,12.9136912 C97.205424,12.9136912 97.1360694,12.9136912 97.3918708,12.2413119 L98.3709415,9.51576619 C98.7875195,8.42298091 98.9739663,7.84202355 99.0653882,7.67764415 L99.1144769,7.67764415 C99.2279662,7.84202355 99.3720797,8.28247029 99.765014,9.51576619 L100.744085,12.3106664 C100.930306,12.8679802 100.833931,12.9136912 100.183393,12.9136912 L97.764314,12.9136912 Z M85.5067894,16.3125169 C85.5067894,18.7788835 85.2985004,18.8502647 84.2025626,18.9414615 L83.2284458,19.0585537 C83.0606887,19.1754207 83.0861337,19.639511 83.2741567,19.7325092 C84.7598764,19.685222 85.8540127,19.6631546 86.8805959,19.6631546 C87.9038014,19.6631546 88.9506505,19.685222 90.3005882,19.7325092 C90.487035,19.639511 90.5106786,19.2227079 90.3462992,19.0583285 L89.5095405,18.9653303 C88.4169804,18.8500395 88.20689,18.7788835 88.20689,16.312742 L88.20689,6.25880218 C88.20689,5.28153283 88.2305336,5.23402043 88.8337835,5.23402043 L90.1600776,5.23402043 C92.6518893,5.23402043 93.0939123,5.67784483 93.3954246,7.49209808 C93.605515,7.65647749 94.001827,7.60896508 94.118694,7.4225183 C94.047538,6.67718154 94.2339848,4.67670669 94.4677188,3.72127954 C94.4186301,3.65192494 94.3033394,3.60621396 94.164405,3.60621396 C94.072983,3.60621396 93.9748057,3.65192494 93.8833838,3.69763593 C93.605515,4.23468371 93.2564902,4.30403831 92.1164177,4.30403831 L82.620242,4.30403831 C81.0399479,4.30403831 80.7111891,4.2803947 80.5976997,3.69763593 C80.5504125,3.63008275 80.4587654,3.60621396 80.3623895,3.60621396 C80.2470987,3.60621396 80.1538753,3.62985757 80.1065881,3.69763593 C79.9440101,4.51232728 79.5949854,5.95571358 79.1986734,7.21265309 C79.2916716,7.44458568 79.7796307,7.51574169 79.9440101,7.37523108 C80.8077901,5.49139805 81.4346836,5.23402043 83.5756691,5.23402043 L84.8767434,5.23402043 C85.4831458,5.23402043 85.5067894,5.28130766 85.5067894,6.25880218 L85.5067894,16.3125169 Z M76.0007058,7.65647749 C76.0007058,5.18853462 76.210571,5.11715343 77.3031311,4.97821905 L77.8165353,4.90886445 C77.9809147,4.74628647 77.9554697,4.3279071 77.7692481,4.23468371 C75.691747,4.32745963 73.6111402,4.32745963 71.5336391,4.23468371 C71.3440399,4.3279071 71.3235488,4.74628647 71.4845505,4.90886445 L71.9995309,4.97821905 C73.092091,5.11715343 73.30038,5.18830944 73.30038,7.65647749 L73.30038,16.3122917 C73.30038,18.7786583 73.092091,18.8500395 71.9995309,18.9887487 L71.4845505,19.0583285 C71.3235488,19.2227079 71.3440399,19.6392858 71.5336391,19.7325092 C73.6109896,19.639715 75.6914473,19.639715 77.7687977,19.7325092 C77.9554697,19.6392858 77.9809147,19.2224827 77.8165353,19.0583285 L77.3031311,18.9887487 C76.210571,18.8498143 76.0007058,18.7786583 76.0007058,16.3122917 L76.0007058,7.65647749 Z M69.4003097,4.58280777 C69.1886431,4.53687161 69.0276413,4.51300282 68.7479712,4.44207198 C67.655411,4.16420323 66.0496719,3.93384688 64.7215764,3.93384688 C62.3720768,3.93384688 60.0191995,4.60622621 58.2981697,5.9088767 C56.5755635,7.23517082 55.3659113,9.35431409 55.3659113,12.0764821 C55.3659113,15.1256075 56.7838525,17.2447508 58.670838,18.4744438 C60.3461569,19.5688053 62.3245644,20.0362734 64.6267768,20.0362734 C66.1410939,20.0362734 67.746833,19.6399614 68.2584358,19.475582 C68.5142371,19.4062274 68.7936821,19.3148054 69.0733523,19.267293 C69.4003097,18.82527 70.026978,17.2888855 70.1913574,15.7304336 C70.0742653,15.5203432 69.7000206,15.4286961 69.4917317,15.6372102 C68.8411945,17.1515274 67.55881,19.104715 64.6267768,19.104715 C61.62674,19.104715 58.5319037,16.6822579 58.5319037,11.7276825 C58.5319037,6.95572583 61.5114493,4.86202758 64.4639736,4.86202758 C67.538544,4.86202758 68.5838169,6.79314784 68.9817052,8.25995257 C69.1427069,8.42433197 69.5610863,8.39911212 69.722088,8.21446676 C69.4917317,6.49186065 69.4460207,5.11782896 69.4000845,4.58258259 M53.2553247,4.58258259 C53.0470357,4.53687161 52.8826563,4.51322799 52.6032114,4.44207198 C51.5106512,4.16420323 49.904687,3.93384688 48.5783929,3.93384688 C46.2288932,3.93384688 43.8778174,4.60622621 42.1567875,5.9088767 C40.4321548,7.23517082 39.2227277,9.35431409 39.2227277,12.0764821 C39.2227277,15.1256075 40.6422452,17.2447508 42.5276545,18.4744438 C44.2029733,19.5688053 46.1813808,20.0362734 48.4869709,20.0362734 C49.9979104,20.0362734 51.6036495,19.6399614 52.1152522,19.475582 C52.372855,19.4062274 52.6504986,19.3148054 52.931745,19.267293 C53.2553247,18.82527 53.8819931,17.2888855 54.0463725,15.7304336 C53.9295055,15.5203432 53.5586385,15.4286961 53.3467467,15.6372102 C52.6982362,17.1515274 51.4174279,19.104715 48.4869709,19.104715 C45.4819802,19.104715 42.3887201,16.6822579 42.3887201,11.7276825 C42.3887201,6.95572583 45.3666895,4.86202758 48.3225915,4.86202758 C51.3937842,4.86202758 52.4422096,6.79314784 52.8369454,8.25995257 C52.9979471,8.42433197 53.4179027,8.39911212 53.5822821,8.21446676 C53.3467467,6.49186065 53.3044134,5.11782896 53.2553247,4.58258259 M27.1813733,20.1288212 C32.7966188,20.1288212 37.2753947,15.8518042 37.2753947,9.97715442 C37.2753947,4.85819957 33.9029147,0 27.1813733,0 C21.1898565,0 16.8263714,4.44995318 16.8263714,10.2669576 C16.8263714,15.5027794 20.7257662,20.1290464 27.1813733,20.1290464 M27.5589955,19.2260855 C21.8318369,19.2260855 19.7363372,13.6412389 19.7363372,9.33855168 C19.7363372,2.9678364 23.6647799,0.902960847 26.6884602,0.902960847 C32.2444841,0.902960847 34.3670051,6.07775966 34.3670051,10.8783138 C34.3670051,16.6090753 31.0501439,19.2260855 27.5589955,19.2260855 M12.1230938,3.37247995 C11.0764698,3.37247995 10.7967997,4.07210572 10.7967997,4.46684148 C10.7967997,4.97821905 11.1678918,5.25788922 11.5184928,5.30360021 C12.0758066,5.37475622 12.7754323,5.74719943 12.7754323,6.51280214 C12.7754323,7.53780906 11.889585,8.21536747 10.8884468,8.63217059 C10.818867,8.82019361 10.8663794,9.09783718 11.0544025,9.23857297 C12.6585653,8.84226098 14.2406608,7.53780906 14.2406608,5.7692668 C14.2406608,4.49206133 13.2633915,3.37247995 12.123319,3.37247995 M4.82937688,7.65647749 C4.82937688,5.23402043 5.03946727,5.16466583 6.13202738,5.00208784 L6.64543155,4.90886445 C6.83007691,4.79177227 6.80778436,4.3279071 6.59949539,4.23468371 C5.57628988,4.2803947 4.5260631,4.30403831 3.50465901,4.30403831 C2.43236485,4.30403831 1.38393949,4.2803947 0.22179961,4.23468371 C0.0135106361,4.3279071 0.0135106361,4.79199745 0.176088624,4.90886445 L0.826625753,5.00208784 C1.92098728,5.16466583 2.13085249,5.23402043 2.13085249,7.65647749 L2.13085249,16.3122917 C2.13085249,18.7313711 1.9207621,18.8007257 0.826625753,18.9414615 L0.126999979,19.0583285 C-0.0830904121,19.1751955 -0.00855673621,19.6392858 0.176088624,19.7325092 C1.15335797,19.6867982 2.31549785,19.6629294 3.50465901,19.6629294 L5.92531464,19.6629294 C8.52881422,19.6629294 10.5310905,19.6867982 11.508585,19.7325092 C11.7862286,19.1040395 12.301209,17.3372986 12.4858544,16.3582279 C12.3707888,16.1717811 11.9981204,16.1024265 11.7659626,16.2174921 C10.6918671,18.6160803 10.3210001,18.7313711 7.73776648,18.7313711 C5.87780224,18.7313711 5.50355762,18.5467257 5.22568887,18.2215697 C4.87846552,17.8252578 4.82937688,16.9866976 4.82937688,15.8245577 L4.82937688,7.65647749 Z M109.197239,28.5729688 C109.197239,29.4520608 109.12113,29.4759296 108.731348,29.5164615 L108.424881,29.5486619 C108.369037,29.6078835 108.373991,29.7587523 108.44177,29.7909526 C108.812862,29.7738392 109.319286,29.7639314 109.683397,29.7639314 L110.628691,29.7639314 C111.597629,29.7639314 112.310766,29.7738392 112.674877,29.7909526 C112.790168,29.5673516 112.973012,28.9370804 113.022101,28.5880557 C112.973012,28.5069918 112.8307,28.4831231 112.757968,28.538967 C112.469966,29.2099953 112.283744,29.4520608 111.233517,29.4333711 C110.538846,29.4333711 110.396534,29.3673942 110.298356,29.2521034 C110.172933,29.1097914 110.154243,28.8116567 110.154243,28.3898997 L110.154243,27.3380966 C110.154243,27.1313839 110.164601,27.1160719 110.356002,27.1160719 L110.752314,27.1160719 C111.472205,27.1160719 111.61114,27.1313839 111.672163,27.4804087 L111.731384,27.8107437 C111.795785,27.8614086 111.953409,27.8614086 111.993941,27.802187 C111.98561,27.5362526 111.968496,27.2466747 111.968496,26.9314265 C111.968496,26.6249602 111.98561,26.3284018 111.993941,26.1032245 C111.953409,26.0370224 111.795785,26.0370224 111.731384,26.0946678 L111.672163,26.3774904 C111.611365,26.7332705 111.472205,26.7418272 110.752314,26.7418272 L110.356002,26.7418272 C110.164601,26.7418272 110.154468,26.7332705 110.154468,26.5182262 L110.154468,25.1173984 C110.154468,24.6445262 110.154468,24.6294393 110.513401,24.6294393 L111.067337,24.6294393 C111.290938,24.6294393 111.540209,24.6447513 111.73161,24.7057744 C111.993941,24.7717513 112.119365,24.9782389 112.251544,25.4594427 C112.317521,25.5067299 112.485278,25.4900668 112.515677,25.4238647 C112.469966,25.0680846 112.4175,24.414395 112.385074,24.2736592 C112.278565,24.2905475 111.795785,24.2991042 111.265493,24.2991042 L109.683397,24.2991042 C109.319286,24.2991042 108.931305,24.2907727 108.614481,24.2736592 C108.548504,24.3058595 108.540172,24.4549269 108.597592,24.5143737 L108.731348,24.531262 C109.120904,24.5886822 109.197465,24.6141272 109.197465,25.4900668 L109.197465,28.5727436 L109.197239,28.5729688 Z M104.759446,24.3993081 C104.683336,24.3821946 104.624114,24.3738631 104.525712,24.348418 C104.139533,24.2484393 103.563529,24.1655741 103.092684,24.1655741 C102.257501,24.1655741 101.420742,24.404262 100.804207,24.8701538 C100.194427,25.3428009 99.7641133,26.0948929 99.7641133,27.0638307 C99.7641133,28.1496355 100.268961,28.903529 100.939539,29.3421743 C101.536033,29.731731 102.238811,29.8976867 103.058907,29.8976867 C103.597531,29.8976867 104.168355,29.757176 104.353001,29.7013321 C104.444423,29.6725094 104.5426,29.640309 104.641003,29.6234207 C104.759446,29.4673729 104.983272,28.9204173 105.040692,28.3664812 C104.998359,28.2901461 104.86618,28.2579458 104.791646,28.3327046 C104.557912,28.8713287 104.103955,29.5673516 103.058907,29.5673516 C101.989991,29.5673516 100.89045,28.7051478 100.89045,26.9417847 C100.89045,25.2428222 101.951035,24.4974854 103.001262,24.4974854 C104.095623,24.4974854 104.46649,25.1836005 104.610378,25.7069125 C104.666448,25.7627565 104.81529,25.7560012 104.872935,25.6900242 C104.791871,25.0784428 104.774758,24.5889074 104.759446,24.3993081 M95.4492665,26.3781659 C95.4492665,25.7229001 95.4492665,25.001207 95.5663587,24.7469818 C95.6255803,24.6148028 95.7645147,24.5792247 95.9252912,24.5555811 L96.111738,24.5150492 C96.1792912,24.4540262 96.1624029,24.3150918 96.096426,24.2743347 C95.8076064,24.2912291 95.5183563,24.2997144 95.2290431,24.2997798 C94.9038871,24.2997798 94.5989971,24.2896468 94.2738411,24.2743347 C94.1889493,24.2997798 94.182194,24.4540262 94.2585291,24.5150492 L94.4499298,24.5386928 C94.6548411,24.5724694 94.7885964,24.6215581 94.8615538,24.7469818 C95.0124226,24.9942265 95.0191779,25.7566767 95.0191779,26.3781659 L95.0191779,27.992687 C95.0191779,28.1264423 95.0191779,28.1653979 94.9937329,28.1924192 C94.9140201,28.1415291 94.1432383,27.2642385 93.796015,26.8830134 L92.9660116,25.9868079 C92.6746322,25.6735863 91.7734727,24.6283134 91.6311607,24.2743347 C91.4412662,24.2898748 91.2508604,24.2983623 91.0603363,24.2997798 C90.8520474,24.2997798 90.39809,24.3049588 90.083067,24.2743347 C89.9997514,24.2997798 89.9947975,24.4641592 90.0490652,24.5148241 L90.1760652,24.5386928 C90.2895545,24.5641379 90.5232886,24.6283134 90.6131343,24.7046485 C90.8943807,24.9433364 90.885824,25.0773169 90.885824,25.7226749 L90.885824,27.6859955 C90.885824,28.3414866 90.885824,29.0595769 90.7790899,29.3189811 C90.7214446,29.450935 90.5723772,29.4849367 90.4149783,29.5052027 L90.2337106,29.5493374 C90.1661574,29.6069828 90.1828205,29.7490697 90.2490226,29.791403 C90.5360518,29.7729846 90.8236072,29.7639726 91.1112264,29.7643817 C91.424448,29.7643817 91.7480277,29.7745147 92.0562954,29.791403 C92.1360082,29.7643817 92.1463663,29.6067576 92.0716075,29.5493374 L91.8903398,29.5238924 C91.6820508,29.491692 91.5397387,29.440802 91.4670065,29.3189811 C91.3262707,29.0681336 91.3179391,28.3059085 91.3179391,27.6859955 L91.3179391,26.0698983 C91.3179391,25.6330544 91.3179391,25.5414072 91.3397813,25.5414072 C91.4838948,25.666831 91.7480277,25.9800525 92.2850755,26.5848787 L94.2229511,28.7954439 C94.8207967,29.4748037 95.0630875,29.7576264 95.1918889,29.9321388 C95.2934438,29.9388941 95.4103108,29.9051175 95.4765129,29.8134704 C95.4494917,29.6238711 95.4494917,28.6058447 95.4494917,28.3565734 L95.4494917,26.3781659 L95.4492665,26.3781659 Z M83.0438004,28.5729688 C83.0438004,29.4520608 82.9710681,29.4759296 82.5812863,29.5164615 L82.27482,29.5486619 C82.2171746,29.6078835 82.22393,29.7587523 82.2901321,29.7909526 C82.6643767,29.7738392 83.1674227,29.7639314 83.5333358,29.7639314 L84.47863,29.7639314 C85.4475677,29.7639314 86.1589027,29.7738392 86.5232396,29.7909526 C86.6401066,29.5673516 86.8213743,28.9370804 86.8722643,28.5882808 C86.8213743,28.5067667 86.6808636,28.4831231 86.6061048,28.538967 C86.3147254,29.2099953 86.1352591,29.4520608 85.0816547,29.4333711 C84.387208,29.4333711 84.2430945,29.3673942 84.1482949,29.2521034 C84.0212949,29.1100166 84.0059829,28.8118819 84.0059829,28.3898997 L84.0059829,27.3380966 C84.0059829,27.1313839 84.0127382,27.1160719 84.2059403,27.1160719 L84.6022523,27.1160719 C85.3239454,27.1160719 85.464456,27.1313839 85.5203,27.4804087 L85.5797468,27.8107437 C85.6473,27.8614086 85.8033478,27.8614086 85.8438797,27.802187 C85.8355482,27.5362526 85.8184347,27.2466747 85.8184347,26.9314265 C85.8184347,26.6249602 85.835323,26.3284018 85.8438797,26.1032245 C85.8033478,26.0370224 85.6473,26.0370224 85.5797468,26.0946678 L85.5203,26.3774904 C85.464456,26.7332705 85.3239454,26.7418272 84.6022523,26.7418272 L84.2059403,26.7418272 C84.0127382,26.7418272 84.0059829,26.7332705 84.0059829,26.5182262 L84.0059829,25.1173984 C84.0059829,24.6445262 84.0059829,24.6294393 84.3633392,24.6294393 L84.9172753,24.6294393 C85.1408763,24.6294393 85.3883461,24.6447513 85.5797468,24.7057744 C85.8438797,24.7717513 85.9675021,24.9782389 86.1014825,25.4594427 C86.1674595,25.5067299 86.3334151,25.4900668 86.3656155,25.4238647 C86.3147254,25.0680846 86.2674382,24.414395 86.2334364,24.2736592 C86.1251261,24.2907727 85.6473,24.2991042 85.113855,24.2991042 L83.5333358,24.2991042 C83.1768719,24.2997097 82.8204506,24.2912253 82.4644193,24.2736592 C82.3968661,24.3058595 82.391687,24.4549269 82.447531,24.5143737 L82.5812863,24.531262 C82.970843,24.5889074 83.0438004,24.6141272 83.0438004,25.4900668 L83.0438004,28.5727436 L83.0438004,28.5729688 Z M77.8133828,26.6839567 C78.1842498,25.8471979 78.4231629,25.2916856 78.6584731,24.8951485 C78.7974075,24.6546591 78.9786752,24.5954375 79.1700759,24.5564818 L79.3801662,24.5141485 C79.4191219,24.4479464 79.4258772,24.3141911 79.3599003,24.2736592 C79.092627,24.2916606 78.8247943,24.3000726 78.5569181,24.298879 C78.29256,24.298879 78.0115388,24.2905475 77.6710708,24.2736592 C77.6048687,24.3141911 77.5981133,24.4479464 77.6539573,24.5141485 L77.896248,24.5717939 C78.1434927,24.6292141 78.1673615,24.6954162 78.0367587,25.0273275 C77.5981133,26.1538894 77.098445,27.2971144 76.6528192,28.3405858 C76.5699539,28.1491852 76.3463529,27.6614512 76.1957093,27.2887828 L75.5992147,25.8134214 C75.2587467,24.9681059 75.1961474,24.786613 75.1961474,24.7105031 C75.1961474,24.6445262 75.2587467,24.6055705 75.4415906,24.5648134 L75.6501048,24.5141485 C75.7264399,24.4547017 75.7145055,24.3227478 75.6415481,24.2736592 C75.2029027,24.2905475 74.9216563,24.298879 74.5471865,24.298879 C74.223832,24.298879 73.8698533,24.2905475 73.5444722,24.2736592 C73.4634083,24.298879 73.4634083,24.4479464 73.52263,24.5055918 L73.720786,24.5461237 C74.0526972,24.6141272 74.1256547,24.7291928 74.3575873,25.2831289 L75.8077289,28.772701 C75.9567962,29.118123 76.0905515,29.5247931 76.1887288,29.8551282 C76.2292607,29.8805732 76.285555,29.8974615 76.3463529,29.8974615 C76.4021969,29.8974615 76.4702004,29.880348 76.4852873,29.8551282 C76.6275993,29.4333711 77.017156,28.4644333 77.3490673,27.7123413 L77.8133828,26.6839567 Z M67.5306628,24.1660245 C65.7943209,24.1660245 64.5646279,25.4162087 64.5646279,27.1068396 C64.5646279,28.5803996 65.6400745,29.8983622 67.5153508,29.8983622 C69.187292,29.8983622 70.4322971,28.6801532 70.4322971,27.048969 C70.4322971,25.5414072 69.446471,24.1660245 67.5306628,24.1660245 M67.4255051,24.4979358 C68.7416662,24.4979358 69.3057352,25.9462759 69.3057352,27.1980364 C69.3057352,28.8632223 68.5401325,29.5662257 67.5984412,29.5662257 C66.1820762,29.5662257 65.692766,28.0095753 65.692766,26.8643237 C65.692766,25.1011857 66.5957268,24.4979358 67.4255051,24.4979358 M57.024567,28.5729688 C57.024567,29.4520608 56.9500333,29.4759296 56.5602515,29.5232169 L56.379209,29.5486619 C56.3028739,29.6078835 56.3283189,29.7587523 56.3960973,29.7909526 C56.7770972,29.7738392 57.1481893,29.7639314 57.5141024,29.7639314 C57.878214,29.7639314 58.2508824,29.7738392 58.6152192,29.7909526 C58.6811962,29.7587523 58.6895277,29.6078835 58.6321075,29.5486619 L58.4490384,29.5232169 C58.0612832,29.4759296 57.9867495,29.4520608 57.9867495,28.5729688 L57.9867495,27.5123838 C57.9867495,27.3380966 57.9917034,27.3277385 58.2425509,27.3277385 C58.5150154,27.3277385 58.6066625,27.3651179 58.7557299,27.6123626 C58.9556873,27.9359423 59.1876199,28.3898997 59.4096446,28.7373482 C59.9160683,29.5063286 60.3463821,29.8299083 61.1423837,29.8299083 C61.4321869,29.8299083 61.5880095,29.8060395 61.6861868,29.7805945 C61.7132081,29.7400626 61.7132081,29.6502168 61.6726762,29.6146388 C61.5711212,29.6078835 61.3304067,29.5587949 61.1000504,29.3588375 C60.7122951,29.0370591 60.295492,28.3324795 59.6332457,27.2160506 C59.6010453,27.1651605 59.5823556,27.0976073 59.6332457,27.0737385 C60.0396906,26.9077829 60.6258271,26.5249815 60.6258271,25.7627565 C60.6258271,25.1682885 60.3225133,24.7787318 59.8973786,24.556707 C59.5348432,24.3567496 58.9707742,24.2736592 58.3256413,24.2736592 C57.6429038,24.2736592 56.9399004,24.2991042 56.4215423,24.3481929 C56.3537639,24.3887248 56.3537639,24.521129 56.414787,24.5801255 L56.6264536,24.6057957 C57.0178117,24.6447513 57.024567,24.7463063 57.024567,25.5407317 L57.024567,28.5729688 Z M57.9867495,25.0106644 C57.9867495,24.6294393 57.9917034,24.6057957 58.4253948,24.6057957 C59.1452865,24.6057957 59.5670436,25.1748186 59.5670436,25.8305348 C59.5670436,26.6182049 59.1961766,27.0163183 58.3812601,27.0163183 C57.9867495,27.0163183 57.9867495,26.9976286 57.9867495,26.7332705 L57.9867495,25.0106644 Z M49.1077846,28.5729688 C49.1077846,29.4520608 49.0314495,29.4759296 48.6418928,29.5333498 L48.51129,29.5486619 C48.4522936,29.6078835 48.4606251,29.7587523 48.5248007,29.7909526 C48.8814271,29.7730604 49.2384437,29.7640505 49.5955186,29.7639314 C49.9614316,29.7639314 50.3325238,29.7738392 50.8220592,29.7909526 C50.8812808,29.7587523 50.8864599,29.6078835 50.8389475,29.5486619 L50.5304546,29.5164615 C50.1426993,29.4759296 50.0699671,29.4520608 50.0699671,28.5729688 L50.0699671,24.9512176 C50.0699671,24.6294393 50.0767224,24.6057957 50.4899227,24.6057957 C51.2438162,24.6057957 51.6741299,25.1935083 51.6741299,25.8645366 C51.6741299,26.5436712 51.4012151,27.090852 50.6457454,27.2399194 C50.6052134,27.289008 50.6153464,27.395742 50.6727666,27.4482083 C50.7373925,27.4549636 50.8033694,27.4549636 50.8812808,27.4549636 C51.5351956,27.4549636 52.7344897,27.1059389 52.7344897,25.8474231 C52.7344897,25.2986661 52.4599986,24.861597 52.0296848,24.6057957 C51.6570165,24.38895 51.0861921,24.2736592 50.298522,24.2736592 C49.5464299,24.2736592 49.048563,24.2822159 48.4691819,24.3481929 C48.4029798,24.3819695 48.4029798,24.521129 48.4606251,24.5803506 L48.7520045,24.6141272 C49.0976516,24.6616396 49.1077846,24.7870634 49.1077846,25.5407317 L49.1077846,28.5729688 Z M38.9973253,26.3781659 C38.9973253,25.7229001 38.9973253,25.001207 39.1144174,24.7469818 C39.1736391,24.6148028 39.310772,24.5792247 39.4701975,24.5555811 L39.6615982,24.5150492 C39.7259989,24.4540262 39.7106868,24.3150918 39.6429085,24.2743347 C39.3534924,24.2913337 39.0636391,24.299819 38.7737242,24.2997798 C38.4519459,24.2997798 38.1454796,24.2896468 37.8218999,24.2743347 C37.7388095,24.2997798 37.7304779,24.4540262 37.8032102,24.5150492 L37.9946109,24.5386928 C38.203125,24.5724694 38.3368803,24.6215581 38.4096126,24.7469818 C38.5586799,24.9942265 38.5672367,25.7566767 38.5672367,26.3781659 L38.5672367,27.992687 C38.5672367,28.1264423 38.5672367,28.1653979 38.5402154,28.1924192 C38.4587012,28.1415291 37.6881446,27.2642385 37.3406961,26.8830134 L36.5142955,25.9868079 C36.2229161,25.6735863 35.3199553,24.6283134 35.1794447,24.2743347 C34.9828649,24.2896468 34.7847089,24.2997798 34.6083951,24.2997798 C34.4001061,24.2997798 33.9463739,24.3049588 33.6293243,24.2743347 C33.5482605,24.2997798 33.5415052,24.4641592 33.5989254,24.5148241 L33.7243492,24.5386928 C33.8394147,24.5641379 34.0697711,24.6283134 34.1611931,24.7046485 C34.4426646,24.9433364 34.4341079,25.0773169 34.4341079,25.7226749 L34.4341079,27.6859955 C34.4341079,28.3414866 34.4341079,29.0595769 34.3273739,29.3189811 C34.2679271,29.450935 34.1206611,29.4849367 33.9614608,29.5052027 L33.7783917,29.5493374 C33.713991,29.6069828 33.7293031,29.7490697 33.7970814,29.7916282 C34.0868846,29.7745147 34.3104856,29.7646069 34.6595104,29.7646069 C34.9743082,29.7646069 35.2963117,29.7745147 35.6030031,29.7916282 C35.6840669,29.7646069 35.6944251,29.6069828 35.6196662,29.5493374 L35.4368223,29.5238924 C35.2301096,29.491692 35.0895989,29.440802 35.0150653,29.3189811 C34.8727532,29.0681336 34.8641965,28.3059085 34.8641965,27.6859955 L34.8641965,26.0698983 C34.8641965,25.6330544 34.8641965,25.5414072 34.8880653,25.5414072 C35.0303773,25.666831 35.2963117,25.9800525 35.8349357,26.5848787 L37.7728113,28.7954439 C38.3690807,29.4748037 38.60957,29.7576264 38.7399476,29.9321388 C38.8417278,29.9388941 38.9583696,29.9051175 39.021194,29.8134704 C38.9975504,29.6238711 38.9975504,28.6058447 38.9975504,28.3565734 L38.9975504,26.3781659 L38.9973253,26.3781659 Z M26.5934354,28.5729688 C26.5934354,29.4520608 26.5189017,29.4759296 26.1291199,29.5164615 L25.8208522,29.5486619 C25.7632068,29.6078835 25.7717636,29.7587523 25.8395419,29.7909526 C26.2122103,29.7738392 26.7170577,29.7639314 27.0811694,29.7639314 L28.0264636,29.7639314 C28.9969776,29.7639314 29.7085377,29.7738392 30.0710732,29.7909526 C30.1895164,29.5673516 30.3707841,28.9370804 30.4200979,28.5882808 C30.3707841,28.5067667 30.2286972,28.4831231 30.1539384,28.538967 C29.8643604,29.2099953 29.6830927,29.4520608 28.6310645,29.4333711 C27.9350416,29.4333711 27.7927295,29.3673942 27.6943271,29.2521034 C27.5691285,29.1100166 27.5553927,28.8118819 27.5553927,28.3898997 L27.5553927,27.3380966 C27.5553927,27.1313839 27.562148,27.1160719 27.7535487,27.1160719 L28.1498607,27.1160719 C28.871779,27.1160719 29.0122896,27.1313839 29.0715113,27.4804087 L29.1275804,27.8107437 C29.1951336,27.8614086 29.34938,27.8614086 29.3917133,27.802187 C29.3831566,27.5362526 29.3680697,27.2466747 29.3680697,26.9314265 C29.3680697,26.6249602 29.3833818,26.3284018 29.3917133,26.1032245 C29.34938,26.0370224 29.1951336,26.0370224 29.1275804,26.0946678 L29.0715113,26.3774904 C29.0122896,26.7332705 28.871779,26.7418272 28.1500859,26.7418272 L27.7537739,26.7418272 C27.5623732,26.7418272 27.5556179,26.7332705 27.5556179,26.5182262 L27.5556179,25.1173984 C27.5556179,24.6445262 27.5556179,24.6294393 27.911398,24.6294393 L28.465334,24.6294393 C28.6871337,24.6294393 28.937756,24.6447513 29.1273552,24.7057744 C29.3917133,24.7717513 29.5169119,24.9782389 29.6475147,25.4594427 C29.7150679,25.5067299 29.8830501,25.4900668 29.9134491,25.4238647 C29.8643604,25.0680846 29.8152718,24.414395 29.78127,24.2736592 C29.674536,24.2907727 29.1951336,24.2991042 28.6650663,24.2991042 L27.0811694,24.2991042 C26.7170577,24.2991042 26.3275011,24.2907727 26.0122529,24.2736592 C25.9462759,24.3058595 25.9379444,24.4549269 25.997166,24.5143737 L26.1291199,24.531262 C26.5186766,24.5889074 26.5934354,24.6141272 26.5934354,25.4900668 L26.5934354,28.5727436 L26.5934354,28.5729688 Z"></path>
                            </g>
                        </g>
                    </g>
                </g>
            </g>
        </g>
    </g>
</svg>