<svg xmlns="http://www.w3.org/2000/svg" width="40" height="40"  xmlns:v="https://vecta.io/nano"><linearGradient id="A" gradientUnits="userSpaceOnUse" x1="40.675" y1="39.57" x2="4.145" y2="2.923"><stop offset="0" stop-color="#1e85e9"/><stop offset=".203" stop-color="#8671f3"/><stop offset=".707" stop-color="#c06cfd" stop-opacity=".99"/><stop offset="1" stop-color="#ffbee8"/></linearGradient><path d="M34.81 25.531c-.033-.877-.144-1.751-.328-2.596-.015-.068-.055-.126-.113-.164s-.124-.049-.197-.035c-.068.015-.126.056-.164.114a.26.26 0 0 0-.035.196 14.32 14.32 0 0 1 .328 3.058.26.26 0 0 0 .261.261h4.854a.26.26 0 0 0 .261-.261 19.9 19.9 0 0 0-4.973-13.072l-.177-.199 2.632-3.507c.075-.314.016-.393.015-.393s-.077-.06-.393.015l-1.471 1.104-.201-.182A22.34 22.34 0 0 0 20 4.01a.26.26 0 1 0 0 .522c5.396 0 10.577 1.979 14.591 5.574l.295.264-1.612 1.211-.198-.177c-5.302-4.72-13.043-6.219-19.723-3.821a.26.26 0 0 0-.148.134c-.03.063-.033.134-.01.2s.071.118.134.147a.25.25 0 0 0 .199.01c1.884-.676 3.86-1.05 5.876-1.111l.335-.01v4.331l-.313.012c-3.531.133-6.902 1.53-9.492 3.932l-.229.213-3.063-3.063.244-.229a19.21 19.21 0 0 1 4.333-3.068c.062-.032.108-.086.129-.153a.26.26 0 0 0-.017-.199c-.032-.062-.086-.108-.152-.129s-.138-.015-.2.017C4.507 11.961.325 18.825.325 26.105a.26.26 0 0 0 .261.261H5.44a.26.26 0 0 0 .261-.261c0-5.334 3.042-10.178 7.94-12.641s10.603-2.02 14.884 1.161l.35.259-3.513 2.637c-1.55-.996-3.387-1.581-5.362-1.581-5.486 0-9.95 4.464-9.95 9.951s4.464 9.95 9.95 9.95 9.95-4.464 9.95-9.95c0-1.856-.52-3.589-1.408-5.077l2.683-3.577.26.349c.705.947 1.29 1.979 1.74 3.068.146.217.27.169.348.139.125-.052.188-.205.134-.338-.509-1.233-1.185-2.394-2.008-3.45l-.153-.196 2.663-3.55.264.304a19.44 19.44 0 0 1 4.673 11.946l.01.335h-4.332l-.014-.313zM9.123 16.04c-2.403 2.591-3.8 5.961-3.933 9.492l-.012.312H.846l.01-.335C.998 20.84 2.84 16.394 6.042 12.99l.229-.244 3.063 3.064-.211.23zm11.45-4.744l-.312-.012V6.953l.335.01a19.17 19.17 0 0 1 11.949 4.672l.304.264-3.548 2.664-.196-.153a14.94 14.94 0 0 0-8.532-3.114zM20 35.341c-5.211 0-9.45-4.239-9.45-9.45S14.789 16.44 20 16.44s9.45 4.24 9.45 9.451-4.239 9.45-9.45 9.45zm8.25-15.008c-.657-.972-1.486-1.813-2.435-2.5l9.865-7.406-7.43 9.906z" fill="url(#A)"/><linearGradient id="B" gradientUnits="userSpaceOnUse" x1="26.089" y1="54.109" x2="-10.441" y2="17.462"><stop offset="0" stop-color="#1e85e9"/><stop offset=".203" stop-color="#8671f3"/><stop offset=".707" stop-color="#c06cfd" stop-opacity=".99"/><stop offset="1" stop-color="#ffbee8"/></linearGradient><path d="M5.439 30.698H.586a.26.26 0 1 0 0 .522H5.44a.26.26 0 0 0 .261-.261c0-.144-.118-.261-.262-.261z" fill="url(#B)"/><linearGradient id="C" gradientUnits="userSpaceOnUse" x1="43.131" y1="37.122" x2="6.601" y2=".475"><stop offset="0" stop-color="#1e85e9"/><stop offset=".203" stop-color="#8671f3"/><stop offset=".707" stop-color="#c06cfd" stop-opacity=".99"/><stop offset="1" stop-color="#ffbee8"/></linearGradient><path d="M39.414 30.698h-2.166v-2.166a.26.26 0 1 0-.522 0v2.166H34.56a.26.26 0 1 0 0 .522h2.166v2.166a.26.26 0 1 0 .522 0V31.22h2.166a.26.26 0 1 0 0-.522z" fill="url(#C)"/><linearGradient id="D" gradientUnits="userSpaceOnUse" x1="37.108" y1="43.125" x2=".579" y2="6.478"><stop offset="0" stop-color="#1e85e9"/><stop offset=".203" stop-color="#8671f3"/><stop offset=".707" stop-color="#c06cfd" stop-opacity=".99"/><stop offset="1" stop-color="#ffbee8"/></linearGradient><path d="M20 20.922a5.05 5.05 0 0 0-5.04 5.04 5.05 5.05 0 0 0 5.04 5.04 5.05 5.05 0 0 0 5.04-5.04 5.05 5.05 0 0 0-5.04-5.04zm0 9.637c-2.535 0-4.597-2.062-4.597-4.597s2.062-4.597 4.597-4.597 4.597 2.062 4.597 4.597-2.063 4.597-4.597 4.597z" fill="url(#D)"/><linearGradient id="E" gradientUnits="userSpaceOnUse" x1="37.167" y1="43.066" x2=".638" y2="6.419"><stop offset="0" stop-color="#1e85e9"/><stop offset=".203" stop-color="#8671f3"/><stop offset=".707" stop-color="#c06cfd" stop-opacity=".99"/><stop offset="1" stop-color="#ffbee8"/></linearGradient><path d="M19.999 24.408a1.44 1.44 0 0 0-1.439 1.436 1.44 1.44 0 0 0 1.439 1.436 1.44 1.44 0 0 0 1.44-1.436 1.44 1.44 0 0 0-1.44-1.436zm0 2.383a.95.95 0 0 1-.951-.947.95.95 0 1 1 1.904 0 .95.95 0 0 1-.953.947z" fill="url(#E)"/><defs /></svg>