<svg xmlns="http://www.w3.org/2000/svg" width="40" height="40"  xmlns:v="https://vecta.io/nano"><linearGradient id="A" gradientUnits="userSpaceOnUse" x1="45.303" y1="34.719" x2="4.009" y2="-6.222"><stop offset="0" stop-color="#1e85e9"/><stop offset=".203" stop-color="#8671f3"/><stop offset=".707" stop-color="#c06cfd" stop-opacity=".99"/><stop offset="1" stop-color="#ffbee8"/></linearGradient><path d="M35.785 17.245c1.087 0 1.971-.884 1.971-1.971v-3.446c0-.159-.129-.288-.288-.288s-.288.129-.288.288v3.446c0 .769-.625 1.394-1.394 1.394l-7.239-.008.001-.501v-1.716a2.2 2.2 0 0 0-2.198-2.198 2.2 2.2 0 0 0-2.197 2.198v2.225h-1.669c-.769 0-1.394-.626-1.394-1.394V1.973c0-.769.625-1.394 1.394-1.394h13.301c.769 0 1.394.626 1.394 1.394v3.446c0 .159.129.288.288.288s.288-.129.288-.288V1.973c0-1.087-.884-1.971-1.971-1.971h-13.3c-1.087 0-1.971.884-1.971 1.971v13.301c0 1.087.884 1.971 1.971 1.971h1.669v7.467l-2.852 4.18c-.824 1.209-.951 2.782-.329 4.107l3.207 6.838a.3.3 0 0 0 .381.139c.072-.034.125-.092.152-.165s.022-.15-.01-.219l-3.208-6.837c-.535-1.14-.427-2.496.283-3.538l2.375-3.48v3.176c0 .159.129.288.288.288s.288-.129.288-.288v-14.47c0-.893.726-1.621 1.62-1.621s1.621.727 1.621 1.621v11.835c0 .159.129.288.288.288s.288-.129.288-.288v-3.737c0-.893.727-1.62 1.621-1.62s1.621.726 1.621 1.62v3.737c0 .159.129.288.288.288s.288-.129.288-.288v-3.737c0-.893.727-1.62 1.621-1.62a1.62 1.62 0 0 1 1.62 1.62v3.737c0 .159.129.288.288.288s.288-.129.288-.288v-2.33c0-.893.727-1.621 1.621-1.621s1.621.727 1.621 1.621v6.699c0 1.837-.278 3.656-.827 5.408l-1.12 3.571a.28.28 0 0 0 .019.22c.035.068.095.118.169.141.207.013.323-.067.361-.188l1.12-3.571a18.56 18.56 0 0 0 .856-5.58v-6.699a2.2 2.2 0 0 0-2.198-2.198c-.366 0-.919.131-1.205.352-.205.159-.444.381-.444.381s-.066-.63-.165-.826c-.343-.681-1.103-1.314-2.003-1.314-.583 0-1.133.227-1.547.64l-.362.36-.362-.36c-.637-.633-1.7-.796-2.47-.435-.274.129-.698.534-.698.534v-3.848" fill="url(#A)"/><linearGradient id="B" gradientUnits="userSpaceOnUse" x1="40.167" y1="39.899" x2="-1.127" y2="-1.042"><stop offset="0" stop-color="#1e85e9"/><stop offset=".203" stop-color="#8671f3"/><stop offset=".707" stop-color="#c06cfd" stop-opacity=".99"/><stop offset="1" stop-color="#ffbee8"/></linearGradient><path d="M17.244 1.973c0-1.087-.884-1.971-1.971-1.971H1.971C.884.001 0 .886 0 1.973v13.301c0 1.087.884 1.971 1.971 1.971h3.446c.159 0 .288-.129.288-.288s-.129-.288-.288-.288H1.971c-.769 0-1.394-.626-1.394-1.394V1.973c0-.769.626-1.394 1.394-1.394h13.301c.769 0 1.394.626 1.394 1.394v13.301c0 .769-.625 1.394-1.394 1.394h-3.446c-.159 0-.288.129-.288.288s.129.288.288.288h3.446c1.087 0 1.971-.884 1.971-1.971v-13.3z" fill="url(#B)"/><linearGradient id="C" gradientUnits="userSpaceOnUse" x1="40.168" y1="39.899" x2="-1.127" y2="-1.042"><stop offset="0" stop-color="#1e85e9"/><stop offset=".203" stop-color="#8671f3"/><stop offset=".707" stop-color="#c06cfd" stop-opacity=".99"/><stop offset="1" stop-color="#ffbee8"/></linearGradient><path d="M6.012 11.641l2.61-2.61 2.61 2.61c.109.109.298.109.408 0s.113-.295 0-.408l-2.61-2.61 2.61-2.61c.113-.113.113-.295 0-.408a.29.29 0 0 0-.408 0l-2.61 2.61-2.61-2.61a.29.29 0 0 0-.409 0 .29.29 0 0 0 .001.409l2.61 2.61-2.61 2.61a.29.29 0 0 0 .001.408c.108.109.298.109.407-.001z" fill="url(#C)"/><linearGradient id="D" gradientUnits="userSpaceOnUse" x1="51.781" y1="28.185" x2="10.487" y2="-12.756"><stop offset="0" stop-color="#1e85e9"/><stop offset=".203" stop-color="#8671f3"/><stop offset=".707" stop-color="#c06cfd" stop-opacity=".99"/><stop offset="1" stop-color="#ffbee8"/></linearGradient><path d="M28.498 10.047c.108.108.298.109.409 0l4.559-4.56a.29.29 0 0 0 0-.408.29.29 0 0 0-.408 0l-4.356 4.356-2.039-2.039c-.054-.055-.127-.085-.203-.085s-.15.03-.204.085a.29.29 0 0 0 0 .408l2.242 2.243z" fill="url(#D)"/><linearGradient id="E" gradientUnits="userSpaceOnUse" x1="36.001" y1="44.101" x2="-5.293" y2="3.16"><stop offset="0" stop-color="#1e85e9"/><stop offset=".203" stop-color="#8671f3"/><stop offset=".707" stop-color="#c06cfd" stop-opacity=".99"/><stop offset="1" stop-color="#ffbee8"/></linearGradient><path d="M8.826 16.753c-.054-.054-.13-.085-.204-.085s-.151.032-.203.084-.085.13-.085.204.032.151.085.204a.3.3 0 0 0 .407.001c.054-.054.086-.13.086-.205a.29.29 0 0 0-.086-.203z" fill="url(#E)"/><linearGradient id="F" gradientUnits="userSpaceOnUse" x1="54.467" y1="25.476" x2="13.173" y2="-15.465"><stop offset="0" stop-color="#1e85e9"/><stop offset=".203" stop-color="#8671f3"/><stop offset=".707" stop-color="#c06cfd" stop-opacity=".99"/><stop offset="1" stop-color="#ffbee8"/></linearGradient><path d="M37.671 8.827c.053-.053.085-.13.085-.204s-.032-.151-.085-.204a.29.29 0 0 0-.203-.084c-.075 0-.151.032-.204.085s-.084.129-.084.204a.3.3 0 0 0 .085.205c.104.103.302.103.406-.002z" fill="url(#F)"/><defs /></svg>