<svg xmlns="http://www.w3.org/2000/svg" xmlns:xlink="http://www.w3.org/1999/xlink" width="40" height="40" xmlns:v="https://vecta.io/nano"><linearGradient id="A" gradientUnits="userSpaceOnUse" x1="39.102" y1="40.782" x2="-2.369" y2="-.982"><stop offset="0" stop-color="#1e85e9"/><stop offset=".203" stop-color="#8671f3"/><stop offset=".707" stop-color="#c06cfd" stop-opacity=".99"/><stop offset="1" stop-color="#ffbee8"/></linearGradient><path d="M33.183 19.318V4.322c0-.128-.103-.232-.231-.232h-6.585V.232c0-.128-.104-.232-.232-.232H.232C.104 0 0 .104 0 .232v29.994c.003 2.381 1.942 4.32 4.323 4.322H20c.128 0 .232-.104.232-.232s-.104-.232-.232-.232H4.322a3.87 3.87 0 0 1-3.858-3.858V.463h25.44v20.218c0 .256.463.256.463 0V4.553h2.946v14.765c0 .256.462.256.462 0V4.553h2.946v14.765c0 .256.462.256.462 0z" fill="url(#A)"/><linearGradient id="B" gradientUnits="userSpaceOnUse" x1="39.913" y1="39.977" x2="-1.558" y2="-1.788"><stop offset="0" stop-color="#1e85e9"/><stop offset=".203" stop-color="#8671f3"/><stop offset=".707" stop-color="#c06cfd" stop-opacity=".99"/><stop offset="1" stop-color="#ffbee8"/></linearGradient><path d="M40 32.952v-4.09c0-.128-.103-.232-.231-.232h-1.472l-.107-.301a7.46 7.46 0 0 0-.311-.751l-.138-.288 1.044-1.043c.089-.09.089-.238-.001-.329l-2.893-2.891c-.044-.045-.101-.069-.163-.069a.23.23 0 0 0-.164.069l-1.043 1.042-.287-.137a7.48 7.48 0 0 0-.752-.311l-.302-.105v-1.474c0-.128-.103-.232-.231-.232h-4.09c-.128 0-.232.104-.232.232v1.473l-.302.106c-.255.09-.506.193-.75.31l-.288.138-1.043-1.042c-.045-.045-.102-.069-.164-.069a.23.23 0 0 0-.164.069l-2.893 2.892c-.09.09-.09.238 0 .329l1.043 1.042-.138.288c-.117.244-.22.495-.31.75l-.106.302h-1.473c-.128 0-.232.104-.232.232v4.09c0 .128.104.231.232.231h1.474l.105.302a7.48 7.48 0 0 0 .311.752l.137.288-1.044 1.042c-.09.09-.089.237.001.328l2.893 2.892a.23.23 0 0 0 .327 0l1.044-1.043.288.138c.244.117.495.22.75.31l.302.106v1.473c0 .128.104.232.232.232h4.09c.128 0 .231-.104.231-.232v-1.474l.302-.105a7.48 7.48 0 0 0 .752-.311l.288-.137 1.042 1.044c.092.09.239.089.328-.001l2.892-2.893a.23.23 0 0 0 0-.327l-1.043-1.042.137-.288a7.85 7.85 0 0 0 .312-.753l.106-.301h1.473a.23.23 0 0 0 .231-.231zm-.462-.231h-1.422c-.104 0-.195.069-.223.168-.152.539-.367 1.064-.642 1.559-.051.091-.035.204.038.277l1 .999-2.56 2.57-1.002-1.001c-.074-.074-.188-.088-.276-.039-.496.276-1.021.491-1.56.643-.098.028-.167.12-.167.223v1.419h-3.631v-1.422c0-.103-.069-.195-.168-.223-.544-.154-1.069-.37-1.559-.643-.092-.052-.204-.036-.277.039l-1 1-2.57-2.56 1.001-1.002c.074-.074.09-.185.039-.276-.276-.496-.491-1.021-.643-1.56-.028-.101-.119-.171-.223-.171h-1.418v-3.628h1.421c.105 0 .195-.067.223-.167.154-.544.37-1.069.643-1.559.05-.091.035-.205-.039-.278l-.999-.999 2.561-2.57 1 1.002c.072.072.186.089.276.038.495-.276 1.021-.491 1.561-.643.1-.028.17-.12.171-.224v-1.417h3.627v1.421c0 .104.069.195.168.223.545.155 1.069.37 1.559.643.092.053.206.035.277-.039l1.001-.998 2.568 2.56-1.002 1c-.072.072-.088.187-.037.277.274.493.489 1.018.643 1.56.028.098.119.167.222.167h1.419v3.631z" fill="url(#B)"/><linearGradient id="C" gradientUnits="userSpaceOnUse" x1="39.912" y1="39.978" x2="-1.559" y2="-1.787"><stop offset="0" stop-color="#1e85e9"/><stop offset=".203" stop-color="#8671f3"/><stop offset=".707" stop-color="#c06cfd" stop-opacity=".99"/><stop offset="1" stop-color="#ffbee8"/></linearGradient><path d="M30.907 35.228c2.383 0 4.321-1.938 4.321-4.321s-1.941-4.319-4.321-4.322-4.321 1.938-4.321 4.322 1.938 4.321 4.321 4.321zm0-8.18c2.127 0 3.858 1.731 3.858 3.859a3.87 3.87 0 0 1-3.858 3.858c-2.128 0-3.859-1.731-3.859-3.858s1.731-3.859 3.859-3.859z" fill="url(#C)"/><linearGradient id="D" gradientUnits="userSpaceOnUse" x1="46.684" y1="33.254" x2="5.213" y2="-8.511"><stop offset="0" stop-color="#1e85e9"/><stop offset=".203" stop-color="#8671f3"/><stop offset=".707" stop-color="#c06cfd" stop-opacity=".99"/><stop offset="1" stop-color="#ffbee8"/></linearGradient><use xlink:href="#N" fill="url(#D)"/><linearGradient id="E" gradientUnits="userSpaceOnUse" x1="44.639" y1="31.194" x2="3.168" y2="-10.57"><stop offset="0" stop-color="#1e85e9"/><stop offset=".203" stop-color="#8671f3"/><stop offset=".707" stop-color="#c06cfd" stop-opacity=".99"/><stop offset="1" stop-color="#ffbee8"/></linearGradient><use xlink:href="#N" y="4.09" fill="url(#E)"/><linearGradient id="F" gradientUnits="userSpaceOnUse" x1="41.912" y1="28.448" x2="0.441" y2="-13.317"><stop offset="0" stop-color="#1e85e9"/><stop offset=".203" stop-color="#8671f3"/><stop offset=".707" stop-color="#c06cfd" stop-opacity=".99"/><stop offset="1" stop-color="#ffbee8"/></linearGradient><use xlink:href="#N" y="9.544" fill="url(#F)"/><linearGradient id="G" gradientUnits="userSpaceOnUse" x1="39.867" y1="26.388" x2="-1.604" y2="-15.376"><stop offset="0" stop-color="#1e85e9"/><stop offset=".203" stop-color="#8671f3"/><stop offset=".707" stop-color="#c06cfd" stop-opacity=".99"/><stop offset="1" stop-color="#ffbee8"/></linearGradient><use xlink:href="#N" y="13.634" fill="url(#G)"/><linearGradient id="H" gradientUnits="userSpaceOnUse" x1="36.797" y1="43.071" x2="-4.673" y2="1.306"><stop offset="0" stop-color="#1e85e9"/><stop offset=".203" stop-color="#8671f3"/><stop offset=".707" stop-color="#c06cfd" stop-opacity=".99"/><stop offset="1" stop-color="#ffbee8"/></linearGradient><path d="M20.682 23.64c.127 0 .231-.104.231-.232s-.104-.231-.231-.231h-6.817c-.128 0-.232.103-.232.231s.104.232.232.232h6.817z" fill="url(#H)"/><linearGradient id="I" gradientUnits="userSpaceOnUse" x1="34.409" y1="45.442" x2="-7.061" y2="3.677"><stop offset="0" stop-color="#1e85e9"/><stop offset=".203" stop-color="#8671f3"/><stop offset=".707" stop-color="#c06cfd" stop-opacity=".99"/><stop offset="1" stop-color="#ffbee8"/></linearGradient><path d="M19.319 27.73c.128 0 .232-.104.232-.232s-.104-.232-.232-.232h-5.454c-.128 0-.232.104-.232.232s.104.232.232.232h5.454z" fill="url(#I)"/><linearGradient id="J" gradientUnits="userSpaceOnUse" x1="40.172" y1="39.72" x2="-1.299" y2="-2.045"><stop offset="0" stop-color="#1e85e9"/><stop offset=".203" stop-color="#8671f3"/><stop offset=".707" stop-color="#c06cfd" stop-opacity=".99"/><stop offset="1" stop-color="#ffbee8"/></linearGradient><path d="M11.302 4.158c-.091-.09-.237-.09-.328 0l-.98 1.009-.008-.927c-.032-.09-.117-.149-.212-.15H4.322c-.128 0-.232.104-.232.232v5.454c0 .128.104.232.232.232h5.453c.128 0 .232-.104.232-.232V5.781l1.295-1.296a.23.23 0 0 0 0-.327zM9.544 5.589L7.73 7.402 6.531 6.203c-.086-.082-.234-.08-.323.011s-.087.232 0 .323l1.358 1.357a.24.24 0 0 0 .328 0l1.65-1.649v3.298h-4.99v-4.99h4.99v1.036z" fill="url(#J)"/><linearGradient id="K" gradientUnits="userSpaceOnUse" x1="35.4" y1="44.458" x2="-6.071" y2="2.693"><stop offset="0" stop-color="#1e85e9"/><stop offset=".203" stop-color="#8671f3"/><stop offset=".707" stop-color="#c06cfd" stop-opacity=".99"/><stop offset="1" stop-color="#ffbee8"/></linearGradient><path d="M11.302 13.701c-.091-.09-.237-.09-.328 0l-.994 1.041.005-.959c-.032-.089-.117-.149-.212-.15H4.322c-.128 0-.232.104-.232.232v5.454c0 .128.104.232.232.232h5.453c.128 0 .232-.104.232-.232v-3.994l1.295-1.296c.091-.09.091-.237 0-.328zm-1.758 1.431L7.73 16.946l-1.199-1.2c-.086-.082-.233-.081-.323.011s-.087.232 0 .322l1.358 1.358a.24.24 0 0 0 .328 0l1.65-1.649v3.298h-4.99v-4.99h4.99v1.036z" fill="url(#K)"/><linearGradient id="L" gradientUnits="userSpaceOnUse" x1="30.624" y1="49.2" x2="-10.846" y2="7.435"><stop offset="0" stop-color="#1e85e9"/><stop offset=".203" stop-color="#8671f3"/><stop offset=".707" stop-color="#c06cfd" stop-opacity=".99"/><stop offset="1" stop-color="#ffbee8"/></linearGradient><path d="M11.362 23.412c0-.035-.01-.104-.07-.161a.23.23 0 0 0-.32-.003l-.99 1.03.005-.952c-.032-.089-.118-.149-.213-.149H4.322c-.128 0-.232.103-.232.231v5.454c0 .128.104.231.232.231h5.453c.128 0 .232-.103.232-.231v-3.995l1.295-1.295c.053-.054.06-.124.06-.16zm-1.818 1.264L7.73 26.489l-1.199-1.198a.23.23 0 0 0-.323.01c-.087.09-.087.233 0 .323l1.358 1.357c.088.09.24.089.327.001l1.65-1.651v3.3h-4.99V23.64h4.99v1.036z" fill="url(#L)"/><defs ><path id="N" d="M22.045 4.553c.128 0 .232-.104.232-.232s-.104-.232-.232-.232h-8.18c-.128 0-.232.104-.232.232s.104.232.232.232h8.18z"/></defs></svg>