<svg xmlns="http://www.w3.org/2000/svg" width="230" height="200" viewBox="0 0 230 200">
  <defs>
    <linearGradient id="ico-card-decor-a" x1="108.096%" x2="0%" y1="108.696%" y2="0%">
      <stop offset="0%" stop-color="#1E85E9"/>
      <stop offset="20.276%" stop-color="#8671F3"/>
      <stop offset="70.727%" stop-color="#CFA9FC"/>
      <stop offset="100%" stop-color="#F4D9FB"/>
    </linearGradient>
  </defs>
  <path fill="url(#ico-card-decor-a)" fill-rule="evenodd" d="M114,229.42265 L16.4070786,173.07735 C15.7882764,172.720085 15.4070786,172.059831 15.4070786,171.345299 L15.4070786,58.6547005 C15.4070786,57.9401694 15.7882764,57.2799153 16.4070786,56.9226497 L114,0.577350269 C114.618802,0.220084679 115.381198,0.220084679 116,0.577350269 L213.592921,56.9226497 C214.211724,57.2799153 214.592921,57.9401694 214.592921,58.6547005 L214.592921,171.345299 C214.592921,172.059831 214.211724,172.720085 213.592921,173.07735 L116,229.42265 C115.381198,229.779915 114.618802,229.779915 114,229.42265 Z" transform="matrix(0 -1 1 0 0 215)"/>
</svg>
