<svg xmlns="http://www.w3.org/2000/svg" width="117" height="19" viewBox="0 0 117 19">
  <defs>
    <linearGradient id="ico-stars-a" x1="100%" x2="0%" y1="51.219%" y2="48.781%">
      <stop offset="0%" stop-color="#1E85E9"/>
      <stop offset="20.276%" stop-color="#8671F3"/>
      <stop offset="70.727%" stop-color="#C06CFD" stop-opacity=".99"/>
      <stop offset="100%" stop-color="#FFBEE8"/>
    </linearGradient>
  </defs>
  <path fill="url(#ico-stars-a)" fill-rule="evenodd" d="M9.52400081,0.329999771 C9.74683278,0.329999771 9.95034182,0.456448998 10.048966,0.656248039 L12.3322787,5.28204025 C12.5469951,5.71699929 12.9619742,6.01855285 13.4420329,6.08826996 L18.5471496,6.8303862 C18.7676628,6.86246226 18.9508442,7.01689107 19.0197497,7.22882491 C19.0885393,7.4407201 19.0311889,7.67336811 18.8716202,7.82891766 L15.1778113,11.4299765 C14.8304624,11.7686301 14.6719757,12.2564567 14.7539049,12.7345058 L15.6254848,17.8182513 C15.6631258,18.0378757 15.5728491,18.2598188 15.3925662,18.3906737 C15.212322,18.5217217 14.9733361,18.5389191 14.7761263,18.4352323 L10.2098873,16.0350932 C9.78053196,15.8094015 9.2675856,15.8094015 8.83815292,16.0351705 L4.27233907,18.4351937 C4.07509065,18.5388805 3.83610472,18.5215285 3.65586048,18.3905964 C3.47557759,18.2596256 3.38533954,18.0376438 3.42298059,17.8180968 L4.29494689,12.7347377 C4.37699203,12.256534 4.21846675,11.7686301 3.87104057,11.4298992 L0.176999779,7.8289563 C0.0174697131,7.67340676 -0.0399966647,7.44075875 0.0288702386,7.22886355 C0.0977371419,7.01696836 0.280918467,6.86253955 0.501431683,6.83042485 L5.60639378,6.08834725 C6.08645252,6.01855285 6.5014703,5.71703793 6.71618663,5.28200161 L8.99907424,0.656286685 C9.09769845,0.456487644 9.30116884,0.329999771 9.52400081,0.329999771 Z M33.863351,0.329999771 C34.086183,0.329999771 34.289692,0.456448998 34.3883162,0.656248039 L36.671629,5.28204025 C36.8863453,5.71699929 37.3013244,6.01855285 37.7813832,6.08826996 L42.8864998,6.8303862 C43.1070131,6.86246226 43.2901944,7.01689107 43.3590999,7.22882491 C43.4278895,7.4407201 43.3705391,7.67336811 43.2109704,7.82891766 L39.5171615,11.4299765 C39.1698126,11.7686301 39.011326,12.2564567 39.0932552,12.7345058 L39.964835,17.8182513 C40.0024761,18.0378757 39.9121993,18.2598188 39.7319165,18.3906737 C39.5516722,18.5217217 39.3126863,18.5389191 39.1154765,18.4352323 L34.5492376,16.0350932 C34.1198822,15.8094015 33.6069358,15.8094015 33.1775031,16.0351705 L28.6116893,18.4351937 C28.4144409,18.5388805 28.1754549,18.5215285 27.9952107,18.3905964 C27.8149278,18.2596256 27.7246898,18.0376438 27.7623308,17.8180968 L28.6342971,12.7347377 C28.7163422,12.256534 28.557817,11.7686301 28.2103908,11.4298992 L24.51635,7.8289563 C24.3568199,7.67340676 24.2993536,7.44075875 24.3682205,7.22886355 C24.4370874,7.01696836 24.6202687,6.86253955 24.8407819,6.83042485 L29.945744,6.08834725 C30.4258027,6.01855285 30.8408205,5.71703793 31.0555369,5.28200161 L33.3384245,0.656286685 C33.4370487,0.456487644 33.6405191,0.329999771 33.863351,0.329999771 Z M58.2027012,0.329999771 C58.4255332,0.329999771 58.6290423,0.456448998 58.7276665,0.656248039 L61.0109792,5.28204025 C61.2256955,5.71699929 61.6406746,6.01855285 62.1207334,6.08826996 L67.2258501,6.8303862 C67.4463633,6.86246226 67.6295446,7.01689107 67.6984501,7.22882491 C67.7672398,7.4407201 67.7098893,7.67336811 67.5503206,7.82891766 L63.8565117,11.4299765 C63.5091628,11.7686301 63.3506762,12.2564567 63.4326054,12.7345058 L64.3041852,17.8182513 C64.3418263,18.0378757 64.2515496,18.2598188 64.0712667,18.3906737 C63.8910224,18.5217217 63.6520365,18.5389191 63.4548267,18.4352323 L58.8885878,16.0350932 C58.4592324,15.8094015 57.946286,15.8094015 57.5168534,16.0351705 L52.9510395,18.4351937 C52.7537911,18.5388805 52.5148052,18.5215285 52.3345609,18.3905964 C52.154278,18.2596256 52.06404,18.0376438 52.101681,17.8180968 L52.9736473,12.7347377 C53.0556925,12.256534 52.8971672,11.7686301 52.549741,11.4298992 L48.8557002,7.8289563 C48.6961701,7.67340676 48.6387038,7.44075875 48.7075707,7.22886355 C48.7764376,7.01696836 48.9596189,6.86253955 49.1801321,6.83042485 L54.2850942,6.08834725 C54.765153,6.01855285 55.1801707,5.71703793 55.3948871,5.28200161 L57.6777747,0.656286685 C57.7763989,0.456487644 57.9798693,0.329999771 58.2027012,0.329999771 Z M82.5420515,0.329999771 C82.7648834,0.329999771 82.9683925,0.456448998 83.0670167,0.656248039 L85.3503294,5.28204025 C85.5650457,5.71699929 85.9800249,6.01855285 86.4600836,6.08826996 L91.5652003,6.8303862 C91.7857135,6.86246226 91.9688948,7.01689107 92.0378004,7.22882491 C92.10659,7.4407201 92.0492395,7.67336811 91.8896708,7.82891766 L88.1958619,11.4299765 C87.848513,11.7686301 87.6900264,12.2564567 87.7719556,12.7345058 L88.6435354,17.8182513 C88.6811765,18.0378757 88.5908998,18.2598188 88.4106169,18.3906737 C88.2303727,18.5217217 87.9913867,18.5389191 87.794177,18.4352323 L83.227938,16.0350932 C82.7985826,15.8094015 82.2856362,15.8094015 81.8562036,16.0351705 L77.2903897,18.4351937 C77.0931413,18.5388805 76.8541554,18.5215285 76.6739111,18.3905964 C76.4936282,18.2596256 76.4033902,18.0376438 76.4410312,17.8180968 L77.3129975,12.7347377 C77.3950427,12.256534 77.2365174,11.7686301 76.8890912,11.4298992 L73.1950504,7.8289563 C73.0355204,7.67340676 72.978054,7.44075875 73.0469209,7.22886355 C73.1157878,7.01696836 73.2989691,6.86253955 73.5194823,6.83042485 L78.6244444,6.08834725 C79.1045032,6.01855285 79.5195209,5.71703793 79.7342373,5.28200161 L82.0171249,0.656286685 C82.1157491,0.456487644 82.3192195,0.329999771 82.5420515,0.329999771 Z M106.881402,0.329999771 C107.104234,0.329999771 107.307743,0.456448998 107.406367,0.656248039 L109.68968,5.28204025 C109.904396,5.71699929 110.319375,6.01855285 110.799434,6.08826996 L115.90455,6.8303862 C116.125064,6.86246226 116.308245,7.01689107 116.377151,7.22882491 C116.44594,7.4407201 116.38859,7.67336811 116.229021,7.82891766 L112.535212,11.4299765 C112.187863,11.7686301 112.029377,12.2564567 112.111306,12.7345058 L112.982886,17.8182513 C113.020527,18.0378757 112.93025,18.2598188 112.749967,18.3906737 C112.569723,18.5217217 112.330737,18.5389191 112.133527,18.4352323 L107.567288,16.0350932 C107.137933,15.8094015 106.624986,15.8094015 106.195554,16.0351705 L101.62974,18.4351937 C101.432492,18.5388805 101.193506,18.5215285 101.013261,18.3905964 C100.832978,18.2596256 100.74274,18.0376438 100.780381,17.8180968 L101.652348,12.7347377 C101.734393,12.256534 101.575868,11.7686301 101.228441,11.4298992 L97.5344006,7.8289563 C97.3748706,7.67340676 97.3174042,7.44075875 97.3862711,7.22886355 C97.455138,7.01696836 97.6383193,6.86253955 97.8588325,6.83042485 L102.963795,6.08834725 C103.443853,6.01855285 103.858871,5.71703793 104.073587,5.28200161 L106.356475,0.656286685 C106.455099,0.456487644 106.65857,0.329999771 106.881402,0.329999771 Z"/>
</svg>
