<svg xmlns="http://www.w3.org/2000/svg" width="115" height="17" viewBox="0 0 115 17">
  <path fill-rule="evenodd" d="M8.49993903,0.329999771 C8.69881063,0.329999771 8.88043704,0.442852341 8.96845652,0.621167666 L11.0062523,4.74956409 C11.197881,5.13775345 11.5682388,5.40688198 11.9966784,5.46910265 L16.5528592,6.13142164 C16.7496614,6.16004866 16.9131458,6.29787227 16.9746422,6.48701758 C17.0360351,6.6761284 16.9848513,6.88376056 16.8424405,7.02258438 L13.5458144,10.2364336 C13.2358147,10.5386729 13.0943696,10.9740451 13.1674893,11.4006912 L13.9453511,15.9377988 C13.9789447,16.1338077 13.8983752,16.331886 13.7374775,16.4486705 C13.5766143,16.5656274 13.3633257,16.5809756 13.1873212,16.4884379 L9.11207451,14.3463776 C8.72888625,14.1449538 8.27109528,14.1449538 7.88783805,14.3464466 L3.81297071,16.4884034 C3.63693175,16.5809411 3.42364317,16.565455 3.26277998,16.4486015 C3.1018823,16.3317136 3.02134724,16.1336008 3.05494088,15.9376609 L3.83314759,11.4008982 C3.90637069,10.9741141 3.76489111,10.5386729 3.45482248,10.2363646 L0.157989404,7.02261887 C0.0156130666,6.88379505 -0.035674146,6.67616289 0.0257877322,6.48705207 C0.0872496103,6.29794125 0.250734067,6.16011765 0.447536243,6.13145613 L5.00357904,5.46917163 C5.43201868,5.40688198 5.802411,5.13778794 5.99403962,4.7495296 L8.03145604,0.621202157 C8.11947552,0.442886831 8.30106743,0.329999771 8.49993903,0.329999771 Z M32.8392892,0.329999771 C33.0381608,0.329999771 33.2197873,0.442852341 33.3078067,0.621167666 L35.3456025,4.74956409 C35.5372312,5.13775345 35.907589,5.40688198 36.3360286,5.46910265 L40.8922094,6.13142164 C41.0890116,6.16004866 41.252496,6.29787227 41.3139924,6.48701758 C41.3753853,6.6761284 41.3242016,6.88376056 41.1817907,7.02258438 L37.8851646,10.2364336 C37.5751649,10.5386729 37.4337198,10.9740451 37.5068395,11.4006912 L38.2847013,15.9377988 C38.3182949,16.1338077 38.2377254,16.331886 38.0768277,16.4486705 C37.9159645,16.5656274 37.7026759,16.5809756 37.5266715,16.4884379 L33.4514247,14.3463776 C33.0682365,14.1449538 32.6104455,14.1449538 32.2271883,14.3464466 L28.1523209,16.4884034 C27.976282,16.5809411 27.7629934,16.565455 27.6021302,16.4486015 C27.4412325,16.3317136 27.3606975,16.1336008 27.3942911,15.9376609 L28.1724978,11.4008982 C28.2457209,10.9741141 28.1042413,10.5386729 27.7941727,10.2363646 L24.4973396,7.02261887 C24.3549633,6.88379505 24.3036761,6.67616289 24.3651379,6.48705207 C24.4265998,6.29794125 24.5900843,6.16011765 24.7868865,6.13145613 L29.3429293,5.46917163 C29.7713689,5.40688198 30.1417612,5.13778794 30.3333898,4.7495296 L32.3708063,0.621202157 C32.4588257,0.442886831 32.6404177,0.329999771 32.8392892,0.329999771 Z M57.1786395,0.329999771 C57.3775111,0.329999771 57.5591375,0.442852341 57.6471569,0.621167666 L59.6849528,4.74956409 C59.8765814,5.13775345 60.2469392,5.40688198 60.6753789,5.46910265 L65.2315596,6.13142164 C65.4283618,6.16004866 65.5918462,6.29787227 65.6533426,6.48701758 C65.7147355,6.6761284 65.6635518,6.88376056 65.5211409,7.02258438 L62.2245148,10.2364336 C61.9145152,10.5386729 61.7730701,10.9740451 61.8461897,11.4006912 L62.6240515,15.9377988 C62.6576451,16.1338077 62.5770756,16.331886 62.4161779,16.4486705 C62.2553147,16.5656274 62.0420261,16.5809756 61.8660217,16.4884379 L57.7907749,14.3463776 C57.4075867,14.1449538 56.9497957,14.1449538 56.5665385,14.3464466 L52.4916711,16.4884034 C52.3156322,16.5809411 52.1023436,16.565455 51.9414804,16.4486015 C51.7805827,16.3317136 51.7000477,16.1336008 51.7336413,15.9376609 L52.511848,11.4008982 C52.5850711,10.9741141 52.4435915,10.5386729 52.1335229,10.2363646 L48.8366898,7.02261887 C48.6943135,6.88379505 48.6430263,6.67616289 48.7044882,6.48705207 C48.76595,6.29794125 48.9294345,6.16011765 49.1262367,6.13145613 L53.6822795,5.46917163 C54.1107191,5.40688198 54.4811114,5.13778794 54.6727401,4.7495296 L56.7101565,0.621202157 C56.798176,0.442886831 56.9797679,0.329999771 57.1786395,0.329999771 Z M81.5179897,0.329999771 C81.7168613,0.329999771 81.8984877,0.442852341 81.9865072,0.621167666 L84.024303,4.74956409 C84.2159316,5.13775345 84.5862894,5.40688198 85.0147291,5.46910265 L89.5709098,6.13142164 C89.767712,6.16004866 89.9311965,6.29787227 89.9926928,6.48701758 C90.0540857,6.6761284 90.002902,6.88376056 89.8604912,7.02258438 L86.563865,10.2364336 C86.2538654,10.5386729 86.1124203,10.9740451 86.1855399,11.4006912 L86.9634017,15.9377988 C86.9969954,16.1338077 86.9164258,16.331886 86.7555281,16.4486705 C86.5946649,16.5656274 86.3813764,16.5809756 86.2053719,16.4884379 L82.1301252,14.3463776 C81.7469369,14.1449538 81.2891459,14.1449538 80.9058887,14.3464466 L76.8310214,16.4884034 C76.6549824,16.5809411 76.4416938,16.565455 76.2808306,16.4486015 C76.119933,16.3317136 76.0393979,16.1336008 76.0729915,15.9376609 L76.8511982,11.4008982 C76.9244213,10.9741141 76.7829418,10.5386729 76.4728731,10.2363646 L73.1760401,7.02261887 C73.0336637,6.88379505 72.9823765,6.67616289 73.0438384,6.48705207 C73.1053003,6.29794125 73.2687847,6.16011765 73.4655869,6.13145613 L78.0216297,5.46917163 C78.4500693,5.40688198 78.8204616,5.13778794 79.0120903,4.7495296 L81.0495067,0.621202157 C81.1375262,0.442886831 81.3191181,0.329999771 81.5179897,0.329999771 Z M105.85734,0.329999771 C106.056211,0.329999771 106.237838,0.442852341 106.325857,0.621167666 L108.363653,4.74956409 C108.555282,5.13775345 108.92564,5.40688198 109.354079,5.46910265 L113.91026,6.13142164 C114.107062,6.16004866 114.270547,6.29787227 114.332043,6.48701758 C114.393436,6.6761284 114.342252,6.88376056 114.199841,7.02258438 L110.903215,10.2364336 C110.593216,10.5386729 110.45177,10.9740451 110.52489,11.4006912 L111.302752,15.9377988 C111.336346,16.1338077 111.255776,16.331886 111.094878,16.4486705 C110.934015,16.5656274 110.720727,16.5809756 110.544722,16.4884379 L106.469475,14.3463776 C106.086287,14.1449538 105.628496,14.1449538 105.245239,14.3464466 L101.170372,16.4884034 C100.994333,16.5809411 100.781044,16.565455 100.620181,16.4486015 C100.459283,16.3317136 100.378748,16.1336008 100.412342,15.9376609 L101.190548,11.4008982 C101.263772,10.9741141 101.122292,10.5386729 100.812223,10.2363646 L97.5153903,7.02261887 C97.3730139,6.88379505 97.3217267,6.67616289 97.3831886,6.48705207 C97.4446505,6.29794125 97.6081349,6.16011765 97.8049371,6.13145613 L102.36098,5.46917163 C102.78942,5.40688198 103.159812,5.13778794 103.35144,4.7495296 L105.388857,0.621202157 C105.476876,0.442886831 105.658468,0.329999771 105.85734,0.329999771 Z"/>
</svg>
