<svg xmlns="http://www.w3.org/2000/svg" width="20" height="20" viewBox="0 0 20 20">
  <path fill="#FFF" d="M1035,40 C1040.52285,40 1045,44.4771525 1045,50 C1045,55.5228475 1040.52285,60 1035,60 C1029.47715,60 1025,55.5228475 1025,50 C1025,44.4771525 1029.47715,40 1035,40 Z M1035,41 C1030.02944,41 1026,45.0294373 1026,50 C1026,54.9705627 1030.02944,59 1035,59 C1039.97056,59 1044,54.9705627 1044,50 C1044,45.0294373 1039.97056,41 1035,41 Z M1035.5,44.5859375 L1035.5,49.667 L1039.96477,51.5388702 L1039.5782,52.4611298 L1034.5,50.3325684 L1034.5,44.5859375 L1035.5,44.5859375 Z" transform="translate(-1025 -40)"/>
</svg>
