<svg xmlns="http://www.w3.org/2000/svg" width="21" height="21" viewBox="0 0 21 21">
  <defs>
    <linearGradient id="ico-cards-link-arrow-a" x1="100%" x2="0%" y1="100%" y2="0%">
      <stop offset="0%" stop-color="#1E85E9"/>
      <stop offset="20.276%" stop-color="#8671F3"/>
      <stop offset="70.727%" stop-color="#C06CFD" stop-opacity=".99"/>
      <stop offset="100%" stop-color="#FFBEE8"/>
    </linearGradient>
  </defs>
  <path fill="url(#ico-cards-link-arrow-a)" d="M214.973684,284.5 L214.985656,284.500135 C215.006381,284.500604 215.027082,284.502289 215.047645,284.505192 L214.973684,284.5 C215.013965,284.5 215.053189,284.504525 215.090876,284.513095 C215.102256,284.515719 215.113996,284.518807 215.125639,284.522306 C215.144511,284.527966 215.162543,284.534527 215.180085,284.542012 C215.190147,284.546288 215.200271,284.55098 215.210267,284.556011 C215.228254,284.565108 215.245675,284.575191 215.26243,284.586206 C215.270148,284.591222 215.277881,284.596605 215.285497,284.602219 C215.302893,284.615094 215.319278,284.628782 215.334774,284.643401 C215.338295,284.646715 215.342092,284.6504 215.345846,284.654154 L215.356599,284.665226 C215.371218,284.680722 215.384906,284.697107 215.397575,284.714289 L215.345846,284.654154 C215.371824,284.680132 215.394518,284.70815 215.413929,284.737692 C215.424809,284.754325 215.434892,284.771746 215.443971,284.78976 C215.44902,284.799729 215.453712,284.809853 215.458065,284.820086 C215.465473,284.837457 215.472034,284.855489 215.477608,284.873948 C215.481193,284.886004 215.484281,284.897744 215.486956,284.909558 C215.488604,284.916594 215.490143,284.924123 215.49152,284.93171 L215.495087,284.954357 C215.497411,284.971291 215.498911,284.988316 215.499586,285.005368 L215.5,285.026316 L215.5,303.973684 C215.5,304.26436 215.26436,304.5 214.973684,304.5 C214.715305,304.5 214.500412,304.313816 214.455848,304.06829 L214.447368,303.973684 L214.447,286.296 L196.398477,304.345846 C196.192938,304.551385 195.859693,304.551385 195.654154,304.345846 C195.471453,304.163144 195.451153,303.87954 195.593254,303.674415 L195.654154,303.601523 L213.703,285.552 L196.026316,285.552632 C195.767937,285.552632 195.553044,285.366447 195.50848,285.120922 L195.5,285.026316 C195.5,284.767937 195.686184,284.553044 195.93171,284.50848 L196.026316,284.5 L214.973684,284.5 Z" transform="translate(-195 -284)"/>
</svg>
