<svg xmlns="http://www.w3.org/2000/svg" width="20" height="20" viewBox="0 0 20 20">
  <defs>
    <linearGradient id="ico-clock-color-a" x1="100%" x2="0%" y1="100%" y2="0%">
      <stop offset="0%" stop-color="#1E85E9"/>
      <stop offset="20.276%" stop-color="#8671F3"/>
      <stop offset="70.727%" stop-color="#C06CFD" stop-opacity=".99"/>
      <stop offset="100%" stop-color="#FFBEE8"/>
    </linearGradient>
  </defs>
  <path fill="url(#ico-clock-color-a)" d="M260,215 C265.522847,215 270,219.477153 270,225 C270,230.522847 265.522847,235 260,235 C254.477153,235 250,230.522847 250,225 C250,219.477153 254.477153,215 260,215 Z M260,216 C255.029437,216 251,220.029437 251,225 C251,229.970563 255.029437,234 260,234 C264.970563,234 269,229.970563 269,225 C269,220.029437 264.970563,216 260,216 Z M260.5,219.585937 L260.5,224.667 L264.96477,226.53887 L264.578199,227.46113 L259.5,225.332568 L259.5,219.585937 L260.5,219.585937 Z" transform="translate(-250 -215)"/>
</svg>
