<svg xmlns="http://www.w3.org/2000/svg" width="38" height="24" viewBox="0 0 38 24">
  <defs>
    <linearGradient id="ico-quote-a" x1="100%" x2="0%" y1="70.934%" y2="29.066%">
      <stop offset="0%" stop-color="#1E85E9"/>
      <stop offset="20.276%" stop-color="#8671F3"/>
      <stop offset="70.727%" stop-color="#C06CFD" stop-opacity=".99"/>
      <stop offset="100%" stop-color="#FFBEE8"/>
    </linearGradient>
  </defs>
  <path fill="none" stroke="url(#ico-quote-a)" d="M19.3181775,0 C24.3428756,0 28.7760529,2.5184332 31.4829686,6.2264151 C33.8472908,9.8632328 33.992165,11.2791803 33.99963,13.7904074 L33.999822,14.5283019 C33.999822,18.6997987 30.696452,22 26.8687375,22 C22.6215475,22 19.3181775,18.7 19.3181775,14.5283019 C19.3181775,10.6333333 22.5848434,7.3333333 26.4492619,7.4716981 C24.1264161,1.7966667 19.3181775,0 19.3181775,0 Z M0,0 C8.1117027,0 14.6818149,6.5633333 14.6818149,14.5283019 C14.6818149,18.7 11.3784065,22 7.5506477,22 C3.3034083,22 0,18.7 0,14.5283019 C0,10.6333333 3.2667038,7.3333333 7.1311672,7.4716981 C4.8082944,1.7966667 0,0 0,0 Z" transform="translate(3 1)"/>
</svg>
