<svg xmlns="http://www.w3.org/2000/svg" width="11" height="9" viewBox="0 0 11 9">
  <path d="M14.8265745,5.1990739 C15.0559568,5.46285989 15.0580553,5.89298233 14.8312618,6.15977928 C14.8302853,6.16092805 14.8293052,6.16207275 14.8283217,6.16321339 L8.26849146,13.7707857 C8.1726898,13.8818889 8.05231772,13.9469804 7.92772657,13.9660103 C7.72124924,14.0445451 7.48462119,13.98842 7.32020644,13.7973294 L4.17333406,10.1398858 C3.94234328,9.87141741 3.94220428,9.43598249 4.17302358,9.16731467 L4.17427577,9.1658615 L4.1773219,9.16235371 C4.41033047,8.89436395 4.7856622,8.89550787 5.01746005,9.16491427 L7.792,12.389 L13.9917078,5.20112059 C14.2222466,4.93375997 14.5950688,4.93284598 14.8265745,5.1990739 Z" transform="translate(-4 -5)"/>
</svg>
