<svg xmlns="http://www.w3.org/2000/svg" width="35" height="35" viewBox="0 0 35 35">
  <defs>
    <linearGradient id="ico-results-list-a" x1="100%" x2="0%" y1="100%" y2="0%">
      <stop offset="0%" stop-color="#1E85E9"/>
      <stop offset="20.276%" stop-color="#8671F3"/>
      <stop offset="70.727%" stop-color="#C06CFD" stop-opacity=".99"/>
      <stop offset="100%" stop-color="#FFBEE8"/>
    </linearGradient>
  </defs>
  <path fill="url(#ico-results-list-a)" d="M82.5,223 C92.1649815,223 100,230.835016 100,240.5 C100,250.164982 92.1649815,258 82.5,258 C72.8350164,258 65,250.164982 65,240.5 C65,230.835016 72.8350164,223 82.5,223 Z M82.4999999,224 C73.3873011,224 65.9999999,231.387301 65.9999999,240.5 C65.9999999,249.612697 73.3873011,257 82.4999999,257 C91.6126968,257 98.9999999,249.612697 98.9999999,240.5 C98.9999999,231.387301 91.6126968,224 82.4999999,224 Z M90.6422973,235.147483 C90.8148751,235.322032 90.8326297,235.591562 90.6965291,235.78566 L90.6382813,235.854578 L80.8466559,245.535608 C80.6700123,245.710256 80.3966062,245.726071 80.20242,245.585542 L80.1336574,245.525519 L76.1385404,241.345466 C75.9477443,241.145838 75.9549041,240.829336 76.1545323,240.63854 C76.3319796,240.468943 76.6017713,240.455757 76.7935365,240.595125 L76.8614582,240.654532 L80.5049991,244.465999 L89.935202,235.143467 C90.1315699,234.949317 90.4481473,234.951115 90.6422973,235.147483 Z" transform="translate(-65 -223)"/>
</svg>
