<svg xmlns="http://www.w3.org/2000/svg" width="55" height="55" viewBox="0 0 55 55">
  <defs>
    <linearGradient id="ico-sent-a" x1="100%" x2="0%" y1="100%" y2="0%">
      <stop offset="0%" stop-color="#1E85E9"/>
      <stop offset="20.276%" stop-color="#8671F3"/>
      <stop offset="70.727%" stop-color="#C06CFD" stop-opacity=".99"/>
      <stop offset="100%" stop-color="#FFBEE8"/>
    </linearGradient>
  </defs>
  <path fill="url(#ico-sent-a)" d="M285.5,36 C300.687831,36 313,48.3121694 313,63.5 C313,78.6878306 300.687831,91 285.5,91 C270.312169,91 258,78.6878306 258,63.5 C258,48.3121694 270.312169,36 285.5,36 Z M285.5,37 C270.864454,37 259,48.8644541 259,63.5 C259,78.1355459 270.864454,90 285.5,90 C300.135546,90 312,78.1355459 312,63.5 C312,48.8644541 300.135546,37 285.5,37 Z M298.852298,55.1451958 C299.026479,55.318146 299.046718,55.5875003 298.912414,55.7828457 L298.854804,55.8522982 L282.929511,71.8908724 C282.756441,72.065174 282.486861,72.0853049 282.291505,71.9507441 L282.22206,71.8930316 L275.147353,64.8544574 C274.951592,64.6596958 274.950781,64.3431143 275.145543,64.1473529 C275.318664,63.9733428 275.588038,63.9533679 275.783251,64.0878646 L275.852647,64.1455426 L282.572,70.831 L298.145196,55.1477018 C298.339765,54.9517489 298.656345,54.9506269 298.852298,55.1451958 Z" transform="translate(-258 -36)"/>
</svg>
