<?xml version="1.0" encoding="UTF-8"?>
<svg xmlns="http://www.w3.org/2000/svg" width="62" height="62" viewBox="0 0 62 62" fill="none">
  <g id="icon-37-2">
    <g id="Rectangle" opacity="0.0620722">
      <rect x="1" y="1" width="60" height="60" rx="4" fill="#FAFAFA"></rect>
      <rect x="1" y="1" width="60" height="60" rx="4" fill="url(#paint0_linear_10_1165)"></rect>
      <rect x="1" y="1" width="60" height="60" rx="4" stroke="black" stroke-opacity="0.02"></rect>
    </g>
    <g id="Group 114">
      <path id="Union" fill-rule="evenodd" clip-rule="evenodd" d="M31 13.5C31.2761 13.5 31.5 13.7239 31.5 14V18.5098C32.9054 18.5651 34.2511 18.8524 35.5 19.3345V15.5L40.55 15.5C40.7816 14.3589 41.7905 13.5 43 13.5C44.3807 13.5 45.5 14.6193 45.5 16C45.5 17.3807 44.3807 18.5 43 18.5C41.7905 18.5 40.7816 17.6411 40.55 16.5L36.5 16.5V19.7719C38.6438 20.824 40.4422 22.472 41.6792 24.5H43.55C43.7816 23.3589 44.7905 22.5 46 22.5C47.3807 22.5 48.5 23.6193 48.5 25C48.5 26.3807 47.3807 27.5 46 27.5C44.7905 27.5 43.7816 26.6411 43.55 25.5H42.2281C42.9735 27.0189 43.4198 28.7111 43.4902 30.5H48C48.2761 30.5 48.5 30.7239 48.5 31C48.5 31.2761 48.2761 31.5 48 31.5H43.4902C43.4198 33.2889 42.9735 34.9811 42.2281 36.5H43.55C43.7816 35.3589 44.7905 34.5 46 34.5C47.3807 34.5 48.5 35.6193 48.5 37C48.5 38.3807 47.3807 39.5 46 39.5C44.7905 39.5 43.7816 38.6411 43.55 37.5H41.6792C40.4422 39.528 38.6438 41.176 36.5 42.2281V45.5H40.55C40.7816 44.3589 41.7905 43.5 43 43.5C44.3807 43.5 45.5 44.6193 45.5 46C45.5 47.3807 44.3807 48.5 43 48.5C41.7905 48.5 40.7816 47.6411 40.55 46.5H35.5V42.6655C34.2511 43.1476 32.9054 43.4349 31.5 43.4902V48C31.5 48.2761 31.2761 48.5 31 48.5C30.7239 48.5 30.5 48.2761 30.5 48V43.4902C29.0946 43.4349 27.7489 43.1476 26.5 42.6655V46.5H21.45C21.2184 47.6411 20.2095 48.5 19 48.5C17.6193 48.5 16.5 47.3807 16.5 46C16.5 44.6193 17.6193 43.5 19 43.5C20.2095 43.5 21.2184 44.3589 21.45 45.5H25.5V42.2281C23.3562 41.176 21.5578 39.528 20.3208 37.5H18.45C18.2184 38.6411 17.2095 39.5 16 39.5C14.6193 39.5 13.5 38.3807 13.5 37C13.5 35.6193 14.6193 34.5 16 34.5C17.2095 34.5 18.2184 35.3589 18.45 36.5H19.7719C19.0265 34.9811 18.5802 33.2889 18.5098 31.5H14C13.7239 31.5 13.5 31.2761 13.5 31C13.5 30.7239 13.7239 30.5 14 30.5H18.5098C18.5802 28.7111 19.0265 27.0189 19.7719 25.5H18.45C18.2184 26.6411 17.2095 27.5 16 27.5C14.6193 27.5 13.5 26.3807 13.5 25C13.5 23.6193 14.6193 22.5 16 22.5C17.2095 22.5 18.2184 23.3589 18.45 24.5H20.3208C21.5578 22.472 23.3562 20.824 25.5 19.7719V16.5L21.45 16.5C21.2184 17.6411 20.2095 18.5 19 18.5C17.6193 18.5 16.5 17.3807 16.5 16C16.5 14.6193 17.6193 13.5 19 13.5C20.2095 13.5 21.2184 14.3589 21.45 15.5L26.5 15.5V19.3345C27.7489 18.8524 29.0946 18.5651 30.5 18.5098V14C30.5 13.7239 30.7239 13.5 31 13.5ZM31 42.5C37.3513 42.5 42.5 37.3513 42.5 31C42.5 24.6487 37.3513 19.5 31 19.5C24.6487 19.5 19.5 24.6487 19.5 31C19.5 37.3513 24.6487 42.5 31 42.5ZM43 47.5C42.1716 47.5 41.5 46.8284 41.5 46C41.5 45.1716 42.1716 44.5 43 44.5C43.8284 44.5 44.5 45.1716 44.5 46C44.5 46.8284 43.8284 47.5 43 47.5ZM46 26.5C45.1716 26.5 44.5 25.8284 44.5 25C44.5 24.1716 45.1716 23.5 46 23.5C46.8284 23.5 47.5 24.1716 47.5 25C47.5 25.8284 46.8284 26.5 46 26.5ZM46 38.5C45.1716 38.5 44.5 37.8284 44.5 37C44.5 36.1716 45.1716 35.5 46 35.5C46.8284 35.5 47.5 36.1716 47.5 37C47.5 37.8284 46.8284 38.5 46 38.5ZM16 23.5C16.8284 23.5 17.5 24.1716 17.5 25C17.5 25.8284 16.8284 26.5 16 26.5C15.1716 26.5 14.5 25.8284 14.5 25C14.5 24.1716 15.1716 23.5 16 23.5ZM16 35.5C16.8284 35.5 17.5 36.1716 17.5 37C17.5 37.8284 16.8284 38.5 16 38.5C15.1716 38.5 14.5 37.8284 14.5 37C14.5 36.1716 15.1716 35.5 16 35.5ZM19 44.5C19.8284 44.5 20.5 45.1716 20.5 46C20.5 46.8284 19.8284 47.5 19 47.5C18.1716 47.5 17.5 46.8284 17.5 46C17.5 45.1716 18.1716 44.5 19 44.5ZM30.5 22C30.5 21.7239 30.7239 21.5 31 21.5C36.2467 21.5 40.5 25.7533 40.5 31C40.5 36.2467 36.2467 40.5 31 40.5C25.7533 40.5 21.5 36.2467 21.5 31C21.5 30.7239 21.7239 30.5 22 30.5C22.2761 30.5 22.5 30.7239 22.5 31C22.5 35.6944 26.3056 39.5 31 39.5C35.6944 39.5 39.5 35.6944 39.5 31C39.5 26.3056 35.6944 22.5 31 22.5C30.7239 22.5 30.5 22.2761 30.5 22ZM31.5 36C31.5 36.2761 31.2761 36.5 31 36.5C27.9624 36.5 25.5 34.0376 25.5 31C25.5 27.9624 27.9624 25.5 31 25.5C34.0376 25.5 36.5 27.9624 36.5 31C36.5 31.2761 36.2761 31.5 36 31.5C35.7239 31.5 35.5 31.2761 35.5 31C35.5 28.5147 33.4853 26.5 31 26.5C28.5147 26.5 26.5 28.5147 26.5 31C26.5 33.4853 28.5147 35.5 31 35.5C31.2761 35.5 31.5 35.7239 31.5 36ZM17.5 16C17.5 15.1716 18.1716 14.5 19 14.5C19.8284 14.5 20.5 15.1716 20.5 16C20.5 16.8284 19.8284 17.5 19 17.5C18.1716 17.5 17.5 16.8284 17.5 16ZM44.5 16C44.5 15.1716 43.8284 14.5 43 14.5C42.1716 14.5 41.5 15.1716 41.5 16C41.5 16.8284 42.1716 17.5 43 17.5C43.8284 17.5 44.5 16.8284 44.5 16Z" fill="url(#paint1_linear_10_1165)"></path>
    </g>
  </g>
  <defs>
    <linearGradient id="paint0_linear_10_1165" x1="91" y1="31" x2="31" y2="-29" gradientUnits="userSpaceOnUse">
      <stop stop-color="#1E85E9"></stop>
      <stop offset="0.202755" stop-color="#8671F3"></stop>
      <stop offset="0.707269" stop-color="#C06CFD" stop-opacity="0.99"></stop>
      <stop offset="1" stop-color="#FFBEE8"></stop>
    </linearGradient>
    <linearGradient id="paint1_linear_10_1165" x1="66" y1="31" x2="31" y2="-4" gradientUnits="userSpaceOnUse">
      <stop stop-color="#1E85E9"></stop>
      <stop offset="0.202755" stop-color="#8671F3"></stop>
      <stop offset="0.707269" stop-color="#C06CFD" stop-opacity="0.99"></stop>
      <stop offset="1" stop-color="#FFBEE8"></stop>
    </linearGradient>
  </defs>
</svg>
