<?xml version="1.0" encoding="UTF-8"?>
<svg xmlns="http://www.w3.org/2000/svg" width="40" height="40" viewBox="0 0 40 40" fill="none">
  <path fill-rule="evenodd" clip-rule="evenodd" d="M8.9395 8.02644C8.23518 8.73076 8.23518 9.87269 8.9395 10.577L12.8501 14.4876C12.8593 14.4956 12.8683 14.5039 12.877 14.5126L17.4841 19.1197C17.4929 19.1285 17.5013 19.1376 17.5093 19.1469L21.4165 23.054C22.1208 23.7583 23.2627 23.7583 23.967 23.054L29.9286 17.0924C30.6329 16.3881 30.6329 15.2461 29.9286 14.5418L17.4517 2.06486C16.7473 1.36054 15.6054 1.36054 14.9011 2.06486L8.9395 8.02644ZM8.2324 11.2841L11.8154 14.8671L1.5967 25.0858C0.891992 25.7906 0.496094 26.7463 0.496094 27.7429C0.496094 28.7395 0.891992 29.6953 1.5967 30.4C2.3014 31.1047 3.25718 31.5006 4.25378 31.5006C5.25038 31.5006 6.20617 31.1047 6.91087 30.4L17.1296 20.1813L20.7093 23.7611C21.8042 24.8559 23.5793 24.8559 24.6741 23.7611L30.6357 17.7995C31.7306 16.7047 31.7306 14.9296 30.6357 13.8347L18.1588 1.35776C17.0639 0.262909 15.2888 0.262909 14.194 1.35776L8.2324 7.31933C7.13755 8.41418 7.13755 10.1893 8.2324 11.2841ZM2.3038 25.793L12.5225 15.5742L16.4225 19.4742L6.20376 29.6929C5.6866 30.2101 4.98517 30.5006 4.25378 30.5006C3.5224 30.5006 2.82097 30.2101 2.3038 29.6929C1.78664 29.1758 1.49609 28.4743 1.49609 27.7429C1.49609 27.0116 1.78664 26.3101 2.3038 25.793ZM24 32H31C34.5265 32 37.4439 34.6077 37.9291 38H17.0709C17.5561 34.6077 20.4735 32 24 32ZM31 31C35.0796 31 38.446 34.0537 38.9381 38C38.979 38.3276 39 38.6613 39 39H16C16 38.6613 16.021 38.3276 16.0619 38C16.554 34.0537 19.9204 31 24 31H31Z" fill="url(#paint0_linear_131_9)"></path>
  <defs>
    <linearGradient id="paint0_linear_131_9" x1="47" y1="40" x2="4.04853" y2="-6.04527" gradientUnits="userSpaceOnUse">
      <stop stop-color="#1E85E9"></stop>
      <stop offset="0.202755" stop-color="#8671F3"></stop>
      <stop offset="0.707269" stop-color="#C06CFD" stop-opacity="0.99"></stop>
      <stop offset="1" stop-color="#FFBEE8"></stop>
    </linearGradient>
  </defs>
</svg>
