<?xml version="1.0" encoding="UTF-8"?>
<svg xmlns="http://www.w3.org/2000/svg" width="40" height="40" viewBox="0 0 40 40" fill="none">
  <path fill-rule="evenodd" clip-rule="evenodd" d="M37.6744 2H2.32558C1.0412 2 0 3.0412 0 4.32558V29.4419C0 30.7262 1.0412 31.7674 2.32558 31.7674H15.7495C15.5804 32.9127 15.2878 33.977 14.8722 34.9611C14.4317 36.0042 13.9062 36.8313 13.299 37.4454H11.6279L11.5443 37.4534C11.3273 37.4958 11.1628 37.6999 11.1628 37.9454C11.1628 38.2215 11.371 38.4454 11.6279 38.4454H28.3721L28.4557 38.4373C28.6727 38.395 28.8372 38.1908 28.8372 37.9454C28.8372 37.6692 28.629 37.4454 28.3721 37.4454H26.6626L26.594 37.3955C25.8812 36.8463 25.2864 36.0164 24.8136 34.8968C24.3609 33.8249 24.145 32.7829 24.163 31.7674H37.6744C38.9588 31.7674 40 30.7262 40 29.4419V4.32558C40 3.0412 38.9588 2 37.6744 2ZM14.528 37.4454H25.291C24.7698 36.8618 24.3254 36.1319 23.9566 35.2587C23.4572 34.076 23.2149 32.9112 23.2326 31.7674H16.6892C16.5124 33.0403 16.1925 34.2258 15.7292 35.323C15.3827 36.1433 14.9827 36.8511 14.528 37.4454ZM2.32558 2.93023H37.6744C38.445 2.93023 39.0698 3.55495 39.0698 4.32558V23.8605H0.930233V4.32558C0.930233 3.55495 1.55495 2.93023 2.32558 2.93023ZM0.930233 24.8605V29.4419C0.930233 30.2125 1.55495 30.8372 2.32558 30.8372H37.6744C38.445 30.8372 39.0698 30.2125 39.0698 29.4419V24.8605H0.930233ZM20.9302 27.5814C20.9302 28.0951 20.5138 28.5116 20 28.5116C19.4862 28.5116 19.0698 28.0951 19.0698 27.5814C19.0698 27.0676 19.4862 26.6512 20 26.6512C20.5138 26.6512 20.9302 27.0676 20.9302 27.5814ZM19.4819 15.2682L20.7677 19.0112C20.8317 19.1975 20.9991 19.3288 21.1952 19.3467C21.3913 19.3646 21.5796 19.2657 21.6763 19.0941L23.8627 15.2112L28.3183 15.1367C28.5152 15.1334 28.6918 15.0148 28.7694 14.8338C28.847 14.6528 28.8112 14.4431 28.6778 14.2982L25.6606 11.0189L26.9665 6.75836C27.0243 6.57007 26.9661 6.36545 26.8179 6.2357C26.6698 6.10595 26.4593 6.07524 26.2802 6.15727L22.2291 8.01343L18.5806 5.45488C18.4194 5.3418 18.2068 5.33391 18.0376 5.43471C17.8684 5.53551 17.7742 5.72623 17.7969 5.92186L18.3103 10.3483L14.7495 13.0276C14.5922 13.146 14.519 13.3457 14.5626 13.5378C14.6061 13.7298 14.7584 13.8784 14.9515 13.9173L18.5981 14.6515L12.1554 21.0942C11.9482 21.3014 11.9482 21.6373 12.1554 21.8445C12.3626 22.0516 12.6985 22.0516 12.9056 21.8445L19.4819 15.2682ZM22.385 9.04196L25.684 7.53043L24.6205 10.9999C24.5685 11.1697 24.6104 11.3543 24.7306 11.485L27.1876 14.1554L23.5593 14.2162C23.3818 14.2192 23.2192 14.3161 23.132 14.4708L21.3515 17.6327L20.1726 14.2008C20.1149 14.0329 19.9724 13.9081 19.7984 13.8731L16.241 13.1568L19.1406 10.975C19.2825 10.8683 19.3571 10.6943 19.3367 10.5179L18.9186 6.91325L21.8896 8.99677C22.035 9.09872 22.2235 9.11592 22.385 9.04196Z" fill="url(#paint0_linear_157_89)"></path>
  <defs>
    <linearGradient id="paint0_linear_157_89" x1="60" y1="20.2227" x2="23.7119" y2="-19.6047" gradientUnits="userSpaceOnUse">
      <stop stop-color="#1E85E9"></stop>
      <stop offset="0.202755" stop-color="#8671F3"></stop>
      <stop offset="0.707269" stop-color="#C06CFD" stop-opacity="0.99"></stop>
      <stop offset="1" stop-color="#FFBEE8"></stop>
    </linearGradient>
  </defs>
</svg>
