<?xml version="1.0" encoding="UTF-8"?>
<svg xmlns="http://www.w3.org/2000/svg" width="62" height="62" viewBox="0 0 62 62" fill="none">
  <g opacity="0.0620722">
    <rect x="1" y="1" width="60" height="60" rx="4" fill="#FAFAFA"></rect>
    <rect x="1" y="1" width="60" height="60" rx="4" fill="url(#paint0_linear_125_2)"></rect>
    <rect x="1" y="1" width="60" height="60" rx="4" stroke="black" stroke-opacity="0.02"></rect>
  </g>
  <path fill-rule="evenodd" clip-rule="evenodd" d="M34.4545 9C35.7097 9 36.7273 10.0233 36.7273 11.2857V30.2998C37.1233 30.0171 37.6058 29.8469 38.129 29.8366C38.9466 29.8206 39.6803 30.199 40.1482 30.797C40.5923 30.1811 41.3106 29.7743 42.1282 29.7583C43.4534 29.7324 44.558 30.7425 44.6681 32.0447L44.6766 32.2087C45.0883 31.8868 45.6039 31.6907 46.1666 31.6797C47.4918 31.6537 48.5963 32.6638 48.7065 33.966L48.715 34.1303L48.9107 44.1283C48.9302 45.12 48.5751 45.8984 47.854 46.8369L47.229 47.6547L47.0979 47.8369L47.0248 47.9547L47.0003 48.0098L46.9893 48.0549C46.9884 48.062 46.9878 48.069 46.9875 48.076L47.0677 52.166C47.0725 52.4114 46.8997 52.6189 46.6673 52.6658L46.5776 52.6756L32.5803 52.9496C32.3348 52.9544 32.1273 52.7816 32.0804 52.5492C32.0745 52.5202 32.0712 52.4902 32.0706 52.4595L32.0119 49.4601C32.0089 49.3082 31.9713 49.1574 31.8949 49H16.2727C15.0175 49 14 47.9767 14 46.7143V11.2857C14 10.0233 15.0175 9 16.2727 9H34.4545ZM32.3118 47.8571C32.6476 48.2378 32.862 48.604 32.9564 49C32.9771 49.087 32.992 49.1754 33.0012 49.2657L33.0117 49.4405L33.0606 51.94L46.0581 51.6856L45.9896 48.1863C45.9837 47.8823 46.0811 47.5977 46.2706 47.2841L46.3729 47.1246C46.4175 47.0588 46.4646 46.9929 46.5187 46.9204L47.061 46.2276C47.6025 45.5229 47.8735 44.9727 47.9077 44.3403L47.9109 44.1479L47.7152 34.1498C47.699 33.3216 47.0144 32.6633 46.1862 32.6795C45.4066 32.6947 44.7776 33.302 44.7198 34.064L44.7158 34.2085L44.7941 38.2078C44.7995 38.4839 44.5801 38.7121 44.304 38.7175C44.0585 38.7223 43.851 38.5494 43.8041 38.317L43.7943 38.2273L43.6768 32.2285C43.6606 31.4002 42.976 30.7419 42.1478 30.7581C41.3682 30.7734 40.7392 31.3807 40.6815 32.1426L40.6774 32.2872L40.7557 36.2864C40.7611 36.5625 40.5417 36.7907 40.2656 36.7961C40.0202 36.8009 39.8126 36.6281 39.7657 36.3957L39.7559 36.306L39.6776 32.3068C39.6614 31.4785 38.9768 30.8202 38.1485 30.8364C37.463 30.8498 36.8938 31.3212 36.7273 31.9529C36.7044 32.0395 36.6892 32.1291 36.6822 32.2209C36.6822 32.2209 36.6822 32.2209 36.6822 32.2209L36.6782 32.3655L36.7273 34.8733L36.7565 36.3647C36.7577 36.4275 36.7473 36.4878 36.7273 36.5435C36.7081 36.597 36.68 36.6463 36.6447 36.6897C36.5552 36.7999 36.4195 36.8714 36.2664 36.8744C36.2127 36.8755 36.1608 36.868 36.112 36.8533C35.9657 36.8091 35.8472 36.6996 35.7914 36.5581C35.7807 36.5312 35.7723 36.503 35.7665 36.474L35.7665 36.474L35.7567 36.3843L35.7567 36.3843L35.5909 27.9169L35.561 26.3862C35.5447 25.5579 34.8602 24.8996 34.0319 24.9159C33.2523 24.9311 32.6234 25.5384 32.5656 26.3004L32.5615 26.4449L32.574 27.0836L32.5958 28.1968L32.7037 33.7105L32.7263 34.864L32.8355 40.4422C32.8409 40.7183 32.6215 40.9465 32.3454 40.9519C32.1 40.9567 31.8924 40.7839 31.8455 40.5515L31.8357 40.4618L31.7379 35.4628C31.7347 35.3008 31.7059 35.1452 31.6555 35C31.5147 34.594 31.2047 34.2684 30.8113 34.1055C30.6259 34.0288 30.4221 33.9882 30.2088 33.9924C29.6386 34.0036 29.149 34.3314 28.9045 34.8049C28.8722 34.8675 28.8441 34.9327 28.8207 35C28.7792 35.1196 28.7524 35.246 28.7425 35.3769L28.7384 35.5215L28.895 43.52C28.915 44.5413 29.4045 45.2845 30.5584 46.2905L31.5524 47.1263L31.7749 47.3218C31.9793 47.5061 32.1583 47.6831 32.3118 47.8571ZM28.2321 34C28.6778 33.4017 29.3855 33.0083 30.1892 32.9926C30.7519 32.9816 31.2748 33.1574 31.6987 33.463L31.5918 28H19C18.4477 28 18 28.4477 18 29V33C18 33.5523 18.4477 34 19 34H28.2321ZM31.5722 27H19C17.8954 27 17 27.8954 17 29V33C17 34.1046 17.8954 35 19 35H27.7865C27.7516 35.1746 27.735 35.3557 27.7386 35.5411L27.8846 43H15.1364V11.2857L15.144 11.1524C15.2097 10.584 15.69 10.1429 16.2727 10.1429H34.4545L34.5871 10.1505C35.1522 10.2166 35.5909 10.6996 35.5909 11.2857V24.4381C35.1554 24.1007 34.606 23.9044 34.0123 23.916C33.9304 23.9177 33.8495 23.9232 33.7698 23.9324C33.9168 23.654 34 23.3367 34 23V19C34 17.8954 33.1046 17 32 17H19C17.8954 17 17 17.8954 17 19V23C17 24.1046 17.8954 25 19 25H32C32.0001 25 32.0003 25 32.0004 25C31.7144 25.4157 31.5511 25.9216 31.5617 26.4645L31.5722 27ZM27.9286 44C28.0857 45.212 28.7868 46.1104 30.1389 47.2476L30.8644 47.8571H16.2727L16.1402 47.8495C15.575 47.7834 15.1364 47.3004 15.1364 46.7143V44H27.9286ZM26.5 12.4285C26.5 11.7973 25.9913 11.2856 25.3637 11.2856C24.7361 11.2856 24.2273 11.7973 24.2273 12.4285C24.2273 13.0597 24.7361 13.5714 25.3637 13.5714C25.9913 13.5714 26.5 13.0597 26.5 12.4285ZM18 19C18 18.4477 18.4477 18 19 18H32C32.5523 18 33 18.4477 33 19V23C33 23.5523 32.5523 24 32 24H19C18.4477 24 18 23.5523 18 23V19Z" fill="url(#paint1_linear_125_2)"></path>
  <defs>
    <linearGradient id="paint0_linear_125_2" x1="91" y1="31" x2="31" y2="-29" gradientUnits="userSpaceOnUse">
      <stop stop-color="#1E85E9"></stop>
      <stop offset="0.202755" stop-color="#8671F3"></stop>
      <stop offset="0.707269" stop-color="#C06CFD" stop-opacity="0.99"></stop>
      <stop offset="1" stop-color="#FFBEE8"></stop>
    </linearGradient>
    <linearGradient id="paint1_linear_125_2" x1="53.346" y1="8.75247" x2="8.92048" y2="5.8428" gradientUnits="userSpaceOnUse">
      <stop stop-color="#1E85E9"></stop>
      <stop offset="0.202755" stop-color="#8671F3"></stop>
      <stop offset="0.707269" stop-color="#C06CFD" stop-opacity="0.99"></stop>
      <stop offset="1" stop-color="#FFBEE8"></stop>
    </linearGradient>
  </defs>
</svg>
