<?xml version="1.0" encoding="UTF-8"?>
<svg xmlns="http://www.w3.org/2000/svg" width="40" height="40" viewBox="0 0 40 40" fill="none">
  <path d="M0 0H40V40H0V0Z" fill="white"></path>
  <g clip-path="url(#clip0_151_18)">
    <path fill-rule="evenodd" clip-rule="evenodd" d="M7.37969 2.78564C7.56082 2.78561 7.7364 2.84815 7.87672 2.9627C8.01703 3.07724 8.11346 3.23674 8.14969 3.41422C8.15154 3.42326 8.15363 3.43224 8.15597 3.44116L9.23565 7.55421L11.8016 20.3839L11.8039 20.3947L12.8817 25.7838L12.8821 25.7857C12.9644 26.1891 13.1836 26.5516 13.5025 26.8119C13.8213 27.0722 14.2204 27.2144 14.632 27.2143H30.292C30.5681 27.2143 30.792 26.9905 30.792 26.7143C30.792 26.4382 30.5681 26.2143 30.292 26.2143H14.632C14.4508 26.2143 14.2752 26.1518 14.1348 26.0373C13.9948 25.9229 13.8984 25.7638 13.8621 25.5867L12.9019 20.7859H33.3231C33.7428 20.7906 34.1505 20.6452 34.4725 20.3758C34.7928 20.1078 35.0072 19.7347 35.0777 19.3234L37.1867 9.03588C37.2337 8.77897 37.2237 8.51485 37.1575 8.26219C37.0914 8.00952 36.9706 7.77444 36.8038 7.57352C36.6369 7.3726 36.428 7.21073 36.1918 7.09932C35.9555 6.98791 35.6977 6.92967 35.4366 6.92871L35.4347 6.92871H10.1053L9.12643 3.19956C9.04182 2.80209 8.82413 2.4452 8.50909 2.18804C8.19022 1.92773 7.79122 1.78558 7.37959 1.78564H3.29102C3.01487 1.78564 2.79102 2.0095 2.79102 2.28564C2.79102 2.56179 3.01487 2.78564 3.29102 2.78564H7.37969ZM35.4337 7.92871C35.5484 7.92925 35.6615 7.95487 35.7652 8.00377C35.8691 8.05279 35.961 8.12402 36.0345 8.21242C36.1079 8.30083 36.161 8.40426 36.1901 8.51543C36.2188 8.62511 36.2235 8.73967 36.2037 8.85127L34.0963 19.1312C34.0951 19.1374 34.0939 19.1437 34.0929 19.15C34.0632 19.3294 33.9702 19.4922 33.8308 19.6088C33.6913 19.7255 33.5147 19.7883 33.3329 19.7859L33.3262 19.7858L12.7018 19.7859L10.3304 7.92871H35.4337Z" fill="url(#paint0_linear_151_18)"></path>
    <path fill-rule="evenodd" clip-rule="evenodd" d="M32.501 33.5C32.501 31.8431 31.1578 30.5 29.501 30.5C27.8441 30.5 26.501 31.8431 26.501 33.5C26.501 35.1569 27.8441 36.5 29.501 36.5C31.1578 36.5 32.501 35.1569 32.501 33.5ZM29.501 31.5C30.6055 31.5 31.501 32.3954 31.501 33.5C31.501 34.6046 30.6055 35.5 29.501 35.5C28.3964 35.5 27.501 34.6046 27.501 33.5C27.501 32.3954 28.3964 31.5 29.501 31.5Z" fill="url(#paint1_linear_151_18)"></path>
    <path fill-rule="evenodd" clip-rule="evenodd" d="M17.501 30.5C19.1578 30.5 20.501 31.8431 20.501 33.5C20.501 35.1569 19.1578 36.5 17.501 36.5C15.8441 36.5 14.501 35.1569 14.501 33.5C14.501 31.8431 15.8441 30.5 17.501 30.5ZM19.501 33.5C19.501 32.3954 18.6055 31.5 17.501 31.5C16.3964 31.5 15.501 32.3954 15.501 33.5C15.501 34.6046 16.3964 35.5 17.501 35.5C18.6055 35.5 19.501 34.6046 19.501 33.5Z" fill="url(#paint2_linear_151_18)"></path>
  </g>
  <defs>
    <linearGradient id="paint0_linear_151_18" x1="54.4282" y1="19.1428" x2="19.7151" y2="-15.2808" gradientUnits="userSpaceOnUse">
      <stop stop-color="#1E85E9"></stop>
      <stop offset="0.202755" stop-color="#8671F3"></stop>
      <stop offset="0.707269" stop-color="#C06CFD" stop-opacity="0.99"></stop>
      <stop offset="1" stop-color="#FFBEE8"></stop>
    </linearGradient>
    <linearGradient id="paint1_linear_151_18" x1="54.4282" y1="19.1428" x2="19.7151" y2="-15.2808" gradientUnits="userSpaceOnUse">
      <stop stop-color="#1E85E9"></stop>
      <stop offset="0.202755" stop-color="#8671F3"></stop>
      <stop offset="0.707269" stop-color="#C06CFD" stop-opacity="0.99"></stop>
      <stop offset="1" stop-color="#FFBEE8"></stop>
    </linearGradient>
    <linearGradient id="paint2_linear_151_18" x1="54.4282" y1="19.1428" x2="19.7151" y2="-15.2808" gradientUnits="userSpaceOnUse">
      <stop stop-color="#1E85E9"></stop>
      <stop offset="0.202755" stop-color="#8671F3"></stop>
      <stop offset="0.707269" stop-color="#C06CFD" stop-opacity="0.99"></stop>
      <stop offset="1" stop-color="#FFBEE8"></stop>
    </linearGradient>
    <clipPath id="clip0_151_18">
      <rect width="36" height="36" fill="white" transform="translate(2 1)"></rect>
    </clipPath>
  </defs>
</svg>
