<?xml version="1.0" encoding="UTF-8"?>
<svg xmlns="http://www.w3.org/2000/svg" width="42" height="42" viewBox="0 0 42 42" fill="none">
  <g clip-path="url(#clip0_126_250)">
    <path fill-rule="evenodd" clip-rule="evenodd" d="M20 11C20 4.92487 24.9249 0 31 0C37.0751 0 42 4.92487 42 11C42 17.0751 37.0751 22 31 22C24.9249 22 20 17.0751 20 11ZM41 11C41 5.47715 36.5229 1 31 1C25.4772 1 21 5.47715 21 11C21 16.5228 25.4772 21 31 21C36.5229 21 41 16.5228 41 11ZM31 23C30.5874 23 30.1796 22.9792 29.7777 22.9385C29.7751 22.9588 29.7739 22.9793 29.7739 23L29.7739 30.7162L27.0001 30.7156C26.8194 30.7156 26.6528 30.813 26.5642 30.9705C26.4756 31.128 26.4789 31.321 26.5728 31.4754L32.5221 41.2598C32.6125 41.4084 32.7736 41.4993 32.9475 41.5C33.1214 41.5006 33.2832 41.4109 33.3746 41.263L39.4253 31.4786C39.5206 31.3244 39.525 31.1306 39.4367 30.9722C39.3484 30.8137 39.1812 30.7156 38.9999 30.7156L36.5391 30.7162L36.5389 30.7138L36.5383 23C36.5383 22.7238 36.3144 22.5 36.0383 22.5H34.4389C33.3495 22.8253 32.1951 23 31 23ZM27 11.5V10.5L35 10.5V11.5L27 11.5ZM17.2739 12.5H19.0928C19.135 12.8379 19.1912 13.1714 19.2608 13.5H17.7739L17.7739 25.5051C17.7739 25.9305 17.5091 26.3783 17.0354 26.4798C17.0182 26.4835 17.0008 26.4862 16.9833 26.4881L16.9081 26.4961C16.8906 26.4979 16.873 26.4988 16.8554 26.4988L14.8793 26.4984L19.953 35.028L25.113 26.4984L23.4575 26.4988H23.4573C22.9431 26.4988 22.6141 26.0773 22.5514 25.6699C22.5495 25.6572 22.548 25.6445 22.5471 25.6317L22.5403 25.543C22.5394 25.5304 22.5389 25.5178 22.5389 25.5051L22.5386 19.5091C22.855 19.8238 23.1889 20.1209 23.5386 20.3989L23.5389 25.4861L23.5399 25.4988L25.9999 25.4982C26.1804 25.4982 26.3469 25.5954 26.4355 25.7526C26.5242 25.9098 26.5212 26.1026 26.4278 26.257L20.3772 36.2588C20.2863 36.4091 20.1232 36.5007 19.9475 36.5C19.7719 36.4993 19.6094 36.4066 19.5196 36.2556L13.5703 26.2538C13.4784 26.0993 13.4765 25.9073 13.5654 25.751C13.6543 25.5947 13.8203 25.4982 14.0001 25.4982L16.7739 25.4988L16.7739 13C16.7739 12.8674 16.8265 12.7402 16.9203 12.6464C17.0141 12.5527 17.1413 12.5 17.2739 12.5ZM3.92031 2.64645C4.01408 2.55268 4.14126 2.5 4.27387 2.5H10.0383C10.3144 2.5 10.5383 2.72385 10.5383 2.99998L10.5389 18.8939L10.5417 18.9335L12.9999 18.9329C13.1782 18.9328 13.3431 19.0278 13.4325 19.182C13.522 19.3363 13.5225 19.5266 13.4339 19.6813L7.38327 30.2485C7.29387 30.4046 7.12748 30.5007 6.94756 30.5C6.76764 30.4993 6.60194 30.4021 6.51368 30.2453L0.564307 19.6782C0.477134 19.5233 0.478683 19.3339 0.568375 19.1805C0.658067 19.0271 0.822426 18.9328 1.00011 18.9329L3.77241 18.9335C3.77333 18.9272 3.77391 18.9199 3.77391 18.9119L3.77387 3C3.77387 2.86739 3.82655 2.74022 3.92031 2.64645ZM4.77387 3.5L4.77391 18.9119C4.77391 19.3306 4.52682 19.8029 4.04103 19.9128C4.02294 19.9169 4.00464 19.92 3.9862 19.922L3.91099 19.9304C3.89252 19.9325 3.87395 19.9335 3.85536 19.9335L1.85541 19.9331L6.95304 28.9874L12.1374 19.9331L10.4575 19.9335H10.4573C9.92282 19.9335 9.60903 19.4773 9.55085 19.0777C9.5491 19.0657 9.54779 19.0536 9.54692 19.0415L9.54018 18.9478C9.53932 18.9358 9.53889 18.9239 9.53889 18.9119L9.53831 3.5H4.77387ZM29.9821 31.7058L29.9307 31.2084L30.0332 31.6978C30.5017 31.5997 30.7739 31.1616 30.7739 30.7332L30.7739 23.5H35.5383L35.5389 30.7333L35.5392 30.75C35.5393 30.7536 35.5395 30.7573 35.5397 30.7609C35.5399 30.7646 35.5401 30.7683 35.5404 30.7719L35.5471 30.8588C35.5481 30.8718 35.5497 30.8848 35.5517 30.8977C35.6163 31.3083 35.9514 31.7162 36.4573 31.7162H36.4574L38.1028 31.7158L32.953 40.0435L27.8893 31.7158L29.8554 31.7162C29.8726 31.7162 29.8898 31.7153 29.9069 31.7136L29.9821 31.7058Z" fill="url(#paint0_linear_126_250)"></path>
    <path fill-rule="evenodd" clip-rule="evenodd" d="M3.92031 2.64645C4.01408 2.55268 4.14126 2.5 4.27387 2.5H10.0383C10.3144 2.5 10.5383 2.72385 10.5383 2.99998L10.5389 18.8939L10.5417 18.9335L12.9999 18.9329C13.1782 18.9328 13.3431 19.0278 13.4325 19.182C13.522 19.3363 13.5225 19.5266 13.4339 19.6813L7.38327 30.2485C7.29387 30.4046 7.12748 30.5007 6.94756 30.5C6.76764 30.4993 6.60194 30.4021 6.51368 30.2453L0.564307 19.6782C0.477134 19.5233 0.478683 19.3339 0.568375 19.1805C0.658067 19.0271 0.822426 18.9328 1.00011 18.9329L3.77241 18.9335C3.77333 18.9272 3.77391 18.9199 3.77391 18.9119L3.77387 3C3.77387 2.86739 3.82655 2.74022 3.92031 2.64645ZM4.77387 3.5L4.77391 18.9119C4.77391 19.3306 4.52682 19.8029 4.04103 19.9128C4.02294 19.9169 4.00464 19.92 3.9862 19.922L3.91099 19.9304C3.89252 19.9325 3.87395 19.9335 3.85536 19.9335L1.85541 19.9331L6.95304 28.9874L12.1374 19.9331L10.4575 19.9335H10.4573C9.92282 19.9335 9.60903 19.4773 9.55085 19.0777C9.5491 19.0657 9.54779 19.0536 9.54692 19.0415L9.54018 18.9478C9.53932 18.9358 9.53889 18.9239 9.53889 18.9119L9.53831 3.5H4.77387ZM16.9203 12.6464C17.0141 12.5527 17.1413 12.5 17.2739 12.5H23.0383C23.3144 12.5 23.5383 12.7238 23.5383 13L23.5389 25.4861L23.5399 25.4988L25.9999 25.4982C26.1804 25.4982 26.3469 25.5954 26.4355 25.7526C26.5242 25.9098 26.5212 26.1026 26.4278 26.257L20.3772 36.2588C20.2863 36.4091 20.1232 36.5007 19.9475 36.5C19.7719 36.4993 19.6094 36.4066 19.5196 36.2556L13.5703 26.2538C13.4784 26.0993 13.4765 25.9073 13.5654 25.751C13.6543 25.5947 13.8203 25.4982 14.0001 25.4982L16.7739 25.4988L16.7739 13C16.7739 12.8674 16.8265 12.7402 16.9203 12.6464ZM17.7739 13.5L17.7739 25.5051C17.7739 25.9305 17.5091 26.3783 17.0354 26.4798C17.0182 26.4835 17.0008 26.4862 16.9833 26.4881L16.9081 26.4961C16.8906 26.4979 16.873 26.4988 16.8554 26.4988L14.8793 26.4984L19.953 35.028L25.113 26.4984L23.4575 26.4988H23.4573C22.9431 26.4988 22.6141 26.0773 22.5514 25.6699C22.5495 25.6572 22.548 25.6445 22.5471 25.6317L22.5403 25.543C22.5394 25.5304 22.5389 25.5178 22.5389 25.5051L22.5383 13.5H17.7739ZM30.2739 22.5C30.1413 22.5 30.0141 22.5527 29.9203 22.6464C29.8265 22.7402 29.7739 22.8674 29.7739 23L29.7739 30.7162L27.0001 30.7156C26.8194 30.7156 26.6528 30.813 26.5642 30.9705C26.4756 31.128 26.4789 31.321 26.5728 31.4754L32.5221 41.2598C32.6125 41.4084 32.7736 41.4993 32.9475 41.5C33.1214 41.5006 33.2832 41.4109 33.3746 41.263L39.4253 31.4786C39.5206 31.3244 39.525 31.1306 39.4367 30.9722C39.3484 30.8137 39.1812 30.7156 38.9999 30.7156L36.5391 30.7162L36.5389 30.7138L36.5383 23C36.5383 22.7238 36.3144 22.5 36.0383 22.5H30.2739ZM29.9821 31.7058L29.9307 31.2084L30.0332 31.6978C30.5017 31.5997 30.7739 31.1616 30.7739 30.7332L30.7739 23.5H35.5383L35.5389 30.7333C35.5389 30.7462 35.5394 30.7591 35.5404 30.7719L35.5471 30.8588C35.5481 30.8718 35.5497 30.8848 35.5517 30.8977C35.6163 31.3083 35.9514 31.7162 36.4573 31.7162H36.4574L38.1028 31.7158L32.953 40.0435L27.8893 31.7158L29.8554 31.7162C29.8726 31.7162 29.8898 31.7153 29.9069 31.7136L29.9821 31.7058Z" fill="url(#paint1_linear_126_250)"></path>
  </g>
  <defs>
    <linearGradient id="paint0_linear_126_250" x1="47" y1="42" x2="-10.9264" y2="12.4753" gradientUnits="userSpaceOnUse">
      <stop stop-color="#1E85E9"></stop>
      <stop offset="0.202755" stop-color="#8671F3"></stop>
      <stop offset="0.707269" stop-color="#C06CFD" stop-opacity="0.99"></stop>
      <stop offset="1" stop-color="#FFBEE8"></stop>
    </linearGradient>
    <linearGradient id="paint1_linear_126_250" x1="44.4538" y1="2.28035" x2="-5.05072" y2="-1.80138" gradientUnits="userSpaceOnUse">
      <stop stop-color="#1E85E9"></stop>
      <stop offset="0.202755" stop-color="#8671F3"></stop>
      <stop offset="0.707269" stop-color="#C06CFD" stop-opacity="0.99"></stop>
      <stop offset="1" stop-color="#FFBEE8"></stop>
    </linearGradient>
    <clipPath id="clip0_126_250">
      <rect width="41.5" height="41.5" fill="white" transform="translate(0.5)"></rect>
    </clipPath>
  </defs>
</svg>
