<?xml version="1.0" encoding="UTF-8"?>
<svg xmlns="http://www.w3.org/2000/svg" width="40" height="40" viewBox="0 0 40 40" fill="none">
  <g id="icon-36-7">
    <g id="Combined Shape">
      <path d="M0.416366 19.0081C0.179567 19.0504 0 19.2545 0 19.5C0 19.7761 0.227264 20 0.507609 20H14.5892L9.10647 24.7253C8.91893 24.8869 8.88121 25.1544 9.00479 25.3579L9.05872 25.4308C9.22282 25.6155 9.49443 25.6527 9.70095 25.531L9.775 25.4778L16.2435 19.9028V35.5L16.2517 35.5899C16.2947 35.8231 16.5019 36 16.7511 36C17.0314 36 17.2587 35.7761 17.2587 35.5V3.5L17.2505 3.41013C17.2076 3.17688 17.0003 3 16.7511 3C16.4708 3 16.2435 3.22386 16.2435 3.5V19.1004L9.775 13.5253C9.56402 13.3434 9.24333 13.3645 9.05872 13.5723C8.89463 13.757 8.89328 14.0271 9.04319 14.2126L9.10647 14.2778L14.5856 19H0.507609L0.416366 19.0081Z" fill="url(#paint0_linear_10_1269)"></path>
      <path d="M23.2489 3C23.5292 3 23.7565 3.22386 23.7565 3.5V19.0986L30.223 13.5253C30.434 13.3434 30.7547 13.3645 30.9393 13.5723C31.1034 13.757 31.1047 14.0271 30.9548 14.2126L30.8915 14.2778L25.4124 19H39.4924L39.5836 19.0081C39.8204 19.0504 40 19.2545 40 19.5C40 19.7761 39.7727 20 39.4924 20H25.4088L30.8915 24.7253C31.0791 24.8869 31.1168 25.1544 30.9932 25.3579L30.9393 25.4308C30.7752 25.6155 30.5036 25.6527 30.2971 25.531L30.223 25.4778L23.7565 19.9045V35.5L23.7483 35.5899C23.7053 35.8231 23.4981 36 23.2489 36C22.9686 36 22.7413 35.7761 22.7413 35.5V3.5L22.7495 3.41013C22.7924 3.17688 22.9997 3 23.2489 3Z" fill="url(#paint1_linear_10_1269)"></path>
    </g>
  </g>
  <defs>
    <linearGradient id="paint0_linear_10_1269" x1="60.0001" y1="19.5001" x2="27.6015" y2="-19.7712" gradientUnits="userSpaceOnUse">
      <stop stop-color="#1E85E9"></stop>
      <stop offset="0.20276" stop-color="#8671F3"></stop>
      <stop offset="0.70727" stop-color="#C06CFD" stop-opacity="0.99"></stop>
      <stop offset="1" stop-color="#FFBEE8"></stop>
    </linearGradient>
    <linearGradient id="paint1_linear_10_1269" x1="60.0001" y1="19.5001" x2="27.6015" y2="-19.7712" gradientUnits="userSpaceOnUse">
      <stop stop-color="#1E85E9"></stop>
      <stop offset="0.20276" stop-color="#8671F3"></stop>
      <stop offset="0.70727" stop-color="#C06CFD" stop-opacity="0.99"></stop>
      <stop offset="1" stop-color="#FFBEE8"></stop>
    </linearGradient>
  </defs>
</svg>
