<?xml version="1.0" encoding="UTF-8"?>
<svg xmlns="http://www.w3.org/2000/svg" width="40" height="40" viewBox="0 0 40 40" fill="none">
  <path fill-rule="evenodd" clip-rule="evenodd" d="M20 4.17645C9.60405 4.17645 1.17647 12.6038 1.17647 22.9996C1.17647 28.0125 3.13533 32.5667 6.33058 35.9405H33.8824C34.2072 35.9405 34.4706 36.2038 34.4706 36.5287C34.4706 36.8535 34.2072 37.1169 33.8824 37.1169H5.83125L5.65801 36.9387C2.15694 33.3372 0 28.4197 0 22.9996C0 11.9541 8.9543 3 20 3C31.0457 3 40 11.9541 40 22.9996C40 23.3244 39.7366 23.5878 39.4118 23.5878C39.0869 23.5878 38.8235 23.3244 38.8235 22.9996C38.8235 12.6038 30.3959 4.17645 20 4.17645ZM10.3046 15.8349C10.0463 15.6378 9.99669 15.2687 10.1937 15.0104C10.3908 14.7521 10.7599 14.7025 11.0182 14.8995L16.9446 19.4205C17.7668 18.718 18.8338 18.2939 19.9999 18.2939C22.5989 18.2939 24.7058 20.4008 24.7058 22.9997C24.7058 25.5986 22.5989 27.7055 19.9999 27.7055C17.4009 27.7055 15.294 25.5986 15.294 22.9997C15.294 21.9924 15.6105 21.059 16.1495 20.2936L10.3046 15.8349ZM16.4705 22.9997C16.4705 21.0505 18.0507 19.4703 19.9999 19.4703C21.9492 19.4703 23.5293 21.0505 23.5293 22.9997C23.5293 24.9489 21.9492 26.529 19.9999 26.529C18.0507 26.529 16.4705 24.9489 16.4705 22.9997ZM6.5 23.0001C6.5 19.8463 7.58083 16.9463 9.39263 14.6485L8.60737 14.0293C6.66145 16.4973 5.5 19.6137 5.5 23.0001C5.5 27.9279 7.95867 32.2814 11.714 34.9008L12.286 34.0806C8.78739 31.6402 6.5 27.5872 6.5 23.0001Z" fill="url(#paint0_linear_119_12)"></path>
  <defs>
    <linearGradient id="paint0_linear_119_12" x1="45.0809" y1="2.80785" x2="-5.56494" y2="-2.08805" gradientUnits="userSpaceOnUse">
      <stop stop-color="#1E85E9"></stop>
      <stop offset="0.202755" stop-color="#8671F3"></stop>
      <stop offset="0.707269" stop-color="#C06CFD" stop-opacity="0.99"></stop>
      <stop offset="1" stop-color="#FFBEE8"></stop>
    </linearGradient>
  </defs>
</svg>
