<?xml version="1.0" encoding="UTF-8"?>
<svg xmlns="http://www.w3.org/2000/svg" width="35" height="35" viewBox="0 0 35 35" fill="none">
  <path fill-rule="evenodd" clip-rule="evenodd" d="M17.5 0C17.7761 0 18 0.223858 18 0.5V5.00982C19.4054 5.0651 20.7511 5.35241 22 5.83449V2L27.05 2C27.2816 0.85888 28.2905 0 29.5 0C30.8807 0 32 1.11929 32 2.5C32 3.88071 30.8807 5 29.5 5C28.2905 5 27.2816 4.14112 27.05 3L23 3V6.2719C25.1438 7.32402 26.9422 8.97204 28.1792 11H30.05C30.2816 9.85888 31.2905 9 32.5 9C33.8807 9 35 10.1193 35 11.5C35 12.8807 33.8807 14 32.5 14C31.2905 14 30.2816 13.1411 30.05 12H28.7281C29.4735 13.5189 29.9198 15.2111 29.9902 17H34.5C34.7761 17 35 17.2239 35 17.5C35 17.7761 34.7761 18 34.5 18H29.9902C29.9198 19.7889 29.4735 21.4811 28.7281 23H30.05C30.2816 21.8589 31.2905 21 32.5 21C33.8807 21 35 22.1193 35 23.5C35 24.8807 33.8807 26 32.5 26C31.2905 26 30.2816 25.1411 30.05 24H28.1792C26.9422 26.028 25.1438 27.676 23 28.7281V32H27.05C27.2816 30.8589 28.2905 30 29.5 30C30.8807 30 32 31.1193 32 32.5C32 33.8807 30.8807 35 29.5 35C28.2905 35 27.2816 34.1411 27.05 33H22V29.1655C20.7511 29.6476 19.4054 29.9349 18 29.9902V34.5C18 34.7761 17.7761 35 17.5 35C17.2239 35 17 34.7761 17 34.5V29.9902C15.5946 29.9349 14.2489 29.6476 13 29.1655V33H7.94999C7.71836 34.1411 6.70948 35 5.5 35C4.11929 35 3 33.8807 3 32.5C3 31.1193 4.11929 30 5.5 30C6.70948 30 7.71836 30.8589 7.94999 32H12V28.7281C9.85618 27.676 8.05779 26.028 6.82081 24H4.94999C4.71836 25.1411 3.70948 26 2.5 26C1.11929 26 0 24.8807 0 23.5C0 22.1193 1.11929 21 2.5 21C3.70948 21 4.71836 21.8589 4.94999 23H6.2719C5.52648 21.4811 5.08019 19.7889 5.00982 18H0.5C0.223857 18 0 17.7761 0 17.5C0 17.2239 0.223857 17 0.5 17H5.00982C5.08019 15.2111 5.52648 13.5189 6.2719 12H4.94999C4.71836 13.1411 3.70948 14 2.5 14C1.11929 14 0 12.8807 0 11.5C0 10.1193 1.11929 9 2.5 9C3.70948 9 4.71836 9.85888 4.94999 11H6.82081C8.05779 8.97204 9.85618 7.32402 12 6.2719V3L7.94999 3C7.71836 4.14112 6.70948 5 5.5 5C4.11929 5 3 3.88071 3 2.5C3 1.11929 4.11929 0 5.5 0C6.70948 0 7.71836 0.85888 7.94999 2L13 2V5.83449C14.2489 5.35241 15.5946 5.0651 17 5.00982V0.5C17 0.223858 17.2239 0 17.5 0ZM17.5 29C23.8513 29 29 23.8513 29 17.5C29 11.1487 23.8513 6 17.5 6C11.1487 6 6 11.1487 6 17.5C6 23.8513 11.1487 29 17.5 29ZM29.5 34C28.6716 34 28 33.3284 28 32.5C28 31.6716 28.6716 31 29.5 31C30.3284 31 31 31.6716 31 32.5C31 33.3284 30.3284 34 29.5 34ZM32.5 13C31.6716 13 31 12.3284 31 11.5C31 10.6716 31.6716 10 32.5 10C33.3284 10 34 10.6716 34 11.5C34 12.3284 33.3284 13 32.5 13ZM32.5 25C31.6716 25 31 24.3284 31 23.5C31 22.6716 31.6716 22 32.5 22C33.3284 22 34 22.6716 34 23.5C34 24.3284 33.3284 25 32.5 25ZM2.5 10C3.32843 10 4 10.6716 4 11.5C4 12.3284 3.32843 13 2.5 13C1.67157 13 1 12.3284 1 11.5C1 10.6716 1.67157 10 2.5 10ZM2.5 22C3.32843 22 4 22.6716 4 23.5C4 24.3284 3.32843 25 2.5 25C1.67157 25 1 24.3284 1 23.5C1 22.6716 1.67157 22 2.5 22ZM5.5 31C6.32843 31 7 31.6716 7 32.5C7 33.3284 6.32843 34 5.5 34C4.67157 34 4 33.3284 4 32.5C4 31.6716 4.67157 31 5.5 31ZM17 8.5C17 8.22386 17.2239 8 17.5 8C22.7467 8 27 12.2533 27 17.5C27 22.7467 22.7467 27 17.5 27C12.2533 27 8 22.7467 8 17.5C8 17.2239 8.22386 17 8.5 17C8.77614 17 9 17.2239 9 17.5C9 22.1944 12.8056 26 17.5 26C22.1944 26 26 22.1944 26 17.5C26 12.8056 22.1944 9 17.5 9C17.2239 9 17 8.77614 17 8.5ZM18 22.5C18 22.7761 17.7761 23 17.5 23C14.4624 23 12 20.5376 12 17.5C12 14.4624 14.4624 12 17.5 12C20.5376 12 23 14.4624 23 17.5C23 17.7761 22.7761 18 22.5 18C22.2239 18 22 17.7761 22 17.5C22 15.0147 19.9853 13 17.5 13C15.0147 13 13 15.0147 13 17.5C13 19.9853 15.0147 22 17.5 22C17.7761 22 18 22.2239 18 22.5ZM4 2.5C4 1.67157 4.67157 1 5.5 1C6.32843 1 7 1.67157 7 2.5C7 3.32843 6.32843 4 5.5 4C4.67157 4 4 3.32843 4 2.5ZM31 2.5C31 1.67157 30.3284 1 29.5 1C28.6716 1 28 1.67157 28 2.5C28 3.32843 28.6716 4 29.5 4C30.3284 4 31 3.32843 31 2.5Z" fill="url(#paint0_linear_172_21)"></path>
  <defs>
    <linearGradient id="paint0_linear_172_21" x1="52.5" y1="17.5" x2="17.5" y2="-17.5" gradientUnits="userSpaceOnUse">
      <stop stop-color="#1E85E9"></stop>
      <stop offset="0.202755" stop-color="#8671F3"></stop>
      <stop offset="0.707269" stop-color="#C06CFD" stop-opacity="0.99"></stop>
      <stop offset="1" stop-color="#FFBEE8"></stop>
    </linearGradient>
  </defs>
</svg>
