<?xml version="1.0" encoding="UTF-8"?>
<svg xmlns="http://www.w3.org/2000/svg" width="40" height="40" viewBox="0 0 40 40" fill="none">
  <path fill-rule="evenodd" clip-rule="evenodd" d="M21.5 1H6.5C5.11929 1 4 2.11929 4 3.5V30.5V35.5C4 36.8807 5.11929 38 6.5 38H21.5C22.8807 38 24 36.8807 24 35.5V30.5V29H23V30H5V3.5C5 2.67157 5.67157 2 6.5 2H21.5C22.3284 2 23 2.67157 23 3.5V8H24V3.5C24 2.11929 22.8807 1 21.5 1ZM5 31H23V35.5C23 36.3284 22.3284 37 21.5 37H6.5C5.67157 37 5 36.3284 5 35.5V31ZM14 32C12.8954 32 12 32.8954 12 34C12 35.1046 12.8954 36 14 36C15.1046 36 16 35.1046 16 34C16 32.8954 15.1046 32 14 32ZM14 33C14.5523 33 15 33.4477 15 34C15 34.5523 14.5523 35 14 35C13.4477 35 13 34.5523 13 34C13 33.4477 13.4477 33 14 33ZM17 4.5C17.2761 4.5 17.5 4.72386 17.5 5C17.5 5.24546 17.3231 5.44961 17.0899 5.49194L17 5.5H11C10.7239 5.5 10.5 5.27614 10.5 5C10.5 4.75454 10.6769 4.55039 10.9101 4.50806L11 4.5H17ZM39.4995 10.9C39.4995 9.58749 38.4607 8.5 37.1508 8.5H14.8594L18.7796 12.7571V26.1C18.7796 27.3362 19.6994 28.3709 20.9014 28.4889L20.9136 28.4901L21.1161 28.5H37.1508C38.4607 28.5 39.4995 27.4125 39.4995 26.1V10.9ZM37.1508 9.5C37.8828 9.5 38.4995 10.1138 38.4995 10.9V26.1C38.4995 26.8862 37.8828 27.5 37.1508 27.5H21.1405L20.9879 27.4925C20.3201 27.4211 19.7796 26.8349 19.7796 26.1V12.3669L17.1396 9.5H37.1508ZM26.1577 14.0546C26.9055 13.3603 27.9272 12.9644 28.9995 12.9644C30.0718 12.9644 31.0935 13.3603 31.8413 14.0546C32.5508 14.7135 32.9579 15.588 32.9965 16.5H25.0025C25.0411 15.588 25.4482 14.7135 26.1577 14.0546ZM24.0016 16.5074C24.0388 15.3038 24.57 14.1643 25.4773 13.3218C26.4173 12.4489 27.6849 11.9644 28.9995 11.9644C30.3141 11.9644 31.5817 12.4489 32.5217 13.3218C33.429 14.1643 33.9603 15.3039 33.9974 16.5075C34.8349 16.5909 35.4529 17.3591 35.331 18.2121L34.6167 23.2121C34.5112 23.9511 33.8783 24.5 33.1318 24.5H24.8664C24.1199 24.5 23.4871 23.9511 23.3815 23.2121L22.6672 18.2121C22.5453 17.3588 23.1637 16.5904 24.0016 16.5074ZM23.6572 18.0707C23.6141 17.7695 23.8479 17.5 24.1521 17.5H33.8461C34.1504 17.5 34.3841 17.7695 34.3411 18.0707L33.6268 23.0707C33.5916 23.317 33.3806 23.5 33.1318 23.5H24.8664C24.6176 23.5 24.4066 23.317 24.3714 23.0707L23.6572 18.0707ZM26.9995 19.3931C27.2756 19.3931 27.4995 19.6169 27.4995 19.8931V21.7502C27.4995 22.0264 27.2756 22.2502 26.9995 22.2502C26.7234 22.2502 26.4995 22.0264 26.4995 21.7502V19.8931C26.4995 19.6169 26.7234 19.3931 26.9995 19.3931ZM31.4995 19.8931C31.4995 19.6169 31.2756 19.3931 30.9995 19.3931C30.7234 19.3931 30.4995 19.6169 30.4995 19.8931V21.7502C30.4995 22.0264 30.7234 22.2502 30.9995 22.2502C31.2756 22.2502 31.4995 22.0264 31.4995 21.7502V19.8931Z" fill="url(#paint0_linear_152_42)"></path>
  <defs>
    <linearGradient id="paint0_linear_152_42" x1="57.2493" y1="19.5" x2="20.2809" y2="-15.9691" gradientUnits="userSpaceOnUse">
      <stop stop-color="#1E85E9"></stop>
      <stop offset="0.202755" stop-color="#8671F3"></stop>
      <stop offset="0.707269" stop-color="#C06CFD" stop-opacity="0.99"></stop>
      <stop offset="1" stop-color="#FFBEE8"></stop>
    </linearGradient>
  </defs>
</svg>
