<?xml version="1.0" encoding="UTF-8"?>
<svg xmlns="http://www.w3.org/2000/svg" width="32" height="32" viewBox="0 0 32 32" fill="none">
  <path id="icon-15-2" fill-rule="evenodd" clip-rule="evenodd" d="M9.56063 0H22.4394C23.0551 0 23.5543 0.499148 23.5543 1.11488V8.36209C23.5543 8.40779 23.5913 8.44486 23.6369 8.44488L30.8853 8.44568C31.5009 8.44587 31.9999 8.94492 32 9.56063V22.4394C32 23.0551 31.5009 23.5543 30.8851 23.5543L23.5541 23.5541L23.5543 30.8851C23.5543 31.4598 23.1194 31.9329 22.5609 31.9935L22.4394 32H9.56063C8.9449 32 8.44575 31.5009 8.44575 30.8851L8.4449 23.5541L1.11488 23.5543C0.540196 23.5543 0.0670712 23.1194 0.00654195 22.5609L0 22.4394V9.56063C0 8.9449 0.499148 8.44575 1.11488 8.44575H8.36313C8.40876 8.44575 8.44575 8.40876 8.44575 8.36313V1.11488C8.44575 0.499148 8.9449 0 9.56063 0ZM22.4384 1.03237H9.55962C9.51399 1.03237 9.477 1.06936 9.477 1.11499V8.36324C9.477 8.97897 8.97785 9.47811 8.36212 9.47811H1.11387C1.06824 9.47811 1.03125 9.5151 1.03125 9.56073V22.4395C1.03125 22.4851 1.06824 22.5221 1.11387 22.5221H9.477V30.8852C9.477 30.9309 9.51399 30.9679 9.55962 30.9679H22.4384C22.484 30.9679 22.521 30.9309 22.521 30.8852V22.5221H30.8841C30.9297 22.5221 30.9667 22.4851 30.9667 22.4395V9.56084C30.9667 9.51513 30.9297 9.47806 30.8841 9.47805L23.6357 9.47724C23.0201 9.47705 22.5211 8.978 22.521 8.3623V1.11499C22.521 1.06936 22.484 1.03237 22.4384 1.03237Z" fill="url(#paint0_linear_593_805)"></path>
  <defs>
    <linearGradient id="paint0_linear_593_805" x1="48" y1="16" x2="16" y2="-16" gradientUnits="userSpaceOnUse">
      <stop stop-color="#1E85E9"></stop>
      <stop offset="0.202755" stop-color="#8671F3"></stop>
      <stop offset="0.707269" stop-color="#C06CFD" stop-opacity="0.99"></stop>
      <stop offset="1" stop-color="#FFBEE8"></stop>
    </linearGradient>
  </defs>
</svg>
