<?xml version="1.0" encoding="UTF-8"?>
<svg xmlns="http://www.w3.org/2000/svg" width="40" height="40" viewBox="0 0 40 40" fill="none">
  <path fill-rule="evenodd" clip-rule="evenodd" d="M10.4962 16.0632C8.99149 15.0601 7.03333 15.0555 5.52453 16.0495C5.94741 7.89381 11.7973 1.5 20 1.5C28.2027 1.5 34.0526 7.89381 34.4755 16.0495C32.9667 15.0555 31.0085 15.0601 29.5038 16.0632L29 16.3991L28.4962 16.0632C26.9846 15.0555 25.0154 15.0555 23.5038 16.0632L23 16.3991L22.4962 16.0632C20.9846 15.0555 19.0154 15.0555 17.5038 16.0632L17 16.3991L16.4962 16.0632C14.9846 15.0555 13.0154 15.0555 11.5038 16.0632L11 16.3991L10.4962 16.0632ZM20 0.5C10.8459 0.5 4.50018 7.93054 4.5 16.9996V17C4.5 17.0809 4.51952 17.1589 4.55515 17.2283C4.60004 17.316 4.67126 17.3914 4.7648 17.4413L17.9999 24.5H17H12C11.7239 24.5 11.5 24.7239 11.5 25V39C11.5 39.2761 11.7239 39.5 12 39.5H28C28.2761 39.5 28.5 39.2761 28.5 39V25C28.5 24.7239 28.2761 24.5 28 24.5H23H22.0003L35.2354 17.4413C35.4086 17.3489 35.5052 17.1692 35.5 16.9854C35.4932 7.9228 29.1493 0.5 20 0.5ZM34.0271 16.9523L33.9415 16.8952C32.7658 16.1115 31.2342 16.1115 30.0585 16.8952L29.3063 17.3967L23.4749 22.5802L34.0271 16.9523ZM27.9415 16.8952L28.1836 17.0567L21.1776 23.2843L23.4118 17.3264L24.0585 16.8952C25.2342 16.1115 26.7658 16.1115 27.9415 16.8952ZM22.3927 17.196L21.9415 16.8952C20.7658 16.1115 19.2342 16.1115 18.0585 16.8952L17.6075 17.1959L20.0001 23.5761L22.3927 17.196ZM16.5886 17.3266L15.9415 16.8952C14.7658 16.1115 13.2342 16.1115 12.0585 16.8952L11.8164 17.0567L18.8228 23.2846L16.5886 17.3266ZM19.9885 25.5H17.5V30.0657L19.7226 28.584C19.8906 28.472 20.1094 28.472 20.2774 28.584L22.5 30.0657V25.5H20.0118C20.0079 25.5001 20.004 25.5001 20.0001 25.5001C19.9962 25.5001 19.9923 25.5001 19.9885 25.5ZM9.94145 16.8952L10.6938 17.3968L16.5249 22.58L5.97296 16.9523L6.05855 16.8952C7.2342 16.1115 8.7658 16.1115 9.94145 16.8952ZM16.5 31V25.5H12.5V38.5H27.5V25.5H23.5V31C23.5 31.1844 23.3985 31.3538 23.2359 31.4408C23.0734 31.5278 22.8761 31.5183 22.7227 31.416L20 29.6009L17.2774 31.416C17.1239 31.5183 16.9267 31.5278 16.7641 31.4408C16.6015 31.3538 16.5 31.1844 16.5 31ZM14 34.5C13.7239 34.5 13.5 34.7239 13.5 35C13.5 35.2761 13.7239 35.5 14 35.5H18C18.2761 35.5 18.5 35.2761 18.5 35C18.5 34.7239 18.2761 34.5 18 34.5H14ZM13.5 37C13.5 36.7239 13.7239 36.5 14 36.5H18C18.2761 36.5 18.5 36.7239 18.5 37C18.5 37.2761 18.2761 37.5 18 37.5H14C13.7239 37.5 13.5 37.2761 13.5 37Z" fill="url(#paint0_linear_154_63)"></path>
  <defs>
    <linearGradient id="paint0_linear_154_63" x1="51.0003" y1="20" x2="13.0059" y2="-10.2009" gradientUnits="userSpaceOnUse">
      <stop stop-color="#1E85E9"></stop>
      <stop offset="0.202755" stop-color="#8671F3"></stop>
      <stop offset="0.707269" stop-color="#C06CFD" stop-opacity="0.99"></stop>
      <stop offset="1" stop-color="#FFBEE8"></stop>
    </linearGradient>
  </defs>
</svg>
