<?xml version="1.0" encoding="UTF-8"?>
<svg xmlns="http://www.w3.org/2000/svg" width="38" height="37" viewBox="0 0 38 37" fill="none">
  <path fill-rule="evenodd" clip-rule="evenodd" d="M4.5 0C3.11929 0 2 1.11929 2 2.5V22H0.5C0.223858 22 0 22.2239 0 22.5V26.5C0 27.8807 1.11929 29 2.5 29H25V35.5C25 36.3284 25.6716 37 26.5 37H36.5C37.3284 37 38 36.3284 38 35.5V26.5V22.5V16.5C38 15.8469 37.5826 15.2913 37 15.0854V2.5C37 1.11929 35.8807 0 34.5 0H4.5ZM36 15V2.5C36 1.67157 35.3284 1 34.5 1H4.5C3.67157 1 3 1.67157 3 2.5V22H5V4.5C5 3.67157 5.67157 3 6.5 3H32.5C33.3284 3 34 3.67157 34 4.5V15H36ZM33 15V4.5C33 4.22386 32.7761 4 32.5 4H6.5C6.22386 4 6 4.22386 6 4.5V22H15.5H22.5H25V16.5C25 15.6716 25.6716 15 26.5 15H29.5H33ZM25 23H23V23.5C23 24.8807 21.8807 26 20.5 26H17.5C16.1193 26 15 24.8807 15 23.5V23H5H2H1V26.5C1 27.3284 1.67157 28 2.5 28H25V23ZM16 23V23.5C16 24.3284 16.6716 25 17.5 25H20.5C21.3284 25 22 24.3284 22 23.5V23H16ZM7.07666 13.2605C7.07666 9.26221 10.3054 6.021 14.2883 6.021C18.2712 6.021 21.5 9.26221 21.5 13.2605C21.5 17.2587 18.2712 20.4999 14.2883 20.4999C10.3054 20.4999 7.07666 17.2587 7.07666 13.2605ZM20.6516 13.2604C20.6516 9.73258 17.8026 6.87269 14.2883 6.87269C10.774 6.87269 7.92507 9.73258 7.92507 13.2604C7.92507 16.7883 10.774 19.6482 14.2883 19.6482C17.8026 19.6482 20.6516 16.7883 20.6516 13.2604ZM18.3627 10.6129C18.187 10.456 17.9101 10.4636 17.7443 10.6299L12.9124 15.4771L10.2598 12.7422L10.2014 12.6919C10.0361 12.5733 9.7999 12.5797 9.64167 12.7172C9.46366 12.8718 9.4518 13.1338 9.61517 13.3023L12.5855 16.3659L12.6469 16.4184C12.8212 16.5413 13.0711 16.5255 13.226 16.3701L18.3807 11.1983L18.4296 11.1396C18.5427 10.975 18.519 10.7524 18.3627 10.6129ZM29.05 16H26.5C26.2239 16 26 16.2239 26 16.5V33H37V16.5C37 16.2239 36.7761 16 36.5 16H33.95C33.7184 17.1411 32.7095 18 31.5 18C30.2905 18 29.2816 17.1411 29.05 16ZM26 35.5V34H37V35.5C37 35.7761 36.7761 36 36.5 36H26.5C26.2239 36 26 35.7761 26 35.5ZM30.0854 16C30.2913 16.5826 30.8469 17 31.5 17C32.1531 17 32.7087 16.5826 32.9146 16H30.0854ZM29.5 23C29.5 23.2761 29.2761 23.5 29 23.5C28.7239 23.5 28.5 23.2761 28.5 23C28.5 22.7239 28.7239 22.5 29 22.5C29.2761 22.5 29.5 22.7239 29.5 23ZM30.5 23C30.5 23.8284 29.8284 24.5 29 24.5C28.1716 24.5 27.5 23.8284 27.5 23C27.5 22.1716 28.1716 21.5 29 21.5C29.8284 21.5 30.5 22.1716 30.5 23ZM29 29.5C29.2761 29.5 29.5 29.2761 29.5 29C29.5 28.7239 29.2761 28.5 29 28.5C28.7239 28.5 28.5 28.7239 28.5 29C28.5 29.2761 28.7239 29.5 29 29.5ZM29 30.5C29.8284 30.5 30.5 29.8284 30.5 29C30.5 28.1716 29.8284 27.5 29 27.5C28.1716 27.5 27.5 28.1716 27.5 29C27.5 29.8284 28.1716 30.5 29 30.5ZM34.5 29C34.5 29.2761 34.2761 29.5 34 29.5C33.7239 29.5 33.5 29.2761 33.5 29C33.5 28.7239 33.7239 28.5 34 28.5C34.2761 28.5 34.5 28.7239 34.5 29ZM35.5 29C35.5 29.8284 34.8284 30.5 34 30.5C33.1716 30.5 32.5 29.8284 32.5 29C32.5 28.1716 33.1716 27.5 34 27.5C34.8284 27.5 35.5 28.1716 35.5 29ZM34 23.5C34.2761 23.5 34.5 23.2761 34.5 23C34.5 22.7239 34.2761 22.5 34 22.5C33.7239 22.5 33.5 22.7239 33.5 23C33.5 23.2761 33.7239 23.5 34 23.5ZM34 24.5C34.8284 24.5 35.5 23.8284 35.5 23C35.5 22.1716 34.8284 21.5 34 21.5C33.1716 21.5 32.5 22.1716 32.5 23C32.5 23.8284 33.1716 24.5 34 24.5Z" fill="url(#paint0_linear_126_154)"></path>
  <defs>
    <linearGradient id="paint0_linear_126_154" x1="40.5" y1="38" x2="-8.92591" y2="13.4701" gradientUnits="userSpaceOnUse">
      <stop stop-color="#1E85E9"></stop>
      <stop offset="0.202755" stop-color="#8671F3"></stop>
      <stop offset="0.707269" stop-color="#C06CFD" stop-opacity="0.99"></stop>
      <stop offset="1" stop-color="#FFBEE8"></stop>
    </linearGradient>
  </defs>
</svg>
