<?xml version="1.0" encoding="UTF-8"?>
<svg xmlns="http://www.w3.org/2000/svg" width="62" height="62" viewBox="0 0 62 62" fill="none">
  <g id="icon-37-1">
    <g id="Rectangle" opacity="0.0620722">
      <rect x="1" y="1" width="60" height="60" rx="4" fill="#FAFAFA"></rect>
      <rect x="1" y="1" width="60" height="60" rx="4" fill="url(#paint0_linear_10_1135)"></rect>
      <rect x="1" y="1" width="60" height="60" rx="4" stroke="black" stroke-opacity="0.02"></rect>
    </g>
    <path id="Shape" fill-rule="evenodd" clip-rule="evenodd" d="M31 10C36.337 10 40.6636 14.3265 40.6636 19.6636C40.6636 24.8629 36.5574 29.1032 31.411 29.3185L31.4111 33.7773L36.248 35.7123C38.013 33.8084 40.5356 32.6168 43.3364 32.6168C48.6735 32.6168 53 36.9433 53 42.2804C53 47.6174 48.6735 51.9439 43.3364 51.9439C37.9994 51.9439 33.6729 47.6174 33.6729 42.2804C33.6729 40.0559 34.4245 38.007 35.6876 36.3738L31 34.4985L26.3124 36.3738C27.5289 37.9467 28.2709 39.9052 28.324 42.0348L28.3271 42.2804C28.3271 47.6174 24.0006 51.9439 18.6636 51.9439C13.3265 51.9439 9 47.6174 9 42.2804C9 36.9433 13.3265 32.6168 18.6636 32.6168C21.4644 32.6168 23.987 33.8084 25.752 35.7123L30.5888 33.7773L30.5882 29.3185C25.4422 29.1028 21.3364 24.8626 21.3364 19.6636C21.3364 14.3265 25.663 10 31 10ZM18.6675 45.8736C16.5291 45.8736 14.6409 47.3587 13.943 49.5421C13.9237 49.6024 13.8919 49.6551 13.8512 49.6983C15.2347 50.5981 16.8883 51.1217 18.6641 51.1217C20.4266 51.1217 22.0687 50.606 23.4476 49.7172C23.4427 49.7082 23.4396 49.6988 23.4368 49.6893C22.7804 47.4306 20.8571 45.8736 18.6675 45.8736ZM38.6155 49.5421C39.3134 47.3587 41.2016 45.8736 43.34 45.8736C45.5296 45.8736 47.4529 47.4306 48.1093 49.6893C48.1121 49.6988 48.1152 49.7082 48.1201 49.7172C46.7412 50.606 45.0991 51.1217 43.3366 51.1217C41.5608 51.1217 39.9072 50.5981 38.5238 49.6983C38.5644 49.6551 38.5963 49.6024 38.6155 49.5421ZM43.3363 33.4392C38.4535 33.4392 34.4952 37.3975 34.4952 42.2803C34.4952 45.093 35.8087 47.599 37.8557 49.2182C37.8476 49.2425 37.8396 49.2669 37.8318 49.2914L37.8568 49.2191L37.8557 49.2182C38.678 46.7445 40.8555 45.0509 43.3397 45.0509C45.8261 45.0509 48.0006 46.7471 48.8221 49.2134C50.866 47.5952 52.1774 45.0909 52.1774 42.2803C52.1774 37.3975 48.2191 33.4392 43.3363 33.4392ZM9.82256 42.2803C9.82256 37.3975 13.7809 33.4392 18.6637 33.4392C23.5465 33.4392 27.5048 37.3975 27.5048 42.2803C27.5048 45.0909 26.1933 47.5952 24.1494 49.2134C23.328 46.7471 21.1535 45.0509 18.667 45.0509C16.1828 45.0509 14.0054 46.7445 13.1831 49.2182C11.136 47.599 9.82256 45.093 9.82256 42.2803ZM13.1831 49.2182L13.1842 49.2191L13.1592 49.2914C13.167 49.2669 13.175 49.2425 13.1831 49.2182ZM18.6635 36.7295C20.5939 36.7295 22.1588 38.2944 22.1588 40.2248C22.1588 42.1552 20.5939 43.7201 18.6635 43.7201C16.733 43.7201 15.1681 42.1552 15.1681 40.2248C15.1681 38.2944 16.733 36.7295 18.6635 36.7295ZM46.8318 40.2248C46.8318 38.2944 45.2669 36.7295 43.3365 36.7295C41.4061 36.7295 39.8412 38.2944 39.8412 40.2248C39.8412 42.1552 41.4061 43.7201 43.3365 43.7201C45.2669 43.7201 46.8318 42.1552 46.8318 40.2248ZM18.6636 37.5509C17.1874 37.5509 15.9907 38.7476 15.9907 40.2238C15.9907 41.7 17.1874 42.8967 18.6636 42.8967C20.1398 42.8967 21.3365 41.7 21.3365 40.2238C21.3365 38.7476 20.1398 37.5509 18.6636 37.5509ZM40.6637 40.2238C40.6637 38.7476 41.8604 37.5509 43.3366 37.5509C44.8128 37.5509 46.0095 38.7476 46.0095 40.2238C46.0095 41.7 44.8128 42.8967 43.3366 42.8967C41.8604 42.8967 40.6637 41.7 40.6637 40.2238ZM31.0037 23.2571C28.8653 23.2571 26.9772 24.7421 26.2793 26.9256C26.26 26.9858 26.2281 27.0386 26.1875 27.0818C27.5709 27.9816 29.2245 28.5052 31.0004 28.5052C32.7629 28.5052 34.4049 27.9895 35.7838 27.1007C35.7789 27.0916 35.7758 27.0823 35.7731 27.0728C35.1167 24.8141 33.1934 23.2571 31.0037 23.2571ZM22.1588 19.6628C22.1588 14.78 26.1171 10.8217 30.9999 10.8217C35.8828 10.8217 39.8411 14.78 39.8411 19.6628C39.8411 22.4734 38.5296 24.9777 36.4857 26.5959C35.6643 24.1296 33.4897 22.4334 31.0033 22.4334C28.5191 22.4334 26.3416 24.127 25.5193 26.6007C23.4723 24.9815 22.1588 22.4755 22.1588 19.6628ZM25.5193 26.6007L25.5204 26.6016L25.4954 26.6739C25.5033 26.6495 25.5112 26.6251 25.5193 26.6007ZM31.0001 14.1117C32.9306 14.1117 34.4955 15.6766 34.4955 17.6071C34.4955 19.5375 32.9306 21.1024 31.0001 21.1024C29.0697 21.1024 27.5048 19.5375 27.5048 17.6071C27.5048 15.6766 29.0697 14.1117 31.0001 14.1117ZM28.3269 17.6083C28.3269 16.1321 29.5236 14.9354 30.9998 14.9354C32.476 14.9354 33.6727 16.1321 33.6727 17.6083C33.6727 19.0845 32.476 20.2812 30.9998 20.2812C29.5236 20.2812 28.3269 19.0845 28.3269 17.6083Z" fill="url(#paint1_linear_10_1135)"></path>
  </g>
  <defs>
    <linearGradient id="paint0_linear_10_1135" x1="91" y1="31" x2="31" y2="-29" gradientUnits="userSpaceOnUse">
      <stop stop-color="#1E85E9"></stop>
      <stop offset="0.202755" stop-color="#8671F3"></stop>
      <stop offset="0.707269" stop-color="#C06CFD" stop-opacity="0.99"></stop>
      <stop offset="1" stop-color="#FFBEE8"></stop>
    </linearGradient>
    <linearGradient id="paint1_linear_10_1135" x1="74.9999" y1="30.9718" x2="33.1039" y2="-12.9776" gradientUnits="userSpaceOnUse">
      <stop stop-color="#1E85E9"></stop>
      <stop offset="0.20276" stop-color="#8671F3"></stop>
      <stop offset="0.70727" stop-color="#C06CFD" stop-opacity="0.99"></stop>
      <stop offset="1" stop-color="#FFBEE8"></stop>
    </linearGradient>
  </defs>
</svg>
