<?xml version="1.0" encoding="UTF-8"?>
<svg xmlns="http://www.w3.org/2000/svg" width="40" height="40" viewBox="0 0 40 40" fill="none">
  <path fill-rule="evenodd" clip-rule="evenodd" d="M11.4269 0C11.2269 0 11.0461 0.119198 10.9673 0.30304L8.40574 6.28008C8.37527 6.34221 8.35728 6.41169 8.35513 6.48536L8.3049 8.19965L8.30469 8.21429C8.30469 9.25621 8.71859 10.2555 9.45534 10.9922C9.6443 11.1812 9.85053 11.3489 10.0703 11.4938V16.7856V21.9286C10.0703 22.2886 10.2133 22.6338 10.4678 22.8883C10.7223 23.1428 11.0675 23.2858 11.4275 23.2858H28.5703C28.9302 23.2858 29.2754 23.1428 29.53 22.8883C29.7845 22.6338 29.9275 22.2886 29.9275 21.9286V11.459C30.1279 11.3222 30.3165 11.1662 30.4905 10.9922C31.2273 10.2555 31.6412 9.25621 31.6412 8.21429V6.50206L31.6412 6.49864C31.6412 6.48704 31.6407 6.47544 31.6399 6.46384C31.6356 6.40327 31.6204 6.34568 31.5964 6.29298L29.0293 0.30304C28.9505 0.119198 28.7698 0 28.5698 0H11.4269ZM11.0703 17.2856H21.2148V22.1429C21.2148 22.1925 21.2221 22.2405 21.2356 22.2858H11.4275C11.3327 22.2858 11.2419 22.2482 11.1749 22.1812C11.1079 22.1142 11.0703 22.0234 11.0703 21.9286V17.2856ZM11.0703 16.2856H21.2148V12.054C20.8171 12.1477 20.4066 12.1933 20.0015 12.1933C18.8314 12.1932 17.6154 11.8124 16.7952 10.9922C16.5368 10.7339 16.3182 10.4433 16.1432 10.1298C15.9682 10.4433 15.7495 10.7339 15.4912 10.9922C14.7544 11.729 13.7552 12.1429 12.7133 12.1429H12.2333C11.8353 12.1429 11.4436 12.0825 11.0703 11.9668V16.2856ZM22.2148 12C22.2148 11.9023 22.1868 11.8112 22.1384 11.7342C22.5353 11.547 22.8997 11.3007 23.2082 10.9922C23.465 10.7354 23.6826 10.4466 23.8571 10.1352C24.0317 10.4466 24.2493 10.7354 24.5061 10.9922C25.2429 11.729 26.2421 12.1429 27.284 12.1429H27.7126C28.1291 12.1429 28.5387 12.0767 28.9275 11.9503V21.9286C28.9275 22.0234 28.8898 22.1142 28.8229 22.1812C28.7559 22.2482 28.665 22.2858 28.5703 22.2858H22.1941C22.2076 22.2405 22.2148 22.1925 22.2148 22.1429V12ZM30.6412 7H24.3588V8.21429C24.3588 8.24969 24.3583 8.28505 24.3574 8.32035C24.3841 9.05853 24.6891 9.76093 25.2132 10.2851C25.7624 10.8343 26.5073 11.1429 27.284 11.1429H27.7126C28.4893 11.1429 29.2342 10.8343 29.7834 10.2851C30.3326 9.73588 30.6412 8.99099 30.6412 8.21429V7ZM23.3555 7V8.21429C23.3555 8.24969 23.3559 8.28504 23.3569 8.32033C23.3302 9.05852 23.0252 9.76093 22.5011 10.2851C21.9152 10.871 20.9813 11.1933 20.0016 11.1933C19.0219 11.1932 18.088 10.8708 17.5023 10.2851C16.9531 9.73588 16.6445 8.99099 16.6445 8.21429V7H23.3555ZM16.1445 6H23.8555H23.8588H30.3829L28.2401 1H11.7566L9.61374 6H16.1445ZM15.6418 7V8.21429C15.6418 8.991 15.3333 9.73589 14.7841 10.2851C14.2349 10.8343 13.49 11.1429 12.7133 11.1429H12.2333C11.4566 11.1429 10.7117 10.8343 10.1624 10.2851C9.61489 9.73755 9.30655 8.99549 9.3047 8.22132L9.34048 7H15.6418ZM9.01019 13H6C5.17157 13 4.5 13.6716 4.5 14.5V28.3906L0.186967 37.8793C-0.264465 38.8724 0.461587 40 1.55252 40H38.4465C39.5374 40 40.2635 38.8724 39.8121 37.8793L35.5 28.3928V14.5C35.5 13.6716 34.8284 13 34 13H30.9877C31.0033 13.3328 31.0041 13.6663 30.99 14H34C34.2761 14 34.5 14.2239 34.5 14.5V28H5.5V14.5C5.5 14.2239 5.72386 14 6 14H9.01303C8.99665 13.666 8.99572 13.3319 9.01019 13ZM1.09733 38.2931L5.32147 29H34.6776L38.9017 38.2931C39.0522 38.6241 38.8102 39 38.4465 39H1.55252C1.18887 39 0.946857 38.6241 1.09733 38.2931Z" fill="url(#paint0_linear_152_22)"></path>
  <defs>
    <linearGradient id="paint0_linear_152_22" x1="59.897" y1="20" x2="19.8971" y2="-19.8973" gradientUnits="userSpaceOnUse">
      <stop stop-color="#1E85E9"></stop>
      <stop offset="0.202755" stop-color="#8671F3"></stop>
      <stop offset="0.707269" stop-color="#C06CFD" stop-opacity="0.99"></stop>
      <stop offset="1" stop-color="#FFBEE8"></stop>
    </linearGradient>
  </defs>
</svg>
