<?xml version="1.0" encoding="UTF-8"?>
<svg xmlns="http://www.w3.org/2000/svg" width="62" height="62" viewBox="0 0 62 62" fill="none">
  <g id="icon-37-5">
    <g id="Rectangle Copy 12" opacity="0.0620722">
      <rect x="1" y="1" width="60" height="60" rx="4" fill="#FAFAFA"></rect>
      <rect x="1" y="1" width="60" height="60" rx="4" fill="url(#paint0_linear_15_1308)"></rect>
      <rect x="1" y="1" width="60" height="60" rx="4" stroke="black" stroke-opacity="0.02"></rect>
    </g>
    <path id="combined" fill-rule="evenodd" clip-rule="evenodd" d="M47 13.5H20C19.7239 13.5 19.5 13.7239 19.5 14V32.5H12C11.7239 32.5 11.5 32.7239 11.5 33V49C11.5 49.2761 11.7239 49.5 12 49.5H28C28.2761 49.5 28.5 49.2761 28.5 49V41.5H47C47.2761 41.5 47.5 41.2761 47.5 41V14C47.5 13.7239 47.2761 13.5 47 13.5ZM28.5 40.5H46.5V14.5H20.5V32.5H28C28.2761 32.5 28.5 32.7239 28.5 33V40.5ZM20.5 33.5H27.5V40.5H20.5V33.5ZM19.5 33.5V41C19.5 41.2761 19.7239 41.5 20 41.5H27.5V48.5H12.5V33.5H19.5ZM42.3886 19.8242L31.0296 31.3284L30.9607 31.3866C30.7667 31.5229 30.4972 31.5053 30.3225 31.3328C30.126 31.1388 30.124 30.8222 30.318 30.6257L41.6926 19.1057L38.3903 20.2065L38.3025 20.2273C38.0679 20.2609 37.8355 20.1231 37.7579 19.8903C37.6706 19.6283 37.8121 19.3451 38.0741 19.2578L43.3774 17.49L43.4671 17.4687C43.8225 17.4171 44.1301 17.7617 44.0099 18.1225L42.2421 23.4258L42.206 23.5085C42.0921 23.7164 41.8425 23.8197 41.6097 23.742L41.5269 23.706C41.319 23.592 41.2158 23.3424 41.2934 23.1096L42.3886 19.8242Z" fill="url(#paint1_linear_15_1308)"></path>
  </g>
  <defs>
    <linearGradient id="paint0_linear_15_1308" x1="91" y1="31" x2="31" y2="-29" gradientUnits="userSpaceOnUse">
      <stop stop-color="#1E85E9"></stop>
      <stop offset="0.202755" stop-color="#8671F3"></stop>
      <stop offset="0.707269" stop-color="#C06CFD" stop-opacity="0.99"></stop>
      <stop offset="1" stop-color="#FFBEE8"></stop>
    </linearGradient>
    <linearGradient id="paint1_linear_15_1308" x1="65.5" y1="31.5" x2="29.5" y2="-4.5" gradientUnits="userSpaceOnUse">
      <stop stop-color="#1E85E9"></stop>
      <stop offset="0.202755" stop-color="#8671F3"></stop>
      <stop offset="0.707269" stop-color="#C06CFD" stop-opacity="0.99"></stop>
      <stop offset="1" stop-color="#FFBEE8"></stop>
    </linearGradient>
  </defs>
</svg>
