<?xml version="1.0" encoding="UTF-8"?>
<svg xmlns="http://www.w3.org/2000/svg" width="40" height="40" viewBox="0 0 40 40" fill="none">
  <path fill-rule="evenodd" clip-rule="evenodd" d="M17.6485 2.25929C17.6947 1.63847 18.1776 1.1353 18.8013 1.06585C19.6234 0.975788 20.4528 0.978071 21.278 1.07293C21.9581 1.1551 22.4578 1.75039 22.4214 2.42389L22.4188 2.55085C22.4297 3.16342 22.7984 3.71673 23.343 3.95017C23.9601 4.1877 24.6613 4.03104 25.1181 3.55055L25.2092 3.4611C25.6799 3.04432 26.3854 3.02456 26.8821 3.42079C27.5274 3.94011 28.1126 4.53018 28.6254 5.17859C29.0514 5.71437 28.9872 6.48794 28.4764 6.95043L28.3949 7.02852C27.9782 7.45833 27.8472 8.09553 28.069 8.65887C28.305 9.2585 28.8898 9.64586 29.5483 9.63153L29.6493 9.6352C30.2865 9.68149 30.8604 10.1599 30.9311 10.7822C30.9599 11.0408 30.9796 11.3001 30.9904 11.5599C30.9896 11.5399 30.9887 11.52 30.9877 11.5H34C34.8284 11.5 35.5 12.1716 35.5 13V26.8928L39.8121 36.3793C40.2635 37.3724 39.5374 38.5 38.4465 38.5H1.55252C0.461587 38.5 -0.264465 37.3724 0.186967 36.3793L4.5 26.8906V13C4.5 12.1716 5.17157 11.5 6 11.5H9.01019C9.02135 11.2441 9.04166 10.9894 9.0711 10.7369C9.13584 10.0484 9.73593 9.53135 10.3973 9.57421L10.533 9.57382C11.1492 9.54802 11.703 9.18035 11.9526 8.63921C12.2064 8.03031 12.0465 7.32865 11.5475 6.88139C11.0472 6.41811 10.989 5.64796 11.4148 5.11258C11.9384 4.45942 12.5354 3.86854 13.1937 3.35184C13.7256 2.9339 14.4927 2.99384 14.9294 3.47287L15.033 3.57215C15.4894 3.97522 16.1328 4.09774 16.6845 3.89326C17.286 3.64412 17.6687 3.04791 17.6453 2.3766L17.6485 2.25929ZM9.0104 12.4432C9.01122 12.4621 9.0121 12.4811 9.01303 12.5H6C5.72386 12.5 5.5 12.7239 5.5 13V26.5H34.5V13C34.5 12.7239 34.2761 12.5 34 12.5H30.99C30.979 12.7593 30.9591 13.0187 30.9303 13.2779C30.8486 13.9535 30.257 14.4578 29.6078 14.4217L29.4695 14.4216C28.8263 14.4119 28.2453 14.8038 28.0134 15.4034C27.7813 16.0038 27.9486 16.684 28.4401 17.1172C28.9464 17.5799 29.0057 18.3567 28.5755 18.8903C28.0512 19.5418 27.455 20.132 26.7974 20.65C26.2652 21.0682 25.4981 21.0077 25.0581 20.5254L24.962 20.4318C24.5092 20.0233 23.8648 19.8966 23.3132 20.1002C22.713 20.3493 22.3313 20.945 22.356 21.6119L22.3537 21.7299C22.3113 22.3538 21.8276 22.8622 21.2043 22.9314C20.8017 22.9779 20.3966 23.0008 19.9915 23C19.5683 22.9994 19.1459 22.9752 18.7213 22.9269C18.0409 22.8447 17.5416 22.2491 17.5785 21.5621L17.581 21.4473C17.5719 20.838 17.2055 20.2843 16.6558 20.0523C16.0359 19.8153 15.3331 19.9735 14.8722 20.4583L14.7807 20.5472C14.3083 20.9609 13.6033 20.9776 13.1115 20.5814C12.4657 20.0625 11.8812 19.4716 11.3706 18.8217C10.9483 18.2876 11.0109 17.5173 11.5038 17.0693L11.5987 16.9755C12.0114 16.5329 12.1318 15.8898 11.9049 15.3279C11.6679 14.7444 11.0986 14.3652 10.4489 14.37L10.3317 14.3642C9.68596 14.3048 9.12662 13.8312 9.07278 13.2233C9.04258 12.9639 9.0218 12.7035 9.0104 12.4432ZM21.7289 2.67249C21.7113 2.36246 21.4743 2.10401 21.1612 2.06618C20.4122 1.98008 19.6578 1.978 18.91 2.05991L18.8399 2.07162C18.5646 2.13319 18.3582 2.36739 18.3377 2.6377L18.3353 2.71749C18.3668 3.59965 17.8489 4.40644 17.0245 4.74767C16.2717 5.02701 15.4163 4.86414 14.8007 4.32021L14.6241 4.1498C14.3992 3.95707 14.0557 3.94645 13.8116 4.13822C13.2133 4.60785 12.6708 5.1448 12.1957 5.73742C11.9832 6.00465 12.0122 6.38889 12.2581 6.61672C12.9273 7.2164 13.144 8.16742 12.7956 9.003C12.4547 9.74243 11.7176 10.2319 10.8859 10.2665L10.653 10.2662C10.3521 10.2823 10.0952 10.5247 10.065 10.8456C9.97793 11.5928 9.97816 12.3555 10.0668 13.1177C10.0915 13.3968 10.3833 13.6439 10.7196 13.6751L10.8023 13.6794C11.6605 13.6725 12.434 14.1877 12.7564 14.9812C13.0637 15.7424 12.9009 16.612 12.3345 17.219L12.2253 17.327C11.9762 17.5536 11.9451 17.9362 12.1555 18.2023C12.6198 18.7933 13.1509 19.3302 13.7379 19.8019C13.9826 19.999 14.3336 19.9907 14.5559 19.7966L14.7127 19.6421C15.3184 19.074 16.2057 18.8973 17.0014 19.2017C17.8112 19.5433 18.3222 20.3694 18.2702 21.2537C18.2518 21.5962 18.5006 21.8929 18.8375 21.9336C19.2224 21.9774 19.607 21.9995 19.9927 22C20.3598 22.0007 20.7268 21.98 21.0928 21.9378C21.4028 21.9033 21.6436 21.6503 21.6639 21.356L21.6657 21.2742C21.6325 20.3944 22.1494 19.5876 22.9732 19.246C23.7285 18.9668 24.5869 19.1357 25.1984 19.6875L25.3657 19.8506C25.5918 20.0446 25.9353 20.0555 26.1791 19.8639C26.777 19.393 27.3193 18.8562 27.7963 18.2634C28.0103 17.998 27.9808 17.6116 27.7329 17.385C27.073 16.8033 26.8456 15.8789 27.1611 15.063C27.4761 14.2481 28.2656 13.7158 29.135 13.7289L29.3487 13.7291C29.6426 13.7107 29.8993 13.4721 29.9368 13.1623C30.0209 12.4061 30.021 11.6462 29.9373 10.8935C29.9025 10.5867 29.5655 10.3224 29.2129 10.3224C28.3313 10.3416 27.5368 9.81537 27.216 9.00056C26.8957 8.18709 27.1167 7.2603 27.7678 6.68039C28.0218 6.45044 28.0537 6.06621 27.8416 5.79948C27.3747 5.20923 26.8425 4.67255 26.2566 4.20103C26.0094 4.00384 25.6581 4.01368 25.4366 4.20914L25.2792 4.36504C24.6755 4.93071 23.7892 5.10573 22.995 4.79984C22.2393 4.47622 21.7408 3.72827 21.7261 2.88895L21.7289 2.67249ZM15.0764 12.1596C15.0764 11.3456 15.4779 10.8011 16.1599 10.8011C16.4734 10.8011 16.6659 10.8726 16.8804 10.9551C17.1004 11.0376 17.2379 10.9991 17.2984 10.8671C17.3589 10.7351 17.3314 10.5811 17.1664 10.4656C16.9464 10.3116 16.6109 10.2126 16.1489 10.2126C15.0214 10.2126 14.3834 10.9991 14.3834 12.1651C14.3834 13.3311 14.9444 14.1176 16.1269 14.1176C16.6109 14.1176 16.9739 13.9966 17.2489 13.7931C17.4414 13.6501 17.4634 13.4631 17.3754 13.3311C17.2929 13.2101 17.1389 13.1881 16.9574 13.2926C16.7154 13.4356 16.4789 13.5291 16.1764 13.5291C15.5604 13.5291 15.0764 13.0396 15.0764 12.1596ZM19.8911 12.2531L18.7691 10.4821C18.6866 10.3501 18.5821 10.2676 18.4281 10.2676C18.2521 10.2676 18.1201 10.3721 18.1201 10.6141V13.7271C18.1201 13.9086 18.2026 14.0626 18.4281 14.0626C18.6536 14.0626 18.7361 13.9086 18.7361 13.7271V11.5161L19.5501 12.7921C19.6216 12.9076 19.7151 12.9846 19.8581 12.9846C20.0121 12.9846 20.0946 12.8966 20.1606 12.7866L20.9636 11.4886V13.7271C20.9636 13.9141 21.0791 14.0626 21.2936 14.0626C21.5136 14.0626 21.6236 13.9141 21.6236 13.7271V10.6086C21.6236 10.4106 21.5191 10.2676 21.3156 10.2676C21.1507 10.2676 21.0571 10.3721 20.9911 10.4766L19.8911 12.2531ZM23.6237 10.8176C23.2552 10.8176 23.0792 10.9661 23.0792 11.2136C23.0792 11.5371 23.433 11.6578 23.8369 11.7956C24.3736 11.9788 24.9987 12.192 24.9987 12.9516C24.9987 13.6281 24.5917 14.1176 23.6512 14.1176C23.2662 14.1176 22.8977 14.0406 22.6062 13.8921C22.3587 13.7601 22.2707 13.5676 22.3697 13.3751C22.4577 13.2046 22.6282 13.2211 22.8427 13.3091C23.1287 13.4411 23.3707 13.5126 23.6677 13.5126C24.0692 13.5126 24.3332 13.3531 24.3332 13.0341C24.3332 12.6625 23.9637 12.5375 23.5489 12.3973C23.0183 12.2179 22.4137 12.0135 22.4137 11.2356C22.4137 10.6251 22.8317 10.2126 23.6732 10.2126C24.0197 10.2126 24.3717 10.2951 24.6302 10.4436C24.8447 10.5591 24.9162 10.7241 24.8227 10.9056C24.7182 11.1091 24.4872 11.0486 24.3002 10.9661C24.0802 10.8726 23.8657 10.8176 23.6237 10.8176ZM1.09733 36.7931L5.32147 27.5H34.6776L38.9017 36.7931C39.0522 37.1241 38.8102 37.5 38.4465 37.5H1.55252C1.18887 37.5 0.946857 37.1241 1.09733 36.7931Z" fill="url(#paint0_linear_131_7)"></path>
  <defs>
    <linearGradient id="paint0_linear_131_7" x1="46.5" y1="40.5" x2="-3.50004" y2="5.00005" gradientUnits="userSpaceOnUse">
      <stop stop-color="#1E85E9"></stop>
      <stop offset="0.202755" stop-color="#8671F3"></stop>
      <stop offset="0.707269" stop-color="#C06CFD" stop-opacity="0.99"></stop>
      <stop offset="1" stop-color="#FFBEE8"></stop>
    </linearGradient>
  </defs>
</svg>
