<?xml version="1.0" encoding="UTF-8"?>
<svg xmlns="http://www.w3.org/2000/svg" width="40" height="40" viewBox="0 0 40 40" fill="none">
  <g id="icon-36-8">
    <g id="Group 8747">
      <path id="Union" fill-rule="evenodd" clip-rule="evenodd" d="M26.25 16.25L26.2171 16.25C25.7738 16.25 25.3919 16.25 25.0861 16.2089C24.7583 16.1649 24.4442 16.0655 24.1893 15.8107C23.9345 15.5558 23.8351 15.2417 23.7911 14.9139C23.75 14.6081 23.75 14.2262 23.75 13.783V13.7829V13.75V4.96708V4.96703C23.75 4.52381 23.75 4.14192 23.7911 3.8361C23.8351 3.50834 23.9345 3.19417 24.1893 2.93934C24.4442 2.68451 24.7583 2.58513 25.0861 2.54107C25.3919 2.49995 25.7738 2.49997 26.2171 2.5H35.0329C35.4762 2.49997 35.8581 2.49995 36.1639 2.54107C36.4917 2.58513 36.8058 2.68451 37.0607 2.93934C37.3155 3.19417 37.4149 3.50834 37.4589 3.8361C37.5 4.14193 37.5 4.52385 37.5 4.96709V13.7829C37.5 14.2261 37.5 14.6081 37.4589 14.9139C37.4149 15.2417 37.3155 15.5558 37.0607 15.8107C36.8058 16.0655 36.4917 16.1649 36.1639 16.2089C35.8581 16.25 35.4762 16.25 35.0329 16.25L26.25 16.25ZM24.8964 15.1036C24.9345 15.1416 25.0025 15.1887 25.2194 15.2178C25.4506 15.2489 25.7645 15.25 26.25 15.25H35C35.4855 15.25 35.7994 15.2489 36.0307 15.2178C36.2475 15.1887 36.3155 15.1416 36.3536 15.1036C36.3916 15.0655 36.4387 14.9975 36.4678 14.7806C36.4989 14.5494 36.5 14.2355 36.5 13.75V5C36.5 4.51446 36.4989 4.2006 36.4678 3.96935C36.4387 3.75248 36.3916 3.68451 36.3536 3.64644C36.3155 3.60838 36.2475 3.56131 36.0307 3.53215C35.7994 3.50106 35.4855 3.5 35 3.5H26.25C25.7645 3.5 25.4506 3.50106 25.2194 3.53215C25.0025 3.56131 24.9345 3.60838 24.8964 3.64644C24.8584 3.68451 24.8113 3.75248 24.7822 3.96935C24.7511 4.2006 24.75 4.51446 24.75 5V13.75C24.75 14.2355 24.7511 14.5494 24.7822 14.7806C24.8113 14.9975 24.8584 15.0655 24.8964 15.1036ZM26.5 24.75C26.9855 24.75 27.2994 24.7511 27.5307 24.7822C27.7475 24.8113 27.8155 24.8584 27.8536 24.8964C27.8916 24.9345 27.9387 25.0025 27.9678 25.2194C27.9989 25.4506 28 25.7645 28 26.25V35C28 35.4855 27.9989 35.7994 27.9678 36.0307C27.9387 36.2475 27.8916 36.3155 27.8536 36.3536C27.8155 36.3916 27.7475 36.4387 27.5307 36.4678C27.2994 36.4989 26.9855 36.5 26.5 36.5H16.25V24.75H26.5ZM16.25 23.75H26.5329H26.533C26.9762 23.75 27.3581 23.75 27.6639 23.7911C27.9917 23.8351 28.3058 23.9345 28.5607 24.1893C28.8155 24.4442 28.9149 24.7583 28.9589 25.0861C29.0001 25.3919 29 25.7739 29 26.2171V35.0329C29 35.4762 29.0001 35.8581 28.9589 36.1639C28.9149 36.4917 28.8155 36.8058 28.5607 37.0607C28.3058 37.3155 27.9917 37.4149 27.6639 37.4589C27.3581 37.5 26.9762 37.5 26.5329 37.5H15.25L4.96709 37.5H4.96699C4.52379 37.5 4.14191 37.5 3.83611 37.4589C3.50835 37.4149 3.19417 37.3155 2.93934 37.0607C2.68451 36.8058 2.58514 36.4916 2.54107 36.1639C2.49996 35.8581 2.49998 35.4762 2.5 35.0329L2.5 24.75V13.4671C2.49997 13.0239 2.49995 12.6419 2.54107 12.3361C2.58514 12.0083 2.68451 11.6942 2.93934 11.4393C3.19417 11.1845 3.50835 11.0851 3.83611 11.0411C4.14194 11 4.52384 11 4.96708 11L13.75 11L13.7829 11C14.2262 11 14.6081 11 14.9139 11.0411C15.2417 11.0851 15.5558 11.1845 15.8107 11.4393C16.0655 11.6942 16.1649 12.0083 16.2089 12.3361C16.25 12.6419 16.25 13.0238 16.25 13.4671L16.25 13.5V23.75ZM15.25 23.75V13.5C15.25 13.0145 15.2489 12.7006 15.2178 12.4694C15.1887 12.2525 15.1416 12.1845 15.1036 12.1464C15.0655 12.1084 14.9975 12.0613 14.7806 12.0322C14.5494 12.0011 14.2355 12 13.75 12H5C4.51446 12 4.20061 12.0011 3.96935 12.0322C3.75248 12.0613 3.68451 12.1084 3.64645 12.1464C3.60839 12.1845 3.56131 12.2525 3.53215 12.4694C3.50106 12.7006 3.5 13.0145 3.5 13.5V23.75H15.25ZM3.5 24.75V35C3.5 35.4855 3.50107 35.7994 3.53216 36.0306C3.56131 36.2475 3.60839 36.3155 3.64645 36.3535C3.68451 36.3916 3.75249 36.4387 3.96936 36.4678C4.20061 36.4989 4.51446 36.5 5 36.5H15.25V24.75L3.5 24.75Z" fill="url(#paint0_linear_10_1278)"></path>
    </g>
  </g>
  <defs>
    <linearGradient id="paint0_linear_10_1278" x1="55" y1="20" x2="20" y2="-15" gradientUnits="userSpaceOnUse">
      <stop stop-color="#1E85E9"></stop>
      <stop offset="0.202755" stop-color="#8671F3"></stop>
      <stop offset="0.707269" stop-color="#C06CFD" stop-opacity="0.99"></stop>
      <stop offset="1" stop-color="#FFBEE8"></stop>
    </linearGradient>
  </defs>
</svg>
