<?xml version="1.0" encoding="UTF-8"?>
<svg xmlns="http://www.w3.org/2000/svg" width="62" height="62" viewBox="0 0 62 62" fill="none">
  <g id="icon-37-4">
    <g id="Rectangle" opacity="0.0620722">
      <rect x="1" y="1" width="60" height="60" rx="4" fill="#FAFAFA"></rect>
      <rect x="1" y="1" width="60" height="60" rx="4" fill="url(#paint0_linear_10_1215)"></rect>
      <rect x="1" y="1" width="60" height="60" rx="4" stroke="black" stroke-opacity="0.02"></rect>
    </g>
    <g id="Group 116">
      <path id="Union" fill-rule="evenodd" clip-rule="evenodd" d="M42 29V28C42 21.9249 37.0751 17 31 17C24.9249 17 20 21.9249 20 28V29H19C14.5817 29 11 32.5817 11 37C11 41.4183 14.5817 45 19 45H43C47.4183 45 51 41.4183 51 37C51 32.5817 47.4183 29 43 29H42ZM19 46C14.0294 46 10 41.9706 10 37C10 32.0294 14.0294 28 19 28C19 21.3726 24.3726 16 31 16C37.6274 16 43 21.3726 43 28C47.9706 28 52 32.0294 52 37C52 41.9706 47.9706 46 43 46H19ZM31 31.5C24.6487 31.5 19.5 36.6487 19.5 43H18.5C18.5 36.0964 24.0964 30.5 31 30.5V31.5ZM42.5 43C42.5 40.0831 41.4147 37.421 39.6251 35.3934L40.3749 34.7317C42.3195 36.9349 43.5 39.8302 43.5 43H42.5ZM38.4431 29.2317C38.571 28.9869 38.4764 28.6848 38.2317 28.5569C37.9869 28.429 37.6848 28.5236 37.5569 28.7683L31.9341 39.5233C31.7914 39.5079 31.6465 39.5 31.5 39.5C29.2909 39.5 27.5 41.2909 27.5 43.5C27.5 43.7761 27.7239 44 28 44C28.2761 44 28.5 43.7761 28.5 43.5C28.5 41.8431 29.8431 40.5 31.5 40.5C31.7096 40.5 31.9136 40.5214 32.1102 40.562C33.4745 40.8436 34.5 42.0526 34.5 43.5C34.5 43.7761 34.7239 44 35 44C35.2761 44 35.5 43.7761 35.5 43.5C35.5 41.7966 34.4356 40.3426 32.9358 39.7656L38.4431 29.2317Z" fill="url(#paint1_linear_10_1215)"></path>
    </g>
  </g>
  <defs>
    <linearGradient id="paint0_linear_10_1215" x1="91" y1="31" x2="31" y2="-29" gradientUnits="userSpaceOnUse">
      <stop stop-color="#1E85E9"></stop>
      <stop offset="0.202755" stop-color="#8671F3"></stop>
      <stop offset="0.707269" stop-color="#C06CFD" stop-opacity="0.99"></stop>
      <stop offset="1" stop-color="#FFBEE8"></stop>
    </linearGradient>
    <linearGradient id="paint1_linear_10_1215" x1="73" y1="31" x2="44.6216" y2="-8.72973" gradientUnits="userSpaceOnUse">
      <stop stop-color="#1E85E9"></stop>
      <stop offset="0.202755" stop-color="#8671F3"></stop>
      <stop offset="0.707269" stop-color="#C06CFD" stop-opacity="0.99"></stop>
      <stop offset="1" stop-color="#FFBEE8"></stop>
    </linearGradient>
  </defs>
</svg>
