<?xml version="1.0" encoding="UTF-8"?>
<svg xmlns="http://www.w3.org/2000/svg" width="40" height="40" viewBox="0 0 40 40" fill="none">
  <g id="icon-36-9">
    <path id="Shape" fill-rule="evenodd" clip-rule="evenodd" d="M17.0736 0C26.503 0 34.1471 7.64409 34.1471 17.0736C34.1471 17.343 33.9287 17.5614 33.6593 17.5614C33.3899 17.5614 33.1715 17.343 33.1715 17.0736C33.1715 8.18292 25.9642 0.975632 17.0736 0.975632C8.18292 0.975632 0.975632 8.18292 0.975632 17.0736C0.975632 25.9642 8.18292 33.1715 17.0736 33.1715C19.2132 33.1715 21.2939 32.7541 23.2276 31.9534C23.4765 31.8504 23.7619 31.9686 23.8649 32.2175C23.968 32.4664 23.8498 32.7518 23.6008 32.8549C21.5493 33.7043 19.3419 34.1471 17.0736 34.1471C7.64409 34.1471 0 26.503 0 17.0736C0 7.64409 7.64409 0 17.0736 0ZM36.0876 20.0005C36.0876 19.731 35.8692 19.5126 35.5997 19.5126H27.9033L27.8156 19.5205C27.5881 19.5618 27.4155 19.761 27.4155 20.0005L27.4154 27.8104L23.6371 27.811C23.2421 27.811 23.0109 28.2558 23.2378 28.579L31.1086 39.7933C31.3019 40.0688 31.7094 40.0704 31.9049 39.7965L39.9084 28.5822L39.9508 28.5113C40.105 28.1975 39.8797 27.811 39.5113 27.811L36.0869 27.8104L36.0876 20.0005ZM28.3942 20.4883H35.1144L35.1151 28.2988L35.1229 28.3865C35.1642 28.6141 35.3634 28.7866 35.6029 28.7866L38.5671 28.786L31.5133 38.6682L24.5775 28.786L27.9064 28.7866L27.9941 28.7788C28.2217 28.7375 28.3943 28.5383 28.3943 28.2988L28.3942 20.4883ZM18.0413 7.22955C18 7.00199 17.8009 6.82942 17.5614 6.82942C17.292 6.82942 17.0736 7.04783 17.0736 7.31724V8.81975C13.8927 8.81975 12.1306 10.3657 12.1306 12.8109C12.1306 13.7746 12.2525 14.2546 12.7256 14.7609L12.8156 14.8584C13.0927 15.1601 13.1839 15.2564 14.4294 15.9395L17.0736 17.3643V24.0854L16.8501 24.0878C14.3073 24.0878 13.1062 22.7893 13.1062 20.0005C13.1062 19.731 12.8878 19.5126 12.6184 19.5126C12.349 19.5126 12.1306 19.731 12.1306 20.0005C12.1306 23.3119 13.7507 25.0635 16.8501 25.0635C16.9261 25.0635 17.001 25.0629 17.075 25.0619L17.0736 27.6388L17.0814 27.7265C17.1227 27.954 17.3219 28.1266 17.5614 28.1266C17.8308 28.1266 18.0492 27.9082 18.0492 27.6388L18.0501 25.0132C21.0685 24.7389 22.0999 23.335 22.0999 20.6507C22.0999 19.3458 21.2157 18.3723 19.7159 17.5515C19.4992 17.4329 19.1403 17.2611 18.7909 17.0987L18.0492 16.7604L18.0506 9.91599C19.3418 10.2623 20.1816 11.3602 20.6054 13.2855C20.6634 13.5486 20.9236 13.7149 21.1867 13.657C21.4498 13.599 21.6162 13.3388 21.5583 13.0757C21.0337 10.6931 19.8506 9.27607 18.0507 8.91307L18.0492 7.31724L18.0413 7.22955ZM18.0492 17.8317L18.0501 24.0385C20.4586 23.8154 21.1242 22.8167 21.1242 20.6507C21.1242 19.7988 20.4662 19.0743 19.2475 18.4073L19.0455 18.3023C18.7704 18.1643 18.3852 17.9854 18.0492 17.8317ZM13.1062 12.8099C13.1062 10.934 14.4052 9.79443 17.0736 9.79443L17.0731 16.2568C14.2579 14.7453 13.8757 14.5341 13.6022 14.266L13.376 14.0229C13.2005 13.8096 13.1316 13.5873 13.1124 13.1421L13.1062 12.8099Z" fill="url(#paint0_linear_10_1286)"></path>
  </g>
  <defs>
    <linearGradient id="paint0_linear_10_1286" x1="60.0001" y1="20.0005" x2="19.9992" y2="-19.9996" gradientUnits="userSpaceOnUse">
      <stop stop-color="#1E85E9"></stop>
      <stop offset="0.20276" stop-color="#8671F3"></stop>
      <stop offset="0.70727" stop-color="#C06CFD" stop-opacity="0.99"></stop>
      <stop offset="1" stop-color="#FFBEE8"></stop>
    </linearGradient>
  </defs>
</svg>
