<?xml version="1.0" encoding="UTF-8"?>
<svg xmlns="http://www.w3.org/2000/svg" width="40" height="40" viewBox="0 0 40 40" fill="none">
  <path fill-rule="evenodd" clip-rule="evenodd" d="M17.0736 0C26.503 0 34.1471 7.64409 34.1471 17.0736C34.1471 17.343 33.9287 17.5614 33.6593 17.5614C33.3899 17.5614 33.1715 17.343 33.1715 17.0736C33.1715 8.18292 25.9642 0.975632 17.0736 0.975632C8.18292 0.975632 0.975632 8.18292 0.975632 17.0736C0.975632 25.9642 8.18292 33.1715 17.0736 33.1715C19.2132 33.1715 21.2939 32.7541 23.2276 31.9534C23.4765 31.8504 23.7619 31.9686 23.8649 32.2175C23.968 32.4664 23.8498 32.7518 23.6008 32.8549C21.5493 33.7043 19.3419 34.1471 17.0736 34.1471C7.64409 34.1471 0 26.503 0 17.0736C0 7.64409 7.64409 0 17.0736 0ZM17.5614 6.82942C17.8009 6.82942 18 7.00199 18.0413 7.22955L18.0492 7.31724L18.0507 8.91307C19.8506 9.27607 21.0337 10.6931 21.5583 13.0757C21.6162 13.3388 21.4498 13.599 21.1867 13.657C20.9236 13.7149 20.6634 13.5486 20.6054 13.2855C20.1816 11.3602 19.3418 10.2623 18.0506 9.91599L18.0492 16.7604L18.7909 17.0987C19.1403 17.2611 19.4992 17.4329 19.7159 17.5515C21.2157 18.3723 22.0999 19.3458 22.0999 20.6507C22.0999 23.335 21.0685 24.7389 18.0501 25.0132L18.0492 27.6388C18.0492 27.9082 17.8308 28.1266 17.5614 28.1266C17.3219 28.1266 17.1227 27.954 17.0814 27.7265L17.0736 27.6388L17.075 25.0619C17.001 25.0629 16.9261 25.0635 16.8501 25.0635C13.7507 25.0635 12.1306 23.3119 12.1306 20.0005C12.1306 19.731 12.349 19.5126 12.6184 19.5126C12.8878 19.5126 13.1062 19.731 13.1062 20.0005C13.1062 22.7893 14.3073 24.0878 16.8501 24.0878L17.0736 24.0854V17.3643L14.4294 15.9395C13.1839 15.2564 13.0927 15.1601 12.8156 14.8584L12.7256 14.7609C12.2525 14.2546 12.1306 13.7746 12.1306 12.8109C12.1306 10.3657 13.8927 8.81975 17.0736 8.81975V7.31724C17.0736 7.04783 17.292 6.82942 17.5614 6.82942ZM18.0501 24.0385L18.0492 17.8317C18.3852 17.9854 18.7704 18.1643 19.0455 18.3023L19.2475 18.4073C20.4662 19.0743 21.1242 19.7988 21.1242 20.6507C21.1242 22.8167 20.4586 23.8154 18.0501 24.0385ZM17.0736 9.79443C14.4052 9.79443 13.1062 10.934 13.1062 12.8099L13.1124 13.1421C13.1316 13.5873 13.2005 13.8096 13.376 14.0229L13.6022 14.266C13.8757 14.5341 14.2579 14.7453 17.0731 16.2568L17.0736 9.79443ZM35.5998 38.4883C35.8692 38.4883 36.0876 38.2699 36.0876 38.0005L36.0869 30.1905L39.5114 30.1899C39.8797 30.1899 40.1051 29.8034 39.9509 29.4896L39.9084 29.4187L31.905 18.2044C31.7095 17.9305 31.3019 17.9321 31.1086 18.2076L23.2378 29.4219C23.0109 29.7451 23.2422 30.1899 23.6371 30.1899L27.4155 30.1905L27.4155 38.0005C27.4155 38.2399 27.5881 38.4391 27.8157 38.4804L27.9034 38.4883H35.5998ZM35.1143 37.5127H28.3942L28.3942 29.7022C28.3942 29.4627 28.2217 29.2635 27.9941 29.2222L27.9064 29.2143L24.5775 29.2149L31.5133 19.3328L38.5671 29.2149L35.6029 29.2143C35.3634 29.2143 35.1642 29.3869 35.1229 29.6145L35.115 29.7022L35.1143 37.5127Z" fill="url(#paint0_linear_103_2)"></path>
  <defs>
    <linearGradient id="paint0_linear_103_2" x1="60.0001" y1="19.2441" x2="21.5403" y2="-20.7262" gradientUnits="userSpaceOnUse">
      <stop stop-color="#1E85E9"></stop>
      <stop offset="0.202755" stop-color="#8671F3"></stop>
      <stop offset="0.707269" stop-color="#C06CFD" stop-opacity="0.99"></stop>
      <stop offset="1" stop-color="#FFBEE8"></stop>
    </linearGradient>
  </defs>
</svg>
