<?xml version="1.0" encoding="UTF-8"?>
<svg xmlns="http://www.w3.org/2000/svg" width="62" height="62" viewBox="0 0 62 62" fill="none">
  <g opacity="0.0620722">
    <rect x="1" y="1" width="60" height="60" rx="4" fill="#FAFAFA"></rect>
    <rect x="1" y="1" width="60" height="60" rx="4" fill="url(#paint0_linear_125_50)"></rect>
    <rect x="1" y="1" width="60" height="60" rx="4" stroke="black" stroke-opacity="0.02"></rect>
  </g>
  <path fill-rule="evenodd" clip-rule="evenodd" d="M21.592 8.35686C21.5496 8.1539 21.3455 8 21.1 8C20.8239 8 20.6 8.19479 20.6 8.43506V20.3695L15.8763 14.9707C15.7147 14.786 15.4471 14.7488 15.2437 14.8705L15.1708 14.9237C14.986 15.0853 14.9489 15.3528 15.0706 15.5563L15.1237 15.6292L20.7237 22.0292C20.9008 22.2316 21.2003 22.2541 21.4046 22.0967L21.4763 22.0292L27.0763 15.6292C27.2581 15.4214 27.2371 15.1055 27.0293 14.9237C26.8445 14.762 26.5744 14.7607 26.389 14.9084L26.3237 14.9707L21.6 20.3695V8.43506L21.592 8.35686ZM13.5 31.3999C13.7455 31.3999 13.9496 31.246 13.9919 31.043L14 30.9648V19.0304L18.7237 24.4292L18.789 24.4916C18.9744 24.6392 19.2445 24.6379 19.4293 24.4763C19.6371 24.2944 19.6581 23.9786 19.4763 23.7707L13.8763 17.3707L13.8046 17.3033C13.6003 17.1459 13.3008 17.1684 13.1237 17.3707L7.52371 23.7707L7.47059 23.8437C7.34886 24.0471 7.38602 24.3146 7.57075 24.4763L7.64369 24.5294C7.84711 24.6511 8.11465 24.614 8.27629 24.4292L13 19.0305V30.9648C13 31.2051 13.2239 31.3999 13.5 31.3999ZM31.6598 22.0178C31.4414 22.006 31.2214 22 31 22C24.3726 22 19 27.3726 19 34C14.0294 34 10 38.0294 10 43C10 47.9706 14.0294 52 19 52H43C47.9706 52 52 47.9706 52 43C52 41.2881 51.5221 39.6879 50.6923 38.3255C50.3377 38.4511 49.9643 38.4999 49.5979 38.4746C50.4824 39.7616 51 41.3204 51 43C51 47.4183 47.4183 51 43 51H19C14.5817 51 11 47.4183 11 43C11 38.5817 14.5817 35 19 35H20V34C20 28.6547 23.8127 24.1998 28.8669 23.2067C29.3858 22.6853 30.108 22.3832 30.8689 22.4319C31.2104 22.4431 31.5265 22.2585 31.6598 22.0178ZM40.0209 14.6779C40.0632 14.1096 40.505 13.6421 41.0837 13.5776C42.0552 13.4712 43.0356 13.4738 44.0094 13.5858C44.6367 13.6615 45.0979 14.2106 45.0639 14.8425L45.0608 15.011C45.0767 15.9048 45.6143 16.714 46.4301 17.0634C47.3267 17.4085 48.3429 17.1794 48.9961 16.4921L49.0913 16.3978C49.5217 16.0167 50.1724 15.9927 50.6334 16.3604C51.3963 16.9744 52.088 17.6719 52.6947 18.439C53.0869 18.9323 53.0286 19.6453 52.5583 20.0711C51.8542 20.6983 51.6158 21.6978 51.9612 22.5751C52.3066 23.4525 53.1626 24.0216 54.1167 24.0007C54.7302 24.0007 55.3494 24.4477 55.419 25.0605C55.5278 26.0386 55.5278 27.0257 55.4184 28.0086C55.3426 28.6358 54.7933 29.0968 54.1892 29.0636L54.0266 29.0636C53.0841 29.0494 52.2326 29.6236 51.8928 30.5024C51.553 31.3812 51.7969 32.3784 52.5105 33.0075C52.9776 33.4342 53.0321 34.1505 52.6353 34.6427C52.0156 35.4128 51.3108 36.1104 50.5338 36.7226C50.0419 37.1091 49.3351 37.051 48.9205 36.5974L48.7932 36.4738C48.1379 35.8827 47.2045 35.6981 46.3846 36.0011C45.507 36.3654 44.9485 37.2367 44.9844 38.1872L44.9823 38.3111C44.9436 38.8825 44.5007 39.3545 43.9217 39.4189C43.4466 39.4737 42.9686 39.5007 42.4906 39.4997C41.9905 39.4991 41.4909 39.4705 40.9906 39.4136C40.3633 39.3378 39.9021 38.7887 39.9362 38.1553C39.9925 37.1963 39.4384 36.3058 38.5684 35.9389C37.6691 35.595 36.6511 35.8258 35.9945 36.5168L35.8988 36.6105C35.4666 36.9891 34.8163 37.0098 34.3594 36.6417C33.5963 36.0285 32.9057 35.3303 32.302 34.5618C31.9125 34.0692 31.9707 33.3593 32.4335 32.9384L32.5592 32.8136C33.16 32.1693 33.3396 31.2301 33.0063 30.4045C32.6591 29.5499 31.8252 28.9937 30.8983 29.0011L30.7732 28.9953C30.1904 28.9417 29.6375 28.5201 29.5863 27.9439C29.472 26.9619 29.472 25.9699 29.5852 24.999C29.6449 24.364 30.1984 23.8914 30.8197 23.931L30.999 23.9302C31.8902 23.8929 32.6928 23.3614 33.063 22.5582C33.4339 21.6682 33.2013 20.6411 32.477 19.9921C32.0154 19.5646 31.9613 18.8538 32.3541 18.3599C32.9728 17.5881 33.6782 16.8899 34.4562 16.2793C34.9481 15.8927 35.6549 15.9508 36.0675 16.4023L36.2045 16.5332C36.864 17.1156 37.7948 17.2942 38.6132 16.9906C39.492 16.6265 40.0521 15.7552 40.018 14.8011L40.0209 14.6779ZM44.0654 14.7879C44.0711 14.6828 43.9942 14.5912 43.8923 14.5789C42.9955 14.4758 42.0899 14.4734 41.1926 14.5717L41.1352 14.5871C41.0638 14.6185 41.0153 14.6905 41.0175 14.7694C41.0663 16.1368 40.2603 17.3907 38.9786 17.9212C37.7124 18.3916 36.2877 18.0683 35.3391 17.0873C35.2701 17.0119 35.1545 17.0024 35.0739 17.0657C34.3559 17.6292 33.7051 18.2733 33.1355 18.9838C33.0696 19.0667 33.0787 19.1864 33.1504 19.2528C34.1853 20.1802 34.5206 21.6603 33.9787 22.9597C33.4082 24.1986 32.1505 24.9752 30.7717 24.9297C30.6744 24.9235 30.5899 24.9957 30.5796 25.1036C30.4743 26.0087 30.4743 26.9231 30.581 27.8417C30.5854 27.8914 30.7427 28.0011 30.8943 28.0011C32.2269 27.9904 33.4312 28.7937 33.9332 30.0291C34.4451 31.2972 34.1171 32.7496 33.1082 33.6765C33.0323 33.7454 33.0228 33.8612 33.0874 33.9428C33.6451 34.6527 34.282 35.2966 34.9863 35.8625C35.0677 35.9281 35.1861 35.9191 35.263 35.8351C36.2041 34.8443 37.649 34.5168 38.9412 35.0111C40.2171 35.5489 41.0157 36.832 40.9346 38.2114C40.9289 38.3166 41.0058 38.4081 41.1071 38.4204C41.5668 38.4727 42.0291 38.4991 42.4923 38.4997C42.9317 38.5006 43.3707 38.4758 43.8092 38.4252C43.912 38.4138 43.9886 38.3252 43.985 38.2234C43.9335 36.8566 44.7377 35.6019 46.0194 35.0704C47.2861 34.6017 48.7102 34.9302 49.6509 35.9145C49.7199 35.99 49.8355 35.9995 49.9154 35.9367C50.6327 35.3715 51.2838 34.7271 51.8565 34.0154C51.922 33.9342 51.913 33.8161 51.8427 33.7517C50.8215 32.8518 50.4693 31.4112 50.9601 30.1418C51.4508 28.8725 52.6806 28.0432 54.0341 28.0636L54.216 28.0643C54.3214 28.07 54.413 27.9931 54.4251 27.8933C54.5258 26.9887 54.5258 26.0757 54.4252 25.1722C54.4188 25.1153 54.26 25.0007 54.1277 25.0006C52.7658 25.0306 51.5296 24.2086 51.0307 22.9414C50.5318 21.6742 50.8761 20.2303 51.8902 19.3271C51.9664 19.2581 51.9759 19.1418 51.9112 19.0603C51.35 18.3509 50.7111 17.7066 50.0081 17.1408C49.9264 17.0756 49.8079 17.0852 49.7294 17.1718C48.7892 18.1615 47.345 18.487 46.0538 17.9897C44.7834 17.4462 43.9888 16.1663 44.0654 14.7879ZM38.5006 26.4997C38.5006 24.2906 40.2915 22.4997 42.5006 22.4997C44.7097 22.4997 46.5006 24.2906 46.5006 26.4997C46.5006 28.7089 44.7097 30.4997 42.5006 30.4997C40.2915 30.4997 38.5006 28.7089 38.5006 26.4997ZM45.5006 26.4997C45.5006 24.8429 44.1575 23.4997 42.5006 23.4997C40.8438 23.4997 39.5006 24.8429 39.5006 26.4997C39.5006 28.1566 40.8438 29.4997 42.5006 29.4997C44.1575 29.4997 45.5006 28.1566 45.5006 26.4997Z" fill="url(#paint1_linear_125_50)"></path>
  <defs>
    <linearGradient id="paint0_linear_125_50" x1="91" y1="31" x2="31" y2="-29" gradientUnits="userSpaceOnUse">
      <stop stop-color="#1E85E9"></stop>
      <stop offset="0.202755" stop-color="#8671F3"></stop>
      <stop offset="0.707269" stop-color="#C06CFD" stop-opacity="0.99"></stop>
      <stop offset="1" stop-color="#FFBEE8"></stop>
    </linearGradient>
    <linearGradient id="paint1_linear_125_50" x1="59.5" y1="59" x2="5.50021" y2="-1.00018" gradientUnits="userSpaceOnUse">
      <stop stop-color="#1E85E9"></stop>
      <stop offset="0.202755" stop-color="#8671F3"></stop>
      <stop offset="0.707269" stop-color="#C06CFD" stop-opacity="0.99"></stop>
      <stop offset="1" stop-color="#FFBEE8"></stop>
    </linearGradient>
  </defs>
</svg>
