<?xml version="1.0" encoding="UTF-8"?>
<svg xmlns="http://www.w3.org/2000/svg" width="40" height="39" viewBox="0 0 40 39" fill="none">
  <path id="icon-26-7" fill-rule="evenodd" clip-rule="evenodd" d="M20 0C15.1482 0 11.215 3.9332 11.215 8.78505C11.215 13.5116 14.9477 17.3664 19.6261 17.5623V21.6158L15.2291 23.3749C13.6246 21.644 11.3313 20.5607 8.78505 20.5607C3.9332 20.5607 0 24.4939 0 29.3458C0 34.1976 3.9332 38.1308 8.78505 38.1308C13.6369 38.1308 17.5701 34.1976 17.5701 29.3458C17.5701 27.3237 16.8869 25.4611 15.7387 23.9763L20 22.2718L24.2613 23.9763C23.1131 25.4611 22.4299 27.3237 22.4299 29.3458C22.4299 34.1976 26.3631 38.1308 31.215 38.1308C36.0668 38.1308 40 34.1976 40 29.3458C40 24.4939 36.0668 20.5607 31.215 20.5607C28.6687 20.5607 26.3754 21.644 24.7709 23.3749L20.3739 21.6158V17.5623C25.0523 17.3664 28.785 13.5116 28.785 8.78505C28.785 3.9332 24.8518 0 20 0ZM20.0004 0.747559C24.4393 0.747559 28.0378 4.34602 28.0378 8.78494C28.0378 11.3404 26.8452 13.6173 24.9862 15.0894C24.2399 12.8465 22.2626 11.3037 20.0016 11.3037C17.7436 11.3037 15.7644 12.8427 15.0166 15.091C13.1564 13.6189 11.963 11.3413 11.963 8.78494C11.963 4.34602 15.5615 0.747559 20.0004 0.747559ZM15.624 15.5275C16.8833 16.3465 18.3863 16.8223 20.0004 16.8223C21.6015 16.8223 23.0933 16.3541 24.3464 15.5472C24.3431 15.5383 24.3401 15.5293 24.3374 15.5201C23.7407 13.4668 21.9922 12.0513 20.0016 12.0513C18.0576 12.0513 16.3411 13.4014 15.7067 15.3863C15.6893 15.4407 15.6606 15.4884 15.624 15.5275ZM19.9979 3.73828C18.243 3.73828 16.8203 5.16093 16.8203 6.91585C16.8203 8.67077 18.243 10.0934 19.9979 10.0934C21.7528 10.0934 23.1755 8.67077 23.1755 6.91585C23.1755 5.16093 21.7528 3.73828 19.9979 3.73828ZM19.9983 4.48584C21.3403 4.48584 22.4282 5.57375 22.4282 6.91575C22.4282 8.25775 21.3403 9.34565 19.9983 9.34565C18.6563 9.34565 17.5684 8.25775 17.5684 6.91575C17.5684 5.57375 18.6563 4.48584 19.9983 4.48584ZM5.60558 27.4769C5.60558 25.7219 7.02822 24.2993 8.78315 24.2993C10.5381 24.2993 11.9607 25.7219 11.9607 27.4769C11.9607 29.2318 10.5381 30.6544 8.78315 30.6544C7.02822 30.6544 5.60558 29.2318 5.60558 27.4769ZM11.2134 27.4768C11.2134 26.1348 10.1255 25.0469 8.78353 25.0469C7.44153 25.0469 6.35363 26.1348 6.35363 27.4768C6.35363 28.8188 7.44153 29.9067 8.78353 29.9067C10.1255 29.9067 11.2134 28.8188 11.2134 27.4768ZM16.8228 29.3462C16.8228 31.9016 15.6303 34.1784 13.7713 35.6506C13.0251 33.4074 11.0478 31.8644 8.78665 31.8644C6.52855 31.8644 4.54923 33.4037 3.80148 35.6521C1.94144 34.18 0.748047 31.9025 0.748047 29.3462C0.748047 24.9073 4.34651 21.3088 8.78543 21.3088C13.2244 21.3088 16.8228 24.9073 16.8228 29.3462ZM13.1224 36.0809C13.1251 36.0902 13.1282 36.0994 13.1315 36.1083C11.8785 36.9153 10.3866 37.3836 8.78543 37.3836C7.17119 37.3836 5.66811 36.9077 4.4088 36.0886C4.44549 36.0494 4.47427 36.0016 4.4917 35.9471C5.12614 33.9621 6.84265 32.6121 8.78665 32.6121C10.7773 32.6121 12.5257 34.0275 13.1224 36.0809ZM31.2127 24.2993C29.4578 24.2993 28.0352 25.722 28.0352 27.4769C28.0352 29.2318 29.4578 30.6545 31.2127 30.6545C32.9677 30.6545 34.3903 29.2318 34.3903 27.4769C34.3903 25.722 32.9677 24.2993 31.2127 24.2993ZM31.2131 25.0469C32.5551 25.0469 33.643 26.1348 33.643 27.4768C33.643 28.8188 32.5551 29.9067 31.2131 29.9067C29.8711 29.9067 28.7832 28.8188 28.7832 27.4768C28.7832 26.1348 29.8711 25.0469 31.2131 25.0469ZM36.2012 35.6503C38.06 34.1782 39.2526 31.9014 39.2526 29.346C39.2526 24.9071 35.6541 21.3086 31.2152 21.3086C26.7762 21.3086 23.1778 24.9071 23.1778 29.346C23.1778 31.9024 24.3713 34.18 26.2314 35.6521C26.9792 33.4036 28.9585 31.8644 31.2166 31.8644C33.4776 31.8644 35.4549 33.4073 36.2012 35.6503ZM35.5614 36.1081C35.558 36.0992 35.555 36.0901 35.5523 36.0809C34.9556 34.0275 33.2072 32.6121 31.2166 32.6121C29.2726 32.6121 27.556 33.9621 26.9216 35.9471C26.9042 36.0016 26.8754 36.0493 26.8387 36.0885C28.098 36.9076 29.601 37.3834 31.2152 37.3834C32.8164 37.3834 34.3083 36.9151 35.5614 36.1081Z" fill="url(#paint0_linear_593_728)"></path>
  <defs>
    <linearGradient id="paint0_linear_593_728" x1="60" y1="19.0654" x2="21.9128" y2="-20.8888" gradientUnits="userSpaceOnUse">
      <stop stop-color="#1E85E9"></stop>
      <stop offset="0.202755" stop-color="#8671F3"></stop>
      <stop offset="0.707269" stop-color="#C06CFD" stop-opacity="0.99"></stop>
      <stop offset="1" stop-color="#FFBEE8"></stop>
    </linearGradient>
  </defs>
</svg>
