<?xml version="1.0" encoding="UTF-8"?>
<svg xmlns="http://www.w3.org/2000/svg" width="41" height="39" viewBox="0 0 41 39" fill="none">
  <path fill-rule="evenodd" clip-rule="evenodd" d="M12.1064 33.6364H24.5455V32.702H13.4553L14.8745 28.9646H24.2346L24.5455 29.7831V28.0302H3.72454L3.56039 28.0255C2.09383 27.9402 0.930752 26.72 0.930752 25.2272L0.930398 21.489H24.5455V20.5555H0.930398L0.930752 3.73742L0.935495 3.57272C1.02047 2.10131 2.23668 0.934393 3.72454 0.934393H34.4563L34.6204 0.939151C36.087 1.02441 37.25 2.24464 37.25 3.73742L37.2498 10.9091H38.1818V3.73737C38.1818 1.67328 36.5141 0 34.4568 0H3.72506C1.66776 0 0 1.67328 0 3.73737V25.2273C0 27.2914 1.66776 28.9646 3.72506 28.9646L13.88 28.9645L12.1064 33.6364ZM20.4891 24.76C20.4891 23.986 19.8637 23.3585 19.0922 23.3585C18.3207 23.3585 17.6953 23.986 17.6953 24.76C17.6953 25.534 18.3207 26.1615 19.0922 26.1615C19.8637 26.1615 20.4891 25.534 20.4891 24.76ZM19.0913 24.2929C18.8342 24.2929 18.6257 24.502 18.6257 24.7601C18.6257 25.0181 18.8342 25.2272 19.0913 25.2272C19.3485 25.2272 19.557 25.0181 19.557 24.7601C19.557 24.502 19.3485 24.2929 19.0913 24.2929ZM27.2756 11.8182H38.1847C39.1888 11.8182 40.0028 12.6158 40.0028 13.5996V36.4006C40.0028 37.3844 39.1888 38.1819 38.1847 38.1819H27.2756C26.2714 38.1819 25.4574 37.3844 25.4574 36.4006V32.3132C25.4564 32.2999 25.456 32.2864 25.456 32.2728C25.456 32.2592 25.4564 32.2457 25.4574 32.2323V13.5996C25.4574 12.6158 26.2714 11.8182 27.2756 11.8182ZM26.3665 36.2208V32.7273H39.0938V36.2208C39.0938 36.8018 38.6189 37.2728 38.0331 37.2728H27.4271C26.8413 37.2728 26.3665 36.8018 26.3665 36.2208ZM39.0938 13.7793V31.8182H26.3665V13.7793C26.3665 13.1983 26.8413 12.7273 27.4271 12.7273H38.0331C38.6189 12.7273 39.0938 13.1983 39.0938 13.7793ZM31.1733 35.1967C31.1733 34.4142 31.8134 33.7798 32.6031 33.7798C33.3927 33.7798 34.0328 34.4142 34.0328 35.1967C34.0328 35.9792 33.3927 36.6136 32.6031 36.6136C31.8134 36.6136 31.1733 35.9792 31.1733 35.1967ZM33.3168 35.1967C33.3168 34.8054 32.9968 34.4882 32.602 34.4882C32.2071 34.4882 31.8871 34.8054 31.8871 35.1967C31.8871 35.5879 32.2071 35.9051 32.602 35.9051C32.9968 35.9051 33.3168 35.5879 33.3168 35.1967ZM35.0056 14.8997C35.0056 14.7041 34.8456 14.5455 34.6481 14.5455H30.3589L30.2946 14.5512C30.1279 14.5812 30.0014 14.7258 30.0014 14.8997C30.0014 15.0954 30.1615 15.254 30.3589 15.254H34.6481L34.7124 15.2483C34.8791 15.2183 35.0056 15.0736 35.0056 14.8997Z" fill="url(#paint0_linear_170_2)"></path>
  <defs>
    <linearGradient id="paint0_linear_170_2" x1="44.5486" y1="44.5455" x2="-5.45135" y2="-7.2762" gradientUnits="userSpaceOnUse">
      <stop stop-color="#1E85E9"></stop>
      <stop offset="0.202755" stop-color="#8671F3"></stop>
      <stop offset="0.707269" stop-color="#C06CFD" stop-opacity="0.99"></stop>
      <stop offset="1" stop-color="#FFBEE8"></stop>
    </linearGradient>
  </defs>
</svg>
