<?xml version="1.0" encoding="UTF-8"?>
<svg xmlns="http://www.w3.org/2000/svg" width="40" height="40" viewBox="0 0 40 40" fill="none">
  <g id="icon-37-6">
    <path id="Union" fill-rule="evenodd" clip-rule="evenodd" d="M6.7764 6.13416C5.46549 4.46619 5.78327 2.07451 7.4815 0.791597C9.17973 -0.491318 11.6196 -0.182899 12.9305 1.48507C14.134 3.01635 13.9648 5.15759 12.615 6.4909L18.0818 13.1385C18.6937 12.8771 19.3688 12.7322 20.0777 12.7322C20.7636 12.7322 21.4179 12.8678 22.0139 13.1134L27.213 6.49834C25.8562 5.16557 25.6841 3.0192 26.8899 1.48507C28.2008 -0.182901 30.6407 -0.49132 32.3389 0.791597C34.0371 2.07451 34.3549 4.46619 33.044 6.13415C31.8394 7.66679 29.6817 8.05154 28.022 7.10859L22.9198 13.6004C24.1722 14.4494 25.0126 15.8443 25.0803 17.4386L32.5805 19.6654C33.3739 17.9464 35.3605 17.0342 37.2424 17.593C39.2902 18.2009 40.4555 20.325 39.8317 22.3444C39.208 24.3639 37.0365 25.4973 34.9888 24.8894C33.1068 24.3306 31.9702 22.4913 32.2827 20.6296L25.0147 18.4717C24.6425 20.6365 22.8299 22.3151 20.5857 22.5373L20.5857 30.4077C22.4854 30.6519 23.9599 32.2464 23.9599 34.1877C23.9599 36.2989 22.2159 38 20.0776 38C17.9394 38 16.1953 36.2989 16.1953 34.1877C16.1953 32.2464 17.6698 30.6519 19.5695 30.4077V22.5373C17.3102 22.3135 15.4884 20.6136 15.1334 18.4278L7.71734 20.6296C8.0298 22.4913 6.89315 24.3306 5.01124 24.8894C2.96353 25.4973 0.792012 24.3639 0.168254 22.3444C-0.455504 20.325 0.709846 18.2009 2.75755 17.5929C4.63952 17.0342 6.62608 17.9464 7.41955 19.6654L15.0773 17.3918C15.1581 15.8402 15.971 14.4815 17.1812 13.6378L11.8075 7.10342C10.1466 8.05294 7.98315 7.66959 6.7764 6.13416ZM8.10645 1.58677C6.8524 2.53413 6.62101 4.29687 7.58494 5.52335C8.54888 6.74982 10.3464 6.97982 11.6005 6.03245C12.8545 5.08509 13.0859 3.32236 12.122 2.09588C11.158 0.869399 9.3605 0.639405 8.10645 1.58677ZM1.14177 22.0554C1.59821 23.5332 3.19405 24.3763 4.71343 23.9252C6.2328 23.4741 7.08346 21.9046 6.62702 20.4269C6.17057 18.9491 4.57473 18.106 3.05536 18.5571C1.53599 19.0082 0.685326 20.5777 1.14177 22.0554ZM20.0777 21.5538C22.2876 21.5538 24.0686 19.799 24.0686 17.6473C24.0686 15.4955 22.2876 13.7407 20.0777 13.7407C17.8678 13.7407 16.0868 15.4955 16.0868 17.6473C16.0868 19.799 17.8677 21.5538 20.0777 21.5538ZM20.0776 36.9916C21.6664 36.9916 22.9438 35.7304 22.9438 34.1877C22.9438 32.6449 21.6664 31.3838 20.0776 31.3838C18.4889 31.3838 17.2115 32.6449 17.2115 34.1877C17.2115 35.7304 18.4889 36.9916 20.0776 36.9916ZM38.8582 22.0554C38.4018 23.5332 36.8059 24.3763 35.2866 23.9252C33.7672 23.4741 32.9165 21.9046 33.373 20.4269C33.8294 18.9491 35.4253 18.106 36.9446 18.5571C38.464 19.0082 39.3147 20.5777 38.8582 22.0554ZM31.7139 1.58677C32.968 2.53413 33.1994 4.29687 32.2354 5.52334C31.2715 6.74982 29.474 6.97982 28.2199 6.03245C26.9659 5.08509 26.7345 3.32235 27.6984 2.09588C28.6623 0.869398 30.4599 0.639404 31.7139 1.58677Z" fill="url(#paint0_linear_24_2)"></path>
  </g>
  <defs>
    <linearGradient id="paint0_linear_24_2" x1="60" y1="19" x2="22.0499" y2="-20.9474" gradientUnits="userSpaceOnUse">
      <stop stop-color="#1E85E9"></stop>
      <stop offset="0.202755" stop-color="#8671F3"></stop>
      <stop offset="0.707269" stop-color="#C06CFD" stop-opacity="0.99"></stop>
      <stop offset="1" stop-color="#FFBEE8"></stop>
    </linearGradient>
  </defs>
</svg>
