<?xml version="1.0" encoding="UTF-8"?>
<svg xmlns="http://www.w3.org/2000/svg" width="40" height="40" viewBox="0 0 40 40" fill="none">
  <g id="icon-36-2">
    <path id="Union" fill-rule="evenodd" clip-rule="evenodd" d="M3 2.5C3 1.94772 2.55229 1.5 2 1.5C1.44772 1.5 1 1.94772 1 2.5C1 3.05228 1.44772 3.5 2 3.5C2.55229 3.5 3 3.05228 3 2.5ZM3.93699 3H8.72287L13.515 10.6674L9.0567 13.2872C8.90387 13.377 8.81001 13.541 8.81001 13.7183V26.2818C8.81001 26.4591 8.90387 26.6231 9.0567 26.7129L13.4074 29.2695L8.72287 36.7646H3.93699C3.71497 35.902 2.93192 35.2646 2 35.2646C0.895431 35.2646 0 36.1601 0 37.2646C0 38.3692 0.895431 39.2646 2 39.2646C2.93192 39.2646 3.71497 38.6273 3.93699 37.7646H9.27712L14.2698 29.7763L19.7467 32.9947C19.9031 33.0866 20.0969 33.0866 20.2533 32.9947L25.3645 29.9912L30.2229 37.7646H35.563C35.785 38.6273 36.5681 39.2646 37.5 39.2646C38.6046 39.2646 39.5 38.3692 39.5 37.2646C39.5 36.1601 38.6046 35.2646 37.5 35.2646C36.5681 35.2646 35.785 35.902 35.563 36.7646H30.7771L26.227 29.4844L30.9433 26.7129C31.0961 26.6231 31.19 26.4591 31.19 26.2818V20.5H35.563C35.785 21.3626 36.5681 22 37.5 22C38.6046 22 39.5 21.1046 39.5 20C39.5 18.8954 38.6046 18 37.5 18C36.5681 18 35.785 18.6374 35.563 19.5H31.19V13.7183C31.19 13.541 31.0961 13.377 30.9433 13.2872L26.1193 10.4525L30.7771 3H35.563C35.785 3.86261 36.5681 4.5 37.5 4.5C38.6046 4.5 39.5 3.60457 39.5 2.5C39.5 1.39543 38.6046 0.5 37.5 0.5C36.5681 0.5 35.785 1.13739 35.563 2H30.2229L25.2568 9.94566L20.2533 7.00544C20.0969 6.91355 19.9031 6.91355 19.7467 7.00544L14.3775 10.1606L9.27712 2H3.93699C3.71497 1.13739 2.93192 0.5 2 0.5C0.895431 0.5 0 1.39543 0 2.5C0 3.60457 0.895431 4.5 2 4.5C2.93192 4.5 3.71497 3.86261 3.93699 3ZM37.5 1.5C36.9477 1.5 36.5 1.94772 36.5 2.5C36.5 3.05228 36.9477 3.5 37.5 3.5C38.0523 3.5 38.5 3.05228 38.5 2.5C38.5 1.94772 38.0523 1.5 37.5 1.5ZM16.3539 16.1257C16.9673 16.0229 17.5925 16 18.2178 16C19.8693 16 21.0607 16.4457 21.0607 17.9771C21.0607 18.7657 20.6596 19.4629 19.8457 19.7714C20.8956 19.9657 21.4972 20.6857 21.4972 21.7143C21.4972 23.5314 19.9401 24 18.3475 24C17.7223 24 16.9319 23.9771 16.3539 23.8743C16.1062 23.8286 16 23.6571 16 23.4629V16.5829C16 16.3314 16.1062 16.1714 16.3539 16.1257ZM20.7658 21.7371C20.7658 20.5486 19.9047 20.16 18.3593 20.16H16.7078V23.3029C17.2858 23.36 17.8167 23.3829 18.3475 23.3829C19.8221 23.3829 20.7658 22.9943 20.7658 21.7371ZM20.3293 17.9886C20.3293 16.8914 19.3738 16.6171 18.0172 16.6171C17.51 16.6171 17.1325 16.64 16.7078 16.6743V19.5886H18.1824C19.539 19.5886 20.3293 19.1429 20.3293 17.9886ZM23.6461 23.9429C23.4102 23.9429 23.2922 23.7714 23.2922 23.5771V16.4229C23.2922 16.2286 23.4102 16.0571 23.6461 16.0571C23.882 16.0571 24 16.2286 24 16.4229V23.5771C24 23.7714 23.882 23.9429 23.6461 23.9429ZM37.5 38.2646C36.9477 38.2646 36.5 37.8169 36.5 37.2646C36.5 36.7124 36.9477 36.2646 37.5 36.2646C38.0523 36.2646 38.5 36.7124 38.5 37.2646C38.5 37.8169 38.0523 38.2646 37.5 38.2646ZM3 37.2646C3 37.8169 2.55229 38.2646 2 38.2646C1.44772 38.2646 1 37.8169 1 37.2646C1 36.7124 1.44772 36.2646 2 36.2646C2.55229 36.2646 3 36.7124 3 37.2646ZM2 19C1.44772 19 1 19.4477 1 20C1 20.5523 1.44772 21 2 21C2.55228 21 3 20.5523 3 20C3 19.4477 2.55228 19 2 19ZM0 20C0 18.8954 0.895431 18 2 18C2.93192 18 3.71497 18.6374 3.93699 19.5H8.22656V20.5H3.93699C3.71497 21.3626 2.93192 22 2 22C0.895431 22 0 21.1046 0 20ZM36.5 20C36.5 19.4477 36.9477 19 37.5 19C38.0523 19 38.5 19.4477 38.5 20C38.5 20.5523 38.0523 21 37.5 21C36.9477 21 36.5 20.5523 36.5 20ZM9.81001 14.0044V25.9957L20 31.9837L30.19 25.9957V14.0044L20 8.01646L9.81001 14.0044ZM20 10.4263L21.6809 11.3718L21.1907 12.2434L20 11.5736L18.8093 12.2434L18.3191 11.3718L20 10.4263ZM17.6809 12.8781L14.8093 14.4934L14.3191 13.6218L17.1907 12.0065L17.6809 12.8781ZM22.8093 12.0065L25.6809 13.6218L25.1907 14.4934L22.3191 12.8781L22.8093 12.0065ZM13.6809 15.1281L12.5 15.7924V17.1249H11.5V15.2075L13.1907 14.2565L13.6809 15.1281ZM26.8093 14.2565L28.5 15.2075V17.1249H27.5V15.7924L26.3191 15.1281L26.8093 14.2565ZM12.5 18.3749V21.6249H11.5V18.3749H12.5ZM28.5 18.3749V21.6249H27.5V18.3749H28.5ZM12.5 22.8749V24.2075L13.6809 24.8718L13.1907 25.7434L11.5 24.7924V22.8749H12.5ZM28.5 22.8749V24.7924L26.8093 25.7434L26.3191 24.8718L27.5 24.2075V22.8749H28.5ZM14.8093 25.5065L17.6809 27.1218L17.1907 27.9934L14.3191 26.3781L14.8093 25.5065ZM25.6809 26.3781L22.8093 27.9934L22.3191 27.1218L25.1907 25.5065L25.6809 26.3781ZM18.8093 27.7565L20 28.4263L21.1907 27.7565L21.6809 28.6281L20 29.5736L18.3191 28.6281L18.8093 27.7565Z" fill="url(#paint0_linear_10_1099)"></path>
  </g>
  <defs>
    <linearGradient id="paint0_linear_10_1099" x1="59.25" y1="19.8823" x2="20.4922" y2="-19.6107" gradientUnits="userSpaceOnUse">
      <stop stop-color="#1E85E9"></stop>
      <stop offset="0.202755" stop-color="#8671F3"></stop>
      <stop offset="0.707269" stop-color="#C06CFD" stop-opacity="0.99"></stop>
      <stop offset="1" stop-color="#FFBEE8"></stop>
    </linearGradient>
  </defs>
</svg>
