<?xml version="1.0" encoding="UTF-8"?>
<svg xmlns="http://www.w3.org/2000/svg" width="46" height="46" viewBox="0 0 46 46" fill="none">
  <path fill-rule="evenodd" clip-rule="evenodd" d="M17.7823 44.3776C16.3696 43.8134 15.0692 43.043 14.0475 42.0811C12.7545 40.8637 11.8857 39.3159 11.845 37.4799C11.8045 35.6496 12.589 33.6198 14.425 31.4357C14.5471 31.2905 14.6698 31.145 14.7932 30.9993C13.092 29.0777 11.9559 27.0339 11.2603 24.9556C8.31543 28.9826 6.29207 33.2864 5.31129 36.0832C8.32543 40.1517 12.7098 43.1438 17.7823 44.3776ZM4.61168 35.0821C5.72283 32.1349 7.78418 27.9375 10.6965 24.0359C10.7664 23.9424 10.8367 23.8489 10.9076 23.7557C10.1633 20.8289 10.2374 17.8675 10.7873 15.1129C10.6146 14.9636 10.4377 14.8308 10.2554 14.7156C9.05035 13.9543 7.97469 13.6641 7.03338 13.6725C6.09199 13.6809 5.2476 13.9883 4.50544 14.4824C3.00489 15.4816 1.95052 17.2288 1.47407 18.6581L1.43123 18.6438C1.1484 20.0519 1 21.5086 1 23C1 27.4623 2.32855 31.6144 4.61168 35.0821ZM2.55187 14.8678C2.96609 14.4115 3.4331 13.9951 3.95122 13.6501C4.82882 13.0657 5.85965 12.683 7.02447 12.6726C8.18937 12.6622 9.4509 13.0246 10.7895 13.8702C10.8708 13.9215 10.9508 13.9754 11.0296 14.0318C12.324 8.81844 15.2339 4.43998 17.334 2.58943C17.9433 2.05251 18.6304 1.62435 19.3646 1.29896C11.6874 2.57553 5.35426 7.82742 2.55187 14.8678ZM45 23C45 32.8885 38.476 41.2532 29.4975 44.0247C30.4401 43.4136 31.1555 42.6058 31.6286 41.585C32.1363 40.4896 32.3458 39.1843 32.2822 37.6747C35.9636 36.4778 38.5412 33.6122 39.5569 30.9943C39.9909 29.8757 40.172 28.5441 40.1192 27.1309C41.8215 26.1838 43.2746 25.0199 44.241 23.6675C44.54 23.2491 44.7924 22.8124 44.9908 22.3592C44.9969 22.572 45 22.7857 45 23ZM43.4457 14.8617C40.7739 8.15538 34.8982 3.07293 27.7093 1.50519C29.7377 2.51381 31.2906 4.2716 31.4946 6.69879C31.6517 8.56701 31.1242 10.5646 30.1728 12.6152C29.9922 13.0046 29.7957 13.3971 29.5848 13.7925C30.2975 13.9169 30.9772 14.1048 31.6231 14.3488C32.0239 14.5002 32.4107 14.6727 32.7834 14.8643C33.0433 14.6798 33.3148 14.5035 33.5976 14.3352C34.8504 13.5901 37.2203 12.7189 39.5606 12.9697C40.7426 13.0964 41.9295 13.5112 42.9498 14.3852C43.1209 14.5317 43.2864 14.6904 43.4457 14.8617ZM46 23C46 35.7025 35.7025 46 23 46C10.2975 46 0 35.7025 0 23C0 10.2975 10.2975 0 23 0C35.7025 0 46 10.2975 46 23ZM11.7017 22.7448C11.2392 20.4742 11.2772 18.1906 11.6393 16.0123C12.059 16.5345 12.4661 17.1542 12.8831 17.8523C13.2038 18.3892 13.5348 18.9813 13.8808 19.6001L13.8808 19.6002C13.9632 19.7475 14.0465 19.8965 14.1306 20.0465C13.2697 20.9046 12.4596 21.8119 11.7017 22.7448ZM14.7853 19.1678L14.8752 19.3289C17.2965 17.0746 20.0914 15.2346 23.2337 14.2863C25.144 13.7097 26.9087 13.5257 28.5205 13.6569C28.7933 13.163 29.0426 12.6752 29.2657 12.1944C30.1787 10.2264 30.635 8.41072 30.4982 6.78256C30.2841 4.23559 28.2477 2.47258 25.6337 1.79658C23.0191 1.12042 19.9869 1.58459 17.9951 3.3397C15.9973 5.10013 13.0627 9.5194 11.8814 14.7743C12.5685 15.4842 13.1676 16.3786 13.7416 17.3395C14.0958 17.9325 14.4369 18.5436 14.7853 19.1677L14.7853 19.1678ZM12.0022 23.973C12.8219 22.9217 13.7028 21.9035 14.6427 20.9497C14.9595 21.5004 15.2897 22.056 15.6362 22.5985C16.496 23.9443 17.4945 25.2766 18.7406 26.4342L18.1498 27.1121C17.2388 28.157 16.3315 29.1978 15.4485 30.2297C13.7174 28.243 12.6192 26.1235 12.0022 23.973ZM16.4789 22.0601C17.3031 23.3501 18.2413 24.6011 19.3971 25.6795C21.5172 23.2384 23.6055 20.7868 25.4003 18.3859C26.3574 17.1055 27.224 15.8483 27.961 14.6251C26.6079 14.5731 25.1287 14.7589 23.5227 15.2436C20.483 16.161 17.7568 17.9759 15.3802 20.2264C15.7238 20.8297 16.0842 21.4423 16.4789 22.0601ZM18.8686 27.8099L19.4969 27.0888C21.2106 28.4678 23.3595 29.5132 26.168 29.8929C27.2093 30.0336 28.3208 30.077 29.4646 30.0309C29.6358 30.6441 29.8298 31.2727 30.0463 31.9168C30.69 33.8311 31.0792 35.499 31.2261 36.9367C27.5266 37.8474 22.6379 36.9387 17.0485 31.8594C16.7267 31.567 16.4209 31.2708 16.1303 30.9711C17.0194 29.9314 17.9401 28.875 18.8686 27.8099ZM26.302 28.9019C27.2179 29.0257 28.1954 29.0697 29.2042 29.0395C28.4554 25.9895 28.3021 23.3421 28.7564 21.088C29.2117 18.8284 30.2734 16.9871 31.9111 15.552C31.7017 15.4561 31.4879 15.3667 31.2698 15.2843C30.5817 15.0244 29.8469 14.8327 29.0652 14.7229C28.2524 16.1191 27.277 17.5455 26.2012 18.9846C24.3962 21.3992 22.2839 23.8801 20.1536 26.3337C21.7453 27.6057 23.7238 28.5534 26.302 28.9019ZM30.9942 31.5981C30.8067 31.0404 30.6372 30.4967 30.4856 29.9668C33.4409 29.7162 36.5322 28.899 39.128 27.6448C39.124 28.7613 38.9542 29.7831 38.6246 30.6326C37.7302 32.9378 35.4552 35.5066 32.2005 36.6468C32.0285 35.1421 31.6194 33.4576 30.9942 31.5981ZM39.0155 26.5848L39.0813 26.5513C39.0449 26.1342 38.9871 25.7081 38.9077 25.2766C38.5361 23.2567 37.6978 21.1579 36.4126 19.3632C35.466 18.0412 34.2817 16.8904 32.8683 16.0534C31.2185 17.3841 30.174 19.1153 29.7367 21.2855C29.3108 23.3991 29.4565 25.953 30.2211 28.985C33.2236 28.7543 36.4076 27.906 39.0155 26.5848ZM43.4274 23.0861C42.6433 24.1833 41.4668 25.1775 40.0324 26.0277C39.9958 25.7188 39.9486 25.4077 39.8912 25.0957C39.4949 22.9412 38.6022 20.7034 37.2256 18.781C36.2914 17.4763 35.1302 16.3118 33.7455 15.42C33.8642 15.3433 33.9853 15.2682 34.1088 15.1947C35.2368 14.5238 37.3901 13.7428 39.4541 13.964C40.4742 14.0734 41.4597 14.4256 42.2993 15.1447C43.1387 15.8636 43.8663 16.9785 44.3215 18.6709C44.7527 20.2737 44.3801 21.7529 43.4274 23.0861ZM16.376 32.5995C22.0649 37.7692 27.2177 38.8859 31.2906 37.9493C31.3188 39.2258 31.1254 40.2927 30.7213 41.1645C29.821 43.1071 27.7863 44.2444 24.2975 44.4749C21.0717 44.6881 17.0517 43.536 14.733 41.353C13.5861 40.2732 12.8782 38.9653 12.8448 37.4578C12.8113 35.9446 13.4554 34.1432 15.1905 32.0792C15.2863 31.9651 15.3827 31.8508 15.4796 31.7363C15.7644 32.0273 16.0631 32.3152 16.376 32.5995Z" fill="url(#paint0_linear_162_2)"></path>
  <defs>
    <linearGradient id="paint0_linear_162_2" x1="69" y1="23" x2="23" y2="-23" gradientUnits="userSpaceOnUse">
      <stop stop-color="#1E85E9"></stop>
      <stop offset="0.202755" stop-color="#8671F3"></stop>
      <stop offset="0.707269" stop-color="#C06CFD" stop-opacity="0.99"></stop>
      <stop offset="1" stop-color="#FFBEE8"></stop>
    </linearGradient>
  </defs>
</svg>
