<?xml version="1.0" encoding="UTF-8"?>
<svg xmlns="http://www.w3.org/2000/svg" width="42" height="30" viewBox="0 0 42 30" fill="none">
  <path fill-rule="evenodd" clip-rule="evenodd" d="M32 13V12C32 5.92487 27.0751 1 21 1C14.9249 1 10 5.92487 10 12V13H9C4.58172 13 1 16.5817 1 21C1 25.4183 4.58172 29 9 29H33C37.4183 29 41 25.4183 41 21C41 16.5817 37.4183 13 33 13H32ZM9 30C4.02944 30 0 25.9706 0 21C0 16.0294 4.02944 12 9 12C9 5.37258 14.3726 0 21 0C27.6274 0 33 5.37258 33 12C37.9706 12 42 16.0294 42 21C42 25.9706 37.9706 30 33 30H9ZM21 15.5C14.6487 15.5 9.5 20.6487 9.5 27H8.5C8.5 20.0964 14.0964 14.5 21 14.5V15.5ZM32.5 27C32.5 24.0831 31.4147 21.421 29.6251 19.3934L30.3749 18.7317C32.3195 20.9349 33.5 23.8302 33.5 27H32.5ZM28.4431 13.2317C28.571 12.9869 28.4764 12.6848 28.2317 12.5569C27.9869 12.429 27.6848 12.5236 27.5569 12.7683L21.9341 23.5233C21.7914 23.5079 21.6465 23.5 21.5 23.5C19.2909 23.5 17.5 25.2909 17.5 27.5C17.5 27.7761 17.7239 28 18 28C18.2761 28 18.5 27.7761 18.5 27.5C18.5 25.8431 19.8431 24.5 21.5 24.5C21.7096 24.5 21.9136 24.5214 22.1102 24.562C23.4745 24.8436 24.5 26.0526 24.5 27.5C24.5 27.7761 24.7239 28 25 28C25.2761 28 25.5 27.7761 25.5 27.5C25.5 25.7966 24.4356 24.3426 22.9358 23.7656L28.4431 13.2317Z" fill="url(#paint0_linear_172_46)"></path>
  <defs>
    <linearGradient id="paint0_linear_172_46" x1="63" y1="15" x2="34.6216" y2="-24.7297" gradientUnits="userSpaceOnUse">
      <stop stop-color="#1E85E9"></stop>
      <stop offset="0.202755" stop-color="#8671F3"></stop>
      <stop offset="0.707269" stop-color="#C06CFD" stop-opacity="0.99"></stop>
      <stop offset="1" stop-color="#FFBEE8"></stop>
    </linearGradient>
  </defs>
</svg>
