<?xml version="1.0" encoding="UTF-8"?>
<svg xmlns="http://www.w3.org/2000/svg" width="40" height="40" viewBox="0 0 40 40" fill="none">
  <g id="icon-36-1">
    <path id="Union" fill-rule="evenodd" clip-rule="evenodd" d="M19.5 2C19.7761 2 20 2.22386 20 2.5V7.00982C21.4054 7.0651 22.7511 7.35241 24 7.83449V4L29.05 4C29.2816 2.85888 30.2905 2 31.5 2C32.8807 2 34 3.11929 34 4.5C34 5.88071 32.8807 7 31.5 7C30.2905 7 29.2816 6.14112 29.05 5L25 5V8.2719C27.1438 9.32402 28.9422 10.972 30.1792 13H32.05C32.2816 11.8589 33.2905 11 34.5 11C35.8807 11 37 12.1193 37 13.5C37 14.8807 35.8807 16 34.5 16C33.2905 16 32.2816 15.1411 32.05 14H30.7281C31.4735 15.5189 31.9198 17.2111 31.9902 19H36.5C36.7761 19 37 19.2239 37 19.5C37 19.7761 36.7761 20 36.5 20H31.9902C31.9198 21.7889 31.4735 23.4811 30.7281 25H32.05C32.2816 23.8589 33.2905 23 34.5 23C35.8807 23 37 24.1193 37 25.5C37 26.8807 35.8807 28 34.5 28C33.2905 28 32.2816 27.1411 32.05 26H30.1792C28.9422 28.028 27.1438 29.676 25 30.7281V34H29.05C29.2816 32.8589 30.2905 32 31.5 32C32.8807 32 34 33.1193 34 34.5C34 35.8807 32.8807 37 31.5 37C30.2905 37 29.2816 36.1411 29.05 35H24V31.1655C22.7511 31.6476 21.4054 31.9349 20 31.9902V36.5C20 36.7761 19.7761 37 19.5 37C19.2239 37 19 36.7761 19 36.5V31.9902C17.5946 31.9349 16.2489 31.6476 15 31.1655V35H9.94999C9.71836 36.1411 8.70948 37 7.5 37C6.11929 37 5 35.8807 5 34.5C5 33.1193 6.11929 32 7.5 32C8.70948 32 9.71836 32.8589 9.94999 34H14V30.7281C11.8562 29.676 10.0578 28.028 8.82081 26H6.94999C6.71836 27.1411 5.70948 28 4.5 28C3.11929 28 2 26.8807 2 25.5C2 24.1193 3.11929 23 4.5 23C5.70948 23 6.71836 23.8589 6.94999 25H8.2719C7.52648 23.4811 7.08019 21.7889 7.00982 20H2.5C2.22386 20 2 19.7761 2 19.5C2 19.2239 2.22386 19 2.5 19H7.00982C7.08019 17.2111 7.52648 15.5189 8.2719 14H6.94999C6.71836 15.1411 5.70948 16 4.5 16C3.11929 16 2 14.8807 2 13.5C2 12.1193 3.11929 11 4.5 11C5.70948 11 6.71836 11.8589 6.94999 13H8.82081C10.0578 10.972 11.8562 9.32402 14 8.2719V5L9.94999 5C9.71836 6.14112 8.70948 7 7.5 7C6.11929 7 5 5.88071 5 4.5C5 3.11929 6.11929 2 7.5 2C8.70948 2 9.71836 2.85888 9.94999 4L15 4V7.83449C16.2489 7.35241 17.5946 7.0651 19 7.00982V2.5C19 2.22386 19.2239 2 19.5 2ZM19.5 31C25.8513 31 31 25.8513 31 19.5C31 13.1487 25.8513 8 19.5 8C13.1487 8 8 13.1487 8 19.5C8 25.8513 13.1487 31 19.5 31ZM31.5 36C30.6716 36 30 35.3284 30 34.5C30 33.6716 30.6716 33 31.5 33C32.3284 33 33 33.6716 33 34.5C33 35.3284 32.3284 36 31.5 36ZM34.5 15C33.6716 15 33 14.3284 33 13.5C33 12.6716 33.6716 12 34.5 12C35.3284 12 36 12.6716 36 13.5C36 14.3284 35.3284 15 34.5 15ZM34.5 27C33.6716 27 33 26.3284 33 25.5C33 24.6716 33.6716 24 34.5 24C35.3284 24 36 24.6716 36 25.5C36 26.3284 35.3284 27 34.5 27ZM4.5 12C5.32843 12 6 12.6716 6 13.5C6 14.3284 5.32843 15 4.5 15C3.67157 15 3 14.3284 3 13.5C3 12.6716 3.67157 12 4.5 12ZM4.5 24C5.32843 24 6 24.6716 6 25.5C6 26.3284 5.32843 27 4.5 27C3.67157 27 3 26.3284 3 25.5C3 24.6716 3.67157 24 4.5 24ZM7.5 33C8.32843 33 9 33.6716 9 34.5C9 35.3284 8.32843 36 7.5 36C6.67157 36 6 35.3284 6 34.5C6 33.6716 6.67157 33 7.5 33ZM31.5 6C30.6716 6 30 5.32843 30 4.5C30 3.67157 30.6716 3 31.5 3C32.3284 3 33 3.67157 33 4.5C33 5.32843 32.3284 6 31.5 6ZM19 10.5C19 10.2239 19.2239 10 19.5 10C24.7467 10 29 14.2533 29 19.5C29 24.7467 24.7467 29 19.5 29C14.2533 29 10 24.7467 10 19.5C10 19.2239 10.2239 19 10.5 19C10.7761 19 11 19.2239 11 19.5C11 24.1944 14.8056 28 19.5 28C24.1944 28 28 24.1944 28 19.5C28 14.8056 24.1944 11 19.5 11C19.2239 11 19 10.7761 19 10.5ZM15.4159 21.59C14.0209 21.59 13.2649 20.6 13.2649 19.295C13.2649 17.99 14.0209 17 15.4159 17C16.8109 17 17.5759 17.999 17.5759 19.295C17.5759 20.6 16.8109 21.59 15.4159 21.59ZM15.4159 17.864C14.6779 17.864 14.3089 18.485 14.3089 19.295C14.3089 20.114 14.6869 20.726 15.4159 20.726C16.1629 20.726 16.5319 20.114 16.5319 19.295C16.5319 18.485 16.1629 17.864 15.4159 17.864ZM18.4519 18.26C18.4519 17.423 19.0999 17 20.0449 17C20.5669 17 21.0349 17.126 21.3319 17.297C21.6199 17.459 21.6739 17.684 21.5839 17.891C21.4849 18.107 21.3049 18.152 21.0169 18.062L20.9846 18.0493C20.7354 17.9511 20.3999 17.819 20.0809 17.819C19.6669 17.819 19.4779 17.972 19.4779 18.224C19.4779 18.5749 19.8853 18.7125 20.3548 18.8709C20.993 19.0864 21.7459 19.3405 21.7459 20.222C21.7459 21.077 21.1789 21.59 19.9639 21.59C19.5049 21.59 18.9199 21.482 18.5599 21.248C18.3169 21.077 18.2359 20.87 18.3529 20.627C18.4879 20.348 18.7759 20.411 19.0099 20.519C19.3519 20.672 19.7209 20.771 20.0539 20.771C20.5039 20.771 20.7199 20.618 20.7199 20.312C20.7199 19.9505 20.3144 19.8126 19.8463 19.6535C19.2074 19.4363 18.4519 19.1794 18.4519 18.26ZM22.53 18.26C22.53 17.423 23.178 17 24.123 17C24.645 17 25.113 17.126 25.41 17.297C25.698 17.459 25.752 17.684 25.662 17.891C25.563 18.107 25.383 18.152 25.095 18.062L25.0627 18.0493C24.8135 17.9511 24.478 17.819 24.159 17.819C23.745 17.819 23.556 17.972 23.556 18.224C23.556 18.5749 23.9634 18.7125 24.4329 18.8709C25.0711 19.0864 25.824 19.3405 25.824 20.222C25.824 21.077 25.257 21.59 24.042 21.59C23.583 21.59 22.998 21.482 22.638 21.248C22.395 21.077 22.314 20.87 22.431 20.627C22.566 20.348 22.854 20.411 23.088 20.519C23.43 20.672 23.799 20.771 24.132 20.771C24.582 20.771 24.798 20.618 24.798 20.312C24.798 19.9505 24.3925 19.8126 23.9244 19.6535C23.2855 19.4363 22.53 19.1794 22.53 18.26ZM6 4.5C6 3.67157 6.67157 3 7.5 3C8.32843 3 9 3.67157 9 4.5C9 5.32843 8.32843 6 7.5 6C6.67157 6 6 5.32843 6 4.5Z" fill="url(#paint0_linear_10_1049)"></path>
  </g>
  <defs>
    <linearGradient id="paint0_linear_10_1049" x1="54.5" y1="20.81" x2="16.9778" y2="-14.099" gradientUnits="userSpaceOnUse">
      <stop stop-color="#1E85E9"></stop>
      <stop offset="0.202755" stop-color="#8671F3"></stop>
      <stop offset="0.707269" stop-color="#C06CFD" stop-opacity="0.99"></stop>
      <stop offset="1" stop-color="#FFBEE8"></stop>
    </linearGradient>
  </defs>
</svg>
