<?xml version="1.0" encoding="UTF-8"?>
<svg xmlns="http://www.w3.org/2000/svg" width="37" height="37" viewBox="0 0 37 37" fill="none">
  <g id="Group 8755">
    <g id="Group 8757">
      <path id="Union" fill-rule="evenodd" clip-rule="evenodd" d="M11.6729 19.8607C11.1289 19.9523 10.57 20 10 20C4.47715 20 0 15.5228 0 10C0 4.47715 4.47715 0 10 0C15.5228 0 20 4.47715 20 10C20 10.57 19.9523 11.1289 19.8607 11.6729C21.1609 11.2365 22.5528 11 24 11C31.1797 11 37 16.8203 37 24C37 31.1797 31.1797 37 24 37C16.8203 37 11 31.1797 11 24C11 22.5528 11.2365 21.1609 11.6729 19.8607ZM18.7531 12.1023C18.9145 11.4279 19 10.7239 19 10C19 5.02944 14.9706 1 10 1C5.02944 1 1 5.02944 1 10C1 14.9706 5.02944 19 10 19C10.7239 19 11.4279 18.9145 12.1023 18.7531C13.4103 15.7916 15.7916 13.4103 18.7531 12.1023ZM6.53589 13C6.32715 12.8192 6.01138 12.8419 5.8306 13.0506C5.64982 13.2594 5.67249 13.5751 5.88124 13.7559C6.37391 14.1826 7.0231 14.4909 7.72264 14.6928C8.43012 14.897 9.21415 15 9.99999 15C10.7858 15 11.5699 14.897 12.2773 14.6928C12.9769 14.4909 13.6261 14.1826 14.1187 13.7559C14.3275 13.5751 14.3502 13.2594 14.1694 13.0506C13.9886 12.8419 13.6728 12.8192 13.4641 13C13.113 13.304 12.6081 13.5565 12 13.732C11.3919 13.9076 10.7021 14 9.99999 14C9.29784 14 8.60807 13.9076 7.99999 13.732C7.3919 13.5565 6.88696 13.304 6.53589 13ZM8 8C8 8.55229 7.55228 9 7 9C6.44772 9 6 8.55229 6 8C6 7.44772 6.44772 7 7 7C7.55228 7 8 7.44772 8 8ZM13 9C13.5523 9 14 8.55229 14 8C14 7.44772 13.5523 7 13 7C12.4477 7 12 7.44772 12 8C12 8.55229 12.4477 9 13 9ZM24 36.0714C30.6669 36.0714 36.0714 30.6669 36.0714 24C36.0714 17.3331 30.6669 11.9286 24 11.9286C17.3331 11.9286 11.9286 17.3331 11.9286 24C11.9286 30.6669 17.3331 36.0714 24 36.0714ZM18.6988 30.6593C18.8667 30.8531 19.1599 30.8742 19.3537 30.7063C19.8246 30.2985 20.5019 29.9599 21.3175 29.7244C22.1331 29.489 23.0582 29.3651 24 29.3651C24.9418 29.3651 25.8669 29.489 26.6825 29.7244C27.4981 29.9599 28.1754 30.2985 28.6463 30.7063C28.8401 30.8742 29.1333 30.8531 29.3012 30.6593C29.4691 30.4655 29.448 30.1723 29.2542 30.0044C28.6518 29.4827 27.8406 29.0923 26.9401 28.8323C26.0322 28.5702 25.0195 28.4365 24 28.4365C22.9805 28.4365 21.9678 28.5702 21.0599 28.8323C20.1594 29.0923 19.3482 29.4827 18.7458 30.0044C18.552 30.1723 18.5309 30.4655 18.6988 30.6593ZM19.9762 22.6588C20.717 22.6588 21.3175 22.0583 21.3175 21.3175C21.3175 20.5768 20.717 19.9763 19.9762 19.9763C19.2354 19.9763 18.6349 20.5768 18.6349 21.3175C18.6349 22.0583 19.2354 22.6588 19.9762 22.6588ZM29.3651 21.3175C29.3651 22.0583 28.7646 22.6588 28.0238 22.6588C27.283 22.6588 26.6825 22.0583 26.6825 21.3175C26.6825 20.5768 27.283 19.9763 28.0238 19.9763C28.7646 19.9763 29.3651 20.5768 29.3651 21.3175Z" fill="url(#paint0_linear_10_1242)"></path>
    </g>
  </g>
  <defs>
    <linearGradient id="paint0_linear_10_1242" x1="55.5" y1="18.5" x2="18.5" y2="-18.5" gradientUnits="userSpaceOnUse">
      <stop stop-color="#1E85E9"></stop>
      <stop offset="0.202755" stop-color="#8671F3"></stop>
      <stop offset="0.707269" stop-color="#C06CFD" stop-opacity="0.99"></stop>
      <stop offset="1" stop-color="#FFBEE8"></stop>
    </linearGradient>
  </defs>
</svg>
