<?xml version="1.0" encoding="UTF-8"?>
<svg xmlns="http://www.w3.org/2000/svg" width="35" height="40" viewBox="0 0 35 40" fill="none">
  <path fill-rule="evenodd" clip-rule="evenodd" d="M6.77817 4.95199C6.22797 5.59354 5.41145 6 4.5 6C2.84315 6 1.5 4.65685 1.5 3C1.5 1.34315 2.84315 0 4.5 0C6.15685 0 7.5 1.34315 7.5 3C7.5 3.38633 7.42698 3.7556 7.29398 4.09477L13.9703 8.38668C14.5032 7.55284 15.437 7 16.5 7C18.1569 7 19.5 8.34315 19.5 10C19.5 10.4779 19.3883 10.9296 19.1895 11.3306L25.9646 15.3957C26.4965 14.5568 27.4332 14 28.5 14C30.1569 14 31.5 15.3431 31.5 17C31.5 18.6569 30.1569 20 28.5 20C26.8431 20 25.5 18.6569 25.5 17C25.5 16.7691 25.5261 16.5443 25.5755 16.3284L18.5996 12.1428C18.0585 12.6731 17.3174 13 16.5 13C14.8431 13 13.5 11.6569 13.5 10C13.5 9.76702 13.5266 9.54025 13.5768 9.32254L6.77817 4.95199ZM6.5 3C6.5 4.10457 5.60457 5 4.5 5C3.39543 5 2.5 4.10457 2.5 3C2.5 1.89543 3.39543 1 4.5 1C5.60457 1 6.5 1.89543 6.5 3ZM18.5 10C18.5 11.1046 17.6046 12 16.5 12C15.3954 12 14.5 11.1046 14.5 10C14.5 8.89543 15.3954 8 16.5 8C17.6046 8 18.5 8.89543 18.5 10ZM28.5 19C29.6046 19 30.5 18.1046 30.5 17C30.5 15.8954 29.6046 15 28.5 15C27.3954 15 26.5 15.8954 26.5 17C26.5 18.1046 27.3954 19 28.5 19ZM1.5 11.5C0.671573 11.5 0 12.1716 0 13V34C0 34.8284 0.671573 35.5 1.5 35.5H7.5C8.32843 35.5 9 34.8284 9 34V13C9 12.1716 8.32843 11.5 7.5 11.5H1.5ZM1 13C1 12.7239 1.22386 12.5 1.5 12.5H7.5C7.77614 12.5 8 12.7239 8 13V34C8 34.2761 7.77614 34.5 7.5 34.5H1.5C1.22386 34.5 1 34.2761 1 34V13ZM13.5 17.5C12.6716 17.5 12 18.1716 12 19V34C12 34.8284 12.6716 35.5 13.5 35.5H19.5C20.3284 35.5 21 34.8284 21 34V30.0753V30V19C21 18.1716 20.3284 17.5 19.5 17.5H13.5ZM20 30.0754V19C20 18.7239 19.7761 18.5 19.5 18.5H13.5C13.2239 18.5 13 18.7239 13 19V34C13 34.2761 13.2239 34.5 13.5 34.5H19.5C19.7761 34.5 20 34.2761 20 34V30.0754ZM25.4203 21.1464C25.5141 21.0527 25.6413 21 25.7739 21H31.5383C31.8144 21 32.0383 21.2238 32.0383 21.5L32.0389 29.2138L32.0391 29.2162L34.4999 29.2156C34.6812 29.2156 34.8484 29.3137 34.9367 29.4722C35.025 29.6306 35.0206 29.8244 34.9253 29.9786L28.8746 39.763C28.7832 39.9109 28.6214 40.0006 28.4475 40C28.2736 39.9993 28.1125 39.9084 28.0221 39.7598L22.0728 29.9754C21.9789 29.821 21.9756 29.628 22.0642 29.4705C22.1528 29.313 22.3194 29.2156 22.5001 29.2156L25.2739 29.2162L25.2739 21.5C25.2739 21.3674 25.3265 21.2402 25.4203 21.1464ZM25.4307 29.7084L25.4821 30.2058L25.4069 30.2136C25.3898 30.2153 25.3726 30.2162 25.3554 30.2162L23.3893 30.2158L28.453 38.5435L33.6028 30.2158L31.9573 30.2162C31.4514 30.2162 31.1163 29.8083 31.0517 29.3977C31.0497 29.3848 31.0481 29.3718 31.0471 29.3588L31.0404 29.2719C31.0394 29.2591 31.0389 29.2462 31.0389 29.2333L31.0383 22H26.2739L26.2739 29.2332C26.2739 29.6616 26.0017 30.0997 25.5332 30.1978L25.4307 29.7084Z" fill="url(#paint0_linear_126_198)"></path>
  <defs>
    <linearGradient id="paint0_linear_126_198" x1="39.4458" y1="-0.225282" x2="-5.05184" y2="-3.43557" gradientUnits="userSpaceOnUse">
      <stop stop-color="#1E85E9"></stop>
      <stop offset="0.202755" stop-color="#8671F3"></stop>
      <stop offset="0.707269" stop-color="#C06CFD" stop-opacity="0.99"></stop>
      <stop offset="1" stop-color="#FFBEE8"></stop>
    </linearGradient>
  </defs>
</svg>
