<?xml version="1.0" encoding="UTF-8"?>
<svg xmlns="http://www.w3.org/2000/svg" width="62" height="62" viewBox="0 0 62 62" fill="none">
  <g opacity="0.0620722">
    <rect x="1" y="1" width="60" height="60" rx="4" fill="#FAFAFA"></rect>
    <rect x="1" y="1" width="60" height="60" rx="4" fill="url(#paint0_linear_125_86)"></rect>
    <rect x="1" y="1" width="60" height="60" rx="4" stroke="black" stroke-opacity="0.02"></rect>
  </g>
  <path fill-rule="evenodd" clip-rule="evenodd" d="M29 13C20.1634 13 13 20.1634 13 29C13 37.8366 20.1634 45 29 45C32.6864 45 36.0817 43.7533 38.7871 41.6585L45.4445 48.3159C46.0303 48.9016 46.9801 48.9016 47.5659 48.3159C48.1172 47.7645 48.1496 46.8908 47.6632 46.3015L47.5659 46.1945L40.9787 39.6074C43.4808 36.7839 45 33.0693 45 29C45 25.2715 43.7247 21.8409 41.5865 19.1206L42.1213 18.5858C42.5165 18.8476 42.9905 19 43.5 19C44.7095 19 45.7184 18.1411 45.95 17H48V16H45.95C45.7184 14.8589 44.7095 14 43.5 14C42.1193 14 41 15.1193 41 16.5C41 17.0095 41.1524 17.4835 41.4142 17.8787L40.9418 18.3511C38.0116 15.0675 33.7472 13 29 13ZM40.2335 19.0594C37.4853 15.9562 33.4711 14 29 14C20.7157 14 14 20.7157 14 29C14 37.2843 20.7157 44 29 44C37.2843 44 44 37.2843 44 29C44 25.5479 42.8338 22.3681 40.874 19.8332L40.1606 20.5465C41.9426 22.8954 43 25.8242 43 29C43 36.732 36.732 43 29 43C21.268 43 15 36.732 15 29C15 21.268 21.268 15 29 15C33.195 15 36.9591 16.8451 39.525 19.768L40.2335 19.0594ZM38.8162 20.4767C36.4328 17.734 32.9189 16 29 16C22.8528 16 17.7022 20.2666 16.3479 26H19.05C19.2816 24.8589 20.2905 24 21.5 24C22.8807 24 24 25.1193 24 26.5C24 27.0096 23.8476 27.4835 23.5858 27.8787L26.1213 30.4142C26.5165 30.1524 26.9904 30 27.5 30C28.0095 30 28.4835 30.1524 28.8787 30.4142L32.4142 26.8787C32.1524 26.4835 32 26.0095 32 25.5C32 24.1193 33.1193 23 34.5 23C35.0095 23 35.4835 23.1524 35.8787 23.4142L38.8162 20.4767ZM16.1529 27C16.0522 27.6519 16 28.3199 16 29C16 36.1797 21.8203 42 29 42C36.1797 42 42 36.1797 42 29C42 26.1007 41.0509 23.423 39.4463 21.2608L36.5858 24.1213C36.8476 24.5165 37 24.9905 37 25.5C37 26.8807 35.8807 28 34.5 28C33.9905 28 33.5165 27.8476 33.1213 27.5858L29.5858 31.1213C29.8476 31.5165 30 31.9905 30 32.5C30 33.8807 28.8807 35 27.5 35C26.1193 35 25 33.8807 25 32.5C25 31.9905 25.1524 31.5166 25.4142 31.1213L22.8787 28.5858C22.4834 28.8476 22.0095 29 21.5 29C20.2905 29 19.2816 28.1411 19.05 27H16.1529ZM40.2922 40.3351C40.056 40.5705 39.8124 40.7986 39.5618 41.0189L46.1516 47.6088L46.2209 47.6666C46.4158 47.8016 46.6852 47.7823 46.8588 47.6088C47.054 47.4135 47.054 47.0969 46.8588 46.9016L40.2922 40.3351ZM45 16.5C45 17.3284 44.3284 18 43.5 18C42.6716 18 42 17.3284 42 16.5C42 15.6716 42.6716 15 43.5 15C44.3284 15 45 15.6716 45 16.5ZM34.5 27C35.3284 27 36 26.3284 36 25.5C36 24.6716 35.3284 24 34.5 24C33.6716 24 33 24.6716 33 25.5C33 26.3284 33.6716 27 34.5 27ZM23 26.5C23 27.3284 22.3284 28 21.5 28C20.6716 28 20 27.3284 20 26.5C20 25.6716 20.6716 25 21.5 25C22.3284 25 23 25.6716 23 26.5ZM29 32.5C29 33.3284 28.3284 34 27.5 34C26.6716 34 26 33.3284 26 32.5C26 31.6716 26.6716 31 27.5 31C28.3284 31 29 31.6716 29 32.5Z" fill="url(#paint1_linear_125_86)"></path>
  <defs>
    <linearGradient id="paint0_linear_125_86" x1="91" y1="31" x2="31" y2="-29" gradientUnits="userSpaceOnUse">
      <stop stop-color="#1E85E9"></stop>
      <stop offset="0.202755" stop-color="#8671F3"></stop>
      <stop offset="0.707269" stop-color="#C06CFD" stop-opacity="0.99"></stop>
      <stop offset="1" stop-color="#FFBEE8"></stop>
    </linearGradient>
    <linearGradient id="paint1_linear_125_86" x1="52.4516" y1="12.7986" x2="8.00538" y2="9.21083" gradientUnits="userSpaceOnUse">
      <stop stop-color="#1E85E9"></stop>
      <stop offset="0.202755" stop-color="#8671F3"></stop>
      <stop offset="0.707269" stop-color="#C06CFD" stop-opacity="0.99"></stop>
      <stop offset="1" stop-color="#FFBEE8"></stop>
    </linearGradient>
  </defs>
</svg>
