<?xml version="1.0" encoding="UTF-8"?>
<svg xmlns="http://www.w3.org/2000/svg" width="62" height="62" viewBox="0 0 62 62" fill="none">
  <g id="icon-37-3">
    <g id="Rectangle Copy 2" opacity="0.0620722">
      <rect x="1" y="1" width="60" height="60" rx="4" fill="#FAFAFA"></rect>
      <rect x="1" y="1" width="60" height="60" rx="4" fill="url(#paint0_linear_10_1192)"></rect>
      <rect x="1" y="1" width="60" height="60" rx="4" stroke="black" stroke-opacity="0.02"></rect>
    </g>
    <path id="ico-speed" fill-rule="evenodd" clip-rule="evenodd" d="M10.5 31C10.5 19.6782 19.6782 10.5 31 10.5C42.3218 10.5 51.5 19.6782 51.5 31C51.5 36.5105 49.315 41.6763 45.4957 45.4957C41.6763 49.315 36.5105 51.5 31 51.5C27.7287 51.5 24.5663 50.7327 21.7138 49.2809C14.89 45.8079 10.5 38.7953 10.5 31ZM31.5 11.5063V16.6437H30.5V11.5063C24.8757 11.6478 19.843 14.1708 16.3723 18.1046L20.0763 21.1041L19.447 21.8812L15.73 18.8712C13.0821 22.2005 11.5 26.4155 11.5 31C11.5 32.123 11.5958 33.2289 11.7809 34.3087L16.8873 33.1298L17.1122 34.1041L11.9752 35.2901C13.2172 40.8132 16.8174 45.5539 21.8696 48.2349L24.3349 43.1507L25.2337 43.589L22.7647 48.681C25.3187 49.8728 28.1139 50.5 31 50.5C33.9031 50.5 36.7049 49.8629 39.2444 48.6772L36.7658 43.5896L37.6646 43.1512L40.1394 48.2309C41.8393 47.3277 43.4064 46.1707 44.7886 44.7886C47.4084 42.1688 49.2194 38.8843 50.0261 35.2907L44.8855 34.1039L45.1104 33.1295L50.22 34.3091C50.405 33.2274 50.5 32.1212 50.5 31C50.5 26.4156 48.918 22.2006 46.2701 18.8713L42.5534 21.881L41.9241 21.1039L45.6277 18.1047C42.1571 14.1708 37.1243 11.6478 31.5 11.5063ZM40.4113 22.7731C38.0568 20.0807 34.6571 18.5 31 18.5C24.0964 18.5 18.5 24.0964 18.5 31C18.5 35.7531 21.1769 40.0292 25.3376 42.1468L25.7912 41.2556L25.5135 41.1095C21.8439 39.1149 19.5 35.2666 19.5 31C19.5 24.6487 24.6487 19.5 31 19.5C34.3006 19.5 37.3717 20.8984 39.5328 23.2899L35.5523 25.4975C32.1866 27.3814 30.3351 28.4727 29.9218 28.8195C29.2769 29.3606 29.0014 30.2108 29.1877 31.0162C29.2657 31.3533 29.422 31.6687 29.6489 31.939C30.0312 32.3947 30.5713 32.6708 31.1521 32.7216C31.7329 32.7724 32.3128 32.5943 32.7684 32.212L32.8516 32.1374C33.4897 31.5363 35.5623 29.0579 39.1756 24.5857L39.9715 23.6007L40.6432 23.046L40.5286 22.9111L40.7827 22.5966L40.4284 22.7931L40.4113 22.7731ZM36.7723 25.961L34.7857 28.3842C33.2917 30.1885 32.3957 31.2193 32.1252 31.4463C31.8748 31.6565 31.558 31.7537 31.2388 31.7258C30.9196 31.6979 30.6245 31.5471 30.4144 31.2967C30.2895 31.1478 30.2042 30.9756 30.1615 30.7913C30.0592 30.3489 30.2102 29.8829 30.5641 29.586L30.6505 29.5193C31.0358 29.2385 32.1751 28.559 34.0417 27.4976L36.7723 25.961Z" fill="url(#paint1_linear_10_1192)"></path>
  </g>
  <defs>
    <linearGradient id="paint0_linear_10_1192" x1="91" y1="31" x2="31" y2="-29" gradientUnits="userSpaceOnUse">
      <stop stop-color="#1E85E9"></stop>
      <stop offset="0.202755" stop-color="#8671F3"></stop>
      <stop offset="0.707269" stop-color="#C06CFD" stop-opacity="0.99"></stop>
      <stop offset="1" stop-color="#FFBEE8"></stop>
    </linearGradient>
    <linearGradient id="paint1_linear_10_1192" x1="72" y1="31" x2="31" y2="-10" gradientUnits="userSpaceOnUse">
      <stop stop-color="#1E85E9"></stop>
      <stop offset="0.202755" stop-color="#8671F3"></stop>
      <stop offset="0.707269" stop-color="#C06CFD" stop-opacity="0.99"></stop>
      <stop offset="1" stop-color="#FFBEE8"></stop>
    </linearGradient>
  </defs>
</svg>
