<?xml version="1.0" encoding="UTF-8"?>
<svg xmlns="http://www.w3.org/2000/svg" width="40" height="40" viewBox="0 0 40 40" fill="none">
  <g id="icon-36-4">
    <path id="Combined Shape" fill-rule="evenodd" clip-rule="evenodd" d="M22.3248 3.29096C22.096 1.98922 20.9581 1 19.5887 1H17.4113L17.2481 1.00471C15.9523 1.07967 14.8948 2.04131 14.6752 3.29096H12.2167C11.4334 3.29096 10.7667 3.84564 10.7667 4.57777V5.22118H6.35222L6.19179 5.22635C4.97208 5.30532 4 6.27788 4 7.47744V36.7437L4.00545 36.8989C4.08861 38.0774 5.11236 39 6.35222 39H30.6478L30.8082 38.9948C32.0279 38.9159 33 37.9433 33 36.7437V31.9705C32.6938 32.2778 32.3711 32.5685 32.0333 32.8412V36.7437L32.027 36.8672C31.9604 37.5178 31.373 38.0349 30.6478 38.0349H6.35222L6.21795 38.0289C5.51145 37.9658 4.96667 37.4096 4.96667 36.7437V7.47744L4.97296 7.35398C5.03956 6.70333 5.627 6.18628 6.35222 6.18628H10.7667V7.7948C10.7667 8.52693 11.4334 9.08161 12.2167 9.08161H24.7833C25.5666 9.08161 26.2333 8.52693 26.2333 7.7948V6.18628H30.6478L30.782 6.19225C31.4885 6.25538 32.0333 6.81159 32.0333 7.47744V14.1588C32.3711 14.4315 32.6938 14.7222 33 15.0295V7.47744L32.9945 7.32232C32.9114 6.14375 31.8876 5.22118 30.6478 5.22118H26.2333V4.57777C26.2333 3.84564 25.5666 3.29096 24.7833 3.29096H22.3248ZM21.3348 3.29096C21.1354 2.5702 20.5003 2.02998 19.7302 1.97055L19.5887 1.96511H17.4113C16.5783 1.96511 15.8767 2.52648 15.6652 3.29096H21.3348ZM15.1167 4.25607H21.8833L24.7833 4.25607C25.0678 4.25607 25.2667 4.42154 25.2667 4.57777V7.7948C25.2667 7.95103 25.0678 8.1165 24.7833 8.1165H12.2167C11.9322 8.1165 11.7333 7.95103 11.7333 7.7948V4.57777C11.7333 4.42154 11.9322 4.25607 12.2167 4.25607L15.1167 4.25607ZM7.38333 13.9072H11.25C11.5169 13.9072 11.7333 14.1232 11.7333 14.3897V18.2502C11.7333 18.5167 11.5169 18.7327 11.25 18.7327H7.38333C7.1164 18.7327 6.9 18.5167 6.9 18.2502V14.3897C6.9 14.1232 7.1164 13.9072 7.38333 13.9072ZM10.7667 17.7668V14.8715H7.86667V17.7668H10.7667ZM11.25 20.6629H7.38333C7.1164 20.6629 6.9 20.879 6.9 21.1455V25.0059C6.9 25.2724 7.1164 25.4885 7.38333 25.4885H11.25C11.5169 25.4885 11.7333 25.2724 11.7333 25.0059V21.1455C11.7333 20.879 11.5169 20.6629 11.25 20.6629ZM10.7667 21.6273V24.5226H7.86667V21.6273H10.7667ZM7.38333 27.4187H11.25C11.5169 27.4187 11.7333 27.6347 11.7333 27.9012V31.7617C11.7333 32.0282 11.5169 32.2442 11.25 32.2442H7.38333C7.1164 32.2442 6.9 32.0282 6.9 31.7617V27.9012C6.9 27.6347 7.1164 27.4187 7.38333 27.4187ZM10.7667 31.2784V28.383H7.86667V31.2784H10.7667ZM13.5 23.5C13.5 17.4249 18.4249 12.5 24.5 12.5C30.5751 12.5 35.5 17.4249 35.5 23.5C35.5 29.5751 30.5751 34.5 24.5 34.5C18.4249 34.5 13.5 29.5751 13.5 23.5ZM34.5 23.5C34.5 17.9772 30.0228 13.5 24.5 13.5C18.9772 13.5 14.5 17.9772 14.5 23.5C14.5 29.0228 18.9772 33.5 24.5 33.5C30.0228 33.5 34.5 29.0228 34.5 23.5ZM31.1851 20.168C31.0018 19.9615 30.6857 19.9428 30.4793 20.1262L22.415 27.288L18.8798 23.1587L18.8152 23.0957C18.6314 22.946 18.3613 22.9444 18.1748 23.1041C17.9651 23.2837 17.9406 23.5993 18.1202 23.8091L21.9869 28.3252L22.0523 28.3889C22.2387 28.54 22.5128 28.5389 22.6987 28.3738L31.1433 20.8738L31.2052 20.8081C31.3514 20.6216 31.3481 20.3515 31.1851 20.168Z" fill="url(#paint0_linear_10_1075)"></path>
  </g>
  <defs>
    <linearGradient id="paint0_linear_10_1075" x1="51.25" y1="20" x2="13.909" y2="-10.9537" gradientUnits="userSpaceOnUse">
      <stop stop-color="#1E85E9"></stop>
      <stop offset="0.202755" stop-color="#8671F3"></stop>
      <stop offset="0.707269" stop-color="#C06CFD" stop-opacity="0.99"></stop>
      <stop offset="1" stop-color="#FFBEE8"></stop>
    </linearGradient>
  </defs>
</svg>
