<?xml version="1.0" encoding="UTF-8"?>
<svg xmlns="http://www.w3.org/2000/svg" width="40" height="40" viewBox="0 0 40 40" fill="none">
  <g id="icon-36-5">
    <g id="icon-36-5_2">
      <path id="Union" fill-rule="evenodd" clip-rule="evenodd" d="M4.03036 3.51085C4.03036 2.13599 5.14402 1.02564 6.51258 1.02564C7.88115 1.02564 8.99481 2.13599 8.99481 3.51085C8.99481 4.88572 7.88115 5.99606 6.51258 5.99606C5.14402 5.99606 4.03036 4.88572 4.03036 3.51085ZM6.51258 0C4.57031 0 3 1.57418 3 3.51085C3 5.44752 4.57031 7.0217 6.51258 7.0217C8.28023 7.0217 9.73979 5.71786 9.98796 4.02355H15.2543L17.9848 7.43748V11.9927H14.4724C14.2244 10.2982 12.7647 8.99414 10.997 8.99414C9.05469 8.99414 7.48438 10.5683 7.48438 12.505C7.48438 14.4417 9.05469 16.0158 10.997 16.0158C12.7644 16.0158 14.2238 14.7123 14.4722 13.0183H18.2007L20.6813 17.3601C20.0688 17.8974 19.6452 18.644 19.5216 19.4873H9.98793C9.7397 17.7931 8.28017 16.4893 6.51258 16.4893C4.57031 16.4893 3 18.0635 3 20.0002C3 21.9368 4.57031 23.511 6.51258 23.511C8.2802 23.511 9.73975 22.2072 9.98795 20.5129H19.5216C19.6451 21.3562 20.0687 22.1027 20.681 22.6398L18.2 26.9824H14.4724C14.2244 25.2879 12.7647 23.9839 10.997 23.9839C9.05469 23.9839 7.48438 25.5581 7.48438 27.4947C7.48438 29.4314 9.05469 31.0056 10.997 31.0056C12.7644 31.0056 14.2238 29.7021 14.4722 28.0081H17.9848V32.562L15.2543 35.976H9.98791C9.7396 34.2818 8.28011 32.9781 6.51258 32.9781C4.57031 32.9781 3 34.5523 3 36.489C3 38.4257 4.57031 39.9998 6.51258 39.9998C8.28026 39.9998 9.73985 38.696 9.98797 37.0016H15.751L18.6893 33.328C20.0468 33.7664 21.4945 34.003 22.9965 34.003C30.7327 34.003 37 27.7309 37 19.9991C37 12.2672 30.7327 5.99512 22.9965 5.99512C21.4941 5.99512 20.0462 6.23189 18.6884 6.67046L15.751 2.99791H9.98792C9.73965 1.30372 8.28015 0 6.51258 0ZM22.997 16.4893C22.4798 16.4893 21.989 16.6009 21.5472 16.8012L19.0152 12.3692V7.64319C20.2691 7.23915 21.6069 7.02076 22.9965 7.02076C30.159 7.02076 35.9696 12.829 35.9696 19.9991C35.9696 27.1691 30.159 32.9774 22.9965 32.9774C21.6069 32.9774 20.2691 32.759 19.0152 32.355V27.6303L21.5469 23.1989C21.9888 23.3993 22.4797 23.511 22.997 23.511C24.9392 23.511 26.5095 21.9368 26.5095 20.0001C26.5095 18.0634 24.9392 16.4893 22.997 16.4893ZM22.997 17.5149C21.6284 17.5149 20.5147 18.6252 20.5147 20.0001C20.5147 21.375 21.6284 22.4853 22.997 22.4853C24.3655 22.4853 25.4792 21.375 25.4792 20.0001C25.4792 18.6252 24.3655 17.5149 22.997 17.5149ZM23.0078 11.5193C27.6872 11.5193 31.4848 15.3142 31.4848 20.0006H32.5152C32.5152 14.7524 28.2609 10.4937 23.0078 10.4937V11.5193ZM6.51258 17.515C5.14402 17.515 4.03036 18.6253 4.03036 20.0002C4.03036 21.375 5.14402 22.4854 6.51258 22.4854C7.88115 22.4854 8.99481 21.375 8.99481 20.0002C8.99481 18.6253 7.88115 17.515 6.51258 17.515ZM6.51258 34.0038C5.14402 34.0038 4.03036 35.1141 4.03036 36.489C4.03036 37.8639 5.14402 38.9742 6.51258 38.9742C7.88115 38.9742 8.99481 37.8639 8.99481 36.489C8.99481 35.1141 7.88115 34.0038 6.51258 34.0038ZM10.997 10.0198C9.62839 10.0198 8.51473 11.1301 8.51473 12.505C8.51473 13.8799 9.62839 14.9902 10.997 14.9902C12.3655 14.9902 13.4792 13.8799 13.4792 12.505C13.4792 11.1301 12.3655 10.0198 10.997 10.0198ZM10.997 25.0095C9.62839 25.0095 8.51473 26.1199 8.51473 27.4947C8.51473 28.8696 9.62839 29.9799 10.997 29.9799C12.3655 29.9799 13.4792 28.8696 13.4792 27.4947C13.4792 26.1199 12.3655 25.0095 10.997 25.0095Z" fill="url(#paint0_linear_10_1222)"></path>
    </g>
  </g>
  <defs>
    <linearGradient id="paint0_linear_10_1222" x1="54" y1="19.9999" x2="14.5226" y2="-13.556" gradientUnits="userSpaceOnUse">
      <stop stop-color="#1E85E9"></stop>
      <stop offset="0.202755" stop-color="#8671F3"></stop>
      <stop offset="0.707269" stop-color="#C06CFD" stop-opacity="0.99"></stop>
      <stop offset="1" stop-color="#FFBEE8"></stop>
    </linearGradient>
  </defs>
</svg>
