<?xml version="1.0" encoding="UTF-8"?>
<svg xmlns="http://www.w3.org/2000/svg" width="40" height="40" viewBox="0 0 40 40" fill="none">
  <path fill-rule="evenodd" clip-rule="evenodd" d="M4 5H36C36.5523 5 37 5.44772 37 6V25C37 25.5523 36.5523 26 36 26H34.5651L34.4474 27H36C37.1046 27 38 26.1046 38 25V6C38 4.89543 37.1046 4 36 4H4C2.89543 4 2 4.89543 2 6V25C2 26.1046 2.89543 27 4 27H17.5522L17.4346 26H4C3.44772 26 3 25.5523 3 25V6C3 5.44772 3.44771 5 4 5ZM6.41667 22C6.18655 22 6 22.2239 6 22.5C6 22.7761 6.18655 23 6.41667 23H15.5833C15.8135 23 16 22.7761 16 22.5C16 22.2239 15.8135 22 15.5833 22H6.41667ZM10.5 10H12C12.5523 10 13 10.4477 13 11V11.5H12V12.5H13V13C13 13.5523 12.5523 14 12 14H10.5V10ZM9.5 10H8C7.44772 10 7 10.4477 7 11V11.5H8V12.5H7V13C7 13.5523 7.44772 14 8 14H9.5V10ZM6 12.5V11.5V11C6 9.89543 6.89543 9 8 9H12C13.1046 9 14 9.89543 14 11V11.5V12.5V13C14 14.1046 13.1046 15 12 15H8C6.89543 15 6 14.1046 6 13V12.5ZM28 10H31C32.1046 10 33 10.8954 33 12C33 13.1046 32.1046 14 31 14H28C26.8954 14 26 13.1046 26 12C26 10.8954 26.8954 10 28 10ZM25 12C25 10.3431 26.3431 9 28 9H31C32.6569 9 34 10.3431 34 12C34 13.6569 32.6569 15 31 15H28C26.3431 15 25 13.6569 25 12ZM26.8286 18.2785L32.7502 20.9749C33.5414 21.3352 34.0093 22.1653 33.9077 23.0288L33.2604 28.5306C33.0595 30.2389 32.2366 31.8134 30.9487 32.9536L27.3256 36.1616C26.5688 36.8317 25.4308 36.8317 24.674 36.1616L21.0509 32.9536C19.763 31.8134 18.9401 30.2389 18.7392 28.5306L18.0919 23.0288C17.9903 22.1653 18.4582 21.3352 19.2494 20.9749L25.171 18.2785C25.6975 18.0387 26.3021 18.0387 26.8286 18.2785ZM32.3358 21.885L26.4142 19.1885C26.1509 19.0687 25.8487 19.0687 25.5854 19.1885L19.6638 21.885C19.2682 22.0651 19.0343 22.4802 19.085 22.9119L19.7323 28.4138C19.9046 29.878 20.6099 31.2276 21.7138 32.2049L25.3369 35.4129C25.7153 35.748 26.2843 35.748 26.6627 35.4129L30.2858 32.2049C31.3897 31.2276 32.095 29.878 32.2673 28.4138L32.9146 22.9119C32.9653 22.4802 32.7314 22.0651 32.3358 21.885ZM30.3123 24.6096C30.528 24.7821 30.5629 25.0967 30.3904 25.3124L26.7091 29.914C26.3592 30.3514 25.7183 30.4161 25.288 30.0576L22.6799 27.8841C22.4678 27.7073 22.4391 27.3921 22.6159 27.1799C22.7927 26.9678 23.1079 26.9391 23.3201 27.1159L25.9282 29.2894L29.6095 24.6877C29.7821 24.472 30.0967 24.4371 30.3123 24.6096Z" fill="url(#paint0_linear_155_73)"></path>
  <defs>
    <linearGradient id="paint0_linear_155_73" x1="56" y1="20.3321" x2="23.4896" y2="-15.4984" gradientUnits="userSpaceOnUse">
      <stop stop-color="#1E85E9"></stop>
      <stop offset="0.202755" stop-color="#8671F3"></stop>
      <stop offset="0.707269" stop-color="#C06CFD" stop-opacity="0.99"></stop>
      <stop offset="1" stop-color="#FFBEE8"></stop>
    </linearGradient>
  </defs>
</svg>
