<?xml version="1.0" encoding="UTF-8"?>
<svg xmlns="http://www.w3.org/2000/svg" width="39" height="37" viewBox="0 0 39 37" fill="none">
  <g id="icon-38-8">
    <g id="Group">
      <path id="Vector (Stroke)" fill-rule="evenodd" clip-rule="evenodd" d="M16.3357 35.5051C17.4842 36.6781 19.3697 36.7443 20.541 35.5482L22.99 33.047C22.99 33.047 22.99 33.047 22.99 33.047C23.5957 32.4284 23.8837 31.6093 23.8536 30.8001C24.9442 31.2914 26.2662 31.0814 27.1589 30.1698C27.8912 29.4221 28.1806 28.371 27.988 27.3994C28.9322 27.594 29.9515 27.3181 30.6827 26.5713C31.4151 25.8234 31.7044 24.7723 31.5118 23.8007C32.4559 23.9954 33.4752 23.7195 34.2063 22.9727C34.8183 22.348 35.121 21.5115 35.0918 20.6866C35.1015 20.678 35.111 20.669 35.1203 20.6596C39.5912 16.094 39.5912 8.69584 35.1203 4.13013C30.9951 -0.0824356 24.0664 0.12698 19.5152 3.66392L19.2871 3.42971L19.2861 3.42871C14.8095 -1.14285 7.54704 -1.14296 3.07041 3.42871C-1.43183 8.02636 -0.770057 16.036 3.66776 20.5679L4.65786 21.579C4.75637 21.6796 4.88695 21.7298 5.01745 21.7292C4.72434 22.7521 4.97318 23.9018 5.76418 24.7096C6.49656 25.4576 7.52852 25.7554 8.48388 25.5629C8.28916 26.5234 8.55709 27.5616 9.28794 28.3081C10.0203 29.0559 11.0523 29.3539 12.0076 29.1616C11.8129 30.122 12.0809 31.1603 12.8119 31.9066C13.5443 32.6546 14.5762 32.9525 15.5316 32.76C15.3369 33.7205 15.6047 34.7587 16.3357 35.5051ZM16.3026 31.2499C15.5458 32.0227 14.3056 32.0028 13.5265 31.2071C12.7528 30.4171 12.7529 29.132 13.5265 28.342L15.9755 25.8411C15.9754 25.8411 15.9755 25.841 15.9755 25.8411C16.7323 25.0683 17.9728 25.0882 18.7518 25.8838C19.5253 26.6738 19.5253 27.9589 18.7518 28.749C18.7518 28.749 18.7518 28.749 18.7518 28.749L16.3026 31.2499ZM10.0025 27.6085C10.7818 28.4042 12.0221 28.4241 12.7788 27.6515L10.0025 27.6085ZM12.7788 27.6515C12.7788 27.6515 12.7788 27.6515 12.7788 27.6515L15.2279 25.1505C16.0015 24.3605 16.0016 23.0754 15.2279 22.2854C14.4489 21.4897 13.2084 21.4696 12.4518 22.2425L10.0026 24.7435C10.0026 24.7435 10.0026 24.7435 10.0026 24.7435C9.22919 25.5335 9.22902 26.8185 10.0025 27.6085M9.25484 24.0529C8.49813 24.8255 7.25786 24.8058 6.4787 24.01C5.70513 23.22 5.70522 21.9349 6.47877 21.1449L8.92781 18.6438C8.92779 18.6438 8.92783 18.6438 8.92781 18.6438C9.68466 17.8712 10.9249 17.8911 11.7042 18.6869C12.4777 19.4767 12.4776 20.7619 11.7041 21.5518M9.25484 24.0529C9.25483 24.0529 9.25484 24.0529 9.25484 24.0529V24.0529ZM11.7041 21.5518L9.25484 24.0529L11.7041 21.5518ZM13.2228 20.7323C14.1782 20.5399 15.2101 20.8378 15.9423 21.5857L13.2228 20.7323ZM13.2228 20.7323C13.4175 19.7718 13.1495 18.7335 12.4186 17.9872C11.27 16.8142 9.38487 16.7481 8.21342 17.9441L5.76428 20.4453C5.76428 20.4453 5.76428 20.4453 5.76428 20.4453C5.62418 20.5884 5.50108 20.7422 5.39499 20.9041C5.38776 20.8957 5.38022 20.8874 5.37234 20.8794L4.38225 19.8683C0.258941 15.6575 -0.27374 8.27301 3.78489 4.12836C7.86928 -0.0427399 14.4868 -0.0427475 18.5714 4.12809C18.5713 4.12801 18.5715 4.12818 18.5714 4.12809L18.7498 4.31131C18.6076 4.44215 18.4684 4.57662 18.3324 4.71469C18.3306 4.71645 18.3288 4.71822 18.3271 4.72001L10.8231 12.3832L11.1656 12.733C13.3522 14.9659 16.8953 14.9571 19.1396 12.6296C19.14 12.6292 19.1404 12.6288 19.1408 12.6284L23.0162 8.66731L33.534 19.4082C34.2972 20.1873 34.2764 21.4722 33.492 22.273C32.7243 23.0571 31.4837 23.0571 30.7158 22.2729C30.684 22.2405 30.6489 22.2133 30.6116 22.1914L23.438 14.8656C23.2448 14.6683 22.9282 14.665 22.7309 14.8582C22.5336 15.0514 22.5303 15.368 22.7235 15.5653L30.0103 23.0066C30.0102 23.0066 30.0103 23.0066 30.0103 23.0066C30.7733 23.786 30.7525 25.0708 29.9682 25.8716C29.2003 26.6558 27.9598 26.6557 27.1921 25.8716L19.9053 18.4301C19.7121 18.2328 19.3955 18.2295 19.1982 18.4227C19.0009 18.6159 18.9976 18.9325 19.1908 19.1298L26.407 26.4991C26.4282 26.537 26.4546 26.5727 26.4865 26.6052C27.2496 27.3845 27.2287 28.6695 26.4445 29.4702C25.6766 30.2543 24.436 30.2542 23.6681 29.4702C23.5967 29.3973 23.5085 29.3509 23.4157 29.3311C23.2976 29.1362 23.1557 28.9521 22.99 28.7829C22.2578 28.035 21.2259 27.737 20.2705 27.9294C20.4652 26.9689 20.1972 25.9306 19.4663 25.1842C18.734 24.4363 17.7021 24.1385 16.7467 24.3309C16.9414 23.3705 16.6733 22.3321 15.9423 21.5857M23.3037 7.56668C23.1059 7.41733 22.8233 7.4346 22.6454 7.61642L18.4233 11.9317L18.4207 11.9345C16.6806 13.7401 14.036 13.8491 12.2406 12.3649L19.0209 5.44078C19.0212 5.44046 19.0215 5.44014 19.0218 5.43982C23.1416 1.23273 30.3548 0.69297 34.4058 4.82977C38.3556 8.86331 38.4912 15.3208 34.8127 19.5207C34.6757 19.228 34.488 18.9531 34.2484 18.7085L23.4299 7.66042C23.392 7.62169 23.3493 7.59044 23.3037 7.56668ZM17.0503 31.9405L19.4994 29.4395C20.2561 28.6668 21.4965 28.6867 22.2755 29.4825C23.0491 30.2725 23.0491 31.5574 22.2755 32.3474L19.8265 34.8485C19.0698 35.6212 17.8294 35.6013 17.0502 34.8055C16.2767 34.0156 16.2769 32.7306 17.0503 31.9405C17.0503 31.9405 17.0503 31.9405 17.0503 31.9405Z" fill="url(#paint0_linear_126_200)"></path>
    </g>
  </g>
  <defs>
    <linearGradient id="paint0_linear_126_200" x1="43.3604" y1="36.6206" x2="-5.43749" y2="40.8715" gradientUnits="userSpaceOnUse">
      <stop stop-color="#1E85E9"></stop>
      <stop offset="0.202755" stop-color="#8671F3"></stop>
      <stop offset="0.707269" stop-color="#C06CFD" stop-opacity="0.99"></stop>
      <stop offset="1" stop-color="#FFBEE8"></stop>
    </linearGradient>
  </defs>
</svg>
