<?xml version="1.0" encoding="UTF-8"?>
<svg xmlns="http://www.w3.org/2000/svg" width="40" height="40" viewBox="0 0 40 40" fill="none">
  <g id="Frame 8758">
    <path id="Union" fill-rule="evenodd" clip-rule="evenodd" d="M13.7574 2.99976L13 3.69978L18.7346 9.00024H7C4.23858 9.00024 2 11.2388 2 14.0002V31.0002C2 33.7617 4.23858 36.0002 7 36.0002H33C35.7614 36.0002 38 33.7617 38 31.0002V14.0002C38 11.2388 35.7614 9.00024 33 9.00024H21.2654L27 3.69978L26.2426 2.99976L20 8.7698L13.7574 2.99976ZM7 10.0002C4.79086 10.0002 3 11.7911 3 14.0002V31.0002C3 33.2094 4.79086 35.0002 7 35.0002H33C35.2091 35.0002 37 33.2094 37 31.0002V14.0002C37 11.7911 35.2091 10.0002 33 10.0002H7ZM17 28.9284L26 23.7322C27.3333 22.9624 27.3333 21.0379 26 20.2681L17 15.072C15.6667 14.3022 14 15.2644 14 16.804L14 27.1963C14 28.7359 15.6667 29.6982 17 28.9284ZM25.5 21.1341C26.1667 21.519 26.1667 22.4813 25.5 22.8662L16.5 28.0623C15.8333 28.4472 15 27.9661 15 27.1963L15 16.804C15 16.0342 15.8333 15.5531 16.5 15.938L25.5 21.1341Z" fill="url(#paint0_linear_10_1127)"></path>
  </g>
  <defs>
    <linearGradient id="paint0_linear_10_1127" x1="56" y1="19.5" x2="23.124" y2="-16.3642" gradientUnits="userSpaceOnUse">
      <stop stop-color="#1E85E9"></stop>
      <stop offset="0.202755" stop-color="#8671F3"></stop>
      <stop offset="0.707269" stop-color="#C06CFD" stop-opacity="0.99"></stop>
      <stop offset="1" stop-color="#FFBEE8"></stop>
    </linearGradient>
  </defs>
</svg>
