<svg width="407" height="250" viewBox="0 0 407 250" fill="none" xmlns="http://www.w3.org/2000/svg">
<g clip-path="url(#clip0_202_385)">
<path opacity="0.568996" d="M350.498 269.476C360.946 247.988 366.807 223.859 366.807 198.362C366.807 108.401 293.854 35.4734 203.862 35.4734C113.87 35.4734 40.917 108.401 40.917 198.362C40.917 224.066 46.8731 248.38 57.481 270" stroke="url(#paint0_linear_202_385)" stroke-width="0.77193"/>
<path opacity="0.568996" d="M297.719 251.901C307.11 235.876 312.492 217.229 312.492 197.329C312.492 137.508 263.857 89.0127 203.862 89.0127C143.868 89.0127 95.2324 137.508 95.2324 197.329C95.2324 214.526 99.2513 230.786 106.403 245.227" stroke="url(#paint1_linear_202_385)" stroke-width="0.77193"/>
<path opacity="0.7" fill-rule="evenodd" clip-rule="evenodd" d="M164.232 80.6344L164.847 82.4689L164.115 82.7141L163.501 80.8795L164.232 80.6344ZM238.15 82.7058L238.698 80.8542L239.438 81.0735L238.89 82.9251L238.15 82.7058ZM237.601 84.5574L237.052 86.4091L237.792 86.6284L238.341 84.7767L237.601 84.5574ZM235.955 90.1123L236.503 88.2607L237.243 88.48L236.695 90.3317L235.955 90.1123ZM235.406 91.964L234.857 93.8156L235.597 94.0349L236.146 92.1833L235.406 91.964ZM233.76 97.5189L234.308 95.6672L235.049 95.8866L234.5 97.7382L233.76 97.5189ZM233.211 99.3705L232.662 101.222L233.402 101.441L233.951 99.5898L233.211 99.3705ZM231.565 104.925L232.114 103.074L232.854 103.293L232.305 105.145L231.565 104.925ZM231.016 106.777L230.467 108.629L231.208 108.848L231.756 106.996L231.016 106.777ZM229.37 112.332L229.919 110.48L230.659 110.7L230.11 112.551L229.37 112.332ZM228.821 114.184L228.273 116.035L229.013 116.255L229.561 114.403L228.821 114.184ZM227.175 119.738L227.724 117.887L228.464 118.106L227.915 119.958L227.175 119.738ZM226.626 121.59L226.078 123.442L226.818 123.661L227.367 121.809L226.626 121.59ZM224.98 127.145L225.529 125.293L226.269 125.513L225.72 127.364L224.98 127.145ZM224.432 128.997L223.883 130.848L224.623 131.068L225.172 129.216L224.432 128.997ZM222.785 134.552L223.334 132.7L224.074 132.919L223.525 134.771L222.785 134.552ZM222.237 136.403L221.688 138.255L222.428 138.474L222.977 136.623L222.237 136.403ZM220.59 141.958L221.139 140.106L221.879 140.326L221.331 142.177L220.59 141.958ZM220.042 143.81L219.493 145.661L220.233 145.881L220.782 144.029L220.042 143.81ZM218.396 149.365L218.944 147.513L219.684 147.732L219.136 149.584L218.396 149.365ZM217.847 151.216L217.298 153.068L218.038 153.287L218.587 151.436L217.847 151.216ZM216.201 156.771L216.749 154.92L217.49 155.139L216.941 156.991L216.201 156.771ZM215.652 158.623L215.103 160.474L215.843 160.694L216.392 158.842L215.652 158.623ZM214.006 164.178L214.555 162.326L215.295 162.545L214.746 164.397L214.006 164.178ZM213.457 166.029L212.908 167.881L213.649 168.1L214.197 166.249L213.457 166.029ZM211.811 171.584L212.36 169.733L213.1 169.952L212.551 171.804L211.811 171.584ZM183.968 182.212C183.804 182.41 183.643 182.611 183.485 182.814L182.83 182.289L183.313 181.686L183.968 182.212ZM211.78 174.406C211.537 174.322 211.292 174.242 211.046 174.165L211.262 173.436L212.002 173.655L211.78 174.406ZM81.701 183.5L82.6529 183.618L82.5573 184.384L81.6055 184.266L81.701 183.5ZM86.4606 184.093L84.5568 183.856L84.4612 184.622L86.365 184.859L86.4606 184.093ZM88.3645 184.331L90.2683 184.569L90.1728 185.335L88.2689 185.097L88.3645 184.331ZM94.076 185.044L92.1722 184.806L92.0766 185.572L93.9805 185.81L94.076 185.044ZM95.9799 185.281L97.8837 185.519L97.7882 186.285L95.8843 186.047L95.9799 185.281ZM101.691 185.994L99.7876 185.756L99.692 186.522L101.596 186.76L101.691 185.994ZM103.595 186.231L105.499 186.469L105.404 187.235L103.5 186.997L103.595 186.231ZM109.307 186.944L107.403 186.707L107.307 187.473L109.211 187.71L109.307 186.944ZM111.211 187.182L113.115 187.419L113.019 188.185L111.115 187.948L111.211 187.182ZM116.922 187.894L115.018 187.657L114.923 188.423L116.827 188.66L116.922 187.894ZM118.826 188.132L120.73 188.369L120.634 189.135L118.731 188.898L118.826 188.132ZM124.538 188.844L122.634 188.607L122.538 189.373L124.442 189.61L124.538 188.844ZM126.442 189.082L128.345 189.32L128.25 190.086L126.346 189.848L126.442 189.082ZM132.153 189.795L130.249 189.557L130.154 190.323L132.058 190.561L132.153 189.795ZM134.057 190.032L135.961 190.27L135.865 191.036L133.961 190.798L134.057 190.032ZM139.769 190.745L137.865 190.507L137.769 191.273L139.673 191.511L139.769 190.745ZM141.672 190.982L143.576 191.22L143.481 191.986L141.577 191.748L141.672 190.982ZM147.384 191.695L145.48 191.457L145.385 192.223L147.288 192.461L147.384 191.695ZM149.288 191.933L151.192 192.17L151.096 192.936L149.192 192.699L149.288 191.933ZM154.999 192.645L153.096 192.408L153 193.174L154.904 193.411L154.999 192.645ZM156.903 192.883L158.807 193.12L158.711 193.886L156.808 193.649L156.903 192.883ZM162.615 193.595L160.711 193.358L160.615 194.124L162.519 194.361L162.615 193.595ZM164.519 193.833L166.422 194.07L166.327 194.836L164.423 194.599L164.519 193.833ZM170.23 194.546L168.326 194.308L168.231 195.074L170.135 195.312L170.23 194.546ZM172.134 194.783L174.038 195.021L173.942 195.787L172.038 195.549L172.134 194.783ZM177.846 195.496L175.942 195.258L175.846 196.024L177.75 196.262L177.846 195.496ZM195.571 174.197L194.956 172.362L194.224 172.607L194.839 174.442L195.571 174.197ZM193.727 168.693L194.342 170.527L193.61 170.773L192.995 168.938L193.727 168.693ZM193.113 166.858L192.498 165.024L191.766 165.269L192.381 167.104L193.113 166.858ZM191.269 161.355L191.884 163.189L191.152 163.434L190.537 161.6L191.269 161.355ZM190.655 159.52L190.04 157.686L189.308 157.931L189.923 159.765L190.655 159.52ZM188.811 154.017L189.426 155.851L188.694 156.096L188.079 154.262L188.811 154.017ZM188.197 152.182L187.582 150.347L186.85 150.593L187.465 152.427L188.197 152.182ZM186.354 146.678L186.968 148.513L186.236 148.758L185.622 146.923L186.354 146.678ZM185.739 144.844L185.125 143.009L184.393 143.254L185.007 145.089L185.739 144.844ZM183.896 139.34L184.51 141.175L183.778 141.42L183.164 139.585L183.896 139.34ZM183.281 137.506L182.667 135.671L181.935 135.916L182.549 137.751L183.281 137.506ZM181.438 132.002L182.052 133.836L181.32 134.082L180.706 132.247L181.438 132.002ZM180.823 130.167L180.209 128.333L179.477 128.578L180.091 130.412L180.823 130.167ZM178.98 124.664L179.594 126.498L178.862 126.743L178.248 124.909L178.98 124.664ZM178.365 122.829L177.751 120.995L177.019 121.24L177.633 123.074L178.365 122.829ZM176.522 117.325L177.136 119.16L176.404 119.405L175.79 117.571L176.522 117.325ZM175.907 115.491L175.293 113.656L174.561 113.901L175.176 115.736L175.907 115.491ZM174.064 109.987L174.679 111.822L173.947 112.067L173.332 110.232L174.064 109.987ZM173.45 108.153L172.835 106.318L172.103 106.563L172.718 108.398L173.45 108.153ZM171.606 102.649L172.221 104.484L171.489 104.729L170.874 102.894L171.606 102.649ZM170.992 100.814L170.377 98.9799L169.645 99.2251L170.26 101.06L170.992 100.814ZM169.148 95.3108L169.763 97.1453L169.031 97.3905L168.416 95.556L169.148 95.3108ZM168.534 93.4762L167.919 91.6417L167.187 91.8869L167.802 93.7214L168.534 93.4762ZM166.69 87.9726L167.305 89.8071L166.573 90.0523L165.958 88.2178L166.69 87.9726ZM166.076 86.138L165.461 84.3035L164.729 84.5486L165.344 86.3832L166.076 86.138ZM224.955 181.303L223.458 182.508L223.943 183.109L225.439 181.904L224.955 181.303ZM226.451 180.097L227.947 178.891L228.432 179.492L226.935 180.698L226.451 180.097ZM230.94 176.48L229.444 177.685L229.928 178.287L231.424 177.081L230.94 176.48ZM232.436 175.274L233.933 174.068L234.417 174.669L232.921 175.875L232.436 175.274ZM236.925 171.657L235.429 172.863L235.913 173.464L237.41 172.258L236.925 171.657ZM238.422 170.451L239.918 169.246L240.402 169.847L238.906 171.052L238.422 170.451ZM242.911 166.834L241.414 168.04L241.899 168.641L243.395 167.435L242.911 166.834ZM244.407 165.629L245.903 164.423L246.388 165.024L244.891 166.23L244.407 165.629ZM248.896 162.011L247.4 163.217L247.884 163.818L249.38 162.613L248.896 162.011ZM250.392 160.806L251.889 159.6L252.373 160.201L250.877 161.407L250.392 160.806ZM254.881 157.189L253.385 158.394L253.869 158.995L255.366 157.79L254.881 157.189ZM256.378 155.983L257.874 154.777L258.358 155.378L256.862 156.584L256.378 155.983ZM260.867 152.366L259.37 153.572L259.855 154.173L261.351 152.967L260.867 152.366ZM262.363 151.16L263.859 149.955L264.344 150.556L262.847 151.761L262.363 151.16ZM266.852 147.543L265.355 148.749L265.84 149.35L267.336 148.144L266.852 147.543ZM268.348 146.337L269.844 145.132L270.329 145.733L268.832 146.938L268.348 146.337ZM272.837 142.72L271.341 143.926L271.825 144.527L273.321 143.321L272.837 142.72ZM274.333 141.515L275.83 140.309L276.314 140.91L274.818 142.116L274.333 141.515ZM278.822 137.898L277.326 139.103L277.81 139.704L279.307 138.499L278.822 137.898ZM280.319 136.692L281.815 135.486L282.299 136.087L280.803 137.293L280.319 136.692ZM284.808 133.075L283.311 134.28L283.796 134.882L285.292 133.676L284.808 133.075ZM286.304 131.869L287.8 130.663L288.285 131.264L286.788 132.47L286.304 131.869ZM290.793 128.252L289.297 129.458L289.781 130.059L291.277 128.853L290.793 128.252ZM292.289 127.046L293.786 125.841L294.27 126.442L292.774 127.647L292.289 127.046ZM296.778 123.429L295.282 124.635L295.766 125.236L297.263 124.03L296.778 123.429ZM298.275 122.224L299.771 121.018L300.255 121.619L298.759 122.825L298.275 122.224ZM302.764 118.606L301.267 119.812L301.752 120.413L303.248 119.208L302.764 118.606ZM181.799 180.474L180.286 179.261L179.803 179.863L181.317 181.076L181.799 180.474ZM177.26 176.835L178.773 178.048L178.29 178.65L176.777 177.437L177.26 176.835ZM175.746 175.622L174.233 174.409L173.75 175.012L175.264 176.224L175.746 175.622ZM171.207 171.983L172.72 173.196L172.237 173.799L170.724 172.586L171.207 171.983ZM169.693 170.771L168.18 169.558L167.697 170.16L169.211 171.373L169.693 170.771ZM165.154 167.132L166.667 168.345L166.184 168.947L164.671 167.734L165.154 167.132ZM163.64 165.919L162.127 164.706L161.644 165.308L163.158 166.521L163.64 165.919ZM159.101 162.28L160.614 163.493L160.131 164.096L158.618 162.883L159.101 162.28ZM157.587 161.068L156.074 159.855L155.591 160.457L157.105 161.67L157.587 161.068ZM153.048 157.429L154.561 158.642L154.078 159.244L152.565 158.031L153.048 157.429ZM151.534 156.216L150.021 155.003L149.538 155.605L151.052 156.818L151.534 156.216ZM146.995 152.577L148.508 153.79L148.025 154.393L146.512 153.18L146.995 152.577ZM145.481 151.364L143.968 150.152L143.485 150.754L144.999 151.967L145.481 151.364ZM140.942 147.726L142.455 148.939L141.972 149.541L140.459 148.328L140.942 147.726ZM139.428 146.513L137.915 145.3L137.432 145.902L138.945 147.115L139.428 146.513ZM134.889 142.874L136.402 144.087L135.919 144.689L134.406 143.477L134.889 142.874ZM133.375 141.661L131.862 140.449L131.379 141.051L132.892 142.264L133.375 141.661ZM128.836 138.023L130.349 139.236L129.866 139.838L128.353 138.625L128.836 138.023ZM127.322 136.81L125.809 135.597L125.326 136.199L126.839 137.412L127.322 136.81ZM122.782 133.171L124.296 134.384L123.813 134.986L122.3 133.774L122.782 133.171ZM121.269 131.958L119.756 130.745L119.273 131.348L120.786 132.561L121.269 131.958ZM116.729 128.32L118.243 129.533L117.76 130.135L116.247 128.922L116.729 128.32ZM115.216 127.107L113.703 125.894L113.22 126.496L114.733 127.709L115.216 127.107ZM110.676 123.468L112.19 124.681L111.707 125.283L110.194 124.07L110.676 123.468ZM109.163 122.255L107.65 121.042L107.167 121.645L108.68 122.858L109.163 122.255ZM104.623 118.617L106.137 119.83L105.654 120.432L104.141 119.219L104.623 118.617ZM231.178 195.362L229.266 195.593L229.358 196.359L231.27 196.129L231.178 195.362ZM233.09 195.132L235.002 194.902L235.094 195.668L233.182 195.898L233.09 195.132ZM238.826 194.441L236.914 194.671L237.006 195.438L238.918 195.207L238.826 194.441ZM240.738 194.211L242.65 193.98L242.742 194.747L240.83 194.977L240.738 194.211ZM246.474 193.52L244.562 193.75L244.654 194.516L246.566 194.286L246.474 193.52ZM248.386 193.289L250.298 193.059L250.39 193.825L248.478 194.056L248.386 193.289ZM254.122 192.598L252.21 192.829L252.302 193.595L254.214 193.365L254.122 192.598ZM256.034 192.368L257.946 192.137L258.038 192.904L256.126 193.134L256.034 192.368ZM261.77 191.677L259.858 191.907L259.95 192.674L261.862 192.443L261.77 191.677ZM263.682 191.446L265.594 191.216L265.686 191.982L263.774 192.213L263.682 191.446ZM269.418 190.755L267.506 190.986L267.598 191.752L269.51 191.522L269.418 190.755ZM271.33 190.525L273.242 190.295L273.334 191.061L271.422 191.291L271.33 190.525ZM277.066 189.834L275.154 190.064L275.246 190.831L277.158 190.6L277.066 189.834ZM278.978 189.604L280.89 189.373L280.982 190.14L279.07 190.37L278.978 189.604ZM284.714 188.913L282.802 189.143L282.894 189.909L284.806 189.679L284.714 188.913ZM286.626 188.682L288.538 188.452L288.63 189.218L286.718 189.449L286.626 188.682ZM292.362 187.991L290.45 188.222L290.542 188.988L292.454 188.758L292.362 187.991ZM294.274 187.761L296.186 187.53L296.278 188.297L294.366 188.527L294.274 187.761ZM300.01 187.07L298.098 187.3L298.19 188.067L300.102 187.836L300.01 187.07ZM301.922 186.839L303.834 186.609L303.926 187.375L302.014 187.606L301.922 186.839ZM307.658 186.148L305.746 186.379L305.838 187.145L307.75 186.915L307.658 186.148ZM309.57 185.918L311.482 185.688L311.574 186.454L309.662 186.684L309.57 185.918ZM315.306 185.227L313.394 185.457L313.486 186.224L315.398 185.993L315.306 185.227ZM317.218 184.997L319.13 184.766L319.222 185.533L317.31 185.763L317.218 184.997ZM322.954 184.306L321.042 184.536L321.134 185.302L323.046 185.072L322.954 184.306ZM324.866 184.075L326.778 183.845L326.87 184.611L324.958 184.842L324.866 184.075Z" fill="url(#paint2_radial_202_385)"/>
<g opacity="0.2">
<path d="M311.587 192.208C315.087 192.208 317.924 189.372 317.924 185.873C317.924 182.375 315.087 179.539 311.587 179.539C308.087 179.539 305.25 182.375 305.25 185.873C305.25 189.372 308.087 192.208 311.587 192.208Z" fill="#5055FE"/>
<path d="M96.1375 178.815C92.6378 178.815 89.8008 181.651 89.8008 185.15C89.8008 188.648 92.6378 191.484 96.1375 191.484C99.6372 191.484 102.474 188.648 102.474 185.15C102.474 181.651 99.6372 178.815 96.1375 178.815Z" fill="#5055FE"/>
<path d="M121.903 124.79C118.872 123.041 114.997 124.079 113.247 127.109C111.497 130.139 112.535 134.013 115.566 135.762C118.597 137.511 122.472 136.473 124.222 133.444C125.972 130.414 124.934 126.54 121.903 124.79Z" fill="#5055FE"/>
<path d="M165.26 90.041C168.291 88.2918 172.166 89.3299 173.916 92.3596C175.666 95.3894 174.628 99.2635 171.597 101.013C168.566 102.762 164.691 101.724 162.941 98.6942C161.191 95.6644 162.229 91.7903 165.26 90.041Z" fill="#5055FE"/>
<path d="M240.818 90.1877C239.068 87.1579 235.193 86.1199 232.162 87.8691C229.131 89.6183 228.093 93.4925 229.843 96.5223C231.592 99.552 235.468 100.59 238.499 98.8408C241.529 97.0916 242.568 93.2175 240.818 90.1877Z" fill="#5055FE"/>
<path d="M295.133 127.109C296.883 130.139 295.845 134.013 292.814 135.762C289.783 137.511 285.908 136.473 284.158 133.444C282.408 130.414 283.446 126.54 286.477 124.79C289.508 123.041 293.383 124.079 295.133 127.109Z" fill="#5055FE"/>
</g>
<path d="M311.587 188.588C313.087 188.588 314.303 187.373 314.303 185.874C314.303 184.374 313.087 183.159 311.587 183.159C310.087 183.159 308.871 184.374 308.871 185.874C308.871 187.373 310.087 188.588 311.587 188.588Z" fill="#5055FE"/>
<path d="M96.1381 182.435C94.6382 182.435 93.4224 183.65 93.4224 185.15C93.4224 186.649 94.6382 187.864 96.1381 187.864C97.638 187.864 98.8539 186.649 98.8539 185.15C98.8539 183.65 97.638 182.435 96.1381 182.435Z" fill="#5055FE"/>
<path d="M120.094 127.925C118.795 127.176 117.134 127.62 116.384 128.919C115.634 130.217 116.079 131.878 117.378 132.627C118.677 133.377 120.338 132.932 121.088 131.634C121.838 130.335 121.393 128.675 120.094 127.925Z" fill="#5055FE"/>
<path d="M167.07 93.1758C168.369 92.4262 170.029 92.8711 170.779 94.1695C171.529 95.468 171.084 97.1284 169.785 97.878C168.486 98.6277 166.826 98.1828 166.076 96.8843C165.326 95.5859 165.771 93.9255 167.07 93.1758Z" fill="#5055FE"/>
<path d="M237.681 91.9976C236.931 90.6992 235.27 90.2543 233.971 91.004C232.672 91.7536 232.227 93.414 232.977 94.7124C233.727 96.0109 235.388 96.4558 236.687 95.7061C237.986 94.9565 238.431 93.2961 237.681 91.9976Z" fill="#5055FE"/>
<path d="M291.997 128.919C292.747 130.217 292.301 131.878 291.003 132.627C289.704 133.377 288.043 132.932 287.293 131.634C286.543 130.335 286.988 128.675 288.287 127.925C289.586 127.176 291.247 127.62 291.997 128.919Z" fill="#5055FE"/>
<g filter="url(#filter0_d_202_385)">
<path d="M81.1103 180.987C81.1103 158.597 62.9532 140.446 40.5552 140.446C18.1572 140.446 0 158.597 0 180.987C0 203.377 18.1572 221.528 40.5552 221.528C62.9532 221.528 81.1103 203.377 81.1103 180.987Z" fill="#FAFAFA" fill-opacity="0.15"/>
<path d="M407 180.987C407 158.597 388.843 140.446 366.445 140.446C344.047 140.446 325.89 158.597 325.89 180.987C325.89 203.377 344.047 221.528 366.445 221.528C388.843 221.528 407 203.377 407 180.987Z" fill="#FAFAFA" fill-opacity="0.15"/>
<path d="M75.3169 52.1242C97.7149 52.1242 115.872 70.2751 115.872 92.6653C115.872 115.055 97.7149 133.206 75.3169 133.206C52.9189 133.206 34.7617 115.055 34.7617 92.6653C34.7617 70.2751 52.9189 52.1242 75.3169 52.1242Z" fill="#FAFAFA" fill-opacity="0.15"/>
<path d="M372.963 92.6653C372.963 70.2751 354.806 52.1242 332.408 52.1242C310.01 52.1242 291.853 70.2751 291.853 92.6653C291.853 115.055 310.01 133.206 332.408 133.206C354.806 133.206 372.963 115.055 372.963 92.6653Z" fill="#FAFAFA" fill-opacity="0.15"/>
<path d="M290.404 40.5411C290.404 62.9313 272.247 81.0821 249.849 81.0821C227.451 81.0821 209.293 62.9313 209.293 40.5411C209.293 18.1508 227.451 0 249.849 0C272.247 0 290.404 18.1508 290.404 40.5411Z" fill="#FAFAFA" fill-opacity="0.15"/>
<path d="M157.875 81.0821C180.273 81.0821 198.431 62.9313 198.431 40.5411C198.431 18.1508 180.273 0 157.875 0C135.477 0 117.32 18.1508 117.32 40.5411C117.32 62.9313 135.477 81.0821 157.875 81.0821Z" fill="#FAFAFA" fill-opacity="0.15"/>
</g>
<g filter="url(#filter1_d_202_385)">
<path d="M72.42 180.987C72.42 163.395 58.1536 149.133 40.5552 149.133C22.9568 149.133 8.69043 163.395 8.69043 180.987C8.69043 198.579 22.9568 212.841 40.5552 212.841C58.1536 212.841 72.42 198.579 72.42 180.987Z" fill="#FAFAFA"/>
<path d="M398.31 180.987C398.31 163.395 384.043 149.133 366.445 149.133C348.846 149.133 334.58 163.395 334.58 180.987C334.58 198.579 348.846 212.841 366.445 212.841C384.043 212.841 398.31 198.579 398.31 180.987Z" fill="#FAFAFA"/>
<path d="M75.3169 60.8116C92.9153 60.8116 107.182 75.073 107.182 92.6653C107.182 110.258 92.9153 124.519 75.3169 124.519C57.7185 124.519 43.4521 110.258 43.4521 92.6653C43.4521 75.073 57.7185 60.8116 75.3169 60.8116Z" fill="#FAFAFA"/>
<path d="M364.272 92.6653C364.272 75.073 350.006 60.8116 332.408 60.8116C314.809 60.8116 300.543 75.073 300.543 92.6653C300.543 110.258 314.809 124.519 332.408 124.519C350.006 124.519 364.272 110.258 364.272 92.6653Z" fill="#FAFAFA"/>
<path d="M281.714 40.541C281.714 58.1333 267.448 72.3947 249.849 72.3947C232.251 72.3947 217.984 58.1333 217.984 40.541C217.984 22.9487 232.251 8.68735 249.849 8.68735C267.448 8.68735 281.714 22.9487 281.714 40.541Z" fill="#FAFAFA"/>
<path d="M157.876 72.3947C175.474 72.3947 189.74 58.1333 189.74 40.541C189.74 22.9487 175.474 8.68735 157.876 8.68735C140.277 8.68735 126.011 22.9487 126.011 40.541C126.011 58.1333 140.277 72.3947 157.876 72.3947Z" fill="#FAFAFA"/>
</g>
<path d="M14.6826 178.003C14.852 178.003 15.0292 177.996 15.1987 178.003C15.6146 178.027 16.0228 178.057 16.4002 178.258C16.8624 178.504 17.1089 178.905 17.2167 179.413C17.2783 179.713 17.286 180.014 17.286 180.322C17.286 180.499 17.3014 180.684 17.3014 180.861C17.3014 181.2 17.3014 181.539 17.2783 181.87C17.2629 182.163 17.2321 182.448 17.1397 182.725C16.9625 183.28 16.5774 183.611 16.0228 183.765C15.8071 183.826 15.5761 183.842 15.3527 183.865C14.8906 183.896 14.5054 183.896 14.0818 183.888C13.7044 183.88 13.327 183.834 12.9804 183.672C12.5875 183.488 12.3103 183.203 12.1562 182.794C12.0715 182.563 12.0099 182.324 12.0099 182.07C12.0099 181.477 11.9945 180.869 12.0022 180.268C12.0099 179.898 12.0407 179.521 12.1562 179.166C12.3257 178.658 12.68 178.335 13.1729 178.15C13.3963 178.065 13.6274 178.027 13.8584 178.019C14.1357 178.011 14.413 178.003 14.6826 178.003C14.6826 178.011 14.6826 177.996 14.6826 178.003ZM14.1665 182.717C14.4823 182.748 14.8058 182.748 15.1216 182.725C15.1601 182.725 15.1987 182.717 15.2372 182.717C15.5145 182.686 15.7147 182.556 15.8071 182.278C15.8457 182.155 15.8842 182.024 15.8996 181.893C15.9227 181.631 15.9304 181.362 15.9381 181.092C15.9381 180.799 15.9381 180.499 15.9227 180.206C15.915 180.037 15.8996 179.867 15.8688 179.698C15.8226 179.428 15.6685 179.251 15.3912 179.19C15.2603 179.166 15.1293 179.143 14.9984 179.151C14.6749 179.151 14.3591 179.166 14.0356 179.182C13.7121 179.197 13.4733 179.421 13.4271 179.744C13.3963 179.968 13.3732 180.199 13.3732 180.422C13.3732 180.907 13.3809 181.392 13.3886 181.878C13.3963 182.039 13.4194 182.201 13.4887 182.355C13.5812 182.556 13.7352 182.671 13.9586 182.694C14.0279 182.702 14.0972 182.71 14.1665 182.717Z" fill="#222222"/>
<path d="M37.7746 179.798C37.3201 179.798 36.8965 179.798 36.4729 179.798C36.4652 179.69 36.4575 179.582 36.4421 179.482C36.3958 179.197 36.2726 179.082 35.9799 179.059C35.6718 179.043 35.3637 179.036 35.0556 179.043C34.9324 179.043 34.8169 179.059 34.6936 179.097C34.5088 179.159 34.4548 179.351 34.424 179.513C34.3932 179.652 34.4086 179.79 34.4317 179.937C34.4702 180.152 34.6089 180.26 34.8014 180.299C34.9632 180.33 35.1249 180.345 35.2867 180.36C35.6333 180.391 35.9799 180.407 36.3265 180.437C36.4883 180.453 36.65 180.476 36.8118 180.491C37.2508 180.53 37.713 180.876 37.8131 181.262C37.8978 181.577 37.9209 181.901 37.8978 182.224C37.8824 182.44 37.867 182.663 37.8285 182.879C37.7669 183.195 37.5974 183.449 37.3201 183.618C37.0429 183.788 36.7348 183.865 36.4035 183.873C35.926 183.888 35.4407 183.911 34.9632 183.903C34.6474 183.896 34.3239 183.865 34.0081 183.788C33.5691 183.68 33.2533 183.411 33.13 182.956C33.0915 182.81 33.0838 182.648 33.0684 182.494C33.053 182.332 33.053 182.17 33.0376 182.009C33.4766 182.009 33.9003 182.009 34.3316 182.009C34.3393 182.132 34.347 182.255 34.3624 182.378C34.3855 182.617 34.5473 182.787 34.7937 182.817C34.8785 182.833 34.9709 182.833 35.0556 182.841C35.3406 182.841 35.6256 182.848 35.9183 182.841C36.0184 182.841 36.1186 182.825 36.2187 182.794C36.3881 182.748 36.496 182.633 36.5345 182.448C36.573 182.24 36.5807 182.039 36.5345 181.832C36.496 181.662 36.3881 181.577 36.2418 181.554C36.0723 181.523 35.8952 181.508 35.718 181.493C35.5332 181.477 35.3483 181.47 35.1635 181.454C34.786 181.423 34.4009 181.408 34.0312 181.315C33.5074 181.177 33.1916 180.853 33.1223 180.306C33.0992 180.16 33.0915 180.014 33.0838 179.867C33.0761 179.713 33.0684 179.559 33.0838 179.405C33.1146 179.074 33.1762 178.751 33.4073 178.489C33.5922 178.281 33.8309 178.165 34.0928 178.111C34.347 178.057 34.6012 178.034 34.8554 178.019C35.0787 178.003 35.3021 177.996 35.5255 178.003C35.7797 178.003 36.0415 178.011 36.2957 178.034C36.5807 178.065 36.8734 178.088 37.1353 178.234C37.4511 178.412 37.6436 178.681 37.6976 179.036C37.7361 179.274 37.7438 179.528 37.7746 179.798Z" fill="#222222"/>
<path d="M55.1122 179.783C55.4896 179.783 55.867 179.783 56.2445 179.783C56.2445 179.975 56.2445 180.176 56.2445 180.383C56.2676 180.353 56.2676 180.33 56.2753 180.314C56.4447 179.968 56.7528 179.813 57.1225 179.76C57.4691 179.713 57.808 179.729 58.1392 179.837C58.4242 179.929 58.6091 180.129 58.6553 180.43C58.663 180.453 58.6707 180.484 58.6784 180.514C58.6938 180.476 58.7169 180.445 58.7246 180.414C58.8402 180.075 59.0789 179.883 59.4178 179.79C59.6797 179.721 59.9416 179.721 60.2035 179.752C60.4192 179.775 60.6194 179.829 60.8043 179.937C61.0431 180.068 61.1894 180.268 61.2356 180.53C61.2741 180.73 61.2972 180.93 61.2972 181.138C61.3049 182.009 61.2972 182.879 61.2972 183.742C61.2972 183.773 61.2972 183.811 61.2972 183.85C60.9044 183.85 60.527 183.85 60.1342 183.85C60.1342 183.811 60.1342 183.78 60.1342 183.749C60.1342 182.987 60.1342 182.224 60.1342 181.47C60.1342 181.323 60.1034 181.177 60.088 181.03C60.0725 180.823 59.9262 180.73 59.7491 180.699C59.5488 180.661 59.3485 180.668 59.156 180.73C58.8864 180.815 58.7785 181.015 58.7785 181.262C58.7708 182.093 58.7708 182.918 58.7708 183.749C58.7708 183.78 58.7708 183.819 58.7708 183.857C58.378 183.857 58.0006 183.857 57.6078 183.857C57.6078 183.826 57.6078 183.788 57.6078 183.757C57.6078 182.979 57.6078 182.201 57.6078 181.416C57.6078 181.262 57.577 181.108 57.5616 180.946C57.5462 180.807 57.446 180.738 57.3305 180.707C57.0917 180.653 56.8452 180.638 56.6065 180.738C56.4216 180.815 56.3138 180.961 56.283 181.154C56.2599 181.292 56.2599 181.431 56.2599 181.562C56.2599 182.286 56.2599 183.018 56.2599 183.742C56.2599 183.773 56.2599 183.811 56.2599 183.842C55.867 183.842 55.4896 183.842 55.1045 183.842C55.1122 182.494 55.1122 181.146 55.1122 179.783Z" fill="#222222"/>
<path d="M24.4801 183.218C24.38 183.341 24.2875 183.48 24.172 183.595C24.018 183.749 23.8023 183.811 23.5866 183.842C23.1707 183.896 22.7625 183.865 22.3773 183.665C22.154 183.549 21.9922 183.38 21.8921 183.149C21.7997 182.948 21.7689 182.733 21.7457 182.509C21.6995 182.047 21.7149 181.585 21.738 181.123C21.7612 180.745 21.8382 180.368 22.1309 180.083C22.3157 179.906 22.5314 179.798 22.7779 179.775C22.9935 179.752 23.2169 179.736 23.4326 179.736C23.6559 179.736 23.8716 179.79 24.0642 179.898C24.2798 180.014 24.3877 180.214 24.4724 180.43C24.4801 180.453 24.4878 180.468 24.5109 180.484C24.4955 180.253 24.4801 180.021 24.4647 179.783C24.8575 179.783 25.2426 179.783 25.6278 179.783C25.6278 179.806 25.6355 179.829 25.6355 179.852C25.6355 181.208 25.6432 182.556 25.6355 183.911C25.6355 184.227 25.6124 184.55 25.5045 184.851C25.4121 185.105 25.2503 185.305 25.0039 185.436C24.7728 185.56 24.534 185.606 24.2798 185.644C23.9255 185.698 23.5712 185.683 23.2169 185.675C22.9396 185.667 22.6623 185.629 22.4082 185.506C22.1155 185.367 21.9229 185.144 21.8844 184.805C21.8613 184.62 21.8536 184.435 21.8305 184.25C22.2156 184.25 22.5776 184.25 22.9473 184.25C22.9627 184.343 22.9781 184.443 22.9935 184.535C23.0166 184.666 23.1091 184.743 23.2246 184.766C23.525 184.835 23.8254 184.828 24.1258 184.751C24.3261 184.697 24.457 184.535 24.457 184.281C24.4647 183.934 24.4724 183.58 24.4724 183.233C24.4801 183.218 24.4801 183.21 24.4801 183.218ZM22.8857 181.816C22.8934 182.047 22.8626 182.309 22.9396 182.563C22.9935 182.748 23.1091 182.871 23.2862 182.925C23.525 182.995 23.7715 182.971 24.0103 182.918C24.2182 182.871 24.3723 182.756 24.4031 182.532C24.4262 182.355 24.4493 182.178 24.457 182.001C24.4647 181.808 24.4493 181.624 24.4416 181.431C24.4416 181.339 24.4339 181.246 24.4262 181.161C24.3877 180.938 24.2875 180.761 24.0565 180.707C23.8177 180.653 23.5712 180.638 23.3247 180.684C23.1784 180.715 23.0475 180.776 22.9858 180.923C22.9242 181.069 22.8934 181.223 22.8934 181.377C22.8857 181.508 22.8857 181.647 22.8857 181.816Z" fill="#222222"/>
<path d="M40.2625 183.156C40.3472 182.748 40.4242 182.34 40.509 181.932C40.5552 181.701 40.6168 181.462 40.6707 181.231C40.7477 180.861 40.8248 180.491 40.9018 180.122C40.9172 180.029 40.9788 179.783 40.9788 179.783C41.3639 179.775 41.803 179.783 42.1881 179.783C42.1419 179.991 42.0956 180.199 42.0494 180.399C41.9262 180.9 41.8107 181.4 41.6874 181.909C41.5873 182.309 41.4949 182.717 41.3947 183.118C41.3023 183.518 41.2176 183.919 41.1097 184.312C41.0404 184.566 40.9557 184.812 40.8402 185.051C40.6861 185.367 40.4011 185.536 40.0622 185.613C39.731 185.69 39.3998 185.644 39.0609 185.667C39.0609 185.39 39.0609 185.113 39.0609 184.828C39.0994 184.835 39.1302 184.843 39.1687 184.843C39.3382 184.851 39.5076 184.828 39.6617 184.735C39.8003 184.651 39.8542 184.512 39.9005 184.381C39.9544 184.219 39.9852 184.042 40.0314 183.857C39.9236 183.857 39.8311 183.857 39.7464 183.857C39.654 183.857 39.5616 183.857 39.4691 183.857C39.4152 183.857 39.3921 183.842 39.3767 183.788C39.2303 183.303 39.0763 182.817 38.93 182.332C38.8144 181.97 38.6989 181.608 38.5911 181.246C38.4447 180.784 38.2984 180.322 38.152 179.86C38.1443 179.837 38.1366 179.821 38.1289 179.79C38.4678 179.79 39.0301 179.79 39.369 179.79C39.369 179.79 39.369 179.79 39.4229 179.998C39.5307 180.414 39.6463 180.823 39.7618 181.238C39.8928 181.724 40.016 182.217 40.1469 182.702C40.1854 182.856 40.2317 183.01 40.2702 183.164C40.2471 183.156 40.2548 183.156 40.2625 183.156Z" fill="#222222"/>
<path d="M30.211 183.85C29.8259 183.85 29.4408 183.85 29.0479 183.85C29.0633 183.649 29.071 183.457 29.0865 183.264C29.0788 183.264 29.0788 183.264 29.071 183.256C29.0556 183.295 29.0325 183.326 29.0171 183.364C28.8554 183.696 28.5704 183.842 28.2238 183.873C27.9927 183.888 27.7616 183.896 27.5229 183.888C27.2841 183.88 27.053 183.834 26.8373 183.711C26.5678 183.557 26.4368 183.318 26.3906 183.025C26.3675 182.856 26.3444 182.679 26.3521 182.509C26.3675 182.24 26.406 181.97 26.5909 181.754C26.7141 181.6 26.8836 181.516 27.0761 181.462C27.4381 181.362 27.8001 181.339 28.1699 181.385C28.2931 181.4 28.4163 181.423 28.5473 181.446C28.7244 181.485 28.8785 181.585 28.9786 181.739C28.9786 181.739 28.9786 181.739 28.9786 181.747C28.994 181.785 29.0171 181.816 29.0556 181.87C29.0556 181.808 29.0556 181.762 29.0556 181.716C29.0556 181.493 29.0633 181.269 29.0556 181.054C29.0479 180.9 29.0479 180.73 28.9016 180.63C28.8246 180.576 28.7244 180.522 28.632 180.514C28.4163 180.484 28.193 180.468 27.9696 180.53C27.8541 180.561 27.7308 180.653 27.7154 180.815C27.7154 180.869 27.7 180.93 27.6923 180.992H26.5215C26.5138 180.738 26.537 180.484 26.6525 180.253C26.7757 180.014 27.0068 179.906 27.2533 179.844C27.4073 179.806 27.5691 179.79 27.7308 179.783C28.0312 179.767 28.3239 179.76 28.6243 179.767C28.9401 179.775 29.2559 179.806 29.5486 179.921C29.8798 180.052 30.0878 180.299 30.1571 180.653C30.1879 180.838 30.211 181.023 30.2187 181.215C30.2264 182.07 30.2187 182.925 30.2187 183.773C30.211 183.78 30.211 183.811 30.211 183.85ZM28.0004 183.087C28.1699 183.102 28.3316 183.11 28.5011 183.095C28.555 183.087 28.6089 183.087 28.6551 183.079C28.7938 183.056 28.9401 183.018 29.0017 182.864C29.0556 182.725 29.0556 182.586 29.0325 182.432C29.0094 182.278 28.8862 182.17 28.7475 182.14C28.6012 182.109 28.3855 182.101 28.2469 182.101C28.0543 182.101 27.7 182.063 27.5768 182.309C27.5075 182.455 27.5152 182.617 27.546 182.771C27.5768 182.925 27.6692 183.025 27.8233 183.049C27.8849 183.079 27.9388 183.087 28.0004 183.087Z" fill="#222222"/>
<path d="M54.35 182.024C53.4565 182.024 52.5784 182.024 51.6695 182.024C51.6695 182.209 51.6772 182.363 51.7003 182.532C51.708 182.609 51.7311 182.679 51.7542 182.748C51.8159 182.902 51.9391 182.979 52.0855 183.01C52.3704 183.064 52.6554 183.064 52.9404 182.995C53.1176 182.948 53.1946 182.817 53.2023 182.64C53.2023 182.594 53.21 182.556 53.2177 182.509C53.5951 182.509 53.9725 182.509 54.35 182.509C54.3731 182.833 54.3268 183.141 54.142 183.411C53.9956 183.618 53.7877 183.734 53.5489 183.788C53.3949 183.826 53.2408 183.85 53.0868 183.865C52.7864 183.88 52.486 183.896 52.1856 183.88C51.839 183.865 51.4924 183.834 51.1766 183.657C50.8993 183.495 50.7144 183.264 50.6297 182.948C50.5527 182.648 50.5219 182.34 50.5219 182.024C50.5219 181.901 50.4988 181.77 50.5065 181.647C50.5296 181.323 50.5219 180.992 50.6143 180.676C50.7144 180.33 50.9147 180.068 51.2382 179.906C51.4539 179.806 51.6849 179.752 51.916 179.736C52.1856 179.721 52.4629 179.706 52.7325 179.721C52.9866 179.736 53.2485 179.775 53.495 179.837C53.8724 179.944 54.1112 180.214 54.2344 180.591C54.3269 180.869 54.35 181.161 54.3423 181.454C54.35 181.654 54.35 181.832 54.35 182.024ZM51.6926 181.331C52.2087 181.331 52.717 181.331 53.2331 181.331C53.2254 181.223 53.21 181.123 53.21 181.015C53.2023 180.753 53.0406 180.591 52.7787 180.584C52.5784 180.576 52.3704 180.576 52.1702 180.584C51.9853 180.591 51.8313 180.661 51.7542 180.846C51.6926 181.007 51.6849 181.169 51.6926 181.331Z" fill="#222222"/>
<path d="M62.0293 182.579C62.4375 182.579 62.8303 182.579 63.2155 182.579C63.2232 182.648 63.2232 182.717 63.2309 182.787C63.2463 182.941 63.3618 183.072 63.5159 183.079C63.7623 183.095 64.0088 183.095 64.263 183.095C64.34 183.095 64.4247 183.064 64.5018 183.049C64.7405 183.002 64.7714 182.779 64.756 182.594C64.756 182.556 64.7405 182.509 64.7328 182.471C64.6789 182.271 64.5557 182.247 64.3785 182.232C64.1244 182.217 63.8702 182.232 63.616 182.209C63.331 182.186 63.0383 182.163 62.761 182.093C62.399 182.001 62.1448 181.778 62.0832 181.331C62.0601 181.2 62.037 181.069 62.0447 180.946C62.0524 180.745 62.0755 180.538 62.1525 180.345C62.2835 180.029 62.53 179.875 62.8458 179.813C63.331 179.713 63.824 179.721 64.3169 179.736C64.548 179.744 64.7868 179.783 65.0178 179.829C65.3875 179.906 65.6725 180.176 65.7033 180.599C65.7111 180.699 65.7188 180.799 65.7265 180.907C65.7033 180.915 65.6802 180.915 65.6648 180.915C65.3336 180.915 65.0024 180.915 64.6789 180.915C64.625 180.915 64.6019 180.9 64.5942 180.838C64.5865 180.784 64.5711 180.73 64.5557 180.684C64.5095 180.553 64.3785 180.53 64.2707 180.522C64.0396 180.507 63.8086 180.499 63.5698 180.507C63.3464 180.514 63.177 180.584 63.1847 180.892C63.1847 181.054 63.2155 181.192 63.3772 181.262C63.4157 181.277 63.4619 181.292 63.5082 181.3C63.6083 181.308 63.7007 181.315 63.8009 181.323C64.0704 181.339 64.3477 181.339 64.6173 181.362C64.8561 181.385 65.0949 181.4 65.3259 181.485C65.6263 181.6 65.8035 181.808 65.8574 182.117C65.8959 182.324 65.9113 182.54 65.8959 182.748C65.8574 183.287 65.5647 183.657 65.0024 183.788C64.7791 183.842 64.548 183.85 64.3169 183.865C64.0473 183.88 63.77 183.896 63.5005 183.88C63.2463 183.873 62.9844 183.85 62.7379 183.765C62.3297 183.611 62.0909 183.326 62.0601 182.879C62.037 182.794 62.0293 182.694 62.0293 182.579Z" fill="#222222"/>
<path d="M46.1395 180.923C45.7698 180.923 45.4001 180.923 45.0227 180.923C45.015 180.876 45.0073 180.838 44.9996 180.792C44.9534 180.622 44.884 180.553 44.6992 180.538C44.4681 180.522 44.2293 180.522 43.9906 180.522C43.9366 180.522 43.8904 180.53 43.8365 180.545C43.6517 180.591 43.6054 180.692 43.5977 180.853C43.59 180.953 43.6054 181.061 43.644 181.154C43.6979 181.285 43.8288 181.3 43.9521 181.315C44.0522 181.331 44.1523 181.331 44.2524 181.339C44.6376 181.362 45.0227 181.377 45.4001 181.416C45.5773 181.431 45.7467 181.493 45.9085 181.593C46.1549 181.747 46.2551 181.993 46.2936 182.263C46.3321 182.525 46.3167 182.794 46.2474 183.048C46.1472 183.426 45.8931 183.657 45.5388 183.765C45.3077 183.834 45.0612 183.857 44.8147 183.88C44.5528 183.903 44.2833 183.903 44.0137 183.903C43.7287 183.903 43.436 183.873 43.1664 183.788C42.7967 183.672 42.5348 183.418 42.4732 183.002C42.4501 182.871 42.4501 182.733 42.4424 182.586C42.8429 182.586 43.2434 182.586 43.6209 182.586C43.6363 182.694 43.6363 182.794 43.6748 182.894C43.7364 183.079 43.9135 183.095 44.0676 183.11C44.2524 183.126 44.4373 183.118 44.6222 183.11C44.73 183.102 44.8378 183.079 44.9457 183.056C45.092 183.025 45.1536 182.91 45.1613 182.779C45.169 182.663 45.1536 182.548 45.1228 182.44C45.1074 182.378 45.0381 182.317 44.9765 182.294C44.8917 182.263 44.7916 182.255 44.6992 182.247C44.4758 182.24 44.2524 182.247 44.0291 182.224C43.7133 182.194 43.3975 182.194 43.0894 182.078C42.7582 181.955 42.5502 181.731 42.4963 181.385C42.4655 181.192 42.4501 180.992 42.4578 180.799C42.4732 180.499 42.5579 180.222 42.8044 180.021C42.9661 179.891 43.151 179.837 43.3513 179.806C43.798 179.744 44.2447 179.729 44.6838 179.752C44.9534 179.767 45.2307 179.798 45.4925 179.867C45.816 179.952 46.0317 180.183 46.0933 180.53C46.1087 180.622 46.1087 180.715 46.1087 180.799C46.1318 180.83 46.1318 180.876 46.1395 180.923Z" fill="#222222"/>
<path d="M47.1788 180.638C47.0016 180.638 46.8399 180.638 46.6704 180.638C46.6704 180.353 46.6704 180.068 46.6704 179.783C46.8399 179.783 47.0016 179.783 47.1788 179.783C47.1788 179.49 47.1788 179.197 47.1788 178.897C47.5716 178.897 47.9567 178.897 48.3418 178.897C48.3418 179.19 48.3418 179.475 48.3418 179.775C48.8579 179.775 49.374 179.775 49.89 179.775C49.89 180.068 49.89 180.345 49.89 180.638C49.374 180.638 48.8656 180.638 48.3495 180.638C48.3495 180.684 48.3495 182.024 48.3495 182.663C48.3495 182.864 48.4112 182.971 48.5652 183.018C48.7115 183.056 48.8579 183.041 48.9811 182.956C49.0967 182.879 49.0967 182.74 49.1044 182.617C49.1121 182.494 49.1044 182.232 49.1044 182.232H50.0518C50.0518 182.232 50.0441 182.363 50.0441 182.617C50.0364 182.733 50.0364 182.856 50.0287 182.971C50.0056 183.38 49.7591 183.726 49.3123 183.819C48.958 183.896 48.6037 183.903 48.2494 183.888C47.949 183.873 47.664 183.811 47.4407 183.572C47.3097 183.434 47.225 183.264 47.2019 183.072C47.1865 182.918 47.1788 182.764 47.1788 182.609C47.1788 181.986 47.1788 181.362 47.1788 180.73C47.1788 180.707 47.1788 180.676 47.1788 180.638Z" fill="#222222"/>
<path d="M18.0103 179.783C18.3954 179.783 18.7805 179.783 19.1579 179.783C19.1348 179.983 19.1194 180.183 19.0963 180.383C19.104 180.383 19.104 180.391 19.1117 180.391C19.1425 180.345 19.1733 180.291 19.2041 180.245C19.3197 180.029 19.4352 179.883 19.6586 179.79C19.7125 179.767 19.8357 179.752 19.8896 179.752C20.1515 179.744 20.4134 179.713 20.6599 179.806C20.968 179.921 21.1451 180.168 21.1913 180.484C21.2376 180.807 21.2299 181.131 21.253 181.462C20.8833 181.462 20.5366 181.462 20.19 181.462C20.1823 181.308 20.1746 181.161 20.1669 181.015C20.1592 180.884 20.1438 180.738 19.9975 180.684C19.6509 180.553 19.2966 180.645 19.1887 181.069C19.1579 181.177 19.1656 181.292 19.1656 181.4C19.1656 182.186 19.1656 182.964 19.1656 183.749C19.1656 183.78 19.1656 183.819 19.1656 183.85C18.7728 183.85 18.3954 183.85 18.0103 183.85C18.0103 182.494 18.0103 181.146 18.0103 179.783Z" fill="#222222"/>
<path d="M68.9999 183.826C68.3529 183.826 67.7059 183.826 67.0435 183.826C67.0435 183.172 67.0435 182.525 67.0435 181.87C67.6905 181.87 68.3452 181.87 68.9999 181.87C68.9999 182.525 68.9999 183.172 68.9999 183.826Z" fill="#222222"/>
<path d="M373.746 184.357C373.881 183.859 374.187 182.748 374.284 182.399C374.287 182.388 374.293 182.378 374.302 182.371C374.311 182.364 374.322 182.361 374.334 182.361C375.364 182.364 376.562 182.366 377.587 182.361C377.793 182.361 377.988 182.307 378.074 182.077C378.16 181.847 378.053 181.665 377.807 181.664C377.353 181.664 376.9 181.673 376.447 181.66C376.054 181.649 375.67 181.576 375.326 181.365C374.983 181.155 374.795 180.834 374.749 180.434C374.652 179.59 374.937 178.851 375.439 178.204C375.843 177.683 376.43 177.339 377.08 177.242C377.377 177.196 377.678 177.173 377.978 177.174C379.28 177.167 380.577 177.171 381.876 177.171H382.003C382.011 177.171 382.019 177.173 382.026 177.177C382.033 177.181 382.039 177.186 382.044 177.193C382.049 177.199 382.052 177.207 382.054 177.215C382.055 177.223 382.055 177.231 382.053 177.239L381.517 179.194C381.514 179.205 381.507 179.215 381.498 179.222C381.489 179.229 381.478 179.233 381.467 179.233H378.282C378.05 179.233 377.87 179.348 377.803 179.535C377.718 179.775 377.825 179.931 378.084 179.932C378.593 179.935 379.103 179.914 379.61 179.939C380.074 179.961 380.527 180.047 380.879 180.404C381.091 180.62 381.212 180.911 381.215 181.214C381.244 182.034 380.973 182.836 380.455 183.47C380.057 183.969 379.516 184.26 378.884 184.355C378.587 184.399 378.288 184.421 377.988 184.422C376.633 184.429 375.278 184.425 373.924 184.425H373.798C373.79 184.425 373.782 184.423 373.775 184.419C373.768 184.415 373.762 184.41 373.757 184.403C373.752 184.397 373.749 184.389 373.747 184.381C373.746 184.373 373.746 184.365 373.748 184.357" fill="#222222"/>
<path d="M364.49 180.577C364.479 180.581 364.47 180.587 364.464 180.596C364.458 180.605 364.454 180.615 364.454 180.626C364.453 180.637 364.457 180.648 364.462 180.657C364.468 180.666 364.477 180.673 364.487 180.677C364.594 180.717 364.694 180.754 364.79 180.801C365.224 181.012 365.4 181.366 365.383 181.855C365.37 182.417 365.146 182.953 364.755 183.356C364.466 183.66 364.104 183.874 363.704 184.024C363.115 184.247 362.508 184.417 361.878 184.422C360.087 184.422 357.246 184.416 356.756 184.415C356.748 184.414 356.74 184.412 356.732 184.409C356.725 184.405 356.719 184.399 356.714 184.393C356.709 184.386 356.706 184.379 356.704 184.371C356.703 184.363 356.703 184.354 356.706 184.346C357.354 181.975 358.016 179.59 358.667 177.21C358.67 177.199 358.676 177.189 358.685 177.182C358.694 177.174 358.705 177.17 358.717 177.17C359.104 177.17 362.098 177.157 363.6 177.177C364.233 177.186 364.877 177.239 365.452 177.545C365.968 177.82 366.153 178.217 366.044 178.818C365.978 179.178 365.878 179.521 365.663 179.829C365.456 180.121 365.165 180.342 364.829 180.463C364.719 180.504 364.607 180.539 364.486 180.577M360.342 182.659C360.339 182.667 360.339 182.675 360.341 182.683C360.342 182.691 360.345 182.698 360.35 182.705C360.355 182.712 360.361 182.717 360.368 182.721C360.376 182.725 360.384 182.727 360.392 182.727C360.753 182.727 361.104 182.742 361.453 182.723C361.872 182.7 362.172 182.509 362.276 182.063C362.354 181.73 362.27 181.483 362.002 181.47C361.573 181.449 361.142 181.463 360.705 181.464C360.694 181.464 360.683 181.468 360.674 181.475C360.665 181.482 360.658 181.492 360.655 181.503C360.555 181.871 360.45 182.256 360.341 182.658M361.076 179.963C361.074 179.971 361.073 179.98 361.075 179.988C361.076 179.996 361.08 180.003 361.084 180.01C361.089 180.016 361.096 180.022 361.103 180.025C361.11 180.029 361.118 180.031 361.126 180.032C361.422 180.032 361.704 180.044 361.983 180.029C362.547 179.999 362.666 179.854 362.809 179.376C362.89 179.107 362.771 178.921 362.495 178.906C362.137 178.886 361.778 178.899 361.406 178.9C361.394 178.901 361.383 178.905 361.374 178.912C361.365 178.919 361.359 178.929 361.356 178.94C361.268 179.261 361.175 179.603 361.076 179.965" fill="#222222"/>
<path d="M369.091 184.557C368.49 184.584 367.89 184.504 367.318 184.321C366.409 184.02 365.795 183.436 365.674 182.405C365.583 181.627 365.78 180.903 366.035 180.187C366.244 179.614 366.559 179.086 366.964 178.631C367.257 178.295 367.602 178.009 367.986 177.783C368.548 177.443 369.171 177.216 369.819 177.116C370.389 177.036 370.964 177.001 371.539 177.013C372.055 177.021 372.566 177.118 373.049 177.3C373.834 177.594 374.357 178.128 374.528 178.961C374.621 179.416 374.591 179.881 374.497 180.335C374.388 180.9 374.199 181.447 373.938 181.959C373.708 182.413 373.403 182.824 373.037 183.176C372.383 183.798 371.565 184.218 370.68 184.387C370.158 184.487 369.093 184.574 369.09 184.557M371.215 180.745C371.3 180.4 371.35 180.046 371.365 179.691C371.379 179.559 371.35 179.427 371.283 179.313C371.176 179.151 371.009 179.102 370.883 179.062C370.715 179.013 370.539 179.005 370.368 179.04C370.111 179.075 369.871 179.192 369.684 179.372C369.594 179.466 369.519 179.573 369.463 179.691C369.291 180.026 369.157 180.38 369.063 180.745C368.837 181.541 368.838 181.768 368.881 181.973C368.924 182.178 368.989 182.278 369.063 182.352C369.243 182.535 369.493 182.545 369.637 182.553C369.894 182.561 370.148 182.491 370.364 182.352C370.522 182.246 370.658 182.109 370.764 181.95C370.965 181.671 371.05 181.358 371.215 180.745Z" fill="#222222"/>
<path d="M380.7 184.357C380.835 183.859 381.141 182.748 381.238 182.399C381.241 182.388 381.247 182.378 381.256 182.371C381.265 182.364 381.276 182.361 381.288 182.361C382.318 182.364 383.516 182.366 384.541 182.361C384.748 182.361 384.939 182.307 385.028 182.077C385.116 181.847 385.007 181.665 384.761 181.664C384.308 181.664 383.854 181.673 383.401 181.66C383.008 181.649 382.624 181.576 382.28 181.365C381.937 181.155 381.749 180.834 381.703 180.434C381.606 179.59 381.891 178.851 382.394 178.204C382.797 177.683 383.384 177.339 384.034 177.242C384.331 177.196 384.632 177.173 384.932 177.174C386.234 177.167 387.531 177.171 388.83 177.171H388.957C388.965 177.171 388.973 177.173 388.98 177.177C388.987 177.181 388.993 177.186 388.998 177.193C389.003 177.199 389.006 177.207 389.008 177.215C389.009 177.223 389.009 177.231 389.007 177.239L388.471 179.194C388.468 179.205 388.462 179.215 388.453 179.222C388.444 179.229 388.433 179.233 388.421 179.233H385.236C385.004 179.233 384.824 179.348 384.757 179.535C384.672 179.775 384.779 179.931 385.038 179.932C385.547 179.935 386.057 179.914 386.565 179.939C387.028 179.961 387.482 180.047 387.833 180.404C388.045 180.62 388.166 180.911 388.169 181.214C388.198 182.034 387.928 182.836 387.409 183.47C387.009 183.969 386.47 184.26 385.838 184.355C385.541 184.399 385.241 184.422 384.94 184.423C383.585 184.43 382.231 184.426 380.876 184.426H380.752C380.744 184.425 380.736 184.423 380.729 184.42C380.722 184.416 380.716 184.411 380.711 184.404C380.706 184.397 380.703 184.39 380.701 184.382C380.7 184.374 380.7 184.366 380.702 184.358" fill="#222222"/>
<path d="M358.14 177.244C358.026 177.663 357.845 178.346 357.607 179.194C357.604 179.205 357.597 179.215 357.588 179.222C357.579 179.229 357.568 179.233 357.557 179.234C356.856 179.231 356.019 179.217 355.325 179.237C354.571 179.258 354.198 179.538 353.904 180.23C353.727 180.662 353.614 181.117 353.567 181.582C353.525 181.945 353.811 182.311 354.183 182.325C354.807 182.349 356.293 182.361 356.668 182.363C356.676 182.363 356.684 182.365 356.691 182.369C356.698 182.372 356.705 182.378 356.709 182.384C356.714 182.391 356.717 182.399 356.719 182.407C356.72 182.415 356.72 182.423 356.718 182.431C356.539 183.091 356.362 183.734 356.185 184.386C356.182 184.397 356.175 184.407 356.166 184.414C356.157 184.421 356.146 184.425 356.135 184.425H353.254C352.634 184.425 352.024 184.34 351.46 184.079C350.842 183.794 350.445 183.307 350.315 182.623C350.156 181.784 350.365 180.994 350.642 180.213C350.824 179.688 351.101 179.202 351.459 178.777C351.787 178.385 352.182 178.055 352.625 177.803C353.116 177.529 353.642 177.365 354.186 177.257C354.462 177.203 354.742 177.175 355.022 177.173C355.931 177.167 357.71 177.173 358.089 177.177C358.097 177.177 358.105 177.179 358.112 177.183C358.119 177.187 358.125 177.192 358.13 177.198C358.135 177.205 358.138 177.212 358.14 177.22C358.141 177.228 358.141 177.237 358.139 177.244" fill="#222222"/>
<path d="M391.29 178.134C391.256 178.18 391.089 178.178 391.066 178.134C391.052 178.102 391.046 177.937 391.04 177.762C391.039 177.749 391.034 177.737 391.025 177.727C391.016 177.718 391.004 177.712 390.992 177.711C390.979 177.709 390.966 177.712 390.955 177.72C390.945 177.727 390.937 177.738 390.934 177.75C390.907 177.851 390.883 177.945 390.862 178.033C390.829 178.153 390.827 178.157 390.669 178.157C390.661 178.156 390.653 178.154 390.646 178.151C390.639 178.147 390.633 178.142 390.628 178.135C390.623 178.129 390.62 178.121 390.618 178.113C390.617 178.105 390.617 178.097 390.619 178.09C390.669 177.896 390.819 177.391 390.861 177.191C390.893 177.045 390.99 177.073 391.085 177.071C391.204 177.067 391.202 177.14 391.207 177.219C391.216 177.376 391.226 177.524 391.238 177.692C391.238 177.704 391.242 177.715 391.25 177.724C391.257 177.733 391.267 177.74 391.278 177.743C391.29 177.746 391.302 177.745 391.312 177.74C391.323 177.736 391.332 177.728 391.338 177.717C391.452 177.54 391.555 177.386 391.659 177.215C391.746 177.073 391.74 177.082 391.95 177.084C391.958 177.085 391.966 177.087 391.973 177.09C391.98 177.094 391.987 177.099 391.991 177.106C391.996 177.112 391.999 177.12 392.001 177.128C392.003 177.136 392.002 177.144 392 177.152C391.922 177.447 391.845 177.752 391.772 178.047C391.745 178.157 391.667 178.17 391.572 178.166C391.564 178.166 391.556 178.164 391.549 178.16C391.542 178.156 391.535 178.151 391.531 178.144C391.526 178.138 391.523 178.13 391.521 178.123C391.519 178.115 391.52 178.106 391.522 178.099C391.54 178.028 391.559 177.959 391.578 177.892C391.581 177.88 391.58 177.867 391.575 177.855C391.569 177.843 391.56 177.834 391.548 177.829C391.537 177.823 391.523 177.822 391.511 177.826C391.499 177.83 391.488 177.838 391.481 177.849L391.29 178.134Z" fill="#222222"/>
<path d="M389.898 178.066C389.936 177.922 390.028 177.578 390.091 177.341C390.093 177.333 390.093 177.325 390.092 177.317C390.09 177.309 390.087 177.301 390.082 177.295C390.077 177.288 390.071 177.283 390.064 177.279C390.057 177.275 390.049 177.273 390.041 177.273H389.851C389.843 177.273 389.835 177.271 389.828 177.267C389.82 177.263 389.814 177.258 389.809 177.252C389.805 177.245 389.801 177.238 389.8 177.23C389.798 177.222 389.799 177.214 389.801 177.206C389.811 177.166 389.834 177.131 389.866 177.106C389.899 177.081 389.938 177.067 389.979 177.068L390.665 177.07C390.673 177.07 390.681 177.072 390.688 177.076C390.695 177.08 390.702 177.085 390.706 177.092C390.711 177.098 390.715 177.106 390.716 177.114C390.718 177.122 390.717 177.13 390.715 177.138C390.714 177.142 390.713 177.147 390.712 177.152C390.702 177.189 390.681 177.221 390.651 177.245C390.62 177.268 390.583 177.28 390.545 177.28C390.484 177.28 390.417 177.28 390.374 177.277C390.363 177.277 390.352 177.281 390.343 177.288C390.334 177.295 390.327 177.305 390.324 177.316L390.13 178.012C390.12 178.048 390.099 178.079 390.069 178.101C390.039 178.123 390.003 178.135 389.966 178.134H389.951C389.943 178.134 389.935 178.132 389.928 178.128C389.92 178.124 389.914 178.119 389.909 178.113C389.905 178.106 389.901 178.098 389.9 178.09C389.898 178.083 389.899 178.074 389.901 178.066" fill="#222222"/>
<path d="M343.054 183.238C343.126 182.857 343.236 182.248 343.473 181.581C343.728 180.863 344.085 180.194 344.493 179.549C344.943 178.824 345.47 178.151 346.066 177.541C346.589 177.013 347.121 176.493 347.671 175.993C348.532 175.209 349.481 174.532 350.465 173.909C351.125 173.491 351.806 173.106 352.488 172.722C352.791 172.552 353.28 172.292 353.922 171.982C355.208 171.361 356.248 170.978 357.175 170.634C357.637 170.464 358.26 170.244 359.007 170.002C358.952 170.032 358.899 170.068 358.842 170.093C357.597 170.654 356.389 171.283 355.246 172.025C354.404 172.571 353.59 173.16 352.78 173.75C352.443 173.995 352.144 174.292 351.834 174.571C351.6 174.78 351.367 174.99 351.148 175.213C350.388 175.988 349.696 176.82 349.131 177.742C348.548 178.693 348.12 179.71 347.907 180.805C347.792 181.386 347.755 181.98 347.797 182.57C347.891 183.84 348.329 184.992 349.08 186.027C349.496 186.601 349.993 187.099 350.527 187.566C351.414 188.343 352.417 188.939 353.48 189.44C354.541 189.943 355.649 190.338 356.788 190.619C357.31 190.747 357.829 190.884 358.355 190.993C358.805 191.087 359.267 191.15 359.724 191.219C360.136 191.283 360.548 191.341 360.961 191.394C361.224 191.426 361.49 191.444 361.754 191.468C363.173 191.587 364.596 191.591 366.019 191.568C366.676 191.558 367.333 191.509 367.989 191.463C368.477 191.429 368.964 191.384 369.449 191.321C370.17 191.228 370.889 191.123 371.607 191.006C372.334 190.887 373.059 190.761 373.783 190.611C374.446 190.475 375.109 190.328 375.758 190.141C376.824 189.835 377.887 189.519 378.933 189.158C379.821 188.853 380.692 188.497 381.556 188.131C382.271 187.827 382.97 187.483 383.669 187.142C384.015 186.973 384.016 186.972 384.783 186.593C384.552 186.762 384.329 186.945 384.089 187.095C383.252 187.637 382.428 188.2 381.564 188.697C380.713 189.184 379.832 189.629 378.939 190.036C377.974 190.476 376.983 190.863 375.994 191.247C375.33 191.504 374.656 191.736 373.975 191.939C372.985 192.233 371.991 192.516 370.988 192.756C370.087 192.972 369.168 193.133 368.255 193.303C367.61 193.423 366.963 193.528 366.312 193.619C365.841 193.685 365.364 193.723 364.889 193.764C364.265 193.817 363.64 193.861 363.016 193.906C362.648 193.932 362.371 193.94 362.306 193.943C361.342 193.986 360.293 194.034 358.999 193.96C358.686 193.942 358.403 193.918 357.836 193.869C357.298 193.823 356.721 193.774 356.043 193.691C355.467 193.621 354.892 193.547 354.321 193.44C353.236 193.242 352.166 192.971 351.117 192.63C350.636 192.471 350.163 192.285 349.691 192.102C348.871 191.789 348.084 191.394 347.342 190.923C346.816 190.587 346.312 190.218 345.832 189.818C345.398 189.45 344.993 189.049 344.619 188.62C344.174 188.106 343.811 187.526 343.544 186.9C343.326 186.405 343.226 185.959 343.094 185.413C342.994 185.005 342.966 183.706 343.055 183.239" fill="#222222"/>
<path d="M65.1777 109.622L71.9497 90.2611L65.1777 85.8374V109.622ZM86.5952 97.6477V86.6555L65.1777 109.622L86.5952 97.6477ZM65.1777 74.9945V84.2726L79.1541 91.1008L85.6501 85.8374L65.1777 74.9945Z" fill="#222222"/>
<path d="M323.321 88.4499V97.5883H329.926L329.163 95.7636H325.088V88.4499H323.321ZM352.043 93.9388H349.382L349.353 97.5956H347.579V88.4499H352.014C355.65 88.4499 355.701 93.9388 352.043 93.9388ZM349.382 92.1141L352.043 92.1067C353.355 92.1067 353.311 90.282 352.014 90.282H349.382V92.1141ZM337.337 90.282V88.4572H330.3V97.5956H337.337V95.7709H332.059V93.9388H335.578V92.1067H332.059V90.282H337.337Z" fill="#222222"/>
<path fill-rule="evenodd" clip-rule="evenodd" d="M320.53 88.4499H311.389V97.5883H320.53V88.4499ZM318.27 92.825L315.287 92.3779L316.042 90.282L319.179 91.7111L318.739 95.3312L318.27 92.825Z" fill="#222222"/>
<path d="M345.292 97.5957H347.227L343.437 88.4573H341.487L337.697 97.5957H339.633L340.388 95.7709H344.53L345.292 97.5957ZM341.15 93.9388L342.462 90.7657L343.775 93.9388H341.15ZM354.888 88.7797H354.837V88.5012H354.741V88.4573H354.991V88.5012H354.895L354.888 88.7797ZM355.174 88.7797L355.086 88.5086C355.086 88.5452 355.093 88.5892 355.093 88.6185V88.7797H355.042V88.45H355.115L355.203 88.7064L355.291 88.45H355.365V88.7797H355.313V88.5086L355.218 88.7797H355.174Z" fill="#222222"/>
<path d="M315.06 93.0155L315.287 92.3779C315.287 92.3779 316.658 92.8689 316.65 92.8689L316.02 94.0708L312.362 95.7709L315.06 93.0155Z" fill="white"/>
<path d="M260.616 50.6763H236.905C236.896 50.6763 236.888 50.6763 236.879 50.6763C232.843 50.6763 229.571 47.4057 229.571 43.3711C229.571 39.6135 232.409 36.5185 236.059 36.1112C236.968 33.4832 239.336 31.5357 242.195 31.2357C243.483 26.9849 247.432 23.8903 252.105 23.8903C257.254 23.8903 261.525 27.648 262.324 32.5699C266.559 33.3639 269.764 37.0802 269.764 41.5447C269.764 46.3828 266.001 50.3421 261.24 50.6562V50.6763H260.643C260.638 50.6763 260.634 50.6763 260.63 50.6763C260.625 50.6763 260.621 50.6763 260.616 50.6763Z" stroke="#222222" stroke-width="2.31579"/>
<rect x="237.538" y="41.265" width="26.0712" height="13.755" fill="#FAFAFA"/>
<rect x="238" y="41" width="26.0712" height="13.755" fill="#FAFAFA"/>
<path d="M241.221 50.4882V43.7446C241.221 43.2876 241.431 43.0035 241.925 42.9171C242.505 42.8183 243.185 42.7689 243.913 42.7689C245.704 42.7689 247.026 43.3123 247.026 45.0044C247.026 45.7578 246.606 46.4741 245.902 46.7952C246.853 47.0917 247.433 47.8204 247.433 48.7961C247.433 50.9204 245.729 51.4145 244.012 51.4145C243.419 51.4145 242.555 51.3774 241.912 51.2786C241.418 51.2045 241.221 50.9081 241.221 50.4882ZM244.061 47.5487H242.641V50.1176C243.135 50.1794 243.641 50.1917 244.074 50.1917C245.235 50.1917 245.914 49.8459 245.914 48.8578C245.914 47.9686 245.272 47.5487 244.061 47.5487ZM243.777 44.0039C243.357 44.0039 242.999 44.0287 242.641 44.0657V46.4371H243.901C244.951 46.4371 245.506 45.9924 245.506 45.1526C245.506 44.3127 244.827 44.0039 243.777 44.0039ZM251.553 44.0657C250.726 44.0657 250.33 44.3992 250.33 44.955C250.33 46.647 254.641 45.8689 254.641 48.8578C254.641 50.377 253.727 51.4762 251.615 51.4762C250.75 51.4762 249.923 51.3033 249.268 50.9698C248.712 50.6734 248.515 50.2411 248.737 49.8089C248.935 49.426 249.318 49.463 249.799 49.6607C250.442 49.9571 250.985 50.1176 251.652 50.1176C252.554 50.1176 253.146 49.7595 253.146 49.0431C253.146 47.1411 248.836 48.1168 248.836 45.0044C248.836 43.6334 249.775 42.7071 251.664 42.7071C252.442 42.7071 253.233 42.8924 253.813 43.2258C254.295 43.4852 254.456 43.8557 254.246 44.2633C254.011 44.7203 253.492 44.5844 253.072 44.3992C252.578 44.1892 252.097 44.0657 251.553 44.0657ZM258.609 44.0657C257.782 44.0657 257.386 44.3992 257.386 44.955C257.386 46.647 261.697 45.8689 261.697 48.8578C261.697 50.377 260.783 51.4762 258.671 51.4762C257.806 51.4762 256.979 51.3033 256.324 50.9698C255.768 50.6734 255.571 50.2411 255.793 49.8089C255.991 49.426 256.374 49.463 256.855 49.6607C257.498 49.9571 258.041 50.1176 258.708 50.1176C259.61 50.1176 260.202 49.7595 260.202 49.0431C260.202 47.1411 255.892 48.1168 255.892 45.0044C255.892 43.6334 256.831 42.7071 258.72 42.7071C259.498 42.7071 260.289 42.8924 260.869 43.2258C261.351 43.4852 261.512 43.8557 261.302 44.2633C261.067 44.7203 260.548 44.5844 260.128 44.3992C259.634 44.1892 259.153 44.0657 258.609 44.0657Z" fill="#222222"/>
<path d="M162.427 30.3728L151.315 33.9876C150.261 34.331 149.688 35.4515 150.04 36.4818C150.391 37.512 151.537 38.0723 152.591 37.7289L163.703 34.1141C164.757 33.7707 165.33 32.6501 164.979 31.6199C164.628 30.5896 163.481 30.0293 162.427 30.3728ZM162.427 24.1011L151.315 27.7159C150.261 28.0593 149.688 29.1799 150.04 30.2101C150.391 31.2403 151.537 31.8006 152.591 31.4572L163.703 27.8424C164.757 27.499 165.33 26.3784 164.979 25.3482C164.628 24.318 163.481 23.7577 162.427 24.1011ZM162.427 36.6444L151.297 40.2592C150.243 40.6026 149.67 41.7232 150.021 42.7535C150.372 43.7837 151.519 44.344 152.573 44.0006L163.685 40.3858C164.739 40.0424 165.312 38.9218 164.96 37.8915C164.628 36.8613 163.481 36.301 162.427 36.6444ZM143.716 50.9048H141.35V50.0192H143.809V49.0071H140V53.887H143.846V52.8568H141.35V51.9531H143.716V50.9048ZM149.744 49.0069H151.094V53.8869H149.744V49.0069ZM153.146 51.4109C153.183 49.7842 154.847 49.5854 155.956 50.1999L156.049 49.1517C154.144 48.4468 151.759 49.0794 151.759 51.3928C151.741 53.7605 154.107 54.375 156.067 53.7605L155.993 52.6942C154.884 53.2725 153.127 53.0376 153.146 51.4109ZM157.971 50.2903C157.971 49.7119 159.266 49.73 159.95 50.0915L160.042 49.0794C158.397 48.5914 156.585 48.9709 156.585 50.3988C156.585 52.1339 158.914 51.7001 158.914 52.4773C158.914 53.1822 157.639 53.0918 156.751 52.6942L156.659 53.7786C158.082 54.1943 160.283 54.1762 160.283 52.3688C160.283 50.5434 157.971 51.1579 157.971 50.2903ZM162.076 50.2903C162.076 49.7119 163.37 49.73 164.054 50.0915L164.147 49.0794C162.501 48.5914 160.689 48.9709 160.689 50.3988C160.689 52.1339 163.019 51.7001 163.019 52.4773C163.019 53.1822 161.743 53.0918 160.856 52.6942L160.745 53.7786C162.169 54.1943 164.387 54.1762 164.387 52.3688C164.387 50.5434 162.076 51.1579 162.076 50.2903ZM172.116 49.0071H170.396V53.887H171.653V50.6699L173.373 53.887H175V49.0071H173.761V52.1519L172.116 49.0071ZM167.253 48.8805C165.848 48.8805 164.775 49.6939 164.775 51.4471C164.775 53.146 165.848 53.9955 167.253 53.9955C168.658 53.9955 169.731 53.1279 169.731 51.4471C169.749 49.6939 168.677 48.8805 167.253 48.8805ZM167.253 53.0376C166.495 53.0376 166.162 52.1881 166.162 51.4471C166.162 50.706 166.495 49.8565 167.253 49.8565C168.011 49.8565 168.344 50.7602 168.344 51.4471C168.344 52.1881 168.03 53.0376 167.253 53.0376ZM147.969 51.4832C148.542 51.3205 148.838 50.9591 148.838 50.3084C148.838 49.2962 147.913 49.0071 147.248 49.0071H144.807V53.887H146.138V52.0435C146.138 52.0254 146.471 52.0435 146.675 52.0435C146.915 52.0435 147.081 52.1881 147.174 52.423L147.691 53.887H149.134C149.134 53.887 148.431 51.9893 148.431 51.9712C148.283 51.6097 147.987 51.4832 147.969 51.4832ZM146.841 51.0494H146.101V49.965H146.859C147.211 49.965 147.47 50.1819 147.47 50.5072C147.488 50.8687 147.174 51.0675 146.841 51.0494Z" fill="#222222"/>
<path d="M178.153 198.362C178.153 184.368 189.501 173.024 203.5 173.024C217.499 173.024 228.847 184.368 228.847 198.362C228.847 205.365 226.005 211.705 221.41 216.291L240.87 235.743C250.444 226.179 256.366 212.962 256.366 198.362C256.366 169.174 232.697 145.514 203.5 145.514C174.302 145.514 150.633 169.174 150.633 198.362C150.633 213.023 156.606 226.29 166.251 235.864L185.71 216.411C181.045 211.816 178.153 205.426 178.153 198.362Z" fill="url(#paint3_linear_202_385)"/>
</g>
<defs>
<filter id="filter0_d_202_385" x="-15.4386" y="-15.4386" width="437.877" height="252.405" filterUnits="userSpaceOnUse" color-interpolation-filters="sRGB">
<feFlood flood-opacity="0" result="BackgroundImageFix"/>
<feColorMatrix in="SourceAlpha" type="matrix" values="0 0 0 0 0 0 0 0 0 0 0 0 0 0 0 0 0 0 127 0" result="hardAlpha"/>
<feOffset/>
<feGaussianBlur stdDeviation="7.7193"/>
<feColorMatrix type="matrix" values="0 0 0 0 0.0415817 0 0 0 0 0.0415817 0 0 0 0 0.0415817 0 0 0 0.1 0"/>
<feBlend mode="normal" in2="BackgroundImageFix" result="effect1_dropShadow_202_385"/>
<feBlend mode="normal" in="SourceGraphic" in2="effect1_dropShadow_202_385" result="shape"/>
</filter>
<filter id="filter1_d_202_385" x="2.51499" y="4.05577" width="401.97" height="216.504" filterUnits="userSpaceOnUse" color-interpolation-filters="sRGB">
<feFlood flood-opacity="0" result="BackgroundImageFix"/>
<feColorMatrix in="SourceAlpha" type="matrix" values="0 0 0 0 0 0 0 0 0 0 0 0 0 0 0 0 0 0 127 0" result="hardAlpha"/>
<feMorphology radius="1.54386" operator="erode" in="SourceAlpha" result="effect1_dropShadow_202_385"/>
<feOffset dy="1.54386"/>
<feGaussianBlur stdDeviation="3.85965"/>
<feColorMatrix type="matrix" values="0 0 0 0 0.0415817 0 0 0 0 0.0415817 0 0 0 0 0.0415817 0 0 0 0.15 0"/>
<feBlend mode="normal" in2="BackgroundImageFix" result="effect1_dropShadow_202_385"/>
<feBlend mode="normal" in="SourceGraphic" in2="effect1_dropShadow_202_385" result="shape"/>
</filter>
<linearGradient id="paint0_linear_202_385" x1="58.6834" y1="40.3907" x2="52.9863" y2="243.84" gradientUnits="userSpaceOnUse">
<stop stop-color="#1E85E9" stop-opacity="0.300399"/>
<stop offset="0.202755" stop-color="#8671F3" stop-opacity="0.397044"/>
<stop offset="0.707269" stop-color="#C06CFD" stop-opacity="0.4"/>
<stop offset="1" stop-color="#FFBEE8" stop-opacity="0"/>
</linearGradient>
<linearGradient id="paint1_linear_202_385" x1="107.077" y1="92.4279" x2="113.168" y2="244.219" gradientUnits="userSpaceOnUse">
<stop stop-color="#1E85E9" stop-opacity="0.300399"/>
<stop offset="0.202755" stop-color="#8671F3" stop-opacity="0.397044"/>
<stop offset="0.707269" stop-color="#C06CFD" stop-opacity="0.4"/>
<stop offset="1" stop-color="#FFBEE8" stop-opacity="0"/>
</linearGradient>
<radialGradient id="paint2_radial_202_385" cx="0" cy="0" r="1" gradientUnits="userSpaceOnUse" gradientTransform="translate(208 69.3045) rotate(90.7977) scale(143.654 630.682)">
<stop stop-color="white"/>
<stop offset="0.553797" stop-color="#E3E0E0"/>
<stop offset="0.640823" stop-color="#E3E0E0" stop-opacity="0.44"/>
<stop offset="1" stop-color="#E3E0E0" stop-opacity="0"/>
</radialGradient>
<linearGradient id="paint3_linear_202_385" x1="322.39" y1="194.888" x2="226.003" y2="81.4642" gradientUnits="userSpaceOnUse">
<stop stop-color="#1E85E9"/>
<stop offset="0.202755" stop-color="#8671F3"/>
<stop offset="0.707269" stop-color="#CFA9FC"/>
<stop offset="1" stop-color="#F4D9FB"/>
</linearGradient>
<clipPath id="clip0_202_385">
<rect width="407" height="250" fill="white"/>
</clipPath>
</defs>
</svg>
