<?xml version="1.0" encoding="UTF-8"?>
<svg xmlns="http://www.w3.org/2000/svg" width="570" height="510" viewBox="0 0 570 510" fill="none">
  <g opacity="0.498837">
    <path fill-rule="evenodd" clip-rule="evenodd" d="M342.432 118.546C359.139 156.887 369.464 209.834 369.464 268.302C369.464 326.77 359.139 379.717 342.432 418.059C334.079 437.229 324.124 452.762 313.056 463.506C301.986 474.251 289.786 480.22 276.955 480.22C264.124 480.22 251.924 474.251 240.854 463.506C229.785 452.762 219.831 437.229 211.478 418.059C194.771 379.717 184.445 326.77 184.445 268.302H185.045C185.045 326.708 195.361 379.57 212.028 417.819C220.361 436.944 230.277 452.402 241.272 463.075C252.265 473.747 264.323 479.62 276.955 479.62C289.587 479.62 301.644 473.747 312.638 463.075C323.633 452.402 333.548 436.944 341.882 417.819C358.548 379.57 368.864 326.708 368.864 268.302C368.864 209.897 358.548 157.035 341.882 118.785C333.548 99.6601 323.633 84.2018 312.638 73.5291C301.644 62.8577 289.587 56.9838 276.955 56.9838V56.3838C289.786 56.3838 301.986 62.353 313.056 73.0985C324.124 83.8427 334.079 99.3753 342.432 118.546Z" fill="url(#paint0_linear_623_737)"></path>
    <path fill-rule="evenodd" clip-rule="evenodd" d="M342.432 118.546C359.139 156.887 369.464 209.834 369.464 268.302C369.464 326.77 359.139 379.717 342.432 418.059C334.079 437.229 324.124 452.762 313.056 463.506C301.986 474.251 289.786 480.22 276.955 480.22C264.124 480.22 251.924 474.251 240.854 463.506C229.785 452.762 219.831 437.229 211.478 418.059C194.771 379.717 184.445 326.77 184.445 268.302H185.045C185.045 326.708 195.361 379.57 212.028 417.819C220.361 436.944 230.277 452.402 241.272 463.075C252.265 473.747 264.323 479.62 276.955 479.62C289.587 479.62 301.644 473.747 312.638 463.075C323.633 452.402 333.548 436.944 341.882 417.819C358.548 379.57 368.864 326.708 368.864 268.302C368.864 209.897 358.548 157.035 341.882 118.785C333.548 99.6601 323.633 84.2018 312.638 73.5291C301.644 62.8577 289.587 56.9838 276.955 56.9838V56.3838C289.786 56.3838 301.986 62.353 313.056 73.0985C324.124 83.8427 334.079 99.3753 342.432 118.546Z" fill="url(#paint1_linear_623_737)"></path>
  </g>
  <path opacity="0.498837" fill-rule="evenodd" clip-rule="evenodd" d="M459.452 133.636C479.319 134.493 495.043 138.669 504.988 146.537C509.965 150.475 513.261 155.152 514.963 160.452C516.664 165.751 516.767 171.652 515.39 178.031C512.637 190.781 503.965 205.474 490.231 221.177C462.759 252.588 414.947 288.142 353.316 320.407L353.038 319.876C414.632 287.629 462.374 252.117 489.78 220.782C503.485 205.111 512.082 190.51 514.803 177.904C516.163 171.606 516.054 165.814 514.392 160.636C512.73 155.46 509.509 150.879 504.616 147.007C494.818 139.256 479.247 135.09 459.427 134.235C439.615 133.38 415.601 135.835 388.958 141.283C335.675 152.18 271.92 175.04 210.329 207.285C148.735 239.531 100.993 275.043 73.5876 306.379C59.8823 322.049 51.2855 336.651 48.564 349.256C47.2042 355.555 47.3131 361.346 48.9758 366.524C50.6378 371.7 53.8582 376.282 58.7517 380.153L58.3795 380.624C53.4018 376.686 50.1063 372.008 48.4045 366.708C46.7033 361.41 46.6004 355.508 47.9776 349.129C50.7302 336.379 59.4026 321.687 73.136 305.984C100.608 274.572 148.42 239.018 210.051 206.753C271.685 174.486 335.493 151.605 388.838 140.696C415.51 135.241 439.576 132.778 459.452 133.636Z" fill="url(#paint2_linear_623_737)"></path>
  <path opacity="0.498837" fill-rule="evenodd" clip-rule="evenodd" d="M396.959 410.835C350.375 397.532 292.448 369.661 234.21 330.378C175.971 291.096 128.429 247.828 98.6449 209.619C83.754 190.516 73.2911 172.664 68.1563 157.197C63.0231 141.734 63.1984 128.6 69.6771 118.995C76.1557 109.39 88.2684 104.307 104.528 103.274C120.793 102.24 141.264 105.254 164.554 111.905C211.138 125.207 269.066 153.079 327.304 192.361L326.968 192.858C268.768 153.601 210.897 125.762 164.389 112.482C141.134 105.841 120.736 102.845 104.566 103.873C88.3906 104.9 76.5031 109.948 70.1745 119.33C63.8459 128.713 63.6191 141.625 68.7257 157.008C73.8306 172.385 84.2493 190.176 99.1182 209.25C128.854 247.397 176.345 290.624 234.545 329.881C292.746 369.138 350.616 396.977 397.124 410.258C420.379 416.898 440.777 419.894 456.947 418.867C473.123 417.839 485.01 412.792 491.339 403.409L491.836 403.745C485.357 413.35 473.245 418.432 456.985 419.465C440.721 420.499 420.249 417.485 396.959 410.835Z" fill="url(#paint3_linear_623_737)"></path>
  <g filter="url(#filter0_d_623_737)">
    <circle cx="98.3907" cy="389.662" r="38.0547" fill="white"></circle>
  </g>
  <circle opacity="0.102562" cx="184.745" cy="261.35" r="10.2455" fill="#5055FE"></circle>
  <circle cx="184.746" cy="261.349" r="4.39093" fill="#5055FE"></circle>
  <circle opacity="0.102562" cx="81.3182" cy="184.318" r="7.31821" fill="#5055FE"></circle>
  <circle cx="81.32" cy="184.318" r="3.13638" fill="#5055FE"></circle>
  <circle cx="276.951" cy="258.422" r="92.6974" fill="white" stroke="url(#paint4_linear_623_737)" stroke-width="30"></circle>
  <path fill-rule="evenodd" clip-rule="evenodd" d="M277.293 203.959C247.256 203.959 222.906 228.309 222.906 258.346C222.906 288.382 247.256 312.732 277.293 312.732C307.33 312.732 331.679 288.382 331.679 258.346C331.679 228.309 307.33 203.959 277.293 203.959ZM221.906 258.346C221.906 227.756 246.704 202.959 277.293 202.959C307.882 202.959 332.679 227.756 332.679 258.346C332.679 288.935 307.882 313.732 277.293 313.732C246.704 313.732 221.906 288.935 221.906 258.346Z" fill="#E3E0E0"></path>
  <path fill-rule="evenodd" clip-rule="evenodd" d="M294.887 224.428H260.243C259.487 224.428 258.875 225.04 258.875 225.795V243.941H256.489C254.922 243.941 253.652 245.211 253.652 246.778V277.412C253.652 278.979 254.922 280.249 256.489 280.249H272.864C272.658 281.646 272.301 282.944 271.794 284.144C271.257 285.417 270.615 286.426 269.874 287.175H267.835L267.733 287.185C267.468 287.236 267.268 287.485 267.268 287.785C267.268 288.121 267.522 288.395 267.835 288.395H288.258L288.36 288.385C288.624 288.333 288.825 288.084 288.825 287.785C288.825 287.448 288.571 287.175 288.258 287.175H286.174L286.089 287.114C285.22 286.444 284.494 285.431 283.918 284.066C283.365 282.758 283.102 281.487 283.124 280.249H299.604C301.17 280.249 302.44 278.979 302.44 277.412V246.778C302.44 245.211 301.17 243.941 299.604 243.941H296.255V225.795C296.255 225.04 295.643 224.428 294.887 224.428ZM296.25 245.068C296.082 251.968 292.119 258.231 285.923 261.329L277.565 265.508L269.207 261.329C263.013 258.233 259.051 251.973 258.881 245.076H256.489C255.549 245.076 254.787 245.838 254.787 246.778V270.605H301.306V246.778C301.306 245.838 300.544 245.076 299.604 245.076H296.249C296.249 245.073 296.249 245.071 296.25 245.068ZM260.243 225.34H294.888C295.14 225.34 295.344 225.544 295.344 225.796V244.613L295.34 244.967C295.21 251.562 291.433 257.555 285.516 260.514L277.565 264.489L269.615 260.514C263.592 257.503 259.787 251.347 259.787 244.613V225.796C259.787 225.544 259.991 225.34 260.243 225.34ZM274.831 235.368L274.749 235.376C274.536 235.414 274.375 235.6 274.375 235.824V239.927H270.272C270.021 239.927 269.816 240.131 269.816 240.383V245.853L269.824 245.935C269.862 246.147 270.048 246.309 270.272 246.309H274.375V250.411C274.375 250.663 274.579 250.867 274.831 250.867H280.301L280.383 250.86C280.596 250.821 280.757 250.635 280.757 250.411V246.309H284.86C285.111 246.309 285.315 246.105 285.315 245.853V240.383L285.308 240.301C285.27 240.088 285.083 239.927 284.86 239.927L280.757 239.926V235.824C280.757 235.572 280.553 235.368 280.301 235.368H274.831ZM279.846 236.28V240.382L279.853 240.463C279.892 240.676 280.078 240.837 280.301 240.837H284.404V245.397H280.301L280.22 245.404C280.007 245.443 279.846 245.629 279.846 245.853V249.955H275.287V245.853L275.28 245.771C275.241 245.558 275.055 245.397 274.831 245.397H270.729V240.838H274.831L274.913 240.831C275.126 240.792 275.287 240.606 275.287 240.382V236.28H279.846ZM272.094 229.101V229.784H264.573C264.407 229.784 264.269 229.902 264.238 230.057L264.231 230.126V236.736H263.547V230.126C263.547 229.598 263.947 229.162 264.461 229.107L264.573 229.101H272.094ZM283.529 256.165L283.835 256.777L277.566 259.911L271.297 256.777L271.603 256.165L277.565 259.146L283.529 256.165ZM291.576 230.015C291.52 229.501 291.085 229.101 290.556 229.101H285.77V229.784H290.556L290.625 229.791C290.781 229.823 290.898 229.961 290.898 230.126V235.824H291.582V230.126L291.576 230.015ZM271.374 287.175H284.5C283.864 286.463 283.322 285.573 282.872 284.507C282.263 283.065 281.968 281.644 281.989 280.249H274.01C273.795 281.801 273.404 283.247 272.839 284.585C272.417 285.586 271.929 286.45 271.374 287.175ZM254.787 271.825V277.413C254.787 278.353 255.549 279.114 256.489 279.114H299.604C300.544 279.114 301.306 278.353 301.306 277.413V271.825H254.787ZM279.183 275.143C279.183 275.77 278.675 276.278 278.049 276.278C277.422 276.278 276.914 275.77 276.914 275.143C276.914 274.517 277.422 274.009 278.049 274.009C278.675 274.009 279.183 274.517 279.183 275.143Z" fill="url(#paint5_linear_623_737)"></path>
  <circle opacity="0.102562" cx="301.838" cy="208.902" r="7.31821" fill="#5055FE"></circle>
  <circle cx="301.84" cy="208.902" r="3.13638" fill="#5055FE"></circle>
  <circle opacity="0.102562" cx="245.732" cy="304.039" r="7.31821" fill="#5055FE"></circle>
  <circle cx="245.734" cy="304.039" r="3.13638" fill="#5055FE"></circle>
  <path opacity="0.498837" fill-rule="evenodd" clip-rule="evenodd" d="M184.858 373.841L142.168 390.917L141.945 390.36L184.635 373.284L184.858 373.841Z" fill="url(#paint6_linear_623_737)"></path>
  <path opacity="0.498837" fill-rule="evenodd" clip-rule="evenodd" d="M431.309 284.289L471.559 316.001L471.188 316.472L430.938 284.76L431.309 284.289Z" fill="url(#paint7_linear_623_737)"></path>
  <path opacity="0.498837" fill-rule="evenodd" clip-rule="evenodd" d="M214.941 124.696L219.82 94.2031L220.413 94.2979L215.534 124.79L214.941 124.696Z" fill="url(#paint8_linear_623_737)"></path>
  <circle opacity="0.102562" cx="234.994" cy="456.258" r="7.31821" fill="#5055FE"></circle>
  <circle cx="234.996" cy="456.257" r="3.13638" fill="#5055FE"></circle>
  <circle opacity="0.102562" cx="327.318" cy="446.318" r="7.31821" fill="#5055FE"></circle>
  <circle cx="327.32" cy="446.318" r="3.13638" fill="#5055FE"></circle>
  <circle opacity="0.102562" cx="498.318" cy="211.318" r="7.31821" fill="#5055FE"></circle>
  <circle cx="498.32" cy="211.318" r="3.13638" fill="#5055FE"></circle>
  <circle opacity="0.102562" cx="424.318" cy="135.318" r="7.31821" fill="#5055FE"></circle>
  <circle cx="424.32" cy="135.318" r="3.13638" fill="#5055FE"></circle>
  <circle opacity="0.102562" cx="101.806" cy="104.008" r="7.31821" fill="#5055FE"></circle>
  <circle cx="101.808" cy="104.007" r="3.13638" fill="#5055FE"></circle>
  <path d="M251.666 115.437C275.793 115.437 295.409 95.8435 295.479 71.674C295.55 47.5044 276.048 27.9111 251.921 27.9111C227.793 27.9111 208.177 47.5044 208.107 71.674C208.037 95.8435 227.539 115.437 251.666 115.437Z" fill="url(#paint9_radial_623_737)"></path>
  <path d="M251.69 112.29C274.173 112.29 292.448 94.1023 292.508 71.6664C292.568 49.2304 274.391 31.0425 251.908 31.0425C229.425 31.0425 211.15 49.2304 211.09 71.6664C211.03 94.1023 229.207 112.29 251.69 112.29Z" fill="url(#paint10_radial_623_737)"></path>
  <path fill-rule="evenodd" clip-rule="evenodd" d="M251.693 111.29C273.625 111.29 291.449 93.5481 291.508 71.6664C291.567 49.7847 273.838 32.0425 251.905 32.0425C229.973 32.0425 212.149 49.7847 212.09 71.6664C212.031 93.5481 229.76 111.29 251.693 111.29ZM292.508 71.6664C292.448 94.1023 274.173 112.29 251.69 112.29C229.207 112.29 211.03 94.1023 211.09 71.6664C211.15 49.2304 229.425 31.0425 251.908 31.0425C274.391 31.0425 292.568 49.2304 292.508 71.6664Z" fill="white" fill-opacity="0.5"></path>
  <path d="M98.4978 434.534C122.625 434.534 142.241 414.941 142.311 390.772C142.382 366.602 122.88 347.009 98.7526 347.009C74.6254 347.009 55.0094 366.602 54.939 390.772C54.8686 414.941 74.3706 434.534 98.4978 434.534Z" fill="url(#paint11_radial_623_737)"></path>
  <path d="M98.5181 431.388C121.001 431.388 139.276 413.2 139.336 390.764C139.396 368.328 121.219 350.14 98.7362 350.14C76.2533 350.14 57.9785 368.328 57.9183 390.764C57.8581 413.2 76.0352 431.388 98.5181 431.388Z" fill="url(#paint12_radial_623_737)"></path>
  <path fill-rule="evenodd" clip-rule="evenodd" d="M98.5208 430.388C120.453 430.388 138.277 412.646 138.336 390.764C138.395 368.882 120.666 351.14 98.7336 351.14C76.801 351.14 58.977 368.882 58.9183 390.764C58.8596 412.646 76.5882 430.388 98.5208 430.388ZM139.336 390.764C139.276 413.2 121.001 431.388 98.5181 431.388C76.0352 431.388 57.8581 413.2 57.9183 390.764C57.9785 368.328 76.2533 350.14 98.7362 350.14C121.219 350.14 139.396 368.328 139.336 390.764Z" fill="white" fill-opacity="0.5"></path>
  <path d="M489.619 403.536C513.746 403.536 533.362 383.943 533.433 359.773C533.503 335.604 514.001 316.01 489.874 316.01C465.746 316.01 446.13 335.604 446.06 359.773C445.99 383.943 465.492 403.536 489.619 403.536Z" fill="url(#paint13_radial_623_737)"></path>
  <path d="M489.643 400.39C512.126 400.39 530.401 382.202 530.461 359.766C530.521 337.33 512.344 319.142 489.861 319.142C467.378 319.142 449.104 337.33 449.043 359.766C448.983 382.202 467.16 400.39 489.643 400.39Z" fill="url(#paint14_radial_623_737)"></path>
  <path fill-rule="evenodd" clip-rule="evenodd" d="M489.646 399.39C511.578 399.39 529.402 381.648 529.461 359.766C529.52 337.884 511.791 320.142 489.859 320.142C467.926 320.142 450.102 337.884 450.043 359.766C449.985 381.648 467.713 399.39 489.646 399.39ZM530.461 359.766C530.401 382.202 512.126 400.39 489.643 400.39C467.16 400.39 448.983 382.202 449.043 359.766C449.104 337.33 467.378 319.142 489.861 319.142C512.344 319.142 530.521 337.33 530.461 359.766Z" fill="white" fill-opacity="0.5"></path>
  <path fill-rule="evenodd" clip-rule="evenodd" d="M94.0042 369.89C93.1055 369.89 92.3769 370.618 92.3769 371.517C92.3769 372.416 93.1055 373.144 94.0042 373.144C94.903 373.144 95.6315 372.416 95.6315 371.517C95.6315 370.618 94.903 369.89 94.0042 369.89ZM91.4285 372.038C91.67 373.239 92.7314 374.144 94.0042 374.144C95.4552 374.144 96.6315 372.968 96.6315 371.517C96.6315 370.066 95.4552 368.89 94.0042 368.89C92.718 368.89 91.6476 369.814 91.4211 371.035C88.4208 371.267 86.0586 373.775 86.0586 376.835V386.408C86.0586 387.123 86.126 387.822 86.2547 388.5H80.511C79.5729 388.5 78.7848 389.142 78.5626 390.011C77.8334 390.013 77.2296 390.023 76.7388 390.089C76.1388 390.169 75.6335 390.342 75.2322 390.743C74.831 391.145 74.6584 391.65 74.5777 392.25C74.5 392.828 74.5 393.563 74.5 394.474V407.037C74.5 407.948 74.5 408.683 74.5777 409.261C74.6584 409.861 74.831 410.366 75.2322 410.768C75.6335 411.169 76.1388 411.342 76.7388 411.422C77.3168 411.5 78.0517 411.5 78.9634 411.5H88.0366C88.9483 411.5 89.6832 411.5 90.2612 411.422C90.8612 411.342 91.3665 411.169 91.7678 410.768C92.169 410.366 92.3416 409.861 92.4223 409.261C92.5 408.683 92.5 407.948 92.5 407.037V396.51C93.7877 397.109 95.2092 397.47 96.7074 397.534C96.9768 402.901 101.67 405.787 106.222 405.921C108.578 405.99 110.963 405.333 112.768 403.864C114.586 402.385 115.777 400.112 115.777 397.045V389.251C117.429 388.884 118.663 387.41 118.663 385.648C118.663 383.61 117.011 381.958 114.972 381.958C112.934 381.958 111.281 383.61 111.281 385.648C111.281 387.622 112.829 389.233 114.777 389.334V397.045C114.777 399.828 113.709 401.809 112.136 403.089C110.551 404.379 108.415 404.985 106.251 404.921C102.043 404.798 97.9756 402.184 97.7091 397.533C103.621 397.265 108.332 392.387 108.332 386.408V375.772C108.332 373.3 106.445 371.268 104.034 371.039C103.809 369.816 102.737 368.89 101.45 368.89C99.9988 368.89 98.8225 370.066 98.8225 371.517C98.8225 372.968 99.9988 374.144 101.45 374.144C102.721 374.144 103.781 373.242 104.024 372.043C105.887 372.264 107.332 373.849 107.332 375.772V386.408C107.332 392.006 102.793 396.545 97.1952 396.545C95.5009 396.545 93.9037 396.129 92.5 395.394V394.474V394.474V394.474V394.474C92.5 393.563 92.5 392.828 92.4223 392.25C92.3416 391.65 92.169 391.145 91.7678 390.743C91.3665 390.342 90.8612 390.169 90.2612 390.089C89.7704 390.023 89.1666 390.013 88.4374 390.011C88.2848 389.414 87.8651 388.924 87.3133 388.676C87.1466 387.947 87.0586 387.188 87.0586 386.408V376.835C87.0586 374.325 88.9776 372.264 91.4285 372.038ZM101.45 369.89C100.551 369.89 99.8225 370.618 99.8225 371.517C99.8225 372.416 100.551 373.144 101.45 373.144C102.349 373.144 103.077 372.416 103.077 371.517C103.077 370.618 102.349 369.89 101.45 369.89ZM114.972 382.958C113.486 382.958 112.281 384.162 112.281 385.648C112.281 387.135 113.486 388.339 114.972 388.339C116.458 388.339 117.663 387.135 117.663 385.648C117.663 384.162 116.458 382.958 114.972 382.958ZM114.975 384.461C114.331 384.461 113.809 384.983 113.809 385.628V385.649C113.809 386.293 114.331 386.816 114.975 386.816H114.997C115.641 386.816 116.163 386.293 116.163 385.649V385.628C116.163 384.983 115.641 384.461 114.997 384.461H114.975ZM76.8721 391.08C77.2951 391.023 77.8339 391.013 78.5627 391.011C78.7851 391.88 79.5731 392.522 80.511 392.522H86.489C87.4269 392.522 88.2149 391.88 88.4373 391.011C89.1661 391.013 89.7049 391.023 90.1279 391.08C90.6171 391.146 90.8762 391.266 91.0607 391.45C91.2452 391.635 91.3655 391.894 91.4312 392.383C91.4989 392.887 91.5 393.554 91.5 394.511V407C91.5 407.957 91.4989 408.624 91.4312 409.128C91.3655 409.617 91.2452 409.876 91.0607 410.061C90.8762 410.245 90.6171 410.365 90.1279 410.431C89.6244 410.499 88.9569 410.5 88 410.5H79C78.0431 410.5 77.3756 410.499 76.8721 410.431C76.3829 410.365 76.1238 410.245 75.9393 410.061C75.7548 409.876 75.6345 409.617 75.5688 409.128C75.5011 408.624 75.5 407.957 75.5 407V394.511C75.5 393.554 75.5011 392.887 75.5688 392.383C75.6345 391.894 75.7548 391.635 75.9393 391.45C76.1238 391.266 76.3829 391.146 76.8721 391.08ZM79.5 390.511C79.5 389.953 79.9526 389.5 80.511 389.5H86.489C87.0474 389.5 87.5 389.953 87.5 390.511C87.5 391.069 87.0474 391.522 86.489 391.522H80.511C79.9526 391.522 79.5 391.069 79.5 390.511ZM80.0295 396.276L78.0038 397.436C78.1041 401.287 80.21 404.911 83.5 406.919C86.7796 404.917 88.8836 401.309 88.9953 397.471L86.9709 396.282C86.9674 396.281 86.9557 396.279 86.9341 396.282C86.8997 396.286 86.8457 396.303 86.7841 396.352C84.8456 397.883 82.1487 397.883 80.2151 396.347C80.1538 396.298 80.1001 396.28 80.0659 396.276C80.0446 396.273 80.033 396.275 80.0295 396.276ZM79.5364 395.406C79.9448 395.172 80.4598 395.264 80.8372 395.564C82.4063 396.81 84.5889 396.812 86.1642 395.567C86.5451 395.266 87.0649 395.177 87.4734 395.417L90.0009 396.902L89.9999 397.189C89.9854 401.588 87.562 405.739 83.7514 407.933L83.6495 407.991L83.5003 408L83.3508 407.992L83.2487 407.933C79.4256 405.732 77.0001 401.561 77 397.148L77 396.858L79.5364 395.406ZM83.0737 399.573C83.0862 399.546 83.1083 399.524 83.1357 399.511C83.1415 399.51 83.1581 399.507 83.1921 399.505C83.2583 399.5 83.3476 399.5 83.5 399.5C83.6524 399.5 83.7417 399.5 83.8079 399.505C83.8419 399.507 83.8585 399.51 83.8643 399.511C83.8917 399.524 83.9138 399.546 83.9263 399.573C83.9275 399.579 83.9304 399.596 83.9327 399.63C83.9372 399.696 83.9375 399.785 83.9375 399.938V400.533C83.9375 400.535 83.9375 400.54 83.9376 400.547C83.9376 400.549 83.9377 400.552 83.9377 400.554C83.938 400.565 83.9387 400.587 83.9425 400.616C83.9505 400.675 83.9778 400.801 84.0883 400.912C84.1989 401.022 84.3249 401.049 84.3844 401.057C84.4125 401.061 84.4355 401.062 84.4455 401.062C84.4524 401.062 84.4594 401.062 84.4637 401.062H84.4675H85.0625C85.2149 401.062 85.3042 401.063 85.3704 401.067C85.4044 401.07 85.421 401.073 85.4268 401.074C85.4542 401.086 85.4763 401.108 85.4888 401.136C85.49 401.141 85.4929 401.158 85.4952 401.192C85.4997 401.258 85.5 401.348 85.5 401.5C85.5 401.652 85.4997 401.742 85.4952 401.808C85.4929 401.842 85.49 401.859 85.4888 401.864C85.4763 401.892 85.4542 401.914 85.4268 401.926C85.421 401.927 85.4044 401.93 85.3704 401.933C85.3042 401.937 85.2149 401.938 85.0625 401.938H84.467C84.4661 401.938 84.4644 401.938 84.4622 401.938C84.458 401.938 84.4518 401.938 84.4455 401.938C84.4355 401.938 84.4125 401.939 84.3844 401.943C84.3249 401.951 84.1989 401.978 84.0883 402.088C83.9778 402.199 83.9505 402.325 83.9425 402.384C83.9387 402.413 83.938 402.435 83.9377 402.446C83.9375 402.455 83.9375 402.464 83.9375 402.467V402.468V403.062C83.9375 403.215 83.9372 403.304 83.9327 403.37C83.9304 403.404 83.9275 403.421 83.9263 403.427C83.9138 403.454 83.8917 403.476 83.8643 403.489C83.8585 403.49 83.8419 403.493 83.8079 403.495C83.7417 403.5 83.6524 403.5 83.5 403.5C83.3476 403.5 83.2583 403.5 83.1921 403.495C83.1581 403.493 83.1415 403.49 83.1357 403.489C83.1083 403.476 83.0862 403.454 83.0737 403.427C83.0725 403.421 83.0696 403.404 83.0673 403.37C83.0628 403.304 83.0625 403.215 83.0625 403.062V402.468C83.0625 402.466 83.0625 402.456 83.0623 402.446C83.062 402.435 83.0613 402.413 83.0575 402.384C83.0495 402.325 83.0222 402.199 82.9117 402.088C82.8011 401.978 82.6751 401.951 82.6156 401.943C82.5875 401.939 82.5645 401.938 82.5545 401.938C82.5449 401.937 82.5352 401.938 82.5325 401.938H81.9375C81.7851 401.938 81.6958 401.937 81.6296 401.933C81.5956 401.93 81.579 401.927 81.5732 401.926C81.5458 401.914 81.5237 401.892 81.5112 401.864C81.51 401.859 81.5071 401.842 81.5048 401.808C81.5003 401.742 81.5 401.652 81.5 401.5C81.5 401.348 81.5003 401.258 81.5048 401.192C81.5071 401.158 81.51 401.141 81.5112 401.136C81.5237 401.108 81.5458 401.086 81.5732 401.074C81.579 401.073 81.5956 401.07 81.6296 401.067C81.6958 401.063 81.7851 401.062 81.9375 401.062H82.533C82.5357 401.063 82.5449 401.063 82.5545 401.062C82.5645 401.062 82.5875 401.061 82.6156 401.057C82.6751 401.049 82.8011 401.022 82.9117 400.912C83.0222 400.801 83.0495 400.675 83.0575 400.616C83.0613 400.587 83.062 400.565 83.0623 400.554C83.0625 400.545 83.0625 400.535 83.0625 400.533V399.938C83.0625 399.785 83.0628 399.696 83.0673 399.63C83.0696 399.596 83.0725 399.579 83.0737 399.573ZM83.5142 398.5H83.4858H83.4856C83.3523 398.5 83.2284 398.5 83.124 398.507C83.0114 398.515 82.8855 398.532 82.757 398.586C82.4813 398.7 82.2623 398.919 82.1481 399.194C82.0949 399.323 82.0773 399.449 82.0696 399.561C82.0625 399.666 82.0625 399.79 82.0625 399.923L82.0625 399.938V400.063H81.9375L81.9233 400.062H81.9231C81.7898 400.062 81.6659 400.062 81.5615 400.07C81.4489 400.077 81.323 400.095 81.1945 400.148C80.9188 400.262 80.6998 400.481 80.5856 400.757C80.5324 400.885 80.5148 401.011 80.5071 401.124C80.5 401.228 80.5 401.352 80.5 401.486V401.514C80.5 401.648 80.5 401.772 80.5071 401.876C80.5148 401.989 80.5324 402.115 80.5856 402.243C80.6998 402.519 80.9188 402.738 81.1945 402.852C81.323 402.905 81.4489 402.923 81.5615 402.93C81.6659 402.938 81.7899 402.938 81.9233 402.938H82.0625L82.0625 403.077C82.0625 403.21 82.0625 403.334 82.0696 403.439C82.0773 403.551 82.0949 403.677 82.1481 403.806C82.2623 404.081 82.4813 404.3 82.757 404.414C82.8855 404.468 83.0114 404.485 83.124 404.493C83.2284 404.5 83.3524 404.5 83.4857 404.5H83.4858H83.5142H83.5143C83.6476 404.5 83.7716 404.5 83.876 404.493C83.9886 404.485 84.1145 404.468 84.243 404.414C84.5187 404.3 84.7377 404.081 84.8519 403.806C84.9051 403.677 84.9227 403.551 84.9304 403.439C84.9375 403.334 84.9375 403.21 84.9375 403.077V402.938H85.0767C85.2101 402.938 85.3341 402.938 85.4385 402.93C85.5511 402.923 85.677 402.905 85.8055 402.852C86.0812 402.738 86.3002 402.519 86.4144 402.243C86.4676 402.115 86.4852 401.989 86.4929 401.876C86.5 401.772 86.5 401.648 86.5 401.514V401.486C86.5 401.352 86.5 401.228 86.4929 401.124C86.4852 401.011 86.4676 400.885 86.4144 400.757C86.3002 400.481 86.0812 400.262 85.8055 400.148C85.677 400.095 85.5511 400.077 85.4385 400.07C85.3341 400.062 85.2102 400.062 85.0769 400.062H85.0767L84.9375 400.063V399.923C84.9375 399.79 84.9375 399.666 84.9304 399.561C84.9227 399.449 84.9051 399.323 84.8519 399.194C84.7377 398.919 84.5187 398.7 84.243 398.586C84.1145 398.532 83.9886 398.515 83.876 398.507C83.7716 398.5 83.6477 398.5 83.5144 398.5H83.5142Z" fill="#4E55FF"></path>
  <path fill-rule="evenodd" clip-rule="evenodd" d="M42.8003 224.301C41.8806 224.301 41.135 225.047 41.135 225.967C41.135 226.884 41.8768 227.628 42.7934 227.632L42.7993 227.632L42.8056 227.632C43.7229 227.629 44.4656 226.885 44.4656 225.967C44.4656 225.047 43.72 224.301 42.8003 224.301ZM40.135 225.967C40.135 227.267 41.0668 228.35 42.2993 228.585V231.854C41.9332 231.892 41.5732 232.007 41.2438 232.197L34.9707 235.819C34.6976 235.976 34.4592 236.178 34.2625 236.413L32.2159 235.274C31.9746 235.139 31.6701 235.226 31.5359 235.467C31.4016 235.709 31.4883 236.013 31.7296 236.147L33.7743 237.285C33.6853 237.553 33.638 237.837 33.638 238.127V245.371C33.638 245.616 33.6718 245.857 33.7362 246.087L31.7332 247.181C31.4908 247.313 31.4016 247.617 31.5339 247.859C31.6662 248.102 31.9699 248.191 32.2123 248.058L34.1816 246.984C34.3924 247.261 34.6589 247.499 34.9707 247.679L41.2438 251.301C41.5732 251.491 41.9332 251.605 42.2993 251.643V254.745C41.0668 254.98 40.135 256.063 40.135 257.364C40.135 258.836 41.3283 260.029 42.8003 260.029C44.2723 260.029 45.4656 258.836 45.4656 257.364C45.4656 256.062 44.5328 254.979 43.2993 254.745V251.558C43.5099 251.498 43.7148 251.413 43.9091 251.301L49.3224 248.175C49.5615 248.037 49.6435 247.731 49.5054 247.492C49.3673 247.253 49.0615 247.171 48.8224 247.309L43.4091 250.435C43.2027 250.554 42.9772 250.625 42.7479 250.649C42.4044 250.684 42.0526 250.613 41.7438 250.435L35.4707 246.813C35.178 246.644 34.9492 246.393 34.8061 246.1C34.6972 245.876 34.638 245.628 34.638 245.371V238.127C34.638 237.837 34.7133 237.558 34.8503 237.313C34.9944 237.056 35.2065 236.837 35.4707 236.685L41.7438 233.063C42.0526 232.885 42.4044 232.813 42.7479 232.849C42.9772 232.872 43.2027 232.944 43.4091 233.063L48.8224 236.188C49.0615 236.326 49.3673 236.244 49.5054 236.005C49.6435 235.766 49.5615 235.46 49.3224 235.322L43.9091 232.197C43.7148 232.085 43.5099 231.999 43.2993 231.94V228.585C44.5328 228.352 45.4656 227.268 45.4656 225.967C45.4656 224.495 44.2723 223.301 42.8003 223.301C41.3283 223.301 40.135 224.495 40.135 225.967ZM60.1232 227.632L60.1286 227.632C61.0446 227.628 61.7859 226.884 61.7859 225.967C61.7859 225.047 61.0403 224.301 60.1206 224.301C59.2009 224.301 58.4553 225.047 58.4553 225.967C58.4553 226.885 59.1987 227.63 60.1165 227.632L60.1232 227.632ZM62.7859 225.967C62.7859 227.267 61.8549 228.35 60.6232 228.585V231.887C60.9119 231.942 61.1935 232.045 61.4558 232.197L67.729 235.819C68.0492 236.004 68.3217 236.249 68.5352 236.537L70.6983 235.278C70.9369 235.139 71.243 235.22 71.3819 235.459C71.5207 235.698 71.4398 236.004 71.2011 236.143L68.9716 237.44C69.0306 237.661 69.0616 237.892 69.0616 238.127V245.371C69.0616 245.56 69.0416 245.746 69.003 245.927L71.1984 247.186C71.438 247.323 71.5208 247.629 71.3834 247.868C71.246 248.108 70.9405 248.191 70.7009 248.053L68.6104 246.854C68.3872 247.187 68.0881 247.471 67.729 247.679L61.4558 251.301C61.1935 251.452 60.9119 251.555 60.6232 251.61V254.746C61.8549 254.981 62.7859 256.063 62.7859 257.364C62.7859 258.836 61.5926 260.029 60.1206 260.029C58.6486 260.029 57.4553 258.836 57.4553 257.364C57.4553 256.062 58.3889 254.978 59.6232 254.745V251.61C59.3345 251.555 59.0528 251.452 58.7905 251.301L53.3772 248.175C53.1381 248.037 53.0562 247.731 53.1942 247.492C53.3323 247.253 53.6381 247.171 53.8772 247.309L59.2905 250.435C59.5482 250.583 59.8356 250.658 60.1232 250.658C60.4108 250.658 60.6982 250.583 60.9558 250.435L67.229 246.813C67.5604 246.621 67.81 246.326 67.9459 245.98C68.0212 245.789 68.0616 245.583 68.0616 245.371V238.127C68.0616 237.881 68.0074 237.643 67.9073 237.427C67.7653 237.12 67.5311 236.859 67.229 236.685L60.9558 233.063C60.6982 232.914 60.4108 232.84 60.1232 232.84C59.8356 232.84 59.5482 232.914 59.2905 233.063L53.8772 236.188C53.6381 236.326 53.3323 236.244 53.1942 236.005C53.0562 235.766 53.1381 235.46 53.3772 235.322L58.7905 232.197C59.0528 232.045 59.3345 231.942 59.6232 231.887V228.586C58.3889 228.353 57.4553 227.269 57.4553 225.967C57.4553 224.495 58.6486 223.301 60.1206 223.301C61.5926 223.301 62.7859 224.495 62.7859 225.967ZM51.9631 237.875C51.9631 237.599 51.7392 237.375 51.4631 237.375C51.187 237.375 50.9631 237.599 50.9631 237.875V245.454C50.9631 245.73 51.187 245.954 51.4631 245.954C51.7392 245.954 51.9631 245.73 51.9631 245.454V237.875ZM41.135 257.364C41.135 256.444 41.8806 255.698 42.8003 255.698C43.72 255.698 44.4656 256.444 44.4656 257.364C44.4656 258.283 43.72 259.029 42.8003 259.029C41.8806 259.029 41.135 258.283 41.135 257.364ZM58.4553 257.364C58.4553 256.444 59.2009 255.698 60.1206 255.698C61.0403 255.698 61.7859 256.444 61.7859 257.364C61.7859 258.283 61.0403 259.029 60.1206 259.029C59.2009 259.029 58.4553 258.283 58.4553 257.364Z" fill="#E3E0E0"></path>
  <path fill-rule="evenodd" clip-rule="evenodd" d="M484.619 337.505C482.264 337.505 480.255 339.159 479.634 341.416C479.2 342.99 478.568 344.315 477.913 345.321C477.252 346.338 476.59 346.996 476.118 347.278C476.095 347.292 476.072 347.305 476.05 347.317L476.036 347.325C474.543 348.198 473.539 349.828 473.539 351.692L473.539 365.264C473.539 367.129 474.543 368.759 476.036 369.631C476.467 369.883 477.144 370.521 477.835 371.534C478.517 372.536 479.19 373.872 479.634 375.483C480.255 377.739 482.264 379.394 484.619 379.394H494.483C494.76 379.394 494.983 379.17 494.983 378.894C494.983 378.617 494.76 378.394 494.483 378.394H484.619C482.748 378.394 481.109 377.074 480.598 375.217C480.123 373.495 479.402 372.059 478.661 370.971C478.496 370.729 478.329 370.503 478.162 370.293C478.286 370.302 478.411 370.307 478.537 370.307H487.941C488.217 370.307 488.441 370.083 488.441 369.807C488.441 369.531 488.217 369.307 487.941 369.307H478.537C477.809 369.307 477.128 369.111 476.54 368.768C475.344 368.069 474.539 366.762 474.539 365.264L474.539 351.692C474.539 350.197 475.341 348.892 476.534 348.193C476.564 348.176 476.594 348.159 476.624 348.141C477.192 347.828 477.843 347.649 478.537 347.649H496.528C497.256 347.649 497.937 347.846 498.524 348.189C499.72 348.887 500.526 350.194 500.526 351.692V361.062C500.526 361.338 500.749 361.562 501.026 361.562C501.302 361.562 501.526 361.338 501.526 361.062V351.692C501.526 349.828 500.522 348.198 499.029 347.325C498.599 347.074 497.895 346.405 497.168 345.354C496.45 344.316 495.737 342.945 495.265 341.33C494.617 339.114 492.627 337.505 490.304 337.505H484.619ZM478.537 346.649C478.419 346.649 478.301 346.653 478.185 346.662C478.376 346.418 478.566 346.152 478.752 345.866C479.462 344.774 480.137 343.355 480.598 341.681C481.109 339.825 482.748 338.505 484.619 338.505H490.304C492.15 338.505 493.773 339.789 494.305 341.61C494.81 343.336 495.572 344.804 496.346 345.923C496.529 346.187 496.714 346.435 496.898 346.663C496.776 346.654 496.652 346.649 496.528 346.649H478.537ZM491.573 364.829C493.278 363.047 496.032 363.047 497.737 364.829L498.373 365.667L498.369 365.661L498.356 365.642C498.349 365.633 498.341 365.621 498.332 365.608C498.324 365.597 498.316 365.584 498.306 365.571C498.264 365.51 498.205 365.426 498.138 365.334C497.999 365.143 497.845 364.942 497.737 364.829L499.202 365.667L499.202 365.666L499.206 365.661L499.219 365.642C499.23 365.626 499.247 365.601 499.268 365.571C499.31 365.51 499.369 365.426 499.436 365.334C499.575 365.143 499.73 364.942 499.837 364.829C501.542 363.047 504.297 363.047 506.001 364.829C507.703 366.608 507.731 369.635 505.874 371.793C505.869 371.8 505.863 371.806 505.858 371.813C505.857 371.814 505.856 371.816 505.854 371.818L505.854 371.819L505.851 371.822L505.841 371.836L505.798 371.891C505.761 371.939 505.706 372.011 505.634 372.103C505.491 372.286 505.284 372.548 505.028 372.862C504.515 373.492 503.808 374.33 503.031 375.166C502.252 376.005 501.412 376.83 500.632 377.442C500.242 377.748 499.878 377.991 499.553 378.157C499.222 378.325 498.967 378.394 498.787 378.394C498.61 378.394 498.355 378.324 498.018 378.149C497.688 377.978 497.318 377.726 496.92 377.409C496.124 376.776 495.264 375.923 494.464 375.056C493.666 374.192 492.939 373.326 492.411 372.675C492.147 372.35 491.933 372.079 491.786 371.89C491.712 371.796 491.655 371.722 491.617 371.671L491.573 371.614L491.562 371.6L491.559 371.596L491.556 371.592L491.548 371.581C489.843 369.488 489.867 366.613 491.573 364.829ZM498.46 364.138C496.361 361.944 492.949 361.944 490.85 364.138C488.755 366.329 488.79 369.772 490.767 372.206L490.777 372.22L490.823 372.28C490.863 372.332 490.922 372.408 490.997 372.505C491.148 372.699 491.366 372.975 491.634 373.305C492.171 373.966 492.912 374.85 493.729 375.735C494.543 376.617 495.444 377.513 496.297 378.192C496.724 378.531 497.15 378.825 497.557 379.037C497.958 379.244 498.38 379.394 498.787 379.394C499.192 379.394 499.61 379.25 500.006 379.048C500.409 378.843 500.83 378.558 501.249 378.229C502.089 377.57 502.969 376.702 503.764 375.847C504.56 374.99 505.282 374.134 505.803 373.494C506.064 373.173 506.276 372.906 506.422 372.718C506.495 372.625 506.552 372.551 506.591 372.5L506.636 372.442L506.642 372.434C508.78 369.937 508.823 366.333 506.724 364.138C504.625 361.944 501.213 361.944 499.115 364.138C499.011 364.247 498.894 364.391 498.787 364.531C498.68 364.391 498.564 364.247 498.46 364.138ZM483.55 359.082L485.301 353.401L487.223 363.997C487.347 364.684 488.318 364.719 488.492 364.043L489.831 358.829H493.459C493.735 358.829 493.959 358.605 493.959 358.329C493.959 358.053 493.735 357.829 493.459 357.829H489.637C489.295 357.829 488.996 358.061 488.911 358.393L487.921 362.245L486.029 351.81C485.908 351.14 484.969 351.084 484.769 351.734L482.649 358.611H482.215C481.939 358.611 481.715 358.835 481.715 359.111C481.715 359.387 481.939 359.611 482.215 359.611H482.833C483.163 359.611 483.453 359.396 483.55 359.082Z" fill="#5055FE"></path>
  <path fill-rule="evenodd" clip-rule="evenodd" d="M413.197 97.2271C413.732 96.4795 413.561 95.4392 412.813 94.9036C412.065 94.368 411.025 94.5399 410.489 95.2876C409.954 96.0353 410.126 97.0756 410.873 97.6112C411.621 98.1468 412.661 97.9748 413.197 97.2271ZM413.395 94.0906C414.592 94.9478 414.867 96.6128 414.01 97.8095C413.153 99.0061 411.488 99.2813 410.291 98.4241C409.233 97.6665 408.896 96.278 409.423 95.1395L406.694 93.1843C406.523 93.3209 406.334 93.4376 406.129 93.5302L400.436 96.1109C400.185 96.2249 399.888 96.1134 399.774 95.8619C399.66 95.6104 399.772 95.3141 400.023 95.2001L405.716 92.6194C405.934 92.521 406.123 92.3793 406.276 92.2067C406.505 91.9481 406.651 91.6205 406.686 91.2656L407.395 84.0568C407.425 83.7532 407.371 83.4534 407.245 83.1864C407.126 82.9327 406.943 82.7089 406.708 82.54L400.819 78.3218C400.61 78.1721 400.373 78.0755 400.128 78.0338C399.806 77.979 399.469 78.0193 399.162 78.1588L392.564 81.1494C392.239 81.2966 391.976 81.541 391.805 81.8409C391.691 82.0411 391.618 82.2659 391.594 82.5032L390.983 88.7239C390.956 88.9987 390.711 89.1996 390.436 89.1726C390.161 89.1455 389.96 88.9009 389.987 88.626L390.599 82.4053C390.621 82.1821 390.671 81.9655 390.745 81.7598L388.156 79.9053C387.248 80.7707 385.825 80.8974 384.767 80.1399C383.571 79.2827 383.296 77.6177 384.153 76.4211C385.01 75.2244 386.675 74.9492 387.872 75.8064C388.93 76.5644 389.267 77.9537 388.739 79.0926L391.258 80.8971C391.502 80.6218 391.805 80.3956 392.151 80.2386L398.749 77.248C399.077 77.0994 399.425 77.0212 399.773 77.0113L400.046 74.7845C400.08 74.5104 400.329 74.3154 400.603 74.349C400.878 74.3826 401.072 74.6321 401.039 74.9062L400.761 77.1712C400.986 77.253 401.202 77.3658 401.401 77.5088L407.29 81.7271C407.526 81.8962 407.729 82.0999 407.895 82.3281L410.01 81.3285C410.26 81.2105 410.558 81.3173 410.676 81.567C410.794 81.8167 410.687 82.1147 410.438 82.2327L408.32 83.2332C408.396 83.5294 408.421 83.8409 408.39 84.1547L407.681 91.3635C407.644 91.7421 407.527 92.1012 407.345 92.4211L410.005 94.3264C410.913 93.46 412.337 93.3328 413.395 94.0906ZM387.7 78.9046C388.203 78.16 388.024 77.1459 387.289 76.6194C386.542 76.0838 385.501 76.2557 384.966 77.0034C384.43 77.7511 384.602 78.7914 385.35 79.327C386.084 79.8531 387.101 79.6965 387.645 78.982C387.653 78.9684 387.661 78.9551 387.67 78.9422C387.68 78.929 387.69 78.9165 387.7 78.9046ZM400.402 109.37C400.395 109.38 400.387 109.39 400.379 109.399C399.868 110.145 400.045 111.165 400.783 111.694C401.531 112.229 402.571 112.057 403.107 111.31C403.643 110.562 403.471 109.522 402.723 108.986C401.986 108.458 400.964 108.618 400.422 109.339C400.416 109.349 400.409 109.36 400.402 109.37ZM400.201 112.507C399.143 111.749 398.805 110.359 399.334 109.22L396.651 107.298C396.439 107.501 396.191 107.67 395.915 107.795L389.317 110.785C388.98 110.938 388.622 111.016 388.264 111.022L388.027 113.514C388.001 113.789 387.757 113.99 387.482 113.964C387.208 113.938 387.006 113.694 387.032 113.419L387.276 110.851C387.061 110.77 386.856 110.661 386.665 110.524L380.776 106.306C380.622 106.196 380.483 106.071 380.358 105.934L378.056 106.986C377.805 107.101 377.508 106.99 377.393 106.739C377.279 106.488 377.389 106.191 377.64 106.076L379.833 105.075C379.692 104.7 379.635 104.291 379.676 103.879L380.385 96.6697C380.414 96.3683 380.494 96.0791 380.618 95.8124L378.068 93.9861C377.16 94.853 375.736 94.9804 374.678 94.2224C373.481 93.3652 373.206 91.7002 374.063 90.5036C374.92 89.3069 376.585 89.0317 377.782 89.889C378.839 90.6464 379.177 92.0345 378.65 93.1729L381.2 94.9994C381.413 94.7968 381.661 94.628 381.937 94.5029L387.63 91.9223C387.881 91.8083 388.178 91.9198 388.292 92.1713C388.406 92.4228 388.294 92.7191 388.043 92.8331L382.35 95.4137C382.079 95.5366 381.851 95.7269 381.683 95.9607C381.516 96.1945 381.409 96.4715 381.38 96.7675L380.671 103.976C380.633 104.357 380.728 104.732 380.93 105.044C381.042 105.216 381.186 105.369 381.358 105.493L387.247 109.711C387.447 109.855 387.672 109.949 387.906 109.994C388.238 110.057 388.587 110.018 388.904 109.874L395.502 106.884C395.773 106.761 396.001 106.571 396.168 106.337C396.336 106.103 396.443 105.826 396.472 105.53L397.083 99.3093C397.11 99.0345 397.355 98.8336 397.63 98.8606C397.905 98.8876 398.106 99.1323 398.078 99.4071L397.467 105.628C397.437 105.929 397.357 106.218 397.234 106.485L399.917 108.407C400.825 107.542 402.248 107.416 403.305 108.173C404.502 109.03 404.777 110.695 403.92 111.892C403.063 113.089 401.398 113.364 400.201 112.507ZM396.827 96.7695C397.051 96.9303 397.364 96.8787 397.525 96.6542C397.685 96.4297 397.634 96.1174 397.409 95.9566L391.248 91.5432C391.024 91.3824 390.712 91.434 390.551 91.6585C390.39 91.883 390.442 92.1953 390.666 92.3562L396.827 96.7695ZM377.2 90.7019C377.947 91.2375 378.119 92.2778 377.584 93.0255C377.048 93.7732 376.008 93.9451 375.26 93.4095C374.512 92.8739 374.34 91.8336 374.876 91.0859C375.412 90.3382 376.452 90.1663 377.2 90.7019Z" fill="#E3E0E0"></path>
  <path fill-rule="evenodd" clip-rule="evenodd" d="M370.734 433.546C370.458 433.531 370.222 433.743 370.208 434.018C369.937 439.112 371.642 442.855 374.79 445.412C375.004 445.586 375.319 445.553 375.493 445.339C375.667 445.125 375.634 444.81 375.42 444.636C372.548 442.302 370.95 438.883 371.206 434.071C371.221 433.796 371.009 433.56 370.734 433.546ZM382.899 449.074C382.757 449.31 382.833 449.618 383.069 449.76C385.407 451.168 387.242 453.088 387.257 456.018C387.269 458.339 386.157 460.015 384.562 461.304C382.95 462.606 380.876 463.486 379.041 464.19C376.181 465.286 373.873 466.959 372.329 469.265C370.783 471.573 370.029 474.476 370.208 477.984C370.222 478.26 370.457 478.472 370.733 478.458C371.008 478.444 371.22 478.209 371.206 477.933C371.036 474.601 371.754 471.92 373.16 469.821C374.566 467.721 376.69 466.163 379.399 465.124C381.238 464.418 383.445 463.492 385.19 462.082C386.951 460.659 388.271 458.718 388.257 456.013C388.24 452.573 386.051 450.388 383.585 448.903C383.349 448.761 383.042 448.837 382.899 449.074ZM387.707 433.546C387.983 433.531 388.218 433.743 388.233 434.018C388.421 437.551 387.659 440.443 386.107 442.745C384.557 445.044 382.247 446.711 379.406 447.848C377.587 448.576 375.523 449.469 373.911 450.773C372.315 452.064 371.195 453.728 371.183 456.018C371.168 458.988 373 460.918 375.345 462.315C375.582 462.456 375.66 462.763 375.519 463C375.377 463.238 375.07 463.315 374.833 463.174C372.352 461.696 370.166 459.497 370.183 456.013C370.197 453.339 371.526 451.415 373.283 449.995C375.024 448.587 377.216 447.647 379.035 446.919C381.737 445.838 383.866 444.28 385.278 442.186C386.689 440.094 387.413 437.426 387.234 434.071C387.219 433.796 387.431 433.56 387.707 433.546ZM382.883 466.613C383.055 466.397 383.37 466.362 383.586 466.534C386.78 469.087 388.493 472.887 388.233 477.984C388.219 478.26 387.984 478.472 387.708 478.458C387.432 478.444 387.22 478.209 387.234 477.933C387.48 473.115 385.873 469.642 382.962 467.316C382.746 467.143 382.711 466.829 382.883 466.613ZM374.055 474.876C373.779 474.876 373.555 475.1 373.555 475.376C373.555 475.652 373.779 475.876 374.055 475.876H384.387C384.664 475.876 384.887 475.652 384.887 475.376C384.887 475.1 384.664 474.876 384.387 474.876H374.055ZM376.141 440.503C376.141 440.227 376.364 440.003 376.641 440.003H381.807C382.083 440.003 382.307 440.227 382.307 440.503C382.307 440.779 382.083 441.003 381.807 441.003H376.641C376.364 441.003 376.141 440.779 376.141 440.503ZM374.055 436.128C373.779 436.128 373.555 436.352 373.555 436.628C373.555 436.905 373.779 437.128 374.055 437.128H384.387C384.664 437.128 384.887 436.905 384.887 436.628C384.887 436.352 384.664 436.128 384.387 436.128H374.055ZM376.283 452.558C376.283 452.281 376.507 452.058 376.783 452.058H381.663C381.939 452.058 382.163 452.281 382.163 452.558C382.163 452.834 381.939 453.058 381.663 453.058H376.783C376.507 453.058 376.283 452.834 376.283 452.558ZM373.844 456.217C373.844 455.941 374.068 455.717 374.344 455.717H384.102C384.379 455.717 384.602 455.941 384.602 456.217C384.602 456.493 384.379 456.717 384.102 456.717H374.344C374.068 456.717 373.844 456.493 373.844 456.217ZM376.283 459.877C376.283 459.6 376.507 459.377 376.783 459.377H381.663C381.939 459.377 382.163 459.6 382.163 459.877C382.163 460.153 381.939 460.377 381.663 460.377H376.783C376.507 460.377 376.283 460.153 376.283 459.877ZM376.641 471.001C376.364 471.001 376.141 471.225 376.141 471.501C376.141 471.777 376.364 472.001 376.641 472.001H381.807C382.083 472.001 382.307 471.777 382.307 471.501C382.307 471.225 382.083 471.001 381.807 471.001H376.641Z" fill="#D8D8D8"></path>
  <path fill-rule="evenodd" clip-rule="evenodd" d="M240.462 49.1152C240.462 48.8391 240.238 48.6152 239.962 48.6152C239.686 48.6152 239.462 48.8391 239.462 49.1152V51.4223H238.09C235.747 51.4223 233.848 53.3219 233.848 55.6651V77.1863C233.848 79.5295 235.747 81.4291 238.09 81.4291H248.167C248.443 81.4291 248.667 81.2052 248.667 80.9291C248.667 80.6529 248.443 80.4291 248.167 80.4291H238.09C236.3 80.4291 234.848 78.9772 234.848 77.1863V62.715H251.814C252.09 62.715 252.314 62.4912 252.314 62.215C252.314 61.9389 252.09 61.715 251.814 61.715H234.848V55.6651C234.848 53.8742 236.3 52.4223 238.09 52.4223H264.29C266.081 52.4223 267.533 53.8742 267.533 55.6651V64.8062C267.533 65.0824 267.757 65.3062 268.033 65.3062C268.309 65.3062 268.533 65.0824 268.533 64.8062V55.6651C268.533 53.3219 266.633 51.4223 264.29 51.4223H262.919V49.1152C262.919 48.8391 262.695 48.6152 262.419 48.6152C262.143 48.6152 261.919 48.8391 261.919 49.1152V51.4223H251.69V49.1152C251.69 48.8391 251.466 48.6152 251.19 48.6152C250.914 48.6152 250.69 48.8391 250.69 49.1152V51.4223H240.462V49.1152ZM247.947 73.4434C247.947 67.5183 252.751 62.715 258.676 62.715C264.601 62.715 269.404 67.5183 269.404 73.4434C269.404 79.3686 264.601 84.1719 258.676 84.1719C252.751 84.1719 247.947 79.3686 247.947 73.4434ZM258.676 61.715C252.198 61.715 246.947 66.966 246.947 73.4434C246.947 79.9209 252.198 85.1719 258.676 85.1719C265.153 85.1719 270.404 79.9209 270.404 73.4434C270.404 66.966 265.153 61.715 258.676 61.715ZM263.844 70.5863C264.038 70.3897 264.036 70.0731 263.839 69.8793C263.642 69.6854 263.326 69.6877 263.132 69.8843L257.151 75.9516L254.207 73.1641C254.007 72.9742 253.69 72.9828 253.501 73.1834C253.311 73.3839 253.319 73.7003 253.52 73.8902L256.82 77.0146C257.017 77.2018 257.328 77.1964 257.52 77.0026L263.844 70.5863ZM249.943 87.0438C249.977 87.0299 250.035 87.0139 250.168 87.0048C250.306 86.9954 250.485 86.9951 250.758 86.9951C251.03 86.9951 251.209 86.9954 251.347 87.0048C251.481 87.0139 251.539 87.0299 251.572 87.0438C251.729 87.1087 251.854 87.2332 251.919 87.39C251.932 87.4236 251.948 87.4816 251.958 87.615C251.967 87.753 251.967 87.9322 251.967 88.2046V89.8442H253.607C253.879 89.8442 254.058 89.8445 254.196 89.8539C254.33 89.863 254.388 89.879 254.421 89.8929C254.578 89.9578 254.703 90.0823 254.768 90.2391C254.782 90.2727 254.798 90.3307 254.807 90.4641C254.816 90.6021 254.816 90.7813 254.816 91.0537C254.816 91.326 254.816 91.5052 254.807 91.6432C254.798 91.7767 254.782 91.8346 254.768 91.8683C254.703 92.025 254.578 92.1495 254.421 92.2144C254.388 92.2284 254.33 92.2443 254.196 92.2534C254.058 92.2628 253.879 92.2631 253.607 92.2631H251.967V93.9027C251.967 94.1751 251.967 94.3543 251.958 94.4923C251.948 94.6257 251.932 94.6837 251.919 94.7173C251.854 94.8741 251.729 94.9986 251.572 95.0635C251.539 95.0774 251.481 95.0934 251.347 95.1025C251.209 95.1119 251.03 95.1122 250.758 95.1122C250.485 95.1122 250.306 95.1119 250.168 95.1025C250.035 95.0934 249.977 95.0774 249.943 95.0635C249.786 94.9986 249.662 94.8741 249.597 94.7173C249.583 94.6837 249.567 94.6257 249.558 94.4923C249.549 94.3543 249.548 94.1751 249.548 93.9027V92.2631H247.909C247.636 92.2631 247.457 92.2628 247.319 92.2534C247.186 92.2443 247.128 92.2284 247.094 92.2144C246.937 92.1495 246.813 92.025 246.748 91.8683C246.734 91.8346 246.718 91.7767 246.709 91.6432C246.699 91.5052 246.699 91.326 246.699 91.0537C246.699 90.7813 246.699 90.6021 246.709 90.4641C246.718 90.3307 246.734 90.2727 246.748 90.2391C246.813 90.0823 246.937 89.9578 247.094 89.8929C247.128 89.879 247.186 89.863 247.319 89.8539C247.457 89.8445 247.636 89.8442 247.909 89.8442H249.548V88.2046C249.548 87.9322 249.549 87.753 249.558 87.615C249.567 87.4816 249.583 87.4236 249.597 87.39C249.662 87.2332 249.786 87.1087 249.943 87.0438ZM250.774 85.9951H250.741H250.741C250.49 85.9951 250.276 85.9951 250.1 86.0071C249.916 86.0197 249.736 86.0471 249.56 86.1199C249.159 86.2863 248.84 86.6055 248.673 87.0073C248.6 87.1831 248.573 87.3626 248.56 87.547C248.548 87.7231 248.548 87.9366 248.548 88.1882V88.8442L247.892 88.8442H247.892C247.641 88.8442 247.427 88.8442 247.251 88.8562C247.067 88.8688 246.887 88.8962 246.711 88.969C246.31 89.1354 245.99 89.4546 245.824 89.8564C245.751 90.0322 245.724 90.2117 245.711 90.3961C245.699 90.5721 245.699 90.7857 245.699 91.0373V91.0701C245.699 91.3216 245.699 91.5352 245.711 91.7113C245.724 91.8956 245.751 92.0751 245.824 92.2509C245.99 92.6527 246.31 92.9719 246.711 93.1383C246.887 93.2111 247.067 93.2385 247.251 93.2511C247.427 93.2631 247.641 93.2631 247.892 93.2631H248.548V93.9191C248.548 94.1707 248.548 94.3843 248.56 94.5603C248.573 94.7447 248.6 94.9242 248.673 95.1C248.84 95.5018 249.159 95.821 249.56 95.9874C249.736 96.0602 249.916 96.0876 250.1 96.1002C250.276 96.1122 250.49 96.1122 250.741 96.1122H250.741H250.774H250.774C251.026 96.1122 251.239 96.1122 251.415 96.1002C251.6 96.0876 251.779 96.0602 251.955 95.9874C252.357 95.821 252.676 95.5018 252.842 95.1C252.915 94.9242 252.943 94.7447 252.955 94.5603C252.967 94.3843 252.967 94.1707 252.967 93.9192V93.9191V93.2631H253.623C253.875 93.2631 254.088 93.2631 254.264 93.2511C254.449 93.2385 254.628 93.2111 254.804 93.1383C255.206 92.9719 255.525 92.6527 255.691 92.2509C255.764 92.0751 255.792 91.8956 255.804 91.7113C255.816 91.5352 255.816 91.3217 255.816 91.0702V91.0701V91.0373V91.0371C255.816 90.7856 255.816 90.5721 255.804 90.3961C255.792 90.2117 255.764 90.0322 255.691 89.8564C255.525 89.4546 255.206 89.1354 254.804 88.969C254.628 88.8962 254.449 88.8688 254.264 88.8562C254.088 88.8442 253.875 88.8442 253.623 88.8442H253.623L252.967 88.8442V88.1882V88.1881C252.967 87.9366 252.967 87.723 252.955 87.547C252.943 87.3626 252.915 87.1831 252.842 87.0073C252.676 86.6055 252.357 86.2863 251.955 86.1199C251.779 86.0471 251.6 86.0197 251.415 86.0071C251.239 85.9951 251.026 85.9951 250.774 85.9951H250.774Z" fill="#5055FE"></path>
  <defs>
    <filter id="filter0_d_623_737" x="52.3359" y="345.607" width="92.1094" height="92.1094" color-interpolation-filters="sRGB">
      <feFlood flood-opacity="0" result="BackgroundImageFix"></feFlood>
      <feColorMatrix in="SourceAlpha" type="matrix" values="0 0 0 0 0 0 0 0 0 0 0 0 0 0 0 0 0 0 127 0" result="hardAlpha"></feColorMatrix>
      <feMorphology radius="2" operator="erode" in="SourceAlpha" result="effect1_dropShadow_623_737"></feMorphology>
      <feOffset dy="2"></feOffset>
      <feGaussianBlur stdDeviation="5"></feGaussianBlur>
      <feColorMatrix type="matrix" values="0 0 0 0 0.0415817 0 0 0 0 0.0415817 0 0 0 0 0.0415817 0 0 0 0.1 0"></feColorMatrix>
      <feBlend mode="normal" in2="BackgroundImageFix" result="effect1_dropShadow_623_737"></feBlend>
      <feBlend mode="normal" in="SourceGraphic" in2="effect1_dropShadow_623_737" result="shape"></feBlend>
    </filter>
    <linearGradient id="paint0_linear_623_737" x1="461.374" y1="268.302" x2="151.391" y2="133.232" gradientUnits="userSpaceOnUse">
      <stop stop-color="#1E85E9"></stop>
      <stop offset="0.202755" stop-color="#8671F3"></stop>
      <stop offset="0.707269" stop-color="#C06CFD" stop-opacity="0.99"></stop>
      <stop offset="1" stop-color="#FFBEE8"></stop>
    </linearGradient>
    <linearGradient id="paint1_linear_623_737" x1="200.54" y1="340.8" x2="200.54" y2="268.302" gradientUnits="userSpaceOnUse">
      <stop stop-color="#B4BBF8" stop-opacity="0.01"></stop>
      <stop offset="1" stop-color="#D9B6FC"></stop>
    </linearGradient>
    <linearGradient id="paint2_linear_623_737" x1="767.103" y1="164.794" x2="599.996" y2="-126.651" gradientUnits="userSpaceOnUse">
      <stop stop-color="#1E85E9"></stop>
      <stop offset="0.202755" stop-color="#8671F3"></stop>
      <stop offset="0.707269" stop-color="#C06CFD" stop-opacity="0.99"></stop>
      <stop offset="1" stop-color="#FFBEE8"></stop>
    </linearGradient>
    <linearGradient id="paint3_linear_623_737" x1="-140.905" y1="-23.0449" x2="-227.509" y2="280.241" gradientUnits="userSpaceOnUse">
      <stop stop-color="#1E85E9"></stop>
      <stop offset="0.202755" stop-color="#8671F3"></stop>
      <stop offset="0.707269" stop-color="#C06CFD" stop-opacity="0.99"></stop>
      <stop offset="1" stop-color="#FFBEE8"></stop>
    </linearGradient>
    <linearGradient id="paint4_linear_623_737" x1="485.417" y1="267.039" x2="285.012" y2="65.5227" gradientUnits="userSpaceOnUse">
      <stop stop-color="#1E85E9"></stop>
      <stop offset="0.202755" stop-color="#8671F3"></stop>
      <stop offset="0.707269" stop-color="#CFA9FC"></stop>
      <stop offset="1" stop-color="#F4D9FB"></stop>
    </linearGradient>
    <linearGradient id="paint5_linear_623_737" x1="307" y1="288" x2="238.3" y2="232.995" gradientUnits="userSpaceOnUse">
      <stop stop-color="#1E85E9"></stop>
      <stop offset="0.202755" stop-color="#8671F3"></stop>
      <stop offset="0.707269" stop-color="#C06CFD" stop-opacity="0.99"></stop>
      <stop offset="1" stop-color="#FFBEE8"></stop>
    </linearGradient>
    <linearGradient id="paint6_linear_623_737" x1="206.091" y1="382.1" x2="194.315" y2="352.659" gradientUnits="userSpaceOnUse">
      <stop stop-color="#1E85E9"></stop>
      <stop offset="0.202755" stop-color="#8671F3"></stop>
      <stop offset="0.707269" stop-color="#C06CFD" stop-opacity="0.99"></stop>
      <stop offset="1" stop-color="#FFBEE8"></stop>
    </linearGradient>
    <linearGradient id="paint7_linear_623_737" x1="491.498" y1="300.38" x2="460.667" y2="261.248" gradientUnits="userSpaceOnUse">
      <stop stop-color="#1E85E9"></stop>
      <stop offset="0.202755" stop-color="#8671F3"></stop>
      <stop offset="0.707269" stop-color="#C06CFD" stop-opacity="0.99"></stop>
      <stop offset="1" stop-color="#FFBEE8"></stop>
    </linearGradient>
    <linearGradient id="paint8_linear_623_737" x1="222.556" y1="109.497" x2="213.042" y2="107.975" gradientUnits="userSpaceOnUse">
      <stop stop-color="#1E85E9"></stop>
      <stop offset="0.202755" stop-color="#8671F3"></stop>
      <stop offset="0.707269" stop-color="#C06CFD" stop-opacity="0.99"></stop>
      <stop offset="1" stop-color="#FFBEE8"></stop>
    </linearGradient>
    <radialGradient id="paint9_radial_623_737" cx="0" cy="0" r="1" gradientUnits="userSpaceOnUse" gradientTransform="translate(300 37) rotate(141.766) scale(126.036 125.814)">
      <stop stop-color="white"></stop>
      <stop offset="1" stop-color="#EEEFEF"></stop>
    </radialGradient>
    <radialGradient id="paint10_radial_623_737" cx="0" cy="0" r="1" gradientUnits="userSpaceOnUse" gradientTransform="translate(231 90.5) rotate(-40.7797) scale(66.7526 140.896)">
      <stop stop-color="white"></stop>
      <stop offset="1" stop-color="#F4F4F4"></stop>
    </radialGradient>
    <radialGradient id="paint11_radial_623_737" cx="0" cy="0" r="1" gradientUnits="userSpaceOnUse" gradientTransform="translate(138.332 364.098) rotate(119.49) scale(80.9204 80.778)">
      <stop stop-color="white"></stop>
      <stop offset="1" stop-color="#EDEDED"></stop>
    </radialGradient>
    <radialGradient id="paint12_radial_623_737" cx="0" cy="0" r="1" gradientUnits="userSpaceOnUse" gradientTransform="translate(77.8281 409.598) rotate(-40.7797) scale(66.7526 140.896)">
      <stop stop-color="white"></stop>
      <stop offset="1" stop-color="#F4F4F4"></stop>
    </radialGradient>
    <radialGradient id="paint13_radial_623_737" cx="0" cy="0" r="1" gradientUnits="userSpaceOnUse" gradientTransform="translate(529.453 333.099) rotate(119.49) scale(80.9204 80.778)">
      <stop stop-color="white"></stop>
      <stop offset="1" stop-color="#EDEDED"></stop>
    </radialGradient>
    <radialGradient id="paint14_radial_623_737" cx="0" cy="0" r="1" gradientUnits="userSpaceOnUse" gradientTransform="translate(468.953 378.6) rotate(-40.7797) scale(66.7526 140.896)">
      <stop stop-color="white"></stop>
      <stop offset="1" stop-color="#F4F4F4"></stop>
    </radialGradient>
  </defs>
</svg>
