<?xml version="1.0" encoding="UTF-8"?>
<svg xmlns="http://www.w3.org/2000/svg" width="570" height="345" viewBox="0 0 570 345" fill="none">
  <rect y="0.265137" width="570" height="344" fill="white"></rect>
  <path opacity="0.498837" fill-rule="evenodd" clip-rule="evenodd" d="M114.417 286.327C82.0709 300.222 52.0496 296.949 34.901 273.546C20.453 253.829 17.9296 223.622 25.4658 190.78C33.0033 157.932 50.6116 122.399 76.4952 91.9517C102.379 61.5047 131.652 41.8908 158.065 34.8024C184.474 27.7151 208.063 33.1431 222.511 52.8602C235.879 71.1043 239.038 98.3312 233.466 128.313C227.892 158.298 213.581 191.078 191.957 220.495L191.638 220.121C213.22 190.762 227.487 158.067 233.039 128.195C238.592 98.3198 235.424 71.306 222.187 53.2412C207.881 33.7184 184.476 28.2799 158.149 35.345C131.827 42.4089 102.625 61.9663 76.7907 92.355C50.9567 122.744 33.3982 158.192 25.8867 190.926C18.3739 223.666 20.9192 253.643 35.2248 273.166C52.2041 296.337 82.0075 299.667 114.282 285.802L114.417 286.327Z" fill="url(#paint0_linear_456_886)"></path>
  <path opacity="0.498837" fill-rule="evenodd" clip-rule="evenodd" d="M431.617 70.6209C463.232 55.4827 493.065 57.4372 510.759 79.8736C525.666 98.7766 529.077 128.574 522.607 161.407C516.134 194.246 499.77 230.175 475.055 261.422C450.341 292.669 421.942 313.337 395.997 321.484C370.057 329.63 346.529 325.266 331.622 306.363C317.829 288.872 313.877 262.053 318.49 232.135C323.104 202.213 336.287 169.152 356.813 139.107L357.145 139.47C336.658 169.456 323.516 202.432 318.92 232.241C314.324 262.053 318.278 288.657 331.932 305.971C346.689 324.683 370.032 329.066 395.892 320.946C421.747 312.827 450.078 292.217 474.746 261.029C499.413 229.841 515.731 193.999 522.181 161.273C528.632 128.541 525.205 98.9772 510.449 80.2657C492.934 58.057 463.319 56.0341 431.772 71.14L431.617 70.6209Z" fill="url(#paint1_linear_456_886)"></path>
  <circle cx="403" cy="318" r="3" transform="rotate(51 403 318)" fill="#5055FE"></circle>
  <circle opacity="0.102562" cx="403" cy="318" r="7" fill="#5055FE"></circle>
  <circle cx="497" cy="69.0002" r="3" transform="rotate(51 497 69.0002)" fill="#5055FE"></circle>
  <circle opacity="0.102562" cx="497" cy="69" r="7" fill="#5055FE"></circle>
  <circle cx="22.9999" cy="201.99" r="3" transform="rotate(51 22.9999 201.99)" fill="#5055FE"></circle>
  <circle opacity="0.102562" cx="23" cy="201.99" r="7" fill="#5055FE"></circle>
  <path fill-rule="evenodd" clip-rule="evenodd" d="M399.289 280.975C399.455 280.975 399.589 280.841 399.589 280.675V279.154C399.589 278.989 399.455 278.854 399.289 278.854C399.124 278.854 398.989 278.989 398.989 279.154V280.675C398.989 280.841 399.124 280.975 399.289 280.975ZM399.289 276.413C399.455 276.413 399.589 276.278 399.589 276.113V273.071C399.589 272.906 399.455 272.771 399.289 272.771C399.124 272.771 398.989 272.906 398.989 273.071V276.113C398.989 276.278 399.124 276.413 399.289 276.413ZM399.289 270.33C399.455 270.33 399.589 270.195 399.589 270.03V266.988C399.589 266.823 399.455 266.688 399.289 266.688C399.124 266.688 398.989 266.823 398.989 266.988V270.03C398.989 270.195 399.124 270.33 399.289 270.33ZM399.289 264.247C399.455 264.247 399.589 264.112 399.589 263.947V260.905C399.589 260.74 399.455 260.605 399.289 260.605C399.124 260.605 398.989 260.74 398.989 260.905V263.947C398.989 264.112 399.124 264.247 399.289 264.247ZM399.289 258.164C399.455 258.164 399.589 258.029 399.589 257.864V254.822C399.589 254.656 399.455 254.522 399.289 254.522C399.124 254.522 398.989 254.656 398.989 254.822V257.864C398.989 258.029 399.124 258.164 399.289 258.164ZM399.289 252.081C399.455 252.081 399.589 251.946 399.589 251.781V248.739C399.589 248.573 399.455 248.439 399.289 248.439C399.124 248.439 398.989 248.573 398.989 248.739V251.781C398.989 251.946 399.124 252.081 399.289 252.081ZM399.289 245.998C399.455 245.998 399.589 245.863 399.589 245.698V242.656C399.589 242.49 399.455 242.356 399.289 242.356C399.124 242.356 398.989 242.49 398.989 242.656V245.698C398.989 245.863 399.124 245.998 399.289 245.998ZM399.289 239.915C399.455 239.915 399.589 239.78 399.589 239.615V236.573C399.589 236.407 399.455 236.273 399.289 236.273C399.124 236.273 398.989 236.407 398.989 236.573V239.615C398.989 239.78 399.124 239.915 399.289 239.915ZM399.289 233.831C399.455 233.831 399.589 233.697 399.589 233.531V230.49C399.589 230.324 399.455 230.19 399.289 230.19C399.124 230.19 398.989 230.324 398.989 230.49V233.531C398.989 233.697 399.124 233.831 399.289 233.831ZM399.289 227.748C399.455 227.748 399.589 227.614 399.589 227.448V224.407C399.589 224.241 399.455 224.107 399.289 224.107C399.124 224.107 398.989 224.241 398.989 224.407V227.448C398.989 227.614 399.124 227.748 399.289 227.748ZM399.289 221.665C399.455 221.665 399.589 221.531 399.589 221.365V218.324C399.589 218.158 399.455 218.024 399.289 218.024C399.124 218.024 398.989 218.158 398.989 218.324V221.365C398.989 221.531 399.124 221.665 399.289 221.665ZM399.289 215.582C399.455 215.582 399.589 215.448 399.589 215.282V212.241C399.589 212.075 399.455 211.941 399.289 211.941C399.124 211.941 398.989 212.075 398.989 212.241V215.282C398.989 215.448 399.124 215.582 399.289 215.582ZM399.289 209.499C399.455 209.499 399.589 209.365 399.589 209.199V207.679C399.589 207.054 399.924 206.476 400.468 206.163L401.789 205.402C401.933 205.32 401.982 205.136 401.9 204.993C401.817 204.849 401.634 204.799 401.49 204.882L400.168 205.643C399.439 206.062 398.989 206.838 398.989 207.679V209.199C398.989 209.365 399.124 209.499 399.289 209.499ZM404.023 203.771C404.105 203.915 404.289 203.964 404.432 203.881L407.075 202.361C407.219 202.278 407.268 202.095 407.186 201.951C407.103 201.807 406.92 201.758 406.776 201.841L404.133 203.361C403.989 203.444 403.94 203.627 404.023 203.771ZM409.309 200.729C409.391 200.873 409.575 200.923 409.718 200.84L412.361 199.319C412.505 199.236 412.554 199.053 412.472 198.909C412.389 198.766 412.205 198.716 412.062 198.799L409.419 200.32C409.275 200.402 409.226 200.586 409.309 200.729ZM414.594 197.688C414.677 197.832 414.86 197.881 415.004 197.798L417.647 196.278C417.791 196.195 417.84 196.012 417.757 195.868C417.675 195.724 417.491 195.675 417.348 195.758L414.705 197.278C414.561 197.361 414.512 197.544 414.594 197.688ZM419.88 194.646C419.963 194.79 420.146 194.839 420.29 194.757L422.933 193.236C423.077 193.153 423.126 192.97 423.043 192.826C422.961 192.683 422.777 192.633 422.634 192.716L419.991 194.237C419.847 194.319 419.798 194.503 419.88 194.646ZM425.166 191.605C425.249 191.749 425.432 191.798 425.576 191.715L428.219 190.195C428.363 190.112 428.412 189.929 428.329 189.785C428.247 189.641 428.063 189.592 427.92 189.674L425.277 191.195C425.133 191.278 425.084 191.461 425.166 191.605ZM430.452 188.563C430.535 188.707 430.718 188.756 430.862 188.674L433.505 187.153C433.649 187.07 433.698 186.887 433.615 186.743C433.533 186.6 433.349 186.55 433.206 186.633L430.563 188.154C430.419 188.236 430.37 188.42 430.452 188.563ZM435.738 185.522C435.821 185.665 436.004 185.715 436.148 185.632L438.791 184.112C438.935 184.029 438.984 183.845 438.901 183.702C438.819 183.558 438.635 183.509 438.492 183.591L435.849 185.112C435.705 185.195 435.656 185.378 435.738 185.522ZM441.024 182.48C441.107 182.624 441.29 182.673 441.434 182.591L444.077 181.07C444.22 180.987 444.27 180.804 444.187 180.66C444.105 180.517 443.921 180.467 443.778 180.55L441.135 182.071C440.991 182.153 440.942 182.337 441.024 182.48ZM446.31 179.439C446.393 179.582 446.576 179.632 446.72 179.549L449.363 178.028C449.506 177.946 449.556 177.762 449.473 177.619C449.391 177.475 449.207 177.426 449.064 177.508L446.421 179.029C446.277 179.112 446.228 179.295 446.31 179.439ZM451.596 176.397C451.679 176.541 451.862 176.59 452.006 176.508L454.649 174.987C454.792 174.904 454.842 174.721 454.759 174.577C454.677 174.434 454.493 174.384 454.35 174.467L451.707 175.988C451.563 176.07 451.514 176.254 451.596 176.397ZM456.882 173.356C456.965 173.499 457.148 173.549 457.292 173.466L459.935 171.945C460.078 171.863 460.128 171.679 460.045 171.536C459.963 171.392 459.779 171.343 459.635 171.425L456.993 172.946C456.849 173.029 456.799 173.212 456.882 173.356ZM462.168 170.314C462.251 170.458 462.434 170.507 462.578 170.425L463.899 169.664C464.043 169.582 464.092 169.398 464.01 169.255C463.927 169.111 463.744 169.062 463.6 169.144L462.278 169.905C462.135 169.987 462.085 170.171 462.168 170.314Z" fill="#E3E0E0"></path>
  <path d="M393.151 192.392C392.514 192.758 391.73 192.758 391.093 192.392L327.662 155.894C327.025 155.527 326.633 154.85 326.633 154.118V81.1211" stroke="#E3E0E0" stroke-width="1.02335" stroke-linecap="round" stroke-dasharray="2.05"></path>
  <path fill-rule="evenodd" clip-rule="evenodd" d="M183.873 311.808C183.239 312.174 182.459 312.174 181.826 311.808L118.733 275.381C118.1 275.016 117.71 274.34 117.71 273.609V200.756C117.71 200.025 118.1 199.349 118.733 198.983L181.826 162.557C182.459 162.191 183.239 162.191 183.873 162.557L246.965 198.983C247.599 199.349 247.989 200.025 247.989 200.756V273.609C247.989 274.34 247.599 275.016 246.965 275.381L183.873 311.808Z" fill="url(#paint2_linear_456_886)"></path>
  <path d="M257.047 31.9999L320.14 68.4265C320.773 68.7921 321.553 68.7921 322.186 68.4265L385.279 31.9999" stroke="#E3E0E0" stroke-width="0.6" stroke-linecap="round" stroke-dasharray="3 3"></path>
  <path fill-rule="evenodd" clip-rule="evenodd" d="M252.99 290.534C252.449 290.222 251.783 290.222 251.243 290.534L249.929 291.293C249.785 291.376 249.602 291.327 249.519 291.183C249.436 291.04 249.485 290.856 249.629 290.773L250.943 290.015C251.669 289.595 252.564 289.595 253.29 290.015L254.604 290.773C254.748 290.856 254.797 291.04 254.714 291.183C254.631 291.327 254.448 291.376 254.304 291.293L252.99 290.534ZM247.409 292.401C247.492 292.545 247.443 292.728 247.3 292.811L244.671 294.329C244.527 294.411 244.344 294.362 244.261 294.219C244.178 294.075 244.227 293.892 244.371 293.809L247 292.291C247.143 292.208 247.327 292.258 247.409 292.401ZM256.823 292.401C256.906 292.258 257.089 292.208 257.233 292.291L259.862 293.809C260.005 293.892 260.054 294.075 259.972 294.219C259.889 294.362 259.705 294.411 259.562 294.329L256.933 292.811C256.789 292.728 256.74 292.545 256.823 292.401ZM262.081 295.437C262.164 295.293 262.347 295.244 262.491 295.327L265.12 296.845C265.263 296.927 265.312 297.111 265.229 297.254C265.147 297.398 264.963 297.447 264.82 297.364L262.191 295.846C262.047 295.764 261.998 295.58 262.081 295.437ZM242.152 295.437C242.235 295.58 242.185 295.764 242.042 295.846L239.413 297.364C239.27 297.447 239.086 297.398 239.003 297.254C238.92 297.111 238.97 296.927 239.113 296.845L241.742 295.327C241.885 295.244 242.069 295.293 242.152 295.437ZM267.339 298.472C267.421 298.329 267.605 298.28 267.748 298.362L270.377 299.88C270.521 299.963 270.57 300.146 270.487 300.29C270.404 300.433 270.221 300.483 270.077 300.4L267.448 298.882C267.305 298.799 267.256 298.616 267.339 298.472ZM236.894 298.472C236.977 298.616 236.928 298.799 236.784 298.882L234.155 300.4C234.012 300.483 233.828 300.433 233.746 300.29C233.663 300.146 233.712 299.963 233.855 299.88L236.484 298.362C236.628 298.28 236.811 298.329 236.894 298.472ZM272.596 301.508C272.679 301.364 272.863 301.315 273.006 301.398L275.635 302.916C275.778 302.999 275.828 303.182 275.745 303.325C275.662 303.469 275.478 303.518 275.335 303.435L272.706 301.918C272.563 301.835 272.513 301.651 272.596 301.508ZM231.636 301.508C231.719 301.651 231.67 301.835 231.526 301.918L228.898 303.435C228.754 303.518 228.571 303.469 228.488 303.325C228.405 303.182 228.454 302.999 228.598 302.916L231.226 301.398C231.37 301.315 231.553 301.364 231.636 301.508ZM277.854 304.543C277.937 304.4 278.12 304.351 278.264 304.433L280.893 305.951C281.036 306.034 281.085 306.218 281.003 306.361C280.92 306.505 280.736 306.554 280.593 306.471L277.964 304.953C277.82 304.87 277.771 304.687 277.854 304.543ZM226.379 304.543C226.461 304.687 226.412 304.87 226.269 304.953L223.64 306.471C223.496 306.554 223.313 306.505 223.23 306.361C223.147 306.218 223.196 306.034 223.34 305.951L225.969 304.433C226.112 304.351 226.296 304.4 226.379 304.543ZM221.121 307.579C221.204 307.722 221.155 307.906 221.011 307.989L218.382 309.506C218.239 309.589 218.055 309.54 217.972 309.397C217.89 309.253 217.939 309.07 218.082 308.987L220.711 307.469C220.855 307.386 221.038 307.435 221.121 307.579ZM283.112 307.579C283.195 307.435 283.378 307.386 283.522 307.469L286.15 308.987C286.294 309.07 286.343 309.253 286.26 309.397C286.177 309.54 285.994 309.589 285.85 309.506L283.222 307.989C283.078 307.906 283.029 307.722 283.112 307.579ZM288.369 310.614C288.452 310.471 288.636 310.422 288.779 310.505L291.408 312.022C291.552 312.105 291.601 312.289 291.518 312.432C291.435 312.576 291.252 312.625 291.108 312.542L288.479 311.024C288.336 310.941 288.287 310.758 288.369 310.614ZM215.863 310.614C215.946 310.758 215.897 310.941 215.753 311.024L213.124 312.542C212.981 312.625 212.797 312.576 212.715 312.432C212.632 312.289 212.681 312.105 212.824 312.022L215.453 310.505C215.597 310.422 215.78 310.471 215.863 310.614ZM293.627 313.65C293.71 313.506 293.894 313.457 294.037 313.54L296.666 315.058C296.809 315.141 296.859 315.324 296.776 315.468C296.693 315.611 296.509 315.66 296.366 315.577L293.737 314.06C293.594 313.977 293.544 313.793 293.627 313.65ZM210.605 313.65C210.688 313.793 210.639 313.977 210.496 314.06L207.867 315.577C207.723 315.66 207.54 315.611 207.457 315.468C207.374 315.324 207.423 315.141 207.567 315.058L210.196 313.54C210.339 313.457 210.523 313.506 210.605 313.65ZM298.885 316.685C298.968 316.542 299.151 316.493 299.295 316.576L301.924 318.093C302.067 318.176 302.116 318.36 302.033 318.503C301.951 318.647 301.767 318.696 301.624 318.613L298.995 317.095C298.851 317.012 298.802 316.829 298.885 316.685ZM205.348 316.685C205.431 316.829 205.381 317.012 205.238 317.095L202.609 318.613C202.466 318.696 202.282 318.647 202.199 318.503C202.116 318.36 202.166 318.176 202.309 318.093L204.938 316.576C205.081 316.493 205.265 316.542 205.348 316.685ZM304.143 319.721C304.226 319.578 304.409 319.528 304.552 319.611L307.181 321.129C307.325 321.212 307.374 321.395 307.291 321.539C307.208 321.682 307.025 321.731 306.881 321.649L304.252 320.131C304.109 320.048 304.06 319.864 304.143 319.721ZM200.09 319.721C200.173 319.864 200.124 320.048 199.98 320.131L197.351 321.649C197.208 321.731 197.024 321.682 196.941 321.539C196.859 321.395 196.908 321.212 197.051 321.129L199.68 319.611C199.824 319.528 200.007 319.578 200.09 319.721ZM194.832 322.757C194.915 322.9 194.866 323.084 194.722 323.166L192.094 324.684C191.95 324.767 191.767 324.718 191.684 324.574C191.601 324.431 191.65 324.247 191.794 324.165L194.422 322.647C194.566 322.564 194.749 322.613 194.832 322.757ZM309.4 322.757C309.483 322.613 309.667 322.564 309.81 322.647L312.439 324.165C312.583 324.247 312.632 324.431 312.549 324.574C312.466 324.718 312.283 324.767 312.139 324.684L309.51 323.166C309.367 323.084 309.318 322.9 309.4 322.757ZM189.574 325.792C189.657 325.936 189.608 326.119 189.465 326.202L188.15 326.961C188.007 327.044 187.823 326.994 187.74 326.851C187.658 326.708 187.707 326.524 187.85 326.441L189.165 325.682C189.308 325.599 189.492 325.649 189.574 325.792ZM314.658 325.792C314.741 325.649 314.924 325.599 315.068 325.682L316.382 326.441C316.526 326.524 316.575 326.708 316.492 326.851C316.409 326.994 316.226 327.044 316.082 326.961L314.768 326.202C314.624 326.119 314.575 325.936 314.658 325.792Z" fill="#E3E0E0"></path>
  <path fill-rule="evenodd" clip-rule="evenodd" d="M173.664 81.751C173.83 81.751 173.964 81.8853 173.964 82.051V83.554C173.964 83.7197 173.83 83.854 173.664 83.854C173.499 83.854 173.364 83.7197 173.364 83.554V82.051C173.364 81.8853 173.499 81.751 173.664 81.751ZM173.664 86.2601C173.83 86.2601 173.964 86.3944 173.964 86.5601V89.5662C173.964 89.7319 173.83 89.8662 173.664 89.8662C173.499 89.8662 173.364 89.7319 173.364 89.5662V86.5601C173.364 86.3944 173.499 86.2601 173.664 86.2601ZM173.664 92.2723C173.83 92.2723 173.964 92.4067 173.964 92.5723V95.5784C173.964 95.7441 173.83 95.8784 173.664 95.8784C173.499 95.8784 173.364 95.7441 173.364 95.5784V92.5723C173.364 92.4067 173.499 92.2723 173.664 92.2723ZM173.664 98.2845C173.83 98.2845 173.964 98.4189 173.964 98.5845V101.591C173.964 101.756 173.83 101.891 173.664 101.891C173.499 101.891 173.364 101.756 173.364 101.591V98.5845C173.364 98.4189 173.499 98.2845 173.664 98.2845ZM173.664 104.297C173.83 104.297 173.964 104.431 173.964 104.597V107.603C173.964 107.769 173.83 107.903 173.664 107.903C173.499 107.903 173.364 107.769 173.364 107.603V104.597C173.364 104.431 173.499 104.297 173.664 104.297ZM173.664 110.309C173.83 110.309 173.964 110.443 173.964 110.609V113.615C173.964 113.781 173.83 113.915 173.664 113.915C173.499 113.915 173.364 113.781 173.364 113.615V110.609C173.364 110.443 173.499 110.309 173.664 110.309ZM173.664 116.321C173.83 116.321 173.964 116.455 173.964 116.621V119.627C173.964 119.793 173.83 119.927 173.664 119.927C173.499 119.927 173.364 119.793 173.364 119.627V116.621C173.364 116.455 173.499 116.321 173.664 116.321ZM173.664 122.333C173.83 122.333 173.964 122.468 173.964 122.633V125.639C173.964 125.805 173.83 125.939 173.664 125.939C173.499 125.939 173.364 125.805 173.364 125.639V122.633C173.364 122.468 173.499 122.333 173.664 122.333ZM173.664 128.346C173.83 128.346 173.964 128.48 173.964 128.646V131.652C173.964 131.817 173.83 131.952 173.664 131.952C173.499 131.952 173.364 131.817 173.364 131.652V128.646C173.364 128.48 173.499 128.346 173.664 128.346ZM173.664 134.358C173.83 134.358 173.964 134.492 173.964 134.658V137.664C173.964 137.83 173.83 137.964 173.664 137.964C173.499 137.964 173.364 137.83 173.364 137.664V134.658C173.364 134.492 173.499 134.358 173.664 134.358ZM173.664 140.37C173.83 140.37 173.964 140.504 173.964 140.67V143.676C173.964 143.842 173.83 143.976 173.664 143.976C173.499 143.976 173.364 143.842 173.364 143.676V140.67C173.364 140.504 173.499 140.37 173.664 140.37ZM173.664 146.382C173.83 146.382 173.964 146.517 173.964 146.682V149.688C173.964 149.854 173.83 149.988 173.664 149.988C173.499 149.988 173.364 149.854 173.364 149.688V146.682C173.364 146.517 173.499 146.382 173.664 146.382ZM173.664 152.394C173.83 152.394 173.964 152.529 173.964 152.694V154.197C173.964 154.363 173.83 154.497 173.664 154.497C173.499 154.497 173.364 154.363 173.364 154.197V152.694C173.364 152.529 173.499 152.394 173.664 152.394Z" fill="#E3E0E0"></path>
  <path fill-rule="evenodd" clip-rule="evenodd" d="M104 201.7C104.166 201.7 104.3 201.835 104.3 202V203.503C104.3 203.669 104.166 203.803 104 203.803C103.835 203.803 103.7 203.669 103.7 203.503V202C103.7 201.835 103.835 201.7 104 201.7ZM104 206.209C104.166 206.209 104.3 206.344 104.3 206.509V209.515C104.3 209.681 104.166 209.815 104 209.815C103.835 209.815 103.7 209.681 103.7 209.515V206.509C103.7 206.344 103.835 206.209 104 206.209ZM104 212.222C104.166 212.222 104.3 212.356 104.3 212.522V215.528C104.3 215.693 104.166 215.828 104 215.828C103.835 215.828 103.7 215.693 103.7 215.528V212.522C103.7 212.356 103.835 212.222 104 212.222ZM104 218.234C104.166 218.234 104.3 218.368 104.3 218.534V221.54C104.3 221.706 104.166 221.84 104 221.84C103.835 221.84 103.7 221.706 103.7 221.54V218.534C103.7 218.368 103.835 218.234 104 218.234ZM104 224.246C104.166 224.246 104.3 224.38 104.3 224.546V227.552C104.3 227.718 104.166 227.852 104 227.852C103.835 227.852 103.7 227.718 103.7 227.552V224.546C103.7 224.38 103.835 224.246 104 224.246ZM104 230.258C104.166 230.258 104.3 230.392 104.3 230.558V233.564C104.3 233.73 104.166 233.864 104 233.864C103.835 233.864 103.7 233.73 103.7 233.564V230.558C103.7 230.392 103.835 230.258 104 230.258ZM104 236.27C104.166 236.27 104.3 236.405 104.3 236.57V239.576C104.3 239.742 104.166 239.876 104 239.876C103.835 239.876 103.7 239.742 103.7 239.576V236.57C103.7 236.405 103.835 236.27 104 236.27ZM104 242.283C104.166 242.283 104.3 242.417 104.3 242.583V245.589C104.3 245.754 104.166 245.889 104 245.889C103.835 245.889 103.7 245.754 103.7 245.589V242.583C103.7 242.417 103.835 242.283 104 242.283ZM104 248.295C104.166 248.295 104.3 248.429 104.3 248.595V251.601C104.3 251.767 104.166 251.901 104 251.901C103.835 251.901 103.7 251.767 103.7 251.601V248.595C103.7 248.429 103.835 248.295 104 248.295ZM104 254.307C104.166 254.307 104.3 254.441 104.3 254.607V257.613C104.3 257.779 104.166 257.913 104 257.913C103.835 257.913 103.7 257.779 103.7 257.613V254.607C103.7 254.441 103.835 254.307 104 254.307ZM104 260.319C104.166 260.319 104.3 260.454 104.3 260.619V263.625C104.3 263.791 104.166 263.925 104 263.925C103.835 263.925 103.7 263.791 103.7 263.625V260.619C103.7 260.454 103.835 260.319 104 260.319ZM104 266.331C104.166 266.331 104.3 266.466 104.3 266.631V269.638C104.3 269.803 104.166 269.938 104 269.938C103.835 269.938 103.7 269.803 103.7 269.638V266.631C103.7 266.466 103.835 266.331 104 266.331ZM104 272.344C104.166 272.344 104.3 272.478 104.3 272.644V274.147C104.3 274.312 104.166 274.447 104 274.447C103.835 274.447 103.7 274.312 103.7 274.147V272.644C103.7 272.478 103.835 272.344 104 272.344Z" fill="#E3E0E0"></path>
  <path fill-rule="evenodd" clip-rule="evenodd" d="M183.874 291.341C183.241 291.707 182.461 291.707 181.828 291.341L135.574 264.636C134.94 264.271 134.55 263.595 134.55 262.864V209.454C134.55 208.723 134.94 208.047 135.574 207.682L181.828 180.977C182.461 180.611 183.241 180.611 183.874 180.977L230.128 207.682C230.761 208.047 231.152 208.723 231.152 209.454V262.864C231.152 263.595 230.761 264.271 230.128 264.636L183.874 291.341Z" fill="white"></path>
  <path d="M183 273C203.435 273 220 256.435 220 236C220 215.565 203.435 199 183 199C162.565 199 146 215.565 146 236C146 256.435 162.565 273 183 273Z" fill="url(#paint3_linear_456_886)"></path>
  <g filter="url(#filter0_f_456_886)">
    <path d="M182.5 265C198.792 265 212 251.792 212 235.5C212 219.208 198.792 206 182.5 206C166.208 206 153 219.208 153 235.5C153 251.792 166.208 265 182.5 265Z" fill="#979797" fill-opacity="0.5"></path>
  </g>
  <path d="M182.5 265C198.792 265 212 251.792 212 235.5C212 219.208 198.792 206 182.5 206C166.208 206 153 219.208 153 235.5C153 251.792 166.208 265 182.5 265Z" fill="white"></path>
  <path fill-rule="evenodd" clip-rule="evenodd" d="M166.748 222.531C166.748 220.874 168.091 219.531 169.748 219.531C171.235 219.531 172.469 220.612 172.707 222.031H179.748C179.762 222.031 179.776 222.032 179.789 222.033C180.027 220.613 181.261 219.531 182.748 219.531C184.235 219.531 185.469 220.612 185.707 222.031H192.248H192.748V222.045C196.637 222.257 198.748 224.97 198.748 229.024C198.748 232.723 197.005 235.607 193.951 235.988C193.915 236.004 193.877 236.016 193.838 236.023L193.748 236.031H193.248H185.707C185.469 237.45 184.235 238.531 182.748 238.531C181.262 238.531 180.028 237.45 179.79 236.031H173.317C170.234 236.031 168.248 238.653 168.248 242.039C168.248 245.553 170.198 247.919 173.509 248.027L173.748 248.031H179.79C180.028 246.612 181.262 245.531 182.748 245.531C184.235 245.531 185.469 246.612 185.707 248.031H192.79C193.028 246.612 194.262 245.531 195.748 245.531C197.405 245.531 198.748 246.874 198.748 248.531C198.748 250.188 197.405 251.531 195.748 251.531C194.262 251.531 193.028 250.45 192.79 249.031H185.707C185.469 250.45 184.235 251.531 182.748 251.531C181.262 251.531 180.028 250.45 179.79 249.031H173.748H173.248V249.016C169.5 248.788 167.248 245.985 167.248 242.039C167.248 238.329 169.401 235.318 172.817 235.051V235.031H173.317H179.79C180.028 233.612 181.262 232.531 182.748 232.531C184.235 232.531 185.469 233.612 185.707 235.031H193.248C196.077 235.031 197.748 232.511 197.748 229.024C197.748 225.401 195.944 223.138 192.497 223.035L192.248 223.031H185.707C185.469 224.45 184.235 225.531 182.748 225.531C181.26 225.531 180.025 224.448 179.789 223.028L179.748 223.031H172.707C172.469 224.45 171.235 225.531 169.748 225.531C168.091 225.531 166.748 224.188 166.748 222.531ZM184.748 235.531C184.748 234.427 183.853 233.531 182.748 233.531C181.643 233.531 180.748 234.427 180.748 235.531C180.748 236.636 181.643 237.531 182.748 237.531C183.853 237.531 184.748 236.636 184.748 235.531ZM171.748 222.531C171.748 221.427 170.853 220.531 169.748 220.531C168.643 220.531 167.748 221.427 167.748 222.531C167.748 223.636 168.643 224.531 169.748 224.531C170.853 224.531 171.748 223.636 171.748 222.531ZM184.748 222.531C184.748 221.427 183.853 220.531 182.748 220.531C181.643 220.531 180.748 221.427 180.748 222.531C180.748 223.636 181.643 224.531 182.748 224.531C183.853 224.531 184.748 223.636 184.748 222.531ZM182.748 246.531C183.853 246.531 184.748 247.427 184.748 248.531C184.748 249.636 183.853 250.531 182.748 250.531C181.643 250.531 180.748 249.636 180.748 248.531C180.748 247.427 181.643 246.531 182.748 246.531ZM197.748 248.531C197.748 247.427 196.853 246.531 195.748 246.531C194.643 246.531 193.748 247.427 193.748 248.531C193.748 249.636 194.643 250.531 195.748 250.531C196.853 250.531 197.748 249.636 197.748 248.531Z" fill="#5055FE"></path>
  <path fill-rule="evenodd" clip-rule="evenodd" d="M322.029 311.808C321.396 312.174 320.615 312.174 319.982 311.808L256.89 275.381C256.256 275.016 255.866 274.34 255.866 273.609V200.756C255.866 200.025 256.256 199.349 256.89 198.983L319.982 162.557C320.615 162.191 321.396 162.191 322.029 162.557L385.122 198.983C385.755 199.349 386.145 200.025 386.145 200.756V273.609C386.145 274.34 385.755 275.016 385.122 275.381L322.029 311.808Z" fill="url(#paint4_linear_456_886)"></path>
  <path fill-rule="evenodd" clip-rule="evenodd" d="M322.023 292.374C321.394 292.734 320.621 292.734 319.991 292.374L273.737 265.914C273.1 265.55 272.707 264.872 272.707 264.138V211.251C272.707 210.517 273.1 209.839 273.737 209.474L319.991 183.014C320.621 182.654 321.394 182.654 322.023 183.014L368.277 209.474C368.915 209.839 369.308 210.517 369.308 211.251V264.138C369.308 264.872 368.915 265.55 368.277 265.914L322.023 292.374Z" fill="white"></path>
  <path d="M355.27 251.488C363.232 232.601 354.376 210.834 335.489 202.872C316.601 194.909 294.835 203.765 286.872 222.652C278.909 241.54 287.765 263.306 306.653 271.269C325.54 279.232 347.307 270.376 355.27 251.488Z" fill="url(#paint5_linear_456_886)"></path>
  <g filter="url(#filter1_f_456_886)">
    <path d="M320.5 266C336.792 266 350 252.792 350 236.5C350 220.208 336.792 207 320.5 207C304.208 207 291 220.208 291 236.5C291 252.792 304.208 266 320.5 266Z" fill="#979797" fill-opacity="0.5"></path>
  </g>
  <path d="M320.5 266C336.792 266 350 252.792 350 236.5C350 220.208 336.792 207 320.5 207C304.208 207 291 220.208 291 236.5C291 252.792 304.208 266 320.5 266Z" fill="white"></path>
  <path fill-rule="evenodd" clip-rule="evenodd" d="M341.01 236.834C341.01 225.788 332.055 216.834 321.01 216.834C309.964 216.834 301.01 225.788 301.01 236.834C301.01 247.88 309.964 256.834 321.01 256.834C332.055 256.834 341.01 247.88 341.01 236.834ZM302.01 236.834C302.01 226.341 310.516 217.834 321.01 217.834C323.622 217.834 326.112 218.361 328.377 219.315L324.089 222.359L323.852 222.534C321.75 224.138 320.51 226.635 320.51 229.29V246.897C319.647 247.119 319.01 247.902 319.01 248.834C319.01 249.939 319.905 250.834 321.01 250.834C322.114 250.834 323.01 249.939 323.01 248.834C323.01 247.902 322.372 247.119 321.51 246.897V229.29L321.515 229.011C321.602 226.686 322.763 224.527 324.668 223.175L329.428 219.796C335.698 222.9 340.01 229.363 340.01 236.834C340.01 243.867 336.189 250.007 330.51 253.292V234.771C331.372 234.549 332.01 233.766 332.01 232.834C332.01 231.729 331.114 230.834 330.01 230.834C328.905 230.834 328.01 231.729 328.01 232.834C328.01 233.766 328.647 234.549 329.51 234.771V253.831C326.952 255.113 324.065 255.834 321.01 255.834C316.834 255.834 312.972 254.487 309.836 252.203L311.141 250.289L311.33 250C312.181 248.635 312.629 247.056 312.618 245.443L312.512 229.77C313.374 229.547 314.01 228.765 314.01 227.834C314.01 226.729 313.114 225.834 312.01 225.834C310.905 225.834 310.01 226.729 310.01 227.834C310.01 228.767 310.648 229.55 311.512 229.772L311.618 245.45L311.614 245.754C311.566 247.172 311.116 248.55 310.315 249.725L309.042 251.592C304.752 248.108 302.01 242.791 302.01 236.834ZM320.01 248.834C320.01 249.386 320.457 249.834 321.01 249.834C321.562 249.834 322.01 249.386 322.01 248.834C322.01 248.282 321.562 247.834 321.01 247.834C320.457 247.834 320.01 248.282 320.01 248.834ZM330.01 233.834C329.457 233.834 329.01 233.386 329.01 232.834C329.01 232.282 329.457 231.834 330.01 231.834C330.562 231.834 331.01 232.282 331.01 232.834C331.01 233.386 330.562 233.834 330.01 233.834ZM311.01 227.834C311.01 228.386 311.457 228.834 312.01 228.834C312.562 228.834 313.01 228.386 313.01 227.834C313.01 227.282 312.562 226.834 312.01 226.834C311.457 226.834 311.01 227.282 311.01 227.834Z" fill="#5055FE"></path>
  <path fill-rule="evenodd" clip-rule="evenodd" d="M253.24 193.842C252.607 194.208 251.826 194.208 251.193 193.842L188.1 157.416C187.467 157.05 187.077 156.374 187.077 155.643V82.7899C187.077 82.0587 187.467 81.383 188.1 81.0174L251.193 44.5908C251.826 44.2252 252.607 44.2252 253.24 44.5908L316.333 81.0174C316.966 81.383 317.356 82.0587 317.356 82.7899V155.643C317.356 156.374 316.966 157.05 316.333 157.416L253.24 193.842Z" fill="url(#paint6_linear_456_886)"></path>
  <path fill-rule="evenodd" clip-rule="evenodd" d="M253.468 173.655C252.835 174.021 252.055 174.021 251.421 173.655L205.167 146.951C204.534 146.585 204.144 145.909 204.144 145.178V91.7688C204.144 91.0375 204.534 90.3619 205.167 89.9963L251.421 63.2915C252.055 62.9259 252.835 62.9259 253.468 63.2915L299.722 89.9963C300.355 90.3619 300.745 91.0375 300.745 91.7688V145.178C300.745 145.909 300.355 146.585 299.722 146.951L253.468 173.655Z" fill="white"></path>
  <path d="M251.5 155C271.658 155 288 138.658 288 118.5C288 98.3416 271.658 82 251.5 82C231.342 82 215 98.3416 215 118.5C215 138.658 231.342 155 251.5 155Z" fill="url(#paint7_linear_456_886)"></path>
  <g filter="url(#filter2_f_456_886)">
    <path d="M251.5 148C267.792 148 281 134.792 281 118.5C281 102.208 267.792 89 251.5 89C235.208 89 222 102.208 222 118.5C222 134.792 235.208 148 251.5 148Z" fill="#979797" fill-opacity="0.5"></path>
  </g>
  <path d="M251.5 148C267.792 148 281 134.792 281 118.5C281 102.208 267.792 89 251.5 89C235.208 89 222 102.208 222 118.5C222 134.792 235.208 148 251.5 148Z" fill="white"></path>
  <path fill-rule="evenodd" clip-rule="evenodd" d="M253.645 110.103C254.015 107.008 256.738 104.765 259.832 105.02C261.07 105.121 262.241 105.621 263.172 106.443L263.57 106.794L263.681 106.935L269.812 118.511L269.769 118.534C270.28 119.626 270.565 120.846 270.565 122.132C270.565 126.826 266.76 130.632 262.065 130.632C258.817 130.632 255.994 128.81 254.564 126.132H247.567C246.136 128.81 243.314 130.632 240.065 130.632C235.371 130.632 231.565 126.826 231.565 122.132C231.565 120.537 232.004 119.045 232.768 117.77L238.508 106.935L238.619 106.794L239.017 106.443C239.947 105.621 241.119 105.121 242.356 105.02C245.451 104.765 248.174 107.008 248.543 110.103L248.565 110.325V111.132H253.565V112.132H248.565V120.632H253.565V121.632H248.565V122.132C248.565 123.188 248.373 124.199 248.021 125.132H254.11C253.758 124.199 253.565 123.188 253.565 122.132C253.565 121.795 253.585 121.463 253.623 121.136V110.325L253.645 110.103ZM254.565 122.132C254.565 126.274 257.923 129.632 262.065 129.632C266.208 129.632 269.565 126.274 269.565 122.132C269.565 117.99 266.208 114.632 262.065 114.632C258.239 114.632 255.083 117.497 254.623 121.198L254.623 122.132L254.565 122.132ZM254.623 118.023L254.621 110.366C254.837 107.749 257.133 105.801 259.75 106.016C260.688 106.093 261.579 106.446 262.313 107.028L262.51 107.192L262.842 107.485L266.893 115.135C265.522 114.187 263.859 113.632 262.065 113.632C258.861 113.632 256.071 115.405 254.623 118.023ZM233.26 118.979L233.259 118.978C232.814 119.937 232.565 121.005 232.565 122.132C232.565 126.274 235.923 129.632 240.065 129.632C244.208 129.632 247.565 126.274 247.565 122.132C247.565 117.99 244.208 114.632 240.065 114.632C237.338 114.632 234.95 116.088 233.638 118.265L233.26 118.979ZM240.065 113.632C243.313 113.632 246.135 115.453 247.566 118.129L247.567 110.366C247.352 107.749 245.056 105.801 242.438 106.016C241.501 106.093 240.61 106.446 239.875 107.028L239.679 107.192L239.348 107.484L235.329 115.073C236.682 114.163 238.312 113.632 240.065 113.632Z" fill="#5055FE"></path>
  <path fill-rule="evenodd" clip-rule="evenodd" d="M390.591 194.122C389.958 194.488 389.178 194.488 388.545 194.122L325.452 157.696C324.819 157.33 324.429 156.655 324.429 155.923V83.0702C324.429 82.339 324.819 81.6633 325.452 81.2977L388.545 44.8711C389.178 44.5055 389.958 44.5055 390.591 44.8711L453.684 81.2977C454.317 81.6633 454.708 82.339 454.708 83.0702V155.923C454.708 156.655 454.317 157.33 453.684 157.696L390.591 194.122Z" fill="url(#paint8_linear_456_886)"></path>
  <path fill-rule="evenodd" clip-rule="evenodd" d="M390.593 173.655C389.96 174.021 389.18 174.021 388.546 173.655L342.292 146.951C341.659 146.585 341.269 145.909 341.269 145.178V91.7688C341.269 91.0375 341.659 90.3619 342.292 89.9963L388.546 63.2915C389.18 62.9259 389.96 62.9259 390.593 63.2915L436.847 89.9963C437.48 90.3619 437.87 91.0375 437.87 91.7688V145.178C437.87 145.909 437.48 146.585 436.847 146.951L390.593 173.655Z" fill="white"></path>
  <path d="M390 155C410.435 155 427 138.435 427 118C427 97.5655 410.435 81 390 81C369.565 81 353 97.5655 353 118C353 138.435 369.565 155 390 155Z" fill="url(#paint9_linear_456_886)"></path>
  <g filter="url(#filter3_f_456_886)">
    <path d="M389.5 147C405.792 147 419 133.792 419 117.5C419 101.208 405.792 88 389.5 88C373.208 88 360 101.208 360 117.5C360 133.792 373.208 147 389.5 147Z" fill="#979797" fill-opacity="0.5"></path>
  </g>
  <path d="M389.5 147C405.792 147 419 133.792 419 117.5C419 101.208 405.792 88 389.5 88C373.208 88 360 101.208 360 117.5C360 133.792 373.208 147 389.5 147Z" fill="white"></path>
  <path fill-rule="evenodd" clip-rule="evenodd" d="M389.747 98C398.132 98 404.929 104.797 404.929 113.182C404.929 118.721 401.937 123.732 397.216 126.403L397.156 126.435V133.909C397.156 135.557 395.866 136.904 394.241 136.995L394.065 137H385.429C383.781 137 382.434 135.71 382.343 134.084L382.338 133.909V126.436C377.584 123.774 374.565 118.745 374.565 113.182C374.565 104.797 381.363 98 389.747 98ZM383.03 125.675L382.789 125.542C378.369 123.05 375.565 118.364 375.565 113.182C375.565 105.349 381.915 99 389.747 99C397.58 99 403.929 105.349 403.929 113.182C403.929 118.454 401.027 123.214 396.471 125.671C396.287 125.745 396.156 125.925 396.156 126.136V128.659H390.247V121.762L390.239 121.672C390.197 121.439 389.993 121.262 389.747 121.262C389.471 121.262 389.247 121.486 389.247 121.762V128.659H383.338V126.136L383.33 126.046C383.299 125.878 383.184 125.739 383.03 125.675ZM383.338 129.659H396.156V133.909L396.151 134.058C396.074 135.143 395.17 136 394.065 136H385.429L385.279 135.995C384.194 135.918 383.338 135.014 383.338 133.909V129.659ZM389.394 117.854C389.567 118.027 389.837 118.046 390.032 117.911L390.101 117.854L395.283 112.672C395.478 112.476 395.478 112.16 395.283 111.965C395.109 111.791 394.84 111.772 394.645 111.907L394.576 111.965L389.747 116.793L384.919 111.965C384.745 111.791 384.476 111.772 384.281 111.907L384.212 111.965C384.038 112.138 384.019 112.408 384.154 112.602L384.212 112.672L389.394 117.854Z" fill="#5055FE"></path>
  <defs>
    <filter id="filter0_f_456_886" x="143" y="196" width="79" height="79" color-interpolation-filters="sRGB">
      <feFlood flood-opacity="0" result="BackgroundImageFix"></feFlood>
      <feBlend mode="normal" in="SourceGraphic" in2="BackgroundImageFix" result="shape"></feBlend>
      <feGaussianBlur stdDeviation="5" result="effect1_foregroundBlur_456_886"></feGaussianBlur>
    </filter>
    <filter id="filter1_f_456_886" x="281" y="197" width="79" height="79" color-interpolation-filters="sRGB">
      <feFlood flood-opacity="0" result="BackgroundImageFix"></feFlood>
      <feBlend mode="normal" in="SourceGraphic" in2="BackgroundImageFix" result="shape"></feBlend>
      <feGaussianBlur stdDeviation="5" result="effect1_foregroundBlur_456_886"></feGaussianBlur>
    </filter>
    <filter id="filter2_f_456_886" x="212" y="79" width="79" height="79" color-interpolation-filters="sRGB">
      <feFlood flood-opacity="0" result="BackgroundImageFix"></feFlood>
      <feBlend mode="normal" in="SourceGraphic" in2="BackgroundImageFix" result="shape"></feBlend>
      <feGaussianBlur stdDeviation="5" result="effect1_foregroundBlur_456_886"></feGaussianBlur>
    </filter>
    <filter id="filter3_f_456_886" x="350" y="78" width="79" height="79" color-interpolation-filters="sRGB">
      <feFlood flood-opacity="0" result="BackgroundImageFix"></feFlood>
      <feBlend mode="normal" in="SourceGraphic" in2="BackgroundImageFix" result="shape"></feBlend>
      <feGaussianBlur stdDeviation="5" result="effect1_foregroundBlur_456_886"></feGaussianBlur>
    </filter>
    <linearGradient id="paint0_linear_456_886" x1="0.49991" y1="127" x2="175.558" y2="206.584" gradientUnits="userSpaceOnUse">
      <stop stop-color="#1E85E9"></stop>
      <stop offset="0.202755" stop-color="#8671F3"></stop>
      <stop offset="0.654006" stop-color="#CFA9FC"></stop>
      <stop offset="1" stop-color="#F4D9FB" stop-opacity="0"></stop>
    </linearGradient>
    <linearGradient id="paint1_linear_456_886" x1="527.596" y1="320.187" x2="316.921" y2="224.971" gradientUnits="userSpaceOnUse">
      <stop stop-color="#1E85E9"></stop>
      <stop offset="0.202755" stop-color="#8671F3"></stop>
      <stop offset="0.654006" stop-color="#CFA9FC"></stop>
      <stop offset="1" stop-color="#F4D9FB" stop-opacity="0"></stop>
    </linearGradient>
    <linearGradient id="paint2_linear_456_886" x1="352.002" y1="244.174" x2="189.39" y2="80.6595" gradientUnits="userSpaceOnUse">
      <stop stop-color="#1E85E9"></stop>
      <stop offset="0.202755" stop-color="#8671F3"></stop>
      <stop offset="0.707269" stop-color="#CFA9FC"></stop>
      <stop offset="1" stop-color="#F4D9FB"></stop>
    </linearGradient>
    <linearGradient id="paint3_linear_456_886" x1="152.343" y1="213.145" x2="216.415" y2="258.621" gradientUnits="userSpaceOnUse">
      <stop stop-color="#F2F2F2"></stop>
      <stop offset="1" stop-color="#F2F2F2" stop-opacity="0"></stop>
    </linearGradient>
    <linearGradient id="paint4_linear_456_886" x1="490.159" y1="244.174" x2="327.546" y2="80.6595" gradientUnits="userSpaceOnUse">
      <stop stop-color="#1E85E9"></stop>
      <stop offset="0.202755" stop-color="#8671F3"></stop>
      <stop offset="0.707269" stop-color="#CFA9FC"></stop>
      <stop offset="1" stop-color="#F4D9FB"></stop>
    </linearGradient>
    <linearGradient id="paint5_linear_456_886" x1="288" y1="256.5" x2="355" y2="215" gradientUnits="userSpaceOnUse">
      <stop stop-color="#F2F2F2"></stop>
      <stop offset="1" stop-color="#F2F2F2" stop-opacity="0"></stop>
    </linearGradient>
    <linearGradient id="paint6_linear_456_886" x1="421.37" y1="126.208" x2="258.757" y2="-37.3063" gradientUnits="userSpaceOnUse">
      <stop stop-color="#1E85E9"></stop>
      <stop offset="0.202755" stop-color="#8671F3"></stop>
      <stop offset="0.707269" stop-color="#CFA9FC"></stop>
      <stop offset="1" stop-color="#F4D9FB"></stop>
    </linearGradient>
    <linearGradient id="paint7_linear_456_886" x1="221.258" y1="95.9538" x2="284.463" y2="140.815" gradientUnits="userSpaceOnUse">
      <stop stop-color="#F2F2F2"></stop>
      <stop offset="1" stop-color="#F2F2F2" stop-opacity="0"></stop>
    </linearGradient>
    <linearGradient id="paint8_linear_456_886" x1="558.721" y1="126.488" x2="396.109" y2="-37.026" gradientUnits="userSpaceOnUse">
      <stop stop-color="#1E85E9"></stop>
      <stop offset="0.202755" stop-color="#8671F3"></stop>
      <stop offset="0.707269" stop-color="#CFA9FC"></stop>
      <stop offset="1" stop-color="#F4D9FB"></stop>
    </linearGradient>
    <linearGradient id="paint9_linear_456_886" x1="359.343" y1="95.145" x2="423.415" y2="140.621" gradientUnits="userSpaceOnUse">
      <stop stop-color="#F2F2F2"></stop>
      <stop offset="1" stop-color="#F2F2F2" stop-opacity="0"></stop>
    </linearGradient>
  </defs>
</svg>
