<?xml version="1.0" encoding="UTF-8"?>
<svg xmlns="http://www.w3.org/2000/svg" width="570" height="600" viewBox="0 0 570 600" fill="none">
  <rect width="570" height="600" fill="white"></rect>
  <path opacity="0.498837" d="M209.915 124.456C94.8111 184.954 21.9407 266.78 44.1595 314.428C68.1718 365.923 194.152 357.999 325.543 296.73C456.935 235.461 543.983 144.048 519.971 92.5539C505.721 61.9941 455.558 52.3608 389.665 62.3848" stroke="url(#paint0_linear_424_6467)" stroke-width="0.5"></path>
  <path opacity="0.498837" d="M173.436 378.608C80.336 436.753 26.0159 508.52 47.0847 553.702C72.6914 608.616 199.964 603.464 331.356 542.195C462.747 480.926 548.503 386.741 522.896 331.827C508.392 300.722 461.268 288.889 399.253 295.61" stroke="url(#paint1_linear_424_6467)" stroke-width="0.5"></path>
  <path fill-rule="evenodd" clip-rule="evenodd" d="M302.23 198.419C301.612 198.777 300.849 198.777 300.23 198.419L238.578 162.824C237.959 162.467 237.578 161.807 237.578 161.092V89.9015C237.578 89.187 237.959 88.5267 238.578 88.1695L300.23 52.5742C300.849 52.2169 301.612 52.2169 302.23 52.5742L363.883 88.1695C364.502 88.5267 364.883 89.187 364.883 89.9015V161.092C364.883 161.807 364.502 162.467 363.883 162.824L302.23 198.419Z" fill="url(#paint2_linear_424_6467)"></path>
  <path d="M163.73 196.728C164.353 197.086 165.119 197.086 165.741 196.728L227.725 161.063C228.347 160.705 228.73 160.043 228.73 159.328V87.9968" stroke="#E3E0E0" stroke-linecap="round" stroke-dasharray="2"></path>
  <path fill-rule="evenodd" clip-rule="evenodd" d="M302.5 179.423C301.881 179.78 301.119 179.78 300.5 179.423L255.302 153.327C254.683 152.97 254.302 152.31 254.302 151.595V99.4047C254.302 98.6902 254.683 98.0299 255.302 97.6726L300.5 71.5774C301.119 71.2201 301.881 71.2201 302.5 71.5774L347.698 97.6726C348.317 98.0299 348.698 98.6902 348.698 99.4047V151.595C348.698 152.31 348.317 152.97 347.698 153.327L302.5 179.423Z" fill="white"></path>
  <path fill-rule="evenodd" clip-rule="evenodd" d="M310.861 134.198C310.689 134.078 310.45 134.095 310.296 134.249C310.123 134.422 310.123 134.703 310.296 134.876L324.658 149.239L313.697 149.815C313.48 149.826 313.307 149.993 313.281 150.201L313.278 150.281C313.289 150.498 313.455 150.671 313.664 150.697L313.744 150.7L325.655 150.073C325.731 150.069 325.803 150.046 325.864 150.008C325.904 149.988 325.941 149.961 325.974 149.928C326.095 149.807 326.132 149.633 326.083 149.48L326.701 137.743C326.714 137.499 326.526 137.29 326.282 137.277C326.064 137.266 325.875 137.413 325.827 137.617L325.816 137.696L325.244 148.57L310.923 134.249L310.861 134.198Z" fill="#5055FE"></path>
  <path fill-rule="evenodd" clip-rule="evenodd" d="M292.336 115.673C292.456 115.845 292.439 116.084 292.285 116.238C292.112 116.411 291.831 116.411 291.658 116.238L277.295 101.875L276.718 112.836C276.707 113.053 276.541 113.226 276.332 113.252L276.252 113.255C276.035 113.244 275.862 113.078 275.836 112.869L275.833 112.789L276.46 100.878C276.464 100.795 276.491 100.718 276.535 100.653C276.554 100.62 276.578 100.588 276.607 100.56C276.727 100.44 276.899 100.403 277.051 100.45L288.79 99.8318C289.035 99.819 289.243 100.007 289.256 100.251C289.268 100.469 289.121 100.657 288.916 100.706L288.837 100.717L277.963 101.289L292.285 115.611L292.336 115.673Z" fill="#5055FE"></path>
  <path fill-rule="evenodd" clip-rule="evenodd" d="M291.673 134.198C291.846 134.078 292.084 134.095 292.238 134.249C292.411 134.422 292.411 134.703 292.238 134.876L277.876 149.239L288.837 149.815C289.054 149.826 289.227 149.993 289.254 150.201L289.257 150.281C289.245 150.498 289.079 150.671 288.871 150.697L288.791 150.7L276.879 150.073C276.803 150.069 276.732 150.046 276.67 150.008C276.631 149.988 276.593 149.961 276.56 149.928C276.439 149.807 276.403 149.633 276.451 149.48L275.833 137.743C275.82 137.499 276.008 137.29 276.253 137.277C276.47 137.266 276.659 137.413 276.707 137.617L276.719 137.696L277.29 148.57L291.611 134.249L291.673 134.198Z" fill="#5055FE"></path>
  <path fill-rule="evenodd" clip-rule="evenodd" d="M310.198 115.673C310.078 115.845 310.095 116.084 310.249 116.238C310.422 116.411 310.703 116.411 310.876 116.238L325.239 101.875L325.816 112.836C325.827 113.053 325.993 113.226 326.202 113.252L326.282 113.255C326.499 113.244 326.672 113.078 326.698 112.869L326.701 112.789L326.074 100.878C326.07 100.795 326.043 100.718 325.999 100.653C325.98 100.62 325.956 100.588 325.928 100.56C325.807 100.44 325.635 100.403 325.483 100.45L313.744 99.8318C313.499 99.819 313.291 100.007 313.278 100.251C313.266 100.469 313.414 100.657 313.618 100.706L313.697 100.717L324.571 101.289L310.249 115.611L310.198 115.673Z" fill="#5055FE"></path>
  <circle cx="301.501" cy="125.5" r="19.5" fill="white" stroke="#5055FE"></circle>
  <path fill-rule="evenodd" clip-rule="evenodd" d="M301.61 112.588C305.072 112.588 307.879 115.397 307.879 118.862C307.879 120.703 307.085 123.039 305.822 124.822C305.421 125.389 304.972 125.897 304.486 126.318C304.127 126.63 303.749 126.892 303.355 127.093C302.8 127.374 302.215 127.537 301.609 127.537C301.004 127.537 300.42 127.375 299.866 127.094C299.471 126.893 299.091 126.63 298.733 126.318C298.247 125.896 297.798 125.388 297.397 124.822C296.134 123.039 295.341 120.704 295.341 118.862C295.341 115.397 298.147 112.588 301.61 112.588ZM307.681 126.679L306.173 126.554C306.142 127.926 304.112 129.033 301.609 129.033C299.107 129.033 297.076 127.926 297.046 126.554C296.767 126.58 296.493 126.602 296.224 126.623C292.797 126.895 290.22 127.1 290.22 134.047C290.22 137.659 292.764 137.96 296.157 137.977L297.332 137.976L305.482 137.975L306.682 137.978C310.264 137.978 313 137.794 313 134.047C313 127.572 310.76 126.953 307.681 126.679ZM306.727 127.451L306.764 127.362L307.273 127.404C309.301 127.575 310.11 127.786 310.804 128.418C311.744 129.275 312.244 130.993 312.244 134.047C312.244 136.684 311.06 137.222 306.681 137.222L296.064 137.219C292.074 137.179 290.976 136.586 290.976 134.047C290.976 130.993 291.475 129.276 292.414 128.419C293.135 127.762 293.979 127.56 296.182 127.385L296.454 127.362L296.491 127.45C297.131 128.867 299.217 129.789 301.609 129.789C304.001 129.789 306.087 128.867 306.727 127.451ZM296.097 118.862C296.097 115.815 298.565 113.344 301.609 113.344C304.655 113.344 307.123 115.814 307.122 118.862C307.122 120.554 306.372 122.737 305.204 124.386C304.83 124.914 304.421 125.374 303.99 125.747C303.669 126.026 303.342 126.251 303.012 126.418C302.539 126.659 302.071 126.781 301.609 126.781C301.147 126.781 300.68 126.659 300.209 126.42C299.877 126.251 299.549 126.026 299.228 125.747C298.798 125.373 298.388 124.913 298.014 124.385C296.847 122.737 296.097 120.554 296.097 118.862Z" fill="#5055FE"></path>
  <path fill-rule="evenodd" clip-rule="evenodd" d="M234.23 313.419C233.612 313.777 232.849 313.777 232.23 313.419L170.578 277.824C169.959 277.467 169.578 276.807 169.578 276.092V204.902C169.578 204.187 169.959 203.527 170.578 203.169L232.23 167.574C232.849 167.217 233.612 167.217 234.23 167.574L295.883 203.169C296.502 203.527 296.883 204.187 296.883 204.902V276.092C296.883 276.807 296.502 277.467 295.883 277.824L234.23 313.419Z" fill="url(#paint3_linear_424_6467)"></path>
  <path fill-rule="evenodd" clip-rule="evenodd" d="M234.23 294.419C233.612 294.777 232.849 294.777 232.23 294.419L187.032 268.324C186.413 267.967 186.032 267.307 186.032 266.592V214.402C186.032 213.687 186.413 213.027 187.032 212.669L232.23 186.574C232.849 186.217 233.612 186.217 234.23 186.574L279.429 212.669C280.048 213.027 280.429 213.687 280.429 214.402V266.592C280.429 267.307 280.048 267.967 279.429 268.324L234.23 294.419Z" fill="white"></path>
  <path fill-rule="evenodd" clip-rule="evenodd" d="M301.23 429.42C300.612 429.777 299.849 429.777 299.23 429.42L237.578 393.824C236.959 393.467 236.578 392.807 236.578 392.092V320.902C236.578 320.187 236.959 319.527 237.578 319.17L299.23 283.574C299.849 283.217 300.612 283.217 301.23 283.574L362.883 319.17C363.502 319.527 363.883 320.187 363.883 320.902V392.092C363.883 392.807 363.502 393.467 362.883 393.824L301.23 429.42Z" fill="url(#paint4_linear_424_6467)"></path>
  <path d="M165.741 284.997L227.725 320.565C228.347 320.922 228.73 321.582 228.73 322.295V393.431C228.73 394.145 228.347 394.805 227.725 395.162L165.741 430.729C165.119 431.086 164.353 431.086 163.73 430.729" stroke="#E3E0E0" stroke-linecap="round" stroke-dasharray="2"></path>
  <path d="M369.719 399.997L307.735 435.565C307.113 435.922 306.729 436.581 306.729 437.295V508.431C306.729 509.145 307.113 509.805 307.735 510.161" stroke="#E3E0E0" stroke-linecap="round" stroke-dasharray="2"></path>
  <path d="M369.72 167.997L307.736 203.565C307.114 203.922 306.73 204.581 306.73 205.295V276.431C306.73 277.145 307.114 277.804 307.736 278.161L369.72 313.729C370.342 314.086 371.108 314.086 371.73 313.729" stroke="#E3E0E0" stroke-linecap="round" stroke-dasharray="2"></path>
  <path fill-rule="evenodd" clip-rule="evenodd" d="M301.23 410.42C300.612 410.777 299.849 410.777 299.23 410.42L254.032 384.324C253.413 383.967 253.032 383.307 253.032 382.592V330.402C253.032 329.687 253.413 329.027 254.032 328.67L299.23 302.574C299.849 302.217 300.612 302.217 301.23 302.574L346.429 328.67C347.048 329.027 347.429 329.687 347.429 330.402V382.592C347.429 383.307 347.048 383.967 346.429 384.324L301.23 410.42Z" fill="white"></path>
  <path d="M317.762 352.952H314.619V344.571C314.619 342.256 312.744 340.381 310.429 340.381H302.048V337.238C302.048 334.347 299.701 332 296.809 332C293.918 332 291.571 334.347 291.571 337.238V340.381H283.191C280.875 340.381 279.021 342.256 279.021 344.571L279.011 352.533H282.143C285.265 352.533 287.8 355.069 287.8 358.191C287.8 361.312 285.265 363.848 282.143 363.848H279.011L279 371.809C279 374.125 280.875 376 283.191 376H291.152V372.857C291.152 369.735 293.688 367.2 296.81 367.2C299.932 367.2 302.467 369.735 302.467 372.857V376H310.429C312.744 376 314.619 374.125 314.619 371.809V363.429H317.762C320.653 363.429 323 361.082 323 358.191C323 355.299 320.653 352.952 317.762 352.952Z" stroke="#5055FE" stroke-width="1.2"></path>
  <path fill-rule="evenodd" clip-rule="evenodd" d="M234.23 546.42C233.612 546.777 232.849 546.777 232.23 546.42L170.578 510.824C169.959 510.467 169.578 509.807 169.578 509.092V437.902C169.578 437.187 169.959 436.527 170.578 436.17L232.23 400.574C232.849 400.217 233.612 400.217 234.23 400.574L295.883 436.17C296.502 436.527 296.883 437.187 296.883 437.902V509.092C296.883 509.807 296.502 510.467 295.883 510.824L234.23 546.42Z" fill="url(#paint5_linear_424_6467)"></path>
  <path fill-rule="evenodd" clip-rule="evenodd" d="M234.5 527.423C233.881 527.78 233.119 527.78 232.5 527.423L187.302 501.327C186.683 500.97 186.302 500.31 186.302 499.595V447.405C186.302 446.69 186.683 446.03 187.302 445.673L232.5 419.577C233.119 419.22 233.881 419.22 234.5 419.577L279.698 445.673C280.317 446.03 280.698 446.69 280.698 447.405V499.595C280.698 500.31 280.317 500.97 279.698 501.327L234.5 527.423Z" fill="white"></path>
  <path fill-rule="evenodd" clip-rule="evenodd" d="M229.587 465C228.324 465.014 227.124 465.519 226.27 466.394C225.376 467.283 224.92 468.485 225.012 469.706C225.307 473.771 231.83 479.576 233.5 481C235.169 479.577 241.69 473.771 241.988 469.706C242.08 468.485 241.624 467.284 240.73 466.394C239.876 465.519 238.675 465.014 237.412 465C236.055 465.017 234.783 465.621 233.963 466.637C233.851 466.77 233.68 466.848 233.499 466.848C233.318 466.848 233.147 466.77 233.035 466.637C232.215 465.621 230.943 465.017 229.587 465Z" stroke="#5055FE"></path>
  <path fill-rule="evenodd" clip-rule="evenodd" d="M233.06 447C243.821 447 253.135 454.416 255.903 464.875L255.97 465.138H256.944C258.632 465.138 260 466.504 260 468.188V481.404C260 483.088 258.632 484.453 256.944 484.453H252.868C252.543 484.453 252.231 484.403 251.937 484.309L252.03 484.376C248.348 489.479 242.758 492.92 236.484 493.854C236.135 495.454 234.708 496.652 233 496.652C231.03 496.652 229.434 495.059 229.434 493.094C229.434 491.129 231.03 489.536 233 489.536C234.875 489.536 236.412 490.98 236.555 492.814C242.416 491.882 247.636 488.658 251.115 483.902C250.327 483.351 249.812 482.437 249.812 481.404V468.188C249.812 466.504 251.18 465.138 252.868 465.138H254.906C252.255 455.141 243.349 448.053 233.06 448.053C222.758 448.053 213.859 455.157 211.214 465.138H213.132C214.82 465.138 216.189 466.504 216.189 468.188V481.404C216.189 483.088 214.82 484.453 213.132 484.453H209.057C207.368 484.453 206 483.088 206 481.404V468.188C206 466.504 207.368 465.138 209.057 465.138H210.149C212.823 454.557 222.195 447 233.06 447ZM213.133 466.155H209.057C207.983 466.155 207.103 466.984 207.025 468.036L207.02 468.188V481.404C207.02 482.475 207.851 483.354 208.905 483.431L209.057 483.437H213.133C214.207 483.437 215.087 482.607 215.165 481.555L215.17 481.404V468.188C215.17 467.116 214.339 466.238 213.285 466.16L213.133 466.155ZM256.944 466.155H252.869C251.795 466.155 250.914 466.984 250.837 468.036L250.831 468.188V481.404C250.831 482.475 251.662 483.354 252.717 483.431L252.869 483.437H256.944C258.019 483.437 258.899 482.607 258.976 481.555L258.982 481.404V468.188C258.982 467.116 258.151 466.238 257.096 466.16L256.944 466.155ZM230.453 493.094C230.453 491.691 231.593 490.553 233 490.553C234.407 490.553 235.547 491.691 235.547 493.094C235.547 494.498 234.407 495.636 233 495.636C231.593 495.636 230.453 494.498 230.453 493.094Z" fill="#5055FE"></path>
  <circle cx="228.179" cy="243.963" r="22.1786" stroke="#5055FE"></circle>
  <circle cx="228.179" cy="243.963" r="15.4286" stroke="#5055FE"></circle>
  <circle cx="228.179" cy="243.963" r="8.67857" stroke="#5055FE"></circle>
  <path d="M228.178 243.963L251.836 222.626" stroke="#5055FE" stroke-linecap="round"></path>
  <path fill-rule="evenodd" clip-rule="evenodd" d="M246.465 227.073V218.821L251.837 215V222.626L246.465 227.073Z" stroke="#5055FE" stroke-linecap="round" stroke-linejoin="round"></path>
  <path d="M246.465 227.073H255.126L259.365 222.788L251.649 222.788" stroke="#5055FE" stroke-linecap="round" stroke-linejoin="round"></path>
  <circle opacity="0.102562" cx="391" cy="62" r="6" fill="#5055FE"></circle>
  <circle cx="391" cy="61.9999" r="2.57143" fill="#5055FE"></circle>
  <circle opacity="0.102562" cx="66.7305" cy="336.997" r="6" fill="#5055FE"></circle>
  <circle cx="66.7306" cy="336.997" r="2.57143" fill="#5055FE"></circle>
  <circle opacity="0.102562" cx="172.73" cy="378.997" r="6" fill="#5055FE"></circle>
  <circle cx="172.731" cy="378.997" r="2.57143" fill="#5055FE"></circle>
  <circle opacity="0.102562" cx="516.73" cy="390.334" r="6" fill="#5055FE"></circle>
  <circle cx="516.731" cy="390.334" r="2.57143" fill="#5055FE"></circle>
  <defs>
    <linearGradient id="paint0_linear_424_6467" x1="357.529" y1="423.059" x2="331.75" y2="9.03246" gradientUnits="userSpaceOnUse">
      <stop stop-color="#1E85E9"></stop>
      <stop offset="0.202755" stop-color="#8671F3"></stop>
      <stop offset="0.707269" stop-color="#CFA9FC"></stop>
      <stop offset="1" stop-color="#F4D9FB"></stop>
    </linearGradient>
    <linearGradient id="paint1_linear_424_6467" x1="365.981" y1="674.183" x2="346.237" y2="242.446" gradientUnits="userSpaceOnUse">
      <stop stop-color="#1E85E9"></stop>
      <stop offset="0.202755" stop-color="#8671F3"></stop>
      <stop offset="0.707269" stop-color="#CFA9FC"></stop>
      <stop offset="1" stop-color="#F4D9FB"></stop>
    </linearGradient>
    <linearGradient id="paint2_linear_424_6467" x1="466.523" y1="132.329" x2="307.622" y2="-27.4539" gradientUnits="userSpaceOnUse">
      <stop stop-color="#1E85E9"></stop>
      <stop offset="0.202755" stop-color="#8671F3"></stop>
      <stop offset="0.707269" stop-color="#CFA9FC"></stop>
      <stop offset="1" stop-color="#F4D9FB"></stop>
    </linearGradient>
    <linearGradient id="paint3_linear_424_6467" x1="398.523" y1="247.329" x2="239.622" y2="87.5461" gradientUnits="userSpaceOnUse">
      <stop stop-color="#1E85E9"></stop>
      <stop offset="0.202755" stop-color="#8671F3"></stop>
      <stop offset="0.707269" stop-color="#CFA9FC"></stop>
      <stop offset="1" stop-color="#F4D9FB"></stop>
    </linearGradient>
    <linearGradient id="paint4_linear_424_6467" x1="465.523" y1="363.329" x2="306.622" y2="203.546" gradientUnits="userSpaceOnUse">
      <stop stop-color="#1E85E9"></stop>
      <stop offset="0.202755" stop-color="#8671F3"></stop>
      <stop offset="0.707269" stop-color="#CFA9FC"></stop>
      <stop offset="1" stop-color="#F4D9FB"></stop>
    </linearGradient>
    <linearGradient id="paint5_linear_424_6467" x1="398.523" y1="480.329" x2="239.622" y2="320.546" gradientUnits="userSpaceOnUse">
      <stop stop-color="#1E85E9"></stop>
      <stop offset="0.202755" stop-color="#8671F3"></stop>
      <stop offset="0.707269" stop-color="#CFA9FC"></stop>
      <stop offset="1" stop-color="#F4D9FB"></stop>
    </linearGradient>
  </defs>
</svg>
