<svg xmlns="http://www.w3.org/2000/svg" xmlns:xlink="http://www.w3.org/1999/xlink" width="160" height="50" viewBox="0 0 160 50">
  <defs>
    <rect id="acumatica-a" width="160" height="50" x="0" y="0"/>
  </defs>
  <g fill="none" fill-rule="evenodd">
    <mask id="acumatica-b" fill="#fff">
      <use xlink:href="#acumatica-a"/>
    </mask>
    <use fill="#D8D8D8" fill-opacity="0" xlink:href="#acumatica-a"/>
    <g fill="#000" fill-rule="nonzero" mask="url(#acumatica-b)">
      <path d="M34.8 2.2L41.4 2.2 46 21.7 42.7 21.7 41.6 17.9 34.5 17.9 33.5 21.7 30.2 21.7 34.8 2.2M35.1 14.7L40.9 14.7 38.7 5.3 37.4 5.3 35.1 14.7zM57.4 7.9L57.3 10.7C57.3 10.7 55.1 10.4 54 10.4 51.1 10.4 50.5 11.5 50.5 14.5 50.5 17.9 51.1 19 54.1 19 55.2 19 57.4 18.7 57.4 18.7L57.5 21.5C57.5 21.5 54.6 22 53.1 22 48.8 22 47.2 19.8 47.2 14.5 47.2 9.5 48.9 7.3 53.2 7.3 54.7 7.3 57.4 7.9 57.4 7.9M71.5 7.7L71.5 21.7 68.3 21.7 68.3 21C68.3 21 66.1 22 64.6 22 60.5 22 59.7 19.9 59.7 15L59.7 7.7 62.9 7.7 62.9 15C62.9 18 63.1 19.1 65.2 19.1 66.4 19.1 68.3 18.5 68.3 18.5L68.3 7.7 71.5 7.7M74 21.7L74 7.7 77.2 7.7 77.2 8.5C77.2 8.5 78.4 7.9 79.7 7.6 80.2 7.5 80.7 7.4 81.2 7.4 82.6 7.5 83.7 7.8 84.4 8.6 85.6 8.1 87.7 7.4 89.3 7.4 93.2 7.4 94.2 9.5 94.2 14.4L94.2 21.7 91 21.7 91 15.6C91 11.8 90.9 10.3 88.7 10.3 87.3 10.3 85.6 11 85.6 11 85.7 11.2 85.8 13.1 85.8 14.4L85.8 21.7 82.6 21.7 82.6 14.5C82.6 11.5 82.3 10.4 80.3 10.4 79.1 10.4 77.3 11 77.3 11L77.3 21.7 74 21.7M107.6 17.8C107.6 18.8 107.9 19.1 108.8 19.2L108.7 21.9C106.5 21.9 105.7 21.6 104.9 20.9 104.9 20.9 102.5 21.9 100.3 21.9 97.6 21.9 96.2 20.2 96.2 17.4 96.2 14.4 97.9 13.4 100.9 13.1L104.4 12.8 104.4 12C104.4 10.9 103.7 10.3 102.6 10.3 100.5 10.3 97.1 10.6 97.1 10.6L97 7.9C97 7.9 100.7 7.3 102.8 7.3 105.9 7.3 107.6 8.6 107.6 12L107.6 17.8M101.3 15.6C100.1 15.7 99.4 16.2 99.4 17.4 99.4 18.6 99.9 19.2 100.8 19.2 102.3 19.2 104.3 18.6 104.3 18.6L104.3 15.4 101.3 15.6zM114.5 10.5L114.5 16.2C114.5 18.1 114.6 18.9 116 18.9 116.8 18.9 118.3 18.8 118.3 18.8L118.4 21.6C118.4 21.6 116.5 22 115.5 22 112.2 22 111.2 20.8 111.2 16.7L111.2 10.5 109.4 10.5 109.4 7.7 111.2 7.7 111.2 3.6 114.4 3.6 114.4 7.7 118.2 7.7 118.2 10.6 114.5 10.6M120.5 2L123.7 2 123.7 5.4 120.5 5.4 120.5 2zM120.5 7.7L123.7 7.7 123.7 21.7 120.5 21.7 120.5 7.7zM136.1 7.9L136 10.7C136 10.7 133.8 10.4 132.7 10.4 129.8 10.4 129.2 11.5 129.2 14.5 129.2 17.9 129.8 19 132.8 19 133.9 19 136.1 18.7 136.1 18.7L136.2 21.5C136.2 21.5 133.3 22 131.8 22 127.5 22 125.9 19.8 125.9 14.5 125.9 9.5 127.6 7.3 131.9 7.3 133.3 7.3 136.1 7.9 136.1 7.9M148.8 17.8C148.8 18.8 149.1 19.1 150 19.2L149.9 21.9C147.7 21.9 146.9 21.6 146.1 20.9 146.1 20.9 143.7 21.9 141.5 21.9 138.8 21.9 137.4 20.2 137.4 17.4 137.4 14.4 139.1 13.4 142.1 13.1L145.6 12.8 145.6 12C145.6 10.9 144.9 10.3 143.8 10.3 141.7 10.3 138.3 10.6 138.3 10.6L138.2 7.9C138.2 7.9 141.9 7.3 144 7.3 147.1 7.3 148.8 8.6 148.8 12L148.8 17.8M142.5 15.6C141.3 15.7 140.6 16.2 140.6 17.4 140.6 18.6 141.1 19.2 142 19.2 143.5 19.2 145.5 18.6 145.5 18.6L145.5 15.4 142.5 15.6zM11-4.61852778e-14C4.9-4.61852778e-14 0 4.8 0 10.8 0 16.8 4.9 21.6 11 21.6L22 21.6 22 10.8C21.9 4.8 17-4.61852778e-14 11-4.61852778e-14M15.3 15.1L11 15.1C8.6 15.1 6.7 13.2 6.7 10.8 6.7 8.4 8.6 6.5 11 6.5 13.4 6.5 15.3 8.4 15.3 10.8L15.3 15.1z" transform="translate(5 12)"/>
    </g>
  </g>
</svg>
