<?xml version="1.0" encoding="UTF-8"?>
<svg width="230px" height="50px" viewBox="0 0 230 50" version="1.1" xmlns="http://www.w3.org/2000/svg" xmlns:xlink="http://www.w3.org/1999/xlink">
    <title>freshsales</title>
    <defs>
        <rect id="path-1" x="0" y="0" width="230" height="50"></rect>
    </defs>
    <g id="Page-1" stroke="none" stroke-width="1" fill="none" fill-rule="evenodd">
        <g id="a1qa-Software-crm-testing-v4" transform="translate(-1245.000000, -3021.000000)">
            <g id="Group-36" transform="translate(374.000000, 2714.000000)">
                <g id="Group-29-Copy" transform="translate(0.000000, 282.000000)">
                    <g id="Card-2" transform="translate(801.000000, 0.000000)">
                        <g id="freshsales" transform="translate(70.000000, 25.000000)">
                            <mask id="mask-2" fill="white">
                                <use xlink:href="#path-1"></use>
                            </mask>
                            <use id="Mask" fill-opacity="0" fill="#D8D8D8" xlink:href="#path-1"></use>
                            <path d="M75.769,9.972 C71.476,9.972 69.937,12.969 69.937,15.804 L69.937,17.532 L69.073,17.532 C68.398,17.532 67.858,18.045 67.858,18.747 C67.858,19.449 68.371,19.962 69.073,19.962 L69.937,19.962 L69.937,31.815 C69.937,32.49 70.45,33.111 71.233,33.111 C72.016,33.111 72.529,32.598 72.529,31.815 L72.529,19.881 L75.283,19.881 C75.958,19.881 76.498,19.368 76.498,18.666 C76.498,17.991 75.985,17.451 75.283,17.451 L72.529,17.451 L72.529,15.723 C72.529,14.184 73.123,12.294 75.877,12.294 C76.552,12.294 77.092,11.781 77.092,11.187 C76.984,10.485 76.444,9.972 75.769,9.972 C75.85,9.972 75.769,9.972 75.769,9.972" id="Path" fill="#000000" fill-rule="nonzero" mask="url(#mask-2)"></path>
                            <path d="M85.57,17.1 C83.842,17.019 82.303,17.775 81.277,19.152 L81.277,18.477 C81.277,17.802 80.764,17.181 79.981,17.181 C79.198,17.181 78.685,17.775 78.685,18.477 L78.685,31.707 C78.685,32.382 79.198,33.003 79.981,33.003 C80.764,33.003 81.277,32.49 81.277,31.707 L81.277,24.39 C81.277,21.285 82.897,19.503 85.57,19.503 C86.245,19.503 86.785,18.99 86.785,18.288 C86.758,17.613 86.164,17.1 85.57,17.1" id="Path" fill="#000000" fill-rule="nonzero" mask="url(#mask-2)"></path>
                            <path d="M100.771,23.634 C100.771,22.176 100.339,20.718 99.556,19.503 C98.341,17.883 96.37,16.938 94.318,17.1 C89.944,17.1 87.433,20.016 87.433,25.092 C87.433,30.33 89.917,33.165 94.642,33.165 C96.532,33.246 98.422,32.571 99.88,31.275 C100.15,31.113 100.312,30.762 100.312,30.411 C100.312,29.817 99.799,29.304 99.205,29.304 C98.935,29.304 98.692,29.385 98.53,29.574 C97.504,30.438 96.127,30.951 94.75,30.951 C91.915,30.951 90.106,29.061 90.025,26.064 L99.313,26.064 C100.771,25.875 100.771,24.498 100.771,23.634 M94.426,19.341 C96.991,19.341 98.287,20.799 98.368,23.634 L90.025,23.634 C90.295,20.88 91.834,19.341 94.426,19.341" id="Shape" fill="#000000" fill-rule="nonzero" mask="url(#mask-2)"></path>
                            <path d="M109.195,23.823 C107.305,23.148 105.766,22.608 105.766,21.258 C105.766,19.719 107.494,19.53 108.439,19.53 C109.735,19.449 111.004,19.962 111.868,20.826 C112.3,21.258 113.083,21.258 113.488,20.826 C113.758,20.556 113.839,20.313 113.839,19.962 C113.839,19.692 113.758,19.449 113.569,19.179 C112.273,17.721 110.383,16.857 108.493,17.019 C105.307,17.019 103.336,18.639 103.336,21.15 C103.336,24.255 106.09,25.2 108.493,26.037 C110.302,26.631 111.922,27.144 111.922,28.521 C111.922,30.33 109.87,30.681 108.655,30.681 C107.197,30.762 105.739,30.168 104.713,29.142 C104.443,28.872 104.2,28.791 103.849,28.71 C103.255,28.71 102.742,29.223 102.742,29.817 C102.742,30.087 102.823,30.33 103.012,30.6 C104.47,32.328 106.522,33.165 108.682,33.165 C112.3,33.165 114.433,31.437 114.433,28.683 C114.271,25.524 111.598,24.66 109.195,23.823" id="Path" fill="#000000" fill-rule="nonzero" mask="url(#mask-2)"></path>
                            <path d="M124.072,17.019 C122.533,16.938 120.967,17.613 119.941,18.828 L119.941,10.404 C119.941,9.729 119.428,9.108 118.645,9.108 C117.97,9.108 117.43,9.621 117.43,10.404 L117.43,31.707 C117.43,32.382 117.943,33.003 118.645,33.003 C119.32,33.003 119.941,32.49 119.941,31.707 L119.941,23.715 C119.941,20.799 121.318,19.341 124.072,19.341 C126.826,19.341 127.771,20.556 127.771,23.472 L127.771,31.734 C127.771,32.409 128.284,33.03 129.067,33.03 C129.742,33.03 130.282,32.517 130.282,31.734 L130.282,23.04 C130.255,19.098 128.203,17.019 124.072,17.019" id="Path" fill="#000000" fill-rule="nonzero" mask="url(#mask-2)"></path>
                            <path d="M139.354,23.823 C137.464,23.148 135.925,22.608 135.925,21.258 C135.925,19.719 137.653,19.53 138.598,19.53 C139.894,19.449 141.163,19.962 142.027,20.826 C142.297,21.096 142.54,21.177 142.891,21.177 C143.485,21.177 143.998,20.664 143.998,20.07 C143.998,19.8 143.917,19.557 143.728,19.287 C142.432,17.829 140.542,16.965 138.652,17.127 C135.466,17.127 133.495,18.747 133.495,21.258 C133.495,24.363 136.249,25.308 138.652,26.145 C140.461,26.739 142.081,27.252 142.081,28.629 C142.081,30.438 140.029,30.789 138.814,30.789 C137.356,30.87 135.898,30.276 134.872,29.25 C134.602,28.98 134.359,28.899 134.008,28.818 C133.414,28.818 132.901,29.331 132.901,29.925 C132.901,30.195 132.982,30.438 133.171,30.708 C134.629,32.328 136.681,33.192 138.922,33.111 C142.54,33.111 144.673,31.383 144.673,28.629 C144.43,25.524 141.676,24.66 139.354,23.823" id="Path" fill="#000000" fill-rule="nonzero" mask="url(#mask-2)"></path>
                            <path d="M153.205,17.019 C149.857,17.019 148.21,18.639 147.616,19.692 C147.535,19.854 147.454,20.124 147.454,20.367 C147.454,20.961 147.967,21.474 148.561,21.474 C148.993,21.474 149.344,21.312 149.587,20.961 C150.451,19.854 151.828,19.233 153.205,19.422 C155.446,19.422 156.823,20.718 156.823,22.77 L156.823,23.445 L152.449,23.445 C148.831,23.445 146.509,25.254 146.509,28.251 C146.509,31.248 148.669,33.057 152.341,33.057 C154.069,33.138 155.689,32.463 156.823,31.167 L156.823,31.68 C156.823,32.355 157.336,32.895 158.038,32.895 C158.713,32.895 159.253,32.382 159.253,31.68 L159.253,22.77 C159.226,19.26 156.904,17.019 153.205,17.019 M152.611,30.762 C150.991,30.762 149.101,30.33 149.101,28.197 C149.101,26.037 151.261,25.632 152.449,25.632 L156.823,25.632 L156.823,26.847 C156.823,29.574 154.582,30.87 152.611,30.762" id="Shape" fill="#000000" fill-rule="nonzero" mask="url(#mask-2)"></path>
                            <path d="M166.354,30.6 C165.841,30.6 165.247,30.438 165.247,28.98 L165.247,10.404 C165.247,9.729 164.734,9.108 164.032,9.108 C163.357,9.108 162.817,9.702 162.817,10.404 L162.817,28.98 C162.817,31.545 164.113,33.03 166.435,33.03 C167.11,33.03 167.65,32.517 167.65,31.815 C167.542,31.113 167.029,30.6 166.354,30.6" id="Path" fill="#000000" fill-rule="nonzero" mask="url(#mask-2)"></path>
                            <path d="M182.257,23.634 C182.257,22.176 181.825,20.718 181.042,19.503 C179.827,17.883 177.856,16.938 175.804,17.1 C171.43,17.1 168.919,20.016 168.919,25.092 C168.919,30.33 171.403,33.165 176.128,33.165 C178.018,33.246 179.908,32.571 181.366,31.275 C181.636,31.113 181.798,30.762 181.798,30.411 C181.798,29.817 181.285,29.304 180.691,29.304 C180.421,29.304 180.178,29.385 180.016,29.574 C178.99,30.438 177.613,30.951 176.236,30.951 C173.401,30.951 171.592,29.061 171.511,26.064 L180.799,26.064 C182.257,25.875 182.257,24.498 182.257,23.634 M175.804,19.341 C178.369,19.341 179.665,20.799 179.746,23.634 L171.43,23.634 C171.673,20.88 173.239,19.341 175.804,19.341" id="Shape" fill="#000000" fill-rule="nonzero" mask="url(#mask-2)"></path>
                            <path d="M190.681,23.823 C188.791,23.148 187.252,22.608 187.252,21.258 C187.252,19.719 188.98,19.53 189.925,19.53 C191.221,19.449 192.49,19.962 193.354,20.826 C193.624,21.096 193.867,21.177 194.218,21.177 C194.812,21.177 195.325,20.664 195.325,20.07 C195.325,19.8 195.244,19.557 195.055,19.287 C193.759,17.829 191.869,16.965 189.979,17.127 C186.793,17.127 184.822,18.747 184.822,21.258 C184.822,24.363 187.576,25.308 189.979,26.145 C191.788,26.739 193.408,27.252 193.408,28.629 C193.408,30.438 191.356,30.789 190.141,30.789 C188.683,30.87 187.225,30.276 186.199,29.25 C185.929,28.98 185.686,28.899 185.335,28.818 C184.741,28.818 184.228,29.331 184.228,29.925 C184.228,30.195 184.309,30.438 184.498,30.708 C185.956,32.328 188.035,33.192 190.249,33.111 C193.867,33.111 196,31.383 196,28.629 C195.73,25.524 193.084,24.66 190.681,23.823" id="Path" fill="#000000" fill-rule="nonzero" mask="url(#mask-2)"></path>
                            <path d="M48.607,14.184 L59.596,14.184 C61.648,14.184 63.295,15.804 63.295,17.883 L63.295,28.872 C63.295,36.945 56.761,43.479 48.688,43.479 L48.607,43.479 C40.534,43.479 34,36.945 34,28.872 C33.919,20.799 40.453,14.265 48.526,14.184 L48.607,14.184 Z" id="Path" fill="#000000" fill-rule="nonzero" mask="url(#mask-2)"></path>
                            <path d="M48.796,21.501 C50.416,21.501 51.712,22.797 51.712,24.417 C51.712,26.037 50.416,27.333 48.796,27.333 C47.176,27.333 45.88,26.037 45.88,24.417 C45.853,22.797 47.176,21.501 48.796,21.501" id="Path" fill="#FFFFFF" fill-rule="nonzero" mask="url(#mask-2)"></path>
                            <polygon id="Path" fill="#FFFFFF" fill-rule="nonzero" mask="url(#mask-2)" points="42.343 28.278 47.419 33.354 47.419 36.189 49.903 36.189 49.903 33.354 54.979 28.278"></polygon>
                        </g>
                    </g>
                </g>
            </g>
        </g>
    </g>
</svg>