<?xml version="1.0" encoding="UTF-8"?>
<svg width="230px" height="50px" viewBox="0 0 230 50" version="1.1" xmlns="http://www.w3.org/2000/svg" xmlns:xlink="http://www.w3.org/1999/xlink">
    <title>hubspot</title>
    <defs>
        <rect id="path-1" x="0" y="0" width="230" height="50"></rect>
    </defs>
    <g id="Page-1" stroke="none" stroke-width="1" fill="none" fill-rule="evenodd">
        <g id="a1qa-Software-crm-testing-v4" transform="translate(-845.000000, -3021.000000)">
            <g id="Group-36" transform="translate(374.000000, 2714.000000)">
                <g id="Group-29-Copy" transform="translate(0.000000, 282.000000)">
                    <g id="Card-1" transform="translate(401.000000, 0.000000)">
                        <g id="hubspot" transform="translate(70.000000, 25.000000)">
                            <mask id="mask-2" fill="white">
                                <use xlink:href="#path-1"></use>
                            </mask>
                            <use id="Mask" fill-opacity="0" fill="#D8D8D8" xlink:href="#path-1"></use>
                            <path d="M64.776,12.9688 L64.776,23.1388 L55.4328,23.1388 L55.4328,12.9688 L51,12.9688 L51,37.246 L55.434,37.246 L55.434,27.406 L64.7748,27.406 L64.7748,37.246 L69.21,37.246 L69.21,12.9688 L64.776,12.9688 Z M83.4024,29.3992 C83.4024,31.4255327 81.7597327,33.0682 79.7334,33.0682 C77.7070673,33.0682 76.0644,31.4255327 76.0644,29.3992 L76.0644,19 L71.8584,19 L71.8584,29.3992 C71.8584,33.7441345 75.3806655,37.2663998 79.7256,37.2663998 C84.0705345,37.2663998 87.5928,33.7441345 87.5928,29.3992 L87.5928,19 L83.4024,19 L83.4024,29.3992 L83.4024,29.3992 Z M114.5676,20.0716 C114.5676,17.9392 115.9776,17.2636 117.522,17.2636 C118.7676,17.2636 120.4116,18.2116 121.488,19.3612 L124.242,16.114 C122.8668,14.254 120.078,12.9688 117.7944,12.9688 C113.2308,12.9688 109.9308,15.6412 109.9308,20.0716 C109.9308,28.2916 119.9772,25.6828 119.9772,30.2836 C119.9772,31.702 118.5996,32.9548 117.0228,32.9548 C114.5352,32.9548 113.7288,31.7392 112.5864,30.4528 L109.5288,33.6316 C111.4848,36.0316 113.8968,37.2508 116.7852,37.2508 C121.1208,37.2508 124.608,34.546 124.608,30.3172 C124.608,21.1924 114.5604,24.028 114.5604,20.0716 M176.7204,33.3676 C174.2352,33.3676 173.5284,32.2924 173.5284,30.646 L173.5284,23.356 L177.3924,23.356 L177.3924,19.6624 L173.5284,19.6624 L173.5284,14.7892 L169.2636,16.7032 L169.2636,31.552 C169.2636,35.35 171.8844,37.264 175.4772,37.264 C176.0412,37.2736 176.6052,37.228 177.1596,37.1296 L178.2,33.2992 C177.7308,33.3316 177.192,33.364 176.7204,33.364 M99.4128,19.1212 C97.3296,19.1212 95.8752,19.726 94.4688,21.1048 L94.4688,13.114 L90.2568,13.114 L90.2568,27.9256 C90.2568,33.4696 94.2648,37.2688 98.7696,37.2688 C103.7664,37.2688 108.162,33.4024 108.162,28.1968 C108.162,23.056 104.1168,19.1248 99.4128,19.1248 M99.3864,33.0292 C97.678599,33.0292 96.1005258,32.1180991 95.2466253,30.6391 C94.3927248,29.160101 94.3927248,27.337899 95.2466253,25.8589 C96.1005258,24.3799009 97.678599,23.4688 99.3864,23.4688 C102.026432,23.4688 104.1666,25.6089685 104.1666,28.249 C104.1666,30.8890315 102.026432,33.0292 99.3864,33.0292 M145.1568,27.976 C145.1568,22.7608 140.7708,18.904 135.7644,18.904 C131.2608,18.904 127.2516,22.702 127.2516,28.2472 L127.2516,43.0672 L131.4636,43.0672 L131.4636,35.0656 C132.8676,36.442 134.3244,37.0492 136.4052,37.0492 C141.1092,37.0492 145.1556,33.118 145.1556,27.976 M141.168,27.9232 C141.168,30.5632316 139.027832,32.7034 136.3878,32.7034 C133.747768,32.7034 131.6076,30.5632316 131.6076,27.9232 C131.6076,25.2831684 133.747768,23.143 136.3878,23.143 C139.027832,23.143 141.168,25.2831684 141.168,27.9232" id="Shape" fill="#000000" fill-rule="nonzero" mask="url(#mask-2)"></path>
                            <path d="M158.7672,18.7 L158.7672,14.4676 C159.908834,13.9340382 160.640585,12.7901521 160.6464,11.53 L160.6464,11.4328 C160.6464,9.6328 159.1872,8.1736 157.3872,8.1736 L157.29,8.1736 C155.489994,8.1736 154.0308,9.63279354 154.0308,11.4328 L154.0308,11.53 C154.036615,12.7901521 154.768366,13.9340382 155.91,14.4676 L155.91,18.7 C154.302536,18.9461319 152.788643,19.6126254 151.5216,20.632 L139.914,11.5912 C139.9968,11.2924 140.04,10.9852 140.0448,10.6768 C140.047711,9.19140001 139.155425,7.85055299 137.784115,7.27964846 C136.412806,6.70874394 134.832612,7.02024627 133.780558,8.06886649 C132.728505,9.11748671 132.411838,10.6966536 132.978257,12.0698221 C133.544675,13.4429905 134.882598,14.3396554 136.368,14.3416 C137.003459,14.3386075 137.627014,14.1689608 138.1764,13.8496 L149.6064,22.744 C147.505069,25.9184955 147.561248,30.0557317 149.748,33.172 L146.2716,36.6496 C145.990587,36.5597324 145.697806,36.5120139 145.4028,36.508 C143.737956,36.5093255 142.389159,37.8595546 142.389601,39.5243994 C142.390043,41.1892441 143.739556,42.5387571 145.404401,42.539199 C147.069245,42.5396408 148.419474,41.1908443 148.4208,39.526 C148.416928,39.230982 148.369206,38.9381797 148.2792,38.6572 L151.7184,35.2168 C154.791304,37.5825318 159.011772,37.7863429 162.298334,35.7277167 C165.584895,33.6690905 167.243425,29.7828113 166.455962,25.9855319 C165.668499,22.1882526 162.601355,19.2819629 158.7672,18.7 M157.3416,32.62 C155.611174,32.6676119 153.991423,31.7716426 153.112173,30.2804816 C152.232923,28.7893206 152.232923,26.9382794 153.112173,25.4471184 C153.991423,23.9559574 155.611174,23.0599881 157.3416,23.1076 C159.902061,23.1972645 161.931788,25.2982536 161.933082,27.8602837 C161.934375,30.4223139 159.906769,32.5253508 157.3464,32.6176" id="Shape" fill="#000000" fill-rule="nonzero" mask="url(#mask-2)"></path>
                        </g>
                    </g>
                </g>
            </g>
        </g>
    </g>
</svg>