<svg xmlns="http://www.w3.org/2000/svg" xmlns:xlink="http://www.w3.org/1999/xlink" width="130" height="130" viewBox="0 0 130 130">
  <defs>
    <linearGradient id="ico-ecosystem-1-a" x1="100%" x2="0%" y1="100%" y2="0%">
      <stop offset="0%" stop-color="#1E85E9"/>
      <stop offset="20.276%" stop-color="#8671F3"/>
      <stop offset="70.727%" stop-color="#C06CFD" stop-opacity=".99"/>
      <stop offset="100%" stop-color="#FFBEE8"/>
    </linearGradient>
    <circle id="ico-ecosystem-1-c" cx="60" cy="60" r="45"/>
    <filter id="ico-ecosystem-1-b" width="137.8%" height="137.8%" x="-18.9%" y="-14.4%" filterUnits="objectBoundingBox">
      <feOffset dy="4" in="SourceAlpha" result="shadowOffsetOuter1"/>
      <feGaussianBlur in="shadowOffsetOuter1" result="shadowBlurOuter1" stdDeviation="5"/>
      <feColorMatrix in="shadowBlurOuter1" values="0 0 0 0 0.0415817482   0 0 0 0 0.0415817482   0 0 0 0 0.0415817482  0 0 0 0.1 0"/>
    </filter>
    <linearGradient id="ico-ecosystem-1-d" x1="82.286%" x2="17.714%" y1="100%" y2="0%">
      <stop offset="0%" stop-color="#1E85E9"/>
      <stop offset="20.276%" stop-color="#8671F3"/>
      <stop offset="70.727%" stop-color="#C06CFD" stop-opacity=".99"/>
      <stop offset="100%" stop-color="#FFBEE8"/>
    </linearGradient>
  </defs>
  <g fill="none" fill-rule="evenodd" transform="translate(5 5)">
    <path fill="url(#ico-ecosystem-1-a)" fill-rule="nonzero" d="M60,-5 C24.1014913,-5 -5,24.1014913 -5,60 C-5,95.8985087 24.1014913,125 60,125 C95.8985087,125 125,95.8985087 125,60 C125,24.1014913 95.8985087,-5 60,-5 Z M60,5 C90.3756612,5 115,29.6243388 115,60 C115,90.3756612 90.3756612,115 60,115 C29.6243388,115 5,90.3756612 5,60 C5,29.6243388 29.6243388,5 60,5 Z"/>
    <use fill="#000" filter="url(#ico-ecosystem-1-b)" xlink:href="#ico-ecosystem-1-c"/>
    <use fill="#FFF" xlink:href="#ico-ecosystem-1-c"/>
    <path fill="url(#ico-ecosystem-1-d)" fill-rule="nonzero" d="M70.9500013,34 C72.7178475,34 74.2211407,35.1326865 74.7737405,36.7119194 C75.8650028,36.8206722 76.7239454,37.7040166 76.7952156,38.8020621 L76.8000015,38.9500002 L76.8,39.4 L77.2500015,39.4000002 C78.4408656,39.4000002 79.4156465,40.3251618 79.4948108,41.4959515 L79.5000016,41.6500003 L79.5000016,73.2282242 C79.5000016,73.3408923 79.4577371,73.4494614 79.3815607,73.532475 L79.3815607,73.532475 L69.542864,84.2542528 C69.4576364,84.3471301 69.3373603,84.4000002 69.2113049,84.4000002 L69.2113049,84.4000002 L43.9500002,84.4000002 C42.7073595,84.4000002 41.7000001,83.3926426 41.7000001,82.1500019 L41.7000001,82.1500019 L41.7,81.7 L41.2500001,81.7000001 C40.057065,81.7000001 39.0809652,80.7716195 39.0047859,79.5979399 L39,79.4500018 L39,38.9500002 C39,37.7570651 39.9283824,36.7809653 41.102062,36.704786 L41.2500001,36.7000001 L67.130448,36.7000166 C67.6864225,35.1269982 69.1865996,34 70.9500013,34 Z M66.9,40.3 L43.9500002,40.3000003 C43.2044158,40.3000003 42.6000001,40.9044159 42.6000001,41.6500003 L42.6000001,41.6500003 L42.6000001,82.1500019 C42.6000001,82.8955864 43.2044158,83.500002 43.9500002,83.500002 L43.9500002,83.500002 L68.7,83.5 L68.7000012,74.9500016 C68.7000012,73.7570665 69.6283836,72.7809667 70.8020631,72.7047874 L70.9500013,72.7000015 L78.6,72.7 L78.6000001,41.6500003 C78.6000001,40.9921317 78.1294356,40.4441696 77.506533,40.3243428 L77.3800155,40.3061802 L77.2500015,40.3000003 L75,40.3 L75.0000014,61.0432691 C75.0000014,61.091585 74.9922216,61.1394244 74.9771032,61.1849878 L74.9489766,61.2514008 L71.3489765,68.1523713 C71.1807439,68.4748624 70.7192586,68.4748624 70.5510261,68.1523713 L70.5510261,68.1523713 L66.9510259,61.2514008 C66.9175057,61.1871447 66.9000011,61.115743 66.9000011,61.0432691 L66.9000011,61.0432691 L66.9,40.3 Z M78.096,73.6 L70.9500013,73.6000016 C70.2482747,73.6000016 69.6715974,74.1354009 69.6061811,74.8199876 L69.6000012,74.9500016 L69.6,82.859 L78.096,73.6 Z M66.92471,37.6000825 L41.2500001,37.6000001 C40.5482736,37.6000001 39.9715962,38.1353994 39.90618,38.8199862 L39.9,38.9500002 L39.9,79.4500018 C39.9,80.1517283 40.4353993,80.7284057 41.1199861,80.7938219 L41.2500001,80.8000019 L41.7,80.8 L41.7000001,41.6500003 C41.7000001,40.4591363 42.6251617,39.4843553 43.7959514,39.405191 L43.9500002,39.4000002 L66.9,39.4 L66.9000011,38.0500002 C66.9000011,37.8979243 66.908383,37.7478062 66.92471,37.6000825 Z M55.7455817,74.0500016 C55.9941099,74.0500016 56.1955817,74.2514735 56.1955817,74.5000016 C56.1955817,74.7209155 56.0363941,74.9046492 55.8264698,74.9427515 L55.7455817,74.9500016 L46.3597415,74.9500016 C46.1112134,74.9500016 45.9097415,74.7485298 45.9097415,74.5000016 C45.9097415,74.2790877 46.0689291,74.0953541 46.2788534,74.0572517 L46.3597415,74.0500016 L55.7455817,74.0500016 Z M61.5000009,70.4500014 C61.748529,70.4500014 61.9500009,70.6514733 61.9500009,70.9000015 C61.9500009,71.1209154 61.7908133,71.304649 61.580889,71.3427514 L61.5000009,71.3500015 L46.3597415,71.3500015 C46.1112134,71.3500015 45.9097415,71.1485296 45.9097415,70.9000015 C45.9097415,70.6790876 46.0689291,70.4953539 46.2788534,70.4572516 L46.3597415,70.4500014 L61.5000009,70.4500014 Z M71.892,65.163 L70.007,65.163 L70.9500013,66.9706013 L71.892,65.163 Z M55.7455817,65.5000013 C55.9941099,65.5000013 56.1955817,65.7014731 56.1955817,65.9500013 C56.1955817,66.1709152 56.0363941,66.3546488 55.8264698,66.3927512 L55.7455817,66.4000013 L46.3597415,66.4000013 C46.1112134,66.4000013 45.9097415,66.1985294 45.9097415,65.9500013 C45.9097415,65.7290874 46.0689291,65.5453537 46.2788534,65.5072514 L46.3597415,65.5000013 L55.7455817,65.5000013 Z M74.1,60.55 L67.8,60.55 L67.8000011,60.9325011 L69.538,64.263 L72.362,64.263 L74.1000014,60.9307011 L74.1,60.55 Z M61.5000009,61.9000011 C61.748529,61.9000011 61.9500009,62.101473 61.9500009,62.3500011 C61.9500009,62.570915 61.7908133,62.7546487 61.580889,62.792751 L61.5000009,62.8000011 L46.3597415,62.8000011 C46.1112134,62.8000011 45.9097415,62.5985293 45.9097415,62.3500011 C45.9097415,62.1290872 46.0689291,61.9453536 46.2788534,61.9072512 L46.3597415,61.9000011 L61.5000009,61.9000011 Z M74.1000014,40.4935003 L67.8000011,40.4935003 L67.8,59.65 L74.1,59.65 L74.1000014,40.4935003 Z M61.9500009,44.8000004 C62.6955854,44.8000004 63.3000003,45.404416 63.3000003,46.1500005 L63.3000003,46.1500005 L63.3000003,55.1500008 C63.3000003,55.8955853 62.6955854,56.5000009 61.9500009,56.5000009 L61.9500009,56.5000009 L46.6500003,56.5000009 C45.9044159,56.5000009 45.3000003,55.8955853 45.3000003,55.1500008 L45.3000003,55.1500008 L45.3000003,46.1500005 C45.3000003,45.404416 45.9044159,44.8000004 46.6500003,44.8000004 L46.6500003,44.8000004 Z M61.9500009,45.7000005 L46.6500003,45.7000005 C46.4014722,45.7000005 46.2000003,45.9014723 46.2000003,46.1500005 L46.2000003,46.1500005 L46.2000003,55.1500008 C46.2000003,55.398529 46.4014722,55.6000009 46.6500003,55.6000009 L46.6500003,55.6000009 L61.9500009,55.6000009 C62.1985291,55.6000009 62.4000009,55.398529 62.4000009,55.1500008 L62.4000009,55.1500008 L62.4000009,46.1500005 C62.4000009,45.9014723 62.1985291,45.7000005 61.9500009,45.7000005 L61.9500009,45.7000005 Z M56.2547117,48.9227122 L56.3200263,48.9802051 L58.3902901,51.1893361 C58.5602339,51.3706792 58.5509929,51.6554536 58.3696497,51.8253974 C58.2084558,51.9764586 57.9655385,51.9859416 57.7941899,51.8588209 L57.7335884,51.8047571 L55.9506007,49.9021006 L54.0487518,51.4582289 C53.939919,51.5472358 53.7972166,51.5792809 53.6631651,51.5484893 L53.5841125,51.5224269 L52.0050005,50.8336007 L50.455801,52.246883 C50.292533,52.3957001 50.0495077,52.4018222 49.8799339,52.2723436 L49.820086,52.2174467 C49.6712689,52.0541788 49.6651467,51.8111535 49.7946253,51.6415797 L49.8495222,51.5817317 L51.6145857,49.9728938 C51.7238575,49.8732937 51.8733994,49.8349466 52.0143395,49.8659454 L52.0974804,49.8929308 L53.6907006,50.5870007 L55.7067914,48.9395752 C55.8671542,48.8084253 56.0924391,48.8056298 56.2547117,48.9227122 Z M74.9835173,37.6711119 L74.9950449,37.8478643 L74.9950449,37.8478643 L75.0000014,38.0500002 L75,39.4 L75.9,39.4 L75.9000015,38.9500002 C75.9000015,38.35606 75.5164467,37.8517039 74.9835173,37.6711119 Z M70.9500013,34.9 C69.2103042,34.9 67.8000011,36.3103031 67.8000011,38.0500002 L67.8000011,38.0500002 L67.8000011,39.4 L74.1000014,39.4 L74.1000014,38.0500002 C74.1000014,36.368293 72.7821515,34.9943862 71.122833,34.904661 L71.122833,34.904661 Z"/>
  </g>
</svg>
