<svg xmlns="http://www.w3.org/2000/svg" xmlns:xlink="http://www.w3.org/1999/xlink" width="130" height="130" viewBox="0 0 130 130">
  <defs>
    <linearGradient id="ico-ecosystem-7-a" x1="100%" x2="0%" y1="100%" y2="0%">
      <stop offset="0%" stop-color="#1E85E9"/>
      <stop offset="20.276%" stop-color="#8671F3"/>
      <stop offset="70.727%" stop-color="#C06CFD" stop-opacity=".99"/>
      <stop offset="100%" stop-color="#FFBEE8"/>
    </linearGradient>
    <circle id="ico-ecosystem-7-c" cx="65" cy="65" r="45"/>
    <filter id="ico-ecosystem-7-b" width="137.8%" height="137.8%" x="-18.9%" y="-14.4%" filterUnits="objectBoundingBox">
      <feOffset dy="4" in="SourceAlpha" result="shadowOffsetOuter1"/>
      <feGaussianBlur in="shadowOffsetOuter1" result="shadowBlurOuter1" stdDeviation="5"/>
      <feColorMatrix in="shadowBlurOuter1" values="0 0 0 0 0.0415817482   0 0 0 0 0.0415817482   0 0 0 0 0.0415817482  0 0 0 0.1 0"/>
    </filter>
    <linearGradient id="ico-ecosystem-7-d" x1="72.633%" x2="27.367%" y1="100%" y2="0%">
      <stop offset="0%" stop-color="#1E85E9"/>
      <stop offset="20.276%" stop-color="#8671F3"/>
      <stop offset="70.727%" stop-color="#C06CFD" stop-opacity=".99"/>
      <stop offset="100%" stop-color="#FFBEE8"/>
    </linearGradient>
  </defs>
  <g fill="none" fill-rule="evenodd">
    <path fill="url(#ico-ecosystem-7-a)" fill-rule="nonzero" d="M65,0 C29.1014913,0 0,29.1014913 0,65 C0,100.898509 29.1014913,130 65,130 C100.898509,130 130,100.898509 130,65 C130,29.1014913 100.898509,0 65,0 Z M65,10 C95.3756612,10 120,34.6243388 120,65 C120,95.3756612 95.3756612,120 65,120 C34.6243388,120 10,95.3756612 10,65 C10,34.6243388 34.6243388,10 65,10 Z"/>
    <use fill="#000" filter="url(#ico-ecosystem-7-b)" xlink:href="#ico-ecosystem-7-c"/>
    <use fill="#FFF" xlink:href="#ico-ecosystem-7-c"/>
    <path fill="url(#ico-ecosystem-7-d)" fill-rule="nonzero" d="M66.1445128,36.3494455 C66.3456448,36.4768291 66.5249621,36.6351205 66.6760217,36.8181674 L66.7839175,36.9599982 L73.9,47.126 L73.9000011,45.8044285 L73.9047813,45.5949443 C73.9908087,43.7036146 75.2375671,41.6508019 77.6105609,39.4167845 C77.7827614,39.2546691 78.0510683,39.2535173 78.2246543,39.4141483 C80.7283652,41.7310035 82.0000014,43.8533251 82.0000014,45.8044285 L82.0000014,45.8044285 L82,67.479 L84.570536,70.7746685 L84.6114329,70.8371726 C84.6468791,70.9026322 84.6657242,70.9762333 84.6657242,71.051451 L84.6657242,71.051451 L84.6657242,74.5141221 L84.6584741,74.5950101 C84.6203717,74.8049344 84.4366381,74.9641221 84.2157242,74.9641221 L84.2157242,74.9641221 L82,74.964 L82.0000014,80.9044299 L81.9927513,80.985318 C81.954649,81.1952423 81.7709153,81.3544299 81.5500014,81.3544299 L81.5500014,81.3544299 L78.4,81.354 L78.4000013,88.4551138 C78.4000013,88.703642 78.1985294,88.9051138 77.9500013,88.9051138 C77.7290874,88.9051138 77.5453537,88.7459262 77.5072514,88.5360019 L77.5000013,88.4551138 L77.5,81.354 L74.3500011,81.3544299 L74.3500011,85.7551137 C74.3500011,86.0036419 74.1485293,86.2051137 73.9000011,86.2051137 C73.6790872,86.2051137 73.4953536,86.0459261 73.4572512,85.8360018 L73.4500011,85.7551137 L73.45,80.52 L72.0015955,82.9359531 C71.9365351,83.0443871 71.8297771,83.1191519 71.7087453,83.1447205 L71.6157237,83.15443 L70.6613516,83.1540243 C71.2165565,84.1976785 71.3789396,85.5413114 71.161784,87.1716188 C70.8820864,89.2714645 68.9961532,91.3347973 65.5474014,93.4059319 C65.4059501,93.4908799 65.2293522,93.4916026 65.0872104,93.4078151 C61.5701597,91.334638 59.6803533,89.2670677 59.4679857,87.1572723 C59.3041564,85.5296866 59.477475,84.1921154 60.0005617,83.1533837 L59.0157232,83.15443 C58.8576549,83.15443 58.7111768,83.0714955 58.6298513,82.9359531 L58.6298513,82.9359531 L57.25,80.636 L57.2500004,85.7551137 C57.2500004,86.0036419 57.0485286,86.2051137 56.8000004,86.2051137 C56.5790865,86.2051137 56.3953529,86.0459261 56.3572505,85.8360018 L56.3500004,85.7551137 L56.35,81.351 L56.3157231,81.3544299 L52.75,81.354 L52.7500003,88.4551138 C52.7500003,88.703642 52.5485284,88.9051138 52.3000003,88.9051138 C52.0790863,88.9051138 51.8953527,88.7459262 51.8572503,88.5360019 L51.8500002,88.4551138 L51.85,81.354 L49.1157228,81.3544299 C48.8948089,81.3544299 48.7110752,81.1952423 48.6729729,80.985318 L48.6657228,80.9044299 L48.665,74.964 L46.45,74.9641221 C46.2290861,74.9641221 46.0453525,74.8049344 46.0072501,74.5950101 L46,74.5141221 L46,71.051451 C46,70.9762333 46.0188451,70.9026322 46.0542913,70.8371726 L46.0951882,70.7746685 L48.665,67.479 L48.6657228,45.8044285 C48.6657228,43.8533251 49.937359,41.7310035 52.4410699,39.4141483 C52.6146558,39.2535173 52.8829628,39.2546691 53.0551633,39.4167845 C55.4281571,41.6508019 56.6749155,43.7036146 56.7609429,45.5949443 L56.7657231,45.8044285 L56.765,46.952 L63.0398026,37.0464213 C63.7046801,35.9966147 65.0947062,35.684568 66.1445128,36.3494455 Z M64.865,83.154 L61.0434233,83.15443 L60.9477416,83.3010244 C60.4349217,84.1378751 60.226601,85.2899695 60.3371047,86.7673248 L60.3371047,86.7673248 L60.3634607,87.0671357 C60.5284819,88.7065621 62.0357704,90.4497546 64.926419,92.2575545 L64.926419,92.2575545 L65.3130234,92.4937304 L65.3925316,92.4464757 C68.3286413,90.6322201 69.9333911,88.8792014 70.2423255,87.2236987 L70.2423255,87.2236987 L70.2696632,87.0527891 C70.4845923,85.4391968 70.2917307,84.198406 69.7095451,83.3119211 L69.7095451,83.3119211 L69.5988236,83.15443 L65.765,83.154 L65.7657234,86.3044301 C65.7657234,86.5529583 65.5642516,86.7544296 65.3157234,86.7544296 C65.0948095,86.7544296 64.9110759,86.5952425 64.8729735,86.3853182 L64.8657234,86.3044301 L64.865,83.154 Z M77.9157239,90.3544303 C78.1366378,90.3544303 78.3203715,90.513618 78.3584738,90.7235423 L78.3657239,90.8044303 L78.3657239,91.7044304 C78.3657239,91.9529585 78.1642521,92.1544304 77.9157239,92.1544304 C77.69481,92.1544304 77.5110764,91.9952427 77.472974,91.7853184 L77.4657239,91.7044304 L77.4657239,90.8044303 C77.4657239,90.5559022 77.6671958,90.3544303 77.9157239,90.3544303 Z M52.2657229,90.3544303 C52.4866368,90.3544303 52.6703705,90.513618 52.7084728,90.7235423 L52.7157229,90.8044303 L52.7157229,91.7044304 C52.7157229,91.9529585 52.5142511,92.1544304 52.2657229,92.1544304 C52.044809,92.1544304 51.8610754,91.9952427 51.822973,91.7853184 L51.8157229,91.7044304 L51.8157229,90.8044303 C51.8157229,90.5559022 52.0171948,90.3544303 52.2657229,90.3544303 Z M73.8657238,87.6544302 C74.0866377,87.6544302 74.2703713,87.8136179 74.3084737,88.0235421 L74.3157238,88.1044302 L74.3157238,89.0044303 C74.3157238,89.2529584 74.1142519,89.4544303 73.8657238,89.4544303 C73.6448099,89.4544303 73.4610762,89.2952426 73.4229738,89.0853183 L73.4157237,89.0044303 L73.4157237,88.1044302 C73.4157237,87.8559021 73.6171956,87.6544302 73.8657238,87.6544302 Z M56.7657231,87.6544302 C56.986637,87.6544302 57.1703706,87.8136179 57.208473,88.0235421 L57.2157231,88.1044302 L57.2157231,89.0044303 C57.2157231,89.2529584 57.0142512,89.4544303 56.7657231,89.4544303 C56.5448092,89.4544303 56.3610755,89.2952426 56.3229732,89.0853183 L56.3157231,89.0044303 L56.3157231,88.1044302 C56.3157231,87.8559021 56.5171949,87.6544302 56.7657231,87.6544302 Z M64.865,78.654 L57.25,78.654 L57.25,78.887 L59.2704232,82.25443 L64.865,82.254 L64.865,78.654 Z M73.45,78.654 L65.765,78.654 L65.765,82.254 L71.3601237,82.25443 L73.45,78.771 L73.45,78.654 Z M81.1,74.964 L74.8,74.964 L74.8008238,80.454134 L81.1008241,80.454134 L81.1,74.964 Z M55.864,74.964 L49.565,74.964 L49.5649001,80.454134 L55.8649004,80.454134 L55.864,74.964 Z M60.028,43.482 L56.7657231,48.6340286 L56.7657231,58.4400247 C56.7596351,58.4996342 56.7431995,58.5583738 56.7145704,58.6129744 L56.6705349,58.6812116 L49.5042846,67.8670999 C49.4872435,67.8961908 49.4670289,67.9231972 49.444116,67.9476438 L46.9,71.2057336 L46.9,74.0632337 L55.8649004,74.0632337 L55.865,71.205 L55.865723,66.4592755 C55.865723,66.2383616 56.0249107,66.054628 56.234835,66.0165256 L56.3157231,66.0092755 C56.536637,66.0092755 56.7203706,66.1684632 56.758473,66.3783875 L56.7657433,66.4592755 L56.7657231,77.7535298 L64.865,77.753 L64.8657234,73.7044296 C64.8657234,73.4559015 65.0671953,73.2544296 65.3157234,73.2544296 C65.5366373,73.2544296 65.720371,73.4136173 65.7584733,73.6235416 L65.7657234,73.7044296 L65.765,77.753 L73.865723,77.7535298 L73.865723,66.6531842 L73.899,66.653 L73.8999809,66.4592755 L73.9072512,66.3783875 C73.9453536,66.1684632 74.1290872,66.0092755 74.3500011,66.0092755 L74.3500011,66.0092755 L74.4308892,66.0165256 C74.6408135,66.054628 74.8000011,66.2383616 74.8000011,66.4592755 L74.8000011,66.4592755 L74.8008238,74.0632337 L83.7657242,74.0632337 L83.7657242,71.2057336 L81.2244864,67.9506862 C81.2003853,67.9254441 81.1791907,67.8974029 81.1614396,67.8670999 L73.9951893,58.6812116 L73.9511538,58.6129744 C73.9191471,58.5519322 73.9023807,58.4857167 73.9002207,58.41946 L73.865723,58.4195902 L73.865723,48.6457286 L70.301,43.554 L60.0282232,43.5544284 L60.028,43.482 Z M81.1,50.754 L74.8,50.754 L74.8,58.25 L81.1,66.326 L81.1,50.754 Z M55.865,50.754 L49.565,50.754 L49.565,66.325 L55.865,58.249 L55.865,50.754 Z M77.9220239,40.3654324 L77.7360675,40.5487555 C75.7685098,42.5180156 74.8000011,44.2757269 74.8000011,45.8044285 L74.8000011,45.8044285 L74.8,49.854 L81.1,49.854 L81.1000014,45.8044285 L81.0952709,45.6201129 C81.0195672,44.1367579 80.0348395,42.4417166 78.1133025,40.5513641 L78.1133025,40.5513641 L77.9220239,40.3654324 Z M52.7437003,40.3654324 L52.5524217,40.5513641 C50.6308847,42.4417166 49.646157,44.1367579 49.5704533,45.6201129 L49.5657228,45.8044285 L49.565,49.854 L55.865,49.854 L55.865723,45.8044285 C55.865723,44.2757269 54.8972144,42.5180156 52.9296567,40.5487555 L52.7437003,40.3654324 Z M68.9157236,46.2544286 C69.1642517,46.2544286 69.3657236,46.4559004 69.3657236,46.7044286 C69.3657236,46.9253425 69.2065359,47.1090761 68.9966116,47.1471785 L68.9157236,47.1544286 L61.7157233,47.1544286 C61.4671951,47.1544286 61.2657233,46.9529567 61.2657233,46.7044286 C61.2657233,46.4835147 61.4249109,46.299781 61.6348352,46.2616787 L61.7157233,46.2544286 L68.9157236,46.2544286 Z M63.874925,37.4214364 L63.8001398,37.5279682 L60.553,42.654 L69.671,42.654 L66.0466087,37.4761143 C65.9698116,37.3664042 65.8772637,37.2689377 65.7721501,37.1867563 L65.6629659,37.1097827 C65.070134,36.7343225 64.2964795,36.8780856 63.874925,37.4214364 Z"/>
  </g>
</svg>
