<svg xmlns="http://www.w3.org/2000/svg" xmlns:xlink="http://www.w3.org/1999/xlink" width="130" height="130" viewBox="0 0 130 130">
  <defs>
    <linearGradient id="ico-ecosystem-4-a" x1="100%" x2="0%" y1="100%" y2="0%">
      <stop offset="0%" stop-color="#1E85E9"/>
      <stop offset="20.276%" stop-color="#8671F3"/>
      <stop offset="70.727%" stop-color="#C06CFD" stop-opacity=".99"/>
      <stop offset="100%" stop-color="#FFBEE8"/>
    </linearGradient>
    <circle id="ico-ecosystem-4-c" cx="65" cy="65" r="45"/>
    <filter id="ico-ecosystem-4-b" width="137.8%" height="137.8%" x="-18.9%" y="-14.4%" filterUnits="objectBoundingBox">
      <feOffset dy="4" in="SourceAlpha" result="shadowOffsetOuter1"/>
      <feGaussianBlur in="shadowOffsetOuter1" result="shadowBlurOuter1" stdDeviation="5"/>
      <feColorMatrix in="shadowBlurOuter1" values="0 0 0 0 0.0415817482   0 0 0 0 0.0415817482   0 0 0 0 0.0415817482  0 0 0 0.1 0"/>
    </filter>
    <linearGradient id="ico-ecosystem-4-d" x1="100%" x2="0%" y1="84.55%" y2="15.45%">
      <stop offset="0%" stop-color="#1E85E9"/>
      <stop offset="20.276%" stop-color="#8671F3"/>
      <stop offset="70.727%" stop-color="#C06CFD" stop-opacity=".99"/>
      <stop offset="100%" stop-color="#FFBEE8"/>
    </linearGradient>
  </defs>
  <g fill="none" fill-rule="evenodd">
    <path fill="url(#ico-ecosystem-4-a)" fill-rule="nonzero" d="M65,0 C29.1014913,0 0,29.1014913 0,65 C0,100.898509 29.1014913,130 65,130 C100.898509,130 130,100.898509 130,65 C130,29.1014913 100.898509,0 65,0 Z M65,10 C95.3756612,10 120,34.6243388 120,65 C120,95.3756612 95.3756612,120 65,120 C34.6243388,120 10,95.3756612 10,65 C10,34.6243388 34.6243388,10 65,10 Z"/>
    <use fill="#000" filter="url(#ico-ecosystem-4-b)" xlink:href="#ico-ecosystem-4-c"/>
    <use fill="#FFF" xlink:href="#ico-ecosystem-4-c"/>
    <path fill="url(#ico-ecosystem-4-d)" fill-rule="nonzero" d="M86.7500021,40 C87.9429372,40 88.9190369,40.9283824 88.9952162,42.102062 L89,42.2500001 L89,68.71 L91.6833297,67.4491745 L94.5362434,72.3795094 L91.3993934,74.5607907 C91.332534,74.6082868 91.2915636,74.707499 91.3053292,74.7876304 C91.4009078,75.3398585 91.4503528,75.8986973 91.4503528,76.4500194 C91.4503528,76.9989575 91.4013949,77.5467355 91.3054236,78.1012193 C91.2915649,78.1818837 91.3325373,78.281101 91.3950401,78.3255353 L91.3950401,78.3255353 L94.5479088,80.5096978 L91.6826206,85.439889 L88.2343217,83.8181669 C88.1592758,83.7834178 88.0514523,83.7976787 87.9879926,83.85077 C87.1400723,84.5599055 86.1708656,85.1176476 85.1158039,85.503704 C85.0374126,85.5320835 84.9706397,85.6194715 84.9638848,85.702592 L84.9638848,85.702592 L84.6532088,89.50002 L78.9467949,89.50002 L78.6360967,85.702319 C78.6293694,85.6194706 78.562597,85.5320856 78.482748,85.5031756 C77.4291382,85.1176476 76.4599314,84.5599055 75.611952,83.8507205 C75.5485514,83.7976787 75.4407279,83.7834178 75.3681115,83.8170332 L75.3681115,83.8170332 L71.9173832,85.439889 L71.139,84.1 L42.6500003,84.1000018 C42.4014722,84.1000018 42.2000003,83.8985299 42.2000003,83.6500017 C42.2000003,83.4290878 42.3591879,83.2453542 42.5691122,83.2072518 L42.6500003,83.2000017 L46.7,83.2 L46.7000005,81.8500017 C46.7000005,80.6570666 47.6283828,79.6809668 48.8020624,79.6047875 L48.9500006,79.6000016 L52.225,79.6 L53.725,75.1 L37.2500001,75.1000014 C36.057065,75.1000014 35.0809652,74.171619 35.0047859,72.9979394 L35,72.8500013 L35,42.2500001 C35,41.057065 35.9283824,40.0809652 37.102062,40.0047859 L37.2500001,40 L86.7500021,40 Z M83.8241019,64.300001 L79.7750018,64.300001 L79.5331419,67.2599472 C79.5010689,67.6546171 79.2521327,68.012465 78.9004807,68.1852595 L78.9004807,68.1852595 L78.7920178,68.231398 C77.8484968,68.5766517 76.968028,69.0884464 76.184062,69.7440253 C75.8498403,70.014934 75.3700638,70.0713423 74.9850906,69.8867931 L74.9850906,69.8867931 L72.2816015,68.6155011 L70.2575014,72.1129013 L72.7218291,73.8270803 C73.0359264,74.0502111 73.2157535,74.4319251 73.1956761,74.8139738 L73.1956761,74.8139738 L73.1814898,74.9411187 C73.0945575,75.4433906 73.0496509,75.9509354 73.0496509,76.4500194 C73.0496509,76.946433 73.0940281,77.4429572 73.1815842,77.9488257 C73.2540611,78.3706759 73.070818,78.8144109 72.7174758,79.0653537 L72.7174758,79.0653537 L70.2476014,80.7754016 L71.7323061,83.3273927 C71.790394,83.383891 71.833276,83.4559426 71.8542286,83.5368241 L72.2807015,84.2737018 L74.9875201,83.0014702 C75.3396088,82.8384396 75.7636894,82.8735693 76.0859746,83.0838412 L76.0859746,83.0838412 L76.1893944,83.1603871 C76.9572127,83.8025313 77.8356352,84.3080305 78.7905626,84.6574523 C79.2001997,84.8057505 79.4978925,85.1953407 79.5331221,85.6292062 L79.5331221,85.6292062 L79.7759018,88.6000019 L83.8232019,88.6000019 L84.0668618,85.6294498 C84.0989341,85.2347882 84.3478609,84.8769467 84.6995227,84.7041276 L84.6995227,84.7041276 L84.8079892,84.6579808 C85.7643685,84.3080305 86.6427911,83.8025313 87.4105502,83.1604365 C87.7411854,82.8838223 88.2212739,82.8203251 88.6149131,83.0026039 L88.6149131,83.0026039 L91.3184022,84.2737018 L93.3515023,80.7754016 L90.8781946,79.0623139 C90.5640866,78.8392012 90.3842489,78.4574646 90.4043271,78.0754195 L90.4043271,78.0754195 L90.4185142,77.9482769 C90.5059757,77.4429572 90.5503528,76.946433 90.5503528,76.4500194 C90.5503528,75.9509354 90.5054462,75.4433906 90.4184185,74.9405653 C90.3459463,74.5187083 90.5291776,74.0750034 90.8818722,73.8244813 L90.8818722,73.8244813 L93.3416023,72.1129013 L91.3175022,68.6155011 L88.6179161,69.8853672 C88.2687375,70.0527448 87.8452007,70.0237919 87.5164504,69.8156345 L87.5164504,69.8156345 L87.4106096,69.739635 C86.6319777,69.0884481 85.7515123,68.5766557 84.8094672,68.2319371 C84.3998161,68.0836625 84.102112,67.6940654 84.0668911,67.2603058 L84.0668911,67.2603058 L83.8241019,64.300001 Z M69.065,80.5 L48.9500006,80.5000016 C48.248274,80.5000016 47.6715967,81.0354009 47.6061804,81.7199876 L47.6000005,81.8500017 L47.6000005,83.2000017 L70.616,83.2 L69.0520949,80.5096978 L69.065,80.5 Z M81.3500018,71.5000013 C84.0838115,71.5000013 86.300002,73.7161918 86.300002,76.4500014 C86.300002,79.1838111 84.0838115,81.4000016 81.3500018,81.4000016 C78.6161922,81.4000016 76.4000016,79.1838111 76.4000016,76.4500014 C76.4000016,73.7161918 78.6161922,71.5000013 81.3500018,71.5000013 Z M81.3500018,72.4000013 C79.1132485,72.4000013 77.3000017,74.2132481 77.3000017,76.4500014 C77.3000017,78.6867548 79.1132485,80.5000016 81.3500018,80.5000016 C83.5867552,80.5000016 85.400002,78.6867548 85.400002,76.4500014 C85.400002,74.2132481 83.5867552,72.4000013 81.3500018,72.4000013 Z M69.3251014,75.1000014 L54.6740008,75.1000014 L53.1737007,79.6000016 L70.364,79.6 L70.739,79.34 L69.3251014,75.1000014 Z M72.247,75.1 L70.274,75.1 L71.51,78.806 L72.2006303,78.3285751 C72.2507574,78.2929695 72.2863361,78.2282584 72.2951858,78.1643294 L72.2946747,78.1017681 C72.1986089,77.5467355 72.1496509,76.9989575 72.1496509,76.4500194 C72.1496509,75.8986973 72.1990959,75.3398585 72.2945791,74.7881837 L72.247,75.1 Z M88.1,48.063 L35.9,48.063 L35.9,72.8500013 C35.9,73.5517278 36.4353993,74.1284052 37.1199861,74.1938214 L37.2500001,74.2000014 L71.682,74.2 L69.0637604,72.3795094 L71.916674,67.4491745 L75.3711146,69.0737897 C75.4455565,69.1094732 75.5532528,69.0968111 75.6120114,69.0492517 C76.4697374,68.3319166 77.4407413,67.767496 78.4842259,67.3856665 C78.562598,67.3572995 78.6293644,67.2699219 78.6361284,67.18669 L78.6361284,67.18669 L78.9469016,63.4000189 L84.6531021,63.4000189 L84.963907,67.187078 C84.970634,67.2699228 85.0373998,67.3572973 85.1172599,67.3862059 C86.1592685,67.7675004 87.1302685,68.3319184 87.9826602,69.0448614 C88.0142125,69.0704366 88.0563334,69.0864898 88.1002104,69.0917701 L88.1,48.063 Z M68.5558763,54.0297326 L68.6181994,54.0818025 L74.0181996,59.4818027 C74.1744093,59.6380124 74.191766,59.8804944 74.0702695,60.0558757 L74.0181996,60.1181989 L68.6181994,65.5181991 C68.4424634,65.693935 68.1575392,65.693935 67.9818033,65.5181991 C67.8255935,65.3619893 67.8082369,65.1195074 67.9297334,64.944126 L67.9818033,64.8818029 L73.0637015,59.8000008 L67.9818033,54.7181986 C67.8255935,54.5619889 67.8082369,54.3195069 67.9297334,54.1441256 L67.9818033,54.0818025 C68.138013,53.9255928 68.380495,53.9082361 68.5558763,54.0297326 Z M54.0941258,54.0297326 C54.2695071,53.9082361 54.5119891,53.9255928 54.6681988,54.0818025 L54.6681988,54.0818025 L54.7202687,54.1441256 C54.8417652,54.3195069 54.8244086,54.5619889 54.6681988,54.7181986 L54.6681988,54.7181986 L49.5863006,59.8000008 L54.6681988,64.8818029 L54.7202687,64.944126 C54.8417652,65.1195074 54.8244086,65.3619893 54.6681988,65.5181991 C54.4924629,65.693935 54.2075386,65.693935 54.0318027,65.5181991 L54.0318027,65.5181991 L48.6318025,60.1181989 L48.5797326,60.0558757 C48.4582361,59.8804944 48.4755928,59.6380124 48.6318025,59.4818027 L48.6318025,59.4818027 L54.0318027,54.0818025 Z M64.1081126,54.8476954 C64.2986607,54.9594736 64.3765932,55.1897458 64.3032404,55.390094 L64.2685661,55.463532 L59.0012808,64.4426583 C58.8755302,64.6570249 58.5998108,64.7288624 58.3854442,64.6031118 C58.1948961,64.4913336 58.1169636,64.2610614 58.1903163,64.0607133 L58.2249906,63.9872753 L63.492276,55.0081489 C63.6180266,54.7937823 63.893746,54.7219448 64.1081126,54.8476954 Z M86.7500021,40.9 L37.2500001,40.9 C36.5482736,40.9 35.9715962,41.4353993 35.90618,42.1199861 L35.9,42.2500001 L35.9,47.163 L88.1,47.163 L88.1000021,42.2500001 C88.1000021,41.5482736 87.5646028,40.9715962 86.8800161,40.90618 L86.7500021,40.9 Z M39.9500002,43.1500001 C40.4470565,43.1500001 40.8500002,43.5529439 40.8500002,44.0500002 C40.8500002,44.5470565 40.4470565,44.9500002 39.9500002,44.9500002 C39.4529439,44.9500002 39.0500002,44.5470565 39.0500002,44.0500002 C39.0500002,43.5529439 39.4529439,43.1500001 39.9500002,43.1500001 Z M43.5500003,43.1500001 C44.0470566,43.1500001 44.4500004,43.5529439 44.4500004,44.0500002 C44.4500004,44.5470565 44.0470566,44.9500002 43.5500003,44.9500002 C43.052944,44.9500002 42.6500003,44.5470565 42.6500003,44.0500002 C42.6500003,43.5529439 43.052944,43.1500001 43.5500003,43.1500001 Z M47.1500005,43.1500001 C47.6470568,43.1500001 48.0500005,43.5529439 48.0500005,44.0500002 C48.0500005,44.5470565 47.6470568,44.9500002 47.1500005,44.9500002 C46.6529442,44.9500002 46.2500004,44.5470565 46.2500004,44.0500002 C46.2500004,43.5529439 46.6529442,43.1500001 47.1500005,43.1500001 Z"/>
  </g>
</svg>
