<svg xmlns="http://www.w3.org/2000/svg" xmlns:xlink="http://www.w3.org/1999/xlink" width="132" height="130" viewBox="0 0 132 130">
  <defs>
    <linearGradient id="ico-ecosystem-8-a" x1="100%" x2="0%" y1="100%" y2="0%">
      <stop offset="0%" stop-color="#1E85E9"/>
      <stop offset="20.276%" stop-color="#8671F3"/>
      <stop offset="70.727%" stop-color="#C06CFD" stop-opacity=".99"/>
      <stop offset="100%" stop-color="#FFBEE8"/>
    </linearGradient>
    <circle id="ico-ecosystem-8-c" cx="65.5" cy="65" r="45"/>
    <filter id="ico-ecosystem-8-b" width="137.8%" height="137.8%" x="-18.9%" y="-14.4%" filterUnits="objectBoundingBox">
      <feOffset dy="4" in="SourceAlpha" result="shadowOffsetOuter1"/>
      <feGaussianBlur in="shadowOffsetOuter1" result="shadowBlurOuter1" stdDeviation="5"/>
      <feColorMatrix in="shadowBlurOuter1" values="0 0 0 0 0.0415817482   0 0 0 0 0.0415817482   0 0 0 0 0.0415817482  0 0 0 0.1 0"/>
    </filter>
    <linearGradient id="ico-ecosystem-8-d" x1="90.186%" x2="9.814%" y1="100%" y2="0%">
      <stop offset="0%" stop-color="#1E85E9"/>
      <stop offset="20.276%" stop-color="#8671F3"/>
      <stop offset="70.727%" stop-color="#C06CFD" stop-opacity=".99"/>
      <stop offset="100%" stop-color="#FFBEE8"/>
    </linearGradient>
  </defs>
  <g fill="none" fill-rule="evenodd" transform="translate(.5)">
    <path fill="url(#ico-ecosystem-8-a)" fill-rule="nonzero" d="M65.5,0 C29.6014913,0 0.5,29.1014913 0.5,65 C0.5,100.898509 29.6014913,130 65.5,130 C101.398509,130 130.5,100.898509 130.5,65 C130.5,29.1014913 101.398509,0 65.5,0 Z M65.5,10 C95.8756612,10 120.5,34.6243388 120.5,65 C120.5,95.3756612 95.8756612,120 65.5,120 C35.1243388,120 10.5,95.3756612 10.5,65 C10.5,34.6243388 35.1243388,10 65.5,10 Z"/>
    <use fill="#000" filter="url(#ico-ecosystem-8-b)" xlink:href="#ico-ecosystem-8-c"/>
    <use fill="#FFF" xlink:href="#ico-ecosystem-8-c"/>
    <path fill="url(#ico-ecosystem-8-d)" fill-rule="nonzero" d="M83.5,40.5 C86.9863904,40.5 89.8720453,43.2973263 89.995861,46.76767 L90,47 L90,83 C90,86.4992066 87.1901362,89.3726026 83.7315123,89.4958791 L83.5,89.5 L54.878,89.4995729 L56.8535534,91.4748737 C57.0271197,91.6484401 57.0464049,91.9178645 56.9114088,92.1127326 L56.8535534,92.1819805 C56.679987,92.3555469 56.4105626,92.374832 56.2156945,92.239836 L56.1464466,92.1819805 L53.3180195,89.3535534 C53.1444531,89.179987 53.125168,88.9105626 53.260164,88.7156945 L53.3180195,88.6464466 L56.1464466,85.8180195 C56.3417088,85.6227573 56.6582912,85.6227573 56.8535534,85.8180195 C57.0271197,85.9915858 57.0464049,86.2610102 56.9114088,86.4558784 L56.8535534,86.5251263 L54.878,88.4995729 L83.5,88.5 C86.439102,88.5 88.87835,86.1430015 88.9955893,83.2202399 L89,83 L89,47 C89,44.0500698 86.6324374,41.6211218 83.719467,41.5043914 L83.5,41.5 L80.5,41.5 C80.2238576,41.5 80,41.2761424 80,41 C80,40.7545401 80.1768752,40.5503916 80.4101244,40.5080557 L80.5,40.5 L83.5,40.5 Z M74.1464466,37.8180195 C74.3417088,37.6227573 74.6582912,37.6227573 74.8535534,37.8180195 L74.8535534,37.8180195 L77.6819805,40.6464466 L77.739836,40.7156945 C77.874832,40.9105626 77.8555469,41.179987 77.6819805,41.3535534 L77.6819805,41.3535534 L74.8535534,44.1819805 L74.7843055,44.239836 C74.5894374,44.374832 74.320013,44.3555469 74.1464466,44.1819805 L74.1464466,44.1819805 L74.0885912,44.1127326 C73.9535951,43.9178645 73.9728803,43.6484401 74.1464466,43.4748737 L74.1464466,43.4748737 L76.121,41.4995729 L47.5,41.5 C44.560898,41.5 42.12165,43.8569985 42.0044107,46.7797601 L42,47 L42,83 C42,85.9499302 44.3675626,88.3788782 47.280533,88.4956086 L47.5,88.5 L50.5,88.5 C50.7761424,88.5 51,88.7238576 51,89 C51,89.2454599 50.8231248,89.4496084 50.5898756,89.4919443 L50.5,89.5 L47.5,89.5 C44.0136096,89.5 41.1279547,86.7026737 41.004139,83.23233 L41,83 L41,47 C41,43.5007934 43.8098638,40.6273974 47.2684877,40.5041209 L47.5,40.5 L76.121,40.4995729 L74.1464466,38.5251263 L74.0885912,38.4558784 C73.9535951,38.2610102 73.9728803,37.9915858 74.1464466,37.8180195 Z M65.2226499,44.5839749 C65.3905996,44.4720084 65.6094004,44.4720084 65.7773501,44.5839749 L65.7773501,44.5839749 L74.7773501,50.5839749 C74.7803077,50.5859466 74.7832358,50.5879419 74.7861344,50.5899605 C74.8560504,50.6383109 74.9143296,50.7048382 74.952268,50.7847007 C74.9542274,50.7898461 74.9563393,50.7944988 74.9583765,50.7991775 C74.9671527,50.8181382 74.9745408,50.8385708 74.9805949,50.859704 C74.9831919,50.8701477 74.9857298,50.8801168 74.9879584,50.8901437 C74.9958915,50.9247806 75,50.9616506 75,51 L74.9962969,50.9387919 C74.9977944,50.9511156 74.9988376,50.9634864 74.9994268,50.9758756 L75,51 L75,60.7325729 L83.7773501,66.5839749 C83.7803077,66.5859466 83.7832358,66.5879419 83.7861344,66.5899605 C83.8560504,66.6383109 83.9143296,66.7048382 83.952268,66.7847007 C83.9542274,66.7898461 83.9563393,66.7944988 83.9583765,66.7991775 C83.9671527,66.8181382 83.9745408,66.8385708 83.9805949,66.859704 C83.9831919,66.8701477 83.9857298,66.8801168 83.9879584,66.8901437 C83.9958915,66.9247806 84,66.9616506 84,67 L83.9962969,66.9387919 C83.9977944,66.9511156 83.9988376,66.9634864 83.9994268,66.9758756 L84,67 L84,77.1052632 C84,77.2738826 83.9150108,77.4311444 83.7739541,77.5235324 L83.7739541,77.5235324 L74.7739541,83.4182692 C74.7703253,83.420646 74.7666836,83.4229684 74.7630295,83.4252368 C74.7488578,83.4339919 74.7341408,83.4421017 74.7190574,83.4494706 C74.7066555,83.455797 74.6945756,83.4611632 74.6824229,83.4660042 C74.6728167,83.4694211 74.6628383,83.4730115 74.6527498,83.476288 C74.6375529,83.481693 74.622532,83.4857931 74.6074739,83.4891512 C74.5994391,83.4905176 74.5908026,83.492232 74.5821156,83.4937184 C74.5665108,83.4967056 74.5514648,83.4984876 74.5364483,83.4995687 C74.5250327,83.5002683 74.5129606,83.5007708 74.5008462,83.5008248 C74.4877071,83.5007983 74.4752994,83.5002942 74.4629602,83.4993293 C74.4485352,83.4984876 74.4334892,83.4967056 74.4184558,83.4941998 C74.4091974,83.492232 74.4005609,83.4905176 74.3919838,83.4885801 C74.377468,83.4857931 74.3624471,83.481693 74.347506,83.4768277 C74.3371617,83.4730115 74.3271833,83.4694211 74.3173307,83.4655252 C74.3054244,83.4611632 74.2933445,83.455797 74.281361,83.4498929 C74.2658592,83.4421017 74.2511422,83.4339919 74.2368547,83.4251754 C74.2333164,83.4229684 74.2296747,83.420646 74.2260459,83.4182692 L65.5,77.7015729 L56.7739541,83.4182692 C56.7703253,83.420646 56.7666836,83.4229684 56.7630295,83.4252368 C56.7488578,83.4339919 56.7341408,83.4421017 56.7190574,83.4494706 C56.7066555,83.455797 56.6945756,83.4611632 56.6824229,83.4660042 C56.6728167,83.4694211 56.6628383,83.4730115 56.6527498,83.476288 C56.6375529,83.481693 56.622532,83.4857931 56.6074739,83.4891512 C56.5994391,83.4905176 56.5908026,83.492232 56.5821156,83.4937184 C56.5665108,83.4967056 56.5514648,83.4984876 56.5364483,83.4995687 C56.5250327,83.5002683 56.5129606,83.5007708 56.5008462,83.5008248 C56.4877071,83.5007983 56.4752994,83.5002942 56.4629602,83.4993293 C56.4485352,83.4984876 56.4334892,83.4967056 56.4184558,83.4941998 C56.4091974,83.492232 56.4005609,83.4905176 56.3919838,83.4885801 C56.377468,83.4857931 56.3624471,83.481693 56.347506,83.4768277 C56.3371617,83.4730115 56.3271833,83.4694211 56.3173307,83.4655252 C56.3054244,83.4611632 56.2933445,83.455797 56.281361,83.4498929 C56.2658592,83.4421017 56.2511422,83.4339919 56.2368547,83.4251754 C56.2333164,83.4229684 56.2296747,83.420646 56.2260459,83.4182692 L47.2260459,77.5235324 C47.0849892,77.4311444 47,77.2738826 47,77.1052632 L47,67 L47.0001951,66.9859245 C47.0006595,66.9691715 47.0019532,66.9524383 47.0040762,66.9357952 L47,67 C47,66.9616506 47.0041085,66.9247806 47.0118314,66.889657 C47.0142702,66.8801168 47.0168081,66.8701477 47.0196553,66.8602523 C47.0254592,66.8385708 47.0328473,66.8181382 47.0414516,66.7984699 C47.0436607,66.7944988 47.0457726,66.7898461 47.0479594,66.7852212 C47.0856704,66.7048382 47.1439496,66.6383109 47.2142373,66.5896216 L47.2226499,66.5839749 L56,60.7315729 L56,51 L56.0001951,50.9859245 C56.0006595,50.9691715 56.0019532,50.9524383 56.0040762,50.9357952 L56,51 C56,50.9616506 56.0041085,50.9247806 56.0118314,50.889657 C56.0142702,50.8801168 56.0168081,50.8701477 56.0196553,50.8602523 C56.0254592,50.8385708 56.0328473,50.8181382 56.0414516,50.7984699 C56.0436607,50.7944988 56.0457726,50.7898461 56.0479594,50.7852212 C56.0856704,50.7048382 56.1439496,50.6383109 56.2142373,50.5896216 L56.2226499,50.5839749 Z M48,67.9345729 L48,76.834 L56,82.075 L56,73.2675729 L48,67.9345729 Z M66,67.9345729 L66,76.834 L74,82.075 L74,73.2675729 L66,67.9345729 Z M65,67.9335729 L57,73.2665729 L57,82.074 L65,76.834 L65,67.9335729 Z M83,67.9335729 L75,73.2665729 L75,82.074 L83,76.834 L83,67.9335729 Z M56.422,61.6515729 L48.405,66.9955729 L56.5,72.2965729 L64.588,66.9995729 L56.422,61.6515729 Z M74.5,61.6005326 L66.406,66.9955729 L74.5,72.2965729 L82.594,66.9955729 L74.5,61.6005326 Z M57,51.9345729 L57,60.7325729 L65,66.0655729 L65,57.2675729 L57,51.9345729 Z M74,51.9335729 L66,57.2665729 L66,66.064 L74,60.731 L74,51.9335729 Z M65.5,45.6005326 L57.405,50.9955729 L65.5,56.2965729 L73.594,50.9955729 L65.5,45.6005326 Z"/>
  </g>
</svg>
