<svg xmlns="http://www.w3.org/2000/svg" xmlns:xlink="http://www.w3.org/1999/xlink" width="130" height="130" viewBox="0 0 130 130">
  <defs>
    <linearGradient id="ico-ecosystem-6-a" x1="100%" x2="0%" y1="100%" y2="0%">
      <stop offset="0%" stop-color="#1E85E9"/>
      <stop offset="20.276%" stop-color="#8671F3"/>
      <stop offset="70.727%" stop-color="#C06CFD" stop-opacity=".99"/>
      <stop offset="100%" stop-color="#FFBEE8"/>
    </linearGradient>
    <circle id="ico-ecosystem-6-c" cx="65" cy="65" r="45"/>
    <filter id="ico-ecosystem-6-b" width="137.8%" height="137.8%" x="-18.9%" y="-14.4%" filterUnits="objectBoundingBox">
      <feOffset dy="4" in="SourceAlpha" result="shadowOffsetOuter1"/>
      <feGaussianBlur in="shadowOffsetOuter1" result="shadowBlurOuter1" stdDeviation="5"/>
      <feColorMatrix in="shadowBlurOuter1" values="0 0 0 0 0.0415817482   0 0 0 0 0.0415817482   0 0 0 0 0.0415817482  0 0 0 0.1 0"/>
    </filter>
    <linearGradient id="ico-ecosystem-6-d" x1="90.897%" x2="0%" y1="86.127%" y2="10.674%">
      <stop offset="0%" stop-color="#1E85E9"/>
      <stop offset="20.276%" stop-color="#8671F3"/>
      <stop offset="70.727%" stop-color="#C06CFD" stop-opacity=".99"/>
      <stop offset="100%" stop-color="#FFBEE8"/>
    </linearGradient>
  </defs>
  <g fill="none" fill-rule="evenodd">
    <path fill="url(#ico-ecosystem-6-a)" fill-rule="nonzero" d="M65,0 C29.1014913,0 0,29.1014913 0,65 C0,100.898509 29.1014913,130 65,130 C100.898509,130 130,100.898509 130,65 C130,29.1014913 100.898509,0 65,0 Z M65,10 C95.3756612,10 120,34.6243388 120,65 C120,95.3756612 95.3756612,120 65,120 C34.6243388,120 10,95.3756612 10,65 C10,34.6243388 34.6243388,10 65,10 Z"/>
    <use fill="#000" filter="url(#ico-ecosystem-6-b)" xlink:href="#ico-ecosystem-6-c"/>
    <use fill="#FFF" xlink:href="#ico-ecosystem-6-c"/>
    <path fill="url(#ico-ecosystem-6-d)" fill-rule="nonzero" d="M53.1715729,28.6374969 C53.5196695,28.6374969 53.8552912,28.7584926 54.1222097,28.9771937 L54.232233,29.0768367 L62.232233,37.0768367 C62.8180195,37.6626232 62.8180195,38.6123706 62.232233,39.1981571 C61.9860916,39.4442986 61.6632143,39.596062 61.3198294,39.6301569 L61.1715729,39.6374969 L53.085,39.6369369 L53.0857864,55.6374969 L9.08578644,55.6374969 L9.085,39.6369369 L2,39.6374969 C1.17157288,39.6374969 0.5,38.965924 0.5,38.1374969 C0.5,37.7894002 0.620995746,37.4537786 0.839696766,37.1868601 L0.939339828,37.0768367 L8.93933983,29.0768367 C9.00281215,29.0133644 9.07138714,28.9561679 9.14410062,28.9056466 C9.21310629,28.7715203 9.34228032,28.6734373 9.49591081,28.6455526 L9.58578644,28.6374969 L53.1715729,28.6374969 Z M31.586,29.845 L31.585,54.6369369 L52.085,54.637 L52.085,39.6369369 L42,39.6374969 C41.6519034,39.6374969 41.3162817,39.5165011 41.0493632,39.2978001 L40.9393398,39.1981571 L31.586,29.845 Z M30.585,30.8449369 L22.232233,39.1981571 C21.9860916,39.4442986 21.6632143,39.596062 21.3198294,39.6301569 L21.1715729,39.6374969 L10.085,39.6369369 L10.085,54.637 L30.585,54.6369369 L30.585,30.8449369 Z M9.70649276,29.7327061 L9.64644661,29.7839435 L1.64644661,37.7839435 C1.55267842,37.8777117 1.5,38.0048886 1.5,38.1374969 C1.5,38.3829568 1.67687516,38.5871053 1.91012437,38.6294412 L2,38.6374969 L21.1715729,38.6374969 C21.2776595,38.6374969 21.38027,38.6037827 21.4650801,38.5422877 L21.5251263,38.4910503 L30.378,29.637 L10,29.6374969 C9.8939134,29.6374969 9.79130283,29.6712111 9.70649276,29.7327061 Z M53.1715729,29.6374969 L32.793,29.637 L41.6464466,38.4910503 C41.7214612,38.5660648 41.8178573,38.6147819 41.9213106,38.6312682 L42,38.6374969 L61.1715729,38.6374969 C61.3041811,38.6374969 61.4313581,38.5848185 61.5251263,38.4910503 C61.6986926,38.3174839 61.7179778,38.0480595 61.5829817,37.8531914 L61.5251263,37.7839435 L53.5251263,29.7839435 C53.4501117,29.708929 53.3537156,29.6602119 53.2502622,29.6437256 L53.1715729,29.6374969 Z M13.3202942,7.19481291 C13.7650564,6.49590085 14.6921876,6.2898717 15.3910997,6.73463392 C15.5763209,6.85250196 15.7334106,7.00959171 15.8512787,7.19481291 L15.8512787,7.19481291 L21.0296055,15.3321837 C21.4743677,16.0310957 21.2683386,16.9582269 20.5694265,17.4029891 C20.3287501,17.5561468 20.0493893,17.6374969 19.7641133,17.6374969 L19.7641133,17.6374969 L18.085,17.637 L18.0857864,24.1374969 C18.0857864,24.917193 17.4908984,25.5579456 16.7302464,25.6306303 L16.7302464,25.6306303 L16.5857864,25.6374969 L12.5857864,25.6374969 C11.7573593,25.6374969 11.0857864,24.965924 11.0857864,24.1374969 L11.0857864,24.1374969 L11.085,17.637 L9.4074596,17.6374969 C8.62776348,17.6374969 7.98701092,17.0426088 7.91432618,16.2819569 L7.91432618,16.2819569 L7.9074596,16.1374969 C7.9074596,15.8522209 7.98880966,15.5728601 8.14196737,15.3321837 L8.14196737,15.3321837 Z M29.3202942,1.19481291 C29.7650564,0.495900852 30.6921876,0.289871699 31.3910997,0.734633919 C31.5763209,0.852501958 31.7334106,1.00959171 31.8512787,1.19481291 L31.8512787,1.19481291 L37.0296055,9.33218365 C37.4743677,10.0310957 37.2683386,10.9582269 36.5694265,11.4029891 C36.3287501,11.5561468 36.0493893,11.6374969 35.7641133,11.6374969 L35.7641133,11.6374969 L34.085,11.637 L34.0857864,24.1374969 C34.0857864,24.917193 33.4908984,25.5579456 32.7302464,25.6306303 L32.7302464,25.6306303 L32.5857864,25.6374969 L28.5857864,25.6374969 C27.7573593,25.6374969 27.0857864,24.965924 27.0857864,24.1374969 L27.0857864,24.1374969 L27.085,11.637 L25.4074596,11.6374969 C24.6277635,11.6374969 23.9870109,11.0426088 23.9143262,10.2819569 L23.9143262,10.2819569 L23.9074596,10.1374969 C23.9074596,9.85222086 23.9888097,9.57286006 24.1419674,9.33218365 L24.1419674,9.33218365 Z M45.3202942,7.19481291 C45.7650564,6.49590085 46.6921876,6.2898717 47.3910997,6.73463392 C47.5763209,6.85250196 47.7334106,7.00959171 47.8512787,7.19481291 L47.8512787,7.19481291 L53.0296055,15.3321837 C53.4743677,16.0310957 53.2683386,16.9582269 52.5694265,17.4029891 C52.3287501,17.5561468 52.0493893,17.6374969 51.7641133,17.6374969 L51.7641133,17.6374969 L50.085,17.637 L50.0857864,24.1374969 C50.0857864,24.917193 49.4908984,25.5579456 48.7302464,25.6306303 L48.7302464,25.6306303 L48.5857864,25.6374969 L44.5857864,25.6374969 C43.7573593,25.6374969 43.0857864,24.965924 43.0857864,24.1374969 L43.0857864,24.1374969 L43.085,17.637 L41.4074596,17.6374969 C40.6277635,17.6374969 39.9870109,17.0426088 39.9143262,16.2819569 L39.9143262,16.2819569 L39.9074596,16.1374969 C39.9074596,15.8522209 39.9888097,15.5728601 40.1419674,15.3321837 L40.1419674,15.3321837 Z M14.7740747,7.53683964 C14.5545622,7.44733108 14.2957371,7.52460335 14.1639557,7.7316884 L14.1639557,7.7316884 L8.98562886,15.8690591 C8.93457629,15.9492846 8.9074596,16.0424049 8.9074596,16.1374969 C8.9074596,16.4136393 9.13131723,16.6374969 9.4074596,16.6374969 L9.4074596,16.6374969 L12.0857864,16.6374969 L12.0857864,24.1374969 C12.0857864,24.4136393 12.3096441,24.6374969 12.5857864,24.6374969 L12.5857864,24.6374969 L16.5857864,24.6374969 C16.8619288,24.6374969 17.0857864,24.4136393 17.0857864,24.1374969 L17.0857864,24.1374969 L17.0857864,16.6374969 L19.7641133,16.6374969 C19.8592053,16.6374969 19.9523256,16.6103802 20.032551,16.5593276 C20.2655217,16.4110736 20.3341981,16.1020298 20.185944,15.8690591 L20.185944,15.8690591 L15.0076172,7.7316884 C14.9683278,7.669948 14.9159646,7.61758475 14.8542242,7.57829541 L14.8542242,7.57829541 Z M30.7740747,1.53683964 C30.5545622,1.44733108 30.2957371,1.52460335 30.1639557,1.7316884 L30.1639557,1.7316884 L24.9856289,9.86905915 C24.9345763,9.94928461 24.9074596,10.0424049 24.9074596,10.1374969 C24.9074596,10.4136393 25.1313172,10.6374969 25.4074596,10.6374969 L25.4074596,10.6374969 L28.0857864,10.6374969 L28.0857864,24.1374969 C28.0857864,24.4136393 28.3096441,24.6374969 28.5857864,24.6374969 L28.5857864,24.6374969 L32.5857864,24.6374969 C32.8619288,24.6374969 33.0857864,24.4136393 33.0857864,24.1374969 L33.0857864,24.1374969 L33.0857864,10.6374969 L35.7641133,10.6374969 C35.8592053,10.6374969 35.9523256,10.6103802 36.032551,10.5593276 C36.2655217,10.4110736 36.3341981,10.1020298 36.185944,9.86905915 L36.185944,9.86905915 L31.0076172,1.7316884 C30.9683278,1.669948 30.9159646,1.61758475 30.8542242,1.57829541 L30.8542242,1.57829541 Z M46.7740747,7.53683964 C46.5545622,7.44733108 46.2957371,7.52460335 46.1639557,7.7316884 L46.1639557,7.7316884 L40.9856289,15.8690591 C40.9345763,15.9492846 40.9074596,16.0424049 40.9074596,16.1374969 C40.9074596,16.4136393 41.1313172,16.6374969 41.4074596,16.6374969 L41.4074596,16.6374969 L44.0857864,16.6374969 L44.0857864,24.1374969 C44.0857864,24.4136393 44.3096441,24.6374969 44.5857864,24.6374969 L44.5857864,24.6374969 L48.5857864,24.6374969 C48.8619288,24.6374969 49.0857864,24.4136393 49.0857864,24.1374969 L49.0857864,24.1374969 L49.0857864,16.6374969 L51.7641133,16.6374969 C51.8592053,16.6374969 51.9523256,16.6103802 52.032551,16.5593276 C52.2655217,16.4110736 52.3341981,16.1020298 52.185944,15.8690591 L52.185944,15.8690591 L47.0076172,7.7316884 C46.9683278,7.669948 46.9159646,7.61758475 46.8542242,7.57829541 L46.8542242,7.57829541 Z" transform="translate(34 37)"/>
  </g>
</svg>
