<svg xmlns="http://www.w3.org/2000/svg" xmlns:xlink="http://www.w3.org/1999/xlink" width="130" height="130" viewBox="0 0 130 130">
  <defs>
    <linearGradient id="ico-ecosystem-2-a" x1="100%" x2="0%" y1="100%" y2="0%">
      <stop offset="0%" stop-color="#1E85E9"/>
      <stop offset="20.276%" stop-color="#8671F3"/>
      <stop offset="70.727%" stop-color="#C06CFD" stop-opacity=".99"/>
      <stop offset="100%" stop-color="#FFBEE8"/>
    </linearGradient>
    <circle id="ico-ecosystem-2-c" cx="65" cy="65" r="45"/>
    <filter id="ico-ecosystem-2-b" width="137.8%" height="137.8%" x="-18.9%" y="-14.4%" filterUnits="objectBoundingBox">
      <feOffset dy="4" in="SourceAlpha" result="shadowOffsetOuter1"/>
      <feGaussianBlur in="shadowOffsetOuter1" result="shadowBlurOuter1" stdDeviation="5"/>
      <feColorMatrix in="shadowBlurOuter1" values="0 0 0 0 0.0415817482   0 0 0 0 0.0415817482   0 0 0 0 0.0415817482  0 0 0 0.1 0"/>
    </filter>
    <linearGradient id="ico-ecosystem-2-d" x1="77.378%" x2="16.529%" y1="95.932%" y2="0%">
      <stop offset="0%" stop-color="#1E85E9"/>
      <stop offset="20.276%" stop-color="#8671F3"/>
      <stop offset="70.727%" stop-color="#C06CFD" stop-opacity=".99"/>
      <stop offset="100%" stop-color="#FFBEE8"/>
    </linearGradient>
  </defs>
  <g fill="none" fill-rule="evenodd">
    <path fill="url(#ico-ecosystem-2-a)" fill-rule="nonzero" d="M65,0 C29.1014913,0 0,29.1014913 0,65 C0,100.898509 29.1014913,130 65,130 C100.898509,130 130,100.898509 130,65 C130,29.1014913 100.898509,0 65,0 Z M65,10 C95.3756612,10 120,34.6243388 120,65 C120,95.3756612 95.3756612,120 65,120 C34.6243388,120 10,95.3756612 10,65 C10,34.6243388 34.6243388,10 65,10 Z"/>
    <use fill="#000" filter="url(#ico-ecosystem-2-b)" xlink:href="#ico-ecosystem-2-c"/>
    <use fill="#FFF" xlink:href="#ico-ecosystem-2-c"/>
    <path fill="url(#ico-ecosystem-2-d)" fill-rule="nonzero" d="M44,0.5 C44.8284271,0.5 45.5,1.17157288 45.5,2 L45.5,2 L45.5,54 C45.5,54.8284271 44.8284271,55.5 44,55.5 L44,55.5 L5,55.5 C2.51471863,55.5 0.5,53.4852814 0.5,51 L0.5,51 L0.5,2 C0.5,1.17157288 1.17157288,0.5 2,0.5 L2,0.5 Z M44,46.5 L5.5,46.5 C3.290861,46.5 1.5,48.290861 1.5,50.5 C1.5,52.709139 3.290861,54.5 5.5,54.5 L5.5,54.5 L44,54.5 C44.2761424,54.5 44.5,54.2761424 44.5,54 L44.5,54 L44.5,52.5 L24,52.5 C23.7238576,52.5 23.5,52.2761424 23.5,52 C23.5,51.7545401 23.6768752,51.5503916 23.9101244,51.5080557 L24,51.5 L44.5,51.5 L44.5,49.5 L6,49.5 C5.72385763,49.5 5.5,49.2761424 5.5,49 C5.5,48.7545401 5.67687516,48.5503916 5.91012437,48.5080557 L6,48.5 L44.5,48.5 L44.5,47 C44.5,46.7545401 44.3231248,46.5503916 44.0898756,46.5080557 L44,46.5 Z M25.5,1.5 L2,1.5 C1.72385763,1.5 1.5,1.72385763 1.5,2 L1.5,2 L1.49977979,47.4998057 C2.41199508,46.2854695 3.86426942,45.5 5.5,45.5 L5.5,45.5 L44,45.5 C44.1755804,45.5 44.3441149,45.5301673 44.500703,45.5856015 L44.5,2 C44.5,1.72385763 44.2761424,1.5 44,1.5 L44,1.5 L38.5,1.5 L38.5,13.5857864 C38.5,14.3654826 37.9051119,15.0062351 37.14446,15.0789199 L37,15.0857864 C36.6021753,15.0857864 36.2206444,14.9277512 35.9393398,14.6464466 L35.9393398,14.6464466 L32.3535534,11.0606602 C32.1582912,10.865398 31.8417088,10.865398 31.6464466,11.0606602 L31.6464466,11.0606602 L28.0606602,14.6464466 C27.4748737,15.232233 26.5251263,15.232233 25.9393398,14.6464466 C25.6580353,14.365142 25.5,13.9836112 25.5,13.5857864 L25.5,13.5857864 L25.5,1.5 Z M23,20.5 C28.2467051,20.5 32.5,24.7532949 32.5,30 C32.5,35.2467051 28.2467051,39.5 23,39.5 C17.7532949,39.5 13.5,35.2467051 13.5,30 C13.5,24.7532949 17.7532949,20.5 23,20.5 Z M23,21.5 C18.3055796,21.5 14.5,25.3055796 14.5,30 C14.5,34.6944204 18.3055796,38.5 23,38.5 C27.6944204,38.5 31.5,34.6944204 31.5,30 C31.5,25.3055796 27.6944204,21.5 23,21.5 Z M27.3535534,27.6464466 C27.5271197,27.820013 27.5464049,28.0894374 27.4114088,28.2843055 L27.3535534,28.3535534 L22,33.7071068 L18.6464466,30.3535534 C18.4511845,30.1582912 18.4511845,29.8417088 18.6464466,29.6464466 C18.820013,29.4728803 19.0894374,29.4535951 19.2843055,29.5885912 L19.3535534,29.6464466 L22,32.293 L26.6464466,27.6464466 C26.8417088,27.4511845 27.1582912,27.4511845 27.3535534,27.6464466 Z M37.5,1.5 L26.5,1.5 L26.5,13.5857864 C26.5,13.691873 26.5337142,13.7944836 26.5952092,13.8792937 L26.5952092,13.8792937 L26.6464466,13.9393398 C26.8417088,14.134602 27.1582912,14.134602 27.3535534,13.9393398 L27.3535534,13.9393398 L30.9393398,10.3535534 C31.5251263,9.76776695 32.4748737,9.76776695 33.0606602,10.3535534 L33.0606602,10.3535534 L36.6464466,13.9393398 C36.7402148,14.033108 36.8673918,14.0857864 37,14.0857864 C37.2761424,14.0857864 37.5,13.8619288 37.5,13.5857864 L37.5,13.5857864 L37.5,1.5 Z" transform="translate(42 37)"/>
  </g>
</svg>
