<svg xmlns="http://www.w3.org/2000/svg" xmlns:xlink="http://www.w3.org/1999/xlink" width="130" height="130" viewBox="0 0 130 130">
  <defs>
    <linearGradient id="ico-ecosystem-3-a" x1="100%" x2="0%" y1="100%" y2="0%">
      <stop offset="0%" stop-color="#1E85E9"/>
      <stop offset="20.276%" stop-color="#8671F3"/>
      <stop offset="70.727%" stop-color="#C06CFD" stop-opacity=".99"/>
      <stop offset="100%" stop-color="#FFBEE8"/>
    </linearGradient>
    <circle id="ico-ecosystem-3-c" cx="65" cy="65" r="45"/>
    <filter id="ico-ecosystem-3-b" width="137.8%" height="137.8%" x="-18.9%" y="-14.4%" filterUnits="objectBoundingBox">
      <feOffset dy="4" in="SourceAlpha" result="shadowOffsetOuter1"/>
      <feGaussianBlur in="shadowOffsetOuter1" result="shadowBlurOuter1" stdDeviation="5"/>
      <feColorMatrix in="shadowBlurOuter1" values="0 0 0 0 0.0415817482   0 0 0 0 0.0415817482   0 0 0 0 0.0415817482  0 0 0 0.1 0"/>
    </filter>
    <linearGradient id="ico-ecosystem-3-d" x1="90.897%" x2="0%" y1="93.998%" y2="2.105%">
      <stop offset="0%" stop-color="#1E85E9"/>
      <stop offset="20.276%" stop-color="#8671F3"/>
      <stop offset="70.727%" stop-color="#C06CFD" stop-opacity=".99"/>
      <stop offset="100%" stop-color="#FFBEE8"/>
    </linearGradient>
  </defs>
  <g fill="none" fill-rule="evenodd">
    <path fill="url(#ico-ecosystem-3-a)" fill-rule="nonzero" d="M65,0 C29.1014913,0 0,29.1014913 0,65 C0,100.898509 29.1014913,130 65,130 C100.898509,130 130,100.898509 130,65 C130,29.1014913 100.898509,0 65,0 Z M65,10 C95.3756612,10 120,34.6243388 120,65 C120,95.3756612 95.3756612,120 65,120 C34.6243388,120 10,95.3756612 10,65 C10,34.6243388 34.6243388,10 65,10 Z"/>
    <use fill="#000" filter="url(#ico-ecosystem-3-b)" xlink:href="#ico-ecosystem-3-c"/>
    <use fill="#FFF" xlink:href="#ico-ecosystem-3-c"/>
    <path fill="url(#ico-ecosystem-3-d)" fill-rule="nonzero" d="M23,7.5 C23.0516188,7.5 23.1014106,7.50782206 23.1482548,7.52234552 C23.6141385,7.56923188 24.0519948,7.83320872 24.3023647,8.27135603 L24.3023647,8.27135603 L34.9924908,26.9790766 C35.3658411,27.6324398 35.1973108,28.4613102 34.598466,28.9169823 C30.6379994,31.9307412 28.6222994,35.1794986 28.5053991,38.676255 C31.28826,39.3361161 33.3860834,41.7876462 33.4957769,44.7658642 L33.4957769,44.7658642 L33.5092837,45.5 L12.5,45.5 L12.5,45 C12.5,41.9285081 14.6304001,39.3545979 17.4941537,38.6753157 C17.3777003,35.1794943 15.3619958,31.9307335 11.4015201,28.9169718 C10.8026576,28.4612616 10.6341385,27.6323619 11.0075289,26.9790422 L11.0075289,26.9790422 L21.6976353,8.27135603 C21.8305192,8.03880911 22.0232447,7.84608368 22.2557916,7.71319972 L22.2557916,7.71319972 L22.3846248,7.64748935 C22.5357022,7.5793181 22.6932687,7.53822279 22.851349,7.52257377 C22.8978931,7.50793184 22.9480203,7.5 23,7.5 Z M27,39.5 L19,39.5 C16.1846948,39.5 13.8634354,41.6152615 13.5388119,44.3431942 L13.5388119,44.3431942 L13.523,44.5 L32.476,44.5 L32.4627324,44.3558215 C32.1518833,41.6876225 29.9339497,39.6117753 27.2210238,39.5043679 L27.2210238,39.5043679 L27,39.5 Z M22.5,8.881 L11.8757535,27.4752136 C11.7512923,27.6929829 11.8074631,27.9692717 12.0070873,28.1211776 C16.0793679,31.2200183 18.2510807,34.6309566 18.4798134,38.3419976 L18.4798134,38.3419976 L18.486,38.5 L27.513,38.5 L27.5201866,38.3419983 C27.7421913,34.7401096 29.7945605,31.4209289 33.6385233,28.3954177 L33.6385233,28.3954177 L33.9929089,28.1211805 C34.1925225,27.9692908 34.2486985,27.6930046 34.1242476,27.4752156 L34.1242476,27.4752156 L23.5,8.883 L23.5009499,24.5355804 C25.1346576,24.7697216 26.4042014,26.132103 26.4948211,27.8079648 L26.5,28 C26.5,29.9329966 24.9329966,31.5 23,31.5 C21.0670034,31.5 19.5,29.9329966 19.5,28 C19.5,26.2367468 20.8038784,24.7780307 22.5000497,24.5354373 L22.5,8.881 Z M23,25.5 C21.6192881,25.5 20.5,26.6192881 20.5,28 C20.5,29.3807119 21.6192881,30.5 23,30.5 C24.3807119,30.5 25.5,29.3807119 25.5,28 C25.5,26.6192881 24.3807119,25.5 23,25.5 Z M5,-0.5 C5.82842712,-0.5 6.5,0.171572875 6.5,1 L6.5,1 L6.5,2.5 L19.5354373,2.50004975 C19.7691658,0.865860323 21.1317612,-0.404182882 22.8079648,-0.494821137 L23,-0.5 C24.7632532,-0.5 26.2219693,0.803878424 26.4645627,2.50004975 L39.5,2.5 L39.5,1 C39.5,0.220303883 40.0948881,-0.420448678 40.85554,-0.493133422 L41,-0.5 L45,-0.5 C45.8284271,-0.5 46.5,0.171572875 46.5,1 L46.5,1 L46.5,5 C46.5,5.82842712 45.8284271,6.5 45,6.5 L45,6.5 L41,6.5 C40.1715729,6.5 39.5,5.82842712 39.5,5 L39.5,5 L39.5,3.5 L29.1787465,3.49982888 C33.8131539,5.0477475 37.7274698,8.30402376 40.0991608,12.6187653 C40.3866455,12.5406744 40.6885728,12.5 41,12.5 C42.9329966,12.5 44.5,14.0670034 44.5,16 C44.5,17.9329966 42.9329966,19.5 41,19.5 C39.0670034,19.5 37.5,17.9329966 37.5,16 C37.5,14.7361824 38.1698484,13.6288162 39.1738799,13.013567 C36.5075855,8.22196553 31.828146,4.82144533 26.4034766,3.81233689 C26.038474,5.35398509 24.6530701,6.5 23,6.5 C21.3469299,6.5 19.961526,5.35398509 19.594939,3.81310613 C14.1723304,4.82144998 9.49293313,8.2213198 6.82506873,13.0138988 C7.82970507,13.6280783 8.5,14.7357612 8.5,16 C8.5,17.9329966 6.93299662,19.5 5,19.5 C3.06700338,19.5 1.5,17.9329966 1.5,16 C1.5,14.0670034 3.06700338,12.5 5,12.5 C5.3117852,12.5 5.61404853,12.5407679 5.90175013,12.6172639 L5.76104844,12.8776848 C8.11730716,8.43392633 12.0948044,5.07861798 16.8207179,3.49999502 L6.5,3.5 L6.5,5 C6.5,5.77969612 5.90511192,6.42044868 5.14446001,6.49313342 L5,6.5 L1,6.5 C0.171572875,6.5 -0.5,5.82842712 -0.5,5 L-0.5,5 L-0.5,1 C-0.5,0.171572875 0.171572875,-0.5 1,-0.5 L1,-0.5 Z M5,13.5 C3.61928813,13.5 2.5,14.6192881 2.5,16 C2.5,17.3807119 3.61928813,18.5 5,18.5 C6.38071187,18.5 7.5,17.3807119 7.5,16 C7.5,14.6192881 6.38071187,13.5 5,13.5 Z M41,13.5 C39.6192881,13.5 38.5,14.6192881 38.5,16 C38.5,17.3807119 39.6192881,18.5 41,18.5 C42.3807119,18.5 43.5,17.3807119 43.5,16 C43.5,14.6192881 42.3807119,13.5 41,13.5 Z M23,0.5 C21.6192881,0.5 20.5,1.61928813 20.5,3 C20.5,4.38071187 21.6192881,5.5 23,5.5 C24.3807119,5.5 25.5,4.38071187 25.5,3 C25.5,1.61928813 24.3807119,0.5 23,0.5 Z M5,0.5 L1,0.5 C0.723857625,0.5 0.5,0.723857625 0.5,1 L0.5,1 L0.5,5 C0.5,5.27614237 0.723857625,5.5 1,5.5 L1,5.5 L5,5.5 C5.27614237,5.5 5.5,5.27614237 5.5,5 L5.5,5 L5.5,1 C5.5,0.723857625 5.27614237,0.5 5,0.5 L5,0.5 Z M45,0.5 L41,0.5 C40.7238576,0.5 40.5,0.723857625 40.5,1 L40.5,1 L40.5,5 C40.5,5.27614237 40.7238576,5.5 41,5.5 L41,5.5 L45,5.5 C45.2761424,5.5 45.5,5.27614237 45.5,5 L45.5,5 L45.5,1 C45.5,0.723857625 45.2761424,0.5 45,0.5 L45,0.5 Z" transform="translate(42 41)"/>
  </g>
</svg>
