<svg xmlns="http://www.w3.org/2000/svg" xmlns:xlink="http://www.w3.org/1999/xlink" width="130" height="130" viewBox="0 0 130 130">
  <defs>
    <linearGradient id="ico-ecosystem-5-a" x1="100%" x2="0%" y1="100%" y2="0%">
      <stop offset="0%" stop-color="#1E85E9"/>
      <stop offset="20.276%" stop-color="#8671F3"/>
      <stop offset="70.727%" stop-color="#C06CFD" stop-opacity=".99"/>
      <stop offset="100%" stop-color="#FFBEE8"/>
    </linearGradient>
    <circle id="ico-ecosystem-5-c" cx="65" cy="65" r="45"/>
    <filter id="ico-ecosystem-5-b" width="137.8%" height="137.8%" x="-18.9%" y="-14.4%" filterUnits="objectBoundingBox">
      <feOffset dy="4" in="SourceAlpha" result="shadowOffsetOuter1"/>
      <feGaussianBlur in="shadowOffsetOuter1" result="shadowBlurOuter1" stdDeviation="5"/>
      <feColorMatrix in="shadowBlurOuter1" values="0 0 0 0 0.0415817482   0 0 0 0 0.0415817482   0 0 0 0 0.0415817482  0 0 0 0.1 0"/>
    </filter>
    <linearGradient id="ico-ecosystem-5-d" x1="100%" x2="0%" y1="96.549%" y2="3.451%">
      <stop offset="0%" stop-color="#1E85E9"/>
      <stop offset="20.276%" stop-color="#8671F3"/>
      <stop offset="70.727%" stop-color="#C06CFD" stop-opacity=".99"/>
      <stop offset="100%" stop-color="#FFBEE8"/>
    </linearGradient>
  </defs>
  <g fill="none" fill-rule="evenodd">
    <path fill="url(#ico-ecosystem-5-a)" fill-rule="nonzero" d="M65,0 C29.1014913,0 0,29.1014913 0,65 C0,100.898509 29.1014913,130 65,130 C100.898509,130 130,100.898509 130,65 C130,29.1014913 100.898509,0 65,0 Z M65,10 C95.3756612,10 120,34.6243388 120,65 C120,95.3756612 95.3756612,120 65,120 C34.6243388,120 10,95.3756612 10,65 C10,34.6243388 34.6243388,10 65,10 Z"/>
    <use fill="#000" filter="url(#ico-ecosystem-5-b)" xlink:href="#ico-ecosystem-5-c"/>
    <use fill="#FFF" xlink:href="#ico-ecosystem-5-c"/>
    <path fill="url(#ico-ecosystem-5-d)" fill-rule="nonzero" d="M26,0 C28.419893,0 30.4115038,1.83369385 30.661135,4.18738399 L47.875,4.1875 C48.1511424,4.1875 48.375,4.41135763 48.375,4.6875 C48.375,4.93295989 48.1981248,5.13710837 47.9648756,5.17944433 L47.875,5.1875 L43.815,5.187 L48.273,24.5 L51.5,24.5 L51.5,25 C51.5,29.590867 47.778367,33.3125 43.1875,33.3125 C38.596633,33.3125 34.875,29.590867 34.875,25 L34.875,25 L34.875,24.5 L38.101,24.5 L42.559,5.187 L30.661135,5.18761601 C30.4288485,7.37776872 28.6882427,9.11767482 26.4977684,9.34888336 L26.5,9.375 L26.5,47.9199626 C26.5,48.0277896 26.4658681,48.1276447 26.407819,48.2093129 L36.9375,48.2083333 C37.2136424,48.2083333 37.4375,48.432191 37.4375,48.7083333 C37.4375,48.9537932 37.2606248,49.1579417 37.0273756,49.2002777 L36.9375,49.2083333 L15.0625,49.2083333 C14.7863576,49.2083333 14.5625,48.9844757 14.5625,48.7083333 C14.5625,48.4628734 14.7393752,48.258725 14.9726244,48.216389 L15.0625,48.2083333 L25.592181,48.2093129 C25.55065,48.1508836 25.5213613,48.0831451 25.5080557,48.0098382 L25.5,47.9199626 L25.5,9.375 L25.5022316,9.34888336 C23.3117573,9.11767482 21.5711515,7.37776872 21.338865,5.18761601 L9.44,5.187 L13.898,24.5 L17.125,24.5 L17.125,25 C17.125,29.590867 13.403367,33.3125 8.8125,33.3125 C4.22163302,33.3125 0.5,29.590867 0.5,25 L0.5,25 L0.5,24.5 L3.726,24.5 L8.184,5.187 L4.125,5.1875 C3.84885763,5.1875 3.625,4.96364237 3.625,4.6875 C3.625,4.44204011 3.80187516,4.23789163 4.03512437,4.19555567 L4.125,4.1875 L21.338865,4.18738399 C21.5884962,1.83369385 23.580107,0 26,0 Z M16.107,25.5 L1.517,25.5 L1.53481631,25.7181444 C1.88794619,29.3409105 4.88469014,32.1890346 8.57112274,32.3085914 L8.57112274,32.3085914 L8.8125,32.3125 C12.6087673,32.3125 15.7293771,29.4196663 16.0901837,25.7181444 L16.0901837,25.7181444 L16.107,25.5 Z M50.482,25.5 L35.892,25.5 L35.9098163,25.7181444 C36.2629462,29.3409105 39.2596901,32.1890346 42.9461227,32.3085914 L42.9461227,32.3085914 L43.1875,32.3125 C46.9837673,32.3125 50.1043771,29.4196663 50.4651837,25.7181444 L50.4651837,25.7181444 L50.482,25.5 Z M8.812,6.91 L4.753,24.5 L12.871,24.5 L8.812,6.91 Z M43.187,6.91 L39.128,24.5 L47.246,24.5 L43.187,6.91 Z M26,1 C24.0454838,1 22.4461288,2.52062556 22.3204535,4.44335809 C22.363029,4.51511791 22.3862305,4.59859946 22.3862305,4.6875 C22.3862305,4.77640054 22.363029,4.85988209 22.322351,4.93221983 C22.4461288,6.85437444 24.0454838,8.375 26,8.375 C28.03655,8.375 29.6875,6.72405001 29.6875,4.6875 C29.6875,2.65094999 28.03655,1 26,1 Z" transform="translate(39 40)"/>
  </g>
</svg>
