<svg xmlns="http://www.w3.org/2000/svg" width="35" height="35" viewBox="0 0 35 35">
  <defs>
    <linearGradient id="ico-quality-2-a" x1="100%" x2="0%" y1="100%" y2="0%">
      <stop offset="0%" stop-color="#1E85E9"/>
      <stop offset="20.276%" stop-color="#8671F3"/>
      <stop offset="70.727%" stop-color="#C06CFD" stop-opacity=".99"/>
      <stop offset="100%" stop-color="#FFBEE8"/>
    </linearGradient>
  </defs>
  <path fill="url(#ico-quality-2-a)" d="M53,118 C55.209139,118 57,119.790861 57,122 L57,149 C57,151.209139 55.209139,153 53,153 L26,153 C23.790861,153 22,151.209139 22,149 L22,122 C22,119.790861 23.790861,118 26,118 L53,118 Z M53,119 L26,119 C24.4023191,119 23.0963391,120.24892 23.0050927,121.823727 L23,122 L23,149 C23,150.597681 24.24892,151.903661 25.8237272,151.994907 L26,152 L53,152 C54.5976809,152 55.9036609,150.75108 55.9949073,149.176273 L56,149 L56,122 C56,120.402319 54.75108,119.096339 53.1762728,119.005093 L53,119 Z M39.832,133 C41.68,133 42.506,134.316 42.506,135.66 C42.506,135.87 42.492,136.08 42.464,136.262 C42.408,136.682 42.226,136.948 41.722,136.948 L41.722,136.948 L37.438,136.948 C37.55,138.544 38.418,139.412 39.874,139.412 C40.546,139.412 41.092,139.244 41.61,138.992 C41.862,138.866 42.058,138.866 42.17,139.062 C42.282,139.258 42.184,139.468 42.002,139.594 C41.428,139.972 40.644,140.14 39.874,140.14 C37.69,140.14 36.64,138.796 36.64,136.612 C36.64,134.554 37.802,133 39.832,133 Z M30.116,130.27 C33.42,130.27 35.072,131.894 35.072,135.128 C35.072,138.222 33.392,140.07 30.13,140.07 C28.926,140.07 28.366,140.028 27.694,139.916 C27.414,139.874 27.274,139.678 27.274,139.44 L27.274,139.44 L27.274,131.012 C27.274,130.76 27.414,130.522 27.694,130.466 C28.254,130.354 29.108,130.27 30.116,130.27 Z M49.8,130.34 C50.024,130.34 50.178,130.508 50.178,130.718 C50.178,130.942 50.024,131.096 49.8,131.096 L49.8,131.096 L45.334,131.096 L45.334,134.554 L49.002,134.554 C49.226,134.554 49.38,134.722 49.38,134.932 C49.38,135.156 49.226,135.31 49.002,135.31 L49.002,135.31 L45.334,135.31 L45.334,139.552 C45.334,139.79 45.194,140 44.914,140 C44.634,140 44.494,139.79 44.494,139.552 L44.494,139.552 L44.494,130.788 C44.494,130.55 44.634,130.34 44.914,130.34 L44.914,130.34 Z M52.138,133.14 C52.404,133.14 52.53,133.35 52.53,133.588 L52.53,133.588 L52.53,139.552 C52.53,139.79 52.404,140 52.138,140 C51.872,140 51.746,139.79 51.746,139.552 L51.746,139.552 L51.746,133.588 C51.746,133.35 51.872,133.14 52.138,133.14 Z M30.06,131.026 C29.178,131.026 28.674,131.082 28.114,131.152 L28.114,131.152 L28.114,139.202 C28.856,139.286 29.22,139.314 30.046,139.314 C32.902,139.314 34.204,137.774 34.204,135.128 C34.204,132.482 32.93,131.026 30.06,131.026 Z M39.776,133.728 C38.418,133.728 37.55,134.624 37.438,136.248 L37.438,136.248 L41.736,136.248 C41.764,136.066 41.764,135.884 41.764,135.716 C41.736,134.568 41.12,133.728 39.776,133.728 Z M52.138,130.746 C52.502,130.746 52.74,130.984 52.74,131.348 C52.74,131.712 52.502,131.936 52.138,131.936 C51.774,131.936 51.55,131.712 51.55,131.348 C51.55,130.984 51.774,130.746 52.138,130.746 Z" transform="translate(-22 -118)"/>
</svg>
