<svg xmlns="http://www.w3.org/2000/svg" width="42" height="24" viewBox="0 0 42 24">
  <defs>
    <linearGradient id="ico-cards-2-a" x1="100%" x2="0%" y1="66.327%" y2="33.673%">
      <stop offset="0%" stop-color="#1E85E9"/>
      <stop offset="20.276%" stop-color="#8671F3"/>
      <stop offset="70.727%" stop-color="#C06CFD" stop-opacity=".99"/>
      <stop offset="100%" stop-color="#FFBEE8"/>
    </linearGradient>
  </defs>
  <path fill="url(#ico-cards-2-a)" d="M51,24 C62.4211724,24 71.7075693,33.2337339 71.9932277,44.7271848 L72,44.7272727 L71.999,45.179 L72,45.2727273 L71.999,45.272 L72,45.8181818 L52.935,45.818 L52.937034,45.8391306 L52.9501901,46.075137 C52.9501901,47.1382095 52.0770603,48 51,48 C49.9229397,48 49.0498099,47.1382095 49.0498099,46.075137 C49.0498099,46.0176665 49.0547641,45.9323791 49.0646997,45.8190449 L30,45.8181818 L30,44.7272727 C30.2923987,33.2337658 39.5788079,24 51,24 Z M51,40.0930909 L50.8827408,40.8494768 C50.4721045,43.5112177 50.2330375,45.1882387 50.1712155,45.8327863 L50.1641574,45.9109986 L50.1550731,46.075137 C50.1550731,46.535717 50.5333597,46.9090909 51,46.9090909 C51.4666403,46.9090909 51.8449269,46.535717 51.8449269,46.075137 C51.8449269,45.8535761 51.7364369,44.9984919 51.5221521,43.5325627 L51.4832395,43.267533 L51,40.0930909 Z M51,25.0909091 C40.1954459,25.0909091 31.3973005,33.8303531 31.1123845,44.7273788 L49.1939081,44.7284355 C49.2938873,43.9795057 49.446186,42.9343445 49.6517182,41.5852606 L49.7011333,41.2617479 L51,33.0357677 L51.5459168,36.4606833 C52.1859683,40.4761711 52.6034974,43.2108007 52.8061142,44.7286022 L70.8876117,44.7272331 C70.6026211,33.8302752 61.8045059,25.0909091 51,25.0909091 Z M69.1973596,38.3022735 L69.5389047,39.3534412 L65.3888399,40.701879 L65.0472948,39.6507113 L69.1973596,38.3022735 Z M32.8026404,38.3022735 L36.9527052,39.6507113 L36.6111601,40.701879 L32.4610953,39.3534412 L32.8026404,38.3022735 Z M51.5526316,25.6363636 L51.5526316,30 L50.4473684,30 L50.4473684,25.6363636 L51.5526316,25.6363636 Z" transform="translate(-30 -24)"/>
</svg>
