<svg xmlns="http://www.w3.org/2000/svg" xmlns:xlink="http://www.w3.org/1999/xlink" width="62" height="62" viewBox="0 0 62 62">
  <defs>
    <linearGradient id="icon-1-1-b" x1="100%" x2="0%" y1="100%" y2="0%">
      <stop offset="0%" stop-color="#1E85E9"/>
      <stop offset="20.276%" stop-color="#8671F3"/>
      <stop offset="70.727%" stop-color="#C06CFD" stop-opacity=".99"/>
      <stop offset="100%" stop-color="#FFBEE8"/>
    </linearGradient>
    <rect id="icon-1-1-a" width="60" height="60" x="0" y="0" rx="4"/>
  </defs>
  <g fill="none" fill-rule="evenodd" transform="translate(1 1)">
    <g opacity=".062">
      <use fill="#FAFAFA" xlink:href="#icon-1-1-a"/>
      <use fill="url(#icon-1-1-b)" stroke="#000" stroke-opacity=".02" xlink:href="#icon-1-1-a"/>
    </g>
    <path fill="url(#icon-1-1-b)" fill-rule="nonzero" d="M37.5,12 C39.9852814,12 42,14.0147186 42,16.5 L42,16.5 L42,19 L44.5,19 C46.9142733,19 48.8844891,20.9012365 48.995102,23.2881643 L49,23.5 L49,44.5 C49,46.9852814 46.9852814,49 44.5,49 L44.5,49 L23.5,49 C21.0147186,49 19,46.9852814 19,44.5 L19,44.5 L19,42 L16.5,42 C14.0857267,42 12.1155109,40.0987635 12.004898,37.7118357 L12,37.5 L12,16.5 C12,14.0147186 14.0147186,12 16.5,12 L16.5,12 Z M44.5,20 L42,20 L42,37.5 C42,39.9142733 40.0987635,41.8844891 37.7118357,41.995102 L37.5,42 L20,42 L20,44.5 C20,46.3685634 21.4642776,47.8951264 23.3079648,47.9948211 L23.5,48 L44.5,48 C46.4329966,48 48,46.4329966 48,44.5 L48,44.5 L48,23.5 C48,21.5670034 46.4329966,20 44.5,20 L44.5,20 Z M37.5,13 L16.5,13 C14.5670034,13 13,14.5670034 13,16.5 L13,16.5 L13,37.5 C13,39.4329966 14.5670034,41 16.5,41 L16.5,41 L19,41 L19,23.5 C19,21.0857267 20.9012365,19.1155109 23.2881643,19.004898 L23.5,19 L41,19 L41,16.5 C41,14.6314366 39.5357224,13.1048736 37.6920352,13.0051789 L37.5,13 Z M41,20.706 L20.706,41 L26.292,41 L41,26.291 L41,20.706 Z M41,27.707 L27.706,41 L33.292,41 L41,33.292 L41,27.707 Z M41,34.706 L34.706,41 L37.5,41 C39.3685634,41 40.8951264,39.5357224 40.9948211,37.6920352 L41,37.5 L41,34.706 Z M40.292,20 L34.706,20 L20,34.706 L20,40.292 L40.292,20 Z M33.292,20 L27.706,20 L20,27.706 L20,33.292 L33.292,20 Z M26.292,20 L23.5,20 C21.5670034,20 20,21.5670034 20,23.5 L20,23.5 L20,26.292 L26.292,20 Z"/>
  </g>
</svg>
