<svg xmlns="http://www.w3.org/2000/svg" width="27" height="32" viewBox="0 0 27 32">
  <defs>
    <linearGradient id="icon-18-7-a" x1="85.596%" x2="14.404%" y1="100%" y2="0%">
      <stop offset="0%" stop-color="#1E85E9"/>
      <stop offset="20.276%" stop-color="#8671F3"/>
      <stop offset="70.727%" stop-color="#C06CFD" stop-opacity=".99"/>
      <stop offset="100%" stop-color="#FFBEE8"/>
    </linearGradient>
  </defs>
  <path fill="url(#icon-18-7-a)" d="M1253.49996,2832 C1257.16251,2832 1260.15191,2834.79987 1260.32389,2838.31654 L1263.47526,2838.31667 C1264.35328,2838.31667 1265.08391,2838.97207 1265.15375,2839.82232 L1265.15375,2839.82232 L1266.99458,2862.23413 C1267.06855,2863.13467 1266.37703,2863.92296 1265.45002,2863.99482 C1265.40547,2863.99827 1265.36079,2864 1265.31609,2864 L1265.31609,2864 L1241.68382,2864 C1240.75387,2864 1240,2863.26764 1240,2862.36424 C1240,2862.32081 1240.00178,2862.27741 1240.00533,2862.23413 L1240.00533,2862.23413 L1241.84616,2839.82232 C1241.916,2838.97207 1242.64664,2838.31667 1243.52465,2838.31667 L1243.52465,2838.31667 L1246.67603,2838.31654 C1246.848,2834.79987 1249.8374,2832 1253.49996,2832 Z M1263.47526,2839.30202 L1243.52465,2839.30202 C1243.17554,2839.30202 1242.88502,2839.56262 1242.85725,2839.9007 L1242.85725,2839.9007 L1241.01642,2862.3125 L1241.0143,2862.36424 C1241.0143,2862.72345 1241.31406,2863.01464 1241.68382,2863.01464 L1241.68382,2863.01464 L1265.34274,2863.01413 L1265.36935,2863.01258 C1265.73794,2862.98401 1266.0129,2862.67058 1265.98349,2862.3125 L1265.98349,2862.3125 L1264.14266,2839.9007 C1264.11489,2839.56262 1263.82438,2839.30202 1263.47526,2839.30202 L1263.47526,2839.30202 Z M1253.49996,2832.98536 C1250.39779,2832.98536 1247.86275,2835.3442 1247.69171,2838.31628 L1259.30821,2838.31639 C1259.13723,2835.34425 1256.60216,2832.98536 1253.49996,2832.98536 Z" transform="translate(-1240 -2832)"/>
</svg>
