<svg xmlns="http://www.w3.org/2000/svg" width="37" height="37" viewBox="0 0 37 37">
  <defs>
    <linearGradient id="icon-22-7-a" x1="100%" x2="0%" y1="100%" y2="0%">
      <stop offset="0%" stop-color="#1E85E9"/>
      <stop offset="20.276%" stop-color="#8671F3"/>
      <stop offset="70.727%" stop-color="#C06CFD" stop-opacity=".99"/>
      <stop offset="100%" stop-color="#FFBEE8"/>
    </linearGradient>
  </defs>
  <path fill="url(#icon-22-7-a)" d="M1239,3394 L1239.01163,3394.00013 C1239.03388,3394.00064 1239.05611,3394.00259 1239.07813,3394.00599 L1239,3394 C1239.03357,3394 1239.06637,3394.00331 1239.09808,3394.00962 C1239.12052,3394.01386 1239.14268,3394.01976 1239.1644,3394.02718 C1239.16918,3394.02931 1239.17445,3394.03124 1239.17968,3394.03325 C1239.2019,3394.04112 1239.22297,3394.05085 1239.24337,3394.0621 C1239.24744,3394.06539 1239.25203,3394.06804 1239.25658,3394.07076 C1239.27514,3394.08069 1239.2926,3394.09265 1239.30936,3394.10584 C1239.31524,3394.1118 1239.32146,3394.11693 1239.32755,3394.12222 C1239.34147,3394.13303 1239.35441,3394.14561 1239.36675,3394.15905 C1239.37463,3394.16863 1239.38256,3394.17781 1239.39016,3394.18728 C1239.39339,3394.19056 1239.39618,3394.1942 1239.39894,3394.19789 L1239.41546,3394.22171 C1239.424,3394.23443 1239.43196,3394.24756 1239.43932,3394.26107 L1239.44721,3394.27639 L1241.94721,3399.27639 C1242.07071,3399.52338 1241.9706,3399.82372 1241.72361,3399.94721 C1241.50406,3400.05699 1241.24236,3399.99008 1241.10019,3399.80039 L1241.05279,3399.72361 L1239.5,3396.617 L1239.5,3402.5 L1264.0283,3402.5 C1264.25987,3402.5 1264.45246,3402.66686 1264.4924,3402.88691 L1264.5,3402.9717 L1264.5,3426.5 L1269.382,3426.5 L1266.27645,3424.94727 C1266.0569,3424.8375 1265.95341,3424.588 1266.01985,3424.36044 L1266.05284,3424.27645 C1266.16261,3424.0569 1266.41211,3423.95341 1266.63967,3424.01985 L1266.72366,3424.05284 L1271.72366,3426.55284 L1271.73893,3426.56068 C1271.75244,3426.56804 1271.76557,3426.576 1271.77829,3426.58454 L1271.72366,3426.55284 C1271.75637,3426.5692 1271.78618,3426.58824 1271.81308,3426.6095 C1271.82219,3426.61744 1271.83137,3426.62537 1271.84025,3426.63362 C1271.85444,3426.64564 1271.86703,3426.65858 1271.87876,3426.67204 C1271.88307,3426.67854 1271.8882,3426.68476 1271.89319,3426.6911 C1271.9074,3426.70745 1271.91936,3426.72492 1271.93009,3426.74296 C1271.93196,3426.74797 1271.93461,3426.75256 1271.9372,3426.7572 C1271.94921,3426.77708 1271.95893,3426.79816 1271.96713,3426.81972 C1271.96876,3426.82555 1271.97069,3426.83082 1271.97253,3426.83613 C1271.98029,3426.85738 1271.98619,3426.87954 1271.99058,3426.90196 C1271.99182,3426.90915 1271.99311,3426.91645 1271.99423,3426.92379 C1271.99718,3426.94263 1271.99895,3426.96146 1271.99968,3426.98033 C1271.99986,3426.9864 1272,3426.99318 1272,3427 L1271.99964,3427.02079 C1271.9989,3427.03898 1271.99719,3427.05715 1271.99452,3427.07518 L1272,3427 C1272,3427.03357 1271.99669,3427.06637 1271.99038,3427.09808 C1271.97578,3427.17387 1271.94366,3427.24661 1271.89421,3427.30942 C1271.8882,3427.31524 1271.88307,3427.32146 1271.87778,3427.32755 C1271.86703,3427.34153 1271.85444,3427.35447 1271.84101,3427.36681 C1271.83137,3427.37463 1271.82219,3427.38256 1271.81272,3427.39016 C1271.80949,3427.39344 1271.80585,3427.39624 1271.80216,3427.39899 L1271.77829,3427.41546 C1271.76557,3427.424 1271.75244,3427.43196 1271.73893,3427.43932 L1271.72366,3427.44727 L1266.72366,3429.94727 C1266.47667,3430.07076 1266.17634,3429.97065 1266.05284,3429.72366 C1265.94307,3429.50412 1266.00997,3429.24242 1266.19966,3429.10024 L1266.27645,3429.05284 L1269.382,3427.5 L1242.96896,3427.50076 C1242.73066,3429.40879 1241.14848,3430.89931 1239.19964,3430.9951 L1239,3431 C1236.79086,3431 1235,3429.20914 1235,3427 C1235,3424.96011 1236.52697,3423.27686 1238.50024,3423.03092 L1238.5,3396.617 L1236.94721,3399.72361 C1236.83744,3399.94315 1236.58794,3400.04665 1236.36038,3399.9802 L1236.27639,3399.94721 C1236.05685,3399.83744 1235.95335,3399.58794 1236.0198,3399.36038 L1236.05279,3399.27639 L1238.55279,3394.27639 L1238.56068,3394.26107 C1238.56804,3394.24756 1238.576,3394.23443 1238.58454,3394.22171 L1238.55279,3394.27639 C1238.56914,3394.24368 1238.58819,3394.21388 1238.60945,3394.18698 C1238.61744,3394.17781 1238.62537,3394.16863 1238.63362,3394.15975 C1238.64559,3394.14561 1238.65853,3394.13303 1238.67199,3394.12129 C1238.67854,3394.11693 1238.68476,3394.1118 1238.6911,3394.10681 C1238.7074,3394.09265 1238.72486,3394.08069 1238.7429,3394.06996 C1238.74797,3394.06804 1238.75256,3394.06539 1238.7572,3394.0628 C1238.77703,3394.05085 1238.7981,3394.04112 1238.81967,3394.03293 C1238.82555,3394.03124 1238.83082,3394.02931 1238.83613,3394.02747 C1238.85732,3394.01976 1238.87948,3394.01386 1238.90191,3394.00948 C1238.90851,3394.00831 1238.91515,3394.00712 1238.92183,3394.00607 C1238.94423,3394.00254 1238.96679,3394.00058 1238.98938,3394.00011 C1238.99251,3394.00004 1238.99625,3394 1239,3394 Z M1239,3424 C1237.34315,3424 1236,3425.34315 1236,3427 C1236,3428.65685 1237.34315,3430 1239,3430 C1240.65685,3430 1242,3428.65685 1242,3427 C1242,3425.34315 1240.65685,3424 1239,3424 Z M1263.5566,3403.4434 L1239.5,3403.4434 L1239.5,3409.5 L1257.03846,3409.5 C1257.26504,3409.5 1257.45348,3409.66327 1257.49256,3409.87858 L1257.5,3409.96154 L1257.5,3426.5 L1263.556,3426.5 L1263.5566,3403.4434 Z M1256.57692,3410.42308 L1239.5,3410.42308 L1239.5,3416.5 L1250.09259,3416.5 C1250.2926,3416.5 1250.45894,3416.64412 1250.49344,3416.83418 L1250.5,3416.90741 L1250.5,3426.5 L1256.576,3426.5 L1256.57692,3410.42308 Z M1249.68519,3417.31481 L1239.5,3417.31481 L1239.50076,3423.03104 C1241.30984,3423.25698 1242.74359,3424.69102 1242.96908,3426.50024 L1249.685,3426.5 L1249.68519,3417.31481 Z" transform="translate(-1235 -3394)"/>
</svg>
