<svg xmlns="http://www.w3.org/2000/svg" width="52" height="43" viewBox="0 0 52 43">
  <defs>
    <linearGradient id="icon-27-3-a" x1="100%" x2="0%" y1="83.666%" y2="16.334%">
      <stop offset="0%" stop-color="#1E85E9"/>
      <stop offset="20.276%" stop-color="#8671F3"/>
      <stop offset="70.727%" stop-color="#C06CFD" stop-opacity=".99"/>
      <stop offset="100%" stop-color="#FFBEE8"/>
    </linearGradient>
  </defs>
  <path fill="url(#icon-27-3-a)" d="M690.233524,4096.45215 C691.088414,4095.75269 692.348459,4095.8787 693.047915,4096.73358 C693.340271,4097.09091 693.5,4097.53838 693.5,4098.00006 L693.5,4098.00006 L693.5,4136.66933 C693.5,4137.7739 692.604569,4138.66933 691.5,4138.66933 C691.038315,4138.66933 690.590849,4138.5096 690.233524,4138.21725 L690.233524,4138.21725 L677.283668,4127.62191 C677.005683,4127.39447 676.76765,4127.12844 676.574772,4126.83482 L670.5,4126.8347 C668.567003,4126.8347 667,4125.26769 667,4123.3347 L667,4123.3347 L667,4111.3347 C667,4109.4017 668.567003,4107.8347 670.5,4107.8347 L670.5,4107.8347 L676.574772,4107.83457 C676.76765,4107.54095 677.005683,4107.27492 677.283668,4107.04748 L677.283668,4107.04748 Z M692.273957,4097.36682 C691.92423,4096.93938 691.294207,4096.87638 690.866762,4097.2261 L690.866762,4097.2261 L677.916906,4107.82144 C677.336567,4108.29626 677,4109.0065 677,4109.75633 L677,4109.75633 L677,4124.91306 C677,4125.66289 677.336567,4126.37313 677.916906,4126.84795 L677.916906,4126.84795 L690.866762,4137.44329 C691.045424,4137.58947 691.269158,4137.66933 691.5,4137.66933 C692.052285,4137.66933 692.5,4137.22162 692.5,4136.66933 L692.5,4136.66933 L692.5,4098.00006 C692.5,4097.76922 692.420135,4097.54548 692.273957,4097.36682 Z M706.896958,4097.41301 C714.369522,4101.69991 719,4109.14849 719,4117.32232 C719,4125.50605 714.358226,4132.96242 706.870963,4137.24652 C706.631283,4137.38366 706.325808,4137.30053 706.188666,4137.06085 C706.051525,4136.82117 706.134649,4136.5157 706.37433,4136.37856 C713.560056,4132.26699 718,4125.13484 718,4117.32232 C718,4109.51927 713.570896,4102.39462 706.399344,4098.28041 C706.159818,4098.143 706.077039,4097.83743 706.214451,4097.5979 C706.351864,4097.35838 706.657432,4097.2756 706.896958,4097.41301 Z M702.413836,4103.21994 C707.901712,4105.71753 711.5,4111.19876 711.5,4117.3347 C711.5,4123.48513 707.884651,4128.97694 702.377114,4131.46611 C702.125478,4131.57984 701.829292,4131.46804 701.715563,4131.21641 C701.601835,4130.96477 701.71363,4130.66859 701.965266,4130.55486 C707.117929,4128.22607 710.5,4123.08862 710.5,4117.3347 C710.5,4111.59433 707.133896,4106.46678 701.999607,4104.13011 C701.74827,4104.01572 701.637249,4103.71924 701.751635,4103.46791 C701.866022,4103.21657 702.162499,4103.10555 702.413836,4103.21994 Z M676,4108.8347 L670.5,4108.8347 C669.174517,4108.8347 668.089961,4109.86623 668.005318,4111.17032 L668.005318,4111.17032 L668,4111.3347 L668,4123.3347 C668,4124.71541 669.119288,4125.8347 670.5,4125.8347 L670.5,4125.8347 L676,4125.8347 L676,4108.8347 Z M697.5,4110.8347 C701.089851,4110.8347 704,4113.74485 704,4117.3347 C704,4120.92455 701.089851,4123.8347 697.5,4123.8347 C697.223858,4123.8347 697,4123.61084 697,4123.3347 C697,4123.05855 697.223858,4122.8347 697.5,4122.8347 C700.537566,4122.8347 703,4120.37226 703,4117.3347 C703,4114.29713 700.537566,4111.8347 697.5,4111.8347 C697.223858,4111.8347 697,4111.61084 697,4111.3347 C697,4111.05855 697.223858,4110.8347 697.5,4110.8347 Z" transform="translate(-667 -4096)"/>
</svg>
