<svg xmlns="http://www.w3.org/2000/svg" width="36" height="40" viewBox="0 0 36 40">
  <defs>
    <linearGradient id="icon-19-9-a" x1="90.5%" x2="9.5%" y1="100%" y2="0%">
      <stop offset="0%" stop-color="#1E85E9"/>
      <stop offset="20.276%" stop-color="#8671F3"/>
      <stop offset="70.727%" stop-color="#C06CFD" stop-opacity=".99"/>
      <stop offset="100%" stop-color="#FFBEE8"/>
    </linearGradient>
  </defs>
  <path fill="url(#icon-19-9-a)" d="M1539.42676,2969.52881 C1543.24372,2973.02468 1547.82124,2974.65133 1553.88033,2974.65133 C1555.02508,2974.65133 1555.91432,2975.48692 1555.91432,2976.5626 L1555.9208,2978.07627 L1555.93111,2978.64897 L1555.96384,2979.53656 L1555.98279,2980.60762 C1556.08995,2987.75713 1555.72608,2991.4978 1554.05699,2995.72685 C1551.70061,3001.69732 1546.97856,3006.07707 1539.09389,3008.74552 L1538.6072,3008.90676 L1538.11107,3009 L1537.89707,3009 L1537.33012,3008.88872 C1526.65534,3005.43084 1521.71792,2999.02016 1520.40396,2989.7014 C1520.07371,2987.35922 1519.97714,2985.33573 1520.00435,2982.11174 L1520.00966,2981.59249 L1520.04098,2979.70049 L1520.07362,2978.77846 L1520.08737,2978.0752 L1520.09381,2976.5626 C1520.09381,2975.48692 1520.98306,2974.65133 1522.1278,2974.65133 C1528.01859,2974.65133 1532.50897,2973.11379 1536.26152,2969.81582 L1536.59352,2969.51803 C1537.39747,2968.82554 1538.61067,2968.82554 1539.42676,2969.52881 Z M1537.3582,2970.18899 L1537.25761,2970.26568 C1533.24406,2973.94142 1528.42251,2975.65133 1522.1278,2975.65133 C1521.56519,2975.65133 1521.15588,2975.99818 1521.10027,2976.45868 L1521.09381,2976.56686 L1521.0873,2978.08729 L1521.07316,2978.80868 L1521.04084,2979.71704 L1521.00959,2981.60439 L1521.00148,2982.54332 C1520.98637,2985.55445 1521.09301,2987.42597 1521.39417,2989.56178 C1522.68726,2998.7326 1527.54371,3004.53635 1537.18294,3007.78689 L1537.584,3007.92 L1537.992,3008 L1538.021,3008 L1538.358,3007.936 L1538.77666,3007.79719 C1546.04593,3005.33682 1550.62435,3001.37227 1552.97656,2995.73009 L1553.12681,2995.35974 C1554.70232,2991.36781 1555.11147,2987.89122 1554.97445,2980.09932 L1554.96452,2979.57341 L1554.93142,2978.67372 L1554.91788,2977.78484 L1554.91432,2976.5626 C1554.91432,2976.0536 1554.48623,2975.65133 1553.88033,2975.65133 C1547.58562,2975.65133 1542.76408,2973.94142 1538.77396,2970.28634 C1538.36786,2969.93638 1537.77593,2969.90797 1537.3582,2970.18899 Z M1537.55163,2979.77872 C1537.73504,2979.40709 1538.26496,2979.40709 1538.44837,2979.77872 L1538.44837,2979.77872 L1540.976,2984.903 L1546.63141,2985.72404 C1547.01222,2985.77938 1547.18062,2986.21789 1546.96513,2986.51186 L1546.96513,2986.51186 L1546.90851,2986.57689 L1542.816,2990.565 L1543.78287,2996.19663 C1543.84826,2996.57785 1543.47916,2996.8746 1543.13142,2996.75568 L1543.13142,2996.75568 L1543.0574,2996.72372 L1538,2994.065 L1532.9426,2996.72372 C1532.60024,2996.90371 1532.20396,2996.64437 1532.2096,2996.27691 L1532.2096,2996.27691 L1532.21713,2996.19663 L1533.183,2990.565 L1529.09149,2986.57689 C1528.81592,2986.30828 1528.93744,2985.85454 1529.28456,2985.74338 L1529.28456,2985.74338 L1529.36859,2985.72404 L1535.023,2984.903 Z M1538,2981.131 L1535.80333,2985.58071 C1535.7305,2985.72828 1535.58972,2985.83056 1535.42687,2985.85423 L1535.42687,2985.85423 L1530.515,2986.568 L1534.06925,2990.03253 C1534.16353,2990.12443 1534.2168,2990.24873 1534.22009,2990.37782 L1534.22009,2990.37782 L1534.21305,2990.4751 L1533.373,2995.368 L1537.76733,2993.05743 C1537.88386,2992.99617 1538.01854,2992.98392 1538.14232,2993.02068 L1538.14232,2993.02068 L1538.23267,2993.05743 L1542.626,2995.368 L1541.78695,2990.4751 C1541.76469,2990.34534 1541.79466,2990.21347 1541.86787,2990.1071 L1541.86787,2990.1071 L1541.93075,2990.03253 L1545.484,2986.568 L1540.57313,2985.85423 C1540.44285,2985.8353 1540.32669,2985.76605 1540.24815,2985.66355 L1540.24815,2985.66355 L1540.19667,2985.58071 L1538,2981.131 Z" transform="translate(-1520 -2969)"/>
</svg>
