<svg xmlns="http://www.w3.org/2000/svg" xmlns:xlink="http://www.w3.org/1999/xlink" width="62" height="62" viewBox="0 0 62 62">
  <defs>
    <linearGradient id="ico-advantages-4-b" x1="100%" x2="0%" y1="100%" y2="0%">
      <stop offset="0%" stop-color="#FFBEE8"/>
      <stop offset="29.273%" stop-color="#C06CFD" stop-opacity=".99"/>
      <stop offset="79.724%" stop-color="#8671F3"/>
      <stop offset="100%" stop-color="#1E85E9"/>
    </linearGradient>
    <rect id="ico-advantages-4-a" width="60" height="60" x="0" y="0" rx="4"/>
    <linearGradient id="ico-advantages-4-c" x1="100%" x2="0%" y1="76.281%" y2="23.719%">
      <stop offset="0%" stop-color="#1E85E9"/>
      <stop offset="20.276%" stop-color="#8671F3"/>
      <stop offset="70.727%" stop-color="#C06CFD" stop-opacity=".99"/>
      <stop offset="100%" stop-color="#FFBEE8"/>
    </linearGradient>
  </defs>
  <g fill="none" fill-rule="evenodd" transform="translate(1 1)">
    <g opacity=".062">
      <use fill="#FAFAFA" xlink:href="#ico-advantages-4-a"/>
      <use fill="url(#ico-advantages-4-b)" stroke="#000" stroke-opacity=".02" xlink:href="#ico-advantages-4-a"/>
    </g>
    <path fill="url(#ico-advantages-4-c)" fill-rule="nonzero" d="M42.2248377,30.9524457 L43.9423659,31.0951087 C47.4486223,31.4078376 49.9995911,32.1146379 50,39.5104066 C50,43.7900994 46.8834057,44 42.8039649,44 L41.4375274,43.9966758 L32.1560347,43.9975376 L30.8184034,43.9990175 C27.7652777,43.9837967 25.3160563,43.7662761 24.4220262,41.6413439 L23.5191209,41.6391723 L15.2037501,41.640474 C12.2256936,41.6223616 10,41.338568 10,38.1492186 C10,31.4931851 12.6552797,31.803762 16.0462971,31.4931851 C16.0727931,32.7117483 17.8716836,33.6952418 20.0883595,33.6952418 C22.3050354,33.6952418 24.1029796,32.7112734 24.1308951,31.4931851 L25.2496509,31.5856124 C25.8414814,31.6351447 26.4007471,31.6929659 26.915393,31.8068575 C28.2447231,31.1486123 29.9495642,31.1249512 31.8303545,30.9524457 C31.8644208,32.519102 34.177618,33.7832545 37.0268864,33.7832545 C39.8771011,33.7832545 42.1898251,32.519102 42.2248377,30.9524457 Z M42.8973918,31.875308 L42.85628,31.9758389 C42.1265455,33.5935002 39.7509865,34.6469179 37.0268864,34.6469179 C34.3031261,34.6469179 31.9274076,33.5932503 31.19838,31.97541 L31.156873,31.875308 L30.8471818,31.9009575 C28.3375881,32.1012892 27.3765694,32.3321559 26.5560898,33.0823428 C25.486088,34.0606747 24.9177322,36.022283 24.9177322,39.5104066 C24.9177322,42.4098886 26.1685535,43.0874995 30.7126502,43.1337155 L42.8039649,43.1363366 C47.790436,43.1363366 49.1388794,42.5218472 49.1388794,39.5104545 C49.1388794,36.0215309 48.5697302,34.0595538 47.4988006,33.0811739 C46.7080147,32.3587276 45.7870598,32.1180638 43.477625,31.9227789 L42.8973918,31.875308 Z M24.7751079,32.4133703 L24.7312974,32.5038417 C24.0639918,33.7654299 22.1990215,34.5589052 20.0883595,34.5589052 C17.9768855,34.5589052 16.1113283,33.7653784 15.4449331,32.5032806 L15.4009487,32.4133703 L14.9100206,32.4557333 C11.6482312,32.7649228 10.8889025,33.5689559 10.86188,37.9000957 L10.8611206,38.1492186 C10.8611206,40.2951824 11.7709903,40.757728 15.3482779,40.7772259 L16.3427288,40.7759991 L23.8614589,40.7753594 L23.8592112,40.7292847 L23.85316,40.3741664 C23.8527796,36.9559094 24.350331,34.4882103 25.463982,32.7089607 L25.6095338,32.4850544 L25.0877281,32.4389596 L24.7751079,32.4133703 Z M20.0888326,19.0857801 C23.1566932,19.0857801 25.6421145,21.5813178 25.6421145,24.6595433 C25.6421145,27.7368191 23.1566932,32.3660297 20.0888326,32.3660297 C17.0223915,32.3660297 14.5360239,27.737294 14.5364971,24.6595433 C14.5364971,21.5808429 17.0223915,19.0857801 20.0888326,19.0857801 Z M37.0278326,15 C40.9714813,15 44.1675637,18.2083449 44.1670905,22.1660635 C44.1670905,24.2693435 43.263387,26.9367907 41.8245585,28.9740613 C41.3679753,29.6208591 40.8569806,30.2011725 40.3038762,30.6827092 C39.8950805,31.0384004 39.4645202,31.3380549 39.0150341,31.5669511 C38.3838611,31.8884504 37.7172023,32.0741317 37.0273595,32.0741317 C36.3379899,32.0741317 35.6727505,31.8894002 35.0425237,31.5683757 C34.5920914,31.3385298 34.1601117,31.0384004 33.7513159,30.6822343 C33.1986847,30.2006976 32.6872169,29.6203842 32.2306337,28.9740613 C30.7918052,26.9367907 29.8885748,24.2698184 29.8885748,22.1660635 C29.8885748,18.2083449 33.0846571,15 37.0278326,15 Z M20.0888326,19.9494435 C17.497993,19.9494435 15.3976177,22.0578135 15.3976177,24.6596765 C15.3971465,27.7247643 17.8589604,31.5023663 20.0888326,31.5023663 C22.3195595,31.5023663 24.7809938,27.7252013 24.7809938,24.6595433 C24.7809938,22.0578135 22.6806185,19.9494435 20.0888326,19.9494435 Z M37.0278326,15.8636634 C33.5604902,15.8636634 30.7496954,18.6850832 30.7496954,22.1660635 C30.7496954,24.0985995 31.6038587,26.5924209 32.933268,28.4747622 C33.3589012,29.0772734 33.8257486,29.6030092 34.3160416,30.0302272 C34.681014,30.348212 35.0553001,30.6058768 35.4324608,30.798334 C35.9693843,31.0718317 36.5014683,31.2104683 37.0273595,31.2104683 C37.5531122,31.2104683 38.0865629,31.0712214 38.625182,30.796866 C39.0004427,30.6057684 39.3732428,30.3490765 39.7393907,30.0304929 C40.2294374,29.6038548 40.6957236,29.0785197 41.1218647,28.4748464 C42.4514293,26.5922851 43.3059699,24.0979645 43.3059699,22.1659599 C43.306386,18.6850432 40.4956311,15.8636634 37.0278326,15.8636634 Z"/>
  </g>
</svg>
