<svg xmlns="http://www.w3.org/2000/svg" width="33" height="40" viewBox="0 0 33 40">
  <defs>
    <linearGradient id="icon-13-8-a" x1="85.076%" x2="14.924%" y1="100%" y2="0%">
      <stop offset="0%" stop-color="#1E85E9"/>
      <stop offset="20.276%" stop-color="#8671F3"/>
      <stop offset="70.727%" stop-color="#C06CFD"/>
      <stop offset="100%" stop-color="#FFBEE8"/>
    </linearGradient>
  </defs>
  <path fill="url(#icon-13-8-a)" d="M1412.5,2145.4 L1412.58988,2145.40806 C1412.82312,2145.45039 1413,2145.65454 1413,2145.9 C1413,2146.17614 1412.77614,2146.4 1412.5,2146.4 L1412.5,2146.4 L1396.901,2146.399 L1402.47629,2152.77074 C1402.65813,2152.97856 1402.63707,2153.29444 1402.42925,2153.47628 C1402.24452,2153.63792 1401.97441,2153.63924 1401.78896,2153.49158 L1401.72371,2153.42925 L1397,2148.03 L1397,2161.9 L1396.99194,2161.98988 C1396.94961,2162.22312 1396.74546,2162.4 1396.5,2162.4 C1396.22386,2162.4 1396,2162.17614 1396,2161.9 L1396,2161.9 L1396,2148.029 L1391.27629,2153.42925 C1391.11465,2153.61397 1390.84711,2153.65114 1390.64369,2153.5294 L1390.57075,2153.47628 C1390.38602,2153.31465 1390.34886,2153.0471 1390.47059,2152.84368 L1390.52371,2152.77074 L1396.098,2146.399 L1380.5,2146.4 L1380.41012,2146.39194 C1380.17688,2146.34961 1380,2146.14546 1380,2145.9 C1380,2145.62386 1380.22386,2145.4 1380.5,2145.4 L1380.5,2145.4 L1412.5,2145.4 Z M1396.5,2123 C1396.74546,2123 1396.94961,2123.17688 1396.99194,2123.41012 L1397,2123.5 L1397,2137.369 L1401.72371,2131.97075 L1401.78896,2131.90842 C1401.97441,2131.76076 1402.24452,2131.76208 1402.42925,2131.92372 C1402.63707,2132.10556 1402.65813,2132.42144 1402.47629,2132.62926 L1402.47629,2132.62926 L1396.902,2138.999 L1412.5,2139 C1412.77614,2139 1413,2139.22386 1413,2139.5 C1413,2139.74546 1412.82312,2139.94961 1412.58988,2139.99194 L1412.5,2140 L1380.5,2140 C1380.22386,2140 1380,2139.77614 1380,2139.5 C1380,2139.25454 1380.17688,2139.05039 1380.41012,2139.00806 L1380.5,2139 L1396.097,2138.999 L1390.52371,2132.62926 L1390.47059,2132.55632 C1390.34886,2132.3529 1390.38602,2132.08535 1390.57075,2131.92372 L1390.57075,2131.92372 L1390.64369,2131.8706 C1390.84711,2131.74886 1391.11465,2131.78603 1391.27629,2131.97075 L1391.27629,2131.97075 L1396,2137.37 L1396,2123.5 C1396,2123.22386 1396.22386,2123 1396.5,2123 Z" transform="translate(-1380 -2123)"/>
</svg>
