<svg xmlns="http://www.w3.org/2000/svg" xmlns:xlink="http://www.w3.org/1999/xlink" width="62" height="62" viewBox="0 0 62 62">
  <defs>
    <linearGradient id="icon-5-5-b" x1="100%" x2="0%" y1="100%" y2="0%">
      <stop offset="0%" stop-color="#1E85E9"/>
      <stop offset="20.276%" stop-color="#8671F3"/>
      <stop offset="70.727%" stop-color="#C06CFD" stop-opacity=".99"/>
      <stop offset="100%" stop-color="#FFBEE8"/>
    </linearGradient>
    <rect id="icon-5-5-a" width="60" height="60" x="0" y="0" rx="4"/>
    <linearGradient id="icon-5-5-c" x1="100%" x2="0%" y1="84.722%" y2="15.278%">
      <stop offset="0%" stop-color="#1E85E9"/>
      <stop offset="20.276%" stop-color="#8671F3"/>
      <stop offset="70.727%" stop-color="#C06CFD" stop-opacity=".99"/>
      <stop offset="100%" stop-color="#FFBEE8"/>
    </linearGradient>
  </defs>
  <g fill="none" fill-rule="evenodd" transform="translate(1 1)">
    <g opacity=".062">
      <use fill="#FAFAFA" xlink:href="#icon-5-5-a"/>
      <use fill="url(#icon-5-5-b)" stroke="#000" stroke-opacity=".02" xlink:href="#icon-5-5-a"/>
    </g>
    <path fill="url(#icon-5-5-c)" fill-rule="nonzero" d="M45.5,15 C46.8807119,15 48,15.9327401 48,17.0833333 L48,17.0833333 L48,42.9166667 C48,44.0672599 46.8807119,45 45.5,45 L45.5,45 L14.5,45 C13.1192881,45 12,44.0672599 12,42.9166667 L12,42.9166667 L12,17.0833333 C12,15.9327401 13.1192881,15 14.5,15 L14.5,15 Z M47,21 L13,21 L13,42.9166667 C13,43.6070226 13.6715729,44.1666667 14.5,44.1666667 L14.5,44.1666667 L45.5,44.1666667 C46.3284271,44.1666667 47,43.6070226 47,42.9166667 L47,42.9166667 L47,21 Z M19.1971604,23.5885912 L19.2587141,23.6464466 L26.3698252,31.6464466 C26.5241064,31.820013 26.5412488,32.0894374 26.4212523,32.2843055 L26.3698252,32.3535534 L19.2587141,40.3535534 C19.0851478,40.5488155 18.8037411,40.5488155 18.6301748,40.3535534 C18.4758936,40.179987 18.4587512,39.9105626 18.5787477,39.7156945 L18.6301748,39.6464466 L25.4271866,32 L18.6301748,24.3535534 C18.4758936,24.179987 18.4587512,23.9105626 18.5787477,23.7156945 L18.6301748,23.6464466 C18.784456,23.4728803 19.0239443,23.4535951 19.1971604,23.5885912 Z M41.5,38 C41.7761424,38 42,38.2238576 42,38.5 C42,38.7454599 41.8231248,38.9496084 41.5898756,38.9919443 L41.5,39 L29.5,39 C29.2238576,39 29,38.7761424 29,38.5 C29,38.2545401 29.1768752,38.0503916 29.4101244,38.0080557 L29.5,38 L41.5,38 Z M45.5,15.8333333 L21,15.833 L21,20 L47,20 L47,17.0833333 C47,16.4335866 46.4051119,15.8996261 45.64446,15.8390555 L45.5,15.8333333 Z M20,15.833 L14.5,15.8333333 C13.6715729,15.8333333 13,16.3929774 13,17.0833333 L13,17.0833333 L13,20 L20,20 L20,15.833 Z"/>
  </g>
</svg>
