<svg xmlns="http://www.w3.org/2000/svg" xmlns:xlink="http://www.w3.org/1999/xlink" width="62" height="62" viewBox="0 0 62 62">
  <defs>
    <linearGradient id="icon-10-1-b" x1="100%" x2="0%" y1="100%" y2="0%">
      <stop offset="0%" stop-color="#1E85E9"/>
      <stop offset="20.276%" stop-color="#8671F3"/>
      <stop offset="70.727%" stop-color="#C06CFD" stop-opacity=".99"/>
      <stop offset="100%" stop-color="#FFBEE8"/>
    </linearGradient>
    <rect id="icon-10-1-a" width="60" height="60" x="0" y="0" rx="4"/>
    <linearGradient id="icon-10-1-c" x1="95.623%" x2="4.377%" y1="100%" y2="0%">
      <stop offset="0%" stop-color="#1E85E9"/>
      <stop offset="20.276%" stop-color="#8671F3"/>
      <stop offset="70.727%" stop-color="#C06CFD" stop-opacity=".99"/>
      <stop offset="100%" stop-color="#FFBEE8"/>
    </linearGradient>
  </defs>
  <g fill="none" fill-rule="evenodd" transform="translate(1 1)">
    <g opacity=".062">
      <use fill="#FAFAFA" xlink:href="#icon-10-1-a"/>
      <use fill="url(#icon-10-1-b)" stroke="#000" stroke-opacity=".02" xlink:href="#icon-10-1-a"/>
    </g>
    <path fill="url(#icon-10-1-c)" fill-rule="nonzero" d="M30.5,11 L30.5002994,15.5307604 C38.8708878,16.0471042 45.5,22.999396 45.5,31.5 L45.5,31.5 L45.5,31.6511102 L45.4163071,31.7769267 C45.2067362,32.091977 43.6974524,32.2497143 40.5006818,32.3073391 L40.5,44.5 L18.5,44.5 L18.5000813,32.1125075 C15.9311168,32.0615196 14.082881,32.0154356 13.934049,31.9956314 L13.934049,31.9956314 L13.5,31.9378749 L13.5,31.5 C13.5,22.663444 20.663444,15.5 29.5,15.5 L29.5,15.5 L29.5,11 L30.5,11 Z M23.5439207,32.2026066 C22.1331897,32.1799467 20.7538052,32.1556933 19.500083,32.1319065 L19.5,43.5 L39.5,43.5 L39.5016367,32.3215613 C38.887788,32.328225 38.2218851,32.3320399 37.5018967,32.3333057 L36.4323585,32.3334065 C35.0793096,32.3314748 33.5572041,32.3221554 31.8551126,32.3070602 L31.8551126,32.3070602 L26.8061053,32.2510504 C26.4828809,32.2466743 26.1574777,32.2421298 25.8310481,32.2374419 L25.1771621,32.2278827 C25.0680669,32.2262601 24.958943,32.2246235 24.8498332,32.2229737 L24.195684,32.2129253 L24.195684,32.2129253 Z M29.5,16.5 C21.4254571,16.5 14.8410422,22.8799961 14.5128293,30.8739143 L14.5128293,30.8739143 L14.508,31.022 L16.1695898,31.064185 C18.1605452,31.1087027 21.3077027,31.1680274 24.4926421,31.2171668 L24.4926421,31.2171668 L30.1075199,31.2901058 C32.1193278,31.3102137 33.9787403,31.3219633 35.6527906,31.3244927 L36.7410013,31.3248037 C37.4476853,31.3240877 38.1163075,31.3215127 38.7439737,31.317003 L38.7439737,31.317003 L40.3748242,31.2995125 C41.3400101,31.2851974 42.1624317,31.2647702 42.8321952,31.238029 L42.8321952,31.238029 L43.5207546,31.2052709 C43.807734,31.1889472 44.0511919,31.1709719 44.2488505,31.1515556 L44.2488505,31.1515556 L44.494,31.123 L44.4871707,30.8739143 C44.1632203,22.9838132 37.7445114,16.6659864 29.8138282,16.5032178 L29.8138282,16.5032178 Z M25,22.5 C26.3807119,22.5 27.5,23.6192881 27.5,25 C27.5,26.3807119 26.3807119,27.5 25,27.5 C23.6192881,27.5 22.5,26.3807119 22.5,25 C22.5,23.6192881 23.6192881,22.5 25,22.5 Z M35,22.5 C36.3807119,22.5 37.5,23.6192881 37.5,25 C37.5,26.3807119 36.3807119,27.5 35,27.5 C33.6192881,27.5 32.5,26.3807119 32.5,25 C32.5,23.6192881 33.6192881,22.5 35,22.5 Z M25,23.5 C24.1715729,23.5 23.5,24.1715729 23.5,25 C23.5,25.8284271 24.1715729,26.5 25,26.5 C25.8284271,26.5 26.5,25.8284271 26.5,25 C26.5,24.1715729 25.8284271,23.5 25,23.5 Z M35,23.5 C34.1715729,23.5 33.5,24.1715729 33.5,25 C33.5,25.8284271 34.1715729,26.5 35,26.5 C35.8284271,26.5 36.5,25.8284271 36.5,25 C36.5,24.1715729 35.8284271,23.5 35,23.5 Z"/>
  </g>
</svg>
