<svg xmlns="http://www.w3.org/2000/svg" width="36" height="36" viewBox="0 0 36 36">
  <defs>
    <linearGradient id="icon-15-4-a" x1="100%" x2="0%" y1="100%" y2="0%">
      <stop offset="0%" stop-color="#1E85E9"/>
      <stop offset="20.276%" stop-color="#8671F3"/>
      <stop offset="70.727%" stop-color="#C06CFD" stop-opacity=".99"/>
      <stop offset="100%" stop-color="#FFBEE8"/>
    </linearGradient>
  </defs>
  <path fill="url(#icon-15-4-a)" d="M850.5,2407 C850.776142,2407 851,2407.22386 851,2407.5 L851,2407.5 L851,2434.5 C851,2434.77614 850.776142,2435 850.5,2435 L850.5,2435 L832,2435 L832,2442.5 C832,2442.74546 831.823125,2442.94961 831.589876,2442.99194 L831.5,2443 L815.5,2443 C815.223858,2443 815,2442.77614 815,2442.5 L815,2442.5 L815,2426.5 C815,2426.22386 815.223858,2426 815.5,2426 L815.5,2426 L823,2426 L823,2407.5 C823,2407.25454 823.176875,2407.05039 823.410124,2407.00806 L823.5,2407 Z M823,2427 L816,2427 L816,2442 L831,2442 L831,2435 L823.5,2435 C823.25454,2435 823.050392,2434.82312 823.008056,2434.58988 L823,2434.5 L823,2427 Z M831,2427 L824,2427 L824,2434 L831,2434 L831,2427 Z M850,2408 L824,2408 L824,2426 L831.5,2426 C831.74546,2426 831.949608,2426.17688 831.991944,2426.41012 L832,2426.5 L832,2434 L850,2434 L850,2408 Z M846.967066,2410.96867 C847.322538,2410.91708 847.630146,2411.26169 847.509876,2411.6225 L847.509876,2411.6225 L845.742109,2416.9258 L845.706045,2417.00852 C845.592122,2417.21641 845.342517,2417.31965 845.109653,2417.24203 L845.109653,2417.24203 L845.026937,2417.20597 C844.819045,2417.09204 844.715804,2416.84244 844.793425,2416.60958 L844.793425,2416.60958 L845.887,2413.324 L834.52962,2424.82835 L834.460741,2424.88665 C834.266734,2425.02288 833.997193,2425.0053 833.82252,2424.83285 C833.626029,2424.63882 833.624018,2424.32225 833.818036,2424.12575 L833.818036,2424.12575 L845.193,2412.605 L841.890347,2413.7065 L841.802536,2413.72728 C841.567869,2413.76087 841.335513,2413.62313 841.257891,2413.39027 C841.170568,2413.1283 841.312148,2412.84514 841.574119,2412.75781 L841.574119,2412.75781 L846.87742,2410.99005 Z" transform="translate(-815 -2407)"/>
</svg>
