<svg xmlns="http://www.w3.org/2000/svg" width="39" height="39" viewBox="0 0 39 39">
  <defs>
    <linearGradient id="icon-13-5-a" x1="100%" x2="0%" y1="100%" y2="0%">
      <stop offset="0%" stop-color="#1E85E9"/>
      <stop offset="20.276%" stop-color="#8671F3"/>
      <stop offset="70.727%" stop-color="#C06CFD"/>
      <stop offset="100%" stop-color="#FFBEE8"/>
    </linearGradient>
  </defs>
  <path fill="url(#icon-13-5-a)" d="M981.403819,2144.05973 L981.479033,2144.10958 L992.590144,2152.99847 C992.636501,2153.03685 992.670805,2153.07554 992.698624,2153.11879 C992.800166,2153.27629 992.803966,2153.47948 992.710241,2153.64048 C992.679966,2153.69171 992.641817,2153.73653 992.597084,2153.77369 L992.590144,2153.77934 L981.479033,2162.66823 C981.263402,2162.84074 980.948755,2162.80577 980.776251,2162.59014 C980.622913,2162.39847 980.633499,2162.12857 980.789189,2161.9498 L980.854338,2161.88736 L990.854,2153.888 L954.500009,2153.8889 L954.410134,2153.88084 C954.176884,2153.83851 954.000009,2153.63436 954.000009,2153.3889 C954.000009,2153.11276 954.223867,2152.8889 954.500009,2152.8889 L954.500009,2152.8889 L990.852,2152.888 L980.854338,2144.89045 C980.662666,2144.73712 980.613745,2144.47147 980.726396,2144.26288 L980.776251,2144.18767 C980.929588,2143.996 981.195235,2143.94708 981.403819,2144.05973 Z M965.373977,2124.05973 C965.582561,2123.94708 965.848208,2123.996 966.001546,2124.18767 L966.001546,2124.18767 L966.0514,2124.26288 C966.164051,2124.47147 966.115131,2124.73712 965.923459,2124.89045 L965.923459,2124.89045 L955.925,2132.888 L992.277787,2132.8889 C992.553929,2132.8889 992.777787,2133.11276 992.777787,2133.3889 C992.777787,2133.63436 992.600912,2133.83851 992.367663,2133.88084 L992.277787,2133.8889 L955.923,2133.888 L965.923459,2141.88736 L965.988607,2141.9498 C966.144297,2142.12857 966.154883,2142.39847 966.001546,2142.59014 C965.829041,2142.80577 965.514395,2142.84074 965.298764,2142.66823 L965.298764,2142.66823 L954.187652,2133.77934 L954.120098,2133.71424 C953.939951,2133.50487 953.96247,2133.17862 954.187652,2132.99847 L954.187652,2132.99847 L965.298764,2124.10958 Z" transform="translate(-954 -2124)"/>
</svg>
