<svg xmlns="http://www.w3.org/2000/svg" xmlns:xlink="http://www.w3.org/1999/xlink" width="62" height="62" viewBox="0 0 62 62">
  <defs>
    <linearGradient id="icon-9-1-b" x1="100%" x2="0%" y1="100%" y2="0%">
      <stop offset="0%" stop-color="#FFBEE8"/>
      <stop offset="29.273%" stop-color="#C06CFD" stop-opacity=".99"/>
      <stop offset="79.724%" stop-color="#8671F3"/>
      <stop offset="100%" stop-color="#1E85E9"/>
    </linearGradient>
    <rect id="icon-9-1-a" width="60" height="60" x="0" y="0" rx="4"/>
    <linearGradient id="icon-9-1-c" x1="100%" x2="-101.818%" y1="92.951%" y2="-20.958%">
      <stop offset="0%" stop-color="#1E85E9"/>
      <stop offset="20.276%" stop-color="#8671F3"/>
      <stop offset="70.727%" stop-color="#C06CFD" stop-opacity=".99"/>
      <stop offset="100%" stop-color="#FFBEE8"/>
    </linearGradient>
  </defs>
  <g fill="none" fill-rule="evenodd" transform="translate(1 1)">
    <g opacity=".062">
      <use fill="#FAFAFA" xlink:href="#icon-9-1-a"/>
      <use fill="url(#icon-9-1-b)" stroke="#000" stroke-opacity=".02" xlink:href="#icon-9-1-a"/>
    </g>
    <path fill="url(#icon-9-1-c)" fill-rule="nonzero" d="M9,47 L9,19.5106383 L29.9019608,9 L29.901,22.744 L50,22.7446809 L50,47 L9,47 Z M29.0980392,10.3081702 L9.80392157,20.0102979 L9.80392157,46.1914894 L29.0980392,46.1914894 L29.0980392,10.3081702 Z M49.1960784,23.5531915 L29.9019608,23.5531915 L29.9019608,46.1914894 L49.1960784,46.1914894 L49.1960784,23.5531915 Z M18.6470588,34.8723404 L18.6470588,38.9148936 L14.627451,38.9148936 L14.627451,34.8723404 L18.6470588,34.8723404 Z M25.0784314,34.8723404 L25.0784314,38.9148936 L21.0588235,38.9148936 L21.0588235,34.8723404 L25.0784314,34.8723404 Z M17.8431373,35.6808511 L15.4313725,35.6808511 L15.4313725,38.106383 L17.8431373,38.106383 L17.8431373,35.6808511 Z M24.2745098,35.6808511 L21.8627451,35.6808511 L21.8627451,38.106383 L24.2745098,38.106383 L24.2745098,35.6808511 Z M18.6470588,28.4042553 L18.6470588,32.4468085 L14.627451,32.4468085 L14.627451,28.4042553 L18.6470588,28.4042553 Z M25.0784314,28.4042553 L25.0784314,32.4468085 L21.0588235,32.4468085 L21.0588235,28.4042553 L25.0784314,28.4042553 Z M17.8431373,29.212766 L15.4313725,29.212766 L15.4313725,31.6382979 L17.8431373,31.6382979 L17.8431373,29.212766 Z M24.2745098,29.212766 L21.8627451,29.212766 L21.8627451,31.6382979 L24.2745098,31.6382979 L24.2745098,29.212766 Z"/>
  </g>
</svg>
