<svg xmlns="http://www.w3.org/2000/svg" xmlns:xlink="http://www.w3.org/1999/xlink" width="62" height="62" viewBox="0 0 62 62">
  <defs>
    <linearGradient id="icon-10-9-b" x1="100%" x2="0%" y1="100%" y2="0%">
      <stop offset="0%" stop-color="#1E85E9"/>
      <stop offset="20.276%" stop-color="#8671F3"/>
      <stop offset="70.727%" stop-color="#C06CFD" stop-opacity=".99"/>
      <stop offset="100%" stop-color="#FFBEE8"/>
    </linearGradient>
    <rect id="icon-10-9-a" width="60" height="60" x="0" y="0" rx="4"/>
    <linearGradient id="icon-10-9-c" x1="99.909%" x2=".091%" y1="100%" y2="0%">
      <stop offset="0%" stop-color="#1E85E9"/>
      <stop offset="20.276%" stop-color="#8671F3"/>
      <stop offset="70.727%" stop-color="#C06CFD" stop-opacity=".99"/>
      <stop offset="100%" stop-color="#FFBEE8"/>
    </linearGradient>
  </defs>
  <g fill="none" fill-rule="evenodd" transform="translate(1 1)">
    <g opacity=".062">
      <use fill="#FAFAFA" xlink:href="#icon-10-9-a"/>
      <use fill="url(#icon-10-9-b)" stroke="#000" stroke-opacity=".02" xlink:href="#icon-10-9-a"/>
    </g>
    <path fill="url(#icon-10-9-c)" fill-rule="nonzero" d="M49.2940727,10.1460608 C49.4678285,10.3194375 49.4874078,10.5888407 49.3526246,10.7838561 L49.2948448,10.8531671 L41.3283413,18.8368509 C41.4012523,19.0443754 41.4409056,19.2675569 41.4409056,19.5 L41.4409056,19.5 L41.4409056,40.5 C41.4409056,41.6045695 40.5454751,42.5 39.4409056,42.5 L39.4409056,42.5 L18.4409056,42.5 C18.2095782,42.5 17.9874237,42.4607265 17.7807459,42.3884834 L10.8539392,49.3300149 C10.6588904,49.5254902 10.3423081,49.5258358 10.1468329,49.330787 C9.9730771,49.1574103 9.95349778,48.8880071 10.088281,48.6929917 L10.1460608,48.6236807 L16.9368766,41.8183334 C16.6280948,41.4663405 16.4409056,41.0050304 16.4409056,40.5 L16.4409056,40.5 L16.4409056,19.5 C16.4409056,18.3954305 17.3363361,17.5 18.4409056,17.5 L18.4409056,17.5 L39.4409056,17.5 C39.9444593,17.5 40.404548,17.6860962 40.7561485,17.9932655 L48.5869664,10.1468329 C48.7820152,9.95135763 49.0985975,9.95101196 49.2940727,10.1460608 Z M39.4409056,18.5 L18.4409056,18.5 C17.8886208,18.5 17.4409056,18.9477153 17.4409056,19.5 L17.4409056,19.5 L17.4409056,40.5 C17.4409056,40.7282718 17.5173913,40.9386794 17.6461331,41.1069932 L25.734,33 L20.9409056,33 C20.6954457,33 20.4912972,32.8231248 20.4489612,32.5898756 L20.4409056,32.5 C20.4409056,32.2545401 20.6177807,32.0503916 20.8510299,32.0080557 L20.9409056,32 L26.9409056,32 L26.9519005,32.0001201 C26.972638,32.0005732 26.993353,32.002309 27.0139161,32.0053274 L26.9409056,32 C26.9773636,32 27.0129102,32.003902 27.0471507,32.0113113 C27.062807,32.0147258 27.0788719,32.0190263 27.0947321,32.0241391 C27.1061448,32.0278034 27.1170783,32.0317758 27.1278266,32.0361109 C27.1435565,32.0424439 27.1590494,32.0496156 27.1742175,32.0576217 C27.1866751,32.0642352 27.1990192,32.0714499 27.2110121,32.0791633 C27.2203459,32.0851196 27.2293671,32.0913534 27.2382207,32.0979172 C27.2539224,32.1095883 27.2689693,32.1221609 27.2832296,32.135561 C27.2865821,32.1387012 27.2903494,32.1423456 27.2940727,32.1460608 L27.3063168,32.1587136 C27.3179664,32.1711813 27.3289853,32.1842458 27.3393228,32.1978561 L27.2940727,32.1460608 C27.3209363,32.1728657 27.3441146,32.201966 27.363607,32.2327318 C27.3708862,32.2443175 27.3776122,32.2559533 27.3838712,32.2678728 C27.3909541,32.2813028 27.3973971,32.2951052 27.4031762,32.3091172 C27.4081073,32.3210329 27.4126423,32.3333404 27.4166966,32.3458643 C27.4222063,32.3630483 27.4267336,32.3801831 27.4303386,32.3974721 C27.431172,32.4012266 27.4320405,32.4056652 27.4328499,32.4101244 L27.4352109,32.424536 C27.4384823,32.446079 27.4403442,32.467795 27.4407967,32.4895352 L27.4409056,32.5 L27.4409056,38.5 C27.4409056,38.7761424 27.217048,39 26.9409056,39 C26.6954457,39 26.4912972,38.8231248 26.4489612,38.5898756 L26.4409056,38.5 L26.44,33.709 L18.667,41.499 L39.4409056,41.5 C39.9537414,41.5 40.3764127,41.1139598 40.4341778,40.6166211 L40.4409056,40.5 L40.44,19.726 L33.705,26.476 L38.5,26.4768478 C38.7454599,26.4768478 38.9496084,26.653723 38.9919443,26.8869722 L39,26.9768478 C39,27.2223077 38.8231248,27.4264562 38.5898756,27.4687921 L38.5,27.4768478 L32.5,27.4768478 L32.4856683,27.4766437 C32.4659223,27.4760812 32.4462031,27.4743554 32.4266223,27.4714663 L32.5,27.4768478 C32.463903,27.4768478 32.4286993,27.4730226 32.3947723,27.4657556 C32.3803,27.4626348 32.3651751,27.4586747 32.3502263,27.4539961 C32.3348356,27.4491872 32.3201926,27.4438024 32.3058889,27.4377713 C32.2952579,27.4333092 32.2844713,27.4283198 32.2738371,27.4229256 C32.2583138,27.4150043 32.2433324,27.4063762 32.2288649,27.3970211 C32.2199182,27.3912844 32.2112236,27.385261 32.2026848,27.3789306 C32.1874774,27.3676256 32.1728809,27.3554748 32.1590203,27.3425454 C32.1549517,27.3387535 32.1508665,27.3348118 32.1468329,27.330787 L32.1314531,27.3147473 C32.1222673,27.3047338 32.1134843,27.2943447 32.1051298,27.2836059 L32.1468329,27.330787 C32.1196835,27.3036969 32.0962983,27.2742624 32.0766778,27.2431336 C32.0696872,27.2319551 32.0631387,27.2206 32.0570343,27.208975 C32.0499515,27.195545 32.0435085,27.1817426 32.0377294,27.1677306 C32.0327982,27.1558149 32.0282632,27.1435074 32.024209,27.1309835 C32.0186992,27.1137996 32.014172,27.0966647 32.010567,27.0793757 C32.0097335,27.0756212 32.008865,27.0711826 32.0080557,27.0667234 L32.0056946,27.0523118 C32.0024233,27.0307688 32.0005613,27.0090528 32.0001089,26.9873126 L32,26.9768478 L32,20.9768478 C32,20.7007054 32.2238576,20.4768478 32.5,20.4768478 C32.7454599,20.4768478 32.9496084,20.653723 32.9919443,20.8869722 L33,20.9768478 L33,25.767 L40.0471359,18.7046446 C39.9080586,18.5984762 39.7403093,18.5279576 39.5575267,18.5067277 L39.4409056,18.5 Z"/>
  </g>
</svg>
