<svg xmlns="http://www.w3.org/2000/svg" width="69" height="57" viewBox="0 0 69 57">
  <defs>
    <linearGradient id="ico-documentation-1-a" x1="100%" x2="0%" y1="84.121%" y2="15.879%">
      <stop offset="0%" stop-color="#1E85E9"/>
      <stop offset="20.276%" stop-color="#8671F3"/>
      <stop offset="70.727%" stop-color="#C06CFD" stop-opacity=".99"/>
      <stop offset="100%" stop-color="#FFBEE8"/>
    </linearGradient>
  </defs>
  <path fill="url(#ico-documentation-1-a)" d="M86,58 L86,94 L54,94 L54,58 L86,58 Z M123,78 L123,94 L91,94 L91,78 L123,78 Z M85,59 L55,59 L55,93 L85,93 L85,59 Z M122,79 L92,79 L92,93 L122,93 L122,79 Z M123,37 L123,73 L91,73 L91,37 L123,37 Z M122,38 L92,38 L92,72 L122,72 L122,38 Z M86,37 L86,53 L54,53 L54,37 L86,37 Z M85,38 L55,38 L55,52 L85,52 L85,38 Z" transform="translate(-54 -37)"/>
</svg>
