<svg xmlns="http://www.w3.org/2000/svg" width="45" height="44" viewBox="0 0 45 44">
  <defs>
    <linearGradient id="icon-21-9-a" x1="100%" x2="0%" y1="97.802%" y2="2.198%">
      <stop offset="0%" stop-color="#1E85E9"/>
      <stop offset="20.276%" stop-color="#8671F3"/>
      <stop offset="70.727%" stop-color="#C06CFD" stop-opacity=".99"/>
      <stop offset="100%" stop-color="#FFBEE8"/>
    </linearGradient>
  </defs>
  <path fill="url(#icon-21-9-a)" d="M1556.5,3249 C1557.82548,3249 1558.91004,3250.03154 1558.99468,3251.33562 L1559,3251.5 L1559.00098,3271.00081 C1559.6283,3271.83633 1560,3272.87476 1560,3274 C1560,3275.28254 1559.51711,3276.45229 1558.72323,3277.33736 L1558.72216,3283.25794 C1558.72216,3283.65514 1558.62713,3284.03878 1558.44997,3284.38248 C1559.4047,3285.29101 1560,3286.57599 1560,3288 C1560,3290.76142 1557.76142,3293 1555,3293 C1552.56206,3293 1550.53164,3291.25517 1550.0894,3288.94617 L1548.54285,3288.94536 L1548.36242,3288.94032 C1546.76817,3288.85114 1545.48758,3287.58746 1545.37181,3286.00045 L1517.5,3286 C1516.17452,3286 1515.08996,3284.96846 1515.00532,3283.66438 L1515,3283.5 L1515,3251.5 C1515,3250.17452 1516.03154,3249.08996 1517.33562,3249.00532 L1517.5,3249 L1556.5,3249 Z M1555,3284 C1552.79086,3284 1551,3285.79086 1551,3288 C1551,3290.20914 1552.79086,3292 1555,3292 C1557.20914,3292 1559,3290.20914 1559,3288 C1559,3285.79086 1557.20914,3284 1555,3284 Z M1553,3286.5 C1553,3286.12831 1553.39116,3285.88656 1553.72361,3286.05279 L1553.72361,3286.05279 L1556.72361,3287.55279 C1557.09213,3287.73705 1557.09213,3288.26295 1556.72361,3288.44721 L1556.72361,3288.44721 L1553.72361,3289.94721 C1553.39116,3290.11344 1553,3289.87169 1553,3289.5 L1553,3289.5 Z M1554,3287.309 L1554,3288.69 L1555.382,3288 L1554,3287.309 Z M1550.41584,3286.00046 L1546.37579,3286.00069 C1546.49294,3287.09396 1547.41847,3287.94536 1548.54285,3287.94536 L1548.54285,3287.94536 L1550.0003,3287.94482 C1550.00777,3287.25408 1550.1553,3286.59694 1550.41584,3286.00046 Z M1558,3256.522 L1516,3256.522 L1516,3283.5 C1516,3284.2797 1516.59489,3284.92045 1517.35554,3284.99313 L1517.5,3285 L1545.22511,3285.00043 C1544.91521,3284.17424 1544.11813,3283.58623 1543.18372,3283.58623 L1543.18372,3283.58623 L1541.86084,3283.58623 L1541.77096,3283.57817 C1541.53772,3283.53584 1541.36084,3283.33169 1541.36084,3283.08623 C1541.36084,3282.81008 1541.5847,3282.58623 1541.86084,3282.58623 L1541.86084,3282.58623 L1543.18372,3282.58623 L1543.36414,3282.59126 C1544.7758,3282.67023 1545.94154,3283.67008 1546.27042,3284.99986 L1550.99978,3284.99981 C1551.912,3283.78547 1553.36427,3283 1555,3283 C1555.96878,3283 1556.87321,3283.27552 1557.6392,3283.75248 C1557.67789,3283.64314 1557.70321,3283.52743 1557.71484,3283.40857 L1557.72216,3283.25794 L1557.7159,3278.19879 C1556.93388,3278.70566 1556.00131,3279 1555,3279 C1552.40757,3279 1550.27594,3277.02703 1550.02476,3274.5007 L1549.17712,3274.5 C1548.02572,3274.5 1547.08284,3275.39282 1547.00303,3276.52391 L1546.99756,3276.67957 C1546.99756,3278.37504 1545.6705,3279.76056 1543.99842,3279.8541 L1543.81799,3279.85913 L1541.86084,3279.85913 C1541.5847,3279.85913 1541.36084,3279.63527 1541.36084,3279.35913 C1541.36084,3279.11367 1541.53772,3278.90952 1541.77096,3278.86719 L1541.86084,3278.85913 L1543.81799,3278.85913 C1544.9694,3278.85913 1545.91227,3277.96632 1545.99209,3276.83522 L1545.99756,3276.67957 C1545.99756,3274.98409 1547.32462,3273.59857 1548.9967,3273.50503 L1549.17712,3273.5 L1550.02466,3273.5003 C1550.27538,3270.97349 1552.40722,3269 1555,3269 C1556.12614,3269 1557.16533,3269.3723 1558.0012,3270.00054 L1558,3256.522 Z M1530.81482,3261.69993 C1531.48396,3261.05922 1532.01974,3260.80936 1532.76754,3261.12079 L1532.76754,3261.12079 L1534.35186,3261.78039 C1535.07019,3262.07955 1535.29923,3262.68859 1535.31224,3263.55612 L1535.31224,3263.55612 L1535.31211,3263.94441 L1535.325,3264.365 L1535.653,3264.694 L1536.05497,3264.70832 L1536.43374,3264.70938 C1536.64551,3264.71243 1536.7894,3264.72294 1536.96358,3264.75174 C1537.55256,3264.84915 1538.00622,3265.13224 1538.23201,3265.6764 L1538.23201,3265.6764 L1538.88844,3267.25973 C1539.21903,3268.06056 1538.90839,3268.61591 1538.17128,3269.33399 L1538.17128,3269.33399 L1538.08642,3269.41843 L1537.741,3269.788 L1537.741,3270.247 L1538.06194,3270.59212 L1538.23217,3270.76168 L1538.40194,3270.93998 C1538.92098,3271.51401 1539.14541,3272.09893 1538.8657,3272.76131 L1538.8657,3272.76131 L1538.20621,3274.34382 C1537.89009,3275.10292 1537.26653,3275.30739 1536.32538,3275.30655 L1536.32538,3275.30655 L1536.04228,3275.30581 L1535.633,3275.319 L1535.35455,3275.60441 L1535.29813,3275.65742 L1535.28348,3276.05721 L1535.28239,3276.43735 C1535.27925,3276.65088 1535.26844,3276.79641 1535.23884,3276.97246 C1535.1402,3277.55919 1534.85667,3278.01159 1534.31352,3278.23779 L1534.31352,3278.23779 L1532.74335,3278.88795 C1532.56598,3278.96238 1532.37549,3279.00048 1532.1844,3279 C1531.63653,3279 1531.22758,3278.73991 1530.74177,3278.25627 L1530.74177,3278.25627 L1530.61135,3278.12536 L1530.208,3277.742 L1529.764,3277.742 L1529.45235,3278.03276 L1529.2143,3278.26902 L1529.05926,3278.41594 C1528.48573,3278.93518 1527.90131,3279.15951 1527.23772,3278.88 L1527.23772,3278.88 L1525.6534,3278.2204 C1525.11046,3277.99429 1524.82845,3277.54075 1524.73256,3276.95273 C1524.69701,3276.73469 1524.69001,3276.5623 1524.69116,3276.24942 L1524.6914,3276.05503 L1524.679,3275.641 L1524.59996,3275.56557 L1524.40583,3275.37325 L1524.339,3275.303 L1523.94349,3275.28907 L1523.7361,3275.28907 C1523.42028,3275.28907 1523.24883,3275.28151 1523.02987,3275.24487 C1522.44234,3275.14657 1521.98964,3274.86268 1521.76462,3274.31897 L1521.76462,3274.31897 L1521.11172,3272.74106 C1520.78131,3271.94067 1521.08862,3271.39012 1521.82718,3270.66679 L1521.82718,3270.66679 L1521.91321,3270.58118 L1522.248,3270.221 L1522.248,3269.76 L1521.92486,3269.40574 L1521.82905,3269.31546 C1521.09901,3268.59308 1520.79077,3268.03229 1521.12078,3267.23285 L1521.12078,3267.23285 L1521.78035,3265.64847 C1522.09647,3264.88938 1522.71038,3264.68887 1523.65845,3264.68771 L1523.65845,3264.68771 L1523.94008,3264.68827 L1524.36,3264.672 L1524.686,3264.347 L1524.70138,3263.94018 L1524.70245,3263.55944 C1524.70554,3263.3473 1524.71617,3263.20294 1524.74529,3263.02825 C1524.84317,3262.44099 1525.12635,3261.98844 1525.67139,3261.76227 L1525.67139,3261.76227 L1527.25949,3261.11172 C1527.97952,3260.81447 1528.57435,3261.0835 1529.18826,3261.68132 L1529.18826,3261.68132 L1529.46896,3261.96108 L1529.772,3262.247 L1530.242,3262.247 L1530.54939,3261.96178 Z M1528.37545,3262.29058 C1528.07804,3262.02769 1527.85525,3261.94764 1527.63983,3262.03657 L1527.63983,3262.03657 L1526.05256,3262.68677 C1525.87415,3262.76081 1525.77806,3262.91436 1525.73168,3263.19266 C1525.71696,3263.28097 1525.70899,3263.36354 1525.70498,3263.472 L1525.70498,3263.472 L1525.70107,3263.95773 L1525.6718,3264.79091 L1525.36286,3265.08419 L1525.1486,3265.29661 L1525.05627,3265.39139 L1524.83543,3265.65545 L1523.95844,3265.68792 L1523.65871,3265.68771 C1523.08405,3265.68841 1522.80964,3265.77804 1522.70353,3266.03285 L1522.70353,3266.03285 L1522.04455,3267.6158 C1521.93189,3267.88873 1522.07852,3268.15549 1522.5108,3268.58447 C1522.57627,3268.642 1522.63743,3268.70212 1522.69878,3268.76841 L1522.69878,3268.76841 L1523.24849,3269.37377 L1523.24849,3269.56691 L1523.24168,3270.14089 C1523.25011,3270.19147 1523.25477,3270.24117 1523.25698,3270.29406 L1523.25698,3270.29406 L1523.25869,3270.60281 L1522.65015,3271.258 L1522.42443,3271.48403 C1522.04594,3271.87355 1521.93348,3272.111 1522.0359,3272.3591 L1522.0359,3272.3591 L1522.68863,3273.9366 C1522.76271,3274.11559 1522.91643,3274.21199 1523.19489,3274.25859 C1523.34242,3274.28327 1523.47399,3274.28907 1523.7361,3274.28907 L1523.7361,3274.28907 L1523.96109,3274.28938 L1524.80206,3274.31901 L1525.0868,3274.6392 L1525.37535,3274.92824 L1525.44551,3274.98363 L1525.66584,3275.17805 L1525.69118,3276.04021 L1525.69144,3276.39467 C1525.69309,3276.56609 1525.70036,3276.67424 1525.71953,3276.79178 C1525.7649,3277.07 1525.8602,3277.22327 1526.0378,3277.29724 L1526.0378,3277.29724 L1527.62398,3277.95761 C1527.84188,3278.04939 1528.07151,3277.96124 1528.3881,3277.67462 L1528.3881,3277.67462 L1528.43429,3277.63209 L1528.76366,3277.30778 L1529.37168,3276.74206 L1530.60461,3276.74206 L1531.21383,3277.31538 L1531.44927,3277.54957 C1531.75734,3277.85625 1531.98336,3278 1532.18565,3278 C1532.24428,3278 1532.30233,3277.98854 1532.35858,3277.96494 L1532.35858,3277.96494 L1533.93,3277.31426 C1534.10907,3277.23968 1534.20584,3277.08528 1534.25268,3276.80666 C1534.27762,3276.65835 1534.28348,3276.52608 1534.28348,3276.2629 L1534.28348,3276.2629 L1534.28379,3276.03965 L1534.31322,3275.2018 L1534.62686,3274.91623 L1534.88729,3274.65557 L1535.1583,3274.33395 L1536.02688,3274.30607 L1536.32663,3274.30655 C1536.89535,3274.30706 1537.17669,3274.21481 1537.2831,3273.95926 L1537.2831,3273.95926 L1537.94356,3272.37447 C1538.03506,3272.15779 1537.94671,3271.92753 1537.6602,3271.61067 C1537.64571,3271.59464 1537.6318,3271.57951 1537.61753,3271.56428 L1537.61753,3271.56428 L1537.29352,3271.23508 L1536.69674,3270.59345 L1536.73607,3270.35184 C1536.73813,3270.3392 1536.73948,3270.3246 1536.74031,3270.30181 L1536.74031,3270.30181 L1536.74147,3269.39627 L1537.33885,3268.75262 L1537.5868,3268.50431 C1537.95433,3268.12555 1538.06576,3267.88754 1537.9644,3267.642 L1537.9644,3267.642 L1537.30831,3266.05951 C1537.23413,3265.88074 1537.08004,3265.78459 1536.80042,3265.73834 C1536.71218,3265.72375 1536.62972,3265.71586 1536.52135,3265.71188 L1536.52135,3265.71188 L1536.03751,3265.70801 L1535.19117,3265.67844 L1534.92959,3265.38325 L1534.84808,3265.30008 L1534.60124,3265.05671 L1534.33992,3264.82036 L1534.31238,3263.96074 L1534.3123,3263.56382 C1534.30474,3263.06215 1534.20748,3262.80351 1533.96746,3262.70355 L1533.96746,3262.70355 L1532.38313,3262.04396 C1532.11228,3261.93115 1531.84679,3262.07736 1531.39309,3262.53336 L1531.39309,3262.53336 L1531.23027,3262.69417 L1530.61657,3263.26698 L1530.22616,3263.24683 L1529.81129,3263.24619 L1529.3979,3263.26721 L1528.77952,3262.68541 L1528.48527,3262.39248 Z M1555,3270 C1552.79086,3270 1551,3271.79086 1551,3274 C1551,3276.20914 1552.79086,3278 1555,3278 C1557.20914,3278 1559,3276.20914 1559,3274 C1559,3271.79086 1557.20914,3270 1555,3270 Z M1553,3272.5 C1553,3272.12831 1553.39116,3271.88656 1553.72361,3272.05279 L1553.72361,3272.05279 L1556.72361,3273.55279 C1557.09213,3273.73705 1557.09213,3274.26295 1556.72361,3274.44721 L1556.72361,3274.44721 L1553.72361,3275.94721 C1553.39116,3276.11344 1553,3275.87169 1553,3275.5 L1553,3275.5 Z M1554,3273.309 L1554,3274.69 L1555.382,3274 L1554,3273.309 Z M1530,3266 C1532.20914,3266 1534,3267.79086 1534,3270 C1534,3272.20914 1532.20914,3274 1530,3274 C1527.79086,3274 1526,3272.20914 1526,3270 C1526,3267.79086 1527.79086,3266 1530,3266 Z M1530,3267 C1528.34315,3267 1527,3268.34315 1527,3270 C1527,3271.65685 1528.34315,3273 1530,3273 C1531.65685,3273 1533,3271.65685 1533,3270 C1533,3268.34315 1531.65685,3267 1530,3267 Z M1556.5,3250 L1517.5,3250 C1516.7203,3250 1516.07955,3250.59489 1516.00687,3251.35554 L1516,3251.5 L1516,3255.522 L1558,3255.522 L1558,3251.5 C1558,3250.7203 1557.40511,3250.07955 1556.64446,3250.00687 L1556.5,3250 Z M1519,3252.5 C1519.27614,3252.5 1519.5,3252.72386 1519.5,3253 C1519.5,3253.27614 1519.27614,3253.5 1519,3253.5 C1518.72386,3253.5 1518.5,3253.27614 1518.5,3253 C1518.5,3252.72386 1518.72386,3252.5 1519,3252.5 Z M1522,3252.5 C1522.27614,3252.5 1522.5,3252.72386 1522.5,3253 C1522.5,3253.27614 1522.27614,3253.5 1522,3253.5 C1521.72386,3253.5 1521.5,3253.27614 1521.5,3253 C1521.5,3252.72386 1521.72386,3252.5 1522,3252.5 Z M1525,3252.5 C1525.27614,3252.5 1525.5,3252.72386 1525.5,3253 C1525.5,3253.27614 1525.27614,3253.5 1525,3253.5 C1524.72386,3253.5 1524.5,3253.27614 1524.5,3253 C1524.5,3252.72386 1524.72386,3252.5 1525,3252.5 Z" transform="translate(-1515 -3249)"/>
</svg>
