<svg xmlns="http://www.w3.org/2000/svg" xmlns:xlink="http://www.w3.org/1999/xlink" width="62" height="62" viewBox="0 0 62 62">
  <defs>
    <linearGradient id="icon-4-7-b" x1="100%" x2="0%" y1="100%" y2="0%">
      <stop offset="0%" stop-color="#1E85E9"/>
      <stop offset="20.276%" stop-color="#8671F3"/>
      <stop offset="70.727%" stop-color="#C06CFD" stop-opacity=".99"/>
      <stop offset="100%" stop-color="#FFBEE8"/>
    </linearGradient>
    <rect id="icon-4-7-a" width="60" height="60" x="0" y="0" rx="4"/>
    <linearGradient id="icon-4-7-c" x1="100%" x2="0%" y1="82.766%" y2="17.234%">
      <stop offset="0%" stop-color="#1E85E9"/>
      <stop offset="20.276%" stop-color="#8671F3"/>
      <stop offset="70.727%" stop-color="#C06CFD" stop-opacity=".99"/>
      <stop offset="100%" stop-color="#FFBEE8"/>
    </linearGradient>
  </defs>
  <g fill="none" fill-rule="evenodd" transform="translate(1 1)">
    <g opacity=".062">
      <use fill="#FAFAFA" xlink:href="#icon-4-7-a"/>
      <use fill="url(#icon-4-7-b)" stroke="#000" stroke-opacity=".02" xlink:href="#icon-4-7-a"/>
    </g>
    <path fill="url(#icon-4-7-c)" fill-rule="nonzero" d="M26.9090696,13 C32.8471617,13 38.0703409,16.0773658 41.0868753,20.7323435 L40.2463012,21.2151688 C37.3975284,16.8523505 32.4879372,13.9714286 26.9090696,13.9714286 C18.1040838,13.9714286 10.9662326,21.1476644 10.9662326,30 C10.9662326,38.8523356 18.1040838,46.0285714 26.9090696,46.0285714 C35.7140554,46.0285714 42.8519067,38.8523356 42.8519067,30 C42.8519067,27.4508773 42.2600273,25.0407389 41.2068985,22.9009171 L42.0476824,22.418572 C43.1807354,24.701029 43.8181393,27.2756774 43.8181393,30 C43.8181393,39.3888407 36.2476909,47 26.9090696,47 C17.5704483,47 10,39.3888407 10,30 C10,20.6111593 17.5704483,13 26.9090696,13 Z M26.9090696,19.8 C30.3327924,19.8 33.3604148,21.5050268 35.1977125,24.1165847 L34.3551969,24.6021922 C32.6879997,22.2816032 29.9739514,20.7714286 26.9090696,20.7714286 C21.8395324,20.7714286 17.7298604,24.9032007 17.7298604,30 C17.7298604,35.0967993 21.8395324,39.2285714 26.9090696,39.2285714 C31.9786069,39.2285714 36.0882789,35.0967993 36.0882789,30 C36.0882789,28.6795497 35.8124395,27.4238717 35.3155327,26.2880322 L36.1586879,25.8031981 C36.7341696,27.0832082 37.0545114,28.503993 37.0545114,30 C37.0545114,35.6333044 32.5122424,40.2 26.9090696,40.2 C21.3058969,40.2 16.7636279,35.6333044 16.7636279,30 C16.7636279,24.3666956 21.3058969,19.8 26.9090696,19.8 Z M26.9090696,26.6 C27.8142736,26.6 28.6364117,26.9575594 29.2433761,27.5398596 L28.3510096,28.0513923 C27.9485653,27.7498873 27.4495466,27.5714286 26.9090696,27.5714286 C25.5749809,27.5714286 24.4934883,28.658737 24.4934883,30 C24.4934883,31.341263 25.5749809,32.4285714 26.9090696,32.4285714 C28.2431584,32.4285714 29.324651,31.341263 29.324651,30 C29.324651,29.9118355 29.3199782,29.8247682 29.3108678,29.7390349 L30.2029055,29.226168 C30.2604555,29.474751 30.2908836,29.733803 30.2908836,30 C30.2908836,31.8777681 28.7767939,33.4 26.9090696,33.4 C25.0413454,33.4 23.5272557,31.8777681 23.5272557,30 C23.5272557,28.1222319 25.0413454,26.6 26.9090696,26.6 Z M49.426951,14.3460586 C49.8006425,14.1389181 50.239127,14.4780337 50.1302067,14.8899432 L50.1302067,14.8899432 L49.5368636,17.133168 L51.6582074,17.6805446 C52.0817822,17.7896053 52.1526688,18.3588981 51.7691452,18.5714888 L51.7691452,18.5714888 L46.6713617,21.3972363 C46.5586937,21.4596892 46.4259637,21.4750664 46.3023707,21.4399851 L46.3023707,21.4399851 L43.942,20.769 L27.1488431,30.4216717 C26.9172059,30.5548071 26.6220766,30.4739458 26.4896534,30.2410629 C26.3719438,30.0340559 26.4224137,29.7766125 26.5977686,29.6284533 L26.6692962,29.5783283 L43.367,19.981 L44.0973791,17.4620749 C44.125974,17.3633524 44.1850541,17.2767838 44.2652284,17.2141293 L44.3291675,17.1718061 Z M48.9030213,15.7412235 L44.9734799,17.9194039 L44.4016923,19.8934698 L46.3796461,20.454191 L50.2395177,18.3146292 L48.8204507,17.9501744 C48.5899343,17.8908217 48.4419597,17.6755185 48.4599902,17.4466255 L48.4599902,17.4466255 L48.4746961,17.3604317 L48.9030213,15.7412235 Z"/>
  </g>
</svg>
