<svg xmlns="http://www.w3.org/2000/svg" width="28" height="28" viewBox="0 0 28 28">
  <defs>
    <linearGradient id="ico-tabs-1-a" x1="100%" x2="0%" y1="100%" y2="0%">
      <stop offset="0%" stop-color="#1E85E9"/>
      <stop offset="20.276%" stop-color="#8671F3"/>
      <stop offset="70.727%" stop-color="#C06CFD" stop-opacity=".99"/>
      <stop offset="100%" stop-color="#FFBEE8"/>
    </linearGradient>
  </defs>
  <path fill="url(#ico-tabs-1-a)" d="M35.3914614,29.0279449 L35.5521738,29.1220662 C35.8443874,28.8305614 36.2480766,28.6502618 36.6939794,28.6502618 C37.5857851,28.6502618 38.3087364,29.3714599 38.3087364,30.2611029 C38.3087364,30.4665239 38.2701915,30.6629641 38.199923,30.8436187 L37.9194049,30.6448561 C38.9282328,31.3493814 39.9595031,32.1364762 40.9961622,32.9929806 C46.8943977,28.1096414 52.3141464,25.73667 54.2887589,27.7112825 C56.2629035,29.6854271 53.8915245,35.1030751 49.0099451,40.9992784 C53.8912505,46.8963857 56.2630176,52.3145455 54.2887589,54.2888041 C52.9477599,55.6298032 50.135408,55.0272761 46.5082636,52.9140681 L46.4478224,52.8780204 C46.1556089,53.1695253 45.7519196,53.3498248 45.3060168,53.3498248 C44.4142111,53.3498248 43.6912598,52.6286267 43.6912598,51.7389838 C43.6912598,51.5335627 43.7298047,51.3371225 43.8000732,51.156468 L44.2012676,51.4391855 C43.1542619,50.7135683 42.0820576,49.8979541 41.0039024,49.0071636 C35.1054952,53.8904904 29.685831,56.2633979 27.7112373,54.2888041 C25.7369786,52.3145455 28.1087457,46.8963857 32.990897,40.9997865 C28.1084717,35.1030751 25.7370927,29.6854271 27.7112373,27.7112825 C29.0400069,26.382513 31.8118971,26.9617586 35.3914614,29.0279449 Z M33.7026651,41.8426347 C29.2776902,47.2488432 27.0679642,52.1268155 28.4705951,53.5294464 C29.873524,54.9323753 34.7532714,52.7214119 40.160177,48.2952807 C39.038302,47.3306974 37.9155593,46.2888458 36.8133775,45.186664 L36.1819489,44.546467 C35.3044001,43.6443 34.4758603,42.7396108 33.7026651,41.8426347 Z M48.2969684,41.8419815 L48.1096262,42.0592907 C47.3904904,42.8851766 46.6249887,43.7168882 45.8180473,44.546467 L45.8180473,44.546467 L45.1866187,45.186664 C44.0723971,46.3008856 42.9506024,47.3423547 41.8406306,48.2990649 C42.6582516,48.9721086 43.4708584,49.5972087 44.2697961,50.1703516 L44.5087366,50.3378656 C44.7439497,50.2043833 45.0160581,50.1281427 45.3060168,50.1281427 C46.1978224,50.1281427 46.9207738,50.8493408 46.9207738,51.7389838 C46.9207738,51.794284 46.9179804,51.8489334 46.9125267,51.9027992 C50.200247,53.8402231 52.6611964,54.3976511 53.5294012,53.5294464 C54.932147,52.1267006 52.7219438,47.2480437 48.2969684,41.8419815 Z M45.3060168,51.2020367 C45.0087482,51.2020367 44.7677644,51.4424361 44.7677644,51.7389838 C44.7677644,52.0355314 45.0087482,52.2759308 45.3060168,52.2759308 C45.6032853,52.2759308 45.8442691,52.0355314 45.8442691,51.7389838 C45.8442691,51.4424361 45.6032853,51.2020367 45.3060168,51.2020367 Z M41.0023621,34.4043092 L40.9301471,34.4663127 C39.8183592,35.4176389 38.6915204,36.4576873 37.5745812,37.5746265 L37.5745812,37.5746265 L37.262764,37.8887172 C36.2407726,38.9256738 35.2858127,39.9691298 34.4073105,40.9992074 C35.3737967,42.1341892 36.4341064,43.2849853 37.5745812,44.4254602 C38.702673,45.5535519 39.8520295,46.6167154 40.9981653,47.5962303 C41.9254839,46.8042186 42.862977,45.9521137 43.7968355,45.0449891 L43.7968355,45.0449891 L44.425415,44.4254602 C45.5655536,43.2853216 46.6255743,42.1348677 47.5928927,41.0006365 C46.626055,39.8657407 45.5658122,38.7150237 44.425415,37.5746265 C43.2975843,36.4467958 42.1484343,35.3837912 41.0023621,34.4043092 Z M28.4705951,28.4706403 C27.0679359,29.8732995 29.2777795,34.7514404 33.7022081,40.1571037 C34.6589348,39.0480948 35.6998234,37.9269768 36.8133775,36.8134227 L36.8133775,36.8134227 L37.133319,36.4956798 C38.1425511,35.5002901 39.1564634,34.5653926 40.1606917,33.6998789 C39.3797609,33.0591285 38.6037609,32.4603616 37.8397404,31.9085876 L37.4922477,31.6616599 C37.2568087,31.7954896 36.9843442,31.871944 36.6939794,31.871944 C35.8021738,31.871944 35.0792224,31.1507458 35.0792224,30.2611029 C35.0792224,30.2058026 35.0820158,30.1511532 35.0874695,30.0972874 C31.7977811,28.1584598 29.3379136,27.6033217 28.4705951,28.4706403 Z M53.5294012,28.4706403 C52.1264821,27.0677212 47.2467934,29.2786436 41.8399333,33.7047126 C42.9616562,34.6693434 44.084445,35.711249 45.1866187,36.8134227 C46.3001728,37.9269768 47.3410614,39.0480948 48.2972999,40.1574157 C52.7222167,34.7514404 54.9320603,29.8732995 53.5294012,28.4706403 Z M36.6939794,29.7241559 C36.3967109,29.7241559 36.1557271,29.9645552 36.1557271,30.2611029 C36.1557271,30.5576505 36.3967109,30.7980499 36.6939794,30.7980499 C36.991248,30.7980499 37.2322318,30.5576505 37.2322318,30.2611029 C37.2322318,29.9645552 36.991248,29.7241559 36.6939794,29.7241559 Z" transform="translate(-27 -27)"/>
</svg>
