<svg xmlns="http://www.w3.org/2000/svg" xmlns:xlink="http://www.w3.org/1999/xlink" width="62" height="62" viewBox="0 0 62 62">
  <defs>
    <linearGradient id="icon-2-5-b" x1="100%" x2="0%" y1="100%" y2="0%">
      <stop offset="0%" stop-color="#1E85E9"/>
      <stop offset="20.276%" stop-color="#8671F3"/>
      <stop offset="70.727%" stop-color="#C06CFD" stop-opacity=".99"/>
      <stop offset="100%" stop-color="#FFBEE8"/>
    </linearGradient>
    <rect id="icon-2-5-a" width="60" height="60" x="0" y="0" rx="4"/>
    <linearGradient id="icon-2-5-c" x1="100%" x2="0%" y1="82.871%" y2="17.129%">
      <stop offset="0%" stop-color="#1E85E9"/>
      <stop offset="20.276%" stop-color="#8671F3"/>
      <stop offset="70.727%" stop-color="#C06CFD" stop-opacity=".99"/>
      <stop offset="100%" stop-color="#FFBEE8"/>
    </linearGradient>
  </defs>
  <g fill="none" fill-rule="evenodd" transform="translate(1 1)">
    <g opacity=".062">
      <use fill="#FAFAFA" xlink:href="#icon-2-5-a"/>
      <use fill="url(#icon-2-5-b)" stroke="#000" stroke-opacity=".02" xlink:href="#icon-2-5-a"/>
    </g>
    <path fill="url(#icon-2-5-c)" fill-rule="nonzero" d="M47.5,15 C48.3284271,15 49,15.6715729 49,16.5 L49,16.5 L49,22.5 C49,23.3284271 48.3284271,24 47.5,24 L47.5,24 L46,24 L46,43.5 C46,44.2796961 45.4051119,44.9204487 44.64446,44.9931334 L44.5,45 L16.5,45 C15.6715729,45 15,44.3284271 15,43.5 L15,43.5 L15,24 L13.5,24 C12.7203039,24 12.0795513,23.4051119 12.0068666,22.64446 L12,22.5 L12,16.5 C12,15.6715729 12.6715729,15 13.5,15 L13.5,15 Z M45,24 L16,24 L16,43.5 C16,43.7454599 16.1768752,43.9496084 16.4101244,43.9919443 L16.4101244,43.9919443 L16.5,44 L44.5,44 C44.7761424,44 45,43.7761424 45,43.5 L45,43.5 L45,24 Z M33.6721191,30 C33.9482615,30 34.1721191,30.2238576 34.1721191,30.5 C34.1721191,30.7454599 33.995244,30.9496084 33.7619948,30.9919443 L33.6721191,31 L27.5644531,31 C27.2883108,31 27.0644531,30.7761424 27.0644531,30.5 C27.0644531,30.2545401 27.2413283,30.0503916 27.4745775,30.0080557 L27.5644531,30 L33.6721191,30 Z M47.5,16 L13.5,16 C13.2238576,16 13,16.2238576 13,16.5 L13,16.5 L13,22.5 C13,22.7761424 13.2238576,23 13.5,23 L13.5,23 L47.5,23 C47.7761424,23 48,22.7761424 48,22.5 L48,22.5 L48,16.5 C48,16.2238576 47.7761424,16 47.5,16 L47.5,16 Z"/>
  </g>
</svg>
