<?xml version="1.0" encoding="UTF-8"?>
<svg width="61px" height="68px" viewBox="0 0 61 68" version="1.1" xmlns="http://www.w3.org/2000/svg" xmlns:xlink="http://www.w3.org/1999/xlink">
    <title>icon-29-2</title>
    <defs>
        <linearGradient x1="90.2357266%" y1="100%" x2="9.76427336%" y2="0%" id="linearGradient-1">
            <stop stop-color="#1E85E9" offset="0%"></stop>
            <stop stop-color="#8671F3" offset="20.275549%"></stop>
            <stop stop-color="#C06CFD" stop-opacity="0.99" offset="70.7268792%"></stop>
            <stop stop-color="#FFBEE8" offset="100%"></stop>
        </linearGradient>
    </defs>
    <g id="Page-1" stroke="none" stroke-width="1" fill="none" fill-rule="evenodd">
        <g id="icons" transform="translate(-518.000000, -4350.000000)" fill="url(#linearGradient-1)" fill-rule="nonzero">
            <path d="M555,4350 C556.104569,4350 557,4350.89543 557,4352 C557,4353.10457 556.104569,4354 555,4354 L555,4354 L553,4354 L553.000971,4357.3298 C558.736029,4358.17807 563.950968,4360.62272 568.179657,4364.19761 L570.439,4361.939 L569.732233,4361.23223 C568.992292,4360.49229 568.953348,4359.31681 569.6154,4358.53102 L569.732233,4358.40381 C570.513282,4357.62276 571.779612,4357.62276 572.56066,4358.40381 L572.56066,4358.40381 L576.096194,4361.93934 C576.877243,4362.72039 576.877243,4363.98672 576.096194,4364.76777 C575.315145,4365.54882 574.048816,4365.54882 573.267767,4364.76777 L573.267767,4364.76777 L572.56,4364.06 L570.375791,4366.24674 C575.604521,4371.62766 578.865162,4378.93122 578.995914,4386.99563 L579,4387.5 C579,4404.34468 565.344685,4418 548.5,4418 C531.655315,4418 518,4404.34468 518,4387.5 C518,4379.23599 521.286683,4371.73962 526.624209,4366.24674 L524.439,4364.06 L523.732233,4364.76777 C522.951184,4365.54882 521.684855,4365.54882 520.903806,4364.76777 C520.122757,4363.98672 520.122757,4362.72039 520.903806,4361.93934 L524.43934,4358.40381 C525.220388,4357.62276 526.486718,4357.62276 527.267767,4358.40381 C528.048816,4359.18485 528.048816,4360.45118 527.267767,4361.23223 L526.56,4361.939 L528.820343,4364.19761 C533.049278,4360.62251 538.264578,4358.17779 544.00003,4357.32965 L544,4354 L542,4354 C540.945638,4354 540.081835,4353.18412 540.005486,4352.14926 L540,4352 C540,4350.89543 540.895431,4350 542,4350 L542,4350 Z M548.5,4358 C532.2076,4358 519,4371.2076 519,4387.5 C519,4403.7924 532.2076,4417 548.5,4417 C564.7924,4417 578,4403.7924 578,4387.5 C578,4371.2076 564.7924,4358 548.5,4358 Z M548.5,4362 C562.583261,4362 574,4373.41674 574,4387.5 C574,4401.58326 562.583261,4413 548.5,4413 C534.416739,4413 523,4401.58326 523,4387.5 C523,4373.41674 534.416739,4362 548.5,4362 Z M548.5,4363 C534.969024,4363 524,4373.96902 524,4387.5 C524,4401.03098 534.969024,4412 548.5,4412 C562.030976,4412 573,4401.03098 573,4387.5 C573,4373.96902 562.030976,4363 548.5,4363 Z M548.5,4366 C560.255381,4366 569.807258,4375.43432 569.99712,4387.14446 L570,4387.5 L570,4387.5 C570,4387.74546 569.823125,4387.94961 569.589876,4387.99194 L569.5,4388 L548.5,4388 L548.5,4388 C548.25454,4388 548.050392,4387.82312 548.008056,4387.58988 L548,4387.5 L548,4366.5 C548,4366.22386 548.223858,4366 548.5,4366 Z M549.00069,4367.00599 L549,4387 L568.994028,4387.00028 C568.732676,4376.07574 559.925106,4367.26785 549.00069,4367.00599 Z M571.146447,4362.64645 L569.025126,4364.76777 L569.732233,4365.47487 L571.853553,4363.35355 L571.146447,4362.64645 Z M525.853553,4362.64645 L525.146447,4363.35355 L527.267767,4365.47487 L527.974874,4364.76777 L525.853553,4362.64645 Z M571.853553,4359.11091 C571.463029,4358.72039 570.829864,4358.72039 570.43934,4359.11091 C570.048816,4359.50144 570.048816,4360.1346 570.43934,4360.52513 L570.43934,4360.52513 L573.974874,4364.06066 C574.365398,4364.45118 574.998563,4364.45118 575.389087,4364.06066 C575.779612,4363.67014 575.779612,4363.03697 575.389087,4362.64645 L575.389087,4362.64645 Z M525.146447,4359.11091 L521.610913,4362.64645 C521.220388,4363.03697 521.220388,4363.67014 521.610913,4364.06066 C522.001437,4364.45118 522.634602,4364.45118 523.025126,4364.06066 L526.56066,4360.52513 C526.951184,4360.1346 526.951184,4359.50144 526.56066,4359.11091 C526.170136,4358.72039 525.536971,4358.72039 525.146447,4359.11091 Z M552,4354 L545,4354 L545,4357 L552,4357 L552,4354 Z M555,4351 L542,4351 C541.447715,4351 541,4351.44772 541,4352 C541,4352.55228 541.447715,4353 542,4353 L542,4353 L555,4353 C555.552285,4353 556,4352.55228 556,4352 C556,4351.44772 555.552285,4351 555,4351 L555,4351 Z" id="icon-29-2"></path>
        </g>
    </g>
</svg>