<?xml version="1.0" encoding="UTF-8"?>
<svg width="37px" height="36px" viewBox="0 0 37 36" version="1.1" xmlns="http://www.w3.org/2000/svg" xmlns:xlink="http://www.w3.org/1999/xlink">
    <title>icon-15-8</title>
    <defs>
        <linearGradient x1="100%" y1="96.1015986%" x2="0%" y2="3.89840143%" id="linearGradient-1">
            <stop stop-color="#1E85E9" offset="0%"></stop>
            <stop stop-color="#8671F3" offset="20.275549%"></stop>
            <stop stop-color="#C06CFD" stop-opacity="0.99" offset="70.7268792%"></stop>
            <stop stop-color="#FFBEE8" offset="100%"></stop>
        </linearGradient>
    </defs>
    <g id="Page-1" stroke="none" stroke-width="1" fill="none" fill-rule="evenodd">
        <g id="icons" transform="translate(-1377.000000, -2407.000000)" fill="url(#linearGradient-1)" fill-rule="nonzero">
            <path d="M1395.73268,2407 C1395.97814,2407 1396.18229,2407.17688 1396.22462,2407.41012 L1396.23268,2407.5 L1396.232,2411.528 L1412.5,2411.52832 C1413.2797,2411.52832 1413.92045,2412.12321 1413.99313,2412.88386 L1414,2413.02832 L1414,2435.02832 C1414,2435.85675 1413.32843,2436.52832 1412.5,2436.52832 L1412.5,2436.52832 L1402.634,2436.528 L1407.35161,2441.69104 L1407.40629,2441.76283 C1407.53237,2441.96357 1407.50097,2442.23186 1407.31977,2442.39743 C1407.11591,2442.58371 1406.79965,2442.56945 1406.61338,2442.3656 L1406.61338,2442.3656 L1401.279,2436.528 L1389.581,2436.528 L1384.24844,2442.3656 C1384.06216,2442.56945 1383.7459,2442.58371 1383.54205,2442.39743 C1383.36084,2442.23186 1383.32945,2441.96357 1383.45553,2441.76283 L1383.51021,2441.69104 L1388.227,2436.528 L1378.5,2436.52832 C1377.7203,2436.52832 1377.07955,2435.93343 1377.00687,2435.17278 L1377,2435.02832 L1377,2413.02832 C1377,2412.19989 1377.67157,2411.52832 1378.5,2411.52832 L1378.5,2411.52832 L1395.232,2411.528 L1395.23268,2407.5 C1395.23268,2407.22386 1395.45654,2407 1395.73268,2407 Z M1412.5,2412.52832 L1378.5,2412.52832 C1378.22386,2412.52832 1378,2412.75218 1378,2413.02832 L1378,2413.02832 L1378,2435.02832 C1378,2435.30446 1378.22386,2435.52832 1378.5,2435.52832 L1378.5,2435.52832 L1412.5,2435.52832 C1412.77614,2435.52832 1413,2435.30446 1413,2435.02832 L1413,2435.02832 L1413,2413.02832 C1413,2412.75218 1412.77614,2412.52832 1412.5,2412.52832 L1412.5,2412.52832 Z M1393.84211,2420.68388 L1393.90709,2420.75852 L1398.484,2427.178 L1402.73926,2420.7722 C1402.87506,2420.56773 1403.13534,2420.49553 1403.35306,2420.58931 L1403.43239,2420.63232 C1403.63686,2420.76812 1403.70906,2421.02841 1403.61528,2421.24613 L1403.57227,2421.32545 L1398.91602,2428.3362 C1398.73976,2428.60158 1398.37147,2428.63155 1398.15309,2428.42045 L1398.09242,2428.34988 L1393.49,2421.897 L1388.09703,2429.13635 C1387.95036,2429.33317 1387.68655,2429.39118 1387.47422,2429.28576 L1387.39734,2429.23852 C1387.20052,2429.09185 1387.1425,2428.82804 1387.24793,2428.61571 L1387.29517,2428.53883 L1393.09907,2420.75007 C1393.28138,2420.50542 1393.6306,2420.48442 1393.84211,2420.68388 Z" id="icon-15-8"></path>
        </g>
    </g>
</svg>