<svg xmlns="http://www.w3.org/2000/svg" xmlns:xlink="http://www.w3.org/1999/xlink" width="62" height="62" viewBox="0 0 62 62">
  <defs>
    <linearGradient id="icon-9-2-b" x1="100%" x2="0%" y1="100%" y2="0%">
      <stop offset="0%" stop-color="#1E85E9"/>
      <stop offset="20.276%" stop-color="#8671F3"/>
      <stop offset="70.727%" stop-color="#C06CFD" stop-opacity=".99"/>
      <stop offset="100%" stop-color="#FFBEE8"/>
    </linearGradient>
    <rect id="icon-9-2-a" width="60" height="60" x="0" y="0" rx="4"/>
    <linearGradient id="icon-9-2-c" x1="100%" x2="0%" y1="87.076%" y2="12.924%">
      <stop offset="0%" stop-color="#1E85E9"/>
      <stop offset="20.276%" stop-color="#8671F3"/>
      <stop offset="70.727%" stop-color="#C06CFD"/>
      <stop offset="100%" stop-color="#FFBEE8"/>
    </linearGradient>
  </defs>
  <g fill="none" fill-rule="evenodd" transform="translate(1 1)">
    <g opacity=".062">
      <use fill="#FAFAFA" xlink:href="#icon-9-2-a"/>
      <use fill="url(#icon-9-2-b)" stroke="#000" stroke-opacity=".02" xlink:href="#icon-9-2-a"/>
    </g>
    <path fill="url(#icon-9-2-c)" fill-rule="nonzero" d="M45.5461127,43.1098094 C45.7967877,43.1098094 46,43.3112812 46,43.5598094 C46,43.7807233 45.8394372,43.9644569 45.6276995,44.0025593 L45.5461127,44.0098094 L10.4538873,44.0098094 C10.2032123,44.0098094 10,43.8083375 10,43.5598094 C10,43.3388955 10.1605628,43.1551618 10.3723005,43.1170595 L10.4538873,43.1098094 L45.5461127,43.1098094 Z M19.5720576,25.8187452 C20.3240827,25.8187452 20.9337195,26.4165731 20.9337195,27.1540311 L20.9337195,27.1540311 L20.9337195,39.6167 C20.9337195,40.3541581 20.3240827,40.951986 19.5720576,40.951986 L19.5720576,40.951986 L14.12541,40.951986 C13.3733849,40.951986 12.7637481,40.3541581 12.7637481,39.6167 L12.7637481,39.6167 L12.7637481,27.1540311 C12.7637481,26.4165731 13.3733849,25.8187452 14.12541,25.8187452 L14.12541,25.8187452 Z M31.1915724,20.1215251 C31.9435974,20.1215251 32.5532342,20.719353 32.5532342,21.4568111 L32.5532342,21.4568111 L32.5532342,39.6167 C32.5532342,40.3541581 31.9435974,40.951986 31.1915724,40.951986 L31.1915724,40.951986 L25.7449248,40.951986 C24.9928997,40.951986 24.3832629,40.3541581 24.3832629,39.6167 L24.3832629,39.6167 L24.3832629,21.4568111 C24.3832629,20.719353 24.9928997,20.1215251 25.7449248,20.1215251 L25.7449248,20.1215251 Z M42.8110871,13 C43.5631122,13 44.172749,13.5978279 44.172749,14.335286 L44.172749,14.335286 L44.172749,39.6167 C44.172749,40.3541581 43.5631122,40.951986 42.8110871,40.951986 L42.8110871,40.951986 L37.3644396,40.951986 C36.6124145,40.951986 36.0027777,40.3541581 36.0027777,39.6167 L36.0027777,39.6167 L36.0027777,14.335286 C36.0027777,13.5978279 36.6124145,13 37.3644396,13 L37.3644396,13 Z M19.5720576,26.7089358 L14.12541,26.7089358 C13.874735,26.7089358 13.6715227,26.9082118 13.6715227,27.1540311 L13.6715227,27.1540311 L13.6715227,39.6167 C13.6715227,39.8625194 13.874735,40.0617954 14.12541,40.0617954 L14.12541,40.0617954 L19.5720576,40.0617954 C19.8227326,40.0617954 20.0259449,39.8625194 20.0259449,39.6167 L20.0259449,39.6167 L20.0259449,27.1540311 C20.0259449,26.9082118 19.8227326,26.7089358 19.5720576,26.7089358 L19.5720576,26.7089358 Z M31.1915724,21.0117157 L25.7449248,21.0117157 C25.4942498,21.0117157 25.2910375,21.2109917 25.2910375,21.4568111 L25.2910375,21.4568111 L25.2910375,39.6167 C25.2910375,39.8625194 25.4942498,40.0617954 25.7449248,40.0617954 L25.7449248,40.0617954 L31.1915724,40.0617954 C31.4422474,40.0617954 31.6454596,39.8625194 31.6454596,39.6167 L31.6454596,39.6167 L31.6454596,21.4568111 C31.6454596,21.2109917 31.4422474,21.0117157 31.1915724,21.0117157 L31.1915724,21.0117157 Z M42.8110871,13.8901906 L37.3644396,13.8901906 C37.1137646,13.8901906 36.9105523,14.0894666 36.9105523,14.335286 L36.9105523,14.335286 L36.9105523,39.6167 C36.9105523,39.8625194 37.1137646,40.0617954 37.3644396,40.0617954 L37.3644396,40.0617954 L42.8110871,40.0617954 C43.0617622,40.0617954 43.2649744,39.8625194 43.2649744,39.6167 L43.2649744,39.6167 L43.2649744,14.335286 C43.2649744,14.0894666 43.0617622,13.8901906 42.8110871,13.8901906 L42.8110871,13.8901906 Z"/>
  </g>
</svg>
