<svg xmlns="http://www.w3.org/2000/svg" xmlns:xlink="http://www.w3.org/1999/xlink" width="62" height="62" viewBox="0 0 62 62">
  <defs>
    <linearGradient id="icon-12-6-b" x1="100%" x2="0%" y1="100%" y2="0%">
      <stop offset="0%" stop-color="#1E85E9"/>
      <stop offset="20.276%" stop-color="#8671F3"/>
      <stop offset="70.727%" stop-color="#C06CFD" stop-opacity=".99"/>
      <stop offset="100%" stop-color="#FFBEE8"/>
    </linearGradient>
    <rect id="icon-12-6-a" width="60" height="60" x="0" y="0" rx="4"/>
    <linearGradient id="icon-12-6-c" x1="100%" x2="0%" y1="97.016%" y2="2.984%">
      <stop offset="0%" stop-color="#1E85E9"/>
      <stop offset="20.276%" stop-color="#8671F3"/>
      <stop offset="70.727%" stop-color="#C06CFD" stop-opacity=".99"/>
      <stop offset="100%" stop-color="#FFBEE8"/>
    </linearGradient>
  </defs>
  <g fill="none" fill-rule="evenodd" transform="translate(1 1)">
    <g opacity=".062">
      <use fill="#FAFAFA" xlink:href="#icon-12-6-a"/>
      <use fill="url(#icon-12-6-b)" stroke="#000" stroke-opacity=".02" xlink:href="#icon-12-6-a"/>
    </g>
    <path fill="url(#icon-12-6-c)" fill-rule="nonzero" d="M46,31.5 L46.0115408,31.5001324 C46.0324012,31.500611 46.0532373,31.5023875 46.0739178,31.5054619 L46,31.5 C46.036097,31.5 46.0713007,31.5038252 46.1052277,31.5110922 C46.1204743,31.5143961 46.1358347,31.518448 46.1510116,31.5232413 C46.1647369,31.5275581 46.1780251,31.5324085 46.1910366,31.5377922 C46.2045389,31.5433515 46.2182757,31.5497496 46.2317582,31.556805 C46.2440467,31.5632933 46.2556825,31.5700193 46.2670103,31.577188 C46.2777524,31.5839253 46.2884882,31.5913097 46.2989858,31.5991603 C46.3138848,31.6103493 46.3279281,31.6221071 46.3412864,31.6345887 C46.345325,31.638357 46.3494658,31.642359 46.3535534,31.6464466 L46.3654113,31.6587136 C46.3770608,31.6711813 46.3880797,31.6842458 46.3984173,31.6978561 L46.3535534,31.6464466 C46.3803877,31.6732809 46.4035342,31.7024064 46.422993,31.7331935 C46.4299807,31.7443175 46.4367067,31.7559533 46.4429657,31.7678728 C46.4502504,31.7817243 46.4566485,31.7954611 46.4623894,31.8094049 C46.4675915,31.8219749 46.4724419,31.8352631 46.4767316,31.8488008 C46.481552,31.8641653 46.4856039,31.8795257 46.4889143,31.8950129 C46.4899978,31.8998614 46.4910104,31.9049792 46.4919443,31.9101244 L46.4943875,31.9250758 C46.4971548,31.9434346 46.4988987,31.9619178 46.4996194,31.9804335 L46.5,32 L46.5,37 C46.5,37.2761424 46.2761424,37.5 46,37.5 C45.7545401,37.5 45.5503916,37.3231248 45.5080557,37.0898756 L45.5,37 L45.5,33.206 L36,42.7071068 L31,37.707 L22.3535534,46.3535534 C22.179987,46.5271197 21.9105626,46.5464049 21.7156945,46.4114088 L21.6464466,46.3535534 C21.4728803,46.179987 21.4535951,45.9105626 21.5885912,45.7156945 L21.6464466,45.6464466 L31,36.2928932 L36,41.293 L44.792,32.5 L41,32.5 C40.7545401,32.5 40.5503916,32.3231248 40.5080557,32.0898756 L40.5,32 C40.5,31.7545401 40.6768752,31.5503916 40.9101244,31.5080557 L41,31.5 L46,31.5 Z M29,14.5 C36.7666212,14.5 43.305712,20.2456338 44.354547,27.8682278 C44.3921884,28.1417927 44.2009345,28.3940752 43.9273696,28.4317165 C43.6538048,28.4693578 43.4015223,28.278104 43.363881,28.0045391 C42.910467,24.7092727 41.3596464,21.7887399 39.1053159,19.6005381 L37.3535534,21.3535534 C37.1582912,21.5488155 36.8417088,21.5488155 36.6464466,21.3535534 C36.4728803,21.179987 36.4535951,20.9105626 36.5885912,20.7156945 L36.6464466,20.6464466 L38.3640895,18.9288671 C35.9469402,16.8850407 32.8581857,15.6230405 29.5006034,15.5085261 L29.5,18 C29.5,18.2761424 29.2761424,18.5 29,18.5 C28.7545401,18.5 28.5503916,18.3231248 28.5080557,18.0898756 L28.5,18 L28.5000922,15.508456 C25.1257735,15.6227782 22.0438828,16.8900389 19.6359398,18.9287183 L21.3535534,20.6464466 L21.4114088,20.7156945 C21.5464049,20.9105626 21.5271197,21.179987 21.3535534,21.3535534 C21.1582912,21.5488155 20.8417088,21.5488155 20.6464466,21.3535534 L20.6464466,21.3535534 L18.8939768,19.6019925 C16.2949141,22.1285201 14.6398771,25.6210834 14.508456,29.5000922 L17,29.5 C17.2761424,29.5 17.5,29.7238576 17.5,30 C17.5,30.2454599 17.3231248,30.4496084 17.0898756,30.4919443 L17,30.5 L14.508535,30.5009519 C14.6537587,34.7582713 16.6448866,38.6713014 19.9188019,41.3047432 L19.954,41.338 L21.6464466,39.6464466 C21.8417088,39.4511845 22.1582912,39.4511845 22.3535534,39.6464466 C22.5271197,39.820013 22.5464049,40.0894374 22.4114088,40.2843055 L22.3535534,40.3535534 L20.3535534,42.3535534 C20.1582912,42.5488155 19.8417088,42.5488155 19.6464466,42.3535534 C19.5980279,42.3051347 19.5616155,42.2492563 19.5372094,42.1896178 C19.4510965,42.1781967 19.3657251,42.1432241 19.2920324,42.0839479 C15.6565661,39.1596851 13.5,34.7564068 13.5,30 C13.5,21.4395864 20.4395864,14.5 29,14.5 Z M34.1496761,22.669566 C34.5743972,22.468104 35.0171774,22.9108841 34.8157153,23.3356053 L34.8157153,23.3356053 L34.2490859,24.522826 L33.7131876,25.6304608 L33.0460714,26.9840411 L32.5810037,27.9071777 L32.0075113,29.0158825 L31.6120485,29.756204 L31.2460412,30.4186916 L31.0182893,30.8172615 L30.803462,31.1814676 L30.6014926,31.5114014 L30.4123143,31.8071546 L30.2358606,32.0688187 L30.0720645,32.2964854 L29.9208595,32.4902462 L29.7821789,32.6501928 L29.7175144,32.7175144 C28.3506794,34.0843494 26.134602,34.0843494 24.767767,32.7175144 C23.4009319,31.3506794 23.4009319,29.134602 24.767767,27.767767 L24.767767,27.767767 L24.9108408,27.6353235 L25.0876831,27.4903891 L25.2983854,27.3328969 C25.3363292,27.305598 25.3756877,27.2777731 25.4164627,27.2494208 L25.4164627,27.2494208 L25.6781268,27.072967 L25.9738799,26.8837888 L26.3038138,26.6818193 L26.8630036,26.3547358 L27.4996152,25.998497 L28.2139577,25.6128777 L29.0063403,25.1976529 L29.8770722,24.7525974 L30.8264626,24.2774861 L32.2152084,23.5968617 Z M33.303,24.182 L32.3000985,24.667958 L30.9078335,25.3547383 L29.6678606,25.9825237 L28.5810497,26.550681 L27.8669775,26.9372869 L27.2399152,27.2897283 L26.8703939,27.5055771 L26.5398154,27.7060438 L26.2482887,27.8910491 L25.9959224,28.0605139 L25.7828254,28.2143591 L25.6091062,28.3525054 C25.5577749,28.3959289 25.5130247,28.4367228 25.4748737,28.4748737 C24.498563,29.4511845 24.498563,31.0340969 25.4748737,32.0104076 C26.4511845,32.9867184 28.0340969,32.9867184 29.0104076,32.0104076 C29.0867096,31.9341057 29.173583,31.8314068 29.2709223,31.702456 L29.2709223,31.702456 L29.4247674,31.4893589 L29.5942323,31.2369927 L29.7792376,30.9454659 L29.9797043,30.6148875 L30.309221,30.0460358 L30.6730803,29.3899295 L30.9346004,28.9042316 L31.3551034,28.1035164 L31.9680412,26.9017525 L32.6401322,25.5474789 L33.303,24.182 Z"/>
  </g>
</svg>
