<svg xmlns="http://www.w3.org/2000/svg" width="46" height="42" viewBox="0 0 46 42">
  <defs>
    <linearGradient id="icon-22-3-a" x1="100%" x2="0%" y1="91.682%" y2="8.318%">
      <stop offset="0%" stop-color="#1E85E9"/>
      <stop offset="20.276%" stop-color="#8671F3"/>
      <stop offset="70.727%" stop-color="#C06CFD" stop-opacity=".99"/>
      <stop offset="100%" stop-color="#FFBEE8"/>
    </linearGradient>
  </defs>
  <path fill="url(#icon-22-3-a)" d="M692,3400 C701.077519,3400 708.934031,3406.09609 711.268582,3414.69383 L711.350551,3415.00567 L710.762,3415.154 L712.396226,3415.15464 C713.834251,3415.15464 715,3416.31778 715,3417.75258 L715,3429.01031 C715,3430.44511 713.834251,3431.60825 712.396226,3431.60825 L708.924528,3431.60825 C708.648349,3431.60825 708.382213,3431.56535 708.132448,3431.48586 L708.211266,3431.54239 C705.074735,3435.8893 700.312465,3438.82105 694.967721,3439.61638 C694.670982,3440.97943 693.454942,3442 692,3442 C690.322305,3442 688.962264,3440.64301 688.962264,3438.96907 C688.962264,3437.29514 690.322305,3435.93814 692,3435.93814 C693.596892,3435.93814 694.905991,3437.16757 695.028388,3438.72953 C700.020699,3437.93684 704.468107,3435.19041 707.432197,3431.13923 C706.759981,3430.66938 706.320755,3429.89102 706.320755,3429.01031 L706.320755,3417.75258 C706.320755,3416.31778 707.486504,3415.15464 708.924528,3415.15464 L710.492,3415.154 L710.416016,3414.86594 C708.164877,3406.67159 700.663622,3400.86598 692,3400.86598 C683.223732,3400.86598 675.654855,3406.8215 673.507129,3415.15435 L675.075472,3415.15464 C676.513496,3415.15464 677.679245,3416.31778 677.679245,3417.75258 L677.679245,3429.01031 C677.679245,3430.44511 676.513496,3431.60825 675.075472,3431.60825 L671.603774,3431.60825 C670.165749,3431.60825 669,3430.44511 669,3429.01031 L669,3417.75258 C669,3416.31778 670.165749,3415.15464 671.603774,3415.15464 L672.612,3415.154 L672.632822,3415.07144 C674.831872,3406.28929 682.778143,3400 692,3400 Z M692,3436.80412 C690.801646,3436.80412 689.830189,3437.7734 689.830189,3438.96907 C689.830189,3440.16474 690.801646,3441.13402 692,3441.13402 C693.198354,3441.13402 694.169811,3440.16474 694.169811,3438.96907 C694.169811,3437.7734 693.198354,3436.80412 692,3436.80412 Z M675.075472,3416.02062 L671.603774,3416.02062 C670.688667,3416.02062 669.938951,3416.72715 669.872686,3417.62332 L669.867925,3417.75258 L669.867925,3429.01031 C669.867925,3429.92336 670.576045,3430.6714 671.474225,3430.73752 L671.603774,3430.74227 L675.075472,3430.74227 C675.990578,3430.74227 676.740294,3430.03573 676.80656,3429.13957 L676.811321,3429.01031 L676.811321,3417.75258 C676.811321,3416.83952 676.1032,3416.09149 675.20502,3416.02537 L675.075472,3416.02062 Z M712.396226,3416.02062 L708.924528,3416.02062 C708.009422,3416.02062 707.259706,3416.72715 707.19344,3417.62332 L707.188679,3417.75258 L707.188679,3429.01031 C707.188679,3429.92336 707.8968,3430.6714 708.79498,3430.73752 L708.924528,3430.74227 L712.396226,3430.74227 C713.311333,3430.74227 714.061049,3430.03573 714.127314,3429.13957 L714.132075,3429.01031 L714.132075,3417.75258 C714.132075,3416.83952 713.423955,3416.09149 712.525775,3416.02537 L712.396226,3416.02062 Z" transform="translate(-669 -3400)"/>
</svg>
