<svg xmlns="http://www.w3.org/2000/svg" xmlns:xlink="http://www.w3.org/1999/xlink" width="62" height="62" viewBox="0 0 62 62">
  <defs>
    <linearGradient id="icon-11-5-b" x1="100%" x2="0%" y1="100%" y2="0%">
      <stop offset="0%" stop-color="#1E85E9"/>
      <stop offset="20.276%" stop-color="#8671F3"/>
      <stop offset="70.727%" stop-color="#C06CFD" stop-opacity=".99"/>
      <stop offset="100%" stop-color="#FFBEE8"/>
    </linearGradient>
    <rect id="icon-11-5-a" width="60" height="60" x="0" y="0" rx="4"/>
    <linearGradient id="icon-11-5-c" x1="87.4%" x2="12.6%" y1="100%" y2="0%">
      <stop offset="0%" stop-color="#1E85E9"/>
      <stop offset="20.276%" stop-color="#8671F3"/>
      <stop offset="70.727%" stop-color="#C06CFD" stop-opacity=".99"/>
      <stop offset="100%" stop-color="#FFBEE8"/>
    </linearGradient>
  </defs>
  <g fill="none" fill-rule="evenodd" transform="translate(1 1)">
    <g opacity=".062">
      <use fill="#FAFAFA" xlink:href="#icon-11-5-a"/>
      <use fill="url(#icon-11-5-b)" stroke="#000" stroke-opacity=".02" xlink:href="#icon-11-5-a"/>
    </g>
    <path fill="url(#icon-11-5-c)" fill-rule="nonzero" d="M30.4889326,11 L30.4890819,11.0647498 C30.76922,11.1401667 31.0367046,11.2815266 31.2682326,11.4891539 C34.6610841,14.7228291 38.7299949,16.2274813 44.1158523,16.2274813 C45.1334056,16.2274813 45.923843,17.0004028 45.923843,17.9954073 C45.923843,18.8641192 45.9268556,19.4247738 45.938764,19.925293 L45.938764,19.925293 L45.9678566,20.7463213 C46.1087519,28.013852 45.8288876,31.6196452 44.2728784,35.7223381 C42.1355698,41.3577291 37.8087486,45.4610347 30.5397344,47.9137531 L30.5397344,47.9137531 L30.488,47.923 L30.4889326,47.989302 L30.149,47.989 L30.098727,48 L29.9085067,48 L29.859,47.989 L29.5189954,47.989302 L29.518,47.92 L29.4045545,47.8970704 C20.0664701,44.7492934 15.6676521,38.9562096 14.4171364,30.5572299 L14.3590771,30.1487941 C14.0500714,27.8682552 13.9712207,25.9143432 14.0085848,22.6480525 L14.0085848,22.6480525 L14.036424,20.8979543 L14.0593488,20.2466992 C14.0682313,19.9794454 14.0740062,19.7093784 14.0776633,19.3945589 L14.0776633,19.3945589 L14.0833907,17.9954073 C14.0833907,17.0004028 14.8738281,16.2274813 15.8913814,16.2274813 C21.2772388,16.2274813 25.3461496,14.7228291 28.7390011,11.4891539 L28.7390011,11.4891539 L28.7497962,11.4791759 C28.9769031,11.2756078 29.24075,11.1367335 29.5183315,11.0628735 L29.5189954,11 L30.4889326,11 Z M29.5183231,12.0916204 C29.4790555,12.1171399 29.4412233,12.1460414 29.4052066,12.178325 L29.4052066,12.178325 L29.1159172,12.4485219 C25.6954491,15.5762641 21.6068017,17.0883748 16.3575731,17.1722279 L16.3575731,17.1722279 L15.8913814,17.1759249 C15.4095097,17.1759249 15.0533279,17.5242137 15.0533279,17.9954073 C15.0533279,18.9707282 15.0495471,19.5636386 15.0339835,20.109838 L15.0339835,20.109838 L15.0091392,20.7643408 L14.9902091,21.8114562 C14.9348147,25.2693995 14.9846242,27.2852502 15.2497739,29.4728166 L15.2497739,29.4728166 L15.3206113,30.0242195 C16.4429125,38.3070812 20.6020349,43.9266093 29.6577197,46.9837275 L29.518,46.935 Z M30.4887609,12.0915231 L30.4893956,46.9311202 C37.1530835,44.6308008 41.1722992,40.8735998 43.2306933,35.7331855 L43.2306933,35.7331855 L43.3634663,35.3925464 C44.7900763,31.6310377 45.1071172,28.2593823 45.0156991,21.7960614 L45.0156991,21.7960614 L44.9985067,20.776843 C44.9761924,20.2968059 44.9645989,19.8830582 44.9588944,19.333929 L44.9588944,19.333929 L44.9539058,17.9954073 C44.9539058,17.5242137 44.5977241,17.1759249 44.1158523,17.1759249 C38.4851092,17.1759249 34.1717384,15.5808733 30.6020271,12.178325 C30.5659647,12.1460004 30.528082,12.1170664 30.4887609,12.0915231 Z"/>
  </g>
</svg>
