<svg xmlns="http://www.w3.org/2000/svg" xmlns:xlink="http://www.w3.org/1999/xlink" width="62" height="62" viewBox="0 0 62 62">
  <defs>
    <linearGradient id="icon-11-4-b" x1="100%" x2="0%" y1="100%" y2="0%">
      <stop offset="0%" stop-color="#1E85E9"/>
      <stop offset="20.276%" stop-color="#8671F3"/>
      <stop offset="70.727%" stop-color="#C06CFD" stop-opacity=".99"/>
      <stop offset="100%" stop-color="#FFBEE8"/>
    </linearGradient>
    <rect id="icon-11-4-a" width="60" height="60" x="0" y="0" rx="4"/>
    <linearGradient id="icon-11-4-c" x1="100%" x2="0%" y1="97.469%" y2="2.531%">
      <stop offset="0%" stop-color="#1E85E9"/>
      <stop offset="20.276%" stop-color="#8671F3"/>
      <stop offset="70.727%" stop-color="#C06CFD" stop-opacity=".99"/>
      <stop offset="100%" stop-color="#FFBEE8"/>
    </linearGradient>
  </defs>
  <g fill="none" fill-rule="evenodd" transform="translate(1 1)">
    <g opacity=".062">
      <use fill="#FAFAFA" xlink:href="#icon-11-4-a"/>
      <use fill="url(#icon-11-4-b)" stroke="#000" stroke-opacity=".02" xlink:href="#icon-11-4-a"/>
    </g>
    <path fill="url(#icon-11-4-c)" fill-rule="nonzero" d="M23.1126084,48.7519417 L22.0699318,49.0048792 L21.1,44.922 L17.1778748,44.9226379 C16.3298795,44.9226379 15.6335234,44.2803107 15.5587678,43.4606096 L15.5521239,43.3142099 L15.552,40.133 L11.2529375,41.1548348 L11,40.1121582 L15.5159746,39.0398728 L15.552,39.192 L15.552,33.699 L11.2529375,34.7211227 L11,33.678446 L15.5159746,32.6061606 L15.552,32.758 L15.552,27.266 L11.2529375,28.2874105 L11,27.2447338 L15.5159746,26.1724485 L15.552,26.325 L15.552,20.832 L11.2529375,21.8536983 L11,20.8110217 L15.5159746,19.7387363 L15.552,19.891 L15.5521239,16.5070759 C15.5521239,15.6681162 16.2013691,14.97918 17.0298983,14.905221 L17.1778748,14.8986478 L20.78,14.898 L19.9138125,11.2480583 L20.9564891,10.9951208 L21.882,14.898 L27.283,14.898 L26.416816,11.2480583 L27.4594926,10.9951208 L28.385,14.898 L33.786,14.898 L32.9198195,11.2480583 L33.9624961,10.9951208 L34.888,14.898 L40.289,14.898 L39.422823,11.2480583 L40.4654996,10.9951208 L41.391,14.898 L44.2737227,14.8986478 C45.121718,14.8986478 45.818074,15.5409751 45.8928296,16.3606761 L45.8994735,16.5070759 L45.899,20.652 L49.7470625,19.7387363 L50,20.781413 L45.899,21.754 L45.899,27.085 L49.7470625,26.1724485 L50,27.2151251 L45.899,28.188 L45.899,33.519 L49.7470625,32.6061606 L50,33.6488373 L45.899,34.622 L45.899,39.953 L49.7470625,39.0398728 L50,40.0825495 L45.899,41.055 L45.8994735,43.3142099 C45.8994735,44.1531696 45.2502284,44.8421057 44.4216991,44.9160648 L44.2737227,44.9226379 L41.712,44.922 L42.6216189,48.7519417 L41.5789422,49.0048792 L40.609,44.922 L35.209,44.922 L36.1186154,48.7519417 L35.0759387,49.0048792 L34.106,44.922 L28.706,44.922 L29.6156119,48.7519417 L28.5729352,49.0048792 L27.603,44.922 L22.203,44.922 L23.1126084,48.7519417 Z M44.2737227,15.9709332 L17.1778748,15.9709332 C16.8785823,15.9709332 16.6359578,16.2109725 16.6359578,16.5070759 L16.6359578,16.5070759 L16.6359578,43.3142099 C16.6359578,43.6103133 16.8785823,43.8503526 17.1778748,43.8503526 L17.1778748,43.8503526 L44.2737227,43.8503526 C44.5730151,43.8503526 44.8156396,43.6103133 44.8156396,43.3142099 L44.8156396,43.3142099 L44.8156396,16.5070759 C44.8156396,16.2109725 44.5730151,15.9709332 44.2737227,15.9709332 L44.2737227,15.9709332 Z M39.3964701,21.8685027 L39.3964701,37.9527831 L22.0551274,37.9527831 L22.0551274,21.8685027 L39.3964701,21.8685027 Z M38.3122749,22.940788 L23.1386,22.940788 L23.1386,36.8804977 L38.3122749,36.8804977 L38.3122749,22.940788 Z M30.7257987,27.7660722 C31.9229686,27.7660722 32.8934666,28.7262292 32.8934666,29.9106429 C32.8934666,31.0950566 31.9229686,32.0552136 30.7257987,32.0552136 C29.5286288,32.0552136 28.5581309,31.0950566 28.5581309,29.9106429 C28.5581309,28.7262292 29.5286288,27.7660722 30.7257987,27.7660722 Z M30.7257987,28.8383575 C30.1272138,28.8383575 29.6419648,29.318436 29.6419648,29.9106429 C29.6419648,30.5028497 30.1272138,30.9829282 30.7257987,30.9829282 C31.3243837,30.9829282 31.8096326,30.5028497 31.8096326,29.9106429 C31.8096326,29.318436 31.3243837,28.8383575 30.7257987,28.8383575 Z"/>
  </g>
</svg>
