<svg xmlns="http://www.w3.org/2000/svg" width="34" height="41" viewBox="0 0 34 41">
  <defs>
    <linearGradient id="icon-14-5-a" x1="81.087%" x2="16.939%" y1="97.147%" y2="2.5%">
      <stop offset="0%" stop-color="#1E85E9"/>
      <stop offset="20.276%" stop-color="#8671F3"/>
      <stop offset="70.727%" stop-color="#C06CFD" stop-opacity=".99"/>
      <stop offset="100%" stop-color="#FFBEE8"/>
    </linearGradient>
  </defs>
  <path fill="url(#icon-14-5-a)" d="M982.789923,2263 L986.589474,2266.93679 L989.354,2270.003 L989.421875,2270.00313 L989.421,2270.078 L989.84375,2270.54644 L989.84375,2293.79688 C989.84375,2295.89383 988.143831,2297.59375 986.046875,2297.59375 L986.046875,2297.59375 L983.843,2297.593 L983.84375,2299.79688 C983.84375,2301.8283 982.248416,2303.48712 980.242262,2303.58881 L980.046875,2303.59375 L959.796875,2303.59375 C957.765449,2303.59375 956.106633,2301.99842 956.00494,2299.99226 L956,2299.79688 L956,2272.79688 C956,2270.76545 957.595334,2269.10663 959.601488,2269.00494 L959.796875,2269 L962,2269 L962,2266.79688 C962,2264.76545 963.595334,2263.10663 965.601488,2263.00494 L965.796875,2263 L982.789923,2263 Z M962,2269.843 L959.796875,2269.84375 C958.224158,2269.84375 956.938584,2271.07316 956.848763,2272.62336 L956.84375,2272.79688 L956.84375,2299.79688 C956.84375,2301.36959 958.073156,2302.65517 959.623356,2302.74499 L959.796875,2302.75 L980.046875,2302.75 C981.619592,2302.75 982.905166,2301.52059 982.994987,2299.97039 L983,2299.79688 L983,2297.593 L965.796875,2297.59375 C963.765449,2297.59375 962.106633,2295.99842 962.00494,2293.99226 L962,2293.79688 L962,2269.843 Z M982.25,2263.842 L965.796875,2263.84375 C964.165909,2263.84375 962.84375,2265.16591 962.84375,2266.79688 L962.84375,2266.79688 L962.84375,2293.79688 C962.84375,2295.42784 964.165909,2296.75 965.796875,2296.75 L965.796875,2296.75 L986.046875,2296.75 C987.677841,2296.75 989,2295.42784 989,2293.79688 L989,2293.79688 L989,2270.87088 L988.978,2270.846 L983.09375,2270.84688 C982.663605,2270.84688 982.308639,2270.525 982.256574,2270.10896 L982.25,2270.00313 L982.25,2263.842 Z M983.09375,2285.35938 C983.326745,2285.35938 983.515625,2285.54825 983.515625,2285.78125 C983.515625,2285.98836 983.366387,2286.16061 983.169583,2286.19633 L983.09375,2286.20312 L967.90625,2286.20312 C967.673255,2286.20312 967.484375,2286.01425 967.484375,2285.78125 C967.484375,2285.57414 967.633613,2285.40189 967.830417,2285.36617 L967.90625,2285.35938 L983.09375,2285.35938 Z M983.09375,2281.14062 C983.326745,2281.14062 983.515625,2281.3295 983.515625,2281.5625 C983.515625,2281.76961 983.366387,2281.94186 983.169583,2281.97758 L983.09375,2281.98438 L967.90625,2281.98438 C967.673255,2281.98438 967.484375,2281.7955 967.484375,2281.5625 C967.484375,2281.35539 967.633613,2281.18314 967.830417,2281.14742 L967.90625,2281.14062 L983.09375,2281.14062 Z M983.09375,2276.92188 C983.326745,2276.92188 983.515625,2277.11075 983.515625,2277.34375 C983.515625,2277.55086 983.366387,2277.72311 983.169583,2277.75883 L983.09375,2277.76562 L967.90625,2277.76562 C967.673255,2277.76562 967.484375,2277.57675 967.484375,2277.34375 C967.484375,2277.13664 967.633613,2276.96439 967.830417,2276.92867 L967.90625,2276.92188 L983.09375,2276.92188 Z M983.093,2264.529 L983.09375,2270.00313 L988.218,2270.003 L985.972596,2267.51227 L983.093,2264.529 Z" transform="translate(-956 -2263)"/>
</svg>
