<svg xmlns="http://www.w3.org/2000/svg" width="36" height="36" viewBox="0 0 36 36">
  <defs>
    <linearGradient id="icon-20-2-a" x1="100%" x2="0%" y1="100%" y2="0%">
      <stop offset="0%" stop-color="#1E85E9"/>
      <stop offset="20.276%" stop-color="#8671F3"/>
      <stop offset="70.727%" stop-color="#C06CFD" stop-opacity=".99"/>
      <stop offset="100%" stop-color="#FFBEE8"/>
    </linearGradient>
  </defs>
  <path fill="url(#icon-20-2-a)" d="M552.852735,3112 L552.852735,3115.93536 C552.852793,3116.01861 552.910948,3116.09053 552.992568,3116.10806 C554.669089,3116.46886 556.265639,3117.13275 557.70103,3118.06536 C557.770844,3118.11019 557.862441,3118.10041 557.920418,3118.04266 L557.920418,3118.04266 L560.708407,3115.25467 L564.741744,3119.28896 L561.957231,3122.07969 C561.898311,3122.13858 561.888518,3122.23062 561.932957,3122.2994 C562.867136,3123.73747 563.531005,3125.33397 563.891989,3127.01069 C563.909472,3127.09208 563.981392,3127.15024 564.064236,3127.15029 L564.064236,3127.15029 L568,3127.15029 L568,3132.85273 L564.064643,3132.85273 C563.981392,3132.85279 563.909472,3132.91095 563.891931,3132.99261 C563.531005,3134.66906 562.867136,3136.26556 561.934636,3137.70103 C561.889812,3137.77084 561.899589,3137.86244 561.957338,3137.92042 L561.957338,3137.92042 L564.745328,3140.70841 L560.71104,3144.74174 L557.92031,3141.95723 C557.861421,3141.89831 557.769381,3141.88852 557.700642,3141.93293 C556.26261,3142.86725 554.666059,3143.53114 552.989313,3143.89199 C552.907918,3143.90947 552.849764,3143.98139 552.849705,3144.06424 L552.849705,3144.06424 L552.849705,3148 L547.147265,3148 L547.147265,3144.06464 C547.147207,3143.98139 547.089052,3143.90947 547.007465,3143.89195 C545.331091,3143.53129 543.734722,3142.86736 542.299374,3141.93441 C542.229521,3141.88949 542.137814,3141.89927 542.079648,3141.95727 L542.079648,3141.95727 L539.292657,3144.74515 L535.254789,3140.71109 L538.042012,3137.92031 C538.100932,3137.86142 538.110725,3137.76938 538.066133,3137.70037 C537.133385,3136.26297 536.469922,3134.66788 536.108011,3132.99234 C536.090528,3132.91095 536.018608,3132.85279 535.935764,3132.85273 L535.935764,3132.85273 L532,3132.85273 L532,3127.14727 L535.935357,3127.14727 C536.018608,3127.14721 536.090528,3127.08905 536.10811,3127.0072 C536.469516,3125.33122 537.132991,3123.73502 538.064606,3122.29897 C538.10943,3122.22916 538.099653,3122.13756 538.041578,3122.07926 L538.041578,3122.07926 L535.254999,3119.28824 L539.289221,3115.25496 L542.079918,3118.043 C542.138834,3118.10201 542.230985,3118.11181 542.300029,3118.06713 C543.737752,3117.13264 545.33412,3116.46871 547.008365,3116.10851 C547.089478,3116.09074 547.147279,3116.0189 547.147265,3115.93576 L547.147265,3115.93576 L547.147265,3112 L552.852735,3112 Z M551.690839,3113.16129 L548.308,3113.16129 L548.308555,3115.93567 C548.308652,3116.51602 547.935764,3117.02417 547.393679,3117.2051 L547.393679,3117.2051 L547.254751,3117.24336 C545.716678,3117.57427 544.252012,3118.18342 542.931939,3119.04144 C542.401886,3119.38447 541.704172,3119.31029 541.258622,3118.86401 L541.258622,3118.86401 L539.289419,3116.896 L536.896,3119.28826 L538.863862,3121.25923 C539.270231,3121.66719 539.366299,3122.28393 539.116933,3122.79281 L539.116933,3122.79281 L539.040333,3122.92869 C538.183938,3124.2488 537.575004,3125.71378 537.243406,3127.25153 C537.111037,3127.8678 536.5665,3128.30811 535.935764,3128.30856 L535.935764,3128.30856 L533.16129,3128.308 L533.16129,3131.69084 L535.936172,3131.69144 C536.518013,3131.69185 537.026754,3132.06706 537.20558,3132.60898 L537.20558,3132.60898 L537.243265,3132.74782 C537.575296,3134.28502 538.184219,3135.74899 539.040908,3137.06917 C539.383209,3137.59893 539.309062,3138.29581 538.863322,3138.74131 L538.863322,3138.74131 L536.896,3140.70942 L539.290581,3143.10284 L541.259002,3141.13561 C541.667153,3140.7286 542.284616,3140.63245 542.793898,3140.88241 L542.793898,3140.88241 L542.929873,3140.95919 C544.248982,3141.81658 545.713649,3142.42573 547.251529,3142.75659 C547.867801,3142.88896 548.308113,3143.4335 548.308555,3144.06424 L548.308555,3144.06424 L548.308,3146.83871 L551.687355,3146.83871 L551.688415,3144.06383 C551.688823,3143.48199 552.064032,3142.97325 552.606291,3142.79435 L552.606291,3142.79435 L552.745216,3142.75664 C554.283526,3142.42559 555.748459,3141.81643 557.069171,3140.95833 C557.598933,3140.61603 558.295806,3140.69018 558.741116,3141.13572 L558.741116,3141.13572 L560.710581,3143.09935 L563.102839,3140.70826 L561.13538,3138.74077 C560.729011,3138.33281 560.632944,3137.71607 560.88246,3137.20695 L560.88246,3137.20695 L560.959105,3137.07101 C561.816305,3135.75144 562.425469,3134.2865 562.756594,3132.74847 C562.888963,3132.1322 563.4335,3131.69189 564.064236,3131.69144 L564.064236,3131.69144 L566.83871,3131.69084 L566.83871,3128.31148 L564.063828,3128.31158 C563.481987,3128.31118 562.973246,3127.93597 562.794355,3127.39375 L562.794355,3127.39375 L562.756653,3127.25483 C562.425469,3125.71653 561.816305,3124.25159 560.958335,3122.93083 C560.616033,3122.40107 560.69018,3121.70419 561.135724,3121.25888 L561.135724,3121.25888 L563.099355,3119.28826 L560.708258,3116.89716 L558.740771,3118.86462 C558.33281,3119.27099 557.716067,3119.36706 557.206923,3119.11752 L557.206923,3119.11752 L557.070971,3119.04087 C555.751489,3118.18357 554.286556,3117.57441 552.748471,3117.24341 C552.132199,3117.11104 551.691887,3116.5665 551.691445,3115.93576 L551.691445,3115.93576 L551.690839,3113.16129 Z M550,3123.03226 C553.848178,3123.03226 556.967742,3126.15182 556.967742,3130.0007 C556.963476,3133.84672 553.846724,3136.96348 550,3136.96774 C546.151822,3136.96774 543.032258,3133.84818 543.032258,3130 C543.032258,3126.15182 546.151822,3123.03226 550,3123.03226 Z M550,3124.19355 C546.793185,3124.19355 544.193548,3126.79319 544.193548,3130 C544.193548,3133.20681 546.793185,3135.80645 549.999284,3135.80645 C553.20502,3135.8029 555.802896,3133.20502 555.806452,3130 C555.806452,3126.79319 553.206815,3124.19355 550,3124.19355 Z" transform="translate(-532 -3112)"/>
</svg>
