<svg xmlns="http://www.w3.org/2000/svg" xmlns:xlink="http://www.w3.org/1999/xlink" width="62" height="62" viewBox="0 0 62 62">
  <defs>
    <linearGradient id="icon-2-6-b" x1="100%" x2="0%" y1="100%" y2="0%">
      <stop offset="0%" stop-color="#1E85E9"/>
      <stop offset="20.276%" stop-color="#8671F3"/>
      <stop offset="70.727%" stop-color="#C06CFD" stop-opacity=".99"/>
      <stop offset="100%" stop-color="#FFBEE8"/>
    </linearGradient>
    <rect id="icon-2-6-a" width="60" height="60" x="0" y="0" rx="4"/>
    <linearGradient id="icon-2-6-c" x1="87.231%" x2="12.769%" y1="100%" y2="0%">
      <stop offset="0%" stop-color="#1E85E9"/>
      <stop offset="20.276%" stop-color="#8671F3"/>
      <stop offset="70.727%" stop-color="#C06CFD" stop-opacity=".99"/>
      <stop offset="100%" stop-color="#FFBEE8"/>
    </linearGradient>
  </defs>
  <g fill="none" fill-rule="evenodd" transform="translate(1 1)">
    <g opacity=".062">
      <use fill="#FAFAFA" xlink:href="#icon-2-6-a"/>
      <use fill="url(#icon-2-6-b)" stroke="#000" stroke-opacity=".02" xlink:href="#icon-2-6-a"/>
    </g>
    <path fill="url(#icon-2-6-c)" fill-rule="nonzero" d="M30.1800004,13 C35.4015759,13 39.6591103,16.9871932 39.8043696,21.9679654 L39.8082007,22.2310125 L39.808,26.448 L41.9847382,26.4482 C43.0471457,26.4482 43.9175406,27.3023153 43.9944724,28.3856756 L44,28.5419334 L44,43.3544666 C44,44.4582429 43.1778963,45.3625298 42.1351395,45.4424572 L41.9847382,45.4482 L18.0152618,45.4482 C16.9528543,45.4482 16.0824594,44.5940847 16.0055276,43.5107244 L16,43.3544666 L16,28.5419334 C16,27.4381571 16.8221037,26.5338702 17.8648605,26.4539428 L18.0152618,26.4482 L20.551,26.448 L20.5518,22.2310125 C20.5518,17.1283219 24.8668183,13 30.1800004,13 Z M41.8086125,27.4482 L18.1913875,27.4482 C17.5745264,27.4482 17.0671619,27.9332566 17.006151,28.5548396 L17,28.6808733 L17,43.2155268 C17,43.8537642 17.4688107,44.3787107 18.0695751,44.4418359 L18.1913875,44.4482 L41.8086125,44.4482 C42.4254736,44.4482 42.9328381,43.9631434 42.993849,43.3415604 L43,43.2155268 L43,28.6808733 C43,28.0000866 42.4665976,27.4482 41.8086125,27.4482 Z M30,30.9482 C31.3807119,30.9482 32.5,32.0674881 32.5,33.4482 C32.5,34.0630254 32.2763115,34.6423097 31.884364,35.091281 L31.884364,35.091281 L31.846,35.1312 L32.6098968,38.9482 L27.3899076,38.9482 L28.154,35.1322 L28.1165094,35.0922818 C27.7632788,34.6880924 27.5464907,34.1781259 27.5066653,33.6316251 L27.5066653,33.6316251 L27.5,33.4482 C27.5,32.0674881 28.6192881,30.9482 30,30.9482 Z M30,31.9482 C29.1715729,31.9482 28.5,32.6197729 28.5,33.4482 C28.5,33.89186 28.6930674,34.3030533 29.0233273,34.5867154 L29.0233273,34.5867154 L29.2452731,34.7773459 L28.61,37.9482 L31.39,37.9482 L30.7558206,34.7766515 L30.9774029,34.5860878 C31.307229,34.302433 31.5,33.8915231 31.5,33.4482 C31.5,32.6197729 30.8284271,31.9482 30,31.9482 Z M30.1800004,13.8964 C25.4409934,13.8964 21.590506,17.4978541 21.4520548,21.9810559 L21.4482,22.2310125 L21.448,26.448 L38.911,26.448 L38.9118007,22.2310125 C38.9118007,17.6324763 35.0067667,13.8964 30.1800004,13.8964 Z"/>
  </g>
</svg>
