<svg xmlns="http://www.w3.org/2000/svg" width="32" height="37" viewBox="0 0 32 37">
  <defs>
    <linearGradient id="icon-22-9-a" x1="86.24%" x2="13.76%" y1="100%" y2="0%">
      <stop offset="0%" stop-color="#1E85E9"/>
      <stop offset="20.276%" stop-color="#8671F3"/>
      <stop offset="70.727%" stop-color="#C06CFD" stop-opacity=".99"/>
      <stop offset="100%" stop-color="#FFBEE8"/>
    </linearGradient>
  </defs>
  <path fill="url(#icon-22-9-a)" d="M1538.5,3421 C1538.74546,3421 1538.94961,3421.17688 1538.99194,3421.41012 L1539,3421.5 L1539,3439.5 C1539,3439.77614 1538.77614,3440 1538.5,3440 C1538.25454,3440 1538.05039,3439.82312 1538.00806,3439.58988 L1538,3439.5 L1538,3421.5 C1538,3421.22386 1538.22386,3421 1538.5,3421 Z M1530.5,3426 C1530.74546,3426 1530.94961,3426.17688 1530.99194,3426.41012 L1531,3426.5 L1531,3439.5 C1531,3439.77614 1530.77614,3440 1530.5,3440 C1530.25454,3440 1530.05039,3439.82312 1530.00806,3439.58988 L1530,3439.5 L1530,3426.5 C1530,3426.22386 1530.22386,3426 1530.5,3426 Z M1523.5,3431 C1523.74546,3431 1523.94961,3431.17688 1523.99194,3431.41012 L1524,3431.5 L1524,3439.5 C1524,3439.77614 1523.77614,3440 1523.5,3440 C1523.25454,3440 1523.05039,3439.82312 1523.00806,3439.58988 L1523,3439.5 L1523,3431.5 C1523,3431.22386 1523.22386,3431 1523.5,3431 Z M1548.87262,3403.16616 L1548.92664,3403.23927 L1554.42664,3412.23927 C1554.57064,3412.4749 1554.49635,3412.78265 1554.26073,3412.92664 C1554.05128,3413.05464 1553.78485,3413.01016 1553.6271,3412.83321 L1553.57336,3412.76073 L1549,3405.275 L1549,3439.01351 C1549,3439.28966 1548.77614,3439.51351 1548.5,3439.51351 C1548.25454,3439.51351 1548.05039,3439.33664 1548.00806,3439.10339 L1548,3439.01351 L1548,3405.275 L1543.42664,3412.76073 C1543.29865,3412.97017 1543.04127,3413.05214 1542.82016,3412.96663 L1542.73927,3412.92664 C1542.52983,3412.79865 1542.44786,3412.54127 1542.53337,3412.32016 L1542.57336,3412.23927 L1548.07336,3403.23927 C1548.25208,3402.94683 1548.65631,3402.92246 1548.87262,3403.16616 Z" transform="translate(-1523 -3403)"/>
</svg>
