<?xml version="1.0" encoding="UTF-8"?>
<svg width="62px" height="62px" viewBox="0 0 62 62" version="1.1" xmlns="http://www.w3.org/2000/svg" xmlns:xlink="http://www.w3.org/1999/xlink">
    <title>icon-35-8</title>
    <defs>
        <linearGradient x1="100%" y1="100%" x2="0%" y2="0%" id="linearGradient-1">
            <stop stop-color="#1E85E9" offset="0%"></stop>
            <stop stop-color="#8671F3" offset="20.275549%"></stop>
            <stop stop-color="#C06CFD" stop-opacity="0.99" offset="70.7268792%"></stop>
            <stop stop-color="#FFBEE8" offset="100%"></stop>
        </linearGradient>
        <rect id="path-2" x="0" y="0" width="59.9999964" height="59.9999964" rx="3.99999976"></rect>
    </defs>
    <g id="Page-1" stroke="none" stroke-width="1" fill="none" fill-rule="evenodd">
        <g id="icons" transform="translate(-1366.000000, -5218.000000)">
            <g id="icon-35-8" transform="translate(1367.000000, 5219.000000)">
                <g id="Rectangle" opacity="0.0620721756">
                    <use fill="#FAFAFA" xlink:href="#path-2"></use>
                    <use stroke-opacity="0.02" stroke="#000000" stroke-width="1" fill="url(#linearGradient-1)" xlink:href="#path-2"></use>
                </g>
                <path d="M36.115007,17 L36.1150069,20.6074107 C36.1150604,20.6837239 36.1683686,20.7496507 36.2431873,20.765721 C37.7799978,21.0964512 39.2435024,21.7050179 40.5592777,22.5599166 C40.607275,22.5907332 40.6665038,22.593396 40.715539,22.5704688 L40.7603829,22.5391066 L43.3160402,19.9834493 L47.0132656,23.6815463 L44.4607948,26.2397158 C44.4067847,26.2936975 44.3978078,26.3780673 44.4385438,26.4411153 C45.2948749,27.7593479 45.9034212,29.2228035 46.2343236,30.7597968 C46.2471442,30.8194861 46.2919014,30.8655412 46.3481727,30.881603 L46.392216,30.88777 L50,30.88777 L50,36.115007 L46.3925893,36.1150069 C46.3162761,36.1150604 46.2503493,36.1683686 46.2342698,36.2432303 C45.9034212,37.7799735 45.2948749,39.2434291 44.4400834,40.5592777 C44.4092668,40.607275 44.406604,40.6665038 44.4295312,40.715539 L44.4608934,40.7603829 L47.0165507,43.3160402 L43.3184537,47.0132656 L40.7602842,44.4607948 C40.7063025,44.4067847 40.6219327,44.3978078 40.5589216,44.4385198 C39.2407254,45.2949821 37.7772208,45.9035488 36.2402032,46.2343236 C36.1805139,46.2471442 36.1344588,46.2919014 36.118397,46.3481727 L36.11223,46.392216 L36.11223,50 L30.884993,50 L30.8849931,46.3925893 C30.8849396,46.3162761 30.8316314,46.2503493 30.7568433,46.2342856 C29.2201667,45.9036788 27.7568287,45.2950794 26.441093,44.4398755 C26.393069,44.4089927 26.3337766,44.4063154 26.2846378,44.4293376 L26.2396771,44.4608335 L23.6849357,47.016389 L19.9835561,43.3184955 L22.5385109,40.7602842 C22.592521,40.7063025 22.601498,40.6219327 22.5606217,40.5586686 C21.7056026,39.2410602 21.0974284,37.7788907 20.7656764,36.2429802 C20.7528558,36.1832909 20.7080986,36.1372358 20.6518273,36.121174 L20.607784,36.115007 L17,36.115007 L17,30.884993 L20.6074107,30.8849931 C20.6837239,30.8849396 20.7496507,30.8316314 20.7657673,30.7565975 C21.0970562,29.2202809 21.7052419,27.7571023 22.5592223,26.4407223 C22.590039,26.392725 22.5927018,26.3334962 22.5696482,26.2843345 L22.5381128,26.2393174 L19.9837488,23.6808834 L23.6817861,19.9837177 L26.2399246,22.5394143 C26.2939313,22.5935093 26.378403,22.6024899 26.4416933,22.5615317 C27.7596057,21.7049206 29.2229437,21.0963212 30.7576676,20.7661383 C30.8171509,20.753107 30.8629573,20.7083509 30.878894,20.6519522 L30.884993,20.607784 L30.884993,17 L36.115007,17 Z M35.0499355,18.0645161 L31.949,18.0645161 L31.9495091,20.6076955 C31.9495902,21.095349 31.6623786,21.527393 31.2317609,21.723762 L31.1108724,21.7713388 L30.9835214,21.8064175 C29.5736219,22.1097489 28.2310105,22.6681383 27.0209442,23.4546509 C26.5724376,23.7449097 25.9929769,23.7092999 25.5852493,23.3803443 L25.4870704,23.2920129 L23.6819677,21.488 L21.488,23.6809032 L23.2918738,25.4876269 C23.6305146,25.8275941 23.7340784,26.3257299 23.5783698,26.7639596 L23.5238549,26.8934133 L23.4536384,27.0179642 C22.66861,28.2280671 22.1104199,29.5709657 21.8064554,30.9805679 C21.6944511,31.5020294 21.2605161,31.886054 20.7396701,31.942368 L20.607784,31.9495091 L18.0645161,31.949 L18.0645161,35.0499355 L20.6081574,35.050491 C21.0970655,35.050834 21.5296685,35.3398685 21.7246367,35.7706714 L21.7717818,35.8915677 L21.806326,36.0188315 C22.1106877,37.4279318 22.6688673,38.7699044 23.4541658,39.9800734 C23.7438053,40.4283338 23.7081715,41.0071184 23.3796044,41.4147122 L23.2913785,41.5128696 L21.488,43.3169677 L23.6830323,45.5109355 L25.4874183,43.7076399 C25.827544,43.3684659 26.3262395,43.2647941 26.764846,43.4208945 L26.8944067,43.4755421 L27.01905,43.5459216 C28.2282336,44.3318617 29.5708449,44.8902511 30.9805679,45.1935446 C31.5020294,45.3055489 31.886054,45.7394839 31.942368,46.2603299 L31.9495091,46.392216 L31.949,48.9354839 L35.0467419,48.9354839 L35.047714,46.3918426 C35.048057,45.9029345 35.3370915,45.4703315 35.7681329,45.2753119 L35.8891002,45.2281514 L36.016448,45.1935891 C37.4265657,44.8901239 38.7694208,44.3317267 39.9800734,43.54514 C40.4283338,43.2555004 41.0071184,43.2911343 41.4145706,43.6195599 L41.5126895,43.7077474 L43.3180323,45.5077419 L45.5109355,43.3159032 L43.707432,41.5123731 C43.3687911,41.1724059 43.2652273,40.6742701 43.4210394,40.235881 L43.4755886,40.1063746 L43.5458461,39.9817604 C44.3316128,38.7721545 44.8900128,37.4292925 45.1935446,36.0194321 C45.3055489,35.4979706 45.7394839,35.113946 46.2603299,35.057632 L46.392216,35.0504909 L48.9354839,35.0499355 L48.9354839,31.9521935 L46.3918426,31.952286 C45.9029345,31.951943 45.4703315,31.6629085 45.2753175,31.2318932 L45.2281587,31.1109336 L45.1935984,30.983595 C44.8900128,29.5734845 44.3316128,28.2306225 43.54514,27.0199266 C43.2555004,26.5716662 43.2911343,25.9928816 43.6195599,25.5854294 L43.7077474,25.4873105 L45.5077419,23.6809032 L43.3159032,21.4890645 L41.5123731,23.292568 C41.1724059,23.6312089 40.6742701,23.7347727 40.2358597,23.5789468 L40.1063462,23.524393 L39.9817236,23.4541299 C38.7721978,22.6682733 37.4293427,22.1098761 36.0194321,21.8064554 C35.4979706,21.6944511 35.113946,21.2605161 35.057632,20.7396701 L35.0504909,20.607784 L35.0499355,18.0645161 Z M29.115007,10 L29.1150069,13.6074107 C29.1150604,13.6837239 29.1683686,13.7496507 29.2431873,13.765721 C30.7799978,14.0964512 32.2435024,14.7050179 33.5592777,15.5599166 C33.607275,15.5907332 33.6665038,15.593396 33.715539,15.5704688 L33.7603829,15.5391066 L36.3160402,12.9834493 L40.0132656,16.6815463 L37.4607948,19.2397158 C37.4067847,19.2936975 37.3978078,19.3780673 37.4385438,19.4411153 C37.7281882,19.8869927 37.9894847,20.3494844 38.2212777,20.8258164 C37.7500852,20.6491401 37.2698467,20.4998273 36.7817043,20.3777112 L36.7657505,20.3729289 C36.7169332,20.2916798 36.6671184,20.2109753 36.6163138,20.1308338 L36.6148881,18.5912618 C36.6164387,18.5893138 36.617996,18.5873697 36.6195599,18.5854294 L36.7077474,18.4873105 L38.5077419,16.6809032 L36.3159032,14.4890645 L34.5123731,16.292568 C34.4273813,16.3772282 34.332504,16.4471961 34.2311457,16.5020918 L33.063,16.5 L32.9817236,16.4541299 C31.7721978,15.6682733 30.4293427,15.1098761 29.0194321,14.8064554 C28.4979706,14.6944511 28.113946,14.2605161 28.057632,13.7396701 L28.0504909,13.607784 L28.0499355,11.0645161 L24.949,11.0645161 L24.9495091,13.6076955 C24.9495902,14.095349 24.6623786,14.527393 24.2317609,14.723762 L24.1108724,14.7713388 L23.9835214,14.8064175 C22.5736219,15.1097489 21.2310105,15.6681383 20.0209442,16.4546509 C19.5724376,16.7449097 18.9929769,16.7092999 18.5852493,16.3803443 L18.4870704,16.2920129 L16.6819677,14.488 L14.488,16.6809032 L16.2918738,18.4876269 C16.6305146,18.8275941 16.7340784,19.3257299 16.5783698,19.7639596 L16.5238549,19.8934133 L16.4536384,20.0179642 C15.66861,21.2280671 15.1104199,22.5709657 14.8064554,23.9805679 C14.6944511,24.5020294 14.2605161,24.886054 13.7396701,24.942368 L13.607784,24.9495091 L11.0645161,24.949 L11.0645161,28.0499355 L13.6081574,28.050491 C14.0970655,28.050834 14.5296685,28.3398685 14.7246367,28.7706714 L14.7717818,28.8915677 L14.806326,29.0188315 C15.1106877,30.4279318 15.6688673,31.7699044 16.4541658,32.9800734 L16.5,33.061 L16.5016818,34.2317315 C16.4669487,34.2955971 16.4262254,34.356878 16.3796044,34.4147122 L16.2913785,34.5128696 L14.488,36.3169677 L16.6830323,38.5109355 L18.4874183,36.7076399 L18.59,36.615 L20.131,36.615 L20.374,36.767 L20.3779161,36.7811994 C20.5006706,37.2705849 20.6506532,37.7519532 20.8269587,38.2231381 C20.3504637,37.9915554 19.8872908,37.7298959 19.441093,37.4398755 C19.393069,37.4089927 19.3337766,37.4063154 19.2846378,37.4293376 L19.2396771,37.4608335 L16.6849357,40.016389 L12.9835561,36.3184955 L15.5385109,33.7602842 C15.592521,33.7063025 15.601498,33.6219327 15.5606217,33.5586686 C14.7056026,32.2410602 14.0974284,30.7788907 13.7656764,29.2429802 C13.7528558,29.1832909 13.7080986,29.1372358 13.6518273,29.121174 L13.607784,29.115007 L10,29.115007 L10,23.884993 L13.6074107,23.8849931 C13.6837239,23.8849396 13.7496507,23.8316314 13.7657673,23.7565975 C14.0970562,22.2202809 14.7052419,20.7571023 15.5592223,19.4407223 C15.590039,19.392725 15.5927018,19.3334962 15.5696482,19.2843345 L15.5381128,19.2393174 L12.9837488,16.6808834 L16.6817861,12.9837177 L19.2399246,15.5394143 C19.2939313,15.5935093 19.378403,15.6024899 19.4416933,15.5615317 C20.7596057,14.7049206 22.2229437,14.0963212 23.7576676,13.7661383 C23.8171509,13.753107 23.8629573,13.7083509 23.878894,13.6519522 L23.884993,13.607784 L23.884993,10 L29.115007,10 Z M33.5000002,27.1129032 C37.0274964,27.1129032 39.8870968,29.9725039 39.8870968,33.5006441 C39.883186,37.0261632 37.0261634,39.8831857 33.5000002,39.8870968 C29.9725039,39.8870968 27.1129032,37.0274961 27.1129032,33.5 C27.1129032,29.9725039 29.9725039,27.1129032 33.5000002,27.1129032 Z M33.5,28.1774194 C30.5604199,28.1774194 28.1774194,30.5604198 28.1774194,33.4999998 C28.1774194,36.4395798 30.5604199,38.8225806 33.499344,38.8225806 C36.4379354,38.819321 38.8193213,36.4379351 38.8225806,33.4999998 C38.8225806,30.5604198 36.4395801,28.1774194 33.5,28.1774194 Z M20.353193,24.7585421 L21.2445121,25.6525632 C21.2003586,25.9285343 21.1774194,26.2115882 21.1774194,26.4999998 C21.1774194,26.8972691 21.2209428,27.284373 21.30348,27.6568033 C21.0694409,28.1437232 20.864501,28.6452311 20.6902817,29.1578867 C20.3197749,28.3492376 20.1129032,27.4487775 20.1129032,26.5 C20.1129032,25.8962889 20.1966621,25.3121406 20.353193,24.7585421 Z M26.5000002,20.1129032 C27.449169,20.1129032 28.3499804,20.3199456 29.159736,20.6913443 C28.6469309,20.8644787 28.1456973,21.0695374 27.6581692,21.3043505 C27.2857569,21.2210986 26.8979794,21.1774194 26.5,21.1774194 C26.2112417,21.1774194 25.9278541,21.2004138 25.6515683,21.2446714 L24.7585423,20.353193 C25.3121408,20.1966621 25.896289,20.1129032 26.5000002,20.1129032 Z" id="Combined-Shape" fill="url(#linearGradient-1)" fill-rule="nonzero"></path>
            </g>
        </g>
    </g>
</svg>