<svg xmlns="http://www.w3.org/2000/svg" xmlns:xlink="http://www.w3.org/1999/xlink" width="62" height="61" viewBox="0 0 62 61">
  <defs>
    <linearGradient id="icon-8-4-b" x1="100%" x2="0%" y1="100%" y2="0%">
      <stop offset="0%" stop-color="#1E85E9"/>
      <stop offset="20.276%" stop-color="#8671F3"/>
      <stop offset="70.727%" stop-color="#C06CFD" stop-opacity=".99"/>
      <stop offset="100%" stop-color="#FFBEE8"/>
    </linearGradient>
    <rect id="icon-8-4-a" width="60" height="60" x=".207" y=".5" rx="4"/>
    <linearGradient id="icon-8-4-c" x1="60.331%" x2="39.669%" y1="100%" y2="0%">
      <stop offset="0%" stop-color="#1E85E9"/>
      <stop offset="20.276%" stop-color="#8671F3"/>
      <stop offset="70.727%" stop-color="#C06CFD" stop-opacity=".99"/>
      <stop offset="100%" stop-color="#FFBEE8"/>
    </linearGradient>
  </defs>
  <g fill="none" fill-rule="evenodd" transform="translate(1)">
    <g opacity=".062">
      <use fill="#FAFAFA" xlink:href="#icon-8-4-a"/>
      <use fill="url(#icon-8-4-b)" stroke="#000" stroke-opacity=".02" xlink:href="#icon-8-4-a"/>
    </g>
    <path fill="url(#icon-8-4-c)" fill-rule="nonzero" d="M30.1890029,40.934988 C30.4369393,40.934988 30.6431475,41.1134276 30.6859106,41.3487397 L30.6940475,41.4394102 L30.6940475,51.9955778 C30.6940475,52.2741625 30.4679314,52.5 30.1890029,52.5 C29.9410666,52.5 29.7348584,52.3215605 29.6920953,52.0862483 L29.6839583,51.9955778 L29.6839583,41.4394102 C29.6839583,41.1608256 29.9100745,40.934988 30.1890029,40.934988 Z M27.1563926,41.3657666 C27.404329,41.3657666 27.6105372,41.5442061 27.6533003,41.7795182 L27.6614372,41.8701888 L27.6614372,48.8683079 C27.6614372,49.1468926 27.4353211,49.3727301 27.1563926,49.3727301 C26.9084563,49.3727301 26.7022481,49.1942906 26.659485,48.9589785 L26.651348,48.8683079 L26.651348,41.8701888 C26.651348,41.5916041 26.8774642,41.3657666 27.1563926,41.3657666 Z M33.2169278,41.3657666 C33.4648641,41.3657666 33.6710723,41.5442061 33.7138354,41.7795182 L33.7219724,41.8701888 L33.7219724,48.8683079 C33.7219724,49.1468926 33.4958562,49.3727301 33.2169278,49.3727301 C32.9689914,49.3727301 32.7627832,49.1942906 32.7200201,48.9589785 L32.7118832,48.8683079 L32.7118832,41.8701888 C32.7118832,41.5916041 32.9379993,41.3657666 33.2169278,41.3657666 Z M29.9713485,8.58655011 C30.1456976,8.46881414 30.3748717,8.47140483 30.5465081,8.593052 C36.1343963,12.5534651 38.8414061,19.2119922 37.9325756,25.691487 C38.0240117,25.7280224 38.1055778,25.7940162 38.1630736,25.8845117 C39.1322644,27.4099688 39.7791581,29.1705861 40.1048306,31.1622773 C40.4379723,33.199648 39.9560159,35.6334538 38.6772407,38.4681227 C38.5360942,38.7810028 38.1301062,38.8648269 37.8763179,38.6334888 L37.8763179,38.6334888 L34.2161068,35.297 L32.6607151,38.4821458 C32.5881415,38.6306674 32.4483502,38.7326359 32.2883217,38.7587386 L32.2068386,38.7653322 L28.1664818,38.7653322 C27.976687,38.7653322 27.8029154,38.6590559 27.7166373,38.4902134 L27.7166373,38.4902134 L26.1201068,35.367 L22.5378957,38.6334888 C22.2841074,38.8648269 21.8781193,38.7810028 21.7369729,38.4681227 C20.4581976,35.6334538 19.9762413,33.199648 20.309383,31.1622773 C20.6350554,29.1705861 21.2819492,27.4099688 22.2511399,25.8845117 C22.2702612,25.8544159 22.2920446,25.8270299 22.3159893,25.8024657 C21.386018,19.2391819 24.1998262,12.4839937 29.9713485,8.58655011 Z M35.7568667,16.6174977 L24.549739,16.6169742 C22.6065015,21.0791021 22.6319092,26.320371 24.9880603,30.9312528 L24.9880603,30.9312528 L28.4751765,37.7564878 L31.8912982,37.7564878 L35.3785218,30.6199757 C37.5914396,26.0912453 37.6077126,20.9937556 35.7568667,16.6174977 Z M22.5969497,27.3096692 L22.4888263,27.5224302 C21.9288423,28.6621504 21.5345041,29.9290595 21.3062655,31.3248816 C21.0391016,32.9587565 21.3723913,34.9401198 22.3194601,37.2657435 L22.3792883,37.4104542 L25.6441068,34.435 L24.0883711,31.3898597 C23.4132956,30.0687672 22.918694,28.6988627 22.5969497,27.3096692 Z M37.6860613,27.0614422 L37.6301195,27.3038162 C37.3291047,28.5807085 36.8830753,29.8410969 36.2862748,31.0624474 L36.2862748,31.0624474 L34.6781068,34.352 L38.0347512,37.4104542 L38.0947535,37.2657435 C39.0418223,34.9401198 39.375112,32.9587565 39.107948,31.3248816 C38.8484601,29.7379497 38.3742755,28.3176477 37.6860613,27.0614422 Z M30.1866602,19.5972885 C32.1391592,19.5972885 33.7219724,21.1781511 33.7219724,23.1282439 C33.7219724,25.0783368 32.1391592,26.6591993 30.1866602,26.6591993 C28.2341612,26.6591993 26.651348,25.0783368 26.651348,23.1282439 C26.651348,21.1781511 28.2341612,19.5972885 30.1866602,19.5972885 Z M30.1866602,20.6061329 C28.7920181,20.6061329 27.6614372,21.7353205 27.6614372,23.1282439 C27.6614372,24.5211674 28.7920181,25.6503549 30.1866602,25.6503549 C31.5813023,25.6503549 32.7118832,24.5211674 32.7118832,23.1282439 C32.7118832,21.7353205 31.5813023,20.6061329 30.1866602,20.6061329 Z M30.246873,9.62284389 C27.9879777,11.2192388 26.2302914,13.2866548 25.0294563,15.6084956 L35.2902789,15.6080894 C34.1342076,13.308761 32.4406662,11.2492851 30.2616168,9.63307645 L30.2616168,9.63307645 Z" transform="rotate(45 30.207 30.5)"/>
  </g>
</svg>
