<svg xmlns="http://www.w3.org/2000/svg" xmlns:xlink="http://www.w3.org/1999/xlink" width="62" height="62" viewBox="0 0 62 62">
  <defs>
    <linearGradient id="icon-10-4-b" x1="100%" x2="0%" y1="100%" y2="0%">
      <stop offset="0%" stop-color="#1E85E9"/>
      <stop offset="20.276%" stop-color="#8671F3"/>
      <stop offset="70.727%" stop-color="#C06CFD" stop-opacity=".99"/>
      <stop offset="100%" stop-color="#FFBEE8"/>
    </linearGradient>
    <rect id="icon-10-4-a" width="60" height="60" x="0" y="0" rx="4"/>
    <linearGradient id="icon-10-4-c" x1="76.896%" x2="26.951%" y1="90.282%" y2="5.785%">
      <stop offset="0%" stop-color="#1E85E9"/>
      <stop offset="20.276%" stop-color="#8671F3"/>
      <stop offset="70.727%" stop-color="#C06CFD" stop-opacity=".99"/>
      <stop offset="100%" stop-color="#FFBEE8"/>
    </linearGradient>
  </defs>
  <g fill="none" fill-rule="evenodd" transform="translate(1 1)">
    <g opacity=".062">
      <use fill="#FAFAFA" xlink:href="#icon-10-4-a"/>
      <use fill="url(#icon-10-4-b)" stroke="#000" stroke-opacity=".02" xlink:href="#icon-10-4-a"/>
    </g>
    <path fill="url(#icon-10-4-c)" fill-rule="nonzero" d="M29.9663913,11 C38.2482566,11 44.9663913,17.4894321 44.9663913,25.5 C44.9663913,29.4010017 43.3731763,32.941264 40.7820205,35.547006 L46.0167745,44.2951646 L46.0534384,44.3692585 C46.1917449,44.7180764 45.8800282,45.097328 45.498753,44.9938548 L45.498753,44.9938548 L40.4776647,43.6306337 L39.1720144,48.5640077 L39.1452392,48.6399936 C38.995708,48.9736586 38.5165233,49.0123284 38.3154784,48.6763123 L38.3154784,48.6763123 L32.9516705,39.7127926 C31.9868568,39.9011508 30.9885337,40 29.9663913,40 C28.993074,40 28.0413547,39.9103688 27.1196003,39.739171 L21.7713752,48.6763123 C21.5703303,49.0123284 21.0911456,48.9736586 20.9416144,48.6399936 L20.9148392,48.5640077 L19.6091887,43.6306336 L14.5881006,44.9938548 C14.2068254,45.097328 13.8951087,44.7180764 14.0334152,44.3692585 L14.0700791,44.2951646 L19.246432,35.642342 C16.5988778,33.0279433 14.9663913,29.4487874 14.9663913,25.5 C14.9663913,17.4894321 21.684526,11 29.9663913,11 Z M40.0846429,36.2044619 C38.351425,37.7361332 36.245059,38.8796237 33.912959,39.4928419 L38.5457381,47.2364646 L39.6876189,42.92227 L39.7164138,42.8427969 C39.8103914,42.6418945 40.0362493,42.5324595 40.2584196,42.5927537 L40.2584196,42.5927537 L44.614015,43.7736439 Z M19.9490893,36.2928674 L15.4728384,43.7736437 L19.828434,42.5927537 C20.0506043,42.5324595 20.2764622,42.6418945 20.3704398,42.8427969 L20.3992347,42.92227 L21.5411152,47.2364645 L26.1534221,39.5273279 C23.8134113,38.9345382 21.6962027,37.8090598 19.9490893,36.2928674 Z M29.9663913,11.9383254 C22.2040351,11.9383254 15.9157584,18.012533 15.9157584,25.5 C15.9157584,32.987467 22.2040351,39.0616746 29.9663913,39.0616746 C37.7287475,39.0616746 44.0170242,32.987467 44.0170242,25.5 C44.0170242,18.012533 37.7287475,11.9383254 29.9663913,11.9383254 Z M30.0079219,16.6482959 C35.1877228,16.6482959 39.39143,20.6829649 39.39143,25.665776 C39.39143,30.6485871 35.1877228,34.6832561 30.0079219,34.6832561 C24.8281209,34.6832561 20.6244137,30.6485871 20.6244137,25.665776 C20.6244137,20.6829649 24.8281209,16.6482959 30.0079219,16.6482959 Z M30.0079219,17.5852266 C25.3491146,17.5852266 21.5770541,21.2056062 21.5770541,25.665776 C21.5770541,30.1259459 25.3491146,33.7463254 30.0079219,33.7463254 C34.6667291,33.7463254 38.4387896,30.1259459 38.4387896,25.665776 C38.4387896,21.2056062 34.6667291,17.5852266 30.0079219,17.5852266 Z"/>
  </g>
</svg>
