<svg xmlns="http://www.w3.org/2000/svg" xmlns:xlink="http://www.w3.org/1999/xlink" width="62" height="62" viewBox="0 0 62 62">
  <defs>
    <linearGradient id="icon-10-6-b" x1="100%" x2="0%" y1="100%" y2="0%">
      <stop offset="0%" stop-color="#FFBEE8"/>
      <stop offset="29.273%" stop-color="#C06CFD" stop-opacity=".99"/>
      <stop offset="79.724%" stop-color="#8671F3"/>
      <stop offset="100%" stop-color="#1E85E9"/>
    </linearGradient>
    <rect id="icon-10-6-a" width="60" height="60" x="0" y="0" rx="4"/>
    <linearGradient id="icon-10-6-c" x1="100%" x2="0%" y1="100%" y2="0%">
      <stop offset="0%" stop-color="#1E85E9"/>
      <stop offset="20.276%" stop-color="#8671F3"/>
      <stop offset="70.727%" stop-color="#C06CFD" stop-opacity=".99"/>
      <stop offset="100%" stop-color="#FFBEE8"/>
    </linearGradient>
  </defs>
  <g fill="none" fill-rule="evenodd" transform="translate(1 1)">
    <g opacity=".062">
      <use fill="#FAFAFA" xlink:href="#icon-10-6-a"/>
      <use fill="url(#icon-10-6-b)" stroke="#000" stroke-opacity=".02" xlink:href="#icon-10-6-a"/>
    </g>
    <path fill="url(#icon-10-6-c)" fill-rule="nonzero" d="M30,10 C41.045695,10 50,18.954305 50,30 C50,41.045695 41.045695,50 30,50 C18.954305,50 10,41.045695 10,30 C10,18.954305 18.954305,10 30,10 Z M11,30 C11,40.4934102 19.5065898,49 30,49 C35.2090943,49 39.9285792,46.9037328 43.3608845,43.5087688 L37.194,37.5 L20,37.5 C19.2203039,37.5 18.5795513,36.9051119 18.5068666,36.14446 L18.5,36 L18.5,24 C18.5,23.1715729 19.1715729,22.5 20,22.5 L20,22.5 L21.799,22.5 L16.1488113,16.9943552 C12.9558711,20.3935505 11,24.9683662 11,30 Z M30,11 C24.897971,11 20.2656319,13.0109813 16.8523781,16.2835484 L23.233,22.5 L40,22.5 C40.7796961,22.5 41.4204487,23.0948881 41.4931334,23.85554 L41.5,24 L41.5,36 C41.5,36.8284271 40.8284271,37.5 40,37.5 L40,37.5 L38.627,37.5 L44.0535818,42.7867828 C47.1265839,39.4113016 49,34.9244307 49,30 C49,19.5065898 40.4934102,11 30,11 Z M19.5009499,33.5355804 L19.5,36 C19.5,36.2761424 19.7238576,36.5 20,36.5 L20,36.5 L22.4645627,36.5000497 C22.2453707,34.9674973 21.033363,33.7552041 19.5009499,33.5355804 Z M19.5006902,27.4724593 L19.5009551,32.5275701 C21.5864174,32.7585559 23.2421609,34.4146746 23.47257,36.5003108 L36.168,36.5 L32.9689031,33.3817362 C32.226041,34.0344294 31.2663346,34.4462353 30.2118357,34.495102 L30,34.5 C27.5147186,34.5 25.5,32.4852814 25.5,30 C25.5,28.9047833 25.8912581,27.9009498 26.5416252,27.1206488 L23.3794445,24.0390589 C22.94773,25.8655546 21.4029551,27.2618782 19.5006902,27.4724593 Z M37.5438847,36.4442098 L37.6,36.5 L40,36.5 C40.2454599,36.5 40.4496084,36.3231248 40.4919443,36.0898756 L40.5,36 L40.5000497,33.5354373 C38.9858253,33.7520079 37.7842459,34.9377898 37.5438847,36.4442098 Z M36.5275407,23.5006902 L24.259,23.5 L27.2637389,26.4271941 C27.9696459,25.8857556 28.8406371,25.5488075 29.7881643,25.504898 L30,25.5 C32.4852814,25.5 34.5,27.5147186 34.5,30 C34.5,30.9875377 34.1818949,31.900778 33.6425627,32.6428428 L36.7111076,35.63388 C37.2408563,33.9692988 38.71284,32.7248995 40.5003108,32.52743 L40.5000458,27.4725407 C38.414446,27.2420109 36.7584058,25.5861889 36.5275407,23.5006902 Z M27.2602877,27.821716 C26.7843798,28.4194891 26.5,29.1765343 26.5,30 C26.5,31.9329966 28.0670034,33.5 30,33.5 C30.8564445,33.5 31.6410419,33.1923859 32.2493319,32.6816181 Z M30,26.5 C29.2520522,26.5 28.558901,26.734612 27.9901236,27.1342589 L32.9164593,31.9356923 C33.2851637,31.3812847 33.5,30.7157312 33.5,30 C33.5,28.0670034 31.9329966,26.5 30,26.5 Z M22.4644196,23.5009499 L20,23.5 C19.7238576,23.5 19.5,23.7238576 19.5,24 L19.5,24 L19.5009499,26.4644196 C21.0330298,26.2448436 22.2448436,25.0330298 22.4644196,23.5009499 Z M40,23.5 L37.5355804,23.5009499 C37.7552041,25.033363 38.9674973,26.2453707 40.5000497,26.4645627 L40.5,24 C40.5,23.7238576 40.2761424,23.5 40,23.5 L40,23.5 Z"/>
  </g>
</svg>
