<svg xmlns="http://www.w3.org/2000/svg" width="34" height="33" viewBox="0 0 34 33">
  <defs>
    <linearGradient id="ico-services-4-a" x1="100%" x2="0%" y1="97.102%" y2="2.898%">
      <stop offset="0%" stop-color="#1E85E9"/>
      <stop offset="20.276%" stop-color="#8671F3"/>
      <stop offset="70.727%" stop-color="#C06CFD" stop-opacity=".99"/>
      <stop offset="100%" stop-color="#FFBEE8"/>
    </linearGradient>
  </defs>
  <path fill="url(#ico-services-4-a)" d="M23.5,24 C25.2632532,24 26.7219693,25.3038784 26.9645627,27.0000497 L45.5,27 C49.634197,27 53,30.1253885 53,34 C53,37.7971193 49.7674828,40.8746848 45.747109,40.9962685 L45.5,41 L29,41 L28.7612021,41.0039696 C25.2746566,41.1200751 22.5,43.7683562 22.5,47 C22.5,50.3050902 25.4022105,53 29,53 L29,53 L47.0354373,53.0000497 C47.2780307,51.3038784 48.7367468,50 50.5,50 C52.4329966,50 54,51.5670034 54,53.5 C54,55.4329966 52.4329966,57 50.5,57 C48.7370932,57 47.2786039,55.6966339 47.0355804,54.0009499 L28.0722656,54 L28.0725983,53.9469716 C24.3740253,53.5210058 21.5,50.5803799 21.5,47 C21.5,43.2826052 24.598202,40.2548659 28.5007197,40.0152784 L28.5,40 L45.5,40 C49.0977895,40 52,37.3050902 52,34 C52,30.7683562 49.2253434,28.1200751 45.7387979,28.0039696 L45.5,28 L26.9644196,28.0009499 C26.7213961,29.6966339 25.2629068,31 23.5,31 C21.5670034,31 20,29.4329966 20,27.5 C20,25.5670034 21.5670034,24 23.5,24 Z M50.5,51 C49.1192881,51 48,52.1192881 48,53.5 C48,54.8807119 49.1192881,56 50.5,56 C51.8807119,56 53,54.8807119 53,53.5 C53,52.1192881 51.8807119,51 50.5,51 Z M23.5,25 C22.1192881,25 21,26.1192881 21,27.5 C21,28.8807119 22.1192881,30 23.5,30 C24.8807119,30 26,28.8807119 26,27.5 C26,26.1192881 24.8807119,25 23.5,25 Z" transform="translate(-20 -24)"/>
</svg>
