<svg xmlns="http://www.w3.org/2000/svg" width="49" height="46" viewBox="0 0 49 46">
  <defs>
    <linearGradient id="icon-26-6-a" x1="100%" x2="0%" y1="94.065%" y2="5.935%">
      <stop offset="0%" stop-color="#1E85E9"/>
      <stop offset="20.276%" stop-color="#8671F3"/>
      <stop offset="70.727%" stop-color="#C06CFD" stop-opacity=".99"/>
      <stop offset="100%" stop-color="#FFBEE8"/>
    </linearGradient>
  </defs>
  <path fill="url(#icon-26-6-a)" d="M1129.51923,3952 C1134.20303,3952 1138,3955.78274 1138,3960.44898 C1138,3965.11522 1134.20303,3968.89796 1129.51923,3968.89796 C1128.87144,3968.89796 1128.24062,3968.8256 1127.63446,3968.68856 L1127.63462,3970.30612 C1127.63462,3971.03808 1127.07405,3971.6396 1126.35728,3971.70784 L1126.22115,3971.71429 L1119.156,3971.714 L1119.156,3973.591 L1126.22115,3973.59184 C1126.95587,3973.59184 1127.55965,3974.1503 1127.62814,3974.86438 L1127.63462,3975 L1127.63462,3983.44898 C1127.63462,3984.22669 1127.00179,3984.85714 1126.22115,3984.85714 L1126.22115,3984.85714 L1119.156,3984.857 L1119.156,3986.734 L1126.22115,3986.73469 C1126.95587,3986.73469 1127.55965,3987.29316 1127.62814,3988.00724 L1127.63462,3988.14286 L1127.63462,3996.59184 C1127.63462,3997.36954 1127.00179,3998 1126.22115,3998 L1126.22115,3998 L1090.41346,3998 C1089.63283,3998 1089,3997.36954 1089,3996.59184 L1089,3996.59184 L1089,3988.14286 C1089,3987.36515 1089.63283,3986.73469 1090.41346,3986.73469 L1090.41346,3986.73469 L1097.599,3986.734 L1097.599,3984.857 L1090.41346,3984.85714 C1089.67875,3984.85714 1089.07496,3984.29868 1089.00647,3983.5846 L1089,3983.44898 L1089,3975 C1089,3974.22229 1089.63283,3973.59184 1090.41346,3973.59184 L1090.41346,3973.59184 L1097.599,3973.591 L1097.599,3971.714 L1090.41346,3971.71429 C1089.67875,3971.71429 1089.07496,3971.15582 1089.00647,3970.44174 L1089,3970.30612 L1089,3961.85714 C1089,3961.12518 1089.56057,3960.52366 1090.27734,3960.45543 L1090.41346,3960.44898 L1121.03846,3960.44898 C1121.03846,3955.78274 1124.83543,3952 1129.51923,3952 L1129.4962,3952.00001 L1129.4962,3952.00001 Z M1126.22115,3987.67347 L1090.41346,3987.67347 C1090.15325,3987.67347 1089.94231,3987.88362 1089.94231,3988.14286 L1089.94231,3988.14286 L1089.94231,3996.59184 C1089.94231,3996.85107 1090.15325,3997.06122 1090.41346,3997.06122 L1090.41346,3997.06122 L1126.22115,3997.06122 C1126.48136,3997.06122 1126.69231,3996.85107 1126.69231,3996.59184 L1126.69231,3996.59184 L1126.69231,3988.14286 C1126.69231,3987.88362 1126.48136,3987.67347 1126.22115,3987.67347 L1126.22115,3987.67347 Z M1095.75328,3991.89796 C1096.01349,3991.89796 1096.22444,3992.10811 1096.22444,3992.36735 C1096.22444,3992.59778 1096.05776,3992.78943 1095.83797,3992.82917 L1095.75328,3992.83673 L1094.37295,3992.83673 C1094.11274,3992.83673 1093.90179,3992.62658 1093.90179,3992.36735 C1093.90179,3992.13692 1094.06847,3991.94527 1094.28826,3991.90552 L1094.37295,3991.89796 L1095.75328,3991.89796 Z M1112.41943,3991.89796 C1112.67964,3991.89796 1112.89058,3992.10811 1112.89058,3992.36735 C1112.89058,3992.59778 1112.72391,3992.78943 1112.50412,3992.82917 L1112.41943,3992.83673 L1109.25962,3992.83673 C1108.9994,3992.83673 1108.78846,3992.62658 1108.78846,3992.36735 C1108.78846,3992.13692 1108.95513,3991.94527 1109.17492,3991.90552 L1109.25962,3991.89796 L1112.41943,3991.89796 Z M1120.9002,3991.89796 C1121.16041,3991.89796 1121.37135,3992.10811 1121.37135,3992.36735 C1121.37135,3992.59778 1121.20468,3992.78943 1120.98489,3992.82917 L1120.9002,3992.83673 L1117.74038,3992.83673 C1117.48017,3992.83673 1117.26923,3992.62658 1117.26923,3992.36735 C1117.26923,3992.13692 1117.4359,3991.94527 1117.65569,3991.90552 L1117.74038,3991.89796 L1120.9002,3991.89796 Z M1118.211,3984.857 L1098.543,3984.857 L1098.543,3986.734 L1118.211,3986.734 L1118.211,3984.857 Z M1126.22115,3974.53061 L1090.41346,3974.53061 C1090.15325,3974.53061 1089.94231,3974.74076 1089.94231,3975 L1089.94231,3975 L1089.94231,3983.44898 C1089.94231,3983.70822 1090.15325,3983.91837 1090.41346,3983.91837 L1090.41346,3983.91837 L1126.22115,3983.91837 C1126.48136,3983.91837 1126.69231,3983.70822 1126.69231,3983.44898 L1126.69231,3983.44898 L1126.69231,3975 C1126.69231,3974.74076 1126.48136,3974.53061 1126.22115,3974.53061 L1126.22115,3974.53061 Z M1095.75328,3978.7551 C1096.01349,3978.7551 1096.22444,3978.96525 1096.22444,3979.22449 C1096.22444,3979.45492 1096.05776,3979.64657 1095.83797,3979.68632 L1095.75328,3979.69388 L1094.37295,3979.69388 C1094.11274,3979.69388 1093.90179,3979.48373 1093.90179,3979.22449 C1093.90179,3978.99406 1094.06847,3978.80241 1094.28826,3978.76266 L1094.37295,3978.7551 L1095.75328,3978.7551 Z M1112.41943,3978.7551 C1112.67964,3978.7551 1112.89058,3978.96525 1112.89058,3979.22449 C1112.89058,3979.45492 1112.72391,3979.64657 1112.50412,3979.68632 L1112.41943,3979.69388 L1109.25962,3979.69388 C1108.9994,3979.69388 1108.78846,3979.48373 1108.78846,3979.22449 C1108.78846,3978.99406 1108.95513,3978.80241 1109.17492,3978.76266 L1109.25962,3978.7551 L1112.41943,3978.7551 Z M1120.9002,3978.7551 C1121.16041,3978.7551 1121.37135,3978.96525 1121.37135,3979.22449 C1121.37135,3979.45492 1121.20468,3979.64657 1120.98489,3979.68632 L1120.9002,3979.69388 L1117.74038,3979.69388 C1117.48017,3979.69388 1117.26923,3979.48373 1117.26923,3979.22449 C1117.26923,3978.99406 1117.4359,3978.80241 1117.65569,3978.76266 L1117.74038,3978.7551 L1120.9002,3978.7551 Z M1118.211,3971.714 L1098.543,3971.714 L1098.543,3973.591 L1118.211,3973.591 L1118.211,3971.714 Z M1121.09024,3961.38795 L1090.41346,3961.38776 C1090.18216,3961.38776 1089.98979,3961.5538 1089.9499,3961.77277 L1089.94231,3961.85714 L1089.94231,3970.30612 C1089.94231,3970.53655 1090.10898,3970.7282 1090.32877,3970.76795 L1090.41346,3970.77551 L1126.22115,3970.77551 C1126.45245,3970.77551 1126.64482,3970.60946 1126.68472,3970.3905 L1126.69231,3970.30612 L1126.69211,3968.41713 C1123.68248,3967.35728 1121.45261,3964.653 1121.09024,3961.38795 Z M1127.64143,3964.36492 L1123.08558,3964.36524 C1124.41046,3966.52087 1126.79625,3967.95918 1129.51923,3967.95918 C1132.24222,3967.95918 1134.628,3966.52087 1135.95289,3964.36524 L1131.39703,3964.36492 C1131.31514,3965.32657 1130.50569,3966.08163 1129.51923,3966.08163 C1128.53277,3966.08163 1127.72333,3965.32657 1127.64143,3964.36492 Z M1095.75328,3965.39193 C1096.01349,3965.39193 1096.22444,3965.60208 1096.22444,3965.86132 C1096.22444,3966.09175 1096.05776,3966.2834 1095.83797,3966.32315 L1095.75328,3966.33071 L1094.37295,3966.33071 C1094.11274,3966.33071 1093.90179,3966.12056 1093.90179,3965.86132 C1093.90179,3965.63089 1094.06847,3965.43924 1094.28826,3965.39949 L1094.37295,3965.39193 L1095.75328,3965.39193 Z M1112.41943,3965.39193 C1112.67964,3965.39193 1112.89058,3965.60208 1112.89058,3965.86132 C1112.89058,3966.09175 1112.72391,3966.2834 1112.50412,3966.32315 L1112.41943,3966.33071 L1109.25962,3966.33071 C1108.9994,3966.33071 1108.78846,3966.12056 1108.78846,3965.86132 C1108.78846,3965.63089 1108.95513,3965.43924 1109.17492,3965.39949 L1109.25962,3965.39193 L1112.41943,3965.39193 Z M1120.9002,3965.39193 C1121.16041,3965.39193 1121.37135,3965.60208 1121.37135,3965.86132 C1121.37135,3966.09175 1121.20468,3966.2834 1120.98489,3966.32315 L1120.9002,3966.33071 L1117.74038,3966.33071 C1117.48017,3966.33071 1117.26923,3966.12056 1117.26923,3965.86132 C1117.26923,3965.63089 1117.4359,3965.43924 1117.65569,3965.39949 L1117.74038,3965.39193 L1120.9002,3965.39193 Z M1129.51923,3963.26531 C1128.99881,3963.26531 1128.57692,3963.68561 1128.57692,3964.20408 C1128.57692,3964.72255 1128.99881,3965.14286 1129.51923,3965.14286 C1130.03965,3965.14286 1130.46154,3964.72255 1130.46154,3964.20408 C1130.46154,3963.68561 1130.03965,3963.26531 1129.51923,3963.26531 Z M1129.97136,3952.95206 L1129.97173,3956.15734 C1129.97173,3956.41657 1129.7602,3956.62672 1129.49927,3956.62672 C1129.26733,3956.62672 1129.07442,3956.46068 1129.03441,3956.24171 L1129.0268,3956.15734 L1129.02619,3952.95458 C1126.21292,3953.13553 1123.81996,3954.85388 1122.6851,3957.27498 L1125.98986,3958.34944 C1126.23641,3958.42955 1126.37091,3958.69567 1126.29028,3958.94383 C1126.2186,3959.16442 1126.00107,3959.29658 1125.78046,3959.26696 L1125.69786,3959.24812 L1122.33859,3958.156 C1122.10622,3958.87883 1121.98077,3959.64931 1121.98077,3960.44898 C1121.98077,3961.50625 1122.20007,3962.5125 1122.59581,3963.42504 L1127.80409,3963.42484 C1128.0377,3962.91532 1128.49335,3962.52803 1129.04777,3962.38576 L1129.04808,3959.69195 C1129.04808,3959.43272 1129.25961,3959.22257 1129.52054,3959.22257 C1129.75248,3959.22257 1129.94539,3959.38861 1129.98539,3959.60758 L1129.99301,3959.69195 L1129.99371,3962.38654 C1130.54676,3962.52943 1131.00118,3962.91624 1131.23437,3963.42484 L1136.44265,3963.42504 C1136.8384,3962.5125 1137.05769,3961.50625 1137.05769,3960.44898 C1137.05769,3959.64489 1136.93085,3958.87032 1136.69601,3958.14403 L1133.30078,3959.24746 C1133.05423,3959.32757 1132.789,3959.19133 1132.70836,3958.94317 C1132.63669,3958.72258 1132.735,3958.4878 1132.93089,3958.38209 L1133.00878,3958.34878 L1136.34821,3957.26402 C1135.20576,3954.83698 1132.79807,3953.11865 1129.97136,3952.95206 Z" transform="translate(-1089 -3952)"/>
</svg>
