<svg xmlns="http://www.w3.org/2000/svg" xmlns:xlink="http://www.w3.org/1999/xlink" width="62" height="62" viewBox="0 0 62 62">
  <defs>
    <linearGradient id="icon-6-8-b" x1="100%" x2="0%" y1="100%" y2="0%">
      <stop offset="0%" stop-color="#1E85E9"/>
      <stop offset="20.276%" stop-color="#8671F3"/>
      <stop offset="70.727%" stop-color="#C06CFD" stop-opacity=".99"/>
      <stop offset="100%" stop-color="#FFBEE8"/>
    </linearGradient>
    <rect id="icon-6-8-a" width="60" height="60" x="0" y="0" rx="4"/>
    <linearGradient id="icon-6-8-c" x1="100%" x2="0%" y1="63.045%" y2="36.955%">
      <stop offset="0%" stop-color="#1E85E9"/>
      <stop offset="20.276%" stop-color="#8671F3"/>
      <stop offset="70.727%" stop-color="#C06CFD" stop-opacity=".99"/>
      <stop offset="100%" stop-color="#FFBEE8"/>
    </linearGradient>
  </defs>
  <g fill="none" fill-rule="evenodd" transform="translate(1 1)">
    <g opacity=".062">
      <use fill="#FAFAFA" xlink:href="#icon-6-8-a"/>
      <use fill="url(#icon-6-8-b)" stroke="#000" stroke-opacity=".02" xlink:href="#icon-6-8-a"/>
    </g>
    <path fill="url(#icon-6-8-c)" fill-rule="nonzero" d="M30.5,41.2305831 C23.7188237,41.2305831 18.1968131,39.4295689 18.0051455,36.8685041 L18,36.7305831 L17.9991276,28.093 L11.4765015,26.2109 C11.0139925,26.0774255 10.9998868,25.4512354 11.4086641,25.2740565 L11.5027227,25.2433055 L29.887499,21.0012424 L30.1068021,21 L49.4915785,25.242063 C49.9394689,25.3400771 50.0086968,25.9073145 49.6784207,26.1380162 L49.6771276,31.943 L50.6689747,33.9219343 C50.7254538,34.0346874 50.7367496,34.163466 50.7028621,34.2826293 L50.6689747,34.3697983 L49.6247204,36.4545151 C49.4620472,36.7792707 49.028865,36.8205633 48.8029351,36.5621918 L48.7468153,36.484285 L47.5691458,34.484285 C47.4979161,34.3633178 47.4815875,34.2195615 47.5207683,34.0879379 L47.5605713,33.9920407 L48.6771276,31.934 L48.6771276,26.442 L42.9991276,27.996 L43,36.7305831 C43,39.3646727 37.4022688,41.2305831 30.5,41.2305831 Z M49.159,33.1425831 L48.574,34.2205831 L49.142,35.1845831 L49.662,34.1455831 L49.159,33.1425831 Z M30.002111,21.999809 L13.6064261,25.7835374 L30.0028181,30.515496 L47.2929931,25.7835374 L30.002111,21.999809 Z M41.9991276,28.27 L30.1319097,31.518392 C30.0727984,31.5345708 30.0114763,31.5396766 29.9509929,31.5337305 L29.8612778,31.516525 L18.9991276,28.381 L19,36.7305831 C19,38.5147715 24.1474348,40.2305831 30.5,40.2305831 C36.737064,40.2305831 41.8124222,38.5765974 41.9949188,36.8278247 L42,36.7305831 L41.9991276,28.27 Z"/>
  </g>
</svg>
