<svg xmlns="http://www.w3.org/2000/svg" width="40" height="35" viewBox="0 0 40 35">
  <defs>
    <linearGradient id="icon-16-6-a" x1="100%" x2="0%" y1="88.555%" y2="11.445%">
      <stop offset="0%" stop-color="#1E85E9"/>
      <stop offset="20.276%" stop-color="#8671F3"/>
      <stop offset="70.727%" stop-color="#C06CFD"/>
      <stop offset="100%" stop-color="#FFBEE8"/>
    </linearGradient>
  </defs>
  <path fill="url(#icon-16-6-a)" d="M1133.15742,2582.824 C1133.43356,2582.824 1133.65742,2583.04786 1133.65742,2583.324 C1133.65742,2583.56946 1133.48055,2583.77361 1133.2473,2583.81595 L1133.15742,2583.824 L1094.5,2583.824 C1094.22386,2583.824 1094,2583.60014 1094,2583.324 C1094,2583.07854 1094.17688,2582.87439 1094.41012,2582.83206 L1094.5,2582.824 L1133.15742,2582.824 Z M1117.34453,2557 C1118.17296,2557 1118.84453,2557.67157 1118.84453,2558.5 L1118.84453,2558.5 L1118.84453,2578.9 C1118.84453,2579.72843 1118.17296,2580.4 1117.34453,2580.4 L1117.34453,2580.4 L1111.34453,2580.4 C1110.5161,2580.4 1109.84453,2579.72843 1109.84453,2578.9 L1109.84453,2578.9 L1109.84453,2558.5 C1109.84453,2557.67157 1110.5161,2557 1111.34453,2557 L1111.34453,2557 Z M1130.14453,2549 C1130.97296,2549 1131.64453,2549.67157 1131.64453,2550.5 L1131.64453,2550.5 L1131.64453,2578.9 C1131.64453,2579.72843 1130.97296,2580.4 1130.14453,2580.4 L1130.14453,2580.4 L1124.14453,2580.4 C1123.3161,2580.4 1122.64453,2579.72843 1122.64453,2578.9 L1122.64453,2578.9 L1122.64453,2550.5 C1122.64453,2549.67157 1123.3161,2549 1124.14453,2549 L1124.14453,2549 Z M1104.54453,2563.4 C1105.37296,2563.4 1106.04453,2564.07157 1106.04453,2564.9 L1106.04453,2564.9 L1106.04453,2578.9 C1106.04453,2579.72843 1105.37296,2580.4 1104.54453,2580.4 L1104.54453,2580.4 L1098.54453,2580.4 C1097.7161,2580.4 1097.04453,2579.72843 1097.04453,2578.9 L1097.04453,2578.9 L1097.04453,2564.9 C1097.04453,2564.07157 1097.7161,2563.4 1098.54453,2563.4 L1098.54453,2563.4 Z M1117.34453,2558 L1111.34453,2558 C1111.06839,2558 1110.84453,2558.22386 1110.84453,2558.5 L1110.84453,2558.5 L1110.84453,2578.9 C1110.84453,2579.17614 1111.06839,2579.4 1111.34453,2579.4 L1111.34453,2579.4 L1117.34453,2579.4 C1117.62067,2579.4 1117.84453,2579.17614 1117.84453,2578.9 L1117.84453,2578.9 L1117.84453,2558.5 C1117.84453,2558.22386 1117.62067,2558 1117.34453,2558 L1117.34453,2558 Z M1130.14453,2550 L1124.14453,2550 C1123.86839,2550 1123.64453,2550.22386 1123.64453,2550.5 L1123.64453,2550.5 L1123.64453,2578.9 C1123.64453,2579.17614 1123.86839,2579.4 1124.14453,2579.4 L1124.14453,2579.4 L1130.14453,2579.4 C1130.42067,2579.4 1130.64453,2579.17614 1130.64453,2578.9 L1130.64453,2578.9 L1130.64453,2550.5 C1130.64453,2550.22386 1130.42067,2550 1130.14453,2550 L1130.14453,2550 Z M1104.54453,2564.4 L1098.54453,2564.4 C1098.26839,2564.4 1098.04453,2564.62386 1098.04453,2564.9 L1098.04453,2564.9 L1098.04453,2578.9 C1098.04453,2579.17614 1098.26839,2579.4 1098.54453,2579.4 L1098.54453,2579.4 L1104.54453,2579.4 C1104.82067,2579.4 1105.04453,2579.17614 1105.04453,2578.9 L1105.04453,2578.9 L1105.04453,2564.9 C1105.04453,2564.62386 1104.82067,2564.4 1104.54453,2564.4 L1104.54453,2564.4 Z" transform="translate(-1094 -2549)"/>
</svg>
