<?xml version="1.0" encoding="UTF-8"?>
<svg width="54px" height="27px" viewBox="0 0 54 27" version="1.1" xmlns="http://www.w3.org/2000/svg" xmlns:xlink="http://www.w3.org/1999/xlink">
    <title>icon-29-8</title>
    <defs>
        <linearGradient x1="100%" y1="62.5258982%" x2="0%" y2="37.4741018%" id="linearGradient-1">
            <stop stop-color="#1E85E9" offset="0%"></stop>
            <stop stop-color="#8671F3" offset="20.275549%"></stop>
            <stop stop-color="#C06CFD" stop-opacity="0.99" offset="70.7268792%"></stop>
            <stop stop-color="#FFBEE8" offset="100%"></stop>
        </linearGradient>
    </defs>
    <g id="Page-1" stroke="none" stroke-width="1" fill="none" fill-rule="evenodd">
        <g id="icons" transform="translate(-1367.000000, -4372.000000)" fill="url(#linearGradient-1)" fill-rule="nonzero">
            <path d="M1420.67717,4372 L1419.82988,4372.85247 L1393.97411,4398.86638 L1367.5,4398.86638 L1367.5,4398.75863 L1367,4398.75881 L1367,4372 L1420.67717,4372 Z M1401.50557,4394.37063 C1402.57968,4394.37063 1403.5,4395.21715 1403.5,4396.36575 C1403.5,4397.52186 1402.57968,4398.37063 1401.50557,4398.37063 C1400.4181,4398.37063 1399.5,4397.52186 1399.5,4396.36575 C1399.5,4395.21715 1400.4181,4394.37063 1401.50557,4394.37063 Z M1401.50557,4394.70183 C1400.6025,4394.70183 1399.89699,4395.41872 1399.89699,4396.36575 C1399.89699,4397.32874 1400.6025,4398.03661 1401.50557,4398.03661 C1402.39658,4398.03661 1403.10319,4397.32874 1403.10319,4396.36575 C1403.10319,4395.41872 1402.39658,4394.70183 1401.50557,4394.70183 Z M1418.273,4372.99963 L1367.999,4372.99963 L1367.999,4397.86563 L1393.558,4397.86563 L1418.273,4372.99963 Z M1401.60982,4395.21715 C1402.14706,4395.21715 1402.41253,4395.41872 1402.41253,4395.87298 C1402.41253,4396.28609 1402.1556,4396.46719 1401.82149,4396.50702 L1401.82149,4396.50702 L1402.47134,4397.52186 L1402.08306,4397.52186 L1401.48349,4396.52336 L1401.08649,4396.52336 L1401.08649,4397.52186 L1400.74256,4397.52186 L1400.74256,4395.21715 Z M1401.55844,4395.51397 L1401.08649,4395.51397 L1401.08649,4396.22616 L1401.50056,4396.22616 C1401.7894,4396.22616 1402.04893,4396.20775 1402.04893,4395.85175 C1402.04893,4395.56488 1401.79422,4395.51397 1401.55844,4395.51397 L1401.55844,4395.51397 Z M1376.12212,4377.92063 C1377.73954,4377.92324 1379.66009,4378.33407 1381.1368,4378.99009 L1381.44617,4379.13436 L1381.88546,4379.34948 L1379.85073,4382.75426 L1379.48278,4382.58302 C1378.17634,4381.97505 1377.51637,4381.82601 1376.339,4381.76492 C1375.31822,4381.71161 1374.76822,4381.98644 1374.76431,4382.22296 C1374.76048,4382.42699 1375.54418,4382.8725 1376.73258,4383.26066 L1376.94642,4383.3285 C1379.15297,4384.0039 1380.50337,4384.63613 1381.22348,4385.66742 L1381.3268,4385.82516 L1381.396,4385.94563 L1384.43542,4378.15151 L1388.97267,4378.15151 L1392.166,4386.51663 L1392.16681,4378.15141 L1397.14236,4378.15258 C1401.70448,4378.15258 1403.95,4379.8128 1403.95,4383.32131 C1403.95,4386.42294 1401.74438,4388.31649 1398.13923,4388.4049 L1397.87295,4388.40814 L1396.86,4388.40763 L1396.8608,4392.59202 L1389.38244,4392.59202 L1388.75,4390.68863 L1388.50098,4390.74891 C1388.15369,4390.82423 1387.7943,4390.87776 1387.42698,4390.90852 L1387.05717,4390.93167 L1386.683,4390.93943 C1386.16911,4390.93943 1385.66483,4390.8955 1385.1804,4390.81025 L1384.82096,4390.73861 L1384.554,4390.67263 L1383.89839,4392.59202 L1378.81008,4392.59202 L1378.996,4392.11163 L1378.81768,4392.19794 C1378.13531,4392.50841 1377.38032,4392.70322 1376.55053,4392.78118 L1376.19032,4392.80744 L1375.86241,4392.81875 L1375.62371,4392.82063 C1373.8866,4392.82063 1372.14493,4392.39799 1370.61035,4391.6244 L1370.28476,4391.45329 L1369.89742,4391.24123 L1371.71635,4387.76467 L1372.1215,4387.99515 C1373.47777,4388.7667 1374.33924,4388.99091 1375.6384,4388.96593 C1376.23714,4388.95487 1376.58835,4388.85367 1376.78563,4388.65774 C1376.89398,4388.54832 1376.94837,4388.4231 1376.95128,4388.28689 C1376.9556,4388.04893 1376.56221,4387.81967 1375.41427,4387.45835 L1375.00319,4387.33282 C1373.6495,4386.92704 1372.62665,4386.49917 1371.79652,4385.91307 C1370.59017,4385.05974 1370.02382,4383.96526 1370.05092,4382.49533 C1370.06954,4381.40589 1370.49085,4380.41803 1371.26696,4379.64311 C1372.31517,4378.60029 1373.92998,4377.9874 1375.79688,4377.92578 L1376.12212,4377.92063 Z M1376.12139,4378.82063 L1376.11031,4378.82063 C1374.3356,4378.82063 1372.82738,4379.36023 1371.90229,4380.28057 C1371.29173,4380.8902 1370.96541,4381.65533 1370.95078,4382.51131 C1370.92922,4383.68078 1371.35071,4384.49531 1372.31593,4385.17808 C1372.98191,4385.64828 1373.82334,4386.01768 1374.92293,4386.36636 L1375.7102,4386.6071 C1377.33677,4387.11514 1377.86644,4387.45972 1377.8511,4388.30465 C1377.84319,4388.67567 1377.69373,4389.01975 1377.42251,4389.29364 C1377.02423,4389.68923 1376.46339,4389.85085 1375.65536,4389.86577 C1374.4935,4389.88811 1373.61035,4389.72501 1372.54651,4389.23043 L1372.25154,4389.08722 L1372.085,4388.99963 L1371.109,4390.86563 L1371.36503,4390.98857 C1372.456,4391.48683 1373.64812,4391.79735 1374.85273,4391.89077 L1375.2546,4391.91384 L1375.62014,4391.92064 L1375.85117,4391.91883 C1377.21239,4391.89563 1378.34079,4391.55628 1379.26906,4390.90963 L1379.50911,4390.73166 L1380.98536,4389.46882 L1380.123,4391.69163 L1383.254,4391.69163 L1383.9847,4389.55701 L1384.40614,4389.69383 C1385.10094,4389.91939 1385.87702,4390.03943 1386.683,4390.03943 C1387.35731,4390.03943 1388.01058,4389.95591 1388.61136,4389.79697 L1388.90723,4389.71125 L1389.33007,4389.57777 L1390.032,4391.69163 L1395.96,4391.69163 L1395.9608,4387.50814 L1397.87295,4387.50814 C1401.17254,4387.50814 1403.05,4385.95919 1403.05,4383.32131 C1403.05,4380.44891 1401.34056,4379.11665 1397.43217,4379.05484 L1397.14226,4379.05258 L1393.066,4379.05063 L1393.06681,4391.39987 L1388.352,4379.05063 L1385.05,4379.05063 L1381.18837,4388.95898 L1380.9225,4387.33556 C1380.6762,4385.83157 1379.56236,4385.09721 1376.96609,4384.27709 L1376.68222,4384.18885 C1374.89877,4383.63941 1373.84848,4383.05771 1373.86445,4382.20707 C1373.87925,4381.31249 1374.92516,4380.78985 1376.38579,4380.86614 C1377.37843,4380.91764 1378.06488,4381.03319 1378.97767,4381.38621 L1379.29105,4381.51291 L1379.492,4381.59963 L1380.602,4379.74063 L1380.42481,4379.66697 C1379.3448,4379.23803 1378.0496,4378.94231 1376.86061,4378.8507 L1376.46866,4378.82782 L1376.12139,4378.82063 Z M1387.0252,4382.41541 L1388.66575,4387.51402 L1388.25121,4387.65874 C1387.7667,4387.82789 1387.23278,4387.91784 1386.683,4387.91784 C1386.21073,4387.91784 1385.7502,4387.8518 1385.32704,4387.72632 L1385.07784,4387.64394 L1384.66876,4387.49424 L1386.34239,4382.41541 L1387.0252,4382.41541 Z M1386.677,4384.27363 L1385.805,4386.91863 L1385.87785,4386.93726 C1386.04882,4386.9725 1386.22636,4386.99657 1386.40793,4387.00869 L1386.683,4387.01784 C1386.95246,4387.01784 1387.21634,4386.99154 1387.46833,4386.94118 L1387.531,4386.92563 L1386.677,4384.27363 Z M1397.40866,4381.00185 C1399.14604,4381.00185 1400.24676,4381.69184 1400.24676,4383.18753 C1400.24676,4384.6561 1399.23516,4385.35864 1397.60698,4385.41051 L1397.40866,4385.41362 L1395.9608,4385.41362 L1395.9608,4381.00185 L1397.40866,4381.00185 Z M1397.40866,4381.90185 L1396.86,4381.90163 L1396.86,4384.51263 L1397.40866,4384.51362 C1398.71725,4384.51362 1399.34676,4384.11158 1399.34676,4383.18753 C1399.34676,4382.34664 1398.77681,4381.94511 1397.60886,4381.90517 L1397.40866,4381.90185 Z" id="icon-29-8"></path>
        </g>
    </g>
</svg>