<svg xmlns="http://www.w3.org/2000/svg" xmlns:xlink="http://www.w3.org/1999/xlink" width="62" height="62" viewBox="0 0 62 62">
  <defs>
    <linearGradient id="ico-industries-8-b" x1="100%" x2="0%" y1="100%" y2="0%">
      <stop offset="0%" stop-color="#1E85E9"/>
      <stop offset="20.276%" stop-color="#8671F3"/>
      <stop offset="70.727%" stop-color="#C06CFD" stop-opacity=".99"/>
      <stop offset="100%" stop-color="#FFBEE8"/>
    </linearGradient>
    <rect id="ico-industries-8-a" width="60" height="60" x="0" y="0" rx="4"/>
    <linearGradient id="ico-industries-8-c" x1="100%" x2="0%" y1="71.891%" y2="28.109%">
      <stop offset="0%" stop-color="#1E85E9"/>
      <stop offset="20.276%" stop-color="#8671F3"/>
      <stop offset="70.727%" stop-color="#C06CFD" stop-opacity=".99"/>
      <stop offset="100%" stop-color="#FFBEE8"/>
    </linearGradient>
  </defs>
  <g fill="none" fill-rule="evenodd" transform="translate(1 1)">
    <g opacity=".062">
      <use fill="#FAFAFA" xlink:href="#ico-industries-8-a"/>
      <use fill="url(#ico-industries-8-b)" stroke="#000" stroke-opacity=".02" xlink:href="#ico-industries-8-a"/>
    </g>
    <path fill="url(#ico-industries-8-c)" fill-rule="nonzero" d="M32.6808511,15 C37.8512435,15 42.2109087,18.763109 43.0164528,23.7844567 C47.548653,24.3637243 51,28.231538 51,32.8548387 C51,37.9055718 46.8991188,42 41.8404255,42 L41.8404255,42.1290323 L16.7666016,42.1290323 L16.7663425,41.9720726 C12.9749221,41.6440617 10,38.4672864 10,34.5967742 C10,30.8697383 12.7697105,27.7523409 16.4112396,27.2608078 C17.2643437,24.3915116 19.7891725,22.2946735 22.7966947,22.0027005 C24.2462451,17.8545243 28.1853902,15 32.6808511,15 Z M32.6808511,15.8709677 C28.6034264,15.8709677 25.0250121,18.4329568 23.6623941,22.1703846 L23.572,22.427 L23.571755,22.4618432 C23.5639719,22.5322597 23.5392395,22.5979658 23.5015384,22.6545326 C23.43178,22.8787684 23.1879717,23.0082798 22.9575893,22.9380202 C22.9111928,22.9238707 22.8688791,22.9026981 22.8314603,22.8760261 C20.1733071,23.1530089 17.9493407,25.0321836 17.2252257,27.5881927 C17.2297122,27.5979594 17.2309264,27.6078763 17.2318069,27.6179025 C17.252849,27.8574943 17.0753733,28.0687529 16.8354039,28.0897618 C13.4733904,28.3841005 10.8723404,31.2043924 10.8723404,34.5967742 C10.8723404,38.2044407 13.8015413,41.1290323 17.4148936,41.1290323 L41.8404255,41.1290323 C46.4173385,41.1290323 50.1276596,37.4245496 50.1276596,32.8548387 C50.1276596,28.5840209 46.8720299,25.0253932 42.6448983,24.6191002 L42.621,24.615 L42.6088763,24.6152802 C42.4023757,24.6042269 42.2269253,24.4471874 42.2000189,24.2350943 C41.5965145,19.477893 37.5269596,15.8709677 32.6808511,15.8709677 Z M25.5744681,27.4444444 L25.5744681,39 L22,39 L22,27.4444444 L25.5744681,27.4444444 Z M43,27 L43,30.5557037 L40.3191489,30.5537778 L40.3191489,39 L36.7446809,39 L36.7446809,30.5555556 L34.0638298,30.5555556 L34.0638298,27 L43,27 Z M30.0425532,29.2222222 C32.5213184,29.2222222 34.5106383,31.4208827 34.5106383,34.1111111 C34.5106383,36.8013396 32.5213184,39 30.0425532,39 C27.563788,39 25.5744681,36.8013396 25.5744681,34.1111111 C25.5744681,31.4208827 27.563788,29.2222222 30.0425532,29.2222222 Z M24.6808511,28.3333333 L22.893617,28.3333333 L22.893617,38.1111111 L24.6808511,38.1111111 L24.6808511,28.3333333 Z M42.106383,27.8888889 L34.9574468,27.8888889 L34.9574468,29.6666667 L37.6382979,29.6666667 L37.6382979,38.1111111 L39.4255319,38.1111111 L39.4255319,29.6656296 L42.106383,29.6666667 L42.106383,27.8888889 Z M30.0425532,30.1111111 C28.0795389,30.1111111 26.4680851,31.8921418 26.4680851,34.1111111 C26.4680851,36.3300804 28.0795389,38.1111111 30.0425532,38.1111111 C32.0055675,38.1111111 33.6170213,36.3300804 33.6170213,34.1111111 C33.6170213,31.8921418 32.0055675,30.1111111 30.0425532,30.1111111 Z M30.0425532,31.8888889 C31.0621051,31.8888889 31.8297872,32.9070493 31.8297872,34.1111111 C31.8297872,35.3151729 31.0621051,36.3333333 30.0425532,36.3333333 C29.0230013,36.3333333 28.2553191,35.3151729 28.2553191,34.1111111 C28.2553191,32.9070493 29.0230013,31.8888889 30.0425532,31.8888889 Z M30.0425532,32.7777778 C29.5815119,32.7777778 29.1489362,33.3514938 29.1489362,34.1111111 C29.1489362,34.8707284 29.5815119,35.4444444 30.0425532,35.4444444 C30.5035945,35.4444444 30.9361702,34.8707284 30.9361702,34.1111111 C30.9361702,33.3514938 30.5035945,32.7777778 30.0425532,32.7777778 Z"/>
  </g>
</svg>
