<svg xmlns="http://www.w3.org/2000/svg" xmlns:xlink="http://www.w3.org/1999/xlink" width="62" height="62" viewBox="0 0 62 62">
  <defs>
    <linearGradient id="ico-expertise-6-b" x1="100%" x2="0%" y1="100%" y2="0%">
      <stop offset="0%" stop-color="#1E85E9"/>
      <stop offset="20.276%" stop-color="#8671F3"/>
      <stop offset="70.727%" stop-color="#C06CFD" stop-opacity=".99"/>
      <stop offset="100%" stop-color="#FFBEE8"/>
    </linearGradient>
    <rect id="ico-expertise-6-a" width="60" height="60" x="0" y="0" rx="4"/>
  </defs>
  <g fill="none" fill-rule="evenodd" transform="translate(1 1)">
    <g opacity=".062">
      <use fill="#FAFAFA" xlink:href="#ico-expertise-6-a"/>
      <use fill="url(#ico-expertise-6-b)" stroke="#000" stroke-opacity=".02" xlink:href="#ico-expertise-6-a"/>
    </g>
    <path fill="url(#ico-expertise-6-b)" fill-rule="nonzero" d="M19.6344528,0 L8.36554719,0 C7.82678355,0 7.39002933,0.436754223 7.39002933,0.97551786 L7.39002933,7.31773727 C7.39002933,7.35766307 7.35766307,7.39002933 7.31773727,7.39002933 L0.97551786,7.39002933 C0.436754223,7.39002933 0,7.82678355 0,8.36554719 L0,19.6344528 L0.00572420599,19.7407462 C0.0586872715,20.2295092 0.472671798,20.6099707 0.97551786,20.6099707 L7.38929032,20.6098065 L7.39002933,27.0244821 C7.39002933,27.5632458 7.82678355,28 8.36554719,28 L19.6344528,28 L19.7407462,27.9942758 C20.2295092,27.9413127 20.6099707,27.5273282 20.6099707,27.0244821 L20.6098065,20.6098065 L27.0244821,20.6099707 C27.5632458,20.6099707 28,20.1732165 28,19.6344528 L28,8.36554719 C28,7.82680598 27.5632735,7.39013937 27.0246232,7.38997114 L20.6823129,7.38926643 C20.6424101,7.38925395 20.6099787,7.35681892 20.6099707,7.31682529 L20.6099707,0.97551786 C20.6099707,0.436754223 20.1732165,0 19.6344528,0 Z M8.36554719,0.903225806 L19.6344528,0.903225806 C19.6743786,0.903225806 19.7067449,0.935592061 19.7067449,0.97551786 L19.7067449,7.31691616 C19.7068533,7.85565736 20.1434714,8.29232397 20.6821217,8.29249221 L27.024432,8.29319692 C27.0643347,8.29320939 27.0967742,8.32564442 27.0967742,8.36563805 L27.0967742,19.6344528 C27.0967742,19.6743786 27.0644079,19.7067449 27.0244821,19.7067449 L19.7067449,19.7067449 L19.7067449,27.0244821 C19.7067449,27.0644079 19.6743786,27.0967742 19.6344528,27.0967742 L8.36554719,27.0967742 C8.32562139,27.0967742 8.29325513,27.0644079 8.29325513,27.0244821 L8.29325513,19.7067449 L0.97551786,19.7067449 C0.935592061,19.7067449 0.903225806,19.6743786 0.903225806,19.6344528 L0.903225806,8.36554719 C0.903225806,8.32562139 0.935592061,8.29325513 0.97551786,8.29325513 L7.31773727,8.29325513 C7.85650091,8.29325513 8.29325513,7.85650091 8.29325513,7.31773727 L8.29325513,0.97551786 C8.29325513,0.935592061 8.32562139,0.903225806 8.36554719,0.903225806 Z" transform="translate(16 16)"/>
  </g>
</svg>
