<svg xmlns="http://www.w3.org/2000/svg" xmlns:xlink="http://www.w3.org/1999/xlink" width="61" height="62" viewBox="0 0 61 62">
  <defs>
    <linearGradient id="icon-10-8-b" x1="100%" x2="0%" y1="100%" y2="0%">
      <stop offset="0%" stop-color="#FFBEE8"/>
      <stop offset="29.273%" stop-color="#C06CFD" stop-opacity=".99"/>
      <stop offset="79.724%" stop-color="#8671F3"/>
      <stop offset="100%" stop-color="#1E85E9"/>
    </linearGradient>
    <rect id="icon-10-8-a" width="60" height="60" x=".5" y="0" rx="4"/>
    <linearGradient id="icon-10-8-c" x1="81.491%" x2="14.441%" y1="86.571%" y2="5.857%">
      <stop offset="0%" stop-color="#1E85E9"/>
      <stop offset="20.276%" stop-color="#8671F3"/>
      <stop offset="70.727%" stop-color="#C06CFD" stop-opacity=".99"/>
      <stop offset="100%" stop-color="#FFBEE8"/>
    </linearGradient>
  </defs>
  <g fill="none" fill-rule="evenodd" transform="translate(0 1)">
    <g opacity=".062">
      <use fill="#FAFAFA" xlink:href="#icon-10-8-a"/>
      <use fill="url(#icon-10-8-b)" stroke="#000" stroke-opacity=".02" xlink:href="#icon-10-8-a"/>
    </g>
    <path fill="url(#icon-10-8-c)" fill-rule="nonzero" d="M46.5,24 C47.0522847,24 47.5,24.4477153 47.5,25 L47.5,47 L48.5,47 C48.7761424,47 49,47.2238576 49,47.5 C49,47.7454599 48.8231248,47.9496084 48.5898756,47.9919443 L48.5,48 L12.5,48 C12.2238576,48 12,47.7761424 12,47.5 C12,47.2545401 12.1768752,47.0503916 12.4101244,47.0080557 L12.5,47 L14,47 L14,47 L14,41 C14,40.4477153 14.4477153,40 15,40 L19,40 C19.5522847,40 20,40.4477153 20,41 L20,47 L23.5,47 L23.5,47 L23.5,32 C23.5,31.4477153 23.9477153,31 24.5,31 L28.5,31 C29.0522847,31 29.5,31.4477153 29.5,32 L29.5,47 L32.5,47 L32.5,47 L32.5,36 C32.5,35.4477153 32.9477153,35 33.5,35 L37.5,35 C38.0522847,35 38.5,35.4477153 38.5,36 L38.5,47 L41.5,47 L41.5,47 L41.5,25 C41.5,24.4477153 41.9477153,24 42.5,24 L46.5,24 Z M19,41 L15,41 L15,47 L19,47 L19,41 Z M28.5,32 L24.5,32 L24.5,47 L28.5,47 L28.5,32 Z M37.5,36 L33.5,36 L33.5,47 L37.5,47 L37.5,36 Z M46.5,25 L42.5,25 L42.5,47 L46.5,47 L46.5,25 Z M44.5,11.5 C45.6045695,11.5 46.5,12.3954305 46.5,13.5 C46.5,14.6045695 45.6045695,15.5 44.5,15.5 C44.1746541,15.5 43.8674524,15.4223151 43.5959325,15.2844828 L37.2074722,22.4580369 C37.3930474,22.7614911 37.5,23.1182555 37.5,23.5 C37.5,24.6045695 36.6045695,25.5 35.5,25.5 C34.3954305,25.5 33.5,24.6045695 33.5,23.5 C33.5,23.4558172 33.5014327,23.4119691 33.5042541,23.3684994 L28.1193244,21.6740357 C27.7558132,22.1745529 27.1659127,22.5 26.5,22.5 C26.0780791,22.5 25.6866731,22.3693505 25.3640311,22.1463006 L18.7652198,27.5589492 C18.9150559,27.839425 19,28.1597926 19,28.5 C19,29.6045695 18.1045695,30.5 17,30.5 C15.8954305,30.5 15,29.6045695 15,28.5 C15,27.3954305 15.8954305,26.5 17,26.5 C17.4012467,26.5 17.7748958,26.6181595 18.0880496,26.821581 L24.7084244,21.3899568 C24.5750227,21.1219228 24.5,20.8197227 24.5,20.5 C24.5,19.3954305 25.3954305,18.5 26.5,18.5 C27.6045695,18.5 28.5,19.3954305 28.5,20.5 C28.5,20.5811577 28.495166,20.6611863 28.4857703,20.7398137 L33.8171768,22.4187605 C34.1730397,21.8660453 34.7937726,21.5 35.5,21.5 C35.8597527,21.5 36.1973206,21.5949848 36.488993,21.7612438 L42.8446702,14.6227964 C42.6271278,14.3026986 42.5,13.9161954 42.5,13.5 C42.5,12.3954305 43.3954305,11.5 44.5,11.5 Z M17,27.5 C16.4477153,27.5 16,27.9477153 16,28.5 C16,29.0522847 16.4477153,29.5 17,29.5 C17.5522847,29.5 18,29.0522847 18,28.5 C18,27.9477153 17.5522847,27.5 17,27.5 Z M35.5,22.5 C34.9477153,22.5 34.5,22.9477153 34.5,23.5 C34.5,24.0522847 34.9477153,24.5 35.5,24.5 C36.0522847,24.5 36.5,24.0522847 36.5,23.5 C36.5,22.9477153 36.0522847,22.5 35.5,22.5 Z M26.5,19.5 C25.9477153,19.5 25.5,19.9477153 25.5,20.5 C25.5,21.0522847 25.9477153,21.5 26.5,21.5 C27.0522847,21.5 27.5,21.0522847 27.5,20.5 C27.5,19.9477153 27.0522847,19.5 26.5,19.5 Z M44.5,12.5 C43.9477153,12.5 43.5,12.9477153 43.5,13.5 C43.5,14.0522847 43.9477153,14.5 44.5,14.5 C45.0522847,14.5 45.5,14.0522847 45.5,13.5 C45.5,12.9477153 45.0522847,12.5 44.5,12.5 Z"/>
  </g>
</svg>
