<svg xmlns="http://www.w3.org/2000/svg" width="23" height="39" viewBox="0 0 23 39">
  <defs>
    <linearGradient id="ico-stage-2-a" x1="67.39%" x2="32.61%" y1="100%" y2="0%">
      <stop offset="0%" stop-color="#1E85E9"/>
      <stop offset="20.276%" stop-color="#8671F3"/>
      <stop offset="70.727%" stop-color="#C06CFD" stop-opacity=".99"/>
      <stop offset="100%" stop-color="#FFBEE8"/>
    </linearGradient>
  </defs>
  <path fill="url(#ico-stage-2-a)" d="M132.641686,65.9321658 C132.887146,65.9321658 133.091294,66.1071175 133.13363,66.3378302 L133.141686,66.4267285 L133.141686,68.5054373 C133.141686,68.7785767 132.917828,69 132.641686,69 C132.396226,69 132.192078,68.8250483 132.149742,68.5943356 L132.141686,68.5054373 L132.141686,66.4267285 C132.141686,66.1535891 132.365544,65.9321658 132.641686,65.9321658 Z M134.584305,63.1995138 C134.829765,63.1995138 135.033914,63.3744655 135.07625,63.6051782 L135.084305,63.6940765 L135.084305,68.1231655 C135.084305,68.3963049 134.860448,68.6177282 134.584305,68.6177282 C134.338845,68.6177282 134.134697,68.4427764 134.092361,68.2120637 L134.084305,68.1231655 L134.084305,63.6940765 C134.084305,63.420937 134.308163,63.1995138 134.584305,63.1995138 Z M136.615006,64.2357289 C136.860465,64.2357289 137.064614,64.4106806 137.10695,64.6413933 L137.115006,64.7302915 L137.115006,68.1231655 C137.115006,68.3963049 136.891148,68.6177282 136.615006,68.6177282 C136.369546,68.6177282 136.165397,68.4427764 136.123061,68.2120637 L136.115006,68.1231655 L136.115006,64.7302915 C136.115006,64.4571521 136.338863,64.2357289 136.615006,64.2357289 Z M132.574558,31.0727512 C133.349498,29.9471245 134.892081,29.6615523 136.020014,30.4349079 C136.267658,30.6047023 136.482293,30.8180288 136.653441,31.0644738 C140.221473,36.2022656 142.013522,41.0572579 142.013522,45.6285321 C142.013522,46.4626645 141.987245,47.2756444 141.934661,48.0674435 C144.064607,48.8800441 145.376354,50.3859834 145.822904,52.5456796 C146.28285,54.7701667 145.845287,57.7875527 144.528872,61.6150926 C144.407549,61.9678438 143.953532,62.0647566 143.698229,61.7923986 L143.698229,61.7923986 L139.631115,57.4527792 C139.419994,57.8910337 139.194814,58.317956 138.955563,58.7335353 L139.021,58.616 L139.021433,60.4654128 C139.021433,60.6778546 138.887211,60.8590113 138.69878,60.9290344 L138.614938,60.9520074 L138.525857,60.9599755 L138.048,60.959 L138.048914,62.4436636 C138.048914,62.6864542 137.873603,62.8883826 137.642418,62.9302582 L137.553338,62.9382262 L131.606425,62.9382262 C131.363137,62.9382262 131.160795,62.7632745 131.118833,62.5325618 L131.110849,62.4436636 L131.11,60.959 L130.550664,60.9599755 C130.307376,60.9599755 130.105034,60.7850238 130.063073,60.5543111 L130.055088,60.4654128 L130.054281,58.6068462 L129.889819,58.2923942 C129.735711,57.9897077 129.588104,57.6825688 129.446996,57.3709809 L125.301771,61.7923986 C125.046468,62.0647566 124.592451,61.9678438 124.471128,61.6150926 C123.154713,57.7875527 122.71715,54.7701667 123.177096,52.5456796 C123.634213,50.3348743 124.997962,48.8091343 127.218151,48.0089584 C127.183978,47.4167201 127.159916,46.8169041 127.150624,46.2070181 L127.150624,46.2070181 L127.146241,45.6285321 C127.146241,41.3109113 128.850237,36.6223941 132.244223,31.5589384 L132.244223,31.5589384 Z M137.057,60.959 L132.102,60.959 L132.102001,61.9491009 L137.057762,61.9491009 L137.057,60.959 Z M127.306425,49.0337868 L127.279853,49.0444292 C125.544355,49.7491167 124.514661,50.9712708 124.147799,52.7455669 C123.780613,54.5214306 124.057188,56.9456197 124.99024,60.0063754 L125.147087,60.5079452 L129.023563,56.3736662 C128.137222,54.1416757 127.56511,51.6946708 127.306425,49.0337868 Z M141.850411,49.0988637 L141.808327,49.4994246 C141.52438,52.0625298 140.945569,54.3881863 140.070809,56.4753365 L143.852212,60.5079452 L144.00976,60.0063754 C144.942812,56.9456197 145.219387,54.5214306 144.852201,52.7455669 C144.494613,51.0161237 143.507282,49.8112598 141.850411,49.0988637 Z M138.03,58.992 L131.046,58.992 L131.045433,59.9708501 L138.030082,59.9708501 L138.03,58.992 Z M135.336885,31.1748456 C134.674704,30.8080432 133.829195,30.9970728 133.393201,31.6303543 L133.393201,31.6303543 L133.066319,32.1114579 C129.775121,37.0215828 128.137393,41.5277645 128.137393,45.6285321 C128.137393,50.5122199 129.088912,54.7184345 130.98746,58.2535364 L130.851,57.992 L138.235959,57.9935406 C140.018276,54.7840277 140.947545,50.856308 141.018031,46.2047877 L141.02237,45.6285321 C141.02237,41.2782349 139.29987,36.6116639 135.838806,31.6279006 C135.736117,31.480034 135.607337,31.3520384 135.458751,31.250162 L135.458751,31.250162 Z M134.579881,39.1992171 C136.495775,39.1992171 138.048914,40.7491799 138.048914,42.661156 C138.048914,44.573132 136.495775,46.1230948 134.579881,46.1230948 C132.663988,46.1230948 131.110849,44.573132 131.110849,42.661156 C131.110849,40.7491799 132.663988,39.1992171 134.579881,39.1992171 Z M134.579881,40.1883425 C133.211386,40.1883425 132.102001,41.2954588 132.102001,42.661156 C132.102001,44.0268531 133.211386,45.1339694 134.579881,45.1339694 C135.948377,45.1339694 137.057762,44.0268531 137.057762,42.661156 C137.057762,41.2954588 135.948377,40.1883425 134.579881,40.1883425 Z" transform="translate(-123 -30)"/>
</svg>
