<svg xmlns="http://www.w3.org/2000/svg" width="37" height="32" viewBox="0 0 37 32">
  <defs>
    <linearGradient id="icon-16-9-a" x1="100%" x2="0%" y1="88.968%" y2="11.032%">
      <stop offset="0%" stop-color="#1E85E9"/>
      <stop offset="20.276%" stop-color="#8671F3"/>
      <stop offset="70.727%" stop-color="#C06CFD" stop-opacity=".99"/>
      <stop offset="100%" stop-color="#FFBEE8"/>
    </linearGradient>
  </defs>
  <path fill="url(#icon-16-9-a)" d="M1522.62386,2575 L1522.71374,2575.00806 C1522.91783,2575.0451 1523.07876,2575.20603 1523.1158,2575.41012 L1523.12386,2575.5 L1523.12386,2582 L1529.62386,2582 L1529.71374,2582.00806 C1529.94698,2582.05039 1530.12386,2582.25454 1530.12386,2582.5 C1530.12386,2582.74546 1529.94698,2582.94961 1529.71374,2582.99194 L1529.62386,2583 L1522.62386,2583 L1522.53398,2582.99194 C1522.32989,2582.9549 1522.16896,2582.79397 1522.13192,2582.58988 L1522.12386,2582.5 L1522.12386,2575.5 L1522.13192,2575.41012 C1522.17425,2575.17688 1522.3784,2575 1522.62386,2575 Z M1553.62386,2575 C1553.86932,2575 1554.07347,2575.17688 1554.1158,2575.41012 L1554.12386,2575.5 L1554.12386,2582.5 C1554.12386,2582.74546 1553.94698,2582.94961 1553.71374,2582.99194 L1553.62386,2583 L1546.62386,2583 C1546.34772,2583 1546.12386,2582.77614 1546.12386,2582.5 C1546.12386,2582.25454 1546.30073,2582.05039 1546.53398,2582.00806 L1546.62386,2582 L1553.12386,2582 L1553.12386,2575.5 C1553.12386,2575.25454 1553.30073,2575.05039 1553.53398,2575.00806 L1553.62386,2575 Z M1538.12386,2556 C1544.61363,2556 1550.48379,2559.44722 1555.71746,2566.29429 L1556.02459,2566.70098 L1556.24772,2567 L1556.02459,2567.29902 C1550.71376,2574.41627 1544.74088,2578 1538.12386,2578 C1531.63409,2578 1525.76393,2574.55278 1520.53026,2567.70571 L1520.22313,2567.29902 L1520,2567 L1520.22313,2566.70098 C1525.53396,2559.58373 1531.50684,2556 1538.12386,2556 Z M1538.12386,2557 C1532.23041,2557 1526.84577,2560.01862 1521.95507,2566.09755 L1521.64357,2566.48973 L1521.24986,2567 L1521.64357,2567.51027 C1526.4074,2573.58447 1531.64361,2576.72911 1537.36615,2576.98324 L1537.74837,2576.9959 L1538.12386,2577 C1544.01731,2577 1549.40195,2573.98138 1554.29265,2567.90245 L1554.60415,2567.51027 L1554.99686,2567 L1554.60415,2566.48973 C1549.84032,2560.41553 1544.60411,2557.27089 1538.88157,2557.01676 L1538.49935,2557.0041 L1538.12386,2557 Z M1538.12386,2560 C1541.98985,2560 1545.12386,2563.13401 1545.12386,2567 C1545.12386,2570.86599 1541.98985,2574 1538.12386,2574 C1534.25787,2574 1531.12386,2570.86599 1531.12386,2567 C1531.12386,2563.13401 1534.25787,2560 1538.12386,2560 Z M1538.12386,2561 C1534.81015,2561 1532.12386,2563.68629 1532.12386,2567 C1532.12386,2570.31371 1534.81015,2573 1538.12386,2573 C1541.43757,2573 1544.12386,2570.31371 1544.12386,2567 C1544.12386,2563.68629 1541.43757,2561 1538.12386,2561 Z M1538.12386,2563 C1540.333,2563 1542.12386,2564.79086 1542.12386,2567 C1542.12386,2569.20914 1540.333,2571 1538.12386,2571 C1535.91472,2571 1534.12386,2569.20914 1534.12386,2567 C1534.12386,2564.79086 1535.91472,2563 1538.12386,2563 Z M1538.12386,2564 C1536.46701,2564 1535.12386,2565.34315 1535.12386,2567 C1535.12386,2568.65685 1536.46701,2570 1538.12386,2570 C1539.78071,2570 1541.12386,2568.65685 1541.12386,2567 C1541.12386,2565.34315 1539.78071,2564 1538.12386,2564 Z M1529.62386,2551 C1529.9,2551 1530.12386,2551.22386 1530.12386,2551.5 C1530.12386,2551.74546 1529.94698,2551.94961 1529.71374,2551.99194 L1529.62386,2552 L1523.12386,2552 L1523.12386,2558.5 C1523.12386,2558.74546 1522.94698,2558.94961 1522.71374,2558.99194 L1522.62386,2559 C1522.3784,2559 1522.17425,2558.82312 1522.13192,2558.58988 L1522.12386,2558.5 L1522.12386,2551.5 C1522.12386,2551.25454 1522.30073,2551.05039 1522.53398,2551.00806 L1522.62386,2551 L1529.62386,2551 Z M1553.62386,2551 L1553.71374,2551.00806 C1553.91783,2551.0451 1554.07876,2551.20603 1554.1158,2551.41012 L1554.12386,2551.5 L1554.12386,2558.5 L1554.1158,2558.58988 C1554.07876,2558.79397 1553.91783,2558.9549 1553.71374,2558.99194 L1553.62386,2559 L1553.53398,2558.99194 C1553.32989,2558.9549 1553.16896,2558.79397 1553.13192,2558.58988 L1553.12386,2558.5 L1553.12386,2552 L1546.62386,2552 L1546.53398,2551.99194 C1546.30073,2551.94961 1546.12386,2551.74546 1546.12386,2551.5 C1546.12386,2551.25454 1546.30073,2551.05039 1546.53398,2551.00806 L1546.62386,2551 L1553.62386,2551 Z" transform="translate(-1520 -2551)"/>
</svg>
