<svg xmlns="http://www.w3.org/2000/svg" width="46" height="46" viewBox="0 0 46 46">
  <defs>
    <linearGradient id="icon-26-3-a" x1="99.743%" x2=".257%" y1="100%" y2="0%">
      <stop offset="0%" stop-color="#1E85E9"/>
      <stop offset="20.276%" stop-color="#8671F3"/>
      <stop offset="70.727%" stop-color="#C06CFD" stop-opacity=".99"/>
      <stop offset="100%" stop-color="#FFBEE8"/>
    </linearGradient>
  </defs>
  <path fill="url(#icon-26-3-a)" d="M714.381811,3952 L714.392806,3952.00012 C714.413544,3952.00057 714.434259,3952.00231 714.454822,3952.00533 L714.381811,3952 C714.418269,3952 714.453816,3952.0039 714.488056,3952.01131 C714.503713,3952.01473 714.519777,3952.01903 714.535638,3952.02414 C714.54705,3952.0278 714.557984,3952.03178 714.568732,3952.03611 C714.584462,3952.04244 714.599955,3952.04962 714.615123,3952.05762 C714.627302,3952.06409 714.639382,3952.07113 714.651126,3952.07866 C714.661396,3952.08518 714.671503,3952.09219 714.681397,3952.09961 C714.69712,3952.11145 714.711867,3952.12392 714.725847,3952.13718 C714.728651,3952.13983 714.731831,3952.14292 714.734978,3952.14606 L714.742703,3952.15394 C714.757999,3952.16989 714.772248,3952.18685 714.78534,3952.20471 L714.734978,3952.14606 C714.760127,3952.17115 714.782046,3952.19826 714.800735,3952.22686 C714.80992,3952.241 714.818488,3952.25568 714.826306,3952.27081 C714.832825,3952.28338 714.838737,3952.29616 714.844082,3952.30912 C714.849013,3952.32103 714.853548,3952.33334 714.857602,3952.34586 C714.862797,3952.36207 714.867113,3952.37821 714.870611,3952.39448 C714.871674,3952.39918 714.872759,3952.40464 714.873755,3952.41012 L714.877136,3952.43159 C714.879416,3952.44819 714.880863,3952.46488 714.881475,3952.4816 L714.881811,3952.5 L714.881811,3958.5 C714.881811,3958.77614 714.657954,3959 714.381811,3959 C714.136351,3959 713.932203,3958.82312 713.889867,3958.58988 L713.881811,3958.5 L713.88,3953.71 L704.150794,3963.462 C704.310564,3963.72462 704.411533,3964.02696 704.43542,3964.35074 L704.440906,3964.5 L704.440906,3985.5 C704.440906,3986.60457 703.545475,3987.5 702.440906,3987.5 L702.440906,3987.5 L681.440906,3987.5 C681.079493,3987.5 680.740471,3987.40414 680.447879,3987.23645 L670.704,3997 L675.5,3997 C675.74546,3997 675.949608,3997.17688 675.991944,3997.41012 L676,3997.5 C676,3997.74546 675.823125,3997.94961 675.589876,3997.99194 L675.5,3998 L669.5,3998 L669.480711,3997.99963 C669.463299,3997.99896 669.445915,3997.99739 669.428636,3997.99491 L669.5,3998 C669.463903,3998 669.428699,3997.99617 669.394772,3997.98891 C669.378921,3997.98549 669.362439,3997.9811 669.346173,3997.97586 C669.334761,3997.9722 669.323827,3997.96822 669.313079,3997.96389 C669.297349,3997.95756 669.281856,3997.95038 669.266688,3997.94238 C669.25423,3997.93576 669.241886,3997.92855 669.229894,3997.92084 C669.22056,3997.91488 669.211539,3997.90865 669.202685,3997.90208 C669.186983,3997.89041 669.171936,3997.87784 669.157676,3997.86444 C669.154323,3997.8613 669.150556,3997.85765 669.146833,3997.85394 L669.134589,3997.84129 C669.122939,3997.82882 669.11192,3997.81575 669.101583,3997.80214 L669.146833,3997.85394 C669.119969,3997.82713 669.096791,3997.79803 669.077299,3997.76727 C669.070019,3997.75568 669.063293,3997.74405 669.057034,3997.73213 C669.049952,3997.7187 669.043509,3997.70489 669.037729,3997.69088 C669.032798,3997.67897 669.028263,3997.66666 669.024209,3997.65414 C669.018699,3997.63695 669.014172,3997.61982 669.010567,3997.60253 C669.009734,3997.59877 669.008865,3997.59433 669.008056,3997.58988 L669.005695,3997.57546 C669.002473,3997.55425 669.000618,3997.53287 669.000131,3997.51146 L669,3997.5 L669,3991.5 C669,3991.22386 669.223858,3991 669.5,3991 C669.74546,3991 669.949608,3991.17688 669.991944,3991.41012 L670,3991.5 L670,3996.29 L679.731017,3986.538 C679.571247,3986.27538 679.470279,3985.97304 679.446391,3985.64926 L679.440906,3985.5 L679.440906,3964.5 C679.440906,3963.39543 680.336336,3962.5 681.440906,3962.5 L681.440906,3962.5 L702.440906,3962.5 C702.802401,3962.5 703.141496,3962.59591 703.434134,3962.76366 L713.175,3953 L708.381811,3953 C708.136351,3953 707.932203,3952.82312 707.889867,3952.58988 L707.881811,3952.5 C707.881811,3952.25454 708.058686,3952.05039 708.291936,3952.00806 L708.381811,3952 L714.381811,3952 Z M702.440906,3963.5 L681.440906,3963.5 C680.888621,3963.5 680.440906,3963.94772 680.440906,3964.5 L680.440906,3964.5 L680.440906,3985.5 C680.440906,3985.59862 680.455182,3985.69391 680.481782,3985.78391 L685.586966,3980.66999 C685.782015,3980.47451 686.098597,3980.47416 686.294073,3980.66921 C686.467828,3980.84259 686.487408,3981.11199 686.352625,3981.30701 L686.294845,3981.37632 L681.20957,3986.47311 C681.283823,3986.49069 681.361277,3986.5 681.440906,3986.5 L681.440906,3986.5 L702.440906,3986.5 C702.99319,3986.5 703.440906,3986.05228 703.440906,3985.5 L703.440906,3985.5 L703.440906,3964.5 C703.440906,3964.40101 703.426523,3964.30538 703.399734,3964.21509 L698.294845,3969.33001 C698.099796,3969.52549 697.783214,3969.52584 697.587738,3969.33079 C697.413983,3969.15741 697.394403,3968.88801 697.529187,3968.69299 L697.586966,3968.62368 L702.671219,3963.52665 C702.597278,3963.50922 702.520169,3963.5 702.440906,3963.5 L702.440906,3963.5 Z" transform="translate(-669 -3952)"/>
</svg>
