<svg xmlns="http://www.w3.org/2000/svg" xmlns:xlink="http://www.w3.org/1999/xlink" width="62" height="62" viewBox="0 0 62 62">
  <defs>
    <linearGradient id="icon-8-7-b" x1="100%" x2="0%" y1="100%" y2="0%">
      <stop offset="0%" stop-color="#1E85E9"/>
      <stop offset="20.276%" stop-color="#8671F3"/>
      <stop offset="70.727%" stop-color="#C06CFD" stop-opacity=".99"/>
      <stop offset="100%" stop-color="#FFBEE8"/>
    </linearGradient>
    <rect id="icon-8-7-a" width="60" height="60" x="0" y="0" rx="4"/>
    <linearGradient id="icon-8-7-c" x1="100%" x2="0%" y1="87.984%" y2="12.016%">
      <stop offset="0%" stop-color="#1E85E9"/>
      <stop offset="20.276%" stop-color="#8671F3"/>
      <stop offset="70.727%" stop-color="#C06CFD" stop-opacity=".99"/>
      <stop offset="100%" stop-color="#FFBEE8"/>
    </linearGradient>
  </defs>
  <g fill="none" fill-rule="evenodd" transform="translate(1 1)">
    <g opacity=".062">
      <use fill="#FAFAFA" xlink:href="#icon-8-7-a"/>
      <use fill="url(#icon-8-7-b)" stroke="#000" stroke-opacity=".02" xlink:href="#icon-8-7-a"/>
    </g>
    <path fill="url(#icon-8-7-c)" fill-rule="nonzero" d="M49.5,12 C50.2796961,12 50.9204487,12.5565082 50.9931334,13.2680858 L51,13.4032258 L51,39.5967742 C51,40.3261673 50.4051119,40.925581 49.64446,40.9935764 L49.5,41 L37.48,41 L40,46.6791361 L39.818,46.735 L43.4838867,46.7353516 C43.7600291,46.7353516 43.9838867,46.9592092 43.9838867,47.2353516 C43.9838867,47.4808115 43.8070116,47.6849599 43.5737624,47.7272959 L43.4838867,47.7353516 L17.4550781,47.7353516 C17.1789358,47.7353516 16.9550781,47.5114939 16.9550781,47.2353516 C16.9550781,46.9898917 17.1319533,46.7857432 17.3652025,46.7434072 L17.4550781,46.7353516 L21.186,46.735 L21,46.6766422 L23.525,41 L11.5,41 C10.7203039,41 10.0795513,40.4434918 10.0068666,39.7319142 L10,39.5967742 L10,13.4032258 C10,12.6738327 10.5948881,12.074419 11.35554,12.0064236 L11.5,12 L49.5,12 Z M36.301,41 L24.698,41 L22.146,46.735 L38.845,46.735 L36.301,41 Z M50,35.1772461 L11,35.177 L11,39.5344828 C11,39.7630144 11.1768752,39.9530837 11.4101244,39.9924999 L11.5,40 L23.971,40 L23.9718,40 L23.974,40 L37.033,40 L37.0361396,40 L37.036,40 L49.5,40 C49.7454599,40 49.9496084,39.8353231 49.9919443,39.6181601 L50,39.5344828 L50,35.1772461 Z M49.5,13 L11.5,13 C11.2545401,13 11.0503916,13.1646769 11.0080557,13.3818399 L11,13.4655172 L11,34.177 L50,34.1772461 L50,13.4655172 C50,13.2084192 49.7761424,13 49.5,13 Z M30,15.8686523 C30.2454599,15.8686523 30.4496084,16.0455275 30.4919443,16.2787767 L30.5,16.3686523 L30.5004345,17.5500973 C31.6413382,17.7819003 32.5,18.7906746 32.5,20 C32.5,21.2093254 31.6413382,22.2180997 30.5004345,22.4499027 L30.5,32.1665039 C30.5,32.4426463 30.2761424,32.6665039 30,32.6665039 C29.7545401,32.6665039 29.5503916,32.4896287 29.5080557,32.2563795 L29.5,32.1665039 L29.500574,22.4501074 C28.3591679,22.2186941 27.5,21.2096818 27.5,20 C27.5,18.7903182 28.3591679,17.7813059 29.500574,17.5498926 L29.5,16.3686523 C29.5,16.09251 29.7238576,15.8686523 30,15.8686523 Z M23,15.8686523 C23.2454599,15.8686523 23.4496084,16.0455275 23.4919443,16.2787767 L23.5,16.3686523 L23.5004345,20.5500973 C24.6413382,20.7819003 25.5,21.7906746 25.5,23 C25.5,24.2093254 24.6413382,25.2180997 23.5004345,25.4499027 L23.5,32.1665039 C23.5,32.4426463 23.2761424,32.6665039 23,32.6665039 C22.7545401,32.6665039 22.5503916,32.4896287 22.5080557,32.2563795 L22.5,32.1665039 L22.500574,25.4501074 C21.3591679,25.2186941 20.5,24.2096818 20.5,23 C20.5,21.7903182 21.3591679,20.7813059 22.500574,20.5498926 L22.5,16.3686523 C22.5,16.09251 22.7238576,15.8686523 23,15.8686523 Z M37,15.8686523 C37.2454599,15.8686523 37.4496084,16.0455275 37.4919443,16.2787767 L37.5,16.3686523 L37.5004345,25.5500973 C38.6413382,25.7819003 39.5,26.7906746 39.5,28 C39.5,29.2093254 38.6413382,30.2180997 37.5004345,30.4499027 L37.5,32.1665039 C37.5,32.4426463 37.2761424,32.6665039 37,32.6665039 C36.7545401,32.6665039 36.5503916,32.4896287 36.5080557,32.2563795 L36.5,32.1665039 L36.500574,30.4501074 C35.3591679,30.2186941 34.5,29.2096818 34.5,28 C34.5,26.7903182 35.3591679,25.7813059 36.500574,25.5498926 L36.5,16.3686523 C36.5,16.09251 36.7238576,15.8686523 37,15.8686523 Z M37,26.5 C36.1715729,26.5 35.5,27.1715729 35.5,28 C35.5,28.8284271 36.1715729,29.5 37,29.5 C37.8284271,29.5 38.5,28.8284271 38.5,28 C38.5,27.1715729 37.8284271,26.5 37,26.5 Z M23,21.5 C22.1715729,21.5 21.5,22.1715729 21.5,23 C21.5,23.8284271 22.1715729,24.5 23,24.5 C23.8284271,24.5 24.5,23.8284271 24.5,23 C24.5,22.1715729 23.8284271,21.5 23,21.5 Z M30,18.5 C29.1715729,18.5 28.5,19.1715729 28.5,20 C28.5,20.8284271 29.1715729,21.5 30,21.5 C30.8284271,21.5 31.5,20.8284271 31.5,20 C31.5,19.1715729 30.8284271,18.5 30,18.5 Z"/>
  </g>
</svg>
