<svg xmlns="http://www.w3.org/2000/svg" xmlns:xlink="http://www.w3.org/1999/xlink" width="62" height="62" viewBox="0 0 62 62">
  <defs>
    <linearGradient id="icon-6-2-b" x1="100%" x2="0%" y1="100%" y2="0%">
      <stop offset="0%" stop-color="#1E85E9"/>
      <stop offset="20.276%" stop-color="#8671F3"/>
      <stop offset="70.727%" stop-color="#C06CFD" stop-opacity=".99"/>
      <stop offset="100%" stop-color="#FFBEE8"/>
    </linearGradient>
    <rect id="icon-6-2-a" width="60" height="60" x="0" y="0" rx="4"/>
  </defs>
  <g fill="none" fill-rule="evenodd" transform="translate(1 1)">
    <g opacity=".062">
      <use fill="#FAFAFA" xlink:href="#icon-6-2-a"/>
      <use fill="url(#icon-6-2-b)" stroke="#000" stroke-opacity=".02" xlink:href="#icon-6-2-a"/>
    </g>
    <path fill="url(#icon-6-2-b)" fill-rule="nonzero" d="M46.5,12 C47.8807119,12 49,13.1192881 49,14.5 L49,14.5 L49,46.5 C49,47.8807119 47.8807119,49 46.5,49 L46.5,49 L14.5,49 C13.1192881,49 12,47.8807119 12,46.5 L12,46.5 L12,14.5 C12,13.1192881 13.1192881,12 14.5,12 L14.5,12 Z M46.5,13 L14.5,13 C13.6715729,13 13,13.6715729 13,14.5 L13,14.5 L13,46.5 C13,47.3284271 13.6715729,48 14.5,48 L14.5,48 L46.5,48 C47.3284271,48 48,47.3284271 48,46.5 L48,46.5 L48,14.5 C48,13.6715729 47.3284271,13 46.5,13 L46.5,13 Z M19.4916992,25 L24.2016602,32.5537109 L24.2016602,25 L25.4013672,25 L25.4013672,34.324707 L23.9858398,34.324707 L19.2060547,26.7773438 L19.2060547,34.324707 L18,34.324707 L18,25 L19.4916992,25 Z M31.222168,25 L31.4747765,25.0060655 C32.6357111,25.0626772 33.5459744,25.5155707 34.2055664,26.3647461 C34.8361003,27.1857096 35.1513672,28.2373047 35.1513672,29.5195312 C35.1513672,30.5097656 34.9651693,31.4047852 34.5927734,32.2045898 C33.936849,33.6180013 32.809082,34.324707 31.2094727,34.324707 L31.2094727,34.324707 L27.4453125,34.324707 L27.4453125,25 L31.222168,25 Z M40.9150391,25 L44.2983398,34.324707 L42.9145508,34.324707 L41.96875,31.5317383 L38.2807617,31.5317383 L37.2714844,34.324707 L35.9765625,34.324707 L39.4868164,25 L40.9150391,25 Z M30.9555664,26.0854492 L28.7148438,26.0854492 L28.7148438,33.2456055 L30.9682617,33.2456055 C31.3956706,33.2456055 31.7469076,33.2011719 32.0219727,33.1123047 C32.5128581,32.9472656 32.9148763,32.6298828 33.2280273,32.1601562 C33.4777018,31.7835286 33.6575521,31.3011068 33.7675781,30.7128906 C33.8310547,30.3616536 33.862793,30.0358073 33.862793,29.7353516 C33.862793,28.5800781 33.6332194,27.6829427 33.1740723,27.0439453 C32.7149251,26.4049479 31.9754232,26.0854492 30.9555664,26.0854492 L30.9555664,26.0854492 Z M40.1469727,26.3837891 L38.6425781,30.503418 L41.5625,30.503418 L40.1469727,26.3837891 Z"/>
  </g>
</svg>
