<svg xmlns="http://www.w3.org/2000/svg" width="28" height="28" viewBox="0 0 28 28">
  <defs>
    <linearGradient id="icon-15-2-a" x1="100%" x2="0%" y1="100%" y2="0%">
      <stop offset="0%" stop-color="#1E85E9"/>
      <stop offset="20.276%" stop-color="#8671F3"/>
      <stop offset="70.727%" stop-color="#C06CFD" stop-opacity=".99"/>
      <stop offset="100%" stop-color="#FFBEE8"/>
    </linearGradient>
  </defs>
  <path fill="url(#icon-15-2-a)" d="M556.634453,2411 L545.365547,2411 C544.826784,2411 544.390029,2411.43675 544.390029,2411.97552 L544.390029,2418.31774 C544.390029,2418.35766 544.357663,2418.39003 544.317737,2418.39003 L537.975518,2418.39003 C537.436754,2418.39003 537,2418.82678 537,2419.36555 L537,2430.63445 L537.005724,2430.74075 C537.058687,2431.22951 537.472672,2431.60997 537.975518,2431.60997 L544.38929,2431.60981 L544.390029,2438.02448 C544.390029,2438.56325 544.826784,2439 545.365547,2439 L556.634453,2439 L556.740746,2438.99428 C557.229509,2438.94131 557.609971,2438.52733 557.609971,2438.02448 L557.609806,2431.60981 L564.024482,2431.60997 C564.563246,2431.60997 565,2431.17322 565,2430.63445 L565,2419.36555 C565,2418.82681 564.563274,2418.39014 564.024623,2418.38997 L557.682313,2418.38927 C557.64241,2418.38925 557.609979,2418.35682 557.609971,2418.31683 L557.609971,2411.97552 C557.609971,2411.43675 557.173216,2411 556.634453,2411 Z M545.365547,2411.90323 L556.634453,2411.90323 C556.674379,2411.90323 556.706745,2411.93559 556.706745,2411.97552 L556.706745,2418.31692 C556.706853,2418.85566 557.143471,2419.29232 557.682122,2419.29249 L564.024432,2419.2932 C564.064335,2419.29321 564.096774,2419.32564 564.096774,2419.36564 L564.096774,2430.63445 C564.096774,2430.67438 564.064408,2430.70674 564.024482,2430.70674 L556.706745,2430.70674 L556.706745,2438.02448 C556.706745,2438.06441 556.674379,2438.09677 556.634453,2438.09677 L545.365547,2438.09677 C545.325621,2438.09677 545.293255,2438.06441 545.293255,2438.02448 L545.293255,2430.70674 L537.975518,2430.70674 C537.935592,2430.70674 537.903226,2430.67438 537.903226,2430.63445 L537.903226,2419.36555 C537.903226,2419.32562 537.935592,2419.29326 537.975518,2419.29326 L544.317737,2419.29326 C544.856501,2419.29326 545.293255,2418.8565 545.293255,2418.31774 L545.293255,2411.97552 C545.293255,2411.93559 545.325621,2411.90323 545.365547,2411.90323 Z" transform="translate(-537 -2411)"/>
</svg>
