<svg xmlns="http://www.w3.org/2000/svg" width="49" height="48" viewBox="0 0 49 48">
  <defs>
    <linearGradient id="icon-27-6-a" x1="100%" x2="0%" y1="98.65%" y2="1.35%">
      <stop offset="0%" stop-color="#1E85E9"/>
      <stop offset="20.276%" stop-color="#8671F3"/>
      <stop offset="70.727%" stop-color="#C06CFD" stop-opacity=".99"/>
      <stop offset="100%" stop-color="#FFBEE8"/>
    </linearGradient>
  </defs>
  <path fill="url(#icon-27-6-a)" d="M1120.5,4093 C1121.2797,4093 1121.92045,4093.59489 1121.99313,4094.35554 L1122,4094.5 L1122,4101 L1131.16134,4101 C1131.98976,4101 1132.66134,4101.67157 1132.66134,4102.5 L1132.66134,4114.5 C1132.66134,4115.32843 1131.98976,4116 1131.16134,4116 L1122,4116 L1122,4139.5 C1122,4140.2797 1121.40511,4140.92045 1120.64446,4140.99313 L1120.5,4141 L1096.5,4141 C1095.7203,4141 1095.07955,4140.40511 1095.00687,4139.64446 L1095,4139.5 L1095,4131 L1085.5,4131 C1084.7203,4131 1084.07955,4130.40511 1084.00687,4129.64446 L1084,4129.5 L1084,4117.5 C1084,4116.67157 1084.67157,4116 1085.5,4116 L1085.5,4116 L1095,4116 L1095,4094.5 C1095,4093.7203 1095.59489,4093.07955 1096.35554,4093.00687 L1096.5,4093 L1120.5,4093 Z M1121,4135 L1096,4135 L1096,4139.5 C1096,4139.74546 1096.17688,4139.94961 1096.41012,4139.99194 L1096.5,4140 L1120.5,4140 C1120.74546,4140 1120.94961,4139.82312 1120.99194,4139.58988 L1121,4139.5 L1121,4135 Z M1108.5,4136 C1109.32843,4136 1110,4136.67157 1110,4137.5 C1110,4138.32843 1109.32843,4139 1108.5,4139 C1107.67157,4139 1107,4138.32843 1107,4137.5 C1107,4136.67157 1107.67157,4136 1108.5,4136 Z M1108.5,4137 C1108.22386,4137 1108,4137.22386 1108,4137.5 C1108,4137.77614 1108.22386,4138 1108.5,4138 C1108.77614,4138 1109,4137.77614 1109,4137.5 C1109,4137.22386 1108.77614,4137 1108.5,4137 Z M1120.5,4094 L1096.5,4094 C1096.25454,4094 1096.05039,4094.17688 1096.00806,4094.41012 L1096,4094.5 L1096,4116 L1102.66134,4116 L1100,4118.81211 L1100,4129.5 C1100,4130.2797 1099.40511,4130.92045 1098.64446,4130.99313 L1098.64446,4130.99313 L1098.5,4131 L1096,4131 L1096,4134 L1121,4134 L1121,4116 L1118.16134,4116 L1118.01688,4115.99313 C1117.25622,4115.92045 1116.66134,4115.2797 1116.66134,4114.5 L1116.66134,4103.81211 L1114,4101 L1121,4101 L1121,4094.5 C1121,4094.25454 1120.82312,4094.05039 1120.58988,4094.00806 L1120.5,4094 Z M1100.338,4116.99911 L1085.5,4117 C1085.22386,4117 1085,4117.22386 1085,4117.5 L1085,4117.5 L1085,4129.5 C1085,4129.77614 1085.22386,4130 1085.5,4130 L1085.5,4130 L1095.21465,4129.99904 C1095.29557,4129.9427 1095.39393,4129.90967 1095.5,4129.90967 C1095.60607,4129.90967 1095.70443,4129.9427 1095.78535,4129.99904 L1098.5,4130 C1098.77614,4130 1099,4129.77614 1099,4129.5 L1099,4129.5 L1099,4118.41498 L1100.338,4116.99911 Z M1096.33008,4126 C1096.60622,4126 1096.83008,4126.22386 1096.83008,4126.5 C1096.83008,4126.74546 1096.6532,4126.94961 1096.41995,4126.99194 L1096.33008,4127 L1087.5,4127 C1087.22386,4127 1087,4126.77614 1087,4126.5 C1087,4126.25454 1087.17688,4126.05039 1087.41012,4126.00806 L1087.5,4126 L1096.33008,4126 Z M1096.33008,4123 C1096.60622,4123 1096.83008,4123.22386 1096.83008,4123.5 C1096.83008,4123.74546 1096.6532,4123.94961 1096.41995,4123.99194 L1096.33008,4124 L1087.5,4124 C1087.22386,4124 1087,4123.77614 1087,4123.5 C1087,4123.25454 1087.17688,4123.05039 1087.41012,4123.00806 L1087.5,4123 L1096.33008,4123 Z M1096.33008,4119.73389 C1096.60622,4119.73389 1096.83008,4119.95774 1096.83008,4120.23389 C1096.83008,4120.47935 1096.6532,4120.6835 1096.41995,4120.72583 L1096.33008,4120.73389 L1087.5,4120.73389 C1087.22386,4120.73389 1087,4120.51003 1087,4120.23389 C1087,4119.98843 1087.17688,4119.78428 1087.41012,4119.74194 L1087.5,4119.73389 L1096.33008,4119.73389 Z M1116.32334,4101.99911 L1117.66134,4103.41498 L1117.66134,4114.5 C1117.66134,4114.77614 1117.88519,4115 1118.16134,4115 L1131.16134,4115 C1131.43748,4115 1131.66134,4114.77614 1131.66134,4114.5 L1131.66134,4102.5 C1131.66134,4102.22386 1131.43748,4102 1131.16134,4102 L1121.7495,4102.00005 C1121.67607,4102.04241 1121.59087,4102.06665 1121.5,4102.06665 C1121.40913,4102.06665 1121.32393,4102.04241 1121.2505,4102.00005 L1116.32334,4101.99911 Z M1120.85949,4102.29197 L1128.14051,4108.35949 L1120.85949,4114.42701 L1120.85949,4102.29197 Z M1121.86038,4104.42649 L1121.86038,4112.29149 L1126.57938,4108.35949 L1121.86038,4104.42649 Z M1110.45557,4096.11011 C1110.73171,4096.11011 1110.95557,4096.33397 1110.95557,4096.61011 C1110.95557,4096.85557 1110.77869,4097.05972 1110.54544,4097.10205 L1110.45557,4097.11011 L1106.51562,4097.11011 C1106.23948,4097.11011 1106.01562,4096.88625 1106.01562,4096.61011 C1106.01562,4096.36465 1106.1925,4096.1605 1106.42575,4096.11816 L1106.51562,4096.11011 L1110.45557,4096.11011 Z" transform="translate(-1084 -4093)"/>
</svg>
