<svg xmlns="http://www.w3.org/2000/svg" width="76" height="55" viewBox="0 0 76 55">
  <defs>
    <linearGradient id="ico-documentation-5-a" x1="100%" x2="0%" y1="76.383%" y2="23.617%">
      <stop offset="0%" stop-color="#1E85E9"/>
      <stop offset="20.276%" stop-color="#8671F3"/>
      <stop offset="70.727%" stop-color="#C06CFD" stop-opacity=".99"/>
      <stop offset="100%" stop-color="#FFBEE8"/>
    </linearGradient>
  </defs>
  <path fill="url(#ico-documentation-5-a)" d="M1224.56425,3074.08585 L1224.63278,3074.13997 L1235.7039,3084.55984 C1235.90498,3084.7491 1235.91457,3085.06554 1235.72532,3085.26663 C1235.55709,3085.44537 1235.28837,3085.47281 1235.0895,3085.34377 L1235.01853,3085.28804 L1225,3075.85807 L1225,3126.98807 L1235.01853,3117.55984 L1235.0895,3117.50411 C1235.28837,3117.37508 1235.55709,3117.40252 1235.72532,3117.58126 C1235.89354,3117.76001 1235.90466,3118.02989 1235.76382,3118.22058 L1235.7039,3118.28804 L1224.63278,3128.70792 L1224.56425,3128.76204 C1224.39975,3128.87011 1224.18602,3128.87096 1224.02085,3128.76523 L1223.94277,3128.70349 L1213.15267,3118.28361 L1213.09362,3118.21539 C1212.97254,3118.04696 1212.96856,3117.81941 1213.08369,3117.64686 L1213.14033,3117.57661 L1213.20856,3117.51756 C1213.37698,3117.39648 1213.60454,3117.39251 1213.77708,3117.50764 L1213.84733,3117.56427 L1224.29446,3127.65374 L1224.461,3127.49607 L1224.41013,3127.49194 C1224.20603,3127.4549 1224.0451,3127.29397 1224.00806,3127.08988 L1224,3127 L1224,3075.47807 L1213.84733,3085.28361 C1213.67076,3085.45412 1213.40104,3085.4687 1213.20856,3085.33033 L1213.14033,3085.27127 C1212.96982,3085.0947 1212.95524,3084.82498 1213.09362,3084.6325 L1213.15267,3084.56427 L1223.94277,3074.1444 C1224.11341,3073.97962 1224.37234,3073.95977 1224.56425,3074.08585 Z M1262.5,3074 L1262.5,3128 L1240.5,3128 L1240.5,3074 L1262.5,3074 Z M1288.5,3074 L1288.5,3128 L1266.5,3128 L1266.5,3074 L1288.5,3074 Z M1261.5,3075 L1241.5,3075 L1241.5,3127 L1261.5,3127 L1261.5,3075 Z M1287.5,3075 L1267.5,3075 L1267.5,3127 L1287.5,3127 L1287.5,3075 Z" transform="translate(-1213 -3074)"/>
</svg>
