<svg xmlns="http://www.w3.org/2000/svg" width="39" height="39" viewBox="0 0 39 39">
  <defs>
    <linearGradient id="icon-22-4-a" x1="99.976%" x2=".024%" y1="100%" y2="0%">
      <stop offset="0%" stop-color="#1E85E9"/>
      <stop offset="20.276%" stop-color="#8671F3"/>
      <stop offset="70.727%" stop-color="#C06CFD" stop-opacity=".99"/>
      <stop offset="100%" stop-color="#FFBEE8"/>
    </linearGradient>
  </defs>
  <path fill="url(#icon-22-4-a)" d="M824.535649,3411 C824.781109,3411 824.985257,3411.17688 825.027593,3411.41012 L825.035649,3411.5 L825.035,3434.346 L834.165522,3426.12836 L834.237715,3426.07422 C834.439409,3425.94965 834.707447,3425.98307 834.871651,3426.16552 C835.056381,3426.37078 835.039742,3426.68692 834.834487,3426.87165 L834.834487,3426.87165 L824.976546,3435.7453 C824.892257,3435.90243 824.726431,3436.00928 824.535649,3436.00928 L824.445773,3436.00122 L824.445773,3436.00122 L824.410612,3435.99198 C824.321989,3435.97594 824.236829,3435.93583 824.165522,3435.87165 L824.165522,3435.87165 L814.165522,3426.87165 L814.104107,3426.80554 C813.959055,3426.61804 813.964153,3426.34797 814.128357,3426.16552 L814.128357,3426.16552 L814.194469,3426.10411 C814.381972,3425.95906 814.652038,3425.96415 814.834487,3426.12836 L814.834487,3426.12836 L824.035,3434.409 L824.035649,3411.5 C824.035649,3411.22386 824.259506,3411 824.535649,3411 Z M842.500004,3397 C842.626825,3397 842.742618,3397.04722 842.830764,3397.12503 L842.834487,3397.12835 L852.834487,3406.12835 C853.039742,3406.31308 853.056381,3406.62923 852.871651,3406.83448 C852.707447,3407.01693 852.439409,3407.05035 852.237715,3406.92578 L852.165522,3406.87165 L843,3398.621 L843.000004,3421.50928 C843.000004,3421.78542 842.776147,3422.00928 842.500004,3422.00928 C842.254544,3422.00928 842.050396,3421.8324 842.00806,3421.59915 L842.000004,3421.50928 L842,3398.621 L832.834487,3406.87165 C832.652038,3407.03585 832.381972,3407.04095 832.194469,3406.8959 L832.128357,3406.83448 C831.964153,3406.65203 831.959055,3406.38197 832.104107,3406.19446 L832.165522,3406.12835 L842.165522,3397.12835 C842.25739,3397.04722 842.373183,3397 842.500004,3397 Z" transform="translate(-814 -3397)"/>
</svg>
