<svg xmlns="http://www.w3.org/2000/svg" xmlns:xlink="http://www.w3.org/1999/xlink" width="62" height="62" viewBox="0 0 62 62">
  <defs>
    <linearGradient id="ico-audit-1-b" x1="100%" x2="0%" y1="100%" y2="0%">
      <stop offset="0%" stop-color="#FFBEE8"/>
      <stop offset="29.273%" stop-color="#C06CFD" stop-opacity=".99"/>
      <stop offset="79.724%" stop-color="#8671F3"/>
      <stop offset="100%" stop-color="#1E85E9"/>
    </linearGradient>
    <rect id="ico-audit-1-a" width="60" height="60" x="0" y="0" rx="4"/>
    <linearGradient id="ico-audit-1-c" x1="68.097%" x2="31.049%" y1="126.552%" y2="-2.01%">
      <stop offset="0%" stop-color="#1E85E9"/>
      <stop offset="20.276%" stop-color="#8671F3"/>
      <stop offset="70.727%" stop-color="#C06CFD" stop-opacity=".99"/>
      <stop offset="100%" stop-color="#FFBEE8"/>
    </linearGradient>
  </defs>
  <g fill="none" fill-rule="evenodd" transform="translate(1 1)">
    <g opacity=".062">
      <use fill="#FAFAFA" xlink:href="#ico-audit-1-a"/>
      <use fill="url(#ico-audit-1-b)" stroke="#000" stroke-opacity=".02" xlink:href="#ico-audit-1-a"/>
    </g>
    <path fill="url(#ico-audit-1-c)" fill-rule="nonzero" d="M16.7384615,0.324387145 L19.3995255,2.74260611 C25.1675567,7.98425486 27.406884,15.7340437 25.8502972,22.9099158 L27.4576817,23.4169112 C29.1693764,23.9560331 30.5104048,25.296337 31.0504516,27.0077402 L31.0504516,27.0077402 L33.2520712,33.9846519 C33.5013702,34.7746781 33.0630242,35.6172177 32.2729979,35.8665168 C31.9420357,35.9709545 31.5850993,35.9573989 31.2630116,35.82816 L31.2630116,35.82816 L21.8071598,32.0343295 C21.6174186,35.3104514 20.1526662,38.3974238 17.7057651,40.6201346 L17.7057651,40.6201346 L16.7371535,41.5 L15.7685419,40.6201346 C13.3002358,38.3779799 11.8283142,35.2531601 11.6618483,31.9310729 L2.06332997,35.818252 C1.74015813,35.9490972 1.38149991,35.9632781 1.04900616,35.8583571 C0.258979898,35.6090581 -0.179366139,34.7665185 0.069932884,33.9764922 L2.26897759,27.0077402 C2.80902437,25.296337 4.15005278,23.9560331 5.86174752,23.4169112 L7.61643565,22.8640276 C6.08065184,15.7065604 8.31588004,7.97833559 14.0773976,2.74260611 L14.0773976,2.74260611 L16.7384615,0.324387145 Z M20.817,31.8023871 L12.656,31.8023871 L12.6575099,31.8208591 C12.7838643,34.6651606 13.9540259,37.3612545 15.9382271,39.3948634 L16.1904754,39.6455769 L16.4409257,39.8799319 L16.737615,40.1495397 L17.0333813,39.8799319 C19.3246199,37.7986215 20.6803501,34.8940916 20.8168123,31.8204704 L20.8168123,31.8204704 L20.817,31.8023871 Z M25.636,23.891 L25.1839185,25.3864873 C24.7460725,26.83347 24.0846336,28.2030794 23.2235749,29.4456758 L23.2665978,29.3819507 C22.865377,30.0424105 22.4242881,30.6870636 21.9430527,31.312699 L22.118,31.0803871 L31.6354053,34.9000851 C31.6890865,34.9216249 31.7456719,34.9335245 31.802627,34.9356875 L31.8880202,34.9316176 L31.9720674,34.9128707 C32.2354094,34.829771 32.3815248,34.5489245 32.2984251,34.2855824 L32.2984251,34.2855824 L30.0968056,27.3086707 C29.6549491,25.9084318 28.5577441,24.8118194 27.1572665,24.3707197 L27.1572665,24.3707197 L25.636,23.891 Z M7.68806142,23.889 L6.16216269,24.3707197 C4.76168517,24.8118194 3.66448011,25.9084318 3.22262365,27.3086707 L1.02357894,34.2774227 C0.94047927,34.5407648 1.08659462,34.8216114 1.3499367,34.904711 L1.43437432,34.9235101 C1.51980502,34.9348907 1.60725168,34.924054 1.68804464,34.8913427 L11.1520614,31.059 L9.53894516,28.3985091 C8.93363302,27.3992961 8.45129682,26.3305912 8.10242729,25.2156385 L7.68806142,23.889 Z M16.738,1.675 L14.7499287,3.48267492 C6.99052269,10.5339684 5.94414233,22.3302455 12.2693295,30.6283791 L21.188,30.6273871 L22.4016304,28.8761082 C22.4112231,28.862265 22.4207891,28.8484048 22.4303286,28.8345278 C27.2948179,20.7969673 25.9699279,10.3085127 19.0049765,3.74001777 L19.0049765,3.74001777 L18.7269943,3.48267492 L16.738,1.675 Z" transform="translate(14 9)"/>
  </g>
</svg>
