<svg xmlns="http://www.w3.org/2000/svg" width="32" height="32" viewBox="0 0 32 32">
  <defs>
    <linearGradient id="ico-standarts-6-a" x1="100%" x2="0%" y1="100%" y2="0%">
      <stop offset="0%" stop-color="#1E85E9"/>
      <stop offset="20.276%" stop-color="#8671F3"/>
      <stop offset="70.727%" stop-color="#C06CFD" stop-opacity=".99"/>
      <stop offset="100%" stop-color="#FFBEE8"/>
    </linearGradient>
  </defs>
  <path fill="url(#ico-standarts-6-a)" d="M13.05,17.1 C13.7955844,17.1 14.4,17.7044156 14.4,18.45 L14.4,18.45 L14.4,30.15 C14.4,30.8955844 13.7955844,31.5 13.05,31.5 L13.05,31.5 L1.35,31.5 C0.604415588,31.5 0,30.8955844 0,30.15 L0,30.15 L0,18.45 C0,17.7044156 0.604415588,17.1 1.35,17.1 L1.35,17.1 Z M30.15,17.1 C30.8955844,17.1 31.5,17.7044156 31.5,18.45 L31.5,18.45 L31.5,30.15 C31.5,30.8955844 30.8955844,31.5 30.15,31.5 L30.15,31.5 L18.45,31.5 C17.7044156,31.5 17.1,30.8955844 17.1,30.15 L17.1,30.15 L17.1,18.45 C17.1,17.7044156 17.7044156,17.1 18.45,17.1 L18.45,17.1 Z M13.05,18 L1.35,18 C1.10147186,18 0.9,18.2014719 0.9,18.45 L0.9,18.45 L0.9,30.15 C0.9,30.3985281 1.10147186,30.6 1.35,30.6 L1.35,30.6 L13.05,30.6 C13.2985281,30.6 13.5,30.3985281 13.5,30.15 L13.5,30.15 L13.5,18.45 C13.5,18.2014719 13.2985281,18 13.05,18 L13.05,18 Z M30.15,18 L18.45,18 C18.2014719,18 18,18.2014719 18,18.45 L18,18.45 L18,30.15 C18,30.3985281 18.2014719,30.6 18.45,30.6 L18.45,30.6 L30.15,30.6 C30.3985281,30.6 30.6,30.3985281 30.6,30.15 L30.6,30.15 L30.6,18.45 C30.6,18.2014719 30.3985281,18 30.15,18 L30.15,18 Z M13.05,0 C13.7955844,0 14.4,0.604415588 14.4,1.35 L14.4,1.35 L14.4,13.05 C14.4,13.7955844 13.7955844,14.4 13.05,14.4 L13.05,14.4 L1.35,14.4 C0.604415588,14.4 0,13.7955844 0,13.05 L0,13.05 L0,1.35 C0,0.604415588 0.604415588,0 1.35,0 L1.35,0 Z M30.15,0 C30.8955844,0 31.5,0.604415588 31.5,1.35 L31.5,1.35 L31.5,13.05 C31.5,13.7955844 30.8955844,14.4 30.15,14.4 L30.15,14.4 L18.45,14.4 C17.7044156,14.4 17.1,13.7955844 17.1,13.05 L17.1,13.05 L17.1,1.35 C17.1,0.604415588 17.7044156,0 18.45,0 L18.45,0 Z M13.05,0.9 L1.35,0.9 C1.10147186,0.9 0.9,1.10147186 0.9,1.35 L0.9,1.35 L0.9,13.05 C0.9,13.2985281 1.10147186,13.5 1.35,13.5 L1.35,13.5 L13.05,13.5 C13.2985281,13.5 13.5,13.2985281 13.5,13.05 L13.5,13.05 L13.5,1.35 C13.5,1.10147186 13.2985281,0.9 13.05,0.9 L13.05,0.9 Z M30.15,0.9 L18.45,0.9 C18.2014719,0.9 18,1.10147186 18,1.35 L18,1.35 L18,13.05 C18,13.2985281 18.2014719,13.5 18.45,13.5 L18.45,13.5 L30.15,13.5 C30.3985281,13.5 30.6,13.2985281 30.6,13.05 L30.6,13.05 L30.6,1.35 C30.6,1.10147186 30.3985281,0.9 30.15,0.9 L30.15,0.9 Z"/>
</svg>
