<svg xmlns="http://www.w3.org/2000/svg" width="40" height="28" viewBox="0 0 40 28">
  <defs>
    <linearGradient id="icon-20-3-a" x1="100%" x2="0%" y1="74.528%" y2="25.472%">
      <stop offset="0%" stop-color="#1E85E9"/>
      <stop offset="20.276%" stop-color="#8671F3"/>
      <stop offset="70.727%" stop-color="#C06CFD" stop-opacity=".99"/>
      <stop offset="100%" stop-color="#FFBEE8"/>
    </linearGradient>
  </defs>
  <path fill="url(#icon-20-3-a)" d="M700.277636,3116.40712 C704.040571,3115.09028 708.158544,3117.07323 709.475387,3120.83616 C709.608203,3121.21569 709.709076,3121.60565 709.776953,3122.00198 L709.776953,3122.00198 L712.855363,3139.97656 C713.172224,3141.82668 711.929267,3143.58337 710.079141,3143.90023 C709.889622,3143.93269 709.697691,3143.94901 709.505413,3143.94901 C707.190206,3143.94901 705.026736,3142.79711 703.734242,3140.87627 L703.734242,3140.87627 L702.625249,3139.22814 C700.825305,3136.55315 697.81243,3134.94901 694.588244,3134.94901 L694.588244,3134.94901 L691.346813,3134.94901 C688.155435,3134.94901 685.178492,3136.55568 683.426915,3139.22343 L683.426915,3139.22343 L682.423906,3140.75107 C681.113451,3142.74696 678.886229,3143.94901 676.498577,3143.94901 C674.566366,3143.94901 673,3142.38264 673,3140.45043 C673,3140.2525 673.016796,3140.05493 673.050208,3139.85985 L673.050208,3139.85985 L676.108629,3122.00198 C676.781611,3118.07249 680.512647,3115.43258 684.442131,3116.10556 C684.838457,3116.17344 685.228418,3116.27431 685.607946,3116.40712 L685.607946,3116.40712 L691.456399,3118.4538 C692.418715,3118.79056 693.466867,3118.79056 694.429183,3118.4538 L694.429183,3118.4538 Z M708.450461,3120.94784 C707.236004,3117.84865 703.77592,3116.24236 700.607946,3117.351 L700.607946,3117.351 L694.759493,3119.39767 C693.583328,3119.80927 692.302254,3119.80927 691.126089,3119.39767 L691.126089,3119.39767 L685.277636,3117.351 C684.950686,3117.23658 684.614746,3117.14968 684.273324,3117.09121 C680.888199,3116.51146 677.674031,3118.78566 677.094278,3122.17079 L677.094278,3122.17079 L674.035857,3140.02865 C674.011995,3140.16798 674,3140.30908 674,3140.45043 C674,3141.83036 675.118651,3142.94901 676.498577,3142.94901 C678.549388,3142.94901 680.462402,3141.91654 681.587983,3140.20222 L681.587983,3140.20222 L682.590992,3138.67458 C684.527443,3135.72526 687.818594,3133.94901 691.346813,3133.94901 L691.346813,3133.94901 L694.588244,3133.94901 C698.145264,3133.94901 701.46916,3135.71874 703.454913,3138.66988 L703.454913,3138.66988 L704.563906,3140.31801 C705.670591,3141.96271 707.52304,3142.94901 709.505413,3142.94901 C709.641118,3142.94901 709.776577,3142.93749 709.910334,3142.91458 C711.216101,3142.69095 712.093345,3141.45113 711.869713,3140.14536 L711.869713,3140.14536 L708.791304,3122.17079 C708.73283,3121.82936 708.645931,3121.49342 708.531515,3121.16647 L708.531515,3121.16647 Z M701.442791,3121.94901 C703.65193,3121.94901 705.442791,3123.73987 705.442791,3125.94901 C705.442791,3128.15815 703.65193,3129.94901 701.442791,3129.94901 C699.233652,3129.94901 697.442791,3128.15815 697.442791,3125.94901 C697.442791,3123.73987 699.233652,3121.94901 701.442791,3121.94901 Z M684.442791,3121.94901 C684.688251,3121.94901 684.892399,3122.12588 684.934735,3122.35913 L684.942791,3122.44901 L684.942,3125.449 L687.442791,3125.44901 C687.718933,3125.44901 687.942791,3125.67287 687.942791,3125.94901 C687.942791,3126.19447 687.765916,3126.39862 687.532667,3126.44095 L687.442791,3126.44901 L684.942,3126.449 L684.942791,3128.94901 C684.942791,3129.22515 684.718933,3129.44901 684.442791,3129.44901 C684.197331,3129.44901 683.993183,3129.27213 683.950847,3129.03888 L683.942791,3128.94901 L683.942,3126.449 L681.442791,3126.44901 C681.166649,3126.44901 680.942791,3126.22515 680.942791,3125.94901 C680.942791,3125.70355 681.119666,3125.4994 681.352915,3125.45706 L681.442791,3125.44901 L683.942,3125.449 L683.942791,3122.44901 C683.942791,3122.17287 684.166649,3121.94901 684.442791,3121.94901 Z M701.442791,3122.94901 C699.785937,3122.94901 698.442791,3124.29215 698.442791,3125.94901 C698.442791,3127.60586 699.785937,3128.94901 701.442791,3128.94901 C703.099645,3128.94901 704.442791,3127.60586 704.442791,3125.94901 C704.442791,3124.29215 703.099645,3122.94901 701.442791,3122.94901 Z" transform="translate(-673 -3116)"/>
</svg>
