<?xml version="1.0" encoding="UTF-8"?>
<svg width="42px" height="34px" viewBox="0 0 42 34" version="1.1" xmlns="http://www.w3.org/2000/svg" xmlns:xlink="http://www.w3.org/1999/xlink">
    <title>icon-29-7</title>
    <defs>
        <linearGradient x1="100%" y1="82.7667414%" x2="0%" y2="17.2332586%" id="linearGradient-1">
            <stop stop-color="#1E85E9" offset="0%"></stop>
            <stop stop-color="#8671F3" offset="20.275549%"></stop>
            <stop stop-color="#C06CFD" stop-opacity="0.99" offset="70.7268792%"></stop>
            <stop stop-color="#FFBEE8" offset="100%"></stop>
        </linearGradient>
    </defs>
    <g id="Page-1" stroke="none" stroke-width="1" fill="none" fill-rule="evenodd">
        <g id="icons" transform="translate(-1233.000000, -4369.000000)" fill="url(#linearGradient-1)" fill-rule="nonzero">
            <path d="M1264.30129,4372.71439 L1264.57361,4372.94824 L1264.8383,4373.18607 L1264.784,4373.245 L1264.98006,4373.41924 C1267.17318,4375.42651 1268.78274,4377.96822 1269.64363,4380.78452 L1269.709,4381.01085 L1269.8466,4381.10469 C1273.00708,4383.3268 1274.91636,4386.87766 1274.99732,4390.68754 L1274.99962,4391.03458 C1274.94723,4397.61472 1269.53956,4402.88957 1262.84704,4402.99816 L1254,4402.99974 L1244.53928,4402.99974 C1242.30843,4403.00991 1240.10773,4402.3414 1238.18731,4401.09824 L1238.12008,4401.16354 L1237.77232,4400.89633 C1234.78369,4398.60003 1233.02271,4395.05404 1233.00022,4391.28696 C1232.97587,4387.20441 1234.95899,4383.57777 1238.02524,4381.34158 L1238.0171,4381.37022 C1238.68388,4378.88626 1239.93012,4376.51749 1241.57967,4374.62917 C1247.43581,4367.92459 1257.62628,4367.11178 1264.30129,4372.71439 Z M1243.909,4395.38261 L1238.9121,4400.37376 C1240.52359,4401.37413 1242.33537,4401.93733 1244.17747,4401.99494 L1244.537,4401.99974 L1253,4401.99885 L1253,4395.42485 L1244.53687,4395.425 C1244.32573,4395.42495 1244.11623,4395.41075 1243.909,4395.38261 Z M1264.334,4374.18385 L1259.933,4378.48885 L1259.97835,4378.52974 C1261.89244,4380.27564 1263.00161,4382.71526 1263.03805,4385.27806 L1263.037,4386.00085 L1263.18832,4386.01705 C1265.6044,4386.32118 1267.49038,4388.29514 1267.59618,4390.72423 L1267.60087,4390.93971 C1267.60087,4393.60371 1265.45696,4395.73812 1262.75733,4395.84862 L1262.53725,4395.85311 L1254,4395.853 L1254,4401.999 L1262.54106,4401.9995 C1268.8336,4402.04744 1273.9509,4397.14944 1273.99966,4391.02663 C1274.02828,4387.42286 1272.26688,4384.03629 1269.28703,4381.93371 L1269.00411,4381.74038 L1268.84821,4381.63725 L1268.7982,4381.45714 C1268.05872,4378.79372 1266.61104,4376.37454 1264.6086,4374.44232 L1264.334,4374.18385 Z M1245.157,4379.99885 L1244.86844,4380.00524 C1238.8038,4380.19495 1233.96383,4385.18446 1234.0002,4391.281 C1234.01933,4394.48494 1235.40828,4397.51476 1237.79426,4399.61962 L1237.81165,4399.59717 L1238.071,4399.797 L1242.478,4395.39485 L1242.33357,4395.30075 C1240.42411,4393.99821 1239.63158,4391.51338 1240.51154,4389.31586 L1240.59895,4389.11073 C1241.73759,4386.59256 1244.70387,4385.47351 1247.22401,4386.61102 C1248.09659,4387.00485 1248.83273,4387.63792 1249.35157,4388.42941 L1249.389,4388.48985 L1253.829,4384.05385 L1253.67625,4383.87212 C1251.61845,4381.49574 1248.64994,4380.08752 1245.49558,4380.00374 L1245.157,4379.99885 Z M1248.36679,4379.3119 L1248.27841,4379.39452 C1250.77194,4380.04432 1253.02132,4381.47289 1254.67575,4383.50772 L1254.897,4383.7881 L1255.16341,4384.13606 L1249.11254,4390.18118 L1248.81479,4389.52276 C1248.41324,4388.63484 1247.7014,4387.92362 1246.81262,4387.52249 C1244.79548,4386.61201 1242.42127,4387.5077 1241.51012,4389.52276 C1240.72183,4391.26586 1241.28626,4393.27573 1242.75889,4394.37574 L1242.91644,4394.04951 C1243.35884,4394.26292 1243.8221,4394.38625 1244.29802,4394.41722 L1244.537,4394.425 L1254,4394.425 L1254,4394.853 L1262.53725,4394.85311 C1264.79551,4394.85311 1266.60087,4393.11478 1266.60087,4390.93971 C1266.60087,4388.81967 1264.89233,4387.08445 1262.74027,4386.98124 L1262.53725,4386.97638 L1262.03725,4386.97638 L1262.03773,4385.27958 C1261.99804,4382.90922 1260.93536,4380.66338 1259.1113,4379.09765 L1258.87935,4378.90551 L1258.43784,4378.55266 L1258.5273,4378.46497 C1255.37797,4376.38884 1251.18396,4376.7429 1248.36679,4379.3119 Z M1242.3328,4375.28703 C1241.03366,4376.77423 1239.99764,4378.58562 1239.32709,4380.512 C1240.9726,4379.6056 1242.84852,4379.0664 1244.8462,4379.00544 L1245.15217,4378.99971 C1245.81399,4378.99738 1246.46935,4379.04863 1247.11271,4379.15074 L1247.03207,4379.23801 C1250.20699,4375.71453 1255.45174,4375.1123 1259.25607,4377.7506 L1263.63956,4373.46459 C1257.38136,4368.23015 1247.82587,4368.99814 1242.3328,4375.28703 Z" id="icon-29-7"></path>
        </g>
    </g>
</svg>