<svg xmlns="http://www.w3.org/2000/svg" width="40" height="40" viewBox="0 0 40 40">
  <defs>
    <linearGradient id="icon-18-2-a" x1="100%" x2="0%" y1="100%" y2="0%">
      <stop offset="0%" stop-color="#1E85E9"/>
      <stop offset="20.276%" stop-color="#8671F3"/>
      <stop offset="70.727%" stop-color="#C06CFD" stop-opacity=".99"/>
      <stop offset="100%" stop-color="#FFBEE8"/>
    </linearGradient>
  </defs>
  <path fill="url(#icon-18-2-a)" d="M555.115007,2835 L555.115007,2838.60741 C555.11506,2838.68372 555.168369,2838.74965 555.243187,2838.76572 C556.779998,2839.09645 558.243502,2839.70502 559.559278,2840.55992 C559.607275,2840.59073 559.666504,2840.5934 559.715539,2840.57047 L559.760383,2840.53911 L562.31604,2837.98345 L566.013266,2841.68155 L563.460795,2844.23972 C563.406785,2844.2937 563.397808,2844.37807 563.438544,2844.44112 C564.294875,2845.75935 564.903421,2847.2228 565.234324,2848.7598 C565.247144,2848.81949 565.291901,2848.86554 565.348173,2848.8816 L565.392216,2848.88777 L569,2848.88777 L569,2854.11501 L565.392589,2854.11501 C565.316276,2854.11506 565.250349,2854.16837 565.23427,2854.24323 C564.903421,2855.77997 564.294875,2857.24343 563.440083,2858.55928 C563.409267,2858.60728 563.406604,2858.6665 563.429531,2858.71554 L563.460893,2858.76038 L566.016551,2861.31604 L562.318454,2865.01327 L559.760284,2862.46079 C559.706302,2862.40678 559.621933,2862.39781 559.558922,2862.43852 C558.240725,2863.29498 556.777221,2863.90355 555.240203,2864.23432 C555.180514,2864.24714 555.134459,2864.2919 555.118397,2864.34817 L555.11223,2864.39222 L555.11223,2868 L549.884993,2868 L549.884993,2864.39259 C549.88494,2864.31628 549.831631,2864.25035 549.756843,2864.23429 C548.220167,2863.90368 546.756829,2863.29508 545.441093,2862.43988 C545.393069,2862.40899 545.333777,2862.40632 545.284638,2862.42934 L545.239677,2862.46083 L542.684936,2865.01639 L538.983556,2861.3185 L541.538511,2858.76028 C541.592521,2858.7063 541.601498,2858.62193 541.560622,2858.55867 C540.705603,2857.24106 540.097428,2855.77889 539.765676,2854.24298 C539.752856,2854.18329 539.708099,2854.13724 539.651827,2854.12117 L539.607784,2854.11501 L536,2854.11501 L536,2848.88499 L539.607411,2848.88499 C539.683724,2848.88494 539.749651,2848.83163 539.765767,2848.7566 C540.097056,2847.22028 540.705242,2845.7571 541.559222,2844.44072 C541.590039,2844.39272 541.592702,2844.3335 541.569648,2844.28433 L541.538113,2844.23932 L538.983749,2841.68088 L542.681786,2837.98372 L545.239925,2840.53941 C545.293931,2840.59351 545.378403,2840.60249 545.441693,2840.56153 C546.759606,2839.70492 548.222944,2839.09632 549.757668,2838.76614 C549.817151,2838.75311 549.862957,2838.70835 549.878894,2838.65195 L549.884993,2838.60778 L549.884993,2835 L555.115007,2835 Z M554.049935,2836.06452 L550.949,2836.06452 L550.949509,2838.6077 C550.94959,2839.09535 550.662379,2839.52739 550.231761,2839.72376 L550.110872,2839.77134 L549.983521,2839.80642 C548.573622,2840.10975 547.231011,2840.66814 546.020944,2841.45465 C545.572438,2841.74491 544.992977,2841.7093 544.585249,2841.38034 L544.48707,2841.29201 L542.681968,2839.488 L540.488,2841.6809 L542.291874,2843.48763 C542.630515,2843.82759 542.734078,2844.32573 542.57837,2844.76396 L542.523855,2844.89341 L542.453638,2845.01796 C541.66861,2846.22807 541.11042,2847.57097 540.806455,2848.98057 C540.694451,2849.50203 540.260516,2849.88605 539.73967,2849.94237 L539.607784,2849.94951 L537.064516,2849.949 L537.064516,2853.04994 L539.608157,2853.05049 C540.097066,2853.05083 540.529669,2853.33987 540.724637,2853.77067 L540.771782,2853.89157 L540.806326,2854.01883 C541.110688,2855.42793 541.668867,2856.7699 542.454166,2857.98007 C542.743805,2858.42833 542.708171,2859.00712 542.379604,2859.41471 L542.291379,2859.51287 L540.488,2861.31697 L542.683032,2863.51094 L544.487418,2861.70764 C544.827544,2861.36847 545.32624,2861.26479 545.764846,2861.42089 L545.894407,2861.47554 L546.01905,2861.54592 C547.228234,2862.33186 548.570845,2862.89025 549.980568,2863.19354 C550.502029,2863.30555 550.886054,2863.73948 550.942368,2864.26033 L550.949509,2864.39222 L550.949,2866.93548 L554.046742,2866.93548 L554.047714,2864.39184 C554.048057,2863.90293 554.337092,2863.47033 554.768133,2863.27531 L554.8891,2863.22815 L555.016448,2863.19359 C556.426566,2862.89012 557.769421,2862.33173 558.980073,2861.54514 C559.428334,2861.2555 560.007118,2861.29113 560.414571,2861.61956 L560.512689,2861.70775 L562.318032,2863.50774 L564.510935,2861.3159 L562.707432,2859.51237 C562.368791,2859.17241 562.265227,2858.67427 562.421039,2858.23588 L562.475589,2858.10637 L562.545846,2857.98176 C563.331613,2856.77215 563.890013,2855.42929 564.193545,2854.01943 C564.305549,2853.49797 564.739484,2853.11395 565.26033,2853.05763 L565.392216,2853.05049 L567.935484,2853.04994 L567.935484,2849.95219 L565.391843,2849.95229 C564.902934,2849.95194 564.470331,2849.66291 564.275317,2849.23189 L564.228159,2849.11093 L564.193598,2848.98359 C563.890013,2847.57348 563.331613,2846.23062 562.54514,2845.01993 C562.2555,2844.57167 562.291134,2843.99288 562.61956,2843.58543 L562.707747,2843.48731 L564.507742,2841.6809 L562.315903,2839.48906 L560.512373,2841.29257 C560.172406,2841.63121 559.67427,2841.73477 559.23586,2841.57895 L559.106346,2841.52439 L558.981724,2841.45413 C557.772198,2840.66827 556.429343,2840.10988 555.019432,2839.80646 C554.497971,2839.69445 554.113946,2839.26052 554.057632,2838.73967 L554.050491,2838.60778 L554.049935,2836.06452 Z M548.115007,2828 L548.115007,2831.60741 C548.11506,2831.68372 548.168369,2831.74965 548.243187,2831.76572 C549.779998,2832.09645 551.243502,2832.70502 552.559278,2833.55992 C552.607275,2833.59073 552.666504,2833.5934 552.715539,2833.57047 L552.760383,2833.53911 L555.31604,2830.98345 L559.013266,2834.68155 L556.460795,2837.23972 C556.406785,2837.2937 556.397808,2837.37807 556.438544,2837.44112 C556.728188,2837.88699 556.989485,2838.34948 557.221278,2838.82582 C556.750085,2838.64914 556.269847,2838.49983 555.781704,2838.37771 L555.76575,2838.37293 C555.716933,2838.29168 555.667118,2838.21098 555.616314,2838.13083 L555.614888,2836.59126 C555.616439,2836.58931 555.617996,2836.58737 555.61956,2836.58543 L555.707747,2836.48731 L557.507742,2834.6809 L555.315903,2832.48906 L553.512373,2834.29257 C553.427381,2834.37723 553.332504,2834.4472 553.231146,2834.50209 L552.063,2834.5 L551.981724,2834.45413 C550.772198,2833.66827 549.429343,2833.10988 548.019432,2832.80646 C547.497971,2832.69445 547.113946,2832.26052 547.057632,2831.73967 L547.050491,2831.60778 L547.049935,2829.06452 L543.949,2829.06452 L543.949509,2831.6077 C543.94959,2832.09535 543.662379,2832.52739 543.231761,2832.72376 L543.110872,2832.77134 L542.983521,2832.80642 C541.573622,2833.10975 540.231011,2833.66814 539.020944,2834.45465 C538.572438,2834.74491 537.992977,2834.7093 537.585249,2834.38034 L537.48707,2834.29201 L535.681968,2832.488 L533.488,2834.6809 L535.291874,2836.48763 C535.630515,2836.82759 535.734078,2837.32573 535.57837,2837.76396 L535.523855,2837.89341 L535.453638,2838.01796 C534.66861,2839.22807 534.11042,2840.57097 533.806455,2841.98057 C533.694451,2842.50203 533.260516,2842.88605 532.73967,2842.94237 L532.607784,2842.94951 L530.064516,2842.949 L530.064516,2846.04994 L532.608157,2846.05049 C533.097066,2846.05083 533.529669,2846.33987 533.724637,2846.77067 L533.771782,2846.89157 L533.806326,2847.01883 C534.110688,2848.42793 534.668867,2849.7699 535.454166,2850.98007 L535.5,2851.061 L535.501682,2852.23173 C535.466949,2852.2956 535.426225,2852.35688 535.379604,2852.41471 L535.291379,2852.51287 L533.488,2854.31697 L535.683032,2856.51094 L537.487418,2854.70764 L537.59,2854.615 L539.131,2854.615 L539.374,2854.767 L539.377916,2854.7812 C539.500671,2855.27058 539.650653,2855.75195 539.826959,2856.22314 C539.350464,2855.99156 538.887291,2855.7299 538.441093,2855.43988 C538.393069,2855.40899 538.333777,2855.40632 538.284638,2855.42934 L538.239677,2855.46083 L535.684936,2858.01639 L531.983556,2854.3185 L534.538511,2851.76028 C534.592521,2851.7063 534.601498,2851.62193 534.560622,2851.55867 C533.705603,2850.24106 533.097428,2848.77889 532.765676,2847.24298 C532.752856,2847.18329 532.708099,2847.13724 532.651827,2847.12117 L532.607784,2847.11501 L529,2847.11501 L529,2841.88499 L532.607411,2841.88499 C532.683724,2841.88494 532.749651,2841.83163 532.765767,2841.7566 C533.097056,2840.22028 533.705242,2838.7571 534.559222,2837.44072 C534.590039,2837.39272 534.592702,2837.3335 534.569648,2837.28433 L534.538113,2837.23932 L531.983749,2834.68088 L535.681786,2830.98372 L538.239925,2833.53941 C538.293931,2833.59351 538.378403,2833.60249 538.441693,2833.56153 C539.759606,2832.70492 541.222944,2832.09632 542.757668,2831.76614 C542.817151,2831.75311 542.862957,2831.70835 542.878894,2831.65195 L542.884993,2831.60778 L542.884993,2828 L548.115007,2828 Z M552.5,2845.1129 C556.027496,2845.1129 558.887097,2847.9725 558.887097,2851.50064 C558.883186,2855.02616 556.026163,2857.88319 552.5,2857.8871 C548.972504,2857.8871 546.112903,2855.0275 546.112903,2851.5 C546.112903,2847.9725 548.972504,2845.1129 552.5,2845.1129 Z M552.5,2846.17742 C549.56042,2846.17742 547.177419,2848.56042 547.177419,2851.5 C547.177419,2854.43958 549.56042,2856.82258 552.499344,2856.82258 C555.437935,2856.81932 557.819321,2854.43794 557.822581,2851.5 C557.822581,2848.56042 555.43958,2846.17742 552.5,2846.17742 Z M539.353193,2842.75854 L540.244512,2843.65256 C540.200359,2843.92853 540.177419,2844.21159 540.177419,2844.5 C540.177419,2844.89727 540.220943,2845.28437 540.30348,2845.6568 C540.069441,2846.14372 539.864501,2846.64523 539.690282,2847.15789 C539.319775,2846.34924 539.112903,2845.44878 539.112903,2844.5 C539.112903,2843.89629 539.196662,2843.31214 539.353193,2842.75854 Z M545.5,2838.1129 C546.449169,2838.1129 547.34998,2838.31995 548.159736,2838.69134 C547.646931,2838.86448 547.145697,2839.06954 546.658169,2839.30435 C546.285757,2839.2211 545.897979,2839.17742 545.5,2839.17742 C545.211242,2839.17742 544.927854,2839.20041 544.651568,2839.24467 L543.758542,2838.35319 C544.312141,2838.19666 544.896289,2838.1129 545.5,2838.1129 Z" transform="translate(-529 -2828)"/>
</svg>
