<svg xmlns="http://www.w3.org/2000/svg" width="43" height="43" viewBox="0 0 43 43">
  <defs>
    <linearGradient id="icon-20-9-a" x1="100%" x2="0%" y1="100%" y2="0%">
      <stop offset="0%" stop-color="#1E85E9"/>
      <stop offset="20.276%" stop-color="#8671F3"/>
      <stop offset="70.727%" stop-color="#C06CFD" stop-opacity=".99"/>
      <stop offset="100%" stop-color="#FFBEE8"/>
    </linearGradient>
  </defs>
  <path fill="url(#icon-20-9-a)" d="M1536.13589,3110.67071 L1536.67438,3111.20683 L1537.65222,3112.12641 L1537.95995,3112.11183 L1539.07151,3112.11246 L1539.3635,3112.12741 L1540.34341,3111.21252 C1540.41648,3111.14485 1540.49736,3111.06585 1540.58939,3110.9725 L1540.68527,3110.87425 C1542.23086,3109.32022 1543.36138,3108.66939 1544.84879,3109.20276 L1545.03663,3109.27562 L1548.94683,3110.90388 C1550.47037,3111.53852 1550.85429,3112.72014 1550.86564,3114.85372 L1550.86507,3115.59158 L1550.90789,3116.93661 L1551.14073,3117.15352 L1551.68328,3117.69194 L1551.90914,3117.92317 L1552.10269,3118.14065 L1553.4327,3118.18834 L1554.38583,3118.19138 C1554.85698,3118.19905 1555.17782,3118.22324 1555.55538,3118.2857 C1556.70516,3118.47589 1557.56771,3118.98128 1558.03841,3119.9293 L1558.1273,3120.12484 L1559.74703,3124.03247 C1560.37603,3125.55651 1559.80607,3126.68163 1558.32626,3128.16577 L1557.92278,3128.566 L1557.79721,3128.69634 L1556.85991,3129.7065 L1556.85892,3131.24669 L1556.85192,3131.41015 L1557.83124,3132.46157 L1558.42932,3133.0618 C1558.51912,3133.15447 1558.59552,3133.23618 1558.68041,3133.33008 C1559.73778,3134.49973 1560.19989,3135.62879 1559.764,3136.8647 L1559.69185,3137.0509 L1558.06407,3140.95771 C1557.42982,3142.48108 1556.23711,3142.86954 1554.11396,3142.88118 L1553.37757,3142.88063 L1552.04675,3142.92304 L1551.85011,3143.15589 L1551.31635,3143.69791 C1551.25814,3143.75956 1551.20331,3143.81503 1551.14924,3143.86662 L1550.90695,3144.08912 L1550.84096,3144.14608 L1550.79401,3145.4699 L1550.79401,3145.97768 C1550.79401,3146.72091 1550.77646,3147.11698 1550.69401,3147.60749 C1550.50143,3148.75318 1549.99494,3149.61392 1549.04873,3150.08513 L1548.85359,3150.17415 L1544.97501,3151.78048 C1544.62783,3151.92621 1544.25496,3152.00081 1543.8797,3152 C1542.76443,3152 1541.97809,3151.50088 1540.85128,3150.39034 L1540.35154,3149.89246 L1539.29357,3148.89432 L1537.61925,3148.89432 L1536.53555,3149.90484 L1535.98016,3150.45923 C1535.87053,3150.56646 1535.78044,3150.65126 1535.67352,3150.74808 C1534.50515,3151.80609 1533.37759,3152.26802 1532.13964,3151.83219 L1531.9531,3151.76005 L1528.04291,3150.13179 C1526.9712,3149.68536 1526.41232,3148.78637 1526.21276,3147.56237 C1526.15113,3147.18435 1526.12771,3146.86074 1526.12161,3146.39063 L1526.12042,3145.44274 L1526.07985,3144.10511 L1525.98045,3144.02594 L1525.606,3143.66369 L1525.31312,3143.37104 L1525.20239,3143.2637 L1525.08863,3143.14567 L1524.85708,3142.88507 L1523.54026,3142.83893 L1522.79395,3142.83822 C1522.1997,3142.83428 1521.8403,3142.81249 1521.40657,3142.7399 C1520.25995,3142.54801 1519.3993,3142.04114 1518.92995,3141.09338 L1518.84132,3140.89791 L1517.23012,3137.00319 C1516.68431,3135.68071 1517.14256,3134.494 1518.25447,3133.27673 C1518.44054,3133.07303 1518.75648,3133.05877 1518.96015,3133.24488 C1519.16381,3133.431 1519.17806,3133.74701 1518.99199,3133.95071 C1518.1647,3134.85639 1517.8314,3135.64678 1518.09661,3136.4673 L1518.15337,3136.62154 L1519.7644,3140.51584 C1520.05811,3141.22566 1520.65712,3141.60138 1521.57143,3141.75439 L1521.84422,3141.79328 C1522.07104,3141.81971 1522.30564,3141.83208 1522.61573,3141.83699 L1523.55784,3141.84003 L1525.31947,3141.90211 L1525.82617,3142.47184 L1525.94169,3142.58974 L1526.00796,3142.6533 L1526.62638,3143.26523 L1526.76139,3143.37053 L1527.06641,3143.63974 L1527.1192,3145.42794 L1527.11897,3146.16593 C1527.12049,3146.71044 1527.1386,3147.03269 1527.19873,3147.40155 C1527.33717,3148.25067 1527.66813,3148.82778 1528.28056,3149.1416 L1528.42692,3149.20935 L1532.33898,3150.83839 C1533.15458,3151.182 1533.93546,3150.92083 1534.83329,3150.15653 L1535.00304,3150.00735 C1535.10028,3149.9193 1535.18334,3149.84107 1535.28665,3149.73995 L1535.88096,3149.14806 L1537.2265,3147.89525 L1539.68934,3147.89525 L1541.12453,3149.25141 L1541.34451,3149.47066 C1542.40327,3150.54335 1543.06381,3151.00065 1543.88096,3151.00065 C1544.06315,3151.00111 1544.24401,3150.97416 1544.41848,3150.9206 L1544.59063,3150.8582 L1548.47046,3149.25134 C1549.17917,3148.95612 1549.55517,3148.35603 1549.70884,3147.44183 C1549.7636,3147.11607 1549.78531,3146.82833 1549.79225,3146.3922 L1549.79502,3145.97768 L1549.79533,3145.45236 L1549.8572,3143.69094 L1550.1268,3143.44315 L1550.24227,3143.3433 L1550.4604,3143.14285 L1551.11244,3142.4832 L1551.57048,3141.93952 L1553.36138,3141.88169 L1553.86851,3141.8817 C1555.6784,3141.89506 1556.61907,3141.65085 1557.08173,3140.7066 L1557.14189,3140.57346 L1558.77063,3136.66437 C1559.13537,3135.80041 1558.81736,3134.97141 1557.93941,3134.00024 L1557.78826,3133.83683 C1557.72672,3133.77189 1557.66102,3133.70445 1557.5809,3133.62367 L1557.39843,3133.44109 L1557.39843,3133.44109 L1557.13753,3133.18151 L1555.79944,3131.74489 L1555.83873,3131.50347 C1555.85433,3131.40762 1555.85982,3131.31736 1555.86122,3131.13701 L1555.86161,3129.31469 L1557.21104,3127.8648 L1557.43479,3127.64209 C1558.7179,3126.39175 1559.21471,3125.55083 1558.87773,3124.55746 L1558.82391,3124.41445 L1557.20453,3120.50766 C1556.91012,3119.79797 1556.30977,3119.42326 1555.39238,3119.27152 C1555.02363,3119.21052 1554.70428,3119.19162 1554.15686,3119.18817 L1553.41525,3119.18725 L1551.64043,3119.12521 L1551.17968,3118.60546 L1550.97339,3118.39496 L1550.44682,3117.87234 L1550.08203,3117.53597 L1549.92383,3117.39355 L1549.86634,3115.60773 L1549.86656,3114.85762 C1549.85639,3113.19561 1549.5965,3112.32726 1548.69587,3111.88642 L1548.56281,3111.82631 L1544.65261,3110.19805 C1543.59711,3109.75838 1542.72815,3110.23703 1541.39854,3111.57383 C1541.30527,3111.67033 1541.21921,3111.75701 1541.13921,3111.83462 L1539.73626,3113.14616 L1539.04657,3113.11104 L1537.98532,3113.1104 L1537.27767,3113.14639 L1535.88881,3111.83644 L1535.26578,3111.2178 C1534.19515,3110.19148 1533.42747,3109.81814 1532.52796,3110.12421 L1532.38477,3110.17818 L1528.46415,3111.78457 C1527.75604,3112.07847 1527.38146,3112.67721 1527.22914,3113.59122 L1527.19051,3113.8634 C1527.159,3114.13498 1527.14761,3114.41777 1527.145,3114.82871 L1527.14406,3115.57491 L1527.08236,3117.33165 L1526.524,3117.862 L1526.25594,3118.12995 L1525.98872,3118.3933 L1525.72325,3118.66855 L1525.38776,3119.06978 L1523.57801,3119.13719 L1522.8334,3119.13692 C1522.29411,3119.13833 1521.97657,3119.1558 1521.61273,3119.21403 C1520.76155,3119.35025 1520.18428,3119.67987 1519.8697,3120.29419 L1519.80177,3120.44105 L1518.17451,3124.3508 C1517.82453,3125.19879 1518.11419,3126.01916 1518.92079,3126.94577 C1519.10194,3127.15387 1519.08013,3127.46944 1518.87208,3127.65063 C1518.66402,3127.83182 1518.34851,3127.81 1518.16736,3127.60191 C1517.19033,3126.47951 1516.76725,3125.36352 1517.17958,3124.15908 L1517.25167,3123.96815 L1518.87952,3120.05697 C1519.32732,3118.98143 1520.22766,3118.42378 1521.45489,3118.22737 C1521.82758,3118.16773 1522.14631,3118.1451 1522.61126,3118.13926 L1523.55933,3118.13833 L1524.90703,3118.0867 L1524.97569,3118.00634 L1525.24249,3117.7275 C1525.28583,3117.68322 1525.32861,3117.64003 1525.37086,3117.59792 L1525.55747,3117.41565 L1525.82675,3117.14653 L1526.09784,3116.88764 L1526.14538,3115.55737 L1526.14844,3114.59928 C1526.1562,3114.12733 1526.18065,3113.80555 1526.24374,3113.42694 C1526.43477,3112.28063 1526.9402,3111.42017 1527.88789,3110.94967 L1528.08336,3110.8608 L1532.00482,3109.25407 C1533.52794,3108.62513 1534.64306,3109.18858 1536.13589,3110.67071 Z M1538.48838,3118.02674 C1545.385,3118.02674 1550.97582,3123.61876 1550.97582,3130.51686 C1550.97582,3137.41496 1545.385,3143.00698 1538.48838,3143.00698 C1532.89599,3143.00698 1528.03075,3139.29768 1526.49463,3134.00531 C1526.41772,3133.74032 1526.57014,3133.46315 1526.83506,3133.38622 C1527.09999,3133.30929 1527.3771,3133.46174 1527.45402,3133.72673 C1528.86702,3138.59494 1533.3434,3142.00777 1538.48838,3142.00777 C1544.83327,3142.00777 1549.97683,3136.86311 1549.97683,3130.51686 C1549.97683,3124.17061 1544.83327,3119.02595 1538.48838,3119.02595 C1533.5254,3119.02595 1529.17023,3122.20256 1527.60398,3126.82971 C1527.51551,3127.09107 1527.23198,3127.2312 1526.97068,3127.14272 C1526.70939,3127.05423 1526.56928,3126.77064 1526.65774,3126.50929 C1528.36033,3121.47937 1533.09391,3118.02674 1538.48838,3118.02674 Z M1535.77472,3123.1129 L1535.84392,3123.17069 L1542.83838,3130.16366 C1543.01181,3130.33705 1543.03108,3130.60621 1542.89619,3130.80088 L1542.83838,3130.87006 L1535.84392,3137.86303 C1535.64881,3138.05809 1535.33248,3138.05809 1535.13737,3137.86303 C1534.96394,3137.68964 1534.94467,3137.42048 1535.07956,3137.22581 L1535.13737,3137.15663 L1541.277,3131.017 L1517.50947,3131.01726 C1517.2336,3131.01726 1517.00997,3130.7934 1517.00997,3130.51726 C1517.00997,3130.2718 1517.18667,3130.06765 1517.41968,3130.02531 L1517.50947,3130.01726 L1541.279,3130.017 L1535.13737,3123.87709 C1534.96394,3123.7037 1534.94467,3123.43454 1535.07956,3123.23987 L1535.13737,3123.17069 C1535.3108,3122.9973 1535.58001,3122.97803 1535.77472,3123.1129 Z" transform="translate(-1517 -3109)"/>
</svg>
