<svg xmlns="http://www.w3.org/2000/svg" width="49" height="22" viewBox="0 0 49 22">
  <defs>
    <linearGradient id="icon-20-1-a" x1="100%" x2="0%" y1="60.079%" y2="39.921%">
      <stop offset="0%" stop-color="#1E85E9"/>
      <stop offset="20.276%" stop-color="#8671F3"/>
      <stop offset="70.727%" stop-color="#C06CFD" stop-opacity=".99"/>
      <stop offset="100%" stop-color="#FFBEE8"/>
    </linearGradient>
  </defs>
  <path fill="url(#icon-20-1-a)" d="M428.000034,3119 C434.075166,3119 439.000034,3123.92487 439.000034,3130 C439.000034,3136.07513 434.075166,3141 428.000034,3141 C424.467194,3141 420.531976,3138.29972 416.150144,3132.95108 C415.975145,3132.73747 416.006446,3132.42244 416.220058,3132.24744 C416.433669,3132.07244 416.7487,3132.10374 416.9237,3132.31735 C421.133839,3137.45642 424.840697,3140 428.000034,3140 C433.522881,3140 438.000034,3135.52285 438.000034,3130 C438.000034,3124.47715 433.522881,3120 428.000034,3120 C424.339359,3120 419.951175,3123.41303 414.903218,3130.29571 L414.903184,3130.29571 C409.683128,3137.41303 405.071311,3141 401,3141 C394.924868,3141 390,3136.07513 390,3130 C390,3123.92487 394.924868,3119 401,3119 C404.019867,3119 407.332624,3120.97311 410.965251,3124.88242 L410.56036,3122.47821 C410.519729,3122.23614 410.66037,3122.00553 410.883394,3121.92516 L410.970696,3121.90234 C411.212769,3121.86171 411.44338,3122.00235 411.523743,3122.22537 L411.546564,3122.31268 L412.274592,3126.65008 C412.33163,3126.9899 412.038834,3127.27471 411.713369,3127.22844 L411.631505,3127.20982 L407.365148,3125.86827 C407.101722,3125.78543 406.955324,3125.50473 407.038158,3125.24131 C407.111788,3125.00715 407.341756,3124.86546 407.576963,3124.89504 L407.665117,3124.91432 L410.437883,3125.78568 C406.897058,3121.9156 403.741622,3120 401,3120 C395.477153,3120 391,3124.47715 391,3130 C391,3135.52285 395.477153,3140 401,3140 C404.660675,3140 409.048859,3136.58697 414.096816,3129.70429 L414.397332,3129.2976 C419.494083,3122.45033 424.007017,3119 428.000034,3119 Z" transform="translate(-390 -3119)"/>
</svg>
