<svg xmlns="http://www.w3.org/2000/svg" width="49" height="56" viewBox="0 0 49 56">
  <defs>
    <linearGradient id="ico-quality-1-a" x1="88.084%" x2="11.916%" y1="100%" y2="0%">
      <stop offset="0%" stop-color="#1E85E9"/>
      <stop offset="20.276%" stop-color="#8671F3"/>
      <stop offset="70.727%" stop-color="#C06CFD" stop-opacity=".99"/>
      <stop offset="100%" stop-color="#FFBEE8"/>
    </linearGradient>
  </defs>
  <path fill="url(#ico-quality-1-a)" d="M57.373067,25 L81.4974226,38.7846097 L81.373067,66.5692194 L57.1243557,80.5692194 L33,66.7846097 L33.1243557,39 L57.373067,25 Z M57.4404527,26.1157954 L34.0569699,39.6162554 L33.8657991,66.2842178 L57.0569699,79.453424 L80.4404527,65.952964 L80.631171,39.2842178 L57.4404527,26.1157954 Z M63.8146189,37.8268965 L63.8930262,38.8164548 C64.4498357,47.0575782 61.1815265,51.7212948 54.2099459,52.5791962 L54.2858934,68.5955162 C54.4469752,70.1077987 55.2237363,70.7935766 56.8075148,70.8015023 C58.2943133,70.8089427 58.9677082,70.2259166 59.0221486,68.888506 L59.0256968,68.6822161 L58.9981086,63.0768783 C58.9650362,61.2289944 59.6297401,60.1350467 61.0071324,60.1419396 C62.2746999,60.1482828 63.05086,61.0934859 63.3415858,62.8251138 L63.3815547,63.0907371 L63.3924402,65.2995554 L63.4234291,65.3439448 C63.8579182,65.9395427 64.3974382,66.2516062 65.0778304,66.3063546 L65.28621,66.3150859 C66.0660276,66.3189884 66.668005,66.0129476 67.139505,65.3625411 L67.1702458,65.3158572 L67.1448756,60.2642269 C65.1439445,60.1912677 63.3120008,58.8527486 62.6871046,56.8088054 C61.9010015,54.2375779 63.3227309,51.5236892 65.8626261,50.7471653 C68.4025214,49.9706414 71.0987758,51.4255361 71.8848789,53.9967636 C72.6709821,56.5679911 71.2492527,59.2818799 68.7093574,60.0584038 C68.59117,60.0945373 68.4726441,60.1258392 68.3539878,60.1524218 L68.3816094,65.6930479 L68.2868085,65.8439325 C67.5805863,66.9679528 66.5619082,67.5491309 65.2922639,67.5427773 C64.1072626,67.5368472 63.1358438,67.0212745 62.4283618,66.0328956 L62.2808167,65.8138768 L62.1845231,65.6620359 L62.1775553,63.1660972 C62.0025593,61.885501 61.6140452,61.3726377 61.0131863,61.3696309 C60.4934245,61.3670298 60.2205781,61.7624458 60.2070101,62.8483751 L60.2354376,68.68827 C60.2461634,70.8633948 59.0305074,72.0402878 56.8135687,72.0291936 C54.703666,72.0186351 53.4138903,70.9511716 53.1112263,68.9029498 L53.0796554,68.6524604 L53.0010948,52.799388 C45.3295034,52.2014617 41.7746112,47.5054023 42.4710021,38.9587805 L42.5645761,37.9583331 L48.0710624,37.9249051 L48.0634376,39.1583142 L43.7124139,39.1842391 L43.6914507,39.4679071 C43.1964328,46.9796463 46.2047579,50.9312151 52.8380308,51.546309 L52.8350767,51.4745295 L53.2023767,51.4517463 C59.8837042,50.972375 63.0200469,47.1338165 62.735982,39.7025459 L62.7192545,39.334176 L62.7032308,39.052819 L58.5382601,39.0763678 L58.5447121,37.8551825 L63.8146189,37.8268965 Z M66.2275917,51.9409138 C64.3389516,52.518329 63.2817682,54.5363489 63.8663065,56.4482873 C64.4508447,58.3602256 66.4557518,59.4420704 68.3443919,58.8646552 C70.2330319,58.28724 71.2902153,56.2692202 70.7056771,54.3572818 C70.1211389,52.4453434 68.1162317,51.3634986 66.2275917,51.9409138 Z" transform="translate(-33 -25)"/>
</svg>
