<svg xmlns="http://www.w3.org/2000/svg" xmlns:xlink="http://www.w3.org/1999/xlink" width="62" height="62" viewBox="0 0 62 62">
  <defs>
    <linearGradient id="icon-8-6-b" x1="100%" x2="0%" y1="100%" y2="0%">
      <stop offset="0%" stop-color="#1E85E9"/>
      <stop offset="20.276%" stop-color="#8671F3"/>
      <stop offset="70.727%" stop-color="#C06CFD" stop-opacity=".99"/>
      <stop offset="100%" stop-color="#FFBEE8"/>
    </linearGradient>
    <rect id="icon-8-6-a" width="60" height="60" x="0" y="0" rx="4"/>
    <linearGradient id="icon-8-6-c" x1="100%" x2="0%" y1="86.735%" y2="13.265%">
      <stop offset="0%" stop-color="#1E85E9"/>
      <stop offset="20.276%" stop-color="#8671F3"/>
      <stop offset="70.727%" stop-color="#C06CFD" stop-opacity=".99"/>
      <stop offset="100%" stop-color="#FFBEE8"/>
    </linearGradient>
  </defs>
  <g fill="none" fill-rule="evenodd" transform="translate(1 1)">
    <g opacity=".062">
      <use fill="#FAFAFA" xlink:href="#icon-8-6-a"/>
      <use fill="url(#icon-8-6-b)" stroke="#000" stroke-opacity=".02" xlink:href="#icon-8-6-a"/>
    </g>
    <path fill="url(#icon-8-6-c)" fill-rule="nonzero" d="M46.527027,13 C46.7592188,13 46.9523322,13.1711695 46.9923798,13.3968945 L47,13.483871 L47,36.7096774 C47,37.464222 46.437268,38.0843052 45.7177324,38.1546452 L45.5810811,38.1612903 L32.688,38.161 L33.651,42.032 L36.9266918,42.0322581 C37.1879076,42.0322581 37.3996648,42.2488945 37.3996648,42.516129 C37.3996648,42.7536709 37.2323505,42.9512339 37.0117093,42.9922042 L36.9266918,43 L21.9324324,43 C21.6712167,43 21.4594595,42.7833636 21.4594595,42.516129 C21.4594595,42.2785872 21.6267738,42.0810242 21.8474149,42.0400539 L21.9324324,42.0322581 L25.348,42.032 L26.311,38.161 L13.4189189,38.1612903 C12.6813685,38.1612903 12.0752513,37.5855922 12.0064954,36.8494774 L12,36.7096774 L12,13.483871 C12,13.2463291 12.1673143,13.0487661 12.3879555,13.0077958 L12.472973,13 L46.527027,13 Z M31.7116216,38.1612903 L27.2874324,38.1612903 L26.3244595,42.0322581 L32.6745946,42.0322581 L31.7116216,38.1612903 Z M46.054,34.29 L12.945,34.29 L12.9459459,36.7096774 C12.9459459,36.9472192 13.1132603,37.1447823 13.3339014,37.1857526 L13.4189189,37.1935484 L45.5810811,37.1935484 C45.8132729,37.1935484 46.0063863,37.0223789 46.0464338,36.7966538 L46.0540541,36.7096774 L46.054,34.29 Z M29.5,34.7741935 C30.0224315,34.7741935 30.4459459,35.2074664 30.4459459,35.7419355 C30.4459459,36.2764046 30.0224315,36.7096774 29.5,36.7096774 C28.9775685,36.7096774 28.5540541,36.2764046 28.5540541,35.7419355 C28.5540541,35.2074664 28.9775685,34.7741935 29.5,34.7741935 Z M46.0540541,13.9677419 L12.9459459,13.9677419 L12.9459459,33.3225806 L46.0540541,33.3225806 L46.0540541,13.9677419 Z M21.9324324,17.8387097 C25.3282373,17.8387097 28.0810811,20.654983 28.0810811,24.1290323 C28.0810811,27.6030815 25.3282373,30.4193548 21.9324324,30.4193548 C18.5366276,30.4193548 15.7837838,27.6030815 15.7837838,24.1290323 C15.7837838,20.654983 18.5366276,17.8387097 21.9324324,17.8387097 Z M37.0675676,17.8387097 C40.4633724,17.8387097 43.2162162,20.654983 43.2162162,24.1290323 C43.2162162,27.6030815 40.4633724,30.4193548 37.0675676,30.4193548 C33.6717627,30.4193548 30.9189189,27.6030815 30.9189189,24.1290323 C30.9189189,20.654983 33.6717627,17.8387097 37.0675676,17.8387097 Z M21.9324324,18.8064516 C19.0590591,18.8064516 16.7297297,21.1894521 16.7297297,24.1290323 C16.7297297,27.0686124 19.0590591,29.4516129 21.9324324,29.4516129 C24.8058058,29.4516129 27.1351351,27.0686124 27.1351351,24.1290323 C27.1351351,21.1894521 24.8058058,18.8064516 21.9324324,18.8064516 Z M37.0675676,18.8064516 C34.1941942,18.8064516 31.8648649,21.1894521 31.8648649,24.1290323 C31.8648649,27.0686124 34.1941942,29.4516129 37.0675676,29.4516129 C39.9409409,29.4516129 42.2702703,27.0686124 42.2702703,24.1290323 C42.2702703,21.1894521 39.9409409,18.8064516 37.0675676,18.8064516 Z M24.981624,22.3410773 C25.1603685,22.4926928 25.2022384,22.7505597 25.0922393,22.950476 L25.0438414,23.0224075 L21.8849917,26.9200732 C21.7269324,27.1151005 21.4535817,27.1489671 21.2564329,27.0125418 L21.1864481,26.9533821 L19.2331252,24.9550517 C19.0484177,24.7660883 19.0484177,24.4597182 19.2331252,24.2707548 C19.3973096,24.1027873 19.6521705,24.0841243 19.8365052,24.2147656 L19.90201,24.2707548 L21.4878378,25.8932258 L24.3156391,22.4047284 C24.4823649,22.1990075 24.7805365,22.1705099 24.981624,22.3410773 Z M39.068781,21.9873521 C39.2256656,22.1574006 39.2386553,22.4131235 39.1121903,22.5972796 L39.0494659,22.6713636 L37.403,24.261 L39.0494659,25.8513179 C39.23943,26.0347458 39.2480777,26.3409882 39.068781,26.5353294 C38.9094062,26.7080771 38.6551784,26.7342615 38.467233,26.6091203 L38.4001752,26.5550896 L36.714,24.926 L35.027348,26.5550896 L34.9602902,26.6091203 C34.7723448,26.7342615 34.518117,26.7080771 34.3587422,26.5353294 C34.2018576,26.3652808 34.1888679,26.1095579 34.315333,25.9254018 L34.3780574,25.8513179 L36.024,24.261 L34.3780574,22.6713636 C34.1880932,22.4879357 34.1794455,22.1816933 34.3587422,21.9873521 C34.518117,21.8146043 34.7723448,21.7884199 34.9602902,21.9135612 L35.027348,21.9675918 L36.714,23.596 L38.4001752,21.9675918 L38.467233,21.9135612 C38.6551784,21.7884199 38.9094062,21.8146043 39.068781,21.9873521 Z"/>
  </g>
</svg>
