<svg xmlns="http://www.w3.org/2000/svg" width="68" height="62" viewBox="0 0 68 62">
  <defs>
    <linearGradient id="ico-documentation-2-a" x1="100%" x2="0%" y1="91.633%" y2="8.367%">
      <stop offset="0%" stop-color="#1E85E9"/>
      <stop offset="20.276%" stop-color="#8671F3"/>
      <stop offset="70.727%" stop-color="#C06CFD" stop-opacity=".99"/>
      <stop offset="100%" stop-color="#FFBEE8"/>
    </linearGradient>
  </defs>
  <path fill="url(#ico-documentation-2-a)" d="M51,0.5 C51.2454599,0.5 51.4496084,0.676875161 51.4919443,0.910124368 L51.5,1 L51.5,39.319 C51.5384839,39.5213643 51.5085266,39.6943045 51.5014197,39.6333796 L51.5,39.614 L51.5,61 C51.5,61.2454599 51.3231248,61.4496084 51.0898756,61.4919443 L51,61.5 L1,61.5 C0.754540111,61.5 0.55039163,61.3231248 0.508055669,61.0898756 L0.5,61 L0.5,1 C0.5,0.754540111 0.676875161,0.55039163 0.910124368,0.508055669 L1,0.5 L51,0.5 Z M50.5,1.5 L1.5,1.5 L1.5,60.5 L50.5,60.5 L50.5,39.633 C50.5086392,39.7220477 50.5198157,39.7538201 50.5080557,39.6890287 L50.5,39.599153 L50.5,39.629 L50.4978508,39.5891845 C50.4960507,39.5504206 50.4957524,39.5055467 50.4986797,39.4576763 L50.5,39.436 L50.5057055,39.3840126 C50.5155815,39.3088798 50.5346546,39.2305074 50.568743,39.1594032 L50.595,39.113 L50.5682647,39.1517 C50.5393369,39.2010827 50.5186397,39.2558716 50.5080557,39.3141839 L50.5,39.399 L50.5,1.5 Z M64.5800116,1.04415588 C66.054794,1.04415588 67.260314,2.27153083 67.3445415,3.8191712 L67.3492424,3.99240312 L67.3492424,47.1861448 L61.3248715,58.0120864 L55.3492424,47.1842267 L55.3492424,3.99240312 C55.3492424,2.4222837 56.5020916,1.13883306 57.9557598,1.04916072 L58.1184732,1.04415588 L64.5800116,1.04415588 Z M66.4252424,7.12015588 L56.2722424,7.12015588 L56.2723193,46.9168842 L61.3281712,56.0781045 L66.4261655,46.9168842 L66.4252424,7.12015588 Z M32.4644661,20.6464466 L32.4644661,21.6464466 L11.5,21.6464466 L11.5,20.6464466 L32.4644661,20.6464466 Z M39.4644661,12.6464466 L39.4644661,13.6464466 L11.5,13.6464466 L11.5,12.6464466 L39.4644661,12.6464466 Z M64.5800116,2.02690496 L58.1184732,2.02690496 C57.1474231,2.02690496 56.3514763,2.82507594 56.2778737,3.8388006 L56.2723193,3.99240312 L56.2722424,6.12015588 L66.4252424,6.12015588 L66.4261655,3.99240312 C66.4261655,2.95857964 65.6764591,2.11117897 64.7242875,2.03281841 L64.5800116,2.02690496 Z"/>
</svg>
