<svg xmlns="http://www.w3.org/2000/svg" width="36" height="41" viewBox="0 0 36 41">
  <defs>
    <linearGradient id="icon-25-7-a" x1="88.551%" x2="11.449%" y1="100%" y2="0%">
      <stop offset="0%" stop-color="#1E85E9"/>
      <stop offset="20.276%" stop-color="#8671F3"/>
      <stop offset="70.727%" stop-color="#C06CFD" stop-opacity=".99"/>
      <stop offset="100%" stop-color="#FFBEE8"/>
    </linearGradient>
  </defs>
  <path fill="url(#icon-25-7-a)" d="M1254.0005,3814 C1255.65736,3814 1257.0005,3815.34315 1257.0005,3817 C1257.0005,3817.08346 1256.99709,3817.16612 1256.99041,3817.24786 C1261.24595,3817.95837 1264.9967,3820.16355 1267.68431,3823.30532 C1269.08774,3822.61646 1270.80495,3823.12539 1271.59858,3824.5 C1272.3742,3825.84341 1271.99269,3827.53736 1270.7633,3828.42775 C1271.5616,3830.46256 1272.0005,3832.68002 1272.0005,3835 C1272.0005,3837.03062 1271.66425,3838.98271 1271.04439,3840.80362 C1272.04678,3841.73406 1272.31154,3843.26512 1271.59858,3844.5 C1270.92013,3845.6751 1269.56675,3846.21757 1268.31081,3845.92046 C1265.57849,3849.49558 1261.53565,3852.0172 1256.89927,3852.76781 C1256.56189,3854.05291 1255.3918,3855 1254.0005,3855 C1252.60921,3855 1251.43912,3854.05291 1251.09978,3852.76826 C1246.46535,3852.0172 1242.42251,3849.49558 1239.6897,3845.91948 C1238.43425,3846.21757 1237.08087,3845.6751 1236.40242,3844.5 C1235.68947,3843.26512 1235.95422,3841.73406 1236.9565,3840.80318 C1236.33675,3838.98271 1236.0005,3837.03062 1236.0005,3835 C1236.0005,3832.68002 1236.43941,3830.46256 1237.23871,3828.42611 C1236.00831,3827.53736 1235.6268,3825.84341 1236.40242,3824.5 C1237.19605,3823.12539 1238.91326,3822.61646 1240.31767,3823.30449 C1243.0043,3820.16355 1246.75505,3817.95837 1251.01168,3817.247 C1251.00391,3817.16612 1251.0005,3817.08346 1251.0005,3817 C1251.0005,3815.34315 1252.34365,3814 1254.0005,3814 Z M1254.0005,3850 C1252.89593,3850 1252.0005,3850.89543 1252.0005,3852 C1252.0005,3853.10457 1252.89593,3854 1254.0005,3854 C1255.10507,3854 1256.0005,3853.10457 1256.0005,3852 C1256.0005,3850.89543 1255.10507,3850 1254.0005,3850 Z M1256.74101,3818.21974 L1256.69558,3818.31932 C1256.20738,3819.31472 1255.18397,3820 1254.0005,3820 C1252.77849,3820 1251.72713,3819.26936 1251.25944,3818.2211 C1247.2353,3818.87201 1243.68435,3820.93733 1241.13266,3823.89018 C1242.06202,3824.82717 1242.28979,3826.30278 1241.59858,3827.5 C1240.88904,3828.72895 1239.4413,3829.26596 1238.13885,3828.8743 C1237.4033,3830.77433 1237.0005,3832.84013 1237.0005,3835 C1237.0005,3836.82871 1237.28925,3838.58998 1237.82363,3840.2407 C1239.20008,3839.651 1240.83114,3840.17076 1241.59858,3841.5 C1242.39967,3842.88753 1241.96639,3844.64899 1240.63946,3845.51282 C1243.16653,3848.71987 1246.8244,3850.99556 1251.01203,3851.73818 C1251.14503,3850.20335 1252.43224,3849 1254.0005,3849 C1255.56877,3849 1256.85597,3850.20335 1256.98914,3851.73708 C1261.03702,3851.02028 1264.59003,3848.86988 1267.10533,3845.82955 L1267.361,3845.511 L1267.34497,3845.50196 C1266.03102,3844.63429 1265.60468,3842.88173 1266.40242,3841.5 C1267.16986,3840.17076 1268.80092,3839.651 1270.17764,3840.24027 C1270.71176,3838.58998 1271.0005,3836.82871 1271.0005,3835 C1271.0005,3832.84013 1270.59771,3830.77433 1269.86314,3828.87363 C1268.5597,3829.26596 1267.11196,3828.72895 1266.40242,3827.5 C1265.71121,3826.30278 1265.93898,3824.82717 1266.86687,3823.88999 C1264.31665,3820.93733 1260.7657,3818.87201 1256.74101,3818.21974 Z M1254.0005,3834 C1258.41878,3834 1262.0005,3837.58172 1262.0005,3842 C1262.0005,3846.41828 1246.0005,3846.41828 1246.0005,3842 C1246.0005,3837.58172 1249.58222,3834 1254.0005,3834 Z M1269.0005,3841 C1267.89593,3841 1267.0005,3841.89543 1267.0005,3843 C1267.0005,3844.10457 1267.89593,3845 1269.0005,3845 C1270.10507,3845 1271.0005,3844.10457 1271.0005,3843 C1271.0005,3841.89543 1270.10507,3841 1269.0005,3841 Z M1239.0005,3841 C1237.89593,3841 1237.0005,3841.89543 1237.0005,3843 C1237.0005,3844.10457 1237.89593,3845 1239.0005,3845 C1240.10507,3845 1241.0005,3844.10457 1241.0005,3843 C1241.0005,3841.89543 1240.10507,3841 1239.0005,3841 Z M1254.0005,3835 C1250.13451,3835 1247.0005,3838.13401 1247.0005,3842 C1247.0005,3845.08494 1261.0005,3845.08494 1261.0005,3842 C1261.0005,3838.13401 1257.86649,3835 1254.0005,3835 Z M1254.0005,3823 C1256.76192,3823 1259.0005,3825.23858 1259.0005,3828 C1259.0005,3830.76142 1256.76192,3833 1254.0005,3833 C1251.23908,3833 1249.0005,3830.76142 1249.0005,3828 C1249.0005,3825.23858 1251.23908,3823 1254.0005,3823 Z M1254.0005,3824 C1251.79136,3824 1250.0005,3825.79086 1250.0005,3828 C1250.0005,3830.20914 1251.79136,3832 1254.0005,3832 C1256.20964,3832 1258.0005,3830.20914 1258.0005,3828 C1258.0005,3825.79086 1256.20964,3824 1254.0005,3824 Z M1269.0005,3824 C1267.89593,3824 1267.0005,3824.89543 1267.0005,3826 C1267.0005,3827.10457 1267.89593,3828 1269.0005,3828 C1270.10507,3828 1271.0005,3827.10457 1271.0005,3826 C1271.0005,3824.89543 1270.10507,3824 1269.0005,3824 Z M1239.0005,3824 C1237.89593,3824 1237.0005,3824.89543 1237.0005,3826 C1237.0005,3827.10457 1237.89593,3828 1239.0005,3828 C1240.10507,3828 1241.0005,3827.10457 1241.0005,3826 C1241.0005,3824.89543 1240.10507,3824 1239.0005,3824 Z M1254.0005,3815 C1252.89593,3815 1252.0005,3815.89543 1252.0005,3817 C1252.0005,3818.10457 1252.89593,3819 1254.0005,3819 C1255.10507,3819 1256.0005,3818.10457 1256.0005,3817 C1256.0005,3815.89543 1255.10507,3815 1254.0005,3815 Z" transform="translate(-1236 -3814)"/>
</svg>
