<svg xmlns="http://www.w3.org/2000/svg" xmlns:xlink="http://www.w3.org/1999/xlink" width="62" height="62" viewBox="0 0 62 62">
  <defs>
    <linearGradient id="icon-11-8-b" x1="100%" x2="0%" y1="100%" y2="0%">
      <stop offset="0%" stop-color="#1E85E9"/>
      <stop offset="20.276%" stop-color="#8671F3"/>
      <stop offset="70.727%" stop-color="#C06CFD" stop-opacity=".99"/>
      <stop offset="100%" stop-color="#FFBEE8"/>
    </linearGradient>
    <rect id="icon-11-8-a" width="60" height="60" x="0" y="0" rx="4"/>
    <linearGradient id="icon-11-8-c" x1="93.643%" x2="6.357%" y1="100%" y2="0%">
      <stop offset="0%" stop-color="#1E85E9"/>
      <stop offset="20.276%" stop-color="#8671F3"/>
      <stop offset="70.727%" stop-color="#C06CFD" stop-opacity=".99"/>
      <stop offset="100%" stop-color="#FFBEE8"/>
    </linearGradient>
  </defs>
  <g fill="none" fill-rule="evenodd" transform="translate(1 1)">
    <g opacity=".062">
      <use fill="#FAFAFA" xlink:href="#icon-11-8-a"/>
      <use fill="url(#icon-11-8-b)" stroke="#000" stroke-opacity=".02" xlink:href="#icon-11-8-a"/>
    </g>
    <path fill="url(#icon-11-8-c)" fill-rule="nonzero" d="M20.6222222,15.9195129 C20.002436,15.9195129 19.5,16.4219489 19.5,17.0417351 L19.5,42.9582649 C19.5,43.1439805 19.5460903,43.3267931 19.634138,43.4903103 C19.9279785,44.0360141 20.6085637,44.2401897 21.1542675,43.9463491 L45.2196167,30.9880842 C45.4129767,30.8839673 45.5715387,30.7254053 45.6756556,30.5320453 C45.9694961,29.9863415 45.7653205,29.3057563 45.2196167,29.0119158 L21.1542675,16.0536509 C21.0316296,15.9876151 20.8981381,15.9451803 20.7607084,15.9280902 L20.6222222,15.9195129 Z M20.6222222,16.9195129 C20.6424486,16.9195129 20.6623589,16.9245326 20.6801677,16.934122 L44.7455169,29.8923869 C44.80495,29.9243893 44.8271869,29.9985124 44.7951845,30.0579455 C44.783845,30.0790045 44.7665759,30.0962736 44.7455169,30.1076131 L20.6801677,43.065878 C20.6207346,43.0978805 20.5466115,43.0756435 20.5146091,43.0162105 C20.5050197,42.9984017 20.5,42.9784914 20.5,42.9582649 L20.5,17.0417351 C20.5,16.9877339 20.5350213,16.9419124 20.5835905,16.9257438 L20.6222222,16.9195129 Z"/>
  </g>
</svg>
