<svg xmlns="http://www.w3.org/2000/svg" width="31" height="38" viewBox="0 0 31 38">
  <defs>
    <linearGradient id="icon-14-8-a" x1="83.276%" x2="16.724%" y1="100%" y2="0%">
      <stop offset="0%" stop-color="#1E85E9"/>
      <stop offset="20.276%" stop-color="#8671F3"/>
      <stop offset="70.727%" stop-color="#C06CFD" stop-opacity=".99"/>
      <stop offset="100%" stop-color="#FFBEE8"/>
    </linearGradient>
  </defs>
  <path fill="url(#icon-14-8-a)" d="M1405.43437,2265 L1411,2270.70405 L1411,2295 C1411,2296.65685 1409.65685,2298 1408,2298 L1408,2298 L1407,2298 L1407,2298.5 C1407,2299.82548 1405.96846,2300.91004 1404.66438,2300.99468 L1404.5,2301 L1403.9499,2301.00043 C1403.72869,2302.08923 1402.79984,2302.92098 1401.66438,2302.99468 L1401.5,2303 L1382.5,2303 C1381.17452,2303 1380.08996,2301.96846 1380.00532,2300.66438 L1380,2300.5 L1380,2273.5 C1380,2272.17452 1381.03154,2271.08996 1382.33562,2271.00532 L1382.5,2271 L1383.04989,2271.00057 C1383.27074,2269.91128 1384.19981,2269.07904 1385.33562,2269.00532 L1385.5,2269 L1386,2269 L1386,2268 C1386,2266.40232 1387.24892,2265.09634 1388.82373,2265.00509 L1389,2265 L1405.43437,2265 Z M1383,2272 L1382.5,2272 C1381.7203,2272 1381.07955,2272.59489 1381.00687,2273.35554 L1381,2273.5 L1381,2300.5 C1381,2301.2797 1381.59489,2301.92045 1382.35554,2301.99313 L1382.5,2302 L1401.5,2302 C1402.15285,2302 1402.70828,2301.58293 1402.9144,2301.0007 L1385.5,2301 C1384.17452,2301 1383.08996,2299.96846 1383.00532,2298.66438 L1383,2298.5 L1383,2272 Z M1386,2270 L1385.5,2270 C1384.7203,2270 1384.07955,2270.59489 1384.00687,2271.35554 L1384,2271.5 L1384,2298.5 C1384,2299.2797 1384.59489,2299.92045 1385.35554,2299.99313 L1385.5,2300 L1404.5,2300 C1405.2797,2300 1405.92045,2299.40511 1405.99313,2298.64446 L1406,2298.5 L1406,2298 L1389,2298 C1387.40232,2298 1386.09634,2296.75108 1386.00509,2295.17627 L1386,2295 L1386,2270 Z M1404.5,2266 L1389,2266 C1387.89543,2266 1387,2266.89543 1387,2268 L1387,2268 L1387,2295 C1387,2296.10457 1387.89543,2297 1389,2297 L1389,2297 L1408,2297 C1409.10457,2297 1410,2296.10457 1410,2295 L1410,2295 L1410,2271.5 L1406,2271.5 C1405.2203,2271.5 1404.57955,2270.90511 1404.50687,2270.14446 L1404.5,2270 L1404.5,2266 Z M1406,2284.5 C1406.27614,2284.5 1406.5,2284.72386 1406.5,2285 C1406.5,2285.24546 1406.32312,2285.44961 1406.08988,2285.49194 L1406,2285.5 L1391,2285.5 C1390.72386,2285.5 1390.5,2285.27614 1390.5,2285 C1390.5,2284.75454 1390.67688,2284.55039 1390.91012,2284.50806 L1391,2284.5 L1406,2284.5 Z M1406,2280.5 C1406.27614,2280.5 1406.5,2280.72386 1406.5,2281 C1406.5,2281.24546 1406.32312,2281.44961 1406.08988,2281.49194 L1406,2281.5 L1391,2281.5 C1390.72386,2281.5 1390.5,2281.27614 1390.5,2281 C1390.5,2280.75454 1390.67688,2280.55039 1390.91012,2280.50806 L1391,2280.5 L1406,2280.5 Z M1406,2276.60669 C1406.27614,2276.60669 1406.5,2276.83055 1406.5,2277.10669 C1406.5,2277.35215 1406.32312,2277.5563 1406.08988,2277.59863 L1406,2277.60669 L1391,2277.60669 C1390.72386,2277.60669 1390.5,2277.38283 1390.5,2277.10669 C1390.5,2276.86123 1390.67688,2276.65708 1390.91012,2276.61475 L1391,2276.60669 L1406,2276.60669 Z M1405.5,2266.5 L1405.5,2270 C1405.5,2270.24546 1405.67688,2270.44961 1405.91012,2270.49194 L1406,2270.5 L1409.404,2270.5 L1405.5,2266.5 Z" transform="translate(-1380 -2265)"/>
</svg>
