<svg xmlns="http://www.w3.org/2000/svg" xmlns:xlink="http://www.w3.org/1999/xlink" width="62" height="62" viewBox="0 0 62 62">
  <defs>
    <linearGradient id="ico-outcomes-1-b" x1="100%" x2="0%" y1="100%" y2="0%">
      <stop offset="0%" stop-color="#1E85E9"/>
      <stop offset="20.276%" stop-color="#8671F3"/>
      <stop offset="70.727%" stop-color="#C06CFD" stop-opacity=".99"/>
      <stop offset="100%" stop-color="#FFBEE8"/>
    </linearGradient>
    <rect id="ico-outcomes-1-a" width="60" height="60" x="0" y="0" rx="4"/>
    <linearGradient id="ico-outcomes-1-c" x1="100%" x2="0%" y1="89.048%" y2="10.952%">
      <stop offset="0%" stop-color="#1E85E9"/>
      <stop offset="20.276%" stop-color="#8671F3"/>
      <stop offset="70.727%" stop-color="#C06CFD" stop-opacity=".99"/>
      <stop offset="100%" stop-color="#FFBEE8"/>
    </linearGradient>
  </defs>
  <g fill="none" fill-rule="evenodd" transform="translate(1 1)">
    <g opacity=".062">
      <use fill="#FAFAFA" xlink:href="#ico-outcomes-1-a"/>
      <use fill="url(#ico-outcomes-1-b)" stroke="#000" stroke-opacity=".02" xlink:href="#ico-outcomes-1-a"/>
    </g>
    <path fill="url(#ico-outcomes-1-c)" fill-rule="nonzero" d="M47.804878,11 C50.1217799,11 52,12.8903533 52,15.2222222 L52,39.5 C52,41.8318689 50.1217799,43.7222222 47.804878,43.7222222 L37.417,43.722 L39.4146341,49 L22.6341463,49 L24.631,43.722 L13.195122,43.7222222 C10.8782201,43.7222222 9,41.8318689 9,39.5 L9,15.2222222 C9,12.8903533 10.8782201,11 13.195122,11 L47.804878,11 Z M36.2945122,43.7222222 L25.7532195,43.7222222 L24.154878,47.9444444 L37.8928537,47.9444444 L36.2945122,43.7222222 Z M50.951,35.277 L10.048,35.277 L10.0487805,39.5 C10.0487805,41.1864409 11.3586234,42.5649754 13.0102505,42.661291 L13.195122,42.6666667 L47.804878,42.6666667 C49.4804946,42.6666667 50.8501809,41.3483623 50.9458784,39.6860657 L50.9512195,39.5 L50.951,35.277 Z M30.5,37.3888889 C31.3688382,37.3888889 32.0731707,38.0977714 32.0731707,38.9722222 C32.0731707,39.8466731 31.3688382,40.5555556 30.5,40.5555556 C29.6311618,40.5555556 28.9268293,39.8466731 28.9268293,38.9722222 C28.9268293,38.0977714 29.6311618,37.3888889 30.5,37.3888889 Z M30.5,38.4444444 C30.2103873,38.4444444 29.9756098,38.6807386 29.9756098,38.9722222 C29.9756098,39.2637058 30.2103873,39.5 30.5,39.5 C30.7896127,39.5 31.0243902,39.2637058 31.0243902,38.9722222 C31.0243902,38.6807386 30.7896127,38.4444444 30.5,38.4444444 Z M47.804878,12.0555556 L13.195122,12.0555556 C11.5195054,12.0555556 10.1498191,13.37386 10.0541216,15.0361565 L10.0487805,15.2222222 L10.048,34.222 L50.951,34.222 L50.9512195,15.2222222 C50.9512195,13.5357813 49.6413766,12.1572468 47.9897495,12.0609312 L47.804878,12.0555556 Z M34.4602893,16.1895115 L35.2304138,16.573894 L28.096781,30.9875126 L27.3266565,30.6031301 L34.4602893,16.1895115 Z M24.0500904,18.0355675 L24.6582023,18.6462507 L19.25292,24.0737273 L24.6582023,29.5024878 L24.0500904,30.113171 L18.0367152,24.0743692 L24.0500904,18.0355675 Z M38.4248271,18.0355675 L44.4382023,24.0743692 L38.4248271,30.113171 L37.8167152,29.5024878 L43.2219975,24.0737273 L37.8167152,18.6462507 L38.4248271,18.0355675 Z"/>
  </g>
</svg>
