<svg xmlns="http://www.w3.org/2000/svg" width="36" height="34" viewBox="0 0 36 34">
  <defs>
    <linearGradient id="icon-20-6-a" x1="100%" x2="0%" y1="94.599%" y2="5.401%">
      <stop offset="0%" stop-color="#1E85E9"/>
      <stop offset="20.276%" stop-color="#8671F3"/>
      <stop offset="70.727%" stop-color="#C06CFD" stop-opacity=".99"/>
      <stop offset="100%" stop-color="#FFBEE8"/>
    </linearGradient>
  </defs>
  <path fill="url(#icon-20-6-a)" d="M1113,3113 C1115.76142,3113 1118,3115.23858 1118,3118 C1118,3120.59243 1116.02703,3122.72406 1113.5007,3122.97524 L1113.5,3130.007 L1123,3130.00781 C1125.41427,3130.00781 1127.38449,3131.90905 1127.4951,3134.29598 L1127.5,3134.50781 L1127.50076,3139.03104 C1129.47355,3139.27743 1131,3140.96045 1131,3143 C1131,3145.20914 1129.20914,3147 1127,3147 C1124.79086,3147 1123,3145.20914 1123,3143 C1123,3140.96011 1124.52697,3139.27686 1126.50024,3139.03092 L1126.5,3134.50781 C1126.5,3132.63925 1125.03572,3131.11269 1123.19204,3131.01299 L1123,3131.00781 L1113.5,3131.007 L1113.5,3139 L1113.49777,3139.03067 C1115.472,3139.27573 1117,3140.95942 1117,3143 C1117,3145.20914 1115.20914,3147 1113,3147 C1110.79086,3147 1109,3145.20914 1109,3143 C1109,3140.95908 1110.52851,3139.27516 1112.50323,3139.03055 L1112.5,3139 L1112.5,3131.007 L1103,3131.00781 C1101.13144,3131.00781 1099.60487,3132.47209 1099.50518,3134.31578 L1099.5,3134.50781 L1099.50076,3139.03104 C1101.47355,3139.27743 1103,3140.96045 1103,3143 C1103,3145.20914 1101.20914,3147 1099,3147 C1096.79086,3147 1095,3145.20914 1095,3143 C1095,3140.96011 1096.52697,3139.27686 1098.50024,3139.03092 L1098.5,3134.50781 C1098.5,3132.09354 1100.40124,3130.12332 1102.78816,3130.01271 L1103,3130.00781 L1112.5,3130.007 L1112.5003,3122.97534 C1109.97349,3122.72462 1108,3120.59278 1108,3118 C1108,3115.23858 1110.23858,3113 1113,3113 Z M1099,3140 C1097.34315,3140 1096,3141.34315 1096,3143 C1096,3144.65685 1097.34315,3146 1099,3146 C1100.65685,3146 1102,3144.65685 1102,3143 C1102,3141.34315 1100.65685,3140 1099,3140 Z M1127,3140 C1125.34315,3140 1124,3141.34315 1124,3143 C1124,3144.65685 1125.34315,3146 1127,3146 C1128.65685,3146 1130,3144.65685 1130,3143 C1130,3141.34315 1128.65685,3140 1127,3140 Z M1113,3140 C1111.34315,3140 1110,3141.34315 1110,3143 C1110,3144.65685 1111.34315,3146 1113,3146 C1114.65685,3146 1116,3144.65685 1116,3143 C1116,3141.34315 1114.65685,3140 1113,3140 Z M1113,3114 C1110.79086,3114 1109,3115.79086 1109,3118 C1109,3120.20914 1110.79086,3122 1113,3122 C1115.20914,3122 1117,3120.20914 1117,3118 C1117,3115.79086 1115.20914,3114 1113,3114 Z" transform="translate(-1095 -3113)"/>
</svg>
