<svg xmlns="http://www.w3.org/2000/svg" width="40" height="26" viewBox="0 0 40 26">
  <defs>
    <linearGradient id="icon-16-3-a" x1="100%" x2="0%" y1="71.125%" y2="28.875%">
      <stop offset="0%" stop-color="#1E85E9"/>
      <stop offset="20.276%" stop-color="#8671F3"/>
      <stop offset="70.727%" stop-color="#C06CFD" stop-opacity=".99"/>
      <stop offset="100%" stop-color="#FFBEE8"/>
    </linearGradient>
  </defs>
  <path fill="url(#icon-16-3-a)" d="M694.64667,2559.17611 C695.025293,2556.03701 697.818492,2553.76199 700.992096,2554.01993 C702.261335,2554.12309 703.462807,2554.62944 704.417165,2555.46341 L704.417165,2555.46341 L704.825484,2555.82022 L704.939093,2555.96288 L711.228266,2567.70469 L711.183072,2567.72888 C711.707203,2568.83705 712,2570.07364 712,2571.37787 C712,2576.13974 708.096841,2580 703.282051,2580 C699.950606,2580 697.055605,2578.15189 695.588018,2575.43575 L688.411982,2575.43575 C686.944395,2578.15189 684.049394,2580 680.717949,2580 C675.903159,2580 672,2576.13974 672,2571.37787 C672,2569.76741 672.446438,2568.26007 673.223595,2566.97031 L679.120564,2555.96288 L679.234172,2555.82022 L679.642492,2555.46341 C680.59685,2554.62944 681.798321,2554.12309 683.067561,2554.01993 C686.241165,2553.76199 689.034363,2556.03701 689.412987,2559.17611 L689.435897,2559.40178 L689.435897,2560.21982 L694.623,2560.219 L694.623759,2559.40178 Z M680.717949,2563.77011 C677.914473,2563.77011 675.461277,2565.25335 674.116882,2567.46966 L673.737718,2568.17952 C673.28029,2569.15167 673.025641,2570.23536 673.025641,2571.37787 C673.025641,2575.57952 676.469604,2578.98563 680.717949,2578.98563 C684.966293,2578.98563 688.410256,2575.57952 688.410256,2571.37787 C688.410256,2567.17622 684.966293,2563.77011 680.717949,2563.77011 Z M703.282051,2563.77011 C699.357886,2563.77011 696.120026,2566.67623 695.648731,2570.43108 L695.6494,2570.71924 L695.618188,2570.71902 C695.599355,2570.93616 695.589744,2571.15591 695.589744,2571.37787 C695.589744,2575.57952 699.033707,2578.98563 703.282051,2578.98563 C707.530396,2578.98563 710.974359,2575.57952 710.974359,2571.37787 C710.974359,2567.17622 707.530396,2563.77011 703.282051,2563.77011 Z M694.578971,2570.87008 L689.435897,2570.87069 L689.435897,2571.37787 C689.435897,2572.44896 689.238422,2573.47443 688.877515,2574.42062 L695.122485,2574.42062 C694.761578,2573.47443 694.564103,2572.44896 694.564103,2571.37787 C694.564103,2571.20741 694.569104,2571.0381 694.578971,2570.87008 Z M694.623,2561.234 L689.435897,2561.23419 L689.435897,2569.85632 L694.623,2569.856 L694.623,2561.234 Z M683.151565,2555.03089 C682.190248,2555.10902 681.275981,2555.46708 680.522904,2556.05698 L680.321602,2556.22357 L679.982564,2556.51948 L675.857948,2564.21874 C677.24653,2563.29488 678.918578,2562.75574 680.717949,2562.75574 C684.048603,2562.75574 686.943019,2564.60297 688.410936,2567.31805 L688.411979,2559.44332 C688.191356,2556.7882 685.836189,2554.81269 683.151565,2555.03089 Z M700.908092,2555.03089 C698.223468,2554.81269 695.8683,2556.7882 695.647677,2559.44332 L695.647677,2559.44332 L695.647901,2567.21105 C697.133424,2564.55455 699.995335,2562.75574 703.282051,2562.75574 C705.121745,2562.75574 706.828346,2563.31932 708.234977,2564.28143 L704.078692,2556.52049 L703.738055,2556.22357 L703.536752,2556.05698 C702.783675,2555.46708 701.869408,2555.10902 700.908092,2555.03089 Z" transform="translate(-672 -2554)"/>
</svg>
