<svg xmlns="http://www.w3.org/2000/svg" width="51" height="49" viewBox="0 0 51 49">
  <defs>
    <linearGradient id="icon-28-3-a" x1="100%" x2="0%" y1="96.155%" y2="3.845%">
      <stop offset="0%" stop-color="#1E85E9"/>
      <stop offset="20.276%" stop-color="#8671F3"/>
      <stop offset="70.727%" stop-color="#C06CFD" stop-opacity=".99"/>
      <stop offset="100%" stop-color="#FFBEE8"/>
    </linearGradient>
  </defs>
  <path fill="url(#icon-28-3-a)" d="M689.583072,4256.07788 C690.554594,4255.97147 691.534977,4255.97408 692.508796,4256.08602 C693.136122,4256.16181 693.597301,4256.7109 693.563338,4257.34275 L693.563338,4257.34275 L693.560154,4257.51125 C693.576096,4258.4051 694.113722,4259.21431 694.929502,4259.56364 C695.826056,4259.90872 696.842296,4259.67962 697.49547,4258.99236 L697.49547,4258.99236 L697.590702,4258.89808 C698.021125,4258.51694 698.671801,4258.49296 699.132765,4258.86065 C699.895708,4259.47463 700.587397,4260.17217 701.194096,4260.93923 C701.586301,4261.43255 701.527958,4262.14557 701.057744,4262.57135 C700.353563,4263.19858 700.115221,4264.19808 700.460598,4265.07537 C700.806001,4265.95272 701.661987,4266.52185 702.616059,4266.50098 C703.229616,4266.50098 703.848813,4266.94801 703.918366,4267.56074 C704.027211,4268.53885 704.027211,4269.52601 703.917819,4270.50884 C703.841982,4271.13608 703.292731,4271.59706 702.688592,4271.56389 L702.688592,4271.56389 L702.525996,4271.56383 C701.583489,4271.54965 700.731957,4272.12387 700.39218,4273.00268 C700.052427,4273.88142 700.296266,4274.87871 701.009929,4275.50777 C701.476949,4275.9345 701.531489,4276.65079 701.134735,4277.14293 C700.51504,4277.91306 699.810205,4278.61067 699.033175,4279.22283 C698.541272,4279.60936 697.834459,4279.55126 697.419862,4279.09766 L697.419862,4279.09766 L697.292628,4278.97404 C696.637336,4278.38293 695.703927,4278.19837 694.884019,4278.50141 C694.006398,4278.86562 693.447943,4279.73692 693.48377,4280.68747 L693.48377,4280.68747 L693.481748,4280.81134 C693.442992,4281.38281 693.000096,4281.8548 692.421105,4281.91915 C691.945981,4281.97398 691.467999,4282.00097 690.990018,4282.00001 C690.489907,4281.99936 689.990279,4281.97073 689.490001,4281.91384 C688.862675,4281.83805 688.401495,4281.28895 688.435549,4280.65552 C688.491944,4279.69657 687.937766,4278.8061 687.067844,4278.43913 C686.16847,4278.09528 685.150466,4278.32604 684.493938,4279.01708 L684.493938,4279.01708 L684.398235,4279.11077 C683.965949,4279.48932 683.315728,4279.51002 682.858813,4279.14193 C682.095735,4278.52877 681.405136,4277.83056 680.80137,4277.06208 C680.411886,4276.56949 680.470129,4275.85956 680.932851,4275.43867 L680.932851,4275.43867 L681.058601,4275.31386 C681.659406,4274.66956 681.839003,4273.73037 681.505724,4272.90478 C681.158467,4272.05019 680.324592,4271.49393 679.397745,4271.50138 L679.397745,4271.50138 L679.272582,4271.4956 C678.689815,4271.44194 678.13687,4271.02032 678.085717,4270.44412 C677.971428,4269.46214 677.971428,4268.47021 678.084561,4267.49922 C678.14427,4266.86426 678.69775,4266.39166 679.319093,4266.43124 L679.319093,4266.43124 L679.498416,4266.43043 C680.38963,4266.39313 681.192222,4265.86168 681.562438,4265.05847 C681.933307,4264.16849 681.70069,4263.1414 680.976409,4262.49233 C680.514839,4262.0649 680.460712,4261.35404 680.853492,4260.86013 C681.472233,4260.08833 682.17764,4259.39017 682.955617,4258.77953 C683.44752,4258.393 684.154333,4258.4511 684.566867,4258.90256 L684.566867,4258.90256 L684.703893,4259.03351 C685.363382,4259.61591 686.294219,4259.79449 687.112585,4259.49082 C687.991365,4259.12681 688.551466,4258.2555 688.517416,4257.30132 L688.517416,4257.30132 L688.520277,4257.17812 C688.562605,4256.60989 689.004392,4256.14233 689.583072,4256.07788 Z M692.39173,4257.07914 C691.494893,4256.97606 690.589331,4256.97365 689.691955,4257.07194 L689.691955,4257.07194 L689.634566,4257.08736 C689.563196,4257.11877 689.514735,4257.19072 689.516907,4257.26964 C689.565726,4258.63709 688.759718,4259.89094 687.478047,4260.42146 C686.211819,4260.89185 684.787134,4260.5686 683.838486,4259.58759 C683.769496,4259.51213 683.65389,4259.50263 683.573259,4259.56599 C682.855324,4260.1295 682.204542,4260.7736 681.634946,4261.48409 C681.569018,4261.56699 681.578127,4261.68663 681.649803,4261.7531 C682.68473,4262.68042 683.019958,4264.16058 682.478129,4265.45993 C681.907592,4266.69891 680.649916,4267.47543 679.271106,4267.42997 C679.173804,4267.42381 679.089277,4267.49598 679.079013,4267.60383 C678.973662,4268.50901 678.973662,4269.42334 679.080393,4270.34196 C679.084822,4270.39168 679.24214,4270.50138 679.393716,4270.5014 C680.726334,4270.49066 681.930599,4271.29399 682.432588,4272.52939 C682.944481,4273.79742 682.616508,4275.24985 681.607561,4276.17675 C681.531742,4276.24571 681.522244,4276.36149 681.586749,4276.44307 C682.144476,4277.15295 682.78141,4277.79689 683.485676,4278.36281 C683.567056,4278.42836 683.685457,4278.41936 683.762425,4278.33532 C684.703533,4277.34455 686.148428,4277.01702 687.4406,4277.51135 C688.716531,4278.04914 689.515094,4279.33229 689.433966,4280.71171 C689.428315,4280.81684 689.505223,4280.9084 689.606463,4280.92065 C690.066159,4280.97292 690.528486,4280.9994 690.991677,4281.00001 C691.431071,4281.00089 691.870084,4280.9761 692.308551,4280.92551 C692.411377,4280.91408 692.48797,4280.82547 692.484427,4280.72371 C692.432907,4279.35687 693.237089,4278.10219 694.518836,4277.57068 C695.785478,4277.10194 697.209642,4277.43047 698.150305,4278.41477 C698.219296,4278.49022 698.334902,4278.49973 698.414824,4278.43693 C699.132137,4277.87181 699.783213,4277.22742 700.355929,4276.51567 C700.421405,4276.43445 700.412415,4276.31639 700.342067,4276.252 C699.320917,4275.35207 698.968682,4273.91144 699.459467,4272.64206 C699.950227,4271.37275 701.179995,4270.54346 702.53352,4270.56389 L702.53352,4270.56389 L702.715409,4270.56461 C702.820768,4270.57027 702.912409,4270.49336 702.924501,4270.39353 C703.025166,4269.48892 703.025166,4268.57594 702.924624,4267.67243 C702.918174,4267.61561 702.759392,4267.50098 702.627058,4267.50085 C701.265193,4267.53082 700.028996,4266.7089 699.53011,4265.44169 C699.0312,4264.17442 699.375496,4262.7306 700.389564,4261.82736 C700.46581,4261.75832 700.475324,4261.64204 700.410554,4261.56057 C699.84944,4260.85115 699.210538,4260.20684 698.507501,4259.64106 C698.425759,4259.57586 698.307327,4259.5855 698.22883,4259.67208 C697.288585,4260.66173 695.844398,4260.9873 694.55324,4260.48997 C693.282814,4259.94649 692.488166,4258.66656 692.564831,4257.28815 C692.570481,4257.18302 692.493574,4257.09145 692.39173,4257.07914 Z M691,4265 C693.209139,4265 695,4266.79086 695,4269 C695,4271.20914 693.209139,4273 691,4273 C688.790861,4273 687,4271.20914 687,4269 C687,4266.79086 688.790861,4265 691,4265 Z M691,4266 C689.343146,4266 688,4267.34315 688,4269 C688,4270.65685 689.343146,4272 691,4272 C692.656854,4272 694,4270.65685 694,4269 C694,4267.34315 692.656854,4266 691,4266 Z M689,4233 C695.277949,4233 700.726756,4237.16725 702.44545,4243.08602 L702.156,4243.121 L702.53218,4243.07606 C703.017465,4243.02548 703.507185,4243 704,4243 C711.731986,4243 718,4249.26801 718,4257 C718,4264.27122 712.456779,4270.24775 705.365689,4270.93424 C705.383235,4270.85351 705.396944,4270.77185 705.406974,4270.68889 C705.435673,4270.43118 705.457692,4270.17395 705.473059,4269.91721 C711.958288,4269.18695 717,4263.68225 717,4257 C717,4249.8203 711.179702,4244 704,4244 C703.389175,4244 702.783761,4244.04209 702.186604,4244.12541 C702.000899,4244.15132 701.824807,4244.07167 701.718948,4243.93225 C701.651518,4243.87039 701.600923,4243.78899 701.576026,4243.69401 C700.089967,4238.025 694.945147,4234 689,4234 C682.629406,4234 677.363916,4238.44297 676.302871,4244.61832 L676.285,4244.687 L676.270256,4244.72951 C676.263689,4244.74465 676.25647,4244.75954 676.248526,4244.77405 C676.242969,4244.78441 676.237151,4244.79419 676.231025,4244.80373 C676.220923,4244.81938 676.209678,4244.83495 676.197528,4244.84986 C676.192336,4244.85619 676.18703,4244.86237 676.181583,4244.8684 C676.168251,4244.88331 676.153755,4244.89759 676.138328,4244.911 C676.130818,4244.91735 676.123638,4244.92324 676.116303,4244.92892 C676.102224,4244.93999 676.086958,4244.95053 676.070994,4244.96026 L676.054532,4244.96985 L676.037545,4244.97895 C676.026223,4244.98471 676.014486,4244.99015 676.002449,4244.99516 C671.19656,4246.99822 668,4251.70363 668,4257 C668,4262.53743 671.488133,4267.35598 676.501062,4269.2015 C676.507643,4269.56012 676.527323,4269.9212 676.560707,4270.28181 C670.945144,4268.4098 667,4263.11171 667,4257 C667,4251.38941 670.331118,4246.3945 675.366103,4244.17989 L675.348,4244.278 L675.37617,4244.12842 C676.644355,4237.64055 682.252834,4233 689,4233 Z" transform="translate(-667 -4233)"/>
</svg>
