<svg xmlns="http://www.w3.org/2000/svg" xmlns:xlink="http://www.w3.org/1999/xlink" width="62" height="62" viewBox="0 0 62 62">
  <defs>
    <linearGradient id="icon-7-1-b" x1="100%" x2="0%" y1="100%" y2="0%">
      <stop offset="0%" stop-color="#FFBEE8"/>
      <stop offset="29.273%" stop-color="#C06CFD" stop-opacity=".99"/>
      <stop offset="79.724%" stop-color="#8671F3"/>
      <stop offset="100%" stop-color="#1E85E9"/>
    </linearGradient>
    <rect id="icon-7-1-a" width="60" height="60" x="0" y="0" rx="4"/>
    <linearGradient id="icon-7-1-c" x1="100%" x2="0%" y1="100%" y2="0%">
      <stop offset="0%" stop-color="#1E85E9"/>
      <stop offset="20.276%" stop-color="#8671F3"/>
      <stop offset="70.727%" stop-color="#C06CFD" stop-opacity=".99"/>
      <stop offset="100%" stop-color="#FFBEE8"/>
    </linearGradient>
  </defs>
  <g fill="none" fill-rule="evenodd" transform="translate(1 1)">
    <g opacity=".062">
      <use fill="#FAFAFA" xlink:href="#icon-7-1-a"/>
      <use fill="url(#icon-7-1-b)" stroke="#000" stroke-opacity=".02" xlink:href="#icon-7-1-a"/>
    </g>
    <path fill="url(#icon-7-1-c)" fill-rule="nonzero" d="M31,15 C39.2842712,15 46,21.7157288 46,30 C46,38.2842712 39.2842712,45 31,45 C22.7157288,45 16,38.2842712 16,30 C16,21.7157288 22.7157288,15 31,15 Z M31.043107,35.7327621 C29.248315,35.7327621 27.5121326,35.8760776 25.9069061,36.141674 C26.8603309,40.7852985 28.8393838,43.9655172 31,43.9655172 C33.1629377,43.9655172 35.1439216,40.7784611 36.0957131,36.1284989 C34.5137217,35.8711112 32.8066357,35.7327621 31.043107,35.7327621 Z M24.8856193,36.3318375 L24.6926113,36.3711412 C22.71992,36.7922894 20.9950036,37.4069702 19.6720554,38.1703522 C21.6867665,40.9576095 24.7036355,42.971637 28.1942077,43.6835744 C26.7160321,42.2048653 25.5492512,39.5824067 24.8856193,36.3318375 Z M37.1185778,36.3139888 L37.1004785,36.3994851 C36.4345241,39.6187845 35.2737021,42.2151336 33.8060924,43.6830883 C37.3110058,42.9686508 40.3385338,40.9406908 42.352274,38.1357968 C40.9755174,37.3527358 39.1746694,36.729457 37.1185778,36.3139888 Z M19.0974818,22.6913918 L18.9906022,22.8676456 C17.7481167,24.9552307 17.0344828,27.3942763 17.0344828,30 C17.0344828,32.6798142 17.7892762,35.1833369 19.0978661,37.3095712 C20.575727,36.443817 22.5031948,35.762695 24.6975835,35.3133215 C24.4240881,33.6612178 24.2758621,31.8693288 24.2758621,30 C24.2758621,28.1299197 24.4242073,26.3373415 24.6982527,24.6831213 C22.5046872,24.2357629 20.5774358,23.5554074 19.0974818,22.6913918 Z M42.9229361,22.724337 C41.4286752,23.5844937 39.4984532,24.2574821 37.305068,24.6997603 C37.5766856,26.3481474 37.7241379,28.1355559 37.7241379,30 C37.7241379,31.8629411 37.5769232,33.6489708 37.3048804,35.2979274 C39.5026656,35.7391367 41.4365252,36.4135218 42.9262551,37.2716222 C44.2196576,35.1536106 44.9655172,32.6639077 44.9655172,30 C44.9655172,27.3344179 44.2187197,24.8432597 42.9229361,22.724337 Z M25.7190238,24.8734603 L25.6917133,25.0418232 C25.4463403,26.5810007 25.3103448,28.2517823 25.3103448,30 C25.3103448,31.8116088 25.4563816,33.5400638 25.7188354,35.1250886 C27.3882337,34.8466571 29.1870714,34.6982794 31.043107,34.6982794 C32.8680078,34.6982794 34.6377479,34.841715 36.2837725,35.1104 C36.5444791,33.5298614 36.6896552,31.8062625 36.6896552,30 C36.6896552,28.19221 36.5442335,26.4672234 36.2828227,24.8849367 C34.6361637,25.1549828 32.8653853,25.298648 31.0390954,25.298648 C29.1849089,25.298648 27.3875677,25.1505763 25.7190238,24.8734603 Z M31,16.0344828 L30.854038,16.03932 C28.7509082,16.178716 26.8393894,19.3185139 25.9077646,23.8545394 C27.5120824,24.1212281 29.2464822,24.2641652 31.0390954,24.2641652 C32.8041679,24.2641652 34.5124154,24.1255399 36.0950639,23.8683902 C35.1425041,19.219259 33.1621639,16.0344828 31,16.0344828 L31,16.0344828 Z M33.8057923,16.3164256 L33.926463,16.4405598 C35.3492559,17.9408732 36.4719327,20.5133703 37.1170219,23.6811159 C39.1740111,23.2665397 40.9745407,22.6429866 42.3500172,21.8610548 C40.3363659,19.0578572 37.3097508,17.0310932 33.8057923,16.3164256 Z M28.1939076,16.3169117 L27.9649631,16.365201 C24.5720476,17.1170904 21.6432668,19.1030935 19.6737373,21.8280939 C21.0395808,22.6169453 22.8338437,23.2459047 24.8858581,23.6671123 C25.5497279,20.4165218 26.716334,17.7948327 28.1939076,16.3169117 Z"/>
  </g>
</svg>
