<svg xmlns="http://www.w3.org/2000/svg" width="34" height="40" viewBox="0 0 34 40">
  <defs>
    <linearGradient id="ico-sap-testing-1-a" x1="77.075%" x2="26.798%" y1="90.282%" y2="5.785%">
      <stop offset="0%" stop-color="#1E85E9"/>
      <stop offset="20.276%" stop-color="#8671F3"/>
      <stop offset="70.727%" stop-color="#C06CFD" stop-opacity=".99"/>
      <stop offset="100%" stop-color="#FFBEE8"/>
    </linearGradient>
  </defs>
  <path fill="url(#ico-sap-testing-1-a)" d="M47,30 C55.8339897,30 63,36.9369791 63,45.5 C63,49.649863 61.3169735,53.41783 58.5767089,56.1994076 L63.914461,65.1205419 L63.9531255,65.1987324 C64.0988441,65.566903 63.7681536,65.9680952 63.3647752,65.8595435 L63.3647752,65.8595435 L58.052606,64.4294116 L56.6609719,69.6428417 L56.6324824,69.7231541 C56.4735542,70.0758796 55.9662618,70.1176575 55.7541098,69.763131 L55.7541098,69.763131 L50.3109627,60.6676841 C49.2426217,60.8854726 48.1350798,61 47,61 C45.8649202,61 44.7573783,60.8854726 43.6890373,60.6676841 L38.2458902,69.763131 C38.0337382,70.1176575 37.5264458,70.0758796 37.3675176,69.7231541 L37.3390281,69.6428417 L35.9473938,64.4294115 L30.6352248,65.8595435 C30.2318464,65.9680952 29.9011559,65.566903 30.0468745,65.1987324 L30.085539,65.1205419 L35.4232911,56.1994076 C32.6830265,53.41783 31,49.649863 31,45.5 C31,36.9369791 38.1660103,30 47,30 Z M57.8395514,56.901134 C56.0103595,58.5339728 53.7873634,59.7588895 51.3245393,60.4271475 L56.0006425,68.2418401 L57.2177212,63.6827385 L57.2483554,63.5987388 C57.3482217,63.3863522 57.5875053,63.2703216 57.8225552,63.333575 L57.8225552,63.333575 L62.4306551,64.5724149 Z M36.1604486,56.901134 L31.5693447,64.5724148 L36.1774447,63.333575 C36.4124947,63.2703216 36.6517783,63.3863522 36.7516446,63.5987388 L36.7822787,63.6827385 L37.9993573,68.24184 L42.6753702,60.427123 C40.2125821,59.7588595 37.9896181,58.5339528 36.1604486,56.901134 Z M47,31.0030375 C38.7201534,31.0030375 32.0126582,37.496156 32.0126582,45.5 C32.0126582,53.503844 38.7201534,59.9969625 47,59.9969625 C55.2798466,59.9969625 61.9873418,53.503844 61.9873418,45.5 C61.9873418,37.496156 55.2798466,31.0030375 47,31.0030375 Z M46.9623781,35.9191423 C52.4277345,35.9191423 56.8631865,40.1943744 56.8631865,45.4742805 C56.8631865,50.7541867 52.4277345,55.0294188 46.9623781,55.0294188 C41.4970217,55.0294188 37.0615697,50.7541867 37.0615697,45.4742805 C37.0615697,40.1943744 41.4970217,35.9191423 46.9623781,35.9191423 Z M46.9623781,36.9119365 C42.0467371,36.9119365 38.0667279,40.7481775 38.0667279,45.4742805 C38.0667279,50.2003835 42.0467371,54.0366246 46.9623781,54.0366246 C51.8780191,54.0366246 55.8580283,50.2003835 55.8580283,45.4742805 C55.8580283,40.7481775 51.8780191,36.9119365 46.9623781,36.9119365 Z" transform="translate(-30 -30)"/>
</svg>
