<svg xmlns="http://www.w3.org/2000/svg" width="48" height="45" viewBox="0 0 48 45">
  <defs>
    <linearGradient id="icon-27-5-a" x1="100%" x2="0%" y1="93.945%" y2="6.055%">
      <stop offset="0%" stop-color="#1E85E9"/>
      <stop offset="20.276%" stop-color="#8671F3"/>
      <stop offset="70.727%" stop-color="#C06CFD" stop-opacity=".99"/>
      <stop offset="100%" stop-color="#FFBEE8"/>
    </linearGradient>
  </defs>
  <path fill="url(#icon-27-5-a)" d="M965.470435,4108.26991 C965.581322,4108.26991 965.687696,4108.3093 965.771591,4108.37966 L965.830016,4108.43811 L973.223,4117.257 L980.540796,4108.43992 C980.612324,4108.35373 980.71127,4108.29664 980.819374,4108.27725 L980.901884,4108.26991 L988.845818,4108.26991 C989.216802,4108.26991 989.431831,4108.67548 989.253662,4108.981 L989.209379,4109.04475 L978.340449,4122.36408 C980.539344,4124.18946 981.941176,4126.95365 981.941176,4130.04757 C981.941176,4135.54414 977.516696,4140 972.058824,4140 C966.600951,4140 962.176471,4135.54414 962.176471,4130.04757 C962.176471,4126.33563 964.194273,4123.09832 967.185486,4121.38743 L957.086718,4109.0452 C956.850651,4108.75665 957.025133,4108.33136 957.372835,4108.27594 L957.449908,4108.26991 L965.470435,4108.26991 Z M972.058824,4121.04299 C967.120748,4121.04299 963.117647,4125.07447 963.117647,4130.04757 C963.117647,4135.02066 967.120748,4139.05215 972.058824,4139.05215 C976.996899,4139.05215 981,4135.02066 981,4130.04757 C981,4125.07447 976.996899,4121.04299 972.058824,4121.04299 Z M995.588235,4095 C996.3192,4095 996.920415,4095.48268 996.992711,4096.10121 L997,4096.22663 L997,4135.4788 C997,4136.11391 996.444471,4136.63628 995.73258,4136.6991 L995.588235,4136.70543 L981.598341,4136.70565 C981.826394,4136.40076 982.039194,4136.08451 982.235659,4135.75794 L995.588235,4135.75758 C995.819256,4135.75758 996.011396,4135.61388 996.051242,4135.42438 L996.058824,4135.35136 L996.058,4105.311 L949.941,4105.311 L949.941176,4135.35136 C949.941176,4135.55078 950.107647,4135.71664 950.327176,4135.75104 L950.411765,4135.75758 L961.881988,4135.75794 C962.078453,4136.08451 962.291253,4136.40076 962.519306,4136.70565 L950.411765,4136.70543 C949.6808,4136.70543 949.079585,4136.22275 949.007289,4135.60422 L949,4135.4788 L949,4096.22663 C949,4095.59152 949.555529,4095.06915 950.26742,4095.00633 L950.411765,4095 L995.588235,4095 Z M971.63683,4124.15072 C971.809448,4123.79848 972.308199,4123.79848 972.480817,4124.15072 L972.480817,4124.15072 L974.029647,4127.31318 L977.497165,4127.82116 C977.855581,4127.87361 978.014073,4128.28925 977.811262,4128.56789 L977.811262,4128.56789 L977.757972,4128.62953 L975.248471,4131.09131 L975.841897,4134.56842 C975.903436,4134.92976 975.556047,4135.21103 975.228765,4135.09832 L975.228765,4135.09832 L975.159097,4135.06802 L972.058824,4133.42587 L968.95855,4135.06802 C968.636329,4135.23862 968.263356,4134.99281 968.268666,4134.64451 L968.268666,4134.64451 L968.27575,4134.56842 L968.868235,4131.09131 L966.359675,4128.62953 C966.100323,4128.37493 966.214689,4127.94485 966.541393,4127.83948 L966.541393,4127.83948 L966.620482,4127.82116 L970.087059,4127.31318 Z M972.058824,4125.4317 L970.821188,4127.95683 C970.752641,4128.0967 970.62014,4128.19366 970.466864,4128.21609 L970.466864,4128.21609 L967.699294,4128.62027 L969.701964,4130.5869 C969.790692,4130.674 969.840829,4130.79182 969.843929,4130.91418 L969.843929,4130.91418 L969.837303,4131.00639 L969.364235,4133.78131 L971.839839,4132.47163 C971.949514,4132.41356 972.076269,4132.40195 972.192776,4132.43679 L972.192776,4132.43679 L972.277808,4132.47163 L974.752471,4133.78131 L974.280344,4131.00639 C974.259398,4130.8834 974.2876,4130.7584 974.356505,4130.65758 L974.356505,4130.65758 L974.415683,4130.5869 L976.417412,4128.62027 L973.650783,4128.21609 C973.528162,4128.19814 973.418837,4128.1325 973.344916,4128.03535 L973.344916,4128.03535 L973.296459,4127.95683 L972.058824,4125.4317 Z M987.848941,4109.21776 L981.121412,4109.21776 L972.093875,4120.0952 C974.127886,4120.10231 976.01713,4120.72827 977.585654,4121.79588 L987.848941,4109.21776 Z M965.251294,4109.21776 L958.446588,4109.21776 L968.045738,4120.94997 C968.906356,4120.56436 969.831817,4120.29897 970.801093,4120.17498 L972.61,4117.996 L965.251294,4109.21776 Z M995.588235,4095.94785 L950.411765,4095.94785 C950.180744,4095.94785 949.988604,4096.09155 949.948758,4096.28105 L949.941176,4096.35407 L949.941,4104.363 L996.058,4104.363 L996.058824,4096.35407 C996.058824,4096.15465 995.892353,4095.98879 995.672824,4095.9544 L995.588235,4095.94785 Z M958.894761,4099.69378 C959.15466,4099.69378 959.365349,4099.90596 959.365349,4100.16771 C959.365349,4100.40037 959.198879,4100.59387 958.97935,4100.634 L958.894761,4100.64163 L954.174173,4100.64163 C953.914274,4100.64163 953.703585,4100.42945 953.703585,4100.16771 C953.703585,4099.93505 953.870055,4099.74154 954.089584,4099.70142 L954.174173,4099.69378 L958.894761,4099.69378 Z M967.367647,4099.69378 C967.627546,4099.69378 967.838235,4099.90596 967.838235,4100.16771 C967.838235,4100.40037 967.671765,4100.59387 967.452236,4100.634 L967.367647,4100.64163 L962.647059,4100.64163 C962.38716,4100.64163 962.176471,4100.42945 962.176471,4100.16771 C962.176471,4099.93505 962.342941,4099.74154 962.56247,4099.70142 L962.647059,4099.69378 L967.367647,4099.69378 Z M992.773139,4099.68177 C993.033038,4099.6816 993.244026,4099.89365 993.244026,4100.15539 C993.244026,4100.38805 993.077823,4100.58166 992.85832,4100.62193 L992.773736,4100.62962 L973.941475,4100.64163 C973.681576,4100.6418 973.470588,4100.42975 973.470588,4100.16801 C973.470588,4099.93535 973.636791,4099.74174 973.856294,4099.70147 L973.940878,4099.69378 L992.773139,4099.68177 Z" transform="translate(-949 -4095)"/>
</svg>
