<svg xmlns="http://www.w3.org/2000/svg" width="35" height="35" viewBox="0 0 35 35">
  <defs>
    <linearGradient id="ico-stage-3-a" x1="100%" x2="0%" y1="100%" y2="0%">
      <stop offset="0%" stop-color="#1E85E9"/>
      <stop offset="20.276%" stop-color="#8671F3"/>
      <stop offset="70.727%" stop-color="#C06CFD" stop-opacity=".99"/>
      <stop offset="100%" stop-color="#FFBEE8"/>
    </linearGradient>
  </defs>
  <path fill="url(#ico-stage-3-a)" d="M135.5,62 C136.880712,62 138,63.1192881 138,64.5 C138,65.8807119 136.880712,67 135.5,67 C134.119288,67 133,65.8807119 133,64.5 C133,63.1192881 134.119288,62 135.5,62 Z M135.5,63 C134.671573,63 134,63.6715729 134,64.5 C134,65.3284271 134.671573,66 135.5,66 C136.328427,66 137,65.3284271 137,64.5 C137,63.6715729 136.328427,63 135.5,63 Z M127.827074,61.4012506 L127.913189,61.4282062 L131.691364,62.9933918 C131.946481,63.0990792 132.067618,63.3915692 131.96193,63.6466864 C131.867986,63.8734572 131.626445,63.9943669 131.394752,63.9442084 L131.308636,63.9172528 L127.530461,62.3520672 C127.275344,62.2463797 127.154207,61.9538898 127.259895,61.6987726 C127.353839,61.4720018 127.595381,61.3510921 127.827074,61.4012506 Z M142.828011,61.6822193 C142.930082,61.9054504 142.854117,62.164662 142.659595,62.3001572 L142.581208,62.3448568 L139.158113,63.9100423 C138.906978,64.024872 138.610305,63.9143747 138.495475,63.6632397 C138.393404,63.4400086 138.46937,63.1807969 138.663891,63.0453018 L138.742278,63.0006022 L142.165374,61.4354167 C142.416509,61.320587 142.713181,61.4310843 142.828011,61.6822193 Z M147.874369,58.3388348 C148.850679,59.3151455 148.850679,60.8980579 147.874369,61.8743687 C146.898058,62.8506794 145.315145,62.8506794 144.338835,61.8743687 C143.362524,60.8980579 143.362524,59.3151455 144.338835,58.3388348 C145.315145,57.362524 146.898058,57.362524 147.874369,58.3388348 Z M126.661165,58.3388348 C127.637476,59.3151455 127.637476,60.8980579 126.661165,61.8743687 C125.684855,62.8506794 124.101942,62.8506794 123.125631,61.8743687 C122.149321,60.8980579 122.149321,59.3151455 123.125631,58.3388348 C124.101942,57.362524 125.684855,57.362524 126.661165,58.3388348 Z M145.045942,59.0459415 C144.460155,59.631728 144.460155,60.5814755 145.045942,61.1672619 C145.631728,61.7530483 146.581475,61.7530483 147.167262,61.1672619 C147.753048,60.5814755 147.753048,59.631728 147.167262,59.0459415 C146.581475,58.4601551 145.631728,58.4601551 145.045942,59.0459415 Z M123.832738,59.0459415 C123.246952,59.631728 123.246952,60.5814755 123.832738,61.1672619 C124.418525,61.7530483 125.368272,61.7530483 125.954058,61.1672619 C126.539845,60.5814755 126.539845,59.631728 125.954058,59.0459415 C125.368272,58.4601551 124.418525,58.4601551 123.832738,59.0459415 Z M136.926367,40 C137.171827,40 137.375976,40.1768752 137.418312,40.4101244 L137.426367,40.5 L137.426,42.143 C137.988191,42.2907438 138.524582,42.4993761 139.034345,42.7677881 L139.337,42.936 L140.50065,41.7737826 C140.652534,41.6218994 140.877818,41.5881588 141.062313,41.6725542 L141.138552,41.7159565 L141.207799,41.7738242 L143.224467,43.7909681 C143.397862,43.9644036 143.417252,44.2335479 143.282554,44.4283886 L143.22482,44.4976388 L142.062,45.662 C142.355653,46.1628035 142.588752,46.6891547 142.759687,47.235509 L142.854775,47.5656776 L142.856,47.575 L144.5,47.5751473 C144.714777,47.5751473 144.897926,47.7105673 144.968719,47.9006811 L144.991944,47.9852716 L145,48.0751473 L145,50.9263675 C145,51.1718274 144.823125,51.3759758 144.589876,51.4183118 L144.5,51.4263675 L142.856,51.426 L142.759741,51.7659707 C142.623191,52.2026494 142.447315,52.62583 142.23194,53.0338518 L142.063,53.337 L143.226217,54.5006503 C143.378101,54.6525335 143.411841,54.8778177 143.327446,55.0623127 L143.284044,55.1385518 L143.226176,55.2077988 L141.209032,57.2244672 C141.035596,57.3978618 140.766452,57.4172525 140.571611,57.2825544 L140.502361,57.2248196 L139.337,56.062 C138.837068,56.355694 138.31084,56.5888099 137.764497,56.7597263 L137.434326,56.8547992 L137.424,56.856 L137.424853,58.5 C137.424853,58.7147774 137.289433,58.8979258 137.099319,58.9687187 L137.014728,58.9919443 L136.924853,59 L134.073633,59 C133.828173,59 133.624024,58.8231248 133.581688,58.5898756 L133.573633,58.5 L133.573,56.856 C133.011698,56.7091302 132.475466,56.5006101 131.965684,56.2310534 L131.663,56.062 L130.499938,57.2260729 C130.348125,57.3779341 130.122928,57.4117414 129.938442,57.3274588 L129.862201,57.2841076 L129.792942,57.2262957 L127.774007,55.209263 C127.60038,55.0357987 127.580949,54.7664214 127.71581,54.5714912 L127.773616,54.5022149 L128.937,53.336 C128.64436,52.8371045 128.411563,52.3114852 128.239177,51.7599932 L128.143,51.426 L126.5,51.4263675 C126.285223,51.4263675 126.102074,51.2909474 126.031281,51.1008337 L126.008056,51.0162431 L126,50.9263675 L126,48.0736325 C126,47.8281726 126.176875,47.6240242 126.410124,47.5816882 L126.5,47.5736325 L128.143,47.573 L128.240401,47.2340279 C128.376954,46.7974968 128.552733,46.3744063 128.765337,45.9703814 L128.931656,45.6710255 L128.936,45.662 L127.773665,44.49739 C127.621988,44.3454715 127.588369,44.1203108 127.672757,43.9359241 L127.716148,43.8597301 L127.773988,43.7905231 L129.791099,41.7738873 C129.964613,41.6004145 130.233903,41.5810947 130.42875,41.7159588 L130.497995,41.7737602 L131.662,42.938 C132.162736,42.6443444 132.688876,42.4112376 133.234135,42.2405551 L133.563534,42.1456515 L133.573,42.143 L133.573633,40.5 C133.573633,40.2852226 133.709053,40.1020742 133.899166,40.0312813 L133.983757,40.0080557 L134.073633,40 L136.926367,40 Z M136.426,41 L134.573,41 L134.573633,42.4677991 C134.573668,42.6828253 134.45729,42.8753343 134.277616,42.978304 L134.196892,43.0167565 L134.109347,43.0430726 C133.331648,43.2103879 132.590187,43.51881 131.921666,43.9533308 C131.71773,44.0853081 131.457402,44.076292 131.264673,43.9409273 L131.186574,43.8752209 L130.145,42.834 L128.834,44.144 L129.875034,45.1867677 C130.021232,45.3335392 130.07586,45.5417948 130.030614,45.7355281 L129.999629,45.8308327 L129.951767,45.9216056 C129.5189,46.5888553 129.210698,47.3304791 129.042905,48.1085996 C128.991165,48.3494855 128.796367,48.5294095 128.558642,48.5665554 L128.467679,48.5736326 L127,48.573 L127,50.426 L128.468234,50.4263676 C128.683809,50.4265192 128.87647,50.5437971 128.978761,50.7230596 L129.016871,50.8035206 L129.042735,50.890607 C129.210877,51.6690575 129.519113,52.4101538 129.953031,53.0788346 C130.084727,53.2826595 130.075692,53.5426904 129.940436,53.7353834 L129.874784,53.8134832 L128.834,54.855 L130.146,56.165 L131.186769,55.124585 C131.333608,54.9781592 131.542096,54.9235471 131.735982,54.9689434 L131.831355,55.0000136 L131.922176,55.0479795 C132.588917,55.4813489 133.330419,55.7896737 134.108733,55.9571233 C134.349616,56.0088626 134.529437,56.2037448 134.56656,56.4413942 L134.573633,56.5323215 L134.573,58 L136.424,58 L136.424853,56.5317662 C136.425004,56.316191 136.542282,56.1235298 136.721719,56.0212012 L136.802265,55.9830733 L136.889462,55.9571858 C137.668315,55.7895723 138.409923,55.4811959 139.078976,55.0464985 C139.2828,54.9148064 139.542811,54.923997 139.735309,55.0591009 L139.813314,55.124668 L140.855,56.164 L142.165,54.854 L141.124421,53.8130657 C140.978227,53.6662958 140.923759,53.4580255 140.969105,53.2642561 L141.000134,53.1689316 L141.048022,53.0781352 C141.481225,52.4112717 141.789546,51.6696413 141.957115,50.8913072 C142.008854,50.6504229 142.203711,50.4705713 142.441383,50.4334415 L142.532321,50.4263674 L144,50.426 L144,48.575 L142.531766,48.5751471 C142.316191,48.5749956 142.12353,48.4577177 142.021205,48.2783002 L141.983079,48.1977629 L141.957194,48.1105785 C141.789511,47.3317136 141.481136,46.5901052 141.046512,45.9210443 C140.914819,45.7172209 140.923987,45.4572064 141.059097,45.2646966 L141.124668,45.186686 L142.164,44.144 L140.854,42.834 L139.813066,43.8755794 C139.666296,44.0217727 139.458025,44.0762406 139.264241,44.0308851 L139.168908,43.9998513 L139.0781,43.9519553 C138.411295,43.5187119 137.669664,43.2103921 136.891284,43.0428803 C136.6504,42.9911409 136.470566,42.7962692 136.433441,42.5586103 L136.426367,42.4676785 L136.426,41 Z M121.314599,53.2120084 L121.359621,53.2902102 L122.953859,56.7391848 C123.069723,56.9898443 122.960449,57.2869701 122.70979,57.4028339 C122.486981,57.5058238 122.227459,57.4309275 122.091163,57.2369662 L122.046141,57.1587644 L120.451902,53.7097898 C120.336039,53.4591303 120.445312,53.1620045 120.695972,53.0461407 C120.91878,52.9431508 121.178303,53.0180471 121.314599,53.2120084 Z M149.699055,52.5842039 C149.925949,52.6778487 150.047178,52.9192302 149.997325,53.1509893 L149.970484,53.2371405 L148.511743,56.7715643 C148.406393,57.0268209 148.114063,57.1483438 147.858807,57.0429934 C147.631912,56.9493486 147.510683,56.7079671 147.560536,56.476208 L147.587378,56.3900568 L149.046118,52.8556329 C149.151468,52.6003764 149.443798,52.4788535 149.699055,52.5842039 Z M135.5,45 C137.985281,45 140,47.0147186 140,49.5 C140,51.9852814 137.985281,54 135.5,54 C133.014719,54 131,51.9852814 131,49.5 C131,47.0147186 133.014719,45 135.5,45 Z M135.5,46 C133.567003,46 132,47.5670034 132,49.5 C132,51.4329966 133.567003,53 135.5,53 C137.432997,53 139,51.4329966 139,49.5 C139,47.5670034 137.432997,46 135.5,46 Z M120.5,47 C121.880712,47 123,48.1192881 123,49.5 C123,50.8807119 121.880712,52 120.5,52 C119.119288,52 118,50.8807119 118,49.5 C118,48.1192881 119.119288,47 120.5,47 Z M150.5,47 C151.880712,47 153,48.1192881 153,49.5 C153,50.8807119 151.880712,52 150.5,52 C149.119288,52 148,50.8807119 148,49.5 C148,48.1192881 149.119288,47 150.5,47 Z M150.5,48 C149.671573,48 149,48.6715729 149,49.5 C149,50.3284271 149.671573,51 150.5,51 C151.328427,51 152,50.3284271 152,49.5 C152,48.6715729 151.328427,48 150.5,48 Z M120.5,48 C119.671573,48 119,48.6715729 119,49.5 C119,50.3284271 119.671573,51 120.5,51 C121.328427,51 122,50.3284271 122,49.5 C122,48.6715729 121.328427,48 120.5,48 Z M148.476115,41.4607923 L148.516001,41.5417342 L149.974742,45.3199088 C150.074203,45.577517 149.946,45.8669793 149.688392,45.9664409 C149.459407,46.0548513 149.205253,45.9633784 149.081746,45.7610331 L149.04186,45.6800912 L147.58312,41.9019166 C147.483658,41.6443084 147.611861,41.3548461 147.869469,41.2553845 C148.098454,41.1669741 148.352608,41.258447 148.476115,41.4607923 Z M122.234991,41.2516197 C122.465824,41.3350856 122.597663,41.5708395 122.558162,41.8045855 L122.535177,41.8918449 L121.375967,45.0977538 C121.282068,45.3574413 120.99543,45.4918392 120.735742,45.3979401 C120.504909,45.3144742 120.37307,45.0787203 120.41257,44.8449742 L120.435556,44.7577149 L121.594765,41.551806 C121.688665,41.2921185 121.975303,41.1577206 122.234991,41.2516197 Z M147.874369,37.1256313 C148.850679,38.1019421 148.850679,39.6848545 147.874369,40.6611652 C146.898058,41.637476 145.315145,41.637476 144.338835,40.6611652 C143.362524,39.6848545 143.362524,38.1019421 144.338835,37.1256313 C145.315145,36.1493206 146.898058,36.1493206 147.874369,37.1256313 Z M126.661165,37.1256313 C127.637476,38.1019421 127.637476,39.6848545 126.661165,40.6611652 C125.684855,41.637476 124.101942,41.637476 123.125631,40.6611652 C122.149321,39.6848545 122.149321,38.1019421 123.125631,37.1256313 C124.101942,36.1493206 125.684855,36.1493206 126.661165,37.1256313 Z M145.045942,37.8327381 C144.460155,38.4185245 144.460155,39.368272 145.045942,39.9540585 C145.631728,40.5398449 146.581475,40.5398449 147.167262,39.9540585 C147.753048,39.368272 147.753048,38.4185245 147.167262,37.8327381 C146.581475,37.2469517 145.631728,37.2469517 145.045942,37.8327381 Z M123.832738,37.8327381 C123.246952,38.4185245 123.246952,39.368272 123.832738,39.9540585 C124.418525,40.5398449 125.368272,40.5398449 125.954058,39.9540585 C126.539845,39.368272 126.539845,38.4185245 125.954058,37.8327381 C125.368272,37.2469517 124.418525,37.2469517 123.832738,37.8327381 Z M135.5,32 C136.880712,32 138,33.1192881 138,34.5 C138,35.8807119 136.880712,37 135.5,37 C134.119288,37 133,35.8807119 133,34.5 C133,33.1192881 134.119288,32 135.5,32 Z M131.957081,34.6220314 C132.056578,34.8464213 131.977637,35.1047424 131.781571,35.2379922 L131.702676,35.2817876 L127.924501,36.9570805 C127.672062,37.0690152 127.37668,36.9551142 127.264745,36.7026756 C127.165247,36.4782857 127.244188,36.2199646 127.440254,36.0867149 L127.51915,36.0429195 L131.297324,34.3676265 C131.549763,34.2556919 131.845146,34.3695928 131.957081,34.6220314 Z M139.054956,34.0110092 L139.141099,34.037879 L142.929429,35.6028502 C143.184651,35.7082833 143.30608,36.0006524 143.200646,36.2558748 C143.106928,36.4827391 142.865507,36.6038895 142.633764,36.5539619 L142.547622,36.5270921 L138.759292,34.962121 C138.504069,34.8566878 138.382641,34.5643187 138.488074,34.3090964 C138.581793,34.082232 138.823214,33.9610817 139.054956,34.0110092 Z M135.5,33 C134.671573,33 134,33.6715729 134,34.5 C134,35.3284271 134.671573,36 135.5,36 C136.328427,36 137,35.3284271 137,34.5 C137,33.6715729 136.328427,33 135.5,33 Z" transform="translate(-118 -32)"/>
</svg>
