<svg xmlns="http://www.w3.org/2000/svg" width="39" height="39" viewBox="0 0 39 39">
  <defs>
    <linearGradient id="icon-24-9-a" x1="100%" x2="0%" y1="100%" y2="0%">
      <stop offset="0%" stop-color="#1E85E9"/>
      <stop offset="20.276%" stop-color="#8671F3"/>
      <stop offset="70.727%" stop-color="#C06CFD" stop-opacity=".99"/>
      <stop offset="100%" stop-color="#FFBEE8"/>
    </linearGradient>
  </defs>
  <path fill="url(#icon-24-9-a)" d="M1547.5,3674 C1552.74671,3674 1557,3678.25329 1557,3683.5 L1557,3683.5 L1557,3703.5 C1557,3708.74671 1552.74671,3713 1547.5,3713 L1547.5,3713 L1527.5,3713 C1522.25329,3713 1518,3708.74671 1518,3703.5 L1518,3703.5 L1518,3683.5 C1518,3678.25329 1522.25329,3674 1527.5,3674 L1527.5,3674 Z M1519,3696.03271 L1519,3703.5 C1519,3708.19442 1522.80558,3712 1527.5,3712 L1527.5,3712 L1547.5,3712 C1552.19442,3712 1556,3708.19442 1556,3703.5 L1556,3703.5 L1556,3696.032 L1547.3269,3696.03271 C1547.14427,3696.03271 1546.97883,3695.9335 1546.89138,3695.77836 L1546.85443,3695.69633 L1544.647,3689.324 L1543.08826,3695.65235 C1542.96976,3696.1332 1542.31905,3696.1562 1542.14332,3695.73239 L1542.1148,3695.64168 L1539.12,3682.234 L1533.88899,3701.62561 C1533.77834,3702.03572 1533.25159,3702.12003 1533.01031,3701.80159 L1532.96323,3701.72716 L1527.883,3692.02 L1525.79409,3695.77584 C1525.72056,3695.90798 1525.59218,3695.99827 1525.44642,3696.0247 L1525.35718,3696.03271 L1519,3696.03271 Z M1519,3695.03271 L1525.063,3695.032 L1527.4608,3690.72416 C1527.63809,3690.40556 1528.07479,3690.38444 1528.28837,3690.65459 L1528.34073,3690.73549 L1533.256,3700.13 L1538.68401,3680.01453 C1538.811,3679.54386 1539.44739,3679.52624 1539.62422,3679.94045 L1539.65473,3680.03581 L1542.626,3693.346 L1544.08142,3687.4431 C1544.19265,3686.99174 1544.78875,3686.93462 1545.00025,3687.31167 L1545.03937,3687.39913 L1547.682,3695.032 L1556,3695.032 L1556,3683.5 C1556,3678.89093 1552.33155,3675.13868 1547.75516,3675.00376 L1547.5,3675 L1527.5,3675 C1522.80558,3675 1519,3678.80558 1519,3683.5 L1519,3683.5 L1519,3695.03271 Z" transform="translate(-1518 -3674)"/>
</svg>
