<svg xmlns="http://www.w3.org/2000/svg" width="24" height="40" viewBox="0 0 24 40">
  <defs>
    <linearGradient id="icon-13-2-a" x1="67.251%" x2="32.749%" y1="100%" y2="0%">
      <stop offset="0%" stop-color="#1E85E9"/>
      <stop offset="20.276%" stop-color="#8671F3"/>
      <stop offset="70.727%" stop-color="#C06CFD"/>
      <stop offset="100%" stop-color="#FFBEE8"/>
    </linearGradient>
  </defs>
  <path fill="url(#icon-13-2-a)" d="M559.9,2123 C560.728427,2123 561.4,2123.67157 561.4,2124.5 L561.4,2124.5 L561.4,2134.21067 C561.4,2134.67377 561.186099,2135.1109 560.820442,2135.39506 L560.820442,2135.39506 L551.139,2142.918 L560.820442,2150.44247 C561.186099,2150.72663 561.4,2151.16376 561.4,2151.62686 L561.4,2161.33753 C561.4,2162.16596 560.728427,2162.83753 559.9,2162.83753 L539.5,2162.83753 C538.671573,2162.83753 538,2162.16596 538,2161.33753 L538,2151.62686 C538,2151.16376 538.213901,2150.72663 538.579558,2150.44247 L548.26,2142.918 L538.579558,2135.39506 C538.254529,2135.14247 538.049407,2134.76902 538.007837,2134.3639 L538,2134.21067 L538,2124.5 C538,2123.67157 538.671573,2123 539.5,2123 L539.5,2123 Z M560.399,2158.4 L538.999,2158.4 L539,2161.33753 C539,2161.61367 539.223858,2161.83753 539.5,2161.83753 L559.9,2161.83753 C560.176142,2161.83753 560.4,2161.61367 560.4,2161.33753 L560.399,2158.4 Z M550.282094,2143.52013 C549.910398,2143.67666 549.489602,2143.67666 549.117906,2143.52013 L539.193186,2151.23206 C539.0713,2151.32678 539,2151.47249 539,2151.62686 L538.999,2157.4 L560.399,2157.4 L560.4,2151.62686 C560.4,2151.47249 560.3287,2151.32678 560.206814,2151.23206 Z M559.9,2124 L539.5,2124 C539.223858,2124 539,2124.22386 539,2124.5 L539,2124.5 L539,2134.21067 C539,2134.36504 539.0713,2134.51075 539.193186,2134.60547 L539.193186,2134.60547 L549.117906,2142.3174 C549.489602,2142.16087 549.910398,2142.16087 550.282094,2142.3174 L560.206814,2134.60547 C560.3287,2134.51075 560.4,2134.36504 560.4,2134.21067 L560.4,2134.21067 L560.4,2124.5 C560.4,2124.22386 560.176142,2124 559.9,2124 L559.9,2124 Z" transform="translate(-538 -2123)"/>
</svg>
