<svg xmlns="http://www.w3.org/2000/svg" width="35" height="40" viewBox="0 0 35 40">
  <defs>
    <linearGradient id="ico-international-testing-1-a" x1="89.228%" x2="10.772%" y1="100%" y2="0%">
      <stop offset="0%" stop-color="#1E85E9"/>
      <stop offset="20.276%" stop-color="#8671F3"/>
      <stop offset="70.727%" stop-color="#C06CFD" stop-opacity=".99"/>
      <stop offset="100%" stop-color="#FFBEE8"/>
    </linearGradient>
  </defs>
  <path fill="url(#ico-international-testing-1-a)" d="M52,254.5 C56.6944204,254.5 60.5,258.30558 60.5,263 C60.5,265.294609 59.5907691,267.376855 58.1129331,268.906114 L59.439,270.232 L59.7928932,269.87868 C59.9664596,269.705113 60.235884,269.685828 60.4307521,269.820824 L60.5,269.87868 L64.7426407,274.12132 C64.9379028,274.316582 64.9379028,274.633165 64.7426407,274.828427 L64.7426407,274.828427 L63.3284271,276.242641 C63.133165,276.437903 62.8165825,276.437903 62.6213203,276.242641 L62.6213203,276.242641 L58.3786797,272 C58.1834175,271.804738 58.1834175,271.488155 58.3786797,271.292893 L58.3786797,271.292893 L58.732,270.939 L57.3765696,269.583837 C55.9729986,270.731406 54.195705,271.439032 52.2551603,271.496243 L52,271.5 C47.3055796,271.5 43.5,267.69442 43.5,263 C43.5,258.30558 47.3055796,254.5 52,254.5 Z M60.1464466,270.93934 L59.4393398,271.646447 L62.9748737,275.181981 L63.6819805,274.474874 L60.1464466,270.93934 Z M52,255.5 C47.8578644,255.5 44.5,258.857864 44.5,263 C44.5,267.142136 47.8578644,270.5 52,270.5 C56.1421356,270.5 59.5,267.142136 59.5,263 C59.5,258.857864 56.1421356,255.5 52,255.5 Z M55.0010736,257.23277 C55.3546658,257.417144 55.6891812,257.633083 56.0008828,257.876848 L56,266 C56,267.054362 55.1841222,267.918165 54.1492623,267.994514 L54,268 L47.8480169,268.001323 C47.4897533,267.703571 47.1639943,267.368055 46.876848,267.000883 L54,267 L54.1166211,266.993272 C54.575703,266.939951 54.9399506,266.575703 54.9932723,266.116621 L55,266 L55.0010736,257.23277 Z M54,237 C55.0543618,237 55.9181651,237.815878 55.9945143,238.850738 L56,239 L56.0011612,254.381186 C55.6771855,254.23053 55.343297,254.097604 55.0007422,253.983653 L55,239 L54.9932723,238.883379 C54.9399506,238.424297 54.575703,238.060049 54.1166211,238.006728 L54,238 L37.5,238 L37.5,243 L37.4931334,243.14446 C37.4249915,243.857571 36.8575712,244.424991 36.14446,244.493133 L36,244.5 L31,244.5 L31,266 L31.0067277,266.116621 C31.0600494,266.575703 31.424297,266.939951 31.8833789,266.993272 L32,267 L43.3811863,267.001161 C43.5416273,267.346179 43.7221754,267.679955 43.921325,268.000983 L32,268 C30.9456382,268 30.0818349,267.184122 30.0054857,266.149262 L30,266 L30,243.031006 L35.9328613,237 L54,237 Z M44.2532761,257.499758 C44.0260058,257.819276 43.8180085,258.153457 43.6309801,258.500606 L35.9067383,258.5 L35.8168626,258.491944 C35.5836134,258.449608 35.4067383,258.24546 35.4067383,258 C35.4067383,257.75454 35.5836134,257.550392 35.8168626,257.508056 L35.9067383,257.5 L44.2532761,257.499758 Z M48.5349749,257.499583 L50,257.5 L50.0898756,257.508056 C50.3231248,257.550392 50.5,257.75454 50.5,258 C50.5,258.24546 50.3231248,258.449608 50.0898756,258.491944 L50,258.5 L47.3093956,258.500184 C47.6749371,258.119242 48.0864342,257.782738 48.5349749,257.499583 Z M50,253.5 L50.0898756,253.508056 C50.1899784,253.526225 50.279698,253.574197 50.3495093,253.642448 C49.4311966,253.80388 48.5595858,254.096111 47.7533797,254.499662 L35.9067383,254.5 L35.8168626,254.491944 C35.5836134,254.449608 35.4067383,254.24546 35.4067383,254 C35.4067383,253.75454 35.5836134,253.550392 35.8168626,253.508056 L35.9067383,253.5 L50,253.5 Z M50,249.5 L50.0898756,249.508056 C50.3231248,249.550392 50.5,249.75454 50.5,250 C50.5,250.24546 50.3231248,250.449608 50.0898756,250.491944 L50,250.5 L35.9067383,250.5 L35.8168626,250.491944 C35.5836134,250.449608 35.4067383,250.24546 35.4067383,250 C35.4067383,249.75454 35.5836134,249.550392 35.8168626,249.508056 L35.9067383,249.5 L50,249.5 Z M36.5,238 L36.352,238 L31,243.44 L31,243.5 L36,243.5 L36.0898756,243.491944 C36.2939687,243.4549 36.4549004,243.293969 36.4919443,243.089876 L36.5,243 L36.5,238 Z" transform="translate(-30 -237)"/>
</svg>
