<svg xmlns="http://www.w3.org/2000/svg" width="30" height="33" viewBox="0 0 30 33">
  <defs>
    <linearGradient id="ico-services-6-a" x1="90.252%" x2="9.748%" y1="100%" y2="0%">
      <stop offset="0%" stop-color="#1E85E9"/>
      <stop offset="20.276%" stop-color="#8671F3"/>
      <stop offset="70.727%" stop-color="#C06CFD" stop-opacity=".99"/>
      <stop offset="100%" stop-color="#FFBEE8"/>
    </linearGradient>
  </defs>
  <path fill="url(#ico-services-6-a)" d="M40.4624068,41.9139329 L42.3968148,42.0741375 C46.3458214,42.425319 49.2189121,43.2190264 49.2193726,51.524167 C49.2193726,56.330084 45.7092324,56.5657936 41.114663,56.5657936 L39.5756794,56.5620607 L29.1221725,56.5630285 L27.6156326,56.5646903 C23.2629021,56.5430544 20,56.1574156 20,51.524167 C20,41.9139329 23.8453274,42.3629544 28.7553672,41.9139329 C28.7937352,43.6732227 31.3990298,45.0928134 34.6080877,45.0928134 C37.8182113,45.0928134 40.422973,43.6732227 40.4624068,41.9139329 Z M41.2198873,42.9502689 L41.1735841,43.0631609 C40.3517029,44.8797272 37.6761717,46.0626715 34.6080877,46.0626715 C31.5403864,46.0626715 28.8646756,44.8794466 28.0435905,43.0626793 L27.9968422,42.9502689 L27.648045,42.9790722 C24.821554,43.2040364 23.7391833,43.4632901 22.8150982,44.3057188 C21.6099826,45.4043448 20.9698581,47.6071493 20.9698581,51.524167 C20.9698581,54.7801647 22.378626,55.5410935 27.4965255,55.5929922 L41.114663,55.5959355 C46.7307974,55.5959355 48.2495146,54.9058895 48.2495146,51.5242208 C48.2495146,47.6063047 47.6084965,45.403086 46.4023359,44.3044061 C45.511694,43.493129 44.4744462,43.2228735 41.873389,43.0035767 L41.2198873,42.9502689 Z M34.6091534,24 C39.0507837,24 42.6504493,27.6028379 42.6499164,32.0471912 C42.6499164,34.4090872 41.6320983,37.4045194 40.0115827,39.6922895 C39.4973447,40.4186165 38.9218245,41.0702843 38.2988772,41.61103 C37.8384611,42.0104565 37.3535321,42.346956 36.8472875,42.6039969 C36.1364135,42.9650272 35.3855728,43.1735396 34.6086205,43.1735396 C33.8322012,43.1735396 33.0829592,42.9660938 32.373151,42.6055967 C31.8658406,42.3474893 31.3793129,42.0104565 30.9188967,41.6104967 C30.2964823,41.0697511 29.7204292,40.4180832 29.2061913,39.6922895 C27.5856757,37.4045194 26.5683905,34.4096204 26.5683905,32.0471912 C26.5683905,27.6028379 30.168056,24 34.6091534,24 Z M34.6091534,24.9698581 C30.7039746,24.9698581 27.5382486,28.1381951 27.5382486,32.0471912 C27.5382486,34.2173488 28.5002708,37.0178064 29.9975503,39.1315974 C30.47693,39.8081924 31.0027283,40.3985718 31.5549328,40.8783199 C31.9659919,41.2354037 32.3875407,41.5247504 32.812327,41.7408719 C33.4170503,42.0479984 34.0163228,42.2036815 34.6086205,42.2036815 C35.2007623,42.2036815 35.8015741,42.0473131 36.4082071,41.7392234 C36.8308535,41.5246287 37.2507287,41.2363744 37.6631117,40.8786183 C38.2150387,40.3995214 38.7402049,39.809592 39.2201567,39.131692 C40.7176112,37.017654 41.6800583,34.2166357 41.6800583,32.0470749 C41.680527,28.1381502 38.5148458,24.9698581 34.6091534,24.9698581 Z" transform="translate(-20 -24)"/>
</svg>
