<svg xmlns="http://www.w3.org/2000/svg" width="35" height="46" viewBox="0 0 35 46">
  <defs>
    <linearGradient id="icon-25-2-a" x1="78.946%" x2="21.054%" y1="100%" y2="0%">
      <stop offset="0%" stop-color="#1E85E9"/>
      <stop offset="20.276%" stop-color="#8671F3"/>
      <stop offset="70.727%" stop-color="#C06CFD" stop-opacity=".99"/>
      <stop offset="100%" stop-color="#FFBEE8"/>
    </linearGradient>
  </defs>
  <path fill="url(#icon-25-2-a)" d="M549.706897,3812 C550.647909,3812 551.421231,3812.72013 551.508954,3813.64092 L551.517241,3813.81579 L551.517,3814.421 L558.155172,3814.42105 C559.105007,3814.42105 559.883992,3815.15475 559.959516,3816.08792 L559.965517,3816.23684 L559.965,3816.842 L564.189655,3816.84211 C565.130668,3816.84211 565.90399,3817.56223 565.991713,3818.48302 L566,3818.65789 L566,3856.18421 C566,3857.12805 565.282032,3857.9037 564.364003,3857.99169 L564.189655,3858 L532.810345,3858 C531.869332,3858 531.09601,3857.27987 531.008287,3856.35908 L531,3856.18421 L531,3818.65789 C531,3817.71405 531.717968,3816.9384 532.635997,3816.85042 L532.810345,3816.84211 L537.034,3816.842 L537.034483,3816.23684 C537.034483,3815.28415 537.765976,3814.50282 538.696351,3814.42707 L538.844828,3814.42105 L545.482,3814.421 L545.482759,3813.81579 C545.482759,3812.87195 546.200727,3812.0963 547.118755,3812.00831 L547.293103,3812 L549.706897,3812 Z M537.13752,3818.0527 L532.810345,3818.05263 C532.5141,3818.05263 532.267714,3818.26674 532.216619,3818.5491 L532.206897,3818.65789 L532.206897,3856.18421 C532.206897,3856.48135 532.420367,3856.72847 532.701874,3856.77972 L532.810345,3856.78947 L564.189655,3856.78947 C564.4859,3856.78947 564.732286,3856.57536 564.783381,3856.29301 L564.793103,3856.18421 L564.793103,3818.65789 C564.793103,3818.36076 564.579633,3818.11363 564.298126,3818.06238 L564.189655,3818.05263 L559.86248,3818.0527 C559.613937,3818.75791 558.943381,3819.26316 558.155172,3819.26316 L558.155172,3819.26316 L538.844828,3819.26316 C538.056619,3819.26316 537.386063,3818.75791 537.13752,3818.0527 Z M559.362069,3849.52632 C559.695344,3849.52632 559.965517,3849.7973 559.965517,3850.13158 C559.965517,3850.42871 559.752047,3850.67584 559.47054,3850.72709 L559.362069,3850.73684 L537.637931,3850.73684 C537.304656,3850.73684 537.034483,3850.46586 537.034483,3850.13158 C537.034483,3849.83444 537.247953,3849.58732 537.52946,3849.53607 L537.637931,3849.52632 L559.362069,3849.52632 Z M559.362069,3844.68421 C559.695344,3844.68421 559.965517,3844.9552 559.965517,3845.28947 C559.965517,3845.58661 559.752047,3845.83374 559.47054,3845.88499 L559.362069,3845.89474 L537.637931,3845.89474 C537.304656,3845.89474 537.034483,3845.62375 537.034483,3845.28947 C537.034483,3844.99234 537.247953,3844.74521 537.52946,3844.69396 L537.637931,3844.68421 L559.362069,3844.68421 Z M559.362069,3839.57523 C559.695344,3839.57523 559.965517,3839.84622 559.965517,3840.1805 C559.965517,3840.47763 559.752047,3840.72476 559.47054,3840.77601 L559.362069,3840.78576 L537.637931,3840.78576 C537.304656,3840.78576 537.034483,3840.51477 537.034483,3840.1805 C537.034483,3839.88336 537.247953,3839.63623 537.52946,3839.58499 L537.637931,3839.57523 L559.362069,3839.57523 Z M547.958866,3823.23213 C548.180219,3822.78227 548.819781,3822.78227 549.041134,3823.23213 L549.041134,3823.23213 L550.672414,3826.55053 L554.325909,3827.08329 C554.785515,3827.15028 554.988754,3827.68111 554.728683,3828.03696 L554.728683,3828.03696 L554.660348,3828.11569 L552.016897,3830.69779 L552.641744,3834.347 C552.720656,3834.80848 552.27519,3835.1677 551.855508,3835.02375 L551.855508,3835.02375 L551.766171,3834.98505 L548.5,3833.26168 L545.233829,3834.98505 C544.820637,3835.20293 544.342364,3834.889 544.349172,3834.44417 L544.349172,3834.44417 L544.358256,3834.347 L544.981897,3830.69779 L542.339652,3828.11569 C542.007078,3827.79053 542.153732,3827.24126 542.572673,3827.10669 L542.572673,3827.10669 L542.674091,3827.08329 L546.326379,3826.55053 Z M548.5,3824.86668 L547.267644,3827.37216 C547.179744,3827.5508 547.009834,3827.67462 546.813285,3827.70326 L546.813285,3827.70326 L544.057414,3828.10363 L546.051647,3830.05439 C546.165426,3830.16564 546.229718,3830.3161 546.233694,3830.47237 L546.233694,3830.47237 L546.225197,3830.59013 L545.753103,3833.34279 L548.219191,3832.04321 C548.35983,3831.96905 548.522371,3831.95422 548.671771,3831.99871 L548.671771,3831.99871 L548.780809,3832.04321 L551.24569,3833.34279 L550.774803,3830.59013 C550.747944,3830.43306 550.784108,3830.27342 550.872467,3830.14466 L550.872467,3830.14466 L550.948353,3830.05439 L552.941379,3828.10363 L550.186715,3827.70326 C550.029476,3827.68035 549.889285,3827.59652 549.794494,3827.47244 L549.794494,3827.47244 L549.732356,3827.37216 L548.5,3824.86668 Z M558.155172,3815.63158 L538.844828,3815.63158 C538.511552,3815.63158 538.241379,3815.90256 538.241379,3816.23684 L538.241379,3816.23684 L538.241379,3817.44737 C538.241379,3817.78165 538.511552,3818.05263 538.844828,3818.05263 L538.844828,3818.05263 L558.155172,3818.05263 C558.488448,3818.05263 558.758621,3817.78165 558.758621,3817.44737 L558.758621,3817.44737 L558.758621,3816.23684 C558.758621,3815.90256 558.488448,3815.63158 558.155172,3815.63158 L558.155172,3815.63158 Z M549.706897,3813.21053 L547.293103,3813.21053 C546.996859,3813.21053 546.750473,3813.42464 546.699378,3813.70699 L546.689655,3813.81579 L546.689,3814.421 L550.31,3814.421 L550.310345,3813.81579 C550.310345,3813.51865 550.096875,3813.27153 549.815367,3813.22028 L549.706897,3813.21053 Z" transform="translate(-531 -3812)"/>
</svg>
