<svg xmlns="http://www.w3.org/2000/svg" xmlns:xlink="http://www.w3.org/1999/xlink" width="62" height="62" viewBox="0 0 62 62">
  <defs>
    <linearGradient id="icon-1-5-b" x1="100%" x2="0%" y1="100%" y2="0%">
      <stop offset="0%" stop-color="#1E85E9"/>
      <stop offset="20.276%" stop-color="#8671F3"/>
      <stop offset="70.727%" stop-color="#C06CFD" stop-opacity=".99"/>
      <stop offset="100%" stop-color="#FFBEE8"/>
    </linearGradient>
    <rect id="icon-1-5-a" width="60" height="60" x="0" y="0" rx="4"/>
    <linearGradient id="icon-1-5-c" x1="86.24%" x2="13.76%" y1="100%" y2="0%">
      <stop offset="0%" stop-color="#1E85E9"/>
      <stop offset="20.276%" stop-color="#8671F3"/>
      <stop offset="70.727%" stop-color="#C06CFD" stop-opacity=".99"/>
      <stop offset="100%" stop-color="#FFBEE8"/>
    </linearGradient>
  </defs>
  <g fill="none" fill-rule="evenodd" transform="translate(1 1)">
    <g opacity=".062">
      <use fill="#FAFAFA" xlink:href="#icon-1-5-a"/>
      <use fill="url(#icon-1-5-b)" stroke="#000" stroke-opacity=".02" xlink:href="#icon-1-5-a"/>
    </g>
    <path fill="url(#icon-1-5-c)" fill-rule="nonzero" d="M30.5,29.5 C30.7454599,29.5 30.9496084,29.6768752 30.9919443,29.9101244 L31,30 L31,48 C31,48.2761424 30.7761424,48.5 30.5,48.5 C30.2545401,48.5 30.0503916,48.3231248 30.0080557,48.0898756 L30,48 L30,30 C30,29.7238576 30.2238576,29.5 30.5,29.5 Z M22.5,34.5 C22.7454599,34.5 22.9496084,34.6768752 22.9919443,34.9101244 L23,35 L23,48 C23,48.2761424 22.7761424,48.5 22.5,48.5 C22.2545401,48.5 22.0503916,48.3231248 22.0080557,48.0898756 L22,48 L22,35 C22,34.7238576 22.2238576,34.5 22.5,34.5 Z M15.5,39.5 C15.7454599,39.5 15.9496084,39.6768752 15.9919443,39.9101244 L16,40 L16,48 C16,48.2761424 15.7761424,48.5 15.5,48.5 C15.2545401,48.5 15.0503916,48.3231248 15.0080557,48.0898756 L15,48 L15,40 C15,39.7238576 15.2238576,39.5 15.5,39.5 Z M40.8726189,11.6661632 L40.9266409,11.739275 L46.4266409,20.739275 C46.5706354,20.9749023 46.4963523,21.2826465 46.260725,21.4266409 C46.0512785,21.554636 45.7848508,21.5101648 45.6270985,21.3332136 L45.5733591,21.260725 L41,13.775 L41,47.5135135 C41,47.7896559 40.7761424,48.0135135 40.5,48.0135135 C40.2545401,48.0135135 40.0503916,47.8366384 40.0080557,47.6033891 L40,47.5135135 L40,13.775 L35.4266409,21.260725 C35.2986459,21.4701715 35.0412683,21.5521361 34.8201649,21.4666328 L34.739275,21.4266409 C34.5298285,21.2986459 34.4478639,21.0412683 34.5333672,20.8201649 L34.5733591,20.739275 L40.0733591,11.739275 C40.2520768,11.4468278 40.6563145,11.4224572 40.8726189,11.6661632 Z"/>
  </g>
</svg>
