<svg xmlns="http://www.w3.org/2000/svg" width="47" height="41" viewBox="0 0 47 41">
  <defs>
    <linearGradient id="icon-24-1-a" x1="100%" x2="0%" y1="88.049%" y2="11.951%">
      <stop offset="0%" stop-color="#1E85E9"/>
      <stop offset="20.276%" stop-color="#8671F3"/>
      <stop offset="70.727%" stop-color="#C06CFD" stop-opacity=".99"/>
      <stop offset="100%" stop-color="#FFBEE8"/>
    </linearGradient>
  </defs>
  <path fill="url(#icon-24-1-a)" d="M412.859649,3673 C422.878288,3673 431,3680.91841 431,3690.68627 C431,3699.42974 424.49248,3706.69133 415.941974,3708.11827 L415.599201,3708.1722 L415.599201,3708.1722 L415.598875,3708.17223 C412.279746,3711.7512 407.479408,3714 402.140351,3714 C392.121712,3714 384,3706.08159 384,3696.31373 C384,3687.57026 390.50752,3680.30867 399.058026,3678.88173 L399.400799,3678.8278 L399.400799,3678.8278 L399.401125,3678.82777 C402.720254,3675.2488 407.520592,3673 412.859649,3673 Z M399.866541,3703.02846 L399.790364,3702.95179 C399.753636,3702.91459 399.717073,3702.87725 399.680677,3702.83974 C399.557693,3702.71301 399.436798,3702.58472 399.317845,3702.4547 C399.283892,3702.41759 399.249764,3702.37997 399.215798,3702.3422 C399.183885,3702.30672 399.152362,3702.27139 399.12098,3702.23594 C399.058544,3702.16541 398.996569,3702.09427 398.935165,3702.02266 C398.923725,3702.00931 398.912077,3701.99569 398.90045,3701.98204 C398.684372,3701.72847 398.475956,3701.46962 398.274931,3701.20511 C398.225826,3701.14049 398.177369,3701.07582 398.129354,3701.01082 C398.113134,3700.98886 398.096723,3700.96653 398.080363,3700.94417 C397.98246,3700.81031 397.886996,3700.6759 397.793411,3700.54015 C397.699371,3700.40374 397.60744,3700.26631 397.517434,3700.12757 C397.477567,3700.06612 397.437879,3700.0041 397.398575,3699.94182 C397.377044,3699.9077 397.355761,3699.87372 397.334593,3699.83967 L397.398575,3699.94182 C397.35182,3699.86774 397.305609,3699.79329 397.259948,3699.71849 C397.15693,3699.54971 397.056902,3699.37947 396.959725,3699.20747 C396.944235,3699.18006 396.928719,3699.15242 396.913276,3699.12474 C396.813122,3698.9452 396.716243,3698.76413 396.62252,3698.58126 C396.603284,3698.54373 396.584023,3698.50581 396.564897,3698.46781 C396.537163,3698.41271 396.50985,3698.35772 396.482823,3698.30258 C396.359508,3698.05098 396.242125,3697.79613 396.130836,3697.53816 C396.117885,3697.50814 396.10534,3697.47883 396.092874,3697.44949 C395.974633,3697.17119 395.863193,3696.88856 395.759089,3696.60254 C395.647747,3696.29662 395.544861,3695.98705 395.450623,3695.67387 C395.437881,3695.63153 395.425344,3695.58927 395.412963,3695.54695 C395.394334,3695.48326 395.376105,3695.41959 395.358234,3695.35577 C395.347355,3695.31692 395.336578,3695.27791 395.325935,3695.23884 C395.271647,3695.03959 395.220804,3694.83881 395.173511,3694.63671 C395.165856,3694.60399 395.158238,3694.571 395.150714,3694.53798 C395.137622,3694.4805 395.124896,3694.42328 395.112456,3694.36596 C395.099591,3694.30669 395.08711,3694.24768 395.074931,3694.18857 C395.068538,3694.15755 395.062169,3694.1262 395.055885,3694.09482 L395.074931,3694.18857 C395.00046,3693.82713 394.93729,3693.4617 394.885797,3693.09265 C394.877128,3693.03052 394.868785,3692.96825 394.860775,3692.90588 C394.83822,3692.73024 394.81831,3692.55384 394.80108,3692.37668 C394.796644,3692.33108 394.792354,3692.28507 394.788244,3692.239 C394.783268,3692.18321 394.778576,3692.12759 394.774149,3692.07189 C394.767238,3691.98494 394.760979,3691.89791 394.755367,3691.81071 C394.752556,3691.76703 394.749891,3691.72302 394.747391,3691.67896 C394.743635,3691.61275 394.740273,3691.54688 394.737282,3691.48092 C394.735737,3691.44685 394.734307,3691.41315 394.732974,3691.37943 C394.723892,3691.14982 394.719298,3690.91857 394.719298,3690.68627 C394.719298,3690.38527 394.727011,3690.08601 394.742254,3689.78869 C394.754148,3689.5568 394.770592,3689.32641 394.791519,3689.09727 C394.80695,3688.92834 394.824775,3688.76045 394.844992,3688.59327 C394.871607,3688.37316 394.902398,3688.1541 394.937262,3687.93636 C394.997955,3687.55732 395.070983,3687.18231 395.155942,3686.8117 C395.186195,3686.67973 395.217934,3686.54842 395.251163,3686.41769 L395.356867,3686.02166 C395.548968,3685.33489 395.782456,3684.66476 396.054556,3684.01398 C396.088937,3683.93175 396.124029,3683.84961 396.159736,3683.76778 L396.054556,3684.01398 C396.325935,3683.36492 396.635722,3682.73512 396.981165,3682.12724 C397.084781,3681.9449 397.191827,3681.76417 397.30202,3681.58549 C397.487329,3681.28498 397.682083,3680.9895 397.885427,3680.70022 C398.030177,3680.49429 398.179328,3680.29143 398.332705,3680.09184 L398.568838,3679.79129 L398.568838,3679.79129 L398.302083,3679.84757 C390.585964,3681.55006 384.824561,3688.27591 384.824561,3696.31373 C384.824561,3705.63759 392.577104,3713.19608 402.140351,3713.19608 C406.888288,3713.19608 411.189905,3711.33299 414.318059,3708.31575 L414.184162,3708.32613 C414.086036,3708.33303 413.987694,3708.33917 413.889141,3708.34455 L414.318059,3708.31575 C414.067603,3708.33541 413.815868,3708.34999 413.562879,3708.35945 C413.505536,3708.36164 413.448048,3708.36351 413.390493,3708.36512 C413.214432,3708.37006 413.037339,3708.37255 412.859649,3708.37255 C412.711797,3708.37255 412.564359,3708.37082 412.417353,3708.36739 L412.859649,3708.37255 C412.656705,3708.37255 412.454539,3708.3693 412.253204,3708.36285 C412.106398,3708.35815 411.960081,3708.35175 411.814225,3708.34367 C411.801411,3708.34296 411.78874,3708.34225 411.776072,3708.34152 C411.611965,3708.33209 411.448279,3708.32053 411.285209,3708.30686 C411.279398,3708.30637 411.273072,3708.30584 411.266747,3708.3053 C411.102228,3708.29134 410.938889,3708.2753 410.776204,3708.25717 C410.756212,3708.25494 410.735861,3708.25264 410.715521,3708.2503 C410.395048,3708.21351 410.077354,3708.1686 409.762437,3708.11578 C409.742416,3708.11243 409.722088,3708.10898 409.701773,3708.1055 C409.400724,3708.05397 409.102694,3707.99531 408.807407,3707.92962 C408.756473,3707.91829 408.705826,3707.9068 408.65526,3707.8951 C408.430337,3707.84305 408.207062,3707.78694 407.985495,3707.72682 L407.734267,3707.65674 L407.734267,3707.65674 L407.67337,3707.68367 L407.648351,3707.63189 C407.432515,3707.56889 407.218369,3707.50207 407.005995,3707.43152 C406.949064,3707.41261 406.891582,3707.3932 406.834231,3707.37351 C406.794908,3707.36002 406.755942,3707.34649 406.717039,3707.33285 C406.655513,3707.31126 406.594144,3707.28936 406.532931,3707.26715 C406.480436,3707.24811 406.427774,3707.22872 406.375229,3707.20911 C406.324361,3707.19012 406.273705,3707.17096 406.223161,3707.15158 C406.162758,3707.12842 406.102438,3707.10492 406.042278,3707.08112 C406.000505,3707.06459 405.959208,3707.04807 405.917988,3707.03141 C405.832264,3706.99677 405.746263,3706.96125 405.660605,3706.9251 C405.645688,3706.91881 405.630715,3706.91247 405.615753,3706.90611 C405.409792,3706.81855 405.205843,3706.72738 405.003969,3706.63267 L404.98555,3706.62402 C404.926899,3706.59643 404.868423,3706.56853 404.810125,3706.54034 C404.767959,3706.51995 404.725917,3706.49942 404.683968,3706.47874 C404.63551,3706.45485 404.58667,3706.43049 404.537958,3706.40593 C404.493437,3706.38348 404.449191,3706.36095 404.405053,3706.33824 C404.366186,3706.31824 404.327492,3706.29815 404.288882,3706.27794 C404.214663,3706.23907 404.140441,3706.19956 404.066535,3706.15955 C404.047829,3706.14942 404.029485,3706.13945 404.01116,3706.12945 C403.922571,3706.0811 403.83415,3706.03188 403.7462,3705.98196 C403.724788,3705.9698 403.703423,3705.95762 403.682087,3705.9454 C403.641772,3705.9223 403.601417,3705.89897 403.561162,3705.8755 C403.228458,3705.68147 402.902659,3705.47735 402.584212,3705.26357 C402.486149,3705.19774 402.388987,3705.13113 402.292533,3705.06362 C402.238952,3705.02612 402.185495,3704.98828 402.13226,3704.95016 C402.08853,3704.91884 402.045207,3704.88753 402.002033,3704.85603 C401.93764,3704.80905 401.873169,3704.76136 401.809037,3704.71327 C401.794846,3704.70262 401.780501,3704.69183 401.766173,3704.68102 C401.719632,3704.6459 401.67331,3704.61059 401.627169,3704.57507 C401.571644,3704.53233 401.516333,3704.48924 401.461287,3704.44584 C401.430979,3704.42194 401.400612,3704.39784 401.370327,3704.37365 C401.317732,3704.33163 401.265411,3704.28936 401.213338,3704.2468 C401.179604,3704.21923 401.146283,3704.1918 401.113065,3704.16425 C400.77965,3703.88779 400.456092,3703.59926 400.143612,3703.29978 L400.113949,3703.27129 C400.06844,3703.22747 400.023167,3703.18342 399.978133,3703.13914 C399.95941,3703.12073 399.940837,3703.10239 399.922305,3703.08401 L399.866541,3703.02846 L399.866541,3703.02846 Z M418.045824,3702.99822 L408.907286,3707.12686 L408.923282,3707.13049 L408.923282,3707.13049 L409.357042,3707.22307 C409.387696,3707.2292 409.41838,3707.23527 409.449093,3707.24125 C409.579816,3707.2667 409.710699,3707.29066 409.842093,3707.31317 L409.449093,3707.24125 C409.592548,3707.26918 409.736643,3707.29539 409.881353,3707.31985 L409.842093,3707.31317 C410.005312,3707.34114 410.169318,3707.36687 410.334077,3707.39035 L409.881353,3707.31985 C410.059667,3707.34999 410.238916,3707.37747 410.419056,3707.40224 L410.334077,3707.39035 C410.466941,3707.40928 410.600295,3707.42673 410.734121,3707.4427 L410.419056,3707.40224 C410.578615,3707.42419 410.738873,3707.44401 410.899799,3707.46169 L410.734121,3707.4427 C410.910292,3707.46373 411.08728,3707.48217 411.265045,3707.498 L410.899799,3707.46169 C411.077907,3707.48125 411.256833,3707.49818 411.436535,3707.51243 L411.265045,3707.498 C411.422591,3707.51202 411.580748,3707.52399 411.739486,3707.53387 L411.436535,3707.51243 C411.604334,3707.52574 411.772809,3707.53671 411.941926,3707.54532 C412.056549,3707.55115 412.170805,3707.55588 412.285342,3707.55952 L411.941926,3707.54532 C412.100148,3707.55338 412.258931,3707.55936 412.41825,3707.56325 L412.285342,3707.55952 C412.476014,3707.56557 412.667466,3707.56863 412.859649,3707.56863 L413.389897,3707.56087 C413.503474,3707.55754 413.616893,3707.55315 413.730142,3707.54768 C413.807249,3707.54394 413.884438,3707.53972 413.96149,3707.535 L413.730142,3707.54768 C413.893074,3707.53983 414.055655,3707.52976 414.217855,3707.5175 L413.96149,3707.535 C414.152856,3707.52328 414.343379,3707.50854 414.533009,3707.49081 L414.217855,3707.5175 C414.388836,3707.50458 414.559392,3707.48921 414.729488,3707.47142 L414.533009,3707.49081 C414.722635,3707.47308 414.911367,3707.45237 415.099157,3707.42873 L415.184088,3707.41588 L415.215,3707.381 L415.349,3707.228 L415.543149,3707.00379 C415.579444,3706.96058 415.615525,3706.9172 415.651388,3706.87364 C415.713869,3706.79799 415.775644,3706.72166 415.836707,3706.64486 L415.651388,3706.87364 C415.889842,3706.584 416.118701,3706.28653 416.337495,3705.98169 C416.393682,3705.9042 416.448995,3705.82577 416.503604,3705.74693 L416.337495,3705.98169 C416.423721,3705.86155 416.508383,3705.74027 416.591454,3705.61787 L416.503604,3705.74693 C416.595018,3705.61494 416.684456,3705.48179 416.771899,3705.34749 L416.591454,3705.61787 C416.678656,3705.48938 416.764104,3705.35966 416.847764,3705.22875 L416.848171,3705.22927 C416.966374,3705.04314 417.08139,3704.85512 417.192719,3704.66478 C417.230029,3704.60239 417.266395,3704.53928 417.302338,3704.47595 L417.192719,3704.66478 C417.274048,3704.52573 417.35341,3704.38545 417.430766,3704.24397 L417.302338,3704.47595 C417.382985,3704.33385 417.461498,3704.19066 417.537855,3704.0464 L417.430766,3704.24397 C417.505133,3704.10795 417.577646,3703.97082 417.648274,3703.83262 L417.537855,3704.0464 C417.627521,3703.877 417.714214,3703.70614 417.797896,3703.53388 L417.648274,3703.83262 C417.788289,3703.55863 417.920891,3703.28042 418.045824,3702.99822 Z M420.280702,3696.31373 C420.280702,3696.62965 420.272206,3696.94364 420.255424,3697.25549 C420.252515,3697.30954 420.249374,3697.36325 420.245987,3697.41691 C420.240482,3697.50412 420.234329,3697.59115 420.227533,3697.67801 C420.22241,3697.74349 420.216899,3697.80913 420.211021,3697.87467 C420.20097,3697.9867 420.189897,3698.09798 420.177771,3698.20895 C420.17281,3698.25436 420.167634,3698.30005 420.16228,3698.34569 C420.149872,3698.45144 420.136532,3698.55673 420.122247,3698.66172 C420.117111,3698.69947 420.111867,3698.73708 420.106503,3698.77465 C420.09099,3698.8833 420.074456,3698.99169 420.056917,3699.09975 C420.048329,3699.15266 420.039544,3699.20524 420.030522,3699.25774 C420.017765,3699.33197 420.004531,3699.40606 419.990827,3699.47999 C419.976477,3699.55739 419.961627,3699.63454 419.946265,3699.71151 C419.885733,3700.01478 419.817314,3700.31504 419.741178,3700.61233 C419.733356,3700.64287 419.725565,3700.67295 419.717694,3700.703 C419.688258,3700.81539 419.657611,3700.92774 419.625863,3701.03964 C419.607739,3701.10352 419.589341,3701.16697 419.57059,3701.23027 C419.549599,3701.30114 419.528085,3701.37208 419.506129,3701.44284 C419.485691,3701.5087 419.464984,3701.57404 419.443901,3701.63922 C419.413127,3701.73437 419.381381,3701.82966 419.348832,3701.9246 C419.341386,3701.94631 419.334062,3701.96754 419.326698,3701.98874 L419.494231,3702.34198 L419.138703,3702.50358 L419.114148,3702.56727 C419.078729,3702.65861 419.042558,3702.74958 419.00564,3702.84019 L419.138703,3702.50358 C419.075209,3702.66925 419.009239,3702.83375 418.940838,3702.99703 C418.83057,3703.26024 418.713994,3703.52027 418.591284,3703.77695 C418.569466,3703.82258 418.547546,3703.86792 418.525434,3703.91316 C418.480947,3704.00417 418.435678,3704.09478 418.389642,3704.18494 C418.368081,3704.22717 418.346294,3704.26941 418.324339,3704.31156 C418.273634,3704.40889 418.22229,3704.50523 418.170069,3704.60105 C418.151788,3704.63459 418.133196,3704.66844 418.114494,3704.70222 C418.064713,3704.79213 418.014596,3704.88081 417.963724,3704.96903 C417.931689,3705.02458 417.899274,3705.08008 417.866562,3705.1354 C417.832959,3705.19221 417.799168,3705.24862 417.765067,3705.30483 C417.612418,3705.55644 417.453704,3705.80383 417.288994,3706.04701 C417.235507,3706.12598 417.181353,3706.20456 417.126573,3706.28269 C417.108241,3706.30884 417.089865,3706.33489 417.07142,3706.3609 C417.011918,3706.44479 416.951766,3706.52806 416.890899,3706.61079 C416.84707,3706.67037 416.803093,3706.72937 416.758753,3706.78809 C416.707868,3706.85549 416.656233,3706.92287 416.604118,3706.98988 C416.568036,3707.03627 416.531955,3707.0822 416.495649,3707.12794 C416.474153,3707.15502 416.452696,3707.1819 416.431162,3707.20871 C424.280517,3705.60474 430.175439,3698.81669 430.175439,3690.68627 C430.175439,3681.36241 422.422896,3673.80392 412.859649,3673.80392 C408.111712,3673.80392 403.810095,3675.66701 400.681941,3678.68425 L400.815838,3678.67387 C400.913964,3678.66697 401.012306,3678.66083 401.110859,3678.65545 L400.681941,3678.68425 C400.932397,3678.66459 401.184132,3678.65001 401.437121,3678.64055 C401.494464,3678.63836 401.551952,3678.63649 401.609507,3678.63488 C401.785568,3678.62994 401.962661,3678.62745 402.140351,3678.62745 C412.15899,3678.62745 420.280702,3686.54587 420.280702,3696.31373 Z M419.45091,3695.89466 L402.022489,3703.85427 C402.032177,3703.86186 402.041873,3703.86944 402.051578,3703.87701 L402.360061,3704.11208 C402.397952,3704.1403 402.435967,3704.16836 402.474103,3704.19627 C402.696472,3704.35902 402.922853,3704.51658 403.153195,3704.66887 C403.188286,3704.69207 403.223686,3704.71529 403.259178,3704.73839 L403.259333,3704.73849 C403.402275,3704.8315 403.546875,3704.9226 403.692934,3705.01163 C403.784493,3705.06743 403.87647,3705.12234 403.969007,3705.17643 L403.692934,3705.01163 C403.819158,3705.08857 403.946472,3705.16396 404.074848,3705.23779 L403.969007,3705.17643 C404.398838,3705.42766 404.840774,3705.66122 405.29376,3705.8761 C405.323471,3705.89019 405.353169,3705.90417 405.382915,3705.91808 L405.382941,3705.91809 C405.542947,3705.99288 405.704341,3706.06536 405.867051,3706.13547 C405.973054,3706.18114 406.07929,3706.22567 406.186067,3706.26919 L405.867051,3706.13547 C406.014128,3706.19884 406.16228,3706.26028 406.311473,3706.31974 L406.186067,3706.26919 C406.347291,3706.3349 406.509752,3706.3983 406.673405,3706.45935 L406.311473,3706.31974 C406.471452,3706.3835 406.632627,3706.445 406.794958,3706.50418 L406.673405,3706.45935 C406.981186,3706.57417 407.293186,3706.68066 407.609117,3706.77856 C407.630604,3706.78522 407.652243,3706.79188 407.6739,3706.7985 L418.480118,3701.91555 C418.547363,3701.72909 418.611345,3701.54114 418.671998,3701.35175 C418.702563,3701.25668 418.732116,3701.16135 418.760808,3701.06573 L418.671998,3701.35175 C418.718179,3701.20755 418.762431,3701.06252 418.804723,3700.91669 L418.760808,3701.06573 C418.801839,3700.92898 418.841109,3700.79163 418.878605,3700.65371 L418.804723,3700.91669 C418.848935,3700.76424 418.891006,3700.61091 418.930901,3700.45673 L418.878605,3700.65371 C418.931047,3700.4608 418.980016,3700.26678 419.025473,3700.0717 L419.122942,3699.62627 C419.141674,3699.53447 419.159644,3699.4424 419.176843,3699.35006 C419.18941,3699.28163 419.201696,3699.21325 419.213556,3699.14476 L419.176843,3699.35006 C419.196838,3699.24272 419.215792,3699.13502 419.233694,3699.02698 L419.213556,3699.14476 C419.238226,3699.00229 419.261047,3698.85934 419.282004,3698.71594 L419.233694,3699.02698 C419.263607,3698.84646 419.290584,3698.66498 419.314576,3698.48259 L419.282004,3698.71594 C419.304351,3698.56303 419.324578,3698.40961 419.342668,3698.25571 L419.314576,3698.48259 C419.331959,3698.35044 419.347775,3698.21781 419.362006,3698.08472 L419.342668,3698.25571 C419.36109,3698.09899 419.377295,3697.94176 419.391264,3697.78408 L419.362006,3698.08472 C419.378548,3697.93001 419.392946,3697.77468 419.405173,3697.61875 L419.391264,3697.78408 C419.405461,3697.62383 419.417348,3697.4631 419.426905,3697.30194 L419.405173,3697.61875 C419.438944,3697.18806 419.45614,3696.75285 419.45614,3696.31373 L419.453873,3696.03775 C419.453089,3695.99 419.4521,3695.9423 419.45091,3695.89466 Z M418.356947,3690.38153 L397.905581,3699.20314 L398.128411,3699.56385 C398.141785,3699.5849 398.155205,3699.60592 398.168671,3699.62691 C398.327937,3699.87516 398.493859,3700.11939 398.666004,3700.35906 C398.683265,3700.38309 398.701031,3700.40769 398.718862,3700.43224 L398.666004,3700.35906 C398.756504,3700.48506 398.848725,3700.60979 398.942633,3700.73324 L398.718862,3700.43224 C398.812787,3700.56154 398.908531,3700.6895 399.006057,3700.81609 L398.942633,3700.73324 C399.145999,3701.00058 399.357276,3701.26185 399.576127,3701.51672 C399.597085,3701.54113 399.618015,3701.56537 399.639014,3701.58955 L399.576127,3701.51672 C399.689448,3701.6487 399.804801,3701.77896 399.922137,3701.90747 L399.639014,3701.58955 C399.748779,3701.71594 399.860416,3701.84073 399.973883,3701.96388 L399.922137,3701.90747 C400.010261,3702.00398 400.099504,3702.0995 400.189846,3702.194 L399.973883,3701.96388 C400.079569,3702.0786 400.186844,3702.19189 400.295672,3702.30373 L400.614197,3702.62259 C400.846433,3702.84907 401.085237,3703.06914 401.330306,3703.28251 L419.145988,3695.14579 L419.447314,3695.76952 C419.446751,3695.75218 419.446161,3695.73485 419.445544,3695.71753 L419.424614,3695.28652 C419.423133,3695.26247 419.421601,3695.23843 419.420017,3695.2144 C419.400089,3694.9121 419.371994,3694.61192 419.335949,3694.31411 C419.328392,3694.25167 419.32044,3694.18898 419.312136,3694.1264 L419.335949,3694.31411 C419.29477,3693.97389 419.243215,3693.63677 419.1816,3693.30305 C419.175825,3693.27177 419.169957,3693.2405 419.164002,3693.20926 L419.1816,3693.30305 C418.995538,3692.29531 418.717744,3691.31863 418.356947,3690.38153 Z M414.797544,3684.79282 L395.801683,3693.60494 C395.807289,3693.6363 395.812983,3693.66763 395.818766,3693.69893 L395.801862,3693.60595 C395.861526,3693.9396 395.931237,3694.26989 396.01068,3694.5965 C396.016471,3694.62031 396.022274,3694.64394 396.028128,3694.66755 L396.01068,3694.5965 C396.052459,3694.76827 396.096929,3694.93902 396.144044,3695.10871 L396.028128,3694.66755 C396.067873,3694.82784 396.109963,3694.98723 396.154362,3695.1457 L396.144044,3695.10871 C396.234459,3695.43433 396.334616,3695.75606 396.444192,3696.07356 C396.455078,3696.1051 396.465975,3696.13637 396.476963,3696.1676 L396.444192,3696.07356 C396.502426,3696.2423 396.563319,3696.40984 396.626825,3696.57615 L396.476963,3696.1676 C396.532099,3696.32428 396.589533,3696.47992 396.649226,3696.63448 L396.626825,3696.57615 C396.802896,3697.03723 396.999043,3697.48879 397.21423,3697.92981 C397.24135,3697.98539 397.268671,3698.0406 397.296291,3698.09565 L397.21423,3697.92981 C397.298928,3698.1034 397.386577,3698.27536 397.477112,3698.44562 L397.296291,3698.09565 C397.364141,3698.23087 397.433791,3698.36507 397.50521,3698.49823 L418.048657,3689.63568 L417.85594,3689.21579 C417.841047,3689.1845 417.826058,3689.15326 417.810975,3689.12207 L417.625786,3688.75104 C417.623366,3688.74634 417.620943,3688.74164 417.618518,3688.73694 C417.616691,3688.7334 417.614792,3688.72972 417.612891,3688.72604 L417.618518,3688.73694 C417.246798,3688.01653 416.823725,3687.32563 416.353982,3686.66883 L416.078896,3686.29512 C416.060119,3686.27033 416.041275,3686.24559 416.022362,3686.22091 C415.954101,3686.1318 415.885015,3686.04345 415.815061,3685.95579 L416.022362,3686.22091 C415.92275,3686.09088 415.821261,3685.9623 415.717934,3685.8352 L415.815061,3685.95579 C415.511101,3685.57488 415.190767,3685.20701 414.855088,3684.85318 C414.835776,3684.83283 414.816685,3684.8128 414.797544,3684.79282 Z M408.488724,3680.60205 L396.070631,3686.86277 L396.014312,3686.76113 C395.972202,3686.93355 395.932805,3687.107 395.896167,3687.28144 C395.796829,3687.75527 395.717911,3688.23525 395.660203,3688.72002 C395.657485,3688.74156 395.654992,3688.76287 395.65254,3688.7842 L395.660203,3688.72002 C395.64474,3688.84992 395.630799,3688.98016 395.618393,3689.11072 L395.65254,3688.7842 C395.631443,3688.96764 395.613361,3689.15198 395.598343,3689.33716 L395.618393,3689.11072 C395.581508,3689.49891 395.558183,3689.88995 395.548709,3690.28331 C395.546827,3690.36107 395.545498,3690.43898 395.544712,3690.51701 L395.54386,3690.68627 C395.54386,3691.01566 395.553535,3691.34283 395.572623,3691.66755 C395.575421,3691.71516 395.578435,3691.76292 395.581652,3691.81063 L395.572623,3691.66755 C395.594521,3692.04008 395.628808,3692.40938 395.675089,3692.77505 L414.187036,3684.18665 C414.168659,3684.16929 414.150243,3684.15198 414.131787,3684.1347 L413.888732,3683.91149 C413.83508,3683.86315 413.781114,3683.81514 413.726837,3683.76747 C413.646219,3683.69664 413.56425,3683.62599 413.481595,3683.55608 L413.726837,3683.76747 C413.63208,3683.68423 413.536377,3683.602 413.439743,3683.52079 L413.481595,3683.55608 C413.236232,3683.34856 412.984823,3683.14766 412.72766,3682.95366 C412.721015,3682.94864 412.714008,3682.94337 412.706998,3682.93809 L412.72766,3682.95366 C412.610504,3682.86528 412.492153,3682.77833 412.372636,3682.69284 L412.706998,3682.93809 C412.565571,3682.83173 412.42241,3682.72746 412.277564,3682.62532 L412.372636,3682.69284 C412.244719,3682.60134 412.115465,3682.51151 411.984908,3682.42339 L412.277564,3682.62532 C412.155849,3682.53948 412.032944,3682.45516 411.908877,3682.37236 C411.7958,3682.2969 411.68186,3682.22278 411.566978,3682.14996 L411.908877,3682.37236 C411.765735,3682.27684 411.621047,3682.18336 411.474857,3682.09196 L411.566978,3682.14996 C411.424448,3682.0596 411.280468,3681.97123 411.135081,3681.8849 L411.474857,3682.09196 C411.342837,3682.00942 411.209592,3681.92858 411.075154,3681.84947 L411.135081,3681.8849 C410.855082,3681.71862 410.569862,3681.55988 410.279717,3681.40895 C410.268969,3681.40336 410.258336,3681.39784 410.247697,3681.39234 L410.279717,3681.40895 C410.157357,3681.3453 410.03412,3681.28304 409.91003,3681.2222 L410.247697,3681.39234 C410.091229,3681.31136 409.933335,3681.23265 409.774062,3681.15625 C409.663813,3681.10338 409.553068,3681.05168 409.44168,3681.00111 L409.774062,3681.15625 C409.628479,3681.08643 409.481745,3681.01853 409.333893,3680.95261 L409.44168,3681.00111 C409.14037,3680.86431 408.83435,3680.73572 408.523922,3680.61562 L408.523735,3680.61555 L408.488724,3680.60205 L408.488724,3680.60205 Z M402.140351,3679.43137 L401.610103,3679.43913 C401.496526,3679.44246 401.383107,3679.44685 401.269858,3679.45232 C401.192751,3679.45606 401.115562,3679.46028 401.03851,3679.465 L401.269858,3679.45232 C401.106926,3679.46017 400.944345,3679.47024 400.782145,3679.4825 L401.03851,3679.465 C400.847144,3679.47672 400.656621,3679.49146 400.466991,3679.50919 L400.782145,3679.4825 C400.611164,3679.49542 400.440608,3679.51079 400.270512,3679.52858 L400.466991,3679.50919 C400.26529,3679.52805 400.0646,3679.55028 399.864979,3679.57582 L399.815088,3679.58331 L399.661,3679.758 L399.486214,3679.96135 C399.454284,3679.99916 399.422519,3680.0371 399.390921,3680.07518 C399.33161,3680.14643 399.272941,3680.21828 399.214906,3680.29055 L399.390921,3680.07518 C399.289468,3680.19743 399.18973,3680.32109 399.091744,3680.44613 L399.214906,3680.29055 C399.132385,3680.3933 399.051145,3680.4969 398.971198,3680.60133 L399.091744,3680.44613 C399.001854,3680.56084 398.913437,3680.67671 398.826522,3680.7937 L398.971198,3680.60133 C398.833151,3680.78164 398.698957,3680.96442 398.568676,3681.14955 L398.826522,3680.7937 C398.721104,3680.9356 398.617894,3681.07917 398.516943,3681.22434 L398.568676,3681.14955 C398.487166,3681.26537 398.407187,3681.38211 398.328753,3681.49975 L398.516943,3681.22434 C398.410954,3681.37677 398.307453,3681.53097 398.206499,3681.68689 L398.328753,3681.49975 C398.246951,3681.62244 398.16683,3681.7461 398.088407,3681.87071 L398.206499,3681.68689 C398.123867,3681.81452 398.042941,3681.9433 397.963751,3682.07321 L398.088407,3681.87071 C398.016362,3681.98518 397.945749,3682.10045 397.876581,3682.21649 L397.963751,3682.07321 C397.884247,3682.20363 397.806494,3682.33518 397.730522,3682.46784 L397.876581,3682.21649 C397.815729,3682.31858 397.755996,3682.42126 397.697389,3682.52453 L397.730522,3682.46784 C397.473319,3682.91696 397.236542,3683.37871 397.021419,3683.8519 C397.011117,3683.87318 397.001622,3683.8942 396.992172,3683.91523 L397.021419,3683.8519 C396.970945,3683.96293 396.921663,3684.07459 396.873589,3684.18686 L396.992172,3683.91523 C396.922161,3684.07104 396.854571,3684.22792 396.789428,3684.38582 L396.873589,3684.18686 C396.817764,3684.31723 396.763568,3684.44842 396.711026,3684.58043 L396.789428,3684.38582 C396.740702,3684.50393 396.693344,3684.6226 396.647367,3684.74182 L396.711026,3684.58043 C396.65866,3684.71199 396.607936,3684.84435 396.558879,3684.97748 L396.647367,3684.74182 C396.509278,3685.09991 396.383636,3685.46294 396.270733,3685.8304 C396.267718,3685.84052 396.264665,3685.85048 396.261622,3685.86045 L407.424928,3680.23203 C407.100906,3680.1309 406.772732,3680.03882 406.440718,3679.95609 C406.423019,3679.95168 406.405316,3679.9473 406.387602,3679.94295 L406.440718,3679.95609 C406.275209,3679.91486 406.108747,3679.87594 405.941369,3679.83939 L406.387602,3679.94295 C406.19337,3679.8952 405.997834,3679.85064 405.801055,3679.80935 L405.941369,3679.83939 C405.778793,3679.80389 405.615353,3679.77062 405.451085,3679.73961 L405.801055,3679.80935 C405.651169,3679.7779 405.500563,3679.74834 405.349263,3679.7207 C405.205384,3679.69441 405.060204,3679.66975 404.914415,3679.64686 L405.349263,3679.7207 C405.166839,3679.68737 404.983406,3679.65683 404.799013,3679.62913 L404.914415,3679.64686 C404.731226,3679.6181 404.547076,3679.59214 404.362013,3679.56903 L404.799013,3679.62913 C404.618428,3679.602 404.436922,3679.57759 404.25454,3679.55595 L404.362013,3679.56903 C404.013136,3679.52547 403.661013,3679.49203 403.305962,3679.46902 C403.26058,3679.46608 403.215296,3679.46332 403.169964,3679.46072 L403.305962,3679.46902 C403.122228,3679.45711 402.93771,3679.448 402.752452,3679.44172 L403.169964,3679.46072 C402.983026,3679.45004 402.795292,3679.44224 402.606807,3679.43738 L402.752452,3679.44172 C402.549288,3679.43484 402.345235,3679.43137 402.140351,3679.43137 Z" transform="translate(-384 -3673)"/>
</svg>
