<svg xmlns="http://www.w3.org/2000/svg" width="38" height="28" viewBox="0 0 38 28">
  <defs>
    <linearGradient id="icon-19-6-a" x1="100%" x2="0%" y1="77.147%" y2="22.853%">
      <stop offset="0%" stop-color="#1E85E9"/>
      <stop offset="20.276%" stop-color="#8671F3"/>
      <stop offset="70.727%" stop-color="#C06CFD" stop-opacity=".99"/>
      <stop offset="100%" stop-color="#FFBEE8"/>
    </linearGradient>
  </defs>
  <path fill="url(#icon-19-6-a)" d="M1130.5,2975 C1131.32843,2975 1132,2975.67157 1132,2976.5 L1132,2976.5 L1132,3001.5 C1132,3002.32843 1131.32843,3003 1130.5,3003 L1130.5,3003 L1095.5,3003 C1094.67157,3003 1094,3002.32843 1094,3001.5 L1094,3001.5 L1094,2976.5 C1094,2975.67157 1094.67157,2975 1095.5,2975 L1095.5,2975 Z M1104,2980.699 L1095,2980.699 L1095,3001.5 C1095,3001.74546 1095.17688,3001.94961 1095.41012,3001.99194 L1095.5,3002 L1104,3002 L1104,2980.699 Z M1131,2980.699 L1105,2980.699 L1105,3002 L1130.5,3002 C1130.74546,3002 1130.94961,3001.82312 1130.99194,3001.58988 L1131,3001.5 L1131,2980.699 Z M1098.25635,2998 C1098.53249,2998 1098.75635,2998.22386 1098.75635,2998.5 C1098.75635,2998.74546 1098.57947,2998.94961 1098.34622,2998.99194 L1098.25635,2999 L1097.43188,2999 C1097.15574,2999 1096.93188,2998.77614 1096.93188,2998.5 C1096.93188,2998.25454 1097.10876,2998.05039 1097.34201,2998.00806 L1097.43188,2998 L1098.25635,2998 Z M1099.75366,2996 C1100.0298,2996 1100.25366,2996.22386 1100.25366,2996.5 C1100.25366,2996.74546 1100.07679,2996.94961 1099.84354,2996.99194 L1099.75366,2997 L1097.43188,2997 C1097.15574,2997 1096.93188,2996.77614 1096.93188,2996.5 C1096.93188,2996.25454 1097.10876,2996.05039 1097.34201,2996.00806 L1097.43188,2996 L1099.75366,2996 Z M1099.75366,2994 C1100.0298,2994 1100.25366,2994.22386 1100.25366,2994.5 C1100.25366,2994.74546 1100.07679,2994.94961 1099.84354,2994.99194 L1099.75366,2995 L1097.43188,2995 C1097.15574,2995 1096.93188,2994.77614 1096.93188,2994.5 C1096.93188,2994.25454 1097.10876,2994.05039 1097.34201,2994.00806 L1097.43188,2994 L1099.75366,2994 Z M1111.37,2987.5 C1112.17,2987.5 1112.77,2987.71 1113.21,2988.01 C1113.4,2988.14 1113.48,2988.3 1113.38,2988.46 C1113.28,2988.62 1113.1,2988.59 1112.89,2988.46 C1112.45,2988.19 1111.95,2988.04 1111.35,2988.04 C1109.66,2988.04 1108.73,2989.37 1108.73,2991.07 C1108.73,2992.95 1109.79,2994.06 1111.31,2994.06 C1111.98,2994.06 1112.51,2993.86 1113,2993.54 C1113.17,2993.43 1113.34,2993.36 1113.47,2993.52 C1113.6,2993.69 1113.47,2993.86 1113.29,2994 C1112.87,2994.31 1112.1,2994.6 1111.26,2994.6 C1109.05,2994.6 1108.11,2993.12 1108.11,2991.06 C1108.11,2988.97 1109.34,2987.5 1111.37,2987.5 Z M1116.66,2987.55 C1118,2987.55 1119.15,2987.98 1119.15,2989.48 C1119.15,2990.51 1118.58,2991.15 1117.73,2991.44 L1117.73,2991.44 L1119.33,2993.97 C1119.38,2994.05 1119.41,2994.14 1119.41,2994.22 C1119.41,2994.37 1119.28,2994.5 1119.13,2994.5 C1119,2994.5 1118.88,2994.41 1118.8,2994.27 L1118.8,2994.27 L1117.1,2991.59 C1116.91,2991.62 1116.7,2991.63 1116.49,2991.63 C1116.22,2991.63 1115.89,2991.62 1115.55,2991.57 L1115.55,2991.57 L1115.55,2994.18 C1115.55,2994.35 1115.45,2994.5 1115.25,2994.5 C1115.05,2994.5 1114.95,2994.35 1114.95,2994.18 L1114.95,2994.18 L1114.95,2988 C1114.95,2987.81 1115.04,2987.68 1115.24,2987.65 C1115.73,2987.57 1116.13,2987.55 1116.66,2987.55 Z M1126.9,2987.6 C1127.08,2987.6 1127.18,2987.74 1127.18,2987.92 L1127.18,2987.92 L1127.18,2994.18 C1127.18,2994.35 1127.08,2994.5 1126.88,2994.5 C1126.68,2994.5 1126.58,2994.35 1126.58,2994.18 L1126.58,2994.18 L1126.58,2988.78 L1124.4,2992.25 C1124.32,2992.38 1124.2,2992.45 1124.09,2992.45 C1123.98,2992.45 1123.86,2992.38 1123.78,2992.25 L1123.78,2992.25 L1121.59,2988.8 L1121.59,2994.18 C1121.59,2994.35 1121.51,2994.5 1121.31,2994.5 C1121.11,2994.5 1121.03,2994.35 1121.03,2994.18 L1121.03,2994.18 L1121.03,2987.92 C1121.03,2987.75 1121.12,2987.6 1121.31,2987.6 C1121.48,2987.6 1121.57,2987.69 1121.67,2987.85 L1121.67,2987.85 L1124.13,2991.7 L1126.56,2987.83 C1126.64,2987.71 1126.73,2987.6 1126.9,2987.6 Z M1116.6,2988.09 C1116.17,2988.09 1115.9,2988.12 1115.55,2988.15 L1115.55,2988.15 L1115.55,2991.05 C1115.87,2991.09 1116.22,2991.11 1116.45,2991.11 C1117.9,2991.11 1118.53,2990.6 1118.53,2989.49 C1118.53,2988.39 1117.72,2988.09 1116.6,2988.09 Z M1101.47046,2989 C1101.7466,2989 1101.97046,2989.22386 1101.97046,2989.5 C1101.97046,2989.74546 1101.79358,2989.94961 1101.56033,2989.99194 L1101.47046,2990 L1097.43188,2990 C1097.15574,2990 1096.93188,2989.77614 1096.93188,2989.5 C1096.93188,2989.25454 1097.10876,2989.05039 1097.34201,2989.00806 L1097.43188,2989 L1101.47046,2989 Z M1101.47046,2986 C1101.7466,2986 1101.97046,2986.22386 1101.97046,2986.5 C1101.97046,2986.74546 1101.79358,2986.94961 1101.56033,2986.99194 L1101.47046,2987 L1097.43188,2987 C1097.15574,2987 1096.93188,2986.77614 1096.93188,2986.5 C1096.93188,2986.25454 1097.10876,2986.05039 1097.34201,2986.00806 L1097.43188,2986 L1101.47046,2986 Z M1101.47046,2982.95661 C1101.7466,2982.95661 1101.97046,2983.18046 1101.97046,2983.45661 C1101.97046,2983.70207 1101.79358,2983.90621 1101.56033,2983.94855 L1101.47046,2983.95661 L1097.43188,2983.95661 C1097.15574,2983.95661 1096.93188,2983.73275 1096.93188,2983.45661 C1096.93188,2983.21115 1097.10876,2983.007 1097.34201,2982.96466 L1097.43188,2982.95661 L1101.47046,2982.95661 Z M1130.5,2976 L1095.5,2976 C1095.22386,2976 1095,2976.22386 1095,2976.5 L1095,2976.5 L1095,2979.699 L1131,2979.699 L1131,2976.5 C1131,2976.25454 1130.82312,2976.05039 1130.58988,2976.00806 L1130.5,2976 Z M1097,2977.5 C1097.27614,2977.5 1097.5,2977.72386 1097.5,2978 C1097.5,2978.27614 1097.27614,2978.5 1097,2978.5 C1096.72386,2978.5 1096.5,2978.27614 1096.5,2978 C1096.5,2977.72386 1096.72386,2977.5 1097,2977.5 Z M1099,2977.5 C1099.27614,2977.5 1099.5,2977.72386 1099.5,2978 C1099.5,2978.27614 1099.27614,2978.5 1099,2978.5 C1098.72386,2978.5 1098.5,2978.27614 1098.5,2978 C1098.5,2977.72386 1098.72386,2977.5 1099,2977.5 Z M1101,2977.5 C1101.27614,2977.5 1101.5,2977.72386 1101.5,2978 C1101.5,2978.27614 1101.27614,2978.5 1101,2978.5 C1100.72386,2978.5 1100.5,2978.27614 1100.5,2978 C1100.5,2977.72386 1100.72386,2977.5 1101,2977.5 Z" transform="translate(-1094 -2975)"/>
</svg>
