<svg xmlns="http://www.w3.org/2000/svg" width="44" height="30" viewBox="0 0 44 30">
  <defs>
    <linearGradient id="icon-19-4-a" x1="100%" x2="0%" y1="73.271%" y2="26.729%">
      <stop offset="0%" stop-color="#1E85E9"/>
      <stop offset="20.276%" stop-color="#8671F3"/>
      <stop offset="70.727%" stop-color="#C06CFD" stop-opacity=".99"/>
      <stop offset="100%" stop-color="#FFBEE8"/>
    </linearGradient>
  </defs>
  <path fill="url(#icon-19-4-a)" d="M843.176083,2974.34632 C846.023205,2973.28769 849.189446,2974.73754 850.24808,2977.58467 C850.342023,2977.83732 850.417265,2978.09653 850.473198,2978.36022 L850.473198,2978.36022 L854.443628,2997.07796 C855.073935,3000.04941 853.176064,3002.96921 850.204613,3003.59952 C849.234008,3003.80541 848.225784,3003.7449 847.286771,3003.4244 L847.286771,3003.4244 L834.235227,2998.9698 C833.292877,2998.64817 832.270463,2998.64817 831.328114,2998.9698 L831.328114,2998.9698 L818.27657,3003.4244 C815.401834,3004.40558 812.276002,3002.87054 811.29483,2999.9958 C810.974337,2999.05679 810.913827,2998.04856 811.119713,2997.07796 L811.119713,2997.07796 L815.090143,2978.36022 C815.72045,2975.38877 818.640253,2973.4909 821.611703,2974.12121 C821.875389,2974.17714 822.134605,2974.25238 822.387257,2974.34632 L822.387257,2974.34632 L827.031189,2976.07306 C830.740776,2977.45238 834.822565,2977.45238 838.532151,2976.07306 L838.532151,2976.07306 Z M821.404199,2975.09944 C818.973012,2974.58373 816.584083,2976.13654 816.068377,2978.56772 L816.068377,2978.56772 L812.097947,2997.28546 C811.929495,2998.07959 811.979003,2998.90451 812.241225,2999.67279 C813.044002,3002.02485 815.601501,3003.28079 817.953558,3002.47801 L817.953558,3002.47801 L831.005101,2998.0234 C832.156862,2997.6303 833.406479,2997.6303 834.55824,2998.0234 L834.55824,2998.0234 L847.609783,3002.47801 C848.378067,3002.74023 849.202978,3002.78974 849.997109,3002.62129 C852.428296,3002.10558 853.9811,2999.71665 853.465394,2997.28546 L853.465394,2997.28546 L849.494964,2978.56772 C849.4492,2978.35198 849.387639,2978.1399 849.310776,2977.93318 L849.310776,2977.93318 L849.229926,2977.73063 C848.292461,2975.53571 845.785547,2974.44295 843.524597,2975.28363 L843.524597,2975.28363 L838.880665,2977.01036 C834.946255,2978.47328 830.617085,2978.47328 826.682675,2977.01036 L826.682675,2977.01036 L822.038743,2975.28363 C821.832028,2975.20676 821.619942,2975.1452 821.404199,2975.09944 Z M842.78167,2990.29546 C844.162382,2990.29546 845.28167,2991.41475 845.28167,2992.79546 C845.28167,2994.17618 844.162382,2995.29546 842.78167,2995.29546 C841.400958,2995.29546 840.28167,2994.17618 840.28167,2992.79546 C840.28167,2991.41475 841.400958,2990.29546 842.78167,2990.29546 Z M842.78167,2991.29546 C841.953243,2991.29546 841.28167,2991.96704 841.28167,2992.79546 C841.28167,2993.62389 841.953243,2994.29546 842.78167,2994.29546 C843.610097,2994.29546 844.28167,2993.62389 844.28167,2992.79546 C844.28167,2991.96704 843.610097,2991.29546 842.78167,2991.29546 Z M835.78167,2988.29546 C837.162382,2988.29546 838.28167,2989.41475 838.28167,2990.79546 C838.28167,2992.17618 837.162382,2993.29546 835.78167,2993.29546 C834.400958,2993.29546 833.28167,2992.17618 833.28167,2990.79546 C833.28167,2989.41475 834.400958,2988.29546 835.78167,2988.29546 Z M821.78167,2984.29546 C822.02713,2984.29546 822.231279,2984.47234 822.273615,2984.70559 L822.28167,2984.79546 L822.281,2988.295 L825.78167,2988.29546 C826.057813,2988.29546 826.28167,2988.51932 826.28167,2988.79546 C826.28167,2989.04092 826.104795,2989.24507 825.871546,2989.28741 L825.78167,2989.29546 L822.281,2989.295 L822.28167,2992.79546 C822.28167,2993.07161 822.057813,2993.29546 821.78167,2993.29546 C821.53621,2993.29546 821.332062,2993.11859 821.289726,2992.88534 L821.28167,2992.79546 L821.281,2989.295 L817.78167,2989.29546 C817.505528,2989.29546 817.28167,2989.07161 817.28167,2988.79546 C817.28167,2988.55 817.458546,2988.34586 817.691795,2988.30352 L817.78167,2988.29546 L821.281,2988.295 L821.28167,2984.79546 C821.28167,2984.51932 821.505528,2984.29546 821.78167,2984.29546 Z M835.78167,2989.29546 C834.953243,2989.29546 834.28167,2989.96704 834.28167,2990.79546 C834.28167,2991.62389 834.953243,2992.29546 835.78167,2992.29546 C836.610097,2992.29546 837.28167,2991.62389 837.28167,2990.79546 C837.28167,2989.96704 836.610097,2989.29546 835.78167,2989.29546 Z M846.78167,2985.29546 C848.162382,2985.29546 849.28167,2986.41475 849.28167,2987.79546 C849.28167,2989.17618 848.162382,2990.29546 846.78167,2990.29546 C845.400958,2990.29546 844.28167,2989.17618 844.28167,2987.79546 C844.28167,2986.41475 845.400958,2985.29546 846.78167,2985.29546 Z M846.78167,2986.29546 C845.953243,2986.29546 845.28167,2986.96704 845.28167,2987.79546 C845.28167,2988.62389 845.953243,2989.29546 846.78167,2989.29546 C847.610097,2989.29546 848.28167,2988.62389 848.28167,2987.79546 C848.28167,2986.96704 847.610097,2986.29546 846.78167,2986.29546 Z M839.78167,2983.29546 C841.162382,2983.29546 842.28167,2984.41475 842.28167,2985.79546 C842.28167,2987.17618 841.162382,2988.29546 839.78167,2988.29546 C838.400958,2988.29546 837.28167,2987.17618 837.28167,2985.79546 C837.28167,2984.41475 838.400958,2983.29546 839.78167,2983.29546 Z M839.78167,2984.29546 C838.953243,2984.29546 838.28167,2984.96704 838.28167,2985.79546 C838.28167,2986.62389 838.953243,2987.29546 839.78167,2987.29546 C840.610097,2987.29546 841.28167,2986.62389 841.28167,2985.79546 C841.28167,2984.96704 840.610097,2984.29546 839.78167,2984.29546 Z" transform="translate(-811 -2974)"/>
</svg>
