<svg xmlns="http://www.w3.org/2000/svg" width="33" height="41" viewBox="0 0 33 41">
  <defs>
    <linearGradient id="icon-14-2-a" x1="78.974%" x2="19.186%" y1="97.147%" y2="2.5%">
      <stop offset="0%" stop-color="#1E85E9"/>
      <stop offset="20.276%" stop-color="#8671F3"/>
      <stop offset="70.727%" stop-color="#C06CFD" stop-opacity=".99"/>
      <stop offset="100%" stop-color="#FFBEE8"/>
    </linearGradient>
  </defs>
  <path fill="url(#icon-14-2-a)" d="M557.639908,2264 L562.14308,2268.66583 L565.42,2272.3 L565.5,2272.3 L565.5,2272.388 L566,2272.94393 L566,2300.5 C566,2302.98528 563.985281,2305 561.5,2305 L561.5,2305 L537.5,2305 C535.014719,2305 533,2302.98528 533,2300.5 L533,2300.5 L533,2268.5 C533,2266.01472 535.014719,2264 537.5,2264 L537.5,2264 L557.639908,2264 Z M557,2265 L537.5,2265 C535.567003,2265 534,2266.567 534,2268.5 L534,2268.5 L534,2300.5 C534,2302.433 535.567003,2304 537.5,2304 L537.5,2304 L561.5,2304 C563.432997,2304 565,2302.433 565,2300.5 L565,2300.5 L565,2273.328 L564.975,2273.3 L558,2273.3 C557.487164,2273.3 557.064493,2272.91396 557.006728,2272.41662 L557,2272.3 L557,2265 Z M558,2290.5 C558.276142,2290.5 558.5,2290.72386 558.5,2291 C558.5,2291.24546 558.323125,2291.44961 558.089876,2291.49194 L558,2291.5 L540,2291.5 C539.723858,2291.5 539.5,2291.27614 539.5,2291 C539.5,2290.75454 539.676875,2290.55039 539.910124,2290.50806 L540,2290.5 L558,2290.5 Z M558,2285.5 C558.276142,2285.5 558.5,2285.72386 558.5,2286 C558.5,2286.24546 558.323125,2286.44961 558.089876,2286.49194 L558,2286.5 L540,2286.5 C539.723858,2286.5 539.5,2286.27614 539.5,2286 C539.5,2285.75454 539.676875,2285.55039 539.910124,2285.50806 L540,2285.5 L558,2285.5 Z M558,2280.5 C558.276142,2280.5 558.5,2280.72386 558.5,2281 C558.5,2281.24546 558.323125,2281.44961 558.089876,2281.49194 L558,2281.5 L540,2281.5 C539.723858,2281.5 539.5,2281.27614 539.5,2281 C539.5,2280.75454 539.676875,2280.55039 539.910124,2280.50806 L540,2280.5 L558,2280.5 Z M558,2265.813 L558,2272.3 L564.073,2272.3 L561.411966,2269.34787 L558,2265.813 Z" transform="translate(-533 -2264)"/>
</svg>
