<?xml version="1.0" encoding="UTF-8"?>
<svg width="40px" height="37px" viewBox="0 0 40 37" version="1.1" xmlns="http://www.w3.org/2000/svg" xmlns:xlink="http://www.w3.org/1999/xlink">
    <title>icon-30-4</title>
    <defs>
        <linearGradient x1="100%" y1="91.349487%" x2="0%" y2="8.65051304%" id="linearGradient-1">
            <stop stop-color="#1E85E9" offset="0%"></stop>
            <stop stop-color="#8671F3" offset="20.275549%"></stop>
            <stop stop-color="#C06CFD" stop-opacity="0.99" offset="70.7268792%"></stop>
            <stop stop-color="#FFBEE8" offset="100%"></stop>
        </linearGradient>
        <linearGradient x1="100%" y1="70.6632653%" x2="0%" y2="29.3367347%" id="linearGradient-2">
            <stop stop-color="#1E85E9" offset="0%"></stop>
            <stop stop-color="#8671F3" offset="20.275549%"></stop>
            <stop stop-color="#C06CFD" stop-opacity="0.99" offset="70.7268792%"></stop>
            <stop stop-color="#FFBEE8" offset="100%"></stop>
        </linearGradient>
    </defs>
    <g id="Page-1" stroke="none" stroke-width="1" fill="none" fill-rule="evenodd">
        <g id="icons" transform="translate(-817.000000, -4525.000000)">
            <g id="icon-30-4" transform="translate(817.000000, 4525.000000)">
                <path d="M37.6744186,-1.88293825e-13 C38.9588017,-1.88293825e-13 40,1.04119826 40,2.3255814 L40,2.3255814 L40,27.4418605 C40,28.7262436 38.9588017,29.7674419 37.6744186,29.7674419 L37.6744186,29.7674419 L24.1630208,29.7670447 C24.1449719,30.7825901 24.3608347,31.8247415 24.8135923,32.8968351 C25.2863797,34.0163579 25.881166,34.8463346 26.5940244,35.3954649 L26.663,35.445 L28.372093,35.4453579 C28.6289697,35.4453579 28.8372093,35.6692155 28.8372093,35.9453579 C28.8372093,36.1908178 28.6726743,36.3949663 28.4556983,36.4373023 L28.372093,36.4453579 L11.627907,36.4453579 C11.3710303,36.4453579 11.1627907,36.2215003 11.1627907,35.9453579 C11.1627907,35.699898 11.3273257,35.4957496 11.5443017,35.4534136 L11.627907,35.4453579 L13.297,35.445 L13.3650716,35.3773284 C13.9444292,34.7707107 14.4477515,33.9661813 14.872216,32.9610833 C15.2876926,31.977268 15.5802009,30.913359 15.7493554,29.7685145 L2.3255814,29.7674419 C1.04119826,29.7674419 0,28.7262436 0,27.4418605 L0,27.4418605 L0,2.3255814 C0,1.04119826 1.04119826,-1.88293825e-13 2.3255814,-1.88293825e-13 L2.3255814,-1.88293825e-13 Z M15.7291649,33.3229828 C15.3823317,34.1442558 14.9817879,34.85279 14.5263777,35.4474974 L25.2921805,35.4466531 C24.770422,34.8628491 24.325678,34.132579 23.9566434,33.2587345 C23.4571557,32.0759878 23.2148456,30.9111108 23.2326439,29.7673813 L16.688,29.767 L16.6807919,29.8274139 C16.502288,31.077601 16.1852161,32.24309 15.7291649,33.3229828 Z M39.069,22.86 L0.93,22.86 L0.930232558,27.4418605 C0.930232558,28.1671592 1.48361682,28.7632081 2.19119999,28.8308218 L2.3255814,28.8372093 L37.6744186,28.8372093 C38.4450485,28.8372093 39.0697674,28.2124903 39.0697674,27.4418605 L39.0697674,27.4418605 L39.069,22.86 Z M20,24.6511628 C20.5137533,24.6511628 20.9302326,25.0676421 20.9302326,25.5813953 C20.9302326,26.0951486 20.5137533,26.5116279 20,26.5116279 C19.4862467,26.5116279 19.0697674,26.0951486 19.0697674,25.5813953 C19.0697674,25.0676421 19.4862467,24.6511628 20,24.6511628 Z M37.6744186,0.930232558 L2.3255814,0.930232558 C1.55495151,0.930232558 0.930232558,1.55495151 0.930232558,2.3255814 L0.930232558,2.3255814 L0.93,21.86 L39.069,21.86 L39.0697674,2.3255814 C39.0697674,1.60028268 38.5163832,1.00423379 37.8088,0.936620073 L37.6744186,0.930232558 Z" id="Combined-Shape" fill="url(#linearGradient-1)" fill-rule="nonzero"></path>
                <polyline id="Path-124" stroke="url(#linearGradient-2)" stroke-linecap="round" stroke-linejoin="round" points="14 12.475738 19.7659184 17 28 8"></polyline>
            </g>
        </g>
    </g>
</svg>