<svg xmlns="http://www.w3.org/2000/svg" width="43" height="40" viewBox="0 0 43 40">
  <defs>
    <linearGradient id="icon-14-3-a" x1="100%" x2="0%" y1="92.351%" y2="7.649%">
      <stop offset="0%" stop-color="#1E85E9"/>
      <stop offset="20.276%" stop-color="#8671F3"/>
      <stop offset="70.727%" stop-color="#C06CFD"/>
      <stop offset="100%" stop-color="#FFBEE8"/>
    </linearGradient>
  </defs>
  <path fill="url(#icon-14-3-a)" d="M711.166667,2264 C711.995094,2264 712.666667,2264.67157 712.666667,2265.5 L712.666667,2265.5 L712.666667,2293.5 C712.666667,2294.32843 711.995094,2295 711.166667,2295 L711.166667,2295 L687.545,2295 L680.989571,2302.73723 C680.487507,2303.32979 679.624227,2303.43559 678.997481,2303.00523 L678.997481,2303.00523 L678.875462,2302.912 C678.53909,2302.62699 678.345133,2302.20844 678.345133,2301.76756 L678.345133,2301.76756 L678.345,2295 L671.5,2295 C670.720304,2295 670.079551,2294.40511 670.006867,2293.64446 L670.006867,2293.64446 L670,2293.5 L670,2265.5 C670,2264.67157 670.671573,2264 671.5,2264 L671.5,2264 Z M711.166667,2265 L671.5,2265 C671.223858,2265 671,2265.22386 671,2265.5 L671,2265.5 L671,2293.5 C671,2293.77614 671.223858,2294 671.5,2294 L671.5,2294 L679.345133,2294 L679.345133,2301.76756 C679.345133,2301.91452 679.409786,2302.05404 679.52191,2302.14904 C679.732595,2302.32755 680.048101,2302.30147 680.226613,2302.09079 L680.226613,2302.09079 L687.08186,2294 L711.166667,2294 C711.442809,2294 711.666667,2293.77614 711.666667,2293.5 L711.666667,2293.5 L711.666667,2265.5 C711.666667,2265.22386 711.442809,2265 711.166667,2265 L711.166667,2265 Z M682.166667,2277.83333 C683.087141,2277.83333 683.833333,2278.57953 683.833333,2279.5 C683.833333,2280.42047 683.087141,2281.16667 682.166667,2281.16667 C681.246192,2281.16667 680.5,2280.42047 680.5,2279.5 C680.5,2278.57953 681.246192,2277.83333 682.166667,2277.83333 Z M690.5,2277.83333 C691.420475,2277.83333 692.166667,2278.57953 692.166667,2279.5 C692.166667,2280.42047 691.420475,2281.16667 690.5,2281.16667 C689.579525,2281.16667 688.833333,2280.42047 688.833333,2279.5 C688.833333,2278.57953 689.579525,2277.83333 690.5,2277.83333 Z M698.833333,2277.83333 C699.753808,2277.83333 700.5,2278.57953 700.5,2279.5 C700.5,2280.42047 699.753808,2281.16667 698.833333,2281.16667 C697.912859,2281.16667 697.166667,2280.42047 697.166667,2279.5 C697.166667,2278.57953 697.912859,2277.83333 698.833333,2277.83333 Z" transform="translate(-670 -2264)"/>
</svg>
