<svg xmlns="http://www.w3.org/2000/svg" width="34" height="39" viewBox="0 0 34 39">
  <defs>
    <linearGradient id="icon-13-9-a" x1="87.521%" x2="12.479%" y1="100%" y2="0%">
      <stop offset="0%" stop-color="#1E85E9"/>
      <stop offset="20.276%" stop-color="#8671F3"/>
      <stop offset="70.727%" stop-color="#C06CFD"/>
      <stop offset="100%" stop-color="#FFBEE8"/>
    </linearGradient>
  </defs>
  <path fill="url(#icon-13-9-a)" d="M1553.72414,2139.36207 C1554.00028,2139.36207 1554.22414,2139.58593 1554.22414,2139.86207 C1554.22414,2149.66036 1546.28105,2157.60345 1536.48276,2157.60345 C1532.84103,2157.60345 1529.36303,2156.50323 1526.4293,2154.48196 L1529.24167,2161.67771 C1529.331,2161.90634 1529.24054,2162.16086 1529.03869,2162.28517 L1528.95791,2162.32538 C1528.72928,2162.41471 1528.47476,2162.32425 1528.35044,2162.1224 L1528.31024,2162.04162 L1525.09627,2153.81527 C1524.99133,2153.54667 1525.13495,2153.25286 1525.39565,2153.16162 L1525.4867,2153.13902 L1534.21791,2151.80922 C1534.49091,2151.76765 1534.74592,2151.95525 1534.78749,2152.22824 C1534.82445,2152.4709 1534.68033,2152.69935 1534.45612,2152.77633 L1534.36848,2152.79782 L1527.3156,2153.87291 C1530.01533,2155.64337 1533.17647,2156.60345 1536.48276,2156.60345 C1545.72877,2156.60345 1553.22414,2149.10808 1553.22414,2139.86207 C1553.22414,2139.58593 1553.448,2139.36207 1553.72414,2139.36207 Z M1547.37369,2124.82128 L1547.4139,2124.90206 L1550.62787,2133.12841 C1550.73281,2133.39701 1550.58919,2133.69081 1550.32849,2133.78206 L1550.23744,2133.80466 L1541.50623,2135.13445 C1541.23323,2135.17603 1540.97822,2134.98843 1540.93664,2134.71544 C1540.89968,2134.47278 1541.04381,2134.24432 1541.26802,2134.16735 L1541.35566,2134.14585 L1548.40877,2133.07093 C1545.70899,2131.30036 1542.54776,2130.34023 1539.24138,2130.34023 C1529.99537,2130.34023 1522.5,2137.8356 1522.5,2147.08161 C1522.5,2147.35775 1522.27614,2147.58161 1522,2147.58161 C1521.72386,2147.58161 1521.5,2147.35775 1521.5,2147.08161 C1521.5,2137.28332 1529.44309,2129.34023 1539.24138,2129.34023 C1542.8831,2129.34023 1546.36111,2130.44045 1549.29484,2132.46171 L1546.48247,2125.26596 C1546.39314,2125.03733 1546.4836,2124.78282 1546.68545,2124.6585 L1546.76623,2124.61829 C1546.99486,2124.52897 1547.24938,2124.61943 1547.37369,2124.82128 Z" transform="translate(-1521 -2124)"/>
</svg>
