<svg xmlns="http://www.w3.org/2000/svg" xmlns:xlink="http://www.w3.org/1999/xlink" width="62" height="62" viewBox="0 0 62 62">
  <defs>
    <linearGradient id="icon-7-9-b" x1="100%" x2="0%" y1="100%" y2="0%">
      <stop offset="0%" stop-color="#1E85E9"/>
      <stop offset="20.276%" stop-color="#8671F3"/>
      <stop offset="70.727%" stop-color="#C06CFD" stop-opacity=".99"/>
      <stop offset="100%" stop-color="#FFBEE8"/>
    </linearGradient>
    <rect id="icon-7-9-a" width="60" height="60" x="0" y="0" rx="4"/>
    <linearGradient id="icon-7-9-c" x1="94.741%" x2="5.259%" y1="100%" y2="0%">
      <stop offset="0%" stop-color="#1E85E9"/>
      <stop offset="20.276%" stop-color="#8671F3"/>
      <stop offset="70.727%" stop-color="#C06CFD" stop-opacity=".99"/>
      <stop offset="100%" stop-color="#FFBEE8"/>
    </linearGradient>
  </defs>
  <g fill="none" fill-rule="evenodd" transform="translate(1 1)">
    <g opacity=".062">
      <use fill="#FAFAFA" xlink:href="#icon-7-9-a"/>
      <use fill="url(#icon-7-9-b)" stroke="#000" stroke-opacity=".02" xlink:href="#icon-7-9-a"/>
    </g>
    <path fill="url(#icon-7-9-c)" fill-rule="nonzero" d="M42.5,11 C43.2796961,11 43.9204487,11.5948881 43.9931334,12.35554 L44,12.5 L44.0006159,34.2959877 C43.6682952,34.1209409 43.3348755,33.9634389 43.0003552,33.8235962 L43,12.5 C43,12.2545401 42.8231248,12.0503916 42.5898756,12.0080557 L42.5,12 L15.5,12 C15.2545401,12 15.0503916,12.1768752 15.0080557,12.4101244 L15,12.5 L15,46.5 C15,46.7454599 15.1768752,46.9496084 15.4101244,46.9919443 L15.5,47 L42.5,47 C42.7454599,47 42.9496084,46.8231248 42.9919443,46.5898756 L43,46.5 L43.0004671,46.1823259 C43.3350676,46.0437133 43.6685542,45.8876238 44.0009261,45.7141691 L44,46.5 C44,47.2796961 43.4051119,47.9204487 42.64446,47.9931334 L42.5,48 L15.5,48 C14.7203039,48 14.0795513,47.4051119 14.0068666,46.64446 L14,46.5 L14,12.5 C14,11.7203039 14.5948881,11.0795513 15.35554,11.0068666 L15.5,11 L42.5,11 Z M39.0265859,34 C42.3559652,34.0002824 45.6401862,35.9164042 48.8798821,39.7020247 C49.0406118,39.8898391 49.0399681,40.1669194 48.8783675,40.3539849 C45.6395738,44.1031464 42.3524017,46.0002829 39.0170949,46 C35.6823766,45.9997172 32.3843659,44.1026217 29.1227795,40.3536967 C28.9593924,40.1658966 28.9590351,39.886512 29.1219413,39.6982947 C32.3969951,35.9143878 35.6980803,33.9997177 39.0265859,34 Z M39.0265011,35 C36.2172955,34.9997618 33.3611054,36.5545365 30.4590755,39.7019926 L30.4590755,39.7019926 L30.1666353,40.0248634 C33.1559943,43.3550063 36.1062616,44.9997531 39.0171797,45 C41.8336455,45.0002389 44.6769235,43.4608956 47.5472141,40.3445665 L47.5472141,40.3445665 L47.836,40.025 C44.9598636,36.7685057 42.1179285,35.1091022 39.3074446,35.005206 L39.3074446,35.005206 Z M39,37 C40.6568542,37 42,38.3431458 42,40 C42,41.6568542 40.6568542,43 39,43 C37.3431458,43 36,41.6568542 36,40 C36,38.3431458 37.3431458,37 39,37 Z M39,38 C37.8954305,38 37,38.8954305 37,40 C37,41.1045695 37.8954305,42 39,42 C40.1045695,42 41,41.1045695 41,40 C41,38.8954305 40.1045695,38 39,38 Z M27.7644043,35 C28.0405467,35 28.2644043,35.2238576 28.2644043,35.5 C28.2644043,35.7454599 28.0875291,35.9496084 27.8542799,35.9919443 L27.7644043,36 L19.5,36 C19.2238576,36 19,35.7761424 19,35.5 C19,35.2545401 19.1768752,35.0503916 19.4101244,35.0080557 L19.5,35 L27.7644043,35 Z M38.8818359,28 C39.1579783,28 39.3818359,28.2238576 39.3818359,28.5 C39.3818359,28.7454599 39.2049608,28.9496084 38.9717116,28.9919443 L38.8818359,29 L19.5,29 C19.2238576,29 19,28.7761424 19,28.5 C19,28.2545401 19.1768752,28.0503916 19.4101244,28.0080557 L19.5,28 L38.8818359,28 Z M38.8818359,20.5 C39.1579783,20.5 39.3818359,20.7238576 39.3818359,21 C39.3818359,21.2454599 39.2049608,21.4496084 38.9717116,21.4919443 L38.8818359,21.5 L19.5,21.5 C19.2238576,21.5 19,21.2761424 19,21 C19,20.7545401 19.1768752,20.5503916 19.4101244,20.5080557 L19.5,20.5 L38.8818359,20.5 Z"/>
  </g>
</svg>
