<svg xmlns="http://www.w3.org/2000/svg" xmlns:xlink="http://www.w3.org/1999/xlink" width="62" height="62" viewBox="0 0 62 62">
  <defs>
    <linearGradient id="icon-1-3-b" x1="100%" x2="0%" y1="100%" y2="0%">
      <stop offset="0%" stop-color="#FFBEE8"/>
      <stop offset="29.273%" stop-color="#C06CFD" stop-opacity=".99"/>
      <stop offset="79.724%" stop-color="#8671F3"/>
      <stop offset="100%" stop-color="#1E85E9"/>
    </linearGradient>
    <rect id="icon-1-3-a" width="60" height="60" x="0" y="0" rx="4"/>
    <linearGradient id="icon-1-3-c" x1="98.779%" x2="1.221%" y1="100%" y2="0%">
      <stop offset="0%" stop-color="#1E85E9"/>
      <stop offset="20.276%" stop-color="#8671F3"/>
      <stop offset="70.727%" stop-color="#C06CFD" stop-opacity=".99"/>
      <stop offset="100%" stop-color="#FFBEE8"/>
    </linearGradient>
  </defs>
  <g fill="none" fill-rule="evenodd" transform="translate(1 1)">
    <g opacity=".062">
      <use fill="#FAFAFA" xlink:href="#icon-1-3-a"/>
      <use fill="url(#icon-1-3-b)" stroke="#000" stroke-opacity=".02" xlink:href="#icon-1-3-a"/>
    </g>
    <path stroke="url(#icon-1-3-c)" d="M28,16 C34.627417,16 40,21.372583 40,28 C40,30.6770183 39.1234086,33.1492977 37.6416077,35.1454563 L42.2022006,39.7071068 C42.9832492,40.4881554 42.9832492,41.7544853 42.2022006,42.5355339 C41.421152,43.3165825 40.154822,43.3165825 39.3737734,42.5355339 L34.7562532,37.9187155 C32.8318775,39.2320646 30.5056192,40 28,40 C21.372583,40 16,34.627417 16,28 C16,21.372583 21.372583,16 28,16 Z M28,20 C23.581722,20 20,23.581722 20,28 C20,32.418278 23.581722,36 28,36 C32.418278,36 36,32.418278 36,28 C36,23.581722 32.418278,20 28,20 Z"/>
  </g>
</svg>
