<svg xmlns="http://www.w3.org/2000/svg" xmlns:xlink="http://www.w3.org/1999/xlink" width="62" height="62" viewBox="0 0 62 62">
  <defs>
    <linearGradient id="icon-8-5-b" x1="100%" x2="0%" y1="100%" y2="0%">
      <stop offset="0%" stop-color="#1E85E9"/>
      <stop offset="20.276%" stop-color="#8671F3"/>
      <stop offset="70.727%" stop-color="#C06CFD" stop-opacity=".99"/>
      <stop offset="100%" stop-color="#FFBEE8"/>
    </linearGradient>
    <rect id="icon-8-5-a" width="60" height="60" x="0" y="0" rx="4"/>
    <linearGradient id="icon-8-5-c" x1="100%" x2="0%" y1="86.735%" y2="13.265%">
      <stop offset="0%" stop-color="#1E85E9"/>
      <stop offset="20.276%" stop-color="#8671F3"/>
      <stop offset="70.727%" stop-color="#C06CFD" stop-opacity=".99"/>
      <stop offset="100%" stop-color="#FFBEE8"/>
    </linearGradient>
  </defs>
  <g fill="none" fill-rule="evenodd" transform="translate(1 1)">
    <g opacity=".062">
      <use fill="#FAFAFA" xlink:href="#icon-8-5-a"/>
      <use fill="url(#icon-8-5-b)" stroke="#000" stroke-opacity=".02" xlink:href="#icon-8-5-a"/>
    </g>
    <path fill="url(#icon-8-5-c)" fill-rule="nonzero" d="M47.527027,14 C47.7592188,14 47.9523322,14.1711695 47.9923798,14.3968945 L48,14.483871 L48,37.7096774 C48,38.464222 47.437268,39.0843052 46.7177324,39.1546452 L46.5810811,39.1612903 L33.688,39.161 L34.651,43.032 L37.9266918,43.0322581 C38.1879076,43.0322581 38.3996648,43.2488945 38.3996648,43.516129 C38.3996648,43.7536709 38.2323505,43.9512339 38.0117093,43.9922042 L37.9266918,44 L22.9324324,44 C22.6712167,44 22.4594595,43.7833636 22.4594595,43.516129 C22.4594595,43.2785872 22.6267738,43.0810242 22.8474149,43.0400539 L22.9324324,43.0322581 L26.348,43.032 L27.311,39.161 L14.4189189,39.1612903 C13.6813685,39.1612903 13.0752513,38.5855922 13.0064954,37.8494774 L13,37.7096774 L13,14.483871 C13,14.2463291 13.1673143,14.0487661 13.3879555,14.0077958 L13.472973,14 L47.527027,14 Z M32.7116216,39.1612903 L28.2874324,39.1612903 L27.3244595,43.0322581 L33.6745946,43.0322581 L32.7116216,39.1612903 Z M47.054,35.29 L13.945,35.29 L13.9459459,37.7096774 C13.9459459,37.9472192 14.1132603,38.1447823 14.3339014,38.1857526 L14.4189189,38.1935484 L46.5810811,38.1935484 C46.8132729,38.1935484 47.0063863,38.0223789 47.0464338,37.7966538 L47.0540541,37.7096774 L47.054,35.29 Z M30.5,35.7741935 C31.0224315,35.7741935 31.4459459,36.2074664 31.4459459,36.7419355 C31.4459459,37.2764046 31.0224315,37.7096774 30.5,37.7096774 C29.9775685,37.7096774 29.5540541,37.2764046 29.5540541,36.7419355 C29.5540541,36.2074664 29.9775685,35.7741935 30.5,35.7741935 Z M46.5810811,14.9677419 L14.4189189,14.9677419 C14.1867271,14.9677419 13.9936137,15.1389114 13.9535662,15.3646365 L13.9459459,15.4516129 L13.9459459,34.3225806 L47.0540541,34.3225806 L47.0540541,15.4516129 C47.0540541,15.1843783 46.8422968,14.9677419 46.5810811,14.9677419 Z M43.2729729,21.7419355 C43.5064915,21.7419355 43.7007084,21.913105 43.7409848,22.13883 L43.7486486,22.2258065 L43.7486486,29 L44.2162162,29 C44.477432,29 44.6891892,29.2166364 44.6891892,29.483871 C44.6891892,29.7214128 44.5218748,29.9189758 44.3012337,29.9599461 L44.2162162,29.9677419 L16.7837838,29.9677419 C16.522568,29.9677419 16.3108108,29.7511055 16.3108108,29.483871 C16.3108108,29.2463291 16.4781252,29.0487661 16.6987663,29.0077958 L16.7837838,29 L18.2027027,29 L18.2027027,22.2258065 C18.2027027,21.9585719 18.4156699,21.7419355 18.6783784,21.7419355 C18.9118969,21.7419355 19.1061139,21.913105 19.1463902,22.13883 L19.154054,22.2258065 L19.154054,29 L21.9864865,29 L21.9864865,25.1290323 C21.9864865,24.8617977 22.1994537,24.6451613 22.4621621,24.6451613 C22.6956807,24.6451613 22.8898976,24.8163308 22.930174,25.0420558 L22.9378378,25.1290323 L22.9378378,29 L26.7162162,29 L26.7162162,23.1935484 C26.7162162,22.9263138 26.9291835,22.7096774 27.1918919,22.7096774 C27.4254104,22.7096774 27.6196274,22.8808469 27.6599037,23.106572 L27.6675675,23.1935484 L27.6675675,29 L30.5,29 L30.5,22.2258065 C30.5,21.9585719 30.7129672,21.7419355 30.9756756,21.7419355 C31.2091942,21.7419355 31.4034112,21.913105 31.4436875,22.13883 L31.4513513,22.2258065 L31.4513513,29 L34.2837838,29 L34.2837838,23.1935484 C34.2837838,22.9263138 34.496751,22.7096774 34.7594594,22.7096774 C34.992978,22.7096774 35.1871949,22.8808469 35.2274713,23.106572 L35.2351351,23.1935484 L35.2351351,29 L38.0675676,29 L38.0675676,25.1290323 C38.0675676,24.8617977 38.2805348,24.6451613 38.5432432,24.6451613 C38.7767618,24.6451613 38.9709787,24.8163308 39.0112551,25.0420558 L39.0189189,25.1290323 L39.0189189,29 L42.7972973,29 L42.7972973,22.2258065 C42.7972973,21.9585719 43.0102645,21.7419355 43.2729729,21.7419355 Z"/>
  </g>
</svg>
