<svg xmlns="http://www.w3.org/2000/svg" xmlns:xlink="http://www.w3.org/1999/xlink" width="62" height="62" viewBox="0 0 62 62">
  <defs>
    <linearGradient id="icon-3-6-b" x1="100%" x2="0%" y1="100%" y2="0%">
      <stop offset="0%" stop-color="#1E85E9"/>
      <stop offset="20.276%" stop-color="#8671F3"/>
      <stop offset="70.727%" stop-color="#C06CFD" stop-opacity=".99"/>
      <stop offset="100%" stop-color="#FFBEE8"/>
    </linearGradient>
    <rect id="icon-3-6-a" width="60" height="60" x="0" y="0" rx="4"/>
    <linearGradient id="icon-3-6-c" x1="86.735%" x2="13.265%" y1="100%" y2="0%">
      <stop offset="0%" stop-color="#1E85E9"/>
      <stop offset="20.276%" stop-color="#8671F3"/>
      <stop offset="70.727%" stop-color="#C06CFD" stop-opacity=".99"/>
      <stop offset="100%" stop-color="#FFBEE8"/>
    </linearGradient>
  </defs>
  <g fill="none" fill-rule="evenodd" transform="translate(1 1)">
    <g opacity=".062">
      <use fill="#FAFAFA" xlink:href="#icon-3-6-a"/>
      <use fill="url(#icon-3-6-b)" stroke="#000" stroke-opacity=".02" xlink:href="#icon-3-6-a"/>
    </g>
    <path fill="url(#icon-3-6-c)" fill-rule="nonzero" d="M30,47 L29.1770417,46.9972386 C21.1534229,46.9429842 15.201176,46.0907958 15.0049966,44.5774665 L15,44.4999484 L15,14.4993293 L15.0049966,14.4218112 C15.201176,12.9084819 21.1534229,12.0562935 29.1770417,12.0020391 L29.1770417,12.0020391 L30.3944312,12 C38.8014384,12.0308242 45,12.9074763 45,14.4993293 L45,14.4993293 L45,44.4999484 C45,46.1137366 38.5747226,47 30,47 Z M30,31.9996905 L29.1770417,31.9969291 C22.9893357,31.9550888 18.0335336,31.4386945 15.9996085,30.5104856 L16,37.499804 C16,38.0952004 22.5584649,38.9998349 30,38.9998349 L31.1275539,38.9929778 C37.9671841,38.9101438 43.788647,38.0948164 43.9943754,37.5303389 L44,37.499804 L44.001392,30.5100289 C41.8787308,31.4793314 36.570376,31.9996905 30,31.9996905 Z M30,23.9995254 L29.1770417,23.996764 C22.9893357,23.9549237 18.0335336,23.4385294 15.9996085,22.5103205 L16,29.4996389 C16,30.0950353 22.5584649,30.9996698 30,30.9996698 L31.1275539,30.9928127 C37.9671841,30.9099787 43.788647,30.0946513 43.9943754,29.5301739 L44,29.4996389 L44.001392,22.5098638 C41.8787308,23.4791663 36.570376,23.9995254 30,23.9995254 Z M44.001392,15.5097193 C41.968092,16.4382155 37.0116792,16.9547724 30.8229583,16.9966195 L30.8229583,16.9966195 L30,16.9993809 C23.4306561,16.9993809 18.1229369,16.4791853 15.9996085,15.5101761 L16,21.4994738 C16,22.0948702 22.5584649,22.9995047 30,22.9995047 L31.1275539,22.9926476 C37.9671841,22.9098136 43.788647,22.0944862 43.9943754,21.5300088 L44,21.4994738 Z M30.3916825,13.0000164 L29.6215357,13.0000713 C22.3380281,13.0298751 16,13.9140243 16,14.4993293 C16,15.0644514 21.908459,15.9081631 28.8724461,15.9925031 L28.8724461,15.9925031 L30,15.9993603 C37.4415351,15.9993603 44,15.0947258 44,14.4993293 C44,13.9223504 37.6670525,13.0266923 30.3916825,13.0000164 L30.3916825,13.0000164 Z M30,39.9998555 L29.1770417,39.9970942 C22.9893357,39.9552539 18.0335336,39.4388596 15.9996085,38.5106507 L16,44.4999484 C16,45.0953449 22.5584649,45.9999794 30,45.9999794 L31.1275539,45.9931222 C37.9671841,45.9102882 43.788647,45.0949609 43.9943754,44.5304834 L44,44.4999484 L44.001392,38.510194 C41.8787308,39.4794965 36.570376,39.9998555 30,39.9998555 Z"/>
  </g>
</svg>
