<svg xmlns="http://www.w3.org/2000/svg" width="35" height="35" viewBox="0 0 35 35">
  <defs>
    <linearGradient id="icon-18-1-a" x1="99.923%" x2=".077%" y1="100%" y2="0%">
      <stop offset="0%" stop-color="#1E85E9"/>
      <stop offset="20.276%" stop-color="#8671F3"/>
      <stop offset="70.727%" stop-color="#C06CFD" stop-opacity=".99"/>
      <stop offset="100%" stop-color="#FFBEE8"/>
    </linearGradient>
  </defs>
  <path fill="url(#icon-18-1-a)" d="M407.5,2831 C411.782647,2831 415.818304,2832.54686 418.961138,2835.2744 L417.783915,2832.27859 C417.694213,2832.05011 417.784249,2831.79544 417.985894,2831.67079 L418.066609,2831.63045 C418.295091,2831.54075 418.549757,2831.63079 418.674405,2831.83243 L418.714748,2831.91315 L420.757645,2837.11666 C420.896635,2837.47068 420.607484,2837.83092 420.249798,2837.798 L420.159157,2837.78135 L414.770606,2836.29356 C414.504423,2836.22006 414.348218,2835.9447 414.421712,2835.67852 C414.487039,2835.44191 414.711868,2835.2922 414.947972,2835.31347 L415.03675,2835.32963 L418.633685,2836.322 C415.625689,2833.5686 411.689021,2832 407.5,2832 C398.387302,2832 391,2839.3873 391,2848.5 C391,2857.6127 398.387302,2865 407.5,2865 C409.641224,2865 411.724967,2864.59222 413.667632,2863.80879 C415.786309,2862.95438 417.704312,2861.66553 419.300495,2860.0325 C419.493516,2859.83502 419.810078,2859.83141 420.007556,2860.02443 C420.205034,2860.21745 420.208646,2860.53401 420.015625,2860.73149 C418.323134,2862.46306 416.289108,2863.82987 414.041641,2864.73622 C411.980605,2865.56738 409.769936,2866 407.5,2866 C397.835017,2866 390,2858.16498 390,2848.5 C390,2838.83502 397.835017,2831 407.5,2831 Z M420.897728,2858.60236 C421.052145,2858.37343 421.362911,2858.31303 421.591843,2858.46744 C421.820775,2858.62186 421.881182,2858.93262 421.726765,2859.16156 C421.572348,2859.39049 421.261582,2859.4509 421.03265,2859.29648 C420.803718,2859.14206 420.743311,2858.8313 420.897728,2858.60236 Z M422.722477,2855.16025 C422.825922,2854.90422 423.117338,2854.78052 423.373373,2854.88396 C423.629407,2854.98741 423.753106,2855.27882 423.649661,2855.53486 C423.546216,2855.79089 423.254801,2855.91459 422.998766,2855.81115 C422.742731,2855.7077 422.619033,2855.41629 422.722477,2855.16025 Z M412.624,2843.632 L409.804,2853.58 L409.132,2853.58 L411.952,2843.632 L412.624,2843.632 Z M399.4,2844.04 C399.824,2844.04 400.198,2844.102 400.522,2844.226 C400.846,2844.35 401.118,2844.516 401.338,2844.724 C401.558,2844.932 401.724,2845.18 401.836,2845.468 C401.948,2845.756 402.004,2846.06 402.004,2846.38 C402.004,2846.756 401.942,2847.088 401.818,2847.376 C401.694,2847.664 401.53,2847.92 401.326,2848.144 C401.122,2848.368 400.89,2848.568 400.63,2848.744 C400.37,2848.92 400.104,2849.086 399.832,2849.242 C399.56,2849.398 399.292,2849.548 399.028,2849.692 C398.764,2849.836 398.528,2849.988 398.32,2850.148 C398.184,2850.252 398.052,2850.362 397.924,2850.478 C397.796,2850.594 397.68,2850.72 397.576,2850.856 C397.472,2850.992 397.388,2851.142 397.324,2851.306 C397.276,2851.429 397.24375,2851.56212 397.22725,2851.70538 L397.216,2851.852 L401.932,2851.852 L401.932,2852.5 L396.4,2852.5 L396.40912,2852.26 C396.42704,2851.9464 396.468,2851.6584 396.532,2851.396 C396.612,2851.068 396.788,2850.748 397.06,2850.436 C397.356,2850.1 397.662,2849.812 397.978,2849.572 C398.294,2849.332 398.604,2849.118 398.908,2848.93 C399.212,2848.742 399.5,2848.57 399.772,2848.414 C400.044,2848.258 400.284,2848.088 400.492,2847.904 C400.7,2847.72 400.864,2847.512 400.984,2847.28 C401.104,2847.048 401.164,2846.764 401.164,2846.428 C401.164,2846.156 401.116,2845.912 401.02,2845.696 C400.924,2845.48 400.792,2845.296 400.624,2845.144 C400.456,2844.992 400.26,2844.878 400.036,2844.802 C399.812,2844.726 399.568,2844.688 399.304,2844.688 C399.024,2844.688 398.77,2844.746 398.542,2844.862 C398.314,2844.978 398.118,2845.132 397.954,2845.324 C397.79,2845.516 397.664,2845.74 397.576,2845.996 C397.5056,2846.2008 397.46848,2846.41584 397.46464,2846.64112 L397.468,2846.812 L396.652,2846.812 L396.65968,2846.56696 C396.68016,2846.24632 396.7416,2845.95 396.844,2845.678 C396.972,2845.338 397.156,2845.046 397.396,2844.802 C397.636,2844.558 397.926,2844.37 398.266,2844.238 C398.606,2844.106 398.984,2844.04 399.4,2844.04 Z M407.56,2844.124 L407.56,2849.764 L408.736,2849.764 L408.736,2850.412 L407.56,2850.412 L407.56,2852.5 L406.792,2852.5 L406.792,2850.412 L402.928,2850.412 L402.928,2849.752 L406.864,2844.124 L407.56,2844.124 Z M418.6,2844.124 L418.6,2844.844 L418.303667,2845.1895 C417.822556,2845.76783 417.405333,2846.35867 417.052,2846.962 C416.628,2847.686 416.28,2848.39 416.008,2849.074 C415.736,2849.758 415.534,2850.396 415.402,2850.988 C415.292,2851.48133 415.2195,2851.91356 415.1845,2852.28467 L415.168,2852.5 L414.328,2852.5 L414.354833,2852.19283 C414.410944,2851.67561 414.524,2851.132 414.694,2850.562 C414.898,2849.878 415.152,2849.2 415.456,2848.528 C415.76,2847.856 416.104,2847.206 416.488,2846.578 C416.7952,2846.0756 417.11008,2845.61544 417.43264,2845.19752 L417.676,2844.892 L413.212,2844.892 L413.212,2844.124 L418.6,2844.124 Z M424.244479,2850.99302 L424.334508,2850.99912 C424.607251,2851.04232 424.793333,2851.29844 424.750135,2851.57118 C424.706937,2851.84393 424.450816,2852.03001 424.178073,2851.98681 C423.905331,2851.94361 423.719248,2851.68749 423.762446,2851.41475 C423.805645,2851.14201 424.061765,2850.95592 424.334508,2850.99912 Z M406.792,2845.276 L403.684,2849.764 L406.792,2849.764 L406.792,2845.276 Z M424.4467,2846.99912 C424.722464,2846.98466 424.957731,2847.1965 424.972183,2847.47226 C424.986635,2847.74803 424.7748,2847.98329 424.499036,2847.99774 C424.223272,2848.0122 423.988006,2847.80036 423.973553,2847.5246 C423.959101,2847.24883 424.170936,2847.01357 424.4467,2846.99912 Z M423.687856,2843.07009 C423.953301,2842.99398 424.230191,2843.14746 424.306306,2843.41291 C424.382421,2843.67835 424.228939,2843.95524 423.963494,2844.03136 C423.698048,2844.10747 423.421159,2843.95399 423.345044,2843.68854 C423.268929,2843.4231 423.422411,2843.14621 423.687856,2843.07009 Z M422.110237,2839.39297 C422.354056,2839.26333 422.656806,2839.35589 422.786447,2839.59971 C422.916088,2839.84353 422.823528,2840.14628 422.579709,2840.27592 C422.335889,2840.40556 422.03314,2840.313 421.903499,2840.06918 C421.773858,2839.82536 421.866418,2839.52261 422.110237,2839.39297 Z" transform="translate(-390 -2831)"/>
</svg>
