<svg xmlns="http://www.w3.org/2000/svg" width="40" height="40" viewBox="0 0 40 40">
  <defs>
    <linearGradient id="icon-23-8-a" x1="100%" x2="0%" y1="100%" y2="0%">
      <stop offset="0%" stop-color="#1E85E9"/>
      <stop offset="20.276%" stop-color="#8671F3"/>
      <stop offset="70.727%" stop-color="#C06CFD" stop-opacity=".99"/>
      <stop offset="100%" stop-color="#FFBEE8"/>
    </linearGradient>
  </defs>
  <path fill="url(#icon-23-8-a)" d="M1396.01096,3569.83525 C1396.25642,3569.83525 1396.46057,3570.01293 1396.5029,3570.24723 L1396.51096,3570.33751 L1396.51096,3571.49321 C1396.51096,3572.27644 1395.91607,3572.92009 1395.15542,3572.9931 L1395.01096,3573 L1391.02474,3573 C1390.24504,3573 1389.60429,3572.40242 1389.53161,3571.63833 L1389.52474,3571.49321 L1389.52474,3570.33751 C1389.52474,3570.06012 1389.7486,3569.83525 1390.02474,3569.83525 C1390.2702,3569.83525 1390.47435,3570.01293 1390.51668,3570.24723 L1390.52474,3570.33751 L1390.52474,3571.49321 C1390.52474,3571.73979 1390.70161,3571.94486 1390.93486,3571.98738 L1391.02474,3571.99548 L1395.01096,3571.99548 C1395.25642,3571.99548 1395.46057,3571.8178 1395.5029,3571.5835 L1395.51096,3571.49321 L1395.51096,3570.33751 C1395.51096,3570.06012 1395.73482,3569.83525 1396.01096,3569.83525 Z M1393,3541.53845 C1399.35127,3541.53845 1404.5,3546.71046 1404.5,3553.09047 C1404.5,3556.59208 1402.93826,3559.83532 1400.30234,3562.0149 L1400.03519,3562.22929 L1399.829,3562.38599 L1399.741,3562.44961 L1399.49415,3562.69711 C1397.67975,3564.5527 1396.70455,3566.38231 1396.5453,3568.18914 L1396.52752,3568.45999 L1396.52196,3568.71822 C1396.52196,3568.96479 1396.34509,3569.16986 1396.11184,3569.21239 L1396.02196,3569.22048 L1390.02196,3569.22048 C1389.74582,3569.22048 1389.52196,3568.99561 1389.52196,3568.71822 C1389.52196,3566.94822 1388.52389,3564.94114 1386.55554,3562.76089 L1386.2933,3562.47554 L1386.02973,3562.27945 C1383.19644,3560.10761 1381.5,3556.73978 1381.5,3553.09047 C1381.5,3546.71046 1386.64873,3541.53845 1393,3541.53845 Z M1394.552,3533 C1395.44348,3533.01324 1396.21662,3533.60272 1396.47724,3534.44619 L1396.52,3534.60724 L1397,3537.21056 C1397.0612,3537.4404 1397.1488,3537.66179 1397.262,3537.87073 C1398.02236,3539.27489 1399.73523,3539.8273 1401.15728,3539.15802 L1401.32,3539.07536 L1403.4,3537.58063 C1404.17176,3537.03492 1405.20715,3537.09323 1405.91188,3537.70127 L1406.04,3537.82171 L1408.2,3539.97541 C1408.88179,3540.64175 1409.01225,3541.68467 1408.53635,3542.49447 L1408.44,3542.64342 L1406.9516,3544.66854 C1406.8184,3544.9032 1406.7172,3545.15433 1406.6504,3545.41591 C1406.25581,3546.96652 1407.13995,3548.54441 1408.63895,3549.0237 L1408.808,3549.07237 L1411.4,3549.55455 C1412.27529,3549.75157 1412.91425,3550.49495 1412.99207,3551.38001 L1413,3551.54752 L1413,3554.64949 C1412.98682,3555.545 1412.39999,3556.32164 1411.56032,3556.58343 L1411.4,3556.62639 L1408.8084,3557.10856 L1408.58255,3557.17876 C1408.43404,3557.23156 1408.28987,3557.29621 1408.1512,3557.37175 C1406.75336,3558.13554 1406.20345,3559.85617 1406.86971,3561.28465 L1406.952,3561.4481 L1408.44,3563.53751 C1408.99191,3564.31617 1408.93402,3565.36534 1408.32136,3566.07666 L1408.2,3566.20593 L1406.04,3568.35922 C1405.37892,3569.03578 1404.35005,3569.16598 1403.54765,3568.69556 L1403.4,3568.60031 L1401.4484,3567.10558 C1401.1896,3566.94968 1400.9088,3566.83396 1400.6156,3566.76203 C1400.06576,3566.62732 1399.51442,3566.65466 1399.01136,3566.81363 L1399.50835,3565.63812 C1399.95102,3565.59369 1400.40841,3565.62288 1400.86502,3565.73475 C1401.18209,3565.81253 1401.48813,3565.92815 1401.77671,3566.07902 L1401.98977,3566.19875 L1402.08663,3566.26472 L1404.03823,3567.75945 L1404.14218,3567.82218 C1404.46551,3567.98752 1404.88429,3567.94747 1405.19099,3567.70634 L1405.28878,3567.61853 L1407.45852,3565.45539 L1407.54888,3565.3548 C1407.7968,3565.0398 1407.83567,3564.61279 1407.652,3564.26393 L1407.58251,3564.1508 L1406.09588,3562.06333 L1406.02732,3561.95336 L1405.9296,3561.76112 C1405.00808,3559.82453 1405.74917,3557.48054 1407.64822,3556.44288 C1407.77391,3556.3744 1407.90227,3556.31287 1408.03315,3556.25839 L1408.23132,3556.18196 L1408.49726,3556.09842 L1408.6167,3556.06885 L1411.2083,3555.58668 L1411.31798,3555.55389 C1411.63937,3555.43397 1411.88715,3555.12518 1411.938,3554.75817 L1411.94748,3554.63386 L1411.94748,3551.54752 L1411.93871,3551.42421 C1411.88984,3551.05956 1411.63894,3550.74753 1411.28973,3550.62134 L1411.16983,3550.58635 L1408.61633,3550.11209 L1408.40973,3550.0538 C1406.30349,3549.40287 1405.09466,3547.25997 1405.63056,3545.15404 C1405.69832,3544.88869 1405.79209,3544.63171 1405.91055,3544.38626 L1406.03718,3544.14478 L1406.10476,3544.0405 L1407.59316,3542.01538 L1407.65999,3541.90599 C1407.83647,3541.56732 1407.79738,3541.14176 1407.55446,3540.83198 L1407.46595,3540.73328 L1405.29845,3538.57218 L1405.19823,3538.48195 C1404.88478,3538.23438 1404.46315,3538.19528 1404.1179,3538.37665 L1404.0059,3538.44529 L1401.93245,3539.93535 L1401.82298,3540.00422 L1401.63161,3540.10238 C1399.70374,3541.02808 1397.3703,3540.28362 1396.33732,3538.37599 C1396.22282,3538.16466 1396.12743,3537.94347 1396.05194,3537.71483 L1395.98312,3537.48379 L1395.48497,3534.79981 L1395.45232,3534.68962 C1395.33295,3534.36678 1395.02555,3534.11789 1394.66019,3534.06681 L1394.53644,3534.05728 L1391.47151,3534.05728 C1391.04672,3534.0604 1390.67549,3534.33272 1390.53856,3534.72778 L1390.50716,3534.83845 L1390.03503,3537.4035 L1389.96142,3537.64499 C1389.56489,3538.83404 1388.7457,3539.74386 1387.67437,3540.23139 C1386.52147,3540.68792 1385.2819,3540.62566 1384.22901,3540.08647 L1384.021,3539.97228 L1383.91822,3539.90354 L1381.96622,3538.42488 L1381.86111,3538.3613 C1381.53465,3538.19364 1381.11574,3538.23345 1380.80902,3538.47458 L1380.71122,3538.56241 L1378.54155,3540.72587 L1378.45119,3540.82642 C1378.20326,3541.14131 1378.16437,3541.56836 1378.34791,3541.91692 L1378.41735,3542.02994 L1379.90412,3544.11761 L1379.97268,3544.22757 L1380.0704,3544.41982 C1380.99197,3546.35644 1380.25119,3548.70042 1378.35218,3549.73806 C1378.14212,3549.8529 1377.9219,3549.94869 1377.69434,3550.02455 L1377.46444,3550.09374 L1374.79167,3550.59426 L1374.68199,3550.62706 C1374.36063,3550.74696 1374.11285,3551.05576 1374.062,3551.42276 L1374.05252,3551.54707 L1374.05252,3554.63342 L1374.06212,3554.7538 C1374.11318,3555.11017 1374.36365,3555.41861 1374.711,3555.54378 L1374.83023,3555.57853 L1377.38984,3556.07001 L1377.59551,3556.12572 C1379.69316,3556.75038 1380.92546,3558.87901 1380.41265,3560.99107 C1380.33513,3561.30951 1380.22002,3561.61684 1380.06988,3561.90659 L1379.95075,3562.1205 L1378.41612,3564.28131 L1378.35745,3564.39022 C1378.22266,3564.69184 1378.26123,3565.07592 1378.47302,3565.36915 L1378.56056,3565.47451 L1380.70155,3567.60876 L1380.79531,3567.68765 C1381.08963,3567.90395 1381.4948,3567.93604 1381.82997,3567.76257 L1381.93885,3567.69711 L1384.00315,3566.21345 L1384.09557,3566.15409 L1384.28511,3566.05238 C1385.04966,3565.66761 1385.88399,3565.54897 1386.67826,3565.66607 L1387.20524,3566.896 C1386.45237,3566.59389 1385.58424,3566.60038 1384.8077,3566.9727 L1384.6156,3567.07343 L1382.5356,3568.56816 C1381.78341,3569.08815 1380.78638,3569.04115 1380.08743,3568.47204 L1379.96,3568.35922 L1377.8,3566.20553 C1377.185,3565.55987 1377.05938,3564.59602 1377.47059,3563.81888 L1377.56,3563.66609 L1379.048,3561.57668 C1379.2032,3561.31671 1379.3184,3561.03464 1379.39,3560.74052 C1379.76761,3559.18526 1378.86613,3557.61804 1377.36162,3557.15537 L1377.192,3557.10856 L1374.6,3556.61032 C1373.72998,3556.41442 1373.09274,3555.67859 1373.00911,3554.79977 L1373,3554.63342 L1373,3551.53145 C1373.01318,3550.63593 1373.60001,3549.8593 1374.43968,3549.5975 L1374.6,3549.55455 L1377.192,3549.07237 C1377.4204,3549.0109 1377.6412,3548.9229 1377.8492,3548.80919 C1379.24704,3548.04539 1379.79658,3546.32477 1379.1303,3544.89629 L1379.048,3544.73283 L1377.56,3542.64342 C1377.00809,3541.86514 1377.06598,3540.81565 1377.67864,3540.10461 L1377.8,3539.97541 L1379.96,3537.82171 C1380.62108,3537.14516 1381.6496,3537.01496 1382.45229,3537.48537 L1382.6,3537.58063 L1384.552,3539.05929 C1385.3688,3539.53864 1386.3596,3539.61579 1387.24,3539.26823 C1388.03857,3538.90482 1388.6509,3538.2296 1388.93927,3537.40406 L1389,3537.21096 L1389.48,3534.60724 C1389.67614,3533.72798 1390.41617,3533.08613 1391.29724,3533.00797 L1391.464,3533 L1394.552,3533 Z M1393,3542.54297 C1387.20101,3542.54297 1382.5,3547.26525 1382.5,3553.09047 C1382.5,3556.31207 1383.94689,3559.29187 1386.37581,3561.27494 L1386.63056,3561.4765 L1386.9544,3561.72708 C1389.03725,3563.94345 1390.217,3566.01051 1390.47015,3567.93763 L1390.49893,3568.19956 L1390.499,3568.21658 L1395.54,3568.21658 L1395.54482,3568.15087 C1395.70439,3566.17164 1396.69881,3564.21339 1398.5075,3562.27894 L1398.78491,3561.98896 L1399.035,3561.73941 L1399.04725,3561.72386 L1399.11673,3561.66339 L1399.23483,3561.5781 L1399.42697,3561.43195 C1401.97795,3559.4456 1403.5,3556.39488 1403.5,3553.09047 C1403.5,3547.26525 1398.79899,3542.54297 1393,3542.54297 Z M1394.00694,3565.59676 C1394.28309,3565.59676 1394.50694,3565.82163 1394.50694,3566.09902 C1394.50694,3566.34559 1394.33007,3566.55067 1394.09682,3566.59319 L1394.00694,3566.60129 L1392.02203,3566.60129 C1391.74588,3566.60129 1391.52203,3566.37642 1391.52203,3566.09902 C1391.52203,3565.85245 1391.6989,3565.64738 1391.93215,3565.60485 L1392.02203,3565.59676 L1394.00694,3565.59676 Z" transform="translate(-1373 -3533)"/>
</svg>
