<svg xmlns="http://www.w3.org/2000/svg" width="32" height="38" viewBox="0 0 32 38">
  <defs>
    <linearGradient id="icon-20-8-a" x1="84.358%" x2="15.642%" y1="100%" y2="0%">
      <stop offset="0%" stop-color="#1E85E9"/>
      <stop offset="20.276%" stop-color="#8671F3"/>
      <stop offset="70.727%" stop-color="#C06CFD" stop-opacity=".99"/>
      <stop offset="100%" stop-color="#FFBEE8"/>
    </linearGradient>
  </defs>
  <path fill="url(#icon-20-8-a)" d="M1393.58868,3111 C1394.95799,3111 1396.09591,3111.98912 1396.32473,3113.29076 L1398.78333,3113.29096 C1399.52056,3113.29096 1400.1545,3113.7823 1400.22652,3114.45049 L1400.23333,3114.57777 L1400.233,3115.221 L1404.64778,3115.22118 C1405.88764,3115.22118 1406.91139,3116.14375 1406.99455,3117.32232 L1407,3117.47744 L1407.0013,3125.03077 C1406.69495,3124.72327 1406.37203,3124.43229 1406.03398,3124.15928 L1406.03333,3117.47744 C1406.03333,3116.81159 1405.48855,3116.25538 1404.78205,3116.19225 L1404.64778,3116.18628 L1400.233,3116.186 L1400.23333,3117.7948 C1400.23333,3118.48386 1399.64277,3119.01574 1398.92024,3119.07593 L1398.78333,3119.08161 L1386.21667,3119.08161 C1385.47944,3119.08161 1384.8455,3118.59027 1384.77348,3117.92208 L1384.76667,3117.7948 L1384.766,3116.186 L1380.35222,3116.18628 C1379.627,3116.18628 1379.03956,3116.70333 1378.97296,3117.35398 L1378.96667,3117.47744 L1378.96667,3146.74373 C1378.96667,3147.40958 1379.51145,3147.96579 1380.21795,3148.02893 L1380.35222,3148.03489 L1404.64778,3148.03489 C1405.373,3148.03489 1405.96044,3147.51785 1406.02704,3146.8672 L1406.03333,3146.74373 L1406.03398,3142.84072 C1406.37203,3142.56771 1406.69495,3142.27673 1407.0013,3141.96923 L1407,3146.74373 C1407,3147.9433 1406.02792,3148.91586 1404.80821,3148.99482 L1404.64778,3149 L1380.35222,3149 C1379.11236,3149 1378.08861,3148.07742 1378.00545,3146.89885 L1378,3146.74373 L1378,3117.47744 C1378,3116.27788 1378.97208,3115.30532 1380.19179,3115.22635 L1380.35222,3115.22118 L1384.766,3115.221 L1384.76667,3114.57777 C1384.76667,3113.8887 1385.35723,3113.35683 1386.07976,3113.29664 L1386.21667,3113.29096 L1388.67536,3113.29021 C1388.89524,3112.04093 1389.95258,3111.07965 1391.24809,3111.00471 L1391.41132,3111 L1393.58868,3111 Z M1398.5,3122.5 C1404.57513,3122.5 1409.5,3127.42487 1409.5,3133.5 C1409.5,3139.57513 1404.57513,3144.5 1398.5,3144.5 C1392.42487,3144.5 1387.5,3139.57513 1387.5,3133.5 C1387.5,3127.42487 1392.42487,3122.5 1398.5,3122.5 Z M1398.5,3123.5 C1392.97715,3123.5 1388.5,3127.97715 1388.5,3133.5 C1388.5,3139.02285 1392.97715,3143.5 1398.5,3143.5 C1404.02285,3143.5 1408.5,3139.02285 1408.5,3133.5 C1408.5,3127.97715 1404.02285,3123.5 1398.5,3123.5 Z M1385.25,3137.41869 C1385.48728,3137.41869 1385.68462,3137.58939 1385.72555,3137.8145 L1385.73333,3137.90124 L1385.73333,3141.76168 C1385.73333,3141.99858 1385.56235,3142.1956 1385.33688,3142.23646 L1385.25,3142.24424 L1381.38333,3142.24424 C1381.14606,3142.24424 1380.94871,3142.07353 1380.90779,3141.84842 L1380.9,3141.76168 L1380.9,3137.90124 C1380.9,3137.66435 1381.07098,3137.46732 1381.29645,3137.42646 L1381.38333,3137.41869 L1385.25,3137.41869 Z M1384.76667,3138.38305 L1381.86667,3138.38305 L1381.86667,3141.27837 L1384.76667,3141.27837 L1384.76667,3138.38305 Z M1405.18512,3130.16797 C1405.34812,3130.3515 1405.35144,3130.6216 1405.20515,3130.80814 L1405.1433,3130.87384 L1396.69869,3138.37384 C1396.51281,3138.53894 1396.23868,3138.53995 1396.0523,3138.38893 L1395.98686,3138.32519 L1392.12019,3133.80906 C1391.9406,3133.5993 1391.96505,3133.28366 1392.17481,3133.10406 C1392.36127,3132.94442 1392.63138,3132.94601 1392.81523,3133.09565 L1392.87981,3133.15868 L1396.415,3137.288 L1404.47925,3130.12616 C1404.68572,3129.94278 1405.00175,3129.96151 1405.18512,3130.16797 Z M1385.25,3130.66292 C1385.48728,3130.66292 1385.68462,3130.83363 1385.72555,3131.05874 L1385.73333,3131.14548 L1385.73333,3135.00592 C1385.73333,3135.24281 1385.56235,3135.43984 1385.33688,3135.4807 L1385.25,3135.48847 L1381.38333,3135.48847 C1381.14606,3135.48847 1380.94871,3135.31777 1380.90779,3135.09266 L1380.9,3135.00592 L1380.9,3131.14548 C1380.9,3130.90858 1381.07098,3130.71156 1381.29645,3130.6707 L1381.38333,3130.66292 L1385.25,3130.66292 Z M1384.76667,3131.62728 L1381.86667,3131.62728 L1381.86667,3134.52261 L1384.76667,3134.52261 L1384.76667,3131.62728 Z M1385.25,3123.90716 C1385.48728,3123.90716 1385.68462,3124.07786 1385.72555,3124.30297 L1385.73333,3124.38971 L1385.73333,3128.25015 C1385.73333,3128.48705 1385.56235,3128.68407 1385.33688,3128.72493 L1385.25,3128.73271 L1381.38333,3128.73271 C1381.14606,3128.73271 1380.94871,3128.562 1380.90779,3128.33689 L1380.9,3128.25015 L1380.9,3124.38971 C1380.9,3124.15282 1381.07098,3123.95579 1381.29645,3123.91493 L1381.38333,3123.90716 L1385.25,3123.90716 Z M1384.76667,3124.87152 L1381.86667,3124.87152 L1381.86667,3127.76684 L1384.76667,3127.76684 L1384.76667,3124.87152 Z M1398.78333,3114.25607 L1386.21667,3114.25607 C1385.96778,3114.25607 1385.78439,3114.38276 1385.74243,3114.51909 L1385.73333,3114.57777 L1385.73333,3117.7948 C1385.73333,3117.9315 1385.88561,3118.07528 1386.11423,3118.10909 L1386.21667,3118.1165 L1398.78333,3118.1165 C1399.03222,3118.1165 1399.21561,3117.98981 1399.25757,3117.85348 L1399.26667,3117.7948 L1399.26667,3114.57777 C1399.26667,3114.42154 1399.06778,3114.25607 1398.78333,3114.25607 Z M1393.58868,3111.96511 L1391.41132,3111.96511 C1390.57853,3111.96511 1389.87701,3112.52622 1389.66535,3113.29042 L1395.33461,3113.29027 C1395.13501,3112.56986 1394.50007,3112.02996 1393.73023,3111.97055 L1393.58868,3111.96511 Z" transform="translate(-1378 -3111)"/>
</svg>
