<svg xmlns="http://www.w3.org/2000/svg" xmlns:xlink="http://www.w3.org/1999/xlink" width="62" height="62" viewBox="0 0 62 62">
  <defs>
    <linearGradient id="icon-12-1-b" x1="100%" x2="0%" y1="100%" y2="0%">
      <stop offset="0%" stop-color="#1E85E9"/>
      <stop offset="20.276%" stop-color="#8671F3"/>
      <stop offset="70.727%" stop-color="#C06CFD" stop-opacity=".99"/>
      <stop offset="100%" stop-color="#FFBEE8"/>
    </linearGradient>
    <rect id="icon-12-1-a" width="60" height="60" x="0" y="0" rx="4"/>
    <linearGradient id="icon-12-1-c" x1="100%" x2="0%" y1="91.796%" y2="8.204%">
      <stop offset="0%" stop-color="#1E85E9"/>
      <stop offset="20.276%" stop-color="#8671F3"/>
      <stop offset="70.727%" stop-color="#C06CFD" stop-opacity=".99"/>
      <stop offset="100%" stop-color="#FFBEE8"/>
    </linearGradient>
  </defs>
  <g fill="none" fill-rule="evenodd" transform="translate(1 1)">
    <g opacity=".062">
      <use fill="#FAFAFA" xlink:href="#icon-12-1-a"/>
      <use fill="url(#icon-12-1-b)" stroke="#000" stroke-opacity=".02" xlink:href="#icon-12-1-a"/>
    </g>
    <path fill="url(#icon-12-1-c)" fill-rule="nonzero" d="M45.6351351,13 C46.9412139,13 48,14.0853702 48,15.4242423 L48,15.4242423 L48,42.5757558 C48,43.9146279 46.9412139,45 45.6351351,45 L45.6351351,45 L15.3648649,45 C14.0587861,45 13,43.9146279 13,42.5757558 L13,42.5757558 L13,15.4242423 C13,14.0853702 14.0587861,13 15.3648649,13 L15.3648649,13 Z M47.054,19.303 L13.945,19.303 L13.9459459,42.5757558 C13.9459459,43.3318247 14.5086779,43.9531605 15.2282135,44.0236427 L15.3648649,44.0303012 L45.6351351,44.0303012 C46.4187824,44.0303012 47.0540541,43.379079 47.0540541,42.5757558 L47.0540541,42.5757558 L47.054,19.303 Z M28.6081081,22.6969691 C29.3917554,22.6969691 30.027027,23.3481913 30.027027,24.1515145 L30.027027,24.1515145 L30.027027,39.6666651 C30.027027,40.4699883 29.3917554,41.1212104 28.6081081,41.1212104 L28.6081081,41.1212104 L18.2027027,41.1212104 C17.4190554,41.1212104 16.7837838,40.4699883 16.7837838,39.6666651 L16.7837838,39.6666651 L16.7837838,24.1515145 C16.7837838,23.3481913 17.4190554,22.6969691 18.2027027,22.6969691 L18.2027027,22.6969691 Z M28.6081081,23.666666 L18.2027027,23.666666 C17.9414869,23.666666 17.7297297,23.8837401 17.7297297,24.1515145 L17.7297297,24.1515145 L17.7297297,39.666666 C17.7297297,39.9344395 17.9414869,40.1515135 18.2027027,40.1515135 L18.2027027,40.1515135 L28.6081081,40.1515135 C28.8693239,40.1515135 29.0810811,39.9344395 29.0810811,39.666666 L29.0810811,39.666666 L29.0810811,24.1515145 C29.0810811,23.8837401 28.8693239,23.666666 28.6081081,23.666666 L28.6081081,23.666666 Z M43.7432432,37.7272713 L43.7432432,38.6969682 L33.3378378,38.6969682 L33.3378378,37.7272713 L43.7432432,37.7272713 Z M43.7432432,34.8181805 L43.7432432,35.7878774 L33.3378378,35.7878774 L33.3378378,34.8181805 L43.7432432,34.8181805 Z M43.7432432,31.9090898 L43.7432432,32.8787867 L33.3378378,32.8787867 L33.3378378,31.9090898 L43.7432432,31.9090898 Z M42.7972973,23.666666 C43.5809446,23.666666 44.2162162,24.3178882 44.2162162,25.1212114 L44.2162162,25.1212114 L44.2162162,27.0606052 C44.2162162,27.8639284 43.5809446,28.5151506 42.7972973,28.5151506 L42.7972973,28.5151506 L34.2837838,28.5151506 C33.5001365,28.5151506 32.8648649,27.8639284 32.8648649,27.0606052 L32.8648649,27.0606052 L32.8648649,25.1212114 C32.8648649,24.3178882 33.5001365,23.666666 34.2837838,23.666666 L34.2837838,23.666666 Z M42.7972973,24.6363629 L34.2837838,24.6363629 C34.022568,24.6363629 33.8108108,24.853437 33.8108108,25.1212114 L33.8108108,25.1212114 L33.8108108,27.0606052 C33.8108108,27.3283796 34.022568,27.5454537 34.2837838,27.5454537 L34.2837838,27.5454537 L42.7972973,27.5454537 C43.0585131,27.5454537 43.2702703,27.3283796 43.2702703,27.0606052 L43.2702703,27.0606052 L43.2702703,25.1212114 C43.2702703,24.853437 43.0585131,24.6363629 42.7972973,24.6363629 L42.7972973,24.6363629 Z M45.6351351,13.9696969 L15.3648649,13.9696969 C14.5812176,13.9696969 13.9459459,14.6209191 13.9459459,15.4242423 L13.9459459,15.4242423 L13.945,18.333 L47.054,18.333 L47.0540541,15.4242423 C47.0540541,14.6681734 46.4913221,14.0468376 45.7717865,13.9763554 L45.6351351,13.9696969 Z M16.7837838,15.4242423 C17.0449995,15.4242423 17.2567568,15.6413163 17.2567568,15.9090907 C17.2567568,16.1768651 17.0449995,16.3939392 16.7837838,16.3939392 C16.522568,16.3939392 16.3108108,16.1768651 16.3108108,15.9090907 C16.3108108,15.6413163 16.522568,15.4242423 16.7837838,15.4242423 Z M19.6216216,15.4242423 C19.8828374,15.4242423 20.0945946,15.6413163 20.0945946,15.9090907 C20.0945946,16.1768651 19.8828374,16.3939392 19.6216216,16.3939392 C19.3604059,16.3939392 19.1486486,16.1768651 19.1486486,15.9090907 C19.1486486,15.6413163 19.3604059,15.4242423 19.6216216,15.4242423 Z M22.4594595,15.4242423 C22.7206752,15.4242423 22.9324324,15.6413163 22.9324324,15.9090907 C22.9324324,16.1768651 22.7206752,16.3939392 22.4594595,16.3939392 C22.1982437,16.3939392 21.9864865,16.1768651 21.9864865,15.9090907 C21.9864865,15.6413163 22.1982437,15.4242423 22.4594595,15.4242423 Z"/>
  </g>
</svg>
