<svg xmlns="http://www.w3.org/2000/svg" width="62" height="62" viewBox="0 0 62 62">
  <defs>
    <linearGradient id="icon-7-4-a" x1="100%" x2="0%" y1="100%" y2="0%">
      <stop offset="0%" stop-color="#1E85E9"/>
      <stop offset="20.276%" stop-color="#8671F3"/>
      <stop offset="70.727%" stop-color="#C06CFD" stop-opacity=".99"/>
      <stop offset="100%" stop-color="#FFBEE8"/>
    </linearGradient>
  </defs>
  <g fill="url(#icon-7-4-a)" fill-rule="evenodd" transform="translate(1 1)">
    <rect width="60" height="60" stroke="#000" stroke-opacity=".02" opacity=".062" rx="4"/>
    <path fill-rule="nonzero" d="M30.5,14.5 C31.9866011,14.5 33.2206526,15.581293 33.4585702,17.0002947 L40.5,17 L40.5009967,17.0134901 C44.3894696,17.2262334 46.5,19.9389484 46.5,23.9923326 C46.5,27.6934757 44.7549746,30.578674 41.697943,30.9577098 C41.6639057,30.9740002 41.6276291,30.9850919 41.5898756,30.9919443 L41.5,31 L33.4584039,31.0006962 C33.2200781,32.4192103 31.986255,33.5 30.5,33.5 C29.013745,33.5 27.7799219,32.4192103 27.5415961,31.0006962 L21.025,31 L20.8508684,31.004433 C17.89264,31.125258 16,33.7019383 16,37.0076674 C16,40.5221245 17.9497067,42.8879908 21.2611597,42.9961304 L21.5,43 L21.5,43 L27.5414298,43.0002947 C27.7698772,41.6377756 28.9167357,40.5866157 30.3237272,40.5050927 L30.5,40.5 C31.9866011,40.5 33.2206526,41.581293 33.4585702,43.0002947 L40.5414298,43.0002947 C40.7793474,41.581293 42.0133989,40.5 43.5,40.5 C45.1568542,40.5 46.5,41.8431458 46.5,43.5 C46.5,45.1568542 45.1568542,46.5 43.5,46.5 C42.013745,46.5 40.7799219,45.4192103 40.5415961,44.0006962 L33.4584039,44.0006962 C33.2200781,45.4192103 31.986255,46.5 30.5,46.5 C29.013745,46.5 27.7799219,45.4192103 27.5415961,44.0006962 L21,44 L21.0000608,43.9850011 C17.2520013,43.7571255 15,40.9536079 15,37.0076674 C15,33.2977094 17.152638,30.2869368 20.5694238,30.0193462 L20.5692139,30 L21.021,30 L21.0692139,30 L21.069,30 L27.5414298,30.0002947 C27.7698772,28.6377756 28.9167357,27.5866157 30.3237272,27.5050927 L30.5,27.5 C31.9866011,27.5 33.2206526,28.581293 33.4585702,30.0002947 L41,30 C43.8284907,30 45.5,27.4799611 45.5,23.9923326 C45.5,20.3693945 43.6963792,18.1069635 40.2490324,18.0036936 L40,18 L33.4584039,18.0006962 C33.2200781,19.4192103 31.986255,20.5 30.5,20.5 C29.0123608,20.5 27.777624,19.4171963 27.5409328,17.996732 L27.5,18 L20.4584039,18.0006962 C20.2200781,19.4192103 18.986255,20.5 17.5,20.5 C15.8431458,20.5 14.5,19.1568542 14.5,17.5 C14.5,15.8431458 15.8431458,14.5 17.5,14.5 C18.9866011,14.5 20.2206526,15.581293 20.4585702,17.0002947 L27.5,17 L27.5407678,17.0042593 C27.7770496,15.5833076 29.0120148,14.5 30.5,14.5 Z M30.5,41.5 C29.3954305,41.5 28.5,42.3954305 28.5,43.5 C28.5,44.6045695 29.3954305,45.5 30.5,45.5 C31.6045695,45.5 32.5,44.6045695 32.5,43.5 C32.5,42.3954305 31.6045695,41.5 30.5,41.5 Z M43.5,41.5 C42.3954305,41.5 41.5,42.3954305 41.5,43.5 C41.5,44.6045695 42.3954305,45.5 43.5,45.5 C44.6045695,45.5 45.5,44.6045695 45.5,43.5 C45.5,42.3954305 44.6045695,41.5 43.5,41.5 Z M30.5,28.5 C29.3954305,28.5 28.5,29.3954305 28.5,30.5 C28.5,31.6045695 29.3954305,32.5 30.5,32.5 C31.6045695,32.5 32.5,31.6045695 32.5,30.5 C32.5,29.3954305 31.6045695,28.5 30.5,28.5 Z M17.5,15.5 C16.3954305,15.5 15.5,16.3954305 15.5,17.5 C15.5,18.6045695 16.3954305,19.5 17.5,19.5 C18.6045695,19.5 19.5,18.6045695 19.5,17.5 C19.5,16.3954305 18.6045695,15.5 17.5,15.5 Z M30.5,15.5 C29.3954305,15.5 28.5,16.3954305 28.5,17.5 C28.5,18.6045695 29.3954305,19.5 30.5,19.5 C31.6045695,19.5 32.5,18.6045695 32.5,17.5 C32.5,16.3954305 31.6045695,15.5 30.5,15.5 Z"/>
  </g>
</svg>
