<svg xmlns="http://www.w3.org/2000/svg" xmlns:xlink="http://www.w3.org/1999/xlink" width="62" height="62" viewBox="0 0 62 62">
  <defs>
    <linearGradient id="icon-12-7-b" x1="100%" x2="0%" y1="100%" y2="0%">
      <stop offset="0%" stop-color="#1E85E9"/>
      <stop offset="20.276%" stop-color="#8671F3"/>
      <stop offset="70.727%" stop-color="#C06CFD" stop-opacity=".99"/>
      <stop offset="100%" stop-color="#FFBEE8"/>
    </linearGradient>
    <rect id="icon-12-7-a" width="60" height="60" x="0" y="0" rx="4"/>
    <linearGradient id="icon-12-7-c" x1="67.014%" x2="32.986%" y1="100%" y2="0%">
      <stop offset="0%" stop-color="#1E85E9"/>
      <stop offset="20.276%" stop-color="#8671F3"/>
      <stop offset="70.727%" stop-color="#C06CFD"/>
      <stop offset="100%" stop-color="#FFBEE8"/>
    </linearGradient>
  </defs>
  <g fill="none" fill-rule="evenodd" transform="translate(1 1)">
    <g opacity=".062">
      <use fill="#FAFAFA" xlink:href="#icon-12-7-a"/>
      <use fill="url(#icon-12-7-b)" stroke="#000" stroke-opacity=".02" xlink:href="#icon-12-7-a"/>
    </g>
    <path fill="url(#icon-12-7-c)" fill-rule="nonzero" d="M39.6538462,12 C40.3973064,12 41,12.6068806 41,13.3555058 L41,13.3555058 L41,22.1307528 C41,22.5492372 40.8080377,22.9442596 40.4798842,23.2010534 L40.4798842,23.2010534 L31.792,30 L40.4798842,36.7989466 C40.8080377,37.0557404 41,37.4507628 41,37.8692472 L41,46.6444942 C41,47.3931194 40.3973064,48 39.6538462,48 L21.3461538,48 C20.6026936,48 20,47.3931194 20,46.6444942 L20,37.8692472 C20,37.4507628 20.1919623,37.0557404 20.5201158,36.7989466 L29.207,30 L20.5201158,23.2010534 C20.2284238,22.9727922 20.0443397,22.6353134 20.0070332,22.2692212 L20,22.1307528 L20,13.3555058 C20,12.6068806 20.6026936,12 21.3461538,12 L21.3461538,12 Z M40.102,43.989 L20.897,43.989 L20.8974359,46.6444942 C20.8974359,46.894036 21.0983338,47.0963295 21.3461538,47.0963295 L39.6538462,47.0963295 C39.9016662,47.0963295 40.1025641,46.894036 40.1025641,46.6444942 L40.102,43.989 Z M31.0218912,30.5436519 C30.6886077,30.6848177 30.3113923,30.6848177 29.9781088,30.5436519 L21.0708078,37.5124803 C20.9614233,37.5980783 20.8974359,37.7297524 20.8974359,37.8692472 L20.897,43.086 L40.102,43.086 L40.1025641,37.8692472 C40.1025641,37.7297524 40.0385767,37.5980783 39.9291922,37.5124803 Z M39.6538462,12.9036705 L21.3461538,12.9036705 C21.0983338,12.9036705 20.8974359,13.105964 20.8974359,13.3555058 L20.8974359,13.3555058 L20.8974359,22.1307528 C20.8974359,22.2702476 20.9614233,22.4019217 21.0708078,22.4875197 L21.0708078,22.4875197 L29.9781088,29.4563481 C30.3113923,29.3151823 30.6886077,29.3151823 31.0218912,29.4563481 L39.9291922,22.4875197 C40.0385767,22.4019217 40.1025641,22.2702476 40.1025641,22.1307528 L40.1025641,22.1307528 L40.1025641,13.3555058 C40.1025641,13.105964 39.9016662,12.9036705 39.6538462,12.9036705 L39.6538462,12.9036705 Z"/>
  </g>
</svg>
