<svg xmlns="http://www.w3.org/2000/svg" xmlns:xlink="http://www.w3.org/1999/xlink" width="62" height="62" viewBox="0 0 62 62">
  <defs>
    <linearGradient id="icon-6-5-b" x1="100%" x2="0%" y1="100%" y2="0%">
      <stop offset="0%" stop-color="#1E85E9"/>
      <stop offset="20.276%" stop-color="#8671F3"/>
      <stop offset="70.727%" stop-color="#C06CFD" stop-opacity=".99"/>
      <stop offset="100%" stop-color="#FFBEE8"/>
    </linearGradient>
    <rect id="icon-6-5-a" width="60" height="60" x="0" y="0" rx="4"/>
  </defs>
  <g fill="none" fill-rule="evenodd" transform="translate(1 1)">
    <g opacity=".062">
      <use fill="#FAFAFA" xlink:href="#icon-6-5-a"/>
      <use fill="url(#icon-6-5-b)" stroke="#000" stroke-opacity=".02" xlink:href="#icon-6-5-a"/>
    </g>
    <path fill="url(#icon-6-5-b)" fill-rule="nonzero" d="M35.6344528,16 L24.3655472,16 C23.8267835,16 23.3900293,16.4367542 23.3900293,16.9755179 L23.3900293,23.3177373 C23.3900293,23.3576631 23.3576631,23.3900293 23.3177373,23.3900293 L16.9755179,23.3900293 C16.4367542,23.3900293 16,23.8267835 16,24.3655472 L16,35.6344528 L16.0057242,35.7407462 C16.0586873,36.2295092 16.4726718,36.6099707 16.9755179,36.6099707 L23.3892903,36.6098065 L23.3900293,43.0244821 C23.3900293,43.5632458 23.8267835,44 24.3655472,44 L35.6344528,44 L35.7407462,43.9942758 C36.2295092,43.9413127 36.6099707,43.5273282 36.6099707,43.0244821 L36.6098065,36.6098065 L43.0244821,36.6099707 C43.5632458,36.6099707 44,36.1732165 44,35.6344528 L44,24.3655472 C44,23.826806 43.5632735,23.3901394 43.0246232,23.3899711 L36.6823129,23.3892664 C36.6424101,23.389254 36.6099787,23.3568189 36.6099707,23.3168253 L36.6099707,16.9755179 C36.6099707,16.4367542 36.1732165,16 35.6344528,16 Z M24.3655472,16.9032258 L35.6344528,16.9032258 C35.6743786,16.9032258 35.7067449,16.9355921 35.7067449,16.9755179 L35.7067449,23.3169162 C35.7068533,23.8556574 36.1434714,24.292324 36.6821217,24.2924922 L43.024432,24.2931969 C43.0643347,24.2932094 43.0967742,24.3256444 43.0967742,24.3656381 L43.0967742,35.6344528 C43.0967742,35.6743786 43.0644079,35.7067449 43.0244821,35.7067449 L35.7067449,35.7067449 L35.7067449,43.0244821 C35.7067449,43.0644079 35.6743786,43.0967742 35.6344528,43.0967742 L24.3655472,43.0967742 C24.3256214,43.0967742 24.2932551,43.0644079 24.2932551,43.0244821 L24.2932551,35.7067449 L16.9755179,35.7067449 C16.9355921,35.7067449 16.9032258,35.6743786 16.9032258,35.6344528 L16.9032258,24.3655472 C16.9032258,24.3256214 16.9355921,24.2932551 16.9755179,24.2932551 L23.3177373,24.2932551 C23.8565009,24.2932551 24.2932551,23.8565009 24.2932551,23.3177373 L24.2932551,16.9755179 C24.2932551,16.9355921 24.3256214,16.9032258 24.3655472,16.9032258 Z"/>
  </g>
</svg>
