<svg xmlns="http://www.w3.org/2000/svg" width="33" height="39" viewBox="0 0 33 39">
  <defs>
    <linearGradient id="ico-managed-qa-services-4-a" x1="85.799%" x2="14.201%" y1="100%" y2="0%">
      <stop offset="0%" stop-color="#1E85E9"/>
      <stop offset="20.276%" stop-color="#8671F3"/>
      <stop offset="70.727%" stop-color="#C06CFD" stop-opacity=".99"/>
      <stop offset="100%" stop-color="#FFBEE8"/>
    </linearGradient>
  </defs>
  <path fill="url(#ico-managed-qa-services-4-a)" d="M48.2107273,20.5050773 C48.9476819,19.8298982 50.0597779,19.8298982 50.8078649,20.5155946 C54.306743,23.9240631 58.5028072,25.5100478 64.0569727,25.5100478 C65.1063245,25.5100478 65.9214631,26.3247489 65.9214631,27.3735374 C65.9214631,28.2892067 65.9245699,28.880167 65.9368503,29.4077413 L65.9368503,29.4077413 L65.9668521,30.2731495 C66.1121504,37.9335197 65.8235404,41.7342206 64.2189058,46.0586807 C62.0148064,51.9986874 57.552772,56.3237933 50.0566011,58.9090911 L50.0566011,58.9090911 L49.6018122,59 L49.4056475,59 L48.8859468,58.8915066 C39.1007263,55.5200645 34.5747597,49.2696557 33.3702983,40.183864 C33.0516361,37.7800527 32.9703213,35.720524 33.0088531,32.277677 L33.0088531,32.277677 L33.0375622,30.4329788 L33.0612035,29.7465208 C33.0703636,29.4648209 33.0763189,29.1801556 33.0800902,28.8483188 L33.0800902,28.8483188 L33.0859967,27.3735374 C33.0859967,26.3247489 33.9011353,25.5100478 34.9504871,25.5100478 C40.5046525,25.5100478 44.7007168,23.9240631 48.1995949,20.5155946 L48.1995949,20.5155946 Z M50.1208404,21.2420183 C49.7663018,20.917199 49.241158,20.917199 48.8866193,21.2420183 L48.8866193,21.2420183 L48.5882896,21.5268204 C45.0609319,24.8236297 40.8445143,26.4174761 35.4312472,26.5058618 L35.4312472,26.5058618 L34.9504871,26.5097587 C34.4535568,26.5097587 34.0862444,26.8768739 34.0862444,27.3735374 C34.0862444,28.4015784 34.0823455,29.026538 34.0662955,29.6022617 L34.0662955,29.6022617 L34.0406748,30.292143 L34.0211532,31.3958593 C33.9640277,35.0407184 34.0153937,37.165534 34.2888293,39.4713472 L34.2888293,39.4713472 L34.3618804,40.0525557 C35.5192536,48.7831397 39.8083484,54.706426 49.1470234,57.9287939 L49.1470234,57.9287939 L49.5059952,58.000702 L49.7951085,57.9465219 C56.7924749,55.5287308 60.9999404,51.5432507 63.1441525,46.0701144 L63.1441525,46.0701144 L63.2810747,45.7110624 C64.7522662,41.7462289 65.0792146,38.1923219 64.9849397,31.3796323 L64.9849397,31.3796323 L64.9672101,30.305321 C64.9441984,29.799336 64.9322426,29.3632235 64.9263599,28.7844116 L64.9263599,28.7844116 L64.9212153,27.3735374 C64.9212153,26.8768739 64.5539029,26.5097587 64.0569727,26.5097587 C58.2502688,26.5097587 53.8021052,24.828488 50.1208404,21.2420183 Z M58.1474344,34.6429179 C58.3200549,34.8174167 58.337814,35.0868684 58.2016796,35.2809105 L58.1434174,35.3498088 L48.3493662,45.0280394 C48.1726788,45.2026373 47.8992049,45.2184472 47.7049707,45.0779585 L47.636191,45.0179536 L43.6400842,40.8391088 C43.4492408,40.6395382 43.4564024,40.3231283 43.6560801,40.1323873 C43.8335714,39.9628397 44.1034298,39.9496566 44.2952426,40.088985 L44.3631811,40.1483745 L48.0076247,43.9587393 L57.4401639,34.6389031 C57.6365805,34.4448092 57.9532363,34.4466067 58.1474344,34.6429179 Z" transform="translate(-33 -20)"/>
</svg>
