<?xml version="1.0" encoding="UTF-8"?>
<svg width="68px" height="67px" viewBox="0 0 68 67" version="1.1" xmlns="http://www.w3.org/2000/svg" xmlns:xlink="http://www.w3.org/1999/xlink">
    <title>icon-29-3</title>
    <defs>
        <linearGradient x1="100%" y1="98.9798408%" x2="0%" y2="1.0201592%" id="linearGradient-1">
            <stop stop-color="#1E85E9" offset="0%"></stop>
            <stop stop-color="#8671F3" offset="20.275549%"></stop>
            <stop stop-color="#C06CFD" stop-opacity="0.99" offset="70.7268792%"></stop>
            <stop stop-color="#FFBEE8" offset="100%"></stop>
        </linearGradient>
    </defs>
    <g id="Page-1" stroke="none" stroke-width="1" fill="none" fill-rule="evenodd">
        <g id="icons" transform="translate(-662.000000, -4354.000000)" fill="url(#linearGradient-1)" fill-rule="nonzero">
            <g id="icon-29-3" transform="translate(662.000000, 4354.000000)">
                <path d="M2.185037,13.9737787 L2.27034344,13.9788762 C2.32697361,13.9871521 2.38268112,14.0052318 2.43481946,14.0334087 L2.51001926,14.0832837 L67.5066013,66.1096509 C67.7221852,66.2822145 67.75706,66.5968702 67.5844963,66.8124541 C67.5078014,66.9082691 67.4030389,66.9683886 67.2913809,66.9904658 L67.2066754,66.9998541 C67.1213386,67.0020362 67.0351004,66.9824895 66.9568929,66.9402241 L66.8816931,66.8903491 L1.8851111,14.8639819 C1.66952722,14.6914183 1.63465242,14.3767626 1.80721605,14.1611787 C1.90308473,14.0414099 2.04280899,13.9774155 2.185037,13.9737787 Z M10.361,22.9305778 L11.213,23.6115778 L1.01728969,61.3696514 C1.01155159,61.3909009 1.00722917,61.4124827 1.00434127,61.4342549 L1,61.5 C1,61.7454599 1.17687516,61.9496084 1.41012437,61.9919443 L1.5,62 L59.171,61.9995778 L60.42,62.9995778 L1.5,63 C0.720303883,63 0.0795513218,62.4051119 0.00686657806,61.64446 L1.9220181e-12,61.5 C1.9220181e-12,61.4119576 0.00775131759,61.3241722 0.0231199323,61.2376543 L0.0518690748,61.1089542 L10.361,22.9305778 Z M31.1766034,0 C34.756765,0 37.6590595,2.90229447 37.6590595,6.48245614 C37.6590595,9.88818392 35.0326886,12.6804899 31.6948202,12.9445006 L31.694,20.999 L50.3569355,21 C50.9895714,21 51.5488386,21.3959799 51.7642651,21.9808168 L51.8050665,22.1089542 L62.192,60.5745778 L60.871,59.5175778 L50.8396458,22.3696514 C50.7881063,22.178789 50.6301723,22.0389214 50.440131,22.0069368 L50.3569355,22 L13.998,21.9995778 L12.749,20.9995778 L30.694,20.999 L30.6945462,12.9472596 C27.4159014,12.7062487 24.8149869,10.0266703 24.6982391,6.71496103 L24.6941472,6.48245614 C24.6941472,2.90229447 27.5964417,0 31.1766034,0 Z M31.1766034,1 C28.1487264,1 25.6941472,3.45457922 25.6941472,6.48245614 C25.6941472,9.51033306 28.1487264,11.9649123 31.1766034,11.9649123 C34.2044803,11.9649123 36.6590595,9.51033306 36.6590595,6.48245614 C36.6590595,3.45457922 34.2044803,1 31.1766034,1 Z" id="Combined-Shape"></path>
            </g>
        </g>
    </g>
</svg>