<svg xmlns="http://www.w3.org/2000/svg" xmlns:xlink="http://www.w3.org/1999/xlink" width="62" height="62" viewBox="0 0 62 62">
  <defs>
    <linearGradient id="icon-5-9-b" x1="100%" x2="0%" y1="100%" y2="0%">
      <stop offset="0%" stop-color="#1E85E9"/>
      <stop offset="20.276%" stop-color="#8671F3"/>
      <stop offset="70.727%" stop-color="#C06CFD" stop-opacity=".99"/>
      <stop offset="100%" stop-color="#FFBEE8"/>
    </linearGradient>
    <rect id="icon-5-9-a" width="60" height="60" x="0" y="0" rx="4"/>
  </defs>
  <g fill="none" fill-rule="evenodd" transform="translate(1 1)">
    <g opacity=".062">
      <use fill="#FAFAFA" xlink:href="#icon-5-9-a"/>
      <use fill="url(#icon-5-9-b)" stroke="#000" stroke-opacity=".02" xlink:href="#icon-5-9-a"/>
    </g>
    <path fill="url(#icon-5-9-b)" fill-rule="nonzero" d="M23.5,16 C23.7761424,16 24,16.2238576 24,16.5 C24,16.7454599 23.8231248,16.9496084 23.5898756,16.9919443 L23.5,17 L17.707,17 L30.5,29.793 L43.292,17 L37.5,17 C37.2545401,17 37.0503916,16.8231248 37.0080557,16.5898756 L37,16.5 C37,16.2545401 37.1768752,16.0503916 37.4101244,16.0080557 L37.5,16 L45,16 L45,23.5 C45,23.7761424 44.7761424,24 44.5,24 C44.2545401,24 44.0503916,23.8231248 44.0080557,23.5898756 L44,23.5 L44,17.706 L31.207,30.5 L44,43.293 L44,37.5 C44,37.2545401 44.1768752,37.0503916 44.4101244,37.0080557 L44.5,37 C44.7454599,37 44.9496084,37.1768752 44.9919443,37.4101244 L45,37.5 L45,45 L37.5,45 C37.2238576,45 37,44.7761424 37,44.5 C37,44.2545401 37.1768752,44.0503916 37.4101244,44.0080557 L37.5,44 L43.293,44 L30.5,31.207 L17.706,44 L23.5,44 C23.7454599,44 23.9496084,44.1768752 23.9919443,44.4101244 L24,44.5 C24,44.7454599 23.8231248,44.9496084 23.5898756,44.9919443 L23.5,45 L16,45 L16,37.5 C16,37.2238576 16.2238576,37 16.5,37 C16.7454599,37 16.9496084,37.1768752 16.9919443,37.4101244 L17,37.5 L17,43.292 L29.793,30.5 L17,17.707 L17,23.5 C17,23.7454599 16.8231248,23.9496084 16.5898756,23.9919443 L16.5,24 C16.2545401,24 16.0503916,23.8231248 16.0080557,23.5898756 L16,23.5 L16,16 L23.5,16 Z"/>
  </g>
</svg>
