<?xml version="1.0" encoding="UTF-8"?>
<svg width="50px" height="44px" viewBox="0 0 50 44" version="1.1" xmlns="http://www.w3.org/2000/svg" xmlns:xlink="http://www.w3.org/1999/xlink">
    <title>icon-35-7</title>
    <defs>
        <linearGradient x1="100%" y1="88.72%" x2="0%" y2="11.28%" id="linearGradient-1">
            <stop stop-color="#1E85E9" offset="0%"></stop>
            <stop stop-color="#8671F3" offset="20.275549%"></stop>
            <stop stop-color="#C06CFD" stop-opacity="0.99" offset="70.7268792%"></stop>
            <stop stop-color="#FFBEE8" offset="100%"></stop>
        </linearGradient>
    </defs>
    <g id="Page-1" stroke="none" stroke-width="1" fill="none" fill-rule="evenodd">
        <g id="icons" transform="translate(-1234.000000, -5226.000000)" fill="url(#linearGradient-1)" fill-rule="nonzero">
            <path d="M1282.55769,5226 C1283.35426,5226 1284,5226.64237 1284,5227.43478 L1284,5227.43478 L1284,5262.82609 C1284,5263.6185 1283.35426,5264.26087 1282.55769,5264.26087 L1282.55769,5264.26087 L1282.076,5264.26 L1282.07692,5265.69565 C1282.07692,5266.44145 1281.50492,5267.05434 1280.77352,5267.12387 L1280.63462,5267.13043 L1280.153,5267.13 L1280.15385,5268.56522 C1280.15385,5269.31101 1279.58184,5269.92391 1278.85044,5269.99343 L1278.71154,5270 L1239.28846,5270 C1238.4919,5270 1237.84615,5269.35763 1237.84615,5268.56522 L1237.84615,5268.56522 L1237.846,5267.13 L1237.36538,5267.13043 C1236.61568,5267.13043 1235.99957,5266.56141 1235.92968,5265.83383 L1235.92308,5265.69565 L1235.923,5264.26 L1235.44231,5264.26087 C1234.6926,5264.26087 1234.07649,5263.69185 1234.0066,5262.96427 L1234,5262.82609 L1234,5227.43478 C1234,5226.64237 1234.64574,5226 1235.44231,5226 L1235.44231,5226 Z M1279.19231,5267.13043 L1238.80769,5267.13043 L1238.80769,5268.56522 C1238.80769,5268.80001 1238.97776,5268.99528 1239.20204,5269.03577 L1239.20204,5269.03577 L1239.28846,5269.04348 L1278.71154,5269.04348 C1278.97706,5269.04348 1279.19231,5268.82935 1279.19231,5268.56522 L1279.19231,5268.56522 L1279.19231,5267.13043 Z M1281.11538,5264.26087 L1236.88462,5264.26087 L1236.88462,5265.69565 C1236.88462,5265.93044 1237.05469,5266.12571 1237.27897,5266.16621 L1237.27897,5266.16621 L1237.36538,5266.17391 L1280.63462,5266.17391 C1280.90014,5266.17391 1281.11538,5265.95979 1281.11538,5265.69565 L1281.11538,5265.69565 L1281.11538,5264.26087 Z M1283.038,5233.644 L1234.961,5233.644 L1234.96154,5262.82609 C1234.96154,5263.06087 1235.13161,5263.25615 1235.35589,5263.29664 L1235.44231,5263.30435 L1282.55769,5263.30435 C1282.82321,5263.30435 1283.03846,5263.09022 1283.03846,5262.82609 L1283.03846,5262.82609 L1283.038,5233.644 Z M1274.86538,5248.95652 C1275.66195,5248.95652 1276.30769,5249.5989 1276.30769,5250.3913 L1276.30769,5250.3913 L1276.30769,5258.04348 C1276.30769,5258.83589 1275.66195,5259.47826 1274.86538,5259.47826 L1274.86538,5259.47826 L1266.21154,5259.47826 C1265.41497,5259.47826 1264.76923,5258.83589 1264.76923,5258.04348 L1264.76923,5258.04348 L1264.76923,5250.3913 C1264.76923,5249.5989 1265.41497,5248.95652 1266.21154,5248.95652 L1266.21154,5248.95652 Z M1261.50948,5257.56522 C1261.77501,5257.56522 1261.99025,5257.78908 1261.99025,5258.06522 C1261.99025,5258.31068 1261.82018,5258.51483 1261.5959,5258.55716 L1261.50948,5258.56522 L1242.17308,5258.56522 C1241.90756,5258.56522 1241.69231,5258.34136 1241.69231,5258.06522 C1241.69231,5257.81976 1241.86238,5257.61561 1242.08666,5257.57327 L1242.17308,5257.56522 L1261.50948,5257.56522 Z M1274.86538,5249.91304 L1266.21154,5249.91304 C1265.94602,5249.91304 1265.73077,5250.12717 1265.73077,5250.3913 L1265.73077,5250.3913 L1265.73077,5258.04348 C1265.73077,5258.30761 1265.94602,5258.52174 1266.21154,5258.52174 L1266.21154,5258.52174 L1274.86538,5258.52174 C1275.13091,5258.52174 1275.34615,5258.30761 1275.34615,5258.04348 L1275.34615,5258.04348 L1275.34615,5250.3913 C1275.34615,5250.12717 1275.13091,5249.91304 1274.86538,5249.91304 L1274.86538,5249.91304 Z M1261.50948,5253.73913 C1261.77501,5253.73913 1261.99025,5253.96299 1261.99025,5254.23913 C1261.99025,5254.48459 1261.82018,5254.68874 1261.5959,5254.73107 L1261.50948,5254.73913 L1242.17308,5254.73913 C1241.90756,5254.73913 1241.69231,5254.51527 1241.69231,5254.23913 C1241.69231,5253.99367 1241.86238,5253.78952 1242.08666,5253.74719 L1242.17308,5253.73913 L1261.50948,5253.73913 Z M1261.50948,5250.11247 C1261.77501,5250.11247 1261.99025,5250.33633 1261.99025,5250.61247 C1261.99025,5250.85793 1261.82018,5251.06208 1261.5959,5251.10442 L1261.50948,5251.11247 L1242.17308,5251.11247 C1241.90756,5251.11247 1241.69231,5250.88862 1241.69231,5250.61247 C1241.69231,5250.36701 1241.86238,5250.16287 1242.08666,5250.12053 L1242.17308,5250.11247 L1261.50948,5250.11247 Z M1274.86538,5237 C1275.66195,5237 1276.30769,5237.64237 1276.30769,5238.43478 L1276.30769,5238.43478 L1276.30769,5245.13043 C1276.30769,5245.92284 1275.66195,5246.56522 1274.86538,5246.56522 L1274.86538,5246.56522 L1243.13462,5246.56522 C1242.33805,5246.56522 1241.69231,5245.92284 1241.69231,5245.13043 L1241.69231,5245.13043 L1241.69231,5238.43478 C1241.69231,5237.64237 1242.33805,5237 1243.13462,5237 L1243.13462,5237 Z M1274.86538,5237.95652 L1243.13462,5237.95652 C1242.86909,5237.95652 1242.65385,5238.17065 1242.65385,5238.43478 L1242.65385,5238.43478 L1242.65385,5245.13043 C1242.65385,5245.39457 1242.86909,5245.6087 1243.13462,5245.6087 L1243.13462,5245.6087 L1274.86538,5245.6087 C1275.13091,5245.6087 1275.34615,5245.39457 1275.34615,5245.13043 L1275.34615,5245.13043 L1275.34615,5238.43478 C1275.34615,5238.17065 1275.13091,5237.95652 1274.86538,5237.95652 L1274.86538,5237.95652 Z M1282.55769,5226.95652 L1235.44231,5226.95652 C1235.17679,5226.95652 1234.96154,5227.17065 1234.96154,5227.43478 L1234.96154,5227.43478 L1234.961,5232.644 L1283.038,5232.644 L1283.03846,5227.43478 C1283.03846,5227.19999 1282.86839,5227.00472 1282.64411,5226.96423 L1282.55769,5226.95652 Z M1237.84615,5228.86957 C1238.3772,5228.86957 1238.80769,5229.29781 1238.80769,5229.82609 C1238.80769,5230.35436 1238.3772,5230.78261 1237.84615,5230.78261 C1237.31511,5230.78261 1236.88462,5230.35436 1236.88462,5229.82609 C1236.88462,5229.29781 1237.31511,5228.86957 1237.84615,5228.86957 Z M1240.73077,5228.86957 C1241.26181,5228.86957 1241.69231,5229.29781 1241.69231,5229.82609 C1241.69231,5230.35436 1241.26181,5230.78261 1240.73077,5230.78261 C1240.19973,5230.78261 1239.76923,5230.35436 1239.76923,5229.82609 C1239.76923,5229.29781 1240.19973,5228.86957 1240.73077,5228.86957 Z M1243.61538,5228.86957 C1244.14643,5228.86957 1244.57692,5229.29781 1244.57692,5229.82609 C1244.57692,5230.35436 1244.14643,5230.78261 1243.61538,5230.78261 C1243.08434,5230.78261 1242.65385,5230.35436 1242.65385,5229.82609 C1242.65385,5229.29781 1243.08434,5228.86957 1243.61538,5228.86957 Z M1268.021,5229.38589 C1268.28652,5229.38589 1268.50177,5229.60975 1268.50177,5229.88589 C1268.50177,5230.13135 1268.33169,5230.3355 1268.10741,5230.37784 L1268.021,5230.38589 L1249.93957,5230.38589 C1249.67404,5230.38589 1249.4588,5230.16203 1249.4588,5229.88589 C1249.4588,5229.64043 1249.62887,5229.43628 1249.85315,5229.39395 L1249.93957,5229.38589 L1268.021,5229.38589 Z" id="icon-35-7"></path>
        </g>
    </g>
</svg>