<svg xmlns="http://www.w3.org/2000/svg" width="34" height="27" viewBox="0 0 34 27">
  <defs>
    <linearGradient id="icon-20-7-a" x1="100%" x2="0%" y1="81.531%" y2="18.469%">
      <stop offset="0%" stop-color="#1E85E9"/>
      <stop offset="20.276%" stop-color="#8671F3"/>
      <stop offset="70.727%" stop-color="#C06CFD" stop-opacity=".99"/>
      <stop offset="100%" stop-color="#FFBEE8"/>
    </linearGradient>
  </defs>
  <path fill="url(#icon-20-7-a)" d="M1252.26487,3117.66775 L1237,3131.45711 L1242.70003,3131.454 L1242.70045,3141.40941 C1242.70045,3142.83834 1243.85783,3144 1245.28968,3144 L1262.71033,3144 L1262.87427,3143.9949 C1264.22949,3143.91025 1265.29955,3142.78337 1265.29955,3141.40937 L1265.29694,3131.454 L1271,3131.45711 L1255.73513,3117.66775 C1254.74953,3116.77742 1253.25047,3116.77742 1252.26487,3117.66775 Z M1255.05165,3118.40561 L1268.39053,3130.455 L1264.2844,3130.45462 L1264.28691,3141.40948 C1264.28691,3142.28965 1263.57919,3143 1262.71033,3143 L1245.28968,3143 C1244.42081,3143 1243.71309,3142.28966 1243.71309,3141.40939 L1243.71269,3130.45462 L1239.60846,3130.455 L1252.94835,3118.40561 C1253.54703,3117.8648 1254.45297,3117.8648 1255.05165,3118.40561 Z" transform="translate(-1237 -3117)"/>
</svg>
