<?xml version="1.0" encoding="UTF-8"?>
<svg width="47px" height="31px" viewBox="0 0 47 31" version="1.1" xmlns="http://www.w3.org/2000/svg" xmlns:xlink="http://www.w3.org/1999/xlink">
    <title>icon-29-4</title>
    <defs>
        <linearGradient x1="100%" y1="71.7519239%" x2="0%" y2="28.2480761%" id="linearGradient-1">
            <stop stop-color="#1E85E9" offset="0%"></stop>
            <stop stop-color="#8671F3" offset="20.275549%"></stop>
            <stop stop-color="#C06CFD" stop-opacity="0.99" offset="70.7268792%"></stop>
            <stop stop-color="#FFBEE8" offset="100%"></stop>
        </linearGradient>
    </defs>
    <g id="Page-1" stroke="none" stroke-width="1" fill="none" fill-rule="evenodd">
        <g id="icons" transform="translate(-812.000000, -4370.000000)" fill="url(#linearGradient-1)" fill-rule="nonzero">
            <path d="M838,4370 C843.927233,4370 848.925034,4374.3209 849.848221,4380.08644 C855.043757,4380.75114 859,4385.19189 859,4390.5 C859,4396.29899 854.29899,4401 848.5,4401 L819.756836,4401 L819.756188,4400.9679 C815.410093,4400.59113 812,4396.9438 812,4392.5 C812,4388.22065 815.175267,4384.64131 819.349929,4384.07716 C820.327621,4380.78273 823.221752,4378.37545 826.669178,4378.04016 C828.331482,4373.27711 832.846907,4370 838,4370 Z M838,4371 C833.218457,4371 829.035545,4374.0783 827.55812,4378.53064 L827.560142,4378.48484 C827.566196,4378.59675 827.534964,4378.70206 827.477279,4378.78868 C827.397406,4379.04599 827.117919,4379.19469 826.853822,4379.11402 C826.800685,4379.09779 826.75222,4379.07351 826.709355,4379.04293 C823.663002,4379.36067 821.114002,4381.51724 820.283222,4384.45083 C820.287511,4384.46264 820.289036,4384.47486 820.29012,4384.48722 C820.314241,4384.76231 820.110794,4385.00486 819.835707,4385.02899 C815.981691,4385.36693 813,4388.60504 813,4392.5 C813,4396.64214 816.357864,4400 820.5,4400 L848.5,4400 C853.746705,4400 858,4395.74671 858,4390.5 C858,4385.59647 854.267937,4381.51064 849.422201,4381.04415 L849.393,4381.039 L849.380907,4381.03977 C849.144187,4381.02708 848.943061,4380.84677 848.912217,4380.60326 C848.220395,4375.14128 843.555295,4371 838,4371 Z M830,4384 L830,4397 L826,4397 L826,4384 L830,4384 Z M849.5,4383.5 L849.5,4387.50017 L846.5,4387.498 L846.5,4397 L842.5,4397 L842.5,4387.5 L839.5,4387.5 L839.5,4383.5 L849.5,4383.5 Z M835,4386 C837.773856,4386 840,4388.47349 840,4391.5 C840,4394.52651 837.773856,4397 835,4397 C832.226144,4397 830,4394.52651 830,4391.5 C830,4388.47349 832.226144,4386 835,4386 Z M829,4385 L827,4385 L827,4396 L829,4396 L829,4385 Z M848.5,4384.5 L840.5,4384.5 L840.5,4386.5 L843.5,4386.5 L843.5,4396 L845.5,4396 L845.5,4386.49883 L848.5,4386.5 L848.5,4384.5 Z M835,4387 C832.803294,4387 831,4389.00366 831,4391.5 C831,4393.99634 832.803294,4396 835,4396 C837.196706,4396 839,4393.99634 839,4391.5 C839,4389.00366 837.196706,4387 835,4387 Z M835,4389 C836.140927,4389 837,4390.14543 837,4391.5 C837,4392.85457 836.140927,4394 835,4394 C833.859073,4394 833,4392.85457 833,4391.5 C833,4390.14543 833.859073,4389 835,4389 Z M835,4390 C834.484073,4390 834,4390.64543 834,4391.5 C834,4392.35457 834.484073,4393 835,4393 C835.515927,4393 836,4392.35457 836,4391.5 C836,4390.64543 835.515927,4390 835,4390 Z" id="icon-29-4"></path>
        </g>
    </g>
</svg>