<?xml version="1.0" encoding="UTF-8"?>
<svg width="49px" height="35px" viewBox="0 0 49 35" version="1.1" xmlns="http://www.w3.org/2000/svg" xmlns:xlink="http://www.w3.org/1999/xlink">
    <title>icon-13-6</title>
    <defs>
        <linearGradient x1="100%" y1="75.5102041%" x2="0%" y2="24.4897959%" id="linearGradient-1">
            <stop stop-color="#1E85E9" offset="0%"></stop>
            <stop stop-color="#8671F3" offset="20.275549%"></stop>
            <stop stop-color="#C06CFD" stop-opacity="0.99" offset="70.7268792%"></stop>
            <stop stop-color="#FFBEE8" offset="100%"></stop>
        </linearGradient>
    </defs>
    <g id="Page-1" stroke="none" stroke-width="1" fill="none" fill-rule="evenodd">
        <g id="icons" transform="translate(-1102.000000, -2120.000000)" fill="url(#linearGradient-1)" fill-rule="nonzero">
            <path d="M1139.04398,2138.23532 L1141.01836,2138.39839 C1144.49229,2138.7065 1147.15046,2139.34924 1147.81875,2144.93369 C1149.59621,2145.07751 1151,2146.48911 1151,2148.22122 C1151,2148.9306 1150.76309,2149.61093 1150.32333,2150.1767 L1150.32333,2150.1767 L1150.25388,2150.26609 L1150.11813,2150.41655 C1150.03615,2150.50384 1149.95141,2150.58494 1149.8687,2150.65553 L1149.8687,2150.65553 L1145.55572,2155 L1143.51739,2152.97274 C1142.38781,2153.12903 1141.09721,2153.15004 1139.70971,2153.15004 L1138.13893,2153.14624 L1127.46941,2153.14722 L1125.93174,2153.14891 C1122.42184,2153.13151 1119.60622,2152.88284 1118.57863,2150.45345 L1117.54087,2150.45136 L1107.98196,2150.45285 C1104.55854,2150.43215 1102,2150.10774 1102,2146.46198 C1102,2138.85344 1105.05237,2139.20846 1108.95051,2138.85344 C1108.98096,2140.24638 1111.04887,2141.37062 1113.59705,2141.37062 C1116.14522,2141.37062 1118.21204,2140.24584 1118.24413,2138.85344 L1119.5302,2138.95909 C1120.21026,2139.01569 1120.85292,2139.08175 1121.44433,2139.21184 C1122.97258,2138.45956 1124.93264,2138.43254 1127.09503,2138.23532 C1127.13419,2140.02617 1129.79332,2141.47123 1133.06869,2141.47123 C1136.34514,2141.47123 1139.00373,2140.02617 1139.04398,2138.23532 Z M1147.51899,2145.90882 C1147.18012,2145.90882 1146.7388,2146.16184 1146.24939,2146.68068 L1146.24939,2146.68068 L1145.55571,2147.41605 L1144.86194,2146.68076 C1144.37232,2146.16183 1143.93099,2145.90882 1143.59212,2145.90882 C1142.20946,2145.90882 1141.10101,2146.95143 1141.10101,2148.22122 C1141.10101,2148.7317 1141.2789,2149.21956 1141.61103,2149.6233 L1141.61103,2149.6233 L1141.66151,2149.68466 L1141.71772,2149.78677 L1145.55061,2153.60054 L1149.16769,2149.95757 L1149.30514,2149.83262 C1149.36849,2149.77199 1149.43025,2149.70616 1149.49391,2149.63114 L1149.49391,2149.63114 L1149.51119,2149.61202 L1149.52295,2149.59503 L1149.54098,2149.57184 C1149.84716,2149.17792 1150.0101,2148.71 1150.0101,2148.22122 C1150.0101,2146.95143 1148.90165,2145.90882 1147.51899,2145.90882 Z M1139.81711,2139.29024 L1139.76985,2139.40516 C1138.93099,2141.25432 1136.20017,2142.45848 1133.06869,2142.45848 C1129.9376,2142.45848 1127.20659,2141.25403 1126.36854,2139.40467 L1126.32083,2139.29024 L1125.96482,2139.31956 C1123.07993,2139.54856 1121.97519,2139.81247 1121.03201,2140.67001 C1119.80199,2141.78835 1119.14864,2144.03067 1119.14864,2148.01796 C1119.14864,2151.33237 1120.58652,2152.10695 1125.81017,2152.15978 L1139.70971,2152.16278 C1140.82871,2152.16278 1141.78834,2152.13601 1142.60818,2152.06732 L1140.87163,2150.33917 L1140.83671,2150.23795 L1140.70945,2150.07204 C1140.36365,2149.58895 1140.15984,2149.02903 1140.11882,2148.44237 L1140.11882,2148.44237 L1140.11111,2148.22122 C1140.11111,2146.39283 1141.6753,2144.92156 1143.59212,2144.92156 C1144.25349,2144.92156 1144.92411,2145.30603 1145.58285,2146.00419 L1145.58285,2146.00419 L1145.55556,2145.97595 L1145.69327,2145.83625 C1146.07305,2145.46512 1146.45626,2145.19965 1146.83882,2145.05334 C1146.57857,2142.85773 1145.99166,2141.47267 1145.10665,2140.66868 C1144.1976,2139.84284 1143.13892,2139.56774 1140.48412,2139.34451 L1139.81711,2139.29024 Z M1118.98469,2139.90531 L1118.93432,2140.00872 C1118.16723,2141.45085 1116.02335,2142.35788 1113.59705,2142.35788 C1111.16981,2142.35788 1109.02526,2141.45079 1108.25921,2140.00808 L1108.20865,2139.90531 L1107.6443,2139.95373 C1103.89472,2140.30717 1103.02184,2141.22626 1102.99077,2146.17721 L1102.9899,2146.46198 C1102.9899,2148.91504 1104.03584,2149.44378 1108.1481,2149.46607 L1109.29127,2149.46467 L1117.9344,2149.46393 L1117.93182,2149.41127 L1117.92486,2149.00533 C1117.92443,2145.0979 1118.49639,2142.27707 1119.77658,2140.2432 L1119.9439,2139.98725 L1119.34406,2139.93456 L1118.98469,2139.90531 Z M1113.59759,2124.67047 C1117.12424,2124.67047 1119.98135,2127.52314 1119.98135,2131.04187 C1119.98135,2134.55952 1117.12424,2139.85119 1113.59759,2139.85119 C1110.07257,2139.85119 1107.21437,2134.56006 1107.21492,2131.04187 C1107.21492,2127.52259 1110.07257,2124.67047 1113.59759,2124.67047 Z M1133.06977,2120 C1137.60319,2120 1141.27723,2123.66747 1141.27669,2128.19156 C1141.27669,2130.59583 1140.23784,2133.645 1138.58384,2135.97382 C1138.05897,2136.71317 1137.47156,2137.37653 1136.83574,2137.92698 C1136.36581,2138.33357 1135.87086,2138.67611 1135.35416,2138.93776 C1134.62859,2139.30527 1133.86224,2139.51752 1133.06923,2139.51752 C1132.27677,2139.51752 1131.51204,2139.30635 1130.78757,2138.93939 C1130.26977,2138.67665 1129.77319,2138.33357 1129.30326,2137.92644 C1128.66799,2137.37599 1128.08003,2136.71263 1127.55517,2135.97382 C1125.90117,2133.645 1124.86286,2130.59637 1124.86286,2128.19156 C1124.86286,2123.66747 1128.53691,2120 1133.06977,2120 Z M1113.59759,2125.65773 C1110.6193,2125.65773 1108.20482,2128.06782 1108.20482,2131.04202 C1108.20428,2134.54574 1111.03425,2138.86393 1113.59759,2138.86393 C1116.16192,2138.86393 1118.99145,2134.54624 1118.99145,2131.04187 C1118.99145,2128.06782 1116.57697,2125.65773 1113.59759,2125.65773 Z M1133.06977,2120.98726 C1129.0839,2120.98726 1125.85276,2124.21244 1125.85276,2128.19156 C1125.85276,2130.40065 1126.83466,2133.25135 1128.36288,2135.40306 C1128.85216,2136.0918 1129.38883,2136.69277 1129.95244,2137.18112 C1130.372,2137.54461 1130.80226,2137.83915 1131.23582,2138.05915 C1131.85304,2138.37179 1132.46469,2138.53026 1133.06923,2138.53026 C1133.67361,2138.53026 1134.28684,2138.37109 1134.906,2138.05747 C1135.33738,2137.83903 1135.76593,2137.5456 1136.18684,2137.18143 C1136.75017,2136.69374 1137.28619,2136.09322 1137.77606,2135.40316 C1139.30446,2133.2512 1140.28679,2130.39993 1140.28679,2128.19144 C1140.28727,2124.21239 1137.05617,2120.98726 1133.06977,2120.98726 Z" id="icon-13-6"></path>
        </g>
    </g>
</svg>