<svg xmlns="http://www.w3.org/2000/svg" xmlns:xlink="http://www.w3.org/1999/xlink" width="62" height="62" viewBox="0 0 62 62">
  <defs>
    <linearGradient id="icon-4-3-b" x1="100%" x2="0%" y1="100%" y2="0%">
      <stop offset="0%" stop-color="#1E85E9"/>
      <stop offset="20.276%" stop-color="#8671F3"/>
      <stop offset="70.727%" stop-color="#C06CFD" stop-opacity=".99"/>
      <stop offset="100%" stop-color="#FFBEE8"/>
    </linearGradient>
    <rect id="icon-4-3-a" width="60" height="60" x="0" y="0" rx="4"/>
    <linearGradient id="icon-4-3-c" x1="90.252%" x2="9.748%" y1="100%" y2="0%">
      <stop offset="0%" stop-color="#1E85E9"/>
      <stop offset="20.276%" stop-color="#8671F3"/>
      <stop offset="70.727%" stop-color="#C06CFD" stop-opacity=".99"/>
      <stop offset="100%" stop-color="#FFBEE8"/>
    </linearGradient>
  </defs>
  <g fill="none" fill-rule="evenodd" transform="translate(1 1)">
    <g opacity=".062">
      <use fill="#FAFAFA" xlink:href="#icon-4-3-a"/>
      <use fill="url(#icon-4-3-b)" stroke="#000" stroke-opacity=".02" xlink:href="#icon-4-3-a"/>
    </g>
    <path fill="url(#icon-4-3-c)" fill-rule="nonzero" d="M35.4624068,30.9139329 L37.3968148,31.0741375 C41.3458214,31.425319 44.2189121,32.2190264 44.2193726,40.524167 C44.2193726,45.330084 40.7092324,45.5657936 36.114663,45.5657936 L34.5756794,45.5620607 L24.1221725,45.5630285 L22.6156326,45.5646903 C18.2629021,45.5430544 15,45.1574156 15,40.524167 C15,30.9139329 18.8453274,31.3629544 23.7553672,30.9139329 C23.7937352,32.6732227 26.3990298,34.0928134 29.6080877,34.0928134 C32.8182113,34.0928134 35.422973,32.6732227 35.4624068,30.9139329 Z M36.2198873,31.9502689 L36.1735841,32.0631609 C35.3517029,33.8797272 32.6761717,35.0626715 29.6080877,35.0626715 C26.5403864,35.0626715 23.8646756,33.8794466 23.0435905,32.0626793 L22.9968422,31.9502689 L22.648045,31.9790722 C19.821554,32.2040364 18.7391833,32.4632901 17.8150982,33.3057188 C16.6099826,34.4043448 15.9698581,36.6071493 15.9698581,40.524167 C15.9698581,43.7801647 17.378626,44.5410935 22.4965255,44.5929922 L36.114663,44.5959355 C41.7307974,44.5959355 43.2495146,43.9058895 43.2495146,40.5242208 C43.2495146,36.6063047 42.6084965,34.403086 41.4023359,33.3044061 C40.511694,32.493129 39.4744462,32.2228735 36.873389,32.0035767 L36.2198873,31.9502689 Z M29.6091534,13 C34.0507837,13 37.6504493,16.6028379 37.6499164,21.0471912 C37.6499164,23.4090872 36.6320983,26.4045194 35.0115827,28.6922895 C34.4973447,29.4186165 33.9218245,30.0702843 33.2988772,30.61103 C32.8384611,31.0104565 32.3535321,31.346956 31.8472875,31.6039969 C31.1364135,31.9650272 30.3855728,32.1735396 29.6086205,32.1735396 C28.8322012,32.1735396 28.0829592,31.9660938 27.373151,31.6055967 C26.8658406,31.3474893 26.3793129,31.0104565 25.9188967,30.6104967 C25.2964823,30.0697511 24.7204292,29.4180832 24.2061913,28.6922895 C22.5856757,26.4045194 21.5683905,23.4096204 21.5683905,21.0471912 C21.5683905,16.6028379 25.168056,13 29.6091534,13 Z M29.6091534,13.9698581 C25.7039746,13.9698581 22.5382486,17.1381951 22.5382486,21.0471912 C22.5382486,23.2173488 23.5002708,26.0178064 24.9975503,28.1315974 C25.47693,28.8081924 26.0027283,29.3985718 26.5549328,29.8783199 C26.9659919,30.2354037 27.3875407,30.5247504 27.812327,30.7408719 C28.4170503,31.0479984 29.0163228,31.2036815 29.6086205,31.2036815 C30.2007623,31.2036815 30.8015741,31.0473131 31.4082071,30.7392234 C31.8308535,30.5246287 32.2507287,30.2363744 32.6631117,29.8786183 C33.2150387,29.3995214 33.7402049,28.809592 34.2201567,28.131692 C35.7176112,26.017654 36.6800583,23.2166357 36.6800583,21.0470749 C36.680527,17.1381502 33.5148458,13.9698581 29.6091534,13.9698581 Z"/>
  </g>
</svg>
