<svg xmlns="http://www.w3.org/2000/svg" width="36" height="30" viewBox="0 0 36 30">
  <defs>
    <linearGradient id="icon-23-1-a" x1="100%" x2="0%" y1="84.722%" y2="15.278%">
      <stop offset="0%" stop-color="#1E85E9"/>
      <stop offset="20.276%" stop-color="#8671F3"/>
      <stop offset="70.727%" stop-color="#C06CFD" stop-opacity=".99"/>
      <stop offset="100%" stop-color="#FFBEE8"/>
    </linearGradient>
  </defs>
  <path fill="url(#icon-23-1-a)" d="M422.5,3538 C423.823182,3538 424.906272,3538.85663 424.994232,3539.9407 L425,3540.08333 L425,3565.91667 C425,3567.01932 423.972043,3567.92189 422.671165,3567.99519 L422.5,3568 L391.5,3568 C390.176818,3568 389.093728,3567.14337 389.005768,3566.0593 L389,3565.91667 L389,3540.08333 C389,3538.98068 390.027957,3538.07811 391.328835,3538.00481 L391.5,3538 L422.5,3538 Z M424,3544 L390,3544 L390,3565.91667 C390,3566.56641 390.594888,3567.10037 391.35554,3567.16094 L391.5,3567.16667 L422.5,3567.16667 C423.279696,3567.16667 423.920449,3566.67093 423.993133,3566.03705 L424,3565.91667 L424,3544 Z M409.873719,3545.28542 C410.108381,3545.35743 410.251665,3545.5864 410.223718,3545.82181 L410.205055,3545.9101 L404.332497,3565.04926 C404.251494,3565.31325 403.971818,3565.4616 403.707824,3565.38059 C403.473162,3565.30859 403.329878,3565.07961 403.357825,3564.8442 L403.376488,3564.75592 L409.249046,3545.61676 C409.330049,3545.35276 409.609725,3545.20442 409.873719,3545.28542 Z M413.19716,3546.58859 L413.258714,3546.64645 L420.369825,3554.64645 C420.524106,3554.82001 420.541249,3555.08944 420.421252,3555.28431 L420.369825,3555.35355 L413.258714,3563.35355 C413.085148,3563.54882 412.803741,3563.54882 412.630175,3563.35355 C412.475894,3563.17999 412.458751,3562.91056 412.578748,3562.71569 L412.630175,3562.64645 L419.427187,3555 L412.630175,3547.35355 C412.475894,3547.17999 412.458751,3546.91056 412.578748,3546.71569 L412.630175,3546.64645 C412.784456,3546.47288 413.023944,3546.4536 413.19716,3546.58859 Z M401.308272,3546.58859 L401.369825,3546.64645 L401.421252,3546.71569 C401.524106,3546.88272 401.526206,3547.10453 401.427549,3547.2738 L401.369825,3547.35355 L394.572813,3555 L401.369825,3562.64645 L401.421252,3562.71569 C401.541249,3562.91056 401.524106,3563.17999 401.369825,3563.35355 C401.215544,3563.52712 400.976056,3563.5464 400.80284,3563.41141 L400.741286,3563.35355 L393.630175,3555.35355 L393.578748,3555.28431 C393.475894,3555.11728 393.473794,3554.89547 393.572451,3554.7262 L393.630175,3554.64645 L400.741286,3546.64645 L400.80284,3546.58859 C400.954404,3546.47047 401.156707,3546.47047 401.308272,3546.58859 Z M422.5,3538.83333 L398,3538.833 L398,3543 L424,3543 L424,3540.08333 C424,3539.43359 423.405112,3538.89963 422.64446,3538.83906 L422.5,3538.83333 Z M397,3538.833 L391.5,3538.83333 C390.720304,3538.83333 390.079551,3539.32907 390.006867,3539.96295 L390,3540.08333 L390,3543 L397,3543 L397,3538.833 Z" transform="translate(-389 -3538)"/>
</svg>
