<svg xmlns="http://www.w3.org/2000/svg" xmlns:xlink="http://www.w3.org/1999/xlink" width="62" height="62" viewBox="0 0 62 62">
  <defs>
    <linearGradient id="icon-5-3-b" x1="100%" x2="0%" y1="100%" y2="0%">
      <stop offset="0%" stop-color="#1E85E9"/>
      <stop offset="20.276%" stop-color="#8671F3"/>
      <stop offset="70.727%" stop-color="#C06CFD" stop-opacity=".99"/>
      <stop offset="100%" stop-color="#FFBEE8"/>
    </linearGradient>
    <rect id="icon-5-3-a" width="60" height="60" x="0" y="0" rx="4"/>
  </defs>
  <g fill="none" fill-rule="evenodd" transform="translate(1 1)">
    <g opacity=".062">
      <use fill="#FAFAFA" xlink:href="#icon-5-3-a"/>
      <use fill="url(#icon-5-3-b)" stroke="#000" stroke-opacity=".02" xlink:href="#icon-5-3-a"/>
    </g>
    <path fill="url(#icon-5-3-b)" fill-rule="nonzero" d="M30.5,12 C40.1649831,12 48,19.8350169 48,29.5 C48,39.1649831 40.1649831,47 30.5,47 C20.8350169,47 13,39.1649831 13,29.5 C13,19.8350169 20.8350169,12 30.5,12 Z M36.9931582,30.2507291 L24.0068428,30.250781 C24.1672957,39.0378109 27.1269683,46 30.5,46 C33.8730384,46 36.832716,39.0377835 36.9931582,30.2507291 Z M23.0065611,30.2502513 L14.0167618,30.2504414 C14.366406,38.0615381 20.1469501,44.4594073 27.6731249,45.7587796 C24.9806883,43.2665066 23.1298652,37.2849784 23.0065611,30.2502513 Z M46.9832382,30.2504414 L37.9934389,30.2502513 C37.8701348,37.2849784 36.0193117,43.2665066 33.3261668,45.7589295 C40.8530499,44.4594073 46.633594,38.0615381 46.9832382,30.2504414 Z M27.674801,13.240175 C19.9057514,14.5837133 14,21.3521756 14,29.5 L14.002,29.25 L23.001,29.25 L23.0018671,29.099389 C23.0689261,21.912841 24.9366189,15.7732389 27.674801,13.240175 Z M30.5,13 L30.3472675,13.0047587 C26.9429443,13.2169161 24,20.4964714 24,29.5 L24.001,29.25 L36.9992413,29.249739 C36.9453277,20.3619433 34.025457,13.2149469 30.6527325,13.0047587 L30.5,13 L30.5,13 Z M33.3268751,13.2412204 L33.4705118,13.3787821 C36.1794324,16.0413356 38,22.2701711 38,29.5 L37.999,29.25 L46.9981438,29.2499524 C46.87875,21.2129807 41.0131587,14.5682351 33.3268751,13.2412204 Z"/>
  </g>
</svg>
