<svg xmlns="http://www.w3.org/2000/svg" width="36" height="41" viewBox="0 0 36 41">
  <defs>
    <linearGradient id="icon-22-1-a" x1="89.859%" x2="10.141%" y1="100%" y2="0%">
      <stop offset="0%" stop-color="#1E85E9"/>
      <stop offset="20.276%" stop-color="#8671F3"/>
      <stop offset="70.727%" stop-color="#C06CFD" stop-opacity=".99"/>
      <stop offset="100%" stop-color="#FFBEE8"/>
    </linearGradient>
  </defs>
  <path fill="url(#icon-22-1-a)" d="M18,0.5 C20.8716114,0.5 23.3406424,3.69210873 24.8663037,8.60580424 C29.8853501,7.47086954 33.8846324,8.01299046 35.3205081,10.5 C36.7564596,12.9871411 35.2260711,16.7219452 31.732763,20.5004471 C35.226341,24.2787135 36.756333,28.0130782 35.3205081,30.5 C33.8845837,32.987094 29.8850785,33.5291673 24.8662794,32.3932097 C23.3409775,37.3074581 20.8718062,40.5 18,40.5 C15.1281938,40.5 12.6590225,37.3074581 11.1333858,32.3931956 C6.11492151,33.5291673 2.11541631,32.987094 0.679491924,30.5 C-0.756333033,28.0130782 0.77365899,24.2787135 4.26631296,20.5005524 C0.773928853,16.7219452 -0.756459649,12.9871411 0.679491924,10.5 C2.11536755,8.01299046 6.11464988,7.47086954 11.1332093,8.60667458 C12.6593576,3.69210873 15.1283886,0.5 18,0.5 Z M18.0005187,30.0412573 L17.8099301,30.125911 C15.840896,30.9997311 13.9185254,31.6797706 12.1099722,32.1544192 C13.5044862,36.6284112 15.6607164,39.5 18,39.5 C20.3395316,39.5 22.4959709,36.6278025 23.8901607,32.1534658 C22.0228756,31.6643343 20.0353951,30.9557695 18.0005187,30.0412573 Z M4.96198361,21.2263167 L4.86068263,21.3369274 C1.75487884,24.7412753 0.388347614,27.9957233 1.54551733,30 C2.71518186,32.0259184 6.28028153,32.4574515 10.8516957,31.4280291 C10.3428844,29.5664343 9.96267146,27.4903791 9.73720261,25.2702356 C7.92720655,23.9651016 6.31954594,22.5979072 4.96198361,21.2263167 Z M31.0382894,21.2268007 L31.0023383,21.2623046 C29.6523166,22.6218182 28.0569646,23.9765176 26.2630046,25.2703424 C26.0373285,27.4903791 25.6571156,29.5664343 25.1480258,31.4280626 C29.7197185,32.4574515 33.2848181,32.0259184 34.4544827,30 C35.6241243,27.9741212 34.2153711,24.6709774 31.0382894,21.2268007 Z M10.8321315,26.0357017 L10.8441056,26.1313073 C11.0722678,27.9504588 11.4071492,29.6517035 11.8283358,31.1902742 C13.3982123,30.7782278 15.0695029,30.2049829 16.7903763,29.4750927 C15.7817617,28.9861031 14.7654629,28.4474937 13.75,27.8612159 C12.7346204,27.2749862 11.7600981,26.6642024 10.8321315,26.0357017 Z M25.1679468,26.0342958 L25.1026306,26.0798056 C24.1942591,26.6927816 23.2416131,27.2887078 22.25,27.8612159 C21.2345371,28.4474937 20.2182383,28.9861031 19.2098761,29.4755274 C20.9304971,30.2049829 22.6017877,30.7782278 24.1718967,31.1898711 C24.6003969,29.6240391 24.9396198,27.8898092 25.1679468,26.0342958 Z M18.0000216,12.0602423 L17.9740065,12.0722241 C16.7452041,12.6396008 15.4978269,13.2843763 14.25,14.0048095 L14.25,14.0048095 L13.892258,14.2134311 C12.7672884,14.8760521 11.6977054,15.5685522 10.6914965,16.2797277 C10.5662555,17.6359673 10.5,19.0485939 10.5,20.5 L10.5,20.5 L10.5018006,20.9141245 C10.5131687,22.2204002 10.5781645,23.4936131 10.69107,24.7212235 C11.8036183,25.5063186 12.9934762,26.2697362 14.25,26.9951905 C15.506643,27.7207137 16.7628301,28.3695063 18.000049,28.9397902 C19.2372177,28.3694817 20.4933809,27.7206999 21.75,26.9951905 C23.006902,26.2695178 24.1970978,25.5058591 25.3097849,24.7193666 C25.4337771,23.3633384 25.5,21.9510494 25.5,20.5 C25.5,19.0485939 25.4337445,17.6359673 25.3089555,16.2790537 C24.302221,15.5685045 23.2326729,14.8760293 22.107742,14.2134311 L21.75,14.0048095 C20.4933809,13.2793001 19.2372177,12.6305183 18.0000216,12.0602423 Z M18,17.5 C19.9329966,17.5 21.5,19.0670034 21.5,21 C21.5,22.9329966 19.9329966,24.5 18,24.5 C16.0670034,24.5 14.5,22.9329966 14.5,21 C14.5,19.0670034 16.0670034,17.5 18,17.5 Z M26.3779476,17.0603785 L26.3920379,17.2619503 C26.4631622,18.3162594 26.5,19.3979219 26.5,20.5 C26.5,21.6723565 26.4583142,22.8216107 26.3780137,23.9394111 C27.869844,22.8147198 29.2016632,21.6542235 30.3430297,20.5005416 C29.2024516,19.3464743 27.870423,18.1857381 26.3779476,17.0603785 Z M9.62198632,17.0605889 L9.43484453,17.2023635 C8.01801835,18.2832316 6.7496039,19.3949403 5.65605651,20.5003821 C6.79817654,21.6540615 8.12978212,22.814394 9.62172788,23.9393768 C9.54168585,22.8216107 9.5,21.6723565 9.5,20.5 L9.5,20.5 L9.50172179,20.0876912 C9.51032992,19.0579876 9.55112169,18.0470403 9.62198632,17.0605889 Z M18,18.5 C16.6192881,18.5 15.5,19.6192881 15.5,21 C15.5,22.3807119 16.6192881,23.5 18,23.5 C19.3807119,23.5 20.5,22.3807119 20.5,21 C20.5,19.6192881 19.3807119,18.5 18,18.5 Z M1.54551733,11 C0.375836654,13.0259464 1.78472286,16.329243 4.96202852,19.773544 C6.31954594,18.4020928 7.92720655,17.0348984 9.73699545,15.7296576 C9.96267146,13.5096209 10.3428844,11.4335657 10.8519742,9.5719374 C6.28028153,8.54254848 2.71518186,8.9740816 1.54551733,11 Z M34.4544827,11 C33.2848181,8.9740816 29.7197185,8.54254848 25.1483043,9.57197087 C25.6571156,11.4335657 26.0373285,13.5096209 26.2627974,15.7297644 C28.0727935,17.0348984 29.6804541,18.4020928 31.0380164,19.7736833 C34.2152771,16.329243 35.6241633,13.0259464 34.4544827,11 Z M11.8281033,9.81012885 L11.7699553,10.0261098 C11.3688019,11.5348677 11.0499361,13.195065 10.8320532,14.9657042 C11.7593962,14.3362375 12.7342547,13.7252249 13.75,13.1387841 L13.75,13.1387841 L14.1079307,12.9341208 C15.0043174,12.4265352 15.9005523,11.9562274 16.7906027,11.5242402 C15.0695029,10.7950171 13.3982123,10.2217722 11.8281033,9.81012885 Z M24.1717926,9.81019473 L23.9908048,9.85820312 C22.4735216,10.2659723 20.8644989,10.8230095 19.2096237,11.5249073 C20.0994477,11.9562274 20.9956826,12.4265352 21.8920693,12.9341208 L22.25,13.1387841 C23.2657453,13.7252249 24.2406038,14.3362375 25.168871,14.9649773 C24.9396198,13.1101908 24.6003969,11.3759609 24.1717926,9.81019473 Z M18,1.5 C15.6606419,1.5 13.5043489,4.37177169 12.1101493,8.84553909 C13.9768461,9.33554186 15.9648865,10.0443052 18.0003388,10.9591281 C20.0357639,10.0440734 22.0234593,9.33546171 23.8899322,8.84560586 C22.4956511,4.37177169 20.3393581,1.5 18,1.5 Z"/>
</svg>
