<svg xmlns="http://www.w3.org/2000/svg" width="34" height="42" viewBox="0 0 34 42">
  <defs>
    <linearGradient id="icon-25-9-a" x1="76.801%" x2="17.234%" y1="95.932%" y2="0%">
      <stop offset="0%" stop-color="#1E85E9"/>
      <stop offset="20.276%" stop-color="#8671F3"/>
      <stop offset="70.727%" stop-color="#C06CFD" stop-opacity=".99"/>
      <stop offset="100%" stop-color="#FFBEE8"/>
    </linearGradient>
  </defs>
  <path fill="url(#icon-25-9-a)" d="M1554.5,3818 C1554.74546,3818 1554.94961,3818.17688 1554.99194,3818.41012 L1555,3818.5 L1555,3854.5 C1555,3855.2797 1554.40511,3855.92045 1553.64446,3855.99313 L1553.5,3856 L1525.5,3856 C1525.22386,3856 1525,3855.77614 1525,3855.5 C1525,3855.25454 1525.17688,3855.05039 1525.41012,3855.00806 L1525.5,3855 L1553.5,3855 C1553.74546,3855 1553.94961,3854.82312 1553.99194,3854.58988 L1554,3854.5 L1554,3818.5 C1554,3818.22386 1554.22386,3818 1554.5,3818 Z M1550.5,3814 C1551.32843,3814 1552,3814.67157 1552,3815.5 L1552,3815.5 L1552,3851.5 C1552,3852.32843 1551.32843,3853 1550.5,3853 L1550.5,3853 L1522.5,3853 C1521.67157,3853 1521,3852.32843 1521,3851.5 L1521,3851.5 L1521,3815.5 C1521,3814.67157 1521.67157,3814 1522.5,3814 L1522.5,3814 Z M1550.5,3815 L1522.5,3815 C1522.22386,3815 1522,3815.22386 1522,3815.5 L1522,3815.5 L1522,3851.5 C1522,3851.77614 1522.22386,3852 1522.5,3852 L1522.5,3852 L1550.5,3852 C1550.77614,3852 1551,3851.77614 1551,3851.5 L1551,3851.5 L1551,3815.5 C1551,3815.22386 1550.77614,3815 1550.5,3815 L1550.5,3815 Z M1545.5,3842 C1545.77614,3842 1546,3842.22386 1546,3842.5 C1546,3842.74546 1545.82312,3842.94961 1545.58988,3842.99194 L1545.5,3843 L1527.5,3843 C1527.22386,3843 1527,3842.77614 1527,3842.5 C1527,3842.25454 1527.17688,3842.05039 1527.41012,3842.00806 L1527.5,3842 L1545.5,3842 Z M1545.5,3837 C1545.77614,3837 1546,3837.22386 1546,3837.5 C1546,3837.74546 1545.82312,3837.94961 1545.58988,3837.99194 L1545.5,3838 L1527.5,3838 C1527.22386,3838 1527,3837.77614 1527,3837.5 C1527,3837.25454 1527.17688,3837.05039 1527.41012,3837.00806 L1527.5,3837 L1545.5,3837 Z M1545.5,3832 C1545.77614,3832 1546,3832.22386 1546,3832.5 C1546,3832.74546 1545.82312,3832.94961 1545.58988,3832.99194 L1545.5,3833 L1527.5,3833 C1527.22386,3833 1527,3832.77614 1527,3832.5 C1527,3832.25454 1527.17688,3832.05039 1527.41012,3832.00806 L1527.5,3832 L1545.5,3832 Z M1533.5,3822 C1533.77614,3822 1534,3822.22386 1534,3822.5 L1534,3822.5 L1534,3828.5 C1534,3828.77614 1533.77614,3829 1533.5,3829 L1533.5,3829 L1527.5,3829 C1527.22386,3829 1527,3828.77614 1527,3828.5 L1527,3828.5 L1527,3822.5 C1527,3822.22386 1527.22386,3822 1527.5,3822 L1527.5,3822 Z M1545.5,3827 C1545.77614,3827 1546,3827.22386 1546,3827.5 C1546,3827.74546 1545.82312,3827.94961 1545.58988,3827.99194 L1545.5,3828 L1537.5,3828 C1537.22386,3828 1537,3827.77614 1537,3827.5 C1537,3827.25454 1537.17688,3827.05039 1537.41012,3827.00806 L1537.5,3827 L1545.5,3827 Z M1533,3823 L1528,3823 L1528,3828 L1533,3828 L1533,3823 Z M1545.5,3822 C1545.77614,3822 1546,3822.22386 1546,3822.5 C1546,3822.74546 1545.82312,3822.94961 1545.58988,3822.99194 L1545.5,3823 L1537.5,3823 C1537.22386,3823 1537,3822.77614 1537,3822.5 C1537,3822.25454 1537.17688,3822.05039 1537.41012,3822.00806 L1537.5,3822 L1545.5,3822 Z" transform="translate(-1521 -3814)"/>
</svg>
