<svg xmlns="http://www.w3.org/2000/svg" xmlns:xlink="http://www.w3.org/1999/xlink" width="62" height="62" viewBox="0 0 62 62">
  <defs>
    <linearGradient id="icon-12-2-b" x1="100%" x2="0%" y1="100%" y2="0%">
      <stop offset="0%" stop-color="#1E85E9"/>
      <stop offset="20.276%" stop-color="#8671F3"/>
      <stop offset="70.727%" stop-color="#C06CFD" stop-opacity=".99"/>
      <stop offset="100%" stop-color="#FFBEE8"/>
    </linearGradient>
    <rect id="icon-12-2-a" width="60" height="60" x="0" y="0" rx="4"/>
    <linearGradient id="icon-12-2-c" x1="97.924%" x2="2.076%" y1="100%" y2="0%">
      <stop offset="0%" stop-color="#1E85E9"/>
      <stop offset="20.276%" stop-color="#8671F3"/>
      <stop offset="70.727%" stop-color="#C06CFD" stop-opacity=".99"/>
      <stop offset="100%" stop-color="#FFBEE8"/>
    </linearGradient>
  </defs>
  <g fill="none" fill-rule="evenodd" transform="translate(1 1)">
    <g opacity=".062">
      <use fill="#FAFAFA" xlink:href="#icon-12-2-a"/>
      <use fill="url(#icon-12-2-b)" stroke="#000" stroke-opacity=".02" xlink:href="#icon-12-2-a"/>
    </g>
    <path fill="url(#icon-12-2-c)" fill-rule="nonzero" d="M29,12 C37.836556,12 45,19.163444 45,28 C45,32.0696931 43.4805755,35.7845056 40.9780595,38.6081045 L47.565864,45.1945436 L47.6631572,45.3015477 C48.1496235,45.8908057 48.1171924,46.7645356 47.565864,47.315864 C46.9800776,47.9016504 46.0303301,47.9016504 45.4445436,47.315864 L45.4445436,47.315864 L38.7871961,40.6584057 C36.0817513,42.7532548 32.6864721,44 29,44 C20.163444,44 13,36.836556 13,28 C13,19.163444 20.163444,12 29,12 Z M40.2918127,39.3355623 C40.0557994,39.5706704 39.8124865,39.7984561 39.5622438,40.0185499 L46.1516504,46.6087572 L46.2208983,46.6666127 C46.4157665,46.8016087 46.6851909,46.7823236 46.8587572,46.6087572 C47.0540194,46.4134951 47.0540194,46.0969126 46.8587572,45.9016504 L46.8587572,45.9016504 Z M29,13 C20.7157288,13 14,19.7157288 14,28 C14,36.2842712 20.7157288,43 29,43 C37.2842712,43 44,36.2842712 44,28 C44,19.7157288 37.2842712,13 29,13 Z M29,14 C36.7319865,14 43,20.2680135 43,28 C43,35.7319865 36.7319865,42 29,42 C21.2680135,42 15,35.7319865 15,28 C15,20.2680135 21.2680135,14 29,14 Z M29,15 C21.8202983,15 16,20.8202983 16,28 C16,35.1797017 21.8202983,41 29,41 C36.1797017,41 42,35.1797017 42,28 C42,20.8202983 36.1797017,15 29,15 Z M31.0724366,23.1876555 C31.3012804,23.276431 31.4276388,23.5151673 31.3827496,23.7479386 L31.3577546,23.8346437 L27.8831452,32.7914226 C27.7832728,33.0488718 27.4936063,33.176613 27.2361571,33.0767406 C27.0073134,32.9879651 26.8809549,32.7492288 26.9258441,32.5164575 L26.9508391,32.4297524 L30.4254485,23.4729735 C30.525321,23.2155243 30.8149874,23.0877831 31.0724366,23.1876555 Z M25.291496,25.0454647 C25.5068592,24.946388 25.7688325,25.0122017 25.9095945,25.2132903 L25.9095945,25.2132903 L25.9545353,25.2915389 C26.053612,25.5069022 25.9877983,25.7688754 25.7867097,25.9096374 L25.7867097,25.9096374 L21.3709785,28.9990215 L25.7867097,32.0904055 L25.8557191,32.1485453 C26.0225262,32.3169879 26.0503565,32.5856641 25.9095945,32.7867526 C25.7512372,33.0129773 25.439472,33.0679947 25.2132474,32.9096374 L25.2132474,32.9096374 L20.2132474,29.4096374 L20.1427453,29.3501784 C19.931239,29.1358528 19.9547397,28.7713609 20.2132474,28.5904055 L20.2132474,28.5904055 L25.2132474,25.0904055 Z M32.708504,25.0454647 L32.7867526,25.0904055 L37.7867526,28.5904055 C38.0452603,28.7713609 38.068761,29.1358528 37.8572547,29.3501784 L37.7867526,29.4096374 L32.7867526,32.9096374 C32.560528,33.0679947 32.2487628,33.0129773 32.0904055,32.7867526 C31.9496435,32.5856641 31.9774738,32.3169879 32.1442809,32.1485453 L32.2132903,32.0904055 L36.6290215,29.0000215 L32.2132903,25.9096374 C32.0122017,25.7688754 31.946388,25.5069022 32.0454647,25.2915389 L32.0904055,25.2132903 C32.2311675,25.0122017 32.4931408,24.946388 32.708504,25.0454647 Z"/>
  </g>
</svg>
