<svg xmlns="http://www.w3.org/2000/svg" xmlns:xlink="http://www.w3.org/1999/xlink" width="62" height="62" viewBox="0 0 62 62">
  <defs>
    <linearGradient id="icon-1-7-b" x1="100%" x2="0%" y1="100%" y2="0%">
      <stop offset="0%" stop-color="#1E85E9"/>
      <stop offset="20.276%" stop-color="#8671F3"/>
      <stop offset="70.727%" stop-color="#C06CFD" stop-opacity=".99"/>
      <stop offset="100%" stop-color="#FFBEE8"/>
    </linearGradient>
    <rect id="icon-1-7-a" width="60" height="60" x="0" y="0" rx="4"/>
    <linearGradient id="icon-1-7-c" x1="90.257%" x2="9.743%" y1="100%" y2="0%">
      <stop offset="0%" stop-color="#1E85E9"/>
      <stop offset="20.276%" stop-color="#8671F3"/>
      <stop offset="70.727%" stop-color="#C06CFD" stop-opacity=".99"/>
      <stop offset="100%" stop-color="#FFBEE8"/>
    </linearGradient>
  </defs>
  <g fill="none" fill-rule="evenodd" transform="translate(1 1)">
    <g opacity=".062">
      <use fill="#FAFAFA" xlink:href="#icon-1-7-a"/>
      <use fill="url(#icon-1-7-b)" stroke="#000" stroke-opacity=".02" xlink:href="#icon-1-7-a"/>
    </g>
    <path fill="url(#icon-1-7-c)" fill-rule="nonzero" d="M20.413182,35.9067679 C20.5196183,36.2205798 20.3515071,36.5612584 20.0376951,36.6676947 C16.5803887,37.8403174 14.6,39.531689 14.6,41.2000011 C14.6,44.3684405 21.4643897,47.2000014 30,47.2000014 L30.7830045,47.1920317 C38.9515355,47.0254325 45.4,44.2709501 45.4,41.2000011 C45.4,39.5331874 43.423172,37.8432602 39.9710601,36.6706665 C39.657296,36.5640889 39.4893382,36.2233347 39.5959158,35.9095706 C39.7024934,35.5958066 40.0432476,35.4278488 40.3570116,35.5344264 C44.242831,36.8543394 46.6,38.869408 46.6,41.2000011 C46.6,45.3217207 39.1375017,48.4000014 30,48.4000014 C20.8624983,48.4000014 13.4,45.3217207 13.4,41.2000011 C13.4,38.8675226 15.7609976,36.8510879 19.6522551,35.531281 C19.9660671,35.4248447 20.3067456,35.5929559 20.413182,35.9067679 Z M30,11.4 C36.4031315,11.4 41.6,16.4661929 41.6,22.7234043 C41.6,26.7309635 38.1297023,32.3245388 31.213571,39.6019529 L31.213571,39.6019529 L30.4309328,40.4174888 C30.1951764,40.6608371 29.8048236,40.6608371 29.5690672,40.4174888 C22.1321171,32.7410534 18.4,26.8793916 18.4,22.7234043 C18.4,16.4661929 23.5968685,11.4 30,11.4 Z M30,12.6 C24.252867,12.6 19.6,17.1358704 19.6,22.7234043 C19.6,26.1918767 22.6964507,31.3074135 28.9111058,37.9830296 L28.9111058,37.9830296 L29.6566292,38.7755885 L30,39.135 L30.3433708,38.7755885 C36.9292764,31.844456 40.2726094,26.5316359 40.3964284,22.9293311 L40.3964284,22.9293311 L40.4,22.7234043 C40.4,17.1358704 35.747133,12.6 30,12.6 Z M30,18.4 C32.5405099,18.4 34.6,20.4594901 34.6,23 C34.6,25.5405099 32.5405099,27.6 30,27.6 C27.4594901,27.6 25.4,25.5405099 25.4,23 C25.4,20.4594901 27.4594901,18.4 30,18.4 Z M30,19.6 C28.1222319,19.6 26.6,21.1222319 26.6,23 C26.6,24.8777681 28.1222319,26.4 30,26.4 C31.8777681,26.4 33.4,24.8777681 33.4,23 C33.4,21.1222319 31.8777681,19.6 30,19.6 Z"/>
  </g>
</svg>
