<svg xmlns="http://www.w3.org/2000/svg" xmlns:xlink="http://www.w3.org/1999/xlink" width="62" height="62" viewBox="0 0 62 62">
  <defs>
    <linearGradient id="icon-9-4-b" x1="100%" x2="0%" y1="100%" y2="0%">
      <stop offset="0%" stop-color="#1E85E9"/>
      <stop offset="20.276%" stop-color="#8671F3"/>
      <stop offset="70.727%" stop-color="#C06CFD" stop-opacity=".99"/>
      <stop offset="100%" stop-color="#FFBEE8"/>
    </linearGradient>
    <rect id="icon-9-4-a" width="60" height="60" x="0" y="0" rx="4"/>
  </defs>
  <g fill="none" fill-rule="evenodd" transform="translate(1 1)">
    <g opacity=".062">
      <use fill="#FAFAFA" xlink:href="#icon-9-4-a"/>
      <use fill="url(#icon-9-4-b)" stroke="#000" stroke-opacity=".02" xlink:href="#icon-9-4-a"/>
    </g>
    <path fill="url(#icon-9-4-b)" fill-rule="nonzero" d="M15,19.5 C15.8284271,19.5 16.5,20.1715729 16.5,21 L16.5,21 L16.5,34 C16.5,34.8284271 15.8284271,35.5 15,35.5 L15,35.5 L2,35.5 C1.17157288,35.5 0.5,34.8284271 0.5,34 L0.5,34 L0.5,21 C0.5,20.1715729 1.17157288,19.5 2,19.5 L2,19.5 Z M34,19.5 C34.8284271,19.5 35.5,20.1715729 35.5,21 L35.5,21 L35.5,34 C35.5,34.8284271 34.8284271,35.5 34,35.5 L34,35.5 L21,35.5 C20.1715729,35.5 19.5,34.8284271 19.5,34 L19.5,34 L19.5,21 C19.5,20.1715729 20.1715729,19.5 21,19.5 L21,19.5 Z M15,20.5 L2,20.5 C1.72385763,20.5 1.5,20.7238576 1.5,21 L1.5,21 L1.5,34 C1.5,34.2761424 1.72385763,34.5 2,34.5 L2,34.5 L15,34.5 C15.2761424,34.5 15.5,34.2761424 15.5,34 L15.5,34 L15.5,21 C15.5,20.7238576 15.2761424,20.5 15,20.5 L15,20.5 Z M34,20.5 L21,20.5 C20.7238576,20.5 20.5,20.7238576 20.5,21 L20.5,21 L20.5,34 C20.5,34.2761424 20.7238576,34.5 21,34.5 L21,34.5 L34,34.5 C34.2761424,34.5 34.5,34.2761424 34.5,34 L34.5,34 L34.5,21 C34.5,20.7238576 34.2761424,20.5 34,20.5 L34,20.5 Z M15,0.5 C15.8284271,0.5 16.5,1.17157288 16.5,2 L16.5,2 L16.5,15 C16.5,15.8284271 15.8284271,16.5 15,16.5 L15,16.5 L2,16.5 C1.17157288,16.5 0.5,15.8284271 0.5,15 L0.5,15 L0.5,2 C0.5,1.17157288 1.17157288,0.5 2,0.5 L2,0.5 Z M34,0.5 C34.8284271,0.5 35.5,1.17157288 35.5,2 L35.5,2 L35.5,15 C35.5,15.8284271 34.8284271,16.5 34,16.5 L34,16.5 L21,16.5 C20.1715729,16.5 19.5,15.8284271 19.5,15 L19.5,15 L19.5,2 C19.5,1.17157288 20.1715729,0.5 21,0.5 L21,0.5 Z M15,1.5 L2,1.5 C1.72385763,1.5 1.5,1.72385763 1.5,2 L1.5,2 L1.5,15 C1.5,15.2761424 1.72385763,15.5 2,15.5 L2,15.5 L15,15.5 C15.2761424,15.5 15.5,15.2761424 15.5,15 L15.5,15 L15.5,2 C15.5,1.72385763 15.2761424,1.5 15,1.5 L15,1.5 Z M34,1.5 L21,1.5 C20.7238576,1.5 20.5,1.72385763 20.5,2 L20.5,2 L20.5,15 C20.5,15.2761424 20.7238576,15.5 21,15.5 L21,15.5 L34,15.5 C34.2761424,15.5 34.5,15.2761424 34.5,15 L34.5,15 L34.5,2 C34.5,1.72385763 34.2761424,1.5 34,1.5 L34,1.5 Z" transform="translate(12 12)"/>
  </g>
</svg>
