<svg xmlns="http://www.w3.org/2000/svg" width="54" height="51" viewBox="0 0 54 51">
  <defs>
    <linearGradient id="icon-26-7-a" x1="100%" x2="0%" y1="95.436%" y2="4.564%">
      <stop offset="0%" stop-color="#1E85E9"/>
      <stop offset="20.276%" stop-color="#8671F3"/>
      <stop offset="70.727%" stop-color="#C06CFD" stop-opacity=".99"/>
      <stop offset="100%" stop-color="#FFBEE8"/>
    </linearGradient>
  </defs>
  <path fill="url(#icon-26-7-a)" d="M1253.75,3950 C1260.23935,3950 1265.5,3955.26065 1265.5,3961.75 C1265.5,3968.07194 1260.50726,3973.22777 1254.24968,3973.48957 L1254.24987,3978.911 L1260.13111,3981.26386 C1262.27715,3978.94888 1265.34437,3977.5 1268.75,3977.5 C1275.23935,3977.5 1280.5,3982.76065 1280.5,3989.25 C1280.5,3995.73935 1275.23935,4001 1268.75,4001 C1262.26065,4001 1257,3995.73935 1257,3989.25 C1257,3986.54527 1257.91388,3984.05398 1259.44969,3982.06808 L1253.75,3979.788 L1248.05031,3982.06808 C1249.52944,3983.98068 1250.43169,3986.36204 1250.49628,3988.95138 L1250.5,3989.25 C1250.5,3995.73935 1245.23935,4001 1238.75,4001 C1232.26065,4001 1227,3995.73935 1227,3989.25 C1227,3982.76065 1232.26065,3977.5 1238.75,3977.5 C1242.15563,3977.5 1245.22285,3978.94888 1247.36889,3981.26386 L1253.25,3978.911 L1253.24932,3973.48953 C1246.99221,3973.22722 1242,3968.07161 1242,3961.75 C1242,3955.26065 1247.26065,3950 1253.75,3950 Z M1238.75407,3993.61875 C1236.15397,3993.61875 1233.85813,3995.42444 1233.00957,3998.0793 C1232.98614,3998.15259 1232.94739,3998.21673 1232.89799,3998.2693 C1234.58013,3999.36337 1236.59072,4000 1238.75,4000 C1240.89304,4000 1242.88961,3999.37292 1244.56623,3998.29223 C1244.56028,3998.28122 1244.55653,3998.26986 1244.55317,3998.25828 C1243.75507,3995.51193 1241.41649,3993.61875 1238.75407,3993.61875 Z M1268.75407,3993.61875 C1266.15397,3993.61875 1263.85813,3995.42444 1263.00957,3998.0793 C1262.98614,3998.15259 1262.94739,3998.21673 1262.89799,3998.2693 C1264.58013,3999.36337 1266.59072,4000 1268.75,4000 C1270.89304,4000 1272.88961,3999.37292 1274.56623,3998.29223 C1274.56028,3998.28122 1274.55653,3998.26986 1274.55317,3998.25828 C1273.75507,3995.51193 1271.41649,3993.61875 1268.75407,3993.61875 Z M1268.75,3978.5 C1262.81294,3978.5 1258,3983.31294 1258,3989.25 C1258,3992.67062 1259.59764,3995.7181 1262.08742,3997.68694 L1262.05704,3997.77484 C1263.03387,3994.71867 1265.70381,3992.61875 1268.75407,3992.61875 C1271.77735,3992.61875 1274.42139,3994.68118 1275.42016,3997.67993 C1277.90537,3995.71236 1279.5,3992.6674 1279.5,3989.25 C1279.5,3983.31294 1274.68706,3978.5 1268.75,3978.5 Z M1238.75,3978.5 C1232.81294,3978.5 1228,3983.31294 1228,3989.25 C1228,3992.67062 1229.59764,3995.7181 1232.08742,3997.68694 L1232.05704,3997.77484 C1233.03387,3994.71867 1235.70381,3992.61875 1238.75407,3992.61875 C1241.77735,3992.61875 1244.42139,3994.68118 1245.42016,3997.67993 C1247.90537,3995.71236 1249.5,3992.6674 1249.5,3989.25 C1249.5,3983.31294 1244.68706,3978.5 1238.75,3978.5 Z M1238.75,3982.5 C1241.09721,3982.5 1243,3984.40279 1243,3986.75 C1243,3989.09721 1241.09721,3991 1238.75,3991 C1236.40279,3991 1234.5,3989.09721 1234.5,3986.75 C1234.5,3984.40279 1236.40279,3982.5 1238.75,3982.5 Z M1268.75,3982.5 C1271.09721,3982.5 1273,3984.40279 1273,3986.75 C1273,3989.09721 1271.09721,3991 1268.75,3991 C1266.40279,3991 1264.5,3989.09721 1264.5,3986.75 C1264.5,3984.40279 1266.40279,3982.5 1268.75,3982.5 Z M1238.75,3983.5 C1236.95507,3983.5 1235.5,3984.95507 1235.5,3986.75 C1235.5,3988.54493 1236.95507,3990 1238.75,3990 C1240.54493,3990 1242,3988.54493 1242,3986.75 C1242,3984.95507 1240.54493,3983.5 1238.75,3983.5 Z M1268.75,3983.5 C1266.95507,3983.5 1265.5,3984.95507 1265.5,3986.75 C1265.5,3988.54493 1266.95507,3990 1268.75,3990 C1270.54493,3990 1272,3988.54493 1272,3986.75 C1272,3984.95507 1270.54493,3983.5 1268.75,3983.5 Z M1253.75407,3966.11875 C1251.15397,3966.11875 1248.85813,3967.92444 1248.00957,3970.5793 C1247.98614,3970.65259 1247.94739,3970.71673 1247.89799,3970.7693 C1249.58013,3971.86337 1251.59072,3972.5 1253.75,3972.5 C1255.89304,3972.5 1257.88961,3971.87292 1259.56623,3970.79223 C1259.56028,3970.78122 1259.55653,3970.76986 1259.55317,3970.75828 C1258.75507,3968.01193 1256.41649,3966.11875 1253.75407,3966.11875 Z M1253.75,3951 C1247.81294,3951 1243,3955.81294 1243,3961.75 C1243,3965.17062 1244.59764,3968.2181 1247.08742,3970.18694 L1247.05704,3970.27484 C1248.03387,3967.21867 1250.70381,3965.11875 1253.75407,3965.11875 C1256.77735,3965.11875 1259.42139,3967.18118 1260.42016,3970.17993 C1262.90537,3968.21236 1264.5,3965.1674 1264.5,3961.75 C1264.5,3955.81294 1259.68706,3951 1253.75,3951 Z M1253.75,3955 C1256.09721,3955 1258,3956.90279 1258,3959.25 C1258,3961.59721 1256.09721,3963.5 1253.75,3963.5 C1251.40279,3963.5 1249.5,3961.59721 1249.5,3959.25 C1249.5,3956.90279 1251.40279,3955 1253.75,3955 Z M1253.75,3956 C1251.95507,3956 1250.5,3957.45507 1250.5,3959.25 C1250.5,3961.04493 1251.95507,3962.5 1253.75,3962.5 C1255.54493,3962.5 1257,3961.04493 1257,3959.25 C1257,3957.45507 1255.54493,3956 1253.75,3956 Z" transform="translate(-1227 -3950)"/>
</svg>
