<?xml version="1.0" encoding="UTF-8"?>
<svg width="45px" height="40px" viewBox="0 0 45 40" version="1.1" xmlns="http://www.w3.org/2000/svg" xmlns:xlink="http://www.w3.org/1999/xlink">
    <title>icon-35-9</title>
    <defs>
        <linearGradient x1="100%" y1="88.5302331%" x2="0%" y2="11.4697669%" id="linearGradient-1">
            <stop stop-color="#1E85E9" offset="0%"></stop>
            <stop stop-color="#8671F3" offset="20.275549%"></stop>
            <stop stop-color="#C06CFD" stop-opacity="0.99" offset="70.7268792%"></stop>
            <stop stop-color="#FFBEE8" offset="100%"></stop>
        </linearGradient>
    </defs>
    <g id="Page-1" stroke="none" stroke-width="1" fill="none" fill-rule="evenodd">
        <g id="icons" transform="translate(-1525.000000, -5229.000000)" fill="url(#linearGradient-1)" fill-rule="nonzero">
            <g id="icon-35-9" transform="translate(1525.000000, 5229.000000)">
                <path d="M42.65625,0.5 C43.674525,0.5 44.5,1.32547499 44.5,2.34375 C44.5,3.36202501 43.674525,4.1875 42.65625,4.1875 L42.65625,4.1875 L41.812,4.187 L41.8125,30.5625 C41.8125,32.2622039 40.4821309,33.6511835 38.8058773,33.7449541 L38.625,33.75 L23,33.75 L23.0009077,35.5063573 C23.7290633,35.7114429 24.2745255,36.3525537 24.337638,37.1300338 L24.34375,37.28125 C24.34375,38.299525 23.518275,39.125 22.5,39.125 C21.481725,39.125 20.65625,38.299525 20.65625,37.28125 C20.65625,36.4362283 21.2247226,35.7239804 22.0001005,35.5060737 L22,33.75 L6.375,33.75 C4.67529607,33.75 3.28631649,32.4196309 3.19254585,30.7433773 L3.1875,30.5625 L3.187,4.187 L2.34375,4.1875 C1.37638874,4.1875 0.583029499,3.44250882 0.506111978,2.49496617 L0.5,2.34375 C0.5,1.32547499 1.32547499,0.5 2.34375,0.5 L2.34375,0.5 Z M22.5,36.4375 C22.0340097,36.4375 21.65625,36.8152597 21.65625,37.28125 C21.65625,37.7472403 22.0340097,38.125 22.5,38.125 C22.9659903,38.125 23.34375,37.7472403 23.34375,37.28125 C23.34375,36.8152597 22.9659903,36.4375 22.5,36.4375 Z M40.812,4.187 L4.187,4.187 L4.1875,30.5625 C4.1875,31.6655687 5.00395615,32.5779439 6.06552,32.7282771 L6.21877768,32.7445076 L6.375,32.75 L38.625,32.75 C39.8331229,32.75 40.8125,31.7706229 40.8125,30.5625 L40.8125,30.5625 L40.812,4.187 Z M37.8350404,7.77238927 C38.028599,7.92333838 38.0808093,8.18835821 37.9707535,8.3983231 L37.9218356,8.47414891 L30.7714326,17.642946 C30.5412407,17.9381158 30.092143,17.8803163 29.9321864,17.5643577 L29.8985151,17.4800446 L28.695,13.497 L20.862089,22.5290326 C20.6445845,22.7797972 20.2564424,22.7489677 20.0752886,22.4893343 L20.0312987,22.4128921 L18.312,18.731 L8.07014713,28.6815572 C7.89408338,28.8525897 7.62440776,28.8679679 7.43151669,28.7301616 L7.36311462,28.6713086 C7.19208213,28.4952448 7.17670399,28.2255692 7.31451023,28.0326782 L7.37336327,27.9642761 L18.1203581,17.5243915 C18.344608,17.3065498 18.7032914,17.348864 18.8759349,17.5924888 L18.9218263,17.6715567 L20.611,21.291 L28.5342962,12.1574354 C28.7724154,11.8829038 29.203603,11.9500319 29.3580703,12.2584083 L29.3906503,12.3404704 L30.576,16.266 L37.1332808,7.85918442 C37.3030985,7.64143103 37.617287,7.60257151 37.8350404,7.77238927 Z M42.65625,1.5 L2.34375,1.5 C1.87775974,1.5 1.5,1.87775974 1.5,2.34375 C1.5,2.80974026 1.87775974,3.1875 2.34375,3.1875 L2.34375,3.1875 L42.65625,3.1875 C43.1222403,3.1875 43.5,2.80974026 43.5,2.34375 C43.5,1.87775974 43.1222403,1.5 42.65625,1.5 L42.65625,1.5 Z" id="Combined-Shape"></path>
            </g>
        </g>
    </g>
</svg>