<svg xmlns="http://www.w3.org/2000/svg" width="52" height="46" viewBox="0 0 52 46">
  <defs>
    <linearGradient id="icon-27-2-a" x1="100%" x2="0%" y1="89.127%" y2="10.873%">
      <stop offset="0%" stop-color="#1E85E9"/>
      <stop offset="20.276%" stop-color="#8671F3"/>
      <stop offset="70.727%" stop-color="#C06CFD" stop-opacity=".99"/>
      <stop offset="100%" stop-color="#FFBEE8"/>
    </linearGradient>
  </defs>
  <path fill="url(#icon-27-2-a)" d="M549,4094 C563.357081,4094 575,4105.40102 575,4119.4702 C575,4127.61888 571.0665,4135.12625 564.524181,4139.90379 C564.301172,4140.06665 563.988368,4140.01788 563.825514,4139.79487 C563.662661,4139.57186 563.711427,4139.25906 563.934436,4139.09621 C570.222615,4134.50424 574,4127.29483 574,4119.4702 C574,4105.95806 562.809441,4095 549,4095 C535.190559,4095 524,4105.95806 524,4119.4702 C524,4127.28755 527.770309,4134.49102 534.048661,4139.08385 C534.271535,4139.24689 534.32004,4139.55974 534.157,4139.78261 C533.99396,4140.00548 533.681115,4140.05399 533.458242,4139.89095 C526.926137,4135.11249 523,4127.6113 523,4119.4702 C523,4105.40102 534.642919,4094 549,4094 Z M549,4100 C555.103071,4100 560.568676,4102.68532 564.237494,4106.91936 L566.412393,4105.12618 C566.625454,4104.95051 566.940582,4104.98083 567.116251,4105.19389 C567.2724,4105.38327 567.265799,4105.65331 567.112765,4105.83435 L567.048545,4105.89774 L564.872906,4107.69116 C567.461248,4111.00203 569,4115.14611 569,4119.64382 C569,4125.92864 565.973932,4131.71892 560.941307,4135.40343 C560.718496,4135.56656 560.405633,4135.51818 560.242507,4135.29536 C560.079382,4135.07255 560.127766,4134.75969 560.350577,4134.59657 C565.129509,4131.09779 568,4125.6052 568,4119.64382 C568,4115.38851 566.546909,4111.4656 564.100756,4108.32735 L552.823758,4117.62631 C553.252412,4118.31537 553.5,4119.12877 553.5,4120 C553.5,4122.48528 551.485281,4124.5 549,4124.5 C546.514719,4124.5 544.5,4122.48528 544.5,4120 C544.5,4117.51472 546.514719,4115.5 549,4115.5 C550.254306,4115.5 551.388753,4116.01318 552.204833,4116.84104 L563.465838,4107.55599 C559.981188,4103.54445 554.793961,4101 549,4101 C538.504548,4101 530,4109.34921 530,4119.64382 C530,4125.59965 532.865113,4131.08771 537.636577,4134.58715 C537.859251,4134.75046 537.907374,4135.06337 537.744062,4135.28604 C537.580751,4135.50872 537.267847,4135.55684 537.045173,4135.39353 C532.020404,4131.70831 529,4125.9228 529,4119.64382 C529,4108.79275 537.956347,4100 549,4100 Z M549,4116.5 C547.067003,4116.5 545.5,4118.067 545.5,4120 C545.5,4121.933 547.067003,4123.5 549,4123.5 C550.932997,4123.5 552.5,4121.933 552.5,4120 C552.5,4118.067 550.932997,4116.5 549,4116.5 Z" transform="translate(-523 -4094)"/>
</svg>
