<svg xmlns="http://www.w3.org/2000/svg" xmlns:xlink="http://www.w3.org/1999/xlink" width="62" height="62" viewBox="0 0 62 62">
  <defs>
    <linearGradient id="icon-3-8-b" x1="100%" x2="0%" y1="100%" y2="0%">
      <stop offset="0%" stop-color="#1E85E9"/>
      <stop offset="20.276%" stop-color="#8671F3"/>
      <stop offset="70.727%" stop-color="#C06CFD" stop-opacity=".99"/>
      <stop offset="100%" stop-color="#FFBEE8"/>
    </linearGradient>
    <rect id="icon-3-8-a" width="60" height="60" x="0" y="0" rx="4"/>
    <linearGradient id="icon-3-8-c" x1="100%" x2="0%" y1="77.646%" y2="22.354%">
      <stop offset="0%" stop-color="#1E85E9"/>
      <stop offset="20.276%" stop-color="#8671F3"/>
      <stop offset="70.727%" stop-color="#C06CFD" stop-opacity=".99"/>
      <stop offset="100%" stop-color="#FFBEE8"/>
    </linearGradient>
  </defs>
  <g fill="none" fill-rule="evenodd" transform="translate(1 1)">
    <g opacity=".062">
      <use fill="#FAFAFA" xlink:href="#icon-3-8-a"/>
      <use fill="url(#icon-3-8-b)" stroke="#000" stroke-opacity=".02" xlink:href="#icon-3-8-a"/>
    </g>
    <path fill="url(#icon-3-8-c)" fill-rule="nonzero" d="M28.9999808,18.9369863 C28.297527,18.7561797 27.7444328,18.2033337 27.5632721,17.5010222 L18.9367279,17.5010222 C18.7758336,18.1247663 18.3215672,18.6306158 17.7298498,18.8626496 L23.9505008,31.7830922 C23.9699121,31.823211 23.9838706,31.8656425 23.9919443,31.9101244 L24,32 C24,35.8659932 20.8659932,39 17,39 C13.2145483,39 10.1309013,35.9952166 10.004059,32.2406498 L10,32 C10,31.9225071 10.0176291,31.8491316 10.0490956,31.7836654 L10.0494992,31.7830922 L16.2701502,18.8626496 C15.5265365,18.5710518 15,17.8470155 15,17 C15,15.8954305 15.8954305,15 17,15 C17.9319128,15 18.7149582,15.6373769 18.9369863,16.4999808 L27.5630137,16.4999808 C27.7850418,15.6373769 28.5680872,15 29.5,15 C30.4319128,15 31.2149582,15.6373769 31.4369863,16.4999808 L40.0630137,16.4999808 C40.2850418,15.6373769 41.0680872,15 42,15 C43.1045695,15 44,15.8954305 44,17 C44,17.8470155 43.4734635,18.5710518 42.7298498,18.8626496 L48.9505008,31.7830922 C48.9699121,31.823211 48.9838706,31.8656425 48.9919443,31.9101244 L49,32 C49,35.8659932 45.8659932,39 42,39 C38.2145483,39 35.1309013,35.9952166 35.004059,32.2406498 L35,32 C35,31.9225071 35.0176291,31.8491316 35.0490956,31.7836654 L35.0494992,31.7830922 L41.2701502,18.8626496 C40.6784328,18.6306158 40.2241664,18.1247663 40.0632721,17.5010222 L31.4367279,17.5010222 C31.2556534,18.2029994 30.7029994,18.7556534 30.0010222,18.9367279 L30,43 L36,43 C36.2761424,43 36.5,43.2238576 36.5,43.5 C36.5,43.7454599 36.3231248,43.9496084 36.0898756,43.9919443 L36,44 L23,44 C22.7238576,44 22.5,43.7761424 22.5,43.5 C22.5,43.2545401 22.6768752,43.0503916 22.9101244,43.0080557 L23,43 L29,43 Z M47.9793885,32.5009037 L36.0206115,32.5009037 C36.2751171,35.5802387 38.8549758,38 42,38 C45.1450242,38 47.7248829,35.5802387 47.9793885,32.5009037 Z M22.9793885,32.5009037 L11.0206115,32.5009037 C11.2751171,35.5802387 13.8549758,38 17,38 C20.1450242,38 22.7248829,35.5802387 22.9793885,32.5009037 Z M42,19.652 L36.295,31.5 L47.705,31.5 L42,19.652 Z M17,19.652 L11.295,31.5 L22.705,31.5 L17,19.652 Z M17,16 C16.4477153,16 16,16.4477153 16,17 C16,17.5522847 16.4477153,18 17,18 C17.5522847,18 18,17.5522847 18,17 C18,16.4477153 17.5522847,16 17,16 Z M42,16 C41.4477153,16 41,16.4477153 41,17 C41,17.5522847 41.4477153,18 42,18 C42.5522847,18 43,17.5522847 43,17 C43,16.4477153 42.5522847,16 42,16 Z M29.5,16 C28.9477153,16 28.5,16.4477153 28.5,17 C28.5,17.5522847 28.9477153,18 29.5,18 C30.0522847,18 30.5,17.5522847 30.5,17 C30.5,16.4477153 30.0522847,16 29.5,16 Z"/>
  </g>
</svg>
