<svg xmlns="http://www.w3.org/2000/svg" xmlns:xlink="http://www.w3.org/1999/xlink" width="41" height="39" viewBox="0 0 41 39">
  <defs>
    <linearGradient id="ico-cards-2-a" x1="90.897%" x2="0%" y1="95.932%" y2="0%">
      <stop offset="0%" stop-color="#1E85E9"/>
      <stop offset="20.276%" stop-color="#8671F3"/>
      <stop offset="70.727%" stop-color="#C06CFD" stop-opacity=".99"/>
      <stop offset="100%" stop-color="#FFBEE8"/>
    </linearGradient>
    <circle id="ico-cards-2-b" cx="13" cy="13" r="13"/>
  </defs>
  <g fill="none" fill-rule="evenodd">
    <path fill="url(#ico-cards-2-a)" fill-rule="nonzero" d="M27,0.5 C19.5441559,0.5 13.5,6.54415588 13.5,14 C13.5,21.4558441 19.5441559,27.5 27,27.5 C34.4558441,27.5 40.5,21.4558441 40.5,14 C40.5,6.54415588 34.4558441,0.5 27,0.5 Z M27,1.5 C33.9035594,1.5 39.5,7.09644063 39.5,14 C39.5,20.9035594 33.9035594,26.5 27,26.5 C20.0964406,26.5 14.5,20.9035594 14.5,14 C14.5,7.09644063 20.0964406,1.5 27,1.5 Z"/>
    <g transform="translate(14 1)">
      <mask id="ico-cards-2-c" fill="#fff">
        <use xlink:href="#ico-cards-2-b"/>
      </mask>
      <path fill="url(#ico-cards-2-a)" fill-rule="nonzero" d="M25.6464466-.353553391C25.8417088-.548815536 26.1582912-.548815536 26.3535534-.353553391 26.5271197-.179987039 26.5464049.0894373624 26.4114088.284305503L26.3535534.353553391.353553391 26.3535534C.158291245 26.5488155-.158291245 26.5488155-.353553391 26.3535534-.527119742 26.179987-.546404893 25.9105626-.411408841 25.7156945L-.353553391 25.6464466 25.6464466-.353553391zM25.6464466 4.64644661C25.8417088 4.45118446 26.1582912 4.45118446 26.3535534 4.64644661 26.5271197 4.82001296 26.5464049 5.08943736 26.4114088 5.2843055L26.3535534 5.35355339.353553391 31.3535534C.158291245 31.5488155-.158291245 31.5488155-.353553391 31.3535534-.527119742 31.179987-.546404893 30.9105626-.411408841 30.7156945L-.353553391 30.6464466 25.6464466 4.64644661zM25.6464466 9.64644661C25.8417088 9.45118446 26.1582912 9.45118446 26.3535534 9.64644661 26.5271197 9.82001296 26.5464049 10.0894374 26.4114088 10.2843055L26.3535534 10.3535534.353553391 36.3535534C.158291245 36.5488155-.158291245 36.5488155-.353553391 36.3535534-.527119742 36.179987-.546404893 35.9105626-.411408841 35.7156945L-.353553391 35.6464466 25.6464466 9.64644661zM25.6464466 14.6464466C25.8417088 14.4511845 26.1582912 14.4511845 26.3535534 14.6464466 26.5271197 14.820013 26.5464049 15.0894374 26.4114088 15.2843055L26.3535534 15.3535534.353553391 41.3535534C.158291245 41.5488155-.158291245 41.5488155-.353553391 41.3535534-.527119742 41.179987-.546404893 40.9105626-.411408841 40.7156945L-.353553391 40.6464466 25.6464466 14.6464466zM25.6464466-5.35355339C25.8417088-5.54881554 26.1582912-5.54881554 26.3535534-5.35355339 26.5271197-5.17998704 26.5464049-4.91056264 26.4114088-4.7156945L26.3535534-4.64644661.353553391 21.3535534C.158291245 21.5488155-.158291245 21.5488155-.353553391 21.3535534-.527119742 21.179987-.546404893 20.9105626-.411408841 20.7156945L-.353553391 20.6464466 25.6464466-5.35355339zM25.6464466-10.3535534C25.8417088-10.5488155 26.1582912-10.5488155 26.3535534-10.3535534 26.5271197-10.179987 26.5464049-9.91056264 26.4114088-9.7156945L26.3535534-9.64644661.353553391 16.3535534C.158291245 16.5488155-.158291245 16.5488155-.353553391 16.3535534-.527119742 16.179987-.546404893 15.9105626-.411408841 15.7156945L-.353553391 15.6464466 25.6464466-10.3535534zM25.6464466-15.3535534C25.8417088-15.5488155 26.1582912-15.5488155 26.3535534-15.3535534 26.5271197-15.179987 26.5464049-14.9105626 26.4114088-14.7156945L26.3535534-14.6464466.353553391 11.3535534C.158291245 11.5488155-.158291245 11.5488155-.353553391 11.3535534-.527119742 11.179987-.546404893 10.9105626-.411408841 10.7156945L-.353553391 10.6464466 25.6464466-15.3535534z" mask="url(#ico-cards-2-c)"/>
    </g>
    <path fill="url(#ico-cards-2-a)" fill-rule="nonzero" d="M14,11.5 C21.4558441,11.5 27.5,17.5441559 27.5,25 C27.5,32.4558441 21.4558441,38.5 14,38.5 C6.54415588,38.5 0.5,32.4558441 0.5,25 C0.5,24.7238576 0.723857625,24.5 1,24.5 C1.27614237,24.5 1.5,24.7238576 1.5,25 C1.5,31.9035594 7.09644063,37.5 14,37.5 C20.9035594,37.5 26.5,31.9035594 26.5,25 C26.5,18.0964406 20.9035594,12.5 14,12.5 C10.6256119,12.5 7.46529543,13.8426343 5.13365711,16.1887587 C4.93900058,16.3846246 4.62241961,16.385605 4.42655372,16.1909484 C4.23068782,15.9962919 4.22970744,15.6797109 4.42436396,15.483845 C6.94184848,12.9507198 10.3565787,11.5 14,11.5 Z"/>
  </g>
</svg>
