<svg xmlns="http://www.w3.org/2000/svg" width="40" height="29" viewBox="0 0 40 29">
  <defs>
    <linearGradient id="ico-stage-1-a" x1="100%" x2="0%" y1="76.281%" y2="23.719%">
      <stop offset="0%" stop-color="#1E85E9"/>
      <stop offset="20.276%" stop-color="#8671F3"/>
      <stop offset="70.727%" stop-color="#C06CFD" stop-opacity=".99"/>
      <stop offset="100%" stop-color="#FFBEE8"/>
    </linearGradient>
  </defs>
  <path fill="url(#ico-stage-1-a)" d="M125.307982,39 C126.082769,39 126.719488,39.600224 126.791715,40.3676987 L126.798538,40.5134545 L126.798464,51.3619121 C130.227233,52.2579371 132.760764,55.418251 132.760764,59.1793932 C132.760764,60.9347823 132.208898,62.5592961 131.271719,63.883823 L134.834415,67.1195232 C135.038925,67.3052901 135.056398,67.6242192 134.873442,67.8318712 C134.710814,68.0164507 134.444563,68.0509773 134.24377,67.9259011 L134.171871,67.8714975 L130.641929,64.6660168 C129.190016,66.2560308 127.115026,67.2511505 124.81113,67.2511505 C122.795543,67.2511505 120.955157,66.4895061 119.553908,65.2342082 L96.4905565,65.2332112 C95.7157691,65.2332112 95.0790505,64.6329871 95.0068233,63.8655124 L95,63.7197567 L95,42.5313938 C95,41.7447041 95.5911429,41.0982042 96.3470059,41.0248675 L96.4905565,41.0179393 L96.987,41.017 L96.9874086,40.5134545 C96.9874086,39.7267648 97.5785515,39.0802649 98.3344146,39.0069282 L98.4779651,39 L125.307982,39 Z M124.81113,52.1166056 C120.969475,52.1166056 117.855199,55.2787233 117.855199,59.1793932 C117.855199,63.0800631 120.969475,66.2421808 124.81113,66.2421808 C128.652784,66.2421808 131.76706,63.0800631 131.76706,59.1793932 C131.76706,55.2787233 128.652784,52.1166056 124.81113,52.1166056 Z M96.987,42.026 L96.4905565,42.026909 C96.2466419,42.026909 96.0437787,42.2053707 96.0017093,42.440712 L95.9937043,42.5313938 L95.9937043,63.7197567 C95.9937043,63.9674183 96.1694659,64.1733979 96.4012467,64.2161136 L96.4905565,64.2242415 L118.6058,64.225157 C118.354972,63.9075461 118.127306,63.570265 117.925404,63.215955 L98.4779651,63.2152718 C97.7031777,63.2152718 97.0664591,62.6150478 96.994232,61.8475731 L96.9874086,61.7018174 L96.987,42.026 Z M125.804,44.576 L97.981,44.576 L97.981113,61.7018174 C97.981113,61.9494789 98.1568746,62.1554586 98.3886553,62.1981743 L98.4779651,62.2063022 L117.439557,62.2068188 C117.066778,61.2719374 116.861495,60.2500068 116.861495,59.1793932 C116.861495,54.7214848 120.420668,51.1076359 124.81113,51.1076359 C125.147663,51.1076359 125.479311,51.1288686 125.804848,51.1700866 L125.804,44.576 Z M111.038038,56.1524842 C111.312442,56.1524842 111.53489,56.3783498 111.53489,56.6569691 C111.53489,56.9046306 111.359129,57.1106103 111.127348,57.153326 L111.038038,57.1614539 L101.40425,57.1614539 C101.129846,57.1614539 100.907397,56.9355883 100.907397,56.6569691 C100.907397,56.4093075 101.083159,56.2033279 101.31494,56.1606122 L101.40425,56.1524842 L111.038038,56.1524842 Z M115.867791,49.9420001 C116.142195,49.9420001 116.364643,50.1678656 116.364643,50.4464849 C116.364643,50.6941465 116.188881,50.9001261 115.9571,50.9428418 L115.867791,50.9509697 L101.40425,50.9509697 C101.129846,50.9509697 100.907397,50.7251042 100.907397,50.4464849 C100.907397,50.1988233 101.083159,49.9928437 101.31494,49.950128 L101.40425,49.9420001 L115.867791,49.9420001 Z M125.307982,40.0089697 L98.4779651,40.0089697 C98.2340506,40.0089697 98.0311873,40.1874313 97.9891179,40.4227727 L97.981113,40.5134545 L97.981,43.567 L125.804,43.567 L125.804834,40.5134545 C125.804834,40.2657929 125.629072,40.0598133 125.397291,40.0170976 L125.307982,40.0089697 Z M100.962226,41.5224242 C101.23663,41.5224242 101.459078,41.7482897 101.459078,42.026909 C101.459078,42.3055283 101.23663,42.5313938 100.962226,42.5313938 C100.687822,42.5313938 100.465374,42.3055283 100.465374,42.026909 C100.465374,41.7482897 100.687822,41.5224242 100.962226,41.5224242 Z M102.949635,41.5224242 C103.224038,41.5224242 103.446487,41.7482897 103.446487,42.026909 C103.446487,42.3055283 103.224038,42.5313938 102.949635,42.5313938 C102.675231,42.5313938 102.452782,42.3055283 102.452782,42.026909 C102.452782,41.7482897 102.675231,41.5224242 102.949635,41.5224242 Z M104.937043,41.5224242 C105.211447,41.5224242 105.433895,41.7482897 105.433895,42.026909 C105.433895,42.3055283 105.211447,42.5313938 104.937043,42.5313938 C104.662639,42.5313938 104.440191,42.3055283 104.440191,42.026909 C104.440191,41.7482897 104.662639,41.5224242 104.937043,41.5224242 Z" transform="translate(-95 -39)"/>
</svg>
