<svg xmlns="http://www.w3.org/2000/svg" width="62" height="62" viewBox="0 0 62 62">
  <defs>
    <linearGradient id="icon-3-1-a" x1="100%" x2="0%" y1="100%" y2="0%">
      <stop offset="0%" stop-color="#1E85E9"/>
      <stop offset="20.276%" stop-color="#8671F3"/>
      <stop offset="70.727%" stop-color="#C06CFD" stop-opacity=".99"/>
      <stop offset="100%" stop-color="#FFBEE8"/>
    </linearGradient>
  </defs>
  <g fill="url(#icon-3-1-a)" fill-rule="evenodd" transform="translate(1 1)">
    <rect width="60" height="60" stroke="#000" stroke-opacity=".02" opacity=".062" rx="4"/>
    <path fill-rule="nonzero" d="M30,10 C41.045695,10 50,18.954305 50,30 C50,41.045695 41.045695,50 30,50 C18.954305,50 10,41.045695 10,30 C10,18.954305 18.954305,10 30,10 Z M30,11 C19.5065898,11 11,19.5065898 11,30 C11,35.9573633 13.7417658,41.2743529 18.0322862,44.7579576 L19.3051465,42.8912739 C20.1066695,41.7156471 20.5560509,40.3381005 20.6040476,38.9202096 L20.608171,38.6158171 L20.5019872,22.9375016 C19.6383655,22.7161722 19,21.9326352 19,21 C19,19.8954305 19.8954305,19 21,19 C22.1045695,19 23,19.8954305 23,21 C23,21.9311904 22.3636109,22.7137441 21.5020249,22.936469 L21.6081483,38.6090735 C21.6190229,40.2216143 21.1710084,41.8015114 20.3199138,43.1656459 L20.1313871,43.4545912 L18.8265991,45.3689918 C21.9624029,47.6526747 25.8238591,49 30,49 C33.0556766,49 35.9428764,48.2786651 38.5006073,46.9969873 L38.4999808,27.9369863 C37.6373769,27.7149582 37,26.9319128 37,26 C37,24.8954305 37.8954305,24 39,24 C40.1045695,24 41,24.8954305 41,26 C41,26.9315516 40.3631171,27.7143512 39.5010222,27.9367279 L39.5010311,46.4575418 C45.1795755,43.1722056 49,37.0322568 49,30 C49,22.5293095 44.6883483,16.0656592 38.4177338,12.9617381 L33.6583777,16.3407097 C31.7533063,17.6931735 30.591736,19.8524679 30.5052026,22.1766386 L30.5,22.4562894 L30.5000192,40.0630137 C31.3626231,40.2850418 32,41.0680872 32,42 C32,43.1045695 31.1045695,44 30,44 C28.8954305,44 28,43.1045695 28,42 C28,41.0684484 28.6368829,40.2856488 29.4989778,40.0632721 L29.5,22.4562894 C29.5,19.8008793 30.7404629,17.3041298 32.8424182,15.6998431 L33.0794947,15.525299 L37.3675206,12.4812401 C35.1019119,11.5272854 32.612533,11 30,11 Z M30,41 C29.4477153,41 29,41.4477153 29,42 C29,42.5522847 29.4477153,43 30,43 C30.5522847,43 31,42.5522847 31,42 C31,41.4477153 30.5522847,41 30,41 Z M39,25 C38.4477153,25 38,25.4477153 38,26 C38,26.5522847 38.4477153,27 39,27 C39.5522847,27 40,26.5522847 40,26 C40,25.4477153 39.5522847,25 39,25 Z M21,20 C20.4477153,20 20,20.4477153 20,21 C20,21.5522847 20.4477153,22 21,22 C21.5522847,22 22,21.5522847 22,21 C22,20.4477153 21.5522847,20 21,20 Z"/>
  </g>
</svg>
