<svg xmlns="http://www.w3.org/2000/svg" xmlns:xlink="http://www.w3.org/1999/xlink" width="62" height="62" viewBox="0 0 62 62">
  <defs>
    <linearGradient id="icon-3-4-b" x1="100%" x2="0%" y1="100%" y2="0%">
      <stop offset="0%" stop-color="#1E85E9"/>
      <stop offset="20.276%" stop-color="#8671F3"/>
      <stop offset="70.727%" stop-color="#C06CFD" stop-opacity=".99"/>
      <stop offset="100%" stop-color="#FFBEE8"/>
    </linearGradient>
    <rect id="icon-3-4-a" width="60" height="60" x="0" y="0" rx="4"/>
  </defs>
  <g fill="none" fill-rule="evenodd" transform="translate(1 1)">
    <g opacity=".062">
      <use fill="#FAFAFA" xlink:href="#icon-3-4-a"/>
      <use fill="url(#icon-3-4-b)" stroke="#000" stroke-opacity=".02" xlink:href="#icon-3-4-a"/>
    </g>
    <path fill="url(#icon-3-4-b)" fill-rule="nonzero" d="M30.4999992,11.9999993 C40.1649807,11.9999993 47.9999992,19.8350157 47.9999992,29.4999993 C47.9999992,39.1649808 40.1649807,46.9999993 30.4999992,46.9999993 C20.8350156,46.9999993 12.9999992,39.1649808 12.9999992,29.4999993 C12.9999992,19.8350157 20.8350156,11.9999993 30.4999992,11.9999993 Z M30.4999992,12.9999992 C21.3873004,12.9999992 13.9999992,20.3873004 13.9999992,29.4999992 C13.9999992,38.6126961 21.3873004,45.9999992 30.4999992,45.9999992 C39.612696,45.9999992 46.9999992,38.6126961 46.9999992,29.4999992 C46.9999992,20.3873004 39.612696,12.9999992 30.4999992,12.9999992 Z M38.6422965,24.1474823 C38.8148743,24.3220316 38.832629,24.5915612 38.6965284,24.7856595 L38.6382806,24.8545776 L28.8466552,34.5356073 C28.6700116,34.7102558 28.3966054,34.7260703 28.2024193,34.5855409 L28.1336566,34.5255187 L24.1385397,30.3454652 C23.9477435,30.145837 23.9549033,29.8293355 24.1545315,29.6385393 C24.3319789,29.4689427 24.6017705,29.4557558 24.7935357,29.5951245 L24.8614574,29.6545312 L28.5049983,33.465998 L37.9352012,24.1434663 C38.1315692,23.9493163 38.4481465,23.9511143 38.6422965,24.1474823 Z"/>
  </g>
</svg>
