<svg xmlns="http://www.w3.org/2000/svg" width="37" height="37" viewBox="0 0 37 37">
  <defs>
    <linearGradient id="icon-17-4-a" x1="100%" x2="0%" y1="100%" y2="0%">
      <stop offset="0%" stop-color="#1E85E9"/>
      <stop offset="20.276%" stop-color="#8671F3"/>
      <stop offset="70.727%" stop-color="#C06CFD" stop-opacity=".99"/>
      <stop offset="100%" stop-color="#FFBEE8"/>
    </linearGradient>
  </defs>
  <path fill="url(#icon-17-4-a)" d="M839.5,2689 C841.985281,2689 844,2691.01472 844,2693.5 L844,2693.5 L844,2696 L846.5,2696 C848.914273,2696 850.884489,2697.90124 850.995102,2700.28816 L851,2700.5 L851,2721.5 C851,2723.98528 848.985281,2726 846.5,2726 L846.5,2726 L825.5,2726 C823.014719,2726 821,2723.98528 821,2721.5 L821,2721.5 L821,2719 L818.5,2719 C816.085727,2719 814.115511,2717.09876 814.004898,2714.71184 L814,2714.5 L814,2693.5 C814,2691.01472 816.014719,2689 818.5,2689 L818.5,2689 Z M846.5,2697 L844,2697 L844,2714.5 C844,2716.91427 842.098763,2718.88449 839.711836,2718.9951 L839.5,2719 L822,2719 L822,2721.5 C822,2723.36856 823.464278,2724.89513 825.307965,2724.99482 L825.5,2725 L846.5,2725 C848.432997,2725 850,2723.433 850,2721.5 L850,2721.5 L850,2700.5 C850,2698.567 848.432997,2697 846.5,2697 L846.5,2697 Z M839.5,2690 L818.5,2690 C816.567003,2690 815,2691.567 815,2693.5 L815,2693.5 L815,2714.5 C815,2716.433 816.567003,2718 818.5,2718 L818.5,2718 L821,2718 L821,2700.5 C821,2698.08573 822.901237,2696.11551 825.288164,2696.0049 L825.5,2696 L843,2696 L843,2693.5 C843,2691.63144 841.535722,2690.10487 839.692035,2690.00518 L839.5,2690 Z M843,2697.706 L822.706,2718 L828.292,2718 L843,2703.291 L843,2697.706 Z M843,2704.707 L829.706,2718 L835.292,2718 L843,2710.292 L843,2704.707 Z M843,2711.706 L836.706,2718 L839.5,2718 C841.368563,2718 842.895126,2716.53572 842.994821,2714.69204 L843,2714.5 L843,2711.706 Z M842.292,2697 L836.706,2697 L822,2711.706 L822,2717.292 L842.292,2697 Z M835.292,2697 L829.706,2697 L822,2704.706 L822,2710.292 L835.292,2697 Z M828.292,2697 L825.5,2697 C823.567003,2697 822,2698.567 822,2700.5 L822,2700.5 L822,2703.292 L828.292,2697 Z" transform="translate(-814 -2689)"/>
</svg>
