<svg xmlns="http://www.w3.org/2000/svg" width="37" height="29" viewBox="0 0 37 29">
  <defs>
    <linearGradient id="icon-22-5-a" x1="100%" x2="0%" y1="78.883%" y2="21.117%">
      <stop offset="0%" stop-color="#1E85E9"/>
      <stop offset="20.276%" stop-color="#8671F3"/>
      <stop offset="70.727%" stop-color="#C06CFD" stop-opacity=".99"/>
      <stop offset="100%" stop-color="#FFBEE8"/>
    </linearGradient>
  </defs>
  <path fill="url(#icon-22-5-a)" d="M972,3403 C977.286506,3403 981.806522,3406.28173 983.633963,3410.91911 L986.095611,3410.25425 C986.033204,3410.01326 986,3409.76051 986,3409.5 C986,3407.84315 987.343146,3406.5 989,3406.5 C990.656854,3406.5 992,3407.84315 992,3409.5 C992,3411.15685 990.656854,3412.5 989,3412.5 C987.964682,3412.5 987.051855,3411.97555 986.51269,3411.17783 L983.963222,3411.86489 C984.312291,3413.01519 984.5,3414.23567 984.5,3415.5 C984.5,3417.82282 983.864388,3420.0505 982.689618,3421.98297 L982.476729,3422.32089 L982.294,3422.59 L986.555754,3426.85355 C987.445147,3427.74295 987.524327,3429.13574 986.793294,3430.11477 L986.677562,3430.2584 L986.555754,3430.38909 C985.621892,3431.32295 984.133029,3431.36355 983.150929,3430.51092 L983.020247,3430.38911 L978.69,3426.06 L978.375882,3426.25389 C976.698184,3427.2509 974.805968,3427.84367 972.826506,3427.97306 L972.401046,3427.99367 L972,3428 C967.922117,3428 964.300311,3426.0473 962.018627,3423.02595 L960.646087,3424.08517 C960.871925,3424.50666 961,3424.98837 961,3425.5 C961,3427.15685 959.656854,3428.5 958,3428.5 C956.343146,3428.5 955,3427.15685 955,3425.5 C955,3423.84315 956.343146,3422.5 958,3422.5 C958.784047,3422.5 959.497845,3422.80077 960.032306,3423.29323 L961.446371,3422.20153 C960.213937,3420.26473 959.5,3417.96574 959.5,3415.5 C959.5,3408.59644 965.096441,3403 972,3403 Z M982.997149,3412.12614 L980.097521,3412.90789 C980.358899,3413.72509 980.5,3414.59607 980.5,3415.5 C980.5,3420.19442 976.69442,3424 972,3424 C969.209852,3424 966.733693,3422.65565 965.183921,3420.57936 L962.809706,3422.41402 C964.908419,3425.19927 968.243918,3427 972,3427 C974.213211,3427 976.331763,3426.37397 978.155638,3425.21565 L978.474398,3425.00573 L978.816709,3424.77211 L983.727327,3429.68198 C984.313113,3430.26777 985.262861,3430.26777 985.848647,3429.68198 C986.397822,3429.13281 986.432145,3428.26374 985.951584,3427.67455 L985.848606,3427.56062 L980.982973,3422.69386 L981.240134,3422.34743 C982.699651,3420.38129 983.5,3418.00182 983.5,3415.5 C983.5,3414.32598 983.324075,3413.19305 982.997149,3412.12614 Z M958,3423.5 C956.895431,3423.5 956,3424.39543 956,3425.5 C956,3426.60457 956.895431,3427.5 958,3427.5 C959.104569,3427.5 960,3426.60457 960,3425.5 C960,3424.39543 959.104569,3423.5 958,3423.5 Z M979.130789,3413.16928 L973.962142,3414.56417 C973.987024,3414.7057 974,3414.85133 974,3415 C974,3416.38071 972.880712,3417.5 971.5,3417.5 C970.895682,3417.5 970.341444,3417.28558 969.909217,3416.92867 L965.975265,3419.96762 C967.342009,3421.8077 969.531766,3423 972,3423 C976.142136,3423 979.5,3419.64214 979.5,3415.5 C979.5,3414.68633 979.370427,3413.90292 979.130789,3413.16928 Z M972,3404 C965.648725,3404 960.5,3409.14873 960.5,3415.5 C960.5,3417.73521 961.137699,3419.82148 962.241088,3421.5868 L964.631614,3419.74042 C963.911814,3418.49235 963.5,3417.04427 963.5,3415.5 C963.5,3410.80558 967.30558,3407 972,3407 C975.435462,3407 978.394899,3409.03811 979.735149,3411.97116 L982.66145,3411.18104 C980.953855,3406.96995 976.823763,3404 972,3404 Z M972,3408 C967.857864,3408 964.5,3411.35786 964.5,3415.5 C964.5,3416.81385 964.837836,3418.04879 965.431378,3419.1227 L969.28008,3416.15089 C969.101126,3415.80641 969,3415.41501 969,3415 C969,3413.61929 970.119288,3412.5 971.5,3412.5 C972.374523,3412.5 973.144169,3412.94903 973.590954,3413.62912 L978.753862,3412.23487 C977.5399,3409.72844 974.971799,3408 972,3408 Z M971.5,3413.5 C970.671573,3413.5 970,3414.17157 970,3415 C970,3415.82843 970.671573,3416.5 971.5,3416.5 C972.328427,3416.5 973,3415.82843 973,3415 C973,3414.17157 972.328427,3413.5 971.5,3413.5 Z M989,3407.5 C987.895431,3407.5 987,3408.39543 987,3409.5 C987,3410.60457 987.895431,3411.5 989,3411.5 C990.104569,3411.5 991,3410.60457 991,3409.5 C991,3408.39543 990.104569,3407.5 989,3407.5 Z" transform="translate(-955 -3403)"/>
</svg>
