<svg xmlns="http://www.w3.org/2000/svg" xmlns:xlink="http://www.w3.org/1999/xlink" width="62" height="62" viewBox="0 0 62 62">
  <defs>
    <linearGradient id="icon-8-1-b" x1="100%" x2="0%" y1="100%" y2="0%">
      <stop offset="0%" stop-color="#1E85E9"/>
      <stop offset="20.276%" stop-color="#8671F3"/>
      <stop offset="70.727%" stop-color="#C06CFD" stop-opacity=".99"/>
      <stop offset="100%" stop-color="#FFBEE8"/>
    </linearGradient>
    <rect id="icon-8-1-a" width="60" height="60" x="0" y="0" rx="4"/>
    <linearGradient id="icon-8-1-c" x1="100%" x2="0%" y1="91.796%" y2="8.204%">
      <stop offset="0%" stop-color="#1E85E9"/>
      <stop offset="20.276%" stop-color="#8671F3"/>
      <stop offset="70.727%" stop-color="#C06CFD" stop-opacity=".99"/>
      <stop offset="100%" stop-color="#FFBEE8"/>
    </linearGradient>
  </defs>
  <g fill="none" fill-rule="evenodd" transform="translate(1 1)">
    <g opacity=".062">
      <use fill="#FAFAFA" xlink:href="#icon-8-1-a"/>
      <use fill="url(#icon-8-1-b)" stroke="#000" stroke-opacity=".02" xlink:href="#icon-8-1-a"/>
    </g>
    <path fill="url(#icon-8-1-c)" fill-rule="nonzero" d="M45.6351351,13 C46.886794,13 47.9113385,13.996807 47.9945442,15.2582638 L48,15.4242423 L48,42.5757558 C48,43.8588415 47.0276079,44.9091122 45.7970483,44.9944072 L45.6351351,45 L15.3648649,45 C14.113206,45 13.0886615,44.0031912 13.0054558,42.7417343 L13,42.5757558 L13,15.4242423 C13,14.1411566 13.9723921,13.0908876 15.2029517,13.0055928 L15.3648649,13 L45.6351351,13 Z M47.054,19.303 L13.945,19.303 L13.9459459,42.5757558 C13.9459459,43.3318247 14.5086779,43.9531605 15.2282135,44.0236427 L15.3648649,44.0303012 L45.6351351,44.0303012 C46.3726855,44.0303012 46.9788028,43.45344 47.0475586,42.7158382 L47.0540541,42.5757558 L47.054,19.303 Z M31.4358114,22.8593758 C32.9308346,24.2560188 34.7161273,24.9018157 37.1168058,24.9018157 C37.8212632,24.9018157 38.3933125,25.4103845 38.4581748,26.0856281 L38.4643014,26.2141061 L38.4709692,27.0827466 L38.484835,27.468152 C38.5557933,31.055716 38.3810438,32.6673911 37.6567213,34.5393433 C36.6088176,37.2475644 34.5211558,39.1552684 31.2069302,40.3285327 L30.8471326,40.4514322 L30.5462783,40.5 L30.3589617,40.4902718 L30.064021,40.4274645 C25.5905796,38.9493985 23.268852,36.176741 22.6730273,31.8665618 C22.5389829,30.8968879 22.4928835,30.0498156 22.5009614,28.6936953 L22.50409,28.3436946 L22.5173959,27.5297639 L22.528107,27.231539 C22.5307859,27.1525345 22.5328503,27.0727084 22.5344172,26.987438 L22.536409,26.8548714 L22.5390894,26.2141061 C22.5390894,25.4759422 23.138099,24.9018157 23.886585,24.9018157 C26.1729455,24.9018157 27.9011329,24.3160589 29.351995,23.0537998 L29.5675795,22.8593758 L29.583952,22.8445422 C30.108922,22.3833099 30.8969948,22.3854527 31.4358114,22.8593758 Z M30,32.662 L23.8272349,32.663104 C24.5343111,35.9521399 26.4739115,38.0959846 29.9852342,39.3476944 L29.9990716,39.3522468 L30,32.662 Z M31,32.662 L31.0006483,39.3457856 C33.9518939,38.2800265 35.7936307,36.5832082 36.7241022,34.1784809 C36.9199346,33.6723682 37.0722756,33.1857564 37.1880543,32.6632787 L31,32.662 Z M30.9992487,23.8122748 L31,31.662 L37.3595732,31.6633845 C37.4639074,30.8378296 37.5040264,29.8746769 37.4992907,28.6192264 L37.4965437,28.2336675 L37.4852592,27.4961032 L37.4689033,26.9915918 L37.4643014,26.2141061 C37.4643014,26.0379414 37.3222759,25.9018157 37.1168058,25.9018157 C34.5943599,25.9018157 32.6304352,25.2335828 30.9992487,23.8122748 Z M29.9999738,23.8155449 C28.36186,25.2373513 26.4019082,25.9018157 23.886585,25.9018157 C23.7067987,25.9018157 23.5755871,26.0060369 23.5455904,26.1515077 L23.539085,26.2161942 L23.5342449,27.0053271 L23.5170079,27.5558221 L23.5039901,28.3576428 C23.4903644,29.5251611 23.5107804,30.3031328 23.5835204,31.0528071 L23.6069304,31.2772217 L23.6550716,31.6622468 L30,31.662 L29.9999738,23.8155449 Z M45.6351351,13.9696969 L15.3648649,13.9696969 C14.6273145,13.9696969 14.0211972,14.546558 13.9524414,15.2841599 L13.9459459,15.4242423 L13.945,18.333 L47.054,18.333 L47.0540541,15.4242423 C47.0540541,14.6681734 46.4913221,14.0468376 45.7717865,13.9763554 L45.6351351,13.9696969 Z M16.7837838,15.4242423 C17.0449995,15.4242423 17.2567568,15.6413163 17.2567568,15.9090907 C17.2567568,16.1768651 17.0449995,16.3939392 16.7837838,16.3939392 C16.522568,16.3939392 16.3108108,16.1768651 16.3108108,15.9090907 C16.3108108,15.6413163 16.522568,15.4242423 16.7837838,15.4242423 Z M19.6216216,15.4242423 C19.8828374,15.4242423 20.0945946,15.6413163 20.0945946,15.9090907 C20.0945946,16.1768651 19.8828374,16.3939392 19.6216216,16.3939392 C19.3604059,16.3939392 19.1486486,16.1768651 19.1486486,15.9090907 C19.1486486,15.6413163 19.3604059,15.4242423 19.6216216,15.4242423 Z M22.4594595,15.4242423 C22.7206752,15.4242423 22.9324324,15.6413163 22.9324324,15.9090907 C22.9324324,16.1768651 22.7206752,16.3939392 22.4594595,16.3939392 C22.1982437,16.3939392 21.9864865,16.1768651 21.9864865,15.9090907 C21.9864865,15.6413163 22.1982437,15.4242423 22.4594595,15.4242423 Z"/>
  </g>
</svg>
