<svg xmlns="http://www.w3.org/2000/svg" width="42" height="41" viewBox="0 0 42 41">
  <defs>
    <linearGradient id="icon-13-7-a" x1="100%" x2="0%" y1="100%" y2="0%">
      <stop offset="0%" stop-color="#1E85E9"/>
      <stop offset="20.276%" stop-color="#8671F3"/>
      <stop offset="70.727%" stop-color="#C06CFD" stop-opacity=".99"/>
      <stop offset="100%" stop-color="#FFBEE8"/>
    </linearGradient>
  </defs>
  <path fill="url(#icon-13-7-a)" d="M1255.60603,2122 C1266.92787,2122 1276.10603,2131.17816 1276.10603,2142.5 C1276.10603,2148.01052 1273.92108,2153.17633 1270.10172,2156.99569 C1266.28236,2160.81505 1261.11655,2163 1255.60603,2163 C1252.33472,2163 1249.17229,2162.23269 1246.31988,2160.78094 C1239.49607,2157.30792 1235.10603,2150.29529 1235.10603,2142.5 C1235.10603,2131.17816 1244.28419,2122 1255.60603,2122 Z M1256.10648,2123.0063 L1256.10603,2128.14286 L1255.10603,2128.14286 L1255.10658,2123.00627 C1249.4819,2123.14768 1244.44884,2125.6708 1240.97809,2129.60494 L1244.68277,2132.60471 L1244.05345,2133.38185 L1240.33549,2130.37192 C1237.68787,2133.70111 1236.10603,2137.91583 1236.10603,2142.5 C1236.10603,2143.62298 1236.20179,2144.72888 1236.38687,2145.80858 L1241.49482,2144.62938 L1241.71977,2145.60375 L1236.5813,2146.79051 C1237.81821,2152.29038 1241.39361,2157.01443 1246.41253,2159.70129 L1246.47403,2159.733 L1248.9398,2154.65078 L1249.8386,2155.08915 L1247.36974,2160.18051 C1249.92399,2161.37261 1252.7196,2162 1255.60603,2162 C1258.5097,2162 1261.31206,2161.36263 1263.85197,2160.17653 L1261.37346,2155.08915 L1262.27226,2154.65078 L1264.74656,2159.73033 C1266.44605,2158.82722 1268.01278,2157.67041 1269.39461,2156.28858 C1272.01436,2153.66884 1273.82534,2150.38448 1274.63203,2146.7909 L1269.49229,2145.60375 L1269.71724,2144.62938 L1274.82606,2145.8089 C1275.011,2144.72722 1275.10603,2143.62116 1275.10603,2142.5 C1275.10603,2137.91583 1273.52419,2133.70111 1270.87656,2130.37192 L1267.15861,2133.38185 L1266.52929,2132.60471 L1270.23397,2129.60494 C1266.76342,2125.67103 1261.73075,2123.14798 1256.10648,2123.0063 Z M1255.60603,2130 C1259.26316,2130 1262.66287,2131.58074 1265.01733,2134.27306 L1265.03303,2134.291 L1265.38723,2134.0959 L1265.13303,2134.409 L1265.24926,2134.54598 L1264.57103,2135.106 L1263.78014,2136.08498 C1260.25716,2140.44534 1258.19879,2142.9104 1257.50666,2143.58804 L1257.45611,2143.63664 L1257.37296,2143.71122 C1256.9173,2144.09356 1256.33745,2144.27165 1255.75665,2144.22083 C1255.17585,2144.17002 1254.63574,2143.89395 1254.2534,2143.43829 C1254.02657,2143.16796 1253.87027,2142.85258 1253.79229,2142.51548 C1253.60597,2141.7101 1253.88145,2140.85984 1254.52632,2140.31873 C1254.92629,2139.98312 1256.67322,2138.95026 1259.83587,2137.17656 L1260.15686,2136.99672 L1264.13735,2134.78828 C1261.97638,2132.3978 1258.90594,2131 1255.60603,2131 C1249.25475,2131 1244.10603,2136.14873 1244.10603,2142.5 C1244.10603,2146.76662 1246.44995,2150.61486 1250.11952,2152.60949 L1250.39721,2152.75559 L1249.94362,2153.6468 C1245.78291,2151.52919 1243.10603,2147.25315 1243.10603,2142.5 C1243.10603,2135.59644 1248.70247,2130 1255.60603,2130 Z M1261.37735,2137.45984 L1258.64671,2138.99644 C1256.87343,2140.00477 1255.75654,2140.66847 1255.31893,2140.97301 L1255.25548,2141.01811 L1255.16911,2141.08478 C1254.81523,2141.38172 1254.66423,2141.84777 1254.76655,2142.29009 C1254.80921,2142.47446 1254.89454,2142.64665 1255.01944,2142.7955 C1255.22956,2143.0459 1255.5246,2143.19671 1255.84381,2143.22464 C1256.16302,2143.25257 1256.47977,2143.15528 1256.73017,2142.94517 C1256.98895,2142.72803 1257.82002,2141.77546 1259.19919,2140.11399 L1259.39066,2139.88304 L1261.37735,2137.45984 Z" transform="translate(-1235 -2122)"/>
</svg>
