<svg xmlns="http://www.w3.org/2000/svg" width="51" height="48" viewBox="0 0 51 48">
  <defs>
    <linearGradient id="icon-28-1-a" x1="100%" x2="0%" y1="94.291%" y2="5.709%">
      <stop offset="0%" stop-color="#1E85E9"/>
      <stop offset="20.276%" stop-color="#8671F3"/>
      <stop offset="70.727%" stop-color="#C06CFD" stop-opacity=".99"/>
      <stop offset="100%" stop-color="#FFBEE8"/>
    </linearGradient>
  </defs>
  <path fill="url(#icon-28-1-a)" d="M417.5,4263 C418.328427,4263 419,4263.67157 419,4264.5 L419,4264.5 L419,4280.5 C419,4281.32843 418.328427,4282 417.5,4282 L417.5,4282 L397.5,4282 C396.671573,4282 396,4281.32843 396,4280.5 L396,4280.5 L396,4264.5 C396,4263.67157 396.671573,4263 397.5,4263 L397.5,4263 Z M418,4269.007 L397,4269.007 L397,4280.5 C397,4280.74546 397.176875,4280.94961 397.410124,4280.99194 L397.5,4281 L417.5,4281 C417.776142,4281 418,4280.77614 418,4280.5 L418,4280.5 L418,4269.007 Z M414.512695,4275.5 C414.788838,4275.5 415.012695,4275.72386 415.012695,4276 C415.012695,4276.24546 414.83582,4276.44961 414.602571,4276.49194 L414.512695,4276.5 L400.5,4276.5 C400.223858,4276.5 400,4276.27614 400,4276 C400,4275.75454 400.176875,4275.55039 400.410124,4275.50806 L400.5,4275.5 L414.512695,4275.5 Z M414.512695,4271.95288 C414.788838,4271.95288 415.012695,4272.17674 415.012695,4272.45288 C415.012695,4272.69834 414.83582,4272.90249 414.602571,4272.94483 L414.512695,4272.95288 L400.5,4272.95288 C400.223858,4272.95288 400,4272.72902 400,4272.45288 C400,4272.20742 400.176875,4272.00327 400.410124,4271.96094 L400.5,4271.95288 L414.512695,4271.95288 Z M404,4234 C410.277949,4234 415.726756,4238.16725 417.44545,4244.08602 L417.156,4244.121 L417.53218,4244.07606 C418.017465,4244.02548 418.507185,4244 419,4244 C426.731986,4244 433,4250.26801 433,4258 C433,4265.22497 427.527069,4271.17167 420.500807,4271.9205 L420.500157,4270.91438 C426.973239,4270.17061 432,4264.67234 432,4258 C432,4250.8203 426.179702,4245 419,4245 C418.389175,4245 417.783761,4245.04209 417.186604,4245.12541 C417.000899,4245.15132 416.824807,4245.07167 416.718948,4244.93225 C416.651518,4244.87039 416.600923,4244.78899 416.576026,4244.69401 C415.089967,4239.025 409.945147,4235 404,4235 C397.629406,4235 392.363916,4239.44297 391.302871,4245.61832 L391.285,4245.687 L391.270256,4245.72951 C391.263689,4245.74465 391.25647,4245.75954 391.248526,4245.77405 C391.242969,4245.78441 391.237151,4245.79419 391.231025,4245.80373 C391.220923,4245.81938 391.209678,4245.83495 391.197528,4245.84986 C391.192336,4245.85619 391.18703,4245.86237 391.181583,4245.8684 C391.168251,4245.88331 391.153755,4245.89759 391.138328,4245.911 C391.130818,4245.91735 391.123638,4245.92324 391.116303,4245.92892 C391.102224,4245.93999 391.086958,4245.95053 391.070994,4245.96026 L391.054532,4245.96985 L391.037545,4245.97895 C391.026223,4245.98471 391.014486,4245.99015 391.002449,4245.99516 C386.19656,4247.99822 383,4252.70363 383,4258 C383,4264.67268 388.027277,4270.17117 394.500838,4270.91449 L394.500192,4271.92061 C387.47345,4271.17223 382,4265.22531 382,4258 C382,4252.38941 385.331118,4247.3945 390.366103,4245.17989 L390.348,4245.278 L390.37617,4245.12842 C391.644355,4238.64055 397.252834,4234 404,4234 Z M417.5,4264 L397.5,4264 C397.223858,4264 397,4264.22386 397,4264.5 L397,4264.5 L397,4268.007 L418,4268.007 L418,4264.5 C418,4264.25454 417.823125,4264.05039 417.589876,4264.00806 L417.5,4264 Z M399,4265.5 C399.276142,4265.5 399.5,4265.72386 399.5,4266 C399.5,4266.27614 399.276142,4266.5 399,4266.5 C398.723858,4266.5 398.5,4266.27614 398.5,4266 C398.5,4265.72386 398.723858,4265.5 399,4265.5 Z M401,4265.5 C401.276142,4265.5 401.5,4265.72386 401.5,4266 C401.5,4266.27614 401.276142,4266.5 401,4266.5 C400.723858,4266.5 400.5,4266.27614 400.5,4266 C400.5,4265.72386 400.723858,4265.5 401,4265.5 Z M403,4265.5 C403.276142,4265.5 403.5,4265.72386 403.5,4266 C403.5,4266.27614 403.276142,4266.5 403,4266.5 C402.723858,4266.5 402.5,4266.27614 402.5,4266 C402.5,4265.72386 402.723858,4265.5 403,4265.5 Z" transform="translate(-382 -4234)"/>
</svg>
