<svg xmlns="http://www.w3.org/2000/svg" xmlns:xlink="http://www.w3.org/1999/xlink" width="62" height="62" viewBox="0 0 62 62">
  <defs>
    <linearGradient id="icon-4-4-b" x1="100%" x2="0%" y1="100%" y2="0%">
      <stop offset="0%" stop-color="#1E85E9"/>
      <stop offset="20.276%" stop-color="#8671F3"/>
      <stop offset="70.727%" stop-color="#C06CFD" stop-opacity=".99"/>
      <stop offset="100%" stop-color="#FFBEE8"/>
    </linearGradient>
    <rect id="icon-4-4-a" width="60" height="60" x="0" y="0" rx="4"/>
    <linearGradient id="icon-4-4-c" x1="100%" x2="0%" y1="92.014%" y2="7.986%">
      <stop offset="0%" stop-color="#1E85E9"/>
      <stop offset="20.276%" stop-color="#8671F3"/>
      <stop offset="70.727%" stop-color="#C06CFD" stop-opacity=".99"/>
      <stop offset="100%" stop-color="#FFBEE8"/>
    </linearGradient>
  </defs>
  <g fill="none" fill-rule="evenodd" transform="translate(1 1)">
    <g opacity=".062">
      <use fill="#FAFAFA" xlink:href="#icon-4-4-a"/>
      <use fill="url(#icon-4-4-b)" stroke="#000" stroke-opacity=".02" xlink:href="#icon-4-4-a"/>
    </g>
    <path fill="url(#icon-4-4-c)" fill-rule="nonzero" d="M30,13.0000948 C30.2454599,13.0000948 30.4496084,13.1769699 30.4919443,13.4102191 L30.5,13.5000948 L30.5,45.5000948 C30.5,45.7762372 30.2761424,46.0000948 30,46.0000948 C29.7545401,46.0000948 29.5503916,45.8232196 29.5080557,45.5899704 L29.5,45.5000948 L29.5,13.5000948 C29.5,13.2239524 29.7238576,13.0000948 30,13.0000948 Z M38.2392251,13.0610375 C38.4817098,13.1931579 38.5711777,13.4968353 38.4390573,13.7393199 C35.5718573,19.001581 34.1411133,24.2533589 34.1411133,29.5000948 C34.1411133,34.7468307 35.5718573,39.9986086 38.4390573,45.2608696 C38.5711777,45.5033543 38.4817098,45.8070317 38.2392251,45.9391521 C37.9967405,46.0712725 37.6930631,45.9818046 37.5609427,45.7393199 C34.6162937,40.3349143 33.1411133,34.9200255 33.1411133,29.5000948 C33.1411133,24.080164 34.6162937,18.6652752 37.5609427,13.2608696 C37.6930631,13.018385 37.9967405,12.9289171 38.2392251,13.0610375 Z M21.7608696,13.0610375 C22.0033543,12.9289171 22.3070317,13.018385 22.4391521,13.2608696 C25.3838011,18.6652752 26.8589815,24.080164 26.8589815,29.5000948 C26.8589815,34.9200255 25.3838011,40.3349143 22.4391521,45.7393199 C22.3070317,45.9818046 22.0033543,46.0712725 21.7608696,45.9391521 C21.518385,45.8070317 21.4289171,45.5033543 21.5610375,45.2608696 C24.4282374,39.9986086 25.8589815,34.7468307 25.8589815,29.5000948 C25.8589815,24.2533589 24.4282374,19.001581 21.5610375,13.7393199 C21.4289171,13.4968353 21.518385,13.1931579 21.7608696,13.0610375 Z M17.1396717,26.0199475 L17.2236616,26.0529359 L22.2236616,28.5529359 C22.5638378,28.7230241 22.5900052,29.1842144 22.3021638,29.3990875 L22.2236616,29.4473631 L17.2236616,31.9473631 C16.9766723,32.0708578 16.6763358,31.9707456 16.5528412,31.7237563 C16.4430682,31.5042103 16.5099721,31.2425134 16.6996634,31.1003348 L16.776448,31.0529359 L19.882,29.5 L12.5,29.5000948 C12.2238576,29.5000948 12,29.2762372 12,29.0000948 C12,28.7546349 12.1768752,28.5504864 12.4101244,28.5081504 L12.5,28.5000948 L19.882,28.5 L16.776448,26.9473631 C16.556902,26.8375901 16.453407,26.5880902 16.5198528,26.3605326 L16.5528412,26.2765427 C16.6626142,26.0569967 16.9121141,25.9535018 17.1396717,26.0199475 Z M42.8603283,26.0199475 C43.0878859,25.9535018 43.3373858,26.0569967 43.4471588,26.2765427 L43.4471588,26.2765427 L43.4801472,26.3605326 C43.546593,26.5880902 43.443098,26.8375901 43.223552,26.9473631 L43.223552,26.9473631 L40.117,28.5 L47.5,28.5000948 L47.5898756,28.5081504 C47.8231248,28.5504864 48,28.7546349 48,29.0000948 C48,29.2762372 47.7761424,29.5000948 47.5,29.5000948 L47.5,29.5000948 L40.117,29.5 L43.223552,31.0529359 L43.3003366,31.1003348 C43.4900279,31.2425134 43.5569318,31.5042103 43.4471588,31.7237563 C43.3236642,31.9707456 43.0233277,32.0708578 42.7763384,31.9473631 L42.7763384,31.9473631 L37.7763384,29.4473631 L37.6978362,29.3990875 C37.4099948,29.1842144 37.4361622,28.7230241 37.7763384,28.5529359 L37.7763384,28.5529359 L42.7763384,26.0529359 Z"/>
  </g>
</svg>
