<svg xmlns="http://www.w3.org/2000/svg" width="62" height="62" viewBox="0 0 62 62">
  <defs>
    <linearGradient id="icon-11-1-a" x1="100%" x2="0%" y1="100%" y2="0%">
      <stop offset="0%" stop-color="#1E85E9"/>
      <stop offset="20.276%" stop-color="#8671F3"/>
      <stop offset="70.727%" stop-color="#C06CFD" stop-opacity=".99"/>
      <stop offset="100%" stop-color="#FFBEE8"/>
    </linearGradient>
    <linearGradient id="icon-11-1-b" x1="100%" x2="0%" y1="94.599%" y2="5.401%">
      <stop offset="0%" stop-color="#1E85E9"/>
      <stop offset="20.276%" stop-color="#8671F3"/>
      <stop offset="70.727%" stop-color="#C06CFD" stop-opacity=".99"/>
      <stop offset="100%" stop-color="#FFBEE8"/>
    </linearGradient>
  </defs>
  <g fill="none" fill-rule="evenodd" transform="translate(1 1)">
    <rect width="60" height="60" fill="url(#icon-11-1-a)" stroke="#000" stroke-opacity=".02" opacity=".062" rx="4"/>
    <path fill="url(#icon-11-1-b)" fill-rule="nonzero" d="M47,37 C47.5522847,37 48,37.4477153 48,38 L48,46 C48,46.5522847 47.5522847,47 47,47 L13,47 C12.4477153,47 12,46.5522847 12,46 L12,38 C12,37.4477153 12.4477153,37 13,37 L47,37 Z M47,38 L13,38 L13,46 L47,46 L47,38 Z M17,41 C17.5522847,41 18,41.4477153 18,42 C18,42.5522847 17.5522847,43 17,43 C16.4477153,43 16,42.5522847 16,42 C16,41.4477153 16.4477153,41 17,41 Z M21,41 C21.5522847,41 22,41.4477153 22,42 C22,42.5522847 21.5522847,43 21,43 C20.4477153,43 20,42.5522847 20,42 C20,41.4477153 20.4477153,41 21,41 Z M25,41 C25.5522847,41 26,41.4477153 26,42 C26,42.5522847 25.5522847,43 25,43 C24.4477153,43 24,42.5522847 24,42 C24,41.4477153 24.4477153,41 25,41 Z M44.0449219,41.5 C44.3210642,41.5 44.5449219,41.7238576 44.5449219,42 C44.5449219,42.2454599 44.3680467,42.4496084 44.1347975,42.4919443 L44.0449219,42.5 L29.5,42.5 C29.2238576,42.5 29,42.2761424 29,42 C29,41.7545401 29.1768752,41.5503916 29.4101244,41.5080557 L29.5,41.5 L44.0449219,41.5 Z M47,25 C47.5522847,25 48,25.4477153 48,26 L48,34 C48,34.5522847 47.5522847,35 47,35 L13,35 C12.4477153,35 12,34.5522847 12,34 L12,26 C12,25.4477153 12.4477153,25 13,25 L47,25 Z M47,26 L13,26 L13,34 L47,34 L47,26 Z M17,29 C17.5522847,29 18,29.4477153 18,30 C18,30.5522847 17.5522847,31 17,31 C16.4477153,31 16,30.5522847 16,30 C16,29.4477153 16.4477153,29 17,29 Z M21,29 C21.5522847,29 22,29.4477153 22,30 C22,30.5522847 21.5522847,31 21,31 C20.4477153,31 20,30.5522847 20,30 C20,29.4477153 20.4477153,29 21,29 Z M25,29 C25.5522847,29 26,29.4477153 26,30 C26,30.5522847 25.5522847,31 25,31 C24.4477153,31 24,30.5522847 24,30 C24,29.4477153 24.4477153,29 25,29 Z M44.0449219,29.5 C44.3210642,29.5 44.5449219,29.7238576 44.5449219,30 C44.5449219,30.2454599 44.3680467,30.4496084 44.1347975,30.4919443 L44.0449219,30.5 L29.5,30.5 C29.2238576,30.5 29,30.2761424 29,30 C29,29.7545401 29.1768752,29.5503916 29.4101244,29.5080557 L29.5,29.5 L44.0449219,29.5 Z M47,13 C47.5522847,13 48,13.4477153 48,14 L48,22 C48,22.5522847 47.5522847,23 47,23 L13,23 C12.4477153,23 12,22.5522847 12,22 L12,14 C12,13.4477153 12.4477153,13 13,13 L47,13 Z M47,14 L13,14 L13,22 L47,22 L47,14 Z M17,17 C17.5522847,17 18,17.4477153 18,18 C18,18.5522847 17.5522847,19 17,19 C16.4477153,19 16,18.5522847 16,18 C16,17.4477153 16.4477153,17 17,17 Z M21,17 C21.5522847,17 22,17.4477153 22,18 C22,18.5522847 21.5522847,19 21,19 C20.4477153,19 20,18.5522847 20,18 C20,17.4477153 20.4477153,17 21,17 Z M25,17 C25.5522847,17 26,17.4477153 26,18 C26,18.5522847 25.5522847,19 25,19 C24.4477153,19 24,18.5522847 24,18 C24,17.4477153 24.4477153,17 25,17 Z M44.0449219,17.5 C44.3210642,17.5 44.5449219,17.7238576 44.5449219,18 C44.5449219,18.2454599 44.3680467,18.4496084 44.1347975,18.4919443 L44.0449219,18.5 L29.5,18.5 C29.2238576,18.5 29,18.2761424 29,18 C29,17.7545401 29.1768752,17.5503916 29.4101244,17.5080557 L29.5,17.5 L44.0449219,17.5 Z"/>
  </g>
</svg>
