<svg xmlns="http://www.w3.org/2000/svg" width="36" height="33" viewBox="0 0 36 33">
  <defs>
    <linearGradient id="icon-16-7-a" x1="100%" x2="0%" y1="92.014%" y2="7.986%">
      <stop offset="0%" stop-color="#1E85E9"/>
      <stop offset="20.276%" stop-color="#8671F3"/>
      <stop offset="70.727%" stop-color="#C06CFD" stop-opacity=".99"/>
      <stop offset="100%" stop-color="#FFBEE8"/>
    </linearGradient>
  </defs>
  <path fill="url(#icon-16-7-a)" d="M1257,2550.00009 C1257.24546,2550.00009 1257.44961,2550.17697 1257.49194,2550.41022 L1257.5,2550.50009 L1257.5,2582.50009 C1257.5,2582.77624 1257.27614,2583.00009 1257,2583.00009 C1256.75454,2583.00009 1256.55039,2582.82322 1256.50806,2582.58997 L1256.5,2582.50009 L1256.5,2550.50009 C1256.5,2550.22395 1256.72386,2550.00009 1257,2550.00009 Z M1265.23923,2550.06104 C1265.48171,2550.19316 1265.57118,2550.49684 1265.43906,2550.73932 C1262.57186,2556.00158 1261.14111,2561.25336 1261.14111,2566.50009 C1261.14111,2571.74683 1262.57186,2576.99861 1265.43906,2582.26087 C1265.57118,2582.50335 1265.48171,2582.80703 1265.23923,2582.93915 C1264.99674,2583.07127 1264.69306,2582.9818 1264.56094,2582.73932 C1261.61629,2577.33491 1260.14111,2571.92003 1260.14111,2566.50009 C1260.14111,2561.08016 1261.61629,2555.66528 1264.56094,2550.26087 C1264.69306,2550.01838 1264.99674,2549.92892 1265.23923,2550.06104 Z M1248.76087,2550.06104 C1249.00335,2549.92892 1249.30703,2550.01838 1249.43915,2550.26087 C1252.3838,2555.66528 1253.85898,2561.08016 1253.85898,2566.50009 C1253.85898,2571.92003 1252.3838,2577.33491 1249.43915,2582.73932 C1249.30703,2582.9818 1249.00335,2583.07127 1248.76087,2582.93915 C1248.51838,2582.80703 1248.42892,2582.50335 1248.56104,2582.26087 C1251.42824,2576.99861 1252.85898,2571.74683 1252.85898,2566.50009 C1252.85898,2561.25336 1251.42824,2556.00158 1248.56104,2550.73932 C1248.42892,2550.49684 1248.51838,2550.19316 1248.76087,2550.06104 Z M1244.13967,2563.01995 L1244.22366,2563.05294 L1249.22366,2565.55294 C1249.56384,2565.72302 1249.59001,2566.18421 1249.30216,2566.39909 L1249.22366,2566.44736 L1244.22366,2568.94736 C1243.97667,2569.07086 1243.67634,2568.97075 1243.55284,2568.72376 C1243.44307,2568.50421 1243.50997,2568.24251 1243.69966,2568.10033 L1243.77645,2568.05294 L1246.882,2566.5 L1239.5,2566.50009 C1239.22386,2566.50009 1239,2566.27624 1239,2566.00009 C1239,2565.75463 1239.17688,2565.55049 1239.41012,2565.50815 L1239.5,2565.50009 L1246.882,2565.5 L1243.77645,2563.94736 C1243.5569,2563.83759 1243.45341,2563.58809 1243.51985,2563.36053 L1243.55284,2563.27654 C1243.66261,2563.057 1243.91211,2562.9535 1244.13967,2563.01995 Z M1269.86033,2563.01995 C1270.08789,2562.9535 1270.33739,2563.057 1270.44716,2563.27654 L1270.44716,2563.27654 L1270.48015,2563.36053 C1270.54659,2563.58809 1270.4431,2563.83759 1270.22355,2563.94736 L1270.22355,2563.94736 L1267.117,2565.5 L1274.5,2565.50009 L1274.58988,2565.50815 C1274.82312,2565.55049 1275,2565.75463 1275,2566.00009 C1275,2566.27624 1274.77614,2566.50009 1274.5,2566.50009 L1274.5,2566.50009 L1267.117,2566.5 L1270.22355,2568.05294 L1270.30034,2568.10033 C1270.49003,2568.24251 1270.55693,2568.50421 1270.44716,2568.72376 C1270.32366,2568.97075 1270.02333,2569.07086 1269.77634,2568.94736 L1269.77634,2568.94736 L1264.77634,2566.44736 L1264.69784,2566.39909 C1264.40999,2566.18421 1264.43616,2565.72302 1264.77634,2565.55294 L1264.77634,2565.55294 L1269.77634,2563.05294 Z" transform="translate(-1239 -2550)"/>
</svg>
