<svg xmlns="http://www.w3.org/2000/svg" width="36" height="41" viewBox="0 0 36 41">
  <defs>
    <linearGradient id="icon-18-4-a" x1="83.606%" x2="34.657%" y1="94.751%" y2="-63.226%">
      <stop offset="0%" stop-color="#1E85E9"/>
      <stop offset="20.276%" stop-color="#8671F3"/>
      <stop offset="70.727%" stop-color="#C06CFD" stop-opacity=".99"/>
      <stop offset="100%" stop-color="#FFBEE8"/>
    </linearGradient>
  </defs>
  <path fill="url(#icon-18-4-a)" d="M833,2828 C839.627417,2828 845,2833.37258 845,2840 L845,2840 L845,2844.41 L847.5,2844.41026 C849.368563,2844.41026 850.895126,2845.87453 850.994821,2847.71822 L851,2847.91026 L851,2865.5 C851,2867.433 849.432997,2869 847.5,2869 L847.5,2869 L818.5,2869 C816.567003,2869 815,2867.433 815,2865.5 L815,2865.5 L815,2847.91026 C815,2845.97726 816.567003,2844.41026 818.5,2844.41026 L818.5,2844.41026 L821,2844.41 L821,2840 C821,2833.58639 826.038143,2828.32989 832.40223,2828.01482 L832.701503,2828.00368 Z M847.5,2845.41026 L818.5,2845.41026 C817.119288,2845.41026 816,2846.52954 816,2847.91026 L816,2847.91026 L816,2865.5 C816,2866.88071 817.119288,2868 818.5,2868 L818.5,2868 L847.5,2868 C848.880712,2868 850,2866.88071 850,2865.5 L850,2865.5 L850,2847.91026 C850,2846.52954 848.880712,2845.41026 847.5,2845.41026 L847.5,2845.41026 Z M833,2851 C834.656854,2851 836,2852.34315 836,2854 C836,2854.76899 835.708429,2855.49103 835.201713,2856.03792 L835.201713,2856.03792 L835.132,2856.107 L836.109839,2861 L829.890012,2861 L830.868,2856.108 L830.799159,2856.03886 C830.33803,2855.5416 830.054855,2854.89934 830.00718,2854.20859 L830.00718,2854.20859 L830,2854 C830,2852.34315 831.343146,2851 833,2851 Z M833,2852 C831.895431,2852 831,2852.89543 831,2854 C831,2854.60688 831.271314,2855.1683 831.731507,2855.54636 L831.731507,2855.54636 L831.963256,2855.73674 L831.11,2860 L834.89,2860 L834.037822,2855.73605 L834.269279,2855.54571 C834.729009,2855.16765 835,2854.60652 835,2854 C835,2852.89543 834.104569,2852 833,2852 Z M833.003,2828.999 L832.720201,2829.00349 C826.76383,2829.15207 822,2834.02907 822,2840 L822,2840 L822,2844.41 L844,2844.41 L844,2840 C844,2834.0213 839.230236,2829.15663 833.288407,2829.00371 L833.288407,2829.00371 L833.003,2828.999 Z" transform="translate(-815 -2828)"/>
</svg>
