<svg xmlns="http://www.w3.org/2000/svg" width="34" height="34" viewBox="0 0 34 34">
  <defs>
    <linearGradient id="ico-managed-qa-services-5-a" x1="100%" x2="0%" y1="100%" y2="0%">
      <stop offset="0%" stop-color="#1E85E9"/>
      <stop offset="20.276%" stop-color="#8671F3"/>
      <stop offset="70.727%" stop-color="#C06CFD" stop-opacity=".99"/>
      <stop offset="100%" stop-color="#FFBEE8"/>
    </linearGradient>
  </defs>
  <path fill="url(#ico-managed-qa-services-5-a)" d="M57.5555556,31 C58.3533002,31 59,31.6466998 59,32.4444444 L59,32.4444444 L59,55.5555556 C59,56.3533002 58.3533002,57 57.5555556,57 L57.5555556,57 L34.4444444,57 C33.6466998,57 33,56.3533002 33,55.5555556 L33,55.5555556 L33,32.4444444 C33,31.6466998 33.6466998,31 34.4444444,31 L34.4444444,31 Z M64,29 L62.5,29 C61.6715729,29 61,28.3284271 61,27.5 L61,27.5 L61,26 L39,26 L39,27.5 C39,28.3284271 38.3284271,29 37.5,29 L37.5,29 L34.5,29 C33.6715729,29 33,28.3284271 33,27.5 L33,27.5 L33,24.5 C33,23.6715729 33.6715729,23 34.5,23 L34.5,23 L37.5,23 C38.3284271,23 39,23.6715729 39,24.5 L39,24.5 L39,25 L61,25 L61,24.5 C61,23.7203039 61.5948881,23.0795513 62.35554,23.0068666 L62.5,23 L65.5,23 C66.3284271,23 67,23.6715729 67,24.5 L67,24.5 L67,27.5 C67,28.3284271 66.3284271,29 65.5,29 L65.5,29 L65,29 L65,51 L65.5,51 C66.3284271,51 67,51.6715729 67,52.5 L67,52.5 L67,55.5 C67,56.3284271 66.3284271,57 65.5,57 L65.5,57 L62.5,57 C61.6715729,57 61,56.3284271 61,55.5 L61,55.5 L61,52.5 C61,51.6715729 61.6715729,51 62.5,51 L62.5,51 L64,51 L64,29 Z M57.5555556,31.962963 L34.4444444,31.962963 C34.1785296,31.962963 33.962963,32.1785296 33.962963,32.4444444 L33.962963,32.4444444 L33.962963,55.5555556 C33.962963,55.8214704 34.1785296,56.037037 34.4444444,56.037037 L34.4444444,56.037037 L57.5555556,56.037037 C57.8214704,56.037037 58.037037,55.8214704 58.037037,55.5555556 L58.037037,55.5555556 L58.037037,32.4444444 C58.037037,32.1785296 57.8214704,31.962963 57.5555556,31.962963 L57.5555556,31.962963 Z M65.5,52 L62.5,52 C62.2238576,52 62,52.2238576 62,52.5 L62,52.5 L62,55.5 C62,55.7761424 62.2238576,56 62.5,56 L62.5,56 L65.5,56 C65.7761424,56 66,55.7761424 66,55.5 L66,55.5 L66,52.5 C66,52.2238576 65.7761424,52 65.5,52 L65.5,52 Z M37.5,24 L34.5,24 C34.2238576,24 34,24.2238576 34,24.5 L34,24.5 L34,27.5 C34,27.7761424 34.2238576,28 34.5,28 L34.5,28 L37.5,28 C37.7761424,28 38,27.7761424 38,27.5 L38,27.5 L38,24.5 C38,24.2238576 37.7761424,24 37.5,24 L37.5,24 Z M65.5,24 L62.5,24 C62.2238576,24 62,24.2238576 62,24.5 L62,24.5 L62,27.5 C62,27.7761424 62.2238576,28 62.5,28 L62.5,28 L65.5,28 C65.7761424,28 66,27.7761424 66,27.5 L66,27.5 L66,24.5 C66,24.2238576 65.7761424,24 65.5,24 L65.5,24 Z" transform="translate(-33 -23)"/>
</svg>
