<svg xmlns="http://www.w3.org/2000/svg" width="43" height="31" viewBox="0 0 43 31">
  <defs>
    <linearGradient id="ico-devices-3-a" x1="100%" x2="0%" y1="75.757%" y2="24.243%">
      <stop offset="0%" stop-color="#1E85E9"/>
      <stop offset="20.276%" stop-color="#8671F3"/>
      <stop offset="70.727%" stop-color="#C06CFD" stop-opacity=".99"/>
      <stop offset="100%" stop-color="#FFBEE8"/>
    </linearGradient>
  </defs>
  <path fill="url(#ico-devices-3-a)" d="M67.01998,42.6722888 L68.8331863,42.8213894 C72.534765,43.14823 75.2278401,43.8869242 75.2282717,51.6164219 C75.2282717,56.0892329 71.9380619,56.3086051 67.6313686,56.3086051 L66.1888112,56.3051309 L56.3902764,56.3060316 L54.9781299,56.3075782 C51.754544,56.2916687 49.1686544,56.0642809 48.2250969,53.8427298 L47.2722278,53.8412466 L38.4936343,53.8426071 C35.3496798,53.8236774 33,53.5270778 33,50.1938112 C33,43.2374287 35.8031968,43.5620202 39.3831169,43.2374287 C39.4110889,44.5109788 41.3101898,45.5388518 43.6503497,45.5388518 C45.9905095,45.5388518 47.8886114,44.5104825 47.9180819,43.2374287 L49.0991601,43.3340268 C49.7241662,43.3858113 50.3147706,43.4462645 50.8582343,43.5653735 C52.2619501,42.8772954 54.0613715,42.8525349 56.0464535,42.6722888 C56.0824176,44.3096394 58.5244755,45.6308359 61.5324675,45.6308359 C64.5414585,45.6308359 66.983017,44.3096394 67.01998,42.6722888 Z M67.73,43.6367947 L67.686598,43.7418619 C66.9162124,45.4325191 64.4083186,46.5334715 61.5324675,46.5334715 C58.6569753,46.5334715 56.1489131,45.4322579 55.3792737,43.7414137 L55.3354545,43.6367947 L55.0085115,43.6636016 C52.3591163,43.8729731 51.3445624,44.1142576 50.4783765,44.8982962 C49.3487683,45.9207746 48.7487512,47.9708991 48.7487512,51.6164219 C48.7487512,54.646741 50.0692518,55.3549286 54.8664855,55.4032301 L67.6313686,55.4059695 C72.89562,55.4059695 74.3191808,54.7637516 74.3191808,51.6164719 C74.3191808,47.970113 73.7183262,45.919603 72.5877385,44.8970744 C71.7529004,44.1420283 70.7806421,43.8905047 68.3425561,43.6864077 L67.73,43.6367947 Z M48.5981818,44.1991367 L48.5519308,44.2936905 C47.8474517,45.612207 45.8785899,46.4414874 43.6503497,46.4414874 C41.4212522,46.4414874 39.4517708,45.6121533 38.7482529,44.2931041 L38.7018182,44.1991367 L38.1835421,44.2434113 C34.7400489,44.5665527 33.9384204,45.4068673 33.9098926,49.9334468 L33.9090909,50.1938112 C33.9090909,52.4366102 34.8696465,52.9200278 38.6462133,52.9404055 L39.6960619,52.9391234 L47.6336364,52.9384548 L47.6312634,52.8903011 L47.6248751,52.5191582 C47.6244735,48.9466547 48.1497419,46.3676025 49.3254308,44.5080654 L49.4790909,44.2740555 L48.9282171,44.2258807 L48.5981818,44.1991367 Z M43.6508492,30.2701481 C46.8896104,30.2701481 49.5134865,32.8782952 49.5134865,36.0954236 C49.5134865,39.3115593 46.8896104,44.1496598 43.6508492,44.1496598 C40.4135864,44.1496598 37.7887113,39.3120557 37.7892108,36.0954236 C37.7892108,32.8777989 40.4135864,30.2701481 43.6508492,30.2701481 Z M61.5334665,26 C65.6968032,26 69.0709291,29.3531193 69.0704296,33.4894272 C69.0704296,35.6876163 68.1163836,38.4754302 66.5974026,40.6046312 C66.1153846,41.2806153 65.5759241,41.887115 64.992008,42.3903806 C64.5604396,42.7621223 64.1058941,43.0752984 63.6313686,43.3145233 C62.965035,43.6505301 62.2612388,43.8445902 61.532967,43.8445902 C60.8051948,43.8445902 60.1028971,43.6515228 59.4375624,43.3160123 C58.962038,43.0757948 58.505994,42.7621223 58.0744256,42.3898843 C57.491009,41.8866186 56.951049,41.280119 56.469031,40.6046312 C54.95005,38.4754302 53.9965035,35.6881126 53.9965035,33.4894272 C53.9965035,29.3531193 57.3706294,26 61.5334665,26 Z M43.6508492,31.1727837 C40.9156822,31.1727837 38.6983017,33.3762925 38.6983017,36.0955628 C38.6978042,39.2989606 41.2967579,43.2470242 43.6508492,43.2470242 C46.0058427,43.2470242 48.6043956,39.2994173 48.6043956,36.0954236 C48.6043956,33.3762925 46.3870151,31.1727837 43.6508492,31.1727837 Z M61.5334665,26.9026356 C57.8729695,26.9026356 54.9055944,29.85137 54.9055944,33.4894272 C54.9055944,35.5091676 55.8073404,38.1155209 57.2108068,40.0828016 C57.6601506,40.7125007 58.1530047,41.2619599 58.6706103,41.7084559 C59.0559142,42.0407896 59.4510506,42.3100813 59.8492216,42.511223 C60.4160555,42.7970621 60.9777802,42.9419545 61.532967,42.9419545 C62.0880077,42.9419545 62.6511752,42.7964242 63.2197991,42.5096888 C63.6159644,42.309968 64.009532,42.0416931 64.3960768,41.7087336 C64.9134224,41.2628437 65.4056839,40.7138032 65.855564,40.0828896 C67.2591944,38.115379 68.1613387,35.5085039 68.1613387,33.489319 C68.161778,29.8513282 65.1944449,26.9026356 61.5334665,26.9026356 Z" transform="translate(-33 -26)"/>
</svg>
