<svg xmlns="http://www.w3.org/2000/svg" width="35" height="35" viewBox="0 0 35 35">
  <defs>
    <linearGradient id="icon-17-3-a" x1="100%" x2="0%" y1="99.926%" y2=".074%">
      <stop offset="0%" stop-color="#1E85E9"/>
      <stop offset="20.276%" stop-color="#8671F3"/>
      <stop offset="70.727%" stop-color="#C06CFD" stop-opacity=".99"/>
      <stop offset="100%" stop-color="#FFBEE8"/>
    </linearGradient>
  </defs>
  <path fill="url(#icon-17-3-a)" d="M676.5,2690 C676.74546,2690 676.949608,2690.17688 676.991944,2690.41012 L677,2690.5 L677,2723.12 L680.667,2723.12 L680.702882,2722.91427 C683.714335,2705.41134 687.939683,2696.62305 693.630127,2696.62305 C699.320571,2696.62305 703.545919,2705.41134 706.557371,2722.91427 L706.592,2723.12 L709.645996,2723.12061 C709.891456,2723.12061 710.095604,2723.29748 710.13794,2723.53073 L710.145996,2723.62061 C710.145996,2723.86607 709.969121,2724.07021 709.735872,2724.11255 L709.645996,2724.12061 L676,2724.12061 L676,2690.5 C676,2690.22386 676.223858,2690 676.5,2690 Z M693.630127,2697.62305 C688.677409,2697.62305 684.612733,2706.08777 681.687209,2723.09084 L681.682,2723.12 L705.577,2723.12 L705.476187,2722.53339 C702.558081,2705.90275 698.52842,2697.62305 693.630127,2697.62305 Z M681.882812,2694.10693 L681.882812,2695.10693 L678.882812,2695.10693 L678.882812,2694.10693 L681.882812,2694.10693 Z M685.882812,2694.10693 L685.882812,2695.10693 L682.882812,2695.10693 L682.882812,2694.10693 L685.882812,2694.10693 Z M689.882812,2694.10693 L689.882812,2695.10693 L686.882812,2695.10693 L686.882812,2694.10693 L689.882812,2694.10693 Z M693.882812,2694.10693 L693.882812,2695.10693 L690.882812,2695.10693 L690.882812,2694.10693 L693.882812,2694.10693 Z M697.882812,2694.10693 L697.882812,2695.10693 L694.882812,2695.10693 L694.882812,2694.10693 L697.882812,2694.10693 Z M701.882812,2694.10693 L701.882812,2695.10693 L698.882812,2695.10693 L698.882812,2694.10693 L701.882812,2694.10693 Z M705.882812,2694.10693 L705.882812,2695.10693 L702.882812,2695.10693 L702.882812,2694.10693 L705.882812,2694.10693 Z M709.882812,2694.10693 L709.882812,2695.10693 L706.882812,2695.10693 L706.882812,2694.10693 L709.882812,2694.10693 Z" transform="translate(-676 -2690)"/>
</svg>
