<svg xmlns="http://www.w3.org/2000/svg" width="40" height="21" viewBox="0 0 40 21">
  <defs>
    <linearGradient id="icon-18-6-a" x1="100%" x2="0%" y1="63.045%" y2="36.955%">
      <stop offset="0%" stop-color="#1E85E9"/>
      <stop offset="20.276%" stop-color="#8671F3"/>
      <stop offset="70.727%" stop-color="#C06CFD" stop-opacity=".99"/>
      <stop offset="100%" stop-color="#FFBEE8"/>
    </linearGradient>
  </defs>
  <path fill="url(#icon-18-6-a)" d="M1113.38487,2858.23058 C1106.6037,2858.23058 1101.08169,2856.42957 1100.89002,2853.8685 L1100.88487,2853.73058 L1100.884,2845.093 L1094.36137,2843.2109 C1093.89886,2843.07743 1093.88476,2842.45124 1094.29354,2842.27406 L1094.3876,2842.24331 L1112.77237,2838.00124 L1112.99167,2838 L1132.37645,2842.24206 C1132.82434,2842.34008 1132.89357,2842.90731 1132.56329,2843.13802 L1132.562,2848.943 L1133.55385,2850.92193 C1133.61033,2851.03469 1133.62162,2851.16347 1133.58773,2851.28263 L1133.55385,2851.3698 L1132.50959,2853.45452 C1132.34692,2853.77927 1131.91374,2853.82056 1131.68781,2853.56219 L1131.63169,2853.48429 L1130.45402,2851.48429 C1130.38279,2851.36332 1130.36646,2851.21956 1130.40564,2851.08794 L1130.44544,2850.99204 L1131.562,2848.934 L1131.562,2843.442 L1125.884,2844.996 L1125.88487,2853.73058 C1125.88487,2856.36467 1120.28714,2858.23058 1113.38487,2858.23058 Z M1132.04387,2850.14258 L1131.45887,2851.22058 L1132.02687,2852.18458 L1132.54687,2851.14558 L1132.04387,2850.14258 Z M1112.88698,2838.99981 L1096.4913,2842.78354 L1112.88769,2847.5155 L1130.17787,2842.78354 L1112.88698,2838.99981 Z M1124.884,2845.27 L1113.01678,2848.51839 C1112.95767,2848.53457 1112.89635,2848.53968 1112.83587,2848.53373 L1112.74615,2848.51653 L1101.884,2845.381 L1101.88487,2853.73058 C1101.88487,2855.51477 1107.03231,2857.23058 1113.38487,2857.23058 C1119.62194,2857.23058 1124.69729,2855.5766 1124.87979,2853.82782 L1124.88487,2853.73058 L1124.884,2845.27 Z" transform="translate(-1094 -2838)"/>
</svg>
