<svg xmlns="http://www.w3.org/2000/svg" width="29" height="29" viewBox="0 0 29 29">
  <defs>
    <linearGradient id="icon-23-7-a" x1="100%" x2="0%" y1="100%" y2="0%">
      <stop offset="0%" stop-color="#1E85E9"/>
      <stop offset="20.276%" stop-color="#8671F3"/>
      <stop offset="70.727%" stop-color="#C06CFD" stop-opacity=".99"/>
      <stop offset="100%" stop-color="#FFBEE8"/>
    </linearGradient>
  </defs>
  <path fill="url(#icon-23-7-a)" d="M1250.38832,3556.61168 C1250.56189,3556.78525 1250.58117,3557.05467 1250.44618,3557.24954 L1250.38832,3557.31879 L1240.706,3567 L1246.5,3567 C1246.74546,3567 1246.94961,3567.17688 1246.99194,3567.41012 L1247,3567.5 C1247,3567.74546 1246.82312,3567.94961 1246.58988,3567.99194 L1246.5,3568 L1239,3568 L1239,3560.5 C1239,3560.22386 1239.22386,3560 1239.5,3560 C1239.74546,3560 1239.94961,3560.17688 1239.99194,3560.41012 L1240,3560.5 L1240,3566.292 L1249.68121,3556.61168 C1249.87648,3556.41642 1250.19306,3556.41642 1250.38832,3556.61168 Z M1257.23744,3556.57457 L1257.31368,3556.61796 L1257.38293,3556.67582 L1267,3566.293 L1267,3560.5 C1267,3560.25454 1267.17688,3560.05039 1267.41012,3560.00806 L1267.5,3560 C1267.74546,3560 1267.94961,3560.17688 1267.99194,3560.41012 L1268,3560.5 L1268,3568 L1260.5,3568 C1260.22386,3568 1260,3567.77614 1260,3567.5 C1260,3567.25454 1260.17688,3567.05039 1260.41012,3567.00806 L1260.5,3567 L1266.293,3567 L1256.67582,3557.38293 C1256.48056,3557.18766 1256.48056,3556.87108 1256.67582,3556.67582 C1256.82769,3556.52395 1257.05295,3556.4902 1257.23744,3556.57457 Z M1253.5,3550.5 C1255.15685,3550.5 1256.5,3551.84315 1256.5,3553.5 C1256.5,3555.15685 1255.15685,3556.5 1253.5,3556.5 C1251.84315,3556.5 1250.5,3555.15685 1250.5,3553.5 C1250.5,3551.84315 1251.84315,3550.5 1253.5,3550.5 Z M1253.5,3551.5 C1252.39543,3551.5 1251.5,3552.39543 1251.5,3553.5 C1251.5,3554.60457 1252.39543,3555.5 1253.5,3555.5 C1254.60457,3555.5 1255.5,3554.60457 1255.5,3553.5 C1255.5,3552.39543 1254.60457,3551.5 1253.5,3551.5 Z M1246.5,3539 C1246.77614,3539 1247,3539.22386 1247,3539.5 C1247,3539.74546 1246.82312,3539.94961 1246.58988,3539.99194 L1246.5,3540 L1240.707,3540 L1250.36749,3549.66039 C1250.56275,3549.85565 1250.56275,3550.17223 1250.36749,3550.36749 C1250.19393,3550.54106 1249.9245,3550.56034 1249.72963,3550.42535 L1249.66039,3550.36749 L1240,3540.707 L1240,3546.5 C1240,3546.74546 1239.82312,3546.94961 1239.58988,3546.99194 L1239.5,3547 C1239.25454,3547 1239.05039,3546.82312 1239.00806,3546.58988 L1239,3546.5 L1239,3539 L1246.5,3539 Z M1268,3539 L1268,3546.5 C1268,3546.77614 1267.77614,3547 1267.5,3547 C1267.25454,3547 1267.05039,3546.82312 1267.00806,3546.58988 L1267,3546.5 L1267,3540.706 L1257.3425,3550.36461 C1257.14724,3550.55987 1256.83065,3550.55987 1256.63539,3550.36461 C1256.46183,3550.19104 1256.44254,3549.92162 1256.57754,3549.72675 L1256.63539,3549.6575 L1266.292,3540 L1260.5,3540 C1260.25454,3540 1260.05039,3539.82312 1260.00806,3539.58988 L1260,3539.5 C1260,3539.25454 1260.17688,3539.05039 1260.41012,3539.00806 L1260.5,3539 L1268,3539 Z" transform="translate(-1239 -3539)"/>
</svg>
