<svg xmlns="http://www.w3.org/2000/svg" width="34" height="34" viewBox="0 0 34 34">
  <defs>
    <linearGradient id="icon-21-2-a" x1="77.632%" x2="21.063%" y1="126.552%" y2="-2.01%">
      <stop offset="0%" stop-color="#1E85E9"/>
      <stop offset="20.276%" stop-color="#8671F3"/>
      <stop offset="70.727%" stop-color="#C06CFD" stop-opacity=".99"/>
      <stop offset="100%" stop-color="#FFBEE8"/>
    </linearGradient>
  </defs>
  <path fill="url(#icon-21-2-a)" d="M544.280587,3254 C541.668156,3254 540.090422,3255.70348 540.090422,3258.15971 L540.096081,3258.34885 L540.11503,3258.55357 C540.232436,3259.50492 540.751918,3260.39656 541.525064,3261.09736 L541.708244,3261.25609 L541.708244,3261.48995 L532,3261.49017 L532,3271.66432 L533.748238,3271.66484 L533.990512,3271.36005 C534.664043,3270.54567 535.555061,3270.04664 536.444621,3270.04664 C538.456464,3270.04664 539.77507,3271.26791 539.77507,3273.40754 C539.77507,3275.54717 538.456464,3276.76843 536.444621,3276.76843 C535.504693,3276.76843 534.562185,3276.20925 533.877856,3275.31343 L533.753481,3275.15062 L532,3275.14962 L532,3288 L544.695264,3287.99934 L544.69528,3286.5366 L544.390543,3286.29437 C543.576164,3285.62084 543.077137,3284.72982 543.077137,3283.84026 C543.077137,3281.82842 544.298404,3280.50981 546.438033,3280.50981 C548.577662,3280.50981 549.798929,3281.82842 549.798929,3283.84026 L549.792605,3284.0195 C549.733345,3284.88926 549.184426,3285.76495 548.343927,3286.40702 L548.181074,3286.53143 L548.180529,3287.99933 L558.718634,3288 L558.717366,3275.99218 L558.837594,3276.1288 C559.647393,3277.01612 560.707525,3277.56725 561.809835,3277.56725 C564.28288,3277.56725 566,3276.00244 566,3273.40754 C566,3270.81264 564.28288,3269.24782 561.809835,3269.24782 L561.619476,3269.25343 L561.41361,3269.27219 C560.456892,3269.38843 559.559213,3269.90304 558.853166,3270.66941 L558.717366,3270.82169 L558.718639,3261.49017 L546.851366,3261.48995 L546.852195,3261.25526 L547.019294,3261.11263 C547.914399,3260.30884 548.470752,3259.2558 548.470752,3258.15971 C548.470752,3255.70348 546.893017,3254 544.280587,3254 Z M544.314201,3254.94444 C546.43859,3254.94444 547.651159,3256.25366 547.651159,3258.25117 C547.651159,3259.18448 547.095872,3260.12034 546.20633,3260.7998 L546.044643,3260.9233 L546.043929,3262.38104 L557.825615,3262.38105 L557.825597,3271.67672 L559.021272,3271.67696 L559.144917,3271.51772 C559.791586,3270.6849 560.67507,3270.14262 561.567157,3270.08829 L561.731135,3270.08349 C563.735485,3270.08368 565.055556,3271.28666 565.055556,3273.39041 C565.055556,3275.49415 563.735485,3276.69713 561.718597,3276.69713 C560.77488,3276.69713 559.830086,3276.1456 559.144768,3275.2629 L559.021389,3275.10398 L557.825601,3275.1022 L557.825615,3287.05556 L549.009057,3287.05473 L549.00988,3286.82254 L549.190426,3286.66715 C550.008443,3285.92647 550.541083,3284.97153 550.609139,3283.96864 L550.616364,3283.7628 C550.616601,3281.31009 549.050104,3279.61874 546.456281,3279.61874 C543.862457,3279.61874 542.29596,3281.31009 542.29596,3283.74883 L542.302331,3283.95172 C542.365782,3284.96317 542.899475,3285.92602 543.733992,3286.67755 L543.902567,3286.82254 L543.902567,3287.05473 L532.944444,3287.05556 L532.944444,3275.94346 L533.459869,3275.94429 L533.602327,3276.10979 C534.400376,3276.99842 535.445843,3277.55073 536.534047,3277.55073 C538.972785,3277.55073 540.664136,3275.98423 540.664136,3273.39041 C540.664136,3270.79658 538.972785,3269.23009 536.534047,3269.23009 L536.331157,3269.23646 C535.319705,3269.29991 534.356854,3269.8336 533.605325,3270.66812 L533.459869,3270.83615 L532.944444,3270.83615 L532.944444,3262.38105 L542.583386,3262.38104 L542.583935,3260.92344 L542.422072,3260.7998 C541.582631,3260.15861 541.036499,3259.28327 540.981877,3258.40078 L540.977045,3258.23843 C540.977243,3256.25366 542.189812,3254.94444 544.314201,3254.94444 Z" transform="translate(-532 -3254)"/>
</svg>
