<?xml version="1.0" encoding="UTF-8"?>
<svg width="40px" height="40px" viewBox="0 0 40 40" version="1.1" xmlns="http://www.w3.org/2000/svg" xmlns:xlink="http://www.w3.org/1999/xlink">
    <title>icon-35-4</title>
    <defs>
        <linearGradient x1="100%" y1="100%" x2="0%" y2="0%" id="linearGradient-1">
            <stop stop-color="#1E85E9" offset="0%"></stop>
            <stop stop-color="#8671F3" offset="20.275549%"></stop>
            <stop stop-color="#C06CFD" stop-opacity="0.99" offset="70.7268792%"></stop>
            <stop stop-color="#FFBEE8" offset="100%"></stop>
        </linearGradient>
    </defs>
    <g id="Page-1" stroke="none" stroke-width="1" fill="none" fill-rule="evenodd">
        <g id="icons" transform="translate(-817.000000, -5226.000000)" fill="url(#linearGradient-1)" fill-rule="nonzero">
            <path d="M837,5256 C839.761424,5256 842,5258.23858 842,5261 C842,5263.76142 839.761424,5266 837,5266 C834.238576,5266 832,5263.76142 832,5261 C832,5258.23858 834.238576,5256 837,5256 Z M822,5256 C824.761424,5256 827,5258.23858 827,5261 C827,5263.76142 824.761424,5266 822,5266 C819.238576,5266 817,5263.76142 817,5261 C817,5258.23858 819.238576,5256 822,5256 Z M852,5256 C854.761424,5256 857,5258.23858 857,5261 C857,5263.76142 854.761424,5266 852,5266 C849.238576,5266 847,5263.76142 847,5261 C847,5258.23858 849.238576,5256 852,5256 Z M837,5257 C834.790861,5257 833,5258.79086 833,5261 C833,5263.20914 834.790861,5265 837,5265 C839.209139,5265 841,5263.20914 841,5261 C841,5258.79086 839.209139,5257 837,5257 Z M822,5257 C819.790861,5257 818,5258.79086 818,5261 C818,5263.20914 819.790861,5265 822,5265 C824.209139,5265 826,5263.20914 826,5261 C826,5258.79086 824.209139,5257 822,5257 Z M852,5257 C849.790861,5257 848,5258.79086 848,5261 C848,5263.20914 849.790861,5265 852,5265 C854.209139,5265 856,5263.20914 856,5261 C856,5258.79086 854.209139,5257 852,5257 Z M837,5237.06439 C837.24546,5237.06439 837.449608,5237.24126 837.491944,5237.47451 L837.5,5237.56439 L837.5,5245.5 L852,5245.5 C852.24546,5245.5 852.449608,5245.67688 852.491944,5245.91012 L852.5,5246 L852.5,5253.81747 C852.5,5254.09361 852.276142,5254.31747 852,5254.31747 C851.75454,5254.31747 851.550392,5254.14059 851.508056,5253.90734 L851.5,5253.81747 L851.5,5246.5 L837.5,5246.5 L837.5,5253.81747 C837.5,5254.09361 837.276142,5254.31747 837,5254.31747 C836.75454,5254.31747 836.550392,5254.14059 836.508056,5253.90734 L836.5,5253.81747 L836.5,5246.5 L822.5,5246.5 L822.5,5253.81747 C822.5,5254.06293 822.323125,5254.26708 822.089876,5254.30941 L822,5254.31747 C821.75454,5254.31747 821.550392,5254.14059 821.508056,5253.90734 L821.5,5253.81747 L821.5,5246 C821.5,5245.75454 821.676875,5245.55039 821.910124,5245.50806 L822,5245.5 L836.5,5245.5 L836.5,5237.56439 C836.5,5237.28824 836.723858,5237.06439 837,5237.06439 Z M845,5226 C845.552285,5226 846,5226.44772 846,5227 L846,5235 C846,5235.55228 845.552285,5236 845,5236 L829,5236 C828.447715,5236 828,5235.55228 828,5235 L828,5227 C828,5226.44772 828.447715,5226 829,5226 L845,5226 Z M845,5227 L829,5227 L829,5235 L845,5235 L845,5227 Z" id="icon-35-4"></path>
        </g>
    </g>
</svg>