<svg xmlns="http://www.w3.org/2000/svg" width="35" height="35" viewBox="0 0 35 35">
  <defs>
    <linearGradient id="icon-23-3-a" x1="100%" x2="0%" y1="100%" y2="0%">
      <stop offset="0%" stop-color="#1E85E9"/>
      <stop offset="20.276%" stop-color="#8671F3"/>
      <stop offset="70.727%" stop-color="#C06CFD" stop-opacity=".99"/>
      <stop offset="100%" stop-color="#FFBEE8"/>
    </linearGradient>
  </defs>
  <path fill="url(#icon-23-3-a)" d="M690,3536.5 L690,3570.5 L675,3570.5 L675,3536.5 L690,3536.5 Z M709.5,3555.5 L709.5,3570.5 L694.5,3570.5 L694.5,3555.5 L709.5,3555.5 Z M708.5,3556.38235 L695.5,3556.38235 L695.5,3569.61765 L708.5,3569.61765 L708.5,3556.38235 Z M689,3537.41892 L676,3537.41892 L676,3569.58108 L689,3569.58108 L689,3537.41892 Z M709.5,3536 L709.5,3551 L694.5,3551 L694.5,3536 L709.5,3536 Z M708.5,3536.88235 L695.5,3536.88235 L695.5,3550.11765 L708.5,3550.11765 L708.5,3536.88235 Z" transform="translate(-675 -3536)"/>
</svg>
