<svg xmlns="http://www.w3.org/2000/svg" xmlns:xlink="http://www.w3.org/1999/xlink" width="62" height="62" viewBox="0 0 62 62">
  <defs>
    <linearGradient id="icon-10-7-b" x1="100%" x2="0%" y1="100%" y2="0%">
      <stop offset="0%" stop-color="#1E85E9"/>
      <stop offset="20.276%" stop-color="#8671F3"/>
      <stop offset="70.727%" stop-color="#C06CFD" stop-opacity=".99"/>
      <stop offset="100%" stop-color="#FFBEE8"/>
    </linearGradient>
    <rect id="icon-10-7-a" width="60" height="60" x="0" y="0" rx="4"/>
  </defs>
  <g fill="none" fill-rule="evenodd" transform="translate(1 1)">
    <g opacity=".062">
      <use fill="#FAFAFA" xlink:href="#icon-10-7-a"/>
      <use fill="url(#icon-10-7-b)" stroke="#000" stroke-opacity=".02" xlink:href="#icon-10-7-a"/>
    </g>
    <path fill="url(#icon-10-7-b)" fill-rule="nonzero" d="M32.9565217,14 L32.9565216,17.3887797 C32.9565719,17.460468 33.0066493,17.5223991 33.0769336,17.5374955 C34.520604,17.8481815 35.8954113,18.4198653 37.1314427,19.2229519 C37.1915605,19.2615506 37.2704353,19.2531313 37.3203597,19.2034031 L37.3203597,19.2034031 L39.7211286,16.8026342 L43.1942798,20.2766041 L40.7965042,22.679733 C40.7457675,22.7304431 40.7373346,22.8096996 40.7756017,22.8689265 C41.580034,24.1072662 42.1516987,25.4820276 42.4625464,26.9258697 C42.4776009,26.9959594 42.539532,27.0460368 42.6108696,27.046087 L42.6108696,27.046087 L46,27.046087 L46,31.9565217 L42.6112203,31.9565216 C42.539532,31.9565719 42.4776009,32.0066493 42.4624959,32.0769739 C42.1516987,33.5205811 41.580034,34.8953425 40.7770481,36.1314427 C40.7384494,36.1915605 40.7468687,36.2704353 40.7965969,36.3203597 L40.7965969,36.3203597 L43.1973658,38.7211286 L39.7233959,42.1942798 L37.320267,39.7965042 C37.2695569,39.7457675 37.1903004,39.7373346 37.1311082,39.7755792 C35.8928026,40.5801347 34.5179953,41.1518185 33.0741303,41.4625464 C33.0040406,41.4776009 32.9539632,41.539532 32.953913,41.6108696 L32.953913,41.6108696 L32.953913,45 L28.0434783,45 L28.0434784,41.6112203 C28.0434281,41.539532 27.9933507,41.4776009 27.9230952,41.4625107 C26.4795505,41.1519407 25.1048997,40.5802261 23.8689055,39.7768527 C23.8087543,39.7381713 23.7297843,39.7465939 23.6796967,39.7965405 L23.6796967,39.7965405 L21.2797881,42.1972139 L17.8027345,38.7234352 L20.2028436,36.320267 C20.2535803,36.2695569 20.2620132,36.1903004 20.2236143,36.1308705 C19.4204146,34.8931171 18.8490994,33.519564 18.5374536,32.076739 C18.5223991,32.0066493 18.460468,31.9565719 18.3891304,31.9565217 L18.3891304,31.9565217 L15,31.9565217 L15,27.0434783 L18.3887797,27.0434784 C18.460468,27.0434281 18.5223991,26.9933507 18.537539,26.9228643 C18.8487498,25.4796578 19.4200757,24.1051567 20.2222997,22.8685573 C20.2608984,22.8084395 20.2524792,22.7295647 20.2024696,22.6793588 L20.2024696,22.6793588 L17.8029156,20.2759813 L21.2768294,16.8028863 L23.6799292,19.2036922 C23.7306627,19.2545088 23.8100149,19.2629451 23.8694695,19.2244692 C25.1075084,18.4197739 26.4821592,17.8480593 27.9238696,17.5378875 C27.9937174,17.5225856 28.0434902,17.4607179 28.0434783,17.3891304 L28.0434783,17.3891304 L28.0434783,14 L32.9565217,14 Z M31.956,15 L29.043,15 L29.0434783,17.3890473 C29.0435614,17.8887914 28.7224637,18.3263664 28.255668,18.4821667 L28.255668,18.4821667 L28.1360352,18.5151194 C26.8115842,18.8000672 25.5503432,19.3246148 24.4136143,20.0634599 C23.9571795,20.3588496 23.35637,20.2949746 22.9727025,19.9106787 L22.9727025,19.9106787 L21.277,18.216 L19.216,20.276 L20.9105481,21.9732253 C21.2604769,22.3245247 21.3432016,22.8556091 21.1284697,23.2938125 L21.1284697,23.2938125 L21.0625088,23.4108148 C20.3250579,24.5475782 19.8006975,25.809089 19.5151551,27.1332607 C19.4011709,27.66394 18.9322635,28.0430974 18.3891304,28.0434783 L18.3891304,28.0434783 L16,28.043 L16,30.956 L18.3894812,30.9565219 C18.890511,30.9568733 19.3285942,31.2799694 19.4825829,31.7466242 L19.4825829,31.7466242 L19.5150335,31.866175 C19.8009491,33.1898754 20.3252996,34.4505163 21.0630042,35.5873417 C21.3577637,36.0435259 21.2939146,36.6436108 20.9100829,37.0272412 L20.9100829,37.0272412 L19.216,38.722 L21.278,40.783 L22.9730293,39.0889951 C23.3244926,38.7385152 23.8561968,38.655723 24.2947457,38.8709638 L24.2947457,38.8709638 L24.4118349,38.9370779 C25.5477345,39.6753852 26.8089755,40.1999328 28.1332607,40.4848449 C28.66394,40.5988291 29.0430974,41.0677365 29.0434783,41.6108696 L29.0434783,41.6108696 L29.043,44 L31.953,44 L31.9539132,41.6105188 C31.9542646,41.109489 32.2773607,40.6714058 32.7443063,40.5173544 L32.7443063,40.5173544 L32.863936,40.4848868 C34.1885921,40.1998133 35.450062,39.6752584 36.5873417,38.9363436 C37.0435259,38.6415842 37.6436108,38.7054332 38.0270719,39.089096 L38.0270719,39.089096 L39.723,40.78 L41.783,38.721 L40.0887997,37.0267747 C39.7388709,36.6754753 39.6561462,36.1443909 39.8710075,35.7059882 L39.8710075,35.7059882 L39.937007,35.5889265 C40.6751514,34.45263 41.199709,33.1911535 41.4848449,31.8667393 C41.5988291,31.33606 42.0677365,30.9569026 42.6108696,30.9565217 L42.6108696,30.9565217 L45,30.956 L45,28.046 L42.6105188,28.0460868 C42.109489,28.0457354 41.6714058,27.7226393 41.5173612,27.2557255 L41.5173612,27.2557255 L41.4848954,27.1361044 C41.199709,25.8114551 40.6751514,24.5499787 39.9363436,23.4126583 C39.6415842,22.9564741 39.7054332,22.3563892 40.089096,21.9729281 L40.089096,21.9729281 L41.78,20.276 L39.721,18.217 L38.0267747,19.9112003 C37.6754753,20.2611291 37.1443909,20.3438538 36.7059616,20.1289752 L36.7059616,20.1289752 L36.5888918,20.0629705 C35.4526707,19.3247416 34.1912008,18.8001867 32.8667393,18.5151551 C32.33606,18.4011709 31.9569026,17.9322635 31.9565217,17.3891304 L31.9565217,17.3891304 L31.956,15 Z M30.5,23.5 C33.8137088,23.5 36.5,26.1862915 36.5,29.5006051 C36.4963263,32.8124563 33.8124566,35.4963259 30.5,35.5 C27.1862916,35.5 24.5,32.8137085 24.5,29.5 C24.5,26.1862915 27.1862916,23.5 30.5,23.5 Z M30.5,24.5 C27.7385763,24.5 25.5,26.7385762 25.5,29.5 C25.5,32.2614235 27.7385763,34.5 30.4993837,34.5 C33.2598787,34.4969379 35.4969382,32.2598784 35.5,29.5 C35.5,26.7385762 33.2614237,24.5 30.5,24.5 Z"/>
  </g>
</svg>
