<svg xmlns="http://www.w3.org/2000/svg" xmlns:xlink="http://www.w3.org/1999/xlink" width="62" height="62" viewBox="0 0 62 62">
  <defs>
    <linearGradient id="icon-6-7-b" x1="100%" x2="0%" y1="100%" y2="0%">
      <stop offset="0%" stop-color="#1E85E9"/>
      <stop offset="20.276%" stop-color="#8671F3"/>
      <stop offset="70.727%" stop-color="#C06CFD" stop-opacity=".99"/>
      <stop offset="100%" stop-color="#FFBEE8"/>
    </linearGradient>
    <rect id="icon-6-7-a" width="60" height="60" x="0" y="0" rx="4"/>
    <linearGradient id="icon-6-7-c" x1="77.632%" x2="21.063%" y1="126.552%" y2="-2.01%">
      <stop offset="0%" stop-color="#1E85E9"/>
      <stop offset="20.276%" stop-color="#8671F3"/>
      <stop offset="70.727%" stop-color="#C06CFD" stop-opacity=".99"/>
      <stop offset="100%" stop-color="#FFBEE8"/>
    </linearGradient>
  </defs>
  <g fill="none" fill-rule="evenodd" transform="translate(1 1)">
    <g opacity=".062">
      <use fill="#FAFAFA" xlink:href="#icon-6-7-a"/>
      <use fill="url(#icon-6-7-b)" stroke="#000" stroke-opacity=".02" xlink:href="#icon-6-7-a"/>
    </g>
    <path fill="url(#icon-6-7-c)" fill-rule="nonzero" d="M27.280587,10 C24.6681565,10 23.0904224,11.7034834 23.0904224,14.1597135 L23.0960805,14.3488457 L23.1150305,14.5535722 C23.2324356,15.5049211 23.7519182,16.3965628 24.5250643,17.0973616 L24.7082439,17.256092 L24.7082439,17.4899454 L15,17.4901686 L15,27.6643199 L16.7482378,27.6648442 L16.9905123,27.3600498 C17.6640435,26.5456716 18.5550609,26.0466444 19.4446214,26.0466444 C21.4564635,26.0466444 22.7750699,27.2679108 22.7750699,29.4075381 C22.7750699,31.5471654 21.4564635,32.7684318 19.4446214,32.7684318 C18.5046935,32.7684318 17.5621848,32.2092487 16.8778561,31.3134306 L16.7534813,31.1506182 L15,31.1496201 L15,44 L27.6952637,43.999337 L27.6952798,42.5365958 L27.390543,42.2943674 C26.5761641,41.6208367 26.0771366,40.72982 26.0771366,39.8402602 C26.0771366,37.8284196 27.298404,36.5098143 29.4380329,36.5098143 C31.5776619,36.5098143 32.7989292,37.8284196 32.7989292,39.8402602 L32.7926045,40.0195048 C32.733345,40.8892637 32.1844265,41.7649545 31.3439269,42.4070235 L31.1810738,42.5314293 L31.180529,43.9993322 L41.7186345,44 L41.7173659,31.9921781 L41.8375942,32.1287958 C42.6473927,33.0161226 43.707525,33.5672517 44.8098354,33.5672517 C47.2828797,33.5672517 49,32.0024374 49,29.4075381 C49,26.8126389 47.2828797,25.2478246 44.8098354,25.2478246 L44.6194758,25.2534324 L44.4136095,25.2721898 C43.4568918,25.3884291 42.5592132,25.9030442 41.8531661,26.6694085 L41.7173659,26.8216943 L41.7186387,17.4901669 L29.8513659,17.4899454 L29.8521951,17.2552627 L30.0192943,17.1126324 C30.9143989,16.3088432 31.4707515,15.2558027 31.4707515,14.1597135 C31.4707515,11.7034834 29.8930174,10 27.280587,10 Z M27.314201,10.9444444 C29.4385904,10.9444444 30.6511593,12.253659 30.6511593,14.2511718 C30.6511593,15.184475 30.0958723,16.1203424 29.2063299,16.7998007 L29.0446432,16.9233017 L29.0439294,18.381041 L40.8256154,18.3810484 L40.8255967,27.6767196 L42.0212719,27.676963 L42.1449165,27.5177244 C42.7915859,26.684896 43.6750701,26.1426231 44.5671573,26.0882935 L44.7311353,26.083487 C46.7354845,26.083678 48.0555556,27.2866616 48.0555556,29.3904053 C48.0555556,31.494149 46.7354845,32.6971326 44.7185973,32.6971326 C43.77488,32.6971326 42.8300864,32.145598 42.1447682,31.2628951 L42.0213887,31.10398 L40.8256008,31.102198 L40.8256154,43.0555556 L32.009057,43.0547322 L32.0098803,42.8225442 L32.1904263,42.6671523 C33.0084435,41.9264669 33.541083,40.9715311 33.6091393,39.9686384 L33.6163636,39.7627977 C33.6166007,37.3100907 32.050104,35.6187391 29.4562805,35.6187391 C26.8624571,35.6187391 25.2959604,37.3100907 25.2959604,39.7488282 L25.3023307,39.9517184 C25.3657824,40.9631703 25.8994748,41.9260214 26.7339923,42.6775501 L26.902567,42.8225442 L26.902567,43.0547322 L15.9444444,43.0555556 L15.9444444,31.9434644 L16.4598689,31.9442877 L16.6023274,32.1097938 C17.4003762,32.9984177 18.4458434,33.5507254 19.5340472,33.5507254 C21.9727847,33.5507254 23.6641363,31.9842287 23.6641363,29.3904053 C23.6641363,26.7965819 21.9727847,25.2300852 19.5340472,25.2300852 L19.331157,25.2364555 C18.3197052,25.2999072 17.3568541,25.8335995 16.6053254,26.6681171 L16.4598689,26.836151 L15.9444444,26.836151 L15.9444444,18.3810484 L25.5833863,18.3810394 L25.5839352,16.9234364 L25.4220721,16.7998007 C24.5826312,16.1586114 24.0364992,15.2832661 23.981877,14.4007816 L23.9770455,14.2384292 C23.9772427,12.253659 25.1898116,10.9444444 27.314201,10.9444444 Z"/>
  </g>
</svg>
