<svg xmlns="http://www.w3.org/2000/svg" xmlns:xlink="http://www.w3.org/1999/xlink" width="62" height="62" viewBox="0 0 62 62">
  <defs>
    <linearGradient id="icon-4-5-b" x1="100%" x2="0%" y1="100%" y2="0%">
      <stop offset="0%" stop-color="#1E85E9"/>
      <stop offset="20.276%" stop-color="#8671F3"/>
      <stop offset="70.727%" stop-color="#C06CFD" stop-opacity=".99"/>
      <stop offset="100%" stop-color="#FFBEE8"/>
    </linearGradient>
    <rect id="icon-4-5-a" width="60" height="60" x="0" y="0" rx="4"/>
  </defs>
  <g fill="none" fill-rule="evenodd" transform="translate(1 1)">
    <g opacity=".062">
      <use fill="#FAFAFA" xlink:href="#icon-4-5-a"/>
      <use fill="url(#icon-4-5-b)" stroke="#000" stroke-opacity=".02" xlink:href="#icon-4-5-a"/>
    </g>
    <path fill="url(#icon-4-5-b)" fill-rule="nonzero" d="M11.475,41.4 L11.5603819,41.4076529 C11.7819686,41.447872 11.95,41.6418131 11.95,41.875 L11.95,41.875 L11.95,48.05 L18.125,48.05 L18.2103819,48.0576529 C18.4319686,48.097872 18.6,48.2918131 18.6,48.525 C18.6,48.7873353 18.3873353,49 18.125,49 L18.125,49 L11.475,49 L11.3896181,48.9923471 C11.1680314,48.952128 11,48.7581869 11,48.525 L11,48.525 L11,41.875 L11.0076529,41.7896181 C11.047872,41.5680314 11.2418131,41.4 11.475,41.4 L11.475,41.4 Z M48.525,41.4 C48.7581869,41.4 48.952128,41.5680314 48.9923471,41.7896181 L49,41.875 L49,48.525 C49,48.7581869 48.8319686,48.952128 48.6103819,48.9923471 L48.525,49 L41.875,49 C41.6126647,49 41.4,48.7873353 41.4,48.525 C41.4,48.2918131 41.5680314,48.097872 41.7896181,48.0576529 L41.875,48.05 L48.05,48.05 L48.05,41.875 C48.05,41.6418131 48.2180314,41.447872 48.4396181,41.4076529 L48.525,41.4 Z M30.3183775,17.371108 C30.4197888,17.3356886 30.5302112,17.3356886 30.6316225,17.371108 L30.6316225,17.371108 L43.9316225,22.0163238 C44.1222903,22.0829173 44.25,22.2627967 44.25,22.4647593 L44.25,22.4647593 L44.25,37.125 C44.25,37.3040166 44.1493531,37.467829 43.9896593,37.5487291 L43.9896593,37.5487291 L30.750194,44.2557848 C30.615798,44.3238692 30.4570718,44.3241597 30.3224276,44.2565676 L30.3224276,44.2565676 L16.9618929,37.5495119 C16.8013447,37.4689159 16.7,37.3046425 16.7,37.125 L16.7,37.125 L16.7,22.4647593 C16.7,22.2627967 16.8277097,22.0829173 17.0183775,22.0163238 L17.0183775,22.0163238 Z M43.299,23.126 L30.95,27.3058 L30.95,43.088 L43.3,36.8324 L43.299,23.126 Z M17.65,23.126 L17.65,36.8324 L30,43.031 L30,27.3058 L17.65,23.126 Z M30.475,18.32165 L18.635,22.457 L30.475,26.4641 L42.314,22.457 L30.475,18.32165 Z M18.125,11 C18.3873353,11 18.6,11.2126647 18.6,11.475 C18.6,11.7081869 18.4319686,11.902128 18.2103819,11.9423471 L18.125,11.95 L11.95,11.95 L11.95,18.125 C11.95,18.3581869 11.7819686,18.552128 11.5603819,18.5923471 L11.475,18.6 C11.2418131,18.6 11.047872,18.4319686 11.0076529,18.2103819 L11,18.125 L11,11.475 C11,11.2418131 11.1680314,11.047872 11.3896181,11.0076529 L11.475,11 L18.125,11 Z M48.525,11 L48.6103819,11.0076529 C48.8319686,11.047872 49,11.2418131 49,11.475 L49,11.475 L49,18.125 L48.9923471,18.2103819 C48.952128,18.4319686 48.7581869,18.6 48.525,18.6 L48.525,18.6 L48.4396181,18.5923471 C48.2180314,18.552128 48.05,18.3581869 48.05,18.125 L48.05,18.125 L48.05,11.95 L41.875,11.95 L41.7896181,11.9423471 C41.5680314,11.902128 41.4,11.7081869 41.4,11.475 C41.4,11.2126647 41.6126647,11 41.875,11 L41.875,11 L48.525,11 Z"/>
  </g>
</svg>
