<svg xmlns="http://www.w3.org/2000/svg" width="43" height="35" viewBox="0 0 43 35">
  <defs>
    <linearGradient id="icon-24-2-a" x1="100%" x2="0%" y1="83.128%" y2="16.872%">
      <stop offset="0%" stop-color="#1E85E9"/>
      <stop offset="20.276%" stop-color="#8671F3"/>
      <stop offset="70.727%" stop-color="#C06CFD" stop-opacity=".99"/>
      <stop offset="100%" stop-color="#FFBEE8"/>
    </linearGradient>
  </defs>
  <path fill="url(#icon-24-2-a)" d="M567.5,3676 C568.825483,3676 569.910039,3677.03154 569.994682,3678.33562 L570,3678.5 L570,3702.5 C570,3703.82548 568.968464,3704.91004 567.664376,3704.99468 L567.5,3705 L565.658,3705 L565.569339,3705.12109 C565.538065,3705.16714 565.50894,3705.21401 565.482018,3705.26163 L565.407921,3705.40675 L565.341502,3705.53608 C565.250493,3705.69517 565.134382,3705.83496 564.999819,3705.95162 L565,3710.5 C565,3710.87082 564.616238,3711.10269 564.295375,3710.95657 L564.22265,3710.91603 L561.5,3709.101 L558.77735,3710.91603 C558.468807,3711.12172 558.063006,3710.93103 558.006609,3710.583 L558,3710.5 L557.998991,3705.95064 C557.87197,3705.8403 557.761454,3705.70929 557.673026,3705.56084 L557.592168,3705.40671 L557.537391,3705.29681 C557.497977,3705.22388 557.452423,3705.15113 557.398651,3705.07572 L557.341,3705 L529.5,3705 C528.174517,3705 527.089961,3703.96846 527.005318,3702.66438 L527,3702.5 L527,3678.5 C527,3677.17452 528.031536,3676.08996 529.335624,3676.00532 L529.5,3676 L567.5,3676 Z M563.61404,3706.32893 C563.252139,3706.32736 562.895898,3706.42275 562.583431,3706.60499 L562.431021,3706.7033 L562.304458,3706.78456 C562.174454,3706.85962 562.034291,3706.91594 561.885426,3706.95276 L561.733714,3706.98304 L561.579234,3706.99809 L561.423355,3706.99829 L561.423355,3706.99829 L561.269917,3706.98349 L561.107669,3706.9517 C560.963393,3706.91547 560.82452,3706.85933 560.694969,3706.78438 L560.56867,3706.7032 L560.41781,3706.60573 C560.108487,3706.42482 559.755572,3706.3288 559.395523,3706.3288 L559.300381,3706.33106 L559.300381,3706.33106 L559.204722,3706.33783 L559.059449,3706.34497 L558.999394,3706.34408 L558.999394,3706.34408 L559,3709.564 L561.22265,3708.08397 C561.362608,3707.99067 561.537879,3707.97512 561.689608,3708.03732 L561.77735,3708.08397 L564,3709.565 L563.999846,3706.34418 L563.89794,3706.34428 L563.89794,3706.34428 L563.795286,3706.33784 L563.61404,3706.32893 Z M561.148231,3695.11206 C560.556779,3695.53256 559.833831,3695.72632 559.110391,3695.65808 C558.854412,3695.63373 558.608585,3695.77557 558.501377,3696.00979 C558.199392,3696.6698 557.669712,3697.19951 557.009753,3697.5015 C556.77527,3697.60881 556.633731,3697.85398 556.658056,3698.11086 C556.726401,3698.83349 556.532538,3699.55707 556.112078,3700.14837 C555.962625,3700.35864 555.96264,3700.64169 556.112149,3700.85196 C556.532567,3701.44336 556.726396,3702.16692 556.65805,3702.88957 C556.633726,3703.14643 556.775221,3703.39155 557.009697,3703.49884 C557.336042,3703.64815 557.632213,3703.8551 557.880944,3704.10314 L558.024352,3704.25676 L558.064925,3704.30184 L558.223316,3704.50926 C558.331398,3704.6619 558.424587,3704.82261 558.501461,3704.99055 C558.503218,3704.99439 558.505013,3704.99821 558.506844,3705.002 C558.719109,3705 558.9053,3705.14094 558.972864,3705.3371 C559.016548,3705.34557 559.063516,3705.34671 559.110917,3705.34224 C559.205964,3705.3333 559.300908,3705.3288 559.395523,3705.3288 C560.023021,3705.3288 560.635951,3705.52402 561.148104,3705.88819 C561.199593,3705.92479 561.255969,3705.95278 561.313688,3705.97139 L561.400832,3705.99217 L561.499061,3706.00018 L561.596,3705.992 L561.684191,3705.97172 L561.728213,3705.95586 L561.728213,3705.95586 L561.770935,3705.93661 L561.851797,3705.88813 C562.443103,3705.46798 563.16684,3705.27421 563.889422,3705.34228 C563.936686,3705.34677 563.98356,3705.34563 564.029255,3705.33931 C564.085238,3705.16841 564.231071,3705.04055 564.410124,3705.00806 L564.492007,3705.001 L564.498605,3704.99064 C564.575211,3704.82315 564.668138,3704.66279 564.773101,3704.51404 L564.881917,3704.36934 L564.913859,3704.32809 L565.115725,3704.10713 C565.36907,3703.85424 565.664554,3703.64785 565.990063,3703.49887 C566.224726,3703.39147 566.366282,3703.1463 566.341957,3702.88942 C566.273615,3702.16693 566.467441,3701.44339 566.887887,3700.85183 C567.037371,3700.64159 567.037371,3700.35858 566.887889,3700.14834 C566.46745,3699.55703 566.273617,3698.83345 566.341962,3698.11069 C566.366279,3697.85396 566.22472,3697.60878 565.990224,3697.50143 C565.330313,3697.19952 564.800623,3696.66981 564.498646,3696.00981 C564.391253,3695.77513 564.146325,3695.63367 563.888842,3695.65814 C563.238062,3695.71914 562.587477,3695.56842 562.032897,3695.23132 L561.851724,3695.11209 L561.769736,3695.06303 C561.571907,3694.96497 561.332209,3694.98132 561.148231,3695.11206 Z M567.5,3677 L529.5,3677 C528.720304,3677 528.079551,3677.59489 528.006867,3678.35554 L528,3678.5 L528,3702.5 C528,3703.2797 528.594888,3703.92045 529.35554,3703.99313 L529.5,3704 L556.047701,3703.99896 C555.797192,3703.70942 555.653702,3703.3346 555.65533,3702.94056 L555.662499,3702.79535 L555.671473,3702.6141 C555.673153,3702.25221 555.577781,3701.89619 555.39548,3701.58379 L555.297132,3701.4314 L555.212748,3701.29962 C555.157979,3701.20415 555.113785,3701.10438 555.080165,3701.00195 L534.5,3701 C534.223858,3701 534,3700.77614 534,3700.5 C534,3699.11929 532.880712,3698 531.5,3698 C531.25454,3698 531.050392,3697.82312 531.008056,3697.58988 L531,3697.5 L531,3683.5 C531,3683.22386 531.223858,3683 531.5,3683 C532.880712,3683 534,3681.88071 534,3680.5 C534,3680.25454 534.176875,3680.05039 534.410124,3680.00806 L534.5,3680 L562.5,3680 C562.776142,3680 563,3680.22386 563,3680.5 C563,3681.88071 564.119288,3683 565.5,3683 C565.74546,3683 565.949608,3683.17688 565.991944,3683.41012 L566,3683.5 L565.999418,3696.34422 C566.076859,3696.40497 566.158888,3696.4602 566.244936,3696.50933 L566.406357,3696.59213 L566.535689,3696.65854 C567.037309,3696.94547 567.347062,3697.48196 567.344681,3698.05973 L567.337514,3698.20491 L567.328539,3698.3862 C567.326858,3698.74813 567.422227,3699.10415 567.60453,3699.41651 L567.702879,3699.56887 L567.787269,3699.70066 C568.070911,3700.19506 568.070914,3700.80511 567.787308,3701.29946 L567.70293,3701.43124 L567.604567,3701.58367 C567.422238,3701.89615 567.32686,3702.25218 567.328536,3702.61399 L567.337508,3702.7952 L567.344676,3702.94042 C567.346303,3703.33541 567.202103,3703.71107 566.950467,3704.00091 L567.5,3704 C568.279696,3704 568.920449,3703.40511 568.993133,3702.64446 L569,3702.5 L569,3678.5 C569,3677.67157 568.328427,3677 567.5,3677 Z M561.5,3697 C563.432997,3697 565,3698.567 565,3700.5 C565,3702.433 563.432997,3704 561.5,3704 C559.567003,3704 558,3702.433 558,3700.5 C558,3698.567 559.567003,3697 561.5,3697 Z M561.5,3698 C560.119288,3698 559,3699.11929 559,3700.5 C559,3701.88071 560.119288,3703 561.5,3703 C562.880712,3703 564,3701.88071 564,3700.5 C564,3699.11929 562.880712,3698 561.5,3698 Z M562.045809,3681.06772 L562.036,3681 L534.963,3681 L534.954191,3681.06772 C534.723562,3682.48168 533.645688,3683.611 532.258716,3683.91754 L532.067718,3683.95419 L532,3683.963 L532,3697.036 L532.067718,3697.04581 C533.481678,3697.27644 534.611001,3698.35431 534.91754,3699.74128 L534.954191,3699.93228 L534.963,3700 L555.079511,3700.00033 C555.113195,3699.89724 555.157584,3699.79682 555.212677,3699.70076 L555.29705,3699.56895 L555.395422,3699.41656 C555.577766,3699.10417 555.673151,3698.74817 555.671477,3698.38631 L555.662504,3698.20507 L555.655336,3698.05986 C555.652953,3697.48198 555.96269,3696.94546 556.4643,3696.65859 L556.59363,3696.59219 L556.755056,3696.50938 C557.069232,3696.32996 557.329825,3696.06935 557.509252,3695.75512 L557.592073,3695.59366 L557.65848,3695.46435 C557.945438,3694.96279 558.482528,3694.65285 559.059688,3694.65533 L559.204691,3694.66253 L559.386102,3694.67149 C559.748211,3694.67314 560.103984,3694.57779 560.416428,3694.3954 L560.568868,3694.29699 L560.700672,3694.21264 C561.195094,3693.92911 561.805084,3693.92911 562.299379,3694.21269 L562.431144,3694.29706 L562.583476,3694.39537 C562.895743,3694.57759 563.251549,3694.6729 563.61354,3694.67142 L563.794878,3694.66257 L563.940143,3694.65535 C564.335346,3694.6536 564.711091,3694.79784 565.000946,3695.0496 L565,3683.963 L564.932282,3683.95419 C563.518322,3683.72356 562.388999,3682.64569 562.08246,3681.25872 L562.045809,3681.06772 Z M553.5,3693.5 C553.776142,3693.5 554,3693.72386 554,3694 C554,3694.24546 553.823125,3694.44961 553.589876,3694.49194 L553.5,3694.5 L543.5,3694.5 C543.223858,3694.5 543,3694.27614 543,3694 C543,3693.75454 543.176875,3693.55039 543.410124,3693.50806 L543.5,3693.5 L553.5,3693.5 Z M558.5,3689.5 C558.776142,3689.5 559,3689.72386 559,3690 C559,3690.24546 558.823125,3690.44961 558.589876,3690.49194 L558.5,3690.5 L538.5,3690.5 C538.223858,3690.5 538,3690.27614 538,3690 C538,3689.75454 538.176875,3689.55039 538.410124,3689.50806 L538.5,3689.5 L558.5,3689.5 Z M556.5,3685.5 C556.776142,3685.5 557,3685.72386 557,3686 C557,3686.24546 556.823125,3686.44961 556.589876,3686.49194 L556.5,3686.5 L540.5,3686.5 C540.223858,3686.5 540,3686.27614 540,3686 C540,3685.75454 540.176875,3685.55039 540.410124,3685.50806 L540.5,3685.5 L556.5,3685.5 Z" transform="translate(-527 -3676)"/>
</svg>
