<svg xmlns="http://www.w3.org/2000/svg" width="50" height="44" viewBox="0 0 50 44">
  <defs>
    <linearGradient id="ico-advantages-5-a" x1="100%" x2="0%" y1="88.72%" y2="11.28%">
      <stop offset="0%" stop-color="#1E85E9"/>
      <stop offset="20.276%" stop-color="#8671F3"/>
      <stop offset="70.727%" stop-color="#C06CFD" stop-opacity=".99"/>
      <stop offset="100%" stop-color="#FFBEE8"/>
    </linearGradient>
  </defs>
  <path fill="url(#ico-advantages-5-a)" d="M45.1219512,1.77635684e-14 C47.8160232,1.77635684e-14 50,2.18883011 50,4.88888889 L50,33 C50,35.7000588 47.8160232,37.8888889 45.1219512,37.8888889 L33.042,37.888 L35.3658537,44 L15.8536585,44 L18.176,37.888 L4.87804878,37.8888889 C2.18397683,37.8888889 0,35.7000588 0,33 L0,4.88888889 C0,2.18883011 2.18397683,1.77635684e-14 4.87804878,1.77635684e-14 L45.1219512,1.77635684e-14 Z M31.7378049,37.8888889 L19.4804878,37.8888889 L17.6219512,42.7777778 L33.5963415,42.7777778 L31.7378049,37.8888889 Z M48.78,28.111 L1.219,28.111 L1.2195122,33 C1.2195122,34.9527211 2.74258532,36.5489189 4.66308197,36.6604423 L4.87804878,36.6666667 L45.1219512,36.6666667 C47.0703425,36.6666667 48.6630011,35.1402089 48.7742772,33.2154445 L48.7804878,33 L48.78,28.111 Z M25,30.5555556 C26.010277,30.5555556 26.8292683,31.3763668 26.8292683,32.3888889 C26.8292683,33.4014109 26.010277,34.2222222 25,34.2222222 C23.989723,34.2222222 23.1707317,33.4014109 23.1707317,32.3888889 C23.1707317,31.3763668 23.989723,30.5555556 25,30.5555556 Z M25,31.7777778 C24.663241,31.7777778 24.3902439,32.0513815 24.3902439,32.3888889 C24.3902439,32.7263962 24.663241,33 25,33 C25.336759,33 25.6097561,32.7263962 25.6097561,32.3888889 C25.6097561,32.0513815 25.336759,31.7777778 25,31.7777778 Z M45.1219512,1.22222222 L4.87804878,1.22222222 C2.92965746,1.22222222 1.33699893,2.74867996 1.2257228,4.67344437 L1.2195122,4.88888889 L1.219,26.888 L48.78,26.888 L48.7804878,4.88888889 C48.7804878,2.93616781 47.2574147,1.33997004 45.336918,1.22844663 L45.1219512,1.22222222 Z M29.6049876,6.00890809 L30.5004812,6.45398254 L22.2055593,23.1434357 L21.3100657,22.6983612 L29.6049876,6.00890809 Z M17.5001051,8.14644661 L18.2072119,8.85355339 L11.922,15.138 L18.2072119,21.4239333 L17.5001051,22.1310401 L10.5078084,15.1387433 L17.5001051,8.14644661 Z M34.2149152,8.14644661 L41.2072119,15.1387433 L34.2149152,22.1310401 L33.5078084,21.4239333 L39.7930204,15.138 L33.5078084,8.85355339 L34.2149152,8.14644661 Z"/>
</svg>
