<svg xmlns="http://www.w3.org/2000/svg" width="67" height="71" viewBox="0 0 67 71">
  <defs>
    <linearGradient id="ico-documentation-4-a" x1="95.043%" x2="4.957%" y1="100%" y2="0%">
      <stop offset="0%" stop-color="#1E85E9"/>
      <stop offset="20.276%" stop-color="#8671F3"/>
      <stop offset="70.727%" stop-color="#C06CFD" stop-opacity=".99"/>
      <stop offset="100%" stop-color="#FFBEE8"/>
    </linearGradient>
  </defs>
  <path fill="url(#ico-documentation-4-a)" d="M71.6494271,269.339949 C73.8108728,274.049385 78.5680069,277.32 84.0890341,277.32 C89.6100613,277.32 94.3671954,274.049385 96.5286411,269.339949 L97.0604605,269.339949 C105.142389,269.339949 111.874729,275.535858 112.544328,283.59 L112.702168,285.488796 C114.899132,284.729756 117.433938,285.227276 119.188018,286.981356 C121.556711,289.350049 121.642206,293.15915 119.37854,295.64913 L119.37854,295.64913 L119.187941,295.848552 L112.469,302.565 L112.488285,302.587675 L110.390446,304.613535 L108.333703,302.483715 L108.349,302.468 L103.721,297.84 L61.98,297.84 C57.5727677,297.84 54,294.267232 54,289.86 C54,289.639331 54.0091532,289.418756 54.027436,289.198846 L54.49374,283.59 C55.1633392,275.535858 61.8956796,269.339949 69.9776077,269.339949 L71.6494271,269.339949 Z M118.381916,287.787458 C116.800581,286.206123 114.443718,285.872983 112.535621,286.788037 C112.477716,286.815805 112.420196,286.844739 112.363124,286.874822 L112.535621,286.788037 C112.419631,286.843661 112.305299,286.903898 112.192901,286.968748 C112.148185,286.994546 112.103693,287.021125 112.059525,287.048437 L112.192901,286.968748 C112.126615,287.006992 112.061002,287.04684 111.996117,287.088293 L112.059525,287.048437 C111.978623,287.098463 111.898811,287.150948 111.820194,287.205892 L111.996117,287.088293 C111.922119,287.135568 111.849069,287.184929 111.777051,287.236376 L111.820194,287.205892 C111.747039,287.257017 111.67492,287.310271 111.603923,287.365654 L111.777051,287.236376 C111.69923,287.291969 111.622614,287.349997 111.547308,287.410462 L111.603923,287.365654 C111.515278,287.434804 111.428381,287.507272 111.343401,287.583058 L111.141,287.774 L111.127001,287.787458 L110.45895,288.454916 L109.791407,287.787458 C108.789713,286.785763 107.476831,286.284916 106.16395,286.284916 L105.932328,286.290115 C104.697688,286.345572 103.479263,286.844686 102.536492,287.787458 C100.533102,289.790847 100.533102,293.038984 102.536492,295.042373 L102.536492,295.042373 L109.97395,302.479916 L109.943436,302.509548 L110.418583,303.001577 L110.910611,302.526431 L110.90395,302.518916 L118.381916,295.042373 L118.553487,294.862437 C120.383573,292.848994 120.326383,289.731924 118.381916,287.787458 Z M103.472261,285.750187 C103.514485,285.730125 103.556886,285.710561 103.599457,285.691496 C103.646029,285.670638 103.692938,285.650321 103.740038,285.630604 C103.771537,285.617419 103.802908,285.604588 103.83436,285.592023 C103.863699,285.580299 103.893368,285.568708 103.923105,285.557351 C103.974942,285.537554 104.026989,285.51847 104.07923,285.500098 C104.100277,285.492698 104.120942,285.485555 104.141637,285.478522 C104.20139,285.458212 104.2618,285.438702 104.322436,285.420133 C104.33718,285.415619 104.351477,285.411298 104.365785,285.407029 C104.425717,285.389143 104.486337,285.372047 104.547152,285.35588 C104.586002,285.345554 104.624674,285.33567 104.66342,285.32616 C104.694593,285.318507 104.726277,285.310989 104.758007,285.303721 C104.802204,285.293602 104.845832,285.284103 104.889538,285.275073 C104.935079,285.265661 104.98112,285.256683 105.027238,285.248225 C105.059781,285.242255 105.09245,285.23653 105.125155,285.231065 C105.164087,285.224558 105.203087,285.218418 105.24213,285.212646 C105.296686,285.204584 105.351023,285.197279 105.405431,285.190686 C105.427115,285.188057 105.449152,285.185504 105.471198,285.183067 C105.527638,285.176831 105.583997,285.171371 105.640407,285.166673 C105.66875,285.164314 105.696765,285.16217 105.724791,285.160214 C105.769903,285.157064 105.815277,285.154388 105.860671,285.152204 C105.910769,285.14979 105.961136,285.147969 106.011516,285.146751 C106.030269,285.146298 106.048935,285.14593 106.067602,285.145645 C106.131715,285.144667 106.195773,285.144664 106.259818,285.145637 C106.283285,285.145993 106.30695,285.146485 106.330613,285.14711 C106.373056,285.148232 106.415388,285.149778 106.457704,285.151751 C106.509954,285.154185 106.562327,285.15728 106.614661,285.161028 C106.640952,285.162913 106.666963,285.164939 106.692964,285.167128 C106.743193,285.171354 106.79355,285.176202 106.843854,285.181657 C106.876515,285.185198 106.909177,285.188999 106.941814,285.193056 C106.989703,285.199009 107.037624,285.205526 107.08548,285.212598 C107.123128,285.218163 107.16046,285.224025 107.197747,285.230225 C107.236294,285.236632 107.275244,285.243484 107.314139,285.250705 C107.351702,285.257682 107.388739,285.264907 107.425722,285.272468 C107.476107,285.282766 107.526828,285.293788 107.577433,285.305445 C107.615953,285.314321 107.653972,285.323457 107.69192,285.332952 C107.719016,285.339731 107.746337,285.346762 107.773619,285.35398 C107.826189,285.36789 107.878478,285.382455 107.930608,285.39771 C107.964739,285.407696 107.999003,285.418041 108.033194,285.428686 C108.079226,285.443018 108.124995,285.457849 108.170622,285.47322 C108.191982,285.480414 108.213576,285.48782 108.235138,285.495346 L108.295526,285.516775 C108.326346,285.52789 108.357097,285.539255 108.387774,285.550868 C108.427225,285.565803 108.466555,285.581149 108.505759,285.596908 C108.533912,285.608223 108.562308,285.61988 108.590633,285.631753 C108.636163,285.65084 108.681367,285.670422 108.726382,285.690562 C108.756566,285.704067 108.786618,285.7178 108.816582,285.731783 C108.865646,285.754682 108.914293,285.778159 108.962692,285.802302 C109.076154,285.858886 109.188763,285.919415 109.299824,285.983633 C109.330343,286.001278 109.360916,286.019305 109.391366,286.037613 C109.499524,286.102639 109.606196,286.171255 109.711159,286.243428 C109.742248,286.264803 109.773284,286.28656 109.804164,286.308631 L109.820298,286.3202 C110.092537,286.516083 110.352605,286.736451 110.597458,286.981305 L110.459,286.848 L110.507348,286.802303 C110.520162,286.790487 110.533014,286.778735 110.545902,286.767046 L110.58464,286.732245 L110.641743,286.681873 C110.683758,286.64529 110.726144,286.60936 110.768887,286.574083 L110.58464,286.732245 C110.670968,286.655257 110.759154,286.580866 110.849098,286.509115 C110.909656,286.460653 110.970914,286.413599 111.032823,286.367829 C111.049934,286.355379 111.066594,286.343197 111.083307,286.331102 C111.238519,286.218512 111.398069,286.113908 111.561053,286.017324 L111.599,285.995 L111.408248,283.684451 C110.79677,276.329419 104.729045,270.646775 97.3851615,270.483605 L97.237,270.481 L97.1126934,270.718286 C94.6032981,275.331788 89.8000226,278.333018 84.4323982,278.456067 L84.0890341,278.46 C78.5834787,278.46 73.6281615,275.429948 71.0653748,270.718286 L70.939,270.479 L69.9776077,270.48 C62.5972013,270.48 56.4313752,276.056049 55.6603242,283.361061 L55.6298206,283.684451 L55.1635165,289.293296 C55.1478456,289.481791 55.14,289.670855 55.14,289.86 C55.14,293.558927 58.0761026,296.572091 61.7448508,296.696034 L61.98,296.7 L102.582,296.7 L101.711438,295.829067 L101.62728,295.742959 C101.585629,295.699339 101.544728,295.655266 101.504578,295.610756 L101.521324,295.629211 C101.435756,295.535071 101.353574,295.438985 101.274775,295.341109 C101.034522,295.042765 100.825586,294.727395 100.648013,294.399538 L100.63197,294.369973 C100.488446,294.101647 100.3659,293.825191 100.264293,293.542991 C100.253703,293.512822 100.243257,293.483089 100.233041,293.453293 C100.189567,293.327337 100.150406,293.199949 100.115401,293.071681 C100.107599,293.042064 100.099715,293.012317 100.092054,292.982525 C100.036942,292.769226 99.9935856,292.554047 99.9615854,292.33755 C99.9345197,292.153113 99.9154724,291.967813 99.9046453,291.782123 L99.9032268,291.759008 C99.8877858,291.475229 99.8915499,291.190655 99.9144831,290.907394 C99.943915,290.54156 100.00548,290.177584 100.099074,289.820258 L100.102911,289.806837 C100.115221,289.760284 100.128074,289.713847 100.14147,289.667535 C100.403127,288.761603 100.873174,287.903283 101.551337,287.167805 L101.551337,287.167805 L101.73039,286.981356 C101.791605,286.920141 101.85377,286.860457 101.916839,286.802303 L101.73039,286.981356 C101.889775,286.821971 102.055606,286.672961 102.227045,286.534325 C102.324463,286.455549 102.423619,286.380174 102.52443,286.308145 C102.549153,286.290477 102.574373,286.272735 102.599694,286.255201 C102.644751,286.224006 102.689609,286.193807 102.734764,286.164251 C102.750911,286.15368 102.767481,286.142944 102.784091,286.132295 C102.84031,286.096254 102.896649,286.061397 102.953408,286.027515 C102.974432,286.014965 102.99565,286.002469 103.016925,285.990108 C103.063204,285.963222 103.109608,285.937058 103.156267,285.911531 C103.1942,285.890777 103.232429,285.870378 103.270822,285.850404 C103.309807,285.830124 103.348597,285.810461 103.387545,285.791228 L103.38707,285.791462 Z M84.0890341,234 C92.2738941,234 98.9090341,240.525791 98.9090341,250.103847 C98.9090341,259.681903 91.0899323,271.62 84.0890341,271.62 C77.088136,271.62 69.2690341,259.681903 69.2690341,250.103847 C69.2690341,240.525791 75.9041741,234 84.0890341,234 Z M84.0890341,235.14 C76.323745,235.14 70.4090341,241.378494 70.4090341,250.103847 C70.4090341,259.316992 77.9632454,270.48 84.0890341,270.48 C90.2148228,270.48 97.7690341,259.316992 97.7690341,250.103847 C97.7690341,241.378494 91.8543232,235.14 84.0890341,235.14 Z" transform="translate(-54 -234)"/>
</svg>
