<svg xmlns="http://www.w3.org/2000/svg" xmlns:xlink="http://www.w3.org/1999/xlink" width="62" height="62" viewBox="0 0 62 62">
  <defs>
    <linearGradient id="icon-9-5-b" x1="100%" x2="0%" y1="100%" y2="0%">
      <stop offset="0%" stop-color="#1E85E9"/>
      <stop offset="20.276%" stop-color="#8671F3"/>
      <stop offset="70.727%" stop-color="#C06CFD" stop-opacity=".99"/>
      <stop offset="100%" stop-color="#FFBEE8"/>
    </linearGradient>
    <rect id="icon-9-5-a" width="60" height="60" x="0" y="0" rx="4"/>
    <linearGradient id="icon-9-5-c" x1="100%" x2="0%" y1="91.792%" y2="8.208%">
      <stop offset="0%" stop-color="#1E85E9"/>
      <stop offset="20.276%" stop-color="#8671F3"/>
      <stop offset="70.727%" stop-color="#C06CFD" stop-opacity=".99"/>
      <stop offset="100%" stop-color="#FFBEE8"/>
    </linearGradient>
  </defs>
  <g fill="none" fill-rule="evenodd" transform="translate(1 1)">
    <g opacity=".062">
      <use fill="#FAFAFA" xlink:href="#icon-9-5-a"/>
      <use fill="url(#icon-9-5-b)" stroke="#000" stroke-opacity=".02" xlink:href="#icon-9-5-a"/>
    </g>
    <path fill="url(#icon-9-5-c)" fill-rule="nonzero" d="M39,10.5 C39.8284271,10.5 40.5,11.1715729 40.5,12 L40.5,25.499 L50,25.5 C50.7796961,25.5 51.4204487,26.0948881 51.4931334,26.85554 L51.5,27 L51.5,44 C51.5,44.8284271 50.8284271,45.5 49.9998575,45.5 L49.9998575,45.5 L46.734,45.498 L43.3709848,49.812607 L40,45.498 L29,45.5 C28.2203039,45.5 27.5795513,44.9051119 27.5068666,44.14446 L27.5068666,44.14446 L27.5,44 L27.5,36.499 L23.938,36.499 L19.2827571,42.4566732 L14.638,36.499 L10,36.5 C9.17157288,36.5 8.5,35.8284271 8.5,35 L8.5,12 C8.5,11.1715729 9.17157288,10.5 10,10.5 L39,10.5 Z M50,26.5 L40.5,26.499 L40.5,35 L40.4931334,35.14446 C40.4204487,35.9051119 39.7796961,36.5 39,36.5 L28.5,36.499 L28.5,44 C28.5,44.2454599 28.6768752,44.4496084 28.9100931,44.4919443 L28.9999555,44.5 L40.4878198,44.4989783 L43.369,48.187 L46.2458773,44.4989304 L50,44.5 C50.2761424,44.5 50.5,44.2761424 50.5,44 L50.5,44 L50.5,27 C50.5,26.7238576 50.2761424,26.5 50,26.5 L50,26.5 Z M39,11.5 L10,11.5 C9.72385763,11.5 9.5,11.7238576 9.5,12 L9.5,35 C9.5,35.2761424 9.72385763,35.5 10,35.5 L15.1261553,35.5 L19.284,40.831 L23.4501726,35.5 L27.5,35.499 L27.5,27 C27.5,26.2203039 28.0948881,25.5795513 28.85554,25.5068666 L29,25.5 L39.5,25.499 L39.5,12 C39.5,11.7238576 39.2761424,11.5 39,11.5 Z M39.5,26.499 L29,26.5 C28.7238576,26.5 28.5,26.7238576 28.5,27 L28.5,27 L28.5,35.499 L39,35.5 C39.2761424,35.5 39.5,35.2761424 39.5,35 L39.5,26.499 Z"/>
  </g>
</svg>
