<svg xmlns="http://www.w3.org/2000/svg" xmlns:xlink="http://www.w3.org/1999/xlink" width="62" height="62" viewBox="0 0 62 62">
  <defs>
    <linearGradient id="icon-12-4-b" x1="100%" x2="0%" y1="100%" y2="0%">
      <stop offset="0%" stop-color="#1E85E9"/>
      <stop offset="20.276%" stop-color="#8671F3"/>
      <stop offset="70.727%" stop-color="#C06CFD" stop-opacity=".99"/>
      <stop offset="100%" stop-color="#FFBEE8"/>
    </linearGradient>
    <rect id="icon-12-4-a" width="60" height="60" x="0" y="0" rx="4"/>
    <linearGradient id="icon-12-4-c" x1="100%" x2="1.87%" y1="91.731%" y2="-1.772%">
      <stop offset="0%" stop-color="#1E85E9"/>
      <stop offset="20.276%" stop-color="#8671F3"/>
      <stop offset="70.727%" stop-color="#C06CFD" stop-opacity=".99"/>
      <stop offset="100%" stop-color="#FFBEE8"/>
    </linearGradient>
  </defs>
  <g fill="none" fill-rule="evenodd" transform="translate(1 1)">
    <g opacity=".062">
      <use fill="#FAFAFA" xlink:href="#icon-12-4-a"/>
      <use fill="url(#icon-12-4-b)" stroke="#000" stroke-opacity=".02" xlink:href="#icon-12-4-a"/>
    </g>
    <path fill="url(#icon-12-4-c)" fill-rule="nonzero" d="M43.5,15 C44.8807119,15 46,16.1089073 46,17.4768139 L46,17.4768139 L46,38.9897115 C46,40.357618 44.8807119,41.4665253 43.5,41.4665253 L43.5,41.4665253 L28.485,41.4662423 L24.7462034,46 L21.007,41.4662423 L17.5,41.4665253 C16.1745166,41.4665253 15.0899613,40.4445563 15.0053177,39.1525627 L15.0053177,39.1525627 L15,38.9897115 L15,17.4768139 C15,16.1089073 16.1192881,15 17.5,15 L17.5,15 Z M43.5,15.9907255 L17.5,15.9907255 C16.6715729,15.9907255 16,16.65607 16,17.4768139 L16,17.4768139 L16,38.9897115 C16,39.8104554 16.6715729,40.4757998 17.5,40.4757998 L17.5,40.4757998 L21.4813324,40.4757998 L24.746,44.4334653 L28.0110743,40.4757998 L43.5,40.4757998 C44.3284271,40.4757998 45,39.8104554 45,38.9897115 L45,38.9897115 L45,17.4768139 C45,16.65607 44.3284271,15.9907255 43.5,15.9907255 L43.5,15.9907255 Z M29.9642857,28.7993916 C30.2404281,28.7993916 30.4642857,29.021173 30.4642857,29.2947543 C30.4642857,29.5379377 30.2874106,29.7401928 30.0541613,29.7821361 L29.9642857,29.7901171 L19.25,29.7901171 C18.9738576,29.7901171 18.75,29.5683356 18.75,29.2947543 C18.75,29.0515709 18.9268752,28.8493158 19.1601244,28.8073725 L19.25,28.7993916 L29.9642857,28.7993916 Z M41.75,22.9611874 C42.0261424,22.9611874 42.25,23.1829689 42.25,23.4565502 C42.25,23.6997336 42.0731248,23.9019887 41.8398756,23.943932 L41.75,23.951913 L19.25,23.951913 C18.9738576,23.951913 18.75,23.7301315 18.75,23.4565502 C18.75,23.2133668 18.9268752,23.0111117 19.1601244,22.9691684 L19.25,22.9611874 L41.75,22.9611874 Z"/>
  </g>
</svg>
