<svg xmlns="http://www.w3.org/2000/svg" xmlns:xlink="http://www.w3.org/1999/xlink" width="62" height="62" viewBox="0 0 62 62">
  <defs>
    <linearGradient id="icon-12-3-b" x1="100%" x2="0%" y1="100%" y2="0%">
      <stop offset="0%" stop-color="#1E85E9"/>
      <stop offset="20.276%" stop-color="#8671F3"/>
      <stop offset="70.727%" stop-color="#C06CFD" stop-opacity=".99"/>
      <stop offset="100%" stop-color="#FFBEE8"/>
    </linearGradient>
    <rect id="icon-12-3-a" width="60" height="60" x="0" y="0" rx="4"/>
    <linearGradient id="icon-12-3-c" x1="100%" x2="0%" y1="82.172%" y2="17.828%">
      <stop offset="0%" stop-color="#1E85E9"/>
      <stop offset="20.276%" stop-color="#8671F3"/>
      <stop offset="70.727%" stop-color="#C06CFD" stop-opacity=".99"/>
      <stop offset="100%" stop-color="#FFBEE8"/>
    </linearGradient>
  </defs>
  <g fill="none" fill-rule="evenodd" transform="translate(1 1)">
    <g opacity=".062">
      <use fill="#FAFAFA" xlink:href="#icon-12-3-a"/>
      <use fill="url(#icon-12-3-b)" stroke="#000" stroke-opacity=".02" xlink:href="#icon-12-3-a"/>
    </g>
    <path fill="url(#icon-12-3-c)" fill-rule="nonzero" d="M40.1730447,14.5880875 L40.2547957,14.6284008 L48.1747957,19.5784008 C48.4311599,19.7386284 48.4544657,20.0926141 48.2447132,20.2880705 L48.1747957,20.3415992 L40.2547957,25.2915992 C40.0440443,25.4233188 39.7664166,25.3592509 39.634697,25.1484995 C39.5194423,24.964092 39.5540875,24.7284824 39.7057366,24.5842194 L39.7777967,24.5284007 L46.4592059,20.3529398 L38.2498406,20.353352 C35.5573451,20.353352 33.0810212,21.8014226 31.7569822,24.1295705 L31.6241614,24.3735295 L28.3327125,30.6968525 C28.3570394,30.7235925 28.3785133,30.7537165 28.3963993,30.7870034 L28.3963993,30.7870034 L30.9954576,35.6240044 L31.1318309,35.8720332 C32.4409459,38.1554396 34.7565817,39.55 37.2544955,39.55 L37.2544955,39.55 L45.853,39.5499398 L39.3440187,35.8512643 L39.2772717,35.8050012 C39.1135745,35.6681683 39.0659339,35.4297797 39.1750675,35.2377046 C39.284201,35.0456296 39.5133739,34.9645214 39.7147169,35.0350976 L39.7886272,35.0687534 L47.7086271,39.5687534 L47.7838984,39.6219705 C47.987131,39.7989448 47.987131,40.121073 47.7838984,40.2980472 L47.7086271,40.3512643 L39.7886272,44.8512643 L39.7147169,44.8849201 C39.5385418,44.9466743 39.3410594,44.8922951 39.2213306,44.7490601 L39.1750675,44.6823131 L39.1414117,44.6084028 C39.0796575,44.4322277 39.1340367,44.2347454 39.2772717,44.1150166 L39.3440187,44.0687534 L45.712,40.4499398 L37.2544955,40.45 L36.972012,40.4447596 C34.1551074,40.3401712 31.5865201,38.676634 30.200935,36.0467575 L30.200935,36.0467575 L27.836,31.6469398 L25.1376393,36.83145 C23.7413643,39.5131155 21.0120789,41.2264557 18.0054773,41.3309207 L17.7136856,41.3359862 L11.0262059,41.3359862 C10.7776777,41.3359862 10.5762059,41.1345143 10.5762059,40.8859862 C10.5762059,40.6650723 10.7353935,40.4813387 10.9453178,40.4432363 L11.0262059,40.4359862 L17.7136856,40.4359862 C20.406181,40.4359862 22.8825049,38.9879156 24.206544,36.6597677 L24.3393647,36.4158087 L30.8258868,23.9578882 C32.2221618,21.2762227 34.9514473,19.5628825 37.9580489,19.4584175 L38.2498406,19.453352 L46.2772059,19.4529398 L39.7777967,15.3915992 C39.5933892,15.2763445 39.5212863,15.049379 39.5943838,14.8532515 L39.634697,14.7715005 C39.7499517,14.587093 39.9769172,14.51499 40.1730447,14.5880875 Z M18.1607316,18.55 L18.4294396,18.5551189 C21.1088968,18.657282 23.5498318,20.282189 24.8648152,22.8477131 L24.8648152,22.8477131 L27.4004603,27.7947403 L27.430904,27.8700306 C27.4927496,28.0742244 27.4018536,28.2996943 27.2052597,28.4004603 C26.9840916,28.5138221 26.7129015,28.4264278 26.5995397,28.2052597 L26.5995397,28.2052597 L24.0638946,23.2582324 L23.9351965,23.0176255 C22.6997755,20.8025565 20.5149526,19.45 18.1607316,19.45 L18.1607316,19.45 L11,19.45 L10.9191119,19.4427499 C10.7091877,19.4046475 10.55,19.2209139 10.55,19 C10.55,18.7514719 10.7514719,18.55 11,18.55 L11,18.55 L18.1607316,18.55 Z"/>
  </g>
</svg>
