<svg xmlns="http://www.w3.org/2000/svg" width="36" height="37" viewBox="0 0 36 37">
  <defs>
    <linearGradient id="icon-17-6-a" x1="97.444%" x2="2.556%" y1="100%" y2="0%">
      <stop offset="0%" stop-color="#1E85E9"/>
      <stop offset="20.276%" stop-color="#8671F3"/>
      <stop offset="70.727%" stop-color="#C06CFD" stop-opacity=".99"/>
      <stop offset="100%" stop-color="#FFBEE8"/>
    </linearGradient>
  </defs>
  <path fill="url(#icon-17-6-a)" d="M1103.35574,2704.76359 C1103.94815,2710.06209 1108.44493,2714.11 1113.82,2714.11 C1118.93106,2714.11 1123.27931,2710.44257 1124.18067,2705.47137 C1124.22058,2705.25128 1124.43135,2705.10521 1124.65143,2705.14512 C1124.87152,2705.18502 1125.01758,2705.39579 1124.97768,2705.61588 C1124.5844,2707.78488 1123.5822,2709.72327 1122.16309,2711.262 L1131.36073,2723.03601 C1131.91157,2723.74104 1131.78656,2724.75913 1131.08153,2725.30996 C1130.40854,2725.83575 1129.45032,2725.74575 1128.88552,2725.12329 L1128.80758,2725.03075 L1119.64886,2713.30799 C1117.93787,2714.33423 1115.93989,2714.92 1113.82,2714.92 C1108.0313,2714.92 1103.18888,2710.56096 1102.55076,2704.8536 C1102.5259,2704.63131 1102.68596,2704.43096 1102.90825,2704.4061 C1103.13054,2704.38125 1103.33089,2704.5413 1103.35574,2704.76359 Z M1121.58689,2711.84338 C1121.19328,2712.21297 1120.77356,2712.55445 1120.33102,2712.86492 L1129.44587,2724.53207 C1129.72128,2724.88458 1130.23033,2724.94709 1130.58284,2724.67167 C1130.91018,2724.41593 1130.98745,2723.95874 1130.77631,2723.61249 L1130.72245,2723.5347 L1121.58689,2711.84338 Z M1101.06537,2708.77954 C1103.16297,2713.91961 1108.17324,2717.35 1113.82,2717.35 C1116.25564,2717.35 1118.59813,2716.71716 1120.66399,2715.53153 C1120.85799,2715.42019 1121.10551,2715.4872 1121.21685,2715.68119 C1121.32819,2715.87519 1121.26118,2716.12271 1121.06718,2716.23405 C1118.87942,2717.48965 1116.39807,2718.16 1113.82,2718.16 C1107.84126,2718.16 1102.53635,2714.52787 1100.31541,2709.08559 C1100.2309,2708.8785 1100.33027,2708.6421 1100.53737,2708.55759 C1100.74446,2708.47307 1100.98085,2708.57245 1101.06537,2708.77954 Z M1127.86399,2704.83352 L1127.94601,2704.83479 C1128.16819,2704.86066 1128.32732,2705.06173 1128.30145,2705.28391 C1127.95431,2708.26537 1126.69856,2711.03465 1124.72727,2713.25535 C1124.57878,2713.42263 1124.3228,2713.43786 1124.15552,2713.28937 C1123.98824,2713.14088 1123.97301,2712.8849 1124.1215,2712.71763 C1125.98347,2710.62008 1127.16911,2708.00544 1127.49689,2705.19023 C1127.51629,2705.0236 1127.63425,2704.89243 1127.78574,2704.84817 L1127.86399,2704.83352 Z M1110.175,2695.48 C1111.74073,2695.48 1113.01,2696.74927 1113.01,2698.315 C1113.01,2699.21384 1112.5917,2700.01499 1111.93914,2700.53438 L1111.96871,2700.51292 L1115.28516,2705.25527 C1115.46614,2705.21902 1115.65335,2705.2 1115.845,2705.2 C1116.80974,2705.2 1117.66193,2705.68189 1118.174,2706.41809 L1126.16119,2702.58058 C1126.03773,2702.26253 1125.97,2701.91667 1125.97,2701.555 C1125.97,2699.98927 1127.23927,2698.72 1128.805,2698.72 C1130.37073,2698.72 1131.64,2699.98927 1131.64,2701.555 C1131.64,2703.12073 1130.37073,2704.39 1128.805,2704.39 C1127.89189,2704.39 1127.0796,2703.95831 1126.5611,2703.28789 L1118.53727,2707.14434 C1118.62988,2707.42443 1118.68,2707.72386 1118.68,2708.035 C1118.68,2709.60073 1117.41073,2710.87 1115.845,2710.87 C1114.27927,2710.87 1113.01,2709.60073 1113.01,2708.035 C1113.01,2706.95769 1113.6109,2706.02074 1114.49581,2705.54101 L1111.30489,2700.97708 L1111.65627,2700.73272 C1111.22519,2700.99739 1110.71792,2701.15 1110.175,2701.15 C1109.29733,2701.15 1108.51281,2700.75117 1107.99279,2700.12486 L1101.45922,2704.53033 C1101.59509,2704.86176 1101.67,2705.22463 1101.67,2705.605 C1101.67,2707.17073 1100.40073,2708.44 1098.835,2708.44 C1097.26927,2708.44 1096,2707.17073 1096,2705.605 C1096,2704.03927 1097.26927,2702.77 1098.835,2702.77 C1099.7297,2702.77 1100.5276,2703.18446 1101.04718,2703.83185 L1107.56912,2699.43336 C1107.42167,2699.09023 1107.34,2698.71215 1107.34,2698.315 C1107.34,2696.74927 1108.60927,2695.48 1110.175,2695.48 Z M1115.845,2706.01 C1114.72662,2706.01 1113.82,2706.91662 1113.82,2708.035 C1113.82,2709.15338 1114.72662,2710.06 1115.845,2710.06 C1116.96338,2710.06 1117.87,2709.15338 1117.87,2708.035 C1117.87,2706.91662 1116.96338,2706.01 1115.845,2706.01 Z M1098.835,2703.58 C1097.71662,2703.58 1096.81,2704.48662 1096.81,2705.605 C1096.81,2706.72338 1097.71662,2707.63 1098.835,2707.63 C1099.95338,2707.63 1100.86,2706.72338 1100.86,2705.605 C1100.86,2704.48662 1099.95338,2703.58 1098.835,2703.58 Z M1128.805,2699.53 C1127.68662,2699.53 1126.78,2700.43662 1126.78,2701.555 C1126.78,2702.67338 1127.68662,2703.58 1128.805,2703.58 C1129.92338,2703.58 1130.83,2702.67338 1130.83,2701.555 C1130.83,2700.43662 1129.92338,2699.53 1128.805,2699.53 Z M1113.82,2692.24 C1119.6031,2692.24 1124.44249,2696.5908 1125.08755,2702.29135 C1125.1127,2702.51361 1124.95291,2702.71417 1124.73065,2702.73932 C1124.5084,2702.76447 1124.30783,2702.60468 1124.28268,2702.38242 C1123.68384,2697.09026 1119.18986,2693.05 1113.82,2693.05 C1108.80447,2693.05 1104.51309,2696.58355 1103.50886,2701.4335 C1103.46351,2701.65253 1103.24918,2701.79332 1103.03015,2701.74797 C1102.81113,2701.70262 1102.67033,2701.48829 1102.71568,2701.26926 C1103.79741,2696.04507 1108.41854,2692.24 1113.82,2692.24 Z M1113.82,2689 C1119.8179,2689 1125.1364,2692.65545 1127.34455,2698.12358 C1127.4283,2698.33098 1127.32807,2698.56701 1127.12066,2698.65077 C1126.91326,2698.73452 1126.67723,2698.63428 1126.59348,2698.42688 C1124.50795,2693.26242 1119.48484,2689.81 1113.82,2689.81 C1106.7883,2689.81 1100.90646,2695.10741 1100.13514,2702.03975 C1100.11041,2702.26205 1099.91014,2702.42221 1099.68784,2702.39748 C1099.46554,2702.37274 1099.30538,2702.17248 1099.33011,2701.95018 C1100.14694,2694.60878 1106.3745,2689 1113.82,2689 Z M1110.175,2696.29 C1109.05662,2696.29 1108.15,2697.19662 1108.15,2698.315 C1108.15,2699.43338 1109.05662,2700.34 1110.175,2700.34 C1111.29338,2700.34 1112.2,2699.43338 1112.2,2698.315 C1112.2,2697.19662 1111.29338,2696.29 1110.175,2696.29 Z" transform="translate(-1096 -2689)"/>
</svg>
