<svg xmlns="http://www.w3.org/2000/svg" width="30" height="35" viewBox="0 0 30 35">
  <defs>
    <linearGradient id="icon-15-6-a" x1="86.736%" x2="13.264%" y1="100%" y2="0%">
      <stop offset="0%" stop-color="#1E85E9"/>
      <stop offset="20.276%" stop-color="#8671F3"/>
      <stop offset="70.727%" stop-color="#C06CFD" stop-opacity=".99"/>
      <stop offset="100%" stop-color="#FFBEE8"/>
    </linearGradient>
  </defs>
  <path fill="url(#icon-15-6-a)" d="M1115,2442.99928 L1114.17704,2442.99652 C1106.15342,2442.94226 1100.20118,2442.09009 1100.005,2440.57679 L1100,2440.49928 L1100,2410.49928 L1100.005,2410.42176 C1100.20118,2408.90846 1106.15342,2408.05629 1114.17704,2408.00204 L1114.17704,2408.00204 L1115.39443,2408 C1123.80144,2408.03082 1130,2408.90746 1130,2410.49928 L1130,2410.49928 L1130,2440.49928 C1130,2442.11303 1123.57472,2442.99928 1115,2442.99928 Z M1115,2427.99928 L1114.17704,2427.99652 C1107.98934,2427.95468 1103.03353,2427.43829 1100.99961,2426.5101 L1101,2433.49928 C1101,2434.09466 1107.55846,2434.99928 1115,2434.99928 L1116.12755,2434.99242 C1122.96718,2434.90959 1128.78865,2434.09428 1128.99438,2433.52981 L1129,2433.49928 L1129.00139,2426.50965 C1126.87873,2427.47893 1121.57038,2427.99928 1115,2427.99928 Z M1115,2419.99928 L1114.17704,2419.99652 C1107.98934,2419.95468 1103.03353,2419.43829 1100.99961,2418.5101 L1101,2425.49928 C1101,2426.09466 1107.55846,2426.99928 1115,2426.99928 L1116.12755,2426.99242 C1122.96718,2426.90959 1128.78865,2426.09428 1128.99438,2425.52981 L1129,2425.49928 L1129.00139,2418.50965 C1126.87873,2419.47893 1121.57038,2419.99928 1115,2419.99928 Z M1129.00139,2411.50965 C1126.96809,2412.43812 1122.01168,2412.95467 1115.82296,2412.99652 L1115.82296,2412.99652 L1115,2412.99928 C1108.43066,2412.99928 1103.12294,2412.47909 1100.99961,2411.5101 L1101,2417.49928 C1101,2418.09466 1107.55846,2418.99928 1115,2418.99928 L1116.12755,2418.99242 C1122.96718,2418.90959 1128.78865,2418.09428 1128.99438,2417.52981 L1129,2417.49928 Z M1115.39168,2409 L1114.62154,2409.00005 C1107.33803,2409.02985 1101,2409.91398 1101,2410.49928 C1101,2411.06439 1106.90846,2411.90808 1113.87245,2411.99242 L1113.87245,2411.99242 L1115,2411.99928 C1122.44154,2411.99928 1129,2411.09466 1129,2410.49928 C1129,2409.92231 1122.66705,2409.02667 1115.39168,2409 L1115.39168,2409 Z M1115,2435.99928 L1114.17704,2435.99652 C1107.98934,2435.95468 1103.03353,2435.43829 1100.99961,2434.5101 L1101,2440.49928 C1101,2441.09466 1107.55846,2441.99928 1115,2441.99928 L1116.12755,2441.99242 C1122.96718,2441.90959 1128.78865,2441.09428 1128.99438,2440.52981 L1129,2440.49928 L1129.00139,2434.50965 C1126.87873,2435.47893 1121.57038,2435.99928 1115,2435.99928 Z" transform="translate(-1100 -2408)"/>
</svg>
