<svg xmlns="http://www.w3.org/2000/svg" width="33" height="35" viewBox="0 0 33 35">
  <defs>
    <linearGradient id="ico-standarts-4-a" x1="93.52%" x2="6.48%" y1="100%" y2="0%">
      <stop offset="0%" stop-color="#1E85E9"/>
      <stop offset="20.276%" stop-color="#8671F3"/>
      <stop offset="70.727%" stop-color="#C06CFD" stop-opacity=".99"/>
      <stop offset="100%" stop-color="#FFBEE8"/>
    </linearGradient>
  </defs>
  <path fill="url(#ico-standarts-4-a)" d="M6.16218189,7.67358637 L14.885,16.33 L17.4687441,13.8392707 C17.2022531,13.436531 17.0358988,12.9617364 17.0051709,12.4503765 L17,12.2777778 C17,10.712971 18.2685265,9.44444444 19.8333333,9.44444444 C21.3981401,9.44444444 22.6666667,10.712971 22.6666667,12.2777778 C22.6666667,13.8425846 21.3981401,15.1111111 19.8333333,15.1111111 C19.1866926,15.1111111 18.5906468,14.8944882 18.1138053,14.5298519 L15.555,16.995 L23.6561592,25.0356771 L23.4467964,25.3576897 C21.9463667,27.6654404 19.764044,29.4043455 17.2378472,30.3535956 L19.4377138,33.6863656 L19.4437138,33.6955746 C19.4520292,33.7088055 19.4597064,33.7224779 19.4667024,33.7365488 L19.4781248,33.7613982 C19.4795169,33.7646557 19.4808698,33.7679232 19.4821836,33.7712 C19.4886979,33.7874034 19.4942909,33.8039957 19.4989602,33.8209707 C19.5012765,33.8293351 19.5033441,33.8377347 19.5051743,33.8461632 C19.5062621,33.8513266 19.5072832,33.8564605 19.5082203,33.8616235 L19.5123494,33.8884334 C19.5144126,33.9051923 19.515566,33.9220009 19.5158245,33.938785 L19.5158285,33.9465061 L19.5153851,33.9677192 C19.5146657,33.9834311 19.513165,33.9990839 19.5108956,34.0146159 L19.5158285,33.9465061 C19.5158285,33.9859885 19.510983,34.0243391 19.5018542,34.0609959 C19.4990676,34.0717469 19.495899,34.082767 19.4923325,34.0936664 C19.4880095,34.1071958 19.4830358,34.1203195 19.4775097,34.1331492 C19.4718363,34.146215 19.4655341,34.1592429 19.4586243,34.1719874 C19.4524287,34.1833416 19.4459588,34.1941477 19.4390809,34.2046627 C19.4315822,34.2163301 19.4229588,34.2283375 19.4137349,34.2399669 C19.406382,34.2490303 19.3991796,34.2574553 19.391694,34.2656163 C19.3663999,34.2933796 19.3369027,34.3187282 19.3037467,34.3406136 L19.3574716,34.2993333 C19.3473108,34.3083785 19.3367567,34.3169915 19.3258381,34.3251433 L19.3037467,34.3406136 C19.3005221,34.3427421 19.297281,34.3448259 19.2940241,34.3468651 C19.2813068,34.354929 19.2676344,34.3626062 19.2535636,34.3696022 C19.2419175,34.3753264 19.2304729,34.3804485 19.2189123,34.3850834 C19.2027089,34.3915977 19.1861166,34.3971908 19.1691416,34.4018601 C19.1607772,34.4041764 19.1523776,34.4062439 19.1439491,34.4080742 C19.1387857,34.409162 19.1336518,34.410183 19.1284888,34.4111202 L19.1016789,34.4152493 C19.08492,34.4173125 19.0681114,34.4184658 19.0513273,34.4187244 L19.0436062,34.4187283 L5.53339301,34.4187283 C5.19378256,34.4187283 4.97458461,34.0761046 5.09275698,33.7758643 L5.12945417,33.70191 L7.38092755,29.9844437 C3.02207858,27.9579011 2.11919371e-12,23.540206 2.11919371e-12,18.4166667 C2.11919371e-12,14.4022981 2.16782131,10.5669535 5.54689037,8.10435996 L5.83946887,7.89667019 L6.16218189,7.67358637 Z M8.26144528,30.3541481 L6.37022222,33.4742222 L18.166,33.474 L16.3096662,30.6621314 C15.1715964,30.9923453 13.9756373,31.1666667 12.75,31.1666667 C11.1702439,31.1666667 9.65759186,30.87936 8.26144528,30.3541481 Z M6.05722222,8.90022222 L5.80608638,9.09045888 C2.83082173,11.3873785 0.944444444,14.8382498 0.944444444,18.4166667 C0.944444444,24.936695 6.2299717,30.2222222 12.75,30.2222222 C16.4486129,30.2222222 19.8543821,28.5085502 22.0653931,25.6703064 L22.2691476,25.4009444 L22.4402222,25.1592222 L6.05722222,8.90022222 Z M19.8333333,10.3888889 C18.7901288,10.3888889 17.9444444,11.2345733 17.9444444,12.2777778 C17.9444444,13.3209823 18.7901288,14.1666667 19.8333333,14.1666667 C20.8765379,14.1666667 21.7222222,13.3209823 21.7222222,12.2777778 C21.7222222,11.2345733 20.8765379,10.3888889 19.8333333,10.3888889 Z M20.3055556,1.22568622e-13 C26.8255839,1.22568622e-13 32.1111111,5.28552726 32.1111111,11.8055556 C32.1111111,12.0663567 31.89969,12.2777778 31.6388889,12.2777778 C31.3780878,12.2777778 31.1666667,12.0663567 31.1666667,11.8055556 C31.1666667,5.80712952 26.3039816,0.944444444 20.3055556,0.944444444 C20.0447544,0.944444444 19.8333333,0.733023354 19.8333333,0.472222222 C19.8333333,0.21142109 20.0447544,1.22568622e-13 20.3055556,1.22568622e-13 Z M21.25,4.72222222 C24.6404147,4.72222222 27.3888889,7.4706964 27.3888889,10.8611111 C27.3888889,11.1219122 27.1774678,11.3333333 26.9166667,11.3333333 C26.6558655,11.3333333 26.4444444,11.1219122 26.4444444,10.8611111 C26.4444444,7.99229866 24.1188125,5.66666667 21.25,5.66666667 C20.9891989,5.66666667 20.7777778,5.45524558 20.7777778,5.19444444 C20.7777778,4.93364331 20.9891989,4.72222222 21.25,4.72222222 Z"/>
</svg>
