<svg xmlns="http://www.w3.org/2000/svg" xmlns:xlink="http://www.w3.org/1999/xlink" width="62" height="62" viewBox="0 0 62 62">
  <defs>
    <linearGradient id="icon-3-7-b" x1="100%" x2="0%" y1="100%" y2="0%">
      <stop offset="0%" stop-color="#1E85E9"/>
      <stop offset="20.276%" stop-color="#8671F3"/>
      <stop offset="70.727%" stop-color="#C06CFD" stop-opacity=".99"/>
      <stop offset="100%" stop-color="#FFBEE8"/>
    </linearGradient>
    <rect id="icon-3-7-a" width="60" height="60" x="0" y="0" rx="4"/>
  </defs>
  <g fill="none" fill-rule="evenodd" transform="translate(1 1)">
    <g opacity=".062">
      <use fill="#FAFAFA" xlink:href="#icon-3-7-a"/>
      <use fill="url(#icon-3-7-b)" stroke="#000" stroke-opacity=".02" xlink:href="#icon-3-7-a"/>
    </g>
    <path fill="url(#icon-3-7-b)" fill-rule="nonzero" d="M26.8883205,33.1116795 C27.0618869,33.2852458 27.081172,33.5546702 26.946176,33.7495384 L26.8883205,33.8187862 L17.206,43.5 L23,43.5 C23.2454599,43.5 23.4496084,43.6768752 23.4919443,43.9101244 L23.5,44 C23.5,44.2454599 23.3231248,44.4496084 23.0898756,44.4919443 L23,44.5 L15.5,44.5 L15.5,37 C15.5,36.7238576 15.7238576,36.5 16,36.5 C16.2454599,36.5 16.4496084,36.6768752 16.4919443,36.9101244 L16.5,37 L16.5,42.792 L26.1812138,33.1116795 C26.3764759,32.9164173 26.6930584,32.9164173 26.8883205,33.1116795 Z M33.7374411,33.0745727 L33.8136787,33.1179643 L33.8829266,33.1758198 L43.5,42.793 L43.5,37 C43.5,36.7545401 43.6768752,36.5503916 43.9101244,36.5080557 L44,36.5 C44.2454599,36.5 44.4496084,36.6768752 44.4919443,36.9101244 L44.5,37 L44.5,44.5 L37,44.5 C36.7238576,44.5 36.5,44.2761424 36.5,44 C36.5,43.7545401 36.6768752,43.5503916 36.9101244,43.5080557 L37,43.5 L42.793,43.5 L33.1758198,33.8829266 C32.9805576,33.6876644 32.9805576,33.3710819 33.1758198,33.1758198 C33.3276903,33.0239492 33.5529522,32.9902002 33.7374411,33.0745727 Z M23,15.5 C23.2761424,15.5 23.5,15.7238576 23.5,16 C23.5,16.2454599 23.3231248,16.4496084 23.0898756,16.4919443 L23,16.5 L17.207,16.5 L26.8674923,26.1603855 C27.0627544,26.3556477 27.0627544,26.6722301 26.8674923,26.8674923 C26.6939259,27.0410586 26.4245015,27.0603438 26.2296334,26.9253477 L26.1603855,26.8674923 L16.5,17.207 L16.5,23 C16.5,23.2454599 16.3231248,23.4496084 16.0898756,23.4919443 L16,23.5 C15.7545401,23.5 15.5503916,23.3231248 15.5080557,23.0898756 L15.5,23 L15.5,15.5 L23,15.5 Z M44.5,15.5 L44.5,23 C44.5,23.2761424 44.2761424,23.5 44,23.5 C43.7545401,23.5 43.5503916,23.3231248 43.5080557,23.0898756 L43.5,23 L43.5,17.206 L33.8424984,26.8646084 C33.6472363,27.0598705 33.3306538,27.0598705 33.1353916,26.8646084 C32.9618253,26.691042 32.9425401,26.4216176 33.0775362,26.2267495 L33.1353916,26.1575016 L42.792,16.5 L37,16.5 C36.7545401,16.5 36.5503916,16.3231248 36.5080557,16.0898756 L36.5,16 C36.5,15.7545401 36.6768752,15.5503916 36.9101244,15.5080557 L37,15.5 L44.5,15.5 Z"/>
  </g>
</svg>
