<svg xmlns="http://www.w3.org/2000/svg" xmlns:xlink="http://www.w3.org/1999/xlink" width="62" height="62" viewBox="0 0 62 62">
  <defs>
    <linearGradient id="ico-advantages-4-b" x1="100%" x2="0%" y1="100%" y2="0%">
      <stop offset="0%" stop-color="#1E85E9"/>
      <stop offset="20.276%" stop-color="#8671F3"/>
      <stop offset="70.727%" stop-color="#C06CFD" stop-opacity=".99"/>
      <stop offset="100%" stop-color="#FFBEE8"/>
    </linearGradient>
    <rect id="ico-advantages-4-a" width="60" height="60" x="0" y="0" rx="4"/>
    <linearGradient id="ico-advantages-4-c" x1="88.281%" x2="11.719%" y1="100%" y2="0%">
      <stop offset="0%" stop-color="#1E85E9"/>
      <stop offset="20.276%" stop-color="#8671F3"/>
      <stop offset="70.727%" stop-color="#C06CFD" stop-opacity=".99"/>
      <stop offset="100%" stop-color="#FFBEE8"/>
    </linearGradient>
  </defs>
  <g fill="none" fill-rule="evenodd" transform="translate(1 1)">
    <g opacity=".062">
      <use fill="#FAFAFA" xlink:href="#ico-advantages-4-a"/>
      <use fill="url(#ico-advantages-4-b)" stroke="#000" stroke-opacity=".02" xlink:href="#ico-advantages-4-a"/>
    </g>
    <path fill="url(#ico-advantages-4-c)" fill-rule="nonzero" d="M30.1800004,14 C35.4015759,14 39.6591103,17.9321189 39.8043696,22.8440928 L39.8082007,23.1035066 L39.808,27.262 L41.9847382,27.2624429 C43.0471457,27.2624429 43.9175406,28.1047605 43.9944724,29.1731566 L44,29.327256 L44,43.9351869 C44,45.0237169 43.1778963,45.9155131 42.1351395,45.9943365 L41.9847382,46 L18.0152618,46 C16.9528543,46 16.0824594,45.1576824 16.0055276,44.0892863 L16,43.9351869 L16,29.327256 C16,28.238726 16.8221037,27.3469298 17.8648605,27.2681064 L18.0152618,27.2624429 L20.551,27.262 L20.5518,23.1035066 C20.5518,18.0712983 24.8668183,14 30.1800004,14 Z M41.8086125,28.2486301 L18.1913875,28.2486301 C17.5745264,28.2486301 17.0671619,28.7269867 17.006151,29.3399839 L17,29.4642767 L17,43.7981662 C17,44.4275878 17.4688107,44.9452833 18.0695751,45.0075365 L18.1913875,45.0138128 L41.8086125,45.0138128 C42.4254736,45.0138128 42.9328381,44.5354562 42.993849,43.922459 L43,43.7981662 L43,29.4642767 C43,28.7928936 42.4665976,28.2486301 41.8086125,28.2486301 Z M30,31.7002854 C31.3807119,31.7002854 32.5,32.804113 32.5,34.1657534 C32.5,34.7720864 32.2763115,35.3433692 31.884364,35.7861389 L31.884364,35.7861389 L31.846,35.8255065 L32.6098968,39.5897831 L27.3899076,39.5897831 L28.154,35.8264927 L28.1165094,35.7871259 C27.7632788,35.3885195 27.5464907,34.885597 27.5066653,34.3466449 L27.5066653,34.3466449 L27.5,34.1657534 C27.5,32.804113 28.6192881,31.7002854 30,31.7002854 Z M30,32.6864726 C29.1715729,32.6864726 28.5,33.3487692 28.5,34.1657534 C28.5,34.6032852 28.6930674,35.0087988 29.0233273,35.2885427 L29.0233273,35.2885427 L29.2452731,35.4765401 L28.61,38.6035959 L31.39,38.6035959 L30.7558206,35.4758553 L30.9774029,35.2879238 C31.307229,35.0081871 31.5,34.602953 31.5,34.1657534 C31.5,33.3487692 30.8284271,32.6864726 30,32.6864726 Z M30.1800004,14.8840182 C25.4409934,14.8840182 21.590506,18.4357262 21.4520548,22.8570025 L21.4482,23.1035066 L21.448,27.262 L38.911,27.262 L38.9118007,23.1035066 C38.9118007,18.5684889 35.0067667,14.8840182 30.1800004,14.8840182 Z"/>
  </g>
</svg>
