<svg xmlns="http://www.w3.org/2000/svg" xmlns:xlink="http://www.w3.org/1999/xlink" width="62" height="62" viewBox="0 0 62 62">
  <defs>
    <linearGradient id="ico-services-2-b" x1="100%" x2="0%" y1="100%" y2="0%">
      <stop offset="0%" stop-color="#1E85E9"/>
      <stop offset="20.276%" stop-color="#8671F3"/>
      <stop offset="70.727%" stop-color="#C06CFD" stop-opacity=".99"/>
      <stop offset="100%" stop-color="#FFBEE8"/>
    </linearGradient>
    <rect id="ico-services-2-a" width="60" height="60" x="0" y="0" rx="4"/>
  </defs>
  <g fill="none" fill-rule="evenodd" transform="translate(1 1)">
    <g opacity=".062">
      <use fill="#FAFAFA" xlink:href="#ico-services-2-a"/>
      <use fill="url(#ico-services-2-b)" stroke="#000" stroke-opacity=".02" xlink:href="#ico-services-2-a"/>
    </g>
    <path fill="url(#ico-services-2-b)" fill-rule="nonzero" d="M33.595,10 C34.5973968,10 35.41,10.8126032 35.41,11.815 L35.41,11.815 L35.41,24.52 L48.115,24.52 C49.067277,24.52 49.8482652,25.2533744 49.9239833,26.1861418 L49.93,26.335 L49.93,48.115 C49.93,49.1173968 49.1173968,49.93 48.115,49.93 L48.115,49.93 L26.335,49.93 C25.3326032,49.93 24.52,49.1173968 24.52,48.115 L24.52,48.115 L24.52,35.41 L11.815,35.41 C10.862723,35.41 10.0817348,34.6766256 10.0060167,33.7438582 L10,33.595 L10,11.815 C10,10.8126032 10.8126032,10 11.815,10 L11.815,10 Z M48.115,25.73 L35.41,25.73 L35.41,33.595 C35.41,34.547277 34.6766256,35.3282652 33.7438582,35.4039833 L33.595,35.41 L25.73,35.41 L25.73,48.115 C25.73,48.415719 25.9494029,48.6651938 26.2368659,48.7120816 L26.335,48.72 L48.115,48.72 C48.4491323,48.72 48.72,48.4491323 48.72,48.115 L48.72,48.115 L48.72,26.335 C48.72,26.0008677 48.4491323,25.73 48.115,25.73 L48.115,25.73 Z M33.595,11.21 L11.815,11.21 C11.4808677,11.21 11.21,11.4808677 11.21,11.815 L11.21,11.815 L11.21,33.595 C11.21,33.9291323 11.4808677,34.2 11.815,34.2 L11.815,34.2 L24.52,34.2 L24.52,26.335 C24.52,25.382723 25.2533744,24.6017348 26.1861418,24.5260167 L26.335,24.52 L34.2,24.52 L34.2,11.815 C34.2,11.514281 33.9805971,11.2648062 33.6931341,11.2179184 L33.595,11.21 Z M34.2,25.73 L26.335,25.73 C26.0008677,25.73 25.73,26.0008677 25.73,26.335 L25.73,26.335 L25.73,34.2 L33.595,34.2 C33.895719,34.2 34.1451938,33.9805971 34.1920816,33.6931341 L34.2,33.595 L34.2,25.73 Z"/>
  </g>
</svg>
