<svg xmlns="http://www.w3.org/2000/svg" xmlns:xlink="http://www.w3.org/1999/xlink" width="62" height="62" viewBox="0 0 62 62">
  <defs>
    <linearGradient id="icon-2-2-b" x1="100%" x2="0%" y1="100%" y2="0%">
      <stop offset="0%" stop-color="#1E85E9"/>
      <stop offset="20.276%" stop-color="#8671F3"/>
      <stop offset="70.727%" stop-color="#C06CFD" stop-opacity=".99"/>
      <stop offset="100%" stop-color="#FFBEE8"/>
    </linearGradient>
    <rect id="icon-2-2-a" width="60" height="60" x="0" y="0" rx="4"/>
  </defs>
  <g fill="none" fill-rule="evenodd" transform="translate(1 1)">
    <g opacity=".062">
      <use fill="#FAFAFA" xlink:href="#icon-2-2-a"/>
      <use fill="url(#icon-2-2-b)" stroke="#000" stroke-opacity=".02" xlink:href="#icon-2-2-a"/>
    </g>
    <path fill="url(#icon-2-2-b)" fill-rule="nonzero" d="M44.5,12 C44.7761424,12 45,12.2238576 45,12.5 L45,12.5 L45,39.5 C45,39.7761424 44.7761424,40 44.5,40 L44.5,40 L26,40 L26,47.5 C26,47.7454599 25.8231248,47.9496084 25.5898756,47.9919443 L25.5,48 L9.5,48 C9.22385763,48 9,47.7761424 9,47.5 L9,47.5 L9,31.5 C9,31.2238576 9.22385763,31 9.5,31 L9.5,31 L17,31 L17,12.5 C17,12.2545401 17.1768752,12.0503916 17.4101244,12.0080557 L17.5,12 Z M17,32 L10,32 L10,47 L25,47 L25,40 L17.5,40 C17.2545401,40 17.0503916,39.8231248 17.0080557,39.5898756 L17,39.5 L17,32 Z M25,32 L18,32 L18,39 L25,39 L25,32 Z M44,13 L18,13 L18,31 L25.5,31 C25.7454599,31 25.9496084,31.1768752 25.9919443,31.4101244 L26,31.5 L26,39 L44,39 L44,13 Z M40.9670655,15.9686736 C41.3225384,15.9170772 41.630146,16.2616911 41.5098756,16.6225025 L41.5098756,16.6225025 L39.7421086,21.9258034 L39.7060452,22.0085195 C39.5921219,22.2164113 39.3425168,22.3196524 39.1096531,22.2420312 L39.1096531,22.2420312 L39.026937,22.2059677 C38.8190452,22.0920444 38.7158041,21.8424393 38.7934253,21.6095756 L38.7934253,21.6095756 L39.887,18.324 L28.5296201,29.8283513 L28.4607411,29.8866455 C28.2667344,30.0228766 27.9971929,30.0053031 27.8225203,29.8328501 C27.6260291,29.6388248 27.6240182,29.3222487 27.8180361,29.1257502 L27.8180361,29.1257502 L39.193,17.605 L35.8903469,18.7064972 L35.802536,18.7272761 C35.5678686,18.7608726 35.3355126,18.6231332 35.2578914,18.3902695 C35.1705675,18.1282978 35.3121475,17.8451378 35.5741192,17.7578139 L35.5741192,17.7578139 L40.87742,15.990047 Z"/>
  </g>
</svg>
