<svg xmlns="http://www.w3.org/2000/svg" width="48" height="43" viewBox="0 0 48 43">
  <defs>
    <linearGradient id="icon-25-4-a" x1="100%" x2="0%" y1="90.126%" y2="9.874%">
      <stop offset="0%" stop-color="#1E85E9"/>
      <stop offset="20.276%" stop-color="#8671F3"/>
      <stop offset="70.727%" stop-color="#C06CFD" stop-opacity=".99"/>
      <stop offset="100%" stop-color="#FFBEE8"/>
    </linearGradient>
  </defs>
  <path fill="url(#icon-25-4-a)" d="M809.331,3822.739 L809.220153,3822.80833 L809.702924,3823.60537 L811.095,3822.739 L841.831909,3822.73929 L841.831,3822.87 L841.512948,3823.08648 L841.831,3823.57 L841.831,3854.624 L841.519626,3854.82743 L841.831,3855.319 L841.831909,3856 L809,3856 L809,3822.73929 L809.331,3822.739 Z M856.425102,3813 L857,3830.48236 L857,3845.85616 L842.018835,3855.61401 L841.831,3855.319 L841.831,3854.624 L856.075783,3845.34526 L856.077179,3830.49794 L855.557265,3814.70984 L842.025514,3823.8642 L841.831,3823.57 L841.831,3822.87 L854.469,3814.323 L824.636467,3814.32194 L811.095,3822.739 L809.331,3822.739 L824.263422,3813.457 L824.504808,3813.38796 L855.853,3813.387 L856.425102,3813 Z M840.907692,3823.67326 L809.921937,3823.67326 L809.921937,3855.06371 L840.907692,3855.06371 L840.907692,3823.67326 Z M837.790263,3843.32051 L833.21853,3847.73077 L822.86639,3847.73077 L827.64551,3843.32051 L837.790263,3843.32051 Z M819.532575,3835.05128 L819.531636,3835.31528 L825.32864,3841.1746 L819.531636,3847.03328 L819.532575,3847.29792 L813.363636,3847.29792 L819.421403,3841.17386 L813.363636,3835.05128 L819.532575,3835.05128 Z M835.066182,3844.42308 L828.068,3844.42308 L825.678909,3846.62821 L832.780727,3846.62821 L835.066182,3844.42308 Z M815.995948,3836.15279 L820.965004,3841.1746 L815.995948,3846.19494 L818.816636,3846.19528 L823.785039,3841.17386 L818.816636,3836.15328 L815.995948,3836.15279 Z M855.991453,3813.38796 L855.853,3813.387 L854.469,3814.323 L855.991453,3814.32309 L855.991453,3813.38796 Z" transform="translate(-809 -3813)"/>
</svg>
