<?xml version="1.0" encoding="UTF-8"?>
<svg width="36px" height="40px" viewBox="0 0 36 40" version="1.1" xmlns="http://www.w3.org/2000/svg" xmlns:xlink="http://www.w3.org/1999/xlink">
    <title>icon-36-6</title>
    <defs>
        <linearGradient x1="90.5%" y1="100%" x2="9.5%" y2="0%" id="linearGradient-1">
            <stop stop-color="#1E85E9" offset="0%"></stop>
            <stop stop-color="#8671F3" offset="20.275549%"></stop>
            <stop stop-color="#C06CFD" stop-opacity="0.99" offset="70.7268792%"></stop>
            <stop stop-color="#FFBEE8" offset="100%"></stop>
        </linearGradient>
    </defs>
    <g id="Page-1" stroke="none" stroke-width="1" fill="none" fill-rule="evenodd">
        <g id="icons" transform="translate(-1097.000000, -5226.000000)" fill="url(#linearGradient-1)" fill-rule="nonzero">
            <path d="M1132,5226 C1132.55228,5226 1133,5226.44772 1133,5227 L1133,5265 C1133,5265.55228 1132.55228,5266 1132,5266 L1098,5266 C1097.44772,5266 1097,5265.55228 1097,5265 L1097,5227 C1097,5226.44772 1097.44772,5226 1098,5226 L1132,5226 Z M1132,5232 L1098,5232 L1098,5265 L1132,5265 L1132,5232 L1132,5232 Z M1125.5,5257 C1126.88071,5257 1128,5258.11929 1128,5259.5 C1128,5260.88071 1126.88071,5262 1125.5,5262 L1104.5,5262 C1103.11929,5262 1102,5260.88071 1102,5259.5 C1102,5258.11929 1103.11929,5257 1104.5,5257 L1125.5,5257 Z M1125.5,5258 L1104.5,5258 C1103.67157,5258 1103,5258.67157 1103,5259.5 C1103,5260.2797 1103.59489,5260.92045 1104.35554,5260.99313 L1104.5,5261 L1125.5,5261 C1126.32843,5261 1127,5260.32843 1127,5259.5 C1127,5258.7203 1126.40511,5258.07955 1125.64446,5258.00687 L1125.5,5258 Z M1113,5248 C1113.55228,5248 1114,5248.44772 1114,5249 L1114,5253 C1114,5253.55228 1113.55228,5254 1113,5254 L1103,5254 C1102.44772,5254 1102,5253.55228 1102,5253 L1102,5249 C1102,5248.44772 1102.44772,5248 1103,5248 L1113,5248 Z M1127,5248 C1127.55228,5248 1128,5248.44772 1128,5249 L1128,5253 C1128,5253.55228 1127.55228,5254 1127,5254 L1117,5254 C1116.44772,5254 1116,5253.55228 1116,5253 L1116,5249 C1116,5248.44772 1116.44772,5248 1117,5248 L1127,5248 Z M1113,5249 L1103,5249 L1103,5253 L1113,5253 L1113,5249 Z M1127,5249 L1117,5249 L1117,5253 L1127,5253 L1127,5249 Z M1111.5,5246 C1111.77614,5246 1112,5246.22386 1112,5246.5 C1112,5246.77614 1111.77614,5247 1111.5,5247 L1102.5,5247 C1102.22386,5247 1102,5246.77614 1102,5246.5 C1102,5246.22386 1102.22386,5246 1102.5,5246 L1111.5,5246 Z M1127,5237 C1127.55228,5237 1128,5237.44772 1128,5238 L1128,5242 C1128,5242.55228 1127.55228,5243 1127,5243 L1103,5243 C1102.44772,5243 1102,5242.55228 1102,5242 L1102,5238 C1102,5237.44772 1102.44772,5237 1103,5237 L1127,5237 Z M1127,5238 L1103,5238 L1103,5242 L1127,5242 L1127,5238 Z M1111.5,5235 C1111.77614,5235 1112,5235.22386 1112,5235.5 C1112,5235.77614 1111.77614,5236 1111.5,5236 L1102.5,5236 C1102.22386,5236 1102,5235.77614 1102,5235.5 C1102,5235.22386 1102.22386,5235 1102.5,5235 L1111.5,5235 Z M1132,5227 L1098,5227 L1098,5231 L1132,5231 L1132,5227 Z" id="icon-36-6"></path>
        </g>
    </g>
</svg>