<svg xmlns="http://www.w3.org/2000/svg" width="41" height="46" viewBox="0 0 41 46">
  <defs>
    <linearGradient id="icon-26-9-a" x1="91.398%" x2="8.602%" y1="100%" y2="0%">
      <stop offset="0%" stop-color="#1E85E9"/>
      <stop offset="20.276%" stop-color="#8671F3"/>
      <stop offset="70.727%" stop-color="#C06CFD" stop-opacity=".99"/>
      <stop offset="100%" stop-color="#FFBEE8"/>
    </linearGradient>
  </defs>
  <path fill="url(#icon-26-9-a)" d="M1556.5,3952 C1557.32843,3952 1558,3952.67157 1558,3953.5 L1558,3953.5 L1558,3974.13932 C1558,3981.90415 1553.61295,3989.00254 1546.66788,3992.47508 L1546.66788,3992.47508 L1537.5,3997.05902 L1528.33212,3992.47508 C1521.38705,3989.00254 1517,3981.90415 1517,3974.13932 L1517,3974.13932 L1517,3953.5 C1517,3952.67157 1517.67157,3952 1518.5,3952 L1518.5,3952 Z M1556.5,3953 L1518.5,3953 C1518.22386,3953 1518,3953.22386 1518,3953.5 L1518,3953.5 L1518,3974.13932 C1518,3981.52538 1522.17305,3988.27751 1528.77933,3991.58065 L1528.77933,3991.58065 L1537.5,3995.94 L1546.22067,3991.58065 C1552.71105,3988.33546 1556.85283,3981.76123 1556.99616,3974.52746 L1556.99616,3974.52746 L1557,3974.13932 L1557,3953.5 C1557,3953.22386 1556.77614,3953 1556.5,3953 L1556.5,3953 Z M1544.0405,3986.81049 L1544.37591,3987.48131 L1537.5,3990.91926 L1530.62409,3987.48131 L1530.9595,3986.81049 L1537.499,3990.08 L1544.0405,3986.81049 Z M1540.5,3964 C1540.77614,3964 1541,3964.22386 1541,3964.5 L1541,3964.5 L1541,3968.999 L1545.5001,3969 C1545.74553,3969.00005 1545.94962,3969.17692 1545.99195,3969.41014 L1545.99195,3969.41014 L1546,3969.5 L1546,3975.5 C1546,3975.77614 1545.77614,3976 1545.5,3976 L1545.5,3976 L1541,3976 L1541,3980.5 C1541,3980.74546 1540.82312,3980.94961 1540.58988,3980.99194 L1540.58988,3980.99194 L1540.5,3981 L1534.5,3981 C1534.22386,3981 1534,3980.77614 1534,3980.5 L1534,3980.5 L1534,3976 L1529.5,3976 C1529.25454,3976 1529.05039,3975.82312 1529.00806,3975.58988 L1529.00806,3975.58988 L1529,3975.5 L1529,3969.5 C1529,3969.22386 1529.22386,3969 1529.5,3969 L1529.5,3969 L1534,3969 L1534,3964.5 C1534,3964.25454 1534.17688,3964.05039 1534.41012,3964.00806 L1534.41012,3964.00806 L1534.5,3964 Z M1540,3965 L1535,3965 L1535,3969.5 C1535,3969.74546 1534.82312,3969.94961 1534.58988,3969.99194 L1534.58988,3969.99194 L1534.5,3970 L1530,3970 L1530,3975 L1534.5,3975 C1534.74546,3975 1534.94961,3975.17688 1534.99194,3975.41012 L1534.99194,3975.41012 L1535,3975.5 L1535,3980 L1540,3980 L1540,3975.5 C1540,3975.25454 1540.17688,3975.05039 1540.41012,3975.00806 L1540.41012,3975.00806 L1540.5,3975 L1545,3975 L1545,3969.999 L1540.4999,3969.999 C1540.25447,3969.99895 1540.05038,3969.82208 1540.00805,3969.58886 L1540.00805,3969.58886 L1540,3969.499 L1540,3965 Z M1531.5,3957.125 L1531.5,3957.875 L1523.25,3957.875 C1523.06878,3957.875 1522.91759,3958.00354 1522.88262,3958.17442 L1522.875,3958.25 L1522.875,3965.5 L1522.125,3965.5 L1522.125,3958.25 C1522.125,3957.6701 1522.56376,3957.19268 1523.12742,3957.1316 L1523.25,3957.125 L1531.5,3957.125 Z M1551.75,3957.125 C1552.3299,3957.125 1552.80732,3957.56376 1552.8684,3958.12742 L1552.875,3958.25 L1552.875,3964.5 L1552.125,3964.5 L1552.125,3958.25 C1552.125,3958.06878 1551.99646,3957.91759 1551.82558,3957.88262 L1551.75,3957.875 L1546.5,3957.875 L1546.5,3957.125 L1551.75,3957.125 Z" transform="translate(-1517 -3952)"/>
</svg>
