<svg xmlns="http://www.w3.org/2000/svg" xmlns:xlink="http://www.w3.org/1999/xlink" width="62" height="62" viewBox="0 0 62 62">
  <defs>
    <linearGradient id="icon-9-9-b" x1="100%" x2="0%" y1="100%" y2="0%">
      <stop offset="0%" stop-color="#FFBEE8"/>
      <stop offset="29.273%" stop-color="#C06CFD" stop-opacity=".99"/>
      <stop offset="79.724%" stop-color="#8671F3"/>
      <stop offset="100%" stop-color="#1E85E9"/>
    </linearGradient>
    <rect id="icon-9-9-a" width="60" height="60" x="0" y="0" rx="4"/>
    <linearGradient id="icon-9-9-c" x1="100%" x2="0%" y1="100%" y2="0%">
      <stop offset="0%" stop-color="#1E85E9"/>
      <stop offset="20.276%" stop-color="#8671F3"/>
      <stop offset="70.727%" stop-color="#C06CFD" stop-opacity=".99"/>
      <stop offset="100%" stop-color="#FFBEE8"/>
    </linearGradient>
  </defs>
  <g fill="none" fill-rule="evenodd" transform="translate(1 1)">
    <g opacity=".062">
      <use fill="#FAFAFA" xlink:href="#icon-9-9-a"/>
      <use fill="url(#icon-9-9-b)" stroke="#000" stroke-opacity=".02" xlink:href="#icon-9-9-a"/>
    </g>
    <path fill="url(#icon-9-9-c)" fill-rule="nonzero" d="M30.4545455,9 C31.7097381,9 32.7272727,10.0233491 32.7272727,11.2857143 L32.7272727,46.7142857 C32.7272727,47.9766509 31.7097381,49 30.4545455,49 L12.2727273,49 C11.0175347,49 10,47.9766509 10,46.7142857 L10,11.2857143 C10,10.0233491 11.0175347,9 12.2727273,9 L30.4545455,9 Z M46.3660619,21.7272727 L48.2793577,28.3973597 C49.3005433,28.9202341 50,29.9870889 50,31.2181818 L50,38.6 C50,39.8310929 49.3005433,40.8979477 48.2793577,41.4208221 L46.3660619,48.0909091 L40.2131905,48.0909091 L38.1294644,41.4434995 C37.0837825,40.9292392 36.3636364,39.8491677 36.3636364,38.6 L36.3636364,31.2181818 C36.3636364,29.9690141 37.0837825,28.8889426 38.1294644,28.3746823 L40.2131905,21.7272727 L46.3660619,21.7272727 Z M30.4545455,10.1428571 L12.2727273,10.1428571 C11.6899593,10.1428571 11.209651,10.5840459 11.1440088,11.152433 L11.1363636,11.2857143 L11.1363636,46.7142857 C11.1363636,47.3003838 11.5750457,47.7834368 12.1402033,47.849454 L12.2727273,47.8571429 L30.4545455,47.8571429 C31.0373135,47.8571429 31.5176218,47.4159541 31.5832639,46.847567 L31.5909091,46.7142857 L31.5909091,11.2857143 C31.5909091,10.6996162 31.1522271,10.2165632 30.5870695,10.150546 L30.4545455,10.1428571 Z M47.0887511,41.7636364 L39.330201,41.7636364 L40.9825038,47.0363636 L45.5767865,47.0363636 L47.0887511,41.7636364 Z M46.8531469,29.1090909 L39.5104895,29.1090909 C38.4045156,29.1090909 37.4984282,29.9694711 37.4183417,31.0607779 L37.4125874,31.2181818 L37.4125874,38.6 C37.4125874,39.7118724 38.2684033,40.6227923 39.3539206,40.703306 L39.5104895,40.7090909 L46.8531469,40.7090909 C47.9591208,40.7090909 48.8652082,39.8487107 48.9452947,38.7574039 L48.951049,38.6 L48.951049,31.2181818 C48.951049,30.1063094 48.0952331,29.1953895 47.0097157,29.1148759 L46.8531469,29.1090909 Z M45.5767865,22.7818182 L40.9825038,22.7818182 L39.330201,28.0545455 L47.0887511,28.0545455 L45.5767865,22.7818182 Z M21.3636364,11.2857143 C21.9912327,11.2857143 22.5,11.7973889 22.5,12.4285714 C22.5,13.059754 21.9912327,13.5714286 21.3636364,13.5714286 C20.7360401,13.5714286 20.2272727,13.059754 20.2272727,12.4285714 C20.2272727,11.7973889 20.7360401,11.2857143 21.3636364,11.2857143 Z"/>
  </g>
</svg>
