<svg xmlns="http://www.w3.org/2000/svg" width="62" height="62" viewBox="0 0 62 62">
  <defs>
    <linearGradient id="icon-11-2-a" x1="100%" x2="0%" y1="100%" y2="0%">
      <stop offset="0%" stop-color="#1E85E9"/>
      <stop offset="20.276%" stop-color="#8671F3"/>
      <stop offset="70.727%" stop-color="#C06CFD" stop-opacity=".99"/>
      <stop offset="100%" stop-color="#FFBEE8"/>
    </linearGradient>
    <linearGradient id="icon-11-2-b" x1="99.713%" x2="2.147%" y1="91.731%" y2="-1.772%">
      <stop offset="0%" stop-color="#1E85E9"/>
      <stop offset="20.276%" stop-color="#8671F3"/>
      <stop offset="70.727%" stop-color="#C06CFD" stop-opacity=".99"/>
      <stop offset="100%" stop-color="#FFBEE8"/>
    </linearGradient>
  </defs>
  <g fill="none" fill-rule="evenodd" transform="translate(1 1)">
    <rect width="60" height="60" fill="url(#icon-11-2-a)" stroke="#000" stroke-opacity=".02" opacity=".062" rx="4"/>
    <path fill="url(#icon-11-2-b)" fill-rule="nonzero" d="M30,10.5683594 C30.2454599,10.5683594 30.4496084,10.7452345 30.4919443,10.9784837 L30.5,11.0683594 L30.500113,16.5090918 C37.7242597,16.7721756 43.5,22.7115896 43.5,30 L43.5,30 L49.0839844,30 C49.3601267,30 49.5839844,30.2238576 49.5839844,30.5 C49.5839844,30.7454599 49.4071092,30.9496084 49.17386,30.9919443 L49.0839844,31 L43.4634991,31.0003405 C42.9636484,37.82469 37.3907628,43.2399694 30.500113,43.4909082 L30.5,49.3608398 C30.5,49.6369822 30.2761424,49.8608398 30,49.8608398 C29.7545401,49.8608398 29.5503916,49.6839647 29.5080557,49.4507155 L29.5,49.3608398 L29.499887,43.4909082 C22.6092372,43.2399694 17.0363516,37.82469 16.5365009,31.0003405 L10.904541,31 C10.6283986,31 10.404541,30.7761424 10.404541,30.5 C10.404541,30.2545401 10.5814162,30.0503916 10.8146654,30.0080557 L10.904541,30 L16.5,30 C16.5,22.7115896 22.2757403,16.7721756 29.499887,16.5090918 L29.5,11.0683594 C29.5,10.792217 29.7238576,10.5683594 30,10.5683594 Z M23.5764338,30.9999071 L17.5394297,31.0001555 C18.035947,37.2719444 23.1616408,42.2408122 29.499932,42.4901801 L29.499668,36.4810299 C26.4771312,36.2509469 24.0324846,33.9536707 23.5764338,30.9999071 Z M42.4605703,31.0001555 L36.4235662,30.9999071 C35.9675154,33.9536707 33.5228688,36.2509469 30.500332,36.4810299 L30.500068,42.4901801 C36.8383592,42.2408122 41.964053,37.2719444 42.4605703,31.0001555 Z M30,24.5 C26.9624339,24.5 24.5,26.9624339 24.5,30 C24.5,33.0375661 26.9624339,35.5 30,35.5 C33.0375661,35.5 35.5,33.0375661 35.5,30 C35.5,26.9624339 33.0375661,24.5 30,24.5 Z M30.500068,17.5098199 L30.500332,23.5189701 C33.8563982,23.7744422 36.5,26.5784979 36.5,30 L36.5,30 L42.5,30 C42.5,23.2639197 37.1718028,17.7723064 30.500068,17.5098199 Z M29.499932,17.5098199 C22.8281972,17.7723064 17.5,23.2639197 17.5,30 L17.5,30 L23.5,30 C23.5,26.5784979 26.1436018,23.7744422 29.499668,23.5189701 Z"/>
  </g>
</svg>
