<svg xmlns="http://www.w3.org/2000/svg" width="40" height="41" viewBox="0 0 40 41">
  <defs>
    <linearGradient id="icon-14-7-a" x1="100%" x2="0%" y1="100%" y2="0%">
      <stop offset="0%" stop-color="#1E85E9"/>
      <stop offset="20.276%" stop-color="#8671F3"/>
      <stop offset="70.727%" stop-color="#C06CFD" stop-opacity=".99"/>
      <stop offset="100%" stop-color="#FFBEE8"/>
    </linearGradient>
  </defs>
  <path fill="url(#icon-14-7-a)" d="M1255.5,2263.5 C1257.433,2263.5 1259,2265.067 1259,2267 C1259,2268.76291 1257.69663,2270.2214 1256.00095,2270.46442 L1256,2274.712 L1268.657,2283.5 L1272.5,2283.5 C1272.74546,2283.5 1272.94961,2283.67688 1272.99194,2283.91012 L1273,2284 L1273.00095,2296.53558 C1274.69663,2296.7786 1276,2298.23709 1276,2300 C1276,2301.933 1274.433,2303.5 1272.5,2303.5 C1270.567,2303.5 1269,2301.933 1269,2300 C1269,2298.23675 1270.30388,2296.77803 1272.00005,2296.53544 L1272,2284.5 L1268.657,2284.5 L1255.9521,2293.40938 C1255.80114,2293.51524 1255.60664,2293.52817 1255.44525,2293.44913 L1255.36766,2293.40195 L1243.336,2284.5 L1240,2284.5 L1240.00095,2296.53558 C1241.69663,2296.7786 1243,2298.23709 1243,2300 C1243,2301.933 1241.433,2303.5 1239.5,2303.5 C1237.567,2303.5 1236,2301.933 1236,2300 C1236,2298.23675 1237.30388,2296.77803 1239.00005,2296.53544 L1239,2284 C1239,2283.75454 1239.17688,2283.55039 1239.41012,2283.50806 L1239.5,2283.5 L1243.332,2283.5 L1255,2274.778 L1255.00005,2270.46456 C1253.36586,2270.23083 1252.09582,2268.86824 1252.00518,2267.19204 L1252,2267 C1252,2265.067 1253.567,2263.5 1255.5,2263.5 Z M1239.5,2297.5 C1238.11929,2297.5 1237,2298.61929 1237,2300 C1237,2301.38071 1238.11929,2302.5 1239.5,2302.5 C1240.88071,2302.5 1242,2301.38071 1242,2300 C1242,2298.61929 1240.88071,2297.5 1239.5,2297.5 Z M1272.5,2297.5 C1271.11929,2297.5 1270,2298.61929 1270,2300 C1270,2301.38071 1271.11929,2302.5 1272.5,2302.5 C1273.88071,2302.5 1275,2301.38071 1275,2300 C1275,2298.61929 1273.88071,2297.5 1272.5,2297.5 Z M1255.549,2275.615 L1244.337,2283.998 L1255.672,2292.383 L1267.625,2284.001 L1255.549,2275.615 Z M1255.5,2264.5 C1254.11929,2264.5 1253,2265.61929 1253,2267 C1253,2268.38071 1254.11929,2269.5 1255.5,2269.5 C1256.88071,2269.5 1258,2268.38071 1258,2267 C1258,2265.61929 1256.88071,2264.5 1255.5,2264.5 Z" transform="translate(-1236 -2263)"/>
</svg>
