<svg xmlns="http://www.w3.org/2000/svg" xmlns:xlink="http://www.w3.org/1999/xlink" width="62" height="62" viewBox="0 0 62 62">
  <defs>
    <linearGradient id="icon-1-6-b" x1="100%" x2="0%" y1="100%" y2="0%">
      <stop offset="0%" stop-color="#1E85E9"/>
      <stop offset="20.276%" stop-color="#8671F3"/>
      <stop offset="70.727%" stop-color="#C06CFD" stop-opacity=".99"/>
      <stop offset="100%" stop-color="#FFBEE8"/>
    </linearGradient>
    <rect id="icon-1-6-a" width="60" height="60" x="0" y="0" rx="4"/>
    <linearGradient id="icon-1-6-c" x1="93.788%" x2="6.212%" y1="100%" y2="0%">
      <stop offset="0%" stop-color="#1E85E9"/>
      <stop offset="20.276%" stop-color="#8671F3"/>
      <stop offset="70.727%" stop-color="#C06CFD" stop-opacity=".99"/>
      <stop offset="100%" stop-color="#FFBEE8"/>
    </linearGradient>
  </defs>
  <g fill="none" fill-rule="evenodd" transform="translate(1 1)">
    <g opacity=".062">
      <use fill="#FAFAFA" xlink:href="#icon-1-6-a"/>
      <use fill="url(#icon-1-6-b)" stroke="#000" stroke-opacity=".02" xlink:href="#icon-1-6-a"/>
    </g>
    <path fill="url(#icon-1-6-c)" fill-rule="nonzero" d="M34.4624068,30.9139329 L36.3968148,31.0741375 C39.8006669,31.376839 42.4051561,32.0083195 43.0596742,37.4954776 L43.040801,37.4927365 C44.791165,37.6256304 46.176374,39.0161851 46.176374,40.7238432 C46.176374,41.4207172 45.9442563,42.0890611 45.5134071,42.6448568 L45.5134071,42.6448568 L45.4453588,42.7326707 L45.3123536,42.8804809 C45.2320359,42.9662373 45.1490145,43.0459024 45.0679761,43.115248 L45.0679761,43.115248 L40.8423157,47.3831527 L36.2530554,42.8044655 L36.2188411,42.7050251 L36.0941621,42.5420475 C35.755359,42.0674644 35.5556808,41.5174157 35.5154907,40.9410977 L35.5154907,40.9410977 L35.5079351,40.7238432 C35.5079351,38.9276784 37.0404539,37.4823394 38.9184691,37.4823394 C39.566445,37.4823394 40.2234944,37.8600345 40.8688943,38.545891 L40.8421546,38.5181478 L40.9770822,38.3809017 C41.3699746,37.9959329 41.7666109,37.7266945 42.1622896,37.5887882 L42.0982801,37.6122378 L42.0982801,37.6122378 C41.8442827,35.4544701 41.2692973,34.0941128 40.4023359,33.3044061 C39.511694,32.493129 38.4744462,32.2228735 35.873389,32.0035767 L35.2198873,31.9502689 L35.1735841,32.0631609 C34.3517029,33.8797272 31.6761717,35.0626715 28.6080877,35.0626715 C25.5403864,35.0626715 22.8646756,33.8794466 22.0435905,32.0626793 L21.9968422,31.9502689 L21.648045,31.9790722 C18.821554,32.2040364 17.7391833,32.4632901 16.8150982,33.3057188 C15.6099826,34.4043448 14.9698581,36.6071493 14.9698581,40.524167 C14.9698581,43.7801647 16.378626,44.5410935 21.4965255,44.5929922 L35.114663,44.5959355 C36.2114578,44.5959355 37.1519789,44.5696175 37.9554334,44.5020728 L38.8459178,45.3915329 C37.7390455,45.5451513 36.4743388,45.5657936 35.114663,45.5657936 L33.5756794,45.5620607 L23.1221725,45.5630285 L21.6156326,45.5646903 C17.2629021,45.5430544 14,45.1574156 14,40.524167 C14,30.9139329 17.8453274,31.3629544 22.7553672,30.9139329 C22.7937352,32.6732227 25.3990298,34.0928134 28.6080877,34.0928134 C31.8182113,34.0928134 34.422973,32.6732227 34.4624068,30.9139329 Z M42.76584,38.4521975 C42.4338266,38.4521975 42.0014438,38.7007621 41.5219403,39.210452 L41.5219403,39.210452 L40.8423095,39.932868 L40.162586,39.2105363 C39.6828702,38.7007496 39.2504816,38.4521975 38.9184691,38.4521975 C37.5638033,38.4521975 36.4777932,39.4764282 36.4777932,40.7238432 C36.4777932,41.2253295 36.6520775,41.7045918 36.9774863,42.1012098 L36.9774863,42.1012098 L37.0269419,42.1614879 L37.0820148,42.2618 L40.8373053,46.0083618 L44.3811568,42.429596 L44.5158269,42.3068477 C44.5778938,42.2472803 44.638404,42.1826112 44.7007727,42.1089177 L44.7007727,42.1089177 L44.7177074,42.0901351 L44.7292275,42.0734392 L44.7468886,42.0506565 C45.0468692,41.6636813 45.2065159,41.2040055 45.2065159,40.7238432 C45.2065159,39.4764282 44.1205059,38.4521975 42.76584,38.4521975 Z M28.6091534,13 C33.0507837,13 36.6504493,16.6028379 36.6499164,21.0471912 C36.6499164,23.4090872 35.6320983,26.4045194 34.0115827,28.6922895 C33.4973447,29.4186165 32.9218245,30.0702843 32.2988772,30.61103 C31.8384611,31.0104565 31.3535321,31.346956 30.8472875,31.6039969 C30.1364135,31.9650272 29.3855728,32.1735396 28.6086205,32.1735396 C27.8322012,32.1735396 27.0829592,31.9660938 26.373151,31.6055967 C25.8658406,31.3474893 25.3793129,31.0104565 24.9188967,30.6104967 C24.2964823,30.0697511 23.7204292,29.4180832 23.2061913,28.6922895 C21.5856757,26.4045194 20.5683905,23.4096204 20.5683905,21.0471912 C20.5683905,16.6028379 24.168056,13 28.6091534,13 Z M28.6091534,13.9698581 C24.7039746,13.9698581 21.5382486,17.1381951 21.5382486,21.0471912 C21.5382486,23.2173488 22.5002708,26.0178064 23.9975503,28.1315974 C24.47693,28.8081924 25.0027283,29.3985718 25.5549328,29.8783199 C25.9659919,30.2354037 26.3875407,30.5247504 26.812327,30.7408719 C27.4170503,31.0479984 28.0163228,31.2036815 28.6086205,31.2036815 C29.2007623,31.2036815 29.8015741,31.0473131 30.4082071,30.7392234 C30.8308535,30.5246287 31.2507287,30.2363744 31.6631117,29.8786183 C32.2150387,29.3995214 32.7402049,28.809592 33.2201567,28.131692 C34.7176112,26.017654 35.6800583,23.2166357 35.6800583,21.0470749 C35.680527,17.1381502 32.5148458,13.9698581 28.6091534,13.9698581 Z"/>
  </g>
</svg>
