<?xml version="1.0" encoding="UTF-8"?>
<svg width="50px" height="50px" viewBox="0 0 50 50" version="1.1" xmlns="http://www.w3.org/2000/svg" xmlns:xlink="http://www.w3.org/1999/xlink">
    <title>icon-27-8</title>
    <defs>
        <linearGradient x1="100%" y1="100%" x2="0%" y2="0%" id="linearGradient-1">
            <stop stop-color="#1E85E9" offset="0%"></stop>
            <stop stop-color="#8671F3" offset="20.275549%"></stop>
            <stop stop-color="#C06CFD" stop-opacity="0.99" offset="70.7268792%"></stop>
            <stop stop-color="#FFBEE8" offset="100%"></stop>
        </linearGradient>
    </defs>
    <g id="Page-1" stroke="none" stroke-width="1" fill="none" fill-rule="evenodd">
        <g id="icons" transform="translate(-1368.000000, -4092.000000)" fill="url(#linearGradient-1)" fill-rule="nonzero">
            <path d="M1393,4092 C1399.62301,4092 1405.6445,4094.57541 1410.11763,4098.7794 L1413.89871,4094.90904 C1414.08791,4094.7154 1414.39826,4094.7118 1414.5919,4094.901 C1414.76403,4095.06917 1414.786,4095.33308 1414.65588,4095.52565 L1414.59995,4095.59419 L1410.8183,4099.46408 C1415.2597,4103.97655 1418,4110.16826 1418,4117 C1418,4130.80712 1406.80712,4142 1393,4142 C1379.19288,4142 1368,4130.80712 1368,4117 C1368,4103.19288 1379.19288,4092 1393,4092 Z M1393,4092.98039 C1379.73434,4092.98039 1368.98039,4103.73434 1368.98039,4117 C1368.98039,4130.26566 1379.73434,4141.01961 1393,4141.01961 C1406.26566,4141.01961 1417.01961,4130.26566 1417.01961,4117 C1417.01961,4110.44333 1414.39251,4104.50026 1410.13351,4100.16596 L1405.33625,4105.07627 C1408.32063,4108.16324 1410.15686,4112.36718 1410.15686,4117 C1410.15686,4125.13413 1404.45488,4132.09029 1396.62432,4133.77326 L1396.42826,4133.81409 C1396.35105,4135.6408 1394.8457,4137.09804 1393,4137.09804 C1391.10491,4137.09804 1389.56863,4135.56176 1389.56863,4133.66667 L1389.5726,4133.8144 C1381.64837,4132.2088 1375.84314,4125.20867 1375.84314,4117 C1375.84314,4113.58547 1376.84318,4110.31907 1378.68756,4107.53562 C1378.13924,4106.92772 1377.80392,4106.12067 1377.80392,4105.23529 C1377.80392,4103.3402 1379.3402,4101.80392 1381.23529,4101.80392 C1382.12017,4101.80392 1382.92681,4102.13887 1383.53536,4102.68889 L1383.23953,4102.8882 C1386.08527,4100.91632 1389.46295,4099.84314 1393,4099.84314 C1397.48998,4099.84314 1401.57713,4101.56789 1404.63504,4104.39101 L1409.43303,4099.48141 C1405.13668,4095.4497 1399.35671,4092.98039 1393,4092.98039 Z M1393,4131.21569 C1391.64636,4131.21569 1390.54902,4132.31303 1390.54902,4133.66667 C1390.54902,4135.02031 1391.64636,4136.11765 1393,4136.11765 C1394.35364,4136.11765 1395.45098,4135.02031 1395.45098,4133.66667 C1395.45098,4132.31303 1394.35364,4131.21569 1393,4131.21569 Z M1393,4100.82353 C1389.81484,4100.82353 1386.76886,4101.7456 1384.16459,4103.44727 C1384.48299,4103.96763 1384.66667,4104.58001 1384.66667,4105.23529 C1384.66667,4107.13039 1383.13039,4108.66667 1381.23529,4108.66667 C1380.58043,4108.66667 1379.96842,4108.48322 1379.44783,4108.16492 L1379.62539,4107.89778 C1377.80959,4110.56057 1376.82353,4113.70602 1376.82353,4117 C1376.82353,4124.70613 1382.25035,4131.28312 1389.67109,4132.83373 C1390.04301,4131.34081 1391.3924,4130.23529 1393,4130.23529 C1394.60724,4130.23529 1395.95639,4131.34031 1396.32916,4132.83207 L1396.10063,4132.87971 C1403.64528,4131.4154 1409.17647,4124.77873 1409.17647,4117 C1409.17647,4112.6416 1407.45283,4108.68578 1404.65003,4105.777 L1394.31994,4116.35087 C1394.4164,4116.54665 1394.47059,4116.767 1394.47059,4117 C1394.47059,4117.81218 1393.81218,4118.47059 1393,4118.47059 C1392.18782,4118.47059 1391.52941,4117.81218 1391.52941,4117 C1391.52941,4116.18782 1392.18782,4115.52941 1393,4115.52941 C1393.22086,4115.52941 1393.43036,4115.5781 1393.61833,4115.66533 L1398.462,4110.707 L1398.43353,4110.68143 C1396.93503,4109.39112 1395.02477,4108.66667 1393,4108.66667 C1388.39763,4108.66667 1384.66667,4112.39763 1384.66667,4117 C1384.66667,4121.60237 1388.39763,4125.33333 1393,4125.33333 C1397.51869,4125.33333 1401.19737,4121.73681 1401.32965,4117.25016 L1401.33333,4117 L1402.31373,4117 C1402.31373,4122.14383 1398.14383,4126.31373 1393,4126.31373 C1387.85617,4126.31373 1383.68627,4122.14383 1383.68627,4117 C1383.68627,4111.85617 1387.85617,4107.68627 1393,4107.68627 C1395.2729,4107.68627 1397.41896,4108.50433 1399.09701,4109.95904 L1399.148,4110.005 L1403.9497,4105.09265 C1401.06877,4102.44204 1397.2234,4100.82353 1393,4100.82353 Z M1381.23529,4102.78431 C1379.88166,4102.78431 1378.78431,4103.88166 1378.78431,4105.23529 C1378.78431,4106.58893 1379.88166,4107.68627 1381.23529,4107.68627 C1382.58893,4107.68627 1383.68627,4106.58893 1383.68627,4105.23529 C1383.68627,4103.88166 1382.58893,4102.78431 1381.23529,4102.78431 Z" id="icon-27-8"></path>
        </g>
    </g>
</svg>