<svg xmlns="http://www.w3.org/2000/svg" xmlns:xlink="http://www.w3.org/1999/xlink" width="62" height="62" viewBox="0 0 62 62">
  <defs>
    <linearGradient id="icon-12-9-b" x1="100%" x2="0%" y1="100%" y2="0%">
      <stop offset="0%" stop-color="#1E85E9"/>
      <stop offset="20.276%" stop-color="#8671F3"/>
      <stop offset="70.727%" stop-color="#C06CFD" stop-opacity=".99"/>
      <stop offset="100%" stop-color="#FFBEE8"/>
    </linearGradient>
    <rect id="icon-12-9-a" width="60" height="60" x="0" y="0" rx="4"/>
    <linearGradient id="icon-12-9-c" x1="74.751%" x2="25.249%" y1="100%" y2="0%">
      <stop offset="0%" stop-color="#1E85E9"/>
      <stop offset="20.276%" stop-color="#8671F3"/>
      <stop offset="70.727%" stop-color="#C06CFD" stop-opacity=".99"/>
      <stop offset="100%" stop-color="#FFBEE8"/>
    </linearGradient>
  </defs>
  <g fill="none" fill-rule="evenodd" transform="translate(1 1)">
    <g opacity=".062">
      <use fill="#FAFAFA" xlink:href="#icon-12-9-a"/>
      <use fill="url(#icon-12-9-b)" stroke="#000" stroke-opacity=".02" xlink:href="#icon-12-9-a"/>
    </g>
    <path fill="url(#icon-12-9-c)" fill-rule="nonzero" d="M25,45.4545455 C26.2623651,45.4545455 27.2857143,46.4720801 27.2857143,47.7272727 C27.2857143,48.9824653 26.2623651,50 25,50 C23.7376349,50 22.7142857,48.9824653 22.7142857,47.7272727 C22.7142857,46.4720801 23.7376349,45.4545455 25,45.4545455 Z M33.2285714,45.4545455 C34.4909366,45.4545455 35.5142857,46.4720801 35.5142857,47.7272727 C35.5142857,48.9824653 34.4909366,50 33.2285714,50 C31.9662063,50 30.9428571,48.9824653 30.9428571,47.7272727 C30.9428571,46.4720801 31.9662063,45.4545455 33.2285714,45.4545455 Z M25,46.3636364 C24.2425809,46.3636364 23.6285714,46.9741572 23.6285714,47.7272727 C23.6285714,48.4803883 24.2425809,49.0909091 25,49.0909091 C25.7574191,49.0909091 26.3714286,48.4803883 26.3714286,47.7272727 C26.3714286,46.9741572 25.7574191,46.3636364 25,46.3636364 Z M33.2285714,46.3636364 C32.4711523,46.3636364 31.8571429,46.9741572 31.8571429,47.7272727 C31.8571429,48.4803883 32.4711523,49.0909091 33.2285714,49.0909091 C33.9859905,49.0909091 34.6,48.4803883 34.6,47.7272727 C34.6,46.9741572 33.9859905,46.3636364 33.2285714,46.3636364 Z M25.4571429,14.5454545 L25.4568571,18.181 L32.7708571,18.181 L32.7714286,14.5454545 L33.6857143,14.5454545 L33.6848571,18.71 L40.503,25.887 L43.1428571,25.8876953 L43.1428571,26.8876953 L41,26.887 L41,33.887 L43.1428571,33.8876953 L43.1428571,34.8876953 L41,34.887 L41,41.8181818 L33.6848571,41.818 L33.6857143,45.4545455 L32.7714286,45.4545455 L32.7708571,41.818 L25.4568571,41.818 L25.4571429,45.4545455 L24.5428571,45.4545455 L24.5428571,41.818 L18.1428571,41.8181818 L18.1428571,34.8876953 L15,34.8876953 L15,33.8876953 L18.1428571,33.8876953 L18.1428571,26.8876953 L15,26.8876953 L15,25.8876953 L18.1428571,25.8876953 L18.1428571,18.1818182 L24.5428571,18.181 L24.5428571,14.5454545 L25.4571429,14.5454545 Z M32.7888,19.0909091 L19.0571429,19.0909091 L19.0571429,40.9090909 L40.0857143,40.9090909 L40.085,34.887 L40,34.8876953 L40,33.8876953 L40.085,33.887 L40.085,26.887 L40,26.8876953 L39.999,26.68 L32.7888,19.0909091 Z M25,10 C26.2623651,10 27.2857143,11.0175347 27.2857143,12.2727273 C27.2857143,13.5279199 26.2623651,14.5454545 25,14.5454545 C23.7376349,14.5454545 22.7142857,13.5279199 22.7142857,12.2727273 C22.7142857,11.0175347 23.7376349,10 25,10 Z M33.2285714,10 C34.4909366,10 35.5142857,11.0175347 35.5142857,12.2727273 C35.5142857,13.5279199 34.4909366,14.5454545 33.2285714,14.5454545 C31.9662063,14.5454545 30.9428571,13.5279199 30.9428571,12.2727273 C30.9428571,11.0175347 31.9662063,10 33.2285714,10 Z M25,10.9090909 C24.2425809,10.9090909 23.6285714,11.5196117 23.6285714,12.2727273 C23.6285714,13.0258428 24.2425809,13.6363636 25,13.6363636 C25.7574191,13.6363636 26.3714286,13.0258428 26.3714286,12.2727273 C26.3714286,11.5196117 25.7574191,10.9090909 25,10.9090909 Z M33.2285714,10.9090909 C32.4711523,10.9090909 31.8571429,11.5196117 31.8571429,12.2727273 C31.8571429,13.0258428 32.4711523,13.6363636 33.2285714,13.6363636 C33.9859905,13.6363636 34.6,13.0258428 34.6,12.2727273 C34.6,11.5196117 33.9859905,10.9090909 33.2285714,10.9090909 Z"/>
  </g>
</svg>
