<svg xmlns="http://www.w3.org/2000/svg" width="27" height="40" viewBox="0 0 27 40">
  <defs>
    <linearGradient id="icon-23-4-a" x1="71.958%" x2="28.042%" y1="100%" y2="0%">
      <stop offset="0%" stop-color="#1E85E9"/>
      <stop offset="20.276%" stop-color="#8671F3"/>
      <stop offset="70.727%" stop-color="#C06CFD" stop-opacity=".99"/>
      <stop offset="100%" stop-color="#FFBEE8"/>
    </linearGradient>
  </defs>
  <path fill="url(#icon-23-4-a)" d="M833.653493,3533.21697 L833.700185,3533.30304 L836.700185,3540.30304 C836.808962,3540.55686 836.691387,3540.85079 836.437572,3540.95957 C836.211958,3541.05626 835.954642,3540.97411 835.823848,3540.7764 L835.781039,3540.69696 L833.74,3535.936 L833.741859,3550.82534 C833.803712,3551.66966 833.811331,3552.56585 833.764992,3553.51362 L833.74,3553.94 L833.739956,3554.49902 C834.207878,3553.40002 834.836321,3552.45462 835.626683,3551.66426 C837.843746,3549.44719 841.311228,3548.46305 846.000649,3548.68094 C846.258143,3548.69291 846.46434,3548.89867 846.476852,3549.15614 C846.698855,3553.72427 845.711471,3557.13582 843.487031,3559.36026 C841.344193,3561.5031 838.086742,3562.52116 833.740531,3562.43908 L833.741859,3566.82534 C833.813304,3567.80058 833.812389,3568.84503 833.739545,3569.95824 L833.74,3569.94 L833.740612,3572.5 C833.740612,3572.77614 833.516754,3573 833.240612,3573 C832.995152,3573 832.791004,3572.82312 832.748668,3572.58988 L832.740612,3572.5 L832.739851,3570.43957 C828.407154,3570.51694 825.15876,3569.49865 823.020364,3567.36026 C820.795924,3565.13582 819.80854,3561.72427 820.030543,3557.15614 C820.043055,3556.89867 820.249252,3556.69291 820.506746,3556.68094 C825.196167,3556.46305 828.663649,3557.44719 830.880712,3559.66426 C831.656338,3560.43988 832.276026,3561.36482 832.741098,3562.43771 L832.739987,3561.46323 C832.703715,3560.69086 832.703418,3559.9529 832.739247,3559.24948 L832.739851,3554.43957 C828.407154,3554.51694 825.15876,3553.49865 823.020364,3551.36026 C820.795924,3549.13582 819.80854,3545.72427 820.030543,3541.15614 C820.043055,3540.89867 820.249252,3540.69291 820.506746,3540.68094 C825.196167,3540.46305 828.663649,3541.44719 830.880712,3543.66426 C831.656338,3544.43988 832.276026,3545.36482 832.741098,3546.43771 L832.74,3535.933 L830.700185,3540.69696 C830.603493,3540.92257 830.360501,3541.04054 830.129434,3540.98757 L830.043652,3540.95957 C829.818039,3540.86288 829.700072,3540.61989 829.75304,3540.38882 L829.781039,3540.30304 L832.781039,3533.30304 C832.940885,3532.93007 833.441258,3532.90138 833.653493,3533.21697 Z M821.846048,3557.65144 L821.423313,3557.65351 L821.011546,3557.66236 L821.00237,3558.05111 C820.947907,3561.78989 821.797576,3564.58192 823.531208,3566.44945 L823.531208,3566.44945 L823.727471,3566.65315 C825.594536,3568.52022 828.467574,3569.4578 832.370053,3569.44356 L832.370053,3569.44356 L832.74,3569.437 L832.741087,3566.84741 C832.544854,3564.26888 831.81325,3562.2513 830.556187,3560.78459 L830.368637,3560.57405 L830.173605,3560.37136 C828.316258,3558.51402 825.407213,3557.59969 821.423313,3557.65351 Z M833.740787,3561.43722 L834.137342,3561.44356 C838.039821,3561.4578 840.912859,3560.52022 842.779924,3558.65315 L842.976187,3558.44945 C844.709819,3556.58192 845.559488,3553.78989 845.505025,3550.05111 L845.495731,3549.66248 L845.084082,3549.65351 C841.100182,3549.59969 838.191137,3550.51402 836.33379,3552.37136 L836.138758,3552.57405 C834.697526,3554.13071 833.893411,3556.35531 833.739662,3559.26133 L833.740787,3561.43722 Z M821.846048,3541.65144 L821.423313,3541.65351 L821.011546,3541.66236 L821.00237,3542.05111 C820.947907,3545.78989 821.797576,3548.58192 823.531208,3550.44945 L823.531208,3550.44945 L823.727471,3550.65315 C825.594536,3552.52022 828.467574,3553.4578 832.370053,3553.44356 L832.370053,3553.44356 L832.74,3553.437 L832.741087,3550.84741 C832.544854,3548.26888 831.81325,3546.2513 830.556187,3544.78459 L830.368637,3544.57405 L830.173605,3544.37136 C828.316258,3542.51402 825.407213,3541.59969 821.423313,3541.65351 Z" transform="translate(-820 -3533)"/>
</svg>
