<svg xmlns="http://www.w3.org/2000/svg" width="34" height="42" viewBox="0 0 34 42">
  <defs>
    <linearGradient id="icon-25-6-a" x1="76.801%" x2="17.234%" y1="95.932%" y2="0%">
      <stop offset="0%" stop-color="#1E85E9"/>
      <stop offset="20.276%" stop-color="#8671F3"/>
      <stop offset="70.727%" stop-color="#C06CFD" stop-opacity=".99"/>
      <stop offset="100%" stop-color="#FFBEE8"/>
    </linearGradient>
  </defs>
  <path fill="url(#icon-25-6-a)" d="M1130.5,3818 C1130.74546,3818 1130.94961,3818.17688 1130.99194,3818.41012 L1131,3818.5 L1131,3854.5 C1131,3855.2797 1130.40511,3855.92045 1129.64446,3855.99313 L1129.5,3856 L1101.5,3856 C1101.22386,3856 1101,3855.77614 1101,3855.5 C1101,3855.25454 1101.17688,3855.05039 1101.41012,3855.00806 L1101.5,3855 L1129.5,3855 C1129.74546,3855 1129.94961,3854.82312 1129.99194,3854.58988 L1130,3854.5 L1130,3818.5 C1130,3818.22386 1130.22386,3818 1130.5,3818 Z M1126.5,3814 C1127.32843,3814 1128,3814.67157 1128,3815.5 L1128,3815.5 L1128,3851.5 C1128,3852.32843 1127.32843,3853 1126.5,3853 L1126.5,3853 L1098.5,3853 C1097.67157,3853 1097,3852.32843 1097,3851.5 L1097,3851.5 L1097,3815.5 C1097,3814.67157 1097.67157,3814 1098.5,3814 L1098.5,3814 Z M1126.5,3815 L1098.5,3815 C1098.22386,3815 1098,3815.22386 1098,3815.5 L1098,3815.5 L1098,3851.5 C1098,3851.77614 1098.22386,3852 1098.5,3852 L1098.5,3852 L1126.5,3852 C1126.77614,3852 1127,3851.77614 1127,3851.5 L1127,3851.5 L1127,3815.5 C1127,3815.22386 1126.77614,3815 1126.5,3815 L1126.5,3815 Z M1121.5,3843.5 C1121.77614,3843.5 1122,3843.72386 1122,3844 C1122,3844.24546 1121.82312,3844.44961 1121.58988,3844.49194 L1121.5,3844.5 L1103.5,3844.5 C1103.22386,3844.5 1103,3844.27614 1103,3844 C1103,3843.75454 1103.17688,3843.55039 1103.41012,3843.50806 L1103.5,3843.5 L1121.5,3843.5 Z M1121.5,3838.5 C1121.77614,3838.5 1122,3838.72386 1122,3839 C1122,3839.24546 1121.82312,3839.44961 1121.58988,3839.49194 L1121.5,3839.5 L1103.5,3839.5 C1103.22386,3839.5 1103,3839.27614 1103,3839 C1103,3838.75454 1103.17688,3838.55039 1103.41012,3838.50806 L1103.5,3838.5 L1121.5,3838.5 Z M1121.5,3833.5 C1121.77614,3833.5 1122,3833.72386 1122,3834 C1122,3834.24546 1121.82312,3834.44961 1121.58988,3834.49194 L1121.5,3834.5 L1103.5,3834.5 C1103.22386,3834.5 1103,3834.27614 1103,3834 C1103,3833.75454 1103.17688,3833.55039 1103.41012,3833.50806 L1103.5,3833.5 L1121.5,3833.5 Z M1107.5,3829 C1107.77614,3829 1108,3829.22386 1108,3829.5 L1108,3829.5 L1108,3831.5 C1108,3831.77614 1107.77614,3832 1107.5,3832 L1107.5,3832 L1103.5,3832 C1103.22386,3832 1103,3831.77614 1103,3831.5 L1103,3831.5 L1103,3829.5 C1103,3829.22386 1103.22386,3829 1103.5,3829 L1103.5,3829 Z M1114.5,3826 C1114.77614,3826 1115,3826.22386 1115,3826.5 L1115,3826.5 L1115,3831.5 C1115,3831.77614 1114.77614,3832 1114.5,3832 L1114.5,3832 L1110.5,3832 C1110.22386,3832 1110,3831.77614 1110,3831.5 L1110,3831.5 L1110,3826.5 C1110,3826.22386 1110.22386,3826 1110.5,3826 L1110.5,3826 Z M1121.5,3822 C1121.77614,3822 1122,3822.22386 1122,3822.5 L1122,3822.5 L1122,3831.5 C1122,3831.77614 1121.77614,3832 1121.5,3832 L1121.5,3832 L1117.5,3832 C1117.22386,3832 1117,3831.77614 1117,3831.5 L1117,3831.5 L1117,3822.5 C1117,3822.22386 1117.22386,3822 1117.5,3822 L1117.5,3822 Z M1107,3830 L1104,3830 L1104,3831 L1107,3831 L1107,3830 Z M1114,3827 L1111,3827 L1111,3831 L1114,3831 L1114,3827 Z M1121,3823 L1118,3823 L1118,3831 L1121,3831 L1121,3823 Z" transform="translate(-1097 -3814)"/>
</svg>
