<svg xmlns="http://www.w3.org/2000/svg" width="39" height="39" viewBox="0 0 39 39">
  <defs>
    <linearGradient id="icon-25-1-a" x1="100%" x2="0%" y1="100%" y2="0%">
      <stop offset="0%" stop-color="#1E85E9"/>
      <stop offset="20.276%" stop-color="#8671F3"/>
      <stop offset="70.727%" stop-color="#C06CFD" stop-opacity=".99"/>
      <stop offset="100%" stop-color="#FFBEE8"/>
    </linearGradient>
  </defs>
  <path fill="url(#icon-25-1-a)" d="M407.5,3815 C409.432997,3815 411,3816.567 411,3818.5 C411,3820.26291 409.696634,3821.7214 408.00095,3821.96442 L408.000332,3828.01897 C409.419187,3828.12698 410.710699,3828.69051 411.728939,3829.56364 L416.010272,3825.28245 C414.982547,3823.91155 415.092068,3821.95818 416.338835,3820.71142 C417.70567,3819.34458 419.921747,3819.34458 421.288582,3820.71142 C422.655417,3822.07825 422.655417,3824.29433 421.288582,3825.66117 C420.041815,3826.90793 418.088454,3827.01745 416.717547,3825.98973 L412.436356,3830.27106 C413.309695,3831.28954 413.873289,3832.58142 413.981106,3834.00067 L420.035437,3834.00005 C420.278031,3832.30388 421.736747,3831 423.5,3831 C425.432997,3831 427,3832.567 427,3834.5 C427,3836.433 425.432997,3838 423.5,3838 C421.737093,3838 420.278604,3836.69663 420.03558,3835.00095 L413.98103,3835.00033 C413.873023,3836.41919 413.309489,3837.7107 412.436356,3838.72894 L416.717547,3843.01027 C418.088454,3841.98255 420.041815,3842.09207 421.288582,3843.33883 C422.655417,3844.70567 422.655417,3846.92175 421.288582,3848.28858 C419.921747,3849.65542 417.70567,3849.65542 416.338835,3848.28858 C415.092068,3847.04182 414.982547,3845.08845 416.010272,3843.71755 L411.728939,3839.43636 C410.710699,3840.30949 409.419187,3840.87302 408.000332,3840.98103 L408.00095,3847.03558 C409.696634,3847.2786 411,3848.73709 411,3850.5 C411,3852.433 409.432997,3854 407.5,3854 C405.567003,3854 404,3852.433 404,3850.5 C404,3848.73675 405.303878,3847.27803 407.00005,3847.03544 L407.000671,3840.98111 C405.581421,3840.87329 404.289541,3840.3097 403.271061,3839.43636 L398.989728,3843.71755 C400.017453,3845.08845 399.907932,3847.04182 398.661165,3848.28858 C397.29433,3849.65542 395.078253,3849.65542 393.711418,3848.28858 C392.344583,3846.92175 392.344583,3844.70567 393.711418,3843.33883 C394.958185,3842.09207 396.911546,3841.98255 398.282453,3843.01027 L402.563644,3838.72894 C401.690511,3837.7107 401.126977,3836.41919 401.01897,3835.00033 L394.96442,3835.00095 C394.721396,3836.69663 393.262907,3838 391.5,3838 C389.567003,3838 388,3836.433 388,3834.5 C388,3832.567 389.567003,3831 391.5,3831 C393.263253,3831 394.721969,3832.30388 394.964563,3834.00005 L401.018894,3834.00067 C401.126676,3832.58188 401.689939,3831.29038 402.562793,3830.27205 L398.282453,3825.98973 C396.911546,3827.01745 394.958185,3826.90793 393.711418,3825.66117 C392.344583,3824.29433 392.344583,3822.07825 393.711418,3820.71142 C395.078253,3819.34458 397.29433,3819.34458 398.661165,3820.71142 C399.907932,3821.95818 400.017453,3823.91155 398.989728,3825.28245 L403.272054,3829.56279 C404.290381,3828.68994 405.581882,3828.12668 407.000671,3828.01889 L407.00005,3821.96456 C405.303878,3821.72197 404,3820.26325 404,3818.5 C404,3816.567 405.567003,3815 407.5,3815 Z M407.5,3848 C406.119288,3848 405,3849.11929 405,3850.5 C405,3851.88071 406.119288,3853 407.5,3853 C408.880712,3853 410,3851.88071 410,3850.5 C410,3849.11929 408.880712,3848 407.5,3848 Z M420.581475,3844.04594 C419.605165,3843.06963 418.022252,3843.06963 417.045942,3844.04594 C416.069631,3845.02225 416.069631,3846.60516 417.045942,3847.58148 C418.022252,3848.55779 419.605165,3848.55779 420.581475,3847.58148 C421.557786,3846.60516 421.557786,3845.02225 420.581475,3844.04594 Z M397.954058,3844.04594 C396.977748,3843.06963 395.394835,3843.06963 394.418525,3844.04594 C393.442214,3845.02225 393.442214,3846.60516 394.418525,3847.58148 C395.394835,3848.55779 396.977748,3848.55779 397.954058,3847.58148 C398.930369,3846.60516 398.930369,3845.02225 397.954058,3844.04594 Z M407.5,3829 C404.462434,3829 402,3831.46243 402,3834.5 C402,3837.53757 404.462434,3840 407.5,3840 C410.537566,3840 413,3837.53757 413,3834.5 C413,3831.46243 410.537566,3829 407.5,3829 Z M423.5,3832 C422.119288,3832 421,3833.11929 421,3834.5 C421,3835.88071 422.119288,3837 423.5,3837 C424.880712,3837 426,3835.88071 426,3834.5 C426,3833.11929 424.880712,3832 423.5,3832 Z M391.5,3832 C390.119288,3832 389,3833.11929 389,3834.5 C389,3835.88071 390.119288,3837 391.5,3837 C392.880712,3837 394,3835.88071 394,3834.5 C394,3833.11929 392.880712,3832 391.5,3832 Z M420.581475,3821.41852 C419.605165,3820.44221 418.022252,3820.44221 417.045942,3821.41852 C416.069631,3822.39484 416.069631,3823.97775 417.045942,3824.95406 C418.022252,3825.93037 419.605165,3825.93037 420.581475,3824.95406 C421.557786,3823.97775 421.557786,3822.39484 420.581475,3821.41852 Z M397.954058,3821.41852 C396.977748,3820.44221 395.394835,3820.44221 394.418525,3821.41852 C393.442214,3822.39484 393.442214,3823.97775 394.418525,3824.95406 C395.394835,3825.93037 396.977748,3825.93037 397.954058,3824.95406 C398.930369,3823.97775 398.930369,3822.39484 397.954058,3821.41852 Z M407.5,3816 C406.119288,3816 405,3817.11929 405,3818.5 C405,3819.88071 406.119288,3821 407.5,3821 C408.880712,3821 410,3819.88071 410,3818.5 C410,3817.11929 408.880712,3816 407.5,3816 Z" transform="translate(-388 -3815)"/>
</svg>
