<svg xmlns="http://www.w3.org/2000/svg" xmlns:xlink="http://www.w3.org/1999/xlink" width="62" height="62" viewBox="0 0 62 62">
  <defs>
    <linearGradient id="icon-1-9-b" x1="100%" x2="0%" y1="100%" y2="0%">
      <stop offset="0%" stop-color="#1E85E9"/>
      <stop offset="20.276%" stop-color="#8671F3"/>
      <stop offset="70.727%" stop-color="#C06CFD" stop-opacity=".99"/>
      <stop offset="100%" stop-color="#FFBEE8"/>
    </linearGradient>
    <rect id="icon-1-9-a" width="60" height="60" x="0" y="0" rx="4"/>
    <linearGradient id="icon-1-9-c" x1="100%" x2="0%" y1="90.028%" y2="9.972%">
      <stop offset="0%" stop-color="#1E85E9"/>
      <stop offset="20.276%" stop-color="#8671F3"/>
      <stop offset="70.727%" stop-color="#C06CFD" stop-opacity=".99"/>
      <stop offset="100%" stop-color="#FFBEE8"/>
    </linearGradient>
  </defs>
  <g fill="none" fill-rule="evenodd" transform="translate(1 1)">
    <g opacity=".062">
      <use fill="#FAFAFA" xlink:href="#icon-1-9-a"/>
      <use fill="url(#icon-1-9-b)" stroke="#000" stroke-opacity=".02" xlink:href="#icon-1-9-a"/>
    </g>
    <path fill="url(#icon-1-9-c)" fill-rule="nonzero" d="M34.6153846,13 C35.3351041,13 35.926568,13.5832404 35.9936616,14.3289989 L36,14.4706305 L36,17 L47.1463415,17 C48.1213389,17 48.9205213,17.7859824 48.994423,18.7842269 L49,18.9354839 L49,45.0645161 C49,46.1334544 48.1700888,47 47.1463415,47 L47.1463415,47 L12.8536585,47 C11.8299112,47 11,46.1334544 11,45.0645161 L11,45.0645161 L11,18.9354839 C11,17.8665456 11.8299112,17 12.8536585,17 L12.8536585,17 L24,17 L24,14.4706305 C24,13.7062006 24.5491275,13.0779937 25.2512677,13.0067321 L25.3846154,13 L34.6153846,13 Z M42.5694442,32.995608 L42.3466682,33 L33,33 L33,35.6666667 C33,36.3570226 32.4940718,36.9248362 31.8457425,36.9931162 L31.7142857,37 L28.2857143,37 C27.5756339,37 27,36.4030463 27,35.6666667 L27,35.6666667 L27,33 L17.4702389,33 C15.255014,33 13.1771452,31.6252398 11.9997252,29.6165143 L12,45.0344828 C12,45.5677232 12.4132756,46 12.9230769,46 L12.9230769,46 L47.0769231,46 C47.5867244,46 48,45.5677232 48,45.0344828 L48,45.0344828 L48.0008967,29.5463627 C46.8353632,31.5286586 44.7837392,32.9083514 42.5694442,32.995608 Z M31.6,30 L28.4,30 C28.1790861,30 28,30.191878 28,30.4285714 L28,30.4285714 L28,35.5714286 C28,35.808122 28.1790861,36 28.4,36 L28.4,36 L31.6,36 C31.8209139,36 32,35.808122 32,35.5714286 L32,35.5714286 L32,30.4285714 C32,30.191878 31.8209139,30 31.6,30 L31.6,30 Z M47.0769231,18 L12.9230769,18 C12.4132756,18 12,18.4322768 12,18.9655172 L12,18.9655172 L11.9998663,26.7248355 C12.361841,29.5132416 14.6927292,31.8143852 17.2694354,31.928868 L17.4702389,31.9333333 L27,31.933 L27,30.3333333 C27,29.6429774 27.5059282,29.0751638 28.1542575,29.0068838 L28.2857143,29 L31.7142857,29 C32.4243661,29 33,29.5969537 33,30.3333333 L33,30.3333333 L33,31.933 L42.3466682,31.9333333 C45.1481517,31.9333333 47.7125766,29.5195449 48.0015486,26.5467817 L48,18.9655172 C48,18.4322768 47.5867244,18 47.0769231,18 L47.0769231,18 Z M34.6153846,13.9804203 L25.3846154,13.9804203 C25.158037,13.9804203 24.9695923,14.1538323 24.9305129,14.3825146 L24.9230769,14.4706305 L24.923,17 L35.076,17 L35.0769231,14.4706305 C35.0769231,14.2299766 34.9136537,14.0298253 34.6983467,13.9883183 L34.6153846,13.9804203 Z"/>
  </g>
</svg>
