<svg xmlns="http://www.w3.org/2000/svg" xmlns:xlink="http://www.w3.org/1999/xlink" width="62" height="62" viewBox="0 0 62 62">
  <defs>
    <linearGradient id="icon-11-7-b" x1="100%" x2="0%" y1="100%" y2="0%">
      <stop offset="0%" stop-color="#1E85E9"/>
      <stop offset="20.276%" stop-color="#8671F3"/>
      <stop offset="70.727%" stop-color="#C06CFD" stop-opacity=".99"/>
      <stop offset="100%" stop-color="#FFBEE8"/>
    </linearGradient>
    <rect id="icon-11-7-a" width="60" height="60" x="0" y="0" rx="4"/>
    <linearGradient id="icon-11-7-c" x1="85.172%" x2="14.828%" y1="100%" y2="0%">
      <stop offset="0%" stop-color="#1E85E9"/>
      <stop offset="20.276%" stop-color="#8671F3"/>
      <stop offset="70.727%" stop-color="#C06CFD" stop-opacity=".99"/>
      <stop offset="100%" stop-color="#FFBEE8"/>
    </linearGradient>
  </defs>
  <g fill="none" fill-rule="evenodd" transform="translate(1 1)">
    <g opacity=".062">
      <use fill="#FAFAFA" xlink:href="#icon-11-7-a"/>
      <use fill="url(#icon-11-7-b)" stroke="#000" stroke-opacity=".02" xlink:href="#icon-11-7-a"/>
    </g>
    <path fill="url(#icon-11-7-c)" fill-rule="nonzero" d="M36.6223813,14.5 L43,20.761136 L43,43 C43,44.3807119 41.8807119,45.5 40.5,45.5 L40.5,45.5 L19.5,45.5 C18.1192881,45.5 17,44.3807119 17,43 L17,43 L17,17 C17,15.6192881 18.1192881,14.5 19.5,14.5 L19.5,14.5 L36.6223813,14.5 Z M36.022,15.5 L19.5,15.5 C18.6715729,15.5 18,16.1715729 18,17 L18,17 L18,43 C18,43.8284271 18.6715729,44.5 19.5,44.5 L19.5,44.5 L40.5,44.5 C41.3284271,44.5 42,43.8284271 42,43 L42,43 L42,21.47 L36.5222168,21.4709473 C36.2767569,21.4709473 36.0726084,21.2940721 36.0302725,21.0608229 L36.0222168,20.9709473 L36.022,15.5 Z M37,35 C37.2761424,35 37.5,35.2238576 37.5,35.5 C37.5,35.7761424 37.2761424,36 37,36 L23,36 C22.7238576,36 22.5,35.7761424 22.5,35.5 C22.5,35.2238576 22.7238576,35 23,35 L37,35 Z M37,31 C37.2761424,31 37.5,31.2238576 37.5,31.5 C37.5,31.7761424 37.2761424,32 37,32 L23,32 C22.7238576,32 22.5,31.7761424 22.5,31.5 C22.5,31.2238576 22.7238576,31 23,31 L37,31 Z M37,27 C37.2761424,27 37.5,27.2238576 37.5,27.5 C37.5,27.7761424 37.2761424,28 37,28 L23,28 C22.7238576,28 22.5,27.7761424 22.5,27.5 C22.5,27.2238576 22.7238576,27 23,27 L37,27 Z M41.276,20.47 L37.022,16.293 L37.022,20.47 L41.276,20.47 Z"/>
  </g>
</svg>
