<svg xmlns="http://www.w3.org/2000/svg" xmlns:xlink="http://www.w3.org/1999/xlink" width="62" height="62" viewBox="0 0 62 62">
  <defs>
    <linearGradient id="icon-5-6-b" x1="100%" x2="0%" y1="100%" y2="0%">
      <stop offset="0%" stop-color="#1E85E9"/>
      <stop offset="20.276%" stop-color="#8671F3"/>
      <stop offset="70.727%" stop-color="#C06CFD" stop-opacity=".99"/>
      <stop offset="100%" stop-color="#FFBEE8"/>
    </linearGradient>
    <rect id="icon-5-6-a" width="60" height="60" x="0" y="0" rx="4"/>
    <linearGradient id="icon-5-6-c" x1="100%" x2="0%" y1="90.529%" y2="9.471%">
      <stop offset="0%" stop-color="#1E85E9"/>
      <stop offset="20.276%" stop-color="#8671F3"/>
      <stop offset="70.727%" stop-color="#C06CFD" stop-opacity=".99"/>
      <stop offset="100%" stop-color="#FFBEE8"/>
    </linearGradient>
  </defs>
  <g fill="none" fill-rule="evenodd" transform="translate(1 1)">
    <g opacity=".062">
      <use fill="#FAFAFA" xlink:href="#icon-5-6-a"/>
      <use fill="url(#icon-5-6-b)" stroke="#000" stroke-opacity=".02" xlink:href="#icon-5-6-a"/>
    </g>
    <path fill="url(#icon-5-6-c)" fill-rule="nonzero" d="M35.7777778,16 C36.0232377,16 36.2222222,16.1989846 36.2222222,16.4444444 C36.2222222,18.4241785 35.2897382,20.243148 33.7583084,21.404068 C35.3011185,22.6627358 36.4516012,24.6796313 36.9030357,27.0790945 C38.0672328,27.1149531 38.4415284,27.269902 38.9001784,27.6469998 L38.9001784,27.6469998 L38.9659761,27.7027299 C39.1243415,27.8411203 39.252237,27.9861477 39.355422,28.1628331 C41.7584743,26.9839765 43.3333333,24.5272774 43.3333333,21.7777778 C43.3333333,21.5323179 43.5323179,21.3333333 43.7777778,21.3333333 C44.0232377,21.3333333 44.2222222,21.5323179 44.2222222,21.7777778 C44.2222222,24.9128404 42.4020558,27.7095692 39.6359641,29.0149521 C39.7280144,29.5436972 39.7623963,30.28031 39.7733372,31.3707127 L39.7733372,31.3707127 L39.7777778,32.4444444 C39.7777778,32.7569343 39.7672764,33.0665877 39.7466638,33.37293 L45.5555556,33.3728299 C45.8010154,33.3728299 46,33.5966875 46,33.8728299 C46,34.1182897 45.8427776,34.3224382 45.635445,34.3647742 L45.5555556,34.3728299 L39.6422963,34.3723455 C39.5175347,35.250398 39.3089861,36.0952757 39.0265816,36.8949007 C39.1003743,36.8827534 39.1777126,36.8900435 39.2520889,36.9186693 C40.4253944,37.3702481 41.3642376,38.07894 42.2821608,39.1430582 C43.5259791,40.584976 44.2222222,42.42223 44.2222222,44.3660052 C44.2222222,44.6114651 44.0232377,44.8104496 43.7777778,44.8104496 C43.5323179,44.8104496 43.3333333,44.6114651 43.3333333,44.3660052 C43.3333333,42.637417 42.7149687,41.0056695 41.6090889,39.7236594 C40.7811552,38.763863 39.9588424,38.1431349 38.932807,37.7482369 C38.8573729,37.7192041 38.7943923,37.6718447 38.7469911,37.6131968 C37.1457725,41.3957947 33.8389017,44 30,44 C26.1777625,44 22.882947,41.4183548 21.2731409,37.6628521 C21.2315904,37.7078934 21.179378,37.7441249 21.1188564,37.7685412 C18.4506344,38.8449829 16.6666667,41.4396548 16.6666667,44.3660052 C16.6666667,44.6114651 16.4676821,44.8104496 16.2222222,44.8104496 C15.9767623,44.8104496 15.7777778,44.6114651 15.7777778,44.3660052 C15.7777778,41.0740577 17.7846718,38.1551532 20.7862951,36.9442073 C20.8500193,36.918499 20.9162001,36.9086148 20.9804828,36.9127037 C20.6944966,36.109359 20.4835053,35.2577174 20.3577037,34.3723455 L14.4444444,34.3728299 C14.1989846,34.3728299 14,34.1489722 14,33.8728299 C14,33.62737 14.1572224,33.4232215 14.364555,33.3808855 L14.4444444,33.3728299 L20.2533362,33.37293 C20.2327236,33.0665877 20.2222222,32.7569343 20.2222222,32.4444444 C20.2222222,30.8415553 20.2418156,29.8306373 20.3428723,29.1424251 L20.5330286,29.2251137 C19.4104507,28.7735348 18.5121981,28.064843 17.6339611,27.0007247 C16.443919,25.5588069 15.7777778,23.721553 15.7777778,21.7777778 C15.7777778,21.5323179 15.9681593,21.3333333 16.2030068,21.3333333 C16.4378543,21.3333333 16.6282358,21.5323179 16.6282358,21.7777778 C16.6282358,23.5063659 17.2198656,25.1381135 18.2779329,26.4201236 C18.9992843,27.2941509 19.716176,27.8870018 20.5798605,28.2841889 C20.7048905,28.0241927 20.8732029,27.832724 21.0988335,27.6470907 L21.0988335,27.6470907 L21.1516305,27.6043724 C21.5875634,27.2579545 21.9766692,27.1134426 23.0967716,27.0795128 C23.5503421,24.6689349 24.7093381,22.6443173 26.2635355,21.3858975 C24.6916246,20.2503438 23.7777778,18.4762312 23.7777778,16.4444444 C23.7777778,16.1989846 23.9767623,16 24.2222222,16 C24.4676821,16 24.6666667,16.1989846 24.6666667,16.4444444 C24.6666667,18.2970945 25.5412096,19.8827585 27.0414849,20.8419759 C27.9436883,20.2999902 28.9459753,20 30,20 C31.0666241,20 32.0803144,20.3072187 32.9906505,20.8599356 C34.4404306,19.8780988 35.3333333,18.2386887 35.3333333,16.4444444 C35.3333333,16.1989846 35.5323179,16 35.7777778,16 Z M25.5647002,27.9933742 C22.6435255,27.9155799 22.1049637,27.9703798 21.6635799,28.3335198 L21.6635799,28.3335198 L21.6222025,28.3693099 C21.2456492,28.7122032 21.1367598,29.3178805 21.1154211,31.4389725 L21.1154211,31.4389725 L21.1111111,32.4444444 C21.1111111,38.350969 25.1096305,43.1111111 30,43.1111111 C34.8903695,43.1111111 38.8888889,38.350969 38.8888889,32.4444444 C38.8888889,30.6570133 38.8590737,29.6829169 38.7394715,29.1056139 C38.6948262,29.064863 38.6593092,29.0133077 38.6352573,28.9536894 C38.6012912,28.8694962 38.5949477,28.7810148 38.6119576,28.6982884 C38.5406976,28.5388557 38.4494881,28.4272048 38.3356532,28.3336108 C37.9443642,28.0118967 37.4769218,27.9321293 35.345088,27.9721568 L35.345088,27.9721568 Z M30,20.8888889 C27.1994766,20.8888889 24.7451738,23.450464 24.004062,27.0724095 C24.2635106,27.0747572 24.5520407,27.0796192 24.872224,27.0867058 L24.872224,27.0867058 L34.1542814,27.1116565 C34.8896869,27.0909019 35.4939003,27.0767414 35.9960744,27.0725967 C35.5191536,24.7425785 34.3338005,22.8519134 32.8036033,21.7991791 C32.7581052,21.7808053 32.7159745,21.7533295 32.6790145,21.7187628 C31.862561,21.1844269 30.9512281,20.8888889 30,20.8888889 Z"/>
  </g>
</svg>
