<?xml version="1.0" encoding="UTF-8"?>
<svg width="98px" height="55px" viewBox="0 0 98 55" version="1.1" xmlns="http://www.w3.org/2000/svg" xmlns:xlink="http://www.w3.org/1999/xlink">
    <title>icon-28-9</title>
    <defs>
        <linearGradient x1="100%" y1="65.7486464%" x2="0%" y2="34.2513536%" id="linearGradient-1">
            <stop stop-color="#1E85E9" offset="0%"></stop>
            <stop stop-color="#8671F3" offset="20.275549%"></stop>
            <stop stop-color="#C06CFD" stop-opacity="0.99" offset="70.7268792%"></stop>
            <stop stop-color="#FFBEE8" offset="100%"></stop>
        </linearGradient>
    </defs>
    <g id="Page-1" stroke="none" stroke-width="1" fill="none" fill-rule="evenodd">
        <g id="icons" transform="translate(-1488.000000, -4233.000000)" fill="url(#linearGradient-1)" fill-rule="nonzero">
            <path d="M1537,4233 C1563.79133,4233 1585.56073,4254.40947 1585.99344,4280.98349 L1586,4281.79032 L1586,4282.23387 L1541.35773,4282.23467 C1541.40155,4282.67773 1541.43049,4283.02418 1541.44456,4283.27421 L1541.44456,4283.27421 L1541.45455,4283.56452 C1541.45455,4286.01417 1539.46018,4288 1537,4288 C1534.53982,4288 1532.54545,4286.01417 1532.54545,4283.56452 C1532.54545,4283.33043 1532.57773,4282.88706 1532.64236,4282.23376 L1488,4282.23387 L1488,4281.79032 C1488,4254.84417 1509.93805,4233 1537,4233 Z M1537,4256.22597 L1536.24961,4261.57945 C1534.37777,4274.99956 1533.43636,4282.36134 1533.43636,4283.56452 L1533.43636,4283.56452 L1533.44072,4283.74162 C1533.5334,4285.61906 1535.0915,4287.1129 1537,4287.1129 C1538.96814,4287.1129 1540.56364,4285.52424 1540.56364,4283.56452 C1540.56364,4282.58144 1539.93515,4277.48682 1538.68415,4268.33536 L1538.68415,4268.33536 L1537,4256.22597 Z M1537,4233.8871 C1510.69578,4233.8871 1489.3222,4254.90731 1488.89735,4280.99816 L1488.89447,4281.34677 L1532.73566,4281.34707 C1533.06253,4278.38159 1533.81112,4272.67837 1534.98475,4264.20715 L1534.98475,4264.20715 L1537,4249.86701 L1537.75643,4255.21309 C1539.66589,4268.74278 1540.83263,4277.43068 1541.26427,4281.34642 L1585.10553,4281.34677 L1585.10265,4280.99816 C1584.6821,4255.17085 1563.73387,4234.31226 1537.79557,4233.89351 L1537,4233.8871 Z M1493.98919,4266.39005 L1494.06767,4266.40739 L1503.25821,4269.31633 C1503.49267,4269.39054 1503.62232,4269.63995 1503.54779,4269.8734 C1503.48154,4270.08091 1503.27627,4270.20597 1503.06681,4270.17908 L1502.98832,4270.16174 L1493.79778,4267.2528 C1493.56332,4267.17859 1493.43367,4266.92918 1493.5082,4266.69573 C1493.57445,4266.48821 1493.77972,4266.36315 1493.98919,4266.39005 Z M1580.34657,4266.70442 C1580.40853,4266.91325 1580.30894,4267.13138 1580.12034,4267.22602 L1580.04558,4267.25547 L1570.15719,4270.1644 C1569.92125,4270.23381 1569.67348,4270.09963 1569.60378,4269.8647 C1569.54182,4269.65588 1569.64141,4269.43775 1569.83001,4269.3431 L1569.90477,4269.31366 L1579.79316,4266.40472 C1580.0291,4266.33531 1580.27687,4266.46949 1580.34657,4266.70442 Z M1537.05455,4235.66129 C1537.30001,4235.66129 1537.50415,4235.8182 1537.54649,4236.02511 L1537.55455,4236.10484 L1537.55455,4244.97581 C1537.55455,4245.22077 1537.33069,4245.41935 1537.05455,4245.41935 C1536.80909,4245.41935 1536.60494,4245.26245 1536.5626,4245.05553 L1536.55455,4244.97581 L1536.55455,4236.10484 C1536.55455,4235.85987 1536.7784,4235.66129 1537.05455,4235.66129 Z" id="icon-28-9"></path>
        </g>
    </g>
</svg>