<svg xmlns="http://www.w3.org/2000/svg" width="40" height="40" viewBox="0 0 40 40">
  <defs>
    <linearGradient id="icon-22-8-a" x1="100%" x2="0%" y1="100%" y2="0%">
      <stop offset="0%" stop-color="#1E85E9"/>
      <stop offset="20.276%" stop-color="#8671F3"/>
      <stop offset="70.727%" stop-color="#C06CFD" stop-opacity=".99"/>
      <stop offset="100%" stop-color="#FFBEE8"/>
    </linearGradient>
  </defs>
  <path fill="url(#icon-22-8-a)" d="M1393,3396 C1404.04569,3396 1413,3404.95431 1413,3416 C1413,3419.84722 1411.91373,3423.44073 1410.03116,3426.49054 L1411.46001,3425.42283 L1411.53683,3425.37548 C1411.74901,3425.26976 1412.0129,3425.3274 1412.15984,3425.52402 C1412.32515,3425.74521 1412.27985,3426.05854 1412.05865,3426.22385 L1412.05865,3426.22385 L1408.57002,3428.83108 L1408.49121,3428.87994 C1408.1424,3429.05522 1407.71313,3428.76522 1407.77654,3428.35431 L1407.77654,3428.35431 L1408.44078,3424.05001 L1408.46245,3423.96241 C1408.53986,3423.73835 1408.7686,3423.59468 1409.01119,3423.63211 L1409.01119,3423.63211 L1409.09878,3423.65378 C1409.32285,3423.7312 1409.46652,3423.95993 1409.42908,3424.20252 L1409.42908,3424.20252 L1409.15037,3426.01322 C1410.95679,3423.1058 1412,3419.67473 1412,3416 C1412,3405.50659 1403.49341,3397 1393,3397 C1382.50659,3397 1374,3405.50659 1374,3416 C1374,3426.49341 1382.50659,3435 1393,3435 C1396.90994,3435 1400.54404,3433.81896 1403.56501,3431.79418 L1404.08073,3432.65241 C1400.90877,3434.76728 1397.09834,3436 1393,3436 C1381.95431,3436 1373,3427.04569 1373,3416 C1373,3404.95431 1381.95431,3396 1393,3396 Z M1393.05408,3401.93433 C1393.29954,3401.93433 1393.50369,3402.1112 1393.54602,3402.34445 L1393.55408,3402.43433 L1393.55482,3405.90976 C1395.18662,3405.99009 1396.7795,3406.46387 1398.32836,3407.32759 C1398.56954,3407.46208 1398.65602,3407.76662 1398.52153,3408.0078 C1398.38704,3408.24898 1398.0825,3408.33546 1397.84132,3408.20097 C1396.44006,3407.41956 1395.01276,3406.99074 1393.5545,3406.91109 L1393.55382,3415.41771 C1393.66008,3415.46268 1393.77624,3415.5094 1393.907,3415.56003 L1395.1745,3416.03507 C1395.22165,3416.05339 1395.26773,3416.0715 1395.31364,3416.08974 C1397.75459,3417.0598 1398.98206,3418.30844 1398.98206,3420.703 C1398.98206,3424.08477 1396.81194,3425.88166 1393.55473,3426.04632 L1393.55408,3429.69324 C1393.55408,3429.96938 1393.33022,3430.19324 1393.05408,3430.19324 C1392.80862,3430.19324 1392.60447,3430.01636 1392.56213,3429.78311 L1392.55408,3429.69324 L1392.55453,3426.04676 C1390.78236,3425.96157 1389.0055,3425.42343 1387.228,3424.43721 C1386.98654,3424.30324 1386.8994,3423.99889 1387.03337,3423.75742 C1387.16734,3423.51595 1387.47169,3423.42881 1387.71316,3423.56279 C1389.34443,3424.46787 1390.95698,3424.96051 1392.55474,3425.04548 L1392.554,3416.064 L1392.39507,3415.99278 L1391.26167,3415.51301 C1388.8391,3414.45743 1387.67761,3413.27631 1387.67761,3410.99658 C1387.67761,3407.93639 1389.67321,3406.10189 1392.55472,3405.91355 L1392.55408,3402.43433 C1392.55408,3402.15818 1392.77793,3401.93433 1393.05408,3401.93433 Z M1393.55318,3416.49538 L1393.55496,3425.04521 C1396.29428,3424.89344 1397.98206,3423.46668 1397.98206,3420.703 C1397.98206,3418.87636 1397.11461,3417.9263 1395.17312,3417.1124 L1394.81135,3416.9668 L1393.75923,3416.57387 C1393.68706,3416.54674 1393.61855,3416.52066 1393.55318,3416.49538 Z M1392.55429,3406.91576 C1390.20436,3407.0916 1388.67761,3408.52907 1388.67761,3410.99658 C1388.67761,3412.71291 1389.4964,3413.61156 1391.42442,3414.49079 L1391.79359,3414.65315 C1392.0288,3414.75337 1392.41839,3414.91685 1392.55678,3414.97479 L1392.55429,3406.91576 Z" transform="translate(-1373 -3396)"/>
</svg>
