<svg xmlns="http://www.w3.org/2000/svg" xmlns:xlink="http://www.w3.org/1999/xlink" width="62" height="62" viewBox="0 0 62 62">
  <defs>
    <linearGradient id="icon-6-4-b" x1="100%" x2="0%" y1="100%" y2="0%">
      <stop offset="0%" stop-color="#1E85E9"/>
      <stop offset="20.276%" stop-color="#8671F3"/>
      <stop offset="70.727%" stop-color="#C06CFD" stop-opacity=".99"/>
      <stop offset="100%" stop-color="#FFBEE8"/>
    </linearGradient>
    <rect id="icon-6-4-a" width="60" height="60" x="0" y="0" rx="4"/>
    <linearGradient id="icon-6-4-c" x1="79.12%" x2="20.88%" y1="100%" y2="0%">
      <stop offset="0%" stop-color="#1E85E9"/>
      <stop offset="20.276%" stop-color="#8671F3"/>
      <stop offset="70.727%" stop-color="#C06CFD" stop-opacity=".99"/>
      <stop offset="100%" stop-color="#FFBEE8"/>
    </linearGradient>
  </defs>
  <g fill="none" fill-rule="evenodd" transform="translate(1 1)">
    <g opacity=".062">
      <use fill="#FAFAFA" xlink:href="#icon-6-4-a"/>
      <use fill="url(#icon-6-4-b)" stroke="#000" stroke-opacity=".02" xlink:href="#icon-6-4-a"/>
    </g>
    <path fill="url(#icon-6-4-c)" fill-rule="nonzero" d="M30.58868,10 C31.9579924,10 33.0959098,10.9891233 33.3247335,12.2907629 L35.7833333,12.2909564 C36.5666408,12.2909564 37.2333333,12.8456385 37.2333333,13.5777688 L37.2333333,13.5777688 L37.233,14.221 L41.6477778,14.221175 C42.8876447,14.221175 43.9113874,15.1437527 43.9945468,16.3223208 L44,16.477444 L44,45.743731 C44,46.943299 43.0279184,47.9158587 41.8082143,47.9948228 L41.6477778,48 L17.3522222,48 C16.1123553,48 15.0886126,47.0774223 15.0054532,45.8988542 L15,45.743731 L15,16.477444 C15,15.277876 15.9720816,14.3053163 17.1917857,14.2263522 L17.3522222,14.221175 L21.766,14.221 L21.7666667,13.5777688 C21.7666667,12.888705 22.3572317,12.3568272 23.0797584,12.2966376 L23.2166667,12.2909564 L25.6753631,12.290214 C25.8952433,11.040928 26.9525835,10.0796508 28.2480922,10.0047082 L28.41132,10 L30.58868,10 Z M21.766,15.186 L17.3522222,15.1862843 C16.6270048,15.1862843 16.0395592,15.7033264 15.9729574,16.3539753 L15.9666667,16.477444 L15.9666667,45.743731 C15.9666667,46.4095829 16.5114524,46.9657928 17.217952,47.0289252 L17.3522222,47.0348907 L41.6477778,47.0348907 C42.3729952,47.0348907 42.9604408,46.5178486 43.0270426,45.8671997 L43.0333333,45.743731 L43.0333333,16.477444 C43.0333333,15.8115922 42.4885476,15.2553822 41.782048,15.1922498 L41.6477778,15.1862843 L37.233,15.186 L37.2333333,16.7947998 C37.2333333,17.4838636 36.6427683,18.0157414 35.9202416,18.075931 L35.7833333,18.0816122 L23.2166667,18.0816122 C22.4333592,18.0816122 21.7666667,17.5269301 21.7666667,16.7947998 L21.7666667,16.7947998 L21.766,15.186 Z M22.25,36.4186886 C22.5169376,36.4186886 22.7333333,36.6347356 22.7333333,36.9012432 L22.7333333,36.9012432 L22.7333333,40.7616804 C22.7333333,41.0281879 22.5169376,41.244235 22.25,41.244235 L22.25,41.244235 L18.3833333,41.244235 C18.1163957,41.244235 17.9,41.0281879 17.9,40.7616804 L17.9,40.7616804 L17.9,36.9012432 C17.9,36.6347356 18.1163957,36.4186886 18.3833333,36.4186886 L18.3833333,36.4186886 Z M21.7666667,37.3830458 L18.8666667,37.3830458 L18.8666667,40.2783736 L21.7666667,40.2783736 L21.7666667,37.3830458 Z M40.4075684,38.3489071 C40.674506,38.3489071 40.8909017,38.5649542 40.8909017,38.8314618 C40.8909017,39.0683574 40.7199224,39.265383 40.4944481,39.3062418 L40.4075684,39.3140164 L25.6746338,39.3140164 C25.4076962,39.3140164 25.1913005,39.0979694 25.1913005,38.8314618 C25.1913005,38.5945662 25.3622798,38.3975406 25.587754,38.3566817 L25.6746338,38.3489071 L40.4075684,38.3489071 Z M22.25,29.6629236 C22.5169376,29.6629236 22.7333333,29.8789707 22.7333333,30.1454782 L22.7333333,30.1454782 L22.7333333,34.0059154 C22.7333333,34.2724229 22.5169376,34.48847 22.25,34.48847 L22.25,34.48847 L18.3833333,34.48847 C18.1163957,34.48847 17.9,34.2724229 17.9,34.0059154 L17.9,34.0059154 L17.9,30.1454782 C17.9,29.8789707 18.1163957,29.6629236 18.3833333,29.6629236 L18.3833333,29.6629236 Z M21.7666667,30.6272808 L18.8666667,30.6272808 L18.8666667,33.5226086 L21.7666667,33.5226086 L21.7666667,30.6272808 Z M40.4075684,31.5931421 C40.674506,31.5931421 40.8909017,31.8091892 40.8909017,32.0756968 C40.8909017,32.3125924 40.7199224,32.509618 40.4944481,32.5504768 L40.4075684,32.5582514 L25.6746338,32.5582514 C25.4076962,32.5582514 25.1913005,32.3422044 25.1913005,32.0756968 C25.1913005,31.8388012 25.3622798,31.6417756 25.587754,31.6009167 L25.6746338,31.5931421 L40.4075684,31.5931421 Z M22.25,22.9071586 C22.5169376,22.9071586 22.7333333,23.1232057 22.7333333,23.3897132 L22.7333333,23.3897132 L22.7333333,27.2501504 C22.7333333,27.5166579 22.5169376,27.732705 22.25,27.732705 L22.25,27.732705 L18.3833333,27.732705 C18.1163957,27.732705 17.9,27.5166579 17.9,27.2501504 L17.9,27.2501504 L17.9,23.3897132 C17.9,23.1232057 18.1163957,22.9071586 18.3833333,22.9071586 L18.3833333,22.9071586 Z M21.7666667,23.8715158 L18.8666667,23.8715158 L18.8666667,26.7668436 L21.7666667,26.7668436 L21.7666667,23.8715158 Z M40.4075684,24.6479368 C40.674506,24.6479368 40.8909017,24.8639838 40.8909017,25.1304914 C40.8909017,25.367387 40.7199224,25.5644126 40.4944481,25.6052714 L40.4075684,25.613046 L25.6746338,25.613046 C25.4076962,25.613046 25.1913005,25.396999 25.1913005,25.1304914 C25.1913005,24.8935958 25.3622798,24.6965702 25.587754,24.6557114 L25.6746338,24.6479368 L40.4075684,24.6479368 Z M35.7833333,13.2560657 L23.2166667,13.2560657 C22.9322236,13.2560657 22.7333333,13.4215406 22.7333333,13.5777688 L22.7333333,13.5777688 L22.7333333,16.7947998 C22.7333333,16.951028 22.9322236,17.1165029 23.2166667,17.1165029 L23.2166667,17.1165029 L35.7833333,17.1165029 C36.0677764,17.1165029 36.2666667,16.951028 36.2666667,16.7947998 L36.2666667,16.7947998 L36.2666667,13.5777688 C36.2666667,13.4215406 36.0677764,13.2560657 35.7833333,13.2560657 L35.7833333,13.2560657 Z M30.58868,10.9651093 L28.41132,10.9651093 C27.5785349,10.9651093 26.877015,11.526217 26.6653501,12.2904204 L32.3346087,12.2902718 C32.1350052,11.5698562 31.5000651,11.0299619 30.7302336,10.9705501 L30.58868,10.9651093 Z"/>
  </g>
</svg>
