<svg xmlns="http://www.w3.org/2000/svg" width="48" height="45" viewBox="0 0 48 45">
  <defs>
    <linearGradient id="ico-benefits-2-a" x1="90.897%" x2="0%" y1="90.256%" y2="6.179%">
      <stop offset="0%" stop-color="#1E85E9"/>
      <stop offset="20.276%" stop-color="#8671F3"/>
      <stop offset="70.727%" stop-color="#C06CFD" stop-opacity=".99"/>
      <stop offset="100%" stop-color="#FFBEE8"/>
    </linearGradient>
  </defs>
  <path fill="url(#ico-benefits-2-a)" d="M24,25.5 C25.2879511,25.5 26.5408949,25.7567064 27.702114,26.2485112 C27.9563913,26.3562038 28.0752216,26.6496384 27.9675289,26.9039156 C27.8598363,27.1581928 27.5664017,27.2770231 27.3121245,27.1693305 C26.2737332,26.7295463 25.1533536,26.5 24,26.5 C19.3055796,26.5 15.5,30.3055796 15.5,35 C15.5,39.6944204 19.3055796,43.5 24,43.5 C28.6944204,43.5 32.5,39.6944204 32.5,35 C32.5,34.7238576 32.7238576,34.5 33,34.5 C33.2761424,34.5 33.5,34.7238576 33.5,35 C33.5,40.2467051 29.2467051,44.5 24,44.5 C18.7532949,44.5 14.5,40.2467051 14.5,35 C14.5,29.7532949 18.7532949,25.5 24,25.5 Z M35.3535534,25.6464466 C35.5271197,25.820013 35.5464049,26.0894374 35.4114088,26.2843055 L35.3535534,26.3535534 L24,37.7071068 L19.6464466,33.3535534 C19.4511845,33.1582912 19.4511845,32.8417088 19.6464466,32.6464466 C19.820013,32.4728803 20.0894374,32.4535951 20.2843055,32.5885912 L20.3535534,32.6464466 L24,36.293 L34.6464466,25.6464466 C34.8417088,25.4511845 35.1582912,25.4511845 35.3535534,25.6464466 Z M11.5,0.5 L11.5,5.5 L18.5,5.5 L18.5,0.5 L29.5,0.5 L29.5,5.5 L36.5,5.5 L36.5,0.5 L47.5,0.5 L47.5,11.5 L42.5,11.5 L42.5,15.5 L24.5,15.5 L24.5,20.792 L26.75,18.5428932 C26.9235664,18.3693269 27.1929908,18.3500417 27.3878589,18.4850378 L27.4571068,18.5428932 C27.6306731,18.7164596 27.6499583,18.985884 27.5149622,19.1807521 L27.4571068,19.25 L24.1035534,22.6035534 L24,22.5 C23.7545401,22.5 23.5503916,22.3231248 23.5080557,22.0898756 L23.5,22 L20.75,19.25 C20.5547379,19.0547379 20.5547379,18.7381554 20.75,18.5428932 C20.9235664,18.3693269 21.1929908,18.3500417 21.3878589,18.4850378 L21.4571068,18.5428932 L23.5,20.586 L23.5,14.5 L41.5,14.5 L41.5,11.5 L36.5,11.5 L36.5,6.5 L29.5,6.5 L29.5,11.5 L18.5,11.5 L18.5,6.5 L11.5,6.5 L11.5,11.5 L0.5,11.5 L0.5,0.5 L11.5,0.5 Z M10.5,1.5 L1.5,1.5 L1.5,10.5 L10.5,10.5 L10.5,1.5 Z M28.5,1.5 L19.5,1.5 L19.5,10.5 L28.5,10.5 L28.5,1.5 Z M46.5,1.5 L37.5,1.5 L37.5,10.5 L46.5,10.5 L46.5,1.5 Z"/>
</svg>
