<svg xmlns="http://www.w3.org/2000/svg" width="39" height="34" viewBox="0 0 39 34">
  <defs>
    <linearGradient id="icon-19-1-a" x1="100%" x2="0%" y1="88.001%" y2="11.999%">
      <stop offset="0%" stop-color="#1E85E9"/>
      <stop offset="20.276%" stop-color="#8671F3"/>
      <stop offset="70.727%" stop-color="#C06CFD" stop-opacity=".99"/>
      <stop offset="100%" stop-color="#FFBEE8"/>
    </linearGradient>
  </defs>
  <path fill="url(#icon-19-1-a)" d="M407.5,2972 C414.415543,2972 420.168525,2977.21777 420.917608,2984.00006 L424.5,2984 C425.880712,2984 427,2985.11929 427,2986.5 L427,2986.5 L427,3003.5 C427,3004.88071 425.880712,3006 424.5,3006 L424.5,3006 L412.200475,3006 C411.581453,3006 411.026008,3005.61974 410.802069,3005.04264 L410.802069,3005.04264 L408.89464,3000.12715 C408.594946,2999.35483 407.725909,2998.97169 406.953591,2999.27138 C406.55139,2999.42746 406.235861,2999.74915 406.087596,3000.15429 L406.087596,3000.15429 L404.308612,3005.0155 C404.092228,3005.60678 403.529609,3006 402.899974,3006 L402.899974,3006 L390.5,3006 C389.119288,3006 388,3004.88071 388,3003.5 L388,3003.5 L388,2986.5 C388,2985.11929 389.119288,2984 390.5,2984 L390.5,2984 L394.082333,2984.00055 C394.830992,2977.21958 400.582786,2972 407.5,2972 Z M424.5,2985 L390.5,2985 C389.671573,2985 389,2985.67157 389,2986.5 L389,2986.5 L389,3003.5 C389,3004.32843 389.671573,3005 390.5,3005 L390.5,3005 L402.899974,3005 C403.109852,3005 403.297392,3004.86893 403.36952,3004.67183 L403.36952,3004.67183 L405.148504,2999.81063 C405.395612,2999.13538 405.921493,2998.59923 406.591829,2998.33911 C407.879026,2997.83962 409.327421,2998.47819 409.82691,2999.76538 L409.82691,2999.76538 L411.73434,3004.68088 C411.808986,3004.87325 411.994134,3005 412.200475,3005 L412.200475,3005 L424.5,3005 C425.328427,3005 426,3004.32843 426,3003.5 L426,3003.5 L426,2986.5 C426,2985.67157 425.328427,2985 424.5,2985 L424.5,2985 Z M397.5,2991 C399.985281,2991 402,2993.01472 402,2995.5 C402,2997.98528 399.985281,3000 397.5,3000 C395.014719,3000 393,2997.98528 393,2995.5 C393,2993.01472 395.014719,2991 397.5,2991 Z M417.5,2991 C419.985281,2991 422,2993.01472 422,2995.5 C422,2997.98528 419.985281,3000 417.5,3000 C415.014719,3000 413,2997.98528 413,2995.5 C413,2993.01472 415.014719,2991 417.5,2991 Z M397.5,2992 C395.567003,2992 394,2993.567 394,2995.5 C394,2997.433 395.567003,2999 397.5,2999 C399.432997,2999 401,2997.433 401,2995.5 C401,2993.567 399.432997,2992 397.5,2992 Z M417.5,2992 C415.567003,2992 414,2993.567 414,2995.5 C414,2997.433 415.567003,2999 417.5,2999 C419.432997,2999 421,2997.433 421,2995.5 C421,2993.567 419.432997,2992 417.5,2992 Z M407.5,2973 C401.132813,2973 395.831775,2977.77673 395.088902,2984.00067 L419.91111,2984.0008 C419.168127,2977.7754 413.865859,2973 407.5,2973 Z" transform="translate(-388 -2972)"/>
</svg>
