<svg xmlns="http://www.w3.org/2000/svg" xmlns:xlink="http://www.w3.org/1999/xlink" width="62" height="62" viewBox="0 0 62 62">
  <defs>
    <linearGradient id="icon-2-9-b" x1="100%" x2="0%" y1="100%" y2="0%">
      <stop offset="0%" stop-color="#1E85E9"/>
      <stop offset="20.276%" stop-color="#8671F3"/>
      <stop offset="70.727%" stop-color="#C06CFD" stop-opacity=".99"/>
      <stop offset="100%" stop-color="#FFBEE8"/>
    </linearGradient>
    <rect id="icon-2-9-a" width="60" height="60" x="0" y="0" rx="4"/>
  </defs>
  <g fill="none" fill-rule="evenodd" transform="translate(1 1)">
    <g opacity=".062">
      <use fill="#FAFAFA" xlink:href="#icon-2-9-a"/>
      <use fill="url(#icon-2-9-b)" stroke="#000" stroke-opacity=".02" xlink:href="#icon-2-9-a"/>
    </g>
    <path fill="url(#icon-2-9-b)" fill-rule="nonzero" d="M24.9418722,18.9750095 L24.9957455,18.9225167 C25.262085,18.6793706 25.6166695,18.5310496 26.0059383,18.5310496 C26.8331346,18.5310496 27.5037096,19.2008116 27.5037096,20.0270049 C27.5037096,20.2206614 27.4668672,20.4057232 27.3998012,20.5755798 L27.13501,20.3874898 C28.0730597,21.0428782 29.0320451,21.7751334 29.9960627,22.571979 C35.4749805,18.0342314 40.5089006,15.8269425 42.3409968,17.6590387 C44.17262,19.4906619 41.9669434,24.522456 37.4304316,29.9993101 C41.9667307,35.4771392 44.1727083,40.5093303 42.3409968,42.3410418 C41.0895961,43.5924425 38.4548634,43.0172097 35.0575809,41.024815 C34.7871919,41.2993017 34.4104672,41.4690309 33.994052,41.4690309 C33.1668558,41.4690309 32.4962807,40.7992689 32.4962807,39.9730756 C32.4962807,39.7794191 32.5331231,39.5943573 32.6001892,39.4245007 L32.9770293,39.6905787 C32.0036446,39.0156767 31.0067626,38.2570208 30.0043235,37.4284296 C24.525348,41.9657008 19.4911513,44.1731995 17.6589936,42.3410418 C15.8272821,40.5093303 18.0332597,35.4771392 22.5702151,29.9999781 C18.033047,24.522456 15.8273704,19.4906619 17.6589936,17.6590387 C18.910468,16.4075643 21.5439848,16.9827235 24.9418722,18.9750095 Z M23.2307389,30.7814739 L23.0877476,30.9565422 C19.0708901,35.9080554 17.077862,40.3495101 18.3641937,41.6358417 C19.6658728,42.9375209 24.1984127,40.8811202 29.2209388,36.7676481 C28.1807313,35.8725183 27.139204,34.9058669 26.1166862,33.8833492 L25.5302864,33.2888163 C24.7164605,32.4521879 23.947991,31.6132528 23.2307389,30.7814739 Z M36.7694423,30.7813425 L36.6887679,30.8745904 C35.9946016,31.6758416 35.2531705,32.4833978 34.4697039,33.2888163 L34.4697039,33.2888163 L33.8833041,33.8833492 C32.8491319,34.9175214 31.80798,35.884251 30.7778263,36.7724028 C31.5388035,37.3963298 32.2957578,37.9789278 33.0399164,38.5129924 L33.2607883,38.6683513 C33.4775241,38.5465785 33.7276668,38.4771203 33.994052,38.4771203 C34.8212483,38.4771203 35.4918233,39.1468823 35.4918233,39.9730756 C35.4918233,40.0213377 35.4895351,40.069066 35.4850611,40.1161582 C38.5418065,41.9214189 40.8297295,42.4419089 41.6357967,41.6358417 C42.9372818,40.3343566 40.8816881,35.8029739 36.7694423,30.7813425 Z M33.994052,39.4744238 C33.7183199,39.4744238 33.4947949,39.6976778 33.4947949,39.9730756 C33.4947949,40.2484733 33.7183199,40.4717273 33.994052,40.4717273 C34.2697841,40.4717273 34.4933091,40.2484733 34.4933091,39.9730756 C34.4933091,39.6976778 34.2697841,39.4744238 33.994052,39.4744238 Z M30.0017823,23.8812667 L29.7871388,24.0663658 C28.8040193,24.9143248 27.8092452,25.8362847 26.8227424,26.8227875 L26.8227424,26.8227875 L26.5331628,27.1144759 C25.5850731,28.0764316 24.6990591,29.0443688 23.8838521,29.9998928 C24.7810284,31.051832 25.7647685,32.1193191 26.8227424,33.177293 C27.8691569,34.2237075 28.935225,35.2100133 29.9982903,36.118883 C30.8581063,35.3842612 31.7274717,34.5939118 32.5935041,33.752642 L32.5935041,33.752642 L33.1772479,33.177293 C34.2348863,32.1196547 35.218338,31.0525091 36.1159478,30.000411 C35.218962,28.9482485 34.2352218,27.8807614 33.1772479,26.8227875 C32.1309408,25.7764804 31.0649245,24.7902027 30.0017823,23.8812667 Z M18.3641937,18.3642388 C17.0627421,19.6656903 19.1181964,24.1968731 23.2302302,29.2183498 C24.1182882,28.1893591 25.0838532,27.1495643 26.1166862,26.1167313 L26.1166862,26.1167313 L26.4138082,25.8216487 C27.3498083,24.898471 28.2901068,24.0312854 29.2214198,23.2283194 C28.4949478,22.6315055 27.772769,22.0740121 27.0617845,21.5603342 L26.739202,21.3317292 C26.5224663,21.453502 26.2723236,21.5229602 26.0059383,21.5229602 C25.1787421,21.5229602 24.508167,20.8531982 24.508167,20.0270049 C24.508167,19.9787405 24.5104555,19.9310099 24.5149299,19.8839155 C21.4566939,18.0774306 19.1694979,17.5589345 18.3641937,18.3642388 Z M41.6357967,18.3642388 C40.3341388,17.0625809 35.801726,19.118893 30.7792982,23.2322304 C31.8198026,24.1280569 32.861078,25.0945052 33.8833041,26.1167313 C34.9161371,27.1495643 35.8817021,28.1893591 36.7689071,29.2182072 C40.881794,24.1968731 42.9372482,19.6656903 41.6357967,18.3642388 Z M26.0059383,19.5283532 C25.7302062,19.5283532 25.5066812,19.7516072 25.5066812,20.0270049 C25.5066812,20.3024027 25.7302062,20.5256567 26.0059383,20.5256567 C26.2816704,20.5256567 26.5051954,20.3024027 26.5051954,20.0270049 C26.5051954,19.7516072 26.2816704,19.5283532 26.0059383,19.5283532 Z"/>
  </g>
</svg>
