<svg xmlns="http://www.w3.org/2000/svg" width="40" height="39" viewBox="0 0 40 39">
  <defs>
    <linearGradient id="icon-13-4-a" x1="100%" x2="0%" y1="98.155%" y2="1.845%">
      <stop offset="0%" stop-color="#1E85E9"/>
      <stop offset="20.276%" stop-color="#8671F3"/>
      <stop offset="70.727%" stop-color="#C06CFD" stop-opacity=".99"/>
      <stop offset="100%" stop-color="#FFBEE8"/>
    </linearGradient>
  </defs>
  <path fill="url(#icon-13-4-a)" d="M832.606029,2123 C842.435205,2123 850.403327,2130.96812 850.403327,2140.7973 C850.403327,2145.58126 848.506395,2150.06611 845.190619,2153.38189 C843.318568,2155.25394 841.073861,2156.67372 838.613066,2157.55518 L849.639907,2157.55317 L846.914174,2155.85031 C846.689148,2155.70966 846.603338,2155.43054 846.698171,2155.19245 L846.742283,2155.10544 C846.882924,2154.88042 847.162047,2154.79461 847.400136,2154.88944 L847.487146,2154.93355 L851.81147,2157.63625 C852.121981,2157.83032 852.147857,2158.26103 851.889098,2158.49454 L851.81147,2158.55301 L847.487146,2161.25571 C847.233991,2161.41393 846.900504,2161.33697 846.742283,2161.08382 C846.601641,2160.85879 846.646821,2160.57029 846.836396,2160.39784 L846.914174,2160.33896 L849.641907,2158.63417 L832.546314,2158.63514 L832.545907,2158.63317 L832.104743,2158.62822 C831.874253,2158.62185 831.644456,2158.6111 831.415446,2158.596 L813.727651,2158.59459 L813.727651,2157.59459 L826.591757,2157.59576 C825.885711,2157.34293 825.195883,2157.04527 824.525725,2156.70418 C822.234463,2155.53803 820.220178,2153.88691 818.624434,2151.87556 L818.310907,2151.46853 L819.176742,2150.82117 C820.719609,2152.88476 822.720117,2154.57216 825.01609,2155.74071 C827.20142,2156.85295 829.609066,2157.4735 832.105581,2157.54672 L832.606029,2157.55405 L833.756987,2157.55567 C837.837162,2157.27894 841.620885,2155.53741 844.483512,2152.67478 C847.613611,2149.54468 849.403327,2145.31332 849.403327,2140.7973 C849.403327,2131.52041 841.88292,2124 832.606029,2124 C823.329138,2124 815.808732,2131.52041 815.808732,2140.7973 C815.808732,2143.44621 816.422683,2146.00324 817.576973,2148.3079 L817.63352,2145.11082 C817.637827,2144.8654 817.818257,2144.66439 818.052213,2144.62615 L818.142216,2144.61967 C818.387639,2144.62398 818.588652,2144.80441 818.626889,2145.03837 L818.633366,2145.12837 L818.54389,2150.22703 C818.537947,2150.56569 818.208775,2150.7914 817.900355,2150.69748 L817.817013,2150.66379 L813.273153,2148.34911 C813.027097,2148.22377 812.929239,2147.92269 813.054582,2147.67663 C813.165998,2147.45792 813.416267,2147.3563 813.64332,2147.42445 L813.72706,2147.45806 L816.827885,2149.03892 C815.511074,2146.52357 814.808732,2143.71207 814.808732,2140.7973 C814.808732,2130.96812 822.776853,2123 832.606029,2123 Z" transform="translate(-813 -2123)"/>
</svg>
