<svg xmlns="http://www.w3.org/2000/svg" width="42" height="39" viewBox="0 0 42 39">
  <defs>
    <linearGradient id="ico-consulting-1-a" x1="100%" x2="0%" y1="93.379%" y2="6.621%">
      <stop offset="0%" stop-color="#1E85E9"/>
      <stop offset="20.276%" stop-color="#8671F3"/>
      <stop offset="70.727%" stop-color="#C06CFD" stop-opacity=".99"/>
      <stop offset="100%" stop-color="#FFBEE8"/>
    </linearGradient>
  </defs>
  <path fill="url(#ico-consulting-1-a)" d="M47.5,25 C57.1649831,25 65,32.8350169 65,42.5 C65,45.6637411 64.1604635,48.6313979 62.6920184,51.1923424 L70.202417,58.140571 C71.4141635,59.2705428 71.4804549,61.1688806 70.3504831,62.3806271 C69.2205112,63.5923736 67.3221734,63.658665 66.1104269,62.5286932 L58.8976056,55.7798887 C55.8355383,58.4103682 51.8534083,60 47.5,60 C37.8350169,60 30,52.1649831 30,42.5 C30,32.8350169 37.8350169,25 47.5,25 Z M62.2064097,52.0515108 L62.0659986,52.2029237 C61.3597874,53.2609764 60.5413603,54.2377448 59.6277285,55.1162176 L66.7924204,61.7973447 C67.5635318,62.5164177 68.7517097,62.5088297 69.5133207,61.8040511 L69.6191245,61.698634 C70.3382024,60.9275174 70.3306196,59.7393443 69.625841,58.9777333 L69.5204138,58.8719299 L62.2064097,52.0515108 Z M47.5,26 C38.3873016,26 31,33.3873016 31,42.5 C31,51.6126984 38.3873016,59 47.5,59 C56.6126984,59 64,51.6126984 64,42.5 C64,33.3873016 56.6126984,26 47.5,26 Z M47.5,30 C54.4035594,30 60,35.5964406 60,42.5 C60,49.4035594 54.4035594,55 47.5,55 C40.5964406,55 35,49.4035594 35,42.5 C35,35.5964406 40.5964406,30 47.5,30 Z M47.5,31 C41.1487254,31 36,36.1487254 36,42.5 C36,48.8512746 41.1487254,54 47.5,54 C53.8512746,54 59,48.8512746 59,42.5 C59,36.1487254 53.8512746,31 47.5,31 Z" transform="translate(-30 -25)"/>
</svg>
