<svg xmlns="http://www.w3.org/2000/svg" xmlns:xlink="http://www.w3.org/1999/xlink" width="62" height="62" viewBox="0 0 62 62">
  <defs>
    <linearGradient id="icon-3-5-b" x1="100%" x2="0%" y1="100%" y2="0%">
      <stop offset="0%" stop-color="#1E85E9"/>
      <stop offset="20.276%" stop-color="#8671F3"/>
      <stop offset="70.727%" stop-color="#C06CFD" stop-opacity=".99"/>
      <stop offset="100%" stop-color="#FFBEE8"/>
    </linearGradient>
    <rect id="icon-3-5-a" width="60" height="60" x="0" y="0" rx="4"/>
    <linearGradient id="icon-3-5-c" x1="85.76%" x2="14.24%" y1="100%" y2="0%">
      <stop offset="0%" stop-color="#1E85E9"/>
      <stop offset="20.276%" stop-color="#8671F3"/>
      <stop offset="70.727%" stop-color="#C06CFD" stop-opacity=".99"/>
      <stop offset="100%" stop-color="#FFBEE8"/>
    </linearGradient>
  </defs>
  <g fill="none" fill-rule="evenodd" transform="translate(1 1)">
    <g opacity=".062">
      <use fill="#FAFAFA" xlink:href="#icon-3-5-a"/>
      <use fill="url(#icon-3-5-b)" stroke="#000" stroke-opacity=".02" xlink:href="#icon-3-5-a"/>
    </g>
    <path fill="url(#icon-3-5-c)" fill-rule="nonzero" d="M28.7080529,11.0065308 C29.4448249,10.3311564 30.5566455,10.3311564 31.3045472,11.0170512 C34.8025587,14.4265054 38.9975836,16.0129488 44.5503734,16.0129488 C45.5994653,16.0129488 46.414402,16.8278855 46.414402,17.8769774 L46.414402,17.8769774 L46.4149287,18.4423498 C46.4162353,19.0525054 46.4202363,19.5013154 46.4297854,19.9117696 L46.4297854,19.9117696 L46.4597798,20.7774281 C46.605042,28.4400138 46.3165035,32.241814 44.7122664,36.5675248 C42.5087129,42.5092495 38.0477837,46.8356063 30.5534695,49.4216517 L30.5534695,49.4216517 L30.0987933,49.512587 L29.9026771,49.512587 L29.3831052,49.4040622 C19.6003083,46.0316451 15.0754627,39.7794285 13.8712996,30.691009 C13.5527164,28.2865025 13.4714217,26.2263781 13.509944,22.7825354 L13.509944,22.7825354 L13.538646,20.9373037 L13.5622814,20.2506471 C13.5714392,19.9688657 13.577393,19.6841181 13.5811635,19.3521854 L13.5811635,19.3521854 L13.5870684,17.8769774 C13.5870684,16.8278855 14.4020051,16.0129488 15.451097,16.0129488 C21.0038868,16.0129488 25.1989117,14.4265054 28.6969232,11.0170512 L28.6969232,11.0170512 Z M30.6176929,11.7436849 C30.2632421,11.4187717 29.7382283,11.4187717 29.3837775,11.7436849 L29.3837775,11.7436849 L29.0855217,12.0285694 C25.5590377,15.3263322 21.3436644,16.9206396 15.9317381,17.0090509 L15.9317381,17.0090509 L15.451097,17.0129488 C14.9542899,17.0129488 14.5870684,17.3801703 14.5870684,17.8769774 L14.5870684,17.8769774 L14.5865347,18.4484282 C14.5850233,19.1534019 14.5799612,19.6456341 14.5671244,20.1063463 L14.5671244,20.1063463 L14.5415101,20.7964271 L14.5219933,21.9004626 C14.4648819,25.5463759 14.5162353,27.671806 14.7896032,29.9782861 L14.7896032,29.9782861 L14.8626362,30.5596627 C16.0197226,39.2927717 20.3077552,45.2177712 29.6441171,48.4410711 L29.6441171,48.4410711 L30.003,48.513 L30.2920416,48.4588042 C37.2876749,46.0403138 41.4940982,42.053681 43.6377793,36.5789618 L43.6377793,36.5789618 L43.7746675,36.219806 C45.2454946,32.2538258 45.5723621,28.6988909 45.4781105,21.8842309 L45.4781105,21.8842309 L45.4603853,20.8096089 C45.4373793,20.3034775 45.4254265,19.867239 45.4195452,19.2882597 L45.4195452,19.2882597 L45.414402,17.8769774 C45.414402,17.3801703 45.0471805,17.0129488 44.5503734,17.0129488 C38.7451077,17.0129488 34.2980459,15.3311919 30.6176929,11.7436849 Z M38.6422988,25.1484603 C38.8148766,25.3230096 38.8326312,25.5925392 38.6965306,25.7866375 L38.6382828,25.8555557 L28.8466574,35.5365854 C28.6700138,35.7112338 28.3966077,35.7270483 28.2024215,35.586519 L28.1336588,35.5264967 L24.1385419,31.3464433 C23.9477457,31.146815 23.9549055,30.8303135 24.1545338,30.6395174 C24.3319811,30.4699208 24.6017727,30.4567339 24.7935379,30.5961025 L24.8614597,30.6555093 L28.5050005,34.466976 L37.9352034,25.1444444 C38.1315714,24.9502944 38.4481488,24.9520924 38.6422988,25.1484603 Z"/>
  </g>
</svg>
