<svg xmlns="http://www.w3.org/2000/svg" width="40" height="37" viewBox="0 0 40 37">
  <defs>
    <linearGradient id="icon-23-5-a" x1="100%" x2="0%" y1="93.862%" y2="6.138%">
      <stop offset="0%" stop-color="#1E85E9"/>
      <stop offset="20.276%" stop-color="#8671F3"/>
      <stop offset="70.727%" stop-color="#C06CFD" stop-opacity=".99"/>
      <stop offset="100%" stop-color="#FFBEE8"/>
    </linearGradient>
  </defs>
  <path fill="url(#icon-23-5-a)" d="M966.594214,3534.41428 L966.60127,3534.50101 L966.601,3539.96101 L980.101896,3539.96164 C980.347356,3539.96164 980.551504,3540.13851 980.59384,3540.37176 L980.601896,3540.46164 C980.601896,3540.7071 980.425021,3540.91124 980.191771,3540.95358 L980.101896,3540.96164 L966.10127,3540.96164 C965.855811,3540.96164 965.651662,3540.78476 965.609326,3540.55151 L965.60127,3540.46164 L965.601,3535.73501 L955.196,3546.47801 L965.601,3557.19101 L965.60127,3552.50101 C965.60127,3552.25555 965.778146,3552.0514 966.011395,3552.00906 L966.10127,3552.00101 L980.472,3552.00101 L980.472637,3545.32178 C980.472637,3544.89573 980.961715,3544.67763 981.277176,3544.92452 L981.341876,3544.98464 L993.375343,3558.16387 C993.533216,3558.33677 993.547491,3558.59162 993.42166,3558.77921 L993.359164,3558.85505 L981.325698,3570.85505 C981.031527,3571.1484 980.543364,3570.9735 980.479583,3570.58698 L980.472637,3570.50101 L980.472,3563.72001 L968.129993,3563.72008 C967.884533,3563.72008 967.680385,3563.5432 967.638049,3563.30995 L967.629993,3563.22008 C967.629993,3562.97462 967.806868,3562.77047 968.040118,3562.72813 L968.129993,3562.72008 L980.972637,3562.72008 C981.218097,3562.72008 981.422245,3562.89695 981.464581,3563.1302 L981.472637,3563.22008 L981.472,3569.29501 L992.313,3558.48501 L981.472,3546.61001 L981.472637,3552.50101 C981.472637,3552.74647 981.295762,3552.95061 981.062513,3552.99295 L980.972637,3553.00101 L966.601,3553.00101 L966.60127,3558.42291 C966.60127,3558.84195 966.12578,3559.0628 965.80805,3558.82854 L965.74261,3558.77128 L954.14134,3546.8274 C953.976612,3546.65781 953.955853,3546.40055 954.079171,3546.20886 L954.140843,3546.13117 L965.742114,3534.15315 C966.033871,3533.85191 966.529436,3534.0246 966.594214,3534.41428 Z M982.052841,3556.27745 C982.176336,3556.03046 982.476672,3555.93035 982.723662,3556.05385 L982.723662,3556.05385 L986.723662,3558.05385 L986.802164,3558.10212 C987.090005,3558.317 987.063838,3558.77819 986.723662,3558.94827 L986.723662,3558.94827 L982.723662,3560.94827 L982.639672,3560.98126 C982.412114,3561.04771 982.162614,3560.94421 982.052841,3560.72467 L982.052841,3560.72467 L982.019853,3560.64068 C981.953407,3560.41312 982.056902,3560.16362 982.276448,3560.05385 L982.276448,3560.05385 L984.425,3558.979 L975.537354,3558.97903 L975.447478,3558.97098 C975.214229,3558.92864 975.037354,3558.72449 975.037354,3558.47903 C975.037354,3558.20289 975.261211,3557.97903 975.537354,3557.97903 L975.537354,3557.97903 L984.338,3557.979 L982.276448,3556.94827 L982.199663,3556.90087 C982.009972,3556.7587 981.943068,3556.497 982.052841,3556.27745 Z M966.947159,3544.27745 C967.056932,3544.497 966.990028,3544.7587 966.800337,3544.90087 L966.723552,3544.94827 L964.661,3545.979 L973.462646,3545.97903 C973.738789,3545.97903 973.962646,3546.20289 973.962646,3546.47903 C973.962646,3546.72449 973.785771,3546.92864 973.552522,3546.97098 L973.462646,3546.97903 L964.574,3546.979 L966.723552,3548.05385 C966.943098,3548.16362 967.046593,3548.41312 966.980147,3548.64068 L966.947159,3548.72467 C966.837386,3548.94421 966.587886,3549.04771 966.360328,3548.98126 L966.276338,3548.94827 L962.276338,3546.94827 C961.936162,3546.77819 961.909995,3546.317 962.197836,3546.10212 L962.276338,3546.05385 L966.276338,3544.05385 C966.523328,3543.93035 966.823664,3544.03046 966.947159,3544.27745 Z" transform="translate(-954 -3534)"/>
</svg>
