<svg xmlns="http://www.w3.org/2000/svg" xmlns:xlink="http://www.w3.org/1999/xlink" width="62" height="62" viewBox="0 0 62 62">
  <defs>
    <linearGradient id="icon-6-1-b" x1="100%" x2="0%" y1="100%" y2="0%">
      <stop offset="0%" stop-color="#1E85E9"/>
      <stop offset="20.276%" stop-color="#8671F3"/>
      <stop offset="70.727%" stop-color="#C06CFD" stop-opacity=".99"/>
      <stop offset="100%" stop-color="#FFBEE8"/>
    </linearGradient>
    <rect id="icon-6-1-a" width="60" height="60" x="0" y="0" rx="4"/>
    <linearGradient id="icon-6-1-c" x1="85.596%" x2="14.404%" y1="100%" y2="0%">
      <stop offset="0%" stop-color="#1E85E9"/>
      <stop offset="20.276%" stop-color="#8671F3"/>
      <stop offset="70.727%" stop-color="#C06CFD" stop-opacity=".99"/>
      <stop offset="100%" stop-color="#FFBEE8"/>
    </linearGradient>
  </defs>
  <g fill="none" fill-rule="evenodd" transform="translate(1 1)">
    <g opacity=".062">
      <use fill="#FAFAFA" xlink:href="#icon-6-1-a"/>
      <use fill="url(#icon-6-1-b)" stroke="#000" stroke-opacity=".02" xlink:href="#icon-6-1-a"/>
    </g>
    <path fill="url(#icon-6-1-c)" fill-rule="nonzero" d="M29.4999565,14 C33.1625115,14 36.1519106,16.7998688 36.3238867,20.3165359 L39.4752648,20.316667 C40.3532759,20.316667 41.0839132,20.9720727 41.1537499,21.8223233 L41.1537499,21.8223233 L42.9945782,44.2341275 C43.0685459,45.134673 42.3770252,45.9229607 41.4500235,45.9948174 C41.4054685,45.9982711 41.3607897,46 41.3160931,46 L41.3160931,46 L17.6838199,46 C16.7538718,46 16,45.2676433 16,44.3642356 C16,44.3208146 16.0017797,44.2774109 16.0053348,44.2341275 L16.0053348,44.2341275 L17.8461631,21.8223233 C17.9159998,20.9720727 18.6466371,20.316667 19.5246482,20.316667 L19.5246482,20.316667 L22.6760263,20.3165359 C22.8480024,16.7998688 25.8374015,14 29.4999565,14 Z M39.4752648,21.3020225 L19.5246482,21.3020225 C19.1755355,21.3020225 18.8850212,21.5626235 18.8572529,21.9006981 L18.8572529,21.9006981 L17.0164246,44.3125023 L17.0143033,44.3642356 C17.0143033,44.7234465 17.3140561,45.0146444 17.6838199,45.0146444 L17.6838199,45.0146444 L41.3427408,45.014129 L41.3693462,45.0125837 C41.7379384,44.9840122 42.0128993,44.6705751 41.9834884,44.3125023 L41.9834884,44.3125023 L40.1426601,21.9006981 C40.1148918,21.5626235 39.8243775,21.3020225 39.4752648,21.3020225 L39.4752648,21.3020225 Z M29.4999565,14.9853556 C26.3977899,14.9853556 23.8627463,17.3441997 23.6917136,20.3162823 L35.3082053,20.3163859 C35.1372256,17.3442545 32.6021592,14.9853556 29.4999565,14.9853556 Z"/>
  </g>
</svg>
