<svg xmlns="http://www.w3.org/2000/svg" width="37" height="29" viewBox="0 0 37 29">
  <defs>
    <linearGradient id="icon-21-3-a" x1="100%" x2="0%" y1="80.511%" y2="19.489%">
      <stop offset="0%" stop-color="#1E85E9"/>
      <stop offset="20.276%" stop-color="#8671F3"/>
      <stop offset="70.727%" stop-color="#C06CFD" stop-opacity=".99"/>
      <stop offset="100%" stop-color="#FFBEE8"/>
    </linearGradient>
  </defs>
  <path fill="url(#icon-21-3-a)" d="M695.833333,3252 C696.998421,3252 697.920297,3253.02326 697.995097,3254.28671 L698,3254.4528 L698,3255.903 L709.5,3255.90332 C710.279696,3255.90332 710.920449,3256.49821 710.993133,3257.25886 L711,3257.40332 L711,3279.40332 C711,3280.23175 710.328427,3280.90332 709.5,3280.90332 L709.5,3280.90332 L675.5,3280.90332 C674.671573,3280.90332 674,3280.23175 674,3279.40332 L674,3279.40332 L674,3257.40332 C674,3256.57489 674.671573,3255.90332 675.5,3255.90332 L675.5,3255.90332 L687,3255.903 L687,3254.4528 C687,3253.16995 687.873331,3252.09324 689.016128,3252.00574 L689.166667,3252 L695.833333,3252 Z M681.523,3256.903 L675.5,3256.90332 C675.223858,3256.90332 675,3257.12718 675,3257.40332 L675,3257.40332 L675,3279.40332 C675,3279.67946 675.223858,3279.90332 675.5,3279.90332 L675.5,3279.90332 L681.523,3279.903 L681.523,3256.903 Z M684,3256.903 L682.523,3256.903 L682.523,3279.903 L684,3279.903 L684,3256.903 Z M694,3256.903 L685,3256.903 L685,3279.903 L700.5,3279.903 L700.5,3256.903 L695,3256.903 L695.000434,3258.95342 C696.089234,3259.17463 696.920983,3260.10348 696.994682,3261.23894 L697,3261.40332 L697,3266.42358 L692,3266.42358 L692,3261.40332 C692,3260.19364 692.859168,3259.18463 694.000574,3258.95321 L694,3256.903 Z M702.976,3256.903 L701.5,3256.903 L701.5,3279.903 L702.976,3279.903 L702.976,3256.903 Z M709.5,3256.90332 L703.976,3256.903 L703.976,3279.903 L709.5,3279.90332 C709.74546,3279.90332 709.949608,3279.72645 709.991944,3279.4932 L710,3279.40332 L710,3257.40332 C710,3257.12718 709.776142,3256.90332 709.5,3256.90332 L709.5,3256.90332 Z M694.5,3259.90332 C693.671573,3259.90332 693,3260.57489 693,3261.40332 L693,3261.40332 L693,3265.423 L696,3265.423 L696,3261.40332 C696,3260.62362 695.405112,3259.98287 694.64446,3259.91019 L694.64446,3259.91019 Z M695.833333,3253 L689.166667,3253 C688.580536,3253 688.06801,3253.55759 688.006233,3254.30162 L688,3254.4528 L688,3255.903 L697,3255.903 L697,3254.4528 C697,3253.68557 696.524107,3253.08002 695.949466,3253.00732 L695.833333,3253 Z" transform="translate(-674 -3252)"/>
</svg>
