<svg xmlns="http://www.w3.org/2000/svg" width="47" height="29" viewBox="0 0 47 29">
  <defs>
    <linearGradient id="icon-16-8-a" x1="100%" x2="0%" y1="69.097%" y2="30.903%">
      <stop offset="0%" stop-color="#1E85E9"/>
      <stop offset="20.276%" stop-color="#8671F3"/>
      <stop offset="70.727%" stop-color="#C06CFD" stop-opacity=".99"/>
      <stop offset="100%" stop-color="#FFBEE8"/>
    </linearGradient>
  </defs>
  <path fill="url(#icon-16-8-a)" d="M1409.23957,2552 C1414.64334,2552 1418.92409,2558.52516 1418.92409,2566.5 C1418.92409,2574.47484 1414.64334,2581 1409.23957,2581 C1406.37667,2581 1402.87779,2578.05692 1398.63771,2572.20589 L1398.908,2572.577 L1399.03825,2575.84981 C1399.07239,2576.09289 1398.92563,2576.31965 1398.70054,2576.39401 L1398.61265,2576.41449 C1398.36958,2576.44863 1398.14282,2576.30187 1398.06845,2576.07677 L1398.04797,2575.98889 L1397.77089,2570.98031 C1397.72378,2570.6449 1398.01359,2570.37047 1398.33291,2570.41499 L1398.42049,2570.43523 L1403.27051,2572.01059 C1403.53314,2572.0959 1403.67689,2572.37796 1403.59159,2572.6406 C1403.51576,2572.87405 1403.28447,2573.01357 1403.04955,2572.98178 L1402.96158,2572.96168 L1399.64104,2571.88467 C1403.61129,2577.30601 1406.84408,2580 1409.23957,2580 C1413.98074,2580 1417.92409,2573.98913 1417.92409,2566.5 C1417.92409,2559.01087 1413.98074,2553 1409.23957,2553 C1406.10465,2553 1401.58259,2557.58245 1395.84819,2566.76485 L1395.869,2566.73 L1395.92409,2566.76485 L1395.34549,2567.68246 C1389.69488,2576.55555 1385.19394,2581 1381.68453,2581 C1376.28075,2581 1372,2574.47484 1372,2566.5 C1372,2558.52516 1376.28075,2552 1381.68453,2552 C1384.40145,2552 1387.68802,2554.64901 1391.63654,2559.91257 L1391.69492,2556.54985 C1391.69922,2556.30443 1391.87965,2556.10342 1392.11361,2556.06518 L1392.20361,2556.0587 C1392.44904,2556.06301 1392.65005,2556.24344 1392.68829,2556.47739 L1392.69476,2556.5674 L1392.60529,2561.66606 C1392.59934,2562.00472 1392.27017,2562.23043 1391.96175,2562.13651 L1391.87841,2562.10281 L1387.15796,2560.27393 C1386.9119,2560.14858 1386.81404,2559.8475 1386.93939,2559.60145 C1387.0508,2559.38273 1387.30107,2559.28111 1387.52813,2559.34926 L1387.61187,2559.38288 L1390.88683,2560.57993 C1387.0965,2555.51507 1383.99807,2553 1381.68453,2553 C1376.94336,2553 1373,2559.01087 1373,2566.5 C1373,2573.98913 1376.94336,2580 1381.68453,2580 C1384.7672,2580 1389.19115,2575.56902 1394.7902,2566.69044 L1395.054,2566.269 L1395,2566.23515 L1395.2903,2565.77253 C1401.07636,2556.59639 1405.67067,2552 1409.23957,2552 Z" transform="translate(-1372 -2552)"/>
</svg>
