<svg xmlns="http://www.w3.org/2000/svg" width="26" height="37" viewBox="0 0 26 37">
  <defs>
    <linearGradient id="icon-24-7-a" x1="73.856%" x2="26.144%" y1="100%" y2="0%">
      <stop offset="0%" stop-color="#1E85E9"/>
      <stop offset="20.276%" stop-color="#8671F3"/>
      <stop offset="70.727%" stop-color="#C06CFD" stop-opacity=".99"/>
      <stop offset="100%" stop-color="#FFBEE8"/>
    </linearGradient>
  </defs>
  <path fill="url(#icon-24-7-a)" d="M1255.76347,3675.41501 L1255.77051,3675.50092 L1255.77,3679.51945 L1261.54964,3683.15104 L1266.33724,3686.37255 C1266.54638,3686.51327 1266.61438,3686.7834 1266.50953,3687.00259 L1266.46205,3687.08205 L1263.54676,3691.0783 C1263.47146,3691.18152 1263.36034,3691.25099 1263.23713,3691.27465 L1263.14282,3691.28362 L1257.239,3691.28345 L1263.01254,3698.50141 C1263.08948,3698.59761 1263.12753,3698.71788 1263.12145,3698.83884 L1263.10852,3698.92933 L1261.832,3704.296 L1265.57051,3707.10092 C1265.57569,3707.1048 1265.58075,3707.10874 1265.58572,3707.11273 C1265.59319,3707.11882 1265.60104,3707.1256 1265.60867,3707.13261 C1265.62391,3707.14607 1265.63746,3707.15979 1265.64998,3707.17396 C1265.65259,3707.17834 1265.65589,3707.18229 1265.65913,3707.18629 C1265.74243,3707.28498 1265.77673,3707.40471 1265.77083,3707.52148 L1265.77051,3711.50092 C1265.77051,3711.77706 1265.54665,3712.00092 1265.27051,3712.00092 L1265.27051,3712.00092 L1245.27051,3712.00092 C1244.99437,3712.00092 1244.77051,3711.77706 1244.77051,3711.50092 L1244.77051,3711.50092 L1244.77019,3707.52148 C1244.76429,3707.40471 1244.7986,3707.28498 1244.88092,3707.18578 C1244.88513,3707.18229 1244.88843,3707.17834 1244.8918,3707.17444 C1244.91404,3707.14794 1244.94048,3707.12344 1244.97051,3707.10092 L1244.93235,3707.13261 C1244.93998,3707.1256 1244.94783,3707.11882 1244.95589,3707.11229 L1244.97051,3707.10092 L1248.632,3704.354 L1241.05547,3689.63796 C1240.98235,3689.49595 1240.98224,3689.32952 1241.05087,3689.18931 L1241.10026,3689.10873 L1247.0568,3681.18086 L1247.15266,3681.08415 L1254.96663,3675.10386 C1255.27211,3674.87007 1255.70341,3675.05562 1255.76347,3675.41501 Z M1264.77,3708.00045 L1245.77,3708.00045 L1245.77,3711.00045 L1264.77,3711.00045 L1264.77,3708.00045 Z M1261.103,3705.00045 L1249.437,3705.00045 L1246.77,3707.00045 L1263.77,3707.00045 L1261.103,3705.00045 Z M1254.77,3676.51245 L1247.816,3681.83445 L1242.087,3689.45745 L1249.575,3704 L1260.875,3704 L1262.079,3698.93445 L1255.80876,3691.09593 C1255.56435,3690.79037 1255.75111,3690.34758 1256.11795,3690.28989 L1256.19922,3690.28362 L1262.888,3690.28345 L1265.348,3686.91245 L1261.00452,3683.98925 L1255.00452,3680.21963 C1254.88316,3680.14339 1254.80156,3680.01964 1254.77773,3679.88098 L1254.77051,3679.79626 L1254.77,3676.51245 Z" transform="translate(-1241 -3675)"/>
</svg>
