<svg xmlns="http://www.w3.org/2000/svg" xmlns:xlink="http://www.w3.org/1999/xlink" width="62" height="62" viewBox="0 0 62 62">
  <defs>
    <linearGradient id="icon-10-3-b" x1="100%" x2="0%" y1="100%" y2="0%">
      <stop offset="0%" stop-color="#1E85E9"/>
      <stop offset="20.276%" stop-color="#8671F3"/>
      <stop offset="70.727%" stop-color="#C06CFD" stop-opacity=".99"/>
      <stop offset="100%" stop-color="#FFBEE8"/>
    </linearGradient>
    <rect id="icon-10-3-a" width="60" height="60" x="0" y="0" rx="4"/>
    <linearGradient id="icon-10-3-c" x1="100%" x2="0%" y1="97.102%" y2="2.898%">
      <stop offset="0%" stop-color="#1E85E9"/>
      <stop offset="20.276%" stop-color="#8671F3"/>
      <stop offset="70.727%" stop-color="#C06CFD" stop-opacity=".99"/>
      <stop offset="100%" stop-color="#FFBEE8"/>
    </linearGradient>
  </defs>
  <g fill="none" fill-rule="evenodd" transform="translate(1 1)">
    <g opacity=".062">
      <use fill="#FAFAFA" xlink:href="#icon-10-3-a"/>
      <use fill="url(#icon-10-3-b)" stroke="#000" stroke-opacity=".02" xlink:href="#icon-10-3-a"/>
    </g>
    <path fill="url(#icon-10-3-c)" fill-rule="nonzero" d="M17,13.5 C18.7632532,13.5 20.2219693,14.8038784 20.4645627,16.5000497 L39,16.5 C43.134197,16.5 46.5,19.6253885 46.5,23.5 C46.5,27.2971193 43.2674828,30.3746848 39.247109,30.4962685 L39,30.5 L22.5,30.5 L22.2612021,30.5039696 C18.7746566,30.6200751 16,33.2683562 16,36.5 C16,39.8050902 18.9022105,42.5 22.5,42.5 L22.5,42.5 L40.5354373,42.5000497 C40.7780307,40.8038784 42.2367468,39.5 44,39.5 C45.9329966,39.5 47.5,41.0670034 47.5,43 C47.5,44.9329966 45.9329966,46.5 44,46.5 C42.2370932,46.5 40.7786039,45.1966339 40.5355804,43.5009499 L21.5722656,43.5 L21.5725983,43.4469716 C17.8740253,43.0210058 15,40.0803799 15,36.5 C15,32.7826052 18.098202,29.7548659 22.0007197,29.5152784 L22,29.5 L39,29.5 C42.5977895,29.5 45.5,26.8050902 45.5,23.5 C45.5,20.2683562 42.7253434,17.6200751 39.2387979,17.5039696 L39,17.5 L20.4644196,17.5009499 C20.2213961,19.1966339 18.7629068,20.5 17,20.5 C15.0670034,20.5 13.5,18.9329966 13.5,17 C13.5,15.0670034 15.0670034,13.5 17,13.5 Z M44,40.5 C42.6192881,40.5 41.5,41.6192881 41.5,43 C41.5,44.3807119 42.6192881,45.5 44,45.5 C45.3807119,45.5 46.5,44.3807119 46.5,43 C46.5,41.6192881 45.3807119,40.5 44,40.5 Z M17,14.5 C15.6192881,14.5 14.5,15.6192881 14.5,17 C14.5,18.3807119 15.6192881,19.5 17,19.5 C18.3807119,19.5 19.5,18.3807119 19.5,17 C19.5,15.6192881 18.3807119,14.5 17,14.5 Z"/>
  </g>
</svg>
