<svg xmlns="http://www.w3.org/2000/svg" xmlns:xlink="http://www.w3.org/1999/xlink" width="62" height="62" viewBox="0 0 62 62">
  <defs>
    <linearGradient id="icon-13-1-b" x1="100%" x2="0%" y1="100%" y2="0%">
      <stop offset="0%" stop-color="#FFBEE8"/>
      <stop offset="29.273%" stop-color="#C06CFD" stop-opacity=".99"/>
      <stop offset="79.724%" stop-color="#8671F3"/>
      <stop offset="100%" stop-color="#1E85E9"/>
    </linearGradient>
    <rect id="icon-13-1-a" width="60" height="60" x="0" y="0" rx="4"/>
    <linearGradient id="icon-13-1-c" x1="100%" x2="0%" y1="71.597%" y2="28.403%">
      <stop offset="0%" stop-color="#1E85E9"/>
      <stop offset="20.276%" stop-color="#8671F3"/>
      <stop offset="70.727%" stop-color="#C06CFD" stop-opacity=".99"/>
      <stop offset="100%" stop-color="#FFBEE8"/>
    </linearGradient>
  </defs>
  <g fill="none" fill-rule="evenodd" transform="translate(1 1)">
    <g opacity=".062">
      <use fill="#FAFAFA" xlink:href="#icon-13-1-a"/>
      <use fill="url(#icon-13-1-b)" stroke="#000" stroke-opacity=".02" xlink:href="#icon-13-1-a"/>
    </g>
    <path fill="url(#icon-13-1-c)" fill-rule="nonzero" d="M32.5805031,21.2290004 C32.9496609,18.1343671 35.6730292,15.8915654 38.7672935,16.1458528 C40.004802,16.2475515 41.1762368,16.7467363 42.1067358,17.568893 L42.1067358,17.568893 L42.504847,17.9206502 L42.6156157,18.0612881 L48.7475595,29.6367714 L48.7034044,29.6604298 C49.2144889,30.7529512 49.5,31.9720951 49.5,33.2579237 C49.5,37.9523441 45.6944204,41.7579237 41,41.7579237 C37.751751,41.7579237 34.9290598,39.9358939 33.498199,37.2581065 L26.501801,37.2581065 C25.0709402,39.9358939 22.248249,41.7579237 19,41.7579237 C14.3055796,41.7579237 10.5,37.9523441 10.5,33.2579237 C10.5,31.6716052 10.9345479,30.1867807 11.6910996,28.9159945 L17.4425495,18.0612881 L17.5533182,17.9206502 L17.9514294,17.568893 C18.8819284,16.7467363 20.0533632,16.2475515 21.2908716,16.1458528 C24.385136,15.8915654 27.1085043,18.1343671 27.4776621,21.2290004 L27.5,21.4514721 L27.499,33.1932087 L27.5,33.2579237 C27.5,34.314026 27.3073944,35.3251429 26.9553933,36.2580643 L33.0446067,36.2580643 C32.6926056,35.3251429 32.5,34.314026 32.5,33.2579237 C32.5,32.9199392 32.5197265,32.586562 32.558091,32.2588807 L32.5581652,21.4514721 Z M19,25.7579237 C16.2691378,25.7579237 13.8791679,27.2174573 12.5675977,29.3990172 L12.1942753,30.1048825 C11.7485357,31.0621633 11.5,32.1310192 11.5,33.2579237 C11.5,37.4000593 14.8578644,40.7579237 19,40.7579237 C23.1421356,40.7579237 26.5,37.4000593 26.5,33.2579237 L26.5,33.2579237 L26.5,33.2579237 L26.4997642,33.1978174 C26.4674678,29.083353 23.1220817,25.7579237 19,25.7579237 Z M41,25.7579237 C37.1758839,25.7579237 34.0202345,28.6199701 33.5582157,32.318899 L33.5581652,33.2579237 L33.5,33.2579237 L33.5,33.2579237 C33.5,37.4000593 36.8578644,40.7579237 41,40.7579237 C45.1421356,40.7579237 48.5,37.4000593 48.5,33.2579237 C48.5,29.1157881 45.1421356,25.7579237 41,25.7579237 Z M32.5,31.7579237 L32.5,32.7579237 L27.5,32.7579237 L27.5,31.7579237 L32.5,31.7579237 Z M21.3727758,17.142493 C20.435492,17.2195192 19.5440819,17.5725118 18.8098316,18.1540483 L18.6135617,18.3182799 L18.283,18.61 L14.2622798,26.1996742 C15.6159934,25.2892245 17.2459507,24.7579237 19,24.7579237 C22.2470242,24.7579237 25.0688114,26.5785798 26.5001818,29.2547121 L26.5016799,21.4924242 C26.2865725,18.8749161 23.9902839,16.9273856 21.3727758,17.142493 Z M38.6853894,17.142493 C36.0678813,16.9273856 33.7715927,18.8749161 33.5564853,21.4924242 L33.5564853,21.4924242 L33.5571586,29.1493068 C35.0056726,26.5308859 37.7957875,24.7579237 41,24.7579237 C42.7928573,24.7579237 44.4560709,25.3129944 45.8271649,26.26066 L41.7767247,18.611 L41.4446035,18.3182799 L41.2483336,18.1540483 C40.5140833,17.5725118 39.6226732,17.2195192 38.6853894,17.142493 Z M32.5,22.2579237 L32.5,23.2579237 L27.5,23.2579237 L27.5,22.2579237 L32.5,22.2579237 Z"/>
  </g>
</svg>
