<svg xmlns="http://www.w3.org/2000/svg" xmlns:xlink="http://www.w3.org/1999/xlink" width="62" height="62" viewBox="0 0 62 62">
  <defs>
    <linearGradient id="icon-5-1-b" x1="100%" x2="0%" y1="100%" y2="0%">
      <stop offset="0%" stop-color="#1E85E9"/>
      <stop offset="20.276%" stop-color="#8671F3"/>
      <stop offset="70.727%" stop-color="#C06CFD" stop-opacity=".99"/>
      <stop offset="100%" stop-color="#FFBEE8"/>
    </linearGradient>
    <rect id="icon-5-1-a" width="60" height="60" x="0" y="0" rx="4"/>
  </defs>
  <g fill="none" fill-rule="evenodd" transform="translate(1 1)">
    <g opacity=".062">
      <use fill="#FAFAFA" xlink:href="#icon-5-1-a"/>
      <use fill="url(#icon-5-1-b)" stroke="#000" stroke-opacity=".02" xlink:href="#icon-5-1-a"/>
    </g>
    <path fill="url(#icon-5-1-b)" fill-rule="nonzero" d="M30.5,12 C40.1649831,12 48,19.8350169 48,29.5 C48,39.1649831 40.1649831,47 30.5,47 C20.8350169,47 13,39.1649831 13,29.5 C13,19.8350169 20.8350169,12 30.5,12 Z M30.5,13 C21.3873016,13 14,20.3873016 14,29.5 C14,38.6126984 21.3873016,46 30.5,46 C39.6126984,46 47,38.6126984 47,29.5 C47,20.3873016 39.6126984,13 30.5,13 Z M25.644,24.3 C29.036,24.3 30.812,26.796 30.812,29.98 C30.812,33.164 29.036,35.66 25.644,35.66 C22.252,35.66 20.476,33.164 20.476,29.98 C20.476,26.796 22.252,24.3 25.644,24.3 Z M36.3,24.3 C37.308,24.3 38.316,24.588 38.988,25.004 C39.372,25.244 39.692,25.548 39.468,25.868 C39.308,26.1018462 39.0154556,26.0043314 38.7214547,25.8594793 L38.5459281,25.7691598 L38.5459281,25.7691598 L38.46,25.724 C37.82,25.388 37.068,25.164 36.268,25.164 C34.604,25.164 33.884,25.996 33.884,27.02 C33.884,30.044 39.932,28.652 39.932,32.572 C39.932,34.412 38.588,35.66 36.14,35.66 C35.132,35.66 34.092,35.452 33.276,35.02 C32.748,34.732 32.38,34.396 32.604,34.028 C32.828,33.66 33.26,33.964 33.676,34.188 C34.476,34.62 35.308,34.796 36.188,34.796 C37.852,34.796 38.94,34.092 38.94,32.716 C38.94,29.58 32.892,30.956 32.892,27.052 C32.892,25.548 33.98,24.3 36.3,24.3 Z M25.644,25.164 C22.956,25.164 21.468,27.26 21.468,29.98 C21.468,32.7 22.956,34.796 25.644,34.796 C28.332,34.796 29.82,32.7 29.82,29.98 C29.82,27.26 28.332,25.164 25.644,25.164 Z"/>
  </g>
</svg>
