<svg xmlns="http://www.w3.org/2000/svg" xmlns:xlink="http://www.w3.org/1999/xlink" width="62" height="62" viewBox="0 0 62 62">
  <defs>
    <linearGradient id="icon-10-5-b" x1="100%" x2="0%" y1="100%" y2="0%">
      <stop offset="0%" stop-color="#1E85E9"/>
      <stop offset="20.276%" stop-color="#8671F3"/>
      <stop offset="70.727%" stop-color="#C06CFD" stop-opacity=".99"/>
      <stop offset="100%" stop-color="#FFBEE8"/>
    </linearGradient>
    <rect id="icon-10-5-a" width="60" height="60" x="0" y="0" rx="4"/>
    <linearGradient id="icon-10-5-c" x1="80.307%" x2="19.693%" y1="100%" y2="0%">
      <stop offset="0%" stop-color="#1E85E9"/>
      <stop offset="20.276%" stop-color="#8671F3"/>
      <stop offset="70.727%" stop-color="#C06CFD" stop-opacity=".99"/>
      <stop offset="100%" stop-color="#FFBEE8"/>
    </linearGradient>
  </defs>
  <g fill="none" fill-rule="evenodd" transform="translate(1 1)">
    <g opacity=".062">
      <use fill="#FAFAFA" xlink:href="#icon-10-5-a"/>
      <use fill="url(#icon-10-5-b)" stroke="#000" stroke-opacity=".02" xlink:href="#icon-10-5-a"/>
    </g>
    <path fill="url(#icon-10-5-c)" fill-rule="nonzero" d="M30.1818182,11 C38.5665048,11 45.3636364,17.7971315 45.3636364,26.1818182 C45.3636364,31.720831 42.3710959,36.731559 37.6502793,39.402597 L37.59,39.435 L37.5909091,46.9090909 C37.5909091,48.5572887 36.3008542,49.9041779 34.6753962,49.9951071 L34.5,50 L25.8636364,50 C24.2154386,50 22.8685493,48.7099451 22.7776202,47.0844871 L22.7727273,46.9090909 L22.772,39.435 L22.7450845,39.4205072 C18.0067046,36.7545504 15,31.7338696 15,26.1818182 C15,17.7971315 21.7971315,11 30.1818182,11 Z M36.59,42.659 L23.772,42.659 L23.7727273,46.9090909 C23.7727273,48.0136604 24.629226,48.9181839 25.7143122,48.9947501 L25.8636364,49 L34.5,49 C35.6045695,49 36.509093,48.1435013 36.5856592,47.0584151 L36.5909091,46.9090909 L36.59,42.659 Z M30.1818182,12 C22.3494163,12 16,18.3494163 16,26.1818182 C16,31.3637917 18.8032754,36.0495903 23.2232442,38.5421146 L23.4759993,38.6794117 C23.6245129,38.7455763 23.7348193,38.8820174 23.7646716,39.046488 L23.7727273,39.1363636 L23.772,41.659 L29.681,41.659 L29.6818182,34.7616744 C29.6818182,34.485532 29.9056758,34.2616744 30.1818182,34.2616744 C30.4272781,34.2616744 30.6314266,34.4385495 30.6737625,34.6717987 L30.6818182,34.7616744 L30.681,41.659 L36.59,41.659 L36.5909091,39.1363636 C36.5909091,38.9326005 36.712796,38.7573055 36.887637,38.6794117 L36.8740292,38.6886095 C41.4481931,36.2357257 44.3636364,31.4665127 44.3636364,26.1818182 C44.3636364,18.3494163 38.0142201,12 30.1818182,12 Z M24.7156945,24.906773 C24.9105626,24.7717769 25.179987,24.7910621 25.3535534,24.9646284 L25.3535534,24.9646284 L30.182,29.7931818 L35.010083,24.9646284 L35.0793309,24.906773 C35.274199,24.7717769 35.5436234,24.7910621 35.7171898,24.9646284 C35.9124519,25.1598906 35.9124519,25.4764731 35.7171898,25.6717352 L35.7171898,25.6717352 L30.5353716,30.8535534 L30.4661237,30.9114088 C30.2712555,31.0464049 30.0018311,31.0271197 29.8282648,30.8535534 L29.8282648,30.8535534 L24.6464466,25.6717352 L24.5885912,25.6024873 C24.4535951,25.4076192 24.4728803,25.1381948 24.6464466,24.9646284 L24.6464466,24.9646284 Z"/>
  </g>
</svg>
