<svg xmlns="http://www.w3.org/2000/svg" width="51" height="50" viewBox="0 0 51 50">
  <defs>
    <linearGradient id="icon-28-2-a" x1="100%" x2="0%" y1="98.058%" y2="1.942%">
      <stop offset="0%" stop-color="#1E85E9"/>
      <stop offset="20.276%" stop-color="#8671F3"/>
      <stop offset="70.727%" stop-color="#C06CFD" stop-opacity=".99"/>
      <stop offset="100%" stop-color="#FFBEE8"/>
    </linearGradient>
  </defs>
  <path fill="url(#icon-28-2-a)" d="M548.5,4263.5 C548.74546,4263.5 548.949608,4263.67688 548.991944,4263.91012 L549,4264 L549,4281.085 L555.146447,4274.93934 C555.320013,4274.76577 555.589437,4274.74649 555.784306,4274.88148 L555.853553,4274.93934 C556.02712,4275.11291 556.046405,4275.38233 555.911409,4275.5772 L555.853553,4275.64645 L548.5,4283 L541.146447,4275.64645 C540.951184,4275.45118 540.951184,4275.1346 541.146447,4274.93934 C541.320013,4274.76577 541.589437,4274.74649 541.784306,4274.88148 L541.853553,4274.93934 L548,4281.085 L548,4264 C548,4263.72386 548.223858,4263.5 548.5,4263.5 Z M545,4233 C551.277949,4233 556.726756,4237.16725 558.44545,4243.08602 L558.048423,4243.135 C558.691329,4243.0453 559.342914,4243 560,4243 C567.731986,4243 574,4249.26801 574,4257 C574,4264.6275 567.900248,4270.83033 560.312645,4270.99658 L560,4271 L554.516602,4271 C554.240459,4271 554.016602,4270.77614 554.016602,4270.5 C554.016602,4270.25454 554.193477,4270.05039 554.426726,4270.00806 L554.516602,4270 L560,4270 L560,4270 C567.179702,4270 573,4264.1797 573,4257 C573,4249.8203 567.179702,4244 560,4244 C559.389175,4244 558.783761,4244.04209 558.186604,4244.12541 C558.000899,4244.15132 557.824807,4244.07167 557.718948,4243.93225 C557.651518,4243.87039 557.600923,4243.78899 557.576026,4243.69401 C556.089967,4238.025 550.945147,4234 545,4234 C538.629406,4234 533.363916,4238.44297 532.302871,4244.61832 L532.300159,4244.63306 C532.295648,4244.6552 532.289652,4244.67697 532.282232,4244.69823 L532.302871,4244.61832 C532.296163,4244.65736 532.285096,4244.69456 532.270256,4244.72951 C532.263689,4244.74465 532.25647,4244.75954 532.248526,4244.77405 C532.242969,4244.78441 532.237151,4244.79419 532.231025,4244.80373 C532.220923,4244.81938 532.209678,4244.83495 532.197528,4244.84986 C532.192336,4244.85619 532.18703,4244.86237 532.181583,4244.8684 C532.168251,4244.88331 532.153755,4244.89759 532.138328,4244.911 C532.130818,4244.91735 532.123638,4244.92324 532.116303,4244.92892 C532.102224,4244.93999 532.086958,4244.95053 532.070994,4244.96026 C532.060232,4244.96678 532.049007,4244.97308 532.037545,4244.97895 C532.026223,4244.98471 532.014486,4244.99015 532.002449,4244.99516 C527.19656,4246.99822 524,4251.70363 524,4257 C524,4264.07713 529.655192,4269.83343 536.693144,4269.99645 L537,4270 L542.571289,4270 C542.847431,4270 543.071289,4270.22386 543.071289,4270.5 C543.071289,4270.74546 542.894414,4270.94961 542.661165,4270.99194 L542.571289,4271 L537,4271 L537,4271 C529.268014,4271 523,4264.73199 523,4257 C523,4251.38941 526.331118,4246.3945 531.366103,4244.17989 L531.317313,4244.44898 C532.460776,4237.79395 538.142225,4233 545,4233 Z" transform="translate(-523 -4233)"/>
</svg>
