<?xml version="1.0" encoding="UTF-8"?>
<svg width="39px" height="41px" viewBox="0 0 39 41" version="1.1" xmlns="http://www.w3.org/2000/svg" xmlns:xlink="http://www.w3.org/1999/xlink">
    <title>icon-30-2</title>
    <defs>
        <linearGradient x1="95.240928%" y1="100%" x2="4.75907198%" y2="0%" id="linearGradient-1">
            <stop stop-color="#1E85E9" offset="0%"></stop>
            <stop stop-color="#8671F3" offset="20.275549%"></stop>
            <stop stop-color="#C06CFD" stop-opacity="0.99" offset="70.7268792%"></stop>
            <stop stop-color="#FFBEE8" offset="100%"></stop>
        </linearGradient>
    </defs>
    <g id="Page-1" stroke="none" stroke-width="1" fill="none" fill-rule="evenodd">
        <g id="icons" transform="translate(-531.000000, -4522.000000)" fill="url(#linearGradient-1)" fill-rule="nonzero">
            <path d="M555.801858,4543.36137 L558.146495,4543.55241 C562.271811,4543.91333 565.428427,4544.66622 566.222119,4551.20765 L566.113987,4551.20067 C568.275755,4551.32035 570,4552.99558 570,4555.05914 C570,4555.89013 569.718657,4556.68709 569.196438,4557.34985 L569.196438,4557.34985 L569.113959,4557.45456 L568.952747,4557.63081 C568.855397,4557.73307 568.754769,4557.82807 568.656545,4557.91076 L568.656545,4557.91076 L563.534751,4563 L560.756,4560.272 L561.115536,4560.62503 C559.773797,4560.80828 558.240688,4560.8329 556.592438,4560.8329 L554.727083,4560.82845 L542.056707,4560.8296 L540.230676,4560.83158 C534.954864,4560.80579 531,4560.34593 531,4554.82104 C531,4543.36137 535.660804,4543.8968 541.612113,4543.36137 C541.658618,4545.45923 544.816416,4547.15201 548.706017,4547.15201 C552.59691,4547.15201 555.754062,4545.45923 555.801858,4543.36137 Z M565.866196,4552.35033 C565.463773,4552.35033 564.939695,4552.64673 564.358503,4553.25451 L564.358503,4553.25451 L563.534743,4554.11595 L562.710871,4553.25461 C562.129422,4552.64672 561.605337,4552.35033 561.202915,4552.35033 C559.560966,4552.35033 558.244646,4553.57167 558.244646,4555.05914 C558.244646,4555.65714 558.455891,4556.22863 558.850309,4556.70158 L558.850309,4556.70158 L558.910253,4556.77345 L558.977005,4556.89307 L563.528678,4561.36064 L567.824072,4557.09316 L567.987302,4556.94679 C568.062531,4556.87576 568.135874,4556.79864 568.211469,4556.71077 L568.211469,4556.71077 L568.231995,4556.68837 L568.245958,4556.66846 L568.267364,4556.64129 C568.630962,4556.17985 568.824465,4555.63171 568.824465,4555.05914 C568.824465,4553.57167 567.508145,4552.35033 565.866196,4552.35033 Z M556.719977,4544.59714 L556.663854,4544.73176 C555.667677,4546.89792 552.424748,4548.30851 548.706017,4548.30851 C544.98775,4548.30851 541.744602,4546.89758 540.74939,4544.73119 L540.692728,4544.59714 L540.269962,4544.63149 C536.844058,4544.89975 535.53215,4545.20889 534.412095,4546.21344 C532.951411,4547.52349 532.175535,4550.15021 532.175535,4554.82104 C532.175535,4558.70364 533.88306,4559.611 540.08631,4559.67289 L556.592438,4559.6764 C557.921317,4559.6764 559.060928,4559.64504 560.034523,4559.56457 L557.972249,4557.54017 L557.930779,4557.42159 L557.779659,4557.22725 C557.369006,4556.66134 557.126982,4556.00543 557.078269,4555.31821 L557.078269,4555.31821 L557.069111,4555.05914 C557.069111,4552.91732 558.92663,4551.19383 561.202915,4551.19383 C561.988307,4551.19383 562.784697,4551.64421 563.566966,4552.46206 L563.566966,4552.46206 L563.534556,4552.42897 L563.698097,4552.26532 C564.158462,4551.82154 564.623068,4551.50673 565.086766,4551.3377 L565.05768,4551.3485 L565.05768,4551.3485 C564.749355,4548.77606 564.052395,4547.15366 563.001465,4546.21188 C561.921945,4545.24447 560.664729,4544.92221 557.512067,4544.66071 L556.719977,4544.59714 Z M548.707309,4522 C554.090873,4522 558.453918,4526.29618 558.453272,4531.59583 C558.453272,4534.41226 557.219606,4537.98414 555.255428,4540.71218 C554.632136,4541.57829 553.934566,4542.35537 553.17951,4543.00018 C552.621454,4543.47647 552.033686,4543.87773 551.420082,4544.18423 C550.558454,4544.61474 549.648383,4544.86338 548.706663,4544.86338 C547.765589,4544.86338 546.857455,4544.61601 545.997118,4544.18614 C545.382223,4543.87836 544.792518,4543.47647 544.234461,4542.99954 C543.480052,4542.35473 542.781835,4541.57765 542.158543,4540.71218 C540.194366,4537.98414 538.961345,4534.41289 538.961345,4531.59583 C538.961345,4526.29618 543.32439,4522 548.707309,4522 Z M548.707309,4523.1565 C543.973961,4523.1565 540.136881,4526.93457 540.136881,4531.59583 C540.136881,4534.18362 541.302919,4537.52301 543.117725,4540.04359 C543.698767,4540.85039 544.336071,4541.55439 545.005381,4542.12646 C545.503613,4542.55226 546.01456,4542.89729 546.52943,4543.155 C547.262397,4543.52124 547.988757,4543.70688 548.706663,4543.70688 C549.42438,4543.70688 550.152605,4543.52042 550.887887,4543.15304 C551.400163,4542.89715 551.909081,4542.55342 552.408918,4542.12681 C553.077892,4541.55552 553.71443,4540.85206 554.296165,4540.0437 C556.111184,4537.52283 557.277736,4534.18277 557.277736,4531.59569 C557.278304,4526.93451 553.441279,4523.1565 548.707309,4523.1565 Z" id="icon-30-2"></path>
        </g>
    </g>
</svg>