<svg xmlns="http://www.w3.org/2000/svg" xmlns:xlink="http://www.w3.org/1999/xlink" width="62" height="62" viewBox="0 0 62 62">
  <defs>
    <linearGradient id="icon-6-9-b" x1="100%" x2="0%" y1="100%" y2="0%">
      <stop offset="0%" stop-color="#1E85E9"/>
      <stop offset="20.276%" stop-color="#8671F3"/>
      <stop offset="70.727%" stop-color="#C06CFD" stop-opacity=".99"/>
      <stop offset="100%" stop-color="#FFBEE8"/>
    </linearGradient>
    <rect id="icon-6-9-a" width="60" height="60" x="0" y="0" rx="4"/>
  </defs>
  <g fill="none" fill-rule="evenodd" transform="translate(1 1)">
    <g opacity=".062">
      <use fill="#FAFAFA" xlink:href="#icon-6-9-a"/>
      <use fill="url(#icon-6-9-b)" stroke="#000" stroke-opacity=".02" xlink:href="#icon-6-9-a"/>
    </g>
    <path fill="url(#icon-6-9-b)" fill-rule="nonzero" d="M28.1473984,12.1017607 C29.4180432,11.9625811 30.6997906,11.9661098 31.9751573,12.1127172 C33.0261771,12.2396994 33.7983767,13.159698 33.7421342,14.200563 L33.7421342,14.200563 L33.738099,14.3967734 C33.7549827,15.3434731 34.32483,16.1985861 35.1664527,16.5593459 C36.1202048,16.9264514 37.20381,16.6843376 37.9098643,15.9417528 L37.9098643,15.9417528 L38.0505594,15.8035216 C38.7779723,15.1593967 39.8683252,15.1288638 40.6359972,15.7412224 C41.6333021,16.5438091 42.5376415,17.4557398 43.3302338,18.4578277 C43.9885268,19.2858436 43.8892754,20.4813574 43.0998876,21.1961202 L43.0998876,21.1961202 L42.9739765,21.3168062 C42.3299156,21.9810621 42.1274565,22.9658147 42.4702067,23.8364324 C42.8350345,24.7631293 43.7388106,25.3617776 44.7563869,25.3396327 L44.7563869,25.3396327 L44.9125851,25.3453124 C45.8973236,25.4168443 46.7843099,26.1562052 46.8934719,27.117877 C47.0358028,28.3969116 47.0356233,29.6869714 46.8922444,30.9749593 C46.7660122,32.0190219 45.851669,32.7984383 44.8483591,32.74263 L44.8483591,32.74263 L44.6346685,32.7425031 C43.6406887,32.7275431 42.7426723,33.3330936 42.384374,34.2598096 C42.0256523,35.1876209 42.2842501,36.2388339 43.043723,36.9083727 C43.8263254,37.6234749 43.9178853,38.8239489 43.2530438,39.6486334 C42.4428082,40.6555674 41.5213132,41.5675787 40.5050687,42.3682019 C39.6825095,43.0145617 38.4971012,42.9209243 37.8170738,42.1756478 L37.8170738,42.1756478 L37.6685768,42.0309063 C36.9687726,41.3996446 35.9728322,41.203798 35.1203742,41.5184728 C34.1928178,41.9034088 33.6029411,42.8241554 33.6410782,43.8547916 L33.6410782,43.8547916 L33.6374619,44.0370845 C33.5720652,45.0013826 32.8244058,45.7869726 31.8611865,45.8940199 C31.2389694,45.9658265 30.6128597,46.0011958 29.9869271,45.9999692 C29.3327979,45.999084 28.6799986,45.9616093 28.0237938,45.8869656 C26.9723701,45.7599347 26.2005941,44.8395771 26.2576834,43.7777639 L26.2576834,43.7777639 L26.2615661,43.6003078 C26.2474199,42.6587129 25.6812106,41.8030781 24.8316775,41.4444171 C23.8737342,41.0781727 22.7875018,41.3227374 22.0752339,42.0719886 L22.0752339,42.0719886 L21.9338549,42.2093545 C21.203759,42.8486982 20.1141824,42.8745037 19.3540611,42.2621506 C18.3561006,41.4602386 17.4527087,40.5469764 16.6636811,39.5426867 C16.0109925,38.7172062 16.107792,37.5266988 16.869551,36.8344203 L16.869551,36.8344203 L17.0162183,36.6893627 C17.6539698,36.0054335 17.8400085,35.0115121 17.4894588,34.1431378 C17.1230467,33.2413957 16.2432726,32.6553495 15.2391922,32.6627079 L15.2391922,32.6627079 L15.0580993,32.6538285 C14.0601219,32.5619451 13.1956902,31.8300299 13.1124728,30.8905956 C12.9631354,29.607472 12.9627542,28.3096877 13.1098806,27.0479727 C13.2099416,25.9838857 14.1373481,25.1848159 15.1595317,25.2510469 L15.1595317,25.2510469 L15.3692001,25.2504429 C16.3215562,25.2105805 17.1773057,24.6423652 17.5631445,23.8060567 C17.9552851,22.8650288 17.7082298,21.7806415 16.9370193,21.0894273 C16.1638731,20.3734495 16.0739375,19.1832083 16.7319305,18.3558038 C17.5411774,17.3463716 18.4637969,16.4331999 19.4811733,15.6346571 C20.3031542,14.9887517 21.4886812,15.081385 22.1636653,15.8217085 L22.1636653,15.8217085 L22.3236647,15.9751371 C23.0290477,16.5980721 24.0234685,16.7874224 24.8760929,16.4713942 C25.8056431,16.0863601 26.3971537,15.1649475 26.3609745,14.1274755 L26.3609745,14.1274755 L26.365819,13.9461694 C26.4372887,12.9867251 27.1835528,12.2091057 28.1473984,12.1017607 Z M31.8614323,13.0774611 C30.6608197,12.9394546 29.451759,12.9361261 28.2531704,13.067413 L28.2531704,13.067413 L28.1406684,13.0861928 C27.6994299,13.1848773 27.3686341,13.5602656 27.3357726,13.9935241 L27.3357726,13.9935241 L27.3319611,14.1214277 C27.3824177,15.5354025 26.5522568,16.8285676 25.2309459,17.3755078 C24.0243122,17.8232629 22.6532345,17.5621924 21.6665683,16.6903504 L21.6665683,16.6903504 L21.3835301,16.4172094 C21.0229208,16.1083015 20.4723279,16.0912749 20.0811676,16.3986451 C19.1221197,17.1514057 18.2525641,18.012057 17.4910553,18.961936 C17.1504225,19.3902736 17.1969592,20.0061578 17.5911981,20.371334 C18.6637836,21.3325411 19.0110746,22.8568877 18.4525987,24.1962063 C17.9063164,25.3814057 16.7247179,26.1659839 15.3916959,26.221441 L15.3916959,26.221441 L15.0184155,26.2209165 C14.5360882,26.2468004 14.124391,26.6352833 14.07591,27.1496577 C13.9363651,28.3473394 13.9367242,29.5697113 14.0787398,30.7914933 C14.1184529,31.2388332 14.5861593,31.6348407 15.1250661,31.6849647 L15.1250661,31.6849647 L15.2577229,31.6918142 C16.6332923,31.6807545 17.8730238,32.5065799 18.3898404,33.7784716 C18.8823197,34.9984264 18.6214091,36.3923554 17.7136102,37.3653525 L17.7136102,37.3653525 L17.5385363,37.5384672 C17.1393,37.9016151 17.0894338,38.514905 17.4266207,38.9413621 C18.1709166,39.888713 19.022173,40.74927 19.9630143,41.5052843 C20.3551663,41.8212014 20.9177855,41.8078763 21.2740722,41.4968737 L21.2740722,41.4968737 L21.5254807,41.249114 C22.4963654,40.3386251 23.9185673,40.0553232 25.1939185,40.5432067 C26.4918635,41.0907423 27.3109398,42.4148432 27.2275716,43.8323533 C27.1980611,44.3812847 27.59689,44.8568958 28.1369403,44.9221556 C28.7537704,44.9923091 29.3703437,45.0277043 29.9885372,45.0285408 C30.5769511,45.0296938 31.1652223,44.996462 31.7518512,44.9287667 C32.2486435,44.8735535 32.6345777,44.46804 32.6672133,43.9962946 L32.6672133,43.9962946 L32.6700611,43.8651603 C32.6169129,42.4550433 33.4454154,41.1618226 34.7658094,40.6142657 C35.9763885,40.1668258 37.35236,40.4374037 38.332376,41.3218804 L38.332376,41.3218804 L38.6005567,41.5834224 C38.9630232,41.894362 39.5135717,41.9118533 39.9043851,41.6047559 C40.862623,40.8498314 41.7318946,39.9895059 42.4964907,39.0392916 C42.8394869,38.6138311 42.7922494,37.9944828 42.3949113,37.6313102 C41.3371769,36.6989732 40.9726807,35.2172778 41.4783114,33.9094955 C41.9832807,32.603424 43.24873,31.750106 44.6421471,31.7711303 L44.6421471,31.7711303 L44.9847737,31.7715089 C45.4557807,31.7420398 45.8672555,31.3594742 45.9273106,30.8629289 C46.0622151,29.6508823 46.0623846,28.4328958 45.9281246,27.2263793 C45.8722994,26.7345872 45.3322112,26.3110605 44.7670101,26.3109444 C43.3539678,26.3418569 42.0804687,25.4983095 41.5663056,24.1922869 C41.0529877,22.8884111 41.4072352,21.4029072 42.450808,20.4733819 C42.8578491,20.1048092 42.908978,19.4889456 42.5690794,19.061411 C41.8207761,18.1153207 40.9677169,17.2551007 40.0285952,16.4993314 C39.6323489,16.1832556 39.0692357,16.1990244 38.7142816,16.5123332 L38.7142816,16.5123332 L38.4619811,16.7622138 C37.4943151,17.6688975 36.0736719,17.9494267 34.8007803,17.4591401 C33.5894144,16.9404158 32.7905016,15.741567 32.7668366,14.3962579 L32.7668366,14.3962579 L32.7713432,14.0492957 C32.7431751,13.552364 32.3632522,13.1380976 31.8614323,13.0774611 Z M30.0001045,18.7999569 C35.6333962,18.7999569 40.2000814,23.3666491 40.2000814,28.9999495 C40.2000814,34.6332498 35.6333962,39.1999421 30.0001045,39.1999421 C24.3668128,39.1999421 19.8001276,34.6332498 19.8001276,28.9999495 C19.8001276,23.3666491 24.3668128,18.7999569 30.0001045,18.7999569 Z M30.0001045,19.7713848 C24.9033168,19.7713848 20.771554,23.9031539 20.771554,28.9999495 C20.771554,34.096745 24.9033168,38.2285142 30.0001045,38.2285142 C35.0968922,38.2285142 39.228655,34.096745 39.228655,28.9999495 C39.228655,23.9031539 35.0968922,19.7713848 30.0001045,19.7713848 Z M26.5698891,23.8938804 C27.4111832,25.3034495 27.6474126,26.5536447 27.2301124,27.6251564 C27.144659,27.8445772 27.0521113,28.0515699 26.9435342,28.2702533 L26.829283,28.4937268 C26.7624852,28.6210149 26.507895,29.0871133 26.4502257,29.1975198 C26.1183284,29.8329285 25.983247,30.291082 25.983247,30.9546635 C25.983247,31.9046561 26.2110067,32.7803184 26.6679938,33.5897634 C26.7998744,33.8233588 26.7174186,34.1196358 26.4838236,34.2515166 C26.2502285,34.3833974 25.953952,34.3009414 25.8220714,34.067346 C25.2823935,33.1114338 25.0118206,32.0711686 25.0118206,30.9546635 C25.0118206,30.1166772 25.1902398,29.5115361 25.5891851,28.7477655 L25.9691054,28.0423243 C26.1138095,27.7665801 26.2255266,27.5278144 26.3249103,27.2726243 C26.6175818,26.5211249 26.4373464,25.5672667 25.7357393,24.3917399 C25.5982594,24.1613955 25.6735407,23.8632148 25.9038848,23.7257346 C26.1342289,23.5882545 26.4324091,23.6635359 26.5698891,23.8938804 Z M30.1010334,23.8938804 C30.9423275,25.3034495 31.1785569,26.5536447 30.7612567,27.6251564 C30.6758033,27.8445772 30.5832556,28.0515699 30.4746785,28.2702533 L30.3604274,28.4937268 C30.2936296,28.6210149 30.0390394,29.0871133 29.98137,29.1975198 C29.6494728,29.8329285 29.5143913,30.291082 29.5143913,30.9546635 C29.5143913,31.9046561 29.742151,32.7803184 30.1991382,33.5897634 C30.3310187,33.8233588 30.2485629,34.1196358 30.0149679,34.2515166 C29.7813729,34.3833974 29.4850963,34.3009414 29.3532157,34.067346 C28.8135378,33.1114338 28.5429649,32.0711686 28.5429649,30.9546635 C28.5429649,30.1166772 28.7213841,29.5115361 29.1203295,28.7477655 L29.5002497,28.0423243 C29.6449538,27.7665801 29.7566709,27.5278144 29.8560547,27.2726243 C30.1487261,26.5211249 29.9684907,25.5672667 29.2668836,24.3917399 C29.1294037,24.1613955 29.204685,23.8632148 29.4350291,23.7257346 C29.6653732,23.5882545 29.9635535,23.6635359 30.1010334,23.8938804 Z M33.9867389,23.8938804 C34.828033,25.3034495 35.0642624,26.5536447 34.6469622,27.6251564 C34.5615088,27.8445772 34.4689611,28.0515699 34.360384,28.2702533 L34.2461328,28.4937268 C34.179335,28.6210149 33.9247448,29.0871133 33.8670755,29.1975198 C33.5351783,29.8329285 33.4000968,30.291082 33.4000968,30.9546635 C33.4000968,31.9046561 33.6278565,32.7803184 34.0848436,33.5897634 C34.2167242,33.8233588 34.1342684,34.1196358 33.9006734,34.2515166 C33.6670783,34.3833974 33.3708018,34.3009414 33.2389212,34.067346 C32.6992433,33.1114338 32.4286704,32.0711686 32.4286704,30.9546635 C32.4286704,30.1166772 32.6070896,29.5115361 33.0060349,28.7477655 L33.3859552,28.0423243 C33.5306593,27.7665801 33.6423764,27.5278144 33.7417601,27.2726243 C34.0344316,26.5211249 33.8541962,25.5672667 33.1525891,24.3917399 C33.0151092,24.1613955 33.0903905,23.8632148 33.3207346,23.7257346 C33.5510787,23.5882545 33.8492589,23.6635359 33.9867389,23.8938804 Z"/>
  </g>
</svg>
