<svg xmlns="http://www.w3.org/2000/svg" width="46" height="26" viewBox="0 0 46 26">
  <defs>
    <linearGradient id="icon-16-5-a" x1="100%" x2="0%" y1="65.974%" y2="34.026%">
      <stop offset="0%" stop-color="#1E85E9"/>
      <stop offset="20.276%" stop-color="#8671F3"/>
      <stop offset="70.727%" stop-color="#C06CFD" stop-opacity=".99"/>
      <stop offset="100%" stop-color="#FFBEE8"/>
    </linearGradient>
  </defs>
  <path fill="url(#icon-16-5-a)" d="M973,2554 C985.508856,2554 995.679642,2564.00314 995.992579,2576.45431 L996,2576.45455 L995.999,2576.944 L996,2577.04545 L995.999,2577.045 L996,2577.63636 L975.119,2577.636 L975.121513,2577.65906 L975.135922,2577.91473 C975.135922,2579.06639 974.179637,2580 973,2580 C971.820363,2580 970.864078,2579.06639 970.864078,2577.91473 C970.864078,2577.85242 970.869512,2577.75994 970.88041,2577.63702 L950,2577.63636 L950,2576.45455 C950.320231,2564.00326 960.491066,2554 973,2554 Z M973,2571.43418 L972.871573,2572.2536 C972.420325,2575.1468 972.158244,2576.96607 972.091611,2577.65915 L972.084553,2577.73692 L972.074604,2577.91473 C972.074604,2578.41369 972.488918,2578.81818 973,2578.81818 C973.511082,2578.81818 973.925396,2578.41369 973.925396,2577.91473 C973.925396,2577.67396 973.805837,2576.74262 973.569698,2575.14551 L973.529262,2574.87316 L973,2571.43418 Z M973,2555.18182 C961.166501,2555.18182 951.530475,2564.64945 951.218331,2576.45448 L971.021986,2576.45516 C971.132103,2575.63932 971.300137,2574.49911 971.527105,2573.02607 L971.577432,2572.70023 L973,2563.78875 L973.597909,2567.49907 C974.298826,2571.84861 974.756091,2574.81092 974.978038,2576.45534 L994.781669,2576.45448 C994.469525,2564.64945 984.833499,2555.18182 973,2555.18182 Z M992.905739,2569.48787 L993.279812,2570.63915 L988.783908,2572.09996 L988.409835,2570.94868 L992.905739,2569.48787 Z M953.094261,2569.48787 L957.590165,2570.94868 L957.216092,2572.09996 L952.720188,2570.63915 L953.094261,2569.48787 Z M973.605263,2555.77273 L973.605263,2560.5 L972.394737,2560.5 L972.394737,2555.77273 L973.605263,2555.77273 Z" transform="translate(-950 -2554)"/>
</svg>
