<?xml version="1.0" encoding="UTF-8"?>
<svg width="38px" height="37px" viewBox="0 0 38 37" version="1.1" xmlns="http://www.w3.org/2000/svg" xmlns:xlink="http://www.w3.org/1999/xlink">
    <title>icon-28-8</title>
    <defs>
        <linearGradient x1="100%" y1="97.3338203%" x2="0%" y2="2.66617969%" id="linearGradient-1">
            <stop stop-color="#1E85E9" offset="0%"></stop>
            <stop stop-color="#8671F3" offset="20.275549%"></stop>
            <stop stop-color="#C06CFD" stop-opacity="0.99" offset="70.7268792%"></stop>
            <stop stop-color="#FFBEE8" offset="100%"></stop>
        </linearGradient>
    </defs>
    <g id="Page-1" stroke="none" stroke-width="1" fill="none" fill-rule="evenodd">
        <g id="icons" transform="translate(-1375.000000, -4242.000000)">
            <g id="icon-28-8" transform="translate(1375.000000, 4242.000000)">
                <g id="Group-10" fill="url(#linearGradient-1)" fill-rule="nonzero">
                    <path d="M8,27.5 C8.82842712,27.5 9.5,28.1715729 9.5,29 L9.5,29 L9.5,35 C9.5,35.8284271 8.82842712,36.5 8,36.5 L8,36.5 L2,36.5 C1.17157288,36.5 0.5,35.8284271 0.5,35 L0.5,35 L0.5,29 C0.5,28.1715729 1.17157288,27.5 2,27.5 L2,27.5 Z M32,28.5 C33.9329966,28.5 35.5,30.0670034 35.5,32 C35.5,33.9329966 33.9329966,35.5 32,35.5 C30.2370932,35.5 28.7786039,34.1966339 28.5355804,32.5009499 L12,32.5 C11.7238576,32.5 11.5,32.2761424 11.5,32 C11.5,31.7545401 11.6768752,31.5503916 11.9101244,31.5080557 L12,31.5 L28.5354373,31.5000497 C28.7780307,29.8038784 30.2367468,28.5 32,28.5 Z M8,28.5 L2,28.5 C1.72385763,28.5 1.5,28.7238576 1.5,29 L1.5,29 L1.5,35 C1.5,35.2761424 1.72385763,35.5 2,35.5 L2,35.5 L8,35.5 C8.27614237,35.5 8.5,35.2761424 8.5,35 L8.5,35 L8.5,29 C8.5,28.7238576 8.27614237,28.5 8,28.5 L8,28.5 Z M32,29.5 C30.6192881,29.5 29.5,30.6192881 29.5,32 C29.5,33.3807119 30.6192881,34.5 32,34.5 C33.3807119,34.5 34.5,33.3807119 34.5,32 C34.5,30.6192881 33.3807119,29.5 32,29.5 Z M36,13.5 C36.8284271,13.5 37.5,14.1715729 37.5,15 L37.5,21 C37.5,21.8284271 36.8284271,22.5 36,22.5 L30,22.5 C29.1715729,22.5 28.5,21.8284271 28.5,21 L28.5,15 C28.5,14.1715729 29.1715729,13.5 30,13.5 L36,13.5 Z M5,14.5 C6.76325319,14.5 8.22196926,15.8038784 8.46456269,17.5000497 L25,17.5 L25.0898756,17.5080557 C25.3231248,17.5503916 25.5,17.7545401 25.5,18 C25.5,18.2761424 25.2761424,18.5 25,18.5 L25,18.5 L8.46441956,18.5009499 C8.22139608,20.1966339 6.76290678,21.5 5,21.5 C3.06700338,21.5 1.5,19.9329966 1.5,18 C1.5,16.0670034 3.06700338,14.5 5,14.5 Z M36,14.5 L30,14.5 C29.7238576,14.5 29.5,14.7238576 29.5,15 L29.5,21 C29.5,21.2761424 29.7238576,21.5 30,21.5 L36,21.5 C36.2761424,21.5 36.5,21.2761424 36.5,21 L36.5,15 C36.5,14.7238576 36.2761424,14.5 36,14.5 Z M5,15.5 C3.61928813,15.5 2.5,16.6192881 2.5,18 C2.5,19.3807119 3.61928813,20.5 5,20.5 C6.38071187,20.5 7.5,19.3807119 7.5,18 C7.5,16.6192881 6.38071187,15.5 5,15.5 Z M8,0.5 C8.82842712,0.5 9.5,1.17157288 9.5,2 L9.5,2 L9.5,8 C9.5,8.82842712 8.82842712,9.5 8,9.5 L8,9.5 L2,9.5 C1.17157288,9.5 0.5,8.82842712 0.5,8 L0.5,8 L0.5,2 C0.5,1.17157288 1.17157288,0.5 2,0.5 L2,0.5 Z M32,1.5 C33.9329966,1.5 35.5,3.06700338 35.5,5 C35.5,6.93299662 33.9329966,8.5 32,8.5 C30.2370932,8.5 28.7786039,7.19663386 28.5355804,5.50094991 L12,5.5 C11.7238576,5.5 11.5,5.27614237 11.5,5 C11.5,4.75454011 11.6768752,4.55039163 11.9101244,4.50805567 L12,4.5 L28.5354373,4.50004975 C28.7780307,2.80387842 30.2367468,1.5 32,1.5 Z M8,1.5 L2,1.5 C1.72385763,1.5 1.5,1.72385763 1.5,2 L1.5,2 L1.5,8 C1.5,8.27614237 1.72385763,8.5 2,8.5 L2,8.5 L8,8.5 C8.27614237,8.5 8.5,8.27614237 8.5,8 L8.5,8 L8.5,2 C8.5,1.72385763 8.27614237,1.5 8,1.5 L8,1.5 Z M32,2.5 C30.6192881,2.5 29.5,3.61928813 29.5,5 C29.5,6.38071187 30.6192881,7.5 32,7.5 C33.3807119,7.5 34.5,6.38071187 34.5,5 C34.5,3.61928813 33.3807119,2.5 32,2.5 Z" id="Combined-Shape"></path>
                </g>
                <g id="Group-10" transform="translate(1.000000, 28.000000)"></g>
                <g id="Group-10" transform="translate(19.500000, 18.000000) scale(-1, 1) translate(-19.500000, -18.000000) translate(2.000000, 14.000000)"></g>
            </g>
        </g>
    </g>
</svg>