<svg xmlns="http://www.w3.org/2000/svg" width="21" height="33" viewBox="0 0 21 33">
  <defs>
    <linearGradient id="icon-18-3-a" x1="70.248%" x2="29.752%" y1="100%" y2="0%">
      <stop offset="0%" stop-color="#1E85E9"/>
      <stop offset="20.276%" stop-color="#8671F3"/>
      <stop offset="70.727%" stop-color="#C06CFD" stop-opacity=".99"/>
      <stop offset="100%" stop-color="#FFBEE8"/>
    </linearGradient>
  </defs>
  <path fill="url(#icon-18-3-a)" d="M692.5,2832 C698.29899,2832 703,2836.70101 703,2842.5 C703,2846.69814 700.536235,2850.32083 696.97574,2852.00104 L701.5,2852 C702.328427,2852 703,2852.67157 703,2853.5 L703,2853.5 L703,2863.5 C703,2864.32843 702.328427,2865 701.5,2865 L701.5,2865 L683.5,2865 C682.671573,2865 682,2864.32843 682,2863.5 L682,2863.5 L682,2853.5 C682,2852.67157 682.671573,2852 683.5,2852 L683.5,2852 L688.02426,2852.00104 C684.463765,2850.32083 682,2846.69814 682,2842.5 C682,2836.70101 686.70101,2832 692.5,2832 Z M702,2861 L683,2861 L683,2863.5 C683,2863.74546 683.176875,2863.94961 683.410124,2863.99194 L683.5,2864 L701.5,2864 C701.776142,2864 702,2863.77614 702,2863.5 L702,2863.5 L702,2861 Z M702,2857 L683,2857 L683,2860 L702,2860 L702,2857 Z M701.5,2853 L683.5,2853 C683.223858,2853 683,2853.22386 683,2853.5 L683,2853.5 L683,2856 L702,2856 L702,2853.5 C702,2853.25454 701.823125,2853.05039 701.589876,2853.00806 L701.5,2853 Z M692.5,2833 C687.253295,2833 683,2837.25329 683,2842.5 C683,2847.74671 687.253295,2852 692.5,2852 C697.746705,2852 702,2847.74671 702,2842.5 C702,2837.25329 697.746705,2833 692.5,2833 Z M692.5,2834 C697.19442,2834 701,2837.80558 701,2842.5 C701,2847.19442 697.19442,2851 692.5,2851 C687.80558,2851 684,2847.19442 684,2842.5 C684,2837.80558 687.80558,2834 692.5,2834 Z M692.5,2835 C688.357864,2835 685,2838.35786 685,2842.5 C685,2846.64214 688.357864,2850 692.5,2850 C696.642136,2850 700,2846.64214 700,2842.5 C700,2838.35786 696.642136,2835 692.5,2835 Z" transform="translate(-682 -2832)"/>
</svg>
