<svg xmlns="http://www.w3.org/2000/svg" width="37" height="33" viewBox="0 0 37 33">
  <defs>
    <linearGradient id="icon-13-3-a" x1="92.014%" x2="7.986%" y1="100%" y2="0%">
      <stop offset="0%" stop-color="#1E85E9"/>
      <stop offset="20.276%" stop-color="#8671F3"/>
      <stop offset="70.727%" stop-color="#C06CFD" stop-opacity=".99"/>
      <stop offset="100%" stop-color="#FFBEE8"/>
    </linearGradient>
  </defs>
  <path fill="url(#icon-13-3-a)" d="M689.302811,2127.16571 C689.337533,2127.441 689.145015,2127.69263 688.872809,2127.72775 C681.546079,2128.67292 675.993731,2135.0037 675.993731,2142.54096 C675.993731,2150.24219 681.772077,2156.62176 689.233129,2157.39615 L685.470459,2154.79106 C685.268369,2154.65118 685.202227,2154.39085 685.301797,2154.17684 L685.346962,2154.09908 C685.488425,2153.89925 685.751704,2153.83385 685.96814,2153.93231 L686.046779,2153.97697 L691.071692,2157.45503 C691.331488,2157.63485 691.355105,2157.99705 691.142545,2158.21004 L691.071692,2158.26912 L685.923282,2160.37291 C685.69593,2160.53028 685.382611,2160.47561 685.223465,2160.2508 C685.082002,2160.05097 685.109971,2159.78398 685.277609,2159.61659 L685.346962,2159.55882 L688.634396,2158.33626 C680.912105,2157.28425 675,2150.58888 675,2142.54096 C675,2134.49627 680.925667,2127.73983 688.747069,2126.73084 C689.019274,2126.69573 689.268089,2126.89043 689.302811,2127.16571 Z M697.821447,2124.75423 C697.96291,2124.95406 697.934941,2125.22105 697.767303,2125.38844 L697.69795,2125.44621 L694.111806,2127.22153 C701.95798,2128.15983 708,2134.91343 708,2143.04929 C708,2151.09398 702.074333,2157.85042 694.252931,2158.85941 C693.980726,2158.89452 693.731911,2158.69982 693.697189,2158.42454 C693.662467,2158.14925 693.854985,2157.89762 694.127191,2157.8625 C701.453921,2156.91733 707.006269,2150.58654 707.006269,2143.04929 C707.006269,2135.3243 701.192202,2128.92912 693.697746,2128.18709 L697.529288,2131.10261 C697.731379,2131.24249 697.79752,2131.50282 697.69795,2131.71683 L697.652785,2131.79459 C697.511322,2131.99442 697.248043,2132.05982 697.031607,2131.96136 L696.952968,2131.91671 L691.928055,2128.13365 C691.66826,2127.95383 691.644642,2127.59162 691.857202,2127.37864 L691.928055,2127.31955 L697.12163,2124.63212 C697.348982,2124.47475 697.662301,2124.52942 697.821447,2124.75423 Z" transform="rotate(-90 -708 1416)"/>
</svg>
