<?xml version="1.0" encoding="UTF-8"?>
<svg width="50px" height="50px" viewBox="0 0 50 50" version="1.1" xmlns="http://www.w3.org/2000/svg" xmlns:xlink="http://www.w3.org/1999/xlink">
    <title>icon-27-9</title>
    <defs>
        <linearGradient x1="100%" y1="99.005%" x2="0%" y2="0.995%" id="linearGradient-1">
            <stop stop-color="#1E85E9" offset="0%"></stop>
            <stop stop-color="#8671F3" offset="20.275549%"></stop>
            <stop stop-color="#C06CFD" stop-opacity="0.99" offset="70.7268792%"></stop>
            <stop stop-color="#FFBEE8" offset="100%"></stop>
        </linearGradient>
    </defs>
    <g id="Page-1" stroke="none" stroke-width="1" fill="none" fill-rule="evenodd">
        <g id="icons" transform="translate(-1512.000000, -4092.000000)" fill="url(#linearGradient-1)" fill-rule="nonzero">
            <path d="M1537,4120.91584 C1539.63411,4120.91584 1541.78295,4122.99308 1541.89718,4125.59852 L1541.90196,4125.81683 L1541.90186,4128.75684 L1542.39216,4128.75743 C1543.69165,4128.75743 1544.75494,4129.76854 1544.83792,4131.0468 L1544.84314,4131.20792 L1544.84314,4139.0495 C1544.84314,4140.34874 1543.83183,4141.41182 1542.55331,4141.49479 L1542.39216,4141.5 L1531.60784,4141.5 C1530.30835,4141.5 1529.24506,4140.48889 1529.16208,4139.21063 L1529.15686,4139.0495 L1529.15686,4131.20792 C1529.15686,4129.90868 1530.16817,4128.84561 1531.44669,4128.76264 L1531.60784,4128.75743 L1532.09786,4128.75684 L1532.09804,4125.81683 C1532.09804,4123.18324 1534.17569,4121.03482 1536.78165,4120.92062 L1537,4120.91584 Z M1542.39216,4129.73762 L1531.60784,4129.73762 C1530.84344,4129.73762 1530.21525,4130.32073 1530.14399,4131.06632 L1530.13725,4131.20792 L1530.13725,4139.0495 C1530.13725,4139.81376 1530.72048,4140.44183 1531.46622,4140.51307 L1531.60784,4140.5198 L1542.39216,4140.5198 C1543.15656,4140.5198 1543.78475,4139.93669 1543.85601,4139.1911 L1543.86275,4139.0495 L1543.86275,4131.20792 C1543.86275,4130.3959 1543.20434,4129.73762 1542.39216,4129.73762 Z M1537,4131.69802 C1538.08291,4131.69802 1538.96078,4132.57572 1538.96078,4133.65842 C1538.96078,4134.57371 1538.33338,4135.34251 1537.4851,4135.55835 C1537.48889,4135.57751 1537.4902,4135.59806 1537.4902,4135.61891 L1537.4902,4137.57911 C1537.4902,4137.84984 1537.27073,4138.06931 1537,4138.06931 C1536.72927,4138.06931 1536.5098,4137.84984 1536.5098,4137.57911 L1536.5098,4135.61891 L1536.5155,4135.55851 C1535.66691,4135.34287 1535.03922,4134.57393 1535.03922,4133.65842 C1535.03922,4132.57572 1535.91709,4131.69802 1537,4131.69802 Z M1537,4132.67822 C1536.45854,4132.67822 1536.01961,4133.11707 1536.01961,4133.65842 C1536.01961,4134.19976 1536.45854,4134.63861 1537,4134.63861 C1537.54146,4134.63861 1537.98039,4134.19976 1537.98039,4133.65842 C1537.98039,4133.11707 1537.54146,4132.67822 1537,4132.67822 Z M1533.56863,4092 C1539.72356,4092 1545.06559,4096.08484 1546.75051,4101.88652 L1546.3612,4101.93431 C1546.9915,4101.84639 1547.63031,4101.80198 1548.27451,4101.80198 C1555.85489,4101.80198 1562,4107.94587 1562,4115.52475 C1562,4123.05823 1555.92829,4129.17386 1548.41058,4129.24686 C1548.3954,4129.2523 1548.37915,4129.25621 1548.36262,4129.25927 L1548.27451,4129.26733 L1546.8202,4129.26733 C1546.54947,4129.26733 1546.33,4129.04347 1546.33,4128.76733 C1546.33,4128.52187 1546.50341,4128.31772 1546.73208,4128.27538 L1546.8202,4128.26733 L1548.27451,4128.26733 C1555.31343,4128.26733 1561.01961,4122.56228 1561.01961,4115.52475 C1561.01961,4108.48722 1555.31343,4102.78218 1548.27451,4102.78218 C1547.67566,4102.78218 1547.08212,4102.82344 1546.49667,4102.9051 C1546.31456,4102.9305 1546.14188,4102.85239 1546.0381,4102.71567 C1545.97217,4102.6553 1545.9225,4102.57544 1545.89806,4102.48225 C1544.44114,4096.9255 1539.3972,4092.9802 1533.56863,4092.9802 C1527.42881,4092.9802 1522.336,4097.18881 1521.17689,4103.08194 L1521.12046,4103.38825 L1521.10152,4103.46284 L1521.10152,4103.46284 L1521.11,4103.432 L1521.1071,4103.44549 C1521.10158,4103.46406 1521.09501,4103.48211 1521.08749,4103.49958 L1521.06701,4103.54121 L1521.06701,4103.54121 C1521.0603,4103.55369 1521.05287,4103.56589 1521.04496,4103.57771 C1521.03728,4103.58911 1521.02906,4103.60036 1521.02036,4103.61127 C1521.01305,4103.6204 1521.00543,4103.62925 1520.99752,4103.63779 C1520.98553,4103.65089 1520.97261,4103.66345 1520.95895,4103.67531 L1520.93415,4103.69531 L1520.93415,4103.69531 L1520.89676,4103.72119 L1520.89676,4103.72119 C1520.87825,4103.73266 1520.85901,4103.74296 1520.83913,4103.75196 L1520.82593,4103.75764 L1520.82593,4103.75764 C1516.11427,4105.72103 1512.98039,4110.33326 1512.98039,4115.52475 C1512.98039,4122.45879 1518.51997,4128.09924 1525.41583,4128.26364 L1525.72549,4128.26733 L1527.26597,4128.26733 C1527.5367,4128.26733 1527.75617,4128.49118 1527.75617,4128.76733 C1527.75617,4129.01279 1527.58276,4129.21694 1527.35408,4129.25927 L1527.26597,4129.26733 L1525.72549,4129.26733 C1525.67801,4129.26733 1525.63211,4129.26044 1525.5887,4129.2476 L1525.72549,4129.24752 C1518.14511,4129.24752 1512,4123.10363 1512,4115.52475 C1512,4110.02525 1515.26581,4105.12925 1520.20207,4102.9585 L1520.15423,4103.22226 C1521.27527,4096.69902 1526.84532,4092 1533.56863,4092 Z M1537,4121.89604 C1534.90186,4121.89604 1533.18857,4123.54344 1533.08353,4125.61507 L1533.07843,4125.81683 L1533.07843,4128.75743 L1540.92157,4128.75743 L1540.92157,4125.81683 C1540.92157,4123.78479 1539.37541,4122.1138 1537.39516,4121.9157 L1537.19573,4121.90084 L1537,4121.89604 Z" id="icon-27-9"></path>
        </g>
    </g>
</svg>