<svg xmlns="http://www.w3.org/2000/svg" xmlns:xlink="http://www.w3.org/1999/xlink" width="62" height="62" viewBox="0 0 62 62">
  <defs>
    <linearGradient id="ico-advantages-2-b" x1="100%" x2="0%" y1="100%" y2="0%">
      <stop offset="0%" stop-color="#FFBEE8"/>
      <stop offset="29.273%" stop-color="#C06CFD" stop-opacity=".99"/>
      <stop offset="79.724%" stop-color="#8671F3"/>
      <stop offset="100%" stop-color="#1E85E9"/>
    </linearGradient>
    <rect id="ico-advantages-2-a" width="60" height="60" x="0" y="0" rx="4"/>
    <linearGradient id="ico-advantages-2-c" x1="66.439%" x2="29.902%" y1="95.932%" y2="0%">
      <stop offset="0%" stop-color="#1E85E9"/>
      <stop offset="20.276%" stop-color="#8671F3"/>
      <stop offset="70.727%" stop-color="#C06CFD" stop-opacity=".99"/>
      <stop offset="100%" stop-color="#FFBEE8"/>
    </linearGradient>
  </defs>
  <g fill="none" fill-rule="evenodd" transform="translate(1 1)">
    <g opacity=".062">
      <use fill="#FAFAFA" xlink:href="#ico-advantages-2-a"/>
      <use fill="url(#ico-advantages-2-b)" stroke="#000" stroke-opacity=".02" xlink:href="#ico-advantages-2-a"/>
    </g>
    <path fill="url(#ico-advantages-2-c)" fill-rule="nonzero" d="M19,22.5 C19.8284271,22.5 20.5,23.1715729 20.5,24 L20.5,24 L20.5,27.4992169 L39.5,27.4992169 L39.5,24 C39.5,23.2203039 40.0948881,22.5795513 40.85554,22.5068666 L41,22.5 L43,22.5 C43.8284271,22.5 44.5,23.1715729 44.5,24 L44.5,24 L44.5,52 C44.5,52.8284271 43.8284271,53.5 43,53.5 L43,53.5 L41,53.5 C40.1715729,53.5 39.5,52.8284271 39.5,52 L39.5,52 L39.5,47.4992169 L20.5,47.4992169 L20.5,52 C20.5,52.7796961 19.9051119,53.4204487 19.14446,53.4931334 L19,53.5 L17,53.5 C16.1715729,53.5 15.5,52.8284271 15.5,52 L15.5,52 L15.5,24 C15.5,23.1715729 16.1715729,22.5 17,22.5 L17,22.5 Z M19,23.5 L17,23.5 C16.7238576,23.5 16.5,23.7238576 16.5,24 L16.5,24 L16.5,52 C16.5,52.2761424 16.7238576,52.5 17,52.5 L17,52.5 L19,52.5 C19.2761424,52.5 19.5,52.2761424 19.5,52 L19.5,52 L19.5,24 C19.5,23.7238576 19.2761424,23.5 19,23.5 L19,23.5 Z M40.5,52 C40.5,52.2761424 40.7238576,52.5 41,52.5 L41,52.5 L43,52.5 C43.2761424,52.5 43.5,52.2761424 43.5,52 L43.5,52 L43.5,24 C43.5,23.7238576 43.2761424,23.5 43,23.5 L43,23.5 L41,23.5 C40.7238576,23.5 40.5,23.7238576 40.5,24 L40.5,24 Z M39.5,44.5 L20.5,44.5 L20.5,46.5 L39.5,46.5 L39.5,44.5 Z M39.5,39.4992169 L20.5,39.4992169 L20.5,43.4992169 L39.5,43.4992169 L39.5,39.4992169 Z M39.5,36.5 L20.5,36.5 L20.5,38.5 L39.5,38.5 L39.5,36.5 Z M39.5,31.4992169 L20.5,31.4992169 L20.5,35.4992169 L39.5,35.4992169 L39.5,31.4992169 Z M39.5,28.5 L20.5,28.5 L20.5,30.5 L39.5,30.5 L39.5,28.5 Z M28.6548959,8.59570289 C29.0215293,7.85282241 29.9209681,7.54781391 30.6638486,7.91444735 C30.9596675,8.06044271 31.1991088,8.29988399 31.3451041,8.59570289 L31.3451041,8.59570289 L32.976,11.902 L36.626245,12.4326763 C37.3978377,12.5447953 37.9463871,13.2256399 37.9089359,13.9888383 L37.9089359,13.9888383 L37.894958,14.1327843 C37.8475213,14.4592399 37.6937905,14.7609535 37.457565,14.9912164 L37.457565,14.9912164 L34.816,17.564 L35.4403487,21.1995698 C35.5721525,21.9680448 35.0941419,22.7001388 34.3567241,22.9003619 L34.3567241,22.9003619 L34.2155038,22.9315499 C33.8903674,22.9873152 33.5559153,22.9343432 33.2639246,22.7808346 L33.2639246,22.7808346 L29.999,21.064 L26.7360754,22.7808346 C26.0459419,23.1436592 25.2019658,22.9152736 24.7836676,22.2758199 L24.7836676,22.2758199 L24.7103666,22.1511491 C24.556858,21.8591584 24.503886,21.5247063 24.5596513,21.1995698 L24.5596513,21.1995698 L25.183,17.564 L22.542435,14.9912164 C21.9862862,14.4491053 21.9408583,13.5805526 22.4138171,12.9852985 L22.4138171,12.9852985 L22.515323,12.8700693 C22.7455859,12.6338439 23.0472995,12.4801131 23.373755,12.4326763 L23.373755,12.4326763 L27.023,11.902 Z M30.137123,8.77863136 C29.9092235,8.71336744 29.6602641,8.81815587 29.551632,9.03826861 L29.551632,9.03826861 L27.6869991,12.8164274 L23.5175533,13.4222833 C23.4087348,13.4380956 23.3081636,13.4893392 23.2314093,13.568081 C23.0386587,13.7658228 23.0427049,14.0823794 23.2404466,14.27513 L23.2404466,14.27513 L26.257486,17.2160165 L25.5452596,21.3686149 C25.5266712,21.4769937 25.5443285,21.5884777 25.595498,21.685808 C25.7239984,21.9302303 26.026312,22.0242035 26.2707343,21.8957031 L26.2707343,21.8957031 L30,19.9351121 L33.7292657,21.8957031 C33.8265959,21.9468727 33.93808,21.96453 34.0464588,21.9459416 C34.318627,21.8992611 34.5014209,21.6407831 34.4547404,21.3686149 L34.4547404,21.3686149 L33.742514,17.2160165 L36.7595534,14.27513 C36.8382952,14.1983757 36.8895388,14.0978045 36.905351,13.988986 C36.9450598,13.7157136 36.7557191,13.4619922 36.4824467,13.4222833 L36.4824467,13.4222833 L32.3130009,12.8164274 L30.448368,9.03826861 C30.3997029,8.9396623 30.3198892,8.85984854 30.2212829,8.81118342 L30.2212829,8.81118342 Z"/>
  </g>
</svg>
