<svg xmlns="http://www.w3.org/2000/svg" width="35" height="35" viewBox="0 0 35 35">
  <defs>
    <linearGradient id="icon-15-9-a" x1="100%" x2="0%" y1="100%" y2="0%">
      <stop offset="0%" stop-color="#1E85E9"/>
      <stop offset="20.276%" stop-color="#8671F3"/>
      <stop offset="70.727%" stop-color="#C06CFD" stop-opacity=".99"/>
      <stop offset="100%" stop-color="#FFBEE8"/>
    </linearGradient>
  </defs>
  <path fill="url(#icon-15-9-a)" d="M1538.5,2408 C1548.16498,2408 1556,2415.83502 1556,2425.5 C1556,2435.16498 1548.16498,2443 1538.5,2443 C1528.83502,2443 1521,2435.16498 1521,2425.5 C1521,2415.83502 1528.83502,2408 1538.5,2408 Z M1538.5499,2432.3832 C1536.18908,2432.3832 1533.91424,2432.61474 1531.84389,2433.04025 C1533.11093,2438.37166 1535.66272,2442 1538.5,2442 C1541.34083,2442 1543.89545,2438.36258 1545.1613,2433.0225 C1543.11559,2432.60756 1540.87414,2432.3832 1538.5499,2432.3832 Z M1530.86455,2433.26033 L1530.80869,2433.27331 C1528.67818,2433.79616 1526.80315,2434.5324 1525.32737,2435.43645 C1527.70836,2438.58884 1531.19345,2440.85849 1535.20709,2441.67138 C1533.29535,2440.04428 1531.75995,2437.03505 1530.86455,2433.26033 Z M1546.14088,2433.23685 L1546.06249,2433.5605 C1545.15794,2437.19447 1543.6537,2440.08763 1541.79295,2441.67082 C1545.82432,2440.85489 1549.32251,2438.5687 1551.70403,2435.39624 C1550.20281,2434.48827 1548.29943,2433.75357 1546.14088,2433.23685 Z M1524.58937,2416.6211 L1524.51173,2416.74497 C1522.92022,2419.28244 1522,2422.28375 1522,2425.5 C1522,2428.87211 1523.01157,2432.00795 1524.7478,2434.62063 C1526.3425,2433.63173 1528.36304,2432.83722 1530.65083,2432.28264 C1530.23041,2430.19551 1530,2427.90261 1530,2425.5 C1530,2423.2209 1530.20733,2421.04053 1530.58742,2419.03977 C1528.24944,2418.46914 1526.19387,2417.64566 1524.58937,2416.6211 Z M1552.43816,2416.66558 L1552.28617,2416.76113 C1550.6929,2417.73501 1548.68539,2418.51786 1546.41701,2419.06494 C1546.79433,2421.05799 1547,2423.23002 1547,2425.5 C1547,2427.89377 1546.77129,2430.17862 1546.3539,2432.26084 C1548.64609,2432.80701 1550.67412,2433.59424 1552.28127,2434.57568 C1554.00002,2431.97191 1555,2428.85273 1555,2425.5 C1555,2422.25014 1554.06045,2419.21973 1552.43816,2416.66558 Z M1531.56614,2419.26325 L1531.52231,2419.49596 C1531.18608,2421.35471 1531,2423.37917 1531,2425.5 C1531,2427.83569 1531.2257,2430.05451 1531.62909,2432.06381 C1533.77345,2431.62159 1536.11968,2431.3832 1538.5499,2431.3832 C1540.94377,2431.3832 1543.25666,2431.61448 1545.37523,2432.04396 C1545.77572,2430.04055 1546,2427.82835 1546,2425.5 C1546,2423.29757 1545.79932,2421.19907 1545.43822,2419.28215 C1543.3024,2419.72073 1540.96745,2419.95661 1538.5499,2419.95661 C1536.09571,2419.95661 1533.72716,2419.71349 1531.56614,2419.26325 Z M1538.5,2409 L1538.32475,2409.00462 C1535.50087,2409.15346 1532.98284,2412.88782 1531.76819,2418.28265 C1533.85882,2418.71939 1536.16032,2418.95661 1538.5499,2418.95661 C1540.90244,2418.95661 1543.17015,2418.72675 1545.2356,2418.30378 C1543.99838,2412.78562 1541.39813,2409 1538.5,2409 L1538.5,2409 Z M1541.79291,2409.32862 L1541.80991,2409.34365 C1543.77146,2411.02296 1545.33508,2414.15948 1546.2149,2418.08413 C1548.42634,2417.54919 1550.36675,2416.78375 1551.8767,2415.83867 C1549.49333,2412.54402 1545.92294,2410.16508 1541.79291,2409.32862 Z M1535.20705,2409.32918 L1535.06109,2409.35888 C1531.01087,2410.21756 1527.50951,2412.56213 1525.15441,2415.79518 C1526.652,2416.74657 1528.58382,2417.51885 1530.79053,2418.06203 C1531.67359,2414.1359 1533.2414,2411.00162 1535.20705,2409.32918 Z" transform="translate(-1521 -2408)"/>
</svg>
