<svg xmlns="http://www.w3.org/2000/svg" width="34" height="40" viewBox="0 0 34 40">
  <defs>
    <linearGradient id="icon-21-4-a" x1="87.964%" x2="12.036%" y1="100%" y2="0%">
      <stop offset="0%" stop-color="#1E85E9"/>
      <stop offset="20.276%" stop-color="#8671F3"/>
      <stop offset="70.727%" stop-color="#C06CFD" stop-opacity=".99"/>
      <stop offset="100%" stop-color="#FFBEE8"/>
    </linearGradient>
  </defs>
  <path fill="url(#icon-21-4-a)" d="M824.719793,3251.02125 L824.73799,3251.01973 C824.880945,3251.01378 825.023307,3251.06936 825.124419,3251.17766 L825.179811,3251.2489 L826.472139,3253.25761 C828.813635,3251.83717 831.561313,3251.01936 834.5,3251.01936 C843.060414,3251.01936 850,3257.95895 850,3266.51936 C850,3271.83908 847.320078,3276.53288 843.236654,3279.32432 L844.474245,3281.2489 L844.489723,3281.27625 C844.540735,3281.31236 844.585784,3281.3587 844.621585,3281.41455 C844.770606,3281.64703 844.702948,3281.9563 844.470467,3282.10532 C842.559459,3283.33028 840.446854,3284.19027 838.222486,3284.64459 L838.222,3287.019 L843.5,3287.01936 C844.279696,3287.01936 844.920449,3287.61425 844.993133,3288.3749 L845,3288.51936 L845,3289.51936 C845,3289.7955 844.776142,3290.01936 844.5,3290.01936 L844.5,3290.01936 L831.5,3290.01936 C831.223858,3290.01936 831,3289.7955 831,3289.51936 L831,3289.51936 L831,3288.51936 C831,3287.69094 831.671573,3287.01936 832.5,3287.01936 L832.5,3287.01936 L837.222,3287.019 L837.222423,3284.82032 C836.328538,3284.95217 835.4192,3285.01936 834.5,3285.01936 C824.282732,3285.01936 816,3276.73663 816,3266.51936 C816,3260.23559 819.157438,3254.48783 824.299684,3251.08315 C824.42856,3250.99782 824.582494,3250.98002 824.719793,3251.02125 Z M843.5,3288.01936 L832.5,3288.01936 C832.223858,3288.01936 832,3288.24322 832,3288.51936 L832,3288.51936 L832,3289.01936 L844,3289.01936 L844,3288.51936 C844,3288.2739 843.823125,3288.06975 843.589876,3288.02742 L843.589876,3288.02742 L843.5,3288.01936 Z M824.551,3252.12 L824.851745,3251.91696 C819.986345,3255.13833 817,3260.57464 817,3266.51936 C817,3276.18435 824.835017,3284.01936 834.5,3284.01936 C837.708699,3284.01936 840.788295,3283.15472 843.476239,3281.54514 L842.393621,3279.86162 C840.081622,3281.23241 837.382712,3282.01936 834.5,3282.01936 C825.939586,3282.01936 819,3275.07978 819,3266.51936 C819,3261.25585 821.623584,3256.60511 825.63437,3253.80353 L824.551,3252.12 Z M832.235075,3278.39771 L832.188958,3278.44411 C831.579431,3279.07137 830.974544,3279.73066 830.374307,3280.42199 C831.682064,3280.81141 833.066748,3281.01936 834.5,3281.01936 C835.678783,3281.01936 836.824713,3280.8787 837.921921,3280.61325 C835.885412,3280.16538 833.973631,3279.40832 832.235075,3278.39771 Z M825.853587,3272.48225 L822.463857,3274.60789 C824.126052,3277.07646 826.527623,3279.00583 829.351152,3280.0786 L829.032729,3280.45361 C829.801622,3279.53716 830.578798,3278.67202 831.364284,3277.85822 C829.185396,3276.43906 827.312897,3274.60604 825.853587,3272.48225 Z M838.224,3273.379 L838.630021,3273.11566 C836.701126,3274.34164 834.813828,3275.85687 832.968462,3277.66186 C834.940443,3278.77437 837.140467,3279.54314 839.490825,3279.88404 L839.831543,3279.93033 L839.821896,3280.01158 C840.52728,3279.73312 841.20559,3279.40094 841.851783,3279.02009 L838.224,3273.379 Z M844.894867,3270.01308 L844.28251,3270.25347 C842.384712,3271.01414 840.646574,3271.87729 839.067947,3272.84264 L842.695708,3278.48264 C843.251563,3278.10111 843.779491,3277.68184 844.275799,3277.22854 L844.219555,3277.42695 C844.735232,3275.68678 845,3273.87106 845,3272.01936 C845,3271.34234 844.964386,3270.67296 844.894867,3270.01308 Z M834.258,3267.213 L826.70207,3271.9511 C828.122125,3274.00784 829.951378,3275.77607 832.081135,3277.13331 C833.904638,3275.32679 835.771737,3273.79518 837.683355,3272.53707 L834.258,3267.213 Z M848.835194,3268.71268 L848.223605,3268.8888 C847.412052,3269.12992 846.624192,3269.38627 845.860017,3269.65782 C845.953055,3270.43439 846,3271.22184 846,3272.01936 C846,3273.29913 845.879722,3274.56304 845.643277,3275.79904 C847.296014,3273.81528 848.429928,3271.38361 848.835194,3268.71268 Z M822.692527,3264.65257 L822.257312,3264.81015 C821.602864,3265.03884 820.945901,3265.2464 820.286429,3265.43283 L820.03526,3265.50021 C820.011883,3265.83689 820,3266.17674 820,3266.51936 C820,3269.15652 820.704011,3271.62925 821.934345,3273.75985 L825.308815,3271.64466 C824.010236,3269.53257 823.106365,3267.16614 822.692527,3264.65257 Z M842.264273,3262.19528 L835.105,3266.682 L838.527,3272.002 L838.622529,3271.94301 C840.463508,3270.82446 842.508814,3269.84225 844.758233,3268.996 C844.367048,3266.54665 843.504635,3264.2462 842.264273,3262.19528 Z M830.206,3260.913 L830.623,3260.64818 C828.331513,3262.13909 826.00671,3263.35338 823.648849,3264.29057 C824.023767,3266.74451 824.892485,3269.05557 826.155959,3271.11302 L833.717,3266.372 L830.206,3260.913 Z M847.025819,3259.21032 L843.111706,3261.66397 C844.390254,3263.77402 845.288498,3266.13552 845.716264,3268.64949 C846.657811,3268.31821 847.635325,3268.01038 848.646963,3267.72526 L848.95729,3267.64062 C848.98559,3267.27058 849,3266.89666 849,3266.51936 C849,3263.85387 848.28078,3261.35637 847.025819,3259.21032 Z M836.40672,3256.11733 L836.375329,3256.14804 C834.764853,3257.66694 832.988322,3259.07411 831.046058,3260.3695 L834.565,3265.841 L841.724554,3261.35357 C840.317334,3259.28068 838.509645,3257.49678 836.40672,3256.11733 Z M822.773465,3257.98678 L822.728601,3258.05086 C821.396941,3259.89865 820.489629,3262.07261 820.14942,3264.42998 C820.95446,3264.20072 821.755824,3263.93684 822.553659,3263.64037 C822.476579,3262.94403 822.437177,3262.23779 822.437177,3261.52384 C822.437177,3260.32692 822.550527,3259.14438 822.773465,3257.98678 Z M826.175102,3254.64579 C825.468283,3255.14228 824.807809,3255.70028 824.201458,3256.31201 L824.219509,3256.31817 C823.702568,3257.99349 823.437177,3259.74136 823.437177,3261.52384 C823.437177,3262.10917 823.465128,3262.68906 823.51984,3263.26217 C825.592362,3262.42309 827.641045,3261.35981 829.665957,3260.07455 Z M839.439003,3252.88225 L839.720646,3252.53942 C838.91849,3253.53343 838.058571,3254.48864 837.140954,3255.40505 C839.284413,3256.84472 841.129883,3258.68882 842.572749,3260.82254 L846.491838,3258.36542 C844.790057,3255.86749 842.3282,3253.92886 839.439003,3252.88225 Z M828.727366,3253.21397 C828.134164,3253.47169 827.561563,3253.76791 827.012718,3254.09949 L830.503,3259.527 L830.689168,3259.40472 C832.442813,3258.22106 834.054839,3256.94417 835.525505,3255.574 C833.510312,3254.40368 831.256984,3253.59297 828.847178,3253.23118 Z M834.5,3252.01936 C833.148655,3252.01936 831.840487,3252.20422 830.599403,3252.55003 C832.633015,3253.02821 834.541048,3253.81403 836.275027,3254.85421 C837.026892,3254.11393 837.738598,3253.34698 838.410897,3252.55398 C837.165822,3252.20511 835.854603,3252.01936 834.5,3252.01936 Z" transform="translate(-816 -3251)"/>
</svg>
