<svg xmlns="http://www.w3.org/2000/svg" xmlns:xlink="http://www.w3.org/1999/xlink" width="62" height="62" viewBox="0 0 62 62">
  <defs>
    <linearGradient id="icon-7-8-b" x1="100%" x2="0%" y1="100%" y2="0%">
      <stop offset="0%" stop-color="#1E85E9"/>
      <stop offset="20.276%" stop-color="#8671F3"/>
      <stop offset="70.727%" stop-color="#C06CFD" stop-opacity=".99"/>
      <stop offset="100%" stop-color="#FFBEE8"/>
    </linearGradient>
    <rect id="icon-7-8-a" width="60" height="60" x="0" y="0" rx="4"/>
  </defs>
  <g fill="none" fill-rule="evenodd" transform="translate(1 1)">
    <g opacity=".062">
      <use fill="#FAFAFA" xlink:href="#icon-7-8-a"/>
      <use fill="url(#icon-7-8-b)" stroke="#000" stroke-opacity=".02" xlink:href="#icon-7-8-a"/>
    </g>
    <path fill="url(#icon-7-8-b)" fill-rule="nonzero" d="M30,11.5 C40.7695526,11.5 49.5,20.2304474 49.5,31 C49.5,41.7695526 40.7695526,50.5 30,50.5 C19.2304474,50.5 10.5,41.7695526 10.5,31 C10.5,20.2304474 19.2304474,11.5 30,11.5 Z M30,12.5 C19.7827321,12.5 11.5,20.7827321 11.5,31 C11.5,41.2172679 19.7827321,49.5 30,49.5 C40.2172679,49.5 48.5,41.2172679 48.5,31 C48.5,20.7827321 40.2172679,12.5 30,12.5 Z M36,20.5 C37.9329966,20.5 39.5,22.0670034 39.5,24 C39.5,25.9329966 37.9329966,27.5 36,27.5 C34.7138624,27.5 33.5897511,26.8062825 32.981432,25.7726133 L25.4343416,30.3218077 C25.4774214,30.5412135 25.5,30.76797 25.5,31 C25.5,31.23203 25.4774214,31.4587865 25.4343416,31.6781923 L32.981432,36.2273867 C33.5897511,35.1937175 34.7138624,34.5 36,34.5 C37.9329966,34.5 39.5,36.0670034 39.5,38 C39.5,39.9329966 37.9329966,41.5 36,41.5 C34.0670034,41.5 32.5,39.9329966 32.5,38 C32.5,37.7125562 32.5346508,37.4332056 32.6000032,37.1658974 L25.0928556,32.6398546 C24.5049101,33.746449 23.3404557,34.5 22,34.5 C20.0670034,34.5 18.5,32.9329966 18.5,31 C18.5,29.0670034 20.0670034,27.5 22,27.5 C23.3404557,27.5 24.5049101,28.253551 25.0928556,29.3601454 L32.6000032,24.8341026 C32.5346508,24.5667944 32.5,24.2874438 32.5,24 C32.5,22.0670034 34.0670034,20.5 36,20.5 Z M36,35.5 C34.6192881,35.5 33.5,36.6192881 33.5,38 C33.5,39.3807119 34.6192881,40.5 36,40.5 C37.3807119,40.5 38.5,39.3807119 38.5,38 C38.5,36.6192881 37.3807119,35.5 36,35.5 Z M22,28.5 C20.6192881,28.5 19.5,29.6192881 19.5,31 C19.5,32.3807119 20.6192881,33.5 22,33.5 C23.3807119,33.5 24.5,32.3807119 24.5,31 C24.5,29.6192881 23.3807119,28.5 22,28.5 Z M36,21.5 C34.6192881,21.5 33.5,22.6192881 33.5,24 C33.5,25.3807119 34.6192881,26.5 36,26.5 C37.3807119,26.5 38.5,25.3807119 38.5,24 C38.5,22.6192881 37.3807119,21.5 36,21.5 Z"/>
  </g>
</svg>
