<svg xmlns="http://www.w3.org/2000/svg" width="62" height="62" viewBox="0 0 62 62">
  <defs>
    <linearGradient id="icon-3-2-a" x1="100%" x2="0%" y1="100%" y2="0%">
      <stop offset="0%" stop-color="#1E85E9"/>
      <stop offset="20.276%" stop-color="#8671F3"/>
      <stop offset="70.727%" stop-color="#C06CFD" stop-opacity=".99"/>
      <stop offset="100%" stop-color="#FFBEE8"/>
    </linearGradient>
    <linearGradient id="icon-3-2-b" x1="83.723%" x2="16.277%" y1="100%" y2="0%">
      <stop offset="0%" stop-color="#1E85E9"/>
      <stop offset="20.276%" stop-color="#8671F3"/>
      <stop offset="70.727%" stop-color="#C06CFD" stop-opacity=".99"/>
      <stop offset="100%" stop-color="#FFBEE8"/>
    </linearGradient>
  </defs>
  <g fill="none" fill-rule="evenodd" transform="translate(1 1)">
    <rect width="60" height="60" fill="url(#icon-3-2-a)" stroke="#000" stroke-opacity=".02" opacity=".062" rx="4"/>
    <path fill="url(#icon-3-2-b)" fill-rule="nonzero" d="M33.8212463,9.81520144 C34.5550136,9.43065367 35.4615871,9.71375207 35.8461349,10.4475194 L35.8461349,10.4475194 L37.6521396,14.0940396 C37.7249584,14.2411047 37.8653079,14.3430746 38.0276773,14.3668838 L38.0276773,14.3668838 L42.0197913,14.9522715 C42.8394531,15.0724634 43.4064854,15.8343654 43.2862935,16.6540271 L43.2862935,16.6540271 L42.6040111,20.6656668 C42.5764801,20.8274468 42.6300889,20.9924376 42.7474538,21.107138 L42.7474538,21.107138 L45.6330596,23.9272323 C46.2255328,24.5062547 46.2364369,25.4559396 45.6574144,26.0484128 L45.6574144,26.0484128 L42.7474538,28.892862 C42.6300889,29.0075624 42.5764801,29.1725532 42.6040111,29.3343332 L42.6040111,29.3343332 L43.2809054,33.3119539 C43.4198855,34.1286399 42.8704963,34.9033604 42.0481456,35.043271 L42.0481456,35.043271 L41.3756406,35.1414717 L45.2496329,42.1877004 C45.3713768,42.4091241 45.4352111,42.6577148 45.4352111,42.9104004 C45.4352111,43.6900965 44.840323,44.3308491 44.0796711,44.4035338 L43.9352111,44.4104004 L39.7853434,44.4104004 C39.638235,44.4104004 39.5002116,44.4750443 39.4061722,44.5844563 L39.3553058,44.6553167 L37.3783972,47.9881251 C37.2414137,48.2190614 37.0449527,48.4089947 36.8095211,48.5380994 C36.1258704,48.9129964 35.278011,48.6994779 34.8485398,48.0674741 L34.7730591,47.9441107 L30.001,39.243 L24.864623,48.0329725 C24.7626511,48.2074621 24.6267447,48.359087 24.4654767,48.4791843 L24.3399043,48.5632105 C23.6708855,48.9636351 22.8155736,48.7822589 22.3625623,48.1669093 L22.2824808,48.0464817 L20.2517667,44.6536179 C20.1765188,44.5278957 20.0508504,44.4428095 19.9093006,44.4179397 L19.8227413,44.4104004 L15.6920894,44.4104004 C15.4391197,44.4104004 15.1902588,44.3464226 14.9686544,44.2244178 C14.2856316,43.8483782 14.0112334,43.0182208 14.3144155,42.3168257 L14.378072,42.1869654 L18.2856406,35.0874717 L18.0109704,35.0477285 C17.239524,34.9346067 16.6918602,34.2530497 16.7303033,33.4899006 L16.7444683,33.3459729 L17.4267506,29.3343332 C17.4542816,29.1725532 17.4006729,29.0075624 17.2833079,28.892862 L17.2833079,28.892862 L14.3977021,26.0727677 C13.8052289,25.4937453 13.7943249,24.5440604 14.3773831,23.9475047 L14.3773831,23.9475047 L17.2833079,21.107138 C17.4006729,20.9924376 17.4542816,20.8274468 17.4267506,20.6656668 L17.4267506,20.6656668 L16.7498563,16.6880461 C16.6108763,15.8713601 17.1602655,15.0966396 17.9769515,14.9576595 L17.9769515,14.9576595 L22.0030844,14.3668838 C22.1654538,14.3430746 22.3058033,14.2411047 22.3786222,14.0940396 L22.3786222,14.0940396 L24.16899,10.4782083 C24.5365888,9.73580504 25.4364232,9.43196591 26.1788265,9.79956465 L26.1788265,9.79956465 L29.7832857,11.6881185 C29.9286401,11.7642949 30.1021216,11.7642949 30.247476,11.6881185 L30.247476,11.6881185 Z M19.2709259,35.3565258 L19.2346367,35.439143 L15.2540836,42.6692554 C15.1209029,42.9111593 15.2090405,43.2152255 15.4509444,43.3484062 C15.5001898,43.3755184 15.5534732,43.394034 15.6085085,43.4033652 L15.6920894,43.4104004 L19.8227413,43.4104004 C20.3022636,43.4104004 20.7497484,43.6393696 21.0306718,44.0210453 L21.1098174,44.140053 L23.1405316,47.5329168 C23.2823486,47.769861 23.5893952,47.8469768 23.8263394,47.7051597 C23.8745097,47.6763286 23.9173053,47.6396981 23.9530726,47.5969393 L24.0012456,47.5284137 L29.2126406,38.6104717 L26.2095154,40.1847986 C25.5189109,40.5467259 24.6752323,40.3172434 24.2577657,39.6772466 L24.1846268,39.5524806 L22.3786222,35.9059604 C22.3058033,35.7588953 22.1654538,35.6569254 22.0030844,35.6331162 L22.0030844,35.6331162 L19.2952937,35.2361768 C19.2922245,35.2765859 19.2841879,35.316999 19.2709259,35.3565258 Z M40.3449429,35.2931769 L38.0276773,35.6331162 C37.8653079,35.6569254 37.7249584,35.7588953 37.6521396,35.9059604 L37.6521396,35.9059604 L35.8617717,39.5217917 C35.494173,40.264195 34.5943385,40.5680341 33.8519352,40.2004354 L33.8519352,40.2004354 L30.7866406,38.5944717 L35.649876,47.4632863 C35.782652,47.7054126 36.0865704,47.7940585 36.3286967,47.6612825 C36.3810148,47.6325926 36.4275595,47.594891 36.4663054,47.5501359 L36.5183221,47.4779578 L38.4952307,44.1451494 C38.7408485,43.73107 39.1684195,43.4626316 39.6420187,43.4172468 L39.7853434,43.4104004 L43.9352111,43.4104004 C44.2113535,43.4104004 44.4352111,43.1865428 44.4352111,42.9104004 C44.4352111,42.854248 44.4257542,42.7987023 44.4074255,42.746042 L44.3733517,42.6695004 L40.3977969,35.438898 C40.3720574,35.3920839 40.3546028,35.3429478 40.3449429,35.2931769 Z M34.9115448,10.835843 C34.7657743,10.6488978 34.502849,10.5869969 34.2854365,10.700937 L34.2854365,10.700937 L30.7116662,12.5738541 C30.2756032,12.802383 29.7551586,12.802383 29.3190955,12.5738541 L29.3190955,12.5738541 L25.7453252,10.700937 L25.6509781,10.6630633 C25.4231637,10.5975032 25.1740682,10.7019679 25.0651501,10.9219393 L25.0651501,10.9219393 L23.2747822,14.5377705 C23.0563257,14.9789657 22.6352772,15.2848754 22.1481689,15.356303 L22.1481689,15.356303 L18.1560549,15.9416907 L18.0574649,15.9665061 C17.8346239,16.0473729 17.6945043,16.2783012 17.7356836,16.5202823 L17.7356836,16.5202823 L18.4125778,20.497903 C18.4951709,20.9832429 18.3343446,21.4782152 17.9822498,21.8223164 L17.9822498,21.8223164 L15.0885257,24.6505291 C14.8955183,24.8480201 14.899153,25.1645818 15.096644,25.3575892 L15.096644,25.3575892 L17.9822498,28.1776836 C18.3343446,28.5217848 18.4951709,29.0167571 18.4125778,29.502097 L18.4125778,29.502097 L17.7356836,33.4797177 L17.7288184,33.5811508 C17.7368656,33.8180744 17.9131922,34.0226968 18.1560549,34.0583093 L18.1560549,34.0583093 L22.1481689,34.6436937 C22.6352772,34.7151246 23.0563257,35.0210343 23.2747822,35.4622295 L23.2747822,35.4622295 L25.0651501,39.0780607 L25.1192169,39.164157 C25.2649874,39.3511022 25.5279127,39.4130031 25.7453252,39.299063 L25.7453252,39.299063 L29.3190955,37.4261459 C29.7551586,37.197617 30.2756032,37.197617 30.7116662,37.4261459 L30.7116662,37.4261459 L34.2854365,39.299063 L34.3797836,39.3369367 C34.607598,39.4024968 34.8566935,39.2980321 34.9656116,39.0780607 L34.9656116,39.0780607 L36.7559795,35.4622295 C36.974436,35.0210343 37.3954845,34.7151246 37.8825928,34.6436937 L37.8825928,34.6436937 L41.8690318,34.0591747 L41.9732969,34.0334939 C42.1961378,33.9526271 42.3362574,33.7216988 42.2950782,33.4797177 L42.2950782,33.4797177 L41.6181839,29.502097 C41.5355909,29.0167571 41.6964171,28.5217848 42.0485119,28.1776836 L42.0485119,28.1776836 L44.9341177,25.3575892 L44.9992926,25.2795634 C45.1320425,25.0831582 45.1096653,24.813973 44.9341177,24.6424108 L44.9341177,24.6424108 L42.0485119,21.8223164 C41.6964171,21.4782152 41.5355909,20.9832429 41.6181839,20.497903 L41.6181839,20.497903 L42.2950782,16.5202823 L42.3019433,16.4188492 C42.2938961,16.1819256 42.1175696,15.9773032 41.8747068,15.9416907 L41.8747068,15.9416907 L37.8825928,15.356303 C37.3954845,15.2848754 36.974436,14.9789657 36.7559795,14.5377705 L36.7559795,14.5377705 L34.9656116,10.9219393 Z M30.0153809,17.5 C34.1575165,17.5 37.5153809,20.8578644 37.5153809,25 C37.5153809,29.1421356 34.1575165,32.5 30.0153809,32.5 C25.8732452,32.5 22.5153809,29.1421356 22.5153809,25 C22.5153809,20.8578644 25.8732452,17.5 30.0153809,17.5 Z M30.0153809,18.5 C26.42553,18.5 23.5153809,21.4101491 23.5153809,25 C23.5153809,28.5898509 26.42553,31.5 30.0153809,31.5 C33.6052317,31.5 36.5153809,28.5898509 36.5153809,25 C36.5153809,21.4101491 33.6052317,18.5 30.0153809,18.5 Z M34.1683496,22.6358846 C34.347101,22.8041061 34.37455,23.0728216 34.2455272,23.271695 L34.189799,23.342666 L29.8799845,27.9222558 C29.7101474,28.102724 29.4382754,28.1287371 29.2391971,27.996176 L29.1682964,27.9390244 L26.6678081,25.5210557 C26.4692979,25.3290965 26.4639872,25.0125586 26.6559463,24.8140484 C26.8265766,24.6375948 27.0956396,24.6137928 27.2927449,24.7455009 L27.3629536,24.8021865 L29.498,26.867 L33.4615682,22.657334 C33.6508174,22.4562386 33.9672542,22.4466354 34.1683496,22.6358846 Z"/>
  </g>
</svg>
