<svg xmlns="http://www.w3.org/2000/svg" width="40" height="39" viewBox="0 0 40 39">
  <defs>
    <linearGradient id="icon-22-2-a" x1="100%" x2="0%" y1="97.578%" y2="2.422%">
      <stop offset="0%" stop-color="#1E85E9"/>
      <stop offset="20.276%" stop-color="#8671F3"/>
      <stop offset="70.727%" stop-color="#C06CFD" stop-opacity=".99"/>
      <stop offset="100%" stop-color="#FFBEE8"/>
    </linearGradient>
  </defs>
  <path fill="url(#icon-22-2-a)" d="M556.661901,3394 C556.907361,3394 557.11151,3394.16845 557.153846,3394.39058 L557.161901,3394.47617 L557.161,3401.591 L561.399815,3401.59112 C561.633578,3401.59112 561.827999,3401.75956 561.868317,3401.9817 L561.875989,3402.06729 L561.875,3406.334 L561.927483,3406.32903 L569.518599,3406.32903 C569.781583,3406.32903 569.994773,3406.55289 569.994773,3406.82903 C569.994773,3407.07449 569.826326,3407.27864 569.604192,3407.32097 L569.518599,3407.32903 L561.927483,3407.32903 L561.875,3407.324 L561.875,3413 L561.927483,3412.99547 L569.518599,3412.99547 C569.781583,3412.99547 569.994773,3413.21932 569.994773,3413.49547 C569.994773,3413.74093 569.826326,3413.94507 569.604192,3413.98741 L569.518599,3413.99547 L561.927483,3413.99547 L561.875,3413.99 L561.875,3419.666 L561.927483,3419.6619 L569.518599,3419.6619 C569.781583,3419.6619 569.994773,3419.88576 569.994773,3420.1619 C569.994773,3420.40736 569.826326,3420.61151 569.604192,3420.65385 L569.518599,3420.6619 L561.927483,3420.6619 L561.875,3420.656 L561.875989,3424.92364 C561.875989,3425.1574 561.707542,3425.35182 561.485408,3425.39214 L561.399815,3425.39982 L557.161,3425.399 L557.161901,3432.51476 C557.161901,3432.77774 556.938044,3432.99093 556.661901,3432.99093 C556.416441,3432.99093 556.212293,3432.82248 556.169957,3432.60035 L556.161901,3432.51476 L556.161,3425.399 L550.495,3425.399 L550.495465,3432.51476 C550.495465,3432.77774 550.271608,3432.99093 549.995465,3432.99093 C549.750005,3432.99093 549.545857,3432.82248 549.503521,3432.60035 L549.495465,3432.51476 L549.495,3425.399 L543.829,3425.399 L543.829029,3432.51476 C543.829029,3432.77774 543.605172,3432.99093 543.329029,3432.99093 C543.08357,3432.99093 542.879421,3432.82248 542.837085,3432.60035 L542.829029,3432.51476 L542.829,3425.399 L538.543464,3425.39982 C538.3097,3425.39982 538.11528,3425.23137 538.074961,3425.00923 L538.06729,3424.92364 L538.067,3420.661 L530.5,3420.6619 C530.237016,3420.6619 530.023826,3420.43804 530.023826,3420.1619 C530.023826,3419.91644 530.192273,3419.71229 530.414407,3419.66996 L530.5,3419.6619 L538.067,3419.661 L538.067,3413.995 L530.5,3413.99547 C530.237016,3413.99547 530.023826,3413.77161 530.023826,3413.49547 C530.023826,3413.25001 530.192273,3413.04586 530.414407,3413.00352 L530.5,3412.99547 L538.067,3412.995 L538.067,3407.329 L530.5,3407.32903 C530.237016,3407.32903 530.023826,3407.10517 530.023826,3406.82903 C530.023826,3406.58357 530.192273,3406.37942 530.414407,3406.33709 L530.5,3406.32903 L538.067,3406.329 L538.06729,3402.06729 C538.06729,3401.83353 538.235736,3401.63911 538.457871,3401.59879 L538.543464,3401.59112 L542.829,3401.591 L542.829029,3394.47617 C542.829029,3394.21319 543.052887,3394 543.329029,3394 C543.574489,3394 543.778638,3394.16845 543.820974,3394.39058 L543.829029,3394.47617 L543.829,3401.591 L549.495,3401.591 L549.495465,3394.47617 C549.495465,3394.21319 549.719323,3394 549.995465,3394 C550.240925,3394 550.445074,3394.16845 550.48741,3394.39058 L550.495465,3394.47617 L550.495,3401.591 L556.161,3401.591 L556.161901,3394.47617 C556.161901,3394.21319 556.385759,3394 556.661901,3394 Z M543.318,3402.542 L539.019638,3402.54256 L539.019638,3424.44657 L560.923641,3424.44657 L560.923641,3402.54256 L556.673122,3402.54335 C556.669392,3402.54342 556.665651,3402.54346 556.661901,3402.54346 L556.65,3402.542 L550.006686,3402.54335 C550.002956,3402.54342 549.999215,3402.54346 549.995465,3402.54346 L549.984,3402.542 L543.340376,3402.54334 C543.336604,3402.54342 543.332822,3402.54346 543.329029,3402.54346 L543.318,3402.542 Z M556.638075,3406.35286 C556.901059,3406.35286 557.114249,3406.56605 557.114249,3406.82903 L557.114249,3406.82903 L557.114249,3420.1619 C557.114249,3420.42488 556.901059,3420.63808 556.638075,3420.63808 L556.638075,3420.63808 L543.305203,3420.63808 C543.04222,3420.63808 542.829029,3420.42488 542.829029,3420.1619 L542.829029,3420.1619 L542.829029,3406.82903 C542.829029,3406.56605 543.04222,3406.35286 543.305203,3406.35286 L543.305203,3406.35286 Z M556.161901,3407.3043 L543.781377,3407.3043 L543.781377,3419.68483 L556.161901,3419.68483 L556.161901,3407.3043 Z" transform="translate(-530 -3394)"/>
</svg>
