<svg xmlns="http://www.w3.org/2000/svg" xmlns:xlink="http://www.w3.org/1999/xlink" width="62" height="62" viewBox="0 0 62 62">
  <defs>
    <linearGradient id="icon-38-5-b" x1="100%" x2="0%" y1="100%" y2="0%">
      <stop offset="0%" stop-color="#1E85E9"/>
      <stop offset="20.276%" stop-color="#8671F3"/>
      <stop offset="70.727%" stop-color="#C06CFD" stop-opacity=".99"/>
      <stop offset="100%" stop-color="#FFBEE8"/>
    </linearGradient>
    <rect id="icon-38-5-a" width="60" height="60" x="0" y="0" rx="4"/>
  </defs>
  <g fill="none" fill-rule="evenodd" transform="translate(1 1)">
    <g opacity=".062">
      <use fill="#FAFAFA" xlink:href="#icon-38-5-a"/>
      <use fill="url(#icon-38-5-b)" stroke="#000" stroke-opacity=".02" xlink:href="#icon-38-5-a"/>
    </g>
    <path fill="url(#icon-38-5-b)" fill-rule="nonzero" d="M34.8181818,9 C35.8223359,9 36.6454173,9.7752645 36.721529,10.7598966 L36.7272727,10.9090909 L36.727,24.272 L50.0909091,24.2727273 C51.0950632,24.2727273 51.9181445,25.0479918 51.9942563,26.0326239 L52,26.1818182 L52,49.0909091 C52,50.0950632 51.2247355,50.9181445 50.2401034,50.9942563 L50.0909091,51 L27.1818182,51 C26.1776641,51 25.3545827,50.2247355 25.278471,49.2401034 L25.2727273,49.0909091 L25.272,35.727 L11.9090909,35.7272727 C10.9049368,35.7272727 10.0818555,34.9520082 10.0057437,33.9673761 L10,33.8181818 L10,10.9090909 C10,9.90493682 10.7752645,9.08185545 11.7598966,9.00574375 L11.9090909,9 L34.8181818,9 Z M50.0909091,25.5454545 L36.727,25.545 L36.7272727,33.8181818 C36.7272727,34.8223359 35.9520082,35.6454173 34.9673761,35.721529 L34.8181818,35.7272727 L26.545,35.727 L26.5454545,49.0909091 C26.5454545,49.4104127 26.7809171,49.674921 27.087781,49.7203729 L27.1818182,49.7272727 L50.0909091,49.7272727 C50.4104127,49.7272727 50.674921,49.4918102 50.7203729,49.1849462 L50.7272727,49.0909091 L50.7272727,26.1818182 C50.7272727,25.8303643 50.442363,25.5454545 50.0909091,25.5454545 Z M34.8181818,10.2727273 L11.9090909,10.2727273 C11.5895873,10.2727273 11.325079,10.5081898 11.2796271,10.8150538 L11.2727273,10.9090909 L11.2727273,33.8181818 C11.2727273,34.1376854 11.5081898,34.4021937 11.8150538,34.4476456 L11.9090909,34.4545455 L25.272,34.454 L25.2727273,26.1818182 C25.2727273,25.1776641 26.0479918,24.3545827 27.0326239,24.278471 L27.1818182,24.2727273 L35.454,24.272 L35.4545455,10.9090909 C35.4545455,10.5895873 35.2190829,10.325079 34.912219,10.2796271 L34.8181818,10.2727273 Z M26.545,30.957 L26.545,34.454 L30.248,34.454 L26.545,30.957 Z M26.545,26.73 L26.5455264,29.7293283 C26.6248589,29.7365275 26.7029042,29.7626388 26.7723773,29.8078714 L26.8432576,29.863715 L31.3205303,34.0909877 C31.4247298,34.1893689 31.4773022,34.3219196 31.477274,34.4547419 L34.725,34.454 L26.545,26.73 Z M30.116,25.545 L27.1818182,25.5454545 C27.0589322,25.5454545 26.9441816,25.5802863 26.8469008,25.6406154 L35.454,33.766 L35.4547714,30.7272727 C35.3544095,30.7273149 35.2540628,30.6973281 35.1683644,30.6373791 L35.0993814,30.579208 L30.1448359,25.579208 L30.116,25.545 Z M35.454,25.545 L31.519,25.545 L35.454,29.517 L35.454,25.545 Z"/>
  </g>
</svg>
