<svg xmlns="http://www.w3.org/2000/svg" width="35" height="40" viewBox="0 0 35 40">
  <defs>
    <linearGradient id="icon-21-7-a" x1="89.663%" x2="10.337%" y1="100%" y2="0%">
      <stop offset="0%" stop-color="#1E85E9"/>
      <stop offset="20.276%" stop-color="#8671F3"/>
      <stop offset="70.727%" stop-color="#C06CFD" stop-opacity=".99"/>
      <stop offset="100%" stop-color="#FFBEE8"/>
    </linearGradient>
  </defs>
  <path fill="url(#icon-21-7-a)" d="M1253.65111,3251.00017 L1253.75082,3251.02092 L1270.65121,3256.38297 C1270.82923,3256.43945 1270.95833,3256.58917 1270.99158,3256.76801 L1271,3256.85956 L1271,3273.84192 C1271,3279.6009 1265.23036,3285.04283 1253.79127,3290.25209 C1253.66126,3290.3113 1253.51214,3290.31207 1253.38153,3290.25421 C1242.0009,3285.21276 1236.17526,3279.85546 1236.00389,3274.10364 L1236,3273.84192 L1236,3256.85956 C1236,3256.67226 1236.10425,3256.50356 1236.26533,3256.41801 L1236.35039,3256.38246 L1253.45,3251.02042 L1253.54978,3251 L1253.54978,3251 L1253.65111,3251.00017 Z M1253.599,3252.02114 L1237,3257.22614 L1237,3273.84192 C1237,3279.01088 1242.2265,3284.04984 1252.77415,3288.88379 L1253.27247,3289.11023 L1253.58,3289.24714 L1253.88587,3289.1083 C1264.3238,3284.27613 1269.66097,3279.32421 1269.98435,3274.32578 L1269.99609,3274.08388 L1270,3273.84192 L1270,3257.22614 L1253.599,3252.02114 Z M1253.5,3260.04414 C1255.91427,3260.04414 1257.88449,3261.94538 1257.9951,3264.33231 L1258,3264.54414 L1258,3267.04351 L1259.5,3267.04414 C1260.2797,3267.04414 1260.92045,3267.63903 1260.99313,3268.39968 L1261,3268.54414 L1261,3277.54414 C1261,3278.32384 1260.40511,3278.96459 1259.64446,3279.03728 L1259.5,3279.04414 L1247.5,3279.04414 C1246.7203,3279.04414 1246.07955,3278.44925 1246.00687,3277.6886 L1246,3277.54414 L1246,3268.54414 C1246,3267.76445 1246.59489,3267.12369 1247.35554,3267.05101 L1247.5,3267.04414 L1249,3267.04351 L1249,3264.54414 C1249,3262.05886 1251.01472,3260.04414 1253.5,3260.04414 Z M1259.5,3268.04414 L1247.5,3268.04414 C1247.25454,3268.04414 1247.05039,3268.22102 1247.00806,3268.45427 L1247,3268.54414 L1247,3277.54414 C1247,3277.7896 1247.17688,3277.99375 1247.41012,3278.03609 L1247.5,3278.04414 L1259.5,3278.04414 C1259.74546,3278.04414 1259.94961,3277.86727 1259.99194,3277.63402 L1260,3277.54414 L1260,3268.54414 C1260,3268.268 1259.77614,3268.04414 1259.5,3268.04414 Z M1253.5,3270.04414 C1254.32843,3270.04414 1255,3270.71572 1255,3271.54414 C1255,3271.92884 1254.85518,3272.27971 1254.61709,3272.54521 C1254.85554,3272.80943 1255,3273.15992 1255,3273.54414 C1255,3274.37257 1254.32843,3275.04414 1253.5,3275.04414 C1252.67157,3275.04414 1252,3274.37257 1252,3273.54414 C1252,3273.15992 1252.14446,3272.80943 1252.38204,3272.54404 C1252.14482,3272.27971 1252,3271.92884 1252,3271.54414 C1252,3270.71572 1252.67157,3270.04414 1253.5,3270.04414 Z M1253.5,3273.04414 C1253.22386,3273.04414 1253,3273.268 1253,3273.54414 C1253,3273.82028 1253.22386,3274.04414 1253.5,3274.04414 C1253.77614,3274.04414 1254,3273.82028 1254,3273.54414 C1254,3273.268 1253.77614,3273.04414 1253.5,3273.04414 Z M1253.5,3271.04414 C1253.22386,3271.04414 1253,3271.268 1253,3271.54414 C1253,3271.82028 1253.22386,3272.04414 1253.5,3272.04414 C1253.77614,3272.04414 1254,3271.82028 1254,3271.54414 C1254,3271.268 1253.77614,3271.04414 1253.5,3271.04414 Z M1253.5,3261.04414 C1251.63144,3261.04414 1250.10487,3262.50842 1250.00518,3264.35211 L1250,3264.54414 L1250,3267.04351 L1251,3267.04351 L1251,3264.54414 C1251,3263.16343 1252.11929,3262.04414 1253.5,3262.04414 C1254.82548,3262.04414 1255.91004,3263.07568 1255.99468,3264.37977 L1256,3264.54414 L1256,3267.04351 L1257,3267.04351 L1257,3264.54414 C1257,3262.61115 1255.433,3261.04414 1253.5,3261.04414 Z M1253.5,3263.04414 C1252.7203,3263.04414 1252.07955,3263.63903 1252.00687,3264.39968 L1252,3264.54414 L1252,3267.04351 L1255,3267.04351 L1255,3264.54414 C1255,3263.71572 1254.32843,3263.04414 1253.5,3263.04414 Z" transform="translate(-1236 -3251)"/>
</svg>
