<?xml version="1.0" encoding="UTF-8"?>
<svg width="20px" height="37px" viewBox="0 0 20 37" version="1.1" xmlns="http://www.w3.org/2000/svg" xmlns:xlink="http://www.w3.org/1999/xlink">
    <title>icon-30-3</title>
    <defs>
        <linearGradient x1="64.6092038%" y1="100%" x2="35.3907962%" y2="0%" id="linearGradient-1">
            <stop stop-color="#1E85E9" offset="0%"></stop>
            <stop stop-color="#8671F3" offset="20.275549%"></stop>
            <stop stop-color="#C06CFD" stop-opacity="0.99" offset="70.7268792%"></stop>
            <stop stop-color="#FFBEE8" offset="100%"></stop>
        </linearGradient>
    </defs>
    <g id="Page-1" stroke="none" stroke-width="1" fill="none" fill-rule="evenodd">
        <g id="icons" transform="translate(-685.000000, -4524.000000)" fill="url(#linearGradient-1)" fill-rule="nonzero">
            <path d="M702.5,4524 C703.880712,4524 705,4525.11929 705,4526.5 L705,4526.5 L705,4558.5 C705,4559.88071 703.880712,4561 702.5,4561 L702.5,4561 L687.5,4561 C686.119288,4561 685,4559.88071 685,4558.5 L685,4558.5 L685,4526.5 C685,4525.11929 686.119288,4524 687.5,4524 L687.5,4524 Z M704,4554 L686,4554 L686,4558.5 C686,4559.2797 686.594888,4559.92045 687.35554,4559.99313 L687.5,4560 L702.5,4560 C703.328427,4560 704,4559.32843 704,4558.5 L704,4558.5 L704,4554 Z M695,4555 C696.104569,4555 697,4555.89543 697,4557 C697,4558.10457 696.104569,4559 695,4559 C693.895431,4559 693,4558.10457 693,4557 C693,4555.89543 693.895431,4555 695,4555 Z M695,4556 C694.447715,4556 694,4556.44772 694,4557 C694,4557.55228 694.447715,4558 695,4558 C695.552285,4558 696,4557.55228 696,4557 C696,4556.44772 695.552285,4556 695,4556 Z M702.5,4525 L687.5,4525 C686.671573,4525 686,4525.67157 686,4526.5 L686,4526.5 L686,4553 L704,4553 L704,4526.5 C704,4525.7203 703.405112,4525.07955 702.64446,4525.00687 L702.5,4525 Z M698,4527.5 C698.276142,4527.5 698.5,4527.72386 698.5,4528 C698.5,4528.24546 698.323125,4528.44961 698.089876,4528.49194 L698,4528.5 L692,4528.5 C691.723858,4528.5 691.5,4528.27614 691.5,4528 C691.5,4527.75454 691.676875,4527.55039 691.910124,4527.50806 L692,4527.5 L698,4527.5 Z" id="icon-30-3"></path>
        </g>
    </g>
</svg>