<svg xmlns="http://www.w3.org/2000/svg" xmlns:xlink="http://www.w3.org/1999/xlink" width="62" height="62" viewBox="0 0 62 62">
  <defs>
    <linearGradient id="ico-services-7-b" x1="100%" x2="0%" y1="100%" y2="0%">
      <stop offset="0%" stop-color="#1E85E9"/>
      <stop offset="20.276%" stop-color="#8671F3"/>
      <stop offset="70.727%" stop-color="#C06CFD" stop-opacity=".99"/>
      <stop offset="100%" stop-color="#FFBEE8"/>
    </linearGradient>
    <rect id="ico-services-7-a" width="60" height="60" x="0" y="0" rx="4"/>
    <linearGradient id="ico-services-7-c" x1="100%" x2="0%" y1="96.102%" y2="3.898%">
      <stop offset="0%" stop-color="#1E85E9"/>
      <stop offset="20.276%" stop-color="#8671F3"/>
      <stop offset="70.727%" stop-color="#C06CFD" stop-opacity=".99"/>
      <stop offset="100%" stop-color="#FFBEE8"/>
    </linearGradient>
  </defs>
  <g fill="none" fill-rule="evenodd" transform="translate(1 1)">
    <g opacity=".062">
      <use fill="#FAFAFA" xlink:href="#ico-services-7-a"/>
      <use fill="url(#ico-services-7-b)" stroke="#000" stroke-opacity=".02" xlink:href="#ico-services-7-a"/>
    </g>
    <path fill="url(#ico-services-7-c)" fill-rule="nonzero" d="M30.2326801,11.5 C30.47814,11.5 30.6822884,11.6768752 30.7246244,11.9101244 L30.7326801,12 L30.732,16.028 L47,16.0283203 C47.7796961,16.0283203 48.4204487,16.6232084 48.4931334,17.3838603 L48.5,17.5283203 L48.5,39.5283203 C48.5,40.3567474 47.8284271,41.0283203 47,41.0283203 L47,41.0283203 L37.134,41.028 L41.8516064,46.1910437 L41.9062854,46.2628262 C42.0323709,46.4635747 42.0009749,46.7318576 41.81977,46.8974334 C41.6159144,47.0837061 41.299653,47.0694525 41.1133802,46.865597 L41.1133802,46.865597 L35.779,41.028 L24.081,41.028 L18.7484362,46.865597 C18.5621634,47.0694525 18.245902,47.0837061 18.0420464,46.8974334 C17.8608415,46.7318576 17.8294455,46.4635747 17.955531,46.2628262 L18.01021,46.1910437 L22.727,41.028 L13,41.0283203 C12.2203039,41.0283203 11.5795513,40.4334322 11.5068666,39.6727803 L11.5,39.5283203 L11.5,17.5283203 C11.5,16.6998932 12.1715729,16.0283203 13,16.0283203 L13,16.0283203 L29.732,16.028 L29.7326801,12 C29.7326801,11.7238576 29.9565377,11.5 30.2326801,11.5 Z M47,17.0283203 L13,17.0283203 C12.7238576,17.0283203 12.5,17.2521779 12.5,17.5283203 L12.5,17.5283203 L12.5,39.5283203 C12.5,39.8044627 12.7238576,40.0283203 13,40.0283203 L13,40.0283203 L47,40.0283203 C47.2761424,40.0283203 47.5,39.8044627 47.5,39.5283203 L47.5,39.5283203 L47.5,17.5283203 C47.5,17.2521779 47.2761424,17.0283203 47,17.0283203 L47,17.0283203 Z M28.3421059,25.1838762 L28.4070908,25.2585229 L32.984,31.678 L37.2392552,25.2722014 C37.3750567,25.0677301 37.6353419,24.9955286 37.853064,25.0893081 L37.9323884,25.1323216 C38.1368597,25.2681231 38.2090613,25.5284083 38.1152817,25.7461304 L38.0722682,25.8254548 L33.4160182,32.836197 C33.2397625,33.1015786 32.8714684,33.1315548 32.6530938,32.9204463 L32.592421,32.8498755 L27.99,26.397 L22.5970263,33.6363462 C22.4503603,33.8331701 22.1865498,33.8911825 21.9742208,33.7857599 L21.8973399,33.7385174 C21.7005161,33.5918514 21.6425037,33.3280408 21.7479262,33.1157118 L21.7951688,33.038831 L27.5990712,25.2500705 C27.7813751,25.0054211 28.1305963,24.9844185 28.3421059,25.1838762 Z"/>
  </g>
</svg>
