<svg xmlns="http://www.w3.org/2000/svg" width="62" height="42" viewBox="0 0 62 42">
  <defs>
    <linearGradient id="ico-principles-1-a" x1="100%" x2="0%" y1="72.588%" y2="27.412%">
      <stop offset="0%" stop-color="#1E85E9"/>
      <stop offset="20.276%" stop-color="#8671F3"/>
      <stop offset="70.727%" stop-color="#C06CFD" stop-opacity=".99"/>
      <stop offset="100%" stop-color="#FFBEE8"/>
    </linearGradient>
  </defs>
  <path fill="url(#ico-principles-1-a)" d="M30.6237117,32.6707477 C30.8229173,32.4430841 31.1770827,32.4430841 31.3762883,32.6707477 L31.3762883,32.6707477 L38.3762883,40.6707477 C38.6591684,40.9940391 38.4295794,41.5 38,41.5 L38,41.5 L24,41.5 C23.5704206,41.5 23.3408316,40.9940391 23.6237117,40.6707477 L23.6237117,40.6707477 Z M31,33.759 L25.101,40.5 L36.898,40.5 L31,33.759 Z M58,27.5 C58.2761424,27.5 58.5,27.7238576 58.5,28 L58.5,28 L58.5,32 C58.5,32.2761424 58.2761424,32.5 58,32.5 L58,32.5 L4,32.5 C3.72385763,32.5 3.5,32.2761424 3.5,32 L3.5,32 L3.5,28 C3.5,27.7238576 3.72385763,27.5 4,27.5 L4,27.5 Z M57.5,28.5 L4.5,28.5 L4.5,31.5 L57.5,31.5 L57.5,28.5 Z M12.5,0.5 C19.127417,0.5 24.5,5.872583 24.5,12.5 C24.5,19.127417 19.127417,24.5 12.5,24.5 C5.872583,24.5 0.5,19.127417 0.5,12.5 C0.5,5.872583 5.872583,0.5 12.5,0.5 Z M49.5,0.5 C56.127417,0.5 61.5,5.872583 61.5,12.5 C61.5,19.127417 56.127417,24.5 49.5,24.5 C42.872583,24.5 37.5,19.127417 37.5,12.5 C37.5,5.872583 42.872583,0.5 49.5,0.5 Z M12.5,1.5 C6.42486775,1.5 1.5,6.42486775 1.5,12.5 C1.5,18.5751322 6.42486775,23.5 12.5,23.5 C18.5751322,23.5 23.5,18.5751322 23.5,12.5 C23.5,6.42486775 18.5751322,1.5 12.5,1.5 Z M49.5,1.5 C43.4248678,1.5 38.5,6.42486775 38.5,12.5 C38.5,18.5751322 43.4248678,23.5 49.5,23.5 C55.5751322,23.5 60.5,18.5751322 60.5,12.5 C60.5,6.42486775 55.5751322,1.5 49.5,1.5 Z M19.3292523,8.62371165 C19.5139797,8.78534812 19.551144,9.05289296 19.4294094,9.2563093 L19.3762883,9.3292523 L12.3762883,17.3292523 C12.2221155,17.5054499 11.9704771,17.5481193 11.7700037,17.4440554 L11.6876525,17.3904344 L6.68765248,13.3904344 C6.47202151,13.2179296 6.43706082,12.9032834 6.6095656,12.6876525 C6.76290317,12.4959805 7.02855001,12.4470604 7.23713411,12.5597112 L7.31234752,12.6095656 L11.938,16.31 L18.6237117,8.6707477 C18.8055527,8.46292938 19.121434,8.44187063 19.3292523,8.62371165 Z M56.3292523,8.62371165 C56.5139797,8.78534812 56.551144,9.05289296 56.4294094,9.2563093 L56.3762883,9.3292523 L49.3762883,17.3292523 C49.2221155,17.5054499 48.9704771,17.5481193 48.7700037,17.4440554 L48.6876525,17.3904344 L43.6876525,13.3904344 C43.4720215,13.2179296 43.4370608,12.9032834 43.6095656,12.6876525 C43.7629032,12.4959805 44.02855,12.4470604 44.2371341,12.5597112 L44.3123475,12.6095656 L48.938,16.31 L55.6237117,8.6707477 C55.8055527,8.46292938 56.121434,8.44187063 56.3292523,8.62371165 Z"/>
</svg>
