<svg xmlns="http://www.w3.org/2000/svg" xmlns:xlink="http://www.w3.org/1999/xlink" width="62" height="62" viewBox="0 0 62 62">
  <defs>
    <linearGradient id="icon-12-5-b" x1="100%" x2="0%" y1="100%" y2="0%">
      <stop offset="0%" stop-color="#1E85E9"/>
      <stop offset="20.276%" stop-color="#8671F3"/>
      <stop offset="70.727%" stop-color="#C06CFD" stop-opacity=".99"/>
      <stop offset="100%" stop-color="#FFBEE8"/>
    </linearGradient>
    <rect id="icon-12-5-a" width="60" height="60" x="0" y="0" rx="4"/>
    <linearGradient id="icon-12-5-c" x1="100%" x2="0%" y1="97.223%" y2="2.777%">
      <stop offset="0%" stop-color="#1E85E9"/>
      <stop offset="20.276%" stop-color="#8671F3"/>
      <stop offset="70.727%" stop-color="#C06CFD" stop-opacity=".99"/>
      <stop offset="100%" stop-color="#FFBEE8"/>
    </linearGradient>
  </defs>
  <g fill="none" fill-rule="evenodd" transform="translate(1 1)">
    <g opacity=".062">
      <use fill="#FAFAFA" xlink:href="#icon-12-5-a"/>
      <use fill="url(#icon-12-5-b)" stroke="#000" stroke-opacity=".02" xlink:href="#icon-12-5-a"/>
    </g>
    <path fill="url(#icon-12-5-c)" fill-rule="nonzero" d="M44.5,28.5 C46.1568542,28.5 47.5,29.8431458 47.5,31.5 C47.5,33.1568542 46.1568542,34.5 44.5,34.5 C43.8521164,34.5 43.2522009,34.2946246 42.7618047,33.9454251 L38.7071068,38 L31.708,38 L26.9454251,42.7618047 C27.2946246,43.2522009 27.5,43.8521164 27.5,44.5 C27.5,46.1568542 26.1568542,47.5 24.5,47.5 C22.8431458,47.5 21.5,46.1568542 21.5,44.5 C21.5,42.8431458 22.8431458,41.5 24.5,41.5 C25.1478836,41.5 25.7477991,41.7053754 26.2381953,42.0545749 L31.2928932,37 L38.294,37 L42.0545749,33.2381953 C41.7053754,32.7477991 41.5,32.1478836 41.5,31.5 C41.5,29.8431458 42.8431458,28.5 44.5,28.5 Z M24.5,42.5 C23.3954305,42.5 22.5,43.3954305 22.5,44.5 C22.5,45.6045695 23.3954305,46.5 24.5,46.5 C25.6045695,46.5 26.5,45.6045695 26.5,44.5 C26.5,43.3954305 25.6045695,42.5 24.5,42.5 Z M36,13 C37.6568542,13 39,14.3431458 39,16 C39,17.6568542 37.6568542,19 36,19 C35.3521164,19 34.7522009,18.7946246 34.2618047,18.4454251 L30.5,22.206 L30.5,29.2071068 L25.4454251,34.2618047 C25.7946246,34.7522009 26,35.3521164 26,36 C26,37.6568542 24.6568542,39 23,39 C21.3431458,39 20,37.6568542 20,36 C20,34.3431458 21.3431458,33 23,33 C23.6478836,33 24.2477991,33.2053754 24.7381953,33.5545749 L29.5,28.792 L29.5,21.7928932 L33.5545749,17.7381953 C33.2053754,17.2477991 33,16.6478836 33,16 C33,14.3431458 34.3431458,13 36,13 Z M23,34 C21.8954305,34 21,34.8954305 21,36 C21,37.1045695 21.8954305,38 23,38 C24.1045695,38 25,37.1045695 25,36 C25,34.8954305 24.1045695,34 23,34 Z M22.3535534,26.6464466 C22.5271197,26.820013 22.5464049,27.0894374 22.4114088,27.2843055 L22.3535534,27.3535534 L17.4454251,32.2618047 C17.7946246,32.7522009 18,33.3521164 18,34 C18,35.6568542 16.6568542,37 15,37 C13.3431458,37 12,35.6568542 12,34 C12,32.3431458 13.3431458,31 15,31 C15.6478836,31 16.2477991,31.2053754 16.7381953,31.5545749 L21.6464466,26.6464466 C21.8417088,26.4511845 22.1582912,26.4511845 22.3535534,26.6464466 Z M15,32 C13.8954305,32 13,32.8954305 13,34 C13,35.1045695 13.8954305,36 15,36 C16.1045695,36 17,35.1045695 17,34 C17,32.8954305 16.1045695,32 15,32 Z M44.5,29.5 C43.3954305,29.5 42.5,30.3954305 42.5,31.5 C42.5,32.6045695 43.3954305,33.5 44.5,33.5 C45.6045695,33.5 46.5,32.6045695 46.5,31.5 C46.5,30.3954305 45.6045695,29.5 44.5,29.5 Z M42,19 C43.6568542,19 45,20.3431458 45,22 C45,23.6568542 43.6568542,25 42,25 C41.3521164,25 40.7522009,24.7946246 40.2618047,24.4454251 L35.3535534,29.3535534 C35.1582912,29.5488155 34.8417088,29.5488155 34.6464466,29.3535534 C34.4728803,29.179987 34.4535951,28.9105626 34.5885912,28.7156945 L34.6464466,28.6464466 L39.5545749,23.7381953 C39.2053754,23.2477991 39,22.6478836 39,22 C39,20.3431458 40.3431458,19 42,19 Z M42,20 C40.8954305,20 40,20.8954305 40,22 C40,23.1045695 40.8954305,24 42,24 C43.1045695,24 44,23.1045695 44,22 C44,20.8954305 43.1045695,20 42,20 Z M36,14 C34.8954305,14 34,14.8954305 34,16 C34,17.1045695 34.8954305,18 36,18 C37.1045695,18 38,17.1045695 38,16 C38,14.8954305 37.1045695,14 36,14 Z"/>
  </g>
</svg>
