<svg xmlns="http://www.w3.org/2000/svg" xmlns:xlink="http://www.w3.org/1999/xlink" width="62" height="62" viewBox="0 0 62 62">
  <defs>
    <linearGradient id="icon-4-2-b" x1="100%" x2="0%" y1="100%" y2="0%">
      <stop offset="0%" stop-color="#1E85E9"/>
      <stop offset="20.276%" stop-color="#8671F3"/>
      <stop offset="70.727%" stop-color="#C06CFD" stop-opacity=".99"/>
      <stop offset="100%" stop-color="#FFBEE8"/>
    </linearGradient>
    <rect id="icon-4-2-a" width="60" height="60" x="0" y="0" rx="4"/>
  </defs>
  <g fill="none" fill-rule="evenodd" transform="translate(1 1)">
    <g opacity=".062">
      <use fill="#FAFAFA" xlink:href="#icon-4-2-a"/>
      <use fill="url(#icon-4-2-b)" stroke="#000" stroke-opacity=".02" xlink:href="#icon-4-2-a"/>
    </g>
    <path fill="url(#icon-4-2-b)" fill-rule="nonzero" d="M29.1309524,15 C36.9352619,15 43.2619048,21.3266429 43.2619048,29.1309524 C43.2619048,36.9352619 36.9352619,43.2619048 29.1309524,43.2619048 C21.3266429,43.2619048 15,36.9352619 15,29.1309524 C15,21.3266429 21.3266429,15 29.1309524,15 Z M29.1309524,15.8333333 C21.7868802,15.8333333 15.8333333,21.7868802 15.8333333,29.1309524 C15.8333333,36.4750246 21.7868802,42.4285714 29.1309524,42.4285714 C36.4750246,42.4285714 42.4285714,36.4750246 42.4285714,29.1309524 C42.4285714,21.7868802 36.4750246,15.8333333 29.1309524,15.8333333 Z M28.1309524,19 C28.3764123,19 28.5805608,19.1768752 28.6228967,19.4101244 L28.6309524,19.5 L28.63,29.2074609 L33.0820499,33.0097978 C33.2687179,33.1691892 33.3091139,33.4362652 33.1898473,33.6411384 L33.137612,33.7147182 C32.9782206,33.9013862 32.7111446,33.9417822 32.5062714,33.8225156 L32.4326916,33.7702804 L27.6309524,29.6701874 L27.6309524,19.5 C27.6309524,19.2238576 27.85481,19 28.1309524,19 Z"/>
  </g>
</svg>
