<svg xmlns="http://www.w3.org/2000/svg" width="29" height="38" viewBox="0 0 29 38">
  <defs>
    <linearGradient id="ico-approach-1-a" x1="79.12%" x2="20.88%" y1="100%" y2="0%">
      <stop offset="0%" stop-color="#1E85E9"/>
      <stop offset="20.276%" stop-color="#8671F3"/>
      <stop offset="70.727%" stop-color="#C06CFD" stop-opacity=".99"/>
      <stop offset="100%" stop-color="#FFBEE8"/>
    </linearGradient>
  </defs>
  <path fill="url(#ico-approach-1-a)" d="M40.58868,20 C41.9579924,20 43.0959098,20.9891233 43.3247335,22.2907629 L45.7833333,22.2909564 C46.5666408,22.2909564 47.2333333,22.8456385 47.2333333,23.5777688 L47.2333333,23.5777688 L47.233,24.221 L51.6477778,24.221175 C52.8876447,24.221175 53.9113874,25.1437527 53.9945468,26.3223208 L54,26.477444 L54,55.743731 C54,56.943299 53.0279184,57.9158587 51.8082143,57.9948228 L51.6477778,58 L27.3522222,58 C26.1123553,58 25.0886126,57.0774223 25.0054532,55.8988542 L25,55.743731 L25,26.477444 C25,25.277876 25.9720816,24.3053163 27.1917857,24.2263522 L27.3522222,24.221175 L31.766,24.221 L31.7666667,23.5777688 C31.7666667,22.888705 32.3572317,22.3568272 33.0797584,22.2966376 L33.2166667,22.2909564 L35.6753631,22.290214 C35.8952433,21.040928 36.9525835,20.0796508 38.2480922,20.0047082 L38.41132,20 L40.58868,20 Z M31.766,25.186 L27.3522222,25.1862843 C26.6270048,25.1862843 26.0395592,25.7033264 25.9729574,26.3539753 L25.9666667,26.477444 L25.9666667,55.743731 C25.9666667,56.4095829 26.5114524,56.9657928 27.217952,57.0289252 L27.3522222,57.0348907 L51.6477778,57.0348907 C52.3729952,57.0348907 52.9604408,56.5178486 53.0270426,55.8671997 L53.0333333,55.743731 L53.0333333,26.477444 C53.0333333,25.8115922 52.4885476,25.2553822 51.782048,25.1922498 L51.6477778,25.1862843 L47.233,25.186 L47.2333333,26.7947998 C47.2333333,27.4838636 46.6427683,28.0157414 45.9202416,28.075931 L45.7833333,28.0816122 L33.2166667,28.0816122 C32.4333592,28.0816122 31.7666667,27.5269301 31.7666667,26.7947998 L31.7666667,26.7947998 L31.766,25.186 Z M32.25,46.4186886 C32.5169376,46.4186886 32.7333333,46.6347356 32.7333333,46.9012432 L32.7333333,46.9012432 L32.7333333,50.7616804 C32.7333333,51.0281879 32.5169376,51.244235 32.25,51.244235 L32.25,51.244235 L28.3833333,51.244235 C28.1163957,51.244235 27.9,51.0281879 27.9,50.7616804 L27.9,50.7616804 L27.9,46.9012432 C27.9,46.6347356 28.1163957,46.4186886 28.3833333,46.4186886 L28.3833333,46.4186886 Z M31.7666667,47.3830458 L28.8666667,47.3830458 L28.8666667,50.2783736 L31.7666667,50.2783736 L31.7666667,47.3830458 Z M50.4075684,48.3489071 C50.674506,48.3489071 50.8909017,48.5649542 50.8909017,48.8314618 C50.8909017,49.0683574 50.7199224,49.265383 50.4944481,49.3062418 L50.4075684,49.3140164 L35.6746338,49.3140164 C35.4076962,49.3140164 35.1913005,49.0979694 35.1913005,48.8314618 C35.1913005,48.5945662 35.3622798,48.3975406 35.587754,48.3566817 L35.6746338,48.3489071 L50.4075684,48.3489071 Z M32.25,39.6629236 C32.5169376,39.6629236 32.7333333,39.8789707 32.7333333,40.1454782 L32.7333333,40.1454782 L32.7333333,44.0059154 C32.7333333,44.2724229 32.5169376,44.48847 32.25,44.48847 L32.25,44.48847 L28.3833333,44.48847 C28.1163957,44.48847 27.9,44.2724229 27.9,44.0059154 L27.9,44.0059154 L27.9,40.1454782 C27.9,39.8789707 28.1163957,39.6629236 28.3833333,39.6629236 L28.3833333,39.6629236 Z M31.7666667,40.6272808 L28.8666667,40.6272808 L28.8666667,43.5226086 L31.7666667,43.5226086 L31.7666667,40.6272808 Z M50.4075684,41.5931421 C50.674506,41.5931421 50.8909017,41.8091892 50.8909017,42.0756968 C50.8909017,42.3125924 50.7199224,42.509618 50.4944481,42.5504768 L50.4075684,42.5582514 L35.6746338,42.5582514 C35.4076962,42.5582514 35.1913005,42.3422044 35.1913005,42.0756968 C35.1913005,41.8388012 35.3622798,41.6417756 35.587754,41.6009167 L35.6746338,41.5931421 L50.4075684,41.5931421 Z M32.25,32.9071586 C32.5169376,32.9071586 32.7333333,33.1232057 32.7333333,33.3897132 L32.7333333,33.3897132 L32.7333333,37.2501504 C32.7333333,37.5166579 32.5169376,37.732705 32.25,37.732705 L32.25,37.732705 L28.3833333,37.732705 C28.1163957,37.732705 27.9,37.5166579 27.9,37.2501504 L27.9,37.2501504 L27.9,33.3897132 C27.9,33.1232057 28.1163957,32.9071586 28.3833333,32.9071586 L28.3833333,32.9071586 Z M31.7666667,33.8715158 L28.8666667,33.8715158 L28.8666667,36.7668436 L31.7666667,36.7668436 L31.7666667,33.8715158 Z M50.4075684,34.6479368 C50.674506,34.6479368 50.8909017,34.8639838 50.8909017,35.1304914 C50.8909017,35.367387 50.7199224,35.5644126 50.4944481,35.6052714 L50.4075684,35.613046 L35.6746338,35.613046 C35.4076962,35.613046 35.1913005,35.396999 35.1913005,35.1304914 C35.1913005,34.8935958 35.3622798,34.6965702 35.587754,34.6557114 L35.6746338,34.6479368 L50.4075684,34.6479368 Z M45.7833333,23.2560657 L33.2166667,23.2560657 C32.9322236,23.2560657 32.7333333,23.4215406 32.7333333,23.5777688 L32.7333333,23.5777688 L32.7333333,26.7947998 C32.7333333,26.951028 32.9322236,27.1165029 33.2166667,27.1165029 L33.2166667,27.1165029 L45.7833333,27.1165029 C46.0677764,27.1165029 46.2666667,26.951028 46.2666667,26.7947998 L46.2666667,26.7947998 L46.2666667,23.5777688 C46.2666667,23.4215406 46.0677764,23.2560657 45.7833333,23.2560657 L45.7833333,23.2560657 Z M40.58868,20.9651093 L38.41132,20.9651093 C37.5785349,20.9651093 36.877015,21.526217 36.6653501,22.2904204 L42.3346087,22.2902718 C42.1350052,21.5698562 41.5000651,21.0299619 40.7302336,20.9705501 L40.58868,20.9651093 Z" transform="translate(-25 -20)"/>
</svg>
