<svg xmlns="http://www.w3.org/2000/svg" xmlns:xlink="http://www.w3.org/1999/xlink" width="62" height="62" viewBox="0 0 62 62">
  <defs>
    <linearGradient id="icon-2-1-b" x1="100%" x2="0%" y1="100%" y2="0%">
      <stop offset="0%" stop-color="#1E85E9"/>
      <stop offset="20.276%" stop-color="#8671F3"/>
      <stop offset="70.727%" stop-color="#C06CFD" stop-opacity=".99"/>
      <stop offset="100%" stop-color="#FFBEE8"/>
    </linearGradient>
    <rect id="icon-2-1-a" width="60" height="60" x="0" y="0" rx="4"/>
    <linearGradient id="icon-2-1-c" x1="100%" x2="0%" y1="89.224%" y2="10.776%">
      <stop offset="0%" stop-color="#1E85E9"/>
      <stop offset="20.276%" stop-color="#8671F3"/>
      <stop offset="70.727%" stop-color="#C06CFD" stop-opacity=".99"/>
      <stop offset="100%" stop-color="#FFBEE8"/>
    </linearGradient>
  </defs>
  <g fill="none" fill-rule="evenodd" transform="translate(1 1)">
    <g opacity=".062">
      <use fill="#FAFAFA" xlink:href="#icon-2-1-a"/>
      <use fill="url(#icon-2-1-b)" stroke="#000" stroke-opacity=".02" xlink:href="#icon-2-1-a"/>
    </g>
    <path fill="url(#icon-2-1-c)" fill-rule="nonzero" d="M23.819,26.03 C24.352,26.03 24.352,26.459 24.092,26.771 L24.092,26.771 L21.518,29.631 C23.39,29.67 24.573,30.58 24.573,32.374 C24.573,34.064 23.364,35.13 21.622,35.13 C20.647,35.13 19.893,34.844 19.373,34.48 C19.165,34.337 19.061,34.116 19.191,33.921 C19.36,33.661 19.646,33.83 19.815,33.934 C20.426,34.311 21.076,34.454 21.648,34.454 C23.221,34.454 23.819,33.466 23.819,32.348 C23.819,31.1 22.974,30.307 21.024,30.307 C20.543,30.307 20.426,29.93 20.738,29.579 L20.738,29.579 L23.299,26.706 L19.997,26.706 C19.789,26.706 19.633,26.576 19.633,26.368 C19.633,26.173 19.789,26.03 19.997,26.03 L19.997,26.03 Z M30.202,25.9 C31.073,25.9 31.567,26.095 31.71,26.173 C31.879,26.264 32.009,26.407 31.918,26.641 C31.827,26.888 31.567,26.823 31.372,26.758 C31.125,26.68 30.722,26.576 30.215,26.576 C29.448,26.576 28.759,26.836 28.265,27.447 C27.693,28.149 27.407,29.254 27.342,30.45 C27.875,29.605 28.746,29.202 29.747,29.202 C31.424,29.202 32.425,30.385 32.425,31.997 C32.425,33.557 31.554,35.13 29.552,35.13 C27.719,35.13 26.627,33.908 26.627,31.256 C26.627,29.501 26.926,28.058 27.667,27.096 C28.239,26.355 29.084,25.9 30.202,25.9 Z M36.936,25.9 C39.185,25.9 40.147,27.863 40.147,30.515 C40.147,33.167 39.185,35.13 36.936,35.13 C34.687,35.13 33.725,33.167 33.725,30.515 C33.725,27.863 34.687,25.9 36.936,25.9 Z M29.617,29.878 C28.603,29.878 27.407,30.528 27.407,31.945 C27.407,32.829 27.784,34.454 29.604,34.454 C31.086,34.454 31.671,33.206 31.671,32.01 C31.671,30.814 30.904,29.878 29.617,29.878 Z M36.936,26.576 C35.259,26.576 34.479,28.058 34.479,30.515 C34.479,32.972 35.389,34.454 36.936,34.454 C38.483,34.454 39.393,32.972 39.393,30.515 C39.393,28.058 38.483,26.576 36.936,26.576 Z M30,14.5 C38.3973581,14.5 45.2350467,21.1777389 45.4924835,29.5126344 L46.5723211,27.7273094 C46.7153732,27.4911088 47.0228182,27.4155971 47.2590188,27.5586492 C47.4689748,27.6858066 47.5519669,27.9428548 47.4673474,28.1642979 L47.4276789,28.2453469 L45.6024836,31.2590188 C45.4912209,31.4427303 45.2805105,31.529235 45.0812218,31.4913023 L45.0411349,31.4983861 C44.8985296,31.5100212 44.7540699,31.4601391 44.6487323,31.3559464 L44.5905521,31.2869711 L42.6996829,28.5890951 C42.5411932,28.3629633 42.5960279,28.0511659 42.8221598,27.8926761 C43.0231658,27.7517963 43.2918583,27.7794692 43.4603986,27.9461776 L43.5185788,28.0151529 L44.4876897,29.3970114 C44.171549,21.6685148 37.8061414,15.5 30,15.5 C23.1053888,15.5 17.2032681,20.3492611 15.8079615,27.0126512 C15.7513651,27.2829316 15.4863791,27.4561566 15.2160988,27.3995602 C14.9458185,27.3429638 14.7725934,27.0779779 14.8291898,26.8076975 C16.3210247,19.6833294 22.6297459,14.5 30,14.5 Z M14.5309264,28.595 L14.5368392,28.5913715 L14.5319264,28.595 L14.5679071,28.5711524 L14.5679071,28.5711524 C14.5812894,28.5631502 14.5949423,28.5558223 14.608878,28.5491519 C14.6216224,28.5429552 14.6343772,28.5374903 14.647291,28.5325815 C14.6595505,28.5280201 14.6726166,28.5236436 14.6858357,28.5198109 C14.7014444,28.5152048 14.7168152,28.5115572 14.7322932,28.5086458 C14.7436524,28.5065519 14.7550161,28.5048014 14.7664356,28.5034421 C14.7817635,28.501623 14.7974752,28.5005128 14.8131976,28.5001402 L14.8329927,28.49998 L14.8663466,28.5016912 C14.8750656,28.5024082 14.8837683,28.5033529 14.892445,28.504525 C14.9094098,28.5067137 14.9261764,28.5098621 14.9428308,28.513897 C14.9563269,28.5172156 14.9700757,28.5211453 14.9836652,28.5256725 C14.9970031,28.5301285 15.0103568,28.5352414 15.0235625,28.5409679 C15.038332,28.5472816 15.0524655,28.5542015 15.0663089,28.5618237 C15.0718535,28.5650128 15.078058,28.5685927 15.0842141,28.5723211 L15.0974222,28.5804685 C15.1049804,28.5853818 15.1124329,28.5905193 15.1197701,28.5958806 L15.1379264,28.612 L15.1569168,28.6257705 C15.1610788,28.6294512 15.1651683,28.6331919 15.1691847,28.6369905 L15.1875392,28.6554614 L17.5236598,31.1123095 C17.7139433,31.3124265 17.7059716,31.6289086 17.5058546,31.8191921 C17.3279728,31.9883329 17.0581482,32.0008277 16.8667411,31.8609676 L16.798972,31.8013868 L15.5066618,30.4437873 C15.7412236,38.2466002 22.1403319,44.5 30,44.5 C36.873382,44.5 42.7626297,39.6801736 44.1800712,33.0439333 C44.2377517,32.7738823 44.5034306,32.6017219 44.7734817,32.6594024 C45.0435327,32.7170829 45.2156931,32.9827618 45.1580126,33.2528128 C43.6425155,40.3481338 37.3475552,45.5 30,45.5 C21.6026419,45.5 14.7649533,38.8222611 14.5075165,30.4873656 L13.4276789,32.2726906 C13.2846268,32.5088912 12.9771818,32.5844029 12.7409812,32.4413508 C12.5310252,32.3141934 12.4480331,32.0571452 12.5326526,31.8357021 L12.5723211,31.7546531 L14.3975164,28.7409812 L14.4102122,28.7209018 L14.4219264,28.703 L14.4109264,28.72 L14.4329264,28.689 L14.4633332,28.6548015 L14.4633332,28.6548015 C14.4690513,28.6489584 14.4747709,28.6432526 14.4806567,28.6376561 L14.4809264,28.636 L14.4955251,28.6238994 L14.5089264,28.612 L14.4939264,28.625 L14.5309264,28.595 Z"/>
  </g>
</svg>
