<?xml version="1.0" encoding="UTF-8"?>
<svg width="40px" height="24px" viewBox="0 0 40 24" version="1.1" xmlns="http://www.w3.org/2000/svg" xmlns:xlink="http://www.w3.org/1999/xlink">
    <title>icon-36-1</title>
    <defs>
        <linearGradient x1="100%" y1="68%" x2="0%" y2="32%" id="linearGradient-1">
            <stop stop-color="#1E85E9" offset="0%"></stop>
            <stop stop-color="#8671F3" offset="20.275549%"></stop>
            <stop stop-color="#C06CFD" stop-opacity="0.99" offset="70.7268792%"></stop>
            <stop stop-color="#FFBEE8" offset="100%"></stop>
        </linearGradient>
    </defs>
    <g id="Page-1" stroke="none" stroke-width="1" fill="none" fill-rule="evenodd">
        <g id="icons" transform="translate(-959.000000, -2558.000000)" fill="url(#linearGradient-1)" fill-rule="nonzero">
            <path d="M979,2558 C989.877404,2558 998.721652,2567.2339 998.993557,2578.72749 L999,2578.72727 L998.999,2579.179 L999,2579.27273 L998.999,2579.272 L999,2579.81818 L980.842,2579.818 L980.844794,2579.83913 L980.857324,2580.07514 C980.857324,2581.13821 980.025772,2582 979,2582 C977.974228,2582 977.142676,2581.13821 977.142676,2580.07514 C977.142676,2580.01767 977.147394,2579.93238 977.156857,2579.81904 L959,2579.81818 L959,2578.72727 C959.278357,2567.23389 968.122602,2558 979,2558 Z M979,2574.09309 L978.888325,2574.84948 C978.497242,2577.51122 978.26956,2579.18824 978.210681,2579.83279 L978.203959,2579.911 L978.195308,2580.07514 C978.195308,2580.53572 978.555581,2580.90909 979,2580.90909 C979.444419,2580.90909 979.804692,2580.53572 979.804692,2580.07514 C979.804692,2579.85358 979.701368,2578.99849 979.497288,2577.53256 L979.460228,2577.26753 L979,2574.09309 Z M979,2559.09091 C968.70991,2559.09091 960.3307,2567.83042 960.059411,2578.7275 L977.279912,2578.72844 C977.375131,2577.97951 977.520177,2576.93434 977.715922,2575.58526 L977.762984,2575.26175 L979,2567.036 L979.519921,2570.46068 C980.129494,2574.47617 980.52714,2577.2108 980.720109,2578.7286 L997.940582,2578.72722 C997.669156,2567.83027 989.290001,2559.09091 979,2559.09091 Z M996.449834,2572.29949 L996.793186,2573.35622 L992.643121,2574.70466 L992.299769,2573.64793 L996.449834,2572.29949 Z M961.608646,2572.29949 L965.75871,2573.64793 L965.415358,2574.70466 L961.265293,2573.35622 L961.608646,2572.29949 Z M979.584795,2559.63636 L979.584795,2564 L978.473684,2564 L978.473684,2559.63636 L979.584795,2559.63636 Z" id="icon-36-1"></path>
        </g>
    </g>
</svg>