<svg xmlns="http://www.w3.org/2000/svg" xmlns:xlink="http://www.w3.org/1999/xlink" width="62" height="62" viewBox="0 0 62 62">
  <defs>
    <linearGradient id="icon-4-6-b" x1="100%" x2="0%" y1="100%" y2="0%">
      <stop offset="0%" stop-color="#1E85E9"/>
      <stop offset="20.276%" stop-color="#8671F3"/>
      <stop offset="70.727%" stop-color="#C06CFD" stop-opacity=".99"/>
      <stop offset="100%" stop-color="#FFBEE8"/>
    </linearGradient>
    <rect id="icon-4-6-a" width="60" height="60" x="0" y="0" rx="4"/>
    <linearGradient id="icon-4-6-c" x1="87.987%" x2="9.601%" y1="97.147%" y2="2.5%">
      <stop offset="0%" stop-color="#1E85E9"/>
      <stop offset="20.276%" stop-color="#8671F3"/>
      <stop offset="70.727%" stop-color="#C06CFD" stop-opacity=".99"/>
      <stop offset="100%" stop-color="#FFBEE8"/>
    </linearGradient>
  </defs>
  <g fill="none" fill-rule="evenodd" transform="translate(1 1)">
    <g opacity=".062">
      <use fill="#FAFAFA" xlink:href="#icon-4-6-a"/>
      <use fill="url(#icon-4-6-b)" stroke="#000" stroke-opacity=".02" xlink:href="#icon-4-6-a"/>
    </g>
    <path fill="url(#icon-4-6-c)" fill-rule="nonzero" d="M37.1599251,12 L40.8443383,15.8919851 L44,19.4605488 L44.0002483,34.5326769 C43.8574592,34.4756203 43.720339,34.4230613 43.5888877,34.375 C45.0677152,34.9156901 47.264011,36.0256114 50.1777753,37.704764 C50.1777753,42.5993663 46.1139538,48 43.5888877,48 C42.6769671,48 41.5643509,47.29561 40.5149397,46.1650542 L40.541369,46.1934228 L40.541369,46.1934228 L40.5137193,46.1947969 L40.3181818,46.2 L20.6818182,46.2 C18.7140001,46.2 17.1067494,44.6261049 17.0051035,42.6456943 L17,42.4463415 L17,15.7536585 C17,13.747444 18.5437727,12.1088323 20.4862807,12.0052031 L20.6818182,12 L37.1599251,12 Z M43.601,35.45 L43.2471573,35.5958163 C41.5859169,36.2967772 39.9171165,37.1401816 38.2407979,38.1263674 L38.021,38.257 L38.0341702,38.4260182 C38.3935694,42.3169012 41.506158,46.8124241 43.4678178,46.9942943 L43.5888877,47 C45.5407311,47 48.7767184,42.3979612 49.1436051,38.4260182 L49.155,38.271 L48.0966489,37.6766501 C46.3744749,36.7232099 44.9705184,36.0199558 43.8921179,35.5688263 L43.601,35.45 Z M35.562,12.834 L20.6818182,12.8341463 C19.1567592,12.8341463 17.9101419,14.0495587 17.823043,15.582115 L17.8181818,15.7536585 L17.8181818,42.4463415 C17.8181818,44.0011577 19.0103327,45.2720992 20.5135578,45.3608976 L20.6818182,45.3658537 L39.8390332,45.3660676 L39.718004,45.2072204 C38.2090709,43.1948849 37,40.3745471 37,37.704764 C38.9603588,36.5052974 40.9135213,35.4950484 42.8594876,34.6740171 L43.5888877,34.375 L43.5888877,34.375 L43.181,34.542 L43.1818182,19.7809171 L43.105,19.694 L36.4558824,19.695 C35.9977239,19.695 35.6201168,19.3574342 35.5685104,18.9225454 L35.5625,18.8205682 L35.562,12.834 Z M36.8503289,33.375 C37.0710612,33.375 37.25,33.5663983 37.25,33.8025 C37.25,34.0123682 37.1086162,34.1869152 36.9221703,34.2231124 L36.8503289,34.23 L22.4621711,34.23 C22.2414388,34.23 22.0625,34.0386017 22.0625,33.8025 C22.0625,33.5926318 22.2038838,33.4180848 22.3903297,33.3818876 L22.4621711,33.375 L36.8503289,33.375 Z M36.8503289,29.1 C37.0710612,29.1 37.25,29.2913983 37.25,29.5275 C37.25,29.7373682 37.1086162,29.9119152 36.9221703,29.9481124 L36.8503289,29.955 L22.4621711,29.955 C22.2414388,29.955 22.0625,29.7636017 22.0625,29.5275 C22.0625,29.3176318 22.2038838,29.1430848 22.3903297,29.1068876 L22.4621711,29.1 L36.8503289,29.1 Z M36.8503289,25.68 C37.0710612,25.68 37.25,25.8713983 37.25,26.1075 C37.25,26.3173682 37.1086162,26.4919152 36.9221703,26.5281124 L36.8503289,26.535 L22.4621711,26.535 C22.2414388,26.535 22.0625,26.3436017 22.0625,26.1075 C22.0625,25.8976318 22.2038838,25.7230848 22.3903297,25.6868876 L22.4621711,25.68 L36.8503289,25.68 Z M36.8122727,12.8341463 L36.455,12.834 L36.4558824,18.8205682 L42.332,18.82 L40.246154,16.4609087 L36.8122727,12.8341463 Z"/>
  </g>
</svg>
