<?xml version="1.0" encoding="UTF-8"?>
<svg width="40px" height="41px" viewBox="0 0 40 41" version="1.1" xmlns="http://www.w3.org/2000/svg" xmlns:xlink="http://www.w3.org/1999/xlink">
    <title>icon-35-5</title>
    <defs>
        <linearGradient x1="100%" y1="100%" x2="0%" y2="0%" id="linearGradient-1">
            <stop stop-color="#1E85E9" offset="0%"></stop>
            <stop stop-color="#8671F3" offset="20.275549%"></stop>
            <stop stop-color="#C06CFD" stop-opacity="0.99" offset="70.7268792%"></stop>
            <stop stop-color="#FFBEE8" offset="100%"></stop>
        </linearGradient>
        <linearGradient x1="100%" y1="75%" x2="0%" y2="25%" id="linearGradient-2">
            <stop stop-color="#1E85E9" offset="0%"></stop>
            <stop stop-color="#8671F3" offset="20.275549%"></stop>
            <stop stop-color="#C06CFD" stop-opacity="0.99" offset="70.7268792%"></stop>
            <stop stop-color="#FFBEE8" offset="100%"></stop>
        </linearGradient>
    </defs>
    <g id="Page-1" stroke="none" stroke-width="1" fill="none" fill-rule="evenodd">
        <g id="icons" transform="translate(-958.000000, -5226.000000)" fill-rule="nonzero">
            <g id="icon-35-5" transform="translate(958.000000, 5226.000000)">
                <path d="M20,3 C29.9411255,3 38,11.0588745 38,21 C38,30.9411255 29.9411255,39 20,39 C10.0588745,39 2,30.9411255 2,21 C2,11.0588745 10.0588745,3 20,3 Z M20,4 C10.6111593,4 3,11.6111593 3,21 C3,30.3888407 10.6111593,38 20,38 C29.3888407,38 37,30.3888407 37,21 C37,11.6111593 29.3888407,4 20,4 Z" id="Oval" fill="url(#linearGradient-1)"></path>
                <path d="M20,9 C22.7614237,9 25,11.2385763 25,14 C25,16.7614237 22.7614237,19 20,19 C17.2385763,19 15,16.7614237 15,14 C15,11.2385763 17.2385763,9 20,9 Z M20,10 C17.790861,10 16,11.790861 16,14 C16,16.209139 17.790861,18 20,18 C22.209139,18 24,16.209139 24,14 C24,11.790861 22.209139,10 20,10 Z" id="Oval-Copy-2" fill="url(#linearGradient-1)"></path>
                <path d="M20,20 C24.418278,20 28,23.581722 28,28 C28,32.418278 12,32.418278 12,28 C12,23.581722 15.581722,20 20,20 Z M20,21 C16.1340068,21 13,24.1340068 13,28 C13,31.0849447 27,31.0849447 27,28 C27,24.1340068 23.8659932,21 20,21 Z" id="Oval-Copy-3" fill="url(#linearGradient-2)"></path>
                <g id="Group-13">
                    <path d="M20,0 C21.6568542,0 23,1.34314575 23,3 C23,4.65685425 21.6568542,6 20,6 C18.3431458,6 17,4.65685425 17,3 C17,1.34314575 18.3431458,0 20,0 Z" id="Oval-Copy" fill="url(#linearGradient-1)"></path>
                    <path d="M20,1 C18.8954305,1 18,1.8954305 18,3 C18,4.1045695 18.8954305,5 20,5 C21.1045695,5 22,4.1045695 22,3 C22,1.8954305 21.1045695,1 20,1 Z" id="Path" fill="#FFFFFF"></path>
                    <path d="M35,9 C36.6568542,9 38,10.3431458 38,12 C38,13.6568542 36.6568542,15 35,15 C33.3431458,15 32,13.6568542 32,12 C32,10.3431458 33.3431458,9 35,9 Z" id="Oval-Copy" fill="url(#linearGradient-1)" transform="translate(35.000000, 12.000000) rotate(60.000000) translate(-35.000000, -12.000000) "></path>
                    <path d="M35,10 C33.8954305,10 33,10.8954305 33,12 C33,13.1045695 33.8954305,14 35,14 C36.1045695,14 37,13.1045695 37,12 C37,10.8954305 36.1045695,10 35,10 Z" id="Path" fill="#FFFFFF"></path>
                    <path d="M35,26 C36.6568542,26 38,27.3431458 38,29 C38,30.6568542 36.6568542,32 35,32 C33.3431458,32 32,30.6568542 32,29 C32,27.3431458 33.3431458,26 35,26 Z" id="Oval-Copy" fill="url(#linearGradient-1)" transform="translate(35.000000, 29.000000) rotate(120.000000) translate(-35.000000, -29.000000) "></path>
                    <path d="M35,27 C33.8954305,27 33,27.8954305 33,29 C33,30.1045695 33.8954305,31 35,31 C36.1045695,31 37,30.1045695 37,29 C37,27.8954305 36.1045695,27 35,27 Z" id="Path" fill="#FFFFFF"></path>
                    <path d="M20,35 C21.6568542,35 23,36.3431458 23,38 C23,39.6568542 21.6568542,41 20,41 C18.3431458,41 17,39.6568542 17,38 C17,36.3431458 18.3431458,35 20,35 Z" id="Oval-Copy" fill="url(#linearGradient-1)" transform="translate(20.000000, 38.000000) rotate(180.000000) translate(-20.000000, -38.000000) "></path>
                    <path d="M20,36 C18.8954305,36 18,36.8954305 18,38 C18,39.1045695 18.8954305,40 20,40 C21.1045695,40 22,39.1045695 22,38 C22,36.8954305 21.1045695,36 20,36 Z" id="Path" fill="#FFFFFF"></path>
                    <path d="M5,26 C6.65685425,26 8,27.3431458 8,29 C8,30.6568542 6.65685425,32 5,32 C3.34314575,32 2,30.6568542 2,29 C2,27.3431458 3.34314575,26 5,26 Z" id="Oval-Copy" fill="url(#linearGradient-1)" transform="translate(5.000000, 29.000000) rotate(240.000000) translate(-5.000000, -29.000000) "></path>
                    <path d="M5,27 C3.8954305,27 3,27.8954305 3,29 C3,30.1045695 3.8954305,31 5,31 C6.1045695,31 7,30.1045695 7,29 C7,27.8954305 6.1045695,27 5,27 Z" id="Path" fill="#FFFFFF"></path>
                    <path d="M5,9 C6.65685425,9 8,10.3431458 8,12 C8,13.6568542 6.65685425,15 5,15 C3.34314575,15 2,13.6568542 2,12 C2,10.3431458 3.34314575,9 5,9 Z" id="Oval-Copy" fill="url(#linearGradient-1)" transform="translate(5.000000, 12.000000) rotate(300.000000) translate(-5.000000, -12.000000) "></path>
                    <path d="M5,10 C3.8954305,10 3,10.8954305 3,12 C3,13.1045695 3.8954305,14 5,14 C6.1045695,14 7,13.1045695 7,12 C7,10.8954305 6.1045695,10 5,10 Z" id="Path" fill="#FFFFFF"></path>
                </g>
            </g>
        </g>
    </g>
</svg>