<svg xmlns="http://www.w3.org/2000/svg" width="52" height="46" viewBox="0 0 52 46">
  <defs>
    <linearGradient id="icon-26-5-a" x1="100%" x2="0%" y1="89.127%" y2="10.873%">
      <stop offset="0%" stop-color="#1E85E9"/>
      <stop offset="20.276%" stop-color="#8671F3"/>
      <stop offset="70.727%" stop-color="#C06CFD" stop-opacity=".99"/>
      <stop offset="100%" stop-color="#FFBEE8"/>
    </linearGradient>
  </defs>
  <path fill="url(#icon-26-5-a)" d="M980.532675,3952.4272 C980.608524,3951.91194 981.301202,3951.85551 981.485844,3952.29753 L981.515666,3952.39259 L986.928,3976.99502 L998.5,3976.99521 C998.74546,3976.99521 998.949608,3977.17208 998.991944,3977.40533 L999,3977.49521 C999,3977.74067 998.823125,3977.94481 998.589876,3977.98715 L998.5,3977.99521 L986.526367,3977.99521 C986.320965,3977.99521 986.139762,3977.87018 986.063881,3977.68533 L986.038045,3977.60264 L981.125,3955.27002 L974.897786,3997.57284 C974.823462,3998.07774 974.149992,3998.14621 973.952335,3997.71892 L973.919466,3997.62684 L964.966,3963.47902 L960.906833,3979.13108 C960.856786,3979.32401 960.698174,3979.466 960.506702,3979.49849 L960.422852,3979.50553 L947.5,3979.50553 C947.223858,3979.50553 947,3979.28168 947,3979.00553 C947,3978.76007 947.176875,3978.55592 947.410124,3978.51359 L947.5,3978.50553 L960.035,3978.50502 L964.479886,3961.37447 C964.600601,3960.90912 965.225092,3960.87729 965.414038,3961.28021 L965.447518,3961.37321 L974.265,3995.00402 L980.532675,3952.4272 Z" transform="translate(-947 -3952)"/>
</svg>
