<svg xmlns="http://www.w3.org/2000/svg" xmlns:xlink="http://www.w3.org/1999/xlink" width="62" height="62" viewBox="0 0 62 62">
  <defs>
    <linearGradient id="ico-benefits-2-b" x1="100%" x2="0%" y1="100%" y2="0%">
      <stop offset="0%" stop-color="#1E85E9"/>
      <stop offset="20.276%" stop-color="#8671F3"/>
      <stop offset="70.727%" stop-color="#C06CFD" stop-opacity=".99"/>
      <stop offset="100%" stop-color="#FFBEE8"/>
    </linearGradient>
    <rect id="ico-benefits-2-a" width="60" height="60" x="0" y="0" rx="4"/>
  </defs>
  <g fill="none" fill-rule="evenodd" transform="translate(1 1)">
    <g opacity=".062">
      <use fill="#FAFAFA" xlink:href="#ico-benefits-2-a"/>
      <use fill="url(#ico-benefits-2-b)" stroke="#000" stroke-opacity=".02" xlink:href="#ico-benefits-2-a"/>
    </g>
    <path fill="url(#ico-benefits-2-b)" fill-rule="nonzero" d="M30,12 C39.9411255,12 48,20.0588745 48,30 C48,39.9411255 39.9411255,48 30,48 C20.0588745,48 12,39.9411255 12,30 C12,20.0588745 20.0588745,12 30,12 Z M30,13 C20.6111593,13 13,20.6111593 13,30 C13,39.3888407 20.6111593,47 30,47 C39.3888407,47 47,39.3888407 47,30 C47,20.6111593 39.3888407,13 30,13 Z M30.1309524,16 C37.9352619,16 44.2619048,22.3266429 44.2619048,30.1309524 C44.2619048,37.9352619 37.9352619,44.2619048 30.1309524,44.2619048 C22.3266429,44.2619048 16,37.9352619 16,30.1309524 C16,22.3266429 22.3266429,16 30.1309524,16 Z M30.1309524,16.8333333 C22.7868802,16.8333333 16.8333333,22.7868802 16.8333333,30.1309524 C16.8333333,37.4750246 22.7868802,43.4285714 30.1309524,43.4285714 C37.4750246,43.4285714 43.4285714,37.4750246 43.4285714,30.1309524 C43.4285714,22.7868802 37.4750246,16.8333333 30.1309524,16.8333333 Z M29.1309524,20 C29.3764123,20 29.5805608,20.1768752 29.6228967,20.4101244 L29.6309524,20.5 L29.63,30.2074609 L34.0820499,34.0097978 C34.2687179,34.1691892 34.3091139,34.4362652 34.1898473,34.6411384 L34.137612,34.7147182 C33.9782206,34.9013862 33.7111446,34.9417822 33.5062714,34.8225156 L33.4326916,34.7702804 L28.6309524,30.6701874 L28.6309524,20.5 C28.6309524,20.2238576 28.85481,20 29.1309524,20 Z"/>
  </g>
</svg>
