<svg xmlns="http://www.w3.org/2000/svg" width="33" height="33" viewBox="0 0 33 33">
  <defs>
    <linearGradient id="ico-engagement-model-2-a" x1="100%" x2="0%" y1="100%" y2="0%">
      <stop offset="0%" stop-color="#1E85E9"/>
      <stop offset="20.276%" stop-color="#8671F3"/>
      <stop offset="70.727%" stop-color="#C06CFD" stop-opacity=".99"/>
      <stop offset="100%" stop-color="#FFBEE8"/>
    </linearGradient>
  </defs>
  <path fill="url(#ico-engagement-model-2-a)" d="M46.5,30 C55.6126984,30 63,37.3873016 63,46.5 C63,55.6126984 55.6126984,63 46.5,63 C37.3873016,63 30,55.6126984 30,46.5 C30,37.3873016 37.3873016,30 46.5,30 Z M46.5,30.9705882 C37.9233427,30.9705882 30.9705882,37.9233427 30.9705882,46.5 C30.9705882,55.0766573 37.9233427,62.0294118 46.5,62.0294118 C55.0766573,62.0294118 62.0294118,55.0766573 62.0294118,46.5 C62.0294118,37.9233427 55.0766573,30.9705882 46.5,30.9705882 Z M46.1309524,37 C46.3764123,37 46.5805608,37.1768752 46.6228967,37.4101244 L46.6309524,37.5 L46.63,47.2074609 L51.0820499,51.0097978 C51.2687179,51.1691892 51.3091139,51.4362652 51.1898473,51.6411384 L51.137612,51.7147182 C50.9782206,51.9013862 50.7111446,51.9417822 50.5062714,51.8225156 L50.4326916,51.7702804 L45.6309524,47.6701874 L45.6309524,37.5 C45.6309524,37.2238576 45.85481,37 46.1309524,37 Z" transform="translate(-30 -30)"/>
</svg>
