<svg xmlns="http://www.w3.org/2000/svg" xmlns:xlink="http://www.w3.org/1999/xlink" width="62" height="62" viewBox="0 0 62 62">
  <defs>
    <linearGradient id="icon-4-9-b" x1="100%" x2="0%" y1="100%" y2="0%">
      <stop offset="0%" stop-color="#FFBEE8"/>
      <stop offset="29.273%" stop-color="#C06CFD" stop-opacity=".99"/>
      <stop offset="79.724%" stop-color="#8671F3"/>
      <stop offset="100%" stop-color="#1E85E9"/>
    </linearGradient>
    <rect id="icon-4-9-a" width="60" height="60" x="0" y="0" rx="4"/>
    <linearGradient id="icon-4-9-c" x1="100%" x2="0%" y1="89.774%" y2="10.226%">
      <stop offset="0%" stop-color="#1E85E9"/>
      <stop offset="20.276%" stop-color="#8671F3"/>
      <stop offset="70.727%" stop-color="#C06CFD" stop-opacity=".99"/>
      <stop offset="100%" stop-color="#FFBEE8"/>
    </linearGradient>
  </defs>
  <g fill="none" fill-rule="evenodd" transform="translate(1 1)">
    <g opacity=".062">
      <use fill="#FAFAFA" xlink:href="#icon-4-9-a"/>
      <use fill="url(#icon-4-9-b)" stroke="#000" stroke-opacity=".02" xlink:href="#icon-4-9-a"/>
    </g>
    <path fill="url(#icon-4-9-c)" fill-rule="nonzero" d="M30,13.5 L30.0237981,13.5005612 C30.0445509,13.5015405 30.0652533,13.5038016 30.0857738,13.5073444 L30,13.5 C30.0400677,13.5 30.0790347,13.504713 30.1163767,13.5136148 C30.1338918,13.5177624 30.1515379,13.5229758 30.1689043,13.5291779 C30.178681,13.5327513 30.1885169,13.536637 30.1981944,13.5408197 C30.214509,13.5477115 30.2306675,13.5557173 30.2464362,13.5646484 C30.2556666,13.5700933 30.2645201,13.5754961 30.2731871,13.5811607 C30.2863735,13.5895573 30.2992236,13.5988519 30.3116987,13.6088331 C30.3184029,13.6144625 30.3202791,13.6160214 30.3221436,13.6175937 L30.3841106,13.6799078 L35.3841106,19.6799078 C35.5608927,19.8920462 35.5322306,20.2073286 35.3200922,20.3841106 C35.1315247,20.5412502 34.8614608,20.5360636 34.6796149,20.3839795 L34.6158894,20.3200922 L30.4999937,15.381 L30.5,46 C30.5,46.2761424 30.2761424,46.5 30,46.5 C29.7545401,46.5 29.5503916,46.3231248 29.5080557,46.0898756 L29.5,46 L29.4999937,15.381 L25.3841106,20.3200922 C25.226971,20.5086597 24.9603991,20.5522582 24.7541093,20.4354591 L24.6799078,20.3841106 C24.4913403,20.226971 24.4477418,19.9603991 24.5645409,19.7541093 L24.6158894,19.6799078 L29.6158894,13.6799078 C29.7146042,13.56145 29.8544173,13.5014899 29.9947378,13.5000274 L30,13.5 Z M18.3200859,36.6158956 L18.3839732,36.6796211 C18.5360574,36.861467 18.541244,37.131531 18.3841044,37.3200985 C18.2073223,37.5322369 17.89204,37.5608989 17.6799015,37.3841169 L17.6799015,37.3841169 L11.6799015,32.3841169 L11.6088268,32.3117049 C11.4429859,32.1044275 11.4666775,31.7935823 11.6799015,31.6158956 L11.6799015,31.6158956 L17.6799015,26.6158956 L17.754103,26.5645472 C17.9603928,26.4477481 18.2269648,26.4913466 18.3841044,26.6799141 L18.3841044,26.6799141 L18.4354528,26.7541156 C18.5522519,26.9604054 18.5086534,27.2269773 18.3200859,27.3841169 L18.3200859,27.3841169 L13.3799937,31.5 L16.8299379,31.5 L17.1354934,31.5035478 C21.9518656,31.6154982 26.1496776,34.367618 28.5005948,38.4458785 L28.5009547,40.7364293 C26.6117986,35.9869777 22.2438076,32.6317668 17.1330934,32.5037919 L16.8299379,32.5 L13.3799937,32.5 L18.3200859,36.6158956 Z M42.245897,26.5645472 L42.3200985,26.6158956 L48.3200985,31.6158956 C48.5333225,31.7935823 48.5570141,32.1044275 48.3911732,32.3117049 L48.3200985,32.3841169 L42.3200985,37.3841169 C42.10796,37.5608989 41.7926777,37.5322369 41.6158956,37.3200985 C41.458756,37.131531 41.4639426,36.861467 41.6160268,36.6796211 L41.6799141,36.6158956 L46.6189937,32.5 L43.1700621,32.5 C37.9304884,32.5 33.427316,35.8919273 31.5002429,40.7334195 L31.4999097,38.4468785 C33.8496362,34.3680679 38.0477407,31.6155074 42.8645066,31.5035478 L43.1700621,31.5 L46.6189937,31.5 L41.6799141,27.3841169 C41.4913466,27.2269773 41.4477481,26.9604054 41.5645472,26.7541156 L41.6158956,26.6799141 C41.7730352,26.4913466 42.0396072,26.4477481 42.245897,26.5645472 Z"/>
  </g>
</svg>
