<svg xmlns="http://www.w3.org/2000/svg" xmlns:xlink="http://www.w3.org/1999/xlink" width="62" height="62" viewBox="0 0 62 62">
  <defs>
    <linearGradient id="icon-9-8-b" x1="100%" x2="0%" y1="100%" y2="0%">
      <stop offset="0%" stop-color="#1E85E9"/>
      <stop offset="20.276%" stop-color="#8671F3"/>
      <stop offset="70.727%" stop-color="#C06CFD" stop-opacity=".99"/>
      <stop offset="100%" stop-color="#FFBEE8"/>
    </linearGradient>
    <rect id="icon-9-8-a" width="60" height="60" x="0" y="0" rx="4"/>
    <linearGradient id="icon-9-8-c" x1="89.519%" x2="10.481%" y1="100%" y2="0%">
      <stop offset="0%" stop-color="#1E85E9"/>
      <stop offset="20.276%" stop-color="#8671F3"/>
      <stop offset="70.727%" stop-color="#C06CFD" stop-opacity=".99"/>
      <stop offset="100%" stop-color="#FFBEE8"/>
    </linearGradient>
  </defs>
  <g fill="none" fill-rule="evenodd" transform="translate(1 1)">
    <g opacity=".062">
      <use fill="#FAFAFA" xlink:href="#icon-9-8-a"/>
      <use fill="url(#icon-9-8-b)" stroke="#000" stroke-opacity=".02" xlink:href="#icon-9-8-a"/>
    </g>
    <path fill="url(#icon-9-8-c)" fill-rule="nonzero" d="M28.9851136,13 L43.4996783,21.788 L43.5358546,21.767745 L43.5776783,21.836 L43.8026478,21.9717633 L43.8623226,22.0156064 C43.9539087,22.0965327 44.0025072,22.2126277 43.9999003,22.3302698 L44,22.3302059 L44,39.5364139 L43.9947186,39.6134995 C44.0169063,39.7494728 43.9685056,39.8905694 43.8623226,39.9843936 L43.8026478,40.0282367 C43.7138084,40.1161673 43.6127558,40.1783004 43.499488,40.2128336 L28.9851136,49 L12.2165743,40.0391698 C12.144222,40.000506 12.0882296,39.9433959 12.0513177,39.8768317 L12,39.8779443 L12,22.4036361 C11.9725207,22.2311295 12.0524632,22.0485284 12.2165743,21.9608302 L12.2165743,21.9608302 L12.3096783,21.91 L12.394027,21.7567568 L12.4956783,21.81 L28.9851136,13 Z M43.3116783,22.864 L29.1866783,31.357 L29.1866783,47.919 L43.3116783,39.367 L43.3116783,22.864 Z M12.6866783,22.845 L12.6866783,39.362 L28.4996783,47.812 L28.4996783,31.236 L12.6866783,22.845 Z M28.9591243,13.9422801 L13.3676783,22.273 L28.8616783,30.495 L29.0256783,30.49 L42.7066783,22.265 L28.9591243,13.9422801 Z"/>
  </g>
</svg>
