<svg xmlns="http://www.w3.org/2000/svg" width="41" height="40" viewBox="0 0 41 40">
  <defs>
    <linearGradient id="icon-14-1-a" x1="100%" x2="0%" y1="98.97%" y2="1.03%">
      <stop offset="0%" stop-color="#1E85E9"/>
      <stop offset="20.276%" stop-color="#8671F3"/>
      <stop offset="70.727%" stop-color="#C06CFD"/>
      <stop offset="100%" stop-color="#FFBEE8"/>
    </linearGradient>
  </defs>
  <path fill="url(#icon-14-1-a)" d="M389.5,2264 C389.74546,2264 389.949608,2264.17688 389.991944,2264.41012 L390,2264.5 L390.000154,2274.58893 C391.459748,2269.89865 394.506094,2267.90923 399.123189,2268.74821 C402.026769,2269.27582 403.979345,2271.87501 406.642149,2277.68232 L407.130364,2278.76559 C407.627617,2279.88125 408.456468,2281.7537 408.697349,2282.28719 L409.144704,2283.26535 C411.278233,2287.86719 413.016132,2290.66575 415.242502,2292.67003 C418.227535,2295.3573 421.782008,2296.06879 426.345937,2294.50143 C426.607107,2294.41174 426.891537,2294.55075 426.981229,2294.81192 C427.070921,2295.07309 426.93191,2295.35752 426.67074,2295.44721 C421.764581,2297.1321 417.829398,2296.3444 414.573436,2293.41324 C412.222147,2291.2965 410.428429,2288.41071 408.243823,2283.69977 L407.659792,2282.41749 C407.226094,2281.44705 406.196677,2279.12015 405.909822,2278.48683 L405.55816,2277.72022 C403.127815,2272.49284 401.334957,2270.16648 398.944406,2269.73209 C393.118117,2268.6734 390.152275,2272.6422 390.000669,2282.00623 L390,2302.949 L428.867502,2302.94956 C429.112962,2302.94956 429.317111,2303.12643 429.359447,2303.35968 L429.367502,2303.44956 C429.367502,2303.69502 429.190627,2303.89917 428.957378,2303.9415 L428.867502,2303.94956 L389,2303.94956 L389,2264.5 C389,2264.22386 389.223858,2264 389.5,2264 Z" transform="translate(-389 -2264)"/>
</svg>
