<svg xmlns="http://www.w3.org/2000/svg" width="33" height="28" viewBox="0 0 33 28">
  <defs>
    <linearGradient id="icon-15-5-a" x1="100%" x2="0%" y1="85.939%" y2="14.061%">
      <stop offset="0%" stop-color="#1E85E9"/>
      <stop offset="20.276%" stop-color="#8671F3"/>
      <stop offset="70.727%" stop-color="#C06CFD" stop-opacity=".99"/>
      <stop offset="100%" stop-color="#FFBEE8"/>
    </linearGradient>
  </defs>
  <path fill="url(#icon-15-5-a)" d="M967.019576,2411 L967.018777,2423.02552 L974.026045,2418.06982 L974.025777,2423.09152 L982.000777,2418.13651 L982.000777,2423.09252 L990.000777,2418.13801 L990.000777,2438.97852 L957,2438.97852 L959.737744,2411 L967.019576,2411 Z M966.018777,2411.99952 L960.644777,2411.99952 L958.102777,2437.97852 L989.000777,2437.97852 L989.000777,2419.93352 L981.000777,2424.88933 L981.000777,2419.93452 L973.026045,2424.89083 L973.025777,2420.00052 L966.019576,2424.95752 L966.018777,2411.99952 Z M968.500777,2426.97852 C968.776919,2426.97852 969.000777,2427.20237 969.000777,2427.47852 L969.000777,2427.47852 L969.000777,2432.47852 C969.000777,2432.75466 968.776919,2432.97852 968.500777,2432.97852 L968.500777,2432.97852 L965.500777,2432.97852 C965.224634,2432.97852 965.000777,2432.75466 965.000777,2432.47852 L965.000777,2432.47852 L965.000777,2427.47852 C965.000777,2427.20237 965.224634,2426.97852 965.500777,2426.97852 L965.500777,2426.97852 Z M976.500777,2426.97852 C976.776919,2426.97852 977.000777,2427.20237 977.000777,2427.47852 L977.000777,2427.47852 L977.000777,2432.47852 C977.000777,2432.75466 976.776919,2432.97852 976.500777,2432.97852 L976.500777,2432.97852 L973.500777,2432.97852 C973.224634,2432.97852 973.000777,2432.75466 973.000777,2432.47852 L973.000777,2432.47852 L973.000777,2427.47852 C973.000777,2427.20237 973.224634,2426.97852 973.500777,2426.97852 L973.500777,2426.97852 Z M984.500777,2426.97852 C984.776919,2426.97852 985.000777,2427.20237 985.000777,2427.47852 L985.000777,2427.47852 L985.000777,2432.47852 C985.000777,2432.75466 984.776919,2432.97852 984.500777,2432.97852 L984.500777,2432.97852 L981.500777,2432.97852 C981.224634,2432.97852 981.000777,2432.75466 981.000777,2432.47852 L981.000777,2432.47852 L981.000777,2427.47852 C981.000777,2427.20237 981.224634,2426.97852 981.500777,2426.97852 L981.500777,2426.97852 Z M968.000777,2427.97852 L966.000777,2427.97852 L966.000777,2431.97852 L968.000777,2431.97852 L968.000777,2427.97852 Z M976.000777,2427.97852 L974.000777,2427.97852 L974.000777,2431.97852 L976.000777,2431.97852 L976.000777,2427.97852 Z M984.000777,2427.97852 L982.000777,2427.97852 L982.000777,2431.97852 L984.000777,2431.97852 L984.000777,2427.97852 Z" transform="translate(-957 -2411)"/>
</svg>
