<svg xmlns="http://www.w3.org/2000/svg" width="38" height="40" viewBox="0 0 38 40">
  <defs>
    <linearGradient id="icon-14-6-a" x1="94.337%" x2="5.663%" y1="100%" y2="0%">
      <stop offset="0%" stop-color="#1E85E9"/>
      <stop offset="20.276%" stop-color="#8671F3"/>
      <stop offset="70.727%" stop-color="#C06CFD"/>
      <stop offset="100%" stop-color="#FFBEE8"/>
    </linearGradient>
  </defs>
  <path fill="url(#icon-14-6-a)" d="M1114.78014,2280.73869 C1115.0256,2280.73869 1115.22975,2280.91556 1115.27209,2281.14881 L1115.28014,2281.23869 L1115.28,2302.345 L1121.14645,2296.47978 L1121.21569,2296.42192 C1121.41056,2296.28693 1121.67999,2296.30621 1121.85355,2296.47978 C1122.04882,2296.67504 1122.04882,2296.99162 1121.85355,2297.18689 L1121.85355,2297.18689 L1115.18689,2303.85355 L1115.11764,2303.91141 C1114.92277,2304.0464 1114.65335,2304.02712 1114.47978,2303.85355 L1114.47978,2303.85355 L1107.81311,2297.18689 L1107.75526,2297.11764 C1107.62026,2296.92277 1107.63955,2296.65335 1107.81311,2296.47978 L1107.81311,2296.47978 L1107.88236,2296.42192 C1108.07723,2296.28693 1108.34665,2296.30621 1108.52022,2296.47978 L1108.52022,2296.47978 L1114.28,2302.241 L1114.28014,2281.23869 C1114.28014,2280.96255 1114.504,2280.73869 1114.78014,2280.73869 Z M1114.83333,2264 C1120.49546,2264 1125.11082,2268.48172 1125.32552,2274.09128 C1130.06619,2274.73931 1133.66667,2278.80772 1133.66667,2283.66667 C1133.66667,2288.68611 1129.82925,2292.84579 1124.88305,2293.29352 L1124.61217,2293.31425 C1124.5612,2293.31743 1124.35236,2293.31929 1123.99225,2293.32011 L1122.7039,2293.32005 L1122.7039,2293.32005 L1120.3501,2293.31522 C1120.07396,2293.31522 1119.8501,2293.09136 1119.8501,2292.81522 C1119.8501,2292.56976 1120.02697,2292.36561 1120.26022,2292.32328 L1120.36983,2292.31525 L1124.54975,2292.3162 C1129.0998,2292.03163 1132.66667,2288.24853 1132.66667,2283.66667 C1132.66667,2279.18607 1129.25127,2275.45484 1124.82198,2275.03844 C1124.67942,2275.02504 1124.55649,2274.95303 1124.47477,2274.84846 C1124.38708,2274.75806 1124.33333,2274.6353 1124.33333,2274.5 C1124.33333,2269.25329 1120.08004,2265 1114.83333,2265 C1110.13296,2265 1106.1584,2268.4358 1105.44592,2273.03247 C1105.40994,2273.26457 1105.21972,2273.43449 1104.99575,2273.45406 L1105.01079,2273.44931 C1100.42421,2274.1711 1097,2278.14105 1097,2282.83333 C1097,2287.79564 1100.81531,2291.89874 1105.71028,2292.30101 L1106.03905,2292.32063 C1106.13208,2292.32186 1106.31989,2292.3227 1106.58269,2292.32313 L1109.20203,2292.32056 C1109.47817,2292.32056 1109.70203,2292.54442 1109.70203,2292.82056 C1109.70203,2293.0967 1109.47817,2293.32056 1109.20203,2293.32056 L1105.92434,2293.31781 C1100.37147,2293.01755 1096,2288.41786 1096,2282.83333 C1096,2277.76194 1099.6183,2273.45449 1104.51986,2272.51983 C1105.4542,2267.61919 1109.76116,2264 1114.83333,2264 Z" transform="translate(-1096 -2264)"/>
</svg>
