<svg xmlns="http://www.w3.org/2000/svg" width="35" height="35" viewBox="0 0 35 35">
  <defs>
    <linearGradient id="icon-17-7-a" x1="100%" x2="0%" y1="100%" y2="0%">
      <stop offset="0%" stop-color="#1E85E9"/>
      <stop offset="20.276%" stop-color="#8671F3"/>
      <stop offset="70.727%" stop-color="#C06CFD" stop-opacity=".99"/>
      <stop offset="100%" stop-color="#FFBEE8"/>
    </linearGradient>
  </defs>
  <path fill="url(#icon-17-7-a)" d="M1254.5,2690 C1264.16498,2690 1272,2697.83502 1272,2707.5 C1272,2717.16498 1264.16498,2725 1254.5,2725 C1244.83502,2725 1237,2717.16498 1237,2707.5 C1237,2697.83502 1244.83502,2690 1254.5,2690 Z M1254.5,2691 C1245.3873,2691 1238,2698.3873 1238,2707.5 C1238,2716.6127 1245.3873,2724 1254.5,2724 C1263.6127,2724 1271,2716.6127 1271,2707.5 C1271,2698.3873 1263.6127,2691 1254.5,2691 Z M1262.6423,2702.14748 C1262.81488,2702.32203 1262.83263,2702.59156 1262.69653,2702.78566 L1262.63828,2702.85458 L1252.84666,2712.53561 C1252.67001,2712.71026 1252.39661,2712.72607 1252.20242,2712.58554 L1252.13366,2712.52552 L1248.13854,2708.34547 C1247.94774,2708.14584 1247.9549,2707.82934 1248.15453,2707.63854 C1248.33198,2707.46894 1248.60177,2707.45576 1248.79354,2707.59513 L1248.86146,2707.65453 L1252.505,2711.466 L1261.9352,2702.14347 C1262.13157,2701.94932 1262.44815,2701.95112 1262.6423,2702.14748 Z" transform="translate(-1237 -2690)"/>
</svg>
