<svg xmlns="http://www.w3.org/2000/svg" width="24" height="44" viewBox="0 0 24 44">
  <defs>
    <linearGradient id="icon-16-2-a" x1="64.876%" x2="35.124%" y1="100%" y2="0%">
      <stop offset="0%" stop-color="#1E85E9"/>
      <stop offset="20.276%" stop-color="#8671F3"/>
      <stop offset="70.727%" stop-color="#C06CFD" stop-opacity=".99"/>
      <stop offset="100%" stop-color="#FFBEE8"/>
    </linearGradient>
  </defs>
  <path fill="url(#icon-16-2-a)" d="M560,2545 C561.656855,2545 563,2546.33105 563,2547.97297 L563,2547.97297 L563,2586.02703 C563,2587.66895 561.656855,2589 560,2589 L560,2589 L542,2589 C540.343146,2589 539,2587.66895 539,2586.02703 L539,2586.02703 L539,2547.97297 C539,2546.33105 540.343146,2545 542,2545 L542,2545 Z M561.8,2580.675 L540.2,2580.675 L540.2,2586.02703 C540.2,2586.96293 540.927314,2587.73048 541.852372,2587.8049 L542,2587.81081 L560.000001,2587.81081 C560.994113,2587.81081 561.800001,2587.01218 561.800001,2586.02703 L561.800001,2586.02703 L561.8,2580.675 Z M551,2581.86486 C552.325484,2581.86486 553.400001,2582.9297 553.400001,2584.24324 C553.400001,2585.55679 552.325484,2586.62162 551,2586.62162 C549.674517,2586.62162 548.6,2585.55679 548.6,2584.24324 C548.6,2582.9297 549.674517,2581.86486 551,2581.86486 Z M551,2583.05405 C550.337259,2583.05405 549.8,2583.58647 549.8,2584.24324 C549.8,2584.90001 550.337259,2585.43243 551,2585.43243 C551.662742,2585.43243 552.200001,2584.90001 552.200001,2584.24324 C552.200001,2583.58647 551.662742,2583.05405 551,2583.05405 Z M560.000001,2546.18919 L542,2546.18919 C541.005888,2546.18919 540.2,2546.98782 540.2,2547.97297 L540.2,2547.97297 L540.2,2579.486 L561.8,2579.486 L561.800001,2547.97297 C561.800001,2547.03707 561.072687,2546.26952 560.147629,2546.1951 L560.000001,2546.18919 Z M554.600001,2549.16216 C554.931371,2549.16216 555.200001,2549.42837 555.200001,2549.75676 C555.200001,2550.04866 554.98775,2550.29143 554.707851,2550.34177 L554.600001,2550.35135 L547.4,2550.35135 C547.068629,2550.35135 546.8,2550.08514 546.8,2549.75676 C546.8,2549.46486 547.012251,2549.22209 547.29215,2549.17174 L547.4,2549.16216 L554.600001,2549.16216 Z" transform="translate(-539 -2545)"/>
</svg>
