<svg xmlns="http://www.w3.org/2000/svg" xmlns:xlink="http://www.w3.org/1999/xlink" width="62" height="62" viewBox="0 0 62 62">
  <defs>
    <linearGradient id="icon-7-6-b" x1="100%" x2="0%" y1="100%" y2="0%">
      <stop offset="0%" stop-color="#1E85E9"/>
      <stop offset="20.276%" stop-color="#8671F3"/>
      <stop offset="70.727%" stop-color="#C06CFD" stop-opacity=".99"/>
      <stop offset="100%" stop-color="#FFBEE8"/>
    </linearGradient>
    <rect id="icon-7-6-a" width="60" height="60" x="0" y="0" rx="4"/>
    <linearGradient id="icon-7-6-c" x1="88.416%" x2="11.584%" y1="100%" y2="0%">
      <stop offset="0%" stop-color="#1E85E9"/>
      <stop offset="20.276%" stop-color="#8671F3"/>
      <stop offset="70.727%" stop-color="#C06CFD" stop-opacity=".99"/>
      <stop offset="100%" stop-color="#FFBEE8"/>
    </linearGradient>
  </defs>
  <g fill="none" fill-rule="evenodd" transform="translate(1 1)">
    <g opacity=".062">
      <use fill="#FAFAFA" xlink:href="#icon-7-6-a"/>
      <use fill="url(#icon-7-6-b)" stroke="#000" stroke-opacity=".02" xlink:href="#icon-7-6-a"/>
    </g>
    <path fill="url(#icon-7-6-c)" fill-rule="nonzero" d="M36.9646019,31.5568895 C37.6747744,31.4791016 38.3910757,31.4810906 39.1021838,31.5628296 L39.1021838,31.5628296 L39.2208278,31.5838281 C39.6856399,31.6929207 40.027959,32.0979904 40.0559607,32.611735 L40.0559607,32.611735 L40.0533951,32.7912654 C40.0632229,33.3499485 40.3933142,33.8465322 40.8752504,34.0532736 C41.4079279,34.2584464 42.0036739,34.1438598 42.3994589,33.7732828 L42.3994589,33.7732828 L42.5620932,33.6133694 C42.9471937,33.2734537 43.5345637,33.2644526 43.9444349,33.5914002 C44.5009568,34.0392645 45.0063244,34.5489109 45.4488264,35.1083708 C45.8041005,35.5552419 45.7502912,36.1993706 45.3235958,36.5857147 L45.3235958,36.5857147 L45.2221368,36.6859934 C44.8721253,37.0699059 44.7658687,37.6251741 44.9596293,38.1173407 C45.1715132,38.6555417 45.6963648,39.003024 46.2916878,38.9901224 L46.2916878,38.9901224 L46.4110046,38.9963921 C46.9245098,39.0501715 47.3831808,39.4440115 47.4404849,39.9488379 C47.5199875,40.6632762 47.5198414,41.3842694 47.4394778,42.1060847 C47.3773161,42.6200441 46.9543429,43.0233759 46.4133071,43.0562136 L46.4133071,43.0562136 L46.213931,43.0559445 C45.640384,43.0472907 45.119228,43.3992939 44.911333,43.9369972 C44.7029996,44.4758347 44.8532723,45.0862023 45.2969772,45.4774104 L45.2969772,45.4774104 L45.3870627,45.5702642 C45.7209032,45.9587213 45.7360027,46.5414557 45.4062324,46.9505072 C44.9532855,47.5134102 44.4383113,48.0230861 43.8701428,48.4707002 C43.4652233,48.7888797 42.8903167,48.7768431 42.4800198,48.4235332 L42.4800198,48.4235332 L42.3435339,48.2899049 C41.9312653,47.91783 41.3544291,47.8036674 40.8674274,47.9832591 C40.3202056,48.2101859 39.9767643,48.7438699 39.9990151,49.3576209 L39.9990151,49.3576209 L39.9963417,49.4549048 C39.961055,49.9649664 39.5538229,50.3836771 39.0408747,50.440681 C38.6923311,50.4809016 38.3425514,50.500685 37.9927773,50.5000168 C37.6268787,50.4995044 37.2620352,50.4785467 36.8937966,50.436654 C36.3282987,50.3683197 35.9132377,49.8716535 35.9440307,49.2989881 L35.9440307,49.2989881 L35.945443,49.1648142 C35.9253385,48.6318734 35.6004103,48.1503326 35.1226222,47.9484935 C34.5883452,47.7441082 33.9912872,47.8601272 33.5923954,48.233992 L33.5923954,48.233992 L33.4290735,48.3936602 C33.042763,48.7308681 32.4558587,48.7376764 32.0509207,48.4114608 C31.4930613,47.9631954 30.9882314,47.4528809 30.54771,46.8921789 C30.1958199,46.4471292 30.2472964,45.8056153 30.6512055,45.4388064 L30.6512055,45.4388064 L30.7354783,45.3560476 C31.112499,44.9519522 31.2209958,44.3753063 31.0175522,43.8713422 C30.804568,43.3471893 30.2937436,43.0068856 29.6963013,43.0108005 L29.6963013,43.0108005 L29.601291,43.0054709 C29.0727202,42.9563086 28.6072966,42.5599171 28.5634265,42.063668 C28.4793608,41.3404435 28.4788854,40.6152814 28.5606999,39.914139 C28.6106954,39.3836989 29.037688,38.9683691 29.5884142,38.9395725 L29.5884142,38.9395725 L29.776526,38.9402986 C30.3376654,38.9169539 30.8337776,38.5883807 31.0545241,38.1102688 C31.2857639,37.5557211 31.1434853,36.9260537 30.6925594,36.5218644 C30.2781511,36.1380084 30.231686,35.4964442 30.5859906,35.050924 C31.0376222,34.4875789 31.5532131,33.9773159 32.1215253,33.5312487 C32.5261358,33.2133117 33.1009146,33.2243517 33.5089372,33.5750289 L33.5089372,33.5750289 L33.651735,33.7135022 C34.0676392,34.0810025 34.6434582,34.191398 35.1308287,34.0109146 C35.6787549,33.784109 36.0230284,33.2500282 36.0020049,32.6308499 L36.0020049,32.6308499 L36.0053552,32.5361103 C36.0406664,32.0705573 36.3870565,31.6793261 36.8735485,31.5712855 L36.8735485,31.5712855 Z M38.6055364,32.5208955 C38.0956949,32.4850542 37.5878526,32.494444 37.1013679,32.5470929 L37.1013679,32.5470929 L37.0650031,32.552407 C37.0534266,32.5549961 37.042808,32.5599985 37.0337779,32.5654865 L37.0337779,32.5654865 L37.0037013,32.5888188 L37.001465,32.6279122 C37.0373013,33.632166 36.4465824,34.548564 35.4960081,34.9416666 C34.6438208,35.2578921 33.6802499,35.0731572 32.9734522,34.4479751 L32.9734522,34.4479751 L32.83645,34.3145442 C32.8132578,34.2946772 32.7695452,34.2938376 32.7391657,34.3177093 C32.230886,34.7166572 31.7699215,35.1728583 31.3674417,35.6748875 C31.3389808,35.7106761 31.3426197,35.7609196 31.3660224,35.7826893 C32.1277055,36.4652734 32.372386,37.5481306 31.9700958,38.5120018 C31.584019,39.3496173 30.7521267,39.9005764 29.7966066,39.939866 L29.7966066,39.939866 L29.6145052,39.9388536 C29.5887659,39.9402348 29.5600386,39.9681775 29.555134,40.0189227 C29.4811456,40.6539431 29.4815702,41.301527 29.5581238,41.9617235 C29.5573408,41.9529031 29.6155531,42.0024813 29.6733779,42.0082848 L29.6733779,42.0082848 L29.9000608,42.0169137 C30.8034139,42.0782611 31.5995979,42.6473477 31.9444172,43.4959488 C32.2941216,44.3622198 32.1081404,45.3506837 31.452624,46.0526798 L31.452624,46.0526798 L31.3392021,46.1642211 C31.309489,46.1912482 31.305696,46.2385168 31.3330903,46.2731673 C31.7275574,46.7752472 32.1787167,47.231308 32.6777837,47.6323316 C32.708078,47.6567364 32.7532357,47.6562126 32.7493124,47.6608494 L32.7493124,47.6608494 L32.8994109,47.513146 C33.5871346,46.8682082 34.5887268,46.673581 35.4956079,47.0208105 C36.4201224,47.4108124 37.0015137,48.3509935 36.9424472,49.3551855 C36.9400047,49.4006191 36.9719298,49.438821 37.0102814,49.4434677 C37.337997,49.4807393 37.6655659,49.4995559 37.9944336,49.5000163 C38.305539,49.5006106 38.6163873,49.4830291 38.9283277,49.4470368 C38.9408398,49.4456462 38.9526407,49.4411622 38.9628384,49.435753 L38.9628384,49.435753 L38.9976518,49.4095409 L38.9994877,49.3655972 C38.9617005,48.3630431 39.5516319,47.4463308 40.5025566,47.0524059 C41.3585771,46.736016 42.3266244,46.9276038 43.0276237,47.5607633 L43.0276237,47.5607633 L43.1546613,47.6860778 C43.1789631,47.7069247 43.2224736,47.7078357 43.2517931,47.6847974 C43.760247,47.2842272 44.221462,46.8277574 44.6274278,46.3232408 C44.6541601,46.2900816 44.6505848,46.2413758 44.6290302,46.2215645 C43.8783979,45.5599267 43.6190277,44.5064339 43.97862,43.5763777 C44.3373933,42.6484397 45.236609,42.0410846 46.2220268,42.0560017 L46.2220268,42.0560017 L46.3826378,42.0571897 C46.408497,42.0555718 46.4421849,42.0234483 46.4461638,41.9907384 C46.5178036,41.3470974 46.5179346,40.7002972 46.4467429,40.0605317 C46.445749,40.051776 46.3674349,39.990138 46.3025206,39.9900027 C45.3002924,40.0119279 44.394787,39.4124306 44.0291415,38.4836636 C43.6642935,37.5569221 43.9157336,36.5005446 44.6554304,35.8417131 C44.6886926,35.8115947 44.6926568,35.7641404 44.6652843,35.7297081 C44.2683663,35.2278829 43.8157845,34.7714693 43.3191674,34.3718077 C43.3112005,34.3654528 43.302393,34.3607299 43.2937074,34.3571642 L43.2937074,34.3571642 L43.2448147,34.343484 L43.0931715,34.4934015 C42.4067526,35.1365577 41.4055244,35.3291352 40.4987146,34.9794916 C39.6358065,34.6099847 39.0702672,33.7591971 39.0535146,32.7935657 L39.0535146,32.7935657 L39.0568043,32.633538 C39.0545445,32.5936723 39.0237897,32.5606223 38.985107,32.5559482 L38.985107,32.5559482 Z M29.8034541,10.5157437 C33.3014656,13.925198 37.4964905,15.5116414 43.0492803,15.5116414 C44.0484155,15.5116414 44.8351649,16.250813 44.9078278,17.2274553 L44.9133089,17.37567 L44.9138356,17.9410424 C44.9149556,18.4640329 44.9180551,18.8684838 44.9249312,19.2318464 L44.9286923,19.4104622 L44.9586867,20.2761207 C45.0647845,25.8727788 44.9394642,29.4098385 44.2391058,32.5957401 C43.9344158,32.434278 43.5994726,32.3534818 43.2654872,32.3525443 C43.8716596,29.5824987 44.0322638,26.5108052 43.9838814,21.9433448 L43.9770174,21.3829235 L43.9592922,20.3083015 C43.9408875,19.9033964 43.9295567,19.5432227 43.9227494,19.118912 L43.9184522,18.7869522 L43.9133089,17.37567 C43.9133089,16.8788628 43.5460875,16.5116414 43.0492803,16.5116414 C37.2440147,16.5116414 32.7969528,14.8298845 29.1165998,11.2423775 C28.7916866,10.9445404 28.3234531,10.9197206 27.9746531,11.1679182 L27.8826844,11.2423775 L27.5844286,11.527262 C24.1648077,14.7250926 20.0974159,16.3211433 14.9193562,16.4955521 L14.430645,16.5077434 L13.950004,16.5116414 C13.4914127,16.5116414 13.1432378,16.8245401 13.0923859,17.2634307 L13.0859754,17.37567 L13.0854416,17.9471208 C13.0841192,18.5639727 13.0800782,19.0179445 13.070489,19.4304403 L13.0660314,19.6050389 L13.0404171,20.2951197 L13.0209002,21.3991552 C12.9663849,24.8793451 13.0106978,26.9741362 13.2525981,29.1634211 L13.2885101,29.4769787 L13.3615431,30.0583552 C14.5002631,38.6528435 18.6713229,44.5276611 27.7022435,47.7842307 L28.143024,47.9397636 L28.5019069,48.0116926 L28.7909486,47.9574968 L29.3111713,47.7728911 L29.3111713,47.7728911 L29.82,47.582 L30.0052543,47.808856 C30.1703195,48.0035879 30.3428097,48.1924282 30.5222387,48.3748607 C30.1939736,48.5060517 29.8586477,48.6331215 29.5168283,48.7564516 L29.0523764,48.9203443 L28.5977002,49.0112796 L28.4015841,49.0112796 L27.8820121,48.9027548 C18.0992152,45.5303376 13.5743696,39.2781211 12.3702066,30.1897016 C12.0675525,27.9054204 11.9790514,25.931944 12.0039859,22.7876425 L12.0088509,22.2812279 L12.0375529,20.4359963 L12.0611883,19.7493396 C12.0680567,19.5380036 12.0731228,19.3249991 12.0768172,19.0916712 L12.0800704,18.8508779 L12.0859754,17.37567 C12.0859754,16.3265781 12.9009121,15.5116414 13.950004,15.5116414 C19.3394764,15.5116414 23.4498779,14.0171458 26.8853564,10.811853 L27.1958302,10.5157437 L27.2069598,10.5052234 C27.9437319,9.82984898 29.0555524,9.82984898 29.8034541,10.5157437 Z M38,36.5 C40.4852814,36.5 42.5,38.5147186 42.5,41 C42.5,43.4852814 40.4852814,45.5 38,45.5 C35.5147186,45.5 33.5,43.4852814 33.5,41 C33.5,38.5147186 35.5147186,36.5 38,36.5 Z M38,37.5 C36.0670034,37.5 34.5,39.0670034 34.5,41 C34.5,42.9329966 36.0670034,44.5 38,44.5 C39.9329966,44.5 41.5,42.9329966 41.5,41 C41.5,39.0670034 39.9329966,37.5 38,37.5 Z M37.1412057,24.6471529 C37.3137835,24.8217022 37.3315381,25.0912318 37.1954375,25.2853301 L37.1371897,25.3542483 L27.3455643,35.0352779 C27.1689207,35.2099264 26.8955146,35.2257409 26.7013284,35.0852115 L26.6325658,35.0251893 L22.6374488,30.8451358 C22.4466527,30.6455076 22.4538125,30.3290061 22.6534407,30.1382099 C22.830888,29.9686134 23.1006797,29.9554264 23.2924449,30.0947951 L23.3603666,30.1542018 L27.0039075,33.9656686 L36.4341104,24.6431369 C36.6304783,24.4489869 36.9470557,24.450785 37.1412057,24.6471529 Z"/>
  </g>
</svg>
