<svg xmlns="http://www.w3.org/2000/svg" width="43" height="26" viewBox="0 0 43 26">
  <defs>
    <linearGradient id="icon-17-8-a" x1="100%" x2="0%" y1="68.28%" y2="31.72%">
      <stop offset="0%" stop-color="#1E85E9"/>
      <stop offset="20.276%" stop-color="#8671F3"/>
      <stop offset="70.727%" stop-color="#C06CFD" stop-opacity=".99"/>
      <stop offset="100%" stop-color="#FFBEE8"/>
    </linearGradient>
  </defs>
  <path fill="url(#icon-17-8-a)" d="M1395.5,2695 C1403.34964,2695 1410.43516,2699.23531 1416.73531,2707.64661 L1416.73531,2707.64661 L1417,2708 L1416.73531,2708.35339 C1410.43516,2716.76469 1403.34964,2721 1395.5,2721 C1387.65036,2721 1380.56484,2716.76469 1374.26469,2708.35339 L1374.26469,2708.35339 L1374,2708 L1374.26469,2707.64661 C1380.56484,2699.23531 1387.65036,2695 1395.5,2695 Z M1395.5,2696.18182 C1388.35996,2696.18182 1381.84947,2699.9027 1375.94974,2707.39695 L1375.94974,2707.39695 L1375.48269,2708 L1375.94974,2708.60305 C1381.72656,2715.94117 1388.08895,2719.66151 1395.05457,2719.81334 L1395.05457,2719.81334 L1395.5,2719.81818 C1402.64004,2719.81818 1409.15053,2716.0973 1415.05026,2708.60305 L1415.05026,2708.60305 L1415.51613,2708 L1415.05026,2707.39695 C1409.27344,2700.05883 1402.91105,2696.33849 1395.94543,2696.18666 L1395.94543,2696.18666 Z M1395.5,2699.72727 C1400.08616,2699.72727 1403.80397,2703.4311 1403.80397,2708 C1403.80397,2712.5689 1400.08616,2716.27273 1395.5,2716.27273 C1390.91384,2716.27273 1387.19603,2712.5689 1387.19603,2708 C1387.19603,2703.4311 1390.91384,2699.72727 1395.5,2699.72727 Z M1395.5,2700.90909 C1391.56901,2700.90909 1388.38231,2704.0838 1388.38231,2708 C1388.38231,2711.9162 1391.56901,2715.09091 1395.5,2715.09091 C1399.43099,2715.09091 1402.61769,2711.9162 1402.61769,2708 C1402.61769,2704.0838 1399.43099,2700.90909 1395.5,2700.90909 Z M1395.5,2703.27273 C1398.12066,2703.27273 1400.24513,2705.3892 1400.24513,2708 C1400.24513,2710.6108 1398.12066,2712.72727 1395.5,2712.72727 C1392.87934,2712.72727 1390.75487,2710.6108 1390.75487,2708 C1390.75487,2705.3892 1392.87934,2703.27273 1395.5,2703.27273 Z M1395.5,2704.45455 C1393.5345,2704.45455 1391.94116,2706.0419 1391.94116,2708 C1391.94116,2709.9581 1393.5345,2711.54545 1395.5,2711.54545 C1397.4655,2711.54545 1399.05884,2709.9581 1399.05884,2708 C1399.05884,2706.0419 1397.4655,2704.45455 1395.5,2704.45455 Z" transform="translate(-1374 -2695)"/>
</svg>
