<svg xmlns="http://www.w3.org/2000/svg" xmlns:xlink="http://www.w3.org/1999/xlink" width="62" height="62" viewBox="0 0 62 62">
  <defs>
    <linearGradient id="ico-advantages-3-b" x1="100%" x2="0%" y1="100%" y2="0%">
      <stop offset="0%" stop-color="#1E85E9"/>
      <stop offset="20.276%" stop-color="#8671F3"/>
      <stop offset="70.727%" stop-color="#C06CFD" stop-opacity=".99"/>
      <stop offset="100%" stop-color="#FFBEE8"/>
    </linearGradient>
    <rect id="ico-advantages-3-a" width="60" height="60" x="0" y="0" rx="4"/>
    <linearGradient id="ico-advantages-3-c" x1="100%" x2="0%" y1="83.276%" y2="16.724%">
      <stop offset="0%" stop-color="#1E85E9"/>
      <stop offset="20.276%" stop-color="#8671F3"/>
      <stop offset="70.727%" stop-color="#C06CFD" stop-opacity=".99"/>
      <stop offset="100%" stop-color="#FFBEE8"/>
    </linearGradient>
  </defs>
  <g fill="none" fill-rule="evenodd" transform="translate(1 1)">
    <g opacity=".062">
      <use fill="#FAFAFA" xlink:href="#ico-advantages-3-a"/>
      <use fill="url(#ico-advantages-3-b)" stroke="#000" stroke-opacity=".02" xlink:href="#ico-advantages-3-a"/>
    </g>
    <path fill="url(#ico-advantages-3-c)" fill-rule="nonzero" d="M49,43.2285714 C49,44.2069044 48.2086893,45 47.2325581,45 L12.7674419,45 C11.7913107,45 11,44.2069044 11,43.2285714 L11,15.7714286 C11,14.7930956 11.7913107,14 12.7674419,14 L47.2325581,14 C48.2086893,14 49,14.7930956 49,15.7714286 L49,43.2285714 Z M48.116,23.117 L11.883,23.117 L11.8837209,43.2285714 C11.8837209,43.6827975 12.2248727,44.0571635 12.6643813,44.1083269 L12.7674419,44.1142857 L47.2325581,44.1142857 C47.6857619,44.1142857 48.0592854,43.7723644 48.1103336,43.3318644 L48.1162791,43.2285714 L48.116,23.117 Z M47.2325581,14.8857143 L12.7674419,14.8857143 C12.3142381,14.8857143 11.9407146,15.2276356 11.8896664,15.6681356 L11.8837209,15.7714286 L11.883,22.205 L48.116,22.205 L48.1162791,15.7714286 C48.1162791,15.3172025 47.7751273,14.9428365 47.3356187,14.8916731 L47.2325581,14.8857143 Z M15.5238095,16.7352941 C16.5231819,16.7352941 17.3333333,17.551716 17.3333333,18.5588235 C17.3333333,19.565931 16.5231819,20.3823529 15.5238095,20.3823529 C14.5244371,20.3823529 13.7142857,19.565931 13.7142857,18.5588235 C13.7142857,17.551716 14.5244371,16.7352941 15.5238095,16.7352941 Z M20.047619,16.7352941 C21.0469915,16.7352941 21.8571429,17.551716 21.8571429,18.5588235 C21.8571429,19.565931 21.0469915,20.3823529 20.047619,20.3823529 C19.0482466,20.3823529 18.2380952,19.565931 18.2380952,18.5588235 C18.2380952,17.551716 19.0482466,16.7352941 20.047619,16.7352941 Z M24.5714286,16.7352941 C25.570801,16.7352941 26.3809524,17.551716 26.3809524,18.5588235 C26.3809524,19.565931 25.570801,20.3823529 24.5714286,20.3823529 C23.5720562,20.3823529 22.7619048,19.565931 22.7619048,18.5588235 C22.7619048,17.551716 23.5720562,16.7352941 24.5714286,16.7352941 Z M15.5238095,17.6470588 C15.0241233,17.6470588 14.6190476,18.0552698 14.6190476,18.5588235 C14.6190476,19.0623773 15.0241233,19.4705882 15.5238095,19.4705882 C16.0234957,19.4705882 16.4285714,19.0623773 16.4285714,18.5588235 C16.4285714,18.0552698 16.0234957,17.6470588 15.5238095,17.6470588 Z M20.047619,17.6470588 C19.5479328,17.6470588 19.1428571,18.0552698 19.1428571,18.5588235 C19.1428571,19.0623773 19.5479328,19.4705882 20.047619,19.4705882 C20.5473052,19.4705882 20.952381,19.0623773 20.952381,18.5588235 C20.952381,18.0552698 20.5473052,17.6470588 20.047619,17.6470588 Z M24.5714286,17.6470588 C24.0717424,17.6470588 23.6666667,18.0552698 23.6666667,18.5588235 C23.6666667,19.0623773 24.0717424,19.4705882 24.5714286,19.4705882 C25.0711148,19.4705882 25.4761905,19.0623773 25.4761905,18.5588235 C25.4761905,18.0552698 25.0711148,17.6470588 24.5714286,17.6470588 Z"/>
  </g>
</svg>
