<svg xmlns="http://www.w3.org/2000/svg" width="31" height="35" viewBox="0 0 31 35">
  <defs>
    <linearGradient id="ico-cards-5-a" x1="89.224%" x2="10.776%" y1="100%" y2="0%">
      <stop offset="0%" stop-color="#1E85E9"/>
      <stop offset="20.276%" stop-color="#8671F3"/>
      <stop offset="70.727%" stop-color="#C06CFD" stop-opacity=".99"/>
      <stop offset="100%" stop-color="#FFBEE8"/>
    </linearGradient>
  </defs>
  <path fill="url(#ico-cards-5-a)" d="M50.6992861,17 C56.4803161,17 61.194015,21.3007551 61.3548378,26.6732265 L61.3590794,26.9569603 L61.359,31.505 L63.7688172,31.5057969 C64.9497218,31.5057969 65.9163504,32.4344081 65.9948526,33.609563 L66,33.7641862 L66,49.7416107 C66,50.9369149 65.0825757,51.9153304 63.9215777,51.9947898 L63.7688172,52 L37.2311828,52 C36.0502782,52 35.0836496,51.0713889 35.0051474,49.8962339 L35,49.7416107 L35,33.7641862 C35,32.568882 35.9174243,31.5904665 37.0784223,31.5110071 L37.2311828,31.5057969 L40.039,31.505 L40.0394928,26.9569603 C40.0394928,21.4529825 44.8168345,17 50.6992861,17 Z M63.5738209,32.5844392 L37.4261791,32.5844392 C36.7432257,32.5844392 36.1815007,33.1076417 36.1139529,33.7781074 L36.1071429,33.9140527 L36.1071429,49.5917443 C36.1071429,50.2801742 36.6261832,50.8464036 37.2913153,50.9144931 L37.4261791,50.9213577 L63.5738209,50.9213577 C64.2567743,50.9213577 64.8184993,50.3981552 64.8860471,49.7276895 L64.8928571,49.5917443 L64.8928571,33.9140527 C64.8928571,33.1797274 64.3023045,32.5844392 63.5738209,32.5844392 Z M50.5,36.3596871 C52.0286453,36.3596871 53.2678571,37.5669986 53.2678571,39.0562928 C53.2678571,39.7194695 53.020202,40.34431 52.5862602,40.8285894 L52.5862602,40.8285894 L52.5437857,40.8716477 L53.3895286,44.9888253 L47.6102548,44.9888253 L48.4562143,40.8727264 L48.4147068,40.829669 C48.0236301,40.3936932 47.7836147,39.8436217 47.7395223,39.2541428 L47.7395223,39.2541428 L47.7321429,39.0562928 C47.7321429,37.5669986 48.9713547,36.3596871 50.5,36.3596871 Z M50.5,37.4383294 C49.5828128,37.4383294 48.8392857,38.1627163 48.8392857,39.0562928 C48.8392857,39.5348432 49.0530389,39.9783737 49.4186838,40.2843436 L49.4186838,40.2843436 L49.6644095,40.4899657 L48.9610714,43.910183 L52.0389286,43.910183 L51.3368014,40.4892167 L51.5821246,40.2836667 C51.9472892,39.9777046 52.1607143,39.5344798 52.1607143,39.0562928 C52.1607143,38.1627163 51.4171872,37.4383294 50.5,37.4383294 Z M50.6992861,17.9668949 C45.4525284,17.9668949 41.1894887,21.8515755 41.0362036,26.6873465 L41.0319357,26.9569603 L41.031,31.505 L60.366,31.505 L60.3666365,26.9569603 C60.3666365,21.9967848 56.043206,17.9668949 50.6992861,17.9668949 Z" transform="translate(-35 -17)"/>
</svg>
