<?xml version="1.0" encoding="UTF-8"?>
<svg width="50px" height="49px" viewBox="0 0 50 49" version="1.1" xmlns="http://www.w3.org/2000/svg" xmlns:xlink="http://www.w3.org/1999/xlink">
    <title>icon-27-1</title>
    <defs>
        <linearGradient x1="100%" y1="98.020653%" x2="0%" y2="1.97934697%" id="linearGradient-1">
            <stop stop-color="#1E85E9" offset="0%"></stop>
            <stop stop-color="#8671F3" offset="20.275549%"></stop>
            <stop stop-color="#C06CFD" stop-opacity="0.99" offset="70.7268792%"></stop>
            <stop stop-color="#FFBEE8" offset="100%"></stop>
        </linearGradient>
    </defs>
    <g id="Page-1" stroke="none" stroke-width="1" fill="none" fill-rule="evenodd">
        <g id="icons" transform="translate(-382.000000, -4092.000000)" fill="url(#linearGradient-1)" fill-rule="nonzero">
            <path d="M418.946186,4111.92057 C419.403307,4111.4967 420.092545,4111.4967 420.549666,4111.92057 L420.549666,4111.92057 L420.832324,4112.19241 C423.47772,4114.67411 426.654343,4115.83657 430.794191,4115.83657 C431.443392,4115.83657 431.940368,4116.3393 431.940365,4116.98847 L431.940365,4116.98847 L431.944248,4118.06917 L431.95469,4118.66458 L431.975214,4119.23449 L431.98869,4120.06108 L431.998187,4121.03384 C431.99905,4121.19096 431.99966,4121.34564 431.99966,4121.49797 L431.99966,4121.49797 L431.995701,4122.38443 L431.982058,4123.21868 L431.958162,4124.00498 C431.953293,4124.13227 431.947973,4124.25774 431.94219,4124.38147 L431.94219,4124.38147 L431.901844,4125.10383 C431.740525,4127.56429 431.364591,4129.33925 430.663992,4131.25017 L430.663992,4131.25017 L430.558493,4131.53012 C428.834851,4135.98302 425.447946,4139.08006 420.060454,4140.95838 L420.060454,4140.95838 L419.84101,4141 L419.652225,4140.99881 L419.315528,4140.92593 C412.290393,4138.47251 408.705522,4133.9454 407.768434,4126.79084 L407.768434,4126.79084 L407.71258,4126.34098 L407.65878,4125.84901 L407.65878,4125.84901 L407.634917,4125.60338 L407.593075,4125.10804 L407.558825,4124.60084 L407.531863,4124.07408 L407.511887,4123.52006 L407.498592,4122.93108 L407.491674,4122.29945 L407.490831,4121.61748 L407.495759,4120.87745 L407.521225,4119.21439 L407.540528,4118.68889 L407.547113,4118.39783 L407.555484,4116.99024 C407.555484,4116.3393 408.052459,4115.83657 408.697639,4115.83659 L408.697639,4115.83659 L409.058469,4115.83365 C413.049702,4115.76769 416.131608,4114.5876 418.712435,4112.14628 L418.712435,4112.14628 Z M419.882989,4112.63925 C419.801904,4112.56407 419.693948,4112.56407 419.620174,4112.63233 L419.620174,4112.63233 L419.389985,4112.85471 C416.621699,4115.47339 413.303866,4116.74382 409.070592,4116.81376 L409.070592,4116.81376 L408.701661,4116.81677 C408.596499,4116.81677 408.535876,4116.87809 408.535876,4116.99075 L408.535876,4116.99075 L408.533473,4117.89887 L408.524135,4118.57216 L408.501213,4119.24092 L408.486411,4120.08783 L408.476143,4120.88207 L408.471226,4121.61056 L408.471944,4122.28091 L408.484217,4123.19407 C408.486357,4123.29017 408.488761,4123.38463 408.491436,4123.47763 L408.491436,4123.47763 L408.510783,4124.01923 L408.536912,4124.53313 L408.570109,4125.02694 L408.610662,4125.50829 C408.618049,4125.5879 408.625755,4125.6673 408.633786,4125.74666 L408.633786,4125.74666 L408.685908,4126.22357 L408.740941,4126.66682 C409.630135,4133.45562 412.968075,4137.67091 419.574598,4139.98293 L419.574598,4139.98293 L419.76274,4140.02085 L419.807243,4140.01425 C424.721667,4138.29562 427.850708,4135.51146 429.504466,4131.5251 L429.504466,4131.5251 L429.642611,4131.18046 L429.745014,4130.90873 C430.476946,4128.9123 430.838247,4127.06385 430.964969,4124.29571 L430.964969,4124.29571 L430.992795,4123.55202 C430.996575,4123.42436 430.999935,4123.29478 431.002885,4123.16321 L431.002885,4123.16321 L431.015754,4122.34903 C431.017108,4122.2091 431.018076,4122.06699 431.018667,4121.92262 L431.018667,4121.92262 L431.017786,4121.02848 C431.016046,4120.72091 431.012891,4120.40357 431.008409,4120.07577 L431.008409,4120.07577 L430.995381,4119.26448 C430.9918,4119.18479 430.988572,4119.10739 430.985662,4119.03097 L430.985662,4119.03097 L430.971758,4118.5735 L430.963884,4118.07586 L430.959976,4116.99024 C430.959976,4116.87809 430.899353,4116.81677 430.794191,4116.81677 C426.261785,4116.81677 422.761112,4115.47754 419.872116,4112.62886 L419.876,4112.632 Z M404.549017,4092 C416.782964,4092 426.741372,4101.74081 427.088664,4113.88832 C426.320553,4113.66946 425.585371,4113.39846 424.879257,4113.07498 L426.068321,4113.07462 C425.702947,4107.64788 423.329554,4102.77137 419.684797,4099.18159 L419.655857,4099.21156 C418.691774,4100.12495 417.054786,4100.9077 414.963194,4101.50553 C415.125214,4101.91188 415.280077,4102.32847 415.427247,4102.75448 L415.642166,4103.40047 L415.846746,4104.06532 C416.526148,4106.36469 416.987733,4108.89706 417.185395,4111.57508 C416.877701,4111.79811 416.564634,4112.00712 416.245434,4112.20369 L416.242155,4112.16253 L416.187268,4111.38494 C416.103999,4110.35407 415.980647,4109.3473 415.820312,4108.36992 L415.693175,4107.64248 L415.55246,4106.92656 L415.477102,4106.57308 L415.398458,4106.22266 L415.23146,4105.53126 L415.187714,4105.36043 L415.143178,4105.19041 L414.95723,4104.51872 L414.759012,4103.86078 C414.530233,4103.13173 414.278912,4102.42949 414.006887,4101.75721 L413.826945,4101.80154 C411.322083,4102.395 408.29815,4102.74618 405.058883,4102.77955 L405.058,4113.074 L414.615134,4113.07513 C413.695171,4113.49662 412.726262,4113.8289 411.701603,4114.07466 L405.058,4114.074 L405.058883,4126.51403 C405.479153,4126.51836 405.895799,4126.52803 406.308157,4126.5429 L406.339848,4126.8037 C406.371761,4127.04855 406.406363,4127.29095 406.443705,4127.5309 C406.084797,4127.51507 405.720831,4127.50463 405.353801,4127.49841 L405.058,4127.495 L405.058867,4136.08861 C406.364206,4135.98466 407.619467,4135.48366 408.787733,4134.64867 C408.94812,4134.93537 409.117725,4135.21609 409.2954,4135.49107 L409.096407,4135.6287 L409.348167,4135.5722 C409.541282,4135.8672 409.743784,4136.15554 409.955908,4136.43724 C408.224357,4136.86293 406.413102,4137.08908 404.549017,4137.08908 C392.095539,4137.08908 382,4126.99555 382,4114.54454 C382,4102.09353 392.095539,4092 404.549017,4092 Z M404.057676,4127.49416 C403.010703,4127.50501 401.987284,4127.55031 400.999101,4127.62651 L400.264753,4127.6894 L399.528525,4127.76536 L399.166389,4127.80764 L398.808434,4127.85273 L398.105654,4127.95116 L397.421356,4128.0603 L397.253306,4128.08921 L397.086503,4128.11877 L396.432124,4128.24329 L395.799156,4128.37762 L395.567494,4128.43298 C397.638513,4132.91551 400.681524,4135.83127 404.058185,4136.0901 L404.057676,4127.49416 Z M394.60048,4128.67639 L394.530537,4128.69403 C392.605441,4129.22787 391.107468,4129.9099 390.238412,4130.67877 C392.96431,4133.09754 396.307476,4134.83616 400.00185,4135.62879 C397.858723,4134.19287 396.00225,4131.76918 394.60048,4128.67639 Z M427.726666,4120.56996 C427.89586,4120.74106 427.913267,4121.00525 427.779835,4121.1955 L427.722729,4121.26306 L418.123097,4130.75238 C417.949917,4130.92357 417.681872,4130.93907 417.491494,4130.80132 L417.424079,4130.74249 L413.507299,4126.64521 C413.320244,4126.44953 413.327263,4126.1393 413.522977,4125.95228 C413.696945,4125.78604 413.961446,4125.77312 414.149451,4125.90973 L414.216041,4125.96796 L417.78814,4129.70395 L427.033436,4120.56603 C427.225953,4120.37572 427.536323,4120.37748 427.726666,4120.56996 Z M391.80662,4114.07401 L382.98541,4114.07471 C382.98207,4114.23092 382.980392,4114.38753 382.980392,4114.54454 C382.980392,4120.6119 385.486651,4126.09402 389.520574,4130.01248 C390.503563,4129.11848 392.136849,4128.35272 394.209777,4127.76739 C394.005718,4127.26778 393.813085,4126.75248 393.632464,4126.2229 L393.455867,4125.68861 L393.251288,4125.02376 C392.325287,4121.8898 391.80392,4118.32302 391.80392,4114.54454 C391.80392,4114.38733 391.804823,4114.23048 391.80662,4114.07401 Z M404.058,4114.074 L392.789,4114.074 L392.784312,4114.54454 C392.784312,4115.08142 392.795108,4115.61361 392.816313,4116.14043 L392.855878,4116.92655 L392.910765,4117.70414 C392.994034,4118.73501 393.117386,4119.74178 393.277721,4120.71916 L393.404858,4121.4466 L393.545573,4122.16252 L393.620931,4122.516 L393.699575,4122.86642 L393.866573,4123.55782 L393.91032,4123.72865 L393.954855,4123.89867 L394.140804,4124.57036 L394.339021,4125.2283 C394.589056,4126.02509 394.866015,4126.78984 395.1675,4127.51847 C396.249257,4127.25671 397.429848,4127.0413 398.68433,4126.87773 L399.317612,4126.80029 L400.085442,4126.7197 C401.270468,4126.60621 402.50892,4126.53722 403.782158,4126.51738 L404.058,4126.515 L404.058,4114.074 Z M389.413069,4099.18159 L389.297696,4099.29625 C385.71836,4102.87487 383.391211,4107.70544 383.029712,4113.07462 L391.830364,4113.07473 C391.938741,4110.07229 392.37692,4107.22664 393.083495,4104.65409 L393.251288,4104.06532 L393.455867,4103.40047 C393.664997,4102.74726 393.892057,4102.11435 394.135923,4101.50387 C392.021898,4100.90081 390.372609,4100.10762 389.413069,4099.18159 Z M395.090548,4101.75759 L395.084628,4101.77334 C394.882486,4102.27387 394.691813,4102.79098 394.513366,4103.32336 L394.339021,4103.86078 L394.140804,4104.51872 L393.954855,4105.19041 L393.91032,4105.36043 L393.866573,4105.53126 L393.699575,4106.22266 L393.620931,4106.57308 L393.545573,4106.92656 L393.404858,4107.64248 C393.226225,4108.60483 393.0838,4109.5979 392.980684,4110.61639 L392.910765,4111.38494 L392.855878,4112.16253 C392.837619,4112.46453 392.822789,4112.76845 392.811462,4113.07416 L404.058,4113.074 L404.058,4102.778 L403.782158,4102.7762 C402.50892,4102.75636 401.270468,4102.68737 400.085442,4102.57388 L399.317612,4102.49329 C397.795774,4102.31933 396.372751,4102.07061 395.090548,4101.75759 Z M404.058185,4092.99898 C400.635208,4093.26136 397.555097,4096.25406 395.482823,4100.84144 L395.799156,4100.91596 L396.432124,4101.05029 L397.086503,4101.17481 C397.197286,4101.19473 397.308911,4101.21422 397.421356,4101.23328 L398.105654,4101.34242 L398.808434,4101.44085 C399.045645,4101.47183 399.28574,4101.50098 399.528525,4101.52822 L400.264753,4101.60418 C401.477046,4101.71846 402.74896,4101.78586 404.057676,4101.79942 L404.058185,4092.99898 Z M405.058867,4093.00047 L405.058,4101.797 L405.353801,4101.79517 C406.685518,4101.77261 407.976892,4101.69437 409.203543,4101.56786 L409.931572,4101.48622 L410.642898,4101.39335 L411.33635,4101.28961 C411.45037,4101.27144 411.563598,4101.25282 411.676007,4101.23378 L412.340454,4101.1144 C412.780613,4101.03068 413.20665,4100.94019 413.616963,4100.8434 C411.547665,4096.26343 408.474728,4093.27249 405.058867,4093.00047 Z M400.004627,4093.45837 L399.698895,4093.52759 C396.073992,4094.36038 392.797894,4096.10649 390.125911,4098.51065 C390.972682,4099.32077 392.513157,4100.03895 394.518379,4100.59618 C395.929923,4097.41424 397.818271,4094.92219 400.004627,4093.45837 Z M409.093176,4093.45965 L409.225125,4093.54805 C411.355622,4095.02283 413.196538,4097.47831 414.579798,4100.5961 C416.585929,4100.03942 418.126867,4099.32119 418.974279,4098.51145 C416.225986,4096.03946 412.840166,4094.263 409.093176,4093.45965 Z" id="icon-27-1"></path>
        </g>
    </g>
</svg>