<svg xmlns="http://www.w3.org/2000/svg" width="34" height="32" viewBox="0 0 34 32">
  <defs>
    <linearGradient id="icon-19-8-a" x1="100%" x2="0%" y1="94.51%" y2="5.49%">
      <stop offset="0%" stop-color="#1E85E9"/>
      <stop offset="20.276%" stop-color="#8671F3"/>
      <stop offset="70.727%" stop-color="#C06CFD" stop-opacity=".99"/>
      <stop offset="100%" stop-color="#FFBEE8"/>
    </linearGradient>
  </defs>
  <path fill="url(#icon-19-8-a)" d="M1397.5,2973 C1398.32843,2973 1399,2973.67157 1399,2974.5 L1399,2974.5 L1399,2977.5 L1409.39757,2977.5 C1410.17726,2977.5 1410.81802,2978.09489 1410.8907,2978.85554 L1410.89757,2979 L1410.89757,3003.48267 C1410.89757,3004.26236 1410.30268,3004.90311 1409.54203,3004.9758 L1409.39757,3004.98267 L1389.81519,3004.98267 C1389.03549,3004.98267 1388.39474,3004.38778 1388.32205,3003.62713 L1388.31519,3003.48267 L1388.315,2999.999 L1378.5,3000 C1377.7203,3000 1377.07955,2999.40511 1377.00687,2998.64446 L1377,2998.5 L1377,2979.29145 L1383.35366,2973 Z M1409.39757,2978.5 L1399,2978.5 L1398.9997,2987.97346 C1399.01839,2987.96771 1399.03755,2987.96302 1399.0571,2987.95947 L1399.14697,2987.95142 L1407.14697,2987.95142 C1407.42312,2987.95142 1407.64697,2988.17527 1407.64697,2988.45142 C1407.64697,2988.69688 1407.4701,2988.90102 1407.23685,2988.94336 L1407.14697,2988.95142 L1399.14697,2988.95142 C1399.09571,2988.95142 1399.04626,2988.9437 1398.9997,2988.92937 L1398.9997,2992.02204 C1399.01839,2992.01629 1399.03755,2992.0116 1399.0571,2992.00806 L1399.14697,2992 L1407.14697,2992 C1407.42312,2992 1407.64697,2992.22386 1407.64697,2992.5 C1407.64697,2992.74546 1407.4701,2992.94961 1407.23685,2992.99194 L1407.14697,2993 L1399.14697,2993 C1399.09571,2993 1399.04626,2992.99229 1398.9997,2992.97796 L1398.9997,2996.02204 C1399.01839,2996.01629 1399.03755,2996.0116 1399.0571,2996.00806 L1399.14697,2996 L1407.14697,2996 C1407.42312,2996 1407.64697,2996.22386 1407.64697,2996.5 C1407.64697,2996.74546 1407.4701,2996.94961 1407.23685,2996.99194 L1407.14697,2997 L1399.14697,2997 C1399.09571,2997 1399.04626,2996.99229 1398.9997,2996.97796 L1399,2998.5 C1399,2999.32843 1398.32843,3000 1397.5,3000 L1397.5,3000 L1389.315,2999.999 L1389.31519,3003.48267 C1389.31519,3003.72813 1389.49206,3003.93227 1389.72531,3003.97461 L1389.81519,3003.98267 L1409.39757,3003.98267 C1409.64303,3003.98267 1409.84718,3003.80579 1409.88951,3003.57254 L1409.89757,3003.48267 L1409.89757,2979 C1409.89757,2978.75454 1409.72069,2978.55039 1409.48744,2978.50806 L1409.39757,2978.5 Z M1384,2973.998 L1384,2978.5 C1384,2979.2797 1383.40511,2979.92045 1382.64446,2979.99313 L1382.5,2980 L1378,2980 L1378,2998.5 C1378,2998.71478 1378.13542,2998.89793 1378.32553,2998.96872 L1378.41012,2998.99194 L1378.5,2999 L1397.5,2999 C1397.77614,2999 1398,2998.77614 1398,2998.5 L1398,2998.5 L1398,2974.5 C1398,2974.22386 1397.77614,2974 1397.5,2974 L1397.5,2974 L1384,2973.998 Z M1389.45898,2995 C1389.73513,2995 1389.95898,2995.22386 1389.95898,2995.5 C1389.95898,2995.74546 1389.78211,2995.94961 1389.54886,2995.99194 L1389.45898,2996 L1380.5,2996 C1380.22386,2996 1380,2995.77614 1380,2995.5 C1380,2995.25454 1380.17688,2995.05039 1380.41012,2995.00806 L1380.5,2995 L1389.45898,2995 Z M1395.55811,2991 C1395.83425,2991 1396.05811,2991.22386 1396.05811,2991.5 C1396.05811,2991.74546 1395.88123,2991.94961 1395.64798,2991.99194 L1395.55811,2992 L1380.5,2992 C1380.22386,2992 1380,2991.77614 1380,2991.5 C1380,2991.25454 1380.17688,2991.05039 1380.41012,2991.00806 L1380.5,2991 L1395.55811,2991 Z M1395.55811,2987 C1395.83425,2987 1396.05811,2987.22386 1396.05811,2987.5 C1396.05811,2987.74546 1395.88123,2987.94961 1395.64798,2987.99194 L1395.55811,2988 L1380.5,2988 C1380.22386,2988 1380,2987.77614 1380,2987.5 C1380,2987.25454 1380.17688,2987.05039 1380.41012,2987.00806 L1380.5,2987 L1395.55811,2987 Z M1395.55811,2982.95661 C1395.83425,2982.95661 1396.05811,2983.18046 1396.05811,2983.45661 C1396.05811,2983.70207 1395.88123,2983.90621 1395.64798,2983.94855 L1395.55811,2983.95661 L1380.5,2983.95661 C1380.22386,2983.95661 1380,2983.73275 1380,2983.45661 C1380,2983.21115 1380.17688,2983.007 1380.41012,2982.96466 L1380.5,2982.95661 L1395.55811,2982.95661 Z M1383,2974.755 L1378.713,2979 L1382.5,2979 C1382.74546,2979 1382.94961,2978.82312 1382.99194,2978.58988 L1383,2978.5 L1383,2974.755 Z" transform="translate(-1377 -2973)"/>
</svg>
