<svg xmlns="http://www.w3.org/2000/svg" width="41" height="33" viewBox="0 0 41 33">
  <defs>
    <linearGradient id="icon-25-3-a" x1="100%" x2="0%" y1="82.391%" y2="17.609%">
      <stop offset="0%" stop-color="#1E85E9"/>
      <stop offset="20.276%" stop-color="#8671F3"/>
      <stop offset="70.727%" stop-color="#C06CFD" stop-opacity=".99"/>
      <stop offset="100%" stop-color="#FFBEE8"/>
    </linearGradient>
  </defs>
  <path fill="url(#icon-25-3-a)" d="M702.476562,3844 L702.477041,3843.98631 C702.439604,3843.99526 702.400531,3844 702.360352,3844 C702.084209,3844 701.860352,3843.77614 701.860352,3843.5 L701.860352,3843.5 L701.860352,3830.5 L701.868407,3830.41012 C701.910743,3830.17688 702.114892,3830 702.360352,3830 L702.360352,3830 L704.911131,3830.00097 C704.168265,3823.77581 698.866238,3819 692.5,3819 C686.134991,3819 680.832239,3823.77445 680.08895,3830.00031 L682.639648,3830 L682.639648,3830 C682.885108,3830 683.089257,3830.17688 683.131593,3830.41012 L683.139648,3830.5 L683.139648,3843.5 C683.139648,3843.77614 682.915791,3844 682.639648,3844 C682.599469,3844 682.560396,3843.99526 682.522959,3843.98631 L682.523438,3844 L679,3844 C675.134007,3844 672,3840.86599 672,3837 C672,3833.21455 675.004783,3830.1309 678.75935,3830.00406 L679,3830 L679.08241,3829.99991 C679.831665,3823.21691 685.585257,3818 692.5,3818 C699.416113,3818 705.168936,3823.21846 705.91768,3830.0007 L706,3830 L706.24065,3830.00406 C709.995217,3830.1309 713,3833.21455 713,3837 C713,3840.86599 709.865993,3844 706,3844 L706,3844 C706,3846.68875 703.877693,3848.88182 701.21689,3848.99538 L701,3849 L696.949903,3849.00043 C696.7181,3850.14134 695.709325,3851 694.5,3851 L694.5,3851 L690.5,3851 C689.119288,3851 688,3849.88071 688,3848.5 C688,3847.11929 689.119288,3846 690.5,3846 L690.5,3846 L694.5,3846 C695.709682,3846 696.718694,3846.85917 696.950107,3848.00057 L701,3848 C703.209139,3848 705,3846.20914 705,3844 L702.476562,3844 Z M694.5,3847 L690.5,3847 C689.671573,3847 689,3847.67157 689,3848.5 C689,3849.32843 689.671573,3850 690.5,3850 L690.5,3850 L694.5,3850 C695.328427,3850 696,3849.32843 696,3848.5 C696,3847.67157 695.328427,3847 694.5,3847 L694.5,3847 Z M706,3831 L702.86,3831 L702.86,3843 L706,3843 L706.224938,3842.99586 C709.434425,3842.87757 712,3840.2384 712,3837 C712,3833.68629 709.313708,3831 706,3831 L706,3831 Z M682.139,3831 L679,3831 C675.686292,3831 673,3833.68629 673,3837 C673,3840.2384 675.565575,3842.87757 678.775062,3842.99586 L679,3843 L682.139,3843 L682.139,3831 Z" transform="translate(-672 -3818)"/>
</svg>
