<svg xmlns="http://www.w3.org/2000/svg" width="44" height="46" viewBox="0 0 44 46">
  <defs>
    <linearGradient id="icon-24-8-a" x1="97.409%" x2="2.591%" y1="100%" y2="0%">
      <stop offset="0%" stop-color="#1E85E9"/>
      <stop offset="20.276%" stop-color="#8671F3"/>
      <stop offset="70.727%" stop-color="#C06CFD" stop-opacity=".99"/>
      <stop offset="100%" stop-color="#FFBEE8"/>
    </linearGradient>
  </defs>
  <path fill="url(#icon-24-8-a)" d="M1394.51163,3671 C1394.76279,3671 1394.97169,3671.15728 1395.01501,3671.36468 L1395.02325,3671.4446 L1395.023,3678.618 L1407.781,3685.64 L1415.33933,3681.44028 C1415.55395,3681.321 1415.82464,3681.39828 1415.94393,3681.6129 C1416.04996,3681.80368 1416.00068,3682.03875 1415.83768,3682.17242 L1415.77131,3682.2175 L1408.227,3686.41 L1408.227,3701.007 L1415.77565,3705.31396 C1415.98892,3705.43565 1416.06317,3705.70719 1415.94149,3705.92046 C1415.83332,3706.11004 1415.60676,3706.18977 1415.40795,3706.11968 L1415.33499,3706.0863 L1407.788,3701.78 L1395.023,3709.457 L1395.02325,3715.74186 C1395.02325,3715.9874 1394.79419,3716.18646 1394.51163,3716.18646 C1394.26046,3716.18646 1394.05156,3716.02918 1394.00824,3715.82177 L1394,3715.74186 L1393.999,3709.501 L1381.45204,3701.99007 C1381.43634,3702.00944 1381.41887,3702.02765 1381.39968,3702.04442 L1381.33477,3702.09158 L1372.67287,3707.27179 C1372.46214,3707.39782 1372.18914,3707.32915 1372.06311,3707.11842 C1371.95108,3706.9311 1371.99289,3706.69458 1372.15157,3706.55582 L1372.21648,3706.50865 L1380.69618,3701.43642 C1380.68135,3701.40085 1380.67109,3701.36322 1380.6659,3701.32441 L1380.66198,3701.26541 L1380.661,3686.407 L1372.22469,3681.6035 C1372.01131,3681.482 1371.93682,3681.21053 1372.05831,3680.99715 C1372.16631,3680.80748 1372.3928,3680.72754 1372.59167,3680.79745 L1372.66466,3680.83077 L1381.11,3685.639 L1393.999,3678.544 L1394,3671.4446 C1394,3671.19905 1394.22906,3671 1394.51163,3671 Z M1381.55118,3686.93149 L1381.55118,3701.01288 L1393.999,3708.464 L1393.999,3694.353 L1381.55118,3686.93149 Z M1395.023,3708.418 L1407.33802,3701.01377 L1407.33802,3686.93682 L1395.023,3694.372 L1395.023,3708.418 Z M1394.4446,3679.31459 L1382,3686.164 L1394.52641,3693.63251 L1406.892,3686.166 L1394.4446,3679.31459 Z" transform="translate(-1372 -3671)"/>
</svg>
