<svg xmlns="http://www.w3.org/2000/svg" xmlns:xlink="http://www.w3.org/1999/xlink" width="62" height="62" viewBox="0 0 62 62">
  <defs>
    <linearGradient id="icon-8-3-b" x1="100%" x2="0%" y1="100%" y2="0%">
      <stop offset="0%" stop-color="#1E85E9"/>
      <stop offset="20.276%" stop-color="#8671F3"/>
      <stop offset="70.727%" stop-color="#C06CFD" stop-opacity=".99"/>
      <stop offset="100%" stop-color="#FFBEE8"/>
    </linearGradient>
    <rect id="icon-8-3-a" width="60" height="60" x="0" y="0" rx="4"/>
    <linearGradient id="icon-8-3-c" x1="100%" x2="0%" y1="82.391%" y2="17.609%">
      <stop offset="0%" stop-color="#1E85E9"/>
      <stop offset="20.276%" stop-color="#8671F3"/>
      <stop offset="70.727%" stop-color="#C06CFD" stop-opacity=".99"/>
      <stop offset="100%" stop-color="#FFBEE8"/>
    </linearGradient>
  </defs>
  <g fill="none" fill-rule="evenodd" transform="translate(1 1)">
    <g opacity=".062">
      <use fill="#FAFAFA" xlink:href="#icon-8-3-a"/>
      <use fill="url(#icon-8-3-b)" stroke="#000" stroke-opacity=".02" xlink:href="#icon-8-3-a"/>
    </g>
    <path fill="url(#icon-8-3-c)" fill-rule="nonzero" d="M40.4765625,39 L40.4770406,38.9863106 C40.4396035,38.9952607 40.400531,39 40.3603516,39 C40.0842092,39 39.8603516,38.7761424 39.8603516,38.5 L39.8603516,38.5 L39.8603516,25.5 L39.8684072,25.4101244 C39.9107432,25.1768752 40.1148917,25 40.3603516,25 L40.3603516,25 L42.9111315,25.0009686 C42.1682645,18.7758134 36.8662385,14 30.5,14 C24.134991,14 18.8322392,18.7744523 18.0889496,25.0003087 L20.6396484,25 L20.6396484,25 C20.8851083,25 21.0892568,25.1768752 21.1315928,25.4101244 L21.1396484,25.5 L21.1396484,38.5 C21.1396484,38.7761424 20.9157908,39 20.6396484,39 C20.599469,39 20.5603965,38.9952607 20.5229594,38.9863106 L20.5234375,39 L17,39 C13.1340068,39 10,35.8659932 10,32 C10,28.2145483 13.0047834,25.1309013 16.7593502,25.004059 L17,25 L17.0824104,24.9999131 C17.8316649,18.2169143 23.5852566,13 30.5,13 C37.4161131,13 43.1689359,18.2184641 43.9176799,25.0006989 L44,25 L44.2406498,25.004059 C47.9952166,25.1309013 51,28.2145483 51,32 C51,35.8659932 47.8659932,39 44,39 L44,39 C44,41.6887547 41.8776933,43.8818181 39.2168896,43.9953805 L39,44 L34.9499027,44.0004345 C34.7180997,45.1413382 33.7093254,46 32.5,46 L32.5,46 L28.5,46 C27.1192881,46 26,44.8807119 26,43.5 C26,42.1192881 27.1192881,41 28.5,41 L28.5,41 L32.5,41 C33.7096818,41 34.7186941,41.8591679 34.9501074,43.000574 L39,43 C41.209139,43 43,41.209139 43,39 L40.4765625,39 Z M32.5,42 L28.5,42 C27.6715729,42 27,42.6715729 27,43.5 C27,44.3284271 27.6715729,45 28.5,45 L28.5,45 L32.5,45 C33.3284271,45 34,44.3284271 34,43.5 C34,42.6715729 33.3284271,42 32.5,42 L32.5,42 Z M44,26 L40.86,26 L40.86,38 L44,38 L44.2249383,37.9958615 C47.4344251,37.8775718 50,35.2383969 50,32 C50,28.6862915 47.3137085,26 44,26 L44,26 Z M20.139,26 L17,26 C13.6862915,26 11,28.6862915 11,32 C11,35.2383969 13.5655749,37.8775718 16.7750617,37.9958615 L17,38 L20.139,38 L20.139,26 Z"/>
  </g>
</svg>
