<svg xmlns="http://www.w3.org/2000/svg" width="40" height="40" viewBox="0 0 40 40">
  <defs>
    <linearGradient id="icon-24-5-a" x1="100%" x2="0%" y1="100%" y2="0%">
      <stop offset="0%" stop-color="#1E85E9"/>
      <stop offset="20.276%" stop-color="#8671F3"/>
      <stop offset="70.727%" stop-color="#C06CFD" stop-opacity=".99"/>
      <stop offset="100%" stop-color="#FFBEE8"/>
    </linearGradient>
  </defs>
  <path fill="url(#icon-24-5-a)" d="M974,3704 C976.761424,3704 979,3706.23858 979,3709 C979,3711.76142 976.761424,3714 974,3714 C971.238576,3714 969,3711.76142 969,3709 C969,3706.23858 971.238576,3704 974,3704 Z M959,3704 C961.761424,3704 964,3706.23858 964,3709 C964,3711.76142 961.761424,3714 959,3714 C956.238576,3714 954,3711.76142 954,3709 C954,3706.23858 956.238576,3704 959,3704 Z M989,3704 C991.761424,3704 994,3706.23858 994,3709 C994,3711.76142 991.761424,3714 989,3714 C986.238576,3714 984,3711.76142 984,3709 C984,3706.23858 986.238576,3704 989,3704 Z M974,3705 C971.790861,3705 970,3706.79086 970,3709 C970,3711.20914 971.790861,3713 974,3713 C976.209139,3713 978,3711.20914 978,3709 C978,3706.79086 976.209139,3705 974,3705 Z M959,3705 C956.790861,3705 955,3706.79086 955,3709 C955,3711.20914 956.790861,3713 959,3713 C961.209139,3713 963,3711.20914 963,3709 C963,3706.79086 961.209139,3705 959,3705 Z M989,3705 C986.790861,3705 985,3706.79086 985,3709 C985,3711.20914 986.790861,3713 989,3713 C991.209139,3713 993,3711.20914 993,3709 C993,3706.79086 991.209139,3705 989,3705 Z M974,3685.06439 C974.24546,3685.06439 974.449608,3685.24126 974.491944,3685.47451 L974.5,3685.56439 L974.5,3693.5 L989,3693.5 C989.24546,3693.5 989.449608,3693.67688 989.491944,3693.91012 L989.5,3694 L989.5,3701.81747 C989.5,3702.09361 989.276142,3702.31747 989,3702.31747 C988.75454,3702.31747 988.550392,3702.14059 988.508056,3701.90734 L988.5,3701.81747 L988.5,3694.5 L974.5,3694.5 L974.5,3701.81747 C974.5,3702.09361 974.276142,3702.31747 974,3702.31747 C973.75454,3702.31747 973.550392,3702.14059 973.508056,3701.90734 L973.5,3701.81747 L973.5,3694.5 L959.5,3694.5 L959.5,3701.81747 C959.5,3702.06293 959.323125,3702.26708 959.089876,3702.30941 L959,3702.31747 C958.75454,3702.31747 958.550392,3702.14059 958.508056,3701.90734 L958.5,3701.81747 L958.5,3694 C958.5,3693.75454 958.676875,3693.55039 958.910124,3693.50806 L959,3693.5 L973.5,3693.5 L973.5,3685.56439 C973.5,3685.28824 973.723858,3685.06439 974,3685.06439 Z M982,3674 C982.552285,3674 983,3674.44772 983,3675 L983,3683 C983,3683.55228 982.552285,3684 982,3684 L966,3684 C965.447715,3684 965,3683.55228 965,3683 L965,3675 C965,3674.44772 965.447715,3674 966,3674 L982,3674 Z M982,3675 L966,3675 L966,3683 L982,3683 L982,3675 Z" transform="translate(-954 -3674)"/>
</svg>
