<svg xmlns="http://www.w3.org/2000/svg" width="43" height="42" viewBox="0 0 43 42">
  <defs>
    <linearGradient id="icon-15-7-a" x1="100%" x2="0%" y1="97.701%" y2="2.299%">
      <stop offset="0%" stop-color="#1E85E9"/>
      <stop offset="20.276%" stop-color="#8671F3"/>
      <stop offset="70.727%" stop-color="#C06CFD" stop-opacity=".99"/>
      <stop offset="100%" stop-color="#FFBEE8"/>
    </linearGradient>
  </defs>
  <path fill="url(#icon-15-7-a)" d="M1248.35732,2445.71279 L1247.20534,2445.99167 L1246.133,2441.486 L1241.8115,2441.4869 C1240.87103,2441.4869 1240.09973,2440.76887 1240.02495,2439.85561 L1240.01901,2439.70987 L1240.019,2436.196 L1235.27888,2437.32414 L1235,2436.17216 L1239.97915,2434.98748 L1240.019,2435.152 L1240.019,2429.088 L1235.27888,2430.21601 L1235,2429.06404 L1239.97915,2427.87935 L1240.019,2428.044 L1240.019,2421.98 L1235.27888,2423.10789 L1235,2421.95591 L1239.97915,2420.77123 L1240.019,2420.936 L1240.019,2414.872 L1235.27888,2415.99976 L1235,2414.84779 L1239.97915,2413.6631 L1240.019,2413.828 L1240.01901,2410.09268 C1240.01901,2409.16033 1240.74329,2408.39568 1241.66449,2408.32154 L1241.8115,2408.31565 L1245.784,2408.315 L1244.82566,2404.28721 L1245.97763,2404.00833 L1247.002,2408.315 L1252.954,2408.315 L1251.99564,2404.28721 L1253.14761,2404.00833 L1254.172,2408.315 L1260.124,2408.315 L1259.16562,2404.28721 L1260.31759,2404.00833 L1261.342,2408.315 L1267.294,2408.315 L1266.33559,2404.28721 L1267.48757,2404.00833 L1268.512,2408.315 L1271.68641,2408.31565 C1272.62688,2408.31565 1273.39819,2409.03368 1273.47296,2409.94694 L1273.47891,2410.09268 L1273.478,2414.672 L1277.72112,2413.6631 L1278,2414.81508 L1273.478,2415.89 L1273.478,2421.78 L1277.72112,2420.77123 L1278,2421.9232 L1273.478,2422.998 L1273.478,2428.889 L1277.72112,2427.87935 L1278,2429.03133 L1273.478,2430.107 L1273.478,2435.997 L1277.72112,2434.98748 L1278,2436.13945 L1273.478,2437.215 L1273.47891,2439.70987 C1273.47891,2440.64223 1272.75463,2441.40688 1271.83342,2441.48101 L1271.68641,2441.4869 L1268.861,2441.486 L1269.86725,2445.71279 L1268.71528,2445.99167 L1267.643,2441.486 L1261.691,2441.486 L1262.69727,2445.71279 L1261.5453,2445.99167 L1260.473,2441.486 L1254.521,2441.486 L1255.5273,2445.71279 L1254.37532,2445.99167 L1253.303,2441.486 L1247.351,2441.486 L1248.35732,2445.71279 Z M1271.68641,2409.50034 L1241.8115,2409.50034 C1241.48151,2409.50034 1241.214,2409.76554 1241.214,2410.09268 L1241.214,2410.09268 L1241.214,2439.70987 C1241.214,2440.03701 1241.48151,2440.30221 1241.8115,2440.30221 L1241.8115,2440.30221 L1271.68641,2440.30221 C1272.0164,2440.30221 1272.28391,2440.03701 1272.28391,2439.70987 L1272.28391,2439.70987 L1272.28391,2410.09268 C1272.28391,2409.76554 1272.0164,2409.50034 1271.68641,2409.50034 L1271.68641,2409.50034 Z M1266.30893,2416.01612 L1266.30893,2433.78643 L1247.18899,2433.78643 L1247.18899,2416.01612 L1266.30893,2416.01612 Z M1265.11353,2417.20081 L1248.38358,2417.20081 L1248.38358,2432.60174 L1265.11353,2432.60174 L1265.11353,2417.20081 Z M1256.74896,2422.5319 C1258.06891,2422.5319 1259.13895,2423.59271 1259.13895,2424.90128 C1259.13895,2426.20985 1258.06891,2427.27065 1256.74896,2427.27065 C1255.429,2427.27065 1254.35896,2426.20985 1254.35896,2424.90128 C1254.35896,2423.59271 1255.429,2422.5319 1256.74896,2422.5319 Z M1256.74896,2423.71659 C1256.08898,2423.71659 1255.55396,2424.24699 1255.55396,2424.90128 C1255.55396,2425.55556 1256.08898,2426.08596 1256.74896,2426.08596 C1257.40894,2426.08596 1257.94395,2425.55556 1257.94395,2424.90128 C1257.94395,2424.24699 1257.40894,2423.71659 1256.74896,2423.71659 Z" transform="translate(-1235 -2404)"/>
</svg>
