<svg xmlns="http://www.w3.org/2000/svg" xmlns:xlink="http://www.w3.org/1999/xlink" width="62" height="62" viewBox="0 0 62 62">
  <defs>
    <linearGradient id="icon-2-4-b" x1="100%" x2="0%" y1="100%" y2="0%">
      <stop offset="0%" stop-color="#1E85E9"/>
      <stop offset="20.276%" stop-color="#8671F3"/>
      <stop offset="70.727%" stop-color="#C06CFD" stop-opacity=".99"/>
      <stop offset="100%" stop-color="#FFBEE8"/>
    </linearGradient>
    <rect id="icon-2-4-a" width="60" height="60" x="0" y="0" rx="4"/>
    <linearGradient id="icon-2-4-c" x1="100%" x2="0%" y1="77.527%" y2="22.473%">
      <stop offset="0%" stop-color="#1E85E9"/>
      <stop offset="20.276%" stop-color="#8671F3"/>
      <stop offset="70.727%" stop-color="#C06CFD" stop-opacity=".99"/>
      <stop offset="100%" stop-color="#FFBEE8"/>
    </linearGradient>
  </defs>
  <g fill="none" fill-rule="evenodd" transform="translate(1 1)">
    <g opacity=".062">
      <use fill="#FAFAFA" xlink:href="#icon-2-4-a"/>
      <use fill="url(#icon-2-4-b)" stroke="#000" stroke-opacity=".02" xlink:href="#icon-2-4-a"/>
    </g>
    <path fill="url(#icon-2-4-c)" fill-rule="nonzero" d="M29.9670268,46.9210931 C29.9216357,46.9181496 29.8820092,46.9103914 29.8431463,46.8974067 L29.843236,46.8962079 C26.559832,45.8121074 23.2793497,45.2705395 20,45.2705395 C17.1395511,45.2705395 14.2783508,45.6825813 11.4151377,46.5072446 C10.6190756,46.7365133 9.78787586,46.2770473 9.55859501,45.4809891 C9.5326812,45.391017 9.51527691,45.2989158 9.50655336,45.2058987 L9.5,45.0658378 L9.5,20.2975507 C9.5,19.5438212 10.0592818,18.907141 10.8067252,18.8100254 L11.5252756,18.7188856 C11.9163082,18.6707295 12.2418625,18.6334631 12.5027123,18.6070389 L12.5,18.2138169 C12.5,17.4619842 13.056506,16.8262711 13.8017465,16.7269041 C16.3657792,16.3850276 18.9593992,16.4295283 21.5810295,16.8600785 C24.3840768,17.3204228 27.1461263,18.5128534 29.8648539,20.4317506 C29.9126016,20.4654406 29.9580293,20.5016605 30.001007,20.5401594 C30.0427095,20.5010717 30.0877866,20.4651667 30.1351461,20.4317506 C32.8538737,18.5128534 35.6159232,17.3204228 38.4189705,16.8600785 C41.0406008,16.4295283 43.6342208,16.3850276 46.1982535,16.7269041 C46.943494,16.8262711 47.5,17.4619842 47.5,18.2138169 L47.4982698,18.6071384 C47.7589545,18.6335567 48.0841824,18.67079 48.4747244,18.7188856 L48.4747244,18.7188856 L49.1932748,18.8100254 C49.9407182,18.907141 50.5,19.5438212 50.5,20.2975507 L50.5,20.2975507 L50.5,45.0658378 L50.4934466,45.2058987 C50.4847231,45.2989158 50.4673188,45.391017 50.441405,45.4809891 C50.2121241,46.2770473 49.3809244,46.7365133 48.5848623,46.5072446 C45.7216492,45.6825813 42.8604489,45.2705395 40,45.2705395 C36.7206503,45.2705395 33.440168,45.8121074 30.156764,46.8962079 L30.156764,46.8962079 L30.1567524,46.8963064 L30.1147444,46.9093873 C30.089885,46.9152575 30.0648388,46.9190916 30.0398147,46.9209856 C30.0376599,46.9207379 30.0353176,46.9209238 30.0329732,46.9210931 L29.9670268,46.9210931 L29.9670268,46.9210931 Z M47.5,19.6119999 L47.5,40.8285872 C47.5,40.895546 47.4955165,40.9624298 47.4865795,41.0287896 C47.3760115,41.8497904 46.6208295,42.4257136 45.7998247,42.3151684 C43.394922,41.9912891 40.9924447,42.0501105 38.5904164,42.4917569 C36.5296842,42.8706513 34.4591435,43.7763005 32.3787389,45.2130787 C34.9176618,44.5852348 37.4585121,44.2705395 40,44.2705395 C42.955044,44.2705395 45.9093367,44.6959875 48.861624,45.546306 C49.1269737,45.6227276 49.404042,45.4695713 49.4804686,45.20422 C49.4934253,45.1592344 49.5,45.1126521 49.5,45.0658378 L49.5,45.0658378 L49.5,20.2975507 L49.493265,20.2154351 C49.4577977,20.0013461 49.285891,19.8304647 49.0644274,19.8016898 C48.3839697,19.7132777 47.8481526,19.6487947 47.4595519,19.6083995 L47.5,19.6119999 Z M12.5,19.6119999 L12.5404481,19.6083995 C12.1518474,19.6487947 11.6160303,19.7132777 10.9355726,19.8016898 C10.714109,19.8304647 10.5422023,20.0013461 10.506735,20.2154351 L10.5,20.2975507 L10.5,45.0658378 C10.5,45.1126521 10.5065747,45.1592344 10.5195314,45.20422 C10.595958,45.4695713 10.8730263,45.6227276 11.138376,45.546306 C14.0906633,44.6959875 17.044956,44.2705395 20,44.2705395 C22.5414879,44.2705395 25.0823382,44.5852348 27.6217953,45.2142179 C25.5408565,43.7763005 23.4703158,42.8706513 21.4095836,42.4917569 C19.0075553,42.0501105 16.605078,41.9912891 14.2001753,42.3151684 C13.3791705,42.4257136 12.6239885,41.8497904 12.5134205,41.0287896 C12.5044835,40.9624298 12.5,40.895546 12.5,40.8285872 L12.5,40.8285872 L12.5,19.6119999 Z M20.7883594,17.7509374 C18.4784407,17.4276289 16.19403,17.4167778 13.9339123,17.7181317 C13.6854949,17.7512546 13.5,17.9631508 13.5,18.2137811 L13.5,18.2137811 L13.5,40.8285872 L13.5044734,40.8953199 C13.5413291,41.1689843 13.7930593,41.3609609 14.0667194,41.3241136 C16.5762847,40.9861389 19.0848378,41.0475575 21.5904164,41.5082431 C24.133346,41.9757962 26.6666313,43.1819801 29.1901869,45.1200509 L29.1901869,45.1200509 L29.5,45.363 L29.5,21.6572888 L29.490728,21.5614071 C29.4723846,21.4675196 29.4274296,21.3807782 29.3612827,21.3116541 L29.3612827,21.3116541 L29.2882727,21.2487904 C26.6882634,19.4136855 24.0659171,18.2815675 21.4189705,17.8468596 L21.4189705,17.8468596 Z M39.2116406,17.7509374 L38.5810295,17.8468596 C35.9340829,18.2815675 33.3117366,19.4136855 30.7117273,21.2487904 L30.6387173,21.3116541 C30.5505215,21.4038195 30.5,21.5273047 30.5,21.6572888 L30.5,45.363 L30.8098131,45.1200509 C33.3333687,43.1819801 35.866654,41.9757962 38.4095836,41.5082431 C40.9151622,41.0475575 43.4237153,40.9861389 45.9332806,41.3241136 C46.2069407,41.3609609 46.4586709,41.1689843 46.4955266,40.8953199 L46.5,40.8285872 L46.5,18.2137811 C46.5,17.9631508 46.3145051,17.7512546 46.0660877,17.7181317 C43.80597,17.4167778 41.5215593,17.4276289 39.2116406,17.7509374 Z"/>
  </g>
</svg>
