<svg xmlns="http://www.w3.org/2000/svg" width="40" height="37" viewBox="0 0 40 37">
  <defs>
    <linearGradient id="icon-18-5-a" x1="100%" x2="0%" y1="91.349%" y2="8.651%">
      <stop offset="0%" stop-color="#1E85E9"/>
      <stop offset="20.276%" stop-color="#8671F3"/>
      <stop offset="70.727%" stop-color="#C06CFD" stop-opacity=".99"/>
      <stop offset="100%" stop-color="#FFBEE8"/>
    </linearGradient>
  </defs>
  <path fill="url(#icon-18-5-a)" d="M990.674419,2830 C991.958802,2830 993,2831.0412 993,2832.32558 L993,2832.32558 L993,2857.44186 C993,2858.72624 991.958802,2859.76744 990.674419,2859.76744 L990.674419,2859.76744 L977.163021,2859.76704 C977.144972,2860.78259 977.360835,2861.82474 977.813592,2862.89684 C978.28638,2864.01636 978.881166,2864.84633 979.594024,2865.39546 L979.663,2865.445 L981.372093,2865.44536 C981.62897,2865.44536 981.837209,2865.66922 981.837209,2865.94536 C981.837209,2866.19082 981.672674,2866.39497 981.455698,2866.4373 L981.372093,2866.44536 L964.627907,2866.44536 C964.37103,2866.44536 964.162791,2866.2215 964.162791,2865.94536 C964.162791,2865.6999 964.327326,2865.49575 964.544302,2865.45341 L964.627907,2865.44536 L966.297,2865.445 L966.365072,2865.37733 C966.944429,2864.77071 967.447751,2863.96618 967.872216,2862.96108 C968.287693,2861.97727 968.580201,2860.91336 968.749355,2859.76851 L955.325581,2859.76744 C954.041198,2859.76744 953,2858.72624 953,2857.44186 L953,2857.44186 L953,2832.32558 C953,2831.0412 954.041198,2830 955.325581,2830 L955.325581,2830 Z M968.729165,2863.32298 C968.382332,2864.14426 967.981788,2864.85279 967.526378,2865.4475 L978.29218,2865.44665 C977.770422,2864.86285 977.325678,2864.13258 976.956643,2863.25873 C976.457156,2862.07599 976.214846,2860.91111 976.232644,2859.76738 L969.688,2859.767 L969.680792,2859.82741 C969.502288,2861.0776 969.185216,2862.24309 968.729165,2863.32298 Z M992.069,2852.86 L953.93,2852.86 L953.930233,2857.44186 C953.930233,2858.16716 954.483617,2858.76321 955.1912,2858.83082 L955.325581,2858.83721 L990.674419,2858.83721 C991.445048,2858.83721 992.069767,2858.21249 992.069767,2857.44186 L992.069767,2857.44186 L992.069,2852.86 Z M973,2854.65116 C973.513753,2854.65116 973.930233,2855.06764 973.930233,2855.5814 C973.930233,2856.09515 973.513753,2856.51163 973,2856.51163 C972.486247,2856.51163 972.069767,2856.09515 972.069767,2855.5814 C972.069767,2855.06764 972.486247,2854.65116 973,2854.65116 Z M990.674419,2830.93023 L955.325581,2830.93023 C954.554952,2830.93023 953.930233,2831.55495 953.930233,2832.32558 L953.930233,2832.32558 L953.93,2851.86 L992.069,2851.86 L992.069767,2832.32558 C992.069767,2831.60028 991.516383,2831.00423 990.8088,2830.93662 L990.674419,2830.93023 Z" transform="translate(-953 -2830)"/>
</svg>
