<?xml version="1.0" encoding="UTF-8"?>
<svg width="42px" height="42px" viewBox="0 0 42 42" version="1.1" xmlns="http://www.w3.org/2000/svg" xmlns:xlink="http://www.w3.org/1999/xlink">
    <title>icon-28-7</title>
    <defs>
        <linearGradient x1="77.6323741%" y1="126.552443%" x2="21.0632815%" y2="-2.01023403%" id="linearGradient-1">
            <stop stop-color="#1E85E9" offset="0%"></stop>
            <stop stop-color="#8671F3" offset="20.275549%"></stop>
            <stop stop-color="#C06CFD" stop-opacity="0.99" offset="70.7268792%"></stop>
            <stop stop-color="#FFBEE8" offset="100%"></stop>
        </linearGradient>
    </defs>
    <g id="Page-1" stroke="none" stroke-width="1" fill="none" fill-rule="evenodd">
        <g id="icons" transform="translate(-1237.000000, -4237.000000)" fill="url(#linearGradient-1)" fill-rule="nonzero">
            <path d="M1252.17014,4237 C1248.94302,4237 1246.99405,4239.1043 1246.99405,4242.13847 L1247.00104,4242.3721 L1247.02445,4242.625 C1247.16948,4243.8002 1247.81119,4244.90164 1248.76626,4245.76733 L1248.99254,4245.96341 L1248.99254,4246.25229 L1237,4246.25256 L1237,4258.82063 L1239.15959,4258.82128 L1239.45887,4258.44477 C1240.29088,4257.43877 1241.39155,4256.82233 1242.49041,4256.82233 C1244.97563,4256.82233 1246.6045,4258.33095 1246.6045,4260.97402 C1246.6045,4263.61709 1244.97563,4265.12571 1242.49041,4265.12571 C1241.32933,4265.12571 1240.16505,4264.43495 1239.3197,4263.32836 L1239.16607,4263.12723 L1237,4263.126 L1237,4279 L1252.68238,4278.99918 L1252.6824,4277.19227 L1252.30596,4276.89304 C1251.29997,4276.06103 1250.68352,4274.96037 1250.68352,4273.8615 C1250.68352,4271.37628 1252.19215,4269.74742 1254.83522,4269.74742 C1257.47829,4269.74742 1258.98691,4271.37628 1258.98691,4273.8615 L1258.9791,4274.08292 C1258.9059,4275.15733 1258.22782,4276.23906 1257.18956,4277.03221 L1256.98839,4277.18588 L1256.98771,4278.99918 L1270.00537,4279 L1270.0038,4264.16681 L1270.15232,4264.33557 C1271.15266,4265.43168 1272.46224,4266.11249 1273.82391,4266.11249 C1276.87885,4266.11249 1279,4264.17948 1279,4260.97402 C1279,4257.76855 1276.87885,4255.83555 1273.82391,4255.83555 L1273.58876,4255.84248 L1273.33446,4255.86565 C1272.15263,4256.00924 1271.04373,4256.64494 1270.17156,4257.59162 L1270.0038,4257.77974 L1270.00538,4246.25256 L1255.3458,4246.25229 L1255.34683,4245.96238 L1255.55325,4245.78619 C1256.65896,4244.79328 1257.34622,4243.49246 1257.34622,4242.13847 C1257.34622,4239.1043 1255.39726,4237 1252.17014,4237 Z M1252.21166,4238.16667 C1254.83591,4238.16667 1256.33379,4239.78393 1256.33379,4242.25145 C1256.33379,4243.40435 1255.64784,4244.56042 1254.549,4245.39975 L1254.34927,4245.55231 L1254.34838,4247.35305 L1268.90223,4247.35306 L1268.90221,4258.83595 L1270.37922,4258.83625 L1270.53196,4258.63954 C1271.33078,4257.61075 1272.42215,4256.94089 1273.52414,4256.87377 L1273.7267,4256.86784 C1276.20266,4256.86807 1277.83333,4258.35411 1277.83333,4260.95285 C1277.83333,4263.5516 1276.20266,4265.03763 1273.71121,4265.03763 C1272.54544,4265.03763 1271.37834,4264.35633 1270.53177,4263.26593 L1270.37936,4263.06962 L1268.90221,4263.06742 L1268.90223,4277.83333 L1258.01119,4277.83232 L1258.01221,4277.5455 L1258.23523,4277.35354 C1259.24572,4276.43858 1259.90369,4275.25895 1259.98776,4274.02008 L1259.99668,4273.76581 C1259.99698,4270.73599 1258.06189,4268.64668 1254.85776,4268.64668 C1251.65362,4268.64668 1249.71854,4270.73599 1249.71854,4273.74855 L1249.72641,4273.99918 C1249.80479,4275.24862 1250.46406,4276.43803 1251.49493,4277.36639 L1251.70317,4277.5455 L1251.70317,4277.83232 L1238.16667,4277.83333 L1238.16667,4264.10663 L1238.80337,4264.10765 L1238.97935,4264.3121 C1239.96517,4265.40981 1241.25663,4266.09207 1242.60088,4266.09207 C1245.61344,4266.09207 1247.70276,4264.15699 1247.70276,4260.95285 C1247.70276,4257.74872 1245.61344,4255.81363 1242.60088,4255.81363 L1242.35025,4255.8215 C1241.10081,4255.89989 1239.91141,4256.55915 1238.98305,4257.59003 L1238.80337,4257.7976 L1238.16667,4257.7976 L1238.16667,4247.35306 L1250.07359,4247.35305 L1250.07427,4245.55248 L1249.87432,4245.39975 C1248.83737,4244.6077 1248.16273,4243.52639 1248.09526,4242.43626 L1248.08929,4242.23571 C1248.08954,4239.78393 1249.58741,4238.16667 1252.21166,4238.16667 Z" id="icon-28-7"></path>
        </g>
    </g>
</svg>