<svg xmlns="http://www.w3.org/2000/svg" width="39" height="39" viewBox="0 0 39 39">
  <defs>
    <linearGradient id="icon-14-4-a" x1="100%" x2="0%" y1="100%" y2="0%">
      <stop offset="0%" stop-color="#1E85E9"/>
      <stop offset="20.276%" stop-color="#8671F3"/>
      <stop offset="70.727%" stop-color="#C06CFD" stop-opacity=".99"/>
      <stop offset="100%" stop-color="#FFBEE8"/>
    </linearGradient>
  </defs>
  <path fill="url(#icon-14-4-a)" d="M845,2286 C847.688755,2286 849.881818,2288.12231 849.99538,2290.78311 L850,2291 L849.999,2293 L850.5,2293 C851.279696,2293 851.920449,2293.59489 851.993133,2294.35554 L852,2294.5 L852,2301.5 C852,2302.2797 851.405112,2302.92045 850.64446,2302.99313 L850.5,2303 L839.5,2303 C838.720304,2303 838.079551,2302.40511 838.006867,2301.64446 L838,2301.5 L838,2294.5 C838,2293.7203 838.594888,2293.07955 839.35554,2293.00687 L839.5,2293 L848.999,2293 L849,2291 C849,2288.79086 847.209139,2287 845,2287 C843.172836,2287 841.591008,2288.23576 841.131883,2289.977 C841.061477,2290.24402 840.787943,2290.4034 840.520926,2290.33299 C840.25391,2290.26259 840.094527,2289.98905 840.164933,2289.72204 C840.739139,2287.54435 842.715973,2286 845,2286 Z M850.5,2294 L839.5,2294 C839.25454,2294 839.050392,2294.17688 839.008056,2294.41012 L839,2294.5 L839,2301.5 C839,2301.74546 839.176875,2301.94961 839.410124,2301.99194 L839.5,2302 L850.5,2302 C850.74546,2302 850.949608,2301.82312 850.991944,2301.58988 L851,2301.5 L851,2294.5 C851,2294.22386 850.776142,2294 850.5,2294 Z M839.802263,2287.99987 C839.619988,2288.31538 839.465238,2288.64988 839.341555,2289.00041 L814.5,2289 C814.25454,2289 814.050392,2289.17688 814.008056,2289.41012 L814,2289.5 L814,2297.5 C814,2297.74546 814.176875,2297.94961 814.410124,2297.99194 L814.5,2298 L837,2298 L837,2299 L814.5,2299 C813.720304,2299 813.079551,2298.40511 813.006867,2297.64446 L813,2297.5 L813,2289.5 C813,2288.7203 813.594888,2288.07955 814.35554,2288.00687 L814.5,2288 L839.802263,2287.99987 Z M847,2295 L847,2297.5 C847,2298.2797 846.405112,2298.92045 845.64446,2298.99313 L845.5,2299 L840,2299 L840,2298 L845.5,2298 C845.74546,2298 845.949608,2297.82312 845.991944,2297.58988 L846,2297.5 L846,2295 L847,2295 Z M820.5,2292 C821.328427,2292 822,2292.67157 822,2293.5 C822,2294.32843 821.328427,2295 820.5,2295 C819.671573,2295 819,2294.32843 819,2293.5 C819,2292.67157 819.671573,2292 820.5,2292 Z M820.5,2293 C820.223858,2293 820,2293.22386 820,2293.5 C820,2293.77614 820.223858,2294 820.5,2294 C820.776142,2294 821,2293.77614 821,2293.5 C821,2293.22386 820.776142,2293 820.5,2293 Z M837.499783,2293.00005 C837.28133,2293.29089 837.124835,2293.63093 837.049893,2294.00057 L825.57959,2294 C825.303447,2294 825.07959,2293.77614 825.07959,2293.5 C825.07959,2293.25454 825.256465,2293.05039 825.489714,2293.00806 L825.57959,2293 L837.499783,2293.00005 Z M845,2288 C845.568814,2288 846.100655,2288.15831 846.553866,2288.43326 C846.797515,2288.67352 846.958779,2288.99601 846.993133,2289.35554 L847,2289.5 L847,2292 L846,2292 L846,2289.5 C846,2289.22386 845.776142,2289 845.5,2289 L842.762669,2289.00042 C843.316681,2288.3819 844.120553,2288 845,2288 Z M845.5,2276 C846.279696,2276 846.920449,2276.59489 846.993133,2277.35554 L847,2277.5 L847.000686,2285.34165 C846.679096,2285.22794 846.344919,2285.14087 846.000807,2285.08309 L846,2277.5 C846,2277.22386 845.776142,2277 845.5,2277 L814.5,2277 C814.25454,2277 814.050392,2277.17688 814.008056,2277.41012 L814,2277.5 L814,2285.5 C814,2285.74546 814.176875,2285.94961 814.410124,2285.99194 L814.5,2286 L841.682803,2285.99999 C841.256865,2286.28272 840.868146,2286.61893 840.526796,2287.00018 L814.5,2287 C813.720304,2287 813.079551,2286.40511 813.006867,2285.64446 L813,2285.5 L813,2277.5 C813,2276.7203 813.594888,2276.07955 814.35554,2276.00687 L814.5,2276 L845.5,2276 Z M820.5,2280 C821.328427,2280 822,2280.67157 822,2281.5 C822,2282.32843 821.328427,2283 820.5,2283 C819.671573,2283 819,2282.32843 819,2281.5 C819,2280.67157 819.671573,2280 820.5,2280 Z M820.5,2281 C820.223858,2281 820,2281.22386 820,2281.5 C820,2281.77614 820.223858,2282 820.5,2282 C820.776142,2282 821,2281.77614 821,2281.5 C821,2281.22386 820.776142,2281 820.5,2281 Z M842.506592,2281 C842.782734,2281 843.006592,2281.22386 843.006592,2281.5 C843.006592,2281.74546 842.829717,2281.94961 842.596467,2281.99194 L842.506592,2282 L825.57959,2282 C825.303447,2282 825.07959,2281.77614 825.07959,2281.5 C825.07959,2281.25454 825.256465,2281.05039 825.489714,2281.00806 L825.57959,2281 L842.506592,2281 Z M845.5,2264 C846.279696,2264 846.920449,2264.59489 846.993133,2265.35554 L847,2265.5 L847,2273.5 C847,2274.2797 846.405112,2274.92045 845.64446,2274.99313 L845.5,2275 L814.5,2275 C813.720304,2275 813.079551,2274.40511 813.006867,2273.64446 L813,2273.5 L813,2265.5 C813,2264.7203 813.594888,2264.07955 814.35554,2264.00687 L814.5,2264 L845.5,2264 Z M845.5,2265 L814.5,2265 C814.25454,2265 814.050392,2265.17688 814.008056,2265.41012 L814,2265.5 L814,2273.5 C814,2273.74546 814.176875,2273.94961 814.410124,2273.99194 L814.5,2274 L845.5,2274 C845.74546,2274 845.949608,2273.82312 845.991944,2273.58988 L846,2273.5 L846,2265.5 C846,2265.22386 845.776142,2265 845.5,2265 Z M820.5,2268 C821.328427,2268 822,2268.67157 822,2269.5 C822,2270.32843 821.328427,2271 820.5,2271 C819.671573,2271 819,2270.32843 819,2269.5 C819,2268.67157 819.671573,2268 820.5,2268 Z M820.5,2269 C820.223858,2269 820,2269.22386 820,2269.5 C820,2269.77614 820.223858,2270 820.5,2270 C820.776142,2270 821,2269.77614 821,2269.5 C821,2269.22386 820.776142,2269 820.5,2269 Z M842.506592,2269 C842.782734,2269 843.006592,2269.22386 843.006592,2269.5 C843.006592,2269.74546 842.829717,2269.94961 842.596467,2269.99194 L842.506592,2270 L825.57959,2270 C825.303447,2270 825.07959,2269.77614 825.07959,2269.5 C825.07959,2269.25454 825.256465,2269.05039 825.489714,2269.00806 L825.57959,2269 L842.506592,2269 Z" transform="translate(-813 -2264)"/>
</svg>
