<svg xmlns="http://www.w3.org/2000/svg" width="50" height="50" viewBox="0 0 50 50">
  <defs>
    <linearGradient id="icon-19-2-a" x1="60.503%" x2="39.497%" y1="100%" y2="0%">
      <stop offset="0%" stop-color="#1E85E9"/>
      <stop offset="20.276%" stop-color="#8671F3"/>
      <stop offset="70.727%" stop-color="#C06CFD" stop-opacity=".99"/>
      <stop offset="100%" stop-color="#FFBEE8"/>
    </linearGradient>
  </defs>
  <path fill="url(#icon-19-2-a)" d="M24.9800858,36.3836233 C25.2528158,36.3836233 25.4796448,36.5782846 25.5266842,36.8349888 L25.5356348,36.9339021 L25.5356348,48.4497212 C25.5356348,48.7536318 25.286907,49 24.9800858,49 C24.7073558,49 24.4805268,48.8053387 24.4334874,48.5486345 L24.4245367,48.4497212 L24.4245367,36.9339021 C24.4245367,36.6299915 24.6732645,36.3836233 24.9800858,36.3836233 Z M21.6442144,36.8535635 C21.9169445,36.8535635 22.1437734,37.0482248 22.1908129,37.304929 L22.1997635,37.4038423 L22.1997635,45.0381541 C22.1997635,45.3420647 21.9510357,45.5884329 21.6442144,45.5884329 C21.3714844,45.5884329 21.1446554,45.3937716 21.097616,45.1370674 L21.0886654,45.0381541 L21.0886654,37.4038423 C21.0886654,37.0999317 21.3373932,36.8535635 21.6442144,36.8535635 Z M28.3108031,36.8535635 C28.5835331,36.8535635 28.8103621,37.0482248 28.8574015,37.304929 L28.8663521,37.4038423 L28.8663521,45.0381541 C28.8663521,45.3420647 28.6176244,45.5884329 28.3108031,45.5884329 C28.0380731,45.5884329 27.8112441,45.3937716 27.7642047,45.1370674 L27.755254,45.0381541 L27.755254,37.4038423 C27.755254,37.0999317 28.0039818,36.8535635 28.3108031,36.8535635 Z M24.7406659,1.09441831 C24.9324499,0.965979058 25.1845415,0.968805271 25.3733414,1.10151127 C31.5199813,5.42193583 34.4976932,12.6857217 33.4980338,19.7542212 C33.5990075,19.7945371 33.6884634,19.8664263 33.7515636,19.9649219 C34.8176734,21.6290568 35.5292565,23.5497303 35.8874962,25.7224843 C36.2539521,27.9450705 35.7238001,30.6001315 34.3171473,33.6924975 C34.1618862,34.0338212 33.7152993,34.1252657 33.4361322,33.8728968 L33.4361322,33.8728968 L29.41,30.233 L27.6989691,33.7077954 C27.6191382,33.869819 27.4653678,33.9810573 27.2893365,34.0095331 L27.199705,34.016726 L22.7553125,34.016726 C22.5465382,34.016726 22.3553895,33.9007882 22.2604835,33.7165965 L22.2604835,33.7165965 L20.505,30.309 L16.5638678,33.8728968 C16.2847007,34.1252657 15.8381138,34.0338212 15.6828527,33.6924975 C14.2761999,30.6001315 13.7460479,27.9450705 14.1125038,25.7224843 C14.4707435,23.5497303 15.1823266,21.6290568 16.2484364,19.9649219 C16.2694929,19.932054 16.2934842,19.9021489 16.3198574,19.875329 C15.2969694,12.7150734 18.3921627,5.34606014 24.7406659,1.09441831 Z M31.1045381,9.85498818 L18.7765923,9.85557142 C16.6393369,14.7231975 16.6674052,20.4406426 19.2590488,25.4704576 L19.2590488,25.4704576 L23.0948767,32.9161685 L26.8526105,32.9161685 L30.6885565,25.1308826 C33.1228449,20.1902894 33.1406676,14.6291914 31.1045381,9.85498818 Z M16.6287732,21.5194081 L16.5576341,21.6563749 C15.9162739,22.9242896 15.4665745,24.3381118 15.2090746,25.8998708 C14.9151943,27.6822799 15.281813,29.843767 16.3235886,32.380811 L16.3893996,32.5386773 L19.981,29.293 L18.2693908,25.970756 C17.52677,24.529491 16.9826906,23.0349711 16.6287732,21.5194081 Z M33.2258272,21.246995 L33.1711613,21.4885833 C32.8399846,22.8899926 32.3474407,24.2733313 31.6870849,25.613579 L31.6870849,25.613579 L29.918,29.202 L33.6104088,32.5386773 L33.6764114,32.380811 C34.718187,29.843767 35.0848057,27.6822799 34.7909254,25.8998708 C34.5053601,24.1678929 33.9834158,22.6178568 33.2258272,21.246995 Z M24.9775088,13.1061329 C27.1252577,13.1061329 28.8663521,14.8307103 28.8663521,16.9580843 C28.8663521,19.0854583 27.1252577,20.8100356 24.9775088,20.8100356 C22.8297599,20.8100356 21.0886654,19.0854583 21.0886654,16.9580843 C21.0886654,14.8307103 22.8297599,13.1061329 24.9775088,13.1061329 Z M24.9775088,14.2066905 C23.4434024,14.2066905 22.1997635,15.4385314 22.1997635,16.9580843 C22.1997635,18.4776371 23.4434024,19.7094781 24.9775088,19.7094781 C26.5116151,19.7094781 27.755254,18.4776371 27.755254,16.9580843 C27.755254,15.4385314 26.5116151,14.2066905 24.9775088,14.2066905 Z M25.0437428,2.22492061 C22.5591599,3.96630089 20.6258173,6.22143882 19.3049063,8.75410523 L30.5913473,8.75399919 C29.3196722,6.24575381 27.4568262,3.9991545 25.0599611,2.2360834 L25.0599611,2.2360834 Z" transform="rotate(45 25 25)"/>
</svg>
