<svg xmlns="http://www.w3.org/2000/svg" xmlns:xlink="http://www.w3.org/1999/xlink" width="62" height="62" viewBox="0 0 62 62">
  <defs>
    <linearGradient id="icon-5-2-b" x1="100%" x2="0%" y1="100%" y2="0%">
      <stop offset="0%" stop-color="#1E85E9"/>
      <stop offset="20.276%" stop-color="#8671F3"/>
      <stop offset="70.727%" stop-color="#C06CFD" stop-opacity=".99"/>
      <stop offset="100%" stop-color="#FFBEE8"/>
    </linearGradient>
    <rect id="icon-5-2-a" width="60" height="60" x="0" y="0" rx="4"/>
    <linearGradient id="icon-5-2-c" x1="100%" x2="0%" y1="97.184%" y2="2.816%">
      <stop offset="0%" stop-color="#1E85E9"/>
      <stop offset="20.276%" stop-color="#8671F3"/>
      <stop offset="70.727%" stop-color="#C06CFD" stop-opacity=".99"/>
      <stop offset="100%" stop-color="#FFBEE8"/>
    </linearGradient>
  </defs>
  <g fill="none" fill-rule="evenodd" transform="translate(1 1)">
    <g opacity=".062">
      <use fill="#FAFAFA" xlink:href="#icon-5-2-a"/>
      <use fill="url(#icon-5-2-b)" stroke="#000" stroke-opacity=".02" xlink:href="#icon-5-2-a"/>
    </g>
    <path fill="url(#icon-5-2-c)" fill-rule="nonzero" d="M30.5,27 C32.4329966,27 34,28.5670034 34,30.5 C34,31.8221044 33.2669404,32.9729936 32.1851038,33.5683851 L36.9681646,46.3244383 C37.080528,46.6240741 36.8868471,46.9420371 36.5848884,46.9929501 L36.5,47 L24.5,47 C24.1799888,47 23.9502767,46.7070066 24.0086301,46.4063971 L24.0318354,46.3244383 L28.8148962,33.5683851 C27.7330596,32.9729936 27,31.8221044 27,30.5 C27,28.5670034 28.5670034,27 30.5,27 Z M31.2488494,33.9197061 C31.0075863,33.9722942 30.7570287,34 30.5,34 C30.2429713,34 29.9924137,33.9722942 29.7511506,33.9197061 L25.221,46 L35.778,46 Z M30.5,28 C29.1192881,28 28,29.1192881 28,30.5 C28,31.8807119 29.1192881,33 30.5,33 C31.8807119,33 33,31.8807119 33,30.5 C33,29.1192881 31.8807119,28 30.5,28 Z M30.5,13 C40.1649831,13 48,20.8350169 48,30.5 C48,30.7761424 47.7761424,31 47.5,31 C47.2238576,31 47,30.7761424 47,30.5 C47,21.3873016 39.6126984,14 30.5,14 C21.3873016,14 14,21.3873016 14,30.5 C14,30.7761424 13.7761424,31 13.5,31 C13.2238576,31 13,30.7761424 13,30.5 C13,20.8350169 20.8350169,13 30.5,13 Z M30.5,20 C36.2989899,20 41,24.7010101 41,30.5 C41,30.7761424 40.7761424,31 40.5,31 C40.2238576,31 40,30.7761424 40,30.5 C40,25.2532949 35.7467051,21 30.5,21 C25.2532949,21 21,25.2532949 21,30.5 C21,30.7761424 20.7761424,31 20.5,31 C20.2238576,31 20,30.7761424 20,30.5 C20,24.7010101 24.7010101,20 30.5,20 Z"/>
  </g>
</svg>
