<svg xmlns="http://www.w3.org/2000/svg" width="38" height="38" viewBox="0 0 38 38">
  <defs>
    <linearGradient id="icon-21-1-a" x1="100%" x2="0%" y1="100%" y2="0%">
      <stop offset="0%" stop-color="#1E85E9"/>
      <stop offset="20.276%" stop-color="#8671F3"/>
      <stop offset="70.727%" stop-color="#C06CFD" stop-opacity=".99"/>
      <stop offset="100%" stop-color="#FFBEE8"/>
    </linearGradient>
  </defs>
  <path fill="url(#icon-21-1-a)" d="M409.4592,3252 C410.36474,3252.00646 411.14602,3252.6365 411.344,3253.52 L411.8,3255.9824 C412.0432,3256.84576 412.655,3257.55788 413.472,3257.928 C414.30838,3258.2567 415.24964,3258.18374 416.0256,3257.7304 L417.88,3256.332 C418.65938,3255.78366 419.72072,3255.88018 420.388,3256.56 L422.44,3258.5968 C423.12818,3259.26636 423.22508,3260.33796 422.668,3261.12 L421.2544,3263.096 C420.50428,3264.47502 421.01424,3266.20098 422.39326,3266.9511 C422.59086,3267.05864 422.80062,3267.14186 423.0176,3267.2 L425.48,3267.656 C426.35818,3267.85284 426.9867,3268.62576 427,3269.5256 L427,3272.4592 C426.9867,3273.35866 426.35818,3274.13196 425.48,3274.3288 L423.0176,3274.8 C421.49228,3275.17202 420.55748,3276.7095 420.9295,3278.23482 C420.99752,3278.51298 421.10696,3278.77974 421.2544,3279.0256 L422.668,3281.0016 C423.15744,3281.75818 423.0632,3282.75188 422.44,3283.4032 L420.388,3285.44 C419.72224,3286.07726 418.70042,3286.1601 417.94118,3285.6376 L415.96518,3284.224 C414.60022,3283.44842 412.86552,3283.92608 412.08994,3285.29104 C411.95998,3285.51904 411.8627,3285.76338 411.80038,3286.0176 L411.344,3288.48 C411.14602,3289.3635 410.36474,3289.99354 409.4592,3290 L406.5408,3290 C405.64096,3289.9867 404.86804,3289.35818 404.6712,3288.48 L404.2,3286.0176 C403.82798,3284.49228 402.2905,3283.55748 400.76518,3283.9295 C400.48664,3283.99752 400.21988,3284.10696 399.97402,3284.2544 L398.12,3285.668 C397.341,3286.21634 396.27928,3286.11982 395.612,3285.44 L393.56,3283.40358 C392.87182,3282.73364 392.77492,3281.66242 393.332,3280.88 L394.7456,3278.904 C395.49572,3277.52498 394.98538,3275.79902 393.60636,3275.0489 C393.474627,3274.97746 393.337658,3274.91632 393.196579,3274.86639 L392.98202,3274.8 L390.52,3274.344 C389.64182,3274.14716 389.0133,3273.37424 389,3272.4744 L389,3269.5408 C389.00646,3268.63526 389.6365,3267.85398 390.52,3267.656 L392.9824,3267.2 C394.50316,3266.81126 395.42086,3265.26276 395.03212,3263.742 C394.96866,3263.49462 394.87252,3263.25712 394.74598,3263.0352 L393.332,3261.12 C392.77492,3260.33796 392.87182,3259.26636 393.56,3258.5968 L395.612,3256.56 C396.27928,3255.88018 397.341,3255.78366 398.12,3256.332 L400.096,3257.7456 C401.47502,3258.49572 403.20098,3257.98538 403.9511,3256.60636 C404.05864,3256.40876 404.14186,3256.19938 404.2,3255.98202 L404.656,3253.52 C404.85284,3252.64182 405.62576,3252.0133 406.5256,3252 L409.4592,3252 Z M409.452066,3252.99989 L406.540379,3252.99989 C406.142834,3253.00577 405.796295,3253.25867 405.670292,3253.59791 L405.639277,3253.70212 L405.166038,3256.24042 C405.087333,3256.53466 404.974578,3256.81771 404.82955,3257.08419 C403.848213,3258.88828 401.631446,3259.59233 399.799969,3258.71688 L399.618166,3258.62405 L399.51417,3258.55891 L397.544398,3257.14973 C397.200282,3256.90751 396.742549,3256.92425 396.411686,3257.1844 L396.316473,3257.26973 L394.257344,3259.31354 C393.953267,3259.60939 393.88672,3260.06672 394.07301,3260.42259 L394.136498,3260.52604 L395.550478,3262.44124 L395.61468,3262.53986 C395.785379,3262.83922 395.915134,3263.15974 396.000967,3263.49434 C396.51007,3265.48596 395.361683,3267.51255 393.360761,3268.12816 L393.164489,3268.18328 L390.738663,3268.6318 C390.348343,3268.71927 390.059805,3269.04101 390.008229,3269.42418 L389.999891,3269.5408 L389.999891,3272.45962 C390.005767,3272.85717 390.258673,3273.20371 390.597915,3273.32971 L390.702116,3273.36072 L393.164136,3273.81672 L393.277607,3273.84468 L393.530245,3273.9237 C393.720265,3273.99095 393.905075,3274.07331 394.084194,3274.17045 C395.888284,3275.15179 396.592328,3277.36855 395.716878,3279.20003 L395.62405,3279.38183 L395.558911,3279.48583 L394.146615,3281.46 C393.900362,3281.80587 393.916869,3282.26765 394.178561,3282.59865 L394.264407,3282.69378 L396.325658,3284.73951 C396.620393,3285.03978 397.073637,3285.10585 397.414925,3284.9321 L397.513682,3284.87278 L399.367702,3283.45918 L399.459719,3283.39679 C399.791562,3283.19779 400.151707,3283.04993 400.528229,3282.95798 C402.52565,3282.47081 404.538739,3283.6415 405.129497,3285.63427 L405.182179,3285.82965 L405.646988,3288.26128 C405.733996,3288.64946 406.052305,3288.93712 406.426906,3288.99099 L406.5408,3289.00003 L409.452066,3289.00003 C409.852279,3288.99717 410.202453,3288.74386 410.329499,3288.40261 L410.360745,3288.29776 L410.829137,3285.77951 C410.913582,3285.43504 411.045404,3285.10419 411.220493,3284.79701 C412.235097,3283.01139 414.464115,3282.34904 416.279144,3283.25836 L416.459206,3283.35455 L416.54701,3283.41069 L418.508094,3284.81382 C418.84311,3285.04438 419.283781,3285.03217 419.594459,3284.80488 L419.683527,3284.73027 L421.717468,3282.71186 C421.990096,3282.42693 422.054479,3282.00733 421.910427,3281.68642 L421.854689,3281.58343 L420.39679,3279.5399 C420.197898,3279.20824 420.050033,3278.84822 419.957978,3278.47177 C419.470815,3276.47435 420.641497,3274.46126 422.634265,3273.8705 L422.829652,3273.81782 L425.261282,3273.35301 C425.649311,3273.26604 425.937092,3272.94752 425.990983,3272.57305 L426.000109,3272.4592 L426.000109,3269.54038 C425.994233,3269.14283 425.741327,3268.79629 425.402106,3268.6703 L425.297911,3268.63928 L422.758779,3268.16593 C422.464747,3268.08714 422.181505,3267.97436 421.915426,3267.82955 C420.111372,3266.84823 419.407631,3264.63148 420.283119,3262.79997 L420.37595,3262.61817 L420.441089,3262.51417 L421.853518,3260.53981 C422.099605,3260.19435 422.083073,3259.7325 421.821374,3259.40162 L421.735527,3259.30653 L419.674342,3257.26049 C419.379568,3256.96018 418.926538,3256.89413 418.581949,3257.0703 L418.482092,3257.13043 L416.627692,3258.52883 L416.530049,3258.59384 C415.489573,3259.20172 414.227622,3259.29942 413.059347,3258.83889 C412.041585,3258.37782 411.263353,3257.51738 410.886656,3256.39287 L410.816718,3256.16449 L410.3682,3253.73866 C410.271988,3253.30931 409.8923,3253.00312 409.452066,3252.99989 Z M413.007789,3264.66659 C413.198493,3264.82113 413.245742,3265.08708 413.131783,3265.29495 L413.081457,3265.36985 L409.866324,3269.33658 C410.260465,3269.77849 410.5,3270.36127 410.5,3271 C410.5,3272.38071 409.380712,3273.5 408,3273.5 C406.619288,3273.5 405.5,3272.38071 405.5,3271 C405.5,3269.61929 406.619288,3268.5 408,3268.5 C408.380765,3268.5 408.741649,3268.58512 409.064659,3268.73738 L412.30453,3264.74026 C412.478387,3264.52572 412.793246,3264.49273 413.007789,3264.66659 Z M408,3269.5 C407.171573,3269.5 406.5,3270.17157 406.5,3271 C406.5,3271.82843 407.171573,3272.5 408,3272.5 C408.828427,3272.5 409.5,3271.82843 409.5,3271 C409.5,3270.17157 408.828427,3269.5 408,3269.5 Z" transform="translate(-389 -3252)"/>
</svg>
