<svg xmlns="http://www.w3.org/2000/svg" width="39" height="35" viewBox="0 0 39 35">
  <defs>
    <linearGradient id="icon-17-5-a" x1="100%" x2="0%" y1="90.27%" y2="9.73%">
      <stop offset="0%" stop-color="#1E85E9"/>
      <stop offset="20.276%" stop-color="#8671F3"/>
      <stop offset="70.727%" stop-color="#C06CFD" stop-opacity=".99"/>
      <stop offset="100%" stop-color="#FFBEE8"/>
    </linearGradient>
  </defs>
  <path fill="url(#icon-17-5-a)" d="M965.5,2718 C967.432997,2718 969,2719.567 969,2721.5 C969,2723.433 967.432997,2725 965.5,2725 C963.567003,2725 962,2723.433 962,2721.5 C962,2719.567 963.567003,2718 965.5,2718 Z M981.5,2718 C983.432997,2718 985,2719.567 985,2721.5 C985,2723.433 983.432997,2725 981.5,2725 C979.567003,2725 978,2723.433 978,2721.5 C978,2719.567 979.567003,2718 981.5,2718 Z M965.5,2719 C964.119288,2719 963,2720.11929 963,2721.5 C963,2722.88071 964.119288,2724 965.5,2724 C966.880712,2724 968,2722.88071 968,2721.5 C968,2720.11929 966.880712,2719 965.5,2719 Z M981.5,2719 C980.119288,2719 979,2720.11929 979,2721.5 C979,2722.88071 980.119288,2724 981.5,2724 C982.880712,2724 984,2722.88071 984,2721.5 C984,2720.11929 982.880712,2719 981.5,2719 Z M976.162842,2721 L976.162842,2722 L970.462158,2722 L970.462158,2721 L976.162842,2721 Z M986.489979,2711.67524 L987.341076,2712.20025 L984.243664,2717.22149 L983.392567,2716.69648 L986.489979,2711.67524 Z M960.395001,2711.68577 L963.324688,2716.70701 L962.460956,2717.21096 L959.531269,2712.18972 L960.395001,2711.68577 Z M973.5,2702 C976.537566,2702 979,2704.46243 979,2707.5 C979,2710.53757 976.537566,2713 973.5,2713 C970.462434,2713 968,2710.53757 968,2707.5 C968,2704.46243 970.462434,2702 973.5,2702 Z M973.5,2703 C971.014719,2703 969,2705.01472 969,2707.5 C969,2709.98528 971.014719,2712 973.5,2712 C975.985281,2712 978,2709.98528 978,2707.5 C978,2705.01472 975.985281,2703 973.5,2703 Z M989.5,2704 C991.432997,2704 993,2705.567 993,2707.5 C993,2709.433 991.432997,2711 989.5,2711 C987.567003,2711 986,2709.433 986,2707.5 C986,2705.567 987.567003,2704 989.5,2704 Z M957.5,2704 C959.432997,2704 961,2705.567 961,2707.5 C961,2709.433 959.432997,2711 957.5,2711 C955.567003,2711 954,2709.433 954,2707.5 C954,2705.567 955.567003,2704 957.5,2704 Z M989.5,2705 C988.119288,2705 987,2706.11929 987,2707.5 C987,2708.88071 988.119288,2710 989.5,2710 C990.880712,2710 992,2708.88071 992,2707.5 C992,2706.11929 990.880712,2705 989.5,2705 Z M957.5,2705 C956.119288,2705 955,2706.11929 955,2707.5 C955,2708.88071 956.119288,2710 957.5,2710 C958.880712,2710 960,2708.88071 960,2707.5 C960,2706.11929 958.880712,2705 957.5,2705 Z M984.243976,2697.81686 L987.341388,2702.85153 L986.489666,2703.37552 L983.392254,2698.34085 L984.243976,2697.81686 Z M962.460664,2697.82738 L963.324981,2698.33033 L960.395293,2703.365 L959.530976,2702.86205 L962.460664,2697.82738 Z M965.5,2690 C967.432997,2690 969,2691.567 969,2693.5 C969,2695.433 967.432997,2697 965.5,2697 C963.567003,2697 962,2695.433 962,2693.5 C962,2691.567 963.567003,2690 965.5,2690 Z M981.5,2690 C983.432997,2690 985,2691.567 985,2693.5 C985,2695.433 983.432997,2697 981.5,2697 C979.567003,2697 978,2695.433 978,2693.5 C978,2691.567 979.567003,2690 981.5,2690 Z M965.5,2691 C964.119288,2691 963,2692.11929 963,2693.5 C963,2694.88071 964.119288,2696 965.5,2696 C966.880712,2696 968,2694.88071 968,2693.5 C968,2692.11929 966.880712,2691 965.5,2691 Z M981.5,2691 C980.119288,2691 979,2692.11929 979,2693.5 C979,2694.88071 980.119288,2696 981.5,2696 C982.880712,2696 984,2694.88071 984,2693.5 C984,2692.11929 982.880712,2691 981.5,2691 Z M976.162842,2693 L976.162842,2694 L970.462158,2694 L970.462158,2693 L976.162842,2693 Z" transform="translate(-954 -2690)"/>
</svg>
