<svg xmlns="http://www.w3.org/2000/svg" xmlns:xlink="http://www.w3.org/1999/xlink" width="62" height="62" viewBox="0 0 62 62">
  <defs>
    <linearGradient id="icon-12-8-b" x1="100%" x2="0%" y1="100%" y2="0%">
      <stop offset="0%" stop-color="#1E85E9"/>
      <stop offset="20.276%" stop-color="#8671F3"/>
      <stop offset="70.727%" stop-color="#C06CFD" stop-opacity=".99"/>
      <stop offset="100%" stop-color="#FFBEE8"/>
    </linearGradient>
    <rect id="icon-12-8-a" width="60" height="60" x="0" y="0" rx="4"/>
    <linearGradient id="icon-12-8-c" x1="100%" x2="0%" y1="72.827%" y2="27.173%">
      <stop offset="0%" stop-color="#1E85E9"/>
      <stop offset="20.276%" stop-color="#8671F3"/>
      <stop offset="70.727%" stop-color="#C06CFD" stop-opacity=".99"/>
      <stop offset="100%" stop-color="#FFBEE8"/>
    </linearGradient>
  </defs>
  <g fill="none" fill-rule="evenodd" transform="translate(1 1)">
    <g opacity=".062">
      <use fill="#FAFAFA" xlink:href="#icon-12-8-a"/>
      <use fill="url(#icon-12-8-b)" stroke="#000" stroke-opacity=".02" xlink:href="#icon-12-8-a"/>
    </g>
    <path fill="url(#icon-12-8-c)" fill-rule="nonzero" d="M48,37.6238095 C48,38.9913718 46.9960325,40.1 45.7575758,40.1 L45.7575758,41.7619048 C45.7575758,42.4456859 45.255592,43 44.6363636,43 L37.9090909,43 C37.2898626,43 36.7878788,42.4456859 36.7878788,41.7619048 L36.7878788,40.1 L22.2121212,40.1 L22.2121212,41.7619048 C22.2121212,42.4456859 21.7101374,43 21.0909091,43 L14.3636364,43 C13.744408,43 13.2424242,42.4456859 13.2424242,41.7619048 L13.2424242,40.1 C12.0039675,40.1 11,38.9913718 11,37.6238095 L11,30.3809524 L11.012465,30.3803371 C11.1582584,28.2126989 12.5676171,26.433504 14.4300375,25.9377492 C14.9467999,21.4610743 18.4096417,18 22.6045455,18 L36.3954545,18 C40.5903583,18 44.0532001,21.4610743 44.5698393,25.9382645 C46.4323762,26.4335317 47.8417413,28.2127004 47.9875349,30.3803372 L48,30.3809524 L48,37.6238095 Z M36.3954545,19.2380952 L22.6045455,19.2380952 C19.1009576,19.2380952 16.1436635,22.0489804 15.5807941,25.8036495 L15.5422503,26.0943002 L15.4444801,26.941276 L14.6927891,27.1413675 C13.3045151,27.51091 12.279631,28.8167111 12.1379891,30.3803136 L21.0909091,30.3809524 L21.0909091,35.3333333 L12.121,35.333 L12.1212121,37.6238095 C12.1212121,38.2587491 12.5540451,38.7820565 13.1116672,38.8535752 L13.2424242,38.8619048 L14.3636364,38.8619048 L14.3636364,41.7619048 L21.0909091,41.7619048 L21.0909091,38.8619048 L37.9090909,38.8619048 L37.9090909,41.7619048 L44.6363636,41.7619048 L44.6363636,38.8619048 L45.7575758,38.8619048 C46.3325735,38.8619048 46.8064777,38.3839502 46.8712447,37.7681976 L46.8787879,37.6238095 L46.878,35.333 L37.9090909,35.3333333 L37.9090909,30.3809524 L46.8620279,30.3804964 C46.7270897,28.8901231 45.789718,27.6340926 44.5001526,27.1999782 L44.3073475,27.1419519 L43.5553859,26.9419978 L43.4576202,26.094761 C43.0188686,22.2925442 40.1382827,19.3865323 36.6638581,19.2436081 L36.3954545,19.2380952 Z M19.969697,31.6190476 L12.1212121,31.6190476 L12.1212121,34.0952381 L19.969697,34.0952381 L19.969697,31.6190476 Z M46.8787879,31.6190476 L39.030303,31.6190476 L39.030303,34.0952381 L46.8787879,34.0952381 L46.8787879,31.6190476 Z"/>
  </g>
</svg>
