<svg xmlns="http://www.w3.org/2000/svg" xmlns:xlink="http://www.w3.org/1999/xlink" width="62" height="62" viewBox="0 0 62 62">
  <defs>
    <linearGradient id="icon-9-3-b" x1="100%" x2="0%" y1="100%" y2="0%">
      <stop offset="0%" stop-color="#1E85E9"/>
      <stop offset="20.276%" stop-color="#8671F3"/>
      <stop offset="70.727%" stop-color="#C06CFD" stop-opacity=".99"/>
      <stop offset="100%" stop-color="#FFBEE8"/>
    </linearGradient>
    <rect id="icon-9-3-a" width="60" height="60" x="0" y="0" rx="4"/>
    <linearGradient id="icon-9-3-c" x1="75.162%" x2="24.838%" y1="100%" y2="0%">
      <stop offset="0%" stop-color="#1E85E9"/>
      <stop offset="20.276%" stop-color="#8671F3"/>
      <stop offset="70.727%" stop-color="#C06CFD" stop-opacity=".99"/>
      <stop offset="100%" stop-color="#FFBEE8"/>
    </linearGradient>
    <linearGradient id="icon-9-3-d" x1="73.372%" x2="26.628%" y1="100%" y2="0%">
      <stop offset="0%" stop-color="#1E85E9"/>
      <stop offset="20.276%" stop-color="#8671F3"/>
      <stop offset="70.727%" stop-color="#C06CFD" stop-opacity=".99"/>
      <stop offset="100%" stop-color="#FFBEE8"/>
    </linearGradient>
  </defs>
  <g fill="none" fill-rule="evenodd" transform="translate(1 1)">
    <g opacity=".062">
      <use fill="#FAFAFA" xlink:href="#icon-9-3-a"/>
      <use fill="url(#icon-9-3-b)" stroke="#000" stroke-opacity=".02" xlink:href="#icon-9-3-a"/>
    </g>
    <g fill-rule="nonzero" transform="translate(13 14)">
      <polygon fill="url(#icon-9-3-c)" points="23.684 5.162 24.311 4.335 30.468 8.673 25.846 13.898 25.038 13.234 28.916 8.848" transform="rotate(-119 27.076 9.117)"/>
      <polygon fill="url(#icon-9-3-d)" points="2.591 18.739 3.218 17.881 9.375 22.381 4.753 27.803 3.945 27.114 7.823 22.563" transform="rotate(61 5.983 22.842)"/>
      <path stroke="url(#icon-9-3-b)" d="M17,0 C7.61115925,0 0,7.61115925 0,17 C0,26.3888407 7.61115925,34 17,34 C26.3888407,34 34,26.3888407 34,17 C34,7.61115925 26.3888407,0 17,0 Z M17,8.5 C21.6944204,8.5 25.5,12.3055796 25.5,17 C25.5,21.6944204 21.6944204,25.5 17,25.5 C12.3055796,25.5 8.5,21.6944204 8.5,17 C8.5,12.3055796 12.3055796,8.5 17,8.5 Z"/>
    </g>
  </g>
</svg>
