<svg xmlns="http://www.w3.org/2000/svg" width="40" height="40" viewBox="0 0 40 40">
  <defs>
    <linearGradient id="icon-18-9-a" x1="100%" x2="0%" y1="100%" y2="0%">
      <stop offset="0%" stop-color="#1E85E9"/>
      <stop offset="20.276%" stop-color="#8671F3"/>
      <stop offset="70.727%" stop-color="#C06CFD" stop-opacity=".99"/>
      <stop offset="100%" stop-color="#FFBEE8"/>
    </linearGradient>
  </defs>
  <path fill="url(#icon-18-9-a)" d="M1548,2848 C1553.52285,2848 1558,2852.47715 1558,2858 C1558,2863.52285 1553.52285,2868 1548,2868 C1542.47715,2868 1538,2863.52285 1538,2858 C1538,2852.47715 1542.47715,2848 1548,2848 Z M1548,2849 C1543.02944,2849 1539,2853.02944 1539,2858 C1539,2862.97056 1543.02944,2867 1548,2867 C1552.97056,2867 1557,2862.97056 1557,2858 C1557,2853.02944 1552.97056,2849 1548,2849 Z M1551,2828 C1551.55228,2828 1552,2828.44772 1552,2829 L1552.00096,2847.75026 C1551.67496,2847.62291 1551.3414,2847.51067 1551.00113,2847.41439 L1551,2835 L1519,2835 L1519,2862 L1537.75026,2862.00096 C1537.88381,2862.34284 1538.03397,2862.6764 1538.19975,2863.00064 L1519,2863 C1518.44772,2863 1518,2862.55228 1518,2862 L1518,2829 C1518,2828.44772 1518.44772,2828 1519,2828 L1551,2828 Z M1552.93885,2853.02023 C1553.11068,2853.19552 1553.12727,2853.46512 1552.99034,2853.65864 L1552.9318,2853.7273 L1545.46854,2861.0431 C1545.26033,2861.24719 1544.9296,2861.22733 1544.74474,2861.01839 L1544.68889,2860.94178 L1543.39751,2858.77235 C1543.25626,2858.53507 1543.33411,2858.22821 1543.5714,2858.08696 C1543.78232,2857.96141 1544.04821,2858.00897 1544.2039,2858.18774 L1544.25679,2858.26085 L1545.222,2859.884 L1552.23178,2853.01318 C1552.42898,2852.81987 1552.74555,2852.82303 1552.93885,2853.02023 Z M1524,2854.5 C1525.38071,2854.5 1526.5,2855.61929 1526.5,2857 C1526.5,2858.38071 1525.38071,2859.5 1524,2859.5 C1522.61929,2859.5 1521.5,2858.38071 1521.5,2857 C1521.5,2855.61929 1522.61929,2854.5 1524,2854.5 Z M1524,2855.5 C1523.17157,2855.5 1522.5,2856.17157 1522.5,2857 C1522.5,2857.82843 1523.17157,2858.5 1524,2858.5 C1524.82843,2858.5 1525.5,2857.82843 1525.5,2857 C1525.5,2856.17157 1524.82843,2855.5 1524,2855.5 Z M1537.1014,2856.50012 C1537.05656,2856.829 1537.02626,2857.16252 1537.01116,2857.49998 L1529.15356,2857.5 C1528.87742,2857.5 1528.65356,2857.27614 1528.65356,2857 C1528.65356,2856.75454 1528.83044,2856.55039 1529.06369,2856.50806 L1529.15356,2856.5 L1537.1014,2856.50012 Z M1524,2846.5 C1525.38071,2846.5 1526.5,2847.61929 1526.5,2849 C1526.5,2850.38071 1525.38071,2851.5 1524,2851.5 C1522.61929,2851.5 1521.5,2850.38071 1521.5,2849 C1521.5,2847.61929 1522.61929,2846.5 1524,2846.5 Z M1524,2847.5 C1523.17157,2847.5 1522.5,2848.17157 1522.5,2849 C1522.5,2849.82843 1523.17157,2850.5 1524,2850.5 C1524.82843,2850.5 1525.5,2849.82843 1525.5,2849 C1525.5,2848.17157 1524.82843,2847.5 1524,2847.5 Z M1542.45008,2848.50066 C1541.94569,2848.79598 1541.46692,2849.13033 1541.01791,2849.49956 L1529.15356,2849.5 C1528.87742,2849.5 1528.65356,2849.27614 1528.65356,2849 C1528.65356,2848.75454 1528.83044,2848.55039 1529.06369,2848.50806 L1529.15356,2848.5 L1542.45008,2848.50066 Z M1524,2838.5 C1525.38071,2838.5 1526.5,2839.61929 1526.5,2841 C1526.5,2842.38071 1525.38071,2843.5 1524,2843.5 C1522.61929,2843.5 1521.5,2842.38071 1521.5,2841 C1521.5,2839.61929 1522.61929,2838.5 1524,2838.5 Z M1524,2839.5 C1523.17157,2839.5 1522.5,2840.17157 1522.5,2841 C1522.5,2841.82843 1523.17157,2842.5 1524,2842.5 C1524.82843,2842.5 1525.5,2841.82843 1525.5,2841 C1525.5,2840.17157 1524.82843,2839.5 1524,2839.5 Z M1547.97217,2840.5 C1548.24831,2840.5 1548.47217,2840.72386 1548.47217,2841 C1548.47217,2841.24546 1548.29529,2841.44961 1548.06204,2841.49194 L1547.97217,2841.5 L1529.15356,2841.5 C1528.87742,2841.5 1528.65356,2841.27614 1528.65356,2841 C1528.65356,2840.75454 1528.83044,2840.55039 1529.06369,2840.50806 L1529.15356,2840.5 L1547.97217,2840.5 Z M1551,2829 L1519,2829 L1519,2834 L1551,2834 L1551,2829 Z M1521.5,2831 C1521.77614,2831 1522,2831.22386 1522,2831.5 C1522,2831.77614 1521.77614,2832 1521.5,2832 C1521.22386,2832 1521,2831.77614 1521,2831.5 C1521,2831.22386 1521.22386,2831 1521.5,2831 Z M1524.5,2831 C1524.77614,2831 1525,2831.22386 1525,2831.5 C1525,2831.77614 1524.77614,2832 1524.5,2832 C1524.22386,2832 1524,2831.77614 1524,2831.5 C1524,2831.22386 1524.22386,2831 1524.5,2831 Z M1527.5,2831 C1527.77614,2831 1528,2831.22386 1528,2831.5 C1528,2831.77614 1527.77614,2832 1527.5,2832 C1527.22386,2832 1527,2831.77614 1527,2831.5 C1527,2831.22386 1527.22386,2831 1527.5,2831 Z" transform="translate(-1518 -2828)"/>
</svg>
