<svg xmlns="http://www.w3.org/2000/svg" xmlns:xlink="http://www.w3.org/1999/xlink" width="62" height="62" viewBox="0 0 62 62">
  <defs>
    <linearGradient id="icon-6-6-b" x1="100%" x2="0%" y1="100%" y2="0%">
      <stop offset="0%" stop-color="#1E85E9"/>
      <stop offset="20.276%" stop-color="#8671F3"/>
      <stop offset="70.727%" stop-color="#C06CFD" stop-opacity=".99"/>
      <stop offset="100%" stop-color="#FFBEE8"/>
    </linearGradient>
    <rect id="icon-6-6-a" width="60" height="60" x="0" y="0" rx="4"/>
    <linearGradient id="icon-6-6-c" x1="93.52%" x2="6.48%" y1="100%" y2="0%">
      <stop offset="0%" stop-color="#1E85E9"/>
      <stop offset="20.276%" stop-color="#8671F3"/>
      <stop offset="70.727%" stop-color="#C06CFD" stop-opacity=".99"/>
      <stop offset="100%" stop-color="#FFBEE8"/>
    </linearGradient>
  </defs>
  <g fill="none" fill-rule="evenodd" transform="translate(1 1)">
    <g opacity=".062">
      <use fill="#FAFAFA" xlink:href="#icon-6-6-a"/>
      <use fill="url(#icon-6-6-b)" stroke="#000" stroke-opacity=".02" xlink:href="#icon-6-6-a"/>
    </g>
    <path fill="url(#icon-6-6-c)" fill-rule="nonzero" d="M20.6899597,19.2013642 L29.4127778,27.8577778 L31.9965219,25.3670485 C31.7300309,24.9643088 31.5636766,24.4895141 31.5329487,23.9781543 L31.5277778,23.8055556 C31.5277778,22.2407488 32.7963043,20.9722222 34.3611111,20.9722222 C35.9259179,20.9722222 37.1944444,22.2407488 37.1944444,23.8055556 C37.1944444,25.3703623 35.9259179,26.6388889 34.3611111,26.6388889 C33.7144703,26.6388889 33.1184245,26.422266 32.6415831,26.0576297 L30.0827778,28.5227778 L38.183937,36.5634549 L37.9745741,36.8854675 C36.4741444,39.1932182 34.2918218,40.9321233 31.765625,41.8813734 L33.9654916,45.2141434 L33.9714916,45.2233524 C33.9798069,45.2365832 33.9874842,45.2502557 33.9944802,45.2643265 L34.0059025,45.2891759 C34.0072947,45.2924335 34.0086476,45.295701 34.0099614,45.2989778 C34.0164756,45.3151812 34.0220687,45.3317735 34.026738,45.3487485 C34.0290543,45.3571129 34.0311218,45.3655125 34.0329521,45.373941 C34.0340399,45.3791044 34.035061,45.3842382 34.0359981,45.3894013 L34.0401272,45.4162112 C34.0421904,45.4329701 34.0433437,45.4497787 34.0436023,45.4665628 L34.0436062,45.4742839 L34.0431629,45.495497 C34.0424435,45.5112089 34.0409428,45.5268616 34.0386734,45.5423937 L34.0436062,45.4742839 C34.0436062,45.5137662 34.0387608,45.5521169 34.029632,45.5887737 C34.0268454,45.5995247 34.0236768,45.6105448 34.0201102,45.6214442 C34.0157872,45.6349736 34.0108135,45.6480972 34.0052875,45.660927 C33.9996141,45.6739927 33.9933119,45.6870206 33.986402,45.6997652 C33.9802065,45.7111194 33.9737366,45.7219255 33.9668587,45.7324405 C33.95936,45.7441079 33.9507366,45.7561153 33.9415127,45.7677446 C33.9341598,45.776808 33.9269574,45.7852331 33.9194718,45.7933941 C33.8941777,45.8211574 33.8646805,45.846506 33.8315245,45.8683914 L33.8852494,45.8271111 C33.8750886,45.8361563 33.8645345,45.8447693 33.8536159,45.852921 L33.8315245,45.8683914 C33.8282999,45.8705199 33.8250588,45.8726037 33.8218019,45.8746429 C33.8090846,45.8827068 33.7954122,45.890384 33.7813413,45.89738 C33.7696952,45.9031041 33.7582507,45.9082263 33.74669,45.9128612 C33.7304867,45.9193755 33.7138944,45.9249686 33.6969194,45.9296378 C33.688555,45.9319542 33.6801554,45.9340217 33.6717268,45.935852 C33.6665634,45.9369397 33.6614296,45.9379608 33.6562665,45.9388979 L33.6294567,45.943027 C33.6126978,45.9450903 33.5958892,45.9462436 33.5791051,45.9465022 L33.571384,45.9465061 L20.0611708,45.9465061 C19.7215603,45.9465061 19.5023624,45.6038824 19.6205348,45.3036421 L19.6572319,45.2296878 L21.9087053,41.5122215 C17.5498564,39.4856789 14.5277778,35.0679838 14.5277778,29.9444444 C14.5277778,25.9300758 16.6955991,22.0947313 20.0746681,19.6321377 L20.3672466,19.424448 L20.6899597,19.2013642 Z M22.7892231,41.8819259 L20.898,45.002 L32.6937778,45.0017778 L30.8374439,42.1899092 C29.6993742,42.5201231 28.5034151,42.6944444 27.2777778,42.6944444 C25.6980217,42.6944444 24.1853696,42.4071378 22.7892231,41.8819259 Z M20.585,20.428 L20.3338642,20.6182367 C17.3585995,22.9151563 15.4722222,26.3660276 15.4722222,29.9444444 C15.4722222,36.4644727 20.7577495,41.75 27.2777778,41.75 C30.9763906,41.75 34.3821599,40.036328 36.5931709,37.1980842 L36.7969254,36.9287222 L36.968,36.687 L20.585,20.428 Z M34.3611111,21.9166667 C33.3179066,21.9166667 32.4722222,22.762351 32.4722222,23.8055556 C32.4722222,24.8487601 33.3179066,25.6944444 34.3611111,25.6944444 C35.4043156,25.6944444 36.25,24.8487601 36.25,23.8055556 C36.25,22.762351 35.4043156,21.9166667 34.3611111,21.9166667 Z M34.8333333,11.5277778 C41.3533616,11.5277778 46.6388889,16.813305 46.6388889,23.3333333 C46.6388889,23.5941345 46.4274678,23.8055556 46.1666667,23.8055556 C45.9058655,23.8055556 45.6944444,23.5941345 45.6944444,23.3333333 C45.6944444,17.3349073 40.8317594,12.4722222 34.8333333,12.4722222 C34.5725322,12.4722222 34.3611111,12.2608011 34.3611111,12 C34.3611111,11.7391989 34.5725322,11.5277778 34.8333333,11.5277778 Z M35.7777778,16.25 C39.1681925,16.25 41.9166667,18.9984742 41.9166667,22.3888889 C41.9166667,22.64969 41.7052456,22.8611111 41.4444444,22.8611111 C41.1836433,22.8611111 40.9722222,22.64969 40.9722222,22.3888889 C40.9722222,19.5200764 38.6465902,17.1944444 35.7777778,17.1944444 C35.5169766,17.1944444 35.3055556,16.9830234 35.3055556,16.7222222 C35.3055556,16.4614211 35.5169766,16.25 35.7777778,16.25 Z"/>
  </g>
</svg>
