<svg xmlns="http://www.w3.org/2000/svg" xmlns:xlink="http://www.w3.org/1999/xlink" width="62" height="62" viewBox="0 0 62 62">
  <defs>
    <linearGradient id="icon-4-1-b" x1="100%" x2="0%" y1="100%" y2="0%">
      <stop offset="0%" stop-color="#1E85E9"/>
      <stop offset="20.276%" stop-color="#8671F3"/>
      <stop offset="70.727%" stop-color="#C06CFD" stop-opacity=".99"/>
      <stop offset="100%" stop-color="#FFBEE8"/>
    </linearGradient>
    <rect id="icon-4-1-a" width="60" height="60" x="0" y="0" rx="4"/>
    <linearGradient id="icon-4-1-c" x1="89.296%" x2="10.704%" y1="100%" y2="0%">
      <stop offset="0%" stop-color="#1E85E9"/>
      <stop offset="20.276%" stop-color="#8671F3"/>
      <stop offset="70.727%" stop-color="#C06CFD" stop-opacity=".99"/>
      <stop offset="100%" stop-color="#FFBEE8"/>
    </linearGradient>
  </defs>
  <g fill="none" fill-rule="evenodd" transform="translate(1 1)">
    <g opacity=".062">
      <use fill="#FAFAFA" xlink:href="#icon-4-1-a"/>
      <use fill="url(#icon-4-1-b)" stroke="#000" stroke-opacity=".02" xlink:href="#icon-4-1-a"/>
    </g>
    <path fill="url(#icon-4-1-c)" fill-rule="nonzero" d="M29.7783642,10.5 C30.8707905,10.5 31.7563901,11.3848157 31.7563901,12.4777552 L31.7563901,12.4777552 L31.756,13.65 L31.8905908,13.6753947 C36.8163525,14.651499 40.4854535,18.9328228 40.6196569,24.0122582 L40.6196569,24.0122582 L40.6234627,24.300609 L40.6234627,28.4207886 C40.6234627,31.1983719 41.8399956,33.8193358 43.9643703,35.6151754 C44.6615427,36.2122937 45.056999,37.0653127 45.056999,37.9705891 C45.056999,39.6730724 43.6730724,41.056999 41.9705891,41.056999 L41.9705891,41.056999 L35.4323102,41.0562647 C34.5623025,43.3640633 32.3318405,44.9682906 29.7783642,44.9682906 C27.2251352,44.9682906 24.9947202,43.3640789 24.1245163,41.0563051 L17.5861393,41.056999 C15.8838766,41.056999 14.5,39.6730224 14.5,37.9705891 C14.5,37.0681126 14.8933153,36.2141182 15.5815401,35.6247337 C17.7153022,33.8207839 18.9335363,31.2005902 18.9335363,28.4207886 L18.9335363,28.4207886 L18.9335363,24.300609 C18.9335363,19.0949459 22.646804,14.669772 27.6663317,13.6753787 L27.6663317,13.6753787 L27.8,13.65 L27.800609,12.4777552 C27.800609,11.4345482 28.6074782,10.5808727 29.630771,10.5054212 L29.630771,10.5054212 Z M34.3474186,41.0572283 L25.1686457,41.0569866 C25.9272238,42.8524278 27.709724,43.9682906 29.7783642,43.9682906 C31.7753719,43.9682906 33.5369319,42.7908082 34.3474186,41.0572283 Z M29.7783642,11.5 C29.2382675,11.5 28.800609,11.9373264 28.800609,12.4777552 L28.800609,12.4777552 L28.800609,14.5071615 L28.3719076,14.5689244 C23.5593677,15.2622652 19.9335363,19.4017008 19.9335363,24.300609 L19.9335363,24.300609 L19.9335363,28.4207886 C19.9335363,31.4951549 18.5854626,34.3946092 16.2295842,36.3863299 C15.765539,36.7837396 15.5,37.360297 15.5,37.9705891 C15.5,39.1207538 16.4361776,40.056999 17.5861393,40.056999 L17.5861393,40.056999 L41.9705891,40.056999 C43.1207877,40.056999 44.056999,39.1207877 44.056999,37.9705891 C44.056999,37.3584095 43.7900005,36.7824805 43.3163278,36.3767727 C40.9696636,34.3930358 39.6234627,31.4927083 39.6234627,28.4207886 L39.6234627,28.4207886 L39.6234627,24.300609 C39.6234627,19.4023562 35.9966704,15.2623517 31.1850687,14.5689211 L31.1850687,14.5689211 L30.7563901,14.5071415 L30.7563901,12.4777552 C30.7563901,11.9372988 30.3187039,11.5 29.7783642,11.5 Z"/>
  </g>
</svg>
