<svg xmlns="http://www.w3.org/2000/svg" width="40" height="40" viewBox="0 0 40 40">
  <defs>
    <linearGradient id="icon-21-6-a" x1="98.758%" x2="1.242%" y1="100%" y2="0%">
      <stop offset="0%" stop-color="#1E85E9"/>
      <stop offset="20.276%" stop-color="#8671F3"/>
      <stop offset="70.727%" stop-color="#C06CFD" stop-opacity=".99"/>
      <stop offset="100%" stop-color="#FFBEE8"/>
    </linearGradient>
  </defs>
  <path fill="url(#icon-21-6-a)" d="M1114,3251 C1115.45991,3251 1116.67626,3251.93947 1116.9448,3253.18396 C1118.53302,3252.12044 1120.44405,3251.5 1122.5,3251.5 C1128.02285,3251.5 1132.5,3255.97715 1132.5,3261.5 C1132.5,3267.02285 1128.02285,3271.5 1122.5,3271.5 C1120.46799,3271.5 1118.57753,3270.89392 1116.99955,3269.85268 L1117,3288.2973 C1117,3289.73665 1115.75108,3290.91321 1114.17627,3290.99541 L1114,3291 L1096,3291 C1094.40232,3291 1093.09634,3289.87485 1093.00509,3288.4561 L1093,3288.2973 L1093,3253.7027 C1093,3252.26335 1094.24892,3251.08679 1095.82373,3251.00459 L1096,3251 L1114,3251 Z M1116,3282.675 L1094,3282.675 L1094,3288.37143 C1094,3289.22353 1094.73668,3289.92278 1095.67515,3289.99402 L1095.83333,3290 L1114.16667,3290 C1115.1259,3290 1115.91307,3289.3456 1115.99327,3288.51195 L1116,3288.37143 L1116,3282.675 Z M1105,3283.86486 C1106.32548,3283.86486 1107.4,3284.9297 1107.4,3286.24324 C1107.4,3287.55679 1106.32548,3288.62162 1105,3288.62162 C1103.67452,3288.62162 1102.6,3287.55679 1102.6,3286.24324 C1102.6,3284.9297 1103.67452,3283.86486 1105,3283.86486 Z M1105,3285.05405 C1104.33726,3285.05405 1103.8,3285.58647 1103.8,3286.24324 C1103.8,3286.90001 1104.33726,3287.43243 1105,3287.43243 C1105.66274,3287.43243 1106.2,3286.90001 1106.2,3286.24324 C1106.2,3285.58647 1105.66274,3285.05405 1105,3285.05405 Z M1114.16667,3252 L1095.83333,3252 C1094.8741,3252 1094.08693,3252.6544 1094.00673,3253.48805 L1094,3253.62857 L1094,3281.486 L1116,3281.486 L1116,3269.09958 C1113.85767,3267.2655 1112.5,3264.5413 1112.5,3261.5 C1112.5,3258.4587 1113.85767,3255.7345 1116,3253.90042 L1116,3253.62857 C1116,3252.77647 1115.26332,3252.07722 1114.32485,3252.00598 L1114.16667,3252 Z M1122.5,3252.5 C1117.52944,3252.5 1113.5,3256.52944 1113.5,3261.5 C1113.5,3266.47056 1117.52944,3270.5 1122.5,3270.5 C1127.47056,3270.5 1131.5,3266.47056 1131.5,3261.5 C1131.5,3256.52944 1127.47056,3252.5 1122.5,3252.5 Z M1128.09358,3258.05167 C1128.27567,3258.21627 1128.30852,3258.48438 1128.18352,3258.6858 L1128.12923,3258.75788 L1122.12875,3265.39655 C1121.96051,3265.58268 1121.68506,3265.61231 1121.48308,3265.47916 L1121.41114,3265.42158 L1117.25928,3261.42671 C1117.06029,3261.23524 1117.05419,3260.91872 1117.24566,3260.71973 C1117.41585,3260.54285 1117.68485,3260.51838 1117.88228,3260.6496 L1117.95263,3260.70611 L1121.733,3264.343 L1127.38737,3258.08733 C1127.57254,3257.88247 1127.88871,3257.86651 1128.09358,3258.05167 Z M1108.6,3255.16216 C1108.93137,3255.16216 1109.2,3255.42837 1109.2,3255.75676 C1109.2,3256.04866 1108.98775,3256.29143 1108.70785,3256.34177 L1108.6,3256.35135 L1101.4,3256.35135 C1101.06863,3256.35135 1100.8,3256.08514 1100.8,3255.75676 C1100.8,3255.46486 1101.01225,3255.22209 1101.29215,3255.17174 L1101.4,3255.16216 L1108.6,3255.16216 Z" transform="translate(-1093 -3251)"/>
</svg>
