<svg xmlns="http://www.w3.org/2000/svg" width="29" height="46" viewBox="0 0 29 46">
  <defs>
    <linearGradient id="icon-25-8-a" x1="66.439%" x2="29.902%" y1="95.932%" y2="0%">
      <stop offset="0%" stop-color="#1E85E9"/>
      <stop offset="20.276%" stop-color="#8671F3"/>
      <stop offset="70.727%" stop-color="#C06CFD" stop-opacity=".99"/>
      <stop offset="100%" stop-color="#FFBEE8"/>
    </linearGradient>
  </defs>
  <path fill="url(#icon-25-8-a)" d="M1382.5,3826.74078 C1383.32843,3826.74078 1384,3827.41236 1384,3828.24078 L1384,3828.24078 L1384,3831.74 L1403,3831.74 L1403,3828.24078 C1403,3827.46109 1403.59489,3826.82033 1404.35554,3826.74765 L1404.5,3826.74078 L1406.5,3826.74078 C1407.32843,3826.74078 1408,3827.41236 1408,3828.24078 L1408,3828.24078 L1408,3856.24078 C1408,3857.06921 1407.32843,3857.74078 1406.5,3857.74078 L1406.5,3857.74078 L1404.5,3857.74078 C1403.67157,3857.74078 1403,3857.06921 1403,3856.24078 L1403,3856.24078 L1403,3851.74 L1384,3851.74 L1384,3856.24078 C1384,3857.02048 1383.40511,3857.66123 1382.64446,3857.73392 L1382.5,3857.74078 L1380.5,3857.74078 C1379.67157,3857.74078 1379,3857.06921 1379,3856.24078 L1379,3856.24078 L1379,3828.24078 C1379,3827.41236 1379.67157,3826.74078 1380.5,3826.74078 L1380.5,3826.74078 Z M1382.5,3827.74078 L1380.5,3827.74078 C1380.22386,3827.74078 1380,3827.96464 1380,3828.24078 L1380,3828.24078 L1380,3856.24078 C1380,3856.51693 1380.22386,3856.74078 1380.5,3856.74078 L1380.5,3856.74078 L1382.5,3856.74078 C1382.77614,3856.74078 1383,3856.51693 1383,3856.24078 L1383,3856.24078 L1383,3828.24078 C1383,3827.96464 1382.77614,3827.74078 1382.5,3827.74078 L1382.5,3827.74078 Z M1404,3856.24078 C1404,3856.51693 1404.22386,3856.74078 1404.5,3856.74078 L1404.5,3856.74078 L1406.5,3856.74078 C1406.77614,3856.74078 1407,3856.51693 1407,3856.24078 L1407,3856.24078 L1407,3828.24078 C1407,3827.96464 1406.77614,3827.74078 1406.5,3827.74078 L1406.5,3827.74078 L1404.5,3827.74078 C1404.22386,3827.74078 1404,3827.96464 1404,3828.24078 L1404,3828.24078 Z M1403,3848.74078 L1384,3848.74078 L1384,3850.74078 L1403,3850.74078 L1403,3848.74078 Z M1403,3843.74 L1384,3843.74 L1384,3847.74 L1403,3847.74 L1403,3843.74 Z M1403,3840.74078 L1384,3840.74078 L1384,3842.74078 L1403,3842.74078 L1403,3840.74078 Z M1403,3835.74 L1384,3835.74 L1384,3839.74 L1403,3839.74 L1403,3835.74 Z M1403,3832.74078 L1384,3832.74078 L1384,3834.74078 L1403,3834.74078 L1403,3832.74078 Z M1392.1549,3812.83649 C1392.52153,3812.09361 1393.42097,3811.7886 1394.16385,3812.15523 C1394.45967,3812.30123 1394.69911,3812.54067 1394.8451,3812.83649 L1394.8451,3812.83649 L1396.476,3816.14278 L1400.12624,3816.67346 C1400.89784,3816.78558 1401.44639,3817.46642 1401.40894,3818.22962 L1401.40894,3818.22962 L1401.39496,3818.37357 C1401.34752,3818.70002 1401.19379,3819.00174 1400.95757,3819.232 L1400.95757,3819.232 L1398.316,3821.80478 L1398.94035,3825.44035 C1399.07215,3826.20883 1398.59414,3826.94092 1397.85672,3827.14114 L1397.85672,3827.14114 L1397.7155,3827.17233 C1397.39037,3827.2281 1397.05592,3827.17513 1396.76392,3827.02162 L1396.76392,3827.02162 L1393.499,3825.30478 L1390.23608,3827.02162 C1389.54594,3827.38444 1388.70197,3827.15606 1388.28367,3826.5166 L1388.28367,3826.5166 L1388.21037,3826.39193 C1388.05686,3826.09994 1388.00389,3825.76549 1388.05965,3825.44035 L1388.05965,3825.44035 L1388.683,3821.80478 L1386.04243,3819.232 C1385.48629,3818.68989 1385.44086,3817.82134 1385.91382,3817.22608 L1385.91382,3817.22608 L1386.01532,3817.11085 C1386.24559,3816.87463 1386.5473,3816.7209 1386.87376,3816.67346 L1386.87376,3816.67346 L1390.523,3816.14278 Z M1393.63712,3813.01941 C1393.40922,3812.95415 1393.16026,3813.05894 1393.05163,3813.27905 L1393.05163,3813.27905 L1391.187,3817.05721 L1387.01755,3817.66307 C1386.90873,3817.67888 1386.80816,3817.73012 1386.73141,3817.80886 C1386.53866,3818.00661 1386.5427,3818.32316 1386.74045,3818.51591 L1386.74045,3818.51591 L1389.75749,3821.4568 L1389.04526,3825.6094 C1389.02667,3825.71778 1389.04433,3825.82926 1389.0955,3825.92659 C1389.224,3826.17101 1389.52631,3826.26499 1389.77073,3826.13649 L1389.77073,3826.13649 L1393.5,3824.1759 L1397.22927,3826.13649 C1397.3266,3826.18766 1397.43808,3826.20531 1397.54646,3826.18672 C1397.81863,3826.14004 1398.00142,3825.88157 1397.95474,3825.6094 L1397.95474,3825.6094 L1397.24251,3821.4568 L1400.25955,3818.51591 C1400.3383,3818.43916 1400.38954,3818.33859 1400.40535,3818.22977 C1400.44506,3817.9565 1400.25572,3817.70278 1399.98245,3817.66307 L1399.98245,3817.66307 L1395.813,3817.05721 L1393.94837,3813.27905 C1393.8997,3813.18045 1393.81989,3813.10063 1393.72128,3813.05197 L1393.72128,3813.05197 Z" transform="translate(-1379 -3812)"/>
</svg>
