<svg xmlns="http://www.w3.org/2000/svg" xmlns:xlink="http://www.w3.org/1999/xlink" width="62" height="62" viewBox="0 0 62 62">
  <defs>
    <linearGradient id="icon-11-3-b" x1="100%" x2="0%" y1="100%" y2="0%">
      <stop offset="0%" stop-color="#1E85E9"/>
      <stop offset="20.276%" stop-color="#8671F3"/>
      <stop offset="70.727%" stop-color="#C06CFD" stop-opacity=".99"/>
      <stop offset="100%" stop-color="#FFBEE8"/>
    </linearGradient>
    <rect id="icon-11-3-a" width="60" height="60" x="0" y="0" rx="4"/>
    <linearGradient id="icon-11-3-c" x1="73.51%" x2="26.49%" y1="100%" y2="0%">
      <stop offset="0%" stop-color="#1E85E9"/>
      <stop offset="20.276%" stop-color="#8671F3"/>
      <stop offset="70.727%" stop-color="#C06CFD" stop-opacity=".99"/>
      <stop offset="100%" stop-color="#FFBEE8"/>
    </linearGradient>
  </defs>
  <g fill="none" fill-rule="evenodd" transform="translate(1 1)">
    <g opacity=".062">
      <use fill="#FAFAFA" xlink:href="#icon-11-3-a"/>
      <use fill="url(#icon-11-3-b)" stroke="#000" stroke-opacity=".02" xlink:href="#icon-11-3-a"/>
    </g>
    <path fill="url(#icon-11-3-c)" fill-rule="nonzero" d="M35.977062,11.2633302 L18.3923153,28.8386324 C17.8754408,29.3552293 17.8683911,30.1999649 18.3765692,30.7254021 C18.6233111,30.980524 18.9605092,31.1242164 19.3124532,31.1242164 L25.2634169,31.1242164 C25.8961976,31.1242164 26.4091677,31.6456846 26.4091677,32.2889482 C26.4091677,32.4316932 26.3833557,32.5732221 26.3330186,32.70648 L21.7824246,44.7532945 C21.6036955,45.2264451 21.8361206,45.7572983 22.3015604,45.9389883 C22.6208979,46.0636455 22.982114,45.9941126 23.23451,45.7593985 L41.5734071,28.7052597 C42.1082316,28.2079031 42.1451759,27.3639724 41.6559244,26.8202877 C41.407295,26.5439962 41.0558945,26.3866358 40.687539,26.3866358 L34.8847807,26.3866358 C34.2520001,26.3866358 33.73903,25.8651677 33.73903,25.2219041 C33.73903,25.1103342 33.7547992,24.9993432 33.7858544,24.892333 L37.4758247,12.1774027 L37.5011205,12.0649687 C37.5736437,11.6149374 37.3068235,11.1699082 36.8654076,11.0375264 C36.550927,10.9432128 36.210867,11.0296508 35.977062,11.2633302 Z M19.0836553,29.5534522 L36.4386988,12.2058528 L32.840051,24.608684 C32.7822678,24.8077937 32.7529265,25.0143104 32.7529265,25.2219041 C32.7529265,26.4187998 33.7073902,27.3890755 34.8847807,27.3890755 L40.687539,27.3890755 C40.7791328,27.3890755 40.8665107,27.4282042 40.928334,27.4969057 L40.9724818,27.5589465 C41.0448381,27.6902943 41.0218047,27.8596121 40.9078155,27.9656156 L22.8284991,44.7771237 L27.2535835,33.0658334 C27.3472439,32.8178858 27.3952711,32.5545482 27.3952711,32.2889482 C27.3952711,31.0920525 26.4408075,30.1217767 25.2634169,30.1217767 L19.3124532,30.1217767 C19.2249402,30.1217767 19.1410938,30.0860467 19.0797399,30.0226091 C18.9533783,29.8919559 18.9551313,29.6819072 19.0836553,29.5534522 Z"/>
  </g>
</svg>
