<svg xmlns="http://www.w3.org/2000/svg" xmlns:xlink="http://www.w3.org/1999/xlink" width="62" height="62" viewBox="0 0 62 62">
  <defs>
    <linearGradient id="icon-8-2-b" x1="100%" x2="0%" y1="100%" y2="0%">
      <stop offset="0%" stop-color="#1E85E9"/>
      <stop offset="20.276%" stop-color="#8671F3"/>
      <stop offset="70.727%" stop-color="#C06CFD" stop-opacity=".99"/>
      <stop offset="100%" stop-color="#FFBEE8"/>
    </linearGradient>
    <rect id="icon-8-2-a" width="60" height="60" x="0" y="0" rx="4"/>
    <linearGradient id="icon-8-2-c" x1="84.358%" x2="15.642%" y1="100%" y2="0%">
      <stop offset="0%" stop-color="#1E85E9"/>
      <stop offset="20.276%" stop-color="#8671F3"/>
      <stop offset="70.727%" stop-color="#C06CFD" stop-opacity=".99"/>
      <stop offset="100%" stop-color="#FFBEE8"/>
    </linearGradient>
  </defs>
  <g fill="none" fill-rule="evenodd" transform="translate(1 1)">
    <g opacity=".062">
      <use fill="#FAFAFA" xlink:href="#icon-8-2-a"/>
      <use fill="url(#icon-8-2-b)" stroke="#000" stroke-opacity=".02" xlink:href="#icon-8-2-a"/>
    </g>
    <path fill="url(#icon-8-2-c)" fill-rule="nonzero" d="M30.58868,10 C31.9579924,10 33.0959098,10.9891233 33.3247335,12.2907629 L35.7833333,12.2909564 C36.5205639,12.2909564 37.1544954,12.7823011 37.2265246,13.4504882 L37.2333333,13.5777688 L37.233,14.221 L41.6477778,14.221175 C42.8876447,14.221175 43.9113874,15.1437527 43.9945468,16.3223208 L44,16.477444 L44.0013025,24.0307699 C43.6949517,23.7232662 43.3720264,23.4322865 43.0339799,23.1592839 L43.0333333,16.477444 C43.0333333,15.8115922 42.4885476,15.2553822 41.782048,15.1922498 L41.6477778,15.1862843 L37.233,15.186 L37.2333333,16.7947998 C37.2333333,17.4838636 36.6427683,18.0157414 35.9202416,18.075931 L35.7833333,18.0816122 L23.2166667,18.0816122 C22.4794361,18.0816122 21.8455046,17.5902675 21.7734754,16.9220804 L21.7666667,16.7947998 L21.766,15.186 L17.3522222,15.1862843 C16.6270048,15.1862843 16.0395592,15.7033264 15.9729574,16.3539753 L15.9666667,16.477444 L15.9666667,45.743731 C15.9666667,46.4095829 16.5114524,46.9657928 17.217952,47.0289252 L17.3522222,47.0348907 L41.6477778,47.0348907 C42.3729952,47.0348907 42.9604408,46.5178486 43.0270426,45.8671997 L43.0333333,45.743731 L43.0339799,41.8407161 C43.3720264,41.5677135 43.6949517,41.2767338 44.0013025,40.9692301 L44,45.743731 C44,46.943299 43.0279184,47.9158587 41.8082143,47.9948228 L41.6477778,48 L17.3522222,48 C16.1123553,48 15.0886126,47.0774223 15.0054532,45.8988542 L15,45.743731 L15,16.477444 C15,15.277876 15.9720816,14.3053163 17.1917857,14.2263522 L17.3522222,14.221175 L21.766,14.221 L21.7666667,13.5777688 C21.7666667,12.888705 22.3572317,12.3568272 23.0797584,12.2966376 L23.2166667,12.2909564 L25.6753631,12.290214 C25.8952433,11.040928 26.9525835,10.0796508 28.2480922,10.0047082 L28.41132,10 L30.58868,10 Z M35.5,21.5 C41.5751322,21.5 46.5,26.4248678 46.5,32.5 C46.5,38.5751322 41.5751322,43.5 35.5,43.5 C29.4248678,43.5 24.5,38.5751322 24.5,32.5 C24.5,26.4248678 29.4248678,21.5 35.5,21.5 Z M35.5,22.5 C29.9771525,22.5 25.5,26.9771525 25.5,32.5 C25.5,38.0228475 29.9771525,42.5 35.5,42.5 C41.0228475,42.5 45.5,38.0228475 45.5,32.5 C45.5,26.9771525 41.0228475,22.5 35.5,22.5 Z M22.25,36.4186886 C22.4872779,36.4186886 22.6846214,36.5893924 22.7255462,36.8145034 L22.7333333,36.9012432 L22.7333333,40.7616804 C22.7333333,40.998576 22.562354,41.1956016 22.3368798,41.2364604 L22.25,41.244235 L18.3833333,41.244235 C18.1460554,41.244235 17.9487119,41.0735311 17.9077871,40.8484202 L17.9,40.7616804 L17.9,36.9012432 C17.9,36.6643476 18.0709793,36.467322 18.2964536,36.4264632 L18.3833333,36.4186886 L22.25,36.4186886 Z M21.7666667,37.3830458 L18.8666667,37.3830458 L18.8666667,40.2783736 L21.7666667,40.2783736 L21.7666667,37.3830458 Z M42.1851229,29.1679745 C42.3481208,29.3515017 42.3514385,29.621595 42.2051543,29.8081385 L42.1433048,29.8738436 L33.6986922,37.3738436 C33.5128055,37.538937 33.2386757,37.5399547 33.0522953,37.3889264 L32.9868597,37.3251871 L29.120193,32.8090581 C28.9405971,32.5992965 28.9650513,32.2836599 29.1748129,32.104064 C29.3612676,31.9444232 29.6313767,31.9460071 29.815235,32.0956523 L29.879807,32.1586839 L33.415,36.288 L41.4792538,29.1261564 C41.6857219,28.9427838 42.0017503,28.9615063 42.1851229,29.1679745 Z M22.25,29.6629236 C22.4872779,29.6629236 22.6846214,29.8336274 22.7255462,30.0587384 L22.7333333,30.1454782 L22.7333333,34.0059154 C22.7333333,34.242811 22.562354,34.4398366 22.3368798,34.4806954 L22.25,34.48847 L18.3833333,34.48847 C18.1460554,34.48847 17.9487119,34.3177661 17.9077871,34.0926552 L17.9,34.0059154 L17.9,30.1454782 C17.9,29.9085826 18.0709793,29.711557 18.2964536,29.6706982 L18.3833333,29.6629236 L22.25,29.6629236 Z M21.7666667,30.6272808 L18.8666667,30.6272808 L18.8666667,33.5226086 L21.7666667,33.5226086 L21.7666667,30.6272808 Z M22.25,22.9071586 C22.4872779,22.9071586 22.6846214,23.0778624 22.7255462,23.3029734 L22.7333333,23.3897132 L22.7333333,27.2501504 C22.7333333,27.487046 22.562354,27.6840716 22.3368798,27.7249304 L22.25,27.732705 L18.3833333,27.732705 C18.1460554,27.732705 17.9487119,27.5620011 17.9077871,27.3368902 L17.9,27.2501504 L17.9,23.3897132 C17.9,23.1528176 18.0709793,22.955792 18.2964536,22.9149332 L18.3833333,22.9071586 L22.25,22.9071586 Z M21.7666667,23.8715158 L18.8666667,23.8715158 L18.8666667,26.7668436 L21.7666667,26.7668436 L21.7666667,23.8715158 Z M35.7833333,13.2560657 L23.2166667,13.2560657 C22.967779,13.2560657 22.7843927,13.3827574 22.742435,13.519091 L22.7333333,13.5777688 L22.7333333,16.7947998 C22.7333333,16.9314995 22.8856087,17.0752786 23.1142322,17.1090875 L23.2166667,17.1165029 L35.7833333,17.1165029 C36.032221,17.1165029 36.2156073,16.9898112 36.257565,16.8534775 L36.2666667,16.7947998 L36.2666667,13.5777688 C36.2666667,13.4215406 36.0677764,13.2560657 35.7833333,13.2560657 Z M30.58868,10.9651093 L28.41132,10.9651093 C27.5785349,10.9651093 26.877015,11.526217 26.6653501,12.2904204 L32.3346087,12.2902718 C32.1350052,11.5698562 31.5000651,11.0299619 30.7302336,10.9705501 L30.58868,10.9651093 Z"/>
  </g>
</svg>
