<svg xmlns="http://www.w3.org/2000/svg" width="40" height="27" viewBox="0 0 40 27">
  <defs>
    <linearGradient id="icon-15-3-a" x1="100%" x2="0%" y1="72.384%" y2="27.616%">
      <stop offset="0%" stop-color="#1E85E9"/>
      <stop offset="20.276%" stop-color="#8671F3"/>
      <stop offset="70.727%" stop-color="#C06CFD" stop-opacity=".99"/>
      <stop offset="100%" stop-color="#FFBEE8"/>
    </linearGradient>
  </defs>
  <path fill="url(#icon-15-3-a)" d="M679.000122,2412 C681.209261,2412 683.000122,2413.79086 683.000122,2416 C683.000122,2417.9143 681.655387,2419.51452 679.859018,2419.90757 L700.938811,2425.41658 C699.746956,2424.32002 699.000122,2422.74723 699.000122,2421 C699.000122,2417.68629 701.686414,2415 705.000122,2415 C708.313831,2415 711.000122,2417.68629 711.000122,2421 C711.000122,2423.83781 709.030007,2426.21548 706.382894,2426.83988 L711.567478,2428.19423 C711.834645,2428.26406 711.994619,2428.53725 711.92479,2428.80442 C711.85496,2429.07158 711.58177,2429.23156 711.314603,2429.16173 L691.322,2423.936 L698.939676,2437.98581 C699.106407,2438.29334 698.913705,2438.66222 698.585002,2438.71715 L698.500122,2438.72412 L682.500122,2438.72412 C682.120757,2438.72412 681.879585,2438.3182 682.060996,2437.98502 L682.060996,2437.98502 L689.911,2423.567 L672.373685,2418.98375 C672.106517,2418.91392 671.946543,2418.64073 672.016373,2418.37356 C672.078443,2418.13608 672.301194,2417.98329 672.537568,2418.00132 L672.62656,2418.01625 L676.341142,2418.98834 C675.518349,2418.2557 675.000122,2417.18837 675.000122,2416 C675.000122,2413.79086 676.790983,2412 679.000122,2412 Z M690.516122,2424.547 L683.341122,2437.724 L697.660122,2437.724 L690.516122,2424.547 Z M705.000122,2416 C702.238698,2416 700.000122,2418.23858 700.000122,2421 C700.000122,2423.76142 702.238698,2426 705.000122,2426 C707.761546,2426 710.000122,2423.76142 710.000122,2421 C710.000122,2418.23858 707.761546,2416 705.000122,2416 Z M679.000122,2413 C677.343268,2413 676.000122,2414.34315 676.000122,2416 C676.000122,2417.65685 677.343268,2419 679.000122,2419 C680.656976,2419 682.000122,2417.65685 682.000122,2416 C682.000122,2414.34315 680.656976,2413 679.000122,2413 Z" transform="translate(-672 -2412)"/>
</svg>
