<svg xmlns="http://www.w3.org/2000/svg" width="38" height="38" viewBox="0 0 38 38">
  <defs>
    <linearGradient id="icon-19-5-a" x1="98.693%" x2="1.307%" y1="100%" y2="0%">
      <stop offset="0%" stop-color="#1E85E9"/>
      <stop offset="20.276%" stop-color="#8671F3"/>
      <stop offset="70.727%" stop-color="#C06CFD" stop-opacity=".99"/>
      <stop offset="100%" stop-color="#FFBEE8"/>
    </linearGradient>
  </defs>
  <path fill="url(#icon-19-5-a)" d="M991,2970 C992.104569,2970 993,2970.89543 993,2972 L993,2972 L993.000554,2983.18362 C994.464247,2983.73724 995.5,2985.4771 995.5,2987.5 C995.5,2989.52299 994.464147,2991.26292 993.000342,2991.81646 L993,3003 C993,3004.10457 992.104569,3005 991,3005 C990.228408,3005 989.558869,3004.56306 989.225316,3003.92312 L969.451,2994.186 L973.151555,3008 L965.866302,3008 L961.980404,2993.49363 C959.641871,2992.50937 958,2990.19642 958,2987.5 C958,2983.91015 960.910149,2981 964.5,2981 L964.5,2981 L969.071,2981 L989.225316,2971.07688 C989.537164,2970.47858 990.142696,2970.05772 990.850738,2970.00549 Z M968.366,2994 L963.151,2994 L966.633,3007 L971.849,3007 L968.366,2994 Z M991,2971 C990.447715,2971 990,2971.44772 990,2972 L990,2972 L990,3003 C990,3003.55228 990.447715,3004 991,3004 C991.552285,3004 992,3003.55228 992,3003 L992,3003 L992,2972 C992,2971.44772 991.552285,2971 991,2971 Z M989,2972.302 L970,2981.656 L970,2993.343 L989,3002.697 L989,2972.302 Z M969,2982 L964.5,2982 C961.536521,2982 959.120461,2984.34378 959.004367,2987.27879 L959.004367,2987.27879 L959,2987.5 C959,2990.53757 961.462434,2993 964.5,2993 L964.5,2993 L969,2993 L969,2982 Z M993.001077,2984.29754 L993.001077,2990.70246 C993.870905,2990.16326 994.5,2988.94548 994.5,2987.5 C994.5,2986.05452 993.870905,2984.83674 993.001077,2984.29754 Z" transform="translate(-958 -2970)"/>
</svg>
