<svg xmlns="http://www.w3.org/2000/svg" width="40" height="32" viewBox="0 0 40 32">
  <defs>
    <linearGradient id="ico-services-2-a" x1="100%" x2="0%" y1="82%" y2="18%">
      <stop offset="0%" stop-color="#1E85E9"/>
      <stop offset="20.276%" stop-color="#8671F3"/>
      <stop offset="70.727%" stop-color="#C06CFD" stop-opacity=".99"/>
      <stop offset="100%" stop-color="#FFBEE8"/>
    </linearGradient>
  </defs>
  <path fill="url(#ico-services-2-a)" d="M60,54.1714286 C60,55.1813207 59.1670414,56 58.1395349,56 L21.8604651,56 C20.8329586,56 20,55.1813207 20,54.1714286 L20,25.8285714 C20,24.8186793 20.8329586,24 21.8604651,24 L58.1395349,24 C59.1670414,24 60,24.8186793 60,25.8285714 L60,54.1714286 Z M59.069,33.42 L20.93,33.42 L20.9302326,54.1714286 C20.9302326,54.6403071 21.2893397,55.0267494 21.7519803,55.0795632 L21.8604651,55.0857143 L58.1395349,55.0857143 C58.6165915,55.0857143 59.0097741,54.7327633 59.0635091,54.2780536 L59.0697674,54.1714286 L59.069,33.42 Z M58.1395349,24.9142857 L21.8604651,24.9142857 C21.3834085,24.9142857 20.9902259,25.2672367 20.9364909,25.7219464 L20.9302326,25.8285714 L20.93,32.47 L59.069,32.47 L59.0697674,25.8285714 C59.0697674,25.3596929 58.7106603,24.9732506 58.2480197,24.9204368 L58.1395349,24.9142857 Z M24.7619048,26.8235294 C25.8138757,26.8235294 26.6666667,27.6662875 26.6666667,28.7058824 C26.6666667,29.7454772 25.8138757,30.5882353 24.7619048,30.5882353 C23.7099338,30.5882353 22.8571429,29.7454772 22.8571429,28.7058824 C22.8571429,27.6662875 23.7099338,26.8235294 24.7619048,26.8235294 Z M29.5238095,26.8235294 C30.5757805,26.8235294 31.4285714,27.6662875 31.4285714,28.7058824 C31.4285714,29.7454772 30.5757805,30.5882353 29.5238095,30.5882353 C28.4718386,30.5882353 27.6190476,29.7454772 27.6190476,28.7058824 C27.6190476,27.6662875 28.4718386,26.8235294 29.5238095,26.8235294 Z M34.2857143,26.8235294 C35.3376852,26.8235294 36.1904762,27.6662875 36.1904762,28.7058824 C36.1904762,29.7454772 35.3376852,30.5882353 34.2857143,30.5882353 C33.2337433,30.5882353 32.3809524,29.7454772 32.3809524,28.7058824 C32.3809524,27.6662875 33.2337433,26.8235294 34.2857143,26.8235294 Z M24.7619048,27.7647059 C24.2359193,27.7647059 23.8095238,28.1860849 23.8095238,28.7058824 C23.8095238,29.2256798 24.2359193,29.6470588 24.7619048,29.6470588 C25.2878902,29.6470588 25.7142857,29.2256798 25.7142857,28.7058824 C25.7142857,28.1860849 25.2878902,27.7647059 24.7619048,27.7647059 Z M29.5238095,27.7647059 C28.997824,27.7647059 28.5714286,28.1860849 28.5714286,28.7058824 C28.5714286,29.2256798 28.997824,29.6470588 29.5238095,29.6470588 C30.049795,29.6470588 30.4761905,29.2256798 30.4761905,28.7058824 C30.4761905,28.1860849 30.049795,27.7647059 29.5238095,27.7647059 Z M34.2857143,27.7647059 C33.7597288,27.7647059 33.3333333,28.1860849 33.3333333,28.7058824 C33.3333333,29.2256798 33.7597288,29.6470588 34.2857143,29.6470588 C34.8116998,29.6470588 35.2380952,29.2256798 35.2380952,28.7058824 C35.2380952,28.1860849 34.8116998,27.7647059 34.2857143,27.7647059 Z" transform="translate(-20 -24)"/>
</svg>
