<?xml version="1.0" encoding="UTF-8"?>
<svg width="40px" height="26px" viewBox="0 0 40 26" version="1.1" xmlns="http://www.w3.org/2000/svg" xmlns:xlink="http://www.w3.org/1999/xlink">
    <title>icon-29-5</title>
    <defs>
        <linearGradient x1="100%" y1="71.125%" x2="0%" y2="28.875%" id="linearGradient-1">
            <stop stop-color="#1E85E9" offset="0%"></stop>
            <stop stop-color="#8671F3" offset="20.275549%"></stop>
            <stop stop-color="#C06CFD" stop-opacity="0.99" offset="70.7268792%"></stop>
            <stop stop-color="#FFBEE8" offset="100%"></stop>
        </linearGradient>
    </defs>
    <g id="Page-1" stroke="none" stroke-width="1" fill="none" fill-rule="evenodd">
        <g id="icons" transform="translate(-953.000000, -4373.000000)" fill="url(#linearGradient-1)" fill-rule="nonzero">
            <path d="M969,4373 C972.99092,4373 976.600798,4375.14446 978.542635,4378.52466 C979.306013,4378.1814 980.140152,4378 981,4378 C984.313708,4378 987,4380.68629 987,4384 L986.996737,4384.14939 C990.452342,4384.84836 993,4387.90263 993,4391.5 C993,4395.64214 989.642136,4399 985.5,4399 L985.5,4399 L960.568848,4399 L960.568423,4398.98856 C956.350818,4398.76435 953,4395.27349 953,4391 C953,4387.70022 955.016214,4384.78416 958.008186,4383.57827 C958.229123,4377.69901 963.065805,4373 969,4373 Z M969,4374 C963.53666,4374 959.096602,4378.38119 959.001555,4383.82185 L958.991,4383.783 L959.008764,4383.85527 C959.017755,4383.9214 959.013164,4383.98737 958.996655,4384.04971 L959,4384 C959,4384.27614 958.776142,4384.5 958.5,4384.5 L958.417474,4384.49159 C955.780252,4385.53787 954,4388.09961 954,4391 C954,4394.86599 957.134007,4398 961,4398 L961.01,4398 L985.489797,4398.0001 C985.49319,4398.00003 985.496591,4398 985.5,4398 C989.089851,4398 992,4395.08985 992,4391.5 C992,4388.41518 989.837844,4385.79072 986.89215,4385.14923 L986.727839,4385.11698 C986.632307,4385.17886 986.515244,4385.20862 986.393484,4385.19322 C986.119525,4385.15857 985.925531,4384.90838 985.960186,4384.63442 C985.986644,4384.42526 986,4384.21353 986,4384 C986,4381.23858 983.761424,4379 981,4379 C980.106546,4379 979.248459,4379.23421 978.493299,4379.6727 C978.254495,4379.81136 977.948498,4379.73018 977.809836,4379.49138 C977.74839,4379.38555 977.730114,4379.26654 977.749595,4379.15473 L977.888463,4379.41317 C976.182991,4376.11529 972.779771,4374 969,4374 Z M980.947426,4384.5 C981.122915,4384.5 981.306381,4384.5086 981.481871,4384.53404 C981.665337,4384.55957 981.83277,4384.5937 982.000363,4384.62766 C982.159898,4384.67021 982.311378,4384.71277 982.45504,4384.76391 C982.598622,4384.81489 982.710297,4384.86596 982.790065,4384.91702 C982.90174,4384.98511 982.981508,4385.05319 983.029369,4385.12979 C983.07723,4385.19787 983.10116,4385.29149 983.10116,4385.41064 L983.10116,4385.81064 C983.10116,4385.98936 983.037346,4386.08306 982.917694,4386.08306 C982.85388,4386.08306 982.750181,4386.04894 982.614576,4385.98085 C982.159898,4385.75957 981.649384,4385.64894 981.083031,4385.64894 C980.628354,4385.64894 980.269398,4385.72553 980.022117,4385.88723 C979.774837,4386.04894 979.647208,4386.29583 979.647208,4386.64468 C979.647208,4386.88298 979.726976,4387.08723 979.886512,4387.24894 C980.046048,4387.41064 980.341189,4387.57243 980.763959,4387.71702 L981.896664,4388.1 C982.470993,4388.29583 982.885787,4388.56809 983.133067,4388.91702 C983.380348,4389.26596 983.5,4389.66596 983.5,4390.10851 C983.5,4390.47447 983.428209,4390.80647 983.292603,4391.09574 C983.149021,4391.38511 982.957578,4391.64043 982.710297,4391.84468 C982.463017,4392.05745 982.167875,4392.21072 981.824873,4392.32128 C981.465917,4392.44051 981.091008,4392.5 980.684191,4392.5 C980.269398,4392.5 979.854605,4392.44894 979.455765,4392.34681 C979.056925,4392.24468 978.74583,4392.13404 978.538434,4392.00638 C978.410805,4391.92979 978.32298,4391.84468 978.291153,4391.76809 C978.259246,4391.69149 978.243212,4391.60638 978.243212,4391.52987 L978.243212,4391.09574 C978.243212,4390.91702 978.307107,4390.83191 978.426759,4390.83191 C978.474619,4390.83191 978.5224,4390.84043 978.570341,4390.85745 C978.618202,4390.87447 978.689993,4390.90851 978.769761,4390.94255 C979.040892,4391.07021 979.336113,4391.17234 979.647208,4391.24043 C979.96628,4391.30851 980.277295,4391.34255 980.596367,4391.34255 C981.098985,4391.34255 981.489848,4391.24894 981.761059,4391.06179 C982.03219,4390.87447 982.175852,4390.60213 982.175852,4390.25328 C982.175852,4390.01489 982.104061,4389.81915 981.960479,4389.65753 C981.816896,4389.49574 981.545685,4389.35106 981.154743,4389.21489 L979.998107,4388.83191 C979.415881,4388.63626 978.985134,4388.34681 978.72182,4387.96383 C978.458666,4387.58936 978.32298,4387.17234 978.32298,4386.72979 C978.32298,4386.37234 978.394851,4386.05745 978.538434,4385.78519 C978.681936,4385.51277 978.873459,4385.27455 979.112763,4385.08723 C979.352067,4384.89157 979.623278,4384.74681 979.94235,4384.64468 C980.261421,4384.54255 980.596367,4384.5 980.947426,4384.5 Z M964.499275,4384.51702 C965.448513,4384.51702 966.142495,4384.74681 966.589195,4385.20638 C967.027919,4385.66596 967.251269,4386.36383 967.251269,4387.3 L967.251269,4390.05745 L967.267223,4390.05745 C967.267223,4390.37234 967.29913,4390.62766 967.354967,4390.81489 C967.418782,4391.00213 967.49855,4391.20638 967.610225,4391.42766 C967.650109,4391.49574 967.666062,4391.56383 967.666062,4391.6234 C967.666062,4391.70851 967.618202,4391.79362 967.514503,4391.87872 L967.011965,4392.23617 C966.940174,4392.28723 966.868383,4392.31285 966.804569,4392.31285 C966.724801,4392.31285 966.645033,4392.2703 966.565265,4392.19362 C966.45359,4392.06596 966.357868,4391.92979 966.2781,4391.79362 C966.198332,4391.64894 966.118564,4391.48732 966.030819,4391.29149 C965.408629,4392.07447 964.626904,4392.46604 963.685642,4392.46604 C963.015591,4392.46604 962.481146,4392.2617 962.090283,4391.85319 C961.69942,4391.44477 961.5,4390.9 961.5,4390.21915 C961.5,4389.49574 961.739304,4388.90851 962.225888,4388.46604 C962.712473,4388.0234 963.358593,4387.80213 964.180203,4387.80213 C964.451414,4387.80213 964.730602,4387.82774 965.025743,4387.8703 C965.320885,4387.91285 965.624003,4387.98085 965.943075,4388.05745 L965.943075,4387.43617 C965.943075,4386.78936 965.815446,4386.33838 965.568165,4386.07447 C965.312908,4385.81064 964.882161,4385.68298 964.267948,4385.68298 C963.98876,4385.68298 963.701595,4385.71702 963.406454,4385.79362 C963.111313,4385.8703 962.824148,4385.96383 962.54496,4386.08306 C962.417331,4386.14255 962.32161,4386.1766 962.265772,4386.19362 C962.209935,4386.21072 962.170051,4386.21915 962.138144,4386.21915 C962.026468,4386.21915 961.970631,4386.13404 961.970631,4385.9554 L961.970631,4385.5383 C961.970631,4385.40221 961.986584,4385.3 962.026468,4385.24043 C962.066352,4385.18085 962.138144,4385.12128 962.249819,4385.06179 C962.529007,4384.90851 962.864032,4384.78085 963.254895,4384.67881 C963.645758,4384.56809 964.060551,4384.51702 964.499275,4384.51702 Z M968.99021,4384.72136 C969.141769,4384.72136 969.245468,4384.74681 969.301305,4384.80647 C969.36512,4384.85745 969.41298,4384.97668 969.460841,4385.1383 L970.800943,4390.77234 L972.045323,4385.1383 C972.085207,4384.96809 972.133067,4384.85745 972.196882,4384.80647 C972.260696,4384.75532 972.372371,4384.72136 972.515954,4384.72136 L973.154097,4384.72136 C973.305656,4384.72136 973.409355,4384.74681 973.473169,4384.80647 C973.536904,4384.85745 973.592821,4384.97668 973.624728,4385.1383 L974.885,4390.838 L976.265047,4385.1383 C976.312908,4384.96809 976.368666,4384.85745 976.424583,4384.80647 C976.488318,4384.75532 976.592096,4384.72136 976.735678,4384.72136 L977.47752,4384.72136 C977.605069,4384.72136 977.67694,4384.78936 977.67694,4384.93413 C977.67694,4384.97668 977.668963,4385.01923 977.660986,4385.07021 C977.653009,4385.12128 977.637056,4385.18945 977.605069,4385.28298 L975.682741,4391.8617 C975.63488,4392.03191 975.579043,4392.14255 975.515228,4392.19362 C975.451334,4392.24468 975.347716,4392.27872 975.21203,4392.27872 L974.526106,4392.27872 C974.374467,4392.27872 974.270848,4392.25328 974.207034,4392.19362 C974.14322,4392.13404 974.087382,4392.0234 974.055395,4391.85319 L972.818992,4386.36383 L971.590645,4391.84468 C971.550761,4392.01489 971.502901,4392.12562 971.439086,4392.18511 C971.375272,4392.24468 971.263597,4392.2703 971.120015,4392.2703 L970.43401,4392.2703 C970.290428,4392.2703 970.194706,4392.24468 970.130892,4392.18511 C970.067078,4392.13404 970.01124,4392.01489 969.963379,4391.85319 L968.088832,4385.27455 C968.040972,4385.10434 968.017041,4384.99362 968.017041,4384.93413 C968.017041,4384.79787 968.080856,4384.72136 968.208484,4384.72136 L968.99021,4384.72136 Z M964.475344,4388.81489 C963.940899,4388.81489 963.550036,4388.92553 963.286802,4389.15532 C963.023568,4389.38511 962.895939,4389.70851 962.895939,4390.13404 C962.895939,4390.53404 962.991661,4390.83191 963.19108,4391.03617 C963.382524,4391.24894 963.661711,4391.35106 964.028644,4391.35106 C964.291878,4391.35106 964.563089,4391.3 964.850254,4391.19787 C965.137418,4391.09574 965.392676,4390.90851 965.608049,4390.65319 C965.735678,4390.49149 965.8314,4390.31277 965.87926,4390.10851 C965.927121,4389.90426 965.959028,4389.65753 965.959028,4389.36809 L965.959028,4389.01064 C965.727701,4388.95106 965.480421,4388.9 965.225163,4388.86596 C964.969906,4388.83191 964.722625,4388.81489 964.475344,4388.81489 Z" id="icon-29-5"></path>
        </g>
    </g>
</svg>