<svg xmlns="http://www.w3.org/2000/svg" width="39" height="39" viewBox="0 0 39 39">
  <defs>
    <linearGradient id="icon-23-6-a" x1="99.592%" x2=".408%" y1="100%" y2="0%">
      <stop offset="0%" stop-color="#1E85E9"/>
      <stop offset="20.276%" stop-color="#8671F3"/>
      <stop offset="70.727%" stop-color="#C06CFD" stop-opacity=".99"/>
      <stop offset="100%" stop-color="#FFBEE8"/>
    </linearGradient>
  </defs>
  <path fill="url(#icon-23-6-a)" d="M1114.15483,3557 C1117.00504,3557 1119.58899,3558.54728 1120.98777,3561.0045 C1121.12438,3561.24448 1121.04058,3561.54977 1120.8006,3561.68638 C1120.56062,3561.82299 1120.25533,3561.73919 1120.11871,3561.49921 C1118.89538,3559.35019 1116.64057,3558 1114.15483,3558 C1110.35388,3558 1107.26944,3561.1323 1107.26944,3565 C1107.26944,3568.8677 1110.35388,3572 1114.15483,3572 C1116.79264,3572 1119.16339,3570.47847 1120.32054,3568.11944 C1120.44215,3567.87152 1120.74172,3567.76913 1120.98964,3567.89074 C1121.23756,3568.01235 1121.33996,3568.31191 1121.21835,3568.55984 C1119.89538,3571.25689 1117.17939,3573 1114.15483,3573 C1109.79812,3573 1106.26944,3569.41657 1106.26944,3565 C1106.26944,3560.58343 1109.79812,3557 1114.15483,3557 Z M1130.34058,3541.50537 C1131.66606,3541.50537 1132.75061,3542.53691 1132.83526,3543.841 L1132.84058,3544.00537 L1132.84058,3563 C1132.84058,3564.32548 1131.80904,3565.41004 1130.50495,3565.49468 L1130.34058,3565.5 L1116.9584,3565.5007 C1116.72008,3566.91921 1115.48626,3568 1114,3568 C1112.34315,3568 1111,3566.65685 1111,3565 C1111,3563.34315 1112.34315,3562 1114,3562 C1115.4866,3562 1116.72065,3563.08129 1116.95857,3564.50029 L1130.34058,3564.5 C1131.12027,3564.5 1131.76102,3563.90511 1131.83371,3563.14446 L1131.84058,3563 L1131.84058,3544.00537 C1131.84058,3543.22567 1131.24569,3542.58492 1130.48504,3542.51224 L1130.34058,3542.50537 L1123.75562,3542.50537 C1123.47947,3542.50537 1123.25562,3542.28151 1123.25562,3542.00537 C1123.25562,3541.75991 1123.43249,3541.55576 1123.66574,3541.51343 L1123.75562,3541.50537 L1130.34058,3541.50537 Z M1114,3563 C1112.89543,3563 1112,3563.89543 1112,3565 C1112,3566.10457 1112.89543,3567 1114,3567 C1115.10457,3567 1116,3566.10457 1116,3565 C1116,3563.89543 1115.10457,3563 1114,3563 Z M1112.84058,3539 C1114.49743,3539 1115.84058,3540.34315 1115.84058,3542 C1115.84058,3543.65685 1114.49743,3545 1112.84058,3545 C1111.35432,3545 1110.1205,3543.91921 1109.88217,3542.5007 L1096.5,3542.5 C1095.7203,3542.5 1095.07955,3543.09489 1095.00687,3543.85554 L1095,3544 L1095,3562.99463 C1095,3563.77433 1095.59489,3564.41508 1096.35554,3564.48776 L1096.5,3564.49463 L1103.08496,3564.49463 C1103.3611,3564.49463 1103.58496,3564.71849 1103.58496,3564.99463 C1103.58496,3565.24009 1103.40809,3565.44424 1103.17484,3565.48657 L1103.08496,3565.49463 L1096.5,3565.49463 C1095.17452,3565.49463 1094.08996,3564.46309 1094.00532,3563.159 L1094,3562.99463 L1094,3544 C1094,3542.67452 1095.03154,3541.58996 1096.33562,3541.50532 L1096.5,3541.5 L1109.88201,3541.50029 C1110.11992,3540.08129 1111.35398,3539 1112.84058,3539 Z M1112.68574,3534 C1117.04246,3534 1120.57113,3537.58343 1120.57113,3542 C1120.57113,3546.41657 1117.04246,3550 1112.68574,3550 C1109.83553,3550 1107.25158,3548.45272 1105.85281,3545.9955 C1105.71619,3545.75552 1105.79999,3545.45023 1106.03998,3545.31362 C1106.27996,3545.17701 1106.58525,3545.26081 1106.72186,3545.50079 C1107.9452,3547.64981 1110.20001,3549 1112.68574,3549 C1116.4867,3549 1119.57113,3545.8677 1119.57113,3542 C1119.57113,3538.1323 1116.4867,3535 1112.68574,3535 C1110.04793,3535 1107.67719,3536.52153 1106.52003,3538.88056 C1106.39842,3539.12848 1106.09886,3539.23087 1105.85093,3539.10926 C1105.60301,3538.98765 1105.50062,3538.68809 1105.62223,3538.44016 C1106.94519,3535.74311 1109.66118,3534 1112.68574,3534 Z M1112.84058,3540 C1111.73601,3540 1110.84058,3540.89543 1110.84058,3542 C1110.84058,3543.10457 1111.73601,3544 1112.84058,3544 C1113.94515,3544 1114.84058,3543.10457 1114.84058,3542 C1114.84058,3540.89543 1113.94515,3540 1112.84058,3540 Z" transform="translate(-1094 -3534)"/>
</svg>
