<svg xmlns="http://www.w3.org/2000/svg" xmlns:xlink="http://www.w3.org/1999/xlink" width="62" height="62" viewBox="0 0 62 62">
  <defs>
    <linearGradient id="icon-7-3-b" x1="100%" x2="0%" y1="100%" y2="0%">
      <stop offset="0%" stop-color="#FFBEE8"/>
      <stop offset="29.273%" stop-color="#C06CFD" stop-opacity=".99"/>
      <stop offset="79.724%" stop-color="#8671F3"/>
      <stop offset="100%" stop-color="#1E85E9"/>
    </linearGradient>
    <rect id="icon-7-3-a" width="60" height="60" x="0" y="0" rx="4"/>
    <linearGradient id="icon-7-3-c" x1="99.077%" x2="2.759%" y1="91.731%" y2="-1.772%">
      <stop offset="0%" stop-color="#1E85E9"/>
      <stop offset="20.276%" stop-color="#8671F3"/>
      <stop offset="70.727%" stop-color="#C06CFD" stop-opacity=".99"/>
      <stop offset="100%" stop-color="#FFBEE8"/>
    </linearGradient>
  </defs>
  <g fill="none" fill-rule="evenodd" transform="translate(1 1)">
    <g opacity=".062">
      <use fill="#FAFAFA" xlink:href="#icon-7-3-a"/>
      <use fill="url(#icon-7-3-b)" stroke="#000" stroke-opacity=".02" xlink:href="#icon-7-3-a"/>
    </g>
    <path fill="url(#icon-7-3-c)" fill-rule="nonzero" d="M43,14.5 C44.3807119,14.5 45.5,15.6192881 45.5,17 L45.5,17 L45.5,38.7142857 C45.5,40.0949976 44.3807119,41.2142857 43,41.2142857 L43,41.2142857 L27.985,41.214 L24.2462034,45.7901995 L20.507,41.214 L17,41.2142857 C15.6745166,41.2142857 14.5899613,40.1827498 14.5053177,38.8786614 L14.5053177,38.8786614 L14.5,38.7142857 L14.5,17 C14.5,15.6192881 15.6192881,14.5 17,14.5 L17,14.5 Z M43,15.5 L17,15.5 C16.1715729,15.5 15.5,16.1715729 15.5,17 L15.5,17 L15.5,38.7142857 C15.5,39.5427128 16.1715729,40.2142857 17,40.2142857 L17,40.2142857 L20.9813324,40.2142857 L24.246,44.209 L27.5110743,40.2142857 L43,40.2142857 C43.8284271,40.2142857 44.5,39.5427128 44.5,38.7142857 L44.5,38.7142857 L44.5,17 C44.5,16.1715729 43.8284271,15.5 43,15.5 L43,15.5 Z M29.4642857,28.4285714 C29.7404281,28.4285714 29.9642857,28.6524291 29.9642857,28.9285714 C29.9642857,29.1740313 29.7874106,29.3781798 29.5541613,29.4205158 L29.4642857,29.4285714 L18.75,29.4285714 C18.4738576,29.4285714 18.25,29.2047138 18.25,28.9285714 C18.25,28.6831115 18.4268752,28.4789631 18.6601244,28.4366271 L18.75,28.4285714 L29.4642857,28.4285714 Z M41.25,22.5357143 C41.5261424,22.5357143 41.75,22.7595719 41.75,23.0357143 C41.75,23.2811742 41.5731248,23.4853227 41.3398756,23.5276586 L41.25,23.5357143 L18.75,23.5357143 C18.4738576,23.5357143 18.25,23.3118567 18.25,23.0357143 C18.25,22.7902544 18.4268752,22.5861059 18.6601244,22.54377 L18.75,22.5357143 L41.25,22.5357143 Z"/>
  </g>
</svg>
