<svg xmlns="http://www.w3.org/2000/svg" xmlns:xlink="http://www.w3.org/1999/xlink" width="62" height="62" viewBox="0 0 62 62">
  <defs>
    <linearGradient id="icon-7-7-b" x1="100%" x2="0%" y1="100%" y2="0%">
      <stop offset="0%" stop-color="#1E85E9"/>
      <stop offset="20.276%" stop-color="#8671F3"/>
      <stop offset="70.727%" stop-color="#C06CFD" stop-opacity=".99"/>
      <stop offset="100%" stop-color="#FFBEE8"/>
    </linearGradient>
    <rect id="icon-7-7-a" width="60" height="60" x="0" y="0" rx="4"/>
    <linearGradient id="icon-7-7-c" x1="100%" x2="0%" y1="98.626%" y2="1.374%">
      <stop offset="0%" stop-color="#1E85E9"/>
      <stop offset="20.276%" stop-color="#8671F3"/>
      <stop offset="70.727%" stop-color="#C06CFD" stop-opacity=".99"/>
      <stop offset="100%" stop-color="#FFBEE8"/>
    </linearGradient>
  </defs>
  <g fill="none" fill-rule="evenodd" transform="translate(1 1)">
    <g opacity=".062">
      <use fill="#FAFAFA" xlink:href="#icon-7-7-a"/>
      <use fill="url(#icon-7-7-b)" stroke="#000" stroke-opacity=".02" xlink:href="#icon-7-7-a"/>
    </g>
    <path fill="url(#icon-7-7-c)" fill-rule="nonzero" d="M41.55,17 C42.3508129,17 43,17.6491871 43,18.45 L43,18.45 L43,44.55 C43,45.3508129 42.3508129,46 41.55,46 L41.55,46 L15.45,46 C14.6491871,46 14,45.3508129 14,44.55 L14,44.55 L14,18.45 C14,17.6491871 14.6491871,17 15.45,17 L15.45,17 Z M41.5178571,18 L15.4821429,18 C15.2158627,18 15,18.2158627 15,18.4821429 L15,18.4821429 L15,44.5178571 C15,44.7841373 15.2158627,45 15.4821429,45 L15.4821429,45 L41.5178571,45 C41.7841373,45 42,44.7841373 42,44.5178571 L42,44.5178571 L42,18.4821429 C42,18.2158627 41.7841373,18 41.5178571,18 L41.5178571,18 Z M44.9489746,14 C45.7286707,14 46.3694233,14.5948881 46.442108,15.35554 L46.4489746,15.5 L46.4489746,43.0107422 C46.4489746,43.2868846 46.225117,43.5107422 45.9489746,43.5107422 C45.7035147,43.5107422 45.4993662,43.333867 45.4570303,43.1006178 L45.4489746,43.0107422 L45.4489746,15.5 C45.4489746,15.2545401 45.2720994,15.0503916 45.0388502,15.0080557 L44.9489746,15 L16.3972168,15 C16.1210744,15 15.8972168,14.7761424 15.8972168,14.5 C15.8972168,14.2545401 16.074092,14.0503916 16.3073412,14.0080557 L16.3972168,14 L44.9489746,14 Z M39.0684903,23.8773407 C39.2579082,24.0334542 39.3029533,24.2997855 39.187276,24.5067064 L39.1363311,24.5811856 L26.9061065,39.4205411 C26.7386638,39.6237052 26.4477419,39.6586301 26.238871,39.5159938 L26.164792,39.4541637 L18.6445284,31.8516247 C18.4503314,31.6553031 18.4520538,31.3387253 18.6483753,31.1445284 C18.8228834,30.9719089 19.0924087,30.9540898 19.2865395,31.090144 L19.3554716,31.1483753 L26.486,38.357 L38.3646454,23.9451816 C38.5402731,23.7320864 38.8553952,23.7017131 39.0684903,23.8773407 Z"/>
  </g>
</svg>
