<svg xmlns="http://www.w3.org/2000/svg" width="41" height="46" viewBox="0 0 41 46">
  <defs>
    <linearGradient id="icon-22-6-a" x1="89.721%" x2="10.279%" y1="100%" y2="0%">
      <stop offset="0%" stop-color="#1E85E9"/>
      <stop offset="20.276%" stop-color="#8671F3"/>
      <stop offset="70.727%" stop-color="#C06CFD" stop-opacity=".99"/>
      <stop offset="100%" stop-color="#FFBEE8"/>
    </linearGradient>
  </defs>
  <path fill="url(#icon-22-6-a)" d="M1123.75,3418.42105 C1129.41092,3418.42105 1134,3423.02781 1134,3428.71053 C1134,3434.39325 1129.41092,3439 1123.75,3439 C1118.08908,3439 1113.5,3434.39325 1113.5,3428.71053 C1113.5,3423.02781 1118.08908,3418.42105 1123.75,3418.42105 Z M1123.75,3419.63158 C1118.75507,3419.63158 1114.70588,3423.69636 1114.70588,3428.71053 C1114.70588,3433.72469 1118.75507,3437.78947 1123.75,3437.78947 C1128.74493,3437.78947 1132.79412,3433.72469 1132.79412,3428.71053 C1132.79412,3423.69636 1128.74493,3419.63158 1123.75,3419.63158 Z M1123.75,3393 C1124.69022,3393 1125.46289,3393.72013 1125.55054,3394.64092 L1125.55882,3394.81579 L1125.55882,3417.35788 L1124.35294,3417.35788 L1124.35294,3394.81579 C1124.35294,3394.51865 1124.13965,3394.27153 1123.85838,3394.22028 L1123.75,3394.21053 L1094.80882,3394.21053 C1094.51283,3394.21053 1094.26665,3394.42464 1094.2156,3394.70699 L1094.20588,3394.81579 L1094.20588,3431.13158 C1094.20588,3431.42871 1094.41917,3431.67584 1094.70044,3431.72709 L1094.80882,3431.73684 L1112.82581,3431.73684 L1112.82581,3432.94737 L1094.80882,3432.94737 C1093.8686,3432.94737 1093.09593,3432.22724 1093.00828,3431.30645 L1093,3431.13158 L1093,3394.81579 C1093,3393.87195 1093.71737,3393.0963 1094.63462,3393.00831 L1094.80882,3393 L1123.75,3393 Z M1129.87137,3424.34317 C1130.08666,3424.54708 1130.11935,3424.87241 1129.96346,3425.11295 L1129.89615,3425.19878 L1122.7919,3432.75747 C1122.57836,3432.98467 1122.23397,3433.0077 1121.99384,3432.82818 L1121.90913,3432.75137 L1117.81543,3428.27379 C1117.59027,3428.02751 1117.60662,3427.64463 1117.85195,3427.4186 C1118.07002,3427.21769 1118.39562,3427.20833 1118.62342,3427.3817 L1118.70386,3427.45526 L1122.35962,3431.45237 L1129.01904,3424.36804 C1129.24756,3424.1249 1129.62916,3424.11377 1129.87137,3424.34317 Z M1118.92647,3414.78947 C1119.25947,3414.78947 1119.52941,3415.06046 1119.52941,3415.39474 C1119.52941,3415.69187 1119.31612,3415.939 1119.03485,3415.99025 L1118.92647,3416 L1099.63235,3416 C1099.29936,3416 1099.02941,3415.72901 1099.02941,3415.39474 C1099.02941,3415.0976 1099.2427,3414.85047 1099.52397,3414.79923 L1099.63235,3414.78947 L1118.92647,3414.78947 Z M1118.92647,3408.73684 C1119.25947,3408.73684 1119.52941,3409.00783 1119.52941,3409.34211 C1119.52941,3409.63924 1119.31612,3409.88637 1119.03485,3409.93762 L1118.92647,3409.94737 L1099.63235,3409.94737 C1099.29936,3409.94737 1099.02941,3409.67638 1099.02941,3409.34211 C1099.02941,3409.04497 1099.2427,3408.79784 1099.52397,3408.74659 L1099.63235,3408.73684 L1118.92647,3408.73684 Z M1118.92647,3403.2812 C1119.25947,3403.2812 1119.52941,3403.55218 1119.52941,3403.88646 C1119.52941,3404.1836 1119.31612,3404.43072 1119.03485,3404.48197 L1118.92647,3404.49172 L1099.63235,3404.49172 C1099.29936,3404.49172 1099.02941,3404.22074 1099.02941,3403.88646 C1099.02941,3403.58933 1099.2427,3403.3422 1099.52397,3403.29095 L1099.63235,3403.2812 L1118.92647,3403.2812 Z" transform="translate(-1093 -3393)"/>
</svg>
