<svg xmlns="http://www.w3.org/2000/svg" width="36" height="37" viewBox="0 0 36 37">
  <defs>
    <linearGradient id="icon-18-8-a" x1="97.728%" x2="2.272%" y1="100%" y2="0%">
      <stop offset="0%" stop-color="#1E85E9"/>
      <stop offset="20.276%" stop-color="#8671F3"/>
      <stop offset="70.727%" stop-color="#C06CFD" stop-opacity=".99"/>
      <stop offset="100%" stop-color="#FFBEE8"/>
    </linearGradient>
  </defs>
  <path fill="url(#icon-18-8-a)" d="M1382.2921,2830.16544 C1382.47687,2829.96023 1382.79302,2829.94366 1382.99823,2830.12843 L1382.99823,2830.12843 L1384.112,2831.131 L1384.44752,2830.76056 C1384.61176,2830.57814 1384.87981,2830.54478 1385.08147,2830.6694 L1385.15365,2830.72355 L1397.78712,2842.09877 C1397.96953,2842.26301 1398.00289,2842.53106 1397.87827,2842.73273 L1397.82412,2842.80491 L1397.489,2843.176 L1399.34742,2844.84931 C1399.52983,2845.01355 1399.56319,2845.2816 1399.43858,2845.48326 L1399.38443,2845.55544 L1396.7079,2848.52802 C1396.52313,2848.73324 1396.20698,2848.7498 1396.00177,2848.56503 L1396.00177,2848.56503 L1394.143,2846.892 L1393.80934,2847.26378 C1393.64509,2847.44619 1393.37705,2847.47955 1393.17538,2847.35493 L1393.1032,2847.30078 L1387.59999,2842.34442 C1387.12324,2843.17027 1386.26433,2843.74775 1385.26493,2843.83519 L1385.26742,2843.83637 C1383.81116,2845.36491 1383,2847.30032 1383,2849.34673 C1383,2852.08793 1384.46286,2854.61312 1386.88517,2856.20329 C1387.85157,2855.35786 1389.11609,2854.84673 1390.5,2854.84673 C1392.49392,2854.84673 1394.24003,2855.90777 1395.2045,2857.49602 C1396.97843,2857.02651 1398.55345,2856.09901 1399.7422,2854.84709 L1395.5,2854.84673 C1395.22386,2854.84673 1395,2854.62287 1395,2854.34673 L1395,2854.34673 L1395,2852.34673 C1395,2852.07059 1395.22386,2851.84673 1395.5,2851.84673 L1395.5,2851.84673 L1410.5,2851.84673 C1410.77614,2851.84673 1411,2852.07059 1411,2852.34673 L1411,2852.34673 L1411,2854.34673 C1411,2854.62287 1410.77614,2854.84673 1410.5,2854.84673 L1410.5,2854.84673 L1404.625,2854.846 L1404.57008,2854.95201 C1402.87089,2858.084 1399.81249,2860.4308 1396.16214,2861.38131 L1396,2861.421 L1396,2861.846 L1411.5,2861.84673 C1411.74546,2861.84673 1411.94961,2862.02361 1411.99194,2862.25685 L1412,2862.34673 L1412,2866.34673 C1412,2866.59219 1411.82312,2866.79634 1411.58988,2866.83867 L1411.5,2866.84673 L1376.5,2866.84673 C1376.25454,2866.84673 1376.05039,2866.66986 1376.00806,2866.43661 L1376,2866.34673 L1376,2862.34673 C1376,2862.10127 1376.17688,2861.89712 1376.41012,2861.85479 L1376.5,2861.84673 L1385,2861.846 L1385,2860.34673 C1385,2860.14905 1385.01043,2859.95381 1385.03077,2859.76152 L1385.28783,2859.91559 C1381.40669,2857.64061 1379,2853.68687 1379,2849.34673 C1379,2846.41463 1380.09429,2843.63943 1382.05631,2841.42474 C1382.0192,2841.23839 1382,2841.0448 1382,2840.84673 C1382,2839.84801 1382.48802,2838.96328 1383.23861,2838.41799 L1380.46974,2835.92556 C1380.28733,2835.76132 1380.25397,2835.49327 1380.37858,2835.29161 L1380.43273,2835.21942 L1380.767,2834.848 L1379.65258,2833.84416 C1379.47017,2833.67991 1379.43681,2833.41187 1379.56142,2833.2102 L1379.61557,2833.13802 Z M1390.5,2855.84673 C1388.08573,2855.84673 1386.11551,2857.74797 1386.0049,2860.13489 L1386,2860.34673 L1386,2862.34673 C1386,2862.59219 1385.82312,2862.79634 1385.58988,2862.83867 L1385.5,2862.84673 L1377,2862.84598 L1377,2865.84598 L1411,2865.84598 L1411,2862.84598 L1395.58472,2862.84673 L1395.54298,2862.84491 C1395.52882,2862.84612 1395.51448,2862.84673 1395.5,2862.84673 C1395.25454,2862.84673 1395.05039,2862.66986 1395.00806,2862.43661 L1395,2862.34673 L1395,2860.34673 C1395,2857.86145 1392.98528,2855.84673 1390.5,2855.84673 Z M1390.5,2857.84673 C1391.88071,2857.84673 1393,2858.96602 1393,2860.34673 C1393,2861.72744 1391.88071,2862.84673 1390.5,2862.84673 C1389.11929,2862.84673 1388,2861.72744 1388,2860.34673 C1388,2858.96602 1389.11929,2857.84673 1390.5,2857.84673 Z M1390.5,2858.84673 C1389.67157,2858.84673 1389,2859.5183 1389,2860.34673 C1389,2861.17516 1389.67157,2861.84673 1390.5,2861.84673 C1391.32843,2861.84673 1392,2861.17516 1392,2860.34673 C1392,2859.5183 1391.32843,2858.84673 1390.5,2858.84673 Z M1403.47994,2854.84717 L1401.06,2854.846 L1400.98099,2854.94978 C1399.65772,2856.58718 1397.78793,2857.80461 1395.64885,2858.41219 C1395.85138,2858.947 1395.97183,2859.52384 1395.99563,2860.12552 L1396,2860.34673 L1396.00068,2860.38966 C1399.19962,2859.53247 1401.89359,2857.52173 1403.47994,2854.84717 Z M1382.47879,2842.47327 L1382.30168,2842.69568 C1380.8164,2844.61865 1380,2846.92485 1380,2849.34673 C1380,2853.11512 1381.98681,2856.57466 1385.24679,2858.71363 C1385.44937,2858.06059 1385.77027,2857.46015 1386.18434,2856.93681 C1383.58004,2855.16295 1382,2852.37858 1382,2849.34673 C1382,2847.27753 1382.73368,2845.31185 1384.05853,2843.69498 C1383.40277,2843.47953 1382.84693,2843.04274 1382.47879,2842.47327 Z M1410,2852.84598 L1396,2852.84598 L1396,2853.84598 L1410,2853.84598 L1410,2852.84598 Z M1396.821,2843.918 L1394.81323,2846.14789 L1396.29952,2847.48615 L1398.30691,2845.25671 L1396.821,2843.918 Z M1384.85629,2831.80009 L1384.52153,2832.17283 L1381.84501,2835.14541 C1381.84194,2835.14881 1381.83884,2835.15216 1381.83571,2835.15546 L1381.51064,2835.51581 L1384.21377,2837.95081 C1384.46435,2837.88294 1384.72795,2837.84673 1385,2837.84673 C1386.65685,2837.84673 1388,2839.18988 1388,2840.84673 C1388,2841.00972 1387.987,2841.16967 1387.96199,2841.3256 L1393.40095,2846.2219 L1396.74661,2842.50618 L1384.85629,2831.80009 Z M1385,2838.84673 C1383.89543,2838.84673 1383,2839.74216 1383,2840.84673 C1383,2841.9513 1383.89543,2842.84673 1385,2842.84673 C1386.10457,2842.84673 1387,2841.9513 1387,2840.84673 C1387,2839.74216 1386.10457,2838.84673 1385,2838.84673 Z M1382.70087,2831.20497 L1380.69348,2833.43441 L1381.43662,2834.10354 L1383.44401,2831.8741 L1382.70087,2831.20497 Z" transform="translate(-1376 -2830)"/>
</svg>
