<svg xmlns="http://www.w3.org/2000/svg" width="37" height="40" viewBox="0 0 37 40">
  <defs>
    <linearGradient id="icon-19-3-a" x1="92.781%" x2="7.219%" y1="100%" y2="0%">
      <stop offset="0%" stop-color="#1E85E9"/>
      <stop offset="20.276%" stop-color="#8671F3"/>
      <stop offset="70.727%" stop-color="#C06CFD" stop-opacity=".99"/>
      <stop offset="100%" stop-color="#FFBEE8"/>
    </linearGradient>
  </defs>
  <path fill="url(#icon-19-3-a)" d="M674.5,2988.4787 C674.776142,2988.4787 675,2988.70258 675,2988.97875 C675,2998.06852 681.928695,3005.53984 690.792254,3006.39834 L688.750109,3005.01774 C688.546723,3004.88029 688.476624,3004.61943 688.572174,3004.40247 L688.615833,3004.3235 C688.753301,3004.12013 689.01419,3004.05004 689.231169,3004.14558 L689.31015,3004.18924 L693.124764,3006.76724 C693.448616,3006.98611 693.402096,3007.46288 693.071276,3007.62771 L692.989925,3007.65996 L688.644981,3008.97807 C688.380705,3009.05824 688.101467,3008.90902 688.021286,3008.64477 C687.950014,3008.40989 688.060011,3008.16318 688.270945,3008.05495 L688.354619,3008.02114 L690.49103,3007.37288 C681.218714,3006.37148 674,2998.51821 674,2988.97875 C674,2988.70258 674.223858,2988.4787 674.5,2988.4787 Z M693.4984,2975.47732 C694.354213,2975.48341 695.089559,2976.07649 695.279641,2976.92643 L695.279641,2976.92643 L695.58127,2978.56688 C695.707711,2979.01579 696.025759,2979.38595 696.426885,2979.5684 C696.856525,2979.73727 697.340207,2979.69982 697.690154,2979.49933 L697.690154,2979.49933 L698.972293,2978.53271 C699.705757,2978.01662 700.704739,2978.10746 701.328237,2978.7428 L701.328237,2978.7428 L702.728672,2980.13304 C703.376411,2980.76332 703.467568,2981.77202 702.942655,2982.50898 L702.942655,2982.50898 L702.008025,2983.80912 C701.626753,2984.51012 701.885941,2985.38754 702.587032,2985.76894 C702.686674,2985.82317 702.793305,2985.86563 702.866245,2985.88678 L702.866245,2985.88678 L704.569359,2986.20256 C705.395879,2986.38784 705.987428,2987.11548 706,2987.96984 L706,2987.96984 L706,2989.98465 C705.987425,2990.83144 705.395801,2991.55927 704.553974,2991.74773 L704.553974,2991.74773 L702.893675,2992.06484 C702.118261,2992.25398 701.643166,2993.03554 701.832189,2993.81063 C701.866889,2993.95255 701.922677,2994.0884 701.975455,2994.17959 L701.975455,2994.17959 L702.955813,2995.55107 C703.416529,2996.26332 703.32776,2997.19873 702.732237,2997.82095 L702.732237,2997.82095 L701.321738,2999.22104 C700.694961,2999.82105 699.73307,2999.89882 699.010945,2999.40171 L699.010945,2999.40171 L697.702847,2998.46248 C697.009024,2998.0682 696.127345,2998.311 695.732769,2999.0055 C695.666893,2999.12108 695.617528,2999.24499 695.591887,2999.34617 L695.591887,2999.34617 L695.2759,3001.04936 C695.089559,3001.88101 694.354213,3002.47409 693.4984,3002.48018 L693.4984,3002.48018 L691.494211,3002.48018 C690.647328,3002.46761 689.919767,3001.876 689.73131,3001.034 L689.73131,3001.034 L689.414239,2999.37353 C689.225118,2998.59803 688.443645,2998.12289 687.668475,2998.31197 C687.526458,2998.34665 687.390665,2998.40241 687.311699,2998.44617 L687.311699,2998.44617 L686.027801,2999.42472 C685.294565,2999.94091 684.295267,2999.85005 683.671796,2999.21474 L683.671796,2999.21474 L682.271226,2997.82462 C681.623597,2997.19409 681.532475,2996.18578 682.057345,2995.44852 L682.057345,2995.44852 L682.991975,2994.14838 C683.373201,2993.44746 683.113882,2992.57001 682.413361,2992.18892 C682.345752,2992.15225 682.275923,2992.12113 682.22355,2992.10216 L682.22355,2992.10216 L682.133482,2992.07072 L680.430641,2991.75494 C679.604121,2991.56966 679.012572,2990.84202 679,2989.98766 L679,2989.98766 L679,2987.97668 C679.006093,2987.12434 679.599107,2986.38892 680.448955,2986.19881 L680.448955,2986.19881 L682.100971,2985.894 C682.873884,2985.6964 683.340424,2984.90919 683.142922,2984.13648 C683.110576,2984.01037 683.061597,2983.88937 683.029211,2983.82558 L683.029211,2983.82558 L682.056759,2982.50816 C681.532432,2981.77202 681.623589,2980.76332 682.267763,2980.13655 L682.267763,2980.13655 L683.667171,2978.74742 C684.295267,2978.10745 685.294565,2978.01659 686.030915,2978.53499 L686.030915,2978.53499 L687.330917,2979.46972 C688.031763,2979.85098 688.909122,2979.59164 689.290526,2978.89039 C689.344895,2978.79048 689.387255,2978.68413 689.408362,2978.61113 L689.408362,2978.61113 L689.724106,2976.90811 C689.909367,2976.0815 690.636928,2975.48989 691.4912,2975.47732 L691.4912,2975.47732 Z M693.494833,2976.47737 L691.498589,2976.47737 C691.11419,2976.48305 690.784011,2976.75153 690.703638,2977.10855 L690.703638,2977.10855 L690.383019,2978.83141 C690.332921,2979.01873 690.261184,2979.19883 690.168925,2979.36837 C689.523709,2980.55466 688.039152,2980.99349 686.801085,2980.31569 L686.801085,2980.31569 L685.452199,2979.35059 C685.119435,2979.11633 684.665853,2979.15757 684.376237,2979.4526 L684.376237,2979.4526 L682.968672,2980.84986 C682.674655,2981.13595 682.633277,2981.59381 682.866249,2981.92102 L682.866249,2981.92102 L683.86581,2983.28088 C683.974467,2983.47145 684.057056,2983.67548 684.111664,2983.88838 C684.44604,2985.19661 683.656662,2986.52855 682.315845,2986.87017 L682.315845,2986.87017 L680.649332,2987.17846 C680.271908,2987.26304 680.002748,2987.59684 679.999945,2987.98024 L679.999945,2987.98024 L679.999945,2989.98027 C680.005627,2990.36471 680.274082,2990.69492 680.631058,2990.7753 L680.631058,2990.7753 L682.372334,2991.10132 L682.538177,2991.15306 C682.659074,2991.19585 682.776716,2991.24829 682.890637,2991.31007 C684.076802,2991.95536 684.515589,2993.44007 683.837855,2994.67827 L683.837855,2994.67827 L682.871307,2996.0295 C682.633255,2996.36388 682.674621,2996.82162 682.972204,2997.11138 L682.972204,2997.11138 L684.380829,2998.50952 C684.665853,2998.79993 685.119435,2998.84117 685.436841,2998.61816 L685.436841,2998.61816 L686.75139,2997.61966 C686.962561,2997.49301 687.191769,2997.3989 687.431385,2997.34038 C688.743281,2997.02038 690.065783,2997.82447 690.39109,2999.16106 L690.39109,2999.16106 L690.710294,3000.83065 C690.794411,3001.20597 691.12459,3001.47445 691.5016,3001.48009 L691.5016,3001.48009 L693.494833,3001.48009 C693.881762,3001.47733 694.215524,3001.20814 694.296373,3000.84889 L694.296373,3000.84889 L694.614639,2999.13598 C694.668352,2998.91685 694.752194,2998.7064 694.863656,2998.51083 C695.530739,2997.33669 697.022864,2996.92579 698.240775,2997.62101 L698.240775,2997.62101 L699.585317,2998.58308 C699.909409,2998.80614 700.345822,2998.77085 700.623763,2998.5049 L700.623763,2998.5049 L702.018734,2997.12035 C702.284987,2996.84205 702.325273,2996.41753 702.129345,2996.11362 L702.129345,2996.11362 L701.139995,2994.72771 C701.013424,2994.51663 700.919313,2994.28746 700.860739,2994.0479 C700.540772,2992.73587 701.344785,2991.41323 702.681226,2991.08788 L702.681226,2991.08788 L704.350641,2990.76865 C704.725813,2990.68454 704.994373,2990.35415 705.000055,2989.97726 L705.000055,2989.97726 L705.000055,2987.97723 C704.994373,2987.59279 704.725918,2987.26258 704.368955,2987.1822 L704.368955,2987.1822 L702.64579,2986.86149 C702.45859,2986.81132 702.278352,2986.73955 702.109103,2986.64743 C700.922972,2986.00216 700.484392,2984.51746 701.162145,2983.27923 L701.162145,2983.27923 L702.128759,2981.92791 C702.366723,2981.59381 702.325345,2981.13595 702.027763,2980.84635 L702.027763,2980.84635 L700.619171,2979.44798 C700.334123,2979.15755 699.880742,2979.11632 699.561046,2979.34094 L699.561046,2979.34094 L698.243425,2980.33035 C697.58023,2980.71785 696.775863,2980.78013 696.037673,2980.48929 C695.344387,2980.17518 694.825133,2979.57085 694.608359,2978.79351 L694.608359,2978.79351 L694.3001,2977.12682 C694.215524,2976.74936 693.881762,2976.48017 693.494833,2976.47737 L693.494833,2976.47737 Z M692.5,2983.47817 C695.537566,2983.47817 698,2985.94086 698,2988.97875 C698,2992.01664 695.537566,2994.47933 692.5,2994.47933 C689.462434,2994.47933 687,2992.01664 687,2988.97875 C687,2985.94086 689.462434,2983.47817 692.5,2983.47817 Z M692.5,2984.47827 C690.014719,2984.47827 688,2986.4932 688,2988.97875 C688,2991.4643 690.014719,2993.47923 692.5,2993.47923 C694.985281,2993.47923 697,2991.4643 697,2988.97875 C697,2986.4932 694.985281,2984.47827 692.5,2984.47827 Z M695.416649,2969.01097 C695.648605,2968.96193 695.889588,2969.084 695.982451,2969.31122 L695.982451,2969.31122 L696.008996,2969.39746 C696.058045,2969.62939 695.935963,2969.87035 695.708719,2969.9632 L695.708719,2969.9632 L694.250845,2970.55856 C703.646968,2971.44071 711,2979.35094 711,2988.97875 C711,2989.25492 710.776142,2989.4788 710.5,2989.4788 C710.223858,2989.4788 710,2989.25492 710,2988.97875 C710,2979.72202 702.814447,2972.14375 693.717424,2971.51858 L695.708719,2972.33256 L695.788877,2972.37401 C695.9888,2972.50144 696.075315,2972.75733 695.982451,2972.98455 C695.87798,2973.24017 695.586045,2973.36271 695.330396,2973.25825 L695.330396,2973.25825 L691.298351,2971.61073 L691.21587,2971.56834 C690.885944,2971.35963 690.913438,2970.84232 691.298351,2970.68504 L691.298351,2970.68504 L695.330396,2969.03751 Z" transform="translate(-674 -2969)"/>
</svg>
