<svg xmlns="http://www.w3.org/2000/svg" width="39" height="44" viewBox="0 0 39 44">
  <defs>
    <linearGradient id="ico-quality-2-a" x1="89.282%" x2="10.718%" y1="100%" y2="0%">
      <stop offset="0%" stop-color="#1E85E9"/>
      <stop offset="20.276%" stop-color="#8671F3"/>
      <stop offset="70.727%" stop-color="#C06CFD" stop-opacity=".99"/>
      <stop offset="100%" stop-color="#FFBEE8"/>
    </linearGradient>
  </defs>
  <path fill="url(#ico-quality-2-a)" d="M68,29 C68.5522847,29 69,29.4477153 69,30 L69,72 C69,72.5522847 68.5522847,73 68,73 L31,73 C30.4477153,73 30,72.5522847 30,72 L30,30 C30,29.4477153 30.4477153,29 31,29 L68,29 Z M68,47.5 L31,47.5 L31,72 L68,72 L68,47.5 Z M44,62 L44,67 L39,67 L39,62 L44,62 Z M52,62 L52,67 L47,67 L47,62 L52,62 Z M60,62 L60,67 L55,67 L55,62 L60,62 Z M43,63 L40,63 L40,66 L43,66 L43,63 Z M51,63 L48,63 L48,66 L51,66 L51,63 Z M59,63 L56,63 L56,66 L59,66 L59,63 Z M44,53 L44,58 L39,58 L39,53 L44,53 Z M52,53 L52,58 L47,58 L47,53 L52,53 Z M60,53 L60,58 L55,58 L55,53 L60,53 Z M43,54 L40,54 L40,57 L43,57 L43,54 Z M51,54 L48,54 L48,57 L51,57 L51,54 Z M59,54 L56,54 L56,57 L59,57 L59,54 Z M68,30 L31,30 L31,46.5 L68,46.5 L68,30 Z M52,33 L52,35.999 L55,36 L55,41 L52,40.999 L52,44 L47,44 L47,40.999 L44,41 L44,36 L47,35.999 L47,33 L52,33 Z M51,34 L48,34 L48,36.9986667 L44.999,36.999 L44.999,40 L48,39.9986666 L48,43 L51,43 L51,39.9986666 L53.999,40 L53.999,36.999 L51,36.9986667 L51,34 Z" transform="translate(-30 -29)"/>
</svg>
