<svg xmlns="http://www.w3.org/2000/svg" xmlns:xlink="http://www.w3.org/1999/xlink" width="62" height="62" viewBox="0 0 62 62">
  <defs>
    <linearGradient id="icon-11-6-b" x1="100%" x2="0%" y1="100%" y2="0%">
      <stop offset="0%" stop-color="#1E85E9"/>
      <stop offset="20.276%" stop-color="#8671F3"/>
      <stop offset="70.727%" stop-color="#C06CFD" stop-opacity=".99"/>
      <stop offset="100%" stop-color="#FFBEE8"/>
    </linearGradient>
    <rect id="icon-11-6-a" width="60" height="60" x="0" y="0" rx="4"/>
    <linearGradient id="icon-11-6-c" x1="100%" x2="0%" y1="88.927%" y2="11.073%">
      <stop offset="0%" stop-color="#1E85E9"/>
      <stop offset="20.276%" stop-color="#8671F3"/>
      <stop offset="70.727%" stop-color="#C06CFD" stop-opacity=".99"/>
      <stop offset="100%" stop-color="#FFBEE8"/>
    </linearGradient>
  </defs>
  <g fill="none" fill-rule="evenodd" transform="translate(1 1)">
    <g opacity=".062">
      <use fill="#FAFAFA" xlink:href="#icon-11-6-a"/>
      <use fill="url(#icon-11-6-b)" stroke="#000" stroke-opacity=".02" xlink:href="#icon-11-6-a"/>
    </g>
    <path fill="url(#icon-11-6-c)" fill-rule="nonzero" d="M28.6780446,15.7614556 C29.0917241,15.0400303 30.0188778,14.7866036 30.7489005,15.1954113 C30.9881492,15.329389 31.1861161,15.5250244 31.3216904,15.7614556 L31.3216904,15.7614556 L46.8022599,42.7583827 C47.2159394,43.479808 46.9594926,44.3960429 46.22947,44.8048506 C46.0010489,44.9327648 45.7429833,45 45.480437,45 L45.480437,45 L14.5192979,45 C13.6802129,45 13,44.3277979 13,43.4985945 C13,43.2391402 13.0680364,42.9841137 13.197475,42.7583827 L13.197475,42.7583827 Z M30.1663227,16.0289126 C29.9396393,15.9506778 29.6818315,16.0411745 29.5592598,16.2549302 L29.5592598,16.2549302 L14.0786903,43.2518572 C14.0355441,43.3271009 14.0128653,43.4121097 14.0128653,43.4985945 C14.0128653,43.7749956 14.2396029,43.999063 14.5192979,43.999063 L14.5192979,43.999063 L45.480437,43.999063 C45.5679525,43.999063 45.6539743,43.9766513 45.7301147,43.9340132 C45.9734556,43.797744 46.0589378,43.4923323 45.9210447,43.2518572 L45.9210447,43.2518572 L30.4404751,16.2549302 C30.3952837,16.1761198 30.3292947,16.110908 30.2495451,16.0662487 L30.2495451,16.0662487 Z M29.9998675,37.8133406 C30.2484853,37.8133406 30.4552602,37.9903815 30.4981408,38.2238493 L30.5063001,38.3138092 L30.5063001,38.6386983 C30.5063001,38.9150994 30.2795625,39.1391668 29.9998675,39.1391668 C29.7512497,39.1391668 29.5444748,38.9621259 29.5015941,38.7286581 L29.4934348,38.6386983 L29.4934348,38.3138092 C29.4934348,38.037408 29.7201725,37.8133406 29.9998675,37.8133406 Z M29.9998675,24.662602 C30.2484853,24.662602 30.4552602,24.8396429 30.4981408,25.0731107 L30.5063001,25.1630705 L30.5063001,35.9842358 C30.5063001,36.2606369 30.2795625,36.4847043 29.9998675,36.4847043 C29.7512497,36.4847043 29.5444748,36.3076634 29.5015941,36.0741956 L29.4934348,35.9842358 L29.4934348,25.1630705 C29.4934348,24.8866694 29.7201725,24.662602 29.9998675,24.662602 Z"/>
  </g>
</svg>
