<svg xmlns="http://www.w3.org/2000/svg" width="47" height="24" viewBox="0 0 47 24">
  <defs>
    <linearGradient id="icon-17-2-a" x1="108.096%" x2="0%" y1="65.305%" y2="36.962%">
      <stop offset="0%" stop-color="#1E85E9"/>
      <stop offset="20.276%" stop-color="#8671F3"/>
      <stop offset="70.727%" stop-color="#CFA9FC"/>
      <stop offset="100%" stop-color="#F4D9FB"/>
    </linearGradient>
  </defs>
  <path fill="url(#icon-17-2-a)" d="M559,2696 C565.627417,2696 571,2701.37258 571,2708 C571,2711.98739 569.040293,2715.64514 565.823327,2717.87255 L566.085,2717.685 L568.309524,2717.68571 L568.399399,2717.69377 C568.632649,2717.73611 568.809524,2717.94025 568.809524,2718.18571 C568.809524,2718.46186 568.585666,2718.68571 568.309524,2718.68571 L568.309524,2718.68571 L564.52381,2718.68571 L564.52381,2714.9 L564.531865,2714.81012 C564.574201,2714.57688 564.77835,2714.4 565.02381,2714.4 L565.02381,2714.4 L565.113685,2714.40806 C565.346934,2714.45039 565.52381,2714.65454 565.52381,2714.9 L565.52381,2714.9 L565.522288,2716.85874 C568.312557,2714.80188 570,2711.5436 570,2708 C570,2701.92487 565.075132,2697 559,2697 C552.924868,2697 548,2701.92487 548,2708 C548,2714.07513 552.924868,2719 559,2719 C559.276142,2719 559.5,2719.22386 559.5,2719.5 C559.5,2719.77614 559.276142,2720 559,2720 C553.566975,2720 548.977247,2716.38941 547.499388,2711.4368 C546.022753,2716.38941 541.433025,2720 536,2720 C529.372583,2720 524,2714.62742 524,2708 C524,2701.37258 529.372583,2696 536,2696 C536.276142,2696 536.5,2696.22386 536.5,2696.5 C536.5,2696.77614 536.276142,2697 536,2697 C529.924868,2697 525,2701.92487 525,2708 C525,2714.07513 529.924868,2719 536,2719 C542.075132,2719 547,2714.07513 547,2708 C547,2704.4564 545.312557,2701.19812 542.522288,2699.14126 L542.52381,2701.1 C542.52381,2701.34546 542.346934,2701.54961 542.113685,2701.59194 L542.02381,2701.6 C541.77835,2701.6 541.574201,2701.42312 541.531865,2701.18988 L541.52381,2701.1 L541.52381,2697.31429 L545.309524,2697.31429 C545.585666,2697.31429 545.809524,2697.53814 545.809524,2697.81429 C545.809524,2698.05975 545.632649,2698.26389 545.399399,2698.30623 L545.309524,2698.31429 L543.085,2698.314 L543.103896,2698.32767 C545.220823,2699.88424 546.757798,2702.07524 547.500066,2704.56416 C548.976632,2699.61107 553.56661,2696 559,2696 Z" transform="translate(-524 -2696)"/>
</svg>
