<svg xmlns="http://www.w3.org/2000/svg" xmlns:xlink="http://www.w3.org/1999/xlink" width="62" height="62" viewBox="0 0 62 62">
  <defs>
    <linearGradient id="ico-industries-3-b" x1="100%" x2="0%" y1="100%" y2="0%">
      <stop offset="0%" stop-color="#1E85E9"/>
      <stop offset="20.276%" stop-color="#8671F3"/>
      <stop offset="70.727%" stop-color="#C06CFD" stop-opacity=".99"/>
      <stop offset="100%" stop-color="#FFBEE8"/>
    </linearGradient>
    <rect id="ico-industries-3-a" width="60" height="60" x="0" y="0" rx="4"/>
    <linearGradient id="ico-industries-3-c" x1="100%" x2="0%" y1="79.586%" y2="20.414%">
      <stop offset="0%" stop-color="#1E85E9"/>
      <stop offset="20.276%" stop-color="#8671F3"/>
      <stop offset="70.727%" stop-color="#C06CFD" stop-opacity=".99"/>
      <stop offset="100%" stop-color="#FFBEE8"/>
    </linearGradient>
  </defs>
  <g fill="none" fill-rule="evenodd" transform="translate(1 1)">
    <g opacity=".062">
      <use fill="#FAFAFA" xlink:href="#ico-industries-3-a"/>
      <use fill="url(#ico-industries-3-b)" stroke="#000" stroke-opacity=".02" xlink:href="#ico-industries-3-a"/>
    </g>
    <path fill="url(#ico-industries-3-c)" fill-rule="nonzero" d="M21.53,39.0769231 C23.4685195,39.0769231 25.04,40.6267066 25.04,42.5384615 C25.04,44.4502164 23.4685195,46 21.53,46 C19.5914805,46 18.02,44.4502164 18.02,42.5384615 C18.02,40.6267066 19.5914805,39.0769231 21.53,39.0769231 Z M42.59,39.0769231 C44.5285195,39.0769231 46.1,40.6267066 46.1,42.5384615 C46.1,44.4502164 44.5285195,46 42.59,46 C40.6514805,46 39.08,44.4502164 39.08,42.5384615 C39.08,40.6267066 40.6514805,39.0769231 42.59,39.0769231 Z M21.53,39.9423077 C20.0761104,39.9423077 18.8975,41.1046454 18.8975,42.5384615 C18.8975,43.9722777 20.0761104,45.1346154 21.53,45.1346154 C22.9838896,45.1346154 24.1625,43.9722777 24.1625,42.5384615 C24.1625,41.1046454 22.9838896,39.9423077 21.53,39.9423077 Z M42.59,39.9423077 C41.1361104,39.9423077 39.9575,41.1046454 39.9575,42.5384615 C39.9575,43.9722777 41.1361104,45.1346154 42.59,45.1346154 C44.0438896,45.1346154 45.2225,43.9722777 45.2225,42.5384615 C45.2225,41.1046454 44.0438896,39.9423077 42.59,39.9423077 Z M36.48,16 L36.48,25.51 L42.6575921,25.5103773 L50,33.5114771 L50,42.1534422 L46.7194013,42.1538462 L46.6227036,41.4650021 C46.3572812,39.5743039 44.6428839,38.1450693 42.6059112,38.1450693 C40.6391789,38.1450693 38.9731591,39.4774354 38.6216988,41.2710984 L38.5891188,41.4650021 L38.4924166,42.1538462 L25.7386143,42.1537615 C25.6262311,39.9209368 23.7779849,38.1450693 21.5144418,38.1450693 C19.2508988,38.1450693 17.4026526,39.9209368 17.2902694,42.1537615 L11,42.1537615 L11,16 L36.48,16 Z M35.68375,16.7925314 L11.79625,16.7925314 L11.79625,41.3610062 L16.589675,41.3610062 L16.6185599,41.2307816 C17.1228927,39.0595636 19.0364942,37.4375279 21.3324098,37.3557741 L21.5144418,37.3525379 C23.8906977,37.3525379 25.8927191,39.0024263 26.4103238,41.2307816 L26.437695,41.3610062 L35.68375,41.3610062 L35.68375,16.7925314 Z M42.2680258,26.3029088 L36.48,26.3029088 L36.48,41.3610062 L37.7172821,41.3611989 C38.0372376,39.0984795 40.1032358,37.3525379 42.604197,37.3525379 C45.0293715,37.3525379 47.0455451,38.9942681 47.4572516,41.156955 L47.491112,41.3611989 L49.20375,41.3610062 L49.20375,33.8063326 L42.2680258,26.3029088 Z"/>
  </g>
</svg>
