<svg xmlns="http://www.w3.org/2000/svg" width="35" height="38" viewBox="0 0 35 38">
  <defs>
    <linearGradient id="icon-20-5-a" x1="92.417%" x2="7.583%" y1="100%" y2="0%">
      <stop offset="0%" stop-color="#1E85E9"/>
      <stop offset="20.276%" stop-color="#8671F3"/>
      <stop offset="70.727%" stop-color="#C06CFD" stop-opacity=".99"/>
      <stop offset="100%" stop-color="#FFBEE8"/>
    </linearGradient>
  </defs>
  <path fill="url(#icon-20-5-a)" d="M974.5,3149 L973.701317,3148.99202 C964.566586,3148.80906 957.21278,3145.50082 957.004535,3141.18813 L957,3141 L957,3118 L957.004657,3117.8317 C957.221579,3113.9188 964.989306,3111 974.5,3111 L974.5,3111 L974.906517,3111.00178 C984.366227,3111.08478 992,3114.05908 992,3118 L992,3118 L992,3141 C992,3145.53011 984.134921,3149 974.5,3149 Z M985,3142.5 C985.276142,3142.5 985.5,3142.72386 985.5,3143 C985.5,3143.27614 985.276142,3143.5 985,3143.5 C984.723858,3143.5 984.5,3143.27614 984.5,3143 C984.5,3142.72386 984.723858,3142.5 985,3142.5 Z M974.5,3133.5 L973.701317,3133.49202 C966.452214,3133.34683 960.324671,3131.23345 957.999744,3128.21181 L958,3133.5 C958,3137.25416 965.35724,3140.5 974.5,3140.5 C983.508308,3140.5 990.783224,3137.34892 990.995244,3133.66529 L991,3133.5 L991.001134,3128.21066 C988.591988,3131.34329 982.096016,3133.5 974.5,3133.5 Z M985,3134.5 C985.276142,3134.5 985.5,3134.72386 985.5,3135 C985.5,3135.27614 985.276142,3135.5 985,3135.5 C984.723858,3135.5 984.5,3135.27614 984.5,3135 C984.5,3134.72386 984.723858,3134.5 985,3134.5 Z M991.001141,3120.3864 C988.593669,3123.13425 982.103902,3125 974.5,3125 C966.897959,3125 960.409508,3123.13517 958.000628,3120.38841 L958,3125.5 C958,3129.25416 965.35724,3132.5 974.5,3132.5 C983.508308,3132.5 990.783224,3129.34892 990.995244,3125.66529 L991,3125.5 Z M985,3126.5 C985.276142,3126.5 985.5,3126.72386 985.5,3127 C985.5,3127.27614 985.276142,3127.5 985,3127.5 C984.723858,3127.5 984.5,3127.27614 984.5,3127 C984.5,3126.72386 984.723858,3126.5 985,3126.5 Z M974.5,3112 L974.09234,3112.00187 C965.150555,3112.08419 958,3114.86501 958,3118 C958,3121.18249 965.36888,3124 974.5,3124 C983.63112,3124 991,3121.18249 991,3118 C991,3114.81751 983.63112,3112 974.5,3112 L974.5,3112 Z M974.5,3141.5 L973.701317,3141.49202 C966.452214,3141.34683 960.324671,3139.23345 957.999744,3136.21181 L958,3141 C958,3144.75416 965.35724,3148 974.5,3148 C983.508308,3148 990.783224,3144.84892 990.995244,3141.16529 L991,3141 L991.001134,3136.21066 C988.591988,3139.34329 982.096016,3141.5 974.5,3141.5 Z" transform="translate(-957 -3111)"/>
</svg>
