<svg xmlns="http://www.w3.org/2000/svg" width="35" height="35" viewBox="0 0 35 35">
  <defs>
    <linearGradient id="icon-21-5-a" x1="100%" x2="0%" y1="100%" y2="0%">
      <stop offset="0%" stop-color="#1E85E9"/>
      <stop offset="20.276%" stop-color="#8671F3"/>
      <stop offset="70.727%" stop-color="#C06CFD" stop-opacity=".99"/>
      <stop offset="100%" stop-color="#FFBEE8"/>
    </linearGradient>
  </defs>
  <path fill="url(#icon-21-5-a)" d="M972.59291,3253.10475 C973.900927,3252.96148 975.220373,3252.96511 976.53325,3253.11603 C977.615182,3253.24675 978.410094,3254.19381 978.352197,3255.26529 L978.352197,3255.26529 L978.348043,3255.46727 C978.365423,3256.44181 978.952031,3257.32207 979.818407,3257.69344 C980.800211,3258.07135 981.915687,3257.82211 982.642507,3257.05769 L982.642507,3257.05769 L982.787341,3256.91539 C983.536148,3256.25232 984.65857,3256.22089 985.448821,3256.85126 C986.475458,3257.67745 987.406396,3258.6162 988.2223,3259.64776 C988.899954,3260.50013 988.797784,3261.73081 987.985178,3262.46659 L987.985178,3262.46659 L987.855564,3262.59083 C987.19256,3263.27462 986.984146,3264.28834 987.336977,3265.18456 C987.712536,3266.13852 988.642893,3266.75477 989.690398,3266.73197 L989.690398,3266.73197 L989.851191,3266.73782 C990.864892,3266.81146 991.777966,3267.57256 991.890339,3268.56252 C992.036856,3269.87917 992.036671,3271.20718 991.889075,3272.53305 C991.75913,3273.60782 990.817895,3274.41016 989.785076,3274.35271 L989.785076,3274.35271 L989.5651,3274.35258 C988.541885,3274.33718 987.617457,3274.96054 987.24862,3275.91451 C986.879348,3276.86961 987.145552,3277.95174 987.927362,3278.64097 C988.732982,3279.37711 988.827235,3280.61289 988.142839,3281.46183 C987.308773,3282.49838 986.360175,3283.43721 985.314041,3284.26138 C984.467289,3284.92675 983.247016,3284.83036 982.546988,3284.06317 L982.546988,3284.06317 L982.394123,3283.91417 C981.673737,3283.26434 980.648504,3283.06273 979.770973,3283.38666 C978.816136,3283.78292 978.20891,3284.73075 978.248169,3285.7917 L978.248169,3285.7917 L978.244446,3285.97935 C978.177126,3286.97201 977.407477,3287.78071 976.415927,3287.8909 C975.77541,3287.96482 975.130885,3288.00123 974.486543,3287.99997 C973.813174,3287.99906 973.141175,3287.96048 972.46567,3287.88364 C971.383322,3287.75287 970.588847,3286.80545 970.647615,3285.7124 L970.647615,3285.7124 L970.651612,3285.52973 C970.63705,3284.56044 970.054187,3283.67964 969.179668,3283.31043 C968.19355,3282.93341 967.075369,3283.18517 966.342153,3283.95646 L966.342153,3283.95646 L966.196615,3284.09786 C965.445046,3284.75601 964.323423,3284.78258 963.540945,3284.15221 C962.513633,3283.32672 961.583671,3282.38659 960.771436,3281.35277 C960.099551,3280.50301 960.199198,3279.27748 960.983361,3278.56484 L960.983361,3278.56484 L961.134342,3278.41552 C961.790851,3277.71148 961.982362,3276.68832 961.621502,3275.79441 C961.244313,3274.86614 960.338663,3274.26286 959.305051,3274.27043 L959.305051,3274.27043 L959.118632,3274.26129 C958.091302,3274.16671 957.201446,3273.41327 957.115781,3272.4462 C956.962051,3271.12534 956.961659,3269.78938 957.113112,3268.49056 C957.216116,3267.39518 958.1708,3266.5726 959.223047,3266.64078 L959.223047,3266.64078 L959.438882,3266.64016 C960.419249,3266.59913 961.300168,3266.0142 961.697355,3265.15329 C962.101029,3264.18459 961.846707,3263.06831 961.052814,3262.35676 C960.256928,3261.61973 960.164347,3260.39448 960.841693,3259.54274 C961.674741,3258.50362 962.624497,3257.56359 963.671796,3256.74156 C964.517953,3256.07666 965.738348,3256.17201 966.433185,3256.93411 L966.433185,3256.93411 L966.59789,3257.09205 C967.32402,3257.73331 968.347688,3257.92823 969.22539,3257.60291 C970.18228,3257.20655 970.791188,3256.25803 970.753944,3255.19005 L970.753944,3255.19005 L970.758931,3255.00341 C970.832503,3254.01575 971.600716,3253.21526 972.59291,3253.10475 Z M976.41618,3254.10915 C975.180256,3253.96709 973.935634,3253.96366 972.701793,3254.09881 L972.701793,3254.09881 L972.585982,3254.11814 C972.131766,3254.21973 971.791241,3254.60616 971.757413,3255.05216 L971.757413,3255.05216 L971.753489,3255.18382 C971.80543,3256.63938 970.950853,3257.97058 969.59068,3258.53361 C968.348557,3258.99454 966.937153,3258.72579 965.921467,3257.8283 L965.921467,3257.8283 L965.630105,3257.54713 C965.258889,3257.22913 964.692102,3257.21161 964.289437,3257.52802 C963.302182,3258.30292 962.407051,3259.18888 961.623145,3260.1667 C961.272494,3260.60763 961.320399,3261.24163 961.726233,3261.61755 C962.830365,3262.60703 963.187871,3264.17621 962.612969,3265.55492 C962.05062,3266.77498 960.834268,3267.58263 959.46204,3267.63972 L959.46204,3267.63972 L959.077781,3267.63918 C958.581267,3267.66582 958.157461,3268.06573 958.107554,3268.59524 C957.963905,3269.82814 957.964275,3271.08647 958.110467,3272.34418 C958.151349,3272.80468 958.632811,3273.21234 959.187568,3273.26393 L959.187568,3273.26393 L959.324127,3273.27099 C960.740154,3273.2596 962.016348,3274.10971 962.548365,3275.41901 C963.055329,3276.67485 962.786745,3278.10978 961.852246,3279.11139 L961.852246,3279.11139 L961.672023,3279.2896 C961.261044,3279.66343 961.209711,3280.29476 961.556815,3280.73376 C962.323002,3281.70897 963.199296,3282.59484 964.167809,3283.37309 C964.571495,3283.6983 965.150662,3283.68458 965.517427,3283.36443 L965.517427,3283.36443 L965.77623,3283.10938 C966.77567,3282.17211 968.239702,3281.88048 969.552563,3282.38271 C970.888683,3282.94635 971.73185,3284.3094 971.64603,3285.7686 C971.615651,3286.33368 972.02621,3286.82328 972.582144,3286.89045 C973.217117,3286.96267 973.851824,3286.99911 974.4882,3286.99996 C975.09392,3287.00116 975.699494,3286.96695 976.303376,3286.89726 C976.81478,3286.84042 977.212065,3286.42298 977.245661,3285.93736 L977.245661,3285.93736 L977.248592,3285.80237 C977.193881,3284.35078 978.046751,3283.01952 979.40598,3282.45586 C980.652165,3281.99526 982.068606,3282.2738 983.077446,3283.18429 L983.077446,3283.18429 L983.353514,3283.45352 C983.726641,3283.77361 984.293383,3283.79161 984.695691,3283.47548 C985.682112,3282.69836 986.57695,3281.81273 987.364035,3280.83456 C987.717119,3280.39659 987.668492,3279.75903 987.259468,3279.38517 C986.170623,3278.42541 985.795407,3276.90014 986.315909,3275.55389 C986.83573,3274.20941 988.138399,3273.33099 989.572798,3273.35263 L989.572798,3273.35263 L989.925502,3273.35302 C990.410363,3273.32269 990.833939,3272.92887 990.895761,3272.41772 C991.034633,3271.17003 991.034808,3269.91622 990.896599,3268.67421 C990.839132,3268.16796 990.283159,3267.73197 989.701334,3267.73185 C988.246732,3267.76368 986.935777,3266.89532 986.406491,3265.55088 C985.878076,3264.20866 986.242742,3262.67946 987.317008,3261.7226 C987.736021,3261.34319 987.788654,3260.70921 987.438758,3260.2691 C986.668446,3259.29518 985.790297,3258.40966 984.823554,3257.63166 C984.415653,3257.30629 983.835978,3257.32253 983.470584,3257.64505 L983.470584,3257.64505 L983.210863,3257.90228 C982.214736,3258.83563 980.752309,3259.12441 979.44198,3258.6197 C978.194985,3258.08572 977.372575,3256.85161 977.348214,3255.46674 L977.348214,3255.46674 L977.352853,3255.10957 C977.323857,3254.59802 976.93276,3254.17157 976.41618,3254.10915 Z M971.175,3267.1 C971.335,3267.1 971.445,3267.22 971.445,3267.37 C971.445,3267.53 971.335,3267.64 971.175,3267.64 L971.175,3267.64 L967.805,3267.64 L967.805,3270.13 L970.575,3270.13 C970.735,3270.13 970.845,3270.25 970.845,3270.4 C970.845,3270.56 970.735,3270.67 970.575,3270.67 L970.575,3270.67 L967.805,3270.67 L967.805,3273.46 L971.285,3273.46 C971.445,3273.46 971.555,3273.58 971.555,3273.73 C971.555,3273.89 971.445,3274 971.285,3274 L971.285,3274 L967.555,3274 C967.345,3274 967.205,3273.85 967.205,3273.66 L967.205,3273.66 L967.205,3267.43 C967.205,3267.25 967.315,3267.1 967.525,3267.1 L967.525,3267.1 Z M974.535,3267.05 C975.875,3267.05 977.025,3267.48 977.025,3268.98 C977.025,3270.01 976.455,3270.65 975.605,3270.94 L975.605,3270.94 L977.205,3273.47 C977.255,3273.55 977.285,3273.64 977.285,3273.72 C977.285,3273.87 977.155,3274 977.005,3274 C976.875,3274 976.755,3273.91 976.675,3273.77 L976.675,3273.77 L974.975,3271.09 C974.785,3271.12 974.575,3271.13 974.365,3271.13 C974.095,3271.13 973.765,3271.12 973.425,3271.07 L973.425,3271.07 L973.425,3273.68 C973.425,3273.85 973.325,3274 973.125,3274 C972.925,3274 972.825,3273.85 972.825,3273.68 L972.825,3273.68 L972.825,3267.5 C972.825,3267.31 972.915,3267.18 973.115,3267.15 C973.605,3267.07 974.005,3267.05 974.535,3267.05 Z M980.705,3267.05 C982.205,3267.05 983.245,3267.6 983.245,3269.1 C983.245,3270.68 982.015,3271.32 980.555,3271.32 C980.215,3271.32 979.805,3271.29 979.505,3271.23 L979.505,3271.23 L979.505,3273.68 C979.505,3273.85 979.405,3274 979.205,3274 C979.005,3274 978.905,3273.85 978.905,3273.68 L978.905,3273.68 L978.905,3267.53 C978.905,3267.34 978.995,3267.18 979.205,3267.15 C979.755,3267.07 980.175,3267.05 980.705,3267.05 Z M980.705,3267.59 C980.255,3267.59 979.935,3267.61 979.505,3267.66 L979.505,3267.66 L979.505,3270.69 C979.795,3270.74 980.215,3270.78 980.595,3270.78 C981.645,3270.78 982.625,3270.4 982.625,3269.1 C982.625,3268.05 981.905,3267.59 980.705,3267.59 Z M974.475,3267.59 C974.045,3267.59 973.775,3267.62 973.425,3267.65 L973.425,3267.65 L973.425,3270.55 C973.745,3270.59 974.095,3270.61 974.325,3270.61 C975.775,3270.61 976.405,3270.1 976.405,3268.99 C976.405,3267.89 975.595,3267.59 974.475,3267.59 Z" transform="translate(-957 -3253)"/>
</svg>
