<svg xmlns="http://www.w3.org/2000/svg" xmlns:xlink="http://www.w3.org/1999/xlink" width="62" height="62" viewBox="0 0 62 62">
  <defs>
    <linearGradient id="icon-11-9-b" x1="100%" x2="0%" y1="100%" y2="0%">
      <stop offset="0%" stop-color="#1E85E9"/>
      <stop offset="20.276%" stop-color="#8671F3"/>
      <stop offset="70.727%" stop-color="#C06CFD" stop-opacity=".99"/>
      <stop offset="100%" stop-color="#FFBEE8"/>
    </linearGradient>
    <rect id="icon-11-9-a" width="60" height="60" x="0" y="0" rx="4"/>
    <linearGradient id="icon-11-9-c" x1="62.962%" x2="37.038%" y1="100%" y2="0%">
      <stop offset="0%" stop-color="#1E85E9"/>
      <stop offset="20.276%" stop-color="#8671F3"/>
      <stop offset="70.727%" stop-color="#C06CFD" stop-opacity=".99"/>
      <stop offset="100%" stop-color="#FFBEE8"/>
    </linearGradient>
  </defs>
  <g fill="none" fill-rule="evenodd" transform="translate(1 1)">
    <g opacity=".062">
      <use fill="#FAFAFA" xlink:href="#icon-11-9-a"/>
      <use fill="url(#icon-11-9-b)" stroke="#000" stroke-opacity=".02" xlink:href="#icon-11-9-a"/>
    </g>
    <path fill="url(#icon-11-9-c)" fill-rule="nonzero" d="M31,14 L31.0009793,17.1386724 C34.7446846,17.3156645 37.078916,19.6779586 37.9343995,24.097368 L37.9926057,24.4143283 L37.0073943,24.5856717 C36.2828052,20.4193379 34.3049641,18.3157973 31.0008723,18.1399704 L30.9997014,29.5169911 C31.9057827,29.8773287 32.9107524,30.2266652 34.0213883,30.5630994 C41.4677076,34.030905 38.4536723,42.9079419 31.0005557,42.5132147 L31,45 L30,45 L29.9997873,42.411825 C25.5826675,41.7876163 23.0728063,39.2135158 22.5687721,34.7837472 L22.5376815,34.4806572 L23.5335144,34.38946 C23.9091502,38.4912391 26.0306354,40.7961728 29.9993817,41.4012027 L29.9999259,30.1834227 C24.9437119,28.0304142 22.8891602,25.3939768 22.8891602,22.6459961 C22.8891602,19.7268734 25.2897389,17.3087842 29.9995772,17.137615 L30,14 L31,14 Z M30.9995739,30.587584 L31.0006373,41.5116095 C37.461039,41.8938565 40.0003337,34.4505595 33.665659,31.4949785 C32.7055566,31.2048267 31.8179357,30.9019401 30.9995739,30.587584 Z M23.8891602,22.6459961 C23.8891602,24.8961695 25.5880649,27.1412717 29.9991257,29.0970651 L29.9993604,18.1380129 C25.8476995,18.295548 23.8891602,20.2785762 23.8891602,22.6459961 Z"/>
  </g>
</svg>
