<svg xmlns="http://www.w3.org/2000/svg" width="51" height="43" viewBox="0 0 51 43">
  <defs>
    <linearGradient id="icon-27-4-a" x1="100%" x2="0%" y1="86.251%" y2="13.749%">
      <stop offset="0%" stop-color="#1E85E9"/>
      <stop offset="20.276%" stop-color="#8671F3"/>
      <stop offset="70.727%" stop-color="#C06CFD" stop-opacity=".99"/>
      <stop offset="100%" stop-color="#FFBEE8"/>
    </linearGradient>
  </defs>
  <path fill="url(#icon-27-4-a)" d="M819.75,4129 C822.342777,4129 824.474619,4130.97349 824.725342,4133.5003 L858,4133.5 C858.276142,4133.5 858.5,4133.72386 858.5,4134 C858.5,4134.24546 858.323125,4134.44961 858.089876,4134.49194 L858,4134.5 L824.725243,4134.5007 C824.474055,4137.02703 822.342434,4139 819.75,4139 C817.157566,4139 815.025945,4137.02703 814.774757,4134.5007 L808.5,4134.5 C808.223858,4134.5 808,4134.27614 808,4134 C808,4133.75454 808.176875,4133.55039 808.410124,4133.50806 L808.5,4133.5 L814.774658,4133.5003 C815.025381,4130.97349 817.157223,4129 819.75,4129 Z M819.75,4130 C817.540861,4130 815.75,4131.79086 815.75,4134 C815.75,4136.20914 817.540861,4138 819.75,4138 C821.959139,4138 823.75,4136.20914 823.75,4134 C823.75,4131.79086 821.959139,4130 819.75,4130 Z M836.25,4112.5 C838.842777,4112.5 840.974619,4114.47349 841.225342,4117.0003 L858,4117 C858.276142,4117 858.5,4117.22386 858.5,4117.5 C858.5,4117.74546 858.323125,4117.94961 858.089876,4117.99194 L858,4118 L841.225243,4118.0007 C840.974055,4120.52703 838.842434,4122.5 836.25,4122.5 C833.657566,4122.5 831.525945,4120.52703 831.274757,4118.0007 L808.5,4118 C808.223858,4118 808,4117.77614 808,4117.5 C808,4117.25454 808.176875,4117.05039 808.410124,4117.00806 L808.5,4117 L831.274658,4117.0003 C831.525381,4114.47349 833.657223,4112.5 836.25,4112.5 Z M836.25,4113.5 C834.040861,4113.5 832.25,4115.29086 832.25,4117.5 C832.25,4119.70914 834.040861,4121.5 836.25,4121.5 C838.459139,4121.5 840.25,4119.70914 840.25,4117.5 C840.25,4115.29086 838.459139,4113.5 836.25,4113.5 Z M819.75,4096 C822.342777,4096 824.474619,4097.97349 824.725342,4100.5003 L858,4100.5 C858.276142,4100.5 858.5,4100.72386 858.5,4101 C858.5,4101.24546 858.323125,4101.44961 858.089876,4101.49194 L858,4101.5 L824.725243,4101.5007 C824.474055,4104.02703 822.342434,4106 819.75,4106 C817.157566,4106 815.025945,4104.02703 814.774757,4101.5007 L808.5,4101.5 C808.223858,4101.5 808,4101.27614 808,4101 C808,4100.75454 808.176875,4100.55039 808.410124,4100.50806 L808.5,4100.5 L814.774658,4100.5003 C815.025381,4097.97349 817.157223,4096 819.75,4096 Z M819.75,4097 C817.540861,4097 815.75,4098.79086 815.75,4101 C815.75,4103.20914 817.540861,4105 819.75,4105 C821.959139,4105 823.75,4103.20914 823.75,4101 C823.75,4098.79086 821.959139,4097 819.75,4097 Z" transform="translate(-808 -4096)"/>
</svg>
