<svg xmlns="http://www.w3.org/2000/svg" xmlns:xlink="http://www.w3.org/1999/xlink" width="61" height="61" viewBox="0 0 61 61">
  <defs>
    <linearGradient id="icon-5-8-b" x1="100%" x2="0%" y1="100%" y2="0%">
      <stop offset="0%" stop-color="#1E85E9"/>
      <stop offset="20.276%" stop-color="#8671F3"/>
      <stop offset="70.727%" stop-color="#C06CFD" stop-opacity=".99"/>
      <stop offset="100%" stop-color="#FFBEE8"/>
    </linearGradient>
    <rect id="icon-5-8-a" width="60" height="60" x=".5" y=".5" rx="4"/>
    <linearGradient id="icon-5-8-c" x1="71.037%" x2="28.963%" y1="100%" y2="0%">
      <stop offset="0%" stop-color="#1E85E9"/>
      <stop offset="20.276%" stop-color="#8671F3"/>
      <stop offset="70.727%" stop-color="#C06CFD" stop-opacity=".99"/>
      <stop offset="100%" stop-color="#FFBEE8"/>
    </linearGradient>
  </defs>
  <g fill="none" fill-rule="evenodd">
    <g opacity=".062">
      <use fill="#FAFAFA" xlink:href="#icon-5-8-a"/>
      <use fill="url(#icon-5-8-b)" stroke="#000" stroke-opacity=".02" xlink:href="#icon-5-8-a"/>
    </g>
    <path fill="url(#icon-5-8-c)" fill-rule="nonzero" d="M41.5,12 C42.3284271,12 43,12.6715729 43,13.5 L43,13.5 L43,47.5 C43,48.3284271 42.3284271,49 41.5,49 L41.5,49 L20.5,49 C19.6715729,49 19,48.3284271 19,47.5 L19,47.5 L19,13.5 C19,12.6715729 19.6715729,12 20.5,12 L20.5,12 Z M41.5,13 L20.5,13 C20.2238576,13 20,13.2238576 20,13.5 L20,13.5 L20,47.5 C20,47.7761424 20.2238576,48 20.5,48 L20.5,48 L41.5,48 C41.7761424,48 42,47.7761424 42,47.5 L42,47.5 L42,13.5 C42,13.2238576 41.7761424,13 41.5,13 L41.5,13 Z M39.6378047,15.0189867 L39.6564295,15.024999 C39.6635197,15.0273424 39.6705813,15.0298534 39.6776089,15.0325335 C39.6959548,15.0395209 39.7135801,15.047484 39.7307025,15.0564067 C39.7360584,15.0591894 39.7412976,15.0620373 39.7465063,15.0649889 L39.7575336,15.071421 C39.8746817,15.1416367 39.9640933,15.2584366 39.9914801,15.4027821 C39.9910055,15.4055066 39.9914554,15.4078686 39.9918884,15.4102341 C39.9955352,15.4256789 39.9975686,15.44195 39.9988025,15.4585242 L39.999339,15.4731262 C40.0003239,15.4911116 40.0003402,15.5091912 39.9993656,15.5272846 L39.997576,15.549371 L39.3758719,21.8170712 C39.3486146,22.091865 39.1037538,22.2925331 38.82896,22.2652758 C38.5846988,22.2410471 38.3990062,22.0448847 38.3799004,21.8085957 L38.3807554,21.7183639 L38.768,17.806 L24.068,43.747 L26.9781971,41.5070167 C27.172719,41.357311 27.4423784,41.372971 27.6181871,41.5319956 L27.6793861,41.598307 C27.8290918,41.792829 27.8134317,42.0624883 27.6544072,42.2382971 L27.5880957,42.2994961 L22.6372901,46.1096767 C22.3148938,46.3577955 21.8619876,46.136828 21.833556,45.7549301 L21.8347825,45.6640834 L22.4564866,39.3963832 C22.4837439,39.1215893 22.7286047,38.9209213 23.0033985,38.9481786 C23.2476597,38.9724073 23.4333524,39.1685696 23.4524582,39.4048586 L23.4516031,39.4950905 L23.053,43.507 L37.846,17.403 L34.8541614,19.7064377 C34.6596395,19.8561434 34.3899801,19.8404833 34.2141714,19.6814588 L34.1529724,19.6151473 C34.0032667,19.4206254 34.0189268,19.150966 34.1779513,18.9751573 L34.2442628,18.9139583 L39.1950684,15.1037776 L39.2299272,15.0790945 C39.2379975,15.0739259 39.2462025,15.0689992 39.2545301,15.0643177 L39.1950684,15.1037776 C39.3332383,14.997441 39.4953793,14.9772631 39.6378047,15.0189867 Z M39.3280032,45.251472 C39.42798,45.5088807 39.3003563,45.7985989 39.0429476,45.8985758 C38.9433774,45.9372486 38.8397777,45.9651931 38.7164052,45.9825775 L38.5858589,45.996448 L36.7853168,46.000001 C36.509175,46.0005436 36.2848763,45.7771279 36.2843297,45.5009861 C36.2838476,45.2555267 36.4603198,45.0510298 36.6934851,45.0082339 L36.7833447,45.000001 L38.5429983,44.9982055 L38.6134284,44.9871929 L38.6808993,44.9664165 C38.938308,44.8664396 39.2280263,44.9940633 39.3280032,45.251472 Z M34.7843307,45 C35.0604731,45 35.2843307,45.2238576 35.2843307,45.5 C35.2843307,45.7454599 35.1074556,45.9496084 34.8742064,45.9919443 L34.7843307,46 L32.7843307,46 C32.5081884,46 32.2843307,45.7761424 32.2843307,45.5 C32.2843307,45.2545401 32.4612059,45.0503916 32.6944551,45.0080557 L32.7843307,45 L34.7843307,45 Z M30.7843307,45 C31.0604731,45 31.2843307,45.2238576 31.2843307,45.5 C31.2843307,45.7454599 31.1074556,45.9496084 30.8742064,45.9919443 L30.7843307,46 L28.7843307,46 C28.5081884,46 28.2843307,45.7761424 28.2843307,45.5 C28.2843307,45.2545401 28.4612059,45.0503916 28.6944551,45.0080557 L28.7843307,45 L30.7843307,45 Z M39.5,41.1298828 C39.7454599,41.1298828 39.9496084,41.306758 39.9919443,41.5400072 L40,41.6298828 L40,43.6298828 C40,43.9060252 39.7761424,44.1298828 39.5,44.1298828 C39.2545401,44.1298828 39.0503916,43.9530077 39.0080557,43.7197584 L39,43.6298828 L39,41.6298828 C39,41.3537404 39.2238576,41.1298828 39.5,41.1298828 Z M39.5,37.1298828 C39.7454599,37.1298828 39.9496084,37.306758 39.9919443,37.5400072 L40,37.6298828 L40,39.6298828 C40,39.9060252 39.7761424,40.1298828 39.5,40.1298828 C39.2545401,40.1298828 39.0503916,39.9530077 39.0080557,39.7197584 L39,39.6298828 L39,37.6298828 C39,37.3537404 39.2238576,37.1298828 39.5,37.1298828 Z M39.5,33.1298828 C39.7454599,33.1298828 39.9496084,33.306758 39.9919443,33.5400072 L40,33.6298828 L40,35.6298828 C40,35.9060252 39.7761424,36.1298828 39.5,36.1298828 C39.2545401,36.1298828 39.0503916,35.9530077 39.0080557,35.7197584 L39,35.6298828 L39,33.6298828 C39,33.3537404 39.2238576,33.1298828 39.5,33.1298828 Z M22.5,33.0964355 C22.7454599,33.0964355 22.9496084,33.2733107 22.9919443,33.5065599 L23,33.5964355 L23,35.5964355 C23,35.8725779 22.7761424,36.0964355 22.5,36.0964355 C22.2545401,36.0964355 22.0503916,35.9195604 22.0080557,35.6863112 L22,35.5964355 L22,33.5964355 C22,33.3202932 22.2238576,33.0964355 22.5,33.0964355 Z M39.5,29.1298828 C39.7454599,29.1298828 39.9496084,29.306758 39.9919443,29.5400072 L40,29.6298828 L40,31.6298828 C40,31.9060252 39.7761424,32.1298828 39.5,32.1298828 C39.2545401,32.1298828 39.0503916,31.9530077 39.0080557,31.7197584 L39,31.6298828 L39,29.6298828 C39,29.3537404 39.2238576,29.1298828 39.5,29.1298828 Z M22.5,29.0964355 C22.7454599,29.0964355 22.9496084,29.2733107 22.9919443,29.5065599 L23,29.5964355 L23,31.5964355 C23,31.8725779 22.7761424,32.0964355 22.5,32.0964355 C22.2545401,32.0964355 22.0503916,31.9195604 22.0080557,31.6863112 L22,31.5964355 L22,29.5964355 C22,29.3202932 22.2238576,29.0964355 22.5,29.0964355 Z M39.5,25.1298828 C39.7454599,25.1298828 39.9496084,25.306758 39.9919443,25.5400072 L40,25.6298828 L40,27.6298828 C40,27.9060252 39.7761424,28.1298828 39.5,28.1298828 C39.2545401,28.1298828 39.0503916,27.9530077 39.0080557,27.7197584 L39,27.6298828 L39,25.6298828 C39,25.3537404 39.2238576,25.1298828 39.5,25.1298828 Z M22.5,25.0964355 C22.7454599,25.0964355 22.9496084,25.2733107 22.9919443,25.5065599 L23,25.5964355 L23,27.5964355 C23,27.8725779 22.7761424,28.0964355 22.5,28.0964355 C22.2545401,28.0964355 22.0503916,27.9195604 22.0080557,27.6863112 L22,27.5964355 L22,25.5964355 C22,25.3202932 22.2238576,25.0964355 22.5,25.0964355 Z M22.5,21.0964355 C22.7454599,21.0964355 22.9496084,21.2733107 22.9919443,21.5065599 L23,21.5964355 L23,23.5964355 C23,23.8725779 22.7761424,24.0964355 22.5,24.0964355 C22.2545401,24.0964355 22.0503916,23.9195604 22.0080557,23.6863112 L22,23.5964355 L22,21.5964355 C22,21.3202932 22.2238576,21.0964355 22.5,21.0964355 Z M22.5,17.0964355 C22.7454599,17.0964355 22.9496084,17.2733107 22.9919443,17.5065599 L23,17.5964355 L23,19.5964355 C23,19.8725779 22.7761424,20.0964355 22.5,20.0964355 C22.2545401,20.0964355 22.0503916,19.9195604 22.0080557,19.6863112 L22,19.5964355 L22,17.5964355 C22,17.3202932 22.2238576,17.0964355 22.5,17.0964355 Z M24.9872518,14.9999999 C25.2633917,14.9988451 25.4881872,15.2217609 25.489351,15.4979009 C25.490377,15.7433586 25.3143604,15.9482479 25.081291,15.9915627 L24.99145,15.9999999 L23.4410001,16.0033964 C23.3834874,16.0100841 23.3283394,16.026624 23.2773978,16.0520332 L23.2043704,16.0966763 C22.981913,16.2602834 22.6689458,16.2125758 22.5053387,15.9901184 C22.3417315,15.7676609 22.3894391,15.4546937 22.6118966,15.2910866 C22.7786138,15.1684738 22.968804,15.0815621 23.1998925,15.0345037 L23.3811495,15.0067473 L24.9872518,14.9999999 Z M28.9893509,15 C29.2654933,15 29.4893509,15.2238576 29.4893509,15.5 C29.4893509,15.7454599 29.3124757,15.9496084 29.0792265,15.9919443 L28.9893509,16 L26.9893509,16 C26.7132085,16 26.4893509,15.7761424 26.4893509,15.5 C26.4893509,15.2545401 26.6662261,15.0503916 26.8994753,15.0080557 L26.9893509,15 L28.9893509,15 Z M32.9893509,15 C33.2654933,15 33.4893509,15.2238576 33.4893509,15.5 C33.4893509,15.7454599 33.3124757,15.9496084 33.0792265,15.9919443 L32.9893509,16 L30.9893509,16 C30.7132085,16 30.4893509,15.7761424 30.4893509,15.5 C30.4893509,15.2545401 30.6662261,15.0503916 30.8994753,15.0080557 L30.9893509,15 L32.9893509,15 Z"/>
  </g>
</svg>
