<svg xmlns="http://www.w3.org/2000/svg" xmlns:xlink="http://www.w3.org/1999/xlink" width="62" height="62" viewBox="0 0 62 62">
  <defs>
    <linearGradient id="icon-2-7-b" x1="100%" x2="0%" y1="100%" y2="0%">
      <stop offset="0%" stop-color="#1E85E9"/>
      <stop offset="20.276%" stop-color="#8671F3"/>
      <stop offset="70.727%" stop-color="#C06CFD" stop-opacity=".99"/>
      <stop offset="100%" stop-color="#FFBEE8"/>
    </linearGradient>
    <rect id="icon-2-7-a" width="60" height="60" x="0" y="0" rx="4"/>
    <linearGradient id="icon-2-7-c" x1="100%" x2="0%" y1="70.167%" y2="29.833%">
      <stop offset="0%" stop-color="#1E85E9"/>
      <stop offset="20.276%" stop-color="#8671F3"/>
      <stop offset="70.727%" stop-color="#C06CFD" stop-opacity=".99"/>
      <stop offset="100%" stop-color="#FFBEE8"/>
    </linearGradient>
  </defs>
  <g fill="none" fill-rule="evenodd" transform="translate(1 1)">
    <g opacity=".062">
      <use fill="#FAFAFA" xlink:href="#icon-2-7-a"/>
      <use fill="url(#icon-2-7-b)" stroke="#000" stroke-opacity=".02" xlink:href="#icon-2-7-a"/>
    </g>
    <path fill="url(#icon-2-7-c)" fill-rule="nonzero" d="M44.1698157,17.0298569 C44.4006851,17.1132228 44.5326264,17.3489195 44.4932271,17.5826826 L44.4702793,17.6699519 L35.6582793,42.0734695 C35.5644927,42.3331976 35.2779124,42.4677197 35.0181843,42.373933 C34.7873149,42.2905671 34.6553736,42.0548704 34.6947729,41.8211073 L34.7177207,41.733838 L43.5297207,17.3303204 C43.6235073,17.0705923 43.9100876,16.9360702 44.1698157,17.0298569 Z M18,18.1556537 C22.418278,18.1556537 26,21.7373757 26,26.1556537 L26,26.1556537 L26,33.1556537 C26,37.5739317 22.418278,41.1556537 18,41.1556537 C13.581722,41.1556537 10,37.5739317 10,33.1556537 L10,33.1556537 L10,26.1556537 C10,21.7373757 13.581722,18.1556537 18,18.1556537 Z M46,29.1556537 C48.209139,29.1556537 50,30.9465147 50,33.1556537 L50,33.1556537 L50,37.1556537 C50,39.3647927 48.209139,41.1556537 46,41.1556537 C43.790861,41.1556537 42,39.3647927 42,37.1556537 L42,37.1556537 L42,33.1556537 C42,30.9465147 43.790861,29.1556537 46,29.1556537 Z M18,19.1556537 C14.1340068,19.1556537 11,22.2896605 11,26.1556537 L11,26.1556537 L11,33.1556537 C11,37.021647 14.1340068,40.1556537 18,40.1556537 C21.8659932,40.1556537 25,37.021647 25,33.1556537 L25,33.1556537 L25,26.1556537 C25,22.2896605 21.8659932,19.1556537 18,19.1556537 Z M46,30.1556537 C44.3431458,30.1556537 43,31.4987995 43,33.1556537 L43,33.1556537 L43,37.1556537 C43,38.812508 44.3431458,40.1556537 46,40.1556537 C47.6568542,40.1556537 49,38.812508 49,37.1556537 L49,37.1556537 L49,33.1556537 C49,31.4987995 47.6568542,30.1556537 46,30.1556537 Z M33,18.1556537 C35.209139,18.1556537 37,19.9465147 37,22.1556537 L37,22.1556537 L37,26.1556537 C37,28.3647927 35.209139,30.1556537 33,30.1556537 C30.790861,30.1556537 29,28.3647927 29,26.1556537 L29,26.1556537 L29,22.1556537 C29,19.9465147 30.790861,18.1556537 33,18.1556537 Z M33,19.1556537 C31.3431458,19.1556537 30,20.4987995 30,22.1556537 L30,22.1556537 L30,26.1556537 C30,27.812508 31.3431458,29.1556537 33,29.1556537 C34.6568542,29.1556537 36,27.812508 36,26.1556537 L36,26.1556537 L36,22.1556537 C36,20.4987995 34.6568542,19.1556537 33,19.1556537 Z"/>
  </g>
</svg>
