<svg xmlns="http://www.w3.org/2000/svg" xmlns:xlink="http://www.w3.org/1999/xlink" width="62" height="62" viewBox="0 0 62 62">
  <defs>
    <linearGradient id="icon-10-2-b" x1="100%" x2="0%" y1="100%" y2="0%">
      <stop offset="0%" stop-color="#1E85E9"/>
      <stop offset="20.276%" stop-color="#8671F3"/>
      <stop offset="70.727%" stop-color="#C06CFD" stop-opacity=".99"/>
      <stop offset="100%" stop-color="#FFBEE8"/>
    </linearGradient>
    <rect id="icon-10-2-a" width="60" height="60" x="0" y="0" rx="4"/>
  </defs>
  <g fill="none" fill-rule="evenodd" transform="translate(1 1)">
    <g opacity=".062">
      <use fill="#FAFAFA" xlink:href="#icon-10-2-a"/>
      <use fill="url(#icon-10-2-b)" stroke="#000" stroke-opacity=".02" xlink:href="#icon-10-2-a"/>
    </g>
    <path fill="url(#icon-10-2-b)" fill-rule="nonzero" d="M30,13 C39.3888407,13 47,20.6111593 47,30 C47,39.3888407 39.3888407,47 30,47 C20.6111593,47 13,39.3888407 13,30 C13,20.6111593 20.6111593,13 30,13 Z M30,13.9444444 C21.1327615,13.9444444 13.9444444,21.1327615 13.9444444,30 C13.9444444,38.8672385 21.1327615,46.0555556 30,46.0555556 C38.8672385,46.0555556 46.0555556,38.8672385 46.0555556,30 C46.0555556,21.1327615 38.8672385,13.9444444 30,13.9444444 Z M39.2206596,19.8682385 C39.6349923,19.6360983 40.0942475,20.0920628 39.8650927,20.5080541 L39.8650927,20.5080541 L33.2232305,32.565218 C33.1801147,32.6434873 33.115676,32.7079167 33.0374005,32.7510212 L33.0374005,32.7510212 L20.9787493,39.391436 C20.5627247,39.6205309 20.1068263,39.1612093 20.3390269,38.7469101 L20.3390269,38.7469101 L27.0550835,26.7639207 C27.0976211,26.6880239 27.1602998,26.6253543 27.2362029,26.5828277 L27.2362029,26.5828277 Z M27.568,27.777 L21.9715024,37.765518 L32.022,32.231 L27.568,27.777 Z M38.2396724,21.5000193 L28.242,27.099 L32.7,31.557 L38.2396724,21.5000193 Z"/>
  </g>
</svg>
