<svg xmlns="http://www.w3.org/2000/svg" width="47" height="40" viewBox="0 0 47 40">
  <defs>
    <linearGradient id="icon-25-5-a" x1="100%" x2="0%" y1="86.214%" y2="13.786%">
      <stop offset="0%" stop-color="#1E85E9"/>
      <stop offset="20.276%" stop-color="#8671F3"/>
      <stop offset="70.727%" stop-color="#C06CFD" stop-opacity=".99"/>
      <stop offset="100%" stop-color="#FFBEE8"/>
    </linearGradient>
  </defs>
  <path fill="url(#icon-25-5-a)" d="M968.5,3815 C977.598412,3815 985.278709,3821.60479 986.748022,3830.43953 L987.2,3830.1 C987.286548,3830.03509 987.391815,3830 987.5,3830 L987.5,3830 L996.5,3830 C996.980506,3830 997.184405,3830.6117 996.8,3830.9 L996.8,3830.9 L993.333,3833.5 L996.8,3836.1 C997.184405,3836.3883 996.980506,3837 996.5,3837 L987.5,3837 C987.391815,3837 987.286548,3836.96491 987.2,3836.9 L986.747825,3836.56175 C985.91365,3841.5758 983.078049,3845.87287 979.116984,3848.6508 L982.83121,3854.22265 L982.87175,3854.29538 C983.017878,3854.61624 982.786007,3855 982.415184,3855 L982.415184,3855 L976.415184,3855 L976.316624,3854.9902 C976.188097,3854.96436 976.073346,3854.88863 975.999159,3854.77735 L975.999159,3854.77735 L973.65978,3851.26906 C972.018848,3851.74529 970.286846,3852 968.5,3852 C966.682711,3852 964.926622,3851.73797 963.267455,3851.24963 L960.916025,3854.77735 C960.841839,3854.88863 960.727088,3854.96436 960.59856,3854.9902 L960.5,3855 L954.5,3855 C954.129177,3855 953.897307,3854.61624 954.043434,3854.29538 L954.083975,3854.22265 L957.824072,3848.61061 C953.090262,3845.25998 950,3839.74088 950,3833.5 C950,3823.28273 958.282732,3815 968.5,3815 Z M958.656872,3849.16693 L955.434,3854 L960.231,3854 L962.279272,3850.92811 C961.001035,3850.47182 959.787706,3849.8789 958.656872,3849.16693 Z M974.649624,3850.95119 L976.683528,3854 L981.481528,3854 L978.282593,3849.20303 C977.146723,3849.91152 975.929579,3850.49988 974.649624,3850.95119 Z M968.5,3816 C958.835017,3816 951,3823.83502 951,3833.5 C951,3843.16498 958.835017,3851 968.5,3851 C977.234841,3851 984.584678,3844.56502 985.818796,3836.02825 L985.838,3835.879 L983.332,3834 L980.990155,3834.00069 C980.73137,3840.57008 975.402652,3845.83669 968.808227,3845.99627 L968.5,3846 C961.596441,3846 956,3840.40356 956,3833.5 C956,3826.59644 961.596441,3821 968.5,3821 C975.236206,3821 980.727899,3826.3284 980.990195,3833.00031 L983.332,3833 L985.839,3831.12 L985.807417,3830.89431 C984.5396,3822.39329 977.205852,3816 968.5,3816 Z M968.5,3822 C962.148725,3822 957,3827.14873 957,3833.5 C957,3839.85127 962.148725,3845 968.5,3845 C974.68348,3845 979.727111,3840.11973 979.989292,3834.00079 L974.98103,3834.00033 C974.725558,3837.3564 971.921502,3840 968.5,3840 C964.910149,3840 962,3837.08985 962,3833.5 C962,3829.91015 964.910149,3827 968.5,3827 C971.921843,3827 974.726116,3829.64413 974.981106,3833.00067 L979.989335,3833.00021 C979.727661,3826.8808 974.683817,3822 968.5,3822 Z M970.77735,3835.08397 C970.981585,3835.22013 971.053334,3835.48054 970.959176,3835.6981 L970.916025,3835.77735 C970.779868,3835.98159 970.519458,3836.05333 970.301899,3835.95918 L970.22265,3835.91603 L967.22265,3833.91603 C966.952771,3833.73611 966.928237,3833.35923 967.149047,3833.1435 L967.22265,3833.08397 L970.22265,3831.08397 C970.452414,3830.9308 970.762849,3830.99289 970.916025,3831.22265 C971.052182,3831.42688 971.018254,3831.69486 970.847663,3831.85947 L970.77735,3831.91603 L969.151,3833 L973.977614,3833.00039 C973.731703,3830.26935 971.489427,3828.11386 968.721207,3828.00437 L968.5,3828 C965.462434,3828 963,3830.46243 963,3833.5 C963,3836.53757 965.462434,3839 968.5,3839 C971.368812,3839 973.724621,3836.80357 973.977523,3834.00061 L969.151,3834 L970.77735,3835.08397 Z M992.333,3834 L985,3834 L987.667,3836 L995,3836 L992.333,3834 Z M995,3831 L987.667,3831 L985,3833 L992.333,3833 L995,3831 Z" transform="translate(-950 -3815)"/>
</svg>
