<svg xmlns="http://www.w3.org/2000/svg" width="16" height="31" viewBox="0 0 16 31">
  <defs>
    <linearGradient id="ico-standarts-3-a" x1="62.962%" x2="37.038%" y1="100%" y2="0%">
      <stop offset="0%" stop-color="#1E85E9"/>
      <stop offset="20.276%" stop-color="#8671F3"/>
      <stop offset="70.727%" stop-color="#C06CFD" stop-opacity=".99"/>
      <stop offset="100%" stop-color="#FFBEE8"/>
    </linearGradient>
  </defs>
  <path fill="url(#ico-standarts-3-a)" d="M8.4623185,0 L8.46329778,3.1386724 C12.2070031,3.31566449 14.5412345,5.67795857 15.396718,10.097368 L15.4549242,10.4143283 L14.4697128,10.5856717 C13.7451237,6.41933791 11.7672826,4.31579735 8.4631908,4.13997042 L8.46201987,15.5169911 C9.36810118,15.8773287 10.3730709,16.2266652 11.4837068,16.5630994 C18.9300261,20.030905 15.9159908,28.9079419 8.46287418,28.5132147 L8.4623185,31 L7.4623185,31 L7.46210578,28.411825 C3.04498605,27.7876163 0.535124819,25.2135158 0.0310905952,20.7837472 L-3.07576187e-12,20.4806572 L0.995832857,20.38946 C1.37146875,24.4912391 3.49295391,26.7961728 7.46170021,27.4012027 L7.46224444,16.1834227 C2.40603045,14.0304142 0.35147866,11.3939768 0.35147866,8.64599609 C0.35147866,5.72687336 2.75205745,3.30878421 7.46189574,3.13761498 L7.4623185,0 L8.4623185,0 Z M8.46189244,16.587584 L8.46295583,27.5116095 C14.9233575,27.8938565 17.4626522,20.4505595 11.1279775,17.4949785 C10.1678751,17.2048267 9.28025419,16.9019401 8.46189244,16.587584 Z M1.35147866,8.64599609 C1.35147866,10.8961695 3.05038345,13.1412717 7.46144423,15.0970651 L7.46167891,4.13801292 C3.31001805,4.29554803 1.35147866,6.2785762 1.35147866,8.64599609 Z"/>
</svg>
