<svg xmlns="http://www.w3.org/2000/svg" xmlns:xlink="http://www.w3.org/1999/xlink" width="62" height="62" viewBox="0 0 62 62">
  <defs>
    <linearGradient id="ico-services-4-b" x1="100%" x2="0%" y1="100%" y2="0%">
      <stop offset="0%" stop-color="#1E85E9"/>
      <stop offset="20.276%" stop-color="#8671F3"/>
      <stop offset="70.727%" stop-color="#C06CFD" stop-opacity=".99"/>
      <stop offset="100%" stop-color="#FFBEE8"/>
    </linearGradient>
    <rect id="ico-services-4-a" width="60" height="60" x="0" y="0" rx="4"/>
    <linearGradient id="ico-services-4-c" x1="100%" x2="0%" y1="88.804%" y2="11.196%">
      <stop offset="0%" stop-color="#1E85E9"/>
      <stop offset="20.276%" stop-color="#8671F3"/>
      <stop offset="70.727%" stop-color="#C06CFD" stop-opacity=".99"/>
      <stop offset="100%" stop-color="#FFBEE8"/>
    </linearGradient>
  </defs>
  <g fill="none" fill-rule="evenodd" transform="translate(1 1)">
    <g opacity=".062">
      <use fill="#FAFAFA" xlink:href="#ico-services-4-a"/>
      <use fill="url(#ico-services-4-b)" stroke="#000" stroke-opacity=".02" xlink:href="#ico-services-4-a"/>
    </g>
    <path fill="url(#ico-services-4-c)" fill-rule="nonzero" d="M51,38.75 C51,41.020504 49.1654595,42.8611111 46.902439,42.8611111 L36.755,42.861 L38.7073171,48 L22.3170732,48 L24.268,42.861 L13.097561,42.8611111 C10.8345405,42.8611111 9,41.020504 9,38.75 L9,15.1111111 C9,12.8406071 10.8345405,11 13.097561,11 L46.902439,11 C49.1654595,11 51,12.8406071 51,15.1111111 L51,38.75 Z M35.6597561,42.8611111 L25.3636098,42.8611111 L23.802439,46.9722222 L37.2209268,46.9722222 L35.6597561,42.8611111 Z M49.975,34.638 L10.024,34.638 L10.0243902,38.75 C10.0243902,40.3920609 11.3037717,41.7343181 12.9169889,41.8280992 L13.097561,41.8333333 L46.902439,41.8333333 C48.5390877,41.8333333 49.8769209,40.5497211 49.9703929,38.9311693 L49.9756098,38.75 L49.975,34.638 Z M30,36.6944444 C30.8486327,36.6944444 31.5365854,37.3846721 31.5365854,38.2361111 C31.5365854,39.0875501 30.8486327,39.7777778 30,39.7777778 C29.1513673,39.7777778 28.4634146,39.0875501 28.4634146,38.2361111 C28.4634146,37.3846721 29.1513673,36.6944444 30,36.6944444 Z M30,37.7222222 C29.7171224,37.7222222 29.4878049,37.9522981 29.4878049,38.2361111 C29.4878049,38.5199241 29.7171224,38.75 30,38.75 C30.2828776,38.75 30.5121951,38.5199241 30.5121951,38.2361111 C30.5121951,37.9522981 30.2828776,37.7222222 30,37.7222222 Z M46.902439,12.0277778 L13.097561,12.0277778 C11.4609123,12.0277778 10.1230791,13.31139 10.0296071,14.9299419 L10.0243902,15.1111111 L10.024,33.611 L49.975,33.611 L49.9756098,15.1111111 C49.9756098,13.4690502 48.6962283,12.126793 47.0830111,12.0330119 L46.902439,12.0277778 Z"/>
  </g>
</svg>
