<svg xmlns="http://www.w3.org/2000/svg" width="40" height="31" viewBox="0 0 40 31">
  <defs>
    <linearGradient id="icon-15-1-a" x1="100%" x2="0%" y1="81.211%" y2="18.789%">
      <stop offset="0%" stop-color="#1E85E9"/>
      <stop offset="20.276%" stop-color="#8671F3"/>
      <stop offset="70.727%" stop-color="#C06CFD" stop-opacity=".99"/>
      <stop offset="100%" stop-color="#FFBEE8"/>
    </linearGradient>
  </defs>
  <path fill="url(#icon-15-1-a)" d="M422.499369,2410 L429.167461,2418.77824 L410.643913,2440.474 C410.161784,2441.0387 409.313164,2441.10563 408.748468,2440.6235 C408.695478,2440.57826 408.646085,2440.52897 408.600736,2440.47607 L408.600736,2440.47607 L390,2418.77888 L396.669888,2410 L422.499369,2410 Z M427.571,2419.105 L416.297,2419.152 L410.303,2439.333 L427.571,2419.105 Z M402.905,2419.208 L391.725,2419.254 L408.837,2439.216 L402.905,2419.208 Z M415.253,2419.156 L403.946,2419.204 L409.587,2438.232 L415.253,2419.156 Z M396.92,2411.321 L391.653,2418.255 L402.238,2418.211 L396.92,2411.321 Z M409.58534,2411.322 L404.346,2418.202 L414.846,2418.158 L409.58534,2411.322 Z M422.249,2411.325 L417.034,2418.149 L427.401,2418.106 L422.249,2411.325 Z M421.239,2410.999 L410.599,2410.999 L415.93734,2417.938 L421.239,2410.999 Z M408.575,2410.999 L397.934,2410.999 L403.29034,2417.937 L408.575,2410.999 Z" transform="translate(-390 -2410)"/>
</svg>
