<?xml version="1.0" encoding="UTF-8"?>
<svg width="27px" height="29px" viewBox="0 0 27 29" version="1.1" xmlns="http://www.w3.org/2000/svg" xmlns:xlink="http://www.w3.org/1999/xlink">
    <title>icon-30-5</title>
    <defs>
        <linearGradient x1="93.6425387%" y1="100%" x2="6.35746127%" y2="0%" id="linearGradient-1">
            <stop stop-color="#1E85E9" offset="0%"></stop>
            <stop stop-color="#8671F3" offset="20.275549%"></stop>
            <stop stop-color="#C06CFD" stop-opacity="0.99" offset="70.7268792%"></stop>
            <stop stop-color="#FFBEE8" offset="100%"></stop>
        </linearGradient>
    </defs>
    <g id="Page-1" stroke="none" stroke-width="1" fill="none" fill-rule="evenodd">
        <g id="icons" transform="translate(-962.000000, -4529.000000)" fill="url(#linearGradient-1)" fill-rule="nonzero">
            <path d="M963.122222,4529 C962.502436,4529 962,4529.50244 962,4530.12222 L962,4556.03875 C962,4556.22447 962.04609,4556.40728 962.134138,4556.5708 C962.427979,4557.1165 963.108564,4557.32068 963.654268,4557.02684 L987.719617,4544.06857 C987.912977,4543.96445 988.071539,4543.80589 988.175656,4543.61253 C988.469496,4543.06683 988.265321,4542.38624 987.719617,4542.0924 L963.654268,4529.13414 C963.53163,4529.0681 963.398138,4529.02567 963.260708,4529.00858 L963.122222,4529 Z M963.122222,4530 C963.142449,4530 963.162359,4530.00502 963.180168,4530.01461 L987.245517,4542.97287 C987.30495,4543.00488 987.327187,4543.079 987.295184,4543.13843 C987.283845,4543.15949 987.266576,4543.17676 987.245517,4543.1881 L963.180168,4556.14637 C963.120735,4556.17837 963.046612,4556.15613 963.014609,4556.0967 C963.00502,4556.07889 963,4556.05898 963,4556.03875 L963,4530.12222 C963,4530.06822 963.035021,4530.0224 963.083591,4530.00623 L963.122222,4530 Z" id="icon-30-5"></path>
        </g>
    </g>
</svg>