<svg xmlns="http://www.w3.org/2000/svg" xmlns:xlink="http://www.w3.org/1999/xlink" width="62" height="62" viewBox="0 0 62 62">
  <defs>
    <linearGradient id="icon-7-2-b" x1="100%" x2="0%" y1="100%" y2="0%">
      <stop offset="0%" stop-color="#1E85E9"/>
      <stop offset="20.276%" stop-color="#8671F3"/>
      <stop offset="70.727%" stop-color="#C06CFD" stop-opacity=".99"/>
      <stop offset="100%" stop-color="#FFBEE8"/>
    </linearGradient>
    <rect id="icon-7-2-a" width="60" height="60" x="0" y="0" rx="4"/>
    <linearGradient id="icon-7-2-c" x1="87.4%" x2="12.6%" y1="100%" y2="0%">
      <stop offset="0%" stop-color="#1E85E9"/>
      <stop offset="20.276%" stop-color="#8671F3"/>
      <stop offset="70.727%" stop-color="#C06CFD"/>
      <stop offset="100%" stop-color="#FFBEE8"/>
    </linearGradient>
  </defs>
  <g fill="none" fill-rule="evenodd" transform="translate(1 1)">
    <g opacity=".062">
      <use fill="#FAFAFA" xlink:href="#icon-7-2-a"/>
      <use fill="url(#icon-7-2-b)" stroke="#000" stroke-opacity=".02" xlink:href="#icon-7-2-a"/>
    </g>
    <path fill="url(#icon-7-2-c)" fill-rule="nonzero" d="M44.5110643,25.4795644 C44.781096,25.4795644 45,25.698556 45,25.9686959 C45,35.5540031 37.232683,43.32443 27.6512118,43.32443 C24.0895096,43.32443 20.6879513,42.2477855 17.8188554,40.2698575 L20.5716346,47.3083946 C20.659047,47.5320031 20.570608,47.7808976 20.3731859,47.9024384 L20.2941747,47.9417484 C20.0705518,48.0290657 19.8215768,47.9405581 19.6999432,47.7431334 L19.660598,47.6641244 L16.5154119,39.6184645 C16.4127167,39.3557614 16.5531569,39.0684542 16.8081445,38.9792637 L16.8972065,38.9571767 L25.4375454,37.6581579 C25.7045719,37.6175421 25.9540468,37.8010523 25.9947632,38.0680394 C26.0309556,38.3053613 25.8900206,38.5287566 25.6707137,38.6039959 L25.5849928,38.6250036 L18.6857921,39.674247 C21.3260296,41.4066952 24.4176323,42.346167 27.6512118,42.346167 C36.6926195,42.346167 44.0221286,35.0137234 44.0221286,25.9686959 C44.0221286,25.698556 44.2410325,25.4795644 44.5110643,25.4795644 Z M38.3000568,11.2568666 L38.339402,11.3358756 L41.4845881,19.3815355 C41.5872833,19.6442386 41.4468431,19.9315458 41.1918555,20.0207363 L41.1027935,20.0428233 L32.5624546,21.3418421 C32.2954281,21.3824579 32.0459532,21.1989477 32.0052368,20.9319606 C31.9690444,20.6946387 32.1099794,20.4712434 32.3292863,20.3960041 L32.4150072,20.3749964 L39.3142079,19.325753 C36.6739704,17.5933048 33.5823677,16.653833 30.3487882,16.653833 C21.3073805,16.653833 13.9778714,23.9862766 13.9778714,33.0313041 C13.9778714,33.301444 13.7589675,33.5204356 13.4889357,33.5204356 C13.218904,33.5204356 13,33.301444 13,33.0313041 C13,23.4459969 20.767317,15.67557 30.3487882,15.67557 C33.9104904,15.67557 37.3120487,16.7522145 40.1811446,18.7301425 L37.4283654,11.6916054 C37.340953,11.4679969 37.429392,11.2191024 37.6268141,11.0975616 L37.7058253,11.0582516 C37.9294482,10.9709343 38.1784232,11.0594419 38.3000568,11.2568666 Z"/>
  </g>
</svg>
