<svg xmlns="http://www.w3.org/2000/svg" width="51" height="44" viewBox="0 0 51 44">
  <defs>
    <linearGradient id="icon-26-4-a" x1="100%" x2="0%" y1="85.889%" y2="14.111%">
      <stop offset="0%" stop-color="#1E85E9"/>
      <stop offset="20.276%" stop-color="#8671F3"/>
      <stop offset="70.727%" stop-color="#C06CFD" stop-opacity=".99"/>
      <stop offset="100%" stop-color="#FFBEE8"/>
    </linearGradient>
  </defs>
  <path fill="url(#icon-26-4-a)" d="M833.5,3953 C835.919893,3953 837.911504,3954.83369 838.161135,3957.18738 L855.375,3957.1875 C855.651142,3957.1875 855.875,3957.41136 855.875,3957.6875 C855.875,3957.93296 855.698125,3958.13711 855.464876,3958.17944 L855.375,3958.1875 L851.315,3958.187 L855.773,3977.5 L859,3977.5 L859,3978 C859,3982.59087 855.278367,3986.3125 850.6875,3986.3125 C846.096633,3986.3125 842.375,3982.59087 842.375,3978 L842.375,3978 L842.375,3977.5 L845.601,3977.5 L850.059,3958.187 L838.161135,3958.18762 C837.928849,3960.37777 836.188243,3962.11767 833.997768,3962.34888 L834,3962.375 L834,3994.91996 C834,3995.02779 833.965868,3995.12764 833.907819,3995.20931 L844.4375,3995.20833 C844.713642,3995.20833 844.9375,3995.43219 844.9375,3995.70833 C844.9375,3995.95379 844.760625,3996.15794 844.527376,3996.20028 L844.4375,3996.20833 L822.5625,3996.20833 C822.286358,3996.20833 822.0625,3995.98448 822.0625,3995.70833 C822.0625,3995.46287 822.239375,3995.25872 822.472624,3995.21639 L822.5625,3995.20833 L833.092181,3995.20931 C833.05065,3995.15088 833.021361,3995.08315 833.008056,3995.00984 L833,3994.91996 L833,3962.375 L833.002232,3962.34888 C830.811757,3962.11767 829.071151,3960.37777 828.838865,3958.18762 L816.94,3958.187 L821.398,3977.5 L824.625,3977.5 L824.625,3978 C824.625,3982.59087 820.903367,3986.3125 816.3125,3986.3125 C811.721633,3986.3125 808,3982.59087 808,3978 L808,3978 L808,3977.5 L811.226,3977.5 L815.684,3958.187 L811.625,3958.1875 C811.348858,3958.1875 811.125,3957.96364 811.125,3957.6875 C811.125,3957.44204 811.301875,3957.23789 811.535124,3957.19556 L811.625,3957.1875 L828.838865,3957.18738 C829.088496,3954.83369 831.080107,3953 833.5,3953 Z M823.607,3978.5 L809.017,3978.5 L809.034816,3978.71814 C809.387946,3982.34091 812.38469,3985.18903 816.071123,3985.30859 L816.071123,3985.30859 L816.3125,3985.3125 C820.108767,3985.3125 823.229377,3982.41967 823.590184,3978.71814 L823.590184,3978.71814 L823.607,3978.5 Z M857.982,3978.5 L843.392,3978.5 L843.409816,3978.71814 C843.762946,3982.34091 846.75969,3985.18903 850.446123,3985.30859 L850.446123,3985.30859 L850.6875,3985.3125 C854.483767,3985.3125 857.604377,3982.41967 857.965184,3978.71814 L857.965184,3978.71814 L857.982,3978.5 Z M816.312,3959.91 L812.253,3977.5 L820.371,3977.5 L816.312,3959.91 Z M850.687,3959.91 L846.628,3977.5 L854.746,3977.5 L850.687,3959.91 Z M833.5,3954 C831.545484,3954 829.946129,3955.52063 829.820454,3957.44336 C829.863029,3957.51512 829.88623,3957.5986 829.88623,3957.6875 C829.88623,3957.7764 829.863029,3957.85988 829.822351,3957.93222 C829.946129,3959.85437 831.545484,3961.375 833.5,3961.375 C835.53655,3961.375 837.1875,3959.72405 837.1875,3957.6875 C837.1875,3955.65095 835.53655,3954 833.5,3954 Z" transform="translate(-808 -3953)"/>
</svg>
