<svg xmlns="http://www.w3.org/2000/svg" width="71" height="59" viewBox="0 0 71 59">
  <defs>
    <linearGradient id="ico-documentation-3-a" x1="100%" x2="0%" y1="84.722%" y2="15.278%">
      <stop offset="0%" stop-color="#1E85E9"/>
      <stop offset="20.276%" stop-color="#8671F3"/>
      <stop offset="70.727%" stop-color="#C06CFD" stop-opacity=".99"/>
      <stop offset="100%" stop-color="#FFBEE8"/>
    </linearGradient>
  </defs>
  <path fill="url(#ico-documentation-3-a)" d="M526.0128,82.6144 C526.0128,84.9578547 524.113055,86.8576 521.7696,86.8576 L500.784,86.857 L503.736,95.344 L478.2768,95.344 L481.228,86.857 L460.2432,86.8576 C457.899745,86.8576 456,84.9578547 456,82.6144 L456,41.2432 C456,38.8997453 457.899745,37 460.2432,37 L521.7696,37 C524.113055,37 526.0128,38.8997453 526.0128,41.2432 L526.0128,82.6144 Z M499.66,86.857 L482.35,86.857 L479.768,94.283 L502.244,94.283 L499.66,86.857 Z M524.951,75.188 L457.06,75.188 L457.0608,82.6144 C457.0608,84.3113844 458.389041,85.6981416 460.062612,85.7917622 L460.2432,85.7968 L521.7696,85.7968 C523.466584,85.7968 524.853342,84.4685595 524.946962,82.7949879 L524.952,82.6144 L524.951,75.188 Z M490.476,77.3104 C491.940659,77.3104 493.128,78.4977408 493.128,79.9624 C493.128,81.4270592 491.940659,82.6144 490.476,82.6144 C489.011341,82.6144 487.824,81.4270592 487.824,79.9624 C487.824,78.4977408 489.011341,77.3104 490.476,77.3104 Z M490.476,78.3712 C489.597205,78.3712 488.8848,79.0836045 488.8848,79.9624 C488.8848,80.8411955 489.597205,81.5536 490.476,81.5536 C491.354795,81.5536 492.0672,80.8411955 492.0672,79.9624 C492.0672,79.0836045 491.354795,78.3712 490.476,78.3712 Z M521.7696,38.0608 L460.2432,38.0608 C458.546216,38.0608 457.159458,39.3890405 457.065838,41.0626121 L457.0608,41.2432 L457.06,74.128 L524.951,74.128 L524.952,41.2432 C524.952,39.5462156 523.623759,38.1594584 521.950188,38.0658378 L521.7696,38.0608 Z" transform="translate(-456 -37)"/>
</svg>
