<svg xmlns="http://www.w3.org/2000/svg" width="37" height="30" viewBox="0 0 37 30">
  <defs>
    <linearGradient id="icon-16-1-a" x1="100%" x2="0%" y1="82.833%" y2="17.167%">
      <stop offset="0%" stop-color="#1E85E9"/>
      <stop offset="20.276%" stop-color="#8671F3"/>
      <stop offset="70.727%" stop-color="#C06CFD" stop-opacity=".99"/>
      <stop offset="100%" stop-color="#FFBEE8"/>
    </linearGradient>
  </defs>
  <path fill="url(#icon-16-1-a)" d="M406.81596,2552.21821 C407.296836,2551.92592 407.90086,2551.92737 408.380329,2552.22196 L408.380329,2552.22196 L425.762624,2562.90204 C426.192338,2563.16606 426.005217,2563.82805 425.500873,2563.82805 L425.500873,2563.82805 L422,2563.828 L422.000873,2565.32805 C422.000873,2565.57351 421.823998,2565.77766 421.590748,2565.82 L421.500873,2565.82805 L421,2565.828 L421,2578.828 L421.500873,2578.82805 C421.746333,2578.82805 421.950481,2579.00493 421.992817,2579.23818 L422.000873,2579.32805 L422,2580.984 L425.500873,2580.9843 C425.777015,2580.9843 426.000873,2581.20816 426.000873,2581.4843 C426.000873,2581.72976 425.823998,2581.93391 425.590748,2581.97625 L425.500873,2581.9843 L389.500873,2581.9843 C389.22473,2581.9843 389.000873,2581.76044 389.000873,2581.4843 C389.000873,2581.23884 389.177748,2581.03469 389.410997,2580.99236 L389.500873,2580.9843 L393,2580.984 L393.000873,2579.32805 C393.000873,2579.08259 393.177748,2578.87844 393.410997,2578.83611 L393.500873,2578.82805 L394,2578.828 L394,2565.828 L393.500873,2565.82805 C393.255413,2565.82805 393.051264,2565.65118 393.008928,2565.41793 L393.000873,2565.32805 L393,2563.828 L389.500873,2563.82805 C389.02687,2563.82805 388.833634,2563.24389 389.16733,2562.95448 L389.241168,2562.90079 Z M415,2563.828 L411,2563.828 L411.000873,2565.32805 C411.000873,2565.57351 410.823998,2565.77766 410.590748,2565.82 L410.500873,2565.82805 L410,2565.828 L410,2578.828 L410.500873,2578.82805 C410.746333,2578.82805 410.950481,2579.00493 410.992817,2579.23818 L411.000873,2579.32805 L411,2580.984 L415,2580.984 L415.000873,2579.32805 C415.000873,2579.08259 415.177748,2578.87844 415.410997,2578.83611 L415.500873,2578.82805 L416,2578.828 L416,2565.828 L415.500873,2565.82805 C415.255413,2565.82805 415.051264,2565.65118 415.008928,2565.41793 L415.000873,2565.32805 L415,2563.828 Z M404,2563.828 L400,2563.828 L400.000873,2565.32805 C400.000873,2565.57351 399.823998,2565.77766 399.590748,2565.82 L399.500873,2565.82805 L399,2565.828 L399,2578.828 L399.500873,2578.82805 C399.746333,2578.82805 399.950481,2579.00493 399.992817,2579.23818 L400.000873,2579.32805 L400,2580.984 L404,2580.984 L404.000873,2579.32805 C404.000873,2579.08259 404.177748,2578.87844 404.410997,2578.83611 L404.500873,2578.82805 L405,2578.828 L405,2565.828 L404.500873,2565.82805 C404.255413,2565.82805 404.051264,2565.65118 404.008928,2565.41793 L404.000873,2565.32805 L404,2563.828 Z M399.000873,2579.82805 L394.000873,2579.82805 L394.000873,2580.82805 L399.000873,2580.82805 L399.000873,2579.82805 Z M410.000873,2579.82805 L405.000873,2579.82805 L405.000873,2580.82805 L410.000873,2580.82805 L410.000873,2579.82805 Z M421.000873,2579.82805 L416.000873,2579.82805 L416.000873,2580.82805 L421.000873,2580.82805 L421.000873,2579.82805 Z M398.000873,2565.82805 L395.000873,2565.82805 L395.000873,2578.82805 L398.000873,2578.82805 L398.000873,2565.82805 Z M409.000873,2565.82805 L406.000873,2565.82805 L406.000873,2578.82805 L409.000873,2578.82805 L409.000873,2565.82805 Z M420.000873,2565.82805 L417.000873,2565.82805 L417.000873,2578.82805 L420.000873,2578.82805 L420.000873,2565.82805 Z M399.000873,2563.82805 L394.000873,2563.82805 L394.000873,2564.82805 L399.000873,2564.82805 L399.000873,2563.82805 Z M410.000873,2563.82805 L405.000873,2563.82805 L405.000873,2564.82805 L410.000873,2564.82805 L410.000873,2563.82805 Z M421.000873,2563.82805 L416.000873,2563.82805 L416.000873,2564.82805 L421.000873,2564.82805 L421.000873,2563.82805 Z M407.856826,2553.07399 C407.697003,2552.97579 407.495662,2552.97531 407.33537,2553.07274 L407.33537,2553.07274 L391.284873,2562.82805 L423.731873,2562.82805 Z" transform="translate(-389 -2552)"/>
</svg>
