<svg xmlns="http://www.w3.org/2000/svg" xmlns:xlink="http://www.w3.org/1999/xlink" width="62" height="62" viewBox="0 0 62 62">
  <defs>
    <linearGradient id="icon-38-3-b" x1="100%" x2="0%" y1="100%" y2="0%">
      <stop offset="0%" stop-color="#1E85E9"/>
      <stop offset="20.276%" stop-color="#8671F3"/>
      <stop offset="70.727%" stop-color="#C06CFD" stop-opacity=".99"/>
      <stop offset="100%" stop-color="#FFBEE8"/>
    </linearGradient>
    <rect id="icon-38-3-a" width="60" height="60" x="0" y="0" rx="4"/>
    <linearGradient id="icon-38-3-c" x1="99.743%" x2=".257%" y1="100%" y2="0%">
      <stop offset="0%" stop-color="#1E85E9"/>
      <stop offset="20.276%" stop-color="#8671F3"/>
      <stop offset="70.727%" stop-color="#C06CFD" stop-opacity=".99"/>
      <stop offset="100%" stop-color="#FFBEE8"/>
    </linearGradient>
  </defs>
  <g fill="none" fill-rule="evenodd" transform="translate(1 1)">
    <g opacity=".062">
      <use fill="#FAFAFA" xlink:href="#icon-38-3-a"/>
      <use fill="url(#icon-38-3-b)" stroke="#000" stroke-opacity=".02" xlink:href="#icon-38-3-a"/>
    </g>
    <path fill="url(#icon-38-3-c)" fill-rule="nonzero" d="M45.9409056,0.5 L45.9519005,0.500120074 C45.972638,0.500573221 45.9933529,0.502308955 46.0139161,0.505327419 L45.9409056,0.5 C45.9773636,0.5 46.0129102,0.50390204 46.0471507,0.511311275 C46.062807,0.514725767 46.0788719,0.519026294 46.0947321,0.524139081 C46.1061448,0.527803442 46.1170783,0.531775807 46.1278266,0.536110889 C46.1435565,0.542443945 46.1590494,0.549615631 46.1742175,0.557621724 C46.1863967,0.564088242 46.1984764,0.571133055 46.2102208,0.578655455 C46.2204902,0.585180062 46.230597,0.592187916 46.2404915,0.599610695 C46.2562149,0.611454878 46.2709611,0.623916308 46.2849415,0.637177201 C46.2877458,0.639829684 46.290925,0.6429199 46.2940727,0.646060783 L46.3017978,0.65394005 C46.3170936,0.669887242 46.3313426,0.686846199 46.3444346,0.704706494 L46.2940727,0.646060783 C46.3192216,0.671154784 46.3411406,0.698260419 46.3598293,0.726860984 C46.3690142,0.740995203 46.3775826,0.755677122 46.3854009,0.770809465 C46.3919195,0.783380077 46.3978317,0.796159008 46.4031762,0.809117172 C46.4081073,0.821032886 46.4126423,0.83334044 46.4166966,0.845864337 C46.4218917,0.862072448 46.4262078,0.878205358 46.429705,0.894479175 C46.430768,0.899179145 46.4318538,0.904636151 46.4328499,0.910124368 L46.4362302,0.931585183 C46.4385108,0.948187391 46.439957,0.964882396 46.440569,0.981602423 L46.4409056,1 L46.4409056,7 C46.4409056,7.27614237 46.217048,7.5 45.9409056,7.5 C45.6954457,7.5 45.4912972,7.32312484 45.4489612,7.08987563 L45.4409056,7 L45.4390944,2.21 L35.7098883,11.961998 C35.8696582,12.2246221 35.970627,12.5269621 35.9945143,12.8507377 L36,13 L36,34 C36,35.1045695 35.1045695,36 34,36 L34,36 L13,36 C12.6385875,36 12.2995651,35.9041368 12.006973,35.7364505 L2.26309442,45.5 L7.05909442,45.5 C7.30455431,45.5 7.50870279,45.6768752 7.55103875,45.9101244 L7.55909442,46 C7.55909442,46.2454599 7.38221926,46.4496084 7.14897005,46.4919443 L7.05909442,46.5 L1.05909442,46.5 L1.03980519,46.4996302 C1.02239343,46.4989623 1.00500973,46.4973894 0.987730655,46.4949115 L1.05909442,46.5 C1.02299738,46.5 0.98779375,46.4961748 0.953866767,46.4889078 C0.938015011,46.4854937 0.921533829,46.4811045 0.905267916,46.4758609 C0.893855184,46.4721966 0.882921664,46.4682242 0.872173365,46.4638891 C0.856443546,46.4575561 0.840950603,46.4503844 0.825782527,46.4423783 C0.813324902,46.4357648 0.80098085,46.4285501 0.788987943,46.4208367 C0.779654139,46.4148804 0.770632943,46.4086466 0.761779261,46.4020828 C0.746077572,46.3904117 0.73103066,46.3778391 0.716770396,46.364439 C0.713417894,46.3612988 0.709650617,46.3576544 0.70592728,46.3539392 L0.69368317,46.3412864 C0.682033625,46.3288187 0.671014675,46.3157542 0.660677156,46.3021439 L0.70592728,46.3539392 C0.679063724,46.3271343 0.655885416,46.298034 0.636393042,46.2672682 C0.629113758,46.2556825 0.622387764,46.2440467 0.616128761,46.2321272 C0.609045934,46.2186972 0.602602945,46.2048948 0.596823791,46.1908828 C0.591892668,46.1789671 0.587357655,46.1666596 0.583303381,46.1541357 C0.577793665,46.1369517 0.573266383,46.1198169 0.569661426,46.1025279 C0.568827959,46.0987734 0.567959455,46.0943348 0.567150091,46.0898756 L0.564789061,46.075464 C0.561567466,46.0542486 0.55971271,46.0328654 0.559224949,46.0114565 L0.559094422,46 L0.559094422,40 C0.559094422,39.7238576 0.782952047,39.5 1.05909442,39.5 C1.30455431,39.5 1.50870279,39.6768752 1.55103875,39.9101244 L1.55909442,40 L1.55909442,44.79 L11.2901117,35.038002 C11.1303418,34.7753779 11.029373,34.4730379 11.0054857,34.1492623 L11,34 L11,13 C11,11.8954305 11.8954305,11 13,11 L13,11 L34,11 C34.3614955,11 34.7005906,11.0959073 34.9932286,11.263665 L44.7340944,1.5 L39.9409056,1.5 C39.6954457,1.5 39.4912972,1.32312484 39.4489612,1.08987563 L39.4409056,1 C39.4409056,0.754540111 39.6177807,0.55039163 39.8510299,0.508055669 L39.9409056,0.5 L45.9409056,0.5 Z M34,12 L13,12 C12.4477153,12 12,12.4477153 12,13 L12,13 L12,34 C12,34.0986223 12.0142766,34.1939101 12.0408759,34.2839094 L17.1460608,29.1699851 C17.3411096,28.9745098 17.6576919,28.9741642 17.8531671,29.169213 C18.0269229,29.3425897 18.0465022,29.6119929 17.911719,29.8070083 L17.8539392,29.8763193 L12.7686647,34.9731074 C12.8429171,34.990693 12.9203716,35 13,35 L13,35 L34,35 C34.5522847,35 35,34.5522847 35,34 L35,34 L35,13 C35,12.9010125 34.9856174,12.8053841 34.958828,12.7150908 L29.8539392,17.8300149 C29.6588904,18.0254902 29.3423081,18.0258358 29.1468329,17.830787 C28.9730771,17.6574103 28.9534978,17.3880071 29.088281,17.1929917 L29.1460608,17.1236807 L34.2303133,12.0266511 C34.1563723,12.0092218 34.0792631,12 34,12 L34,12 Z" transform="translate(6 7)"/>
  </g>
</svg>
