<svg xmlns="http://www.w3.org/2000/svg" width="36" height="39" viewBox="0 0 36 39">
  <defs>
    <linearGradient id="icon-21-8-a" x1="93.011%" x2="6.989%" y1="100%" y2="0%">
      <stop offset="0%" stop-color="#1E85E9"/>
      <stop offset="20.276%" stop-color="#8671F3"/>
      <stop offset="70.727%" stop-color="#C06CFD" stop-opacity=".99"/>
      <stop offset="100%" stop-color="#FFBEE8"/>
    </linearGradient>
  </defs>
  <path fill="url(#icon-21-8-a)" d="M1380.79515,3281.8893 C1383.90958,3285.74097 1388.58335,3288.02246 1393.6325,3288.02246 C1398.57953,3288.02246 1403.16843,3285.83295 1406.28515,3282.11367 C1406.46252,3281.90202 1406.77788,3281.87422 1406.98953,3282.05158 C1407.20118,3282.22894 1407.22898,3282.5443 1407.05162,3282.75596 C1403.74686,3286.69963 1398.87853,3289.02246 1393.6325,3289.02246 C1388.27814,3289.02246 1383.31987,3286.60209 1380.01755,3282.51806 C1379.84392,3282.30333 1379.87724,3281.98851 1380.09197,3281.81488 C1380.3067,3281.64125 1380.62152,3281.67457 1380.79515,3281.8893 Z M1391.72908,3272.30517 C1392.08705,3272.33486 1392.30925,3272.73984 1392.1109,3273.06435 L1392.1109,3273.06435 L1388.02928,3279.74195 L1387.97553,3279.81444 C1387.81776,3279.99137 1387.55133,3280.03582 1387.34189,3279.90781 L1387.34189,3279.90781 L1387.26941,3279.85406 C1387.09247,3279.69629 1387.04803,3279.42986 1387.17604,3279.22042 L1387.17604,3279.22042 L1390.152,3274.35 L1376.76503,3282.71576 C1376.53084,3282.86209 1376.22238,3282.79088 1376.07604,3282.55669 C1375.94597,3282.34853 1375.98779,3282.08167 1376.16316,3281.92217 L1376.23511,3281.86771 L1389.623,3273.502 L1383.94058,3274.0426 L1383.85035,3274.0431 C1383.61414,3274.02304 1383.41872,3273.83657 1383.39547,3273.59221 C1383.36932,3273.31731 1383.57097,3273.07326 1383.84587,3273.0471 L1383.84587,3273.0471 L1391.63692,3272.30583 Z M1395.62808,3272.30583 L1403.41913,3273.0471 C1403.69403,3273.07326 1403.89568,3273.31731 1403.86953,3273.59221 C1403.84628,3273.83657 1403.65086,3274.02304 1403.41465,3274.0431 L1403.32442,3274.0426 L1397.641,3273.502 L1411.02989,3281.86771 L1411.10184,3281.92217 C1411.27721,3282.08167 1411.31903,3282.34853 1411.18896,3282.55669 C1411.04262,3282.79088 1410.73416,3282.86209 1410.49997,3282.71576 L1410.49997,3282.71576 L1397.112,3274.35 L1400.08896,3279.22042 C1400.21697,3279.42986 1400.17253,3279.69629 1399.99559,3279.85406 L1399.92311,3279.90781 C1399.71367,3280.03582 1399.44724,3279.99137 1399.28947,3279.81444 L1399.23572,3279.74195 L1395.1541,3273.06435 C1394.95575,3272.73984 1395.17795,3272.33486 1395.53592,3272.30517 L1395.62808,3272.30583 Z M1396.3848,3254.24565 L1396.4748,3254.25219 C1404.87902,3255.62516 1411.1325,3262.91612 1411.1325,3271.52246 C1411.1325,3274.09763 1410.57558,3276.59497 1409.51481,3278.8808 C1409.39857,3279.13128 1409.10128,3279.24011 1408.85079,3279.12387 C1408.60031,3279.00763 1408.49148,3278.71034 1408.60772,3278.45985 C1409.60759,3276.30525 1410.1325,3273.95148 1410.1325,3271.52246 C1410.1325,3263.4081 1404.23602,3256.53337 1396.31357,3255.23911 C1396.04104,3255.19458 1395.85621,3254.93756 1395.90073,3254.66503 C1395.93536,3254.45307 1396.09853,3254.29415 1396.29758,3254.25493 L1396.3848,3254.24565 Z M1391.47337,3254.65086 C1391.51612,3254.92367 1391.32962,3255.17949 1391.05681,3255.22224 C1383.08523,3256.47151 1377.1325,3263.36876 1377.1325,3271.52246 C1377.1325,3273.93107 1377.64861,3276.26578 1378.63235,3278.40589 C1378.74769,3278.65679 1378.63778,3278.95369 1378.38688,3279.06902 C1378.13598,3279.18435 1377.83908,3279.07445 1377.72375,3278.82355 C1376.68009,3276.55308 1376.1325,3274.07598 1376.1325,3271.52246 C1376.1325,3262.8744 1382.44565,3255.55954 1390.90198,3254.2343 C1391.1748,3254.19155 1391.43061,3254.37804 1391.47337,3254.65086 Z M1393.6325,3251 C1393.87796,3251 1394.08211,3251.17688 1394.12444,3251.41012 L1394.1325,3251.5 L1394.132,3267.286 L1396.68529,3262.18129 L1396.73269,3262.1045 C1396.87486,3261.91481 1397.13656,3261.84791 1397.35611,3261.95768 C1397.6031,3262.08118 1397.70321,3262.38151 1397.57971,3262.6285 L1397.57971,3262.6285 L1394.07971,3269.6285 L1394.03144,3269.707 C1393.81656,3269.99485 1393.35537,3269.96868 1393.18529,3269.6285 L1393.18529,3269.6285 L1389.68529,3262.6285 L1389.6523,3262.54451 C1389.58585,3262.31695 1389.68935,3262.06745 1389.90889,3261.95768 L1389.90889,3261.95768 L1389.99288,3261.92469 C1390.22044,3261.85825 1390.46994,3261.96174 1390.57971,3262.18129 L1390.57971,3262.18129 L1393.132,3267.286 L1393.1325,3251.5 C1393.1325,3251.22386 1393.35636,3251 1393.6325,3251 Z" transform="translate(-1376 -3251)"/>
</svg>
