<svg xmlns="http://www.w3.org/2000/svg" width="34" height="42" viewBox="0 0 34 42">
  <defs>
    <linearGradient id="icon-14-9-a" x1="68.097%" x2="31.049%" y1="126.552%" y2="-2.01%">
      <stop offset="0%" stop-color="#1E85E9"/>
      <stop offset="20.276%" stop-color="#8671F3"/>
      <stop offset="70.727%" stop-color="#C06CFD" stop-opacity=".99"/>
      <stop offset="100%" stop-color="#FFBEE8"/>
    </linearGradient>
  </defs>
  <path fill="url(#icon-14-9-a)" d="M1537.73846,2263 L1540.39953,2265.41822 C1546.16756,2270.65987 1548.40688,2278.40966 1546.8503,2285.58553 L1548.45768,2286.09252 C1550.16938,2286.63165 1551.5104,2287.97195 1552.05045,2289.68335 L1552.05045,2289.68335 L1554.25207,2296.66026 C1554.50137,2297.45029 1554.06302,2298.29283 1553.273,2298.54213 C1552.94204,2298.64657 1552.5851,2298.63301 1552.26301,2298.50377 L1552.26301,2298.50377 L1542.80716,2294.70994 C1542.61742,2297.98606 1541.15267,2301.07304 1538.70577,2303.29575 L1538.70577,2303.29575 L1537.73715,2304.17561 L1536.76854,2303.29575 C1534.30024,2301.05359 1532.82831,2297.92877 1532.66185,2294.60669 L1523.06333,2298.49386 C1522.74016,2298.62471 1522.3815,2298.63889 1522.04901,2298.53397 C1521.25898,2298.28467 1520.82063,2297.44213 1521.06993,2296.65211 L1523.26898,2289.68335 C1523.80902,2287.97195 1525.15005,2286.63165 1526.86175,2286.09252 L1528.61644,2285.53964 C1527.08065,2278.38217 1529.31588,2270.65395 1535.0774,2265.41822 L1535.0774,2265.41822 L1537.73846,2263 Z M1541.817,2294.478 L1533.656,2294.478 L1533.65751,2294.49647 C1533.78386,2297.34077 1534.95403,2300.03687 1536.93823,2302.07048 L1537.19048,2302.32119 L1537.44093,2302.55554 L1537.73762,2302.82515 L1538.03338,2302.55554 C1540.32462,2300.47423 1541.68035,2297.5697 1541.81681,2294.49608 L1541.81681,2294.49608 L1541.817,2294.478 Z M1546.636,2286.56661 L1546.18392,2288.0621 C1545.74607,2289.50908 1545.08463,2290.87869 1544.22357,2292.12129 L1544.2666,2292.05756 C1543.86538,2292.71802 1543.42429,2293.36268 1542.94305,2293.98831 L1543.118,2293.756 L1552.63541,2297.5757 C1552.68909,2297.59724 1552.74567,2297.60914 1552.80263,2297.6113 L1552.88802,2297.60723 L1552.97207,2297.58848 C1553.23541,2297.50538 1553.38152,2297.22454 1553.29843,2296.9612 L1553.29843,2296.9612 L1551.09681,2289.98428 C1550.65495,2288.58404 1549.55774,2287.48743 1548.15727,2287.04633 L1548.15727,2287.04633 L1546.636,2286.56661 Z M1528.68806,2286.56461 L1527.16216,2287.04633 C1525.76169,2287.48743 1524.66448,2288.58404 1524.22262,2289.98428 L1522.02358,2296.95304 C1521.94048,2297.21638 1522.08659,2297.49722 1522.34994,2297.58032 L1522.43437,2297.59912 C1522.51981,2297.6105 1522.60725,2297.59967 1522.68804,2297.56696 L1532.15206,2293.73461 L1530.53895,2291.07412 C1529.93363,2290.07491 1529.4513,2289.0062 1529.10243,2287.89125 L1528.68806,2286.56461 Z M1537.738,2264.35061 L1535.74993,2266.15829 C1527.99052,2273.20958 1526.94414,2285.00586 1533.26933,2293.30399 L1542.188,2293.303 L1543.40163,2291.55172 C1543.41122,2291.53788 1543.42079,2291.52402 1543.43033,2291.51014 C1548.29482,2283.47258 1546.96993,2272.98413 1540.00498,2266.41563 L1540.00498,2266.41563 L1539.72699,2266.15829 L1537.738,2264.35061 Z" transform="translate(-1521 -2263)"/>
</svg>
