<svg xmlns="http://www.w3.org/2000/svg" width="34" height="42" viewBox="0 0 34 42">
  <defs>
    <linearGradient id="icon-24-4-a" x1="76.801%" x2="17.234%" y1="95.932%" y2="0%">
      <stop offset="0%" stop-color="#1E85E9"/>
      <stop offset="20.276%" stop-color="#8671F3"/>
      <stop offset="70.727%" stop-color="#C06CFD" stop-opacity=".99"/>
      <stop offset="100%" stop-color="#FFBEE8"/>
    </linearGradient>
  </defs>
  <path fill="url(#icon-24-4-a)" d="M849.5,3677 C849.74546,3677 849.949608,3677.17688 849.991944,3677.41012 L850,3677.5 L850,3713.5 C850,3714.2797 849.405112,3714.92045 848.64446,3714.99313 L848.5,3715 L820.5,3715 C820.223858,3715 820,3714.77614 820,3714.5 C820,3714.25454 820.176875,3714.05039 820.410124,3714.00806 L820.5,3714 L848.5,3714 C848.74546,3714 848.949608,3713.82312 848.991944,3713.58988 L849,3713.5 L849,3677.5 C849,3677.22386 849.223858,3677 849.5,3677 Z M845.5,3673 C846.328427,3673 847,3673.67157 847,3674.5 L847,3674.5 L847,3710.5 C847,3711.32843 846.328427,3712 845.5,3712 L845.5,3712 L817.5,3712 C816.671573,3712 816,3711.32843 816,3710.5 L816,3710.5 L816,3674.5 C816,3673.67157 816.671573,3673 817.5,3673 L817.5,3673 Z M845.5,3674 L817.5,3674 C817.223858,3674 817,3674.22386 817,3674.5 L817,3674.5 L817,3710.5 C817,3710.77614 817.223858,3711 817.5,3711 L817.5,3711 L845.5,3711 C845.776142,3711 846,3710.77614 846,3710.5 L846,3710.5 L846,3674.5 C846,3674.22386 845.776142,3674 845.5,3674 L845.5,3674 Z M826.5,3701 C826.776142,3701 827,3701.22386 827,3701.5 L827,3701.5 L827,3705.5 C827,3705.77614 826.776142,3706 826.5,3706 L826.5,3706 L822.5,3706 C822.223858,3706 822,3705.77614 822,3705.5 L822,3705.5 L822,3701.5 C822,3701.22386 822.223858,3701 822.5,3701 L822.5,3701 Z M826,3702 L823,3702 L823,3705 L826,3705 L826,3702 Z M840.5,3703 C840.776142,3703 841,3703.22386 841,3703.5 C841,3703.74546 840.823125,3703.94961 840.589876,3703.99194 L840.5,3704 L830.5,3704 C830.223858,3704 830,3703.77614 830,3703.5 C830,3703.25454 830.176875,3703.05039 830.410124,3703.00806 L830.5,3703 L840.5,3703 Z M822.784306,3691.08859 L822.853553,3691.14645 L824.5,3692.793 L826.146447,3691.14645 L826.215694,3691.08859 C826.410563,3690.9536 826.679987,3690.97288 826.853553,3691.14645 C827.048816,3691.34171 827.048816,3691.65829 826.853553,3691.85355 L826.853553,3691.85355 L825.207,3693.5 L826.853553,3695.14645 C827.048816,3695.34171 827.048816,3695.65829 826.853553,3695.85355 C826.679987,3696.02712 826.410563,3696.0464 826.215694,3695.91141 L826.146447,3695.85355 L824.5,3694.207 L822.853553,3695.85355 L822.784306,3695.91141 C822.589437,3696.0464 822.320013,3696.02712 822.146447,3695.85355 C821.951184,3695.65829 821.951184,3695.34171 822.146447,3695.14645 L822.146447,3695.14645 L823.793,3693.5 L822.146447,3691.85355 C821.951184,3691.65829 821.951184,3691.34171 822.146447,3691.14645 C822.320013,3690.97288 822.589437,3690.9536 822.784306,3691.08859 Z M840.5,3693 C840.776142,3693 841,3693.22386 841,3693.5 C841,3693.74546 840.823125,3693.94961 840.589876,3693.99194 L840.5,3694 L830.5,3694 C830.223858,3694 830,3693.77614 830,3693.5 C830,3693.25454 830.176875,3693.05039 830.410124,3693.00806 L830.5,3693 L840.5,3693 Z M827.8,3680.1 C827.996368,3680.24728 828.053562,3680.51127 827.947481,3680.72327 L827.9,3680.8 L824.554097,3685.2612 L822.146447,3682.85355 C821.951184,3682.65829 821.951184,3682.34171 822.146447,3682.14645 C822.320013,3681.97288 822.589437,3681.9536 822.784306,3682.08859 L822.853553,3682.14645 L824.446,3683.739 L827.1,3680.2 C827.265685,3679.97909 827.579086,3679.93431 827.8,3680.1 Z M840.5,3683 C840.776142,3683 841,3683.22386 841,3683.5 C841,3683.74546 840.823125,3683.94961 840.589876,3683.99194 L840.5,3684 L830.5,3684 C830.223858,3684 830,3683.77614 830,3683.5 C830,3683.25454 830.176875,3683.05039 830.410124,3683.00806 L830.5,3683 L840.5,3683 Z" transform="translate(-816 -3673)"/>
</svg>
