<svg xmlns="http://www.w3.org/2000/svg" xmlns:xlink="http://www.w3.org/1999/xlink" width="62" height="62" viewBox="0 0 62 62">
  <defs>
    <linearGradient id="icon-4-8-b" x1="100%" x2="0%" y1="100%" y2="0%">
      <stop offset="0%" stop-color="#1E85E9"/>
      <stop offset="20.276%" stop-color="#8671F3"/>
      <stop offset="70.727%" stop-color="#C06CFD" stop-opacity=".99"/>
      <stop offset="100%" stop-color="#FFBEE8"/>
    </linearGradient>
    <rect id="icon-4-8-a" width="60" height="60" x="0" y="0" rx="4"/>
    <linearGradient id="icon-4-8-c" x1="100%" x2="0%" y1="68.418%" y2="31.582%">
      <stop offset="0%" stop-color="#1E85E9"/>
      <stop offset="20.276%" stop-color="#8671F3"/>
      <stop offset="70.727%" stop-color="#C06CFD" stop-opacity=".99"/>
      <stop offset="100%" stop-color="#FFBEE8"/>
    </linearGradient>
  </defs>
  <g fill="none" fill-rule="evenodd" transform="translate(1 1)">
    <g opacity=".062">
      <use fill="#FAFAFA" xlink:href="#icon-4-8-a"/>
      <use fill="url(#icon-4-8-b)" stroke="#000" stroke-opacity=".02" xlink:href="#icon-4-8-a"/>
    </g>
    <path fill="url(#icon-4-8-c)" fill-rule="nonzero" d="M30.1238595,19 C36.7408761,19 42.7137551,22.5837274 48.0245907,29.7009775 L48.0245907,29.7009775 L48.247719,30 L48.0245907,30.2990225 C42.7137551,37.4162726 36.7408761,41 30.1238595,41 C23.5068429,41 17.5339639,37.4162726 12.2231282,30.2990225 L12.2231282,30.2990225 L12,30 L12.2231282,29.7009775 C17.5339639,22.5837274 23.5068429,19 30.1238595,19 Z M30.1238595,20 C24.105017,20 18.6168686,23.1484368 13.6435724,29.4897284 L13.6435724,29.4897284 L13.2498595,30 L13.6435724,30.5102716 C18.5132582,36.7194529 23.8765676,39.8674293 29.7483727,39.9959001 L29.7483727,39.9959001 L30.1238595,40 C36.1427019,40 41.6308504,36.8515632 46.6041466,30.5102716 L46.6041466,30.5102716 L46.9968595,30 L46.6041466,29.4897284 C41.7344607,23.2805471 36.3711513,20.1325707 30.4993463,20.0040999 L30.4993463,20.0040999 Z M30.1238595,23 C33.9898527,23 37.1238595,26.1340068 37.1238595,30 C37.1238595,33.8659932 33.9898527,37 30.1238595,37 C26.2578662,37 23.1238595,33.8659932 23.1238595,30 C23.1238595,26.1340068 26.2578662,23 30.1238595,23 Z M30.1238595,24 C26.810151,24 24.1238595,26.6862915 24.1238595,30 C24.1238595,33.3137085 26.810151,36 30.1238595,36 C33.437568,36 36.1238595,33.3137085 36.1238595,30 C36.1238595,26.6862915 33.437568,24 30.1238595,24 Z M30.1238595,26 C32.3329985,26 34.1238595,27.790861 34.1238595,30 C34.1238595,32.209139 32.3329985,34 30.1238595,34 C27.9147205,34 26.1238595,32.209139 26.1238595,30 C26.1238595,27.790861 27.9147205,26 30.1238595,26 Z M30.1238595,27 C28.4670052,27 27.1238595,28.3431458 27.1238595,30 C27.1238595,31.6568542 28.4670052,33 30.1238595,33 C31.7807137,33 33.1238595,31.6568542 33.1238595,30 C33.1238595,28.3431458 31.7807137,27 30.1238595,27 Z"/>
  </g>
</svg>
