<?xml version="1.0" encoding="UTF-8"?>
<svg width="45px" height="32px" viewBox="0 0 45 32" version="1.1" xmlns="http://www.w3.org/2000/svg" xmlns:xlink="http://www.w3.org/1999/xlink">
    <title>icon-29-9</title>
    <defs>
        <linearGradient x1="100%" y1="75.2839506%" x2="0%" y2="24.7160494%" id="linearGradient-1">
            <stop stop-color="#1E85E9" offset="0%"></stop>
            <stop stop-color="#8671F3" offset="20.275549%"></stop>
            <stop stop-color="#C06CFD" stop-opacity="0.99" offset="70.7268792%"></stop>
            <stop stop-color="#FFBEE8" offset="100%"></stop>
        </linearGradient>
    </defs>
    <g id="Page-1" stroke="none" stroke-width="1" fill="none" fill-rule="evenodd">
        <g id="icons" transform="translate(-1514.000000, -4369.000000)" fill="url(#linearGradient-1)" fill-rule="nonzero">
            <path d="M1528,4369 C1530.39891,4369 1532.6809,4369.77083 1534.55993,4371.16923 C1535.90027,4370.40793 1537.42059,4370 1539,4370 C1541.74242,4370 1544.27895,4371.23579 1545.97111,4373.307 L1545.57838,4373.41196 C1546.52019,4373.13966 1547.50104,4373 1548.5,4373 C1554.29899,4373 1559,4377.70101 1559,4383.5 C1559,4389.29899 1554.29899,4394 1548.5,4394 C1548.1694,4394 1547.84064,4393.98471 1547.51444,4393.95432 C1545.86452,4396.45455 1543.06539,4398 1540,4398 C1539.29198,4398 1538.59458,4397.91814 1537.91801,4397.75786 C1536.22327,4399.79299 1533.71089,4401 1531,4401 C1527.94801,4401 1525.15938,4399.46811 1523.50569,4396.98523 C1523.33772,4396.99533 1523.16913,4397 1523,4397 C1518.02944,4397 1514,4392.97056 1514,4388 C1514,4385.3687 1515.13701,4382.92361 1517.06868,4381.23075 L1517.10881,4381.5528 C1517.03652,4381.04135 1517,4380.52288 1517,4380 C1517,4373.92487 1521.92487,4369 1528,4369 Z M1528,4370 C1522.47715,4370 1518,4374.47715 1518,4380 C1518,4380.23801 1518.00831,4380.47494 1518.02483,4380.7105 L1518.04641,4380.9643 C1518.06869,4380.98384 1518.08953,4381.00564 1518.10862,4381.02966 C1518.27627,4381.24071 1518.24594,4381.54541 1518.04333,4381.7196 C1517.98437,4381.83117 1517.88224,4381.91908 1517.75596,4381.95922 C1516.02079,4383.46519 1515,4385.64813 1515,4388 C1515,4392.41828 1518.58172,4396 1523,4396 C1523.19214,4396 1523.38341,4395.99324 1523.57358,4395.97978 C1523.66236,4395.94424 1523.75712,4395.93688 1523.847,4395.954 L1523.87436,4395.95281 L1523.87436,4395.95281 C1524.14889,4395.92299 1524.39561,4396.12136 1524.42543,4396.39589 C1524.43106,4396.44768 1524.42856,4396.49847 1524.41897,4396.54701 C1525.89622,4398.68643 1528.33466,4400 1531,4400 C1533.36201,4400 1535.55299,4398.97019 1537.0587,4397.22453 C1537.04273,4397.15038 1537.04663,4397.07314 1537.0695,4396.99709 C1537.14902,4396.73265 1537.42787,4396.58275 1537.69231,4396.66227 C1538.43418,4396.88538 1539.20913,4397 1540,4397 C1542.70563,4397 1545.17698,4395.64633 1546.64855,4393.45108 C1546.64391,4393.41504 1546.64476,4393.37867 1546.64974,4393.3419 C1546.68671,4393.06893 1546.93744,4392.87741 1547.2103,4392.91326 C1547.2845,4392.90374 1547.36075,4392.91146 1547.43353,4392.93699 L1547.21232,4392.91353 C1547.63653,4392.97098 1548.06638,4393 1548.5,4393 C1553.74671,4393 1558,4388.74671 1558,4383.5 C1558,4378.25329 1553.74671,4374 1548.5,4374 C1547.76004,4374 1547.0317,4374.08451 1546.32496,4374.25003 C1546.29274,4374.31702 1546.24331,4374.37511 1546.1799,4374.42108 C1545.9713,4374.5723 1545.68518,4374.53904 1545.51614,4374.35232 C1545.38611,4374.29344 1545.27996,4374.17999 1545.23693,4374.03116 L1545.22774,4373.97792 C1543.7231,4372.11315 1541.45503,4371 1539,4371 C1537.59691,4371 1536.24816,4371.36139 1535.05776,4372.03705 C1535.04217,4372.07746 1535.01939,4372.11498 1534.99115,4372.14986 C1534.82923,4372.34985 1534.5448,4372.39223 1534.33312,4372.25647 C1534.24123,4372.22249 1534.15829,4372.16216 1534.09761,4372.07776 L1534.28793,4372.22382 C1532.52098,4370.79317 1530.32191,4370 1528,4370 Z" id="icon-29-9"></path>
        </g>
    </g>
</svg>