<?xml version="1.0" encoding="UTF-8"?>
<svg width="70px" height="69px" viewBox="0 0 70 69" version="1.1" xmlns="http://www.w3.org/2000/svg" xmlns:xlink="http://www.w3.org/1999/xlink">
    <title>icon-29-1</title>
    <defs>
        <linearGradient x1="100%" y1="97.2970504%" x2="-22.166631%" y2="-18.1432042%" id="linearGradient-1">
            <stop stop-color="#1E85E9" offset="0%"></stop>
            <stop stop-color="#8671F3" offset="20.275549%"></stop>
            <stop stop-color="#C06CFD" stop-opacity="0.99" offset="70.7268792%"></stop>
            <stop stop-color="#FFBEE8" offset="100%"></stop>
        </linearGradient>
    </defs>
    <g id="Page-1" stroke="none" stroke-width="1" fill="none" fill-rule="evenodd">
        <g id="icons" transform="translate(-372.000000, -4350.000000)" fill="url(#linearGradient-1)" fill-rule="nonzero">
            <path d="M442,4404.17808 C442,4404.92574 441.429559,4405.54016 440.700167,4405.60985 L440.561644,4405.61644 L428.616,4405.616 L428.616438,4414.72603 L428.575342,4414.72603 C428.575342,4416.77906 419.422297,4418.05164 407.434517,4418.08165 L406.133436,4418.08002 C394.502074,4418.02158 385.642978,4416.78503 385.428632,4414.79989 L385.424658,4414.72603 L385.424,4405.616 L373.438356,4405.61644 C372.690702,4405.61644 372.076282,4405.046 372.006584,4404.31661 L372,4404.17808 L372,4351.43836 C372,4350.6907 372.570441,4350.07628 373.299833,4350.00658 L373.438356,4350 L440.561644,4350 C441.309298,4350 441.923718,4350.57044 441.993416,4351.29983 L442,4351.43836 L442,4404.17808 Z M407.434517,4405.6159 L406.133436,4405.61427 C396.68472,4405.5668 389.065449,4404.74188 386.423723,4403.36977 L386.424658,4414.72603 L386.383562,4414.72603 C386.383562,4415.09069 388.578839,4415.79845 392.147733,4416.28511 C396.055157,4416.81795 401.349169,4417.12329 407,4417.12329 C412.41538,4417.12329 417.503056,4416.84286 421.356692,4416.35053 L421.852267,4416.28511 C425.316194,4415.81276 427.486116,4415.13213 427.610762,4414.75908 L427.616438,4414.72603 L427.61695,4403.34839 C424.974118,4404.75424 417.131798,4405.59162 407.434517,4405.6159 Z M441.041,4362.986 L372.958,4362.986 L372.958904,4404.17808 C372.958904,4404.41345 373.12851,4404.60921 373.352174,4404.64981 L373.438356,4404.65753 L385.424,4404.657 L385.424658,4390.75342 L385.42905,4390.67579 C385.654197,4388.69285 394.509438,4387.45783 406.133436,4387.39943 L406.133436,4387.39943 L407.426549,4387.39783 C419.446222,4387.43024 428.575342,4388.69851 428.575342,4390.75342 L428.575342,4390.75342 L428.616438,4390.75342 L428.616,4404.657 L440.561644,4404.65753 C440.797016,4404.65753 440.992775,4404.48793 441.033371,4404.26426 L441.041096,4404.17808 L441.041,4362.986 Z M427.61677,4391.84163 C425.013129,4393.22649 417.364033,4394.0597 407.866564,4394.10742 L407.866564,4394.10742 L406.565483,4394.10905 C396.91719,4394.08489 389.105164,4393.25583 386.4235,4391.8628 L386.423043,4402.35136 C386.733484,4402.73373 388.856517,4403.37056 392.147733,4403.81936 C396.055157,4404.35219 401.349169,4404.65753 407,4404.65753 C412.41538,4404.65753 417.503056,4404.37711 421.356692,4403.88477 L421.852267,4403.81936 C425.316194,4403.34701 427.486116,4402.66638 427.610762,4402.29333 L427.616438,4402.26027 Z M407.424611,4388.35674 L406.295011,4388.35775 C400.910409,4388.382 395.892348,4388.68371 392.147733,4389.19434 C388.578839,4389.681 386.383562,4390.38876 386.383562,4390.75342 L386.383562,4390.75342 L386.424658,4390.75342 L386.423043,4390.84451 C386.733484,4391.22688 388.856517,4391.86371 392.147733,4392.31251 L392.147733,4392.31251 L392.643308,4392.37793 C396.496944,4392.87026 401.58462,4393.15068 407,4393.15068 C412.650831,4393.15068 417.944843,4392.84534 421.852267,4392.31251 C425.421161,4391.82584 427.616438,4391.11809 427.616438,4390.75342 C427.616438,4390.41814 425.729774,4389.78135 422.609287,4389.30365 L422.609287,4389.30365 L421.99009,4389.21331 C418.490257,4388.72709 413.840605,4388.42511 408.806504,4388.36661 L408.806504,4388.36661 L407.424611,4388.35674 Z M440.561644,4350.9589 L373.438356,4350.9589 C373.202984,4350.9589 373.007225,4351.12851 372.966629,4351.35217 L372.958904,4351.43836 L372.958,4361.986 L441.041,4361.986 L441.041096,4351.43836 C441.041096,4351.20298 440.87149,4351.00722 440.647826,4350.96663 L440.561644,4350.9589 Z M378.712329,4353.83562 C380.301093,4353.83562 381.589041,4355.12356 381.589041,4356.71233 C381.589041,4358.30109 380.301093,4359.58904 378.712329,4359.58904 C377.123564,4359.58904 375.835616,4358.30109 375.835616,4356.71233 C375.835616,4355.12356 377.123564,4353.83562 378.712329,4353.83562 Z M386.383562,4353.83562 C387.972326,4353.83562 389.260274,4355.12356 389.260274,4356.71233 C389.260274,4358.30109 387.972326,4359.58904 386.383562,4359.58904 C384.794797,4359.58904 383.506849,4358.30109 383.506849,4356.71233 C383.506849,4355.12356 384.794797,4353.83562 386.383562,4353.83562 Z M394.054795,4353.83562 C395.643559,4353.83562 396.931507,4355.12356 396.931507,4356.71233 C396.931507,4358.30109 395.643559,4359.58904 394.054795,4359.58904 C392.46603,4359.58904 391.178082,4358.30109 391.178082,4356.71233 C391.178082,4355.12356 392.46603,4353.83562 394.054795,4353.83562 Z M378.712329,4354.79452 C377.653153,4354.79452 376.794521,4355.65315 376.794521,4356.71233 C376.794521,4357.7715 377.653153,4358.63014 378.712329,4358.63014 C379.771505,4358.63014 380.630137,4357.7715 380.630137,4356.71233 C380.630137,4355.65315 379.771505,4354.79452 378.712329,4354.79452 Z M386.383562,4354.79452 C385.324385,4354.79452 384.465753,4355.65315 384.465753,4356.71233 C384.465753,4357.7715 385.324385,4358.63014 386.383562,4358.63014 C387.442738,4358.63014 388.30137,4357.7715 388.30137,4356.71233 C388.30137,4355.65315 387.442738,4354.79452 386.383562,4354.79452 Z M394.054795,4354.79452 C392.995618,4354.79452 392.136986,4355.65315 392.136986,4356.71233 C392.136986,4357.7715 392.995618,4358.63014 394.054795,4358.63014 C395.113971,4358.63014 395.972603,4357.7715 395.972603,4356.71233 C395.972603,4355.65315 395.113971,4354.79452 394.054795,4354.79452 Z" id="icon-29-1"></path>
        </g>
    </g>
</svg>