<svg xmlns="http://www.w3.org/2000/svg" xmlns:xlink="http://www.w3.org/1999/xlink" width="62" height="62" viewBox="0 0 62 62">
  <defs>
    <linearGradient id="icon-2-3-b" x1="100%" x2="0%" y1="100%" y2="0%">
      <stop offset="0%" stop-color="#1E85E9"/>
      <stop offset="20.276%" stop-color="#8671F3"/>
      <stop offset="70.727%" stop-color="#C06CFD" stop-opacity=".99"/>
      <stop offset="100%" stop-color="#FFBEE8"/>
    </linearGradient>
    <rect id="icon-2-3-a" width="60" height="60" x="0" y="0" rx="4"/>
    <linearGradient id="icon-2-3-c" x1="100%" x2="0%" y1="66.759%" y2="33.241%">
      <stop offset="0%" stop-color="#1E85E9"/>
      <stop offset="20.276%" stop-color="#8671F3"/>
      <stop offset="70.727%" stop-color="#C06CFD" stop-opacity=".99"/>
      <stop offset="100%" stop-color="#FFBEE8"/>
    </linearGradient>
  </defs>
  <g fill="none" fill-rule="evenodd" transform="translate(1 1)">
    <g opacity=".062">
      <use fill="#FAFAFA" xlink:href="#icon-2-3-a"/>
      <use fill="url(#icon-2-3-b)" stroke="#000" stroke-opacity=".02" xlink:href="#icon-2-3-a"/>
    </g>
    <path fill="url(#icon-2-3-c)" fill-rule="nonzero" d="M29,19 C39.333555,19 47.735604,27.4644417 47.9938812,38.0002659 L48,38 L47.999,38.35 L48,38.5 L47.999,38.5 L48,39 L30.75,39 L30.7525545,39.019203 L30.7644577,39.2355423 C30.7644577,40.2100254 29.9744831,41 29,41 C28.0255169,41 27.2355423,40.2100254 27.2355423,39.2355423 C27.2355423,39.1829216 27.2400143,39.1048609 27.2489829,39.0011502 L10,39 L10,38 C10.264464,27.4643731 18.6664869,19 29,19 Z M29,33.752 L28.8939083,34.4453537 C28.5230826,36.8806705 28.3068999,38.4167369 28.2504663,39.0100266 L28.2437614,39.085082 L28.2355423,39.2355423 C28.2355423,39.6577406 28.5778017,40 29,40 C29.4221983,40 29.7644577,39.6577406 29.7644577,39.2355423 C29.7644577,39.0331476 29.6669782,38.254035 29.4744325,36.9187782 L29.4372167,36.6619052 L29,33.752 Z M29,20 C19.2244432,20 11.2642114,28.0111699 11.0064425,38.0001214 L27.3658644,38.0014637 C27.4560369,37.3170736 27.5932671,36.3627382 27.7783747,35.1314697 L27.8248349,34.823269 L29,27.2827871 L29.4939247,30.422293 C30.0731072,34.1037184 30.4508986,36.6106654 30.6341872,38.0018553 L46.9935575,38.0001214 C46.7357886,28.0111699 38.7755568,20 29,20 Z M45.4889805,32.1166743 L45.7979975,33.0677309 L41.9937715,34.3037988 L41.6847545,33.3527423 L45.4889805,32.1166743 Z M12.5110195,32.1166743 L16.3152455,33.3527423 L16.0062285,34.3037988 L12.2020025,33.0677309 L12.5110195,32.1166743 Z M29.5,20.5 L29.5,24.5 L28.5,24.5 L28.5,20.5 L29.5,20.5 Z"/>
  </g>
</svg>
