<svg xmlns="http://www.w3.org/2000/svg" xmlns:xlink="http://www.w3.org/1999/xlink" width="62" height="62" viewBox="0 0 62 62">
  <defs>
    <linearGradient id="ico-services-8-b" x1="100%" x2="0%" y1="100%" y2="0%">
      <stop offset="0%" stop-color="#1E85E9"/>
      <stop offset="20.276%" stop-color="#8671F3"/>
      <stop offset="70.727%" stop-color="#C06CFD" stop-opacity=".99"/>
      <stop offset="100%" stop-color="#FFBEE8"/>
    </linearGradient>
    <rect id="ico-services-8-a" width="60" height="60" x="0" y="0" rx="4"/>
    <linearGradient id="ico-services-8-c" x1="100%" x2="0%" y1="98.97%" y2="1.03%">
      <stop offset="0%" stop-color="#1E85E9"/>
      <stop offset="20.276%" stop-color="#8671F3"/>
      <stop offset="70.727%" stop-color="#C06CFD"/>
      <stop offset="100%" stop-color="#FFBEE8"/>
    </linearGradient>
  </defs>
  <g fill="none" fill-rule="evenodd" transform="translate(1 1)">
    <g opacity=".062">
      <use fill="#FAFAFA" xlink:href="#ico-services-8-a"/>
      <use fill="url(#ico-services-8-b)" stroke="#000" stroke-opacity=".02" xlink:href="#ico-services-8-a"/>
    </g>
    <path fill="url(#ico-services-8-c)" fill-rule="nonzero" d="M1,0.5 C1.24545989,0.5 1.44960837,0.676875161 1.49194433,0.910124368 L1.5,1 L1.50015419,11.0889311 C2.95974751,6.39864791 6.0060942,4.40923163 10.6231889,5.24820516 C13.5267693,5.77581554 15.4793445,8.3750116 18.1421488,14.1823248 L18.630364,15.2655866 C19.1276175,16.3812517 19.9564677,18.2537039 20.1973488,18.7871901 L20.6447038,19.7653543 C22.7782329,24.3671851 24.5161321,27.1657506 26.7425025,29.170033 C29.7275354,31.8572989 33.2820082,32.5687885 37.8459369,31.0014328 C38.1071073,30.911741 38.3915374,31.0507519 38.4812292,31.3119224 C38.5709209,31.5730928 38.4319101,31.8575228 38.1707396,31.9472146 C33.2645805,33.6320999 29.3293982,32.8444046 26.0734365,29.913236 C23.7221468,27.7964954 21.9284288,24.9107113 19.7438233,20.1997742 L19.1597923,18.9174886 C18.726094,17.9470452 17.6966774,15.6201537 17.4098224,14.9868335 L17.0581601,14.2202209 C14.6278147,8.99283921 12.834957,6.66648139 10.4444062,6.23209375 C4.61811688,5.17339713 1.65227524,9.14220106 1.50066935,18.5062338 L1.5,39.449 L40.3675023,39.4495584 C40.6129622,39.4495584 40.8171107,39.6264336 40.8594467,39.8596828 L40.8675023,39.9495584 C40.8675023,40.1950183 40.6906272,40.3991668 40.457378,40.4415028 L40.3675023,40.4495584 L0.5,40.4495584 L0.5,1 C0.5,0.723857625 0.723857625,0.5 1,0.5 Z" transform="translate(10 8)"/>
  </g>
</svg>
