<svg xmlns="http://www.w3.org/2000/svg" width="32" height="34" viewBox="0 0 32 34">
  <defs>
    <linearGradient id="icon-23-9-a" x1="94.291%" x2="5.709%" y1="100%" y2="0%">
      <stop offset="0%" stop-color="#1E85E9"/>
      <stop offset="20.276%" stop-color="#8671F3"/>
      <stop offset="70.727%" stop-color="#C06CFD" stop-opacity=".99"/>
      <stop offset="100%" stop-color="#FFBEE8"/>
    </linearGradient>
  </defs>
  <path fill="url(#icon-23-9-a)" d="M1542.20417,3553.48256 L1544.11416,3553.63891 C1547.96343,3553.97724 1550.77737,3554.73647 1550.84921,3562.55373 L1553.57443,3562.94838 C1553.95251,3563.00299 1554.1197,3563.43576 1553.90576,3563.72588 L1553.90576,3563.72588 L1553.84955,3563.79006 L1551.43916,3566.12368 L1552.00866,3569.42203 C1552.07358,3569.79826 1551.70713,3570.09113 1551.36189,3569.97377 L1551.36189,3569.97377 L1551.2884,3569.94222 L1548.30978,3568.38471 L1545.33117,3569.94222 C1544.99127,3570.11986 1544.59783,3569.86391 1544.60343,3569.50126 L1544.60343,3569.50126 L1544.6109,3569.42203 L1544.89952,3567.74809 C1544.24843,3567.77591 1543.56155,3567.7816 1542.84819,3567.7816 L1541.32863,3567.77795 L1531.00705,3567.7789 L1529.51952,3567.78052 C1525.22172,3567.7594 1522,3567.38305 1522,3562.86137 C1522,3553.48256 1525.7968,3553.92077 1530.64487,3553.48256 C1530.68276,3555.19948 1533.25517,3556.58489 1536.42373,3556.58489 C1539.59334,3556.58489 1542.16523,3555.19948 1542.20417,3553.48256 Z M1548.30978,3560.80025 L1547.15013,3563.13676 C1547.07782,3563.2824 1546.93804,3563.38335 1546.77636,3563.4067 L1546.77636,3563.4067 L1544.18361,3563.78074 L1546.05965,3565.59938 C1546.15325,3565.69008 1546.20614,3565.81275 1546.20941,3565.94015 L1546.20941,3565.94015 L1546.20242,3566.03616 L1545.75823,3568.6038 L1548.07878,3567.39131 C1548.19448,3567.33085 1548.32819,3567.31876 1548.45109,3567.35503 L1548.45109,3567.35503 L1548.54078,3567.39131 L1550.86034,3568.6038 L1550.41715,3566.03616 C1550.39505,3565.9081 1550.4248,3565.77795 1550.49749,3565.67297 L1550.49749,3565.67297 L1550.55991,3565.59938 L1552.43496,3563.78074 L1549.84321,3563.4067 C1549.71386,3563.38802 1549.59853,3563.31968 1549.52056,3563.21852 L1549.52056,3563.21852 L1549.46944,3563.13676 L1548.30978,3560.80025 Z M1542.95209,3554.49394 L1542.90637,3554.60411 C1542.09486,3556.37694 1539.4531,3557.53139 1536.42373,3557.53139 C1533.39475,3557.53139 1530.7528,3556.37666 1529.94208,3554.60364 L1529.89592,3554.49394 L1529.55153,3554.52205 C1526.76071,3554.7416 1525.69199,3554.99461 1524.77957,3555.81675 C1523.58966,3556.88892 1522.95762,3559.03868 1522.95762,3562.86137 C1522.95762,3566.03897 1524.34861,3566.78157 1529.40192,3566.83222 L1542.84819,3566.83509 C1543.67513,3566.83509 1544.4121,3566.82012 1545.06754,3566.78369 L1545.17941,3566.12368 L1542.77002,3563.79006 C1542.49643,3563.52497 1542.61708,3563.07716 1542.96171,3562.96745 L1542.96171,3562.96745 L1543.04514,3562.94838 L1546.37477,3562.46715 L1547.86463,3559.46763 C1548.04672,3559.10087 1548.57284,3559.10087 1548.75493,3559.46763 L1548.75493,3559.46763 L1549.87248,3561.72036 C1549.75509,3558.6016 1549.13602,3556.776 1548.06913,3555.81547 C1547.18973,3555.02373 1546.16558,3554.75998 1543.59734,3554.54596 L1542.95209,3554.49394 Z M1536.42478,3536 C1540.81036,3536 1544.3646,3539.51608 1544.36407,3543.85341 C1544.36407,3546.15843 1543.3591,3549.08173 1541.75903,3551.31441 C1541.25129,3552.02325 1540.68303,3552.65923 1540.06794,3553.18695 C1539.61334,3553.57676 1539.13453,3553.90515 1538.63467,3554.15601 C1537.93277,3554.50834 1537.1914,3554.71183 1536.42426,3554.71183 C1535.65764,3554.71183 1534.91785,3554.50938 1534.217,3554.15757 C1533.71609,3553.90567 1533.2357,3553.57676 1532.7811,3553.18643 C1532.16654,3552.6587 1531.59776,3552.02273 1531.09001,3551.31441 C1529.48994,3549.08173 1528.4855,3546.15895 1528.4855,3543.85341 C1528.4855,3539.51608 1532.03973,3536 1536.42478,3536 Z M1536.42478,3536.9465 C1532.56889,3536.9465 1529.44311,3540.03855 1529.44311,3543.85341 C1529.44311,3545.97131 1530.393,3548.70433 1531.87138,3550.76722 C1532.34471,3551.42752 1532.86387,3552.00369 1533.40911,3552.47188 C1533.81498,3552.82037 1534.23121,3553.10275 1534.65063,3553.31366 C1535.24773,3553.6134 1535.83943,3553.76533 1536.42426,3553.76533 C1537.00893,3553.76533 1537.60216,3553.61273 1538.20113,3553.31206 C1538.61845,3553.10263 1539.03302,3552.82132 1539.4402,3552.47217 C1539.98516,3552.00461 1540.5037,3551.42889 1540.9776,3550.76731 C1542.45615,3548.70418 1543.40645,3545.97062 1543.40645,3543.8533 C1543.40692,3540.0385 1540.28119,3536.9465 1536.42478,3536.9465 Z" transform="translate(-1522 -3536)"/>
</svg>
