<svg xmlns="http://www.w3.org/2000/svg" xmlns:xlink="http://www.w3.org/1999/xlink" width="62" height="62" viewBox="0 0 62 62">
  <defs>
    <linearGradient id="icon-8-9-b" x1="100%" x2="0%" y1="100%" y2="0%">
      <stop offset="0%" stop-color="#1E85E9"/>
      <stop offset="20.276%" stop-color="#8671F3"/>
      <stop offset="70.727%" stop-color="#C06CFD" stop-opacity=".99"/>
      <stop offset="100%" stop-color="#FFBEE8"/>
    </linearGradient>
    <rect id="icon-8-9-a" width="60" height="60" x="0" y="0" rx="4"/>
    <linearGradient id="icon-8-9-c" x1="88.927%" x2="11.073%" y1="100%" y2="0%">
      <stop offset="0%" stop-color="#1E85E9"/>
      <stop offset="20.276%" stop-color="#8671F3"/>
      <stop offset="70.727%" stop-color="#C06CFD" stop-opacity=".99"/>
      <stop offset="100%" stop-color="#FFBEE8"/>
    </linearGradient>
  </defs>
  <g fill="none" fill-rule="evenodd" transform="translate(1 1)">
    <g opacity=".062">
      <use fill="#FAFAFA" xlink:href="#icon-8-9-a"/>
      <use fill="url(#icon-8-9-b)" stroke="#000" stroke-opacity=".02" xlink:href="#icon-8-9-a"/>
    </g>
    <path fill="url(#icon-8-9-c)" fill-rule="nonzero" d="M27,13.5 C30.0375661,13.5 32.5,15.9624339 32.5,19 C32.5,19.1894313 32.4903342,19.3771156 32.4713996,19.5625066 L39.0412638,20.5012857 C39.2787729,19.0817965 40.5130529,18 42,18 C43.6568542,18 45,19.3431458 45,21 C45,22.6568542 43.6568542,24 42,24 C40.5123608,24 39.277624,22.9171963 39.0409328,21.496732 L39.0194009,21.4997104 L39.0194009,21.4997104 L38.9292893,21.4949747 L32.2793285,20.5451586 C31.8578269,21.9868769 30.8579334,23.2064424 29.5005388,23.8999264 L29.5000451,24.9997831 C29.9178676,24.685959 30.4372173,24.5 31,24.5 C31.8183856,24.5 32.5449263,24.8932346 33.0009803,25.5010619 C33.4550737,24.8932346 34.1816144,24.5 35,24.5 C36.3254834,24.5 37.4100387,25.5315359 37.4946823,26.8356243 L37.5,27 L37.5235325,26.982355 C37.9372583,26.6790861 38.4477153,26.5 39,26.5 C40.3254834,26.5 41.4100387,27.5315359 41.4946823,28.8356243 L41.5,29 L41.5,39 C41.5,39.9918662 41.1297708,40.763177 40.3904344,41.6873475 L39.749607,42.4927261 L39.6148734,42.6723944 L39.5395375,42.7886984 L39.5139205,42.8433166 L39.5021147,42.8881995 C39.5010182,42.8952782 39.5002874,42.9022584 39.4998174,42.9092936 L39.5,47 C39.5,47.2454599 39.3231248,47.4496084 39.0898756,47.4919443 L39,47.5 L25,47.5 L25,47.5 C24.7545401,47.5 24.5503916,47.3231248 24.5080557,47.0898756 L24.5,47 L24.5,44 C24.5,43.6150053 24.2773161,43.2321953 23.7672694,42.7276927 L23.5232325,42.4965365 L22.6707477,41.7512883 C21.2568059,40.5140893 20.5736506,39.5612317 20.5056563,38.2261645 L20.5,38 L20.5,30 C20.5,28.6192881 21.6192881,27.5 23,27.5 C23.5632392,27.5 24.0829748,27.6862608 24.5009713,28.0005469 L24.5,23.899 L24.3769194,23.8353332 C23.781763,23.5121213 23.2591729,23.0865369 22.8284577,22.585442 L20.510688,23.3572904 C20.8200714,23.8291865 21,24.393581 21,25 C21,26.6568542 19.6568542,28 18,28 C16.3431458,28 15,26.6568542 15,25 C15,23.3431458 16.3431458,22 18,22 C18.6545207,22 19.2600855,22.2096048 19.753232,22.565352 L19.75917,22.5617218 L19.8418861,22.5256584 L22.2254709,21.7317823 C21.7601609,20.9189062 21.5,19.9828013 21.5,19 C21.5,15.9624339 23.9624339,13.5 27,13.5 Z M27,19.5 C26.2203039,19.5 25.5795513,20.0948881 25.5068666,20.85554 L25.5,21 L25.5,35 C25.5,35.2454599 25.3231248,35.4496084 25.0898756,35.4919443 L25,35.5 L25,35.5 C24.7545401,35.5 24.5503916,35.3231248 24.5080557,35.0898756 L24.5,35 L24.5,30 C24.5,29.1715729 23.8284271,28.5 23,28.5 C22.2203039,28.5 21.5795513,29.0948881 21.5068666,29.85554 L21.5,30 L21.5,38 C21.5,39.0215816 21.9748243,39.7741268 23.108852,40.8025219 L24.0863463,41.657612 L24.3049335,41.8574536 C25.041336,42.5478309 25.4365077,43.1341143 25.4929459,43.8249832 L25.5,44 L25.5,46.5 L38.5,46.5 L38.5,43 C38.5,42.695933 38.6030187,42.4133442 38.798575,42.10347 L38.9040161,41.9460334 C38.9498478,41.8811052 38.9982464,41.8160925 39.0538036,41.744662 L39.6095656,41.0626525 C40.1647143,40.3687166 40.4463979,39.8239324 40.4930251,39.1923234 L40.5,39 L40.5,29 C40.5,28.1715729 39.8284271,27.5 39,27.5 C38.2203039,27.5 37.5795513,28.0948881 37.5068666,28.85554 L37.5,29 L37.5,33 C37.5,33.2454599 37.3231248,33.4496084 37.0898756,33.4919443 L37,33.5 L37,33.5 C36.7545401,33.5 36.5503916,33.3231248 36.5080557,33.0898756 L36.5,33 L36.5,27 C36.5,26.1715729 35.8284271,25.5 35,25.5 C34.2203039,25.5 33.5795513,26.0948881 33.5068666,26.85554 L33.5,27 L33.5,31 C33.5,31.2454599 33.3231248,31.4496084 33.0898756,31.4919443 L33,31.5 L33,31.5 C32.7545401,31.5 32.5503916,31.3231248 32.5080557,31.0898756 L32.5,31 L32.5,27 C32.5,26.1715729 31.8284271,25.5 31,25.5 C30.2203039,25.5 29.5795513,26.0948881 29.5068666,26.85554 L29.5,27 L29.5,31 C29.5,31.2454599 29.3231248,31.4496084 29.0898756,31.4919443 L29,31.5 L29,31.5 C28.7545401,31.5 28.5503916,31.3231248 28.5080557,31.0898756 L28.5,31 L28.5,21 C28.5,20.1715729 27.8284271,19.5 27,19.5 Z M18,23 C16.8954305,23 16,23.8954305 16,25 C16,26.1045695 16.8954305,27 18,27 C19.1045695,27 20,26.1045695 20,25 C20,23.8954305 19.1045695,23 18,23 Z M42,19 C40.8954305,19 40,19.8954305 40,21 C40,22.1045695 40.8954305,23 42,23 C43.1045695,23 44,22.1045695 44,21 C44,19.8954305 43.1045695,19 42,19 Z M27,14.5 C24.5147186,14.5 22.5,16.5147186 22.5,19 C22.5,20.5294793 23.2697264,21.9204049 24.5001761,22.7427696 L24.5,21 C24.5,19.6192881 25.6192881,18.5 27,18.5 C28.3254834,18.5 29.4100387,19.5315359 29.4946823,20.8356243 L29.5,21 L29.5008167,22.742166 C30.7296647,21.9204217 31.5,20.5299867 31.5,19 C31.5,16.5147186 29.4852814,14.5 27,14.5 Z"/>
  </g>
</svg>
