<svg xmlns="http://www.w3.org/2000/svg" xmlns:xlink="http://www.w3.org/1999/xlink" width="481" height="271" viewBox="0 0 481 271">
  <defs>
    <rect id="img-sheme-a" width="545" height="326" x="0" y="0"/>
    <linearGradient id="img-sheme-c" x1="119.645%" x2="5.249%" y1="32.071%" y2="45.953%">
      <stop offset="0%" stop-color="#E3E0E0"/>
      <stop offset="100%" stop-color="#FFF" stop-opacity=".113"/>
    </linearGradient>
    <linearGradient id="img-sheme-d" x1="-4.636%" x2="46.134%" y1="35.15%" y2="85.446%">
      <stop offset="0%" stop-color="#E3E0E0"/>
      <stop offset="100%" stop-color="#FFF" stop-opacity="0"/>
    </linearGradient>
    <linearGradient id="img-sheme-e" x1="100%" x2="0%" y1="92.092%" y2="7.908%">
      <stop offset="0%" stop-color="#1E85E9"/>
      <stop offset="20.276%" stop-color="#8671F3"/>
      <stop offset="70.727%" stop-color="#C06CFD" stop-opacity=".99"/>
      <stop offset="100%" stop-color="#FFBEE8"/>
    </linearGradient>
    <linearGradient id="img-sheme-f" x1="91.468%" x2="8.532%" y1="100%" y2="0%">
      <stop offset="0%" stop-color="#1E85E9" stop-opacity=".3"/>
      <stop offset="20.276%" stop-color="#8671F3" stop-opacity=".397"/>
      <stop offset="70.727%" stop-color="#C06CFD" stop-opacity=".4"/>
      <stop offset="100%" stop-color="#FFBEE8" stop-opacity=".3"/>
    </linearGradient>
    <linearGradient id="img-sheme-g" x1="100%" x2="0%" y1="99.381%" y2=".619%">
      <stop offset="0%" stop-color="#1E85E9" stop-opacity=".3"/>
      <stop offset="20.276%" stop-color="#8671F3" stop-opacity=".397"/>
      <stop offset="70.727%" stop-color="#C06CFD" stop-opacity=".4"/>
      <stop offset="100%" stop-color="#FFBEE8" stop-opacity=".3"/>
    </linearGradient>
  </defs>
  <g fill="none" fill-rule="evenodd" transform="translate(-33 -31)">
    <mask id="img-sheme-b" fill="#fff">
      <use xlink:href="#img-sheme-a"/>
    </mask>
    <use fill="#D8D8D8" fill-opacity="0" xlink:href="#img-sheme-a"/>
    <g mask="url(#img-sheme-b)">
      <g transform="translate(-11 -73)">
        <g transform="translate(243 116)">
          <path fill="url(#img-sheme-c)" fill-rule="nonzero" d="M167.544848,58.3624888 C242.905447,58.3734828 303.998801,121.841489 304.009385,200.114048 C304.009385,217.792295 300.896617,235.01796 294.90294,251.147589 L294.516455,252.175646 L293.683644,251.858932 C299.891564,235.534959 303.118385,218.059928 303.118385,200.114109 C303.107867,122.326159 242.40557,59.2644099 167.544718,59.2534888 C92.683967,59.2425677 31.9988683,122.286453 32.0093845,200.074368 C32.0093845,217.942766 35.2176824,235.352777 41.3856458,251.631068 L41.774995,252.646982 L40.9442194,252.968996 C34.4822993,236.297639 31.1183846,218.425514 31.1183846,200.074428 C31.1078028,121.801834 92.1841482,58.3514948 167.544848,58.3624888 Z" opacity=".2" transform="scale(1 -1) rotate(32 710.435 0)"/>
          <g fill="#5055FE" transform="translate(219.654 2)">
            <ellipse cx="6.568" cy="6.57" rx="3.065" ry="3.065" transform="rotate(51 6.568 6.57)"/>
            <ellipse cx="6.568" cy="6.57" opacity=".2" rx="6.568" ry="6.57"/>
          </g>
          <g fill="#5055FE" transform="translate(236.654 211.6)">
            <ellipse cx="6.568" cy="6.57" rx="3.065" ry="3.065" transform="rotate(51 6.568 6.57)"/>
            <ellipse cx="6.568" cy="6.57" opacity=".2" rx="6.568" ry="6.57"/>
          </g>
        </g>
        <path fill="url(#img-sheme-d)" fill-rule="nonzero" d="M158.49474,108.340335 C231.366494,108.331343 290.433075,167.530482 290.424102,240.56472 C290.424102,257.045346 287.410871,273.112521 281.611756,288.166801 L281.229606,289.14716 L280.400746,288.820246 C286.408693,273.587645 289.533102,257.291231 289.533102,240.564665 C289.542014,168.022098 230.873984,109.222404 158.49485,109.231335 C86.1156294,109.240266 27.4330154,168.054573 27.4241016,240.597172 C27.4241016,257.260608 30.5172825,273.488387 36.467032,288.653304 L36.8506804,289.619828 L36.0238504,289.951842 C29.7812516,274.40559 26.5331016,257.729343 26.5331016,240.597117 C26.5420758,167.56291 85.6230719,108.349327 158.49474,108.340335 Z" opacity=".2" transform="rotate(-26 158.479 199.146)"/>
        <path fill="url(#img-sheme-e)" d="M206.453966,76.1799997 C249.390135,76.1799997 285.909936,103.791189 299.395057,142.310898 L299.58442,142.075618 C308.847769,174.723869 336.087732,199.795694 369.908552,205.878169 C374.481992,206.030847 378.975387,206.498273 383.369235,207.258247 C384.197913,207.284154 385.030324,207.295584 385.8654,207.295584 L386.682885,207.287618 L386.263695,207.803964 C431.21503,216.983574 465.046034,256.930905 465.046034,304.82 C465.046034,359.496191 420.946082,403.82 366.546034,403.82 C321.676875,403.82 283.814819,373.666732 271.925216,332.421815 L271.018765,331.682148 C264.607283,300.839354 238.649058,277.159351 206.679877,274.176036 L206.453966,274.18 C152.053918,274.18 107.953966,229.85619 107.953966,175.18 C107.953966,120.503809 152.053918,76.1799997 206.453966,76.1799997 Z M366.546034,245.685772 C334.052046,245.685772 307.710464,272.161068 307.710464,304.82 C307.710464,337.478933 334.052046,363.954228 366.546034,363.954228 C399.040022,363.954228 425.381604,337.478933 425.381604,304.82 C425.381604,272.161068 399.040022,245.685772 366.546034,245.685772 Z M206.453966,116.045772 C173.959978,116.045772 147.618396,142.521067 147.618396,175.18 C147.618396,207.838932 173.959978,234.314228 206.453966,234.314228 C238.947954,234.314228 265.289536,207.838932 265.289536,175.18 C265.289536,142.521067 238.947954,116.045772 206.453966,116.045772 Z" opacity=".7" transform="rotate(-39 286.5 240)"/>
        <path fill="#FFF" fill-rule="nonzero" d="M155.012 233C155.636 233 155.972 232.568 155.972 232.024L155.972 222.952C155.972 222.408 155.636 221.96 155.012 221.96 154.372 221.96 154.052 222.408 154.052 222.952L154.052 232.024C154.052 232.568 154.372 233 155.012 233zM164.452 233C165.06 233 165.364 232.584 165.364 232.072L165.364 228.424C165.364 226.296 164.708 225 162.628 225 161.684 225 160.74 225.416 160.26 226.328L160.26 226.088C160.26 225.592 159.956 225.16 159.348 225.16 158.756 225.16 158.452 225.592 158.452 226.088L158.452 232.072C158.452 232.584 158.756 233 159.348 233 159.956 233 160.26 232.584 160.26 232.072L160.26 230.008C160.292 228.216 160.644 226.6 162.196 226.6 163.22 226.6 163.556 227.336 163.556 228.392L163.556 232.072C163.556 232.584 163.86 233 164.452 233zM170.244 233.16C171.38 233.16 172.132 232.696 172.58 231.944L172.58 232.072C172.58 232.568 172.884 233 173.492 233 174.084 233 174.388 232.568 174.388 232.072L174.388 222.888C174.388 222.376 174.084 221.96 173.492 221.96 172.884 221.96 172.58 222.376 172.58 222.888L172.58 225.304C172.18 225.144 171.556 225 170.804 225 168.308 225 167.204 226.856 167.204 229.32 167.204 231.56 168.228 233.16 170.244 233.16zM170.612 231.624C169.524 231.624 169.06 230.712 169.06 229.352 169.06 227.752 169.556 226.536 170.996 226.536 171.604 226.536 172.132 226.648 172.58 226.904L172.58 228.152C172.58 229.8 172.308 231.624 170.612 231.624zM179.364 233.16C180.308 233.16 181.252 232.744 181.732 231.832L181.732 232.072C181.732 232.568 182.036 233 182.644 233 183.236 233 183.54 232.568 183.54 232.072L183.54 226.088C183.54 225.576 183.236 225.16 182.644 225.16 182.036 225.16 181.732 225.576 181.732 226.088L181.732 228.152C181.7 229.944 181.348 231.56 179.796 231.56 178.772 231.56 178.436 230.824 178.436 229.768L178.436 226.088C178.436 225.576 178.132 225.16 177.54 225.16 176.932 225.16 176.628 225.576 176.628 226.088L176.628 229.736C176.628 231.864 177.284 233.16 179.364 233.16zM188.18 233.16C190.34 233.16 191.348 232.248 191.348 230.728 191.348 228.008 187.316 228.648 187.316 227.176 187.316 226.728 187.652 226.456 188.388 226.456 188.98 226.456 189.604 226.712 190.052 226.888 190.564 227.048 190.884 226.968 191.06 226.584 191.22 226.216 191.124 225.816 190.612 225.528 190.084 225.224 189.252 225 188.324 225 186.644 225 185.492 225.752 185.492 227.24 185.492 230.072 189.524 229.368 189.524 230.888 189.524 231.432 189.14 231.704 188.34 231.704 187.748 231.704 187.092 231.528 186.484 231.256 186.068 231.064 185.556 230.952 185.316 231.448 185.108 231.88 185.252 232.248 185.684 232.552 186.324 232.968 187.364 233.16 188.18 233.16zM196.1 233.16C196.66 233.16 197.252 233.048 197.7 232.792 198.132 232.536 198.388 232.152 198.196 231.672 198.036 231.288 197.636 231.208 197.236 231.368 197.044 231.448 196.692 231.56 196.388 231.56 195.716 231.56 195.476 231.16 195.476 230.264L195.476 226.696 196.836 226.696C197.412 226.696 197.7 226.408 197.7 225.928 197.7 225.432 197.412 225.16 196.836 225.16L195.476 225.16 195.476 224.168C195.476 223.672 195.172 223.24 194.564 223.24 193.972 223.24 193.668 223.672 193.668 224.168L193.668 225.16 193.252 225.16C192.676 225.16 192.388 225.432 192.388 225.928 192.388 226.408 192.676 226.696 193.252 226.696L193.668 226.696 193.668 230.456C193.668 232.36 194.564 233.16 196.1 233.16zM200.372 233C200.98 233 201.284 232.584 201.284 232.072L201.284 229.368C201.284 227.496 201.716 226.632 202.66 226.632 202.932 226.632 203.172 226.696 203.412 226.776 203.876 226.936 204.244 226.824 204.42 226.424 204.676 225.832 204.292 225 202.964 225 202.26 225 201.62 225.416 201.284 226.024 201.284 225.608 200.98 225.16 200.372 225.16 199.78 225.16 199.476 225.592 199.476 226.088L199.476 232.072C199.476 232.584 199.78 233 200.372 233zM206.244 236.36C207.62 236.36 208.34 235.592 209.284 233.08L211.78 226.472C211.844 226.28 211.892 226.088 211.892 225.896 211.892 225.544 211.668 225.16 211.076 225.16 210.676 225.16 210.42 225.448 210.244 225.96L208.596 230.856 206.724 225.896C206.548 225.448 206.26 225.16 205.86 225.16 205.22 225.16 204.916 225.624 204.916 226.04 204.916 226.232 204.964 226.408 205.044 226.584L207.764 233C207.38 234.024 207.012 234.824 206.26 234.824 205.764 234.824 205.396 234.568 205.012 234.568 204.74 234.568 204.372 234.76 204.372 235.272 204.372 236.04 205.508 236.36 206.244 236.36zM146.956 249C147.564 249 147.852 248.584 147.852 248.072L147.852 245.56 150.812 248.568C151.068 248.84 151.34 248.984 151.612 248.984 151.932 248.984 152.412 248.664 152.412 248.184 152.412 247.928 152.284 247.656 152.06 247.432L149.532 245.032 151.788 242.632C152.012 242.392 152.124 242.136 152.124 241.896 152.124 241.496 151.724 241.16 151.372 241.16 151.116 241.16 150.844 241.32 150.572 241.624L147.852 244.728 147.852 238.888C147.852 238.392 147.564 237.96 146.956 237.96 146.364 237.96 146.076 238.392 146.076 238.888L146.076 248.072C146.076 248.584 146.364 249 146.956 249zM159.788 249C160.396 249 160.7 248.584 160.7 248.072L160.7 244.424C160.7 242.296 160.044 241 157.964 241 157.02 241 156.076 241.416 155.596 242.328L155.596 242.088C155.596 241.592 155.292 241.16 154.684 241.16 154.092 241.16 153.788 241.592 153.788 242.088L153.788 248.072C153.788 248.584 154.092 249 154.684 249 155.292 249 155.596 248.584 155.596 248.072L155.596 246.008C155.628 244.216 155.98 242.6 157.532 242.6 158.556 242.6 158.892 243.336 158.892 244.392L158.892 248.072C158.892 248.584 159.196 249 159.788 249zM166.364 249.16C168.844 249.16 170.204 247.4 170.204 245.08 170.204 242.776 168.844 241 166.364 241 163.884 241 162.54 242.76 162.54 245.08 162.54 247.4 163.884 249.16 166.364 249.16zM166.364 247.624C165.068 247.624 164.396 246.536 164.396 245.08 164.396 243.64 165.052 242.536 166.364 242.536 167.692 242.536 168.348 243.64 168.348 245.08 168.348 246.536 167.692 247.624 166.364 247.624zM178.412 249.16C179.02 249.16 179.228 248.744 179.404 248.184L181.18 242.44C181.244 242.248 181.276 242.072 181.276 241.912 181.276 241.512 181.02 241.16 180.444 241.16 180.012 241.16 179.772 241.496 179.612 242.072L178.364 246.504 177.132 242.872C176.988 242.472 176.796 242.168 176.332 242.168 175.9 242.168 175.676 242.472 175.548 242.872L174.412 246.472 173.164 242.28C172.94 241.544 172.652 241.16 172.204 241.16 171.548 241.16 171.324 241.624 171.324 242.056 171.324 242.28 171.388 242.536 171.452 242.744L173.26 248.216C173.436 248.76 173.628 249.16 174.22 249.16 174.78 249.16 175.02 248.808 175.196 248.232L176.284 244.664 177.452 248.28C177.628 248.84 177.884 249.16 178.412 249.16zM183.66 249C184.268 249 184.572 248.568 184.572 248.072L184.572 238.888C184.572 238.392 184.268 237.96 183.66 237.96 183.068 237.96 182.764 238.392 182.764 238.888L182.764 248.072C182.764 248.568 183.068 249 183.66 249zM190.076 249.16C190.988 249.16 191.916 249 192.604 248.536 193.02 248.264 193.116 247.848 192.94 247.512 192.764 247.208 192.46 247.08 191.948 247.288 191.452 247.496 190.94 247.704 190.252 247.704 189.02 247.704 188.22 246.952 188.172 245.736L192.252 245.736C192.892 245.736 193.164 245.464 193.308 244.936 193.356 244.76 193.388 244.408 193.388 244.184 193.388 242.312 192.204 241 190.108 241 187.804 241 186.38 242.632 186.38 245.112 186.38 247.688 187.676 249.16 190.076 249.16zM191.708 244.472L188.172 244.472C188.284 243.176 188.972 242.456 190.108 242.456 191.212 242.456 191.724 243.16 191.724 244.072 191.724 244.216 191.724 244.312 191.708 244.472zM197.836 249.16C198.972 249.16 199.724 248.696 200.172 247.944L200.172 248.072C200.172 248.568 200.476 249 201.084 249 201.676 249 201.98 248.568 201.98 248.072L201.98 238.888C201.98 238.376 201.676 237.96 201.084 237.96 200.476 237.96 200.172 238.376 200.172 238.888L200.172 241.304C199.772 241.144 199.148 241 198.396 241 195.9 241 194.796 242.856 194.796 245.32 194.796 247.56 195.82 249.16 197.836 249.16zM198.204 247.624C197.116 247.624 196.652 246.712 196.652 245.352 196.652 243.752 197.148 242.536 198.588 242.536 199.196 242.536 199.724 242.648 200.172 242.904L200.172 244.152C200.172 245.8 199.9 247.624 198.204 247.624zM207.1 252.36C209.772 252.36 211.116 251.192 211.116 249.624 211.116 248.12 209.724 247.672 207.756 247.592 205.82 247.512 205.308 247.24 205.308 246.792 205.308 246.568 205.468 246.312 205.74 246.136 206.172 246.296 206.668 246.376 207.26 246.376 209.372 246.376 210.476 245.256 210.476 243.704 210.476 243.24 210.348 242.808 210.156 242.424L210.716 242.424C211.212 242.424 211.452 242.2 211.452 241.8 211.452 241.368 211.212 241.16 210.716 241.16L208.508 241.16C208.14 241.064 207.724 241 207.26 241 205.164 241 204.06 242.104 204.06 243.704 204.06 244.44 204.3 245.064 204.764 245.528 204.252 245.944 203.9 246.456 203.9 247.064 203.9 247.512 204.124 248.04 204.652 248.328 203.916 248.744 203.5 249.384 203.5 250.104 203.5 251.208 204.3 252.36 207.1 252.36zM207.26 245C206.252 245 205.676 244.472 205.676 243.704 205.676 242.92 206.252 242.376 207.26 242.376 208.268 242.376 208.844 242.92 208.844 243.704 208.844 244.472 208.268 245 207.26 245zM207.084 250.968C205.628 250.968 205.132 250.408 205.132 249.896 205.132 249.4 205.484 249.032 205.996 248.792 206.364 248.856 206.764 248.904 207.244 248.936 208.812 249.048 209.388 249.224 209.388 249.768 209.388 250.408 208.748 250.968 207.084 250.968zM216.044 249.16C216.956 249.16 217.884 249 218.572 248.536 218.988 248.264 219.084 247.848 218.908 247.512 218.732 247.208 218.428 247.08 217.916 247.288 217.42 247.496 216.908 247.704 216.22 247.704 214.988 247.704 214.188 246.952 214.14 245.736L218.22 245.736C218.86 245.736 219.132 245.464 219.276 244.936 219.324 244.76 219.356 244.408 219.356 244.184 219.356 242.312 218.172 241 216.076 241 213.772 241 212.348 242.632 212.348 245.112 212.348 247.688 213.644 249.16 216.044 249.16zM217.676 244.472L214.14 244.472C214.252 243.176 214.94 242.456 216.076 242.456 217.18 242.456 217.692 243.16 217.692 244.072 217.692 244.216 217.692 244.312 217.676 244.472zM378.276 233.08C380.5 233.08 382.708 232.44 382.708 229.688 382.708 228.424 381.956 227.48 380.724 227.096 381.636 226.68 382.18 225.752 382.18 224.776 382.18 222.584 380.468 221.88 378.148 221.88 377.204 221.88 376.324 221.944 375.572 222.072 374.932 222.184 374.66 222.552 374.66 223.144L374.66 231.88C374.66 232.424 374.916 232.808 375.556 232.904 376.388 233.032 377.508 233.08 378.276 233.08zM378.132 226.632L376.5 226.632 376.5 223.56C376.964 223.512 377.428 223.48 377.972 223.48 379.332 223.48 380.212 223.88 380.212 224.968 380.212 226.056 379.492 226.632 378.132 226.632zM378.356 231.496C377.796 231.496 377.14 231.48 376.5 231.4L376.5 228.072 378.34 228.072C379.908 228.072 380.74 228.616 380.74 229.768 380.74 231.048 379.86 231.496 378.356 231.496zM388.004 233.16C388.916 233.16 389.844 233 390.532 232.536 390.948 232.264 391.044 231.848 390.868 231.512 390.692 231.208 390.388 231.08 389.876 231.288 389.38 231.496 388.868 231.704 388.18 231.704 386.948 231.704 386.148 230.952 386.1 229.736L390.18 229.736C390.82 229.736 391.092 229.464 391.236 228.936 391.284 228.76 391.316 228.408 391.316 228.184 391.316 226.312 390.132 225 388.036 225 385.732 225 384.308 226.632 384.308 229.112 384.308 231.688 385.604 233.16 388.004 233.16zM389.636 228.472L386.1 228.472C386.212 227.176 386.9 226.456 388.036 226.456 389.14 226.456 389.652 227.16 389.652 228.072 389.652 228.216 389.652 228.312 389.636 228.472zM395.524 233.16C397.684 233.16 398.692 232.248 398.692 230.728 398.692 228.008 394.66 228.648 394.66 227.176 394.66 226.728 394.996 226.456 395.732 226.456 396.324 226.456 396.948 226.712 397.396 226.888 397.908 227.048 398.228 226.968 398.404 226.584 398.564 226.216 398.468 225.816 397.956 225.528 397.428 225.224 396.596 225 395.668 225 393.988 225 392.836 225.752 392.836 227.24 392.836 230.072 396.868 229.368 396.868 230.888 396.868 231.432 396.484 231.704 395.684 231.704 395.092 231.704 394.436 231.528 393.828 231.256 393.412 231.064 392.9 230.952 392.66 231.448 392.452 231.88 392.596 232.248 393.028 232.552 393.668 232.968 394.708 233.16 395.524 233.16zM403.444 233.16C404.004 233.16 404.596 233.048 405.044 232.792 405.476 232.536 405.732 232.152 405.54 231.672 405.38 231.288 404.98 231.208 404.58 231.368 404.388 231.448 404.036 231.56 403.732 231.56 403.06 231.56 402.82 231.16 402.82 230.264L402.82 226.696 404.18 226.696C404.756 226.696 405.044 226.408 405.044 225.928 405.044 225.432 404.756 225.16 404.18 225.16L402.82 225.16 402.82 224.168C402.82 223.672 402.516 223.24 401.908 223.24 401.316 223.24 401.012 223.672 401.012 224.168L401.012 225.16 400.596 225.16C400.02 225.16 399.732 225.432 399.732 225.928 399.732 226.408 400.02 226.696 400.596 226.696L401.012 226.696 401.012 230.456C401.012 232.36 401.908 233.16 403.444 233.16zM358.948 252.2C359.556 252.2 359.86 251.784 359.86 251.272L359.86 248.856C360.26 249.016 360.884 249.16 361.636 249.16 364.132 249.16 365.236 247.304 365.236 244.84 365.236 242.6 364.212 241 362.196 241 361.06 241 360.308 241.464 359.86 242.216L359.86 242.088C359.86 241.592 359.556 241.16 358.948 241.16 358.356 241.16 358.052 241.592 358.052 242.088L358.052 251.272C358.052 251.784 358.356 252.2 358.948 252.2zM361.444 247.624C360.868 247.624 360.308 247.512 359.86 247.256L359.86 246.008C359.86 244.36 360.132 242.536 361.828 242.536 362.916 242.536 363.38 243.448 363.38 244.808 363.38 246.408 362.884 247.624 361.444 247.624zM367.972 249C368.58 249 368.884 248.584 368.884 248.072L368.884 245.368C368.884 243.496 369.316 242.632 370.26 242.632 370.532 242.632 370.772 242.696 371.012 242.776 371.476 242.936 371.844 242.824 372.02 242.424 372.276 241.832 371.892 241 370.564 241 369.86 241 369.22 241.416 368.884 242.024 368.884 241.608 368.58 241.16 367.972 241.16 367.38 241.16 367.076 241.592 367.076 242.088L367.076 248.072C367.076 248.584 367.38 249 367.972 249zM375.108 249.16C376.436 249.16 377.236 248.536 377.668 247.784L377.668 248.072C377.668 248.584 377.94 249 378.532 249 379.14 249 379.396 248.584 379.396 248.072L379.396 243.976C379.396 242.12 378.436 241 376.244 241 375.236 241 374.212 241.208 373.636 241.592 373.268 241.832 373.108 242.152 373.236 242.536 373.364 242.92 373.764 243.016 374.148 242.904 374.852 242.696 375.3 242.504 376.036 242.504 377.428 242.504 377.668 243.256 377.668 244.12L377.668 244.296C377.38 244.248 376.756 244.184 375.988 244.184 374.228 244.184 372.548 244.856 372.548 246.808 372.548 248.232 373.492 249.16 375.108 249.16zM375.588 247.752C374.788 247.752 374.324 247.304 374.324 246.664 374.324 245.704 375.108 245.32 376.244 245.32 376.836 245.32 377.252 245.336 377.668 245.4L377.668 245.672C377.668 246.68 376.948 247.752 375.588 247.752zM384.916 249.16C385.876 249.16 386.772 248.92 387.396 248.424 387.828 248.072 387.94 247.624 387.716 247.256 387.524 246.936 387.156 246.84 386.628 247.096 386.148 247.336 385.684 247.544 385.092 247.544 383.908 247.544 383.092 246.664 383.092 245.144 383.092 243.576 383.844 242.616 385.076 242.616 385.668 242.616 386.004 242.728 386.436 242.856 386.996 243.032 387.316 242.904 387.492 242.52 387.668 242.136 387.556 241.736 387.092 241.448 386.612 241.144 385.892 241 385.028 241 382.676 241 381.236 242.584 381.236 245.144 381.236 247.688 382.628 249.16 384.916 249.16zM392.404 249.16C392.964 249.16 393.556 249.048 394.004 248.792 394.436 248.536 394.692 248.152 394.5 247.672 394.34 247.288 393.94 247.208 393.54 247.368 393.348 247.448 392.996 247.56 392.692 247.56 392.02 247.56 391.78 247.16 391.78 246.264L391.78 242.696 393.14 242.696C393.716 242.696 394.004 242.408 394.004 241.928 394.004 241.432 393.716 241.16 393.14 241.16L391.78 241.16 391.78 240.168C391.78 239.672 391.476 239.24 390.868 239.24 390.276 239.24 389.972 239.672 389.972 240.168L389.972 241.16 389.556 241.16C388.98 241.16 388.692 241.432 388.692 241.928 388.692 242.408 388.98 242.696 389.556 242.696L389.972 242.696 389.972 246.456C389.972 248.36 390.868 249.16 392.404 249.16zM396.676 240.072C397.3 240.072 397.732 239.736 397.732 239.096 397.732 238.488 397.3 238.12 396.676 238.12 396.036 238.12 395.636 238.488 395.636 239.096 395.636 239.736 396.036 240.072 396.676 240.072zM396.676 249C397.284 249 397.588 248.584 397.588 248.072L397.588 242.088C397.588 241.592 397.284 241.16 396.676 241.16 396.084 241.16 395.78 241.592 395.78 242.088L395.78 248.072C395.78 248.584 396.084 249 396.676 249zM403.108 249.16C404.068 249.16 404.964 248.92 405.588 248.424 406.02 248.072 406.132 247.624 405.908 247.256 405.716 246.936 405.348 246.84 404.82 247.096 404.34 247.336 403.876 247.544 403.284 247.544 402.1 247.544 401.284 246.664 401.284 245.144 401.284 243.576 402.036 242.616 403.268 242.616 403.86 242.616 404.196 242.728 404.628 242.856 405.188 243.032 405.508 242.904 405.684 242.52 405.86 242.136 405.748 241.736 405.284 241.448 404.804 241.144 404.084 241 403.22 241 400.868 241 399.428 242.584 399.428 245.144 399.428 247.688 400.82 249.16 403.108 249.16zM410.82 249.16C411.732 249.16 412.66 249 413.348 248.536 413.764 248.264 413.86 247.848 413.684 247.512 413.508 247.208 413.204 247.08 412.692 247.288 412.196 247.496 411.684 247.704 410.996 247.704 409.764 247.704 408.964 246.952 408.916 245.736L412.996 245.736C413.636 245.736 413.908 245.464 414.052 244.936 414.1 244.76 414.132 244.408 414.132 244.184 414.132 242.312 412.948 241 410.852 241 408.548 241 407.124 242.632 407.124 245.112 407.124 247.688 408.42 249.16 410.82 249.16zM412.452 244.472L408.916 244.472C409.028 243.176 409.716 242.456 410.852 242.456 411.956 242.456 412.468 243.16 412.468 244.072 412.468 244.216 412.468 244.312 412.452 244.472zM418.34 249.16C420.5 249.16 421.508 248.248 421.508 246.728 421.508 244.008 417.476 244.648 417.476 243.176 417.476 242.728 417.812 242.456 418.548 242.456 419.14 242.456 419.764 242.712 420.212 242.888 420.724 243.048 421.044 242.968 421.22 242.584 421.38 242.216 421.284 241.816 420.772 241.528 420.244 241.224 419.412 241 418.484 241 416.804 241 415.652 241.752 415.652 243.24 415.652 246.072 419.684 245.368 419.684 246.888 419.684 247.432 419.3 247.704 418.5 247.704 417.908 247.704 417.252 247.528 416.644 247.256 416.228 247.064 415.716 246.952 415.476 247.448 415.268 247.88 415.412 248.248 415.844 248.552 416.484 248.968 417.524 249.16 418.34 249.16zM279.908 234C280.468 234 280.82 233.664 280.82 233.152 280.82 232.624 280.468 232.288 279.908 232.288L275.284 232.288 275.284 229.184 278.852 229.184C279.428 229.184 279.78 228.832 279.78 228.32 279.78 227.792 279.428 227.472 278.852 227.472L275.284 227.472 275.284 224.672 279.748 224.672C280.308 224.672 280.66 224.336 280.66 223.824 280.66 223.296 280.308 222.96 279.748 222.96L274.34 222.96C273.7 222.96 273.364 223.408 273.364 223.952L273.364 233.008C273.364 233.568 273.716 234 274.356 234L279.908 234zM283.62 234C284.244 234 284.58 233.568 284.58 233.024L284.58 229.552C284.9 229.6 285.252 229.616 285.524 229.616 285.748 229.616 286.004 229.616 286.212 229.584L288.484 233.328C288.804 233.856 289.332 234.208 289.94 233.856 290.452 233.552 290.484 232.896 290.116 232.32L288.084 229.232C289.3 228.816 290.1 227.76 290.1 226.208 290.1 223.712 288.308 222.88 285.956 222.88 284.948 222.88 284.068 222.976 283.556 223.088 283.012 223.2 282.66 223.504 282.66 224.192L282.66 233.024C282.66 233.568 282.98 234 283.62 234zM285.668 228.176C285.364 228.176 284.948 228.16 284.58 228.112L284.58 224.688C284.98 224.64 285.348 224.592 285.796 224.592 287.188 224.592 288.084 225.056 288.084 226.32 288.084 227.648 287.284 228.176 285.668 228.176zM293.732 234C294.356 234 294.692 233.568 294.692 233.024L294.692 230.08C295.076 230.144 295.668 230.16 296.084 230.16 298.484 230.16 300.356 228.992 300.356 226.416 300.356 223.872 298.612 222.88 296.132 222.88 295.268 222.88 294.484 222.928 293.668 223.088 293.044 223.216 292.772 223.648 292.772 224.208L292.772 233.024C292.772 233.568 293.092 234 293.732 234zM295.972 228.496C295.54 228.496 295.044 228.48 294.692 228.432L294.692 224.656C295.156 224.592 295.572 224.56 296.084 224.56 297.524 224.56 298.34 225.184 298.34 226.464 298.34 228 297.268 228.496 295.972 228.496zM265.548 250.16C266.108 250.16 266.7 250.048 267.148 249.792 267.58 249.536 267.836 249.152 267.644 248.672 267.484 248.288 267.084 248.208 266.684 248.368 266.492 248.448 266.14 248.56 265.836 248.56 265.164 248.56 264.924 248.16 264.924 247.264L264.924 243.696 266.284 243.696C266.86 243.696 267.148 243.408 267.148 242.928 267.148 242.432 266.86 242.16 266.284 242.16L264.924 242.16 264.924 241.168C264.924 240.672 264.62 240.24 264.012 240.24 263.42 240.24 263.116 240.672 263.116 241.168L263.116 242.16 262.7 242.16C262.124 242.16 261.836 242.432 261.836 242.928 261.836 243.408 262.124 243.696 262.7 243.696L263.116 243.696 263.116 247.456C263.116 249.36 264.012 250.16 265.548 250.16zM272.22 250.16C273.132 250.16 274.06 250 274.748 249.536 275.164 249.264 275.26 248.848 275.084 248.512 274.908 248.208 274.604 248.08 274.092 248.288 273.596 248.496 273.084 248.704 272.396 248.704 271.164 248.704 270.364 247.952 270.316 246.736L274.396 246.736C275.036 246.736 275.308 246.464 275.452 245.936 275.5 245.76 275.532 245.408 275.532 245.184 275.532 243.312 274.348 242 272.252 242 269.948 242 268.524 243.632 268.524 246.112 268.524 248.688 269.82 250.16 272.22 250.16zM273.852 245.472L270.316 245.472C270.428 244.176 271.116 243.456 272.252 243.456 273.356 243.456 273.868 244.16 273.868 245.072 273.868 245.216 273.868 245.312 273.852 245.472zM279.74 250.16C281.9 250.16 282.908 249.248 282.908 247.728 282.908 245.008 278.876 245.648 278.876 244.176 278.876 243.728 279.212 243.456 279.948 243.456 280.54 243.456 281.164 243.712 281.612 243.888 282.124 244.048 282.444 243.968 282.62 243.584 282.78 243.216 282.684 242.816 282.172 242.528 281.644 242.224 280.812 242 279.884 242 278.204 242 277.052 242.752 277.052 244.24 277.052 247.072 281.084 246.368 281.084 247.888 281.084 248.432 280.7 248.704 279.9 248.704 279.308 248.704 278.652 248.528 278.044 248.256 277.628 248.064 277.116 247.952 276.876 248.448 276.668 248.88 276.812 249.248 277.244 249.552 277.884 249.968 278.924 250.16 279.74 250.16zM287.66 250.16C288.22 250.16 288.812 250.048 289.26 249.792 289.692 249.536 289.948 249.152 289.756 248.672 289.596 248.288 289.196 248.208 288.796 248.368 288.604 248.448 288.252 248.56 287.948 248.56 287.276 248.56 287.036 248.16 287.036 247.264L287.036 243.696 288.396 243.696C288.972 243.696 289.26 243.408 289.26 242.928 289.26 242.432 288.972 242.16 288.396 242.16L287.036 242.16 287.036 241.168C287.036 240.672 286.732 240.24 286.124 240.24 285.532 240.24 285.228 240.672 285.228 241.168L285.228 242.16 284.812 242.16C284.236 242.16 283.948 242.432 283.948 242.928 283.948 243.408 284.236 243.696 284.812 243.696L285.228 243.696 285.228 247.456C285.228 249.36 286.124 250.16 287.66 250.16zM291.932 241.072C292.556 241.072 292.988 240.736 292.988 240.096 292.988 239.488 292.556 239.12 291.932 239.12 291.292 239.12 290.892 239.488 290.892 240.096 290.892 240.736 291.292 241.072 291.932 241.072zM291.932 250C292.54 250 292.844 249.584 292.844 249.072L292.844 243.088C292.844 242.592 292.54 242.16 291.932 242.16 291.34 242.16 291.036 242.592 291.036 243.088L291.036 249.072C291.036 249.584 291.34 250 291.932 250zM301.084 250C301.692 250 301.996 249.584 301.996 249.072L301.996 245.424C301.996 243.296 301.34 242 299.26 242 298.316 242 297.372 242.416 296.892 243.328L296.892 243.088C296.892 242.592 296.588 242.16 295.98 242.16 295.388 242.16 295.084 242.592 295.084 243.088L295.084 249.072C295.084 249.584 295.388 250 295.98 250 296.588 250 296.892 249.584 296.892 249.072L296.892 247.008C296.924 245.216 297.276 243.6 298.828 243.6 299.852 243.6 300.188 244.336 300.188 245.392L300.188 249.072C300.188 249.584 300.492 250 301.084 250zM307.116 253.36C309.788 253.36 311.132 252.192 311.132 250.624 311.132 249.12 309.74 248.672 307.772 248.592 305.836 248.512 305.324 248.24 305.324 247.792 305.324 247.568 305.484 247.312 305.756 247.136 306.188 247.296 306.684 247.376 307.276 247.376 309.388 247.376 310.492 246.256 310.492 244.704 310.492 244.24 310.364 243.808 310.172 243.424L310.732 243.424C311.228 243.424 311.468 243.2 311.468 242.8 311.468 242.368 311.228 242.16 310.732 242.16L308.524 242.16C308.156 242.064 307.74 242 307.276 242 305.18 242 304.076 243.104 304.076 244.704 304.076 245.44 304.316 246.064 304.78 246.528 304.268 246.944 303.916 247.456 303.916 248.064 303.916 248.512 304.14 249.04 304.668 249.328 303.932 249.744 303.516 250.384 303.516 251.104 303.516 252.208 304.316 253.36 307.116 253.36zM307.276 246C306.268 246 305.692 245.472 305.692 244.704 305.692 243.92 306.268 243.376 307.276 243.376 308.284 243.376 308.86 243.92 308.86 244.704 308.86 245.472 308.284 246 307.276 246zM307.1 251.968C305.644 251.968 305.148 251.408 305.148 250.896 305.148 250.4 305.5 250.032 306.012 249.792 306.38 249.856 306.78 249.904 307.26 249.936 308.828 250.048 309.404 250.224 309.404 250.768 309.404 251.408 308.764 251.968 307.1 251.968z"/>
        <path fill="url(#img-sheme-f)" d="M321.003525,165.236511 C334.326438,171.304894 345.694723,180.880761 353.911676,192.774841 C353.363729,193.186411 352.821997,193.609728 352.285624,194.044073 C327.033053,214.493203 323.223242,251.645667 343.776174,277.026424 C346.353478,280.209129 349.191494,283.055594 352.234104,285.559776 C343.563805,297.19882 331.788944,306.41681 318.126146,312.006868 C298.643567,302.506351 275.543131,302.080669 255.509926,311.430415 C242.112015,305.661797 230.604319,296.375055 222.16388,284.744039 C246.106171,264.063377 249.376268,227.859769 229.223826,202.973576 C226.500982,199.611144 223.48715,196.624 220.248502,194.019268 C228.378845,181.761437 239.813139,171.859093 253.290663,165.56213 C274.688259,174.131744 298.913637,174.262988 320.624549,165.393531 Z" opacity=".6"/>
        <ellipse cx="287.5" cy="238" stroke="url(#img-sheme-g)" stroke-width=".891" opacity=".901" rx="80.5" ry="80"/>
        <g transform="translate(84 329)">
          <ellipse cx="6.568" cy="6.57" fill="#5055FE" rx="3.065" ry="3.065" transform="rotate(51 6.568 6.57)"/>
          <ellipse cx="6.568" cy="6.57" fill="#5055FE" opacity=".2" rx="6.568" ry="6.57"/>
        </g>
        <g transform="translate(112 111)">
          <ellipse cx="6.568" cy="6.57" fill="#5055FE" rx="3.065" ry="3.065" transform="rotate(51 6.568 6.57)"/>
          <ellipse cx="6.568" cy="6.57" fill="#5055FE" opacity=".2" rx="6.568" ry="6.57"/>
        </g>
      </g>
    </g>
  </g>
</svg>
