<svg xmlns="http://www.w3.org/2000/svg" xmlns:xlink="http://www.w3.org/1999/xlink" width="424" height="417" viewBox="0 0 424 417">
  <defs>
    <linearGradient id="img-cooperating-a" x1="100%" x2="0%" y1="99.705%" y2=".295%">
      <stop offset="0%" stop-color="#1E85E9" stop-opacity=".3"/>
      <stop offset="20.276%" stop-color="#8671F3" stop-opacity=".397"/>
      <stop offset="70.727%" stop-color="#C06CFD" stop-opacity=".4"/>
      <stop offset="100%" stop-color="#FFBEE8" stop-opacity=".3"/>
    </linearGradient>
    <linearGradient id="img-cooperating-b" x1="100%" x2="0%" y1="98.71%" y2="1.29%">
      <stop offset="0%" stop-color="#1E85E9" stop-opacity=".3"/>
      <stop offset="20.276%" stop-color="#8671F3" stop-opacity=".397"/>
      <stop offset="70.727%" stop-color="#C06CFD" stop-opacity=".4"/>
      <stop offset="100%" stop-color="#FFBEE8" stop-opacity=".3"/>
    </linearGradient>
    <linearGradient id="img-cooperating-c" x1="100%" x2="0%" y1="98.71%" y2="1.29%">
      <stop offset="0%" stop-color="#1E85E9" stop-opacity=".3"/>
      <stop offset="20.276%" stop-color="#8671F3" stop-opacity=".397"/>
      <stop offset="70.727%" stop-color="#C06CFD" stop-opacity=".4"/>
      <stop offset="100%" stop-color="#FFBEE8" stop-opacity=".3"/>
    </linearGradient>
    <linearGradient id="img-cooperating-d" x1="50.003%" x2="49.997%" y1="100%" y2="0%">
      <stop offset="0%" stop-color="#1E85E9" stop-opacity=".3"/>
      <stop offset="20.276%" stop-color="#8671F3" stop-opacity=".397"/>
      <stop offset="70.727%" stop-color="#C06CFD" stop-opacity=".4"/>
      <stop offset="100%" stop-color="#FFBEE8" stop-opacity=".3"/>
    </linearGradient>
    <linearGradient id="img-cooperating-e" x1="100%" x2="0%" y1="93.342%" y2="6.658%">
      <stop offset="0%" stop-color="#1E85E9" stop-opacity=".3"/>
      <stop offset="20.276%" stop-color="#8671F3" stop-opacity=".397"/>
      <stop offset="70.727%" stop-color="#C06CFD" stop-opacity=".4"/>
      <stop offset="100%" stop-color="#FFBEE8" stop-opacity=".3"/>
    </linearGradient>
    <circle id="img-cooperating-g" cx="30" cy="30" r="30"/>
    <filter id="img-cooperating-f" width="135%" height="135%" x="-17.5%" y="-12.5%" filterUnits="objectBoundingBox">
      <feOffset dy="3" in="SourceAlpha" result="shadowOffsetOuter1"/>
      <feGaussianBlur in="shadowOffsetOuter1" result="shadowBlurOuter1" stdDeviation="3"/>
      <feColorMatrix in="shadowBlurOuter1" values="0 0 0 0 0.0415817482   0 0 0 0 0.0415817482   0 0 0 0 0.0415817482  0 0 0 0.0793542395 0"/>
    </filter>
    <ellipse id="img-cooperating-i" cx="30" cy="29.508" rx="30" ry="29.508"/>
    <filter id="img-cooperating-h" width="135%" height="135.6%" x="-17.5%" y="-12.7%" filterUnits="objectBoundingBox">
      <feOffset dy="3" in="SourceAlpha" result="shadowOffsetOuter1"/>
      <feGaussianBlur in="shadowOffsetOuter1" result="shadowBlurOuter1" stdDeviation="3"/>
      <feColorMatrix in="shadowBlurOuter1" values="0 0 0 0 0.0415817482   0 0 0 0 0.0415817482   0 0 0 0 0.0415817482  0 0 0 0.0793542395 0"/>
    </filter>
    <linearGradient id="img-cooperating-j" x1="100%" x2="0%" y1="98.71%" y2="1.29%">
      <stop offset="0%" stop-color="#1E85E9" stop-opacity=".3"/>
      <stop offset="20.276%" stop-color="#8671F3" stop-opacity=".397"/>
      <stop offset="70.727%" stop-color="#C06CFD" stop-opacity=".4"/>
      <stop offset="100%" stop-color="#FFBEE8" stop-opacity=".3"/>
    </linearGradient>
    <circle id="img-cooperating-l" cx="30" cy="30" r="30"/>
    <filter id="img-cooperating-k" width="135%" height="135%" x="-17.5%" y="-12.5%" filterUnits="objectBoundingBox">
      <feOffset dy="3" in="SourceAlpha" result="shadowOffsetOuter1"/>
      <feGaussianBlur in="shadowOffsetOuter1" result="shadowBlurOuter1" stdDeviation="3"/>
      <feColorMatrix in="shadowBlurOuter1" values="0 0 0 0 0.0415817482   0 0 0 0 0.0415817482   0 0 0 0 0.0415817482  0 0 0 0.0793542395 0"/>
    </filter>
    <linearGradient id="img-cooperating-m" x1="100%" x2="0%" y1="50.693%" y2="49.307%">
      <stop offset="0%" stop-color="#1E85E9" stop-opacity=".3"/>
      <stop offset="20.276%" stop-color="#8671F3" stop-opacity=".397"/>
      <stop offset="70.727%" stop-color="#C06CFD" stop-opacity=".4"/>
      <stop offset="100%" stop-color="#FFBEE8" stop-opacity=".3"/>
    </linearGradient>
  </defs>
  <g fill="none" fill-rule="evenodd" transform="translate(1)">
    <path stroke="url(#img-cooperating-a)" stroke-dasharray="2" stroke-width=".891" d="M211.5,399 C305.112265,399 381,323.336123 381,230 C381,136.663877 305.112265,61 211.5,61 C117.887735,61 42,136.663877 42,230 C42,323.336123 117.887735,399 211.5,399 Z" opacity=".9"/>
    <path stroke="url(#img-cooperating-b)" stroke-dasharray="2" stroke-width=".891" d="M211.5,273.025974 C232.210678,273.025974 249,256.454695 249,236.012987 C249,215.571279 232.210678,199 211.5,199 C190.789322,199 174,215.571279 174,236.012987 C174,256.454695 190.789322,273.025974 211.5,273.025974 Z" opacity=".7"/>
    <path stroke="url(#img-cooperating-c)" stroke-dasharray="2" stroke-width=".891" d="M211.5,107 C232.762963,107 250,89.9868205 250,69 C250,48.0131795 232.762963,31 211.5,31 C190.237037,31 173,48.0131795 173,69 C173,89.9868205 190.237037,107 211.5,107 Z" opacity=".7"/>
    <line x1="210.357" x2="213.472" y1=".77" y2="417" stroke="url(#img-cooperating-d)" stroke-dasharray="2" stroke-width=".891" opacity=".9"/>
    <path fill="url(#img-cooperating-e)" fill-rule="nonzero" d="M113.310279,105 L117.877894,134.564842 L147.032426,133.265502 L132.901039,150.213253 C128.369411,155.648027 124.508623,161.609725 121.401448,167.968838 L120.941035,168.925669 L117.746886,175.667263 C114.708577,182.079942 112.454727,188.836003 111.033445,195.788314 L110.826503,196.832614 L109.537485,203.549436 C108.201425,210.511393 107.708308,217.608196 108.067857,224.685956 L108.131716,225.803316 L108.529315,232.064077 C108.978549,239.137888 110.277139,246.130171 112.395998,252.889611 L112.737367,253.954934 L114.531374,259.433882 C116.738784,266.17538 119.749655,272.623719 123.497781,278.639295 L124.065521,279.538368 L126.924079,284.005288 C130.736931,289.963435 135.251136,295.438233 140.368432,300.311955 L141.140537,301.03849 L144.70324,304.350686 C149.867435,309.151766 155.587412,313.312375 161.73965,316.743788 L162.665713,317.25302 L166.551802,319.359592 C172.718471,322.702421 179.260643,325.293049 186.038588,327.077154 L187.110729,327.352145 L190.973772,328.317033 C197.750311,330.009637 204.702598,330.886272 211.683507,330.929319 L212.785973,330.929186 L219.499318,330.886169 C226.522086,330.841169 233.512834,329.952587 240.322201,328.240361 L241.395836,327.963167 L244.098229,327.247209 C250.880115,325.450451 257.421838,322.846638 263.584193,319.492191 L264.554024,318.956312 L266.716269,317.743701 C272.243222,314.644125 277.24508,310.688871 281.537713,306.025677 L282.118659,305.385413 L284.783313,302.405957 C287.953864,298.860838 290.83223,295.064435 293.390408,291.054206 L294.023265,290.047215 L296.756842,285.631779 C300.49543,279.592991 303.491057,273.124088 305.679311,266.36638 L306.001486,265.350575 L306.123203,264.958612 C308.196296,258.282713 309.456575,251.381353 309.877572,244.404821 L309.949938,243.032363 C310.274354,236.219748 309.775813,229.394123 308.466107,222.704032 L308.198923,221.392135 C306.837391,214.87715 304.69596,208.552242 301.822043,202.554599 L301.362186,201.610343 L301.248137,201.379885 C298.375629,195.575455 294.81786,190.139646 290.652228,185.189016 L289.952341,184.368424 L289.784687,184.174493 C285.654355,179.396814 280.96804,175.134215 275.826794,171.477396 L274.751936,170.725745 C269.707223,167.237987 264.266445,164.367067 258.545419,162.173069 L257.282592,161.700942 C251.683577,159.64359 245.861149,158.263014 239.938652,157.587551 L238.61891,157.448363 C232.876245,156.875039 227.087274,156.987544 221.373524,157.782618 L220.303107,157.939693 L220.023917,157.982785 C214.496644,158.83591 209.09136,160.344633 203.921591,162.476362 L202.955047,162.883354 L202.690884,162.996909 C197.720005,165.133736 193.021919,167.856369 188.695543,171.106504 L187.888728,171.722072 L187.660352,171.899021 C183.527912,175.100901 179.792937,178.785819 176.534303,182.874792 L175.753784,183.872801 C172.667866,187.865926 170.071302,192.214708 168.01898,196.825646 L167.530238,197.951436 C165.624334,202.411828 164.258373,207.083882 163.46072,211.867652 L163.308775,212.825866 L163.268083,213.096385 C162.572019,217.723824 162.431949,222.417123 162.850074,227.075822 L162.941142,228.00707 L162.969207,228.272221 C163.444298,232.760802 164.454276,237.175004 165.976781,241.420534 L166.288109,242.267363 L166.380365,242.512256 C167.907612,246.56633 169.911063,250.422363 172.347633,253.999113 L173.026304,254.973501 C175.433571,258.381183 178.236092,261.488702 181.374231,264.231042 L182.251533,264.981709 C185.316202,267.569292 188.675741,269.782154 192.259206,271.574418 L193.030493,271.952021 L193.270114,272.06682 C196.738828,273.728637 200.391001,274.971694 204.149913,275.7706 L204.957,275.934986 L205.223497,275.986914 C208.813949,276.68652 212.473217,276.958783 216.125397,276.798744 L217.244771,276.736961 C220.722494,276.521117 224.161666,275.894176 227.490929,274.869812 L228.257237,274.626371 L228.52472,274.538709 C231.648631,273.514905 234.640525,272.126159 237.438907,270.401749 L238.134435,269.963671 L238.372546,269.81041 C240.986875,268.127692 243.392928,266.141592 245.541067,263.89391 L246.0727,263.326563 L246.263482,263.118906 C248.246537,260.96044 249.96655,258.574319 251.387951,256.010924 L251.73706,255.366411 L251.867213,255.120359 C253.263129,252.481392 254.313617,249.672879 254.992662,246.764371 C255.613984,244.103101 255.918103,241.378199 255.899258,238.646807 L255.886107,237.901764 L255.692795,231.096875 L276.28687,211.779447 L299.629034,229.842206 L299.822345,236.647095 C300.014957,243.427323 299.331791,250.204043 297.789861,256.808495 C296.330208,263.060532 294.114136,269.108936 291.191833,274.819525 L290.568099,276.014191 C287.480096,281.852029 283.693218,287.288776 279.292299,292.204278 L278.401544,293.183718 C273.820646,298.16982 268.652786,302.577811 263.012392,306.311337 L262.117893,306.895222 L261.879783,307.048483 C256.045122,310.803974 249.779184,313.835976 243.219381,316.079068 L242.181201,316.426675 L241.913718,316.514338 C235.142117,318.733605 228.128523,320.121672 221.026413,320.649123 L219.683727,320.738957 C212.400409,321.190993 205.090642,320.757659 197.913721,319.44936 L196.571703,319.194627 C189.223042,317.762728 182.076045,315.442662 175.286976,312.286151 L174.079939,311.714736 C167.171389,308.404938 160.690587,304.266691 154.779347,299.3917 L153.739045,298.521634 C147.740816,293.457167 142.381972,287.679093 137.780445,281.315981 L137.157669,280.44467 L137.007734,280.232425 C132.37818,273.678917 128.565353,266.583982 125.653109,259.105744 L125.169319,257.838731 C122.279811,250.168539 120.33741,242.174098 119.384398,234.033704 L119.232514,232.657612 C118.351713,224.335944 118.489602,215.93893 119.642081,207.653574 L119.846217,206.253945 C121.116419,197.809628 123.410466,189.553945 126.676391,181.669998 L127.127763,180.597235 L127.238086,180.339046 C130.667123,172.31406 135.059944,164.74013 140.318198,157.784793 L141.184083,156.654486 C146.625567,149.613299 152.900671,143.263432 159.870279,137.744188 L160.783286,137.029009 L161.011662,136.85206 C168.182553,131.295939 175.998195,126.633608 184.286741,122.966362 L185.634687,122.380121 C194.128393,118.728941 203.030324,116.122622 212.145974,114.617007 L213.615359,114.383777 C222.924873,112.94687 232.372021,112.643981 241.751154,113.480625 L243.247699,113.623529 C252.811539,114.578343 262.223323,116.69107 271.277651,119.914518 L272.657914,120.415221 C281.843971,123.790627 290.586279,128.270328 298.693783,133.755209 L299.91769,134.593854 C308.12451,140.267794 315.610416,146.921777 322.210847,154.408097 L323.166292,155.504372 C329.805354,163.183975 335.483609,171.646238 340.076007,180.702838 L340.735924,182.022928 C345.315509,191.276819 348.748438,201.056116 350.959329,211.142706 L351.272414,212.611273 C353.419967,222.887396 354.304613,233.386876 353.907757,243.875455 L353.841111,245.404315 C353.332777,256.079145 351.52197,266.649762 348.450256,276.880148 L347.968517,278.451016 C344.77236,288.743474 340.333144,298.603878 334.750743,307.81312 L334.101552,308.872822 L331.367974,313.288258 C327.537382,319.475658 323.203848,325.334484 318.411898,330.805178 L317.508047,331.826371 L314.843392,334.805827 C307.429181,343.095952 298.740443,350.140626 289.108395,355.674095 L288.173328,356.204866 L286.011082,357.417476 C276.702723,362.637707 266.798386,366.705624 256.51554,369.533087 L255.327391,369.853823 L252.624997,370.569781 C242.301231,373.304906 231.685805,374.772235 221.012052,374.94062 L219.78022,374.954283 L213.066875,375 C202.464373,375.065237 191.893955,373.850809 181.584447,371.381419 L180.348574,371.079071 L176.485531,370.114182 C166.142736,367.53082 156.151984,363.700026 146.731569,358.706665 L145.647141,358.125353 L141.761051,356.018781 C132.365066,350.925403 123.622488,344.706986 115.724848,337.501103 L114.817343,336.66528 L111.25464,333.353085 C103.402311,326.052884 96.4672998,317.821892 90.6019658,308.842658 L89.9299523,307.803282 L87.0713943,303.336362 C81.2751702,294.278903 76.6044653,284.547091 73.1619324,274.357388 L72.7701734,273.179633 L70.9761671,267.700685 C67.6233485,257.461077 65.5323821,246.850335 64.7487085,236.104847 L64.6640888,234.864399 L64.2664892,228.603639 C63.5832972,217.845827 64.2150343,207.046185 66.1465138,196.445123 L66.3751441,195.222819 L67.6641614,188.505996 C69.6933176,177.932452 73.0029203,167.648577 77.5183755,157.882512 L78.0447367,156.757969 L81.238885,150.016376 C85.8368213,140.311937 91.5967851,131.207013 98.3904294,122.902412 L99.1788914,121.947752 L113.310279,105 Z"/>
    <g transform="translate(182 206)">
      <use fill="#000" filter="url(#img-cooperating-f)" xlink:href="#img-cooperating-g"/>
      <use fill="#FFF" xlink:href="#img-cooperating-g"/>
      <path fill="#525EFA" fill-rule="nonzero" d="M15.0084078,0 C22.7933612,0 29.1084078,6.10006616 29.1084078,13.63 C29.1084078,17.2970494 27.6106977,20.6249837 25.1748845,23.0744016 L30.095768,31.2974547 L30.1302321,31.367103 C30.2602402,31.6949919 29.9672265,32.0514883 29.6088278,31.9542235 L29.6088278,31.9542235 L24.8890048,30.6727957 L23.6616935,35.3101673 L23.6365248,35.3815939 C23.4959655,35.6952391 23.0455319,35.7315887 22.8565497,35.4157336 L22.8565497,35.4157336 L17.8156807,26.9898082 C16.9084113,27.1670059 15.9696138,27.26 15.0084078,27.26 C14.0929657,27.26 13.197849,27.1756502 12.330936,27.0145443 L7.30509272,35.4157336 C7.11611049,35.7315887 6.66567686,35.6952391 6.52511756,35.3815939 L6.49994889,35.3101673 L5.27263737,30.6727956 L0.55281459,31.9542235 C0.194415912,32.0514883 -0.0985978451,31.6949919 0.0314103221,31.367103 L0.0658743747,31.2974547 L4.93172045,23.1638749 C2.44297567,20.7063338 0.908407814,17.3418971 0.908407814,13.63 C0.908407814,6.10006616 7.22345441,0 15.0084078,0 Z M24.5191607,23.6925508 C22.8901925,25.1319837 20.9106118,26.2066564 18.7189077,26.7830804 L23.0729939,34.0622768 L24.1463618,30.0069338 L24.173429,29.9322291 C24.2617679,29.7433808 24.4740743,29.6405119 24.6829144,29.6971885 L24.6829144,29.6971885 L28.7771741,30.8072252 Z M5.5927394,23.7758121 L1.38446806,30.8072251 L5.47872797,29.6971884 C5.68756804,29.6405119 5.89987445,29.7433808 5.98821337,29.9322291 L6.01528059,30.0069338 L7.08864833,34.0622766 L11.4246165,26.8157894 C9.2251136,26.2586614 7.23501109,25.2008582 5.5927394,23.7758121 Z M15.0084078,0.882025887 C7.71179298,0.882025887 1.80081288,6.59178101 1.80081288,13.63 C1.80081288,20.668219 7.71179298,26.3779741 15.0084078,26.3779741 C22.3050227,26.3779741 28.2160028,20.668219 28.2160028,13.63 C28.2160028,6.59178101 22.3050227,0.882025887 15.0084078,0.882025887 Z M15.0474465,5.30939816 C19.9164594,5.30939816 23.8679442,9.10198705 23.8679442,13.7858295 C23.8679442,18.4696719 19.9164594,22.2622607 15.0474465,22.2622607 C10.1784337,22.2622607 6.22694885,18.4696719 6.22694885,13.7858295 C6.22694885,9.10198705 10.1784337,5.30939816 15.0474465,5.30939816 Z M15.0474465,6.19011303 C10.6681677,6.19011303 7.12243085,9.59326979 7.12243085,13.7858295 C7.12243085,17.9783891 10.6681677,21.3815459 15.0474465,21.3815459 C19.4267254,21.3815459 22.9724622,17.9783891 22.9724622,13.7858295 C22.9724622,9.59326979 19.4267254,6.19011303 15.0474465,6.19011303 Z" transform="translate(16 13)"/>
    </g>
    <g transform="translate(182 40)">
      <use fill="#000" filter="url(#img-cooperating-h)" xlink:href="#img-cooperating-i"/>
      <use fill="#FFF" xlink:href="#img-cooperating-i"/>
      <g fill="#525EFA" fill-rule="nonzero" transform="translate(11 17)">
        <path d="M9,8.75792372 C4.30557963,8.75792372 0.5,12.5635033 0.5,17.2579237 C0.5,21.9523441 4.30557963,25.7579237 9,25.7579237 C13.6944204,25.7579237 17.5,21.9523441 17.5,17.2579237 C17.5,12.5635033 13.6944204,8.75792372 9,8.75792372 Z M9,9.75792372 C13.1421356,9.75792372 16.5,13.1157881 16.5,17.2579237 C16.5,21.4000593 13.1421356,24.7579237 9,24.7579237 C4.85786438,24.7579237 1.5,21.4000593 1.5,17.2579237 C1.5,13.1157881 4.85786438,9.75792372 9,9.75792372 Z"/>
        <path d="M31,8.75792372 C26.3055796,8.75792372 22.5,12.5635033 22.5,17.2579237 C22.5,21.9523441 26.3055796,25.7579237 31,25.7579237 C35.6944204,25.7579237 39.5,21.9523441 39.5,17.2579237 C39.5,12.5635033 35.6944204,8.75792372 31,8.75792372 Z M31,9.75792372 C35.1421356,9.75792372 38.5,13.1157881 38.5,17.2579237 C38.5,21.4000593 35.1421356,24.7579237 31,24.7579237 C26.8578644,24.7579237 23.5,21.4000593 23.5,17.2579237 C23.5,13.1157881 26.8578644,9.75792372 31,9.75792372 Z" transform="matrix(-1 0 0 1 62 0)"/>
        <path d="M32.5384312,0.145852797 C35.6326955,-0.108434586 38.3560638,2.1343671 38.7252216,5.22900038 L38.7475595,5.4514721 L38.7475595,17.2579237 L37.7475595,17.2579237 L37.7492394,5.49242417 C37.534132,2.87491609 35.2378434,0.927385568 32.6203353,1.14249301 C31.6830516,1.21951921 30.7916414,1.57251182 30.0573912,2.1540483 L29.8611212,2.3182799 L29.529,2.611 L23.4418348,14.1048825 L22.5581652,13.6367714 L28.690109,2.06128813 L28.8008777,1.92065022 L29.1989889,1.56889296 C30.1294879,0.746736325 31.3009227,0.24755154 32.5384312,0.145852797 Z" transform="matrix(-1 0 0 1 61.306 0)"/>
        <path d="M11.2908716,0.145852797 C14.385136,-0.108434586 17.1085043,2.1343671 17.4776621,5.22900038 L17.5,5.4514721 L17.5,17.2579237 L16.5,17.2579237 L16.5016799,5.49242417 C16.2865725,2.87491609 13.9902839,0.927385568 11.3727758,1.14249301 C10.435492,1.21951921 9.54408191,1.57251182 8.80983164,2.1540483 L8.6135617,2.3182799 L8.283,2.61 L2.19427529,14.1048825 L1.31060568,13.6367714 L7.44254953,2.06128813 L7.55331817,1.92065022 L7.95142939,1.56889296 C8.88192836,0.746736325 10.0533632,0.24755154 11.2908716,0.145852797 Z"/>
        <polygon points="22.5 6.258 22.5 7.258 17.5 7.258 17.5 6.258"/>
        <polygon points="22.5 15.758 22.5 16.758 17.5 16.758 17.5 15.758"/>
        <polygon points="23.5 20.258 23.5 21.258 16.5 21.258 16.5 20.258"/>
      </g>
    </g>
    <path stroke="url(#img-cooperating-j)" stroke-dasharray="2" stroke-width=".891" d="M212,193.012987 C232.98682,193.012987 250,176.220758 250,155.506494 C250,134.792229 232.98682,118 212,118 C191.01318,118 174,134.792229 174,155.506494 C174,176.220758 191.01318,193.012987 212,193.012987 Z" opacity=".7"/>
    <g transform="translate(182 125)">
      <use fill="#000" filter="url(#img-cooperating-k)" xlink:href="#img-cooperating-l"/>
      <use fill="#FFF" xlink:href="#img-cooperating-l"/>
      <path fill="#525EFA" fill-rule="nonzero" d="M44.7083333,17 C45.9739859,17 47,17.8394661 47,18.875 L47,18.875 L47,42.125 C47,43.1605339 45.9739859,44 44.7083333,44 L44.7083333,44 L16.2916667,44 C15.0260141,44 14,43.1605339 14,42.125 L14,42.125 L14,18.875 C14,17.8394661 15.0260141,17 16.2916667,17 L16.2916667,17 Z M46.083,22.406 L14.9166667,22.4064286 L14.9166667,42.125 C14.9166667,42.7463203 15.5322751,43.25 16.2916667,43.25 L16.2916667,43.25 L44.7083333,43.25 C45.4677249,43.25 46.0833333,42.7463203 46.0833333,42.125 L46.0833333,42.125 L46.083,22.406 Z M20.6524444,24.5895419 L20.7078427,24.6425761 L27.1078427,31.9759094 C27.2466958,32.1350119 27.2621239,32.3819842 27.1541271,32.5606134 L27.1078427,32.6240906 L20.7078427,39.9574239 C20.551633,40.1364142 20.298367,40.1364142 20.1421573,39.9574239 C20.0033042,39.7983215 19.9878761,39.5513491 20.0958729,39.37272 L20.1421573,39.3092427 L26.259468,32.3 L20.1421573,25.2907573 C20.0033042,25.1316548 19.9878761,24.8846824 20.0958729,24.7060533 L20.1421573,24.6425761 C20.2810104,24.4834736 20.4965499,24.4657955 20.6524444,24.5895419 Z M41.0416667,37.7 C41.2947972,37.7 41.5,37.9029109 41.5,38.1532143 C41.5,38.3757061 41.3378644,38.5607522 41.1240527,38.5991267 L41.0416667,38.6064286 L30.0416667,38.6064286 C29.7885362,38.6064286 29.5833333,38.4035176 29.5833333,38.1532143 C29.5833333,37.9307224 29.7454689,37.7456764 29.9592807,37.7073019 L30.0416667,37.7 L41.0416667,37.7 Z M44.7083333,17.75 L22.25,17.75 L22.25,21.5 L46.083,21.5 L46.0833333,18.875 C46.0833333,18.2925122 45.5422712,17.8134195 44.8489191,17.7558082 L44.7083333,17.75 Z M21.333,17.75 L16.2916667,17.75 C15.5322751,17.75 14.9166667,18.2536797 14.9166667,18.875 L14.9166667,18.875 L14.9166667,21.5 L21.3333333,21.5 L21.333,17.75 Z"/>
    </g>
    <g fill="#5055FE" transform="translate(207 391)">
      <ellipse cx="6.568" cy="6.57" rx="3.065" ry="3.065" transform="rotate(51 6.568 6.57)"/>
      <ellipse cx="6.568" cy="6.57" opacity=".2" rx="6.568" ry="6.57"/>
    </g>
    <g fill="#5055FE" transform="translate(35 224)">
      <ellipse cx="6.568" cy="6.57" rx="3.065" ry="3.065" transform="rotate(51 6.568 6.57)"/>
      <ellipse cx="6.568" cy="6.57" opacity=".2" rx="6.568" ry="6.57"/>
    </g>
    <g fill="#5055FE" transform="translate(376 224)">
      <ellipse cx="6.568" cy="6.57" rx="3.065" ry="3.065" transform="rotate(51 6.568 6.57)"/>
      <ellipse cx="6.568" cy="6.57" opacity=".2" rx="6.568" ry="6.57"/>
    </g>
    <path stroke="url(#img-cooperating-m)" stroke-dasharray="2" stroke-width=".891" d="M58.2261955,227.456779 C22.1486237,232.71764 0,239.839511 0,247.680214 C0,263.873085 94.4679178,277 211,277 C327.532082,277 422,263.873085 422,247.680214 C422,239.768585 399.44886,232.588853 362.791341,227.314471" opacity=".9"/>
  </g>
</svg>
