<svg xmlns="http://www.w3.org/2000/svg" width="208" height="169" viewBox="0 0 208 169">
  <defs>
    <linearGradient id="img-principles-4-a" x1="66.954%" x2="32.568%" y1="100.508%" y2="-1.611%">
      <stop offset="0%" stop-color="#1E85E9"/>
      <stop offset="20%" stop-color="#8671F3"/>
      <stop offset="71%" stop-color="#C06CFD" stop-opacity=".99"/>
      <stop offset="100%" stop-color="#FFBEE8"/>
    </linearGradient>
    <linearGradient id="img-principles-4-b" x1="54.38%" x2="40.129%" y1="101.229%" y2="1.262%">
      <stop offset="0%" stop-color="#1E85E9"/>
      <stop offset="20%" stop-color="#8671F3"/>
      <stop offset="71%" stop-color="#C06CFD" stop-opacity=".99"/>
      <stop offset="100%" stop-color="#FFBEE8"/>
    </linearGradient>
  </defs>
  <g fill="none" fill-rule="evenodd">
    <path fill="#FAFAFA" d="M187.57,42.1 C187.57,73.8 207.32,95.57 207.32,110.84 C207.32,126.11 196.76,158.2 112.24,158.2 C27.72,158.2 15.32,115 15.32,98.24 C15.32,19.56 187.57,-14 187.57,42.1 Z" opacity=".65"/>
    <path fill="url(#img-principles-4-a)" fill-rule="nonzero" d="M34,137.66 C34.2322964,137.726477 34.383822,137.949556 34.36,138.19 C34.3499217,138.322032 34.2868362,138.444364 34.1851117,138.529134 C34.0833871,138.613904 33.9516845,138.653896 33.82,138.64 L33.82,138.64 L31.82,138.47 L31.73,138.47 C31.4976981,138.408151 31.3422916,138.189741 31.36,137.95 C31.3864237,137.67192 31.6316294,137.466839 31.91,137.49 L31.91,137.49 L33.91,137.67 L34,137.66 Z M38,138.01 C38.2323019,138.071849 38.3877084,138.290259 38.37,138.53 C38.3435762,138.803906 38.1046228,139.007458 37.83,138.99 L37.83,138.99 L35.83,138.81 L35.7,138.81 C35.4637025,138.747515 35.307213,138.523355 35.33,138.28 C35.3400783,138.147968 35.4031638,138.025636 35.5048883,137.940866 C35.6066129,137.856096 35.7383155,137.816104 35.87,137.83 L35.87,137.83 L37.87,138 L38,138.01 Z M42,138.35 C42.2322964,138.416477 42.383822,138.639556 42.36,138.88 C42.3499217,139.012032 42.2868362,139.134364 42.1851117,139.219134 C42.0833871,139.303904 41.9516845,139.343896 41.82,139.33 L41.82,139.33 L39.82,139.16 L39.73,139.16 C39.4976981,139.098151 39.3422916,138.879741 39.36,138.64 C39.3864237,138.36192 39.6316294,138.156839 39.91,138.18 L39.91,138.18 L41.91,138.36 L42,138.35 Z M43.19,136.4 C43.405685,136.229822 43.718273,136.265546 43.89,136.48 C44.3033333,136.993333 44.7233333,137.503333 45.15,138.01 C45.238463,138.123369 45.2780548,138.267339 45.26,138.41 C45.3547915,138.339617 45.4726004,138.307487 45.59,138.32 C45.7220316,138.330078 45.8443636,138.393164 45.929134,138.494888 C46.0139045,138.596613 46.0538959,138.728315 46.04,138.86 L46.04,138.86 L46.04,139.2 L46.04,139.28 C45.9775155,139.516298 45.7533549,139.672787 45.51,139.65 L45.51,139.65 L43.85,139.51 L43.77,139.51 C43.4938577,139.463056 43.3080559,139.201142 43.3550001,138.925 C43.4019443,138.648858 43.6638576,138.463056 43.94,138.51 L43.94,138.51 L44.33,138.51 C43.93,138.04 43.54,137.56 43.15,137.07 C42.9724579,136.88486 42.9638173,136.5954 43.13,136.4 L43.19,136.4 Z M45.56,138.65 L45.18,138.65 L45.09,138.75 L45.09,138.75 L45.09,138.75 L45.09,138.75 L45.09,139.09 L45.59,139.09 L45.56,138.65 Z M40.77,133.21 C40.9948697,133.052121 41.304392,133.10076 41.47,133.32 L42.66,134.91 C42.7825347,135.049932 42.8172675,135.246316 42.750162,135.419788 C42.6830565,135.59326 42.5252053,135.715145 42.3404001,135.736186 C42.155595,135.757227 41.9743843,135.673947 41.87,135.52 C41.46,134.99 41.06,134.45 40.66,133.91 C40.4879599,133.700467 40.5099251,133.392953 40.71,133.21 L40.77,133.21 Z M45.94,134.33 C46.0728771,134.342617 46.1951938,134.407838 46.279715,134.511142 C46.3642363,134.614446 46.4039451,134.747256 46.39,134.88 L46.39,134.88 L46.22,136.88 L46.22,136.97 C46.1576808,137.200774 45.9379404,137.352902 45.7,137.33 C45.567228,137.319806 45.4440075,137.25707 45.3576559,137.155701 C45.2713043,137.054331 45.2289562,136.922704 45.24,136.79 L45.24,136.79 L45.42,134.79 L45.42,134.7 C45.4816782,134.493147 45.6647347,134.345906 45.88,134.33 L45.94,134.33 Z M38.5,129.92 C38.7294413,129.769376 39.0374087,129.831863 39.19,130.06 C39.56,130.61 39.93,131.16 40.31,131.7 C40.4232441,131.846085 40.4466565,132.042729 40.3708779,132.21132 C40.2950992,132.37991 40.1324927,132.492941 39.9480633,132.505227 C39.7636339,132.517513 39.5874714,132.427049 39.49,132.27 C39.11,131.72 38.73,131.17 38.36,130.61 C38.278805,130.508011 38.2415981,130.377871 38.2566121,130.248375 C38.271626,130.11888 38.337623,130.000706 38.44,129.92 L38.5,129.92 Z M36.37,126.52 C36.4838719,126.450367 36.6208581,126.429155 36.7504574,126.461085 C36.8800567,126.493015 36.9915095,126.575437 37.06,126.69 C37.4,127.26 37.75,127.82 38.06,128.38 C38.1681067,128.530068 38.1845423,128.727555 38.1027292,128.893429 C38.0209161,129.059302 37.8542196,129.166464 37.6693509,129.172029 C37.4844822,129.177594 37.3116419,129.080652 37.22,128.92 C36.86,128.35 36.51,127.78 36.16,127.21 C36.0112942,126.977966 36.0783836,126.669355 36.31,126.52 L36.37,126.52 Z M46.29,130.35 C46.422772,130.360194 46.5459925,130.42293 46.6323441,130.524299 C46.7186957,130.625669 46.7610438,130.757296 46.75,130.89 L46.75,130.89 L46.57,132.89 L46.57,132.98 C46.5081505,133.212302 46.2897414,133.367708 46.05,133.35 C45.7760945,133.323576 45.5725415,133.084623 45.59,132.81 L45.59,132.81 L45.77,130.81 L45.77,130.72 C45.8263929,130.50965 46.0124511,130.359994 46.23,130.35 L46.29,130.35 Z M34.34,123 C34.4551211,122.936454 34.590952,122.921845 34.716953,122.959457 C34.842954,122.99707 34.9485503,123.083747 35.01,123.2 C35.33,123.78 35.65,124.36 36.01,124.94 C36.0975301,125.093624 36.0964537,125.282276 36.0071762,125.434891 C35.9178988,125.587506 35.7539837,125.6809 35.5771762,125.679899 C35.4003687,125.678882 35.2375301,125.583624 35.15,125.43 C34.81,124.85 34.49,124.27 34.15,123.68 C34.0824363,123.565213 34.0645128,123.427867 34.1003563,123.299585 C34.1361997,123.171303 34.2227212,123.06314 34.34,123 Z M32.53,119.44 C32.6493081,119.381405 32.787037,119.372728 32.9127559,119.415885 C33.0384747,119.459042 33.1418352,119.550482 33.2,119.67 C33.49,120.27 33.79,120.86 34.09,121.45 C34.1528083,121.566351 34.1659299,121.703146 34.1263846,121.829315 C34.0868392,121.955483 33.9979835,122.060315 33.88,122.12 C33.6338791,122.245857 33.3322953,122.152721 33.2,121.91 L32.3,120.11 C32.2024821,119.869224 32.3015263,119.593623 32.53,119.47 L32.53,119.44 Z M46.53,126.33 C46.8080799,126.356424 47.013161,126.601629 46.99,126.88 L46.99,126.88 L46.81,128.88 L46.81,129 C46.7435233,129.232296 46.5204439,129.383822 46.28,129.36 C46.1479684,129.349922 46.0256364,129.286836 45.940866,129.185112 C45.8560955,129.083387 45.8161041,128.951685 45.83,128.82 L45.83,128.82 L46,126.82 L46,126.73 C46.0642745,126.472122 46.3190578,126.309588 46.58,126.36 L46.53,126.33 Z M30.83,115.79 C30.9515984,115.73363 31.0909798,115.72953 31.2156814,115.778655 C31.340383,115.82778 31.439519,115.925841 31.49,116.05 C31.75,116.66 32.02,117.26 32.3,117.87 C32.3934638,118.117087 32.2785854,118.394248 32.0377295,118.502765 C31.7968736,118.611283 31.5131585,118.513708 31.39,118.28 C31.11,117.67 30.84,117.06 30.57,116.44 C30.4900605,116.183618 30.6269306,115.909878 30.88,115.82 L30.83,115.79 Z M29.35,112.06 C29.6092455,111.970011 29.8937964,112.096964 30,112.35 C30.23,112.97 30.47,113.59 30.72,114.2 C30.8231315,114.459556 30.6983082,114.753782 30.44,114.86 C30.3166845,114.90919 30.1788686,114.907315 30.0569363,114.854791 C29.935004,114.802266 29.8389676,114.703404 29.79,114.58 C29.54,113.96 29.3,113.33 29.06,112.71 C28.9826801,112.444903 29.1349033,112.16732 29.4,112.09 L29.35,112.06 Z M28.04,108.27 C28.3023191,108.184604 28.5842371,108.327801 28.67,108.59 C28.87,109.22 29.09,109.85 29.31,110.47 C29.401127,110.732335 29.2623352,111.018873 29,111.11 C28.7376647,111.201127 28.451127,111.062335 28.36,110.8 C28.14,110.17 27.93,109.54 27.72,108.9 C27.6870906,108.771227 27.7079045,108.634609 27.7776684,108.521479 C27.8474323,108.408348 27.9601603,108.328411 28.09,108.3 L28.04,108.27 Z M26.89,104.42 C27.0186982,104.380289 27.158068,104.395302 27.2753555,104.461513 C27.392643,104.527724 27.4775059,104.639293 27.51,104.77 C27.69,105.4 27.87,106.04 28.06,106.68 C28.1405532,106.857859 28.1102069,107.066336 27.9822919,107.21385 C27.854377,107.361363 27.6522971,107.420924 27.4648244,107.366366 C27.2773517,107.311809 27.1387867,107.153116 27.11,106.96 C26.91,106.32 26.73,105.68 26.55,105.03 C26.5236235,104.90125 26.5500728,104.767301 26.6234072,104.658239 C26.6967416,104.549178 26.8108132,104.474147 26.94,104.45 L26.89,104.42 Z M25.89,100.57 C26.0200022,100.540214 26.1565166,100.563602 26.2691907,100.634962 C26.3818649,100.706322 26.4613596,100.819741 26.49,100.95 C26.64,101.59 26.79,102.24 26.96,102.88 C27.0237952,103.147093 26.8646557,103.416746 26.6,103.49 C26.4713594,103.523388 26.3347191,103.504187 26.2202622,103.436639 C26.1058053,103.369091 26.0229505,103.258753 25.99,103.13 C25.82,102.48 25.66,101.83 25.51,101.13 C25.5045904,100.994712 25.5531995,100.862825 25.645114,100.763407 C25.7370285,100.66399 25.8647036,100.605202 26,100.6 L25.89,100.57 Z M25.1,96.65 C25.3703942,96.6013414 25.6293958,96.7799631 25.68,97.05 C25.8,97.7 25.93,98.35 26.06,99.05 C26.0957266,99.2286328 26.0334398,99.4127562 25.8966025,99.5330127 C25.7597653,99.6532692 25.5691664,99.691389 25.3966025,99.6330127 C25.2240387,99.5746364 25.0957266,99.4286328 25.06,99.25 C24.93,98.6 24.8,97.94 24.68,97.25 C24.6589104,97.1021925 24.7049783,96.952694 24.8056038,96.842393 C24.9062294,96.7320919 25.0508825,96.6725308 25.2,96.68 L25.1,96.65 Z M24.48,92.65 C24.6128211,92.6300759 24.7480732,92.6644247 24.8552928,92.7453096 C24.9625123,92.8261945 25.0326831,92.9468139 25.05,93.08 C25.14,93.73 25.24,94.39 25.34,95.08 C25.3685812,95.2586328 25.2996919,95.4389442 25.159282,95.5530127 C25.0188721,95.6670812 24.8282732,95.697577 24.659282,95.6330127 C24.4902909,95.5684484 24.3685812,95.4186328 24.34,95.24 C24.24,94.58 24.14,93.92 24.05,93.24 C24.0440761,93.0985885 24.0983622,92.9612914 24.1993915,92.8621683 C24.3004208,92.7630452 24.438727,92.7113838 24.58,92.72 L24.48,92.65 Z M77.74,17.39 L77.74,17.48 L74.88,28.1 C74.8330558,28.3761424 74.5711424,28.5619442 74.295,28.515 C74.0188576,28.4680558 73.8330558,28.2061424 73.88,27.93 L73.88,27.84 L76.41,18.4 L75.83,18.75 C46.1484693,36.4719988 33.3094042,72.8290373 45.28,105.26 C45.328352,105.383196 45.3248141,105.520712 45.2701914,105.641259 C45.2155686,105.761805 45.1145066,105.855131 44.99,105.9 C44.8654131,105.948659 44.7265243,105.945374 44.6043777,105.890878 C44.482231,105.836381 44.3870107,105.735218 44.34,105.61 C32.1192103,72.4543615 45.4689403,35.3104034 76,17.52 L66.49,15 C66.2552208,14.941756 66.0980733,14.7209001 66.12,14.48 L66.12,14.39 C66.1859786,14.1561657 66.4077531,14.001342 66.65,14.02 L66.74,14.02 L77.36,16.86 C77.5978294,16.9220202 77.7575922,17.1448474 77.74,17.39 L77.74,17.39 Z M24.15,88.74 C24.282704,88.7289562 24.4143313,88.7713043 24.5157005,88.8576559 C24.6170698,88.9440075 24.6798057,89.067228 24.69,89.2 C24.75,89.86 24.82,90.52 24.9,91.2 C24.9331371,91.4761424 24.7361424,91.7268629 24.46,91.76 C24.1838576,91.7931371 23.9331371,91.5961424 23.9,91.32 L23.69,89.32 C23.6702421,89.1814101 23.7083213,89.0407916 23.7953111,88.9311088 C23.8823009,88.821426 24.0105522,88.7523233 24.15,88.74 L24.15,88.74 Z M23.89,84.74 C24.0216662,84.7318235 24.1510673,84.7770823 24.2489352,84.8655398 C24.346803,84.9539973 24.4048692,85.07818 24.41,85.21 C24.41,85.87 24.48,86.54 24.53,87.21 C24.5425043,87.3886328 24.4587593,87.5603673 24.3103109,87.6605127 C24.1618625,87.7606581 23.9712636,87.7740001 23.8103109,87.6955127 C23.6493582,87.6170253 23.5425043,87.4586328 23.53,87.28 C23.4766667,86.6133333 23.4366667,85.9466667 23.41,85.28 C23.401828,85.145681 23.4481427,85.0137381 23.538475,84.9139962 C23.6288073,84.8142543 23.7555306,84.7551343 23.89,84.75 L23.89,84.74 Z M23.81,80.7399998 C24.0861424,80.7399998 24.3100002,80.9638576 24.3100002,81.2399998 C24.3100002,81.9 24.3100002,82.57 24.3100002,83.2399998 C24.3102108,83.5140361 24.0938253,83.7392536 23.82,83.75 C23.6866145,83.7554489 23.5567802,83.7062397 23.460515,83.6137496 C23.3642499,83.5212596 23.3098888,83.3934967 23.31,83.26 C23.31,82.5933333 23.31,81.9266667 23.31,81.26 C23.3045541,81.1239616 23.3548184,80.991585 23.4491833,80.8934455 C23.5435482,80.795306 23.6738527,80.739891 23.81,80.7399998 Z M23.9,76.74 C24.032645,76.7451995 24.1577778,76.8029334 24.2478174,76.9004763 C24.3378569,76.9980191 24.3854117,77.1273635 24.38,77.26 L24.32,79.26 C24.3201112,79.3934967 24.2657501,79.5212596 24.169485,79.6137496 C24.0732198,79.7062397 23.9433855,79.7554489 23.81,79.75 C23.6773831,79.7473742 23.5512441,79.6921604 23.4593457,79.596511 C23.3674472,79.5008616 23.3173211,79.3726158 23.32,79.24 L23.38,77.24 C23.3771304,77.1021257 23.4313324,76.969188 23.5297874,76.8726264 C23.6282424,76.7760647 23.7622074,76.724454 23.9,76.73 L23.9,76.74 Z M24.18,72.74 C24.3120316,72.7500783 24.4343636,72.8131638 24.519134,72.9148883 C24.6039045,73.0166129 24.6438959,73.1483155 24.63,73.28 C24.58,73.94 24.53,74.6 24.49,75.28 C24.4686861,75.5523852 24.2326743,75.7572257 23.96,75.74 C23.8263132,75.7349938 23.7004861,75.6755448 23.6117244,75.5754519 C23.5229628,75.475359 23.4789854,75.3433263 23.49,75.21 C23.49,74.54 23.58,73.87 23.64,73.21 C23.6501943,73.077228 23.7129302,72.9540075 23.8142995,72.8676559 C23.9156687,72.7813043 24.047296,72.7389562 24.18,72.75 L24.18,72.74 Z M181.64,57.19 L181.64,57.26 L181.64,57.35 C192.545031,90.0305335 179.038403,125.879862 149.28,143.24 L158.75,145.78 C158.982302,145.841849 159.137708,146.060259 159.12,146.3 L159.12,146.39 C159.058151,146.622302 158.839741,146.777708 158.6,146.76 L158.51,146.76 L148,143.9 C147.766166,143.834021 147.611342,143.612247 147.63,143.37 L147.63,143.29 L150.47,132.66 C150.540527,132.408805 150.789269,132.251347 151.046487,132.295074 C151.303706,132.338801 151.486442,132.56961 151.47,132.83 L151.47,132.92 L148.94,142.36 L149.3,142.15 C178.407307,124.935906 191.543765,89.7345313 180.83,57.66 C180.746163,57.4272674 180.845113,57.1682122 181.062757,57.0506348 C181.2804,56.9330573 181.551307,56.9923047 181.7,57.19 L181.64,57.19 Z M24.64,68.77 C24.7723681,68.7848214 24.8929989,68.8528902 24.9741184,68.9585341 C25.0552378,69.064178 25.0898551,69.1982928 25.07,69.33 C24.99,69.99 24.91,70.64 24.84,71.33 C24.8221367,71.5086328 24.7103309,71.6641664 24.5466987,71.7380127 C24.3830666,71.8118591 24.1924676,71.7927992 24.0466987,71.6880127 C23.9009298,71.5832263 23.8221367,71.4086328 23.84,71.23 C23.91,70.56 23.99,69.89 24.08,69.23 C24.0900888,69.0953241 24.1542291,68.970457 24.2578253,68.8838129 C24.3614216,68.7971688 24.4956622,68.7561173 24.63,68.77 L24.64,68.77 Z M25.27,64.77 C25.5400369,64.8206042 25.7186586,65.0796058 25.67,65.35 C25.56,66.01 25.45,66.66 25.35,67.35 C25.3039617,67.6205655 25.0520595,67.8061776 24.78,67.77 C24.5094345,67.7239617 24.3238224,67.4720595 24.36,67.2 C24.47,66.53 24.57,65.87 24.69,65.2 C24.7452469,64.9375184 24.9943744,64.762692 25.26,64.8 L25.27,64.77 Z M26.07,60.84 C26.2002593,60.8686404 26.3136777,60.9481351 26.385038,61.0608093 C26.4563983,61.1734834 26.4797856,61.3099978 26.45,61.44 C26.31,62.09 26.17,62.74 26.04,63.44 C26.0158528,63.5691868 25.9408221,63.6832584 25.8317607,63.7565928 C25.7226993,63.8299272 25.5887501,63.8563765 25.46,63.83 C25.1885479,63.7746221 25.0109511,63.5126667 25.06,63.24 C25.19,62.58 25.33,61.93 25.48,61.24 C25.5396962,60.9788625 25.7980317,60.8140623 26.06,60.87 L26.07,60.84 Z M27,57 C27.1287533,57.0329505 27.2390906,57.1158053 27.306639,57.2302622 C27.3741873,57.3447191 27.3933881,57.4813594 27.36,57.61 C27.18,58.25 27.02,58.89 26.86,59.54 C26.7912668,59.8032648 26.5246375,59.9632424 26.26,59.9 C26.1301603,59.8715889 26.0174323,59.7916518 25.9476684,59.6785212 C25.8779045,59.5653905 25.8570906,59.4287731 25.89,59.3 C26.05,58.65 26.22,58 26.39,57.3 C26.4796324,57.0522846 26.7490821,56.9197683 27,57 Z M28.15,53.17 C28.2775568,53.2088339 28.3837795,53.297973 28.4441633,53.4168536 C28.504547,53.5357342 28.5138767,53.6740888 28.47,53.8 C28.27,54.43 28.08,55.06 27.89,55.7 C27.8528697,55.8273039 27.7666889,55.9346438 27.6504163,55.9984062 C27.5341438,56.0621686 27.3973039,56.0771303 27.27,56.04 C27.0085375,55.9581983 26.8584129,55.6844417 26.93,55.42 C27.12,54.77 27.32,54.13 27.52,53.49 C27.56482,53.3604845 27.6608384,53.2550442 27.7856054,53.198332 C27.9103724,53.1416197 28.0529492,53.1386076 28.18,53.19 L28.15,53.17 Z M29.5,49.4 C29.6252184,49.4470107 29.7263815,49.542231 29.7808777,49.6643777 C29.8353739,49.7865243 29.8386595,49.9254131 29.79,50.05 C29.56,50.67 29.34,51.29 29.13,51.92 C29.0868825,52.0464469 28.9949553,52.1503797 28.8747213,52.2086181 C28.7544872,52.2668565 28.6159471,52.2745562 28.49,52.23 C28.2317972,52.1400794 28.093703,51.8594364 28.18,51.6 C28.4,50.96 28.62,50.33 28.85,49.7 C28.9523875,49.4430338 29.2380279,49.3111998 29.5,49.4 L29.5,49.4 Z M183.05,136.9 L183.12,136.9 C183.223867,136.98236 183.289933,137.103288 183.303123,137.235188 C183.316313,137.367087 183.275501,137.498703 183.19,137.6 L182.24,138.74 C182.123889,138.875761 181.94417,138.939265 181.768542,138.90659 C181.592914,138.873915 181.448058,138.750025 181.388542,138.58159 C181.329025,138.413154 181.363889,138.225761 181.48,138.09 C181.8,137.72 182.11,137.34 182.42,136.97 L182.42,136.97 L182.48,136.9 C182.665391,136.745583 182.934609,136.745583 183.12,136.9 L183.05,136.9 Z M31,45.68 C31.1240857,45.7308 31.2225689,45.8293089 31.2733366,45.9534078 C31.3241043,46.0775066 31.3229021,46.2167959 31.27,46.34 C31.01,46.95 30.76,47.56 30.52,48.18 C30.4710324,48.3034038 30.374996,48.4022661 30.2530637,48.4547908 C30.1311314,48.5073155 29.9933155,48.5091896 29.87,48.46 C29.6170534,48.353888 29.4933457,48.0667093 29.59,47.81 C29.84,47.19 30.09,46.57 30.35,45.95 C30.4598894,45.7009536 30.7459979,45.5821086 31,45.68 Z M185.53,133.68 L185.61,133.68 C185.825935,133.848601 185.870089,134.157681 185.71,134.38 C185.31,134.92 184.9,135.45 184.48,135.98 C184.301738,136.168851 184.008574,136.189794 183.805278,136.028199 C183.601981,135.866605 183.556239,135.576275 183.7,135.36 C184.11,134.84 184.51,134.36 184.91,133.78 L184.91,133.78 L184.97,133.72 C185.155391,133.565583 185.424609,133.565583 185.61,133.72 L185.53,133.68 Z M32.63,42 C32.7505946,42.0543017 32.8441172,42.1550465 32.8893148,42.2793401 C32.9345125,42.4036336 32.9275466,42.5409197 32.87,42.66 C32.59,43.26 32.31,43.87 32.04,44.47 C31.9875871,44.5923724 31.8876397,44.688152 31.7631471,44.7353083 C31.6386545,44.7824646 31.5003336,44.7769381 31.38,44.72 C31.1291233,44.6063937 31.0173479,44.3113066 31.13,44.06 C31.4,43.45 31.68,42.84 31.97,42.24 C32.0243017,42.1194054 32.1250465,42.0258828 32.2493401,41.9806852 C32.3736336,41.9354875 32.5109197,41.9424534 32.63,42 Z M187.9,130.5 C188.010172,130.573106 188.086125,130.687632 188.110605,130.817567 C188.135085,130.947502 188.106016,131.081815 188.03,131.19 C187.66,131.75 187.27,132.3 186.88,132.84 C186.803463,132.949224 186.686461,133.023343 186.555008,133.045878 C186.423554,133.068413 186.288546,133.037495 186.18,132.96 C185.96076,132.794392 185.912121,132.48487 186.07,132.26 L187.21,130.63 C187.283106,130.519828 187.397632,130.443875 187.527567,130.419395 C187.657502,130.394915 187.791815,130.423984 187.9,130.5 Z M34.45,38.5 C34.6870656,38.6319268 34.7793508,38.9263605 34.66,39.17 C34.35,39.76 34.04,40.35 33.75,40.94 C33.6284974,41.1885281 33.3285281,41.2915026 33.08,41.17 C32.8314719,41.0484974 32.7284974,40.7485281 32.85,40.5 C33.15,39.9 33.46,39.3 33.77,38.71 C33.8224192,38.5825411 33.9251235,38.4823706 34.0538518,38.4331509 C34.1825801,38.3839313 34.3259159,38.3900277 34.45,38.45 L34.45,38.5 Z M190.07,127.17 C190.182895,127.240127 190.263226,127.352316 190.293247,127.481783 C190.323269,127.611251 190.300511,127.747344 190.23,127.86 C189.88,128.43 189.52,129 189.15,129.56 C189.078495,129.671786 188.964708,129.74979 188.834659,129.776177 C188.70461,129.802564 188.569419,129.775076 188.46,129.7 C188.231863,129.547409 188.169376,129.239441 188.32,129.01 C188.68,128.46 189.03,127.9 189.38,127.33 C189.512548,127.081472 189.821472,126.987452 190.07,127.12 L190.07,127.17 Z M36.42,35 C36.6575445,35.1428638 36.737485,35.4493024 36.6,35.69 C36.26,36.26 35.93,36.83 35.6,37.41 C35.4642667,37.649022 35.1635265,37.737475 34.92,37.61 C34.6801083,37.4744142 34.5951345,37.1702974 34.73,36.93 C35.05,36.34 35.39,35.76 35.73,35.18 C35.7947946,35.0616003 35.9055576,34.97517 36.0361567,34.9411007 C36.1667558,34.9070313 36.3056246,34.9283403 36.42,35 L36.42,35 Z M192.08,123.7 C192.319892,123.835586 192.404866,124.139703 192.27,124.38 C191.95,124.97 191.61,125.55 191.27,126.13 C191.205133,126.245581 191.09621,126.329955 190.968083,126.36387 C190.839957,126.397786 190.703555,126.378352 190.59,126.31 C190.352456,126.167136 190.272515,125.860698 190.41,125.62 C190.75,125.05 191.08,124.48 191.41,123.9 C191.527714,123.647819 191.825864,123.536569 192.08,123.65 L192.08,123.7 Z M38.55,31.55 C38.7816164,31.6993549 38.8487058,32.0079663 38.7,32.24 C38.34,32.8 37.98,33.36 37.64,33.92 C37.4778514,34.1160443 37.1960199,34.1626029 36.9794342,34.0291257 C36.7628484,33.8956485 36.6777595,33.6229645 36.78,33.39 L37.86,31.69 C38.0125913,31.4618625 38.3205587,31.3993764 38.55,31.55 Z M193.93,120.1 C194.049518,120.158165 194.140958,120.261525 194.184115,120.387244 C194.227272,120.512963 194.218595,120.650692 194.16,120.77 C193.86,121.37 193.55,121.96 193.24,122.55 C193.112975,122.795767 192.810767,122.892025 192.565,122.765 C192.319233,122.637975 192.222975,122.335767 192.35,122.09 C192.66,121.5 192.97,120.91 193.26,120.32 C193.317882,120.200275 193.421939,120.109217 193.548285,120.067731 C193.67463,120.026244 193.812412,120.037892 193.93,120.1 L193.93,120.1 Z M40.83,28.24 C40.9392238,28.3165371 41.0133429,28.4335392 41.0358777,28.5649924 C41.0584125,28.6964456 41.0274953,28.8314539 40.95,28.94 C40.56,29.48 40.18,30.02 39.81,30.57 C39.6396514,30.7523119 39.360969,30.7811324 39.1569164,30.6375398 C38.9528638,30.4939472 38.8859048,30.2218977 39,30 C39.38,29.44 39.77,28.9 40.16,28.35 L40.16,28.35 L40.16,28.28 C40.3418538,28.100877 40.6281261,28.0837861 40.83,28.24 Z M195.63,116.46 C195.880877,116.573606 195.992652,116.868693 195.88,117.12 C195.613333,117.726667 195.333333,118.336667 195.04,118.95 C194.910315,119.177983 194.626506,119.267005 194.389843,119.153933 C194.15318,119.040861 194.044118,118.764133 194.14,118.52 C194.42,117.92 194.7,117.32 194.97,116.71 C195.083606,116.459123 195.378693,116.347348 195.63,116.46 L195.63,116.46 Z M43.17,25 L43.25,25 C43.3553566,25.0808825 43.4233644,25.2010706 43.438446,25.3330347 C43.4535276,25.4649989 43.4143908,25.5974321 43.33,25.7 C42.92,26.22 42.52,26.7 42.12,27.28 C41.9543146,27.5009139 41.6409139,27.5456854 41.42,27.38 C41.1990861,27.2143146 41.1543146,26.9009139 41.32,26.68 C41.72,26.14 42.13,25.61 42.55,25.08 L42.55,25.08 L42.61,25.02 C42.7953905,24.8655833 43.0646095,24.8655833 43.25,25.02 L43.17,25 Z M197.17,112.74 C197.422947,112.846112 197.546654,113.133291 197.45,113.39 C197.2,114.01 196.95,114.64 196.69,115.25 C196.569291,115.477529 196.295487,115.576133 196.057428,115.477805 C195.81937,115.379476 195.694959,115.116392 195.77,114.87 C196.03,114.26 196.27,113.64 196.52,113.02 C196.629601,112.776176 196.908874,112.658358 197.16,112.75 L197.17,112.74 Z M198.52,108.98 C198.647557,109.018834 198.753779,109.107973 198.814163,109.226854 C198.874547,109.345734 198.883877,109.484089 198.84,109.61 C198.62,110.24 198.39,110.88 198.16,111.5 C198.117173,111.626328 198.024694,111.729737 197.903915,111.786352 C197.783135,111.842967 197.644495,111.847896 197.52,111.8 C197.395493,111.755131 197.294431,111.661805 197.239809,111.541259 C197.185186,111.420712 197.181648,111.283196 197.23,111.16 C197.45,110.54 197.68,109.91 197.89,109.29 C197.987745,109.044857 198.259186,108.917893 198.51,109 L198.52,108.98 Z M199.72,105.15 C199.985097,105.22732 200.13732,105.504903 200.06,105.77 C199.87,106.41 199.67,107.05 199.47,107.69 C199.383985,107.95243 199.104711,108.098717 198.84,108.02 C198.577801,107.934237 198.434604,107.652319 198.52,107.39 C198.72,106.76 198.91,106.12 199.1,105.49 C199.137036,105.365286 199.222148,105.260419 199.336574,105.198516 C199.451001,105.136613 199.585347,105.122756 199.71,105.16 L199.72,105.15 Z M50.55,16.81 L50.62,16.86 C50.7146563,16.9538833 50.7678992,17.0816812 50.7678992,17.215 C50.7678992,17.3483188 50.7146563,17.4761167 50.62,17.57 C50.15,18.04 49.68,18.51 49.23,18.99 C49.1361167,19.0846563 49.0083188,19.1378992 48.875,19.1378992 C48.7416812,19.1378992 48.6138833,19.0846563 48.52,18.99 C48.4259359,18.8978364 48.3729286,18.7716897 48.3729286,18.64 C48.3729286,18.5083103 48.4259359,18.3821636 48.52,18.29 C48.99,17.8 49.46,17.29 49.93,16.85 C50.1278137,16.6582167 50.4421863,16.6582167 50.64,16.85 L50.55,16.81 Z M200.73,101.28 C200.857995,101.310671 200.96827,101.391545 201.035988,101.504407 C201.103705,101.61727 201.123171,101.752629 201.09,101.88 C200.93,102.53 200.77,103.18 200.59,103.88 C200.557283,104.008402 200.473959,104.118079 200.359029,104.184023 C200.2441,104.249966 200.107363,104.266553 199.98,104.23 C199.850025,104.199871 199.738455,104.117005 199.672055,104.00128 C199.605656,103.885555 199.590419,103.747415 199.63,103.62 C199.8,102.98 199.96,102.34 200.12,101.69 C200.144059,101.553441 200.222685,101.432566 200.337768,101.355216 C200.45285,101.277865 200.594467,101.250708 200.73,101.28 L200.73,101.28 Z M52.83,14.09 C52.9600452,13.9574361 53.152847,13.907865 53.330705,13.9612642 C53.508563,14.0146634 53.6421756,14.1622355 53.677696,14.3445079 C53.7132163,14.5267803 53.6447926,14.7137243 53.5,14.83 L52.05,16.18 C51.9246195,16.3194165 51.731776,16.3769661 51.5504951,16.3290656 C51.3692142,16.2811651 51.22997,16.1358668 51.1898234,15.9527125 C51.1496768,15.7695583 51.2153768,15.5793371 51.36,15.46 C51.84,15 52.33,14.54 52.83,14.09 Z M201.57,97.36 C201.718436,97.3747023 201.852556,97.4549087 201.935742,97.5787205 C202.018928,97.7025322 202.042492,97.8570185 202,98 C201.87,98.66 201.74,99.31 201.59,100 C201.56136,100.130259 201.481865,100.243678 201.369191,100.315038 C201.256517,100.386398 201.120002,100.409786 200.99,100.38 C200.725211,100.311115 200.559094,100.048825 200.61,99.78 C200.76,99.13 200.89,98.49 201.02,97.84 C201.027643,97.7027935 201.090333,97.5744775 201.193868,97.4841196 C201.297403,97.3937618 201.433021,97.3490093 201.57,97.36 Z M55.63,11.64 C55.7675473,11.525675 55.9556378,11.4934149 56.1234198,11.5553718 C56.2912018,11.6173288 56.4131851,11.7640899 56.4434198,11.9403719 C56.4736545,12.1166538 56.4075473,12.295675 56.27,12.41 C55.84,12.77 55.41,13.13 54.99,13.5 C54.857417,13.6273471 54.6656453,13.6716679 54.4906292,13.6154108 C54.315613,13.5591536 54.1855838,13.4113932 54.152035,13.2306447 C54.1184863,13.0498963 54.1868295,12.8653159 54.33,12.75 L55.63,11.64 Z M202.24,93.44 C202.510565,93.4860383 202.696178,93.7379405 202.66,94.01 C202.56,94.6766667 202.45,95.3433333 202.33,96.01 C202.27925,96.2809602 202.022368,96.462549 201.75,96.42 C201.479963,96.3693958 201.301341,96.1103942 201.35,95.84 C201.46,95.19 201.57,94.53 201.67,93.84 C201.725247,93.5775184 201.974374,93.402692 202.24,93.44 L202.24,93.44 Z M202.73,89.51 C203.002821,89.541391 203.199262,89.7869429 203.17,90.06 C203.1,90.73 203.02,91.39 202.93,92.06 C202.893714,92.3331572 202.643265,92.5254664 202.37,92.49 C202.099738,92.4487587 201.910068,92.2017466 201.94,91.93 C202.026667,91.2633333 202.106667,90.5966667 202.18,89.93 C202.221187,89.6652492 202.463747,89.4800219 202.73,89.51 L202.73,89.51 Z M203.05,85.51 C203.183687,85.5150062 203.309514,85.5744552 203.398276,85.6745481 C203.487037,85.774641 203.531015,85.9066737 203.52,86.04 L203.37,88.04 C203.355709,88.2186328 203.247205,88.3760723 203.085359,88.4530127 C202.923513,88.5299531 202.732914,88.5147051 202.585359,88.4130127 C202.437804,88.3113203 202.355709,88.1386328 202.37,87.96 C202.43,87.3 202.48,86.63 202.52,85.96 C202.551393,85.6969687 202.786146,85.5065089 203.05,85.53 L203.05,85.51 Z M203.19,81.51 C203.324359,81.5099731 203.453075,81.564022 203.547136,81.6599643 C203.641197,81.7559065 203.692687,81.8856677 203.69,82.02 C203.69,82.69 203.69,83.36 203.62,84.02 C203.62,84.2961424 203.396142,84.52 203.12,84.52 C202.843858,84.52 202.62,84.2961424 202.62,84.02 L202.68,82.02 C202.674287,81.883068 202.726182,81.7500015 202.823092,81.6530918 C202.920002,81.556182 203.053068,81.5042869 203.19,81.51 L203.19,81.51 Z M203.19,77.51 C203.322616,77.5073211 203.450862,77.5574472 203.546511,77.6493457 C203.64216,77.7412441 203.697374,77.8673831 203.699994,78 C203.699994,78.6666667 203.699994,79.3333333 203.699994,80 C203.699994,80.2761424 203.476142,80.5 203.199994,80.5 C202.923858,80.5 202.699994,80.2761424 202.699994,80 C202.699994,79.33 202.699994,78.67 202.699994,78 C202.698732,77.7367591 202.898024,77.5158052 203.16,77.49 L203.19,77.51 Z M202.98,73.51 C203.252674,73.4927743 203.488686,73.6976148 203.51,73.97 C203.563333,74.6366667 203.603333,75.3033333 203.63,75.97 C203.643807,76.2461424 203.431142,76.4811928 203.155,76.4949999 C202.878858,76.5088071 202.643807,76.2961423 202.63,76.02 C202.63,75.36 202.56,74.7 202.51,74.02 C202.501802,73.8839952 202.549463,73.7505354 202.641958,73.6504896 C202.734453,73.5504439 202.863771,73.4924782 203,73.49 L202.98,73.51 Z M202.58,69.51 C202.85512,69.4804681 203.103602,69.6757042 203.14,69.95 L203.35,71.95 C203.374853,72.2261423 203.171142,72.4701471 202.895,72.4949999 C202.618858,72.5198527 202.374853,72.3161423 202.35,72.04 C202.29,71.38 202.22,70.72 202.14,70.04 C202.119914,69.7820612 202.296148,69.5499485 202.55,69.5 L202.58,69.51 Z M202.01,65.51 C202.141361,65.486834 202.276533,65.5171165 202.385455,65.5941129 C202.494376,65.6711093 202.568017,65.7884358 202.59,65.92 C202.69,66.58 202.79,67.25 202.88,67.92 C202.899953,68.0501693 202.866671,68.1828911 202.787657,68.2882429 C202.708643,68.3935946 202.590549,68.4627076 202.46,68.48 C202.328691,68.5000699 202.194794,68.4670647 202.087855,68.388268 C201.980917,68.3094713 201.909728,68.1913603 201.89,68.06 C201.8,67.4 201.7,66.75 201.6,66.06 C201.579848,65.8075208 201.751673,65.5798535 202,65.53 L202.01,65.51 Z M175.69,44 C177.004284,46.2678341 178.195996,48.6045231 179.26,51 C179.313486,51.1219491 179.316117,51.2601959 179.267309,51.3840916 C179.218502,51.5079874 179.122289,51.6072956 179,51.66 C178.745884,51.7655816 178.45383,51.65053 178.34,51.4 C177.294369,49.035576 176.122686,46.7289303 174.83,44.49 C174.717746,44.335647 174.703153,44.1308533 174.792388,43.9621434 C174.881623,43.7934335 175.059117,43.690239 175.249881,43.6961592 C175.440645,43.7020794 175.611399,43.8160814 175.69,43.99 L175.69,44 Z M201.24,61.6 C201.509506,61.5503763 201.770051,61.7226015 201.83,61.99 C201.96,62.65 202.09,63.3 202.21,63.99 C202.242154,64.1686328 202.176566,64.3508502 202.037942,64.4680127 C201.899319,64.5851752 201.70872,64.619483 201.537942,64.5580127 C201.367165,64.4965424 201.242154,64.3486328 201.21,64.17 C201.09,63.52 200.96,62.87 200.83,62.22 C200.791101,62.081416 200.813813,61.9327902 200.892326,61.8121485 C200.970839,61.6915068 201.097535,61.6105533 201.24,61.59 L201.24,61.6 Z M200.31,57.7 C200.438641,57.6666119 200.575281,57.6858127 200.689738,57.753361 C200.804195,57.8209094 200.887049,57.9312467 200.92,58.06 C201.09,58.71 201.24,59.36 201.39,60.06 C201.422909,60.1887731 201.402095,60.3253905 201.332332,60.4385212 C201.262568,60.5516518 201.14984,60.6315889 201.02,60.66 C200.75229,60.7226018 200.48426,60.5573172 200.42,60.29 C200.27,59.64 200.11,59 199.95,58.36 C199.896928,58.2236429 199.906249,58.070881 199.975505,57.9419876 C200.044761,57.8130942 200.167002,57.7210058 200.31,57.69 L200.31,57.7 Z M199.23,53.9 C199.492141,53.8218942 199.768389,53.9689293 199.85,54.23 C200.05,54.87 200.23,55.51 200.41,56.16 C200.44713,56.2873039 200.432169,56.4241438 200.368406,56.5404163 C200.304644,56.6566889 200.197304,56.7428697 200.07,56.78 C199.802617,56.8507556 199.527569,56.6954861 199.45,56.43 C199.27,55.79 199.09,55.15 198.9,54.52 C198.859407,54.3927019 198.871454,54.2544525 198.933451,54.1360935 C198.995449,54.0177344 199.10224,53.9291132 199.23,53.89 L199.23,53.9 Z M198,50.07 C198.259436,49.983703 198.540079,50.1217972 198.63,50.38 C198.86,51.01 199.07,51.64 199.28,52.28 C199.365604,52.5561424 199.211142,52.8493959 198.935,52.935 C198.658858,53.0206041 198.365604,52.8661424 198.28,52.59 C198.07,51.96 197.86,51.33 197.64,50.71 C197.600229,50.577342 197.616118,50.434214 197.684015,50.3135082 C197.751912,50.1928024 197.865978,50.1048993 198,50.07 L198,50.07 Z M196.55,46.32 C196.673315,46.2708104 196.811131,46.2726845 196.933064,46.3252092 C197.054996,46.3777339 197.151032,46.4765962 197.2,46.6 C197.46,47.22 197.7,47.85 197.94,48.47 C198.004308,48.6379148 197.974149,48.8273823 197.860885,48.9670319 C197.74762,49.1066815 197.568457,49.1752972 197.390885,49.1470319 C197.213312,49.1187667 197.064308,48.9979148 197,48.83 C196.766667,48.21 196.526667,47.59 196.28,46.97 C196.171131,46.7266641 196.272315,46.4407092 196.51,46.32 L196.55,46.32 Z M194.95,42.66 C195.06908,42.6024534 195.206366,42.5954875 195.33066,42.6406852 C195.454954,42.6858828 195.555698,42.7794054 195.61,42.9 C195.89,43.51 196.16,44.12 196.43,44.74 C196.525179,44.9911796 196.404893,45.2726805 196.157588,45.3775163 C195.910284,45.4823521 195.624335,45.3730591 195.51,45.13 C195.25,44.53 194.98,43.92 194.7,43.32 C194.581625,43.0792865 194.674291,42.7880504 194.91,42.66 L194.95,42.66 Z M181.47,32.59 C181.602032,32.6000783 181.724364,32.6631638 181.809134,32.7648883 C181.893904,32.8666129 181.933896,32.9983155 181.92,33.13 L181.92,33.13 L181.75,35.13 L181.75,35.22 C181.687515,35.4562975 181.463355,35.612787 181.22,35.59 C180.945937,35.5585429 180.746564,35.314865 180.77,35.04 L180.77,35.04 L180.95,33.04 L180.95,33 C180.995028,32.7516893 181.218036,32.5758559 181.47,32.59 Z M193.13,39.06 C193.376121,38.9341429 193.677705,39.0272791 193.81,39.27 L194.71,41.07 C194.826243,41.3188314 194.724564,41.6150279 194.48,41.74 C194.360692,41.7985947 194.222963,41.8072721 194.097244,41.7641149 C193.971525,41.7209577 193.868165,41.6295183 193.81,41.51 C193.52,40.91 193.22,40.32 192.92,39.73 C192.857192,39.6136493 192.84407,39.476854 192.883615,39.3506854 C192.923161,39.2245168 193.012016,39.1196846 193.13,39.06 L193.13,39.06 Z M191.21,35.57 C191.450698,35.432515 191.757136,35.5124555 191.9,35.75 C192.23,36.34 192.56,36.92 192.9,37.51 C192.963218,37.6278494 192.976591,37.7661125 192.937129,37.8938928 C192.897667,38.021673 192.808661,38.1283193 192.69,38.19 C192.574377,38.2608952 192.434542,38.2806964 192.303781,38.2446899 C192.173021,38.2086834 192.063033,38.1200902 192,38 C191.68,37.41 191.36,36.84 191,36.26 C190.93052,36.1418661 190.913691,36.0000334 190.953595,35.8689201 C190.993499,35.7378069 191.086489,35.6293977 191.21,35.57 L191.21,35.57 Z M181.82,28.57 C181.952877,28.582617 182.075194,28.6478385 182.159715,28.7511422 C182.244236,28.854446 182.283945,28.9872557 182.27,29.12 L182.27,29.12 L182.1,31.12 L182.1,31.21 C182.050294,31.4861424 181.786142,31.6697056 181.51,31.62 C181.233858,31.5702944 181.050294,31.3061424 181.1,31.03 L181.1,31.03 L181.28,29.03 L181.28,29 C181.334291,28.7501605 181.565183,28.5791297 181.82,28.6 L181.82,28.57 Z M189.12,32.11 C189.352034,31.9612942 189.660645,32.0283836 189.81,32.26 C190.17,32.83 190.52,33.4 190.87,33.97 C191.009272,34.2081245 190.933953,34.5138296 190.7,34.66 C190.586128,34.7296327 190.449142,34.7508455 190.319543,34.7189152 C190.189943,34.686985 190.07849,34.6045625 190.01,34.49 C189.67,33.92 189.32,33.36 189.01,32.8 C188.872373,32.5842654 188.919845,32.2994376 189.12,32.14 L189.12,32.11 Z M186.88,28.79 C187.107423,28.6342674 187.417432,28.6874117 187.58,28.91 C187.97,29.46 188.34,30.02 188.71,30.58 C188.786016,30.6881845 188.815085,30.822498 188.790605,30.9524328 C188.766125,31.0823677 188.690172,31.1968945 188.58,31.27 C188.347453,31.4216316 188.036339,31.3594087 187.88,31.13 L186.76,29.48 C186.624591,29.2618247 186.676459,28.976548 186.88,28.82 L186.88,28.79 Z M182.17,24.59 C182.302032,24.6000783 182.424364,24.6631638 182.509134,24.7648883 C182.593904,24.8666129 182.633896,24.9983155 182.62,25.13 L182.62,25.13 L182.45,27.13 L182.45,27.22 C182.388151,27.4523019 182.169741,27.6077084 181.93,27.59 C181.65192,27.5635763 181.446839,27.3183706 181.47,27.04 L181.47,27.04 L181.65,25.04 L181.65,25 C181.714593,24.7683173 181.929644,24.6111644 182.17,24.62 L182.17,24.59 Z M184.5,25.59 C184.7183,25.4221 185.031272,25.4623391 185.2,25.68 L186.41,27.29 C186.567879,27.5148697 186.51924,27.824392 186.3,27.99 C186.192683,28.0685149 186.058511,28.1010478 185.927151,28.0804055 C185.79579,28.0597632 185.678063,27.9876461 185.6,27.88 L184.41,26.29 C184.248786,26.0734241 184.288627,25.7679775 184.5,25.6 L184.5,25.59 Z M184.12,22.44 C184.356298,22.5024845 184.512787,22.7266451 184.49,22.97 L184.49,22.97 L184.49,23.06 C184.424217,23.2883079 184.206852,23.4387919 183.97,23.42 L183.97,23.42 L183.39,23.37 L183.98,24.1 C184.153632,24.3163218 184.122533,24.6317509 183.91,24.81 C183.689581,24.9758889 183.377978,24.9407788 183.2,24.73 C182.79,24.21 182.37,23.73 181.94,23.19 L182,23.26 L182.29,23.61 L182.29,23.61 C182.157228,23.5998057 182.034007,23.5370698 181.947656,23.4357005 C181.861304,23.3343313 181.818956,23.202704 181.83,23.07 L181.83,23.07 L181.83,23 C181.799923,22.9022616 181.799923,22.7977384 181.83,22.7 L181.83,22.7 L181.83,22.77 C181.856424,22.4919201 182.101629,22.286839 182.38,22.31 L182.38,22.31 L184.03,22.46 L184.12,22.44 Z M188.12,22.79 C188.350774,22.8523192 188.502902,23.0720596 188.48,23.31 C188.469806,23.442772 188.40707,23.5659925 188.305701,23.6523441 C188.204331,23.7386957 188.072704,23.7810438 187.94,23.77 L187.94,23.77 L185.94,23.59 L185.85,23.59 C185.671367,23.5578461 185.523458,23.4328352 185.461987,23.2620577 C185.400517,23.0912802 185.434825,22.9006813 185.551987,22.7620577 C185.66915,22.6234341 185.851367,22.5578461 186.03,22.59 L186.03,22.59 L188.03,22.76 L188.12,22.79 Z M192.12,23.13 C192.396142,23.1769442 192.581944,23.4388576 192.535,23.715 C192.488056,23.9911424 192.226142,24.1769442 191.95,24.13 L191.95,24.13 L189.95,23.96 L189.87,23.96 C189.593858,23.9130558 189.408056,23.6511424 189.455,23.375 C189.501944,23.0988576 189.763858,22.9130558 190.04,22.96 L190.04,22.96 L192.04,23.14 L192.12,23.13 Z M196.12,23.48 C196.350774,23.5423192 196.502902,23.7620596 196.48,24 C196.469806,24.132772 196.40707,24.2559925 196.305701,24.3423441 C196.204331,24.4286957 196.072704,24.4710438 195.94,24.46 L195.94,24.46 L193.94,24.29 L193.85,24.29 C193.613702,24.2275155 193.457213,24.0033549 193.48,23.76 C193.511457,23.4859372 193.755135,23.2865643 194.03,23.31 L194.03,23.31 L196.03,23.48 L196.12,23.48 Z"/>
    <circle cx="157.76" cy="6" r="6" fill="#5055FE" fill-rule="nonzero" opacity=".15"/>
    <circle cx="157.76" cy="6" r="2" fill="#5055FE" fill-rule="nonzero"/>
    <circle cx="87.62" cy="162.03" r="6" fill="#5055FE" fill-rule="nonzero" opacity=".15"/>
    <circle cx="87.62" cy="162.03" r="2" fill="#5055FE" fill-rule="nonzero"/>
    <circle cx="6" cy="51.1" r="6" fill="#5055FE" fill-rule="nonzero" opacity=".15"/>
    <circle cx="6" cy="51.1" r="2" fill="#5055FE" fill-rule="nonzero"/>
    <path fill="url(#img-principles-4-b)" fill-rule="nonzero" d="M103.45,114.28 C103.824308,114.281649 104.140095,114.55903 104.19,114.93 L104.19,134.84 C104.217614,135.254214 103.904214,135.612386 103.49,135.64 C103.075786,135.667614 102.717614,135.354214 102.69,134.94 L102.69,115 C102.695233,114.803716 102.778262,114.617559 102.920806,114.482518 C103.06335,114.347476 103.25372,114.274623 103.45,114.28 L103.45,114.28 Z M116.9,114.28 C117.276489,114.28099 117.595509,114.557473 117.65,114.93 L117.65,134.84 C117.639489,135.226746 117.33652,135.542034 116.950499,135.567941 C116.564479,135.593849 116.222096,135.321873 116.16,134.94 L116.16,115 C116.175926,114.60139 116.501103,114.285001 116.9,114.28 Z M96.29,114.28 C96.6664894,114.28099 96.9855092,114.557473 97.04,114.93 L97.04,126.41 C97.0294893,126.796746 96.7265201,127.112034 96.3404994,127.137941 C95.9544787,127.163849 95.6120959,126.891873 95.55,126.51 L95.55,115 C95.5659258,114.60139 95.8911033,114.285001 96.29,114.28 L96.29,114.28 Z M125.85,114.28 C126.224308,114.281649 126.540095,114.55903 126.59,114.93 L126.59,126.41 C126.607863,126.677949 126.48142,126.935074 126.258301,127.084519 C126.035182,127.233964 125.749284,127.253024 125.508301,127.134519 C125.267319,127.016015 125.107863,126.777949 125.09,126.51 L125.09,115 C125.095233,114.803716 125.178262,114.617559 125.320806,114.482518 C125.46335,114.347476 125.65372,114.274623 125.85,114.28 L125.85,114.28 Z M114.38,27.47 C115.159289,27.9477406 115.822079,28.5934485 116.32,29.36 L116.48,29.62 L122.41,39.83 C125.535327,45.2169035 127.232337,51.3130579 127.34,57.54 L127.34,79.38 L141.34,92.22 C142.538839,93.3107607 143.257767,94.8312933 143.34,96.45 L143.34,106.81 C143.337647,109.119699 141.526731,111.02292 139.22,111.140002 L80.9,111.140002 C78.5826924,111.142012 76.6765536,109.315296 76.5798764,107 L76.5798764,96.91 C76.5689746,95.1749761 77.2961206,93.5170832 78.58,92.35 L78.78,92.18 L94.48,79.36 L94.48,58.59 C94.4662514,52.087682 96.1926193,45.7001209 99.48,40.09 L99.79,39.56 L106,29.5 C107.761565,26.6364266 111.503256,25.7300263 114.38,27.47 Z M107.38,30.09 L107.25,30.28 L101.109995,40.34 C97.8634328,45.6661486 96.0992361,51.763157 96,58 L96,103.2 C95.994031,103.588316 95.6926154,103.907844 95.3053074,103.936437 C94.9179994,103.96503 94.5729288,103.69323 94.51,103.31 L94.51,81.31 L79.79,93.31 C78.7879026,94.1353746 78.1783698,95.3435556 78.1099953,96.64 L78.1099953,106.78 C78.1072933,108.278914 79.2737903,109.519962 80.77,109.61 L139.09,109.61 C140.581432,109.60775 141.81514,108.448414 141.91,106.96 L141.91,96.73 C141.909081,95.5173019 141.431383,94.3535879 140.58,93.49 L140.41,93.32 L127.41,81.41 L127.41,103.2 C127.42965,103.467949 127.304857,103.726027 127.082631,103.877019 C126.860405,104.028011 126.574507,104.048977 126.332631,103.932019 C126.090756,103.815062 125.92965,103.577949 125.91,103.31 L125.91,58.16 C125.899985,52.2092055 124.375459,46.3588818 121.48,41.16 L121.17,40.63 L115.24,30.41 C114.444944,29.0388788 113.001279,28.1723252 111.417342,28.115466 C109.833406,28.0586067 108.331323,28.8194155 107.44,30.13 L107.38,30.09 Z M104.46,47.26 C108.028078,45.3398729 112.321922,45.3398729 115.89,47.26 L115.89,47.26 L116.54,47.6 C119.689879,49.2894144 121.653945,52.5756689 121.650006,56.15 L121.650006,56.15 L121.650006,61.52 C121.649155,61.7864953 121.506958,62.0325269 121.276466,62.1662947 C121.045974,62.3000625 120.761809,62.301473 120.53,62.17 C114.25544,58.5265389 106.524583,58.4619251 100.19,62 L100.19,62 L99.82,62.21 C99.5881913,62.341473 99.3040265,62.3400625 99.0735343,62.2062947 C98.8430422,62.0725269 98.700845,61.8264953 98.6999941,61.56 L98.6999941,61.56 L98.6999941,56.15 C98.6960555,52.5756689 100.660121,49.2894144 103.81,47.6 L103.81,47.6 L104.46,47.26 Z M115.19,48.58 C112.065668,46.9106621 108.314332,46.9106621 105.19,48.58 L105.19,48.58 L104.55,48.93 C101.887788,50.3548666 100.227044,53.1304625 100.229996,56.15 L100.229996,56.15 L100.229996,60.26 L100.65,60.05 C106.841152,57.0755828 114.064204,57.1532103 120.190011,60.26 L120.190011,60.26 L120.190011,56.15 C120.194743,53.2352011 118.648093,50.5380875 116.13,49.07 L116.13,49.07 L115.87,48.93 L115.19,48.58 Z"/>
  </g>
</svg>
