<svg xmlns="http://www.w3.org/2000/svg" xmlns:xlink="http://www.w3.org/1999/xlink" width="488" height="348" viewBox="0 0 488 348">
  <defs>
    <linearGradient id="img-sheme-a" x1="72.779%" x2="2.428%" y1="29.183%" y2="56.865%">
      <stop offset="0%" stop-color="#E3E0E0"/>
      <stop offset="100%" stop-color="#FFF"/>
      <stop offset="100%" stop-color="#E3E0E0" stop-opacity="0"/>
    </linearGradient>
    <linearGradient id="img-sheme-b" x1="32.236%" x2="88.897%" y1="14.033%" y2="73.585%">
      <stop offset="0%" stop-color="#E3E0E0"/>
      <stop offset="100%" stop-color="#FFF" stop-opacity="0"/>
    </linearGradient>
    <linearGradient id="img-sheme-c" x1="155.966%" x2="1.536%" y1="68.004%" y2="46.308%">
      <stop offset="0%" stop-color="#1E85E9"/>
      <stop offset="20.276%" stop-color="#8671F3"/>
      <stop offset="70.727%" stop-color="#C06CFD" stop-opacity=".99"/>
      <stop offset="100%" stop-color="#FFBEE8"/>
      <stop offset="100%" stop-color="#FFBEE8"/>
    </linearGradient>
    <linearGradient id="img-sheme-f" x1="82.139%" x2="17.861%" y1="100%" y2="0%">
      <stop offset="0%" stop-color="#1E85E9" stop-opacity=".3"/>
      <stop offset="20.276%" stop-color="#8671F3" stop-opacity=".397"/>
      <stop offset="70.727%" stop-color="#C06CFD" stop-opacity=".4"/>
      <stop offset="100%" stop-color="#FFBEE8" stop-opacity=".3"/>
    </linearGradient>
    <path id="img-sheme-e" d="M89.326578,35.0451332 L88.4432432,35.0379747 L88.4432432,0 C136.800639,0 176.093614,38.8215306 176.874638,87.0078582 L176.886486,88.4708861 C176.886486,117.685966 200.325828,141.424784 229.419368,141.896639 L230.302703,141.903797 L230.302703,176.941772 C181.945307,176.941772 142.652332,138.120242 141.871308,89.9339139 L141.859459,88.4708861 C141.859459,59.2558058 118.420118,35.516988 89.326578,35.0451332 Z"/>
    <filter id="img-sheme-d" width="131.7%" height="125.4%" x="-18%" y="-12.7%" filterUnits="objectBoundingBox">
      <feOffset dx="-3" in="SourceAlpha" result="shadowOffsetOuter1"/>
      <feGaussianBlur in="shadowOffsetOuter1" result="shadowBlurOuter1" stdDeviation="7"/>
      <feComposite in="shadowBlurOuter1" in2="SourceAlpha" operator="out" result="shadowBlurOuter1"/>
      <feColorMatrix in="shadowBlurOuter1" values="0 0 0 0 0.143016232   0 0 0 0 0.059618838   0 0 0 0 0.155995245  0 0 0 0.310478584 0"/>
    </filter>
    <linearGradient id="img-sheme-g" x1="328.692%" x2="-192.219%" y1="80.13%" y2="44.443%">
      <stop offset="0%" stop-color="#1E85E9"/>
      <stop offset="20.276%" stop-color="#8671F3"/>
      <stop offset="70.727%" stop-color="#C06CFD" stop-opacity=".99"/>
      <stop offset="100%" stop-color="#FFBEE8"/>
      <stop offset="100%" stop-color="#FFBEE8"/>
    </linearGradient>
    <linearGradient id="img-sheme-h" x1="-329.088%" x2="100%" y1="12.285%" y2="25.526%">
      <stop offset="0%" stop-color="#1E85E9"/>
      <stop offset="26.069%" stop-color="#8671F3"/>
      <stop offset="72.869%" stop-color="#C06CFD" stop-opacity=".99"/>
      <stop offset="100%" stop-color="#FFBEE8"/>
      <stop offset="100%" stop-color="#FFBEE8"/>
    </linearGradient>
  </defs>
  <g fill="none" fill-rule="evenodd" transform="translate(1 1)">
    <g transform="translate(177.762 60.44)">
      <path stroke="url(#img-sheme-a)" stroke-width=".891" d="M272.275716,230.631618 C277.980868,216.189009 281.112162,200.448999 281.112162,183.97604 C281.102311,113.835041 224.241601,56.9665416 154.110209,56.9566919 C83.9788181,56.9468422 27.134077,113.799372 27.1439267,183.940371 C27.1439267,200.696579 30.3931092,216.695326 36.2902591,231.342374" opacity=".1" transform="scale(1 -1) rotate(32 656.837 0)"/>
      <g fill="#5055FE" transform="translate(199.654)">
        <ellipse cx="6.568" cy="6.57" rx="3.065" ry="3.065" transform="rotate(51 6.568 6.57)"/>
        <ellipse cx="6.568" cy="6.57" opacity=".2" rx="6.568" ry="6.57"/>
      </g>
      <g fill="#5055FE" transform="translate(199.654 207.6)">
        <ellipse cx="6.568" cy="6.57" rx="3.065" ry="3.065" transform="rotate(51 6.568 6.57)"/>
        <ellipse cx="6.568" cy="6.57" opacity=".2" rx="6.568" ry="6.57"/>
      </g>
    </g>
    <path stroke="url(#img-sheme-b)" stroke-width=".891" d="M270.498447,220.956513 C276.207248,206.511999 279.346943,190.770727 279.346943,174.297312 C279.355579,104.15437 222.511429,47.2992805 152.38198,47.3079162 C82.2525317,47.3165518 25.3943803,104.185642 25.3857437,174.328584 C25.3857437,191.085256 28.6262049,207.083591 34.5193316,221.729491" opacity=".1" transform="rotate(-26 152.366 134.519)"/>
    <g fill="#5055FE" transform="translate(80.562 260.157)">
      <ellipse cx="6.568" cy="6.57" rx="3.065" ry="3.065" transform="rotate(51 6.568 6.57)"/>
      <ellipse cx="6.568" cy="6.57" opacity=".2" rx="6.568" ry="6.57"/>
    </g>
    <g fill="#5055FE" transform="translate(80.562 66.572)">
      <ellipse cx="6.568" cy="6.57" rx="3.065" ry="3.065" transform="rotate(51 6.568 6.57)"/>
      <ellipse cx="6.568" cy="6.57" opacity=".2" rx="6.568" ry="6.57"/>
    </g>
    <g fill-rule="nonzero" opacity=".7" transform="translate(80.562 82.34)">
      <path fill="url(#img-sheme-c)" d="M230.302703,0 C279.148557,0 318.745946,39.6097649 318.745946,88.4708861 C318.745946,137.332007 279.148557,176.941772 230.302703,176.941772 C201.264901,176.941772 175.495548,162.943504 159.370689,141.325004 C143.250398,162.943504 117.481045,176.941772 88.4432432,176.941772 C39.5973888,176.941772 0,137.332007 0,88.4708861 C0,39.6097649 39.5973888,0 88.4432432,0 C117.457427,0 143.240758,13.9869211 159.375191,35.6149916 C175.497635,13.9971347 201.266077,0 230.302703,0 Z M88.4432432,35.0379747 C58.9422816,35.0379747 35.027027,58.960704 35.027027,88.4708861 C35.027027,117.981068 58.9422816,141.903797 88.4432432,141.903797 C117.649195,141.903797 141.380596,118.45713 141.852303,89.354497 L141.858584,88.5392101 L141.850703,87.5441316 L141.831124,86.7094011 C140.922781,58.5599673 118.256564,35.9581858 90.1694941,35.0653743 L89.3167284,35.044981 L88.4432432,35.0379747 Z M230.302703,35.0379747 C200.801741,35.0379747 176.886486,58.960704 176.886486,88.4708861 C176.886486,117.981068 200.801741,141.903797 230.302703,141.903797 C259.803664,141.903797 283.718919,117.981068 283.718919,88.4708861 C283.718919,58.960704 259.803664,35.0379747 230.302703,35.0379747 Z"/>
      <use fill="#000" filter="url(#img-sheme-d)" xlink:href="#img-sheme-e"/>
      <use fill="url(#img-sheme-f)" fill-opacity="0" xlink:href="#img-sheme-e"/>
      <path fill="url(#img-sheme-g)" d="M318.745946,88.4708861 C318.745946,137.332007 279.148557,176.941772 230.302703,176.941772 C209.08132,176.941772 188.97766,169.417044 173.127297,155.971178 L172.611949,155.53063 L195.469029,128.980922 C205.099514,137.277149 217.320133,141.903797 230.302703,141.903797 C259.508655,141.903797 283.240055,118.45713 283.711763,89.354497 L283.718919,88.4708861 L318.745946,88.4708861 Z"/>
      <path fill="url(#img-sheme-h)" d="M146.237838,0 C146.237838,48.8611212 106.640449,88.4708861 57.7945946,88.4708861 C36.5732118,88.4708861 16.4695517,80.9461581 0.619189338,67.5002922 L0.103841271,67.0597434 L22.9609206,40.510036 C32.5914061,48.8062628 44.8120248,53.4329114 57.7945946,53.4329114 C87.0005466,53.4329114 110.731947,29.9862444 111.203655,0.883610892 L111.210811,0 L146.237838,0 Z" transform="rotate(180 73.17 44.235)"/>
    </g>
    <path fill="#000" fill-rule="nonzero" d="M90.6685803,135.861497 L108.888607,127.012658 L127.370722,135.859598 C127.775524,136.053367 127.958883,136.566442 127.780266,137.005583 C127.614407,137.413356 127.194756,137.613994 126.811545,137.485434 L126.72389,137.449867 L108.893438,128.913659 L91.3232895,137.447968 C90.9482992,137.630088 90.5128661,137.473967 90.3078216,137.099974 L90.2647258,137.009856 C90.0968466,136.603056 90.2407593,136.130686 90.5855082,135.908249 L90.6685803,135.861497 Z" transform="scale(-1 1) rotate(-35 0 478.04)"/>
    <path fill="#000" fill-rule="nonzero" d="M153.964535,244.636876 L171.868078,234.534878 L190.029157,244.634708 C190.426928,244.855919 190.607102,245.441654 190.431587,245.942986 C190.268609,246.408507 189.856248,246.63756 189.479693,246.490793 L189.393561,246.450189 L171.872825,236.705096 L154.607871,246.448021 C154.239395,246.655932 153.811525,246.477702 153.610042,246.050745 L153.567695,245.947864 C153.402732,245.483454 153.544145,244.944188 153.882905,244.690249 L153.964535,244.636876 Z" transform="rotate(-86 171.999 240.535)"/>
    <path fill="#000" fill-rule="nonzero" d="M221.133233,156.884282 L238.929538,148.035443 L256.981836,156.882383 C257.377225,157.076152 257.55632,157.589227 257.381856,158.028367 C257.219854,158.436141 256.809963,158.636779 256.435663,158.508219 L256.350047,158.472652 L238.934257,149.936444 L221.772716,158.470753 C221.406447,158.652873 220.98114,158.496752 220.780864,158.122759 L220.73877,158.03264 C220.574795,157.625841 220.715361,157.153471 221.052093,156.931033 L221.133233,156.884282 Z" transform="rotate(151 239.06 153.291)"/>
    <path fill="#000" fill-rule="nonzero" d="M326.214314,238.347573 L344.010619,229.498734 L362.062917,238.345674 C362.458306,238.539443 362.637401,239.052518 362.462937,239.491659 C362.300935,239.899432 361.891044,240.10007 361.516744,239.97151 L361.431128,239.935943 L344.015338,231.399735 L326.853798,239.934044 C326.487528,240.116164 326.062221,239.960043 325.861945,239.58605 L325.819852,239.495932 C325.655877,239.089132 325.796442,238.616762 326.133174,238.394325 L326.214314,238.347573 Z" transform="rotate(72 344.14 234.754)"/>
    <path fill="#000" fill-rule="nonzero" d="M317.457557,107.831117 L335.253863,98.9822785 L353.306161,107.829218 C353.701549,108.022987 353.880644,108.536062 353.70618,108.975203 C353.544178,109.382976 353.134287,109.583615 352.759988,109.455054 L352.674372,109.419487 L335.258581,100.883279 L318.097041,109.417588 C317.730771,109.599708 317.305464,109.443588 317.105188,109.069595 L317.063095,108.979476 C316.89912,108.572676 317.039686,108.100307 317.376417,107.877869 L317.457557,107.831117 Z" transform="scale(-1 1) rotate(72 0 -357.378)"/>
    <path fill="#FFF" fill-rule="nonzero" d="M138.773 178.09C141.275 178.09 143.759 177.37 143.759 174.274 143.759 172.852 142.913 171.79 141.527 171.358 142.553 170.89 143.165 169.846 143.165 168.748 143.165 166.282 141.239 165.49 138.629 165.49 137.567 165.49 136.577 165.562 135.731 165.706 135.011 165.832 134.705 166.246 134.705 166.912L134.705 176.74C134.705 177.352 134.993 177.784 135.713 177.892 136.649 178.036 137.909 178.09 138.773 178.09zM138.611 170.836L136.775 170.836 136.775 167.38C137.297 167.326 137.819 167.29 138.431 167.29 139.961 167.29 140.951 167.74 140.951 168.964 140.951 170.188 140.141 170.836 138.611 170.836zM138.863 176.308C138.233 176.308 137.495 176.29 136.775 176.2L136.775 172.456 138.845 172.456C140.609 172.456 141.545 173.068 141.545 174.364 141.545 175.804 140.555 176.308 138.863 176.308zM149.087 178.18C150.149 178.18 151.211 177.712 151.751 176.686L151.751 176.956C151.751 177.514 152.093 178 152.777 178 153.443 178 153.785 177.514 153.785 176.956L153.785 170.224C153.785 169.648 153.443 169.18 152.777 169.18 152.093 169.18 151.751 169.648 151.751 170.224L151.751 172.546C151.715 174.562 151.319 176.38 149.573 176.38 148.421 176.38 148.043 175.552 148.043 174.364L148.043 170.224C148.043 169.648 147.701 169.18 147.035 169.18 146.351 169.18 146.009 169.648 146.009 170.224L146.009 174.328C146.009 176.722 146.747 178.18 149.087 178.18zM159.005 178.18C161.435 178.18 162.569 177.154 162.569 175.444 162.569 172.384 158.033 173.104 158.033 171.448 158.033 170.944 158.411 170.638 159.239 170.638 159.905 170.638 160.607 170.926 161.111 171.124 161.687 171.304 162.047 171.214 162.245 170.782 162.425 170.368 162.317 169.918 161.741 169.594 161.147 169.252 160.211 169 159.167 169 157.277 169 155.981 169.846 155.981 171.52 155.981 174.706 160.517 173.914 160.517 175.624 160.517 176.236 160.085 176.542 159.185 176.542 158.519 176.542 157.781 176.344 157.097 176.038 156.629 175.822 156.053 175.696 155.783 176.254 155.549 176.74 155.711 177.154 156.197 177.496 156.917 177.964 158.087 178.18 159.005 178.18zM165.467 167.956C166.169 167.956 166.655 167.578 166.655 166.858 166.655 166.174 166.169 165.76 165.467 165.76 164.747 165.76 164.297 166.174 164.297 166.858 164.297 167.578 164.747 167.956 165.467 167.956zM165.467 178C166.151 178 166.493 177.532 166.493 176.956L166.493 170.224C166.493 169.666 166.151 169.18 165.467 169.18 164.801 169.18 164.459 169.666 164.459 170.224L164.459 176.956C164.459 177.532 164.801 178 165.467 178zM175.763 178C176.447 178 176.789 177.532 176.789 176.956L176.789 172.852C176.789 170.458 176.051 169 173.711 169 172.649 169 171.587 169.468 171.047 170.494L171.047 170.224C171.047 169.666 170.705 169.18 170.021 169.18 169.355 169.18 169.013 169.666 169.013 170.224L169.013 176.956C169.013 177.532 169.355 178 170.021 178 170.705 178 171.047 177.532 171.047 176.956L171.047 174.634C171.083 172.618 171.479 170.8 173.225 170.8 174.377 170.8 174.755 171.628 174.755 172.816L174.755 176.956C174.755 177.532 175.097 178 175.763 178zM183.017 178.18C184.043 178.18 185.087 178 185.861 177.478 186.329 177.172 186.437 176.704 186.239 176.326 186.041 175.984 185.699 175.84 185.123 176.074 184.565 176.308 183.989 176.542 183.215 176.542 181.829 176.542 180.929 175.696 180.875 174.328L185.465 174.328C186.185 174.328 186.491 174.022 186.653 173.428 186.707 173.23 186.743 172.834 186.743 172.582 186.743 170.476 185.411 169 183.053 169 180.461 169 178.859 170.836 178.859 173.626 178.859 176.524 180.317 178.18 183.017 178.18zM184.853 172.906L180.875 172.906C181.001 171.448 181.775 170.638 183.053 170.638 184.295 170.638 184.871 171.43 184.871 172.456 184.871 172.618 184.871 172.726 184.853 172.906zM191.477 178.18C193.907 178.18 195.041 177.154 195.041 175.444 195.041 172.384 190.505 173.104 190.505 171.448 190.505 170.944 190.883 170.638 191.711 170.638 192.377 170.638 193.079 170.926 193.583 171.124 194.159 171.304 194.519 171.214 194.717 170.782 194.897 170.368 194.789 169.918 194.213 169.594 193.619 169.252 192.683 169 191.639 169 189.749 169 188.453 169.846 188.453 171.52 188.453 174.706 192.989 173.914 192.989 175.624 192.989 176.236 192.557 176.542 191.657 176.542 190.991 176.542 190.253 176.344 189.569 176.038 189.101 175.822 188.525 175.696 188.255 176.254 188.021 176.74 188.183 177.154 188.669 177.496 189.389 177.964 190.559 178.18 191.477 178.18zM199.631 178.18C202.061 178.18 203.195 177.154 203.195 175.444 203.195 172.384 198.659 173.104 198.659 171.448 198.659 170.944 199.037 170.638 199.865 170.638 200.531 170.638 201.233 170.926 201.737 171.124 202.313 171.304 202.673 171.214 202.871 170.782 203.051 170.368 202.943 169.918 202.367 169.594 201.773 169.252 200.837 169 199.793 169 197.903 169 196.607 169.846 196.607 171.52 196.607 174.706 201.143 173.914 201.143 175.624 201.143 176.236 200.711 176.542 199.811 176.542 199.145 176.542 198.407 176.344 197.723 176.038 197.255 175.822 196.679 175.696 196.409 176.254 196.175 176.74 196.337 177.154 196.823 177.496 197.543 177.964 198.713 178.18 199.631 178.18zM281.799 178C282.429 178 282.825 177.622 282.825 177.046 282.825 176.452 282.429 176.074 281.799 176.074L276.597 176.074 276.597 172.582 280.611 172.582C281.259 172.582 281.655 172.186 281.655 171.61 281.655 171.016 281.259 170.656 280.611 170.656L276.597 170.656 276.597 167.506 281.619 167.506C282.249 167.506 282.645 167.128 282.645 166.552 282.645 165.958 282.249 165.58 281.619 165.58L275.535 165.58C274.815 165.58 274.437 166.084 274.437 166.696L274.437 176.884C274.437 177.514 274.833 178 275.553 178L281.799 178zM290.655 178C291.141 178 291.609 177.55 291.609 177.064 291.609 176.812 291.501 176.542 291.303 176.29L288.891 173.356 290.961 170.8C291.177 170.548 291.321 170.242 291.321 169.954 291.321 169.576 290.925 169.198 290.529 169.198 290.187 169.198 289.863 169.432 289.647 169.738L287.757 172.15 285.975 169.756C285.723 169.414 285.381 169.18 285.021 169.18 284.499 169.18 284.085 169.684 284.085 170.116 284.085 170.404 284.211 170.71 284.427 170.962L286.497 173.536 284.175 176.344C283.959 176.596 283.815 176.902 283.815 177.19 283.815 177.676 284.319 178 284.661 178 285.003 178 285.327 177.748 285.561 177.442L287.595 174.76 289.737 177.442C290.025 177.802 290.331 178 290.655 178zM294.345 181.6C295.029 181.6 295.371 181.132 295.371 180.556L295.371 177.838C295.821 178.018 296.523 178.18 297.369 178.18 300.177 178.18 301.419 176.092 301.419 173.32 301.419 170.8 300.267 169 297.999 169 296.721 169 295.875 169.522 295.371 170.368L295.371 170.224C295.371 169.666 295.029 169.18 294.345 169.18 293.679 169.18 293.337 169.666 293.337 170.224L293.337 180.556C293.337 181.132 293.679 181.6 294.345 181.6zM297.153 176.452C296.505 176.452 295.875 176.326 295.371 176.038L295.371 174.634C295.371 172.78 295.677 170.728 297.585 170.728 298.809 170.728 299.331 171.754 299.331 173.284 299.331 175.084 298.773 176.452 297.153 176.452zM307.197 178.18C308.223 178.18 309.267 178 310.041 177.478 310.509 177.172 310.617 176.704 310.419 176.326 310.221 175.984 309.879 175.84 309.303 176.074 308.745 176.308 308.169 176.542 307.395 176.542 306.009 176.542 305.109 175.696 305.055 174.328L309.645 174.328C310.365 174.328 310.671 174.022 310.833 173.428 310.887 173.23 310.923 172.834 310.923 172.582 310.923 170.476 309.591 169 307.233 169 304.641 169 303.039 170.836 303.039 173.626 303.039 176.524 304.497 178.18 307.197 178.18zM309.033 172.906L305.055 172.906C305.181 171.448 305.955 170.638 307.233 170.638 308.475 170.638 309.051 171.43 309.051 172.456 309.051 172.618 309.051 172.726 309.033 172.906zM313.965 178C314.649 178 314.991 177.532 314.991 176.956L314.991 173.914C314.991 171.808 315.477 170.836 316.539 170.836 316.845 170.836 317.115 170.908 317.385 170.998 317.907 171.178 318.321 171.052 318.519 170.602 318.807 169.936 318.375 169 316.881 169 316.089 169 315.369 169.468 314.991 170.152 314.991 169.684 314.649 169.18 313.965 169.18 313.299 169.18 312.957 169.666 312.957 170.224L312.957 176.956C312.957 177.532 313.299 178 313.965 178zM323.379 178.18C324.009 178.18 324.675 178.054 325.179 177.766 325.665 177.478 325.953 177.046 325.737 176.506 325.557 176.074 325.107 175.984 324.657 176.164 324.441 176.254 324.045 176.38 323.703 176.38 322.947 176.38 322.677 175.93 322.677 174.922L322.677 170.908 324.207 170.908C324.855 170.908 325.179 170.584 325.179 170.044 325.179 169.486 324.855 169.18 324.207 169.18L322.677 169.18 322.677 168.064C322.677 167.506 322.335 167.02 321.651 167.02 320.985 167.02 320.643 167.506 320.643 168.064L320.643 169.18 320.175 169.18C319.527 169.18 319.203 169.486 319.203 170.044 319.203 170.584 319.527 170.908 320.175 170.908L320.643 170.908 320.643 175.138C320.643 177.28 321.651 178.18 323.379 178.18zM328.185 167.956C328.887 167.956 329.373 167.578 329.373 166.858 329.373 166.174 328.887 165.76 328.185 165.76 327.465 165.76 327.015 166.174 327.015 166.858 327.015 167.578 327.465 167.956 328.185 167.956zM328.185 178C328.869 178 329.211 177.532 329.211 176.956L329.211 170.224C329.211 169.666 328.869 169.18 328.185 169.18 327.519 169.18 327.177 169.666 327.177 170.224L327.177 176.956C327.177 177.532 327.519 178 328.185 178zM334.431 178.18C336.861 178.18 337.995 177.154 337.995 175.444 337.995 172.384 333.459 173.104 333.459 171.448 333.459 170.944 333.837 170.638 334.665 170.638 335.331 170.638 336.033 170.926 336.537 171.124 337.113 171.304 337.473 171.214 337.671 170.782 337.851 170.368 337.743 169.918 337.167 169.594 336.573 169.252 335.637 169 334.593 169 332.703 169 331.407 169.846 331.407 171.52 331.407 174.706 335.943 173.914 335.943 175.624 335.943 176.236 335.511 176.542 334.611 176.542 333.945 176.542 333.207 176.344 332.523 176.038 332.055 175.822 331.479 175.696 331.209 176.254 330.975 176.74 331.137 177.154 331.623 177.496 332.343 177.964 333.513 178.18 334.431 178.18zM343.593 178.18C344.619 178.18 345.663 178 346.437 177.478 346.905 177.172 347.013 176.704 346.815 176.326 346.617 175.984 346.275 175.84 345.699 176.074 345.141 176.308 344.565 176.542 343.791 176.542 342.405 176.542 341.505 175.696 341.451 174.328L346.041 174.328C346.761 174.328 347.067 174.022 347.229 173.428 347.283 173.23 347.319 172.834 347.319 172.582 347.319 170.476 345.987 169 343.629 169 341.037 169 339.435 170.836 339.435 173.626 339.435 176.524 340.893 178.18 343.593 178.18zM345.429 172.906L341.451 172.906C341.577 171.448 342.351 170.638 343.629 170.638 344.871 170.638 345.447 171.43 345.447 172.456 345.447 172.618 345.447 172.726 345.429 172.906z"/>
  </g>
</svg>
