<svg xmlns="http://www.w3.org/2000/svg" xmlns:xlink="http://www.w3.org/1999/xlink" width="339" height="505" viewBox="0 0 339 505">
  <defs>
    <linearGradient id="img-scope-a" x1="84.412%" x2="15.588%" y1="100%" y2="0%">
      <stop offset="0%" stop-color="#1E85E9"/>
      <stop offset="20.276%" stop-color="#8671F3"/>
      <stop offset="70.727%" stop-color="#C06CFD" stop-opacity=".99"/>
      <stop offset="100%" stop-color="#FFBEE8"/>
    </linearGradient>
    <linearGradient id="img-scope-b" x1="100%" x2="0%" y1="80.716%" y2="19.284%">
      <stop offset="0%" stop-color="#1E85E9"/>
      <stop offset="20.276%" stop-color="#8671F3"/>
      <stop offset="70.727%" stop-color="#C06CFD" stop-opacity=".99"/>
      <stop offset="100%" stop-color="#FFBEE8"/>
    </linearGradient>
    <linearGradient id="img-scope-d" x1="100%" x2="0%" y1="62.5%" y2="37.5%">
      <stop offset="0%" stop-color="#1E85E9"/>
      <stop offset="20.276%" stop-color="#8671F3"/>
      <stop offset="70.727%" stop-color="#C06CFD" stop-opacity=".99"/>
      <stop offset="100%" stop-color="#FFBEE8"/>
    </linearGradient>
    <path id="img-scope-c" d="M163.902916,174 L165,174.343238 L158.097084,196 L157,195.656762 L163.902916,174 Z M152.74032,177 L152.74032,178.147585 C152.524815,178.147585 149.492805,179.599594 144.212104,182.253503 L139.483851,184.64521 L153,191.984789 L152.48064,193 L138,185.137129 L138.012605,184.115283 L142.423286,181.874865 C148.939246,178.581656 152.131446,177.061316 152.708266,177.00182 L152.74032,177 Z M167.25968,177 L167.291734,177.00182 C167.868554,177.061316 171.060754,178.581656 177.576714,181.874865 L177.576714,181.874865 L181.987395,184.115283 L182,185.137129 L167.51936,193 L167,191.984789 L180.516149,184.64521 L175.787896,182.253503 C170.507195,179.599594 167.475185,178.147585 167.25968,178.147585 L167.25968,178.147585 L167.25968,177 Z"/>
    <linearGradient id="img-scope-e" x1="92.417%" x2="7.583%" y1="100%" y2="0%">
      <stop offset="0%" stop-color="#1E85E9"/>
      <stop offset="20.276%" stop-color="#8671F3"/>
      <stop offset="70.727%" stop-color="#C06CFD" stop-opacity=".99"/>
      <stop offset="100%" stop-color="#FFBEE8"/>
    </linearGradient>
    <linearGradient id="img-scope-f" x1="35.049%" x2="55.08%" y1="110.319%" y2="-8.075%">
      <stop offset="0%" stop-color="#999" stop-opacity="0"/>
      <stop offset="47.088%" stop-color="#F2EFEF"/>
      <stop offset="69.507%" stop-color="#D1D1D1" stop-opacity=".476"/>
      <stop offset="100%" stop-color="#F5F5F5" stop-opacity="0"/>
    </linearGradient>
    <linearGradient id="img-scope-g" x1="93.023%" x2="6.977%" y1="100%" y2="0%">
      <stop offset="0%" stop-color="#1E85E9"/>
      <stop offset="20.276%" stop-color="#8671F3"/>
      <stop offset="70.727%" stop-color="#C06CFD" stop-opacity=".99"/>
      <stop offset="100%" stop-color="#FFBEE8"/>
    </linearGradient>
    <linearGradient id="img-scope-h" x1="89.151%" x2="10.849%" y1="100%" y2="0%">
      <stop offset="0%" stop-color="#1E85E9"/>
      <stop offset="20.276%" stop-color="#8671F3"/>
      <stop offset="70.727%" stop-color="#C06CFD" stop-opacity=".99"/>
      <stop offset="100%" stop-color="#FFBEE8"/>
    </linearGradient>
  </defs>
  <g fill="none" fill-rule="evenodd">
    <g transform="translate(8)">
      <g fill-rule="nonzero" transform="translate(58 45)">
        <g transform="translate(110)">
          <path fill="url(#img-scope-a)" d="M73.3849871,0 L93,19.8350586 L93,97.6333333 C93,99.492692 91.4860763,101 89.6185567,101 L82.5,101 L82.5,107 C82.5,109.414273 80.5987635,111.384489 78.2118357,111.495102 L78,111.5 L5,111.5 C2.58572667,111.5 0.615510911,109.598763 0.50489799,107.211836 L0.5,107 L0.5,14 C0.5,11.5857267 2.40123652,9.61551091 4.7881643,9.50489799 L5,9.5 L11,9.5 L11,3.36666667 C11,1.50730801 12.5139237,0 14.3814433,0 L73.3849871,0 Z M11,10.5 L5,10.5 C3.1314366,10.5 1.60487355,11.9642776 1.50517886,13.8079648 L1.5,14 L1.5,107 C1.5,108.868563 2.9642776,110.395126 4.8079648,110.494821 L5,110.5 L78,110.5 C79.8685634,110.5 81.3951264,109.035722 81.4948211,107.192035 L81.5,107 L81.5,101 L14.3814433,101 C12.5139237,101 11,99.492692 11,97.6333333 L11,10.5 Z M73.0308866,0.841666667 L14.3814433,0.841666667 C13.0308265,0.841666667 11.9268021,1.89284097 11.849666,3.21830374 L11.8453608,3.36666667 L11.8453608,97.6333333 C11.8453608,98.9780481 12.9011488,100.077248 14.2324292,100.154047 L14.3814433,100.158333 L89.6185567,100.158333 C90.9691735,100.158333 92.0731979,99.107159 92.150334,97.7816963 L92.1546392,97.6333333 L92.1546392,20.1798 L91.985,20.008 L92,20.639643 L75.9331871,20.9995916 L75.8768602,21 C73.7969046,21 72.0995155,19.4094472 72.0042197,17.4125706 L72,17.2353512 L72,1 L72.8615245,1 L72.8615245,17.2353512 C72.8615245,18.7985701 74.1230355,20.0756754 75.7114172,20.1590788 L75.92067,20.1630938 L91.786,19.807 L73.0308866,0.841666667 Z"/>
          <path fill="url(#img-scope-b)" d="M68.5,41 L34.5,41 C33.6715729,41 33,41.6668108 33,42.4893635 L33,64.3333622 L33.0068666,64.4767978 C33.0795513,65.2320559 33.7203039,65.8227257 34.5,65.8227257 L47.293,65.8227257 L51.5,70 L55.706,65.8227257 L68.5,65.8227257 C69.3284271,65.8227257 70,65.1559149 70,64.3333622 L70,42.4893635 C70,41.6668108 69.3284271,41 68.5,41 Z M34.5,41.992909 L68.5,41.992909 C68.7761424,41.992909 69,42.2151793 69,42.4893635 L69,64.3333622 C69,64.6075464 68.7761424,64.8298167 68.5,64.8298167 L55.2928932,64.8298167 L51.5,68.5959206 L47.7071068,64.8298167 L34.5,64.8298167 C34.2238576,64.8298167 34,64.6075464 34,64.3333622 L34,42.4893635 C34,42.2151793 34.2238576,41.992909 34.5,41.992909 Z"/>
        </g>
        <use fill="#8671F3" xlink:href="#img-scope-c"/>
        <use fill="url(#img-scope-d)" xlink:href="#img-scope-c"/>
        <path fill="url(#img-scope-a)" d="M182.884987 129L202.5 148.835059 202.5 226.633333C202.5 228.492692 200.986076 230 199.118557 230L192 230 192 236C192 238.414273 190.098763 240.384489 187.711836 240.495102L187.5 240.5 114.5 240.5C112.085727 240.5 110.115511 238.598763 110.004898 236.211836L110 236 110 143C110 140.585727 111.901237 138.615511 114.288164 138.504898L114.5 138.5 120.5 138.5 120.5 132.366667C120.5 130.507308 122.013924 129 123.881443 129L182.884987 129zM120.5 139.5L114.5 139.5C112.631437 139.5 111.104874 140.964278 111.005179 142.807965L111 143 111 236C111 237.868563 112.464278 239.395126 114.307965 239.494821L114.5 239.5 187.5 239.5C189.368563 239.5 190.895126 238.035722 190.994821 236.192035L191 236 191 230 123.881443 230C122.013924 230 120.5 228.492692 120.5 226.633333L120.5 139.5zM182.530887 129.841667L123.881443 129.841667C122.530826 129.841667 121.426802 130.892841 121.349666 132.218304L121.345361 132.366667 121.345361 226.633333C121.345361 227.978048 122.401149 229.077248 123.732429 229.154047L123.881443 229.158333 199.118557 229.158333C200.469174 229.158333 201.573198 228.107159 201.650334 226.781696L201.654639 226.633333 201.654639 149.1798 201.485 149.008 201.5 149.639643 185.433187 149.999592 185.37686 150C183.296905 150 181.599515 148.409447 181.50422 146.412571L181.5 146.235351 181.5 130 182.361524 130 182.361524 146.235351C182.361524 147.79857 183.623036 149.075675 185.211417 149.159079L185.42067 149.163094 201.286 148.807 182.530887 129.841667zM72.8849871 129L92.5 148.835059 92.5 226.633333C92.5 228.492692 90.9860763 230 89.1185567 230L82 230 82 236C82 238.414273 80.0987635 240.384489 77.7118357 240.495102L77.5 240.5 4.5 240.5C2.08572667 240.5.115510911 238.598763.0048979895 236.211836L0 236 0 143C0 140.585727 1.90123652 138.615511 4.2881643 138.504898L4.5 138.5 10.5 138.5 10.5 132.366667C10.5 130.507308 12.0139237 129 13.8814433 129L72.8849871 129zM10.5 139.5L4.5 139.5C2.6314366 139.5 1.10487355 140.964278 1.00517886 142.807965L1 143 1 236C1 237.868563 2.4642776 239.395126 4.3079648 239.494821L4.5 239.5 77.5 239.5C79.3685634 239.5 80.8951264 238.035722 80.9948211 236.192035L81 236 81 230 13.8814433 230C12.0139237 230 10.5 228.492692 10.5 226.633333L10.5 139.5zM72.5308866 129.841667L13.8814433 129.841667C12.5308265 129.841667 11.4268021 130.892841 11.349666 132.218304L11.3453608 132.366667 11.3453608 226.633333C11.3453608 227.978048 12.4011488 229.077248 13.7324292 229.154047L13.8814433 229.158333 89.1185567 229.158333C90.4691735 229.158333 91.5731979 228.107159 91.650334 226.781696L91.6546392 226.633333 91.6546392 149.1798 91.485 149.008 91.5 149.639643 75.4331871 149.999592 75.3768602 150C73.2969046 150 71.5995155 148.409447 71.5042197 146.412571L71.5 146.235351 71.5 130 72.3615245 130 72.3615245 146.235351C72.3615245 147.79857 73.6230355 149.075675 75.2114172 149.159079L75.42067 149.163094 91.286 148.807 72.5308866 129.841667zM72.8849871 0L92.5 19.8350586 92.5 97.6333333C92.5 99.492692 90.9860763 101 89.1185567 101L82 101 82 107C82 109.414273 80.0987635 111.384489 77.7118357 111.495102L77.5 111.5 4.5 111.5C2.08572667 111.5.115510911 109.598763.0048979895 107.211836L0 107 0 14C0 11.5857267 1.90123652 9.61551091 4.2881643 9.50489799L4.5 9.5 10.5 9.5 10.5 3.36666667C10.5 1.50730801 12.0139237 0 13.8814433 0L72.8849871 0zM10.5 10.5L4.5 10.5C2.6314366 10.5 1.10487355 11.9642776 1.00517886 13.8079648L1 14 1 107C1 108.868563 2.4642776 110.395126 4.3079648 110.494821L4.5 110.5 77.5 110.5C79.3685634 110.5 80.8951264 109.035722 80.9948211 107.192035L81 107 81 101 13.8814433 101C12.0139237 101 10.5 99.492692 10.5 97.6333333L10.5 10.5zM72.5308866.841666667L13.8814433.841666667C12.5308265.841666667 11.4268021 1.89284097 11.349666 3.21830374L11.3453608 3.36666667 11.3453608 97.6333333C11.3453608 98.9780481 12.4011488 100.077248 13.7324292 100.154047L13.8814433 100.158333 89.1185567 100.158333C90.4691735 100.158333 91.5731979 99.107159 91.650334 97.7816963L91.6546392 97.6333333 91.6546392 20.1798 91.485 20.008 91.5 20.639643 75.4331871 20.9995916 75.3768602 21C73.2969046 21 71.5995155 19.4094472 71.5042197 17.4125706L71.5 17.2353512 71.5 1 72.3615245 1 72.3615245 17.2353512C72.3615245 18.7985701 73.6230355 20.0756754 75.2114172 20.1590788L75.42067 20.1630938 91.286 19.807 72.5308866.841666667zM72.8849871 260L92.5 279.835059 92.5 357.633333C92.5 359.492692 90.9860763 361 89.1185567 361L82 361 82 367C82 369.414273 80.0987635 371.384489 77.7118357 371.495102L77.5 371.5 4.5 371.5C2.08572667 371.5.115510911 369.598763.0048979895 367.211836L0 367 0 274C0 271.585727 1.90123652 269.615511 4.2881643 269.504898L4.5 269.5 10.5 269.5 10.5 263.366667C10.5 261.507308 12.0139237 260 13.8814433 260L72.8849871 260zM10.5 270.5L4.5 270.5C2.6314366 270.5 1.10487355 271.964278 1.00517886 273.807965L1 274 1 367C1 368.868563 2.4642776 370.395126 4.3079648 370.494821L4.5 370.5 77.5 370.5C79.3685634 370.5 80.8951264 369.035722 80.9948211 367.192035L81 367 81 361 13.8814433 361C12.0139237 361 10.5 359.492692 10.5 357.633333L10.5 270.5zM72.5308866 260.841667L13.8814433 260.841667C12.5308265 260.841667 11.4268021 261.892841 11.349666 263.218304L11.3453608 263.366667 11.3453608 357.633333C11.3453608 358.978048 12.4011488 360.077248 13.7324292 360.154047L13.8814433 360.158333 89.1185567 360.158333C90.4691735 360.158333 91.5731979 359.107159 91.650334 357.781696L91.6546392 357.633333 91.6546392 280.1798 91.485 280.008 91.5 280.639643 75.4331871 280.999592 75.3768602 281C73.2969046 281 71.5995155 279.409447 71.5042197 277.412571L71.5 277.235351 71.5 261 72.3615245 261 72.3615245 277.235351C72.3615245 278.79857 73.6230355 280.075675 75.2114172 280.159079L75.42067 280.163094 91.286 279.807 72.5308866 260.841667z"/>
        <g transform="translate(111 259)">
          <path fill="url(#img-scope-e)" d="M56.510596,56.9032047 L58.8276985,57.0901424 C63.5579585,57.4999251 66.9994484,58.4260772 67,68.1170845 C67,73.7249578 62.7954297,74 57.2918916,74 L55.4484425,73.9956441 L42.9268614,73.9967734 L41.1222747,73.9987125 C35.9084198,73.9734663 32,73.5234766 32,68.1170845 C32,56.9032047 36.6060694,57.4271538 42.4874891,56.9032047 C42.5334476,58.9560647 45.6541618,60.6125403 49.4980851,60.6125403 C53.3432849,60.6125403 56.4633608,58.9560647 56.510596,56.9032047 Z M57.417933,58.1124726 L57.3624694,58.2442026 C56.377991,60.3638968 53.1731449,61.7442372 49.4980851,61.7442372 C45.8234838,61.7442372 42.6184225,60.3635693 41.6348977,58.2436407 L41.578901,58.1124726 L41.1610993,58.1460823 C37.7754282,58.4085859 36.4789263,58.7111009 35.3720244,59.6941044 C33.9284942,60.9760565 33.1617304,63.5464398 33.1617304,68.1170845 C33.1617304,71.9164058 34.8492025,72.8043097 40.9796039,72.8648686 L57.2918916,72.8683031 C64.0190964,72.8683031 65.8382696,72.0631101 65.8382696,68.1171473 C65.8382696,63.5454542 65.0704354,60.9745877 63.6256536,59.6925727 C62.5588112,58.745919 61.316359,58.4305664 58.2007205,58.1746758 L57.417933,58.1124726 Z M49.4993617,36 C54.8197038,36 59.1315108,40.2040382 59.1308725,45.3900142 C59.1308725,48.1460363 57.9116939,51.641312 55.9705829,54.3108389 C55.3546104,55.158367 54.665232,55.9187777 53.9190436,56.5497568 C53.3675409,57.0158351 52.7866757,57.4084858 52.1802779,57.7084186 C51.3287679,58.1296936 50.4293843,58.3730001 49.4987234,58.3730001 C48.5687008,58.3730001 47.6712321,58.1309381 46.8209987,57.7102854 C46.2133243,57.409108 45.6305442,57.0158351 45.0790414,56.5491346 C44.3334914,55.9181555 43.6434746,55.1577448 43.0275022,54.3108389 C41.0863912,51.641312 39.8678509,48.1466586 39.8678509,45.3900142 C39.8678509,40.2040382 44.1796579,36 49.4993617,36 Z M49.4993617,37.1316969 C44.8216001,37.1316969 41.0295813,40.8287296 41.0295813,45.3900142 C41.0295813,47.9223028 42.1819255,51.1900687 43.97542,53.6565849 C44.5496381,54.4460823 45.1794579,55.1349775 45.840908,55.6947805 C46.3332891,56.1114503 46.8382352,56.4490799 47.3470594,56.7012652 C48.0714183,57.0596415 48.7892482,57.2413033 49.4987234,57.2413033 C50.2080117,57.2413033 50.9276854,57.0588418 51.6543319,56.6993417 C52.1605928,56.4489379 52.6635341,56.112583 53.1575011,55.6951287 C53.8186188,55.1360856 54.4476815,54.4477155 55.0225848,53.6566953 C56.8162888,51.1898909 57.9691421,47.9214708 57.9691421,45.3898786 C57.9697035,40.8286773 54.1777384,37.1316969 49.4993617,37.1316969 Z"/>
          <path fill="url(#img-scope-a)" d="M72.8849871,0 L92.5,19.8350586 L92.5,97.6333333 C92.5,99.492692 90.9860763,101 89.1185567,101 L82,101 L82,107 C82,109.414273 80.0987635,111.384489 77.7118357,111.495102 L77.5,111.5 L4.5,111.5 C2.08572667,111.5 0.115510911,109.598763 0.0048979895,107.211836 L0,107 L0,14 C0,11.5857267 1.90123652,9.61551091 4.2881643,9.50489799 L4.5,9.5 L10.5,9.5 L10.5,3.36666667 C10.5,1.50730801 12.0139237,0 13.8814433,0 L72.8849871,0 Z M10.5,10.5 L4.5,10.5 C2.6314366,10.5 1.10487355,11.9642776 1.00517886,13.8079648 L1,14 L1,107 C1,108.868563 2.4642776,110.395126 4.3079648,110.494821 L4.5,110.5 L77.5,110.5 C79.3685634,110.5 80.8951264,109.035722 80.9948211,107.192035 L81,107 L81,101 L13.8814433,101 C12.0139237,101 10.5,99.492692 10.5,97.6333333 L10.5,10.5 Z M72.5308866,0.841666667 L13.8814433,0.841666667 C12.5308265,0.841666667 11.4268021,1.89284097 11.349666,3.21830374 L11.3453608,3.36666667 L11.3453608,97.6333333 C11.3453608,98.9780481 12.4011488,100.077248 13.7324292,100.154047 L13.8814433,100.158333 L89.1185567,100.158333 C90.4691735,100.158333 91.5731979,99.107159 91.650334,97.7816963 L91.6546392,97.6333333 L91.6546392,20.1798 L91.485,20.008 L91.5,20.639643 L75.4331871,20.9995916 L75.3768602,21 C73.2969046,21 71.5995155,19.4094472 71.5042197,17.4125706 L71.5,17.2353512 L71.5,1 L72.3615245,1 L72.3615245,17.2353512 C72.3615245,18.7985701 73.6230355,20.0756754 75.2114172,20.1590788 L75.42067,20.1630938 L91.286,19.807 L72.5308866,0.841666667 Z"/>
        </g>
      </g>
      <path stroke="url(#img-scope-f)" d="M126.585454,480.985699 C244.004119,482.024216 330,426.348426 330,364.00687 C330,329.380428 315.099,303.440329 285.297,286.186575 M30.9557686,199.087902 C17.7787137,182.909381 12.4410035,164.533456 14.3894872,145.187985 C15.5864932,133.303542 25.9781973,115.077412 45.2774321,95.8460896" opacity=".7"/>
      <path stroke="url(#img-scope-g)" d="M273.673118,341.551443 C301.891039,326.387132 316,305.813881 316,279.831692 C316,217.467585 218.71568,189.970453 171.058199,177.239015 C123.400717,164.507577 -7.12013018,120.055275 0.304130795,60.9336564 C3.70146759,33.8796436 24.1856569,13.8653397 61.7566988,0.890744723" opacity=".4" transform="matrix(-1 0 0 1 316 0)"/>
      <path stroke="url(#img-scope-h)" d="M229.87841,504 C287.292803,488.949349 316,462.893246 316,425.831692 C316,363.467585 218.71568,335.970453 171.058199,323.239015 C123.400717,310.507577 -7.12013018,266.055275 0.304130795,206.933656 C3.70146759,179.879644 24.1856569,159.86534 61.7566988,146.890745" opacity=".517" transform="matrix(-1 0 0 1 316 0)"/>
    </g>
    <g fill="#5055FE" transform="translate(0 276)">
      <circle cx="8.362" cy="8.362" r="3.902" transform="rotate(51 8.362 8.362)"/>
      <circle cx="8.5" cy="8.5" r="8.5" opacity=".103"/>
    </g>
    <g fill="#5055FE" transform="translate(0 425)">
      <circle cx="8.362" cy="8.362" r="3.902" transform="rotate(51 8.362 8.362)"/>
      <circle cx="8.5" cy="8.5" r="8.5" opacity=".103"/>
    </g>
    <g fill="#5055FE" transform="translate(314 64)">
      <circle cx="8.362" cy="8.362" r="3.902" transform="rotate(51 8.362 8.362)"/>
      <circle cx="8.5" cy="8.5" r="8.5" opacity=".103"/>
    </g>
    <g fill="#5055FE" transform="translate(314 199)">
      <circle cx="8.362" cy="8.362" r="3.902" transform="rotate(51 8.362 8.362)"/>
      <circle cx="8.5" cy="8.5" r="8.5" opacity=".103"/>
    </g>
  </g>
</svg>
