<svg xmlns="http://www.w3.org/2000/svg" xmlns:xlink="http://www.w3.org/1999/xlink" width="1130" height="1130" viewBox="0 0 1130 1130">
  <defs>
    <linearGradient id="img-illustration-a" x1="108.096%" x2="0%" y1="108.696%" y2="0%">
      <stop offset="0%" stop-color="#1E85E9"/>
      <stop offset="20.276%" stop-color="#8671F3"/>
      <stop offset="70.727%" stop-color="#CFA9FC"/>
      <stop offset="100%" stop-color="#F4D9FB"/>
    </linearGradient>
    <linearGradient id="img-illustration-b" x1="108.096%" x2="0%" y1="108.173%" y2=".446%">
      <stop offset="0%" stop-color="#1E85E9"/>
      <stop offset="20.276%" stop-color="#8671F3"/>
      <stop offset="70.727%" stop-color="#CFA9FC"/>
      <stop offset="100%" stop-color="#F4D9FB"/>
    </linearGradient>
    <circle id="img-illustration-d" cx="318.2" cy="85.7" r="31.2"/>
    <filter id="img-illustration-c" width="141.7%" height="141.7%" x="-20.8%" y="-17.6%" filterUnits="objectBoundingBox">
      <feMorphology in="SourceAlpha" radius="1" result="shadowSpreadOuter1"/>
      <feOffset dy="2" in="shadowSpreadOuter1" result="shadowOffsetOuter1"/>
      <feGaussianBlur in="shadowOffsetOuter1" result="shadowBlurOuter1" stdDeviation="5"/>
      <feColorMatrix in="shadowBlurOuter1" values="0 0 0 0 0.0415817482   0 0 0 0 0.0415817482   0 0 0 0 0.0415817482  0 0 0 0.1 0"/>
    </filter>
    <circle id="img-illustration-f" cx="31.2" cy="261.7" r="31.2"/>
    <filter id="img-illustration-e" width="141.7%" height="141.7%" x="-20.8%" y="-17.6%" filterUnits="objectBoundingBox">
      <feMorphology in="SourceAlpha" radius="1" result="shadowSpreadOuter1"/>
      <feOffset dy="2" in="shadowSpreadOuter1" result="shadowOffsetOuter1"/>
      <feGaussianBlur in="shadowOffsetOuter1" result="shadowBlurOuter1" stdDeviation="5"/>
      <feColorMatrix in="shadowBlurOuter1" values="0 0 0 0 0.0415817482   0 0 0 0 0.0415817482   0 0 0 0 0.0415817482  0 0 0 0.1 0"/>
    </filter>
    <linearGradient id="img-illustration-g" x1="93.486%" x2="12.574%" y1="108.696%" y2="0%">
      <stop offset="0%" stop-color="#1E85E9"/>
      <stop offset="20.276%" stop-color="#8671F3"/>
      <stop offset="70.727%" stop-color="#CFA9FC"/>
      <stop offset="100%" stop-color="#F4D9FB"/>
    </linearGradient>
  </defs>
  <g fill="none" fill-rule="evenodd">
    <circle cx="545" cy="565" r="234" stroke="url(#img-illustration-a)" stroke-linecap="square"/>
    <g transform="translate(362 394)">
      <path fill="url(#img-illustration-b)" fill-rule="nonzero" d="M46.634196,171.235572 C46.634196,239.072666 101.077099,294.19394 168.653093,295.289582 L170.704828,295.306204 L170.704828,296.235572 C102.35959,296.235572 46.8254232,241.384857 45.7215744,173.302675 L45.704828,171.235572 L46.634196,171.235572 Z M171.295172,46.7644284 C239.64041,46.7644284 295.174577,101.615143 296.278426,169.697325 L296.295172,171.764428 L295.365804,171.764428 C295.365804,103.927334 240.922901,48.8060601 173.346907,47.7104184 L171.295172,47.6937964 L171.295172,46.7644284 Z" opacity=".4" transform="rotate(-60 171 171.5)"/>
      <use fill="#000" filter="url(#img-illustration-c)" xlink:href="#img-illustration-d"/>
      <use fill="#FFF" xlink:href="#img-illustration-d"/>
      <path fill="#5055FE" fill-rule="nonzero" d="M324.462407,85.4139329 L326.396815,85.5741375 C329.800667,85.876839 332.405156,86.5083195 333.059674,91.9954776 L333.040801,91.9927365 C334.791165,92.1256304 336.176374,93.5161851 336.176374,95.2238432 C336.176374,95.9207172 335.944256,96.5890611 335.513407,97.1448568 L335.513407,97.1448568 L335.445359,97.2326707 L335.312354,97.3804809 C335.232036,97.4662373 335.149014,97.5459024 335.067976,97.615248 L335.067976,97.615248 L330.842316,101.883153 L326.253055,97.3044655 L326.218841,97.2050251 L326.094162,97.0420475 C325.755359,96.5674644 325.555681,96.0174157 325.515491,95.4410977 L325.515491,95.4410977 L325.507935,95.2238432 C325.507935,93.4276784 327.040454,91.9823394 328.918469,91.9823394 C329.566445,91.9823394 330.223494,92.3600345 330.868894,93.045891 L330.842155,93.0181478 L330.977082,92.8809017 C331.369975,92.4959329 331.766611,92.2266945 332.16229,92.0887882 L332.09828,92.1122378 L332.09828,92.1122378 C331.844283,89.9544701 331.269297,88.5941128 330.402336,87.8044061 C329.511694,86.993129 328.474446,86.7228735 325.873389,86.5035767 L325.219887,86.4502689 L325.173584,86.5631609 C324.351703,88.3797272 321.676172,89.5626715 318.608088,89.5626715 C315.540386,89.5626715 312.864676,88.3794466 312.04359,86.5626793 L311.996842,86.4502689 L311.648045,86.4790722 C308.821554,86.7040364 307.739183,86.9632901 306.815098,87.8057188 C305.609983,88.9043448 304.969858,91.1071493 304.969858,95.024167 C304.969858,98.2801647 306.378626,99.0410935 311.496525,99.0929922 L325.114663,99.0959355 C326.211458,99.0959355 327.151979,99.0696175 327.955433,99.0020728 L328.845918,99.8915329 C327.739046,100.045151 326.474339,100.065794 325.114663,100.065794 L323.575679,100.062061 L313.122172,100.063028 L311.615633,100.06469 C307.262902,100.043054 304,99.6574156 304,95.024167 C304,85.4139329 307.845327,85.8629544 312.755367,85.4139329 C312.793735,87.1732227 315.39903,88.5928134 318.608088,88.5928134 C321.818211,88.5928134 324.422973,87.1732227 324.462407,85.4139329 Z M332.76584,92.9521975 C332.433827,92.9521975 332.001444,93.2007621 331.52194,93.710452 L331.52194,93.710452 L330.84231,94.432868 L330.162586,93.7105363 C329.68287,93.2007496 329.250482,92.9521975 328.918469,92.9521975 C327.563803,92.9521975 326.477793,93.9764282 326.477793,95.2238432 C326.477793,95.7253295 326.652078,96.2045918 326.977486,96.6012098 L326.977486,96.6012098 L327.026942,96.6614879 L327.082015,96.7618 L330.837305,100.508362 L334.381157,96.929596 L334.515827,96.8068477 C334.577894,96.7472803 334.638404,96.6826112 334.700773,96.6089177 L334.700773,96.6089177 L334.717707,96.5901351 L334.729228,96.5734392 L334.746889,96.5506565 C335.046869,96.1636813 335.206516,95.7040055 335.206516,95.2238432 C335.206516,93.9764282 334.120506,92.9521975 332.76584,92.9521975 Z M318.609153,67.5 C323.050784,67.5 326.650449,71.1028379 326.649916,75.5471912 C326.649916,77.9090872 325.632098,80.9045194 324.011583,83.1922895 C323.497345,83.9186165 322.921825,84.5702843 322.298877,85.11103 C321.838461,85.5104565 321.353532,85.846956 320.847287,86.1039969 C320.136413,86.4650272 319.385573,86.6735396 318.608621,86.6735396 C317.832201,86.6735396 317.082959,86.4660938 316.373151,86.1055967 C315.865841,85.8474893 315.379313,85.5104565 314.918897,85.1104967 C314.296482,84.5697511 313.720429,83.9180832 313.206191,83.1922895 C311.585676,80.9045194 310.56839,77.9096204 310.56839,75.5471912 C310.56839,71.1028379 314.168056,67.5 318.609153,67.5 Z M318.609153,68.4698581 C314.703975,68.4698581 311.538249,71.6381951 311.538249,75.5471912 C311.538249,77.7173488 312.500271,80.5178064 313.99755,82.6315974 C314.47693,83.3081924 315.002728,83.8985718 315.554933,84.3783199 C315.965992,84.7354037 316.387541,85.0247504 316.812327,85.2408719 C317.41705,85.5479984 318.016323,85.7036815 318.608621,85.7036815 C319.200762,85.7036815 319.801574,85.5473131 320.408207,85.2392234 C320.830854,85.0246287 321.250729,84.7363744 321.663112,84.3786183 C322.215039,83.8995214 322.740205,83.309592 323.220157,82.631692 C324.717611,80.517654 325.680058,77.7166357 325.680058,75.5470749 C325.680527,71.6381502 322.514846,68.4698581 318.609153,68.4698581 Z"/>
      <use fill="#000" filter="url(#img-illustration-e)" xlink:href="#img-illustration-f"/>
      <use fill="#FFF" xlink:href="#img-illustration-f"/>
      <path fill="#5055FE" fill-rule="nonzero" d="M33.5357644,245.5 L33.5357642,248.998095 C33.5358162,249.072096 33.587509,249.136025 33.6600604,249.151608 C35.1503009,249.472316 36.5694569,250.062442 37.8453602,250.891434 C37.9074173,250.931278 37.9888365,250.922587 38.0403713,250.871255 L38.0403713,250.871255 L40.5185844,248.393042 L44.1037727,251.979075 L41.6286495,254.459724 C41.5762761,254.51207 41.5675712,254.593883 41.6070727,254.655021 C42.4374545,255.933307 43.02756,257.352416 43.348435,258.842833 C43.3639751,258.915184 43.427904,258.966877 43.5015428,258.966928 L43.5015428,258.966928 L47,258.966928 L47,264.035764 L43.5019048,264.035764 C43.427904,264.035816 43.3639751,264.087509 43.3483828,264.160102 C43.02756,265.650277 42.4374545,267.069386 41.6085658,268.34536 C41.568722,268.407417 41.5774128,268.488836 41.6287452,268.540371 L41.6287452,268.540371 L44.1069583,271.018584 L40.5209248,274.603773 L38.0402756,272.12865 C37.9879297,272.076276 37.9061165,272.067571 37.8450149,272.10705 C36.566764,272.937558 35.1476081,273.527684 33.6571668,273.848435 C33.5848161,273.863975 33.5331233,273.927904 33.5330715,274.001543 L33.5330715,274.001543 L33.5330715,277.5 L28.4642356,277.5 L28.4642358,274.001905 C28.4641838,273.927904 28.412491,273.863975 28.3399693,273.848398 C26.8498586,273.52781 25.4308642,272.937653 24.1549992,272.108364 C24.0929077,272.068435 24.0113902,272.077129 23.9596869,272.128687 L23.9596869,272.128687 L21.4823619,274.606801 L17.8931453,271.020965 L20.3706773,268.540276 C20.4230507,268.48793 20.4317556,268.406117 20.392118,268.34477 C19.5630086,267.067089 18.9732639,265.649227 18.651565,264.15986 C18.6360249,264.087509 18.572096,264.035816 18.4984572,264.035764 L18.4984572,264.035764 L15,264.035764 L15,258.964236 L18.4980952,258.964236 C18.572096,258.964184 18.6360249,258.912491 18.6516532,258.839731 C18.972903,257.349969 19.5626588,255.93113 20.390761,254.65464 C20.4306048,254.592583 20.421914,254.511164 20.3702912,254.459338 L20.3702912,254.459338 L17.8933322,251.978432 L21.4793077,248.393302 L23.9599269,250.871553 C24.012297,250.924009 24.094209,250.932718 24.1555814,250.893 C25.4335571,250.062347 26.8525514,249.47219 28.3407686,249.152013 C28.4128695,249.136217 28.4642479,249.072354 28.4642356,248.998457 L28.4642356,248.998457 L28.4642356,245.5 L33.5357644,245.5 Z M32.5029677,246.532258 L29.496,246.532258 L29.4964937,248.998371 C29.4965795,249.514236 29.1651238,249.965927 28.6832702,250.126753 L28.6832702,250.126753 L28.5597783,250.160768 C27.192603,250.454908 25.8906769,250.996377 24.7172793,251.759055 C24.2461208,252.063974 23.6259303,251.998038 23.2298864,251.601346 L23.2298864,251.601346 L21.4794839,249.852 L19.352,251.978452 L21.1012109,253.730426 C21.4624278,254.093058 21.547821,254.641274 21.3261623,255.093613 L21.3261623,255.093613 L21.2580736,255.214389 C20.496834,256.387823 19.9555587,257.690027 19.6608052,259.056914 C19.5431441,259.604712 19.0591107,259.996101 18.4984572,259.996494 L18.4984572,259.996494 L16.0322581,259.996 L16.0322581,263.002968 L18.4988193,263.003506 C19.0160114,263.003869 19.4682262,263.337388 19.6271824,263.819096 L19.6271824,263.819096 L19.6606798,263.942503 C19.9558184,265.308904 20.4970834,266.61021 21.258585,267.783708 C21.5628528,268.254607 21.4969441,268.87405 21.1007307,269.270055 L21.1007307,269.270055 L19.352,271.019484 L21.4805161,273.146968 L23.2302238,271.398318 C23.5930246,271.036532 24.1418805,270.951069 24.5945762,271.173253 L24.5945762,271.173253 L24.7154424,271.2415 C25.887984,272.003623 27.1899102,272.545092 28.5569143,272.839195 C29.1047122,272.956856 29.4961006,273.440889 29.4964937,274.001543 L29.4964937,274.001543 L29.496,276.467742 L32.499871,276.467742 L32.5008136,274.001181 C32.5011764,273.483989 32.8346949,273.031774 33.3167033,272.872753 L33.3167033,272.872753 L33.440192,272.839238 C34.8075789,272.544969 36.1097414,272.003493 37.2837075,271.240742 C37.7546073,270.936474 38.3740498,271.002383 38.7698807,271.398422 L38.7698807,271.398422 L40.5205161,273.143871 L42.6469677,271.018452 L40.8981159,269.269574 C40.536899,268.906942 40.4515058,268.358726 40.673298,267.906181 L40.673298,267.906181 L40.7414266,267.785343 C41.5033821,266.612392 42.0448609,265.310223 42.3391948,263.943086 C42.4568559,263.395288 42.9408893,263.003899 43.5015428,263.003506 L43.5015428,263.003506 L45.9677419,263.002968 L45.9677419,259.999097 L43.5011807,259.999186 C42.9839886,259.998824 42.5317738,259.665305 42.3727599,259.18333 L42.3727599,259.18333 L42.3392469,259.05985 C42.0448609,257.69247 41.5033821,256.390301 40.7407418,255.216292 C40.436474,254.745393 40.5023827,254.12595 40.8984217,253.730119 L40.8984217,253.730119 L42.643871,251.978452 L40.5184516,249.853032 L38.7695739,251.601884 C38.4069423,251.963101 37.8587261,252.048494 37.4061539,251.826684 L37.4061539,251.826684 L37.2853077,251.75855 C36.1124342,250.996507 34.8102717,250.455031 33.4430857,250.160805 C32.8952878,250.043144 32.5038994,249.559111 32.5035063,248.998457 L32.5035063,248.998457 L32.5029677,246.532258 Z M31.0000002,255.306452 C34.4206026,255.306452 37.1935484,258.079398 37.1935484,261.500625 C37.1897562,264.91931 34.41931,267.689756 31.0000002,267.693548 C27.5793978,267.693548 24.8064516,264.920602 24.8064516,261.5 C24.8064516,258.079398 27.5793978,255.306452 31.0000002,255.306452 Z M31,256.33871 C28.1494981,256.33871 25.8387097,258.649498 25.8387097,261.5 C25.8387097,264.350502 28.1494981,266.66129 30.9993639,266.66129 C33.848907,266.658129 36.1581298,264.348907 36.1612903,261.5 C36.1612903,258.649498 33.8505019,256.33871 31,256.33871 Z"/>
      <path fill="url(#img-illustration-g)" fill-rule="nonzero" d="M165.924012,88.1713867 L242.429691,112.211433 C245.15671,143.057379 242.682304,169.421281 235.006475,191.303142 C221.305305,221.847565 198.284939,246.803647 165.945375,266.171387 C133.587814,246.808125 110.553205,221.852043 96.8415487,191.303142 C89.6387125,171.434693 87.7373706,145.07079 91.1375231,112.211433 L165.924012,88.1713867 Z M165.985,107.058 L108.054,125.68 L108.025841,126.121807 C106.48978,150.145931 108.347728,169.4711 113.351274,184.000787 L113.539,184.542 L113.634014,184.751273 C124.33311,208.176917 141.321202,227.92469 164.90576,244.132983 L165.941,244.839 L166.129051,244.712461 C189.853481,228.588237 206.982601,208.930162 217.82349,185.59981 L218.268,184.631 L218.292622,184.561594 C223.851112,168.320287 226.234953,148.866836 225.307027,126.178344 L225.286,125.692 L165.985,107.058 Z M198.311341,151.496932 C199.798341,153.02964 199.812089,155.44709 198.379122,156.996069 L198.225725,157.153138 L162.8434,191.480286 C161.318276,192.959928 158.915218,192.981883 157.364119,191.566276 L157.20677,191.414707 L142.586653,176.554844 C141.037311,174.980095 141.057907,172.447519 142.632656,170.898177 C144.154913,169.400479 146.572207,169.369802 148.131184,170.791886 L148.289323,170.94418 L160.123,182.972 L192.655135,151.411315 C194.240695,149.873039 196.773065,149.911371 198.311341,151.496932 Z"/>
      <path fill="#E3E0E0" fill-rule="nonzero" d="M245.185958,123.996887 C268.662294,125.507605 283.679759,132.091462 286.5465,142.790286 C292.380563,164.563307 245.762695,195.718401 182.510978,212.666648 C119.259261,229.614894 63.3094554,225.942725 57.4753919,204.169704 C54.3165294,192.380669 66.4584041,177.551208 89.9995721,163.348302 L89.9998993,164.435887 L89.9226944,164.483414 C67.0778542,178.384163 55.3926307,192.775056 58.3808113,203.927098 C64.0117644,224.942101 119.50945,228.584596 182.270163,211.767913 C245.030876,194.951231 291.272034,164.047895 285.64108,143.032892 L285.555623,142.728449 C282.64716,132.820136 268.299178,126.526461 245.812854,124.971951 L245.196454,124.930099 L243.999899,125.232887 L243.999899,124.272887 L245.039824,124.010365 L245.185958,123.996887 Z" opacity=".499"/>
      <g fill="#5055FE" transform="translate(225 57.5)">
        <circle cx="6" cy="6" r="6" opacity=".103"/>
        <circle cx="6" cy="6" r="2.571"/>
      </g>
      <g fill="#5055FE" transform="translate(103 273.5)">
        <circle cx="6" cy="6" r="6" opacity=".103"/>
        <circle cx="6" cy="6" r="2.571"/>
      </g>
      <g fill="#5055FE" transform="translate(262 167.5)">
        <circle cx="6" cy="6" r="6" opacity=".103"/>
        <circle cx="6" cy="6" r="2.571"/>
      </g>
    </g>
    <circle cx="565" cy="565" r="395.5" stroke="#E3E0E0" opacity=".5"/>
    <circle cx="565" cy="565" r="564.5" stroke="#E3E0E0" opacity=".2"/>
    <g fill="#5055FE" transform="translate(178 459)">
      <circle cx="7" cy="7" r="7" opacity=".103"/>
      <circle cx="7" cy="7" r="3"/>
    </g>
    <g fill="#5055FE" transform="translate(169 631)">
      <circle cx="7" cy="7" r="7" opacity=".103"/>
      <circle cx="7" cy="7" r="3"/>
    </g>
  </g>
</svg>
