<svg xmlns="http://www.w3.org/2000/svg" xmlns:xlink="http://www.w3.org/1999/xlink" width="508" height="287" viewBox="0 0 508 287">
  <defs>
    <linearGradient id="img-business-analysis-a" x1="57.986%" x2="-50.821%" y1="101.421%" y2="16.893%">
      <stop offset="0%" stop-color="#E3E0E0"/>
      <stop offset="100%" stop-color="#FFF"/>
      <stop offset="100%" stop-color="#FFF"/>
    </linearGradient>
    <linearGradient id="img-business-analysis-b" x1="100%" x2="0%" y1="100%" y2="0%">
      <stop offset="0%" stop-color="#1E85E9"/>
      <stop offset="20.276%" stop-color="#8671F3"/>
      <stop offset="70.727%" stop-color="#C06CFD" stop-opacity=".99"/>
      <stop offset="100%" stop-color="#FFBEE8"/>
    </linearGradient>
    <linearGradient id="img-business-analysis-e" x1="65.635%" x2="29.136%" y1="112.103%" y2="0%">
      <stop offset="0%" stop-color="#1E85E9"/>
      <stop offset="20.276%" stop-color="#8671F3"/>
      <stop offset="70.727%" stop-color="#C06CFD" stop-opacity=".99"/>
      <stop offset="100%" stop-color="#FFBEE8"/>
    </linearGradient>
    <path id="img-business-analysis-d" d="M232.465716,85 C265.974988,85 295.868648,100.850999 315.385393,125.629775 C317.174703,126.911259 318.788271,128.494035 320.148686,130.366487 C354.711476,177.938085 343.242211,245.192153 294.531368,280.582653 C284.710633,287.717834 271.100428,285.726961 264.132123,276.135913 C257.233502,266.640775 259.430852,253.256366 269.004538,246.066368 L269.296905,245.850396 C285.616163,233.993761 294.931075,216.144271 296.313496,197.744437 C296.128676,196.649727 296.025222,195.527069 296.007109,194.383169 L296.004234,194.019694 C296.004234,158.447288 268.123169,129.542802 233.516441,128.96827 L232.465716,128.959554 C220.610528,128.959554 211,119.118873 211,106.979777 C211,94.8406813 220.610528,85 232.465716,85 Z"/>
    <filter id="img-business-analysis-c" width="108.5%" height="105.5%" x="-3.5%" y="-1.8%" filterUnits="objectBoundingBox">
      <feOffset dx="1" dy="2" in="SourceAlpha" result="shadowOffsetOuter1"/>
      <feGaussianBlur in="shadowOffsetOuter1" result="shadowBlurOuter1" stdDeviation="1.5"/>
      <feComposite in="shadowBlurOuter1" in2="SourceAlpha" operator="out" result="shadowBlurOuter1"/>
      <feColorMatrix in="shadowBlurOuter1" values="0 0 0 0 0.149991549   0 0 0 0 0.0501386187   0 0 0 0 0.299450861  0 0 0 0.362188593 0"/>
    </filter>
    <linearGradient id="img-business-analysis-h" x1="83.079%" x2="30.987%" y1="154.903%" y2="-14.944%">
      <stop offset="0%" stop-color="#1E85E9"/>
      <stop offset="34.645%" stop-color="#8671F3"/>
      <stop offset="70.727%" stop-color="#C06CFD" stop-opacity=".99"/>
      <stop offset="100%" stop-color="#FFBEE8"/>
    </linearGradient>
    <path id="img-business-analysis-g" d="M280.465716,32 C313.974988,32 343.868648,47.8509993 363.385393,72.6297754 C365.174703,73.9112593 366.788271,75.4940349 368.148686,77.3664866 C402.711476,124.938085 391.242211,192.192153 342.531368,227.582653 C332.710633,234.717834 319.100428,232.726961 312.132123,223.135913 C305.233502,213.640775 307.430852,200.256366 317.004538,193.066368 L317.296905,192.850396 C333.616163,180.993761 342.931075,163.144271 344.313496,144.744437 C344.128676,143.649727 344.025222,142.527069 344.007109,141.383169 L344.004234,141.019694 C344.004234,105.447288 316.123169,76.5428025 281.516441,75.96827 L280.465716,75.9595538 C268.610528,75.9595538 259,66.1188725 259,53.9797769 C259,41.8406813 268.610528,32 280.465716,32 Z"/>
    <filter id="img-business-analysis-f" width="108.5%" height="105.5%" x="-3.5%" y="-1.8%" filterUnits="objectBoundingBox">
      <feOffset dx="1" dy="2" in="SourceAlpha" result="shadowOffsetOuter1"/>
      <feGaussianBlur in="shadowOffsetOuter1" result="shadowBlurOuter1" stdDeviation="1.5"/>
      <feComposite in="shadowBlurOuter1" in2="SourceAlpha" operator="out" result="shadowBlurOuter1"/>
      <feColorMatrix in="shadowBlurOuter1" values="0 0 0 0 0.149991549   0 0 0 0 0.0501386187   0 0 0 0 0.299450861  0 0 0 0.362188593 0"/>
    </filter>
  </defs>
  <g fill="none" fill-rule="evenodd" transform="translate(0 1)">
    <circle cx="278.5" cy="142.5" r="142.5" stroke="url(#img-business-analysis-a)" opacity=".6"/>
    <path fill="#000" fill-rule="nonzero" d="M117.892 42.971223C118.162 42.971223 118.396 42.737223 118.396 42.467223 118.396 42.323223 118.342 42.161223 118.252 42.017223L115.372 37.463223C116.902 36.941223 117.928 35.789223 117.928 33.935223 117.928 31.235223 115.858 30.461223 113.446 30.461223 112.492 30.461223 111.772 30.497223 110.89 30.641223 110.53 30.695223 110.368 30.929223 110.368 31.271223L110.368 42.395223C110.368 42.701223 110.548 42.971223 110.908 42.971223 111.268 42.971223 111.448 42.701223 111.448 42.395223L111.448 37.697223C112.06 37.787223 112.654 37.805223 113.14 37.805223 113.518 37.805223 113.896 37.787223 114.238 37.733223L117.298 42.557223C117.442 42.809223 117.658 42.971223 117.892 42.971223zM113.068 36.869223C112.654 36.869223 112.024 36.833223 111.448 36.761223L111.448 31.541223C112.078 31.487223 112.564 31.433223 113.338 31.433223 115.354 31.433223 116.812 31.973223 116.812 33.953223 116.812 35.951223 115.678 36.869223 113.068 36.869223zM124.75 43.151223C125.74 43.151223 126.748 42.935223 127.486 42.449223 127.72 42.287223 127.846 42.017223 127.702 41.765223 127.558 41.513223 127.306 41.513223 126.982 41.675223 126.316 41.999223 125.614 42.215223 124.75 42.215223 122.878 42.215223 121.762 41.099223 121.618 39.047223L127.126 39.047223C127.774 39.047223 128.008 38.705223 128.08 38.165223 128.116 37.931223 128.134 37.661223 128.134 37.391223 128.134 35.663223 127.072 33.971223 124.696 33.971223 122.086 33.971223 120.592 35.969223 120.592 38.615223 120.592 41.423223 121.942 43.151223 124.75 43.151223zM127.144 38.147223L121.618 38.147223C121.762 36.059223 122.878 34.907223 124.624 34.907223 126.352 34.907223 127.144 35.987223 127.18 37.463223 127.18 37.679223 127.18 37.913223 127.144 38.147223zM133.318 43.151223C133.642 43.151223 133.786 42.935223 133.894 42.683223L136.936 34.961223C136.972 34.853223 137.008 34.745223 137.008 34.619223 137.008 34.403223 136.864 34.169223 136.54 34.169223 136.288 34.169223 136.126 34.367223 136.018 34.637223L133.372 41.549223 130.636 34.619223C130.528 34.331223 130.366 34.169223 130.132 34.169223 129.754 34.169223 129.61 34.421223 129.61 34.673223 129.61 34.817223 129.646 34.943223 129.7 35.069223L132.796 42.755223C132.904 43.007223 133.048 43.151223 133.318 43.151223zM139.438 32.603223C139.906 32.603223 140.212 32.315223 140.212 31.847223 140.212 31.379223 139.906 31.073223 139.438 31.073223 138.97 31.073223 138.682 31.379223 138.682 31.847223 138.682 32.315223 138.97 32.603223 139.438 32.603223zM139.438 42.971223C139.78 42.971223 139.942 42.701223 139.942 42.395223L139.942 34.727223C139.942 34.421223 139.78 34.151223 139.438 34.151223 139.096 34.151223 138.934 34.421223 138.934 34.727223L138.934 42.395223C138.934 42.701223 139.096 42.971223 139.438 42.971223zM146.386 43.151223C147.376 43.151223 148.384 42.935223 149.122 42.449223 149.356 42.287223 149.482 42.017223 149.338 41.765223 149.194 41.513223 148.942 41.513223 148.618 41.675223 147.952 41.999223 147.25 42.215223 146.386 42.215223 144.514 42.215223 143.398 41.099223 143.254 39.047223L148.762 39.047223C149.41 39.047223 149.644 38.705223 149.716 38.165223 149.752 37.931223 149.77 37.661223 149.77 37.391223 149.77 35.663223 148.708 33.971223 146.332 33.971223 143.722 33.971223 142.228 35.969223 142.228 38.615223 142.228 41.423223 143.578 43.151223 146.386 43.151223zM148.78 38.147223L143.254 38.147223C143.398 36.059223 144.514 34.907223 146.26 34.907223 147.988 34.907223 148.78 35.987223 148.816 37.463223 148.816 37.679223 148.816 37.913223 148.78 38.147223zM159.454 43.151223C159.742 43.151223 159.94 42.989223 160.03 42.701223L162.388 34.925223C162.424 34.835223 162.442 34.727223 162.442 34.637223 162.442 34.367223 162.298 34.151223 161.956 34.151223 161.704 34.151223 161.542 34.331223 161.452 34.655223L159.49 41.603223 157.384 35.843223C157.294 35.591223 157.15 35.411223 156.88 35.411223 156.592 35.411223 156.448 35.609223 156.376 35.843223L154.414 41.531223 152.326 34.763223C152.2 34.349223 152.002 34.151223 151.768 34.151223 151.372 34.151223 151.246 34.439223 151.246 34.673223 151.246 34.817223 151.282 34.979223 151.318 35.087223L153.802 42.755223C153.892 43.025223 154.108 43.151223 154.342 43.151223 154.63 43.151223 154.81 42.971223 154.9 42.701223L156.826 37.157223 158.914 42.755223C159.004 43.025223 159.184 43.151223 159.454 43.151223zM399.768 43.151223C401.28 43.151223 402.666 42.629223 403.422 42.071223 403.746 41.819223 403.98 41.513223 403.746 41.207223 403.512 40.919223 403.206 41.045223 402.9 41.243223 402.018 41.819223 401.064 42.179223 399.858 42.179223 397.122 42.179223 395.214 40.181223 395.214 36.797223 395.214 33.737223 396.888 31.343223 399.93 31.343223 401.01 31.343223 401.91 31.613223 402.702 32.099223 403.08 32.333223 403.404 32.387223 403.584 32.099223 403.764 31.811223 403.62 31.523223 403.278 31.289223 402.486 30.749223 401.406 30.371223 399.966 30.371223 396.312 30.371223 394.098 33.017223 394.098 36.779223 394.098 40.487223 395.79 43.151223 399.768 43.151223zM409.974 43.151223C412.746 43.151223 414.258 41.099223 414.258 38.561223 414.258 36.023223 412.746 33.971223 409.974 33.971223 407.202 33.971223 405.69 36.023223 405.69 38.561223 405.69 41.099223 407.202 43.151223 409.974 43.151223zM409.974 42.215223C407.958 42.215223 406.734 40.793223 406.734 38.561223 406.734 36.329223 407.958 34.907223 409.974 34.907223 411.99 34.907223 413.214 36.329223 413.214 38.561223 413.214 40.793223 411.99 42.215223 409.974 42.215223zM423.402 42.971223C423.744 42.971223 423.906 42.701223 423.906 42.395223L423.906 37.787223C423.906 35.447223 423.132 33.971223 420.72 33.971223 419.496 33.971223 418.164 34.619223 417.552 36.185223L417.552 34.727223C417.552 34.421223 417.39 34.151223 417.048 34.151223 416.706 34.151223 416.544 34.421223 416.544 34.727223L416.544 42.395223C416.544 42.701223 416.706 42.971223 417.048 42.971223 417.39 42.971223 417.552 42.701223 417.552 42.395223L417.552 39.821223C417.552 37.229223 418.272 34.907223 420.63 34.907223 422.376 34.907223 422.898 36.077223 422.898 37.823223L422.898 42.395223C422.898 42.701223 423.06 42.971223 423.402 42.971223zM429.09 43.151223C431.286 43.151223 432.528 42.071223 432.528 40.541223 432.528 37.211223 427.398 38.579223 427.398 36.239223 427.398 35.429223 428.01 34.907223 429.306 34.907223 430.188 34.907223 430.854 35.177223 431.466 35.447223 431.754 35.573223 432.042 35.591223 432.168 35.321223 432.33 34.997223 432.132 34.745223 431.808 34.565223 431.214 34.223223 430.296 33.971223 429.324 33.971223 427.542 33.971223 426.354 34.817223 426.354 36.347223 426.354 39.587223 431.484 38.237223 431.484 40.631223 431.484 41.603223 430.548 42.215223 429.234 42.215223 428.388 42.215223 427.686 42.053223 426.858 41.657223 426.588 41.531223 426.264 41.423223 426.084 41.729223 425.922 41.999223 426.066 42.269223 426.354 42.467223 427.02 42.917223 428.172 43.151223 429.09 43.151223zM437.82 43.151223C439.044 43.151223 440.376 42.503223 440.988 40.937223L440.988 42.395223C440.988 42.701223 441.15 42.971223 441.492 42.971223 441.834 42.971223 441.996 42.701223 441.996 42.395223L441.996 34.727223C441.996 34.421223 441.834 34.151223 441.492 34.151223 441.15 34.151223 440.988 34.421223 440.988 34.727223L440.988 37.301223C440.988 39.893223 440.268 42.215223 437.91 42.215223 436.164 42.215223 435.642 41.045223 435.642 39.299223L435.642 34.727223C435.642 34.421223 435.48 34.151223 435.138 34.151223 434.796 34.151223 434.634 34.421223 434.634 34.727223L434.634 39.335223C434.634 41.675223 435.408 43.151223 437.82 43.151223zM445.092 42.971223C445.434 42.971223 445.596 42.701223 445.596 42.395223L445.596 31.127223C445.596 30.821223 445.434 30.551223 445.092 30.551223 444.75 30.551223 444.588 30.821223 444.588 31.127223L444.588 42.395223C444.588 42.701223 444.75 42.971223 445.092 42.971223zM451.374 43.151223C451.986 43.151223 452.58 43.025223 453.03 42.755223 453.3 42.593223 453.48 42.305223 453.318 42.017223 453.156 41.729223 452.76 41.891223 452.508 41.999223 452.274 42.089223 451.932 42.215223 451.59 42.215223 450.384 42.215223 450.06 41.549223 450.06 39.965223L450.06 35.087223 452.364 35.087223C452.652 35.087223 452.85 34.907223 452.85 34.619223 452.85 34.349223 452.652 34.151223 452.364 34.151223L450.06 34.151223 450.06 32.567223C450.06 32.261223 449.898 31.991223 449.556 31.991223 449.214 31.991223 449.052 32.261223 449.052 32.567223L449.052 34.151223 447.846 34.151223C447.558 34.151223 447.36 34.349223 447.36 34.619223 447.36 34.907223 447.558 35.087223 447.846 35.087223L449.052 35.087223 449.052 40.199223C449.052 42.269223 449.646 43.151223 451.374 43.151223zM455.352 32.603223C455.82 32.603223 456.126 32.315223 456.126 31.847223 456.126 31.379223 455.82 31.073223 455.352 31.073223 454.884 31.073223 454.596 31.379223 454.596 31.847223 454.596 32.315223 454.884 32.603223 455.352 32.603223zM455.352 42.971223C455.694 42.971223 455.856 42.701223 455.856 42.395223L455.856 34.727223C455.856 34.421223 455.694 34.151223 455.352 34.151223 455.01 34.151223 454.848 34.421223 454.848 34.727223L454.848 42.395223C454.848 42.701223 455.01 42.971223 455.352 42.971223zM465.45 42.971223C465.792 42.971223 465.954 42.701223 465.954 42.395223L465.954 37.787223C465.954 35.447223 465.18 33.971223 462.768 33.971223 461.544 33.971223 460.212 34.619223 459.6 36.185223L459.6 34.727223C459.6 34.421223 459.438 34.151223 459.096 34.151223 458.754 34.151223 458.592 34.421223 458.592 34.727223L458.592 42.395223C458.592 42.701223 458.754 42.971223 459.096 42.971223 459.438 42.971223 459.6 42.701223 459.6 42.395223L459.6 39.821223C459.6 37.229223 460.32 34.907223 462.678 34.907223 464.424 34.907223 464.946 36.077223 464.946 37.823223L464.946 42.395223C464.946 42.701223 465.108 42.971223 465.45 42.971223zM471.786 46.751223C474.774 46.751223 476.268 45.545223 476.268 43.907223 476.268 42.125223 474.576 41.837223 472.398 41.765223 469.986 41.693223 469.356 41.207223 469.356 40.595223 469.356 40.145223 469.644 39.803223 470.076 39.515223 470.598 39.785223 471.246 39.929223 472.038 39.929223 474.324 39.929223 475.476 38.615223 475.476 36.959223 475.476 36.185223 475.224 35.483223 474.72 34.943223L476.142 34.943223C476.43 34.943223 476.628 34.817223 476.628 34.529223 476.628 34.259223 476.43 34.151223 476.142 34.151223L473.37 34.151223C472.974 34.043223 472.524 33.971223 472.038 33.971223 469.752 33.971223 468.6 35.267223 468.6 36.959223 468.6 37.769223 468.852 38.489223 469.392 39.011223 468.744 39.497223 468.384 40.055223 468.384 40.757223 468.384 41.279223 468.636 41.801223 469.32 42.179223 468.366 42.701223 467.88 43.439223 467.88 44.267223 467.88 45.401223 468.51 46.751223 471.786 46.751223zM472.038 39.047223C470.364 39.047223 469.608 38.129223 469.608 36.959223 469.608 35.789223 470.364 34.853223 472.038 34.853223 473.712 34.853223 474.468 35.789223 474.468 36.959223 474.468 38.129223 473.712 39.047223 472.038 39.047223zM471.768 45.869223C469.464 45.869223 468.852 45.005223 468.852 44.249223 468.852 43.439223 469.428 42.845223 470.238 42.503223 470.724 42.611223 471.336 42.701223 472.092 42.719223 474.45 42.809223 475.296 43.133223 475.296 44.033223 475.296 44.933223 474.288 45.869223 471.768 45.869223zM446.188 145.971223C446.53 145.971223 446.692 145.719223 446.692 145.449223 446.692 145.341223 446.674 145.233223 446.638 145.125223L442.12 133.803223C442.012 133.551223 441.85 133.371223 441.562 133.371223 441.292 133.371223 441.094 133.515223 440.95 133.875223L436.558 145.107223C436.504 145.251223 436.468 145.377223 436.468 145.503223 436.468 145.737223 436.648 145.971223 436.972 145.971223 437.26 145.971223 437.422 145.719223 437.53 145.431223L438.808 142.011223 444.262 142.011223 445.648 145.557223C445.756 145.827223 445.954 145.971223 446.188 145.971223zM443.902 141.039223L439.186 141.039223 441.508 134.991223 443.902 141.039223zM451.552 146.151223C453.118 146.151223 454.252 145.395223 454.828 143.937223L454.828 145.395223C454.828 145.701223 454.99 145.971223 455.332 145.971223 455.674 145.971223 455.836 145.701223 455.836 145.395223L455.836 134.127223C455.836 133.821223 455.674 133.551223 455.332 133.551223 454.99 133.551223 454.828 133.821223 454.828 134.127223L454.828 137.529223C454.144 137.151223 453.28 136.971223 452.326 136.971223 449.356 136.971223 448.096 139.221223 448.096 141.831223 448.096 144.351223 449.23 146.151223 451.552 146.151223zM451.696 145.215223C449.896 145.215223 449.14 143.793223 449.14 141.831223 449.14 139.743223 449.914 137.907223 452.308 137.907223 453.262 137.907223 454.054 138.087223 454.828 138.537223L454.828 140.301223C454.828 142.533223 454.324 145.215223 451.696 145.215223zM462.406 146.151223C465.178 146.151223 466.69 144.099223 466.69 141.561223 466.69 139.023223 465.178 136.971223 462.406 136.971223 459.634 136.971223 458.122 139.023223 458.122 141.561223 458.122 144.099223 459.634 146.151223 462.406 146.151223zM462.406 145.215223C460.39 145.215223 459.166 143.793223 459.166 141.561223 459.166 139.329223 460.39 137.907223 462.406 137.907223 464.422 137.907223 465.646 139.329223 465.646 141.561223 465.646 143.793223 464.422 145.215223 462.406 145.215223zM469.48 149.571223C469.822 149.571223 469.984 149.301223 469.984 148.995223L469.984 145.593223C470.668 145.971223 471.532 146.151223 472.486 146.151223 475.456 146.151223 476.716 143.901223 476.716 141.291223 476.716 138.771223 475.582 136.971223 473.26 136.971223 471.694 136.971223 470.56 137.727223 469.984 139.185223L469.984 137.727223C469.984 137.421223 469.822 137.151223 469.48 137.151223 469.138 137.151223 468.976 137.421223 468.976 137.727223L468.976 148.995223C468.976 149.301223 469.138 149.571223 469.48 149.571223zM472.504 145.215223C471.55 145.215223 470.758 145.035223 469.984 144.585223L469.984 142.821223C469.984 140.589223 470.488 137.907223 473.116 137.907223 474.916 137.907223 475.672 139.329223 475.672 141.291223 475.672 143.379223 474.898 145.215223 472.504 145.215223zM482.188 146.151223C482.8 146.151223 483.394 146.025223 483.844 145.755223 484.114 145.593223 484.294 145.305223 484.132 145.017223 483.97 144.729223 483.574 144.891223 483.322 144.999223 483.088 145.089223 482.746 145.215223 482.404 145.215223 481.198 145.215223 480.874 144.549223 480.874 142.965223L480.874 138.087223 483.178 138.087223C483.466 138.087223 483.664 137.907223 483.664 137.619223 483.664 137.349223 483.466 137.151223 483.178 137.151223L480.874 137.151223 480.874 135.567223C480.874 135.261223 480.712 134.991223 480.37 134.991223 480.028 134.991223 479.866 135.261223 479.866 135.567223L479.866 137.151223 478.66 137.151223C478.372 137.151223 478.174 137.349223 478.174 137.619223 478.174 137.907223 478.372 138.087223 478.66 138.087223L479.866 138.087223 479.866 143.199223C479.866 145.269223 480.46 146.151223 482.188 146.151223zM486.166 135.603223C486.634 135.603223 486.94 135.315223 486.94 134.847223 486.94 134.379223 486.634 134.073223 486.166 134.073223 485.698 134.073223 485.41 134.379223 485.41 134.847223 485.41 135.315223 485.698 135.603223 486.166 135.603223zM486.166 145.971223C486.508 145.971223 486.67 145.701223 486.67 145.395223L486.67 137.727223C486.67 137.421223 486.508 137.151223 486.166 137.151223 485.824 137.151223 485.662 137.421223 485.662 137.727223L485.662 145.395223C485.662 145.701223 485.824 145.971223 486.166 145.971223zM493.24 146.151223C496.012 146.151223 497.524 144.099223 497.524 141.561223 497.524 139.023223 496.012 136.971223 493.24 136.971223 490.468 136.971223 488.956 139.023223 488.956 141.561223 488.956 144.099223 490.468 146.151223 493.24 146.151223zM493.24 145.215223C491.224 145.215223 490 143.793223 490 141.561223 490 139.329223 491.224 137.907223 493.24 137.907223 495.256 137.907223 496.48 139.329223 496.48 141.561223 496.48 143.793223 495.256 145.215223 493.24 145.215223zM506.668 145.971223C507.01 145.971223 507.172 145.701223 507.172 145.395223L507.172 140.787223C507.172 138.447223 506.398 136.971223 503.986 136.971223 502.762 136.971223 501.43 137.619223 500.818 139.185223L500.818 137.727223C500.818 137.421223 500.656 137.151223 500.314 137.151223 499.972 137.151223 499.81 137.421223 499.81 137.727223L499.81 145.395223C499.81 145.701223 499.972 145.971223 500.314 145.971223 500.656 145.971223 500.818 145.701223 500.818 145.395223L500.818 142.821223C500.818 140.229223 501.538 137.907223 503.896 137.907223 505.642 137.907223 506.164 139.077223 506.164 140.823223L506.164 145.395223C506.164 145.701223 506.326 145.971223 506.668 145.971223zM401.948 247.18C403.676 247.18 405.224 246.55 405.98 245.938 406.16 245.794 406.268 245.596 406.268 245.326L406.268 241.42C406.268 241.024 406.016 240.844 405.728 240.844L402.344 240.844C402.056 240.844 401.858 241.06 401.858 241.33 401.858 241.618 402.056 241.816 402.344 241.816L405.278 241.816 405.278 245.29C404.468 245.866 403.262 246.208 402.002 246.208 398.834 246.208 397.214 244.12 397.214 240.826 397.214 237.766 398.888 235.372 401.93 235.372 403.01 235.372 403.856 235.66 404.702 236.128 405.08 236.344 405.368 236.452 405.584 236.146 405.782 235.858 405.638 235.57 405.314 235.336 404.522 234.778 403.424 234.436 401.966 234.4 398.312 234.4 396.098 237.046 396.098 240.808 396.098 244.57 397.826 247.18 401.948 247.18zM411.92 247.18C413.144 247.18 414.476 246.532 415.088 244.966L415.088 246.424C415.088 246.73 415.25 247 415.592 247 415.934 247 416.096 246.73 416.096 246.424L416.096 238.756C416.096 238.45 415.934 238.18 415.592 238.18 415.25 238.18 415.088 238.45 415.088 238.756L415.088 241.33C415.088 243.922 414.368 246.244 412.01 246.244 410.264 246.244 409.742 245.074 409.742 243.328L409.742 238.756C409.742 238.45 409.58 238.18 409.238 238.18 408.896 238.18 408.734 238.45 408.734 238.756L408.734 243.364C408.734 245.704 409.508 247.18 411.92 247.18zM419.336 236.632C419.804 236.632 420.11 236.344 420.11 235.876 420.11 235.408 419.804 235.102 419.336 235.102 418.868 235.102 418.58 235.408 418.58 235.876 418.58 236.344 418.868 236.632 419.336 236.632zM419.336 247C419.678 247 419.84 246.73 419.84 246.424L419.84 238.756C419.84 238.45 419.678 238.18 419.336 238.18 418.994 238.18 418.832 238.45 418.832 238.756L418.832 246.424C418.832 246.73 418.994 247 419.336 247zM425.582 247.18C427.148 247.18 428.282 246.424 428.858 244.966L428.858 246.424C428.858 246.73 429.02 247 429.362 247 429.704 247 429.866 246.73 429.866 246.424L429.866 235.156C429.866 234.85 429.704 234.58 429.362 234.58 429.02 234.58 428.858 234.85 428.858 235.156L428.858 238.558C428.174 238.18 427.31 238 426.356 238 423.386 238 422.126 240.25 422.126 242.86 422.126 245.38 423.26 247.18 425.582 247.18zM425.726 246.244C423.926 246.244 423.17 244.822 423.17 242.86 423.17 240.772 423.944 238.936 426.338 238.936 427.292 238.936 428.084 239.116 428.858 239.566L428.858 241.33C428.858 243.562 428.354 246.244 425.726 246.244zM436.31 247.18C437.3 247.18 438.308 246.964 439.046 246.478 439.28 246.316 439.406 246.046 439.262 245.794 439.118 245.542 438.866 245.542 438.542 245.704 437.876 246.028 437.174 246.244 436.31 246.244 434.438 246.244 433.322 245.128 433.178 243.076L438.686 243.076C439.334 243.076 439.568 242.734 439.64 242.194 439.676 241.96 439.694 241.69 439.694 241.42 439.694 239.692 438.632 238 436.256 238 433.646 238 432.152 239.998 432.152 242.644 432.152 245.452 433.502 247.18 436.31 247.18zM438.704 242.176L433.178 242.176C433.322 240.088 434.438 238.936 436.184 238.936 437.912 238.936 438.704 240.016 438.74 241.492 438.74 241.708 438.74 241.942 438.704 242.176zM442.34 247C442.682 247 442.844 246.73 442.844 246.424L442.844 235.156C442.844 234.85 442.682 234.58 442.34 234.58 441.998 234.58 441.836 234.85 441.836 235.156L441.836 246.424C441.836 246.73 441.998 247 442.34 247zM445.94 236.632C446.408 236.632 446.714 236.344 446.714 235.876 446.714 235.408 446.408 235.102 445.94 235.102 445.472 235.102 445.184 235.408 445.184 235.876 445.184 236.344 445.472 236.632 445.94 236.632zM445.94 247C446.282 247 446.444 246.73 446.444 246.424L446.444 238.756C446.444 238.45 446.282 238.18 445.94 238.18 445.598 238.18 445.436 238.45 445.436 238.756L445.436 246.424C445.436 246.73 445.598 247 445.94 247zM456.038 247C456.38 247 456.542 246.73 456.542 246.424L456.542 241.816C456.542 239.476 455.768 238 453.356 238 452.132 238 450.8 238.648 450.188 240.214L450.188 238.756C450.188 238.45 450.026 238.18 449.684 238.18 449.342 238.18 449.18 238.45 449.18 238.756L449.18 246.424C449.18 246.73 449.342 247 449.684 247 450.026 247 450.188 246.73 450.188 246.424L450.188 243.85C450.188 241.258 450.908 238.936 453.266 238.936 455.012 238.936 455.534 240.106 455.534 241.852L455.534 246.424C455.534 246.73 455.696 247 456.038 247zM462.986 247.18C463.976 247.18 464.984 246.964 465.722 246.478 465.956 246.316 466.082 246.046 465.938 245.794 465.794 245.542 465.542 245.542 465.218 245.704 464.552 246.028 463.85 246.244 462.986 246.244 461.114 246.244 459.998 245.128 459.854 243.076L465.362 243.076C466.01 243.076 466.244 242.734 466.316 242.194 466.352 241.96 466.37 241.69 466.37 241.42 466.37 239.692 465.308 238 462.932 238 460.322 238 458.828 239.998 458.828 242.644 458.828 245.452 460.178 247.18 462.986 247.18zM465.38 242.176L459.854 242.176C459.998 240.088 461.114 238.936 462.86 238.936 464.588 238.936 465.38 240.016 465.416 241.492 465.416 241.708 465.416 241.942 465.38 242.176zM471.104 247.18C473.3 247.18 474.542 246.1 474.542 244.57 474.542 241.24 469.412 242.608 469.412 240.268 469.412 239.458 470.024 238.936 471.32 238.936 472.202 238.936 472.868 239.206 473.48 239.476 473.768 239.602 474.056 239.62 474.182 239.35 474.344 239.026 474.146 238.774 473.822 238.594 473.228 238.252 472.31 238 471.338 238 469.556 238 468.368 238.846 468.368 240.376 468.368 243.616 473.498 242.266 473.498 244.66 473.498 245.632 472.562 246.244 471.248 246.244 470.402 246.244 469.7 246.082 468.872 245.686 468.602 245.56 468.278 245.452 468.098 245.758 467.936 246.028 468.08 246.298 468.368 246.496 469.034 246.946 470.186 247.18 471.104 247.18zM400.022 265.18C401.12 265.18 402.164 264.82 402.83 264.352 403.172 264.118 403.262 263.812 403.1 263.578 402.938 263.344 402.686 263.362 402.236 263.632 401.57 264.028 400.904 264.244 400.022 264.244 398.078 264.244 396.962 262.93 396.962 260.662 396.962 258.376 398.384 256.936 400.202 256.936 401.084 256.936 401.516 257.134 402.128 257.404 402.488 257.566 402.722 257.53 402.866 257.296 403.028 257.026 402.92 256.756 402.578 256.558 402.02 256.234 401.264 256 400.31 256 397.754 256 395.918 257.836 395.918 260.644 395.918 263.542 397.34 265.18 400.022 265.18zM408.932 265.18C411.704 265.18 413.216 263.128 413.216 260.59 413.216 258.052 411.704 256 408.932 256 406.16 256 404.648 258.052 404.648 260.59 404.648 263.128 406.16 265.18 408.932 265.18zM408.932 264.244C406.916 264.244 405.692 262.822 405.692 260.59 405.692 258.358 406.916 256.936 408.932 256.936 410.948 256.936 412.172 258.358 412.172 260.59 412.172 262.822 410.948 264.244 408.932 264.244zM427.994 265C428.336 265 428.498 264.73 428.498 264.424L428.498 259.726C428.498 257.476 427.85 256 425.618 256 424.232 256 422.936 256.792 422.324 258.448 422.18 257.116 421.478 256 419.624 256 418.292 256 417.104 256.702 416.51 258.286L416.51 256.756C416.51 256.45 416.348 256.18 416.006 256.18 415.664 256.18 415.502 256.45 415.502 256.756L415.502 264.424C415.502 264.73 415.664 265 416.006 265 416.348 265 416.51 264.73 416.51 264.424L416.51 261.796C416.51 259.798 417.104 256.936 419.498 256.936 421.172 256.936 421.496 258.106 421.496 259.852L421.496 264.424C421.496 264.73 421.658 265 422 265 422.342 265 422.504 264.73 422.504 264.424L422.504 261.562C422.522 259.546 423.134 256.936 425.492 256.936 427.148 256.936 427.49 258.106 427.49 259.852L427.49 264.424C427.49 264.73 427.652 265 427.994 265zM431.738 268.6C432.08 268.6 432.242 268.33 432.242 268.024L432.242 264.622C432.926 265 433.79 265.18 434.744 265.18 437.714 265.18 438.974 262.93 438.974 260.32 438.974 257.8 437.84 256 435.518 256 433.952 256 432.818 256.756 432.242 258.214L432.242 256.756C432.242 256.45 432.08 256.18 431.738 256.18 431.396 256.18 431.234 256.45 431.234 256.756L431.234 268.024C431.234 268.33 431.396 268.6 431.738 268.6zM434.762 264.244C433.808 264.244 433.016 264.064 432.242 263.614L432.242 261.85C432.242 259.618 432.746 256.936 435.374 256.936 437.174 256.936 437.93 258.358 437.93 260.32 437.93 262.408 437.156 264.244 434.762 264.244zM441.62 265C441.962 265 442.124 264.73 442.124 264.424L442.124 253.156C442.124 252.85 441.962 252.58 441.62 252.58 441.278 252.58 441.116 252.85 441.116 253.156L441.116 264.424C441.116 264.73 441.278 265 441.62 265zM445.22 254.632C445.688 254.632 445.994 254.344 445.994 253.876 445.994 253.408 445.688 253.102 445.22 253.102 444.752 253.102 444.464 253.408 444.464 253.876 444.464 254.344 444.752 254.632 445.22 254.632zM445.22 265C445.562 265 445.724 264.73 445.724 264.424L445.724 256.756C445.724 256.45 445.562 256.18 445.22 256.18 444.878 256.18 444.716 256.45 444.716 256.756L444.716 264.424C444.716 264.73 444.878 265 445.22 265zM450.566 265.18C452.51 265.18 453.572 264.082 454.004 263.074L454.004 264.424C454.004 264.73 454.166 265 454.508 265 454.85 265 455.012 264.73 455.012 264.424L455.012 259.186C455.012 257.206 454.04 256 451.682 256 450.62 256 449.486 256.306 448.82 256.648 448.55 256.792 448.37 256.99 448.514 257.332 448.64 257.638 449.018 257.566 449.324 257.44 450.062 257.152 450.71 256.936 451.592 256.936 453.284 256.936 454.004 257.836 454.004 259.258L454.004 259.762C453.356 259.672 452.654 259.582 451.646 259.582 449.756 259.582 447.65 260.23 447.65 262.552 447.65 264.298 448.838 265.18 450.566 265.18zM450.692 264.244C449.378 264.244 448.694 263.542 448.694 262.516 448.694 261.022 450.008 260.482 451.79 260.482 452.744 260.482 453.266 260.554 454.004 260.662L454.004 261.004C454.004 262.39 452.942 264.244 450.692 264.244zM464.606 265C464.948 265 465.11 264.73 465.11 264.424L465.11 259.816C465.11 257.476 464.336 256 461.924 256 460.7 256 459.368 256.648 458.756 258.214L458.756 256.756C458.756 256.45 458.594 256.18 458.252 256.18 457.91 256.18 457.748 256.45 457.748 256.756L457.748 264.424C457.748 264.73 457.91 265 458.252 265 458.594 265 458.756 264.73 458.756 264.424L458.756 261.85C458.756 259.258 459.476 256.936 461.834 256.936 463.58 256.936 464.102 258.106 464.102 259.852L464.102 264.424C464.102 264.73 464.264 265 464.606 265zM471.5 265.18C472.598 265.18 473.642 264.82 474.308 264.352 474.65 264.118 474.74 263.812 474.578 263.578 474.416 263.344 474.164 263.362 473.714 263.632 473.048 264.028 472.382 264.244 471.5 264.244 469.556 264.244 468.44 262.93 468.44 260.662 468.44 258.376 469.862 256.936 471.68 256.936 472.562 256.936 472.994 257.134 473.606 257.404 473.966 257.566 474.2 257.53 474.344 257.296 474.506 257.026 474.398 256.756 474.056 256.558 473.498 256.234 472.742 256 471.788 256 469.232 256 467.396 257.836 467.396 260.644 467.396 263.542 468.818 265.18 471.5 265.18zM480.284 265.18C481.274 265.18 482.282 264.964 483.02 264.478 483.254 264.316 483.38 264.046 483.236 263.794 483.092 263.542 482.84 263.542 482.516 263.704 481.85 264.028 481.148 264.244 480.284 264.244 478.412 264.244 477.296 263.128 477.152 261.076L482.66 261.076C483.308 261.076 483.542 260.734 483.614 260.194 483.65 259.96 483.668 259.69 483.668 259.42 483.668 257.692 482.606 256 480.23 256 477.62 256 476.126 257.998 476.126 260.644 476.126 263.452 477.476 265.18 480.284 265.18zM482.678 260.176L477.152 260.176C477.296 258.088 478.412 256.936 480.158 256.936 481.886 256.936 482.678 258.016 482.714 259.492 482.714 259.708 482.714 259.942 482.678 260.176zM74.848 134.971223C75.136 134.971223 75.334 134.773223 75.334 134.485223 75.334 134.215223 75.136 133.999223 74.848 133.999223L68.854 133.999223 68.854 123.127223C68.854 122.821223 68.674 122.551223 68.314 122.551223 67.954 122.551223 67.774 122.821223 67.774 123.127223L67.774 134.395223C67.774 134.683223 67.9 134.971223 68.296 134.971223L74.848 134.971223zM80.788 135.151223C81.778 135.151223 82.786 134.935223 83.524 134.449223 83.758 134.287223 83.884 134.017223 83.74 133.765223 83.596 133.513223 83.344 133.513223 83.02 133.675223 82.354 133.999223 81.652 134.215223 80.788 134.215223 78.916 134.215223 77.8 133.099223 77.656 131.047223L83.164 131.047223C83.812 131.047223 84.046 130.705223 84.118 130.165223 84.154 129.931223 84.172 129.661223 84.172 129.391223 84.172 127.663223 83.11 125.971223 80.734 125.971223 78.124 125.971223 76.63 127.969223 76.63 130.615223 76.63 133.423223 77.98 135.151223 80.788 135.151223zM83.182 130.147223L77.656 130.147223C77.8 128.059223 78.916 126.907223 80.662 126.907223 82.39 126.907223 83.182 127.987223 83.218 129.463223 83.218 129.679223 83.218 129.913223 83.182 130.147223zM89.554 138.751223C92.542 138.751223 94.036 137.545223 94.036 135.907223 94.036 134.125223 92.344 133.837223 90.166 133.765223 87.754 133.693223 87.124 133.207223 87.124 132.595223 87.124 132.145223 87.412 131.803223 87.844 131.515223 88.366 131.785223 89.014 131.929223 89.806 131.929223 92.092 131.929223 93.244 130.615223 93.244 128.959223 93.244 128.185223 92.992 127.483223 92.488 126.943223L93.91 126.943223C94.198 126.943223 94.396 126.817223 94.396 126.529223 94.396 126.259223 94.198 126.151223 93.91 126.151223L91.138 126.151223C90.742 126.043223 90.292 125.971223 89.806 125.971223 87.52 125.971223 86.368 127.267223 86.368 128.959223 86.368 129.769223 86.62 130.489223 87.16 131.011223 86.512 131.497223 86.152 132.055223 86.152 132.757223 86.152 133.279223 86.404 133.801223 87.088 134.179223 86.134 134.701223 85.648 135.439223 85.648 136.267223 85.648 137.401223 86.278 138.751223 89.554 138.751223zM89.806 131.047223C88.132 131.047223 87.376 130.129223 87.376 128.959223 87.376 127.789223 88.132 126.853223 89.806 126.853223 91.48 126.853223 92.236 127.789223 92.236 128.959223 92.236 130.129223 91.48 131.047223 89.806 131.047223zM89.536 137.869223C87.232 137.869223 86.62 137.005223 86.62 136.249223 86.62 135.439223 87.196 134.845223 88.006 134.503223 88.492 134.611223 89.104 134.701223 89.86 134.719223 92.218 134.809223 93.064 135.133223 93.064 136.033223 93.064 136.933223 92.056 137.869223 89.536 137.869223zM98.158 135.151223C100.102 135.151223 101.164 134.053223 101.596 133.045223L101.596 134.395223C101.596 134.701223 101.758 134.971223 102.1 134.971223 102.442 134.971223 102.604 134.701223 102.604 134.395223L102.604 129.157223C102.604 127.177223 101.632 125.971223 99.274 125.971223 98.212 125.971223 97.078 126.277223 96.412 126.619223 96.142 126.763223 95.962 126.961223 96.106 127.303223 96.232 127.609223 96.61 127.537223 96.916 127.411223 97.654 127.123223 98.302 126.907223 99.184 126.907223 100.876 126.907223 101.596 127.807223 101.596 129.229223L101.596 129.733223C100.948 129.643223 100.246 129.553223 99.238 129.553223 97.348 129.553223 95.242 130.201223 95.242 132.523223 95.242 134.269223 96.43 135.151223 98.158 135.151223zM98.284 134.215223C96.97 134.215223 96.286 133.513223 96.286 132.487223 96.286 130.993223 97.6 130.453223 99.382 130.453223 100.336 130.453223 100.858 130.525223 101.596 130.633223L101.596 130.975223C101.596 132.361223 100.534 134.215223 98.284 134.215223zM108.994 135.151223C110.092 135.151223 111.136 134.791223 111.802 134.323223 112.144 134.089223 112.234 133.783223 112.072 133.549223 111.91 133.315223 111.658 133.333223 111.208 133.603223 110.542 133.999223 109.876 134.215223 108.994 134.215223 107.05 134.215223 105.934 132.901223 105.934 130.633223 105.934 128.347223 107.356 126.907223 109.174 126.907223 110.056 126.907223 110.488 127.105223 111.1 127.375223 111.46 127.537223 111.694 127.501223 111.838 127.267223 112 126.997223 111.892 126.727223 111.55 126.529223 110.992 126.205223 110.236 125.971223 109.282 125.971223 106.726 125.971223 104.89 127.807223 104.89 130.615223 104.89 133.513223 106.312 135.151223 108.994 135.151223zM114.178 138.751223C115.69 138.751223 116.356 137.851223 117.4 135.079223L120.514 127.015223C120.568 126.871223 120.604 126.727223 120.604 126.601223 120.604 126.367223 120.46 126.169223 120.136 126.169223 119.866 126.169223 119.704 126.367223 119.596 126.673223L116.986 133.729223 114.16 126.655223C114.052 126.385223 113.872 126.151223 113.62 126.151223 113.26 126.151223 113.098 126.439223 113.098 126.673223 113.098 126.799223 113.134 126.925223 113.188 127.051223L116.446 134.935223C115.87 136.519223 115.402 137.815223 114.25 137.815223 113.656 137.815223 113.17 137.437223 112.756 137.437223 112.576 137.437223 112.378 137.545223 112.378 137.851223 112.378 138.067223 112.54 138.265223 112.828 138.427223 113.224 138.643223 113.8 138.751223 114.178 138.751223zM4.054 153.151223C5.62 153.151223 6.754 152.395223 7.33 150.937223L7.33 152.395223C7.33 152.701223 7.492 152.971223 7.834 152.971223 8.176 152.971223 8.338 152.701223 8.338 152.395223L8.338 141.127223C8.338 140.821223 8.176 140.551223 7.834 140.551223 7.492 140.551223 7.33 140.821223 7.33 141.127223L7.33 144.529223C6.646 144.151223 5.782 143.971223 4.828 143.971223 1.858 143.971223.598 146.221223.598 148.831223.598 151.351223 1.732 153.151223 4.054 153.151223zM4.198 152.215223C2.398 152.215223 1.642 150.793223 1.642 148.831223 1.642 146.743223 2.416 144.907223 4.81 144.907223 5.764 144.907223 6.556 145.087223 7.33 145.537223L7.33 147.301223C7.33 149.533223 6.826 152.215223 4.198 152.215223zM14.908 153.151223C17.68 153.151223 19.192 151.099223 19.192 148.561223 19.192 146.023223 17.68 143.971223 14.908 143.971223 12.136 143.971223 10.624 146.023223 10.624 148.561223 10.624 151.099223 12.136 153.151223 14.908 153.151223zM14.908 152.215223C12.892 152.215223 11.668 150.793223 11.668 148.561223 11.668 146.329223 12.892 144.907223 14.908 144.907223 16.924 144.907223 18.148 146.329223 18.148 148.561223 18.148 150.793223 16.924 152.215223 14.908 152.215223zM25.132 153.151223C26.23 153.151223 27.274 152.791223 27.94 152.323223 28.282 152.089223 28.372 151.783223 28.21 151.549223 28.048 151.315223 27.796 151.333223 27.346 151.603223 26.68 151.999223 26.014 152.215223 25.132 152.215223 23.188 152.215223 22.072 150.901223 22.072 148.633223 22.072 146.347223 23.494 144.907223 25.312 144.907223 26.194 144.907223 26.626 145.105223 27.238 145.375223 27.598 145.537223 27.832 145.501223 27.976 145.267223 28.138 144.997223 28.03 144.727223 27.688 144.529223 27.13 144.205223 26.374 143.971223 25.42 143.971223 22.864 143.971223 21.028 145.807223 21.028 148.615223 21.028 151.513223 22.45 153.151223 25.132 153.151223zM33.394 153.151223C34.618 153.151223 35.95 152.503223 36.562 150.937223L36.562 152.395223C36.562 152.701223 36.724 152.971223 37.066 152.971223 37.408 152.971223 37.57 152.701223 37.57 152.395223L37.57 144.727223C37.57 144.421223 37.408 144.151223 37.066 144.151223 36.724 144.151223 36.562 144.421223 36.562 144.727223L36.562 147.301223C36.562 149.893223 35.842 152.215223 33.484 152.215223 31.738 152.215223 31.216 151.045223 31.216 149.299223L31.216 144.727223C31.216 144.421223 31.054 144.151223 30.712 144.151223 30.37 144.151223 30.208 144.421223 30.208 144.727223L30.208 149.335223C30.208 151.675223 30.982 153.151223 33.394 153.151223zM52.798 152.971223C53.14 152.971223 53.302 152.701223 53.302 152.395223L53.302 147.697223C53.302 145.447223 52.654 143.971223 50.422 143.971223 49.036 143.971223 47.74 144.763223 47.128 146.419223 46.984 145.087223 46.282 143.971223 44.428 143.971223 43.096 143.971223 41.908 144.673223 41.314 146.257223L41.314 144.727223C41.314 144.421223 41.152 144.151223 40.81 144.151223 40.468 144.151223 40.306 144.421223 40.306 144.727223L40.306 152.395223C40.306 152.701223 40.468 152.971223 40.81 152.971223 41.152 152.971223 41.314 152.701223 41.314 152.395223L41.314 149.767223C41.314 147.769223 41.908 144.907223 44.302 144.907223 45.976 144.907223 46.3 146.077223 46.3 147.823223L46.3 152.395223C46.3 152.701223 46.462 152.971223 46.804 152.971223 47.146 152.971223 47.308 152.701223 47.308 152.395223L47.308 149.533223C47.326 147.517223 47.938 144.907223 50.296 144.907223 51.952 144.907223 52.294 146.077223 52.294 147.823223L52.294 152.395223C52.294 152.701223 52.456 152.971223 52.798 152.971223zM59.746 153.151223C60.736 153.151223 61.744 152.935223 62.482 152.449223 62.716 152.287223 62.842 152.017223 62.698 151.765223 62.554 151.513223 62.302 151.513223 61.978 151.675223 61.312 151.999223 60.61 152.215223 59.746 152.215223 57.874 152.215223 56.758 151.099223 56.614 149.047223L62.122 149.047223C62.77 149.047223 63.004 148.705223 63.076 148.165223 63.112 147.931223 63.13 147.661223 63.13 147.391223 63.13 145.663223 62.068 143.971223 59.692 143.971223 57.082 143.971223 55.588 145.969223 55.588 148.615223 55.588 151.423223 56.938 153.151223 59.746 153.151223zM62.14 148.147223L56.614 148.147223C56.758 146.059223 57.874 144.907223 59.62 144.907223 61.348 144.907223 62.14 145.987223 62.176 147.463223 62.176 147.679223 62.176 147.913223 62.14 148.147223zM72.274 152.971223C72.616 152.971223 72.778 152.701223 72.778 152.395223L72.778 147.787223C72.778 145.447223 72.004 143.971223 69.592 143.971223 68.368 143.971223 67.036 144.619223 66.424 146.185223L66.424 144.727223C66.424 144.421223 66.262 144.151223 65.92 144.151223 65.578 144.151223 65.416 144.421223 65.416 144.727223L65.416 152.395223C65.416 152.701223 65.578 152.971223 65.92 152.971223 66.262 152.971223 66.424 152.701223 66.424 152.395223L66.424 149.821223C66.424 147.229223 67.144 144.907223 69.502 144.907223 71.248 144.907223 71.77 146.077223 71.77 147.823223L71.77 152.395223C71.77 152.701223 71.932 152.971223 72.274 152.971223zM78.7 153.151223C79.312 153.151223 79.906 153.025223 80.356 152.755223 80.626 152.593223 80.806 152.305223 80.644 152.017223 80.482 151.729223 80.086 151.891223 79.834 151.999223 79.6 152.089223 79.258 152.215223 78.916 152.215223 77.71 152.215223 77.386 151.549223 77.386 149.965223L77.386 145.087223 79.69 145.087223C79.978 145.087223 80.176 144.907223 80.176 144.619223 80.176 144.349223 79.978 144.151223 79.69 144.151223L77.386 144.151223 77.386 142.567223C77.386 142.261223 77.224 141.991223 76.882 141.991223 76.54 141.991223 76.378 142.261223 76.378 142.567223L76.378 144.151223 75.172 144.151223C74.884 144.151223 74.686 144.349223 74.686 144.619223 74.686 144.907223 74.884 145.087223 75.172 145.087223L76.378 145.087223 76.378 150.199223C76.378 152.269223 76.972 153.151223 78.7 153.151223zM84.28 153.151223C86.224 153.151223 87.286 152.053223 87.718 151.045223L87.718 152.395223C87.718 152.701223 87.88 152.971223 88.222 152.971223 88.564 152.971223 88.726 152.701223 88.726 152.395223L88.726 147.157223C88.726 145.177223 87.754 143.971223 85.396 143.971223 84.334 143.971223 83.2 144.277223 82.534 144.619223 82.264 144.763223 82.084 144.961223 82.228 145.303223 82.354 145.609223 82.732 145.537223 83.038 145.411223 83.776 145.123223 84.424 144.907223 85.306 144.907223 86.998 144.907223 87.718 145.807223 87.718 147.229223L87.718 147.733223C87.07 147.643223 86.368 147.553223 85.36 147.553223 83.47 147.553223 81.364 148.201223 81.364 150.523223 81.364 152.269223 82.552 153.151223 84.28 153.151223zM84.406 152.215223C83.092 152.215223 82.408 151.513223 82.408 150.487223 82.408 148.993223 83.722 148.453223 85.504 148.453223 86.458 148.453223 86.98 148.525223 87.718 148.633223L87.718 148.975223C87.718 150.361223 86.656 152.215223 84.406 152.215223zM94.648 153.151223C95.26 153.151223 95.854 153.025223 96.304 152.755223 96.574 152.593223 96.754 152.305223 96.592 152.017223 96.43 151.729223 96.034 151.891223 95.782 151.999223 95.548 152.089223 95.206 152.215223 94.864 152.215223 93.658 152.215223 93.334 151.549223 93.334 149.965223L93.334 145.087223 95.638 145.087223C95.926 145.087223 96.124 144.907223 96.124 144.619223 96.124 144.349223 95.926 144.151223 95.638 144.151223L93.334 144.151223 93.334 142.567223C93.334 142.261223 93.172 141.991223 92.83 141.991223 92.488 141.991223 92.326 142.261223 92.326 142.567223L92.326 144.151223 91.12 144.151223C90.832 144.151223 90.634 144.349223 90.634 144.619223 90.634 144.907223 90.832 145.087223 91.12 145.087223L92.326 145.087223 92.326 150.199223C92.326 152.269223 92.92 153.151223 94.648 153.151223zM98.626 142.603223C99.094 142.603223 99.4 142.315223 99.4 141.847223 99.4 141.379223 99.094 141.073223 98.626 141.073223 98.158 141.073223 97.87 141.379223 97.87 141.847223 97.87 142.315223 98.158 142.603223 98.626 142.603223zM98.626 152.971223C98.968 152.971223 99.13 152.701223 99.13 152.395223L99.13 144.727223C99.13 144.421223 98.968 144.151223 98.626 144.151223 98.284 144.151223 98.122 144.421223 98.122 144.727223L98.122 152.395223C98.122 152.701223 98.284 152.971223 98.626 152.971223zM105.7 153.151223C108.472 153.151223 109.984 151.099223 109.984 148.561223 109.984 146.023223 108.472 143.971223 105.7 143.971223 102.928 143.971223 101.416 146.023223 101.416 148.561223 101.416 151.099223 102.928 153.151223 105.7 153.151223zM105.7 152.215223C103.684 152.215223 102.46 150.793223 102.46 148.561223 102.46 146.329223 103.684 144.907223 105.7 144.907223 107.716 144.907223 108.94 146.329223 108.94 148.561223 108.94 150.793223 107.716 152.215223 105.7 152.215223zM119.128 152.971223C119.47 152.971223 119.632 152.701223 119.632 152.395223L119.632 147.787223C119.632 145.447223 118.858 143.971223 116.446 143.971223 115.222 143.971223 113.89 144.619223 113.278 146.185223L113.278 144.727223C113.278 144.421223 113.116 144.151223 112.774 144.151223 112.432 144.151223 112.27 144.421223 112.27 144.727223L112.27 152.395223C112.27 152.701223 112.432 152.971223 112.774 152.971223 113.116 152.971223 113.278 152.701223 113.278 152.395223L113.278 149.821223C113.278 147.229223 113.998 144.907223 116.356 144.907223 118.102 144.907223 118.624 146.077223 118.624 147.823223L118.624 152.395223C118.624 152.701223 118.786 152.971223 119.128 152.971223zM70.146 247.18C71.658 247.18 73.044 246.658 73.8 246.1 74.124 245.848 74.358 245.542 74.124 245.236 73.89 244.948 73.584 245.074 73.278 245.272 72.396 245.848 71.442 246.208 70.236 246.208 67.5 246.208 65.592 244.21 65.592 240.826 65.592 237.766 67.266 235.372 70.308 235.372 71.388 235.372 72.288 235.642 73.08 236.128 73.458 236.362 73.782 236.416 73.962 236.128 74.142 235.84 73.998 235.552 73.656 235.318 72.864 234.778 71.784 234.4 70.344 234.4 66.69 234.4 64.476 237.046 64.476 240.808 64.476 244.516 66.168 247.18 70.146 247.18zM80.352 247.18C83.124 247.18 84.636 245.128 84.636 242.59 84.636 240.052 83.124 238 80.352 238 77.58 238 76.068 240.052 76.068 242.59 76.068 245.128 77.58 247.18 80.352 247.18zM80.352 246.244C78.336 246.244 77.112 244.822 77.112 242.59 77.112 240.358 78.336 238.936 80.352 238.936 82.368 238.936 83.592 240.358 83.592 242.59 83.592 244.822 82.368 246.244 80.352 246.244zM99.414 247C99.756 247 99.918 246.73 99.918 246.424L99.918 241.726C99.918 239.476 99.27 238 97.038 238 95.652 238 94.356 238.792 93.744 240.448 93.6 239.116 92.898 238 91.044 238 89.712 238 88.524 238.702 87.93 240.286L87.93 238.756C87.93 238.45 87.768 238.18 87.426 238.18 87.084 238.18 86.922 238.45 86.922 238.756L86.922 246.424C86.922 246.73 87.084 247 87.426 247 87.768 247 87.93 246.73 87.93 246.424L87.93 243.796C87.93 241.798 88.524 238.936 90.918 238.936 92.592 238.936 92.916 240.106 92.916 241.852L92.916 246.424C92.916 246.73 93.078 247 93.42 247 93.762 247 93.924 246.73 93.924 246.424L93.924 243.562C93.942 241.546 94.554 238.936 96.912 238.936 98.568 238.936 98.91 240.106 98.91 241.852L98.91 246.424C98.91 246.73 99.072 247 99.414 247zM103.158 250.6C103.5 250.6 103.662 250.33 103.662 250.024L103.662 246.622C104.346 247 105.21 247.18 106.164 247.18 109.134 247.18 110.394 244.93 110.394 242.32 110.394 239.8 109.26 238 106.938 238 105.372 238 104.238 238.756 103.662 240.214L103.662 238.756C103.662 238.45 103.5 238.18 103.158 238.18 102.816 238.18 102.654 238.45 102.654 238.756L102.654 250.024C102.654 250.33 102.816 250.6 103.158 250.6zM106.182 246.244C105.228 246.244 104.436 246.064 103.662 245.614L103.662 243.85C103.662 241.618 104.166 238.936 106.794 238.936 108.594 238.936 109.35 240.358 109.35 242.32 109.35 244.408 108.576 246.244 106.182 246.244zM116.388 247.18C117.378 247.18 118.386 246.964 119.124 246.478 119.358 246.316 119.484 246.046 119.34 245.794 119.196 245.542 118.944 245.542 118.62 245.704 117.954 246.028 117.252 246.244 116.388 246.244 114.516 246.244 113.4 245.128 113.256 243.076L118.764 243.076C119.412 243.076 119.646 242.734 119.718 242.194 119.754 241.96 119.772 241.69 119.772 241.42 119.772 239.692 118.71 238 116.334 238 113.724 238 112.23 239.998 112.23 242.644 112.23 245.452 113.58 247.18 116.388 247.18zM118.782 242.176L113.256 242.176C113.4 240.088 114.516 238.936 116.262 238.936 117.99 238.936 118.782 240.016 118.818 241.492 118.818 241.708 118.818 241.942 118.782 242.176zM125.244 247.18C125.856 247.18 126.45 247.054 126.9 246.784 127.17 246.622 127.35 246.334 127.188 246.046 127.026 245.758 126.63 245.92 126.378 246.028 126.144 246.118 125.802 246.244 125.46 246.244 124.254 246.244 123.93 245.578 123.93 243.994L123.93 239.116 126.234 239.116C126.522 239.116 126.72 238.936 126.72 238.648 126.72 238.378 126.522 238.18 126.234 238.18L123.93 238.18 123.93 236.596C123.93 236.29 123.768 236.02 123.426 236.02 123.084 236.02 122.922 236.29 122.922 236.596L122.922 238.18 121.716 238.18C121.428 238.18 121.23 238.378 121.23 238.648 121.23 238.936 121.428 239.116 121.716 239.116L122.922 239.116 122.922 244.228C122.922 246.298 123.516 247.18 125.244 247.18zM129.222 236.632C129.69 236.632 129.996 236.344 129.996 235.876 129.996 235.408 129.69 235.102 129.222 235.102 128.754 235.102 128.466 235.408 128.466 235.876 128.466 236.344 128.754 236.632 129.222 236.632zM129.222 247C129.564 247 129.726 246.73 129.726 246.424L129.726 238.756C129.726 238.45 129.564 238.18 129.222 238.18 128.88 238.18 128.718 238.45 128.718 238.756L128.718 246.424C128.718 246.73 128.88 247 129.222 247zM135.648 247.18C136.26 247.18 136.854 247.054 137.304 246.784 137.574 246.622 137.754 246.334 137.592 246.046 137.43 245.758 137.034 245.92 136.782 246.028 136.548 246.118 136.206 246.244 135.864 246.244 134.658 246.244 134.334 245.578 134.334 243.994L134.334 239.116 136.638 239.116C136.926 239.116 137.124 238.936 137.124 238.648 137.124 238.378 136.926 238.18 136.638 238.18L134.334 238.18 134.334 236.596C134.334 236.29 134.172 236.02 133.83 236.02 133.488 236.02 133.326 236.29 133.326 236.596L133.326 238.18 132.12 238.18C131.832 238.18 131.634 238.378 131.634 238.648 131.634 238.936 131.832 239.116 132.12 239.116L133.326 239.116 133.326 244.228C133.326 246.298 133.92 247.18 135.648 247.18zM139.626 236.632C140.094 236.632 140.4 236.344 140.4 235.876 140.4 235.408 140.094 235.102 139.626 235.102 139.158 235.102 138.87 235.408 138.87 235.876 138.87 236.344 139.158 236.632 139.626 236.632zM139.626 247C139.968 247 140.13 246.73 140.13 246.424L140.13 238.756C140.13 238.45 139.968 238.18 139.626 238.18 139.284 238.18 139.122 238.45 139.122 238.756L139.122 246.424C139.122 246.73 139.284 247 139.626 247zM146.7 247.18C149.472 247.18 150.984 245.128 150.984 242.59 150.984 240.052 149.472 238 146.7 238 143.928 238 142.416 240.052 142.416 242.59 142.416 245.128 143.928 247.18 146.7 247.18zM146.7 246.244C144.684 246.244 143.46 244.822 143.46 242.59 143.46 240.358 144.684 238.936 146.7 238.936 148.716 238.936 149.94 240.358 149.94 242.59 149.94 244.822 148.716 246.244 146.7 246.244zM160.128 247C160.47 247 160.632 246.73 160.632 246.424L160.632 241.816C160.632 239.476 159.858 238 157.446 238 156.222 238 154.89 238.648 154.278 240.214L154.278 238.756C154.278 238.45 154.116 238.18 153.774 238.18 153.432 238.18 153.27 238.45 153.27 238.756L153.27 246.424C153.27 246.73 153.432 247 153.774 247 154.116 247 154.278 246.73 154.278 246.424L154.278 243.85C154.278 241.258 154.998 238.936 157.356 238.936 159.102 238.936 159.624 240.106 159.624 241.852L159.624 246.424C159.624 246.73 159.786 247 160.128 247zM105.318 265.18C107.262 265.18 108.324 264.082 108.756 263.074L108.756 264.424C108.756 264.73 108.918 265 109.26 265 109.602 265 109.764 264.73 109.764 264.424L109.764 259.186C109.764 257.206 108.792 256 106.434 256 105.372 256 104.238 256.306 103.572 256.648 103.302 256.792 103.122 256.99 103.266 257.332 103.392 257.638 103.77 257.566 104.076 257.44 104.814 257.152 105.462 256.936 106.344 256.936 108.036 256.936 108.756 257.836 108.756 259.258L108.756 259.762C108.108 259.672 107.406 259.582 106.398 259.582 104.508 259.582 102.402 260.23 102.402 262.552 102.402 264.298 103.59 265.18 105.318 265.18zM105.444 264.244C104.13 264.244 103.446 263.542 103.446 262.516 103.446 261.022 104.76 260.482 106.542 260.482 107.496 260.482 108.018 260.554 108.756 260.662L108.756 261.004C108.756 262.39 107.694 264.244 105.444 264.244zM119.358 265C119.7 265 119.862 264.73 119.862 264.424L119.862 259.816C119.862 257.476 119.088 256 116.676 256 115.452 256 114.12 256.648 113.508 258.214L113.508 256.756C113.508 256.45 113.346 256.18 113.004 256.18 112.662 256.18 112.5 256.45 112.5 256.756L112.5 264.424C112.5 264.73 112.662 265 113.004 265 113.346 265 113.508 264.73 113.508 264.424L113.508 261.85C113.508 259.258 114.228 256.936 116.586 256.936 118.332 256.936 118.854 258.106 118.854 259.852L118.854 264.424C118.854 264.73 119.016 265 119.358 265zM124.704 265.18C126.648 265.18 127.71 264.082 128.142 263.074L128.142 264.424C128.142 264.73 128.304 265 128.646 265 128.988 265 129.15 264.73 129.15 264.424L129.15 259.186C129.15 257.206 128.178 256 125.82 256 124.758 256 123.624 256.306 122.958 256.648 122.688 256.792 122.508 256.99 122.652 257.332 122.778 257.638 123.156 257.566 123.462 257.44 124.2 257.152 124.848 256.936 125.73 256.936 127.422 256.936 128.142 257.836 128.142 259.258L128.142 259.762C127.494 259.672 126.792 259.582 125.784 259.582 123.894 259.582 121.788 260.23 121.788 262.552 121.788 264.298 122.976 265.18 124.704 265.18zM124.83 264.244C123.516 264.244 122.832 263.542 122.832 262.516 122.832 261.022 124.146 260.482 125.928 260.482 126.882 260.482 127.404 260.554 128.142 260.662L128.142 261.004C128.142 262.39 127.08 264.244 124.83 264.244zM132.246 265C132.588 265 132.75 264.73 132.75 264.424L132.75 253.156C132.75 252.85 132.588 252.58 132.246 252.58 131.904 252.58 131.742 252.85 131.742 253.156L131.742 264.424C131.742 264.73 131.904 265 132.246 265zM135.45 268.78C136.962 268.78 137.628 267.88 138.672 265.108L141.786 257.044C141.84 256.9 141.876 256.756 141.876 256.63 141.876 256.396 141.732 256.198 141.408 256.198 141.138 256.198 140.976 256.396 140.868 256.702L138.258 263.758 135.432 256.684C135.324 256.414 135.144 256.18 134.892 256.18 134.532 256.18 134.37 256.468 134.37 256.702 134.37 256.828 134.406 256.954 134.46 257.08L137.718 264.964C137.142 266.548 136.674 267.844 135.522 267.844 134.928 267.844 134.442 267.466 134.028 267.466 133.848 267.466 133.65 267.574 133.65 267.88 133.65 268.096 133.812 268.294 134.1 268.456 134.496 268.672 135.072 268.78 135.45 268.78zM146.088 265.18C148.284 265.18 149.526 264.1 149.526 262.57 149.526 259.24 144.396 260.608 144.396 258.268 144.396 257.458 145.008 256.936 146.304 256.936 147.186 256.936 147.852 257.206 148.464 257.476 148.752 257.602 149.04 257.62 149.166 257.35 149.328 257.026 149.13 256.774 148.806 256.594 148.212 256.252 147.294 256 146.322 256 144.54 256 143.352 256.846 143.352 258.376 143.352 261.616 148.482 260.266 148.482 262.66 148.482 263.632 147.546 264.244 146.232 264.244 145.386 264.244 144.684 264.082 143.856 263.686 143.586 263.56 143.262 263.452 143.082 263.758 142.92 264.028 143.064 264.298 143.352 264.496 144.018 264.946 145.17 265.18 146.088 265.18zM152.136 254.632C152.604 254.632 152.91 254.344 152.91 253.876 152.91 253.408 152.604 253.102 152.136 253.102 151.668 253.102 151.38 253.408 151.38 253.876 151.38 254.344 151.668 254.632 152.136 254.632zM152.136 265C152.478 265 152.64 264.73 152.64 264.424L152.64 256.756C152.64 256.45 152.478 256.18 152.136 256.18 151.794 256.18 151.632 256.45 151.632 256.756L151.632 264.424C151.632 264.73 151.794 265 152.136 265zM157.824 265.18C160.02 265.18 161.262 264.1 161.262 262.57 161.262 259.24 156.132 260.608 156.132 258.268 156.132 257.458 156.744 256.936 158.04 256.936 158.922 256.936 159.588 257.206 160.2 257.476 160.488 257.602 160.776 257.62 160.902 257.35 161.064 257.026 160.866 256.774 160.542 256.594 159.948 256.252 159.03 256 158.058 256 156.276 256 155.088 256.846 155.088 258.376 155.088 261.616 160.218 260.266 160.218 262.66 160.218 263.632 159.282 264.244 157.968 264.244 157.122 264.244 156.42 264.082 155.592 263.686 155.322 263.56 154.998 263.452 154.818 263.758 154.656 264.028 154.8 264.298 155.088 264.496 155.754 264.946 156.906 265.18 157.824 265.18z"/>
    <circle cx="136.5" cy="140.5" r="3.5" fill="#5055FE" transform="rotate(51 136.5 140.5)"/>
    <circle cx="136.5" cy="140.5" r="7.5" fill="#5055FE" opacity=".103"/>
    <circle cx="180.5" cy="247.5" r="3.5" fill="#5055FE" transform="rotate(51 180.5 247.5)"/>
    <circle cx="180.5" cy="247.5" r="7.5" fill="#5055FE" opacity=".103"/>
    <circle cx="180.5" cy="38.5" r="3.5" fill="#5055FE" transform="rotate(51 180.5 38.5)"/>
    <circle cx="180.5" cy="38.5" r="7.5" fill="#5055FE" opacity=".103"/>
    <circle cx="420.5" cy="140.5" r="3.5" fill="#5055FE" transform="scale(-1 1) rotate(51 0 -741.097)"/>
    <circle cx="420.5" cy="140.5" r="7.5" fill="#5055FE" opacity=".103" transform="matrix(-1 0 0 1 841 0)"/>
    <circle cx="376.5" cy="247.5" r="3.5" fill="#5055FE" transform="scale(-1 1) rotate(51 0 -541.849)"/>
    <circle cx="376.5" cy="247.5" r="7.5" fill="#5055FE" opacity=".103" transform="matrix(-1 0 0 1 753 0)"/>
    <circle cx="376.5" cy="38.5" r="3.5" fill="#5055FE" transform="scale(-1 1) rotate(51 0 -750.849)"/>
    <circle cx="376.5" cy="38.5" r="7.5" fill="#5055FE" opacity=".103" transform="matrix(-1 0 0 1 753 0)"/>
    <path fill="#000" fill-rule="nonzero" d="M251.773,140.061223 C254.275,140.061223 256.759,139.341223 256.759,136.245223 C256.759,134.823223 255.913,133.761223 254.527,133.329223 C255.553,132.861223 256.165,131.817223 256.165,130.719223 C256.165,128.253223 254.239,127.461223 251.629,127.461223 C250.567,127.461223 249.577,127.533223 248.731,127.677223 C248.011,127.803223 247.705,128.217223 247.705,128.883223 L247.705,138.711223 C247.705,139.323223 247.993,139.755223 248.713,139.863223 C249.649,140.007223 250.909,140.061223 251.773,140.061223 Z M251.611,132.807223 L249.775,132.807223 L249.775,129.351223 C250.297,129.297223 250.819,129.261223 251.431,129.261223 C252.961,129.261223 253.951,129.711223 253.951,130.935223 C253.951,132.159223 253.141,132.807223 251.611,132.807223 Z M251.863,138.279223 C251.233,138.279223 250.495,138.261223 249.775,138.171223 L249.775,134.427223 L251.845,134.427223 C253.609,134.427223 254.545,135.039223 254.545,136.335223 C254.545,137.775223 253.555,138.279223 251.863,138.279223 Z M262.087,140.151223 C263.149,140.151223 264.211,139.683223 264.751,138.657223 L264.751,138.927223 C264.751,139.485223 265.093,139.971223 265.777,139.971223 C266.443,139.971223 266.785,139.485223 266.785,138.927223 L266.785,132.195223 C266.785,131.619223 266.443,131.151223 265.777,131.151223 C265.093,131.151223 264.751,131.619223 264.751,132.195223 L264.751,134.517223 C264.715,136.533223 264.319,138.351223 262.573,138.351223 C261.421,138.351223 261.043,137.523223 261.043,136.335223 L261.043,132.195223 C261.043,131.619223 260.701,131.151223 260.035,131.151223 C259.351,131.151223 259.009,131.619223 259.009,132.195223 L259.009,136.299223 C259.009,138.693223 259.747,140.151223 262.087,140.151223 Z M272.005,140.151223 C274.435,140.151223 275.569,139.125223 275.569,137.415223 C275.569,134.355223 271.033,135.075223 271.033,133.419223 C271.033,132.915223 271.411,132.609223 272.239,132.609223 C272.905,132.609223 273.607,132.897223 274.111,133.095223 C274.687,133.275223 275.047,133.185223 275.245,132.753223 C275.425,132.339223 275.317,131.889223 274.741,131.565223 C274.147,131.223223 273.211,130.971223 272.167,130.971223 C270.277,130.971223 268.981,131.817223 268.981,133.491223 C268.981,136.677223 273.517,135.885223 273.517,137.595223 C273.517,138.207223 273.085,138.513223 272.185,138.513223 C271.519,138.513223 270.781,138.315223 270.097,138.009223 C269.629,137.793223 269.053,137.667223 268.783,138.225223 C268.549,138.711223 268.711,139.125223 269.197,139.467223 C269.917,139.935223 271.087,140.151223 272.005,140.151223 Z M278.467,129.927223 C279.169,129.927223 279.655,129.549223 279.655,128.829223 C279.655,128.145223 279.169,127.731223 278.467,127.731223 C277.747,127.731223 277.297,128.145223 277.297,128.829223 C277.297,129.549223 277.747,129.927223 278.467,129.927223 Z M278.467,139.971223 C279.151,139.971223 279.493,139.503223 279.493,138.927223 L279.493,132.195223 C279.493,131.637223 279.151,131.151223 278.467,131.151223 C277.801,131.151223 277.459,131.637223 277.459,132.195223 L277.459,138.927223 C277.459,139.503223 277.801,139.971223 278.467,139.971223 Z M288.763,139.971223 C289.447,139.971223 289.789,139.503223 289.789,138.927223 L289.789,134.823223 C289.789,132.429223 289.051,130.971223 286.711,130.971223 C285.649,130.971223 284.587,131.439223 284.047,132.465223 L284.047,132.195223 C284.047,131.637223 283.705,131.151223 283.021,131.151223 C282.355,131.151223 282.013,131.637223 282.013,132.195223 L282.013,138.927223 C282.013,139.503223 282.355,139.971223 283.021,139.971223 C283.705,139.971223 284.047,139.503223 284.047,138.927223 L284.047,136.605223 C284.083,134.589223 284.479,132.771223 286.225,132.771223 C287.377,132.771223 287.755,133.599223 287.755,134.787223 L287.755,138.927223 C287.755,139.503223 288.097,139.971223 288.763,139.971223 Z M296.017,140.151223 C297.043,140.151223 298.087,139.971223 298.861,139.449223 C299.329,139.143223 299.437,138.675223 299.239,138.297223 C299.041,137.955223 298.699,137.811223 298.123,138.045223 C297.565,138.279223 296.989,138.513223 296.215,138.513223 C294.829,138.513223 293.929,137.667223 293.875,136.299223 L298.465,136.299223 C299.185,136.299223 299.491,135.993223 299.653,135.399223 C299.707,135.201223 299.743,134.805223 299.743,134.553223 C299.743,132.447223 298.411,130.971223 296.053,130.971223 C293.461,130.971223 291.859,132.807223 291.859,135.597223 C291.859,138.495223 293.317,140.151223 296.017,140.151223 Z M297.853,134.877223 L293.875,134.877223 C294.001,133.419223 294.775,132.609223 296.053,132.609223 C297.295,132.609223 297.871,133.401223 297.871,134.427223 C297.871,134.589223 297.871,134.697223 297.853,134.877223 Z M304.477,140.151223 C306.907,140.151223 308.041,139.125223 308.041,137.415223 C308.041,134.355223 303.505,135.075223 303.505,133.419223 C303.505,132.915223 303.883,132.609223 304.711,132.609223 C305.377,132.609223 306.079,132.897223 306.583,133.095223 C307.159,133.275223 307.519,133.185223 307.717,132.753223 C307.897,132.339223 307.789,131.889223 307.213,131.565223 C306.619,131.223223 305.683,130.971223 304.639,130.971223 C302.749,130.971223 301.453,131.817223 301.453,133.491223 C301.453,136.677223 305.989,135.885223 305.989,137.595223 C305.989,138.207223 305.557,138.513223 304.657,138.513223 C303.991,138.513223 303.253,138.315223 302.569,138.009223 C302.101,137.793223 301.525,137.667223 301.255,138.225223 C301.021,138.711223 301.183,139.125223 301.669,139.467223 C302.389,139.935223 303.559,140.151223 304.477,140.151223 Z M312.631,140.151223 C315.061,140.151223 316.195,139.125223 316.195,137.415223 C316.195,134.355223 311.659,135.075223 311.659,133.419223 C311.659,132.915223 312.037,132.609223 312.865,132.609223 C313.531,132.609223 314.233,132.897223 314.737,133.095223 C315.313,133.275223 315.673,133.185223 315.871,132.753223 C316.051,132.339223 315.943,131.889223 315.367,131.565223 C314.773,131.223223 313.837,130.971223 312.793,130.971223 C310.903,130.971223 309.607,131.817223 309.607,133.491223 C309.607,136.677223 314.143,135.885223 314.143,137.595223 C314.143,138.207223 313.711,138.513223 312.811,138.513223 C312.145,138.513223 311.407,138.315223 310.723,138.009223 C310.255,137.793223 309.679,137.667223 309.409,138.225223 C309.175,138.711223 309.337,139.125223 309.823,139.467223 C310.543,139.935223 311.713,140.151223 312.631,140.151223 Z M253.231,158.151223 C254.725,158.151223 255.625,157.449223 256.111,156.603223 L256.111,156.927223 C256.111,157.503223 256.417,157.971223 257.083,157.971223 C257.767,157.971223 258.055,157.503223 258.055,156.927223 L258.055,152.319223 C258.055,150.231223 256.975,148.971223 254.509,148.971223 C253.375,148.971223 252.223,149.205223 251.575,149.637223 C251.161,149.907223 250.981,150.267223 251.125,150.699223 C251.269,151.131223 251.719,151.239223 252.151,151.113223 C252.943,150.879223 253.447,150.663223 254.275,150.663223 C255.841,150.663223 256.111,151.509223 256.111,152.481223 L256.111,152.679223 C255.787,152.625223 255.085,152.553223 254.221,152.553223 C252.241,152.553223 250.351,153.309223 250.351,155.505223 C250.351,157.107223 251.413,158.151223 253.231,158.151223 Z M253.771,156.567223 C252.871,156.567223 252.349,156.063223 252.349,155.343223 C252.349,154.263223 253.231,153.831223 254.509,153.831223 C255.175,153.831223 255.643,153.849223 256.111,153.921223 L256.111,154.227223 C256.111,155.361223 255.301,156.567223 253.771,156.567223 Z M267.325,157.971223 C268.009,157.971223 268.351,157.503223 268.351,156.927223 L268.351,152.823223 C268.351,150.429223 267.613,148.971223 265.273,148.971223 C264.211,148.971223 263.149,149.439223 262.609,150.465223 L262.609,150.195223 C262.609,149.637223 262.267,149.151223 261.583,149.151223 C260.917,149.151223 260.575,149.637223 260.575,150.195223 L260.575,156.927223 C260.575,157.503223 260.917,157.971223 261.583,157.971223 C262.267,157.971223 262.609,157.503223 262.609,156.927223 L262.609,154.605223 C262.645,152.589223 263.041,150.771223 264.787,150.771223 C265.939,150.771223 266.317,151.599223 266.317,152.787223 L266.317,156.927223 C266.317,157.503223 266.659,157.971223 267.325,157.971223 Z M272.941,158.151223 C274.435,158.151223 275.335,157.449223 275.821,156.603223 L275.821,156.927223 C275.821,157.503223 276.127,157.971223 276.793,157.971223 C277.477,157.971223 277.765,157.503223 277.765,156.927223 L277.765,152.319223 C277.765,150.231223 276.685,148.971223 274.219,148.971223 C273.085,148.971223 271.933,149.205223 271.285,149.637223 C270.871,149.907223 270.691,150.267223 270.835,150.699223 C270.979,151.131223 271.429,151.239223 271.861,151.113223 C272.653,150.879223 273.157,150.663223 273.985,150.663223 C275.551,150.663223 275.821,151.509223 275.821,152.481223 L275.821,152.679223 C275.497,152.625223 274.795,152.553223 273.931,152.553223 C271.951,152.553223 270.061,153.309223 270.061,155.505223 C270.061,157.107223 271.123,158.151223 272.941,158.151223 Z M273.481,156.567223 C272.581,156.567223 272.059,156.063223 272.059,155.343223 C272.059,154.263223 272.941,153.831223 274.219,153.831223 C274.885,153.831223 275.353,153.849223 275.821,153.921223 L275.821,154.227223 C275.821,155.361223 275.011,156.567223 273.481,156.567223 Z M281.257,157.971223 C281.941,157.971223 282.283,157.485223 282.283,156.927223 L282.283,146.595223 C282.283,146.037223 281.941,145.551223 281.257,145.551223 C280.591,145.551223 280.249,146.037223 280.249,146.595223 L280.249,156.927223 C280.249,157.485223 280.591,157.971223 281.257,157.971223 Z M285.415,161.751223 C286.963,161.751223 287.773,160.887223 288.835,158.061223 L291.643,150.627223 C291.715,150.411223 291.769,150.195223 291.769,149.979223 C291.769,149.583223 291.517,149.151223 290.851,149.151223 C290.401,149.151223 290.113,149.475223 289.915,150.051223 L288.061,155.559223 L285.955,149.979223 C285.757,149.475223 285.433,149.151223 284.983,149.151223 C284.263,149.151223 283.921,149.673223 283.921,150.141223 C283.921,150.357223 283.975,150.555223 284.065,150.753223 L287.125,157.971223 C286.693,159.123223 286.279,160.023223 285.433,160.023223 C284.875,160.023223 284.461,159.735223 284.029,159.735223 C283.723,159.735223 283.309,159.951223 283.309,160.527223 C283.309,161.391223 284.587,161.751223 285.415,161.751223 Z M296.197,158.151223 C298.627,158.151223 299.761,157.125223 299.761,155.415223 C299.761,152.355223 295.225,153.075223 295.225,151.419223 C295.225,150.915223 295.603,150.609223 296.431,150.609223 C297.097,150.609223 297.799,150.897223 298.303,151.095223 C298.879,151.275223 299.239,151.185223 299.437,150.753223 C299.617,150.339223 299.509,149.889223 298.933,149.565223 C298.339,149.223223 297.403,148.971223 296.359,148.971223 C294.469,148.971223 293.173,149.817223 293.173,151.491223 C293.173,154.677223 297.709,153.885223 297.709,155.595223 C297.709,156.207223 297.277,156.513223 296.377,156.513223 C295.711,156.513223 294.973,156.315223 294.289,156.009223 C293.821,155.793223 293.245,155.667223 292.975,156.225223 C292.741,156.711223 292.903,157.125223 293.389,157.467223 C294.109,157.935223 295.279,158.151223 296.197,158.151223 Z M302.659,147.927223 C303.361,147.927223 303.847,147.549223 303.847,146.829223 C303.847,146.145223 303.361,145.731223 302.659,145.731223 C301.939,145.731223 301.489,146.145223 301.489,146.829223 C301.489,147.549223 301.939,147.927223 302.659,147.927223 Z M302.659,157.971223 C303.343,157.971223 303.685,157.503223 303.685,156.927223 L303.685,150.195223 C303.685,149.637223 303.343,149.151223 302.659,149.151223 C301.993,149.151223 301.651,149.637223 301.651,150.195223 L301.651,156.927223 C301.651,157.503223 301.993,157.971223 302.659,157.971223 Z M308.905,158.151223 C311.335,158.151223 312.469,157.125223 312.469,155.415223 C312.469,152.355223 307.933,153.075223 307.933,151.419223 C307.933,150.915223 308.311,150.609223 309.139,150.609223 C309.805,150.609223 310.507,150.897223 311.011,151.095223 C311.587,151.275223 311.947,151.185223 312.145,150.753223 C312.325,150.339223 312.217,149.889223 311.641,149.565223 C311.047,149.223223 310.111,148.971223 309.067,148.971223 C307.177,148.971223 305.881,149.817223 305.881,151.491223 C305.881,154.677223 310.417,153.885223 310.417,155.595223 C310.417,156.207223 309.985,156.513223 309.085,156.513223 C308.419,156.513223 307.681,156.315223 306.997,156.009223 C306.529,155.793223 305.953,155.667223 305.683,156.225223 C305.449,156.711223 305.611,157.125223 306.097,157.467223 C306.817,157.935223 307.987,158.151223 308.905,158.151223 Z"/>
    <path fill="url(#img-business-analysis-b)" fill-rule="nonzero" d="M280,33 C220.353247,33 172,81.353247 172,141 C172,200.646753 220.353247,249 280,249 C339.646753,249 388,200.646753 388,141 C388,81.353247 339.646753,33 280,33 Z M280,76.5483871 C315.595643,76.5483871 344.451613,105.404357 344.451613,141 C344.451613,176.595643 315.595643,205.451613 280,205.451613 C244.404357,205.451613 215.548387,176.595643 215.548387,141 C215.548387,105.404357 244.404357,76.5483871 280,76.5483871 Z" opacity=".4"/>
    <g fill-rule="nonzero" opacity=".4" transform="rotate(107 275.552 184.931)">
      <use fill="#000" filter="url(#img-business-analysis-c)" xlink:href="#img-business-analysis-d"/>
      <use fill="url(#img-business-analysis-e)" xlink:href="#img-business-analysis-d"/>
    </g>
    <g fill-rule="nonzero" opacity=".4">
      <use fill="#000" filter="url(#img-business-analysis-f)" xlink:href="#img-business-analysis-g"/>
      <use fill="url(#img-business-analysis-h)" xlink:href="#img-business-analysis-g"/>
    </g>
  </g>
</svg>
