<svg xmlns="http://www.w3.org/2000/svg" xmlns:xlink="http://www.w3.org/1999/xlink" width="1173" height="273" viewBox="0 0 1173 273">
  <defs>
    <linearGradient id="img-automation-e" x1="100%" x2="0%" y1="51.212%" y2="48.788%">
      <stop offset="0%" stop-color="#1E85E9" stop-opacity=".3"/>
      <stop offset="20.276%" stop-color="#8671F3" stop-opacity=".397"/>
      <stop offset="70.727%" stop-color="#C06CFD" stop-opacity=".4"/>
      <stop offset="100%" stop-color="#FFBEE8" stop-opacity=".3"/>
    </linearGradient>
    <linearGradient id="img-automation-f" x1="100%" x2="0%" y1="63.851%" y2="36.149%">
      <stop offset="0%" stop-color="#BED7F9"/>
      <stop offset="20.276%" stop-color="#D4C6FB"/>
      <stop offset="70.727%" stop-color="#ECCDFD"/>
      <stop offset="100%" stop-color="#FBE5F9"/>
    </linearGradient>
    <linearGradient id="img-automation-i" x1="100%" x2="0%" y1="55.197%" y2="44.803%">
      <stop offset="0%" stop-color="#BED7F9"/>
      <stop offset="20.276%" stop-color="#D4C6FB"/>
      <stop offset="70.727%" stop-color="#ECCDFD"/>
      <stop offset="100%" stop-color="#FBE5F9"/>
    </linearGradient>
    <path id="img-automation-h" d="M497.793166,29.1783156 L499.34476,54.8421765 L527.415372,56.3760542 C512.128715,69.2167743 502.41203,88.4736605 502.41203,110 C502.41203,144.640138 527.573556,173.403487 560.617066,179.010504 L560.617066,179.010504 L572.398437,179.000005 L572.400001,179.999999 C572.404011,180 572.40802,180 572.41203,180 C602.523403,180 628.194172,160.987516 638.07462,134.312266 L666.21379,135.851658 L667.901246,163.79008 L668.401678,163.761608 C649.564675,197.322413 613.63667,220 572.41203,220 C567.394075,220 562.454596,219.664002 557.614864,219.013277 L557.614864,219.013277 L438.842,219.091 L457.555122,199.111111 L438.804,179.09 L486.78602,179.05804 C471.702974,160.379866 462.606951,136.666136 462.415126,110.834025 L462.41203,110 C462.41203,78.0464715 476.036535,49.2751167 497.793166,29.1783156 Z M201.841,179.246 L220.445,199.11 L201.586,219.247 L0.0271848928,219.380855 L20.01401,199.995186 L0,179.380864 L201.841,179.246 Z M434.697,179.092 L453.445,199.111 L434.729,219.094 L205.698,219.245 L224.555122,199.111111 L205.948,179.244 L434.697,179.092 Z M572.41203,0 C633.163352,0 682.41203,49.2486775 682.41203,110 C682.41203,127.820388 678.174455,144.651037 670.652003,159.539249 L669.047445,133.00171 L639.091889,131.364309 C641.248004,124.629371 642.41203,117.450622 642.41203,110 C642.41203,71.3400675 611.071962,40 572.41203,40 C556.909979,40 542.584882,45.0391356 530.985415,53.5687298 L502.178551,51.9924011 L500.645161,26.6337651 C519.908979,10.0352304 544.988578,0 572.41203,0 Z"/>
    <filter id="img-automation-g" width="101%" height="103.2%" x="-.4%" y="-1.1%" filterUnits="objectBoundingBox">
      <feOffset dx="1" dy="1" in="SourceAlpha" result="shadowOffsetOuter1"/>
      <feGaussianBlur in="shadowOffsetOuter1" result="shadowBlurOuter1" stdDeviation="1"/>
      <feColorMatrix in="shadowBlurOuter1" values="0 0 0 0 0   0 0 0 0 0   0 0 0 0 0  0 0 0 0.105823864 0"/>
    </filter>
    <filter id="img-automation-j" width="137%" height="250%" x="-18.5%" y="-75%" filterUnits="objectBoundingBox">
      <feGaussianBlur in="SourceGraphic" stdDeviation="5"/>
    </filter>
    <linearGradient id="img-automation-k" x1="210.464%" x2="-348.439%" y1="48.536%" y2="57.256%">
      <stop offset="0%" stop-color="#BED7F9"/>
      <stop offset="28.036%" stop-color="#D4C6FB"/>
      <stop offset="70.727%" stop-color="#ECCDFD"/>
      <stop offset="100%" stop-color="#FBE5F9"/>
    </linearGradient>
    <filter id="img-automation-l" width="108.8%" height="108.8%" x="-4.4%" y="-4.4%" filterUnits="objectBoundingBox">
      <feGaussianBlur in="SourceGraphic" stdDeviation="2"/>
    </filter>
    <filter id="img-automation-m" width="108.8%" height="108.8%" x="-4.4%" y="-4.4%" filterUnits="objectBoundingBox">
      <feGaussianBlur in="SourceGraphic" stdDeviation="2"/>
    </filter>
    <linearGradient id="img-automation-n" x1="100%" x2="-78.055%" y1="79.342%" y2="-7.31%">
      <stop offset="0%" stop-color="#BED7F9"/>
      <stop offset="20.276%" stop-color="#D4C6FB"/>
      <stop offset="70.727%" stop-color="#ECCDFD"/>
      <stop offset="100%" stop-color="#FBE5F9"/>
    </linearGradient>
    <filter id="img-automation-o" width="158.1%" height="250%" x="-29%" y="-75%" filterUnits="objectBoundingBox">
      <feGaussianBlur in="SourceGraphic" stdDeviation="5"/>
    </filter>
    <linearGradient id="img-automation-p" x1="218.731%" x2="-297.009%" y1="63.78%" y2="66.132%">
      <stop offset="0%" stop-color="#BED7F9"/>
      <stop offset="30.03%" stop-color="#D4C6FB"/>
      <stop offset="70.727%" stop-color="#ECCDFD"/>
      <stop offset="100%" stop-color="#FBE5F9"/>
      <stop offset="100%" stop-color="#FBE5F9"/>
    </linearGradient>
    <filter id="img-automation-q" width="158.1%" height="250%" x="-29%" y="-75%" filterUnits="objectBoundingBox">
      <feGaussianBlur in="SourceGraphic" stdDeviation="5"/>
    </filter>
    <linearGradient id="img-automation-r" x1="214.903%" x2="-183.495%" y1="50%" y2="63.124%">
      <stop offset="0%" stop-color="#BED7F9"/>
      <stop offset="30.03%" stop-color="#D4C6FB"/>
      <stop offset="70.727%" stop-color="#ECCDFD"/>
      <stop offset="100%" stop-color="#FBE5F9"/>
      <stop offset="100%" stop-color="#FBE5F9"/>
    </linearGradient>
    <linearGradient id="img-automation-s" x1="50%" x2="50%" y1="0%" y2="115.119%">
      <stop offset="0%" stop-color="#CFC6FA" stop-opacity=".584"/>
      <stop offset="100%" stop-color="#FFF" stop-opacity="0"/>
    </linearGradient>
    <circle id="img-automation-a" cx="572" cy="134" r="134"/>
    <mask id="img-automation-t" width="268" height="268" x="0" y="0" fill="#fff" maskContentUnits="userSpaceOnUse" maskUnits="objectBoundingBox">
      <use xlink:href="#img-automation-a"/>
    </mask>
    <circle id="img-automation-b" cx="299" cy="170" r="103"/>
    <mask id="img-automation-u" width="206" height="206" x="0" y="0" fill="#fff" maskContentUnits="userSpaceOnUse" maskUnits="objectBoundingBox">
      <use xlink:href="#img-automation-b"/>
    </mask>
    <circle id="img-automation-c" cx="845" cy="170" r="103"/>
    <mask id="img-automation-v" width="206" height="206" x="0" y="0" fill="#fff" maskContentUnits="userSpaceOnUse" maskUnits="objectBoundingBox">
      <use xlink:href="#img-automation-c"/>
    </mask>
    <circle id="img-automation-d" cx="572" cy="134" r="49"/>
    <mask id="img-automation-w" width="98" height="98" x="0" y="0" fill="#fff" maskContentUnits="userSpaceOnUse" maskUnits="objectBoundingBox">
      <use xlink:href="#img-automation-d"/>
    </mask>
  </defs>
  <g fill="none" fill-rule="evenodd">
    <g transform="translate(4)">
      <g fill-rule="nonzero" transform="translate(0 24)">
        <path fill="url(#img-automation-e)" d="M502,110 C502,148.659932 533.340068,180 572,180 L572.012029,179.999999 L572.013592,179.000005 L583.798965,179.009825 C608.651435,174.791225 629.0447,157.473563 637.626726,134.408873 L637.615884,134.719885 L666.185294,135.655808 L667.121374,164.225375 L667.739077,164.205618 C664.769931,169.438514 661.384147,174.404019 657.626822,179.057035 L721.703,179.099 L740.445,199.111 L721.723,219.1 L586.805178,219.012199 C581.962886,219.663631 577.020725,220 572,220 C511.856191,220 462.986124,171.731371 462.014737,111.819051 L462,110 L502,110 Z M958.959,179.255 L1148.41203,179.380864 L1168.39754,200.699173 L1148.38485,219.380855 L958.688,219.256 L977.555122,199.111111 L958.959,179.255 Z M725.815,179.102 L954.847,179.253 L973.445,199.111 L954.58,219.253 L725.831,219.103 L744.555122,199.111111 L725.815,179.102 Z M682,110 C682,128.020021 677.66695,145.028004 669.985927,160.038873 L669.091667,132.749592 L638.555267,131.749617 C640.689098,125.21574 641.887562,118.258932 641.992469,111.037382 L642,110 L682,110 Z"/>
        <path fill="url(#img-automation-f)" d="M299,71 C339.869071,71 373,104.130929 373,145 C373,185.869071 339.869071,219 299,219 C298.304321,219 297.610883,218.9904 296.919813,218.971326 L296.920449,219 L205.927734,219 L224.555122,199.111111 L205.720734,179 L233.256134,179.000293 C227.980424,168.819735 225,157.257925 225,145 C225,104.130929 258.130929,71 299,71 Z M201.609734,179 L220.445,199.11 L201.816734,219 L91.8027344,219 L91.8027344,179 L201.609734,179 Z M299,111 C280.222319,111 265,126.222319 265,145 C265,163.777681 280.222319,179 299,179 C317.777681,179 333,163.777681 333,145 C333,126.222319 317.777681,111 299,111 Z"/>
        <use fill="#000" filter="url(#img-automation-g)" xlink:href="#img-automation-h"/>
        <use fill="url(#img-automation-i)" xlink:href="#img-automation-h"/>
        <g transform="translate(462 180)">
          <rect width="81" height="20" x="27" y="4" fill="#391CA1" filter="url(#img-automation-j)" opacity=".5"/>
          <rect width="123" height="38" fill="url(#img-automation-k)"/>
        </g>
        <path fill="#453696" d="M305,77 C267.444637,77 237,107.444637 237,145 C237,182.555363 267.444637,213 305,213 C342.555363,213 373,182.555363 373,145 C373,107.444637 342.555363,77 305,77 Z M305,97 C331.509668,97 353,118.490332 353,145 C353,171.509668 331.509668,193 305,193 C278.490332,193 257,171.509668 257,145 C257,118.490332 278.490332,97 305,97 Z" filter="url(#img-automation-l)" opacity=".7"/>
        <path fill="url(#img-automation-f)" d="M299,71 C339.869071,71 373,104.130929 373,145 C373,185.869071 339.869071,219 299,219 C298.304321,219 297.610883,218.9904 296.919813,218.971326 L296.920449,219 L205.927734,219 L224.555122,199.111111 L205.720734,179 L233.256134,179.000293 C227.980424,168.819735 225,157.257925 225,145 C225,104.130929 258.130929,71 299,71 Z M201.609734,179 L220.445,199.11 L201.816734,219 L91.8027344,219 L91.8027344,179 L201.609734,179 Z M299,111 C280.222319,111 265,126.222319 265,145 C265,163.777681 280.222319,179 299,179 C317.777681,179 333,163.777681 333,145 C333,126.222319 317.777681,111 299,111 Z"/>
        <path fill="#453696" d="M852,77 C814.444637,77 784,107.444637 784,145 C784,182.555363 814.444637,213 852,213 C889.555363,213 920,182.555363 920,145 C920,107.444637 889.555363,77 852,77 Z M852,97 C878.509668,97 900,118.490332 900,145 C900,171.509668 878.509668,193 852,193 C825.490332,193 804,171.509668 804,145 C804,118.490332 825.490332,97 852,97 Z" filter="url(#img-automation-m)" opacity=".5"/>
        <path fill="url(#img-automation-n)" d="M845.197266,71 C886.066337,71 919.197266,104.130929 919.197266,145 C919.197266,185.869071 886.066337,219 845.197266,219 C844.501586,219 843.808149,218.9904 843.117079,218.971326 L843.117715,219 L726,219 L745,198.980469 L726,179 L779.4534,179.000293 C774.177689,168.819735 771.197266,157.257925 771.197266,145 C771.197266,104.130929 804.328194,71 845.197266,71 Z M845.197266,111 C826.419584,111 811.197266,126.222319 811.197266,145 C811.197266,163.777681 826.419584,179 845.197266,179 C863.974947,179 879.197266,163.777681 879.197266,145 C879.197266,126.222319 863.974947,111 845.197266,111 Z"/>
        <g transform="translate(776 180)">
          <rect width="51.659" height="20" x="18.22" y="4" fill="#391CA1" filter="url(#img-automation-o)" opacity=".5"/>
          <rect width="83" height="38" fill="url(#img-automation-p)"/>
        </g>
        <g transform="translate(228 180)">
          <rect width="51.659" height="20" x="18.22" y="4" fill="#391CA1" filter="url(#img-automation-q)" opacity=".5"/>
          <rect width="83" height="38" fill="url(#img-automation-r)"/>
        </g>
      </g>
      <use stroke="url(#img-automation-s)" stroke-dasharray="2" stroke-width="2" mask="url(#img-automation-t)" xlink:href="#img-automation-a"/>
      <use stroke="url(#img-automation-s)" stroke-dasharray="2" stroke-width="2" mask="url(#img-automation-u)" xlink:href="#img-automation-b"/>
      <use stroke="url(#img-automation-s)" stroke-dasharray="2" stroke-width="2" mask="url(#img-automation-v)" xlink:href="#img-automation-c"/>
      <use stroke="url(#img-automation-s)" stroke-dasharray="2" stroke-width="2" mask="url(#img-automation-w)" xlink:href="#img-automation-d"/>
    </g>
    <path fill="#000" fill-rule="nonzero" d="M566.436,126 C567.076,126 567.396,125.568 567.396,125.024 L567.396,116.672 L570.228,116.672 C570.804,116.672 571.156,116.32 571.156,115.808 C571.156,115.28 570.804,114.96 570.228,114.96 L562.644,114.96 C562.084,114.96 561.732,115.28 561.732,115.808 C561.732,116.32 562.084,116.672 562.644,116.672 L565.476,116.672 L565.476,125.024 C565.476,125.568 565.796,126 566.436,126 Z M575.812,126.16 C576.724,126.16 577.652,126 578.34,125.536 C578.756,125.264 578.852,124.848 578.676,124.512 C578.5,124.208 578.196,124.08 577.684,124.288 C577.188,124.496 576.676,124.704 575.988,124.704 C574.756,124.704 573.956,123.952 573.908,122.736 L577.988,122.736 C578.628,122.736 578.9,122.464 579.044,121.936 C579.092,121.76 579.124,121.408 579.124,121.184 C579.124,119.312 577.94,118 575.844,118 C573.54,118 572.116,119.632 572.116,122.112 C572.116,124.688 573.412,126.16 575.812,126.16 Z M577.444,121.472 L573.908,121.472 C574.02,120.176 574.708,119.456 575.844,119.456 C576.948,119.456 577.46,120.16 577.46,121.072 C577.46,121.216 577.46,121.312 577.444,121.472 Z M583.332,126.16 C585.492,126.16 586.5,125.248 586.5,123.728 C586.5,121.008 582.468,121.648 582.468,120.176 C582.468,119.728 582.804,119.456 583.54,119.456 C584.132,119.456 584.756,119.712 585.204,119.888 C585.716,120.048 586.036,119.968 586.212,119.584 C586.372,119.216 586.276,118.816 585.764,118.528 C585.236,118.224 584.404,118 583.476,118 C581.796,118 580.644,118.752 580.644,120.24 C580.644,123.072 584.676,122.368 584.676,123.888 C584.676,124.432 584.292,124.704 583.492,124.704 C582.9,124.704 582.244,124.528 581.636,124.256 C581.22,124.064 580.708,123.952 580.468,124.448 C580.26,124.88 580.404,125.248 580.836,125.552 C581.476,125.968 582.516,126.16 583.332,126.16 Z M591.252,126.16 C591.812,126.16 592.404,126.048 592.852,125.792 C593.284,125.536 593.54,125.152 593.348,124.672 C593.188,124.288 592.788,124.208 592.388,124.368 C592.196,124.448 591.844,124.56 591.54,124.56 C590.868,124.56 590.628,124.16 590.628,123.264 L590.628,119.696 L591.988,119.696 C592.564,119.696 592.852,119.408 592.852,118.928 C592.852,118.432 592.564,118.16 591.988,118.16 L590.628,118.16 L590.628,117.168 C590.628,116.672 590.324,116.24 589.716,116.24 C589.124,116.24 588.82,116.672 588.82,117.168 L588.82,118.16 L588.404,118.16 C587.828,118.16 587.54,118.432 587.54,118.928 C587.54,119.408 587.828,119.696 588.404,119.696 L588.82,119.696 L588.82,123.456 C588.82,125.36 589.716,126.16 591.252,126.16 Z M538.54,146.16 C539.868,146.16 540.668,145.536 541.1,144.784 L541.1,145.072 C541.1,145.584 541.372,146 541.964,146 C542.572,146 542.828,145.584 542.828,145.072 L542.828,140.976 C542.828,139.12 541.868,138 539.676,138 C538.668,138 537.644,138.208 537.068,138.592 C536.7,138.832 536.54,139.152 536.668,139.536 C536.796,139.92 537.196,140.016 537.58,139.904 C538.284,139.696 538.732,139.504 539.468,139.504 C540.86,139.504 541.1,140.256 541.1,141.12 L541.1,141.296 C540.812,141.248 540.188,141.184 539.42,141.184 C537.66,141.184 535.98,141.856 535.98,143.808 C535.98,145.232 536.924,146.16 538.54,146.16 Z M539.02,144.752 C538.22,144.752 537.756,144.304 537.756,143.664 C537.756,142.704 538.54,142.32 539.676,142.32 C540.268,142.32 540.684,142.336 541.1,142.4 L541.1,142.672 C541.1,143.68 540.38,144.752 539.02,144.752 Z M547.804,146.16 C548.748,146.16 549.692,145.744 550.172,144.832 L550.172,145.072 C550.172,145.568 550.476,146 551.084,146 C551.676,146 551.98,145.568 551.98,145.072 L551.98,139.088 C551.98,138.576 551.676,138.16 551.084,138.16 C550.476,138.16 550.172,138.576 550.172,139.088 L550.172,141.152 C550.14,142.944 549.788,144.56 548.236,144.56 C547.212,144.56 546.876,143.824 546.876,142.768 L546.876,139.088 C546.876,138.576 546.572,138.16 545.98,138.16 C545.372,138.16 545.068,138.576 545.068,139.088 L545.068,142.736 C545.068,144.864 545.724,146.16 547.804,146.16 Z M557.292,146.16 C557.852,146.16 558.444,146.048 558.892,145.792 C559.324,145.536 559.58,145.152 559.388,144.672 C559.228,144.288 558.828,144.208 558.428,144.368 C558.236,144.448 557.884,144.56 557.58,144.56 C556.908,144.56 556.668,144.16 556.668,143.264 L556.668,139.696 L558.028,139.696 C558.604,139.696 558.892,139.408 558.892,138.928 C558.892,138.432 558.604,138.16 558.028,138.16 L556.668,138.16 L556.668,137.168 C556.668,136.672 556.364,136.24 555.756,136.24 C555.164,136.24 554.86,136.672 554.86,137.168 L554.86,138.16 L554.444,138.16 C553.868,138.16 553.58,138.432 553.58,138.928 C553.58,139.408 553.868,139.696 554.444,139.696 L554.86,139.696 L554.86,143.456 C554.86,145.36 555.756,146.16 557.292,146.16 Z M564.092,146.16 C566.572,146.16 567.932,144.4 567.932,142.08 C567.932,139.776 566.572,138 564.092,138 C561.612,138 560.268,139.76 560.268,142.08 C560.268,144.4 561.612,146.16 564.092,146.16 Z M564.092,144.624 C562.796,144.624 562.124,143.536 562.124,142.08 C562.124,140.64 562.78,139.536 564.092,139.536 C565.42,139.536 566.076,140.64 566.076,142.08 C566.076,143.536 565.42,144.624 564.092,144.624 Z M580.284,146 C580.892,146 581.18,145.584 581.18,145.072 L581.18,141.376 C581.18,139.296 580.636,138 578.684,138 C577.564,138 576.556,138.56 576.092,139.552 C575.804,138.544 575.02,138 573.98,138 C572.844,138 572.044,138.496 571.548,139.344 L571.548,139.088 C571.548,138.592 571.26,138.16 570.652,138.16 C570.06,138.16 569.772,138.592 569.772,139.088 L569.772,145.072 C569.772,145.584 570.06,146 570.652,146 C571.26,146 571.548,145.584 571.548,145.072 L571.548,142.944 C571.564,141.312 571.884,139.536 573.42,139.536 C574.476,139.536 574.588,140.448 574.588,141.68 L574.588,145.072 C574.588,145.584 574.876,146 575.468,146 C576.076,146 576.364,145.584 576.364,145.072 L576.364,143.088 C576.364,141.424 576.636,139.536 578.236,139.536 C579.212,139.536 579.404,140.272 579.404,141.328 L579.404,145.072 C579.404,145.584 579.692,146 580.284,146 Z M585.26,146.16 C586.588,146.16 587.388,145.536 587.82,144.784 L587.82,145.072 C587.82,145.584 588.092,146 588.684,146 C589.292,146 589.548,145.584 589.548,145.072 L589.548,140.976 C589.548,139.12 588.588,138 586.396,138 C585.388,138 584.364,138.208 583.788,138.592 C583.42,138.832 583.26,139.152 583.388,139.536 C583.516,139.92 583.916,140.016 584.3,139.904 C585.004,139.696 585.452,139.504 586.188,139.504 C587.58,139.504 587.82,140.256 587.82,141.12 L587.82,141.296 C587.532,141.248 586.908,141.184 586.14,141.184 C584.38,141.184 582.7,141.856 582.7,143.808 C582.7,145.232 583.644,146.16 585.26,146.16 Z M585.74,144.752 C584.94,144.752 584.476,144.304 584.476,143.664 C584.476,142.704 585.26,142.32 586.396,142.32 C586.988,142.32 587.404,142.336 587.82,142.4 L587.82,142.672 C587.82,143.68 587.1,144.752 585.74,144.752 Z M594.86,146.16 C595.42,146.16 596.012,146.048 596.46,145.792 C596.892,145.536 597.148,145.152 596.956,144.672 C596.796,144.288 596.396,144.208 595.996,144.368 C595.804,144.448 595.452,144.56 595.148,144.56 C594.476,144.56 594.236,144.16 594.236,143.264 L594.236,139.696 L595.596,139.696 C596.172,139.696 596.46,139.408 596.46,138.928 C596.46,138.432 596.172,138.16 595.596,138.16 L594.236,138.16 L594.236,137.168 C594.236,136.672 593.932,136.24 593.324,136.24 C592.732,136.24 592.428,136.672 592.428,137.168 L592.428,138.16 L592.012,138.16 C591.436,138.16 591.148,138.432 591.148,138.928 C591.148,139.408 591.436,139.696 592.012,139.696 L592.428,139.696 L592.428,143.456 C592.428,145.36 593.324,146.16 594.86,146.16 Z M599.132,137.072 C599.756,137.072 600.188,136.736 600.188,136.096 C600.188,135.488 599.756,135.12 599.132,135.12 C598.492,135.12 598.092,135.488 598.092,136.096 C598.092,136.736 598.492,137.072 599.132,137.072 Z M599.132,146 C599.74,146 600.044,145.584 600.044,145.072 L600.044,139.088 C600.044,138.592 599.74,138.16 599.132,138.16 C598.54,138.16 598.236,138.592 598.236,139.088 L598.236,145.072 C598.236,145.584 598.54,146 599.132,146 Z M605.708,146.16 C608.188,146.16 609.548,144.4 609.548,142.08 C609.548,139.776 608.188,138 605.708,138 C603.228,138 601.884,139.76 601.884,142.08 C601.884,144.4 603.228,146.16 605.708,146.16 Z M605.708,144.624 C604.412,144.624 603.74,143.536 603.74,142.08 C603.74,140.64 604.396,139.536 605.708,139.536 C607.036,139.536 607.692,140.64 607.692,142.08 C607.692,143.536 607.036,144.624 605.708,144.624 Z M617.388,146 C617.996,146 618.3,145.584 618.3,145.072 L618.3,141.424 C618.3,139.296 617.644,138 615.564,138 C614.62,138 613.676,138.416 613.196,139.328 L613.196,139.088 C613.196,138.592 612.892,138.16 612.284,138.16 C611.692,138.16 611.388,138.592 611.388,139.088 L611.388,145.072 C611.388,145.584 611.692,146 612.284,146 C612.892,146 613.196,145.584 613.196,145.072 L613.196,143.008 C613.228,141.216 613.58,139.6 615.132,139.6 C616.156,139.6 616.492,140.336 616.492,141.392 L616.492,145.072 C616.492,145.584 616.796,146 617.388,146 Z"/>
  </g>
</svg>
