<svg xmlns="http://www.w3.org/2000/svg" xmlns:xlink="http://www.w3.org/1999/xlink" width="361" height="348" viewBox="0 0 361 348">
  <defs>
    <linearGradient id="img-expertise-a" x1="65.714%" x2="34.286%" y1="100%" y2="0%">
      <stop offset="0%" stop-color="#1E85E9" stop-opacity=".3"/>
      <stop offset="20.276%" stop-color="#8671F3" stop-opacity=".397"/>
      <stop offset="70.727%" stop-color="#C06CFD" stop-opacity=".4"/>
      <stop offset="100%" stop-color="#FFBEE8" stop-opacity=".3"/>
    </linearGradient>
    <linearGradient id="img-expertise-b" x1="57.986%" x2="-50.821%" y1="101.421%" y2="16.893%">
      <stop offset="0%" stop-color="#E3E0E0"/>
      <stop offset="100%" stop-color="#FFF"/>
      <stop offset="100%" stop-color="#FFF"/>
    </linearGradient>
    <circle id="img-expertise-d" cx="148.5" cy="87.5" r="32.5"/>
    <filter id="img-expertise-c" width="132.3%" height="132.3%" x="-16.2%" y="-11.5%" filterUnits="objectBoundingBox">
      <feOffset dy="3" in="SourceAlpha" result="shadowOffsetOuter1"/>
      <feGaussianBlur in="shadowOffsetOuter1" result="shadowBlurOuter1" stdDeviation="3"/>
      <feColorMatrix in="shadowBlurOuter1" values="0 0 0 0 0.0415817482   0 0 0 0 0.0415817482   0 0 0 0 0.0415817482  0 0 0 0.0793542395 0"/>
    </filter>
    <linearGradient id="img-expertise-e" x1="100%" x2="0%" y1="100%" y2="0%">
      <stop offset="0%" stop-color="#1E85E9"/>
      <stop offset="20.276%" stop-color="#8671F3"/>
      <stop offset="70.727%" stop-color="#C06CFD" stop-opacity=".99"/>
      <stop offset="100%" stop-color="#FFBEE8"/>
    </linearGradient>
    <circle id="img-expertise-g" cx="148.5" cy="162.5" r="32.5"/>
    <filter id="img-expertise-f" width="132.3%" height="132.3%" x="-16.2%" y="-11.5%" filterUnits="objectBoundingBox">
      <feOffset dy="3" in="SourceAlpha" result="shadowOffsetOuter1"/>
      <feGaussianBlur in="shadowOffsetOuter1" result="shadowBlurOuter1" stdDeviation="3"/>
      <feColorMatrix in="shadowBlurOuter1" values="0 0 0 0 0.0415817482   0 0 0 0 0.0415817482   0 0 0 0 0.0415817482  0 0 0 0.0793542395 0"/>
    </filter>
    <linearGradient id="img-expertise-h" x1="100%" x2="0%" y1="81.531%" y2="18.469%">
      <stop offset="0%" stop-color="#1E85E9"/>
      <stop offset="20.276%" stop-color="#8671F3"/>
      <stop offset="70.727%" stop-color="#C06CFD" stop-opacity=".99"/>
      <stop offset="100%" stop-color="#FFBEE8"/>
    </linearGradient>
    <circle id="img-expertise-j" cx="148.5" cy="237.5" r="32.5"/>
    <filter id="img-expertise-i" width="132.3%" height="132.3%" x="-16.2%" y="-11.5%" filterUnits="objectBoundingBox">
      <feOffset dy="3" in="SourceAlpha" result="shadowOffsetOuter1"/>
      <feGaussianBlur in="shadowOffsetOuter1" result="shadowBlurOuter1" stdDeviation="3"/>
      <feColorMatrix in="shadowBlurOuter1" values="0 0 0 0 0.0415817482   0 0 0 0 0.0415817482   0 0 0 0 0.0415817482  0 0 0 0.0793542395 0"/>
    </filter>
    <linearGradient id="img-expertise-k" x1="93.52%" x2="6.48%" y1="100%" y2="0%">
      <stop offset="0%" stop-color="#1E85E9"/>
      <stop offset="20.276%" stop-color="#8671F3"/>
      <stop offset="70.727%" stop-color="#C06CFD" stop-opacity=".99"/>
      <stop offset="100%" stop-color="#FFBEE8"/>
    </linearGradient>
    <circle id="img-expertise-m" cx="78.5" cy="122.5" r="32.5"/>
    <filter id="img-expertise-l" width="132.3%" height="132.3%" x="-16.2%" y="-11.5%" filterUnits="objectBoundingBox">
      <feOffset dy="3" in="SourceAlpha" result="shadowOffsetOuter1"/>
      <feGaussianBlur in="shadowOffsetOuter1" result="shadowBlurOuter1" stdDeviation="3"/>
      <feColorMatrix in="shadowBlurOuter1" values="0 0 0 0 0.0415817482   0 0 0 0 0.0415817482   0 0 0 0 0.0415817482  0 0 0 0.0793542395 0"/>
    </filter>
    <linearGradient id="img-expertise-n" x1="84.245%" x2="15.755%" y1="100%" y2="0%">
      <stop offset="0%" stop-color="#1E85E9"/>
      <stop offset="20.276%" stop-color="#8671F3"/>
      <stop offset="70.727%" stop-color="#C06CFD" stop-opacity=".99"/>
      <stop offset="100%" stop-color="#FFBEE8"/>
    </linearGradient>
    <circle id="img-expertise-p" cx="78.5" cy="197.5" r="32.5"/>
    <filter id="img-expertise-o" width="132.3%" height="132.3%" x="-16.2%" y="-11.5%" filterUnits="objectBoundingBox">
      <feOffset dy="3" in="SourceAlpha" result="shadowOffsetOuter1"/>
      <feGaussianBlur in="shadowOffsetOuter1" result="shadowBlurOuter1" stdDeviation="3"/>
      <feColorMatrix in="shadowBlurOuter1" values="0 0 0 0 0.0415817482   0 0 0 0 0.0415817482   0 0 0 0 0.0415817482  0 0 0 0.0793542395 0"/>
    </filter>
    <linearGradient id="img-expertise-q" x1="62.962%" x2="37.038%" y1="100%" y2="0%">
      <stop offset="0%" stop-color="#1E85E9"/>
      <stop offset="20.276%" stop-color="#8671F3"/>
      <stop offset="70.727%" stop-color="#C06CFD" stop-opacity=".99"/>
      <stop offset="100%" stop-color="#FFBEE8"/>
    </linearGradient>
  </defs>
  <g fill="none" fill-rule="evenodd" transform="translate(0 1)">
    <path fill="url(#img-expertise-a)" d="M192.5,50.5 L270.5,166 L192.5,281.5 L192.5,253 L141,253 L141,79 L192.5,79 L192.5,50.5 Z"/>
    <circle cx="181" cy="173" r="173" stroke="url(#img-expertise-b)" opacity=".6"/>
    <circle cx="7.5" cy="167.5" r="3.5" fill="#5055FE" transform="rotate(51 7.5 167.5)"/>
    <circle cx="7.5" cy="167.5" r="7.5" fill="#5055FE" opacity=".103"/>
    <g fill="#5055FE" transform="translate(69 304)">
      <circle cx="7.5" cy="7.5" r="3.5" transform="rotate(51 7.5 7.5)"/>
      <circle cx="7.5" cy="7.5" r="7.5" opacity=".103"/>
    </g>
    <circle cx="353.5" cy="167.5" r="3.5" fill="#5055FE" transform="rotate(51 353.5 167.5)"/>
    <circle cx="353.5" cy="167.5" r="7.5" fill="#5055FE" opacity=".103"/>
    <circle cx="283.5" cy="34.5" r="3.5" fill="#5055FE" transform="rotate(51 283.5 34.5)"/>
    <circle cx="283.5" cy="34.5" r="7.5" fill="#5055FE" opacity=".103"/>
    <use fill="#000" filter="url(#img-expertise-c)" xlink:href="#img-expertise-d"/>
    <use fill="#FFF" xlink:href="#img-expertise-d"/>
    <path fill="url(#img-expertise-e)" fill-rule="nonzero" d="M153.634453,74 L142.365547,74 C141.826784,74 141.390029,74.4367542 141.390029,74.9755179 L141.390029,81.3177373 C141.390029,81.3576631 141.357663,81.3900293 141.317737,81.3900293 L134.975518,81.3900293 C134.436754,81.3900293 134,81.8267835 134,82.3655472 L134,93.6344528 L134.005724,93.7407462 C134.058687,94.2295092 134.472672,94.6099707 134.975518,94.6099707 L141.38929,94.6098065 L141.390029,101.024482 C141.390029,101.563246 141.826784,102 142.365547,102 L153.634453,102 L153.740746,101.994276 C154.229509,101.941313 154.609971,101.527328 154.609971,101.024482 L154.609806,94.6098065 L161.024482,94.6099707 C161.563246,94.6099707 162,94.1732165 162,93.6344528 L162,82.3655472 C162,81.826806 161.563274,81.3901394 161.024623,81.3899711 L154.682313,81.3892664 C154.64241,81.389254 154.609979,81.3568189 154.609971,81.3168253 L154.609971,74.9755179 C154.609971,74.4367542 154.173216,74 153.634453,74 Z M142.365547,74.9032258 L153.634453,74.9032258 C153.674379,74.9032258 153.706745,74.9355921 153.706745,74.9755179 L153.706745,81.3169162 C153.706853,81.8556574 154.143471,82.292324 154.682122,82.2924922 L161.024432,82.2931969 C161.064335,82.2932094 161.096774,82.3256444 161.096774,82.3656381 L161.096774,93.6344528 C161.096774,93.6743786 161.064408,93.7067449 161.024482,93.7067449 L153.706745,93.7067449 L153.706745,101.024482 C153.706745,101.064408 153.674379,101.096774 153.634453,101.096774 L142.365547,101.096774 C142.325621,101.096774 142.293255,101.064408 142.293255,101.024482 L142.293255,93.7067449 L134.975518,93.7067449 C134.935592,93.7067449 134.903226,93.6743786 134.903226,93.6344528 L134.903226,82.3655472 C134.903226,82.3256214 134.935592,82.2932551 134.975518,82.2932551 L141.317737,82.2932551 C141.856501,82.2932551 142.293255,81.8565009 142.293255,81.3177373 L142.293255,74.9755179 C142.293255,74.9355921 142.325621,74.9032258 142.365547,74.9032258 Z"/>
    <use fill="#000" filter="url(#img-expertise-f)" xlink:href="#img-expertise-g"/>
    <use fill="#FFF" xlink:href="#img-expertise-g"/>
    <path fill="url(#img-expertise-h)" fill-rule="nonzero" d="M146.264869,147.667749 L131,161.457111 L136.700025,161.454 L136.700455,171.409409 C136.700455,172.838335 137.857834,174 139.289675,174 L156.710325,174 L156.87427,173.994896 C158.229488,173.910245 159.299546,172.783371 159.299546,171.409367 L159.296937,161.454 L165,161.45711 L149.735131,147.667749 C148.749531,146.777417 147.25047,146.777417 146.264869,147.667749 Z M149.051648,148.405606 L162.390532,160.455 L158.284399,160.454621 L158.286913,171.40948 C158.286913,172.289653 157.579191,173 156.710325,173 L139.289675,173 C138.420812,173 137.713088,172.289655 137.713088,171.409391 L137.712691,160.454621 L133.608456,160.455 L146.948353,148.405606 C147.54703,147.864798 148.452971,147.864798 149.051648,148.405606 Z"/>
    <use fill="#000" filter="url(#img-expertise-i)" xlink:href="#img-expertise-j"/>
    <use fill="#FFF" xlink:href="#img-expertise-j"/>
    <path fill="url(#img-expertise-k)" fill-rule="nonzero" d="M140.68996,227.201364 L149.412778,235.857778 L151.996522,233.367048 C151.730031,232.964309 151.563677,232.489514 151.532949,231.978154 L151.527778,231.805556 C151.527778,230.240749 152.796304,228.972222 154.361111,228.972222 C155.925918,228.972222 157.194444,230.240749 157.194444,231.805556 C157.194444,233.370362 155.925918,234.638889 154.361111,234.638889 C153.71447,234.638889 153.118425,234.422266 152.641583,234.05763 L150.082778,236.522778 L158.183937,244.563455 L157.974574,244.885467 C156.474144,247.193218 154.291822,248.932123 151.765625,249.881373 L153.965492,253.214143 L153.971492,253.223352 C153.979807,253.236583 153.987484,253.250256 153.99448,253.264327 L154.005903,253.289176 C154.007295,253.292433 154.008648,253.295701 154.009961,253.298978 C154.016476,253.315181 154.022069,253.331774 154.026738,253.348748 C154.029054,253.357113 154.031122,253.365513 154.032952,253.373941 C154.03404,253.379104 154.035061,253.384238 154.035998,253.389401 L154.040127,253.416211 C154.04219,253.43297 154.043344,253.449779 154.043602,253.466563 L154.043606,253.474284 L154.043163,253.495497 C154.042444,253.511209 154.040943,253.526862 154.038673,253.542394 L154.043606,253.474284 C154.043606,253.513766 154.038761,253.552117 154.029632,253.588774 C154.026845,253.599525 154.023677,253.610545 154.02011,253.621444 C154.015787,253.634974 154.010814,253.648097 154.005287,253.660927 C153.999614,253.673993 153.993312,253.687021 153.986402,253.699765 C153.980207,253.711119 153.973737,253.721925 153.966859,253.73244 C153.95936,253.744108 153.950737,253.756115 153.941513,253.767745 C153.93416,253.776808 153.926957,253.785233 153.919472,253.793394 C153.894178,253.821157 153.86468,253.846506 153.831524,253.868391 L153.885249,253.827111 C153.875089,253.836156 153.864534,253.844769 153.853616,253.852921 L153.831524,253.868391 C153.8283,253.87052 153.825059,253.872604 153.821802,253.874643 C153.809085,253.882707 153.795412,253.890384 153.781341,253.89738 C153.769695,253.903104 153.758251,253.908226 153.74669,253.912861 C153.730487,253.919375 153.713894,253.924969 153.696919,253.929638 C153.688555,253.931954 153.680155,253.934022 153.671727,253.935852 C153.666563,253.93694 153.66143,253.937961 153.656267,253.938898 L153.629457,253.943027 C153.612698,253.94509 153.595889,253.946244 153.579105,253.946502 L153.571384,253.946506 L140.061171,253.946506 C139.72156,253.946506 139.502362,253.603882 139.620535,253.303642 L139.657232,253.229688 L141.908705,249.512221 C137.549856,247.485679 134.527778,243.067984 134.527778,237.944444 C134.527778,233.930076 136.695599,230.094731 140.074668,227.632138 L140.367247,227.424448 L140.68996,227.201364 Z M142.789223,249.881926 L140.898,253.002 L152.693778,253.001778 L150.837444,250.189909 C149.699374,250.520123 148.503415,250.694444 147.277778,250.694444 C145.698022,250.694444 144.18537,250.407138 142.789223,249.881926 Z M140.585,228.428 L140.333864,228.618237 C137.3586,230.915156 135.472222,234.366028 135.472222,237.944444 C135.472222,244.464473 140.757749,249.75 147.277778,249.75 C150.976391,249.75 154.38216,248.036328 156.593171,245.198084 L156.796925,244.928722 L156.968,244.687 L140.585,228.428 Z M154.361111,229.916667 C153.317907,229.916667 152.472222,230.762351 152.472222,231.805556 C152.472222,232.84876 153.317907,233.694444 154.361111,233.694444 C155.404316,233.694444 156.25,232.84876 156.25,231.805556 C156.25,230.762351 155.404316,229.916667 154.361111,229.916667 Z M154.833333,219.527778 C161.353362,219.527778 166.638889,224.813305 166.638889,231.333333 C166.638889,231.594134 166.427468,231.805556 166.166667,231.805556 C165.905866,231.805556 165.694444,231.594134 165.694444,231.333333 C165.694444,225.334907 160.831759,220.472222 154.833333,220.472222 C154.572532,220.472222 154.361111,220.260801 154.361111,220 C154.361111,219.739199 154.572532,219.527778 154.833333,219.527778 Z M155.777778,224.25 C159.168192,224.25 161.916667,226.998474 161.916667,230.388889 C161.916667,230.64969 161.705246,230.861111 161.444444,230.861111 C161.183643,230.861111 160.972222,230.64969 160.972222,230.388889 C160.972222,227.520076 158.64659,225.194444 155.777778,225.194444 C155.516977,225.194444 155.305556,224.983023 155.305556,224.722222 C155.305556,224.461421 155.516977,224.25 155.777778,224.25 Z"/>
    <use fill="#000" filter="url(#img-expertise-l)" xlink:href="#img-expertise-m"/>
    <use fill="#FFF" xlink:href="#img-expertise-m"/>
    <path fill="url(#img-expertise-n)" fill-rule="nonzero" d="M77.9999613,108 C81.2555187,108 83.9127325,110.537308 84.0656704,113.724222 L86.866902,113.724479 C87.6473563,113.724479 88.2968117,114.318441 88.3588888,115.088981 L88.3588888,115.088981 L89.9951806,135.399678 C90.0609297,136.215797 89.4462446,136.930183 88.6222431,136.995303 C88.5826387,136.998433 88.5429242,137 88.5031939,137 L88.5031939,137 L67.4967288,137 C66.6701083,137 66,136.336302 66,135.517588 C66,135.478238 66.0015819,135.438904 66.0047421,135.399678 L66.0047421,135.399678 L67.6410339,115.088981 C67.7031109,114.318441 68.3525663,113.724479 69.1330206,113.724479 L69.1330206,113.724479 L71.9342609,113.724042 C72.0872905,110.537212 74.7444655,108 77.9999613,108 Z M86.866902,114.617458 L69.1330206,114.617458 C68.8226982,114.617458 68.5644632,114.853628 68.5397803,115.160008 L68.5397803,115.160008 L66.9034885,135.470705 L66.901603,135.517588 C66.901603,135.843123 67.1680499,136.107022 67.4967288,136.107022 L67.4967288,136.107022 L88.5268807,136.106554 L88.5505299,136.105154 C88.8781675,136.079261 89.1225771,135.795209 89.0964342,135.470705 L89.0964342,135.470705 L87.4601423,115.160008 C87.4354594,114.853628 87.1772245,114.617458 86.866902,114.617458 L86.866902,114.617458 Z M77.9999613,108.892978 C75.2425481,108.892978 72.9892192,111.030575 72.8370901,113.723931 L83.162841,113.72408 C83.0107866,111.030654 80.7574255,108.892978 77.9999613,108.892978 Z"/>
    <use fill="#000" filter="url(#img-expertise-o)" xlink:href="#img-expertise-p"/>
    <use fill="#FFF" xlink:href="#img-expertise-p"/>
    <path fill="url(#img-expertise-q)" fill-rule="nonzero" d="M77.4623185,182 L77.4632978,185.138672 C81.2070031,185.315664 83.5412345,187.677959 84.396718,192.097368 L84.4549242,192.414328 L83.4697128,192.585672 C82.7451237,188.419338 80.7672826,186.315797 77.4631908,186.13997 L77.4620199,197.516991 C78.3681012,197.877329 79.3730709,198.226665 80.4837068,198.563099 C87.9300261,202.030905 84.9159908,210.907942 77.4628742,210.513215 L77.4623185,213 L76.4623185,213 L76.4621058,210.411825 C72.044986,209.787616 69.5351248,207.213516 69.0310906,202.783747 L69,202.480657 L69.9958329,202.38946 C70.3714688,206.491239 72.4929539,208.796173 76.4617002,209.401203 L76.4622444,198.183423 C71.4060304,196.030414 69.3514787,193.393977 69.3514787,190.645996 C69.3514787,187.726873 71.7520574,185.308784 76.4618957,185.137615 L76.4623185,182 L77.4623185,182 Z M77.4618924,198.587584 L77.4629558,209.51161 C83.9233575,209.893857 86.4626522,202.45056 80.1279775,199.494979 C79.1678751,199.204827 78.2802542,198.90194 77.4618924,198.587584 Z M70.3514787,190.645996 C70.3514787,192.89617 72.0503835,195.141272 76.4614442,197.097065 L76.4616789,186.138013 C72.310018,186.295548 70.3514787,188.278576 70.3514787,190.645996 Z"/>
    <path fill="#000" fill-rule="nonzero" d="M289.428,171.18 C291.012,171.18 292.2,170.784 293.1,170.118 C293.73,169.65 293.802,169.038 293.514,168.606 C293.244,168.21 292.74,168.138 292.146,168.48 C291.354,168.948 290.58,169.254 289.59,169.254 C287.574,169.254 285.99,167.652 285.99,164.772 C285.99,162.108 287.304,160.326 289.536,160.326 C290.562,160.326 291.192,160.56 291.894,160.83 C292.614,161.1 293.064,160.974 293.262,160.542 C293.46,160.11 293.37,159.606 292.83,159.228 C292.11,158.724 291.012,158.4 289.5,158.4 C285.81,158.4 283.722,160.974 283.722,164.79 C283.722,168.606 285.558,171.18 289.428,171.18 Z M299.526,171.18 C302.316,171.18 303.846,169.2 303.846,166.59 C303.846,163.998 302.316,162 299.526,162 C296.736,162 295.224,163.98 295.224,166.59 C295.224,169.2 296.736,171.18 299.526,171.18 Z M299.526,169.452 C298.068,169.452 297.312,168.228 297.312,166.59 C297.312,164.97 298.05,163.728 299.526,163.728 C301.02,163.728 301.758,164.97 301.758,166.59 C301.758,168.228 301.02,169.452 299.526,169.452 Z M313.548,171 C314.178,171 314.574,170.622 314.574,170.046 C314.574,169.452 314.178,169.074 313.548,169.074 L308.346,169.074 L308.346,165.582 L312.36,165.582 C313.008,165.582 313.404,165.186 313.404,164.61 C313.404,164.016 313.008,163.656 312.36,163.656 L308.346,163.656 L308.346,160.506 L313.368,160.506 C313.998,160.506 314.394,160.128 314.394,159.552 C314.394,158.958 313.998,158.58 313.368,158.58 L307.284,158.58 C306.564,158.58 306.186,159.084 306.186,159.696 L306.186,169.884 C306.186,170.514 306.582,171 307.302,171 L313.548,171 Z M319.074,171.18 C321.504,171.18 322.638,170.154 322.638,168.444 C322.638,165.384 318.102,166.104 318.102,164.448 C318.102,163.944 318.48,163.638 319.308,163.638 C319.974,163.638 320.676,163.926 321.18,164.124 C321.756,164.304 322.116,164.214 322.314,163.782 C322.494,163.368 322.386,162.918 321.81,162.594 C321.216,162.252 320.28,162 319.236,162 C317.346,162 316.05,162.846 316.05,164.52 C316.05,167.706 320.586,166.914 320.586,168.624 C320.586,169.236 320.154,169.542 319.254,169.542 C318.588,169.542 317.85,169.344 317.166,169.038 C316.698,168.822 316.122,168.696 315.852,169.254 C315.618,169.74 315.78,170.154 316.266,170.496 C316.986,170.964 318.156,171.18 319.074,171.18 Z"/>
  </g>
</svg>
