<?xml version="1.0" encoding="UTF-8"?>
<svg width="528px" height="364px" viewBox="0 0 528 364" version="1.1" xmlns="http://www.w3.org/2000/svg" xmlns:xlink="http://www.w3.org/1999/xlink">
    <title>pic-certification</title>
    <defs>
        <linearGradient x1="78.125%" y1="55.4516489%" x2="21.875%" y2="59.6450173%" id="linearGradient-1">
            <stop stop-color="#1E85E9" stop-opacity="0.30039882" offset="0%"></stop>
            <stop stop-color="#8671F3" stop-opacity="0.397044362" offset="20.275549%"></stop>
            <stop stop-color="#C06CFD" stop-opacity="0.4" offset="70.7268792%"></stop>
            <stop stop-color="#FFBEE8" stop-opacity="0.3" offset="100%"></stop>
        </linearGradient>
        <linearGradient x1="34.5731847%" y1="30.5175781%" x2="-14.8684124%" y2="30.5175781%" id="linearGradient-2">
            <stop stop-color="#E3E0E0" offset="0%"></stop>
            <stop stop-color="#FFFFFF" stop-opacity="0" offset="100%"></stop>
        </linearGradient>
        <linearGradient x1="34.5731847%" y1="30.5175781%" x2="-14.8684124%" y2="30.5175781%" id="linearGradient-3">
            <stop stop-color="#E3E0E0" offset="0%"></stop>
            <stop stop-color="#FFFFFF" stop-opacity="0" offset="100%"></stop>
        </linearGradient>
        <linearGradient x1="34.5731847%" y1="30.5175781%" x2="-14.8684124%" y2="30.5175781%" id="linearGradient-4">
            <stop stop-color="#E3E0E0" offset="0%"></stop>
            <stop stop-color="#FFFFFF" stop-opacity="0" offset="100%"></stop>
        </linearGradient>
        <linearGradient x1="100%" y1="84.3918615%" x2="100%" y2="100%" id="linearGradient-5">
            <stop stop-color="#E3E0E0" offset="0%"></stop>
            <stop stop-color="#FFFFFF" stop-opacity="0" offset="100%"></stop>
        </linearGradient>
        <linearGradient x1="57.100117%" y1="28.3664773%" x2="66.2591353%" y2="0%" id="linearGradient-6">
            <stop stop-color="#E3E0E0" offset="0%"></stop>
            <stop stop-color="#FFFFFF" stop-opacity="0" offset="100%"></stop>
        </linearGradient>
        <linearGradient x1="76.8932292%" y1="41.4176758%" x2="100%" y2="33.46875%" id="linearGradient-7">
            <stop stop-color="#E3E0E0" offset="0%"></stop>
            <stop stop-color="#FFFFFF" stop-opacity="0" offset="100%"></stop>
        </linearGradient>
        <linearGradient x1="84.6841277%" y1="-1.42108547e-12%" x2="100%" y2="0%" id="linearGradient-8">
            <stop stop-color="#E3E0E0" offset="0%"></stop>
            <stop stop-color="#FFFFFF" stop-opacity="0" offset="100%"></stop>
        </linearGradient>
        <linearGradient x1="310.066869%" y1="59.6450173%" x2="0%" y2="59.6450173%" id="linearGradient-9">
            <stop stop-color="#1E85E9" stop-opacity="0.30039882" offset="0%"></stop>
            <stop stop-color="#8671F3" stop-opacity="0.397044362" offset="20.275549%"></stop>
            <stop stop-color="#C06CFD" stop-opacity="0.4" offset="70.7268792%"></stop>
            <stop stop-color="#FFBEE8" stop-opacity="0.3" offset="100%"></stop>
        </linearGradient>
        <linearGradient x1="75.9128292%" y1="55.4516489%" x2="24.0871708%" y2="59.6450173%" id="linearGradient-10">
            <stop stop-color="#1E85E9" stop-opacity="0.30039882" offset="0%"></stop>
            <stop stop-color="#8671F3" stop-opacity="0.397044362" offset="20.275549%"></stop>
            <stop stop-color="#C06CFD" stop-opacity="0.4" offset="70.7268792%"></stop>
            <stop stop-color="#FFBEE8" stop-opacity="0.3" offset="100%"></stop>
        </linearGradient>
    </defs>
    <g id="Page-1" stroke="none" stroke-width="1" fill="none" fill-rule="evenodd">
        <g id="a1qa-Usability-testing-and-audit--V1-1" transform="translate(-384.000000, -2235.000000)">
            <g id="3-block" transform="translate(385.000000, 1997.000000)">
                <g id="pic-certification" transform="translate(263.000000, 420.000000) rotate(-90.000000) translate(-263.000000, -420.000000) translate(82.000000, 157.000000)">
                    <g id="Group-10" transform="translate(24.444336, 93.750000)">
                        <path d="M0.601082709,298.350165 C22.7365733,311.318479 48.4933117,318.75 75.9813743,318.75 C158.614058,318.75 225.601083,251.592712 225.601083,168.75 C225.601083,85.9072875 158.614058,18.75 75.9813743,18.75 C52.2279632,18.75 29.7673841,24.2993409 9.81915953,34.1754005" id="Path-Copy" stroke="url(#linearGradient-1)" opacity="0.568996478"></path>
                        <line x1="-9.81933594" y1="84.375" x2="158.930664" y2="84.375" id="Path-3-Copy" stroke="url(#linearGradient-2)" opacity="0.699999988" stroke-dasharray="2.5" transform="translate(74.555664, 84.375000) rotate(-90.000000) translate(-74.555664, -84.375000) "></line>
                        <line x1="43.3056641" y1="51.25" x2="192.055664" y2="137.5" id="Path-3-Copy-2" stroke="url(#linearGradient-3)" opacity="0.699999988" stroke-dasharray="2.5" transform="translate(117.680664, 94.375000) rotate(-90.000000) translate(-117.680664, -94.375000) "></line>
                        <line x1="107.055664" y1="50" x2="193.305664" y2="201.25" id="Path-3-Copy-3" stroke="url(#linearGradient-4)" opacity="0.699999988" stroke-dasharray="2.5" transform="translate(150.180664, 125.625000) rotate(-90.000000) translate(-150.180664, -125.625000) "></line>
                        <line x1="161.430664" y1="81.875" x2="161.430664" y2="255.625" id="Path-3-Copy-4" stroke="url(#linearGradient-5)" opacity="0.699999988" stroke-dasharray="2.5" transform="translate(161.430664, 168.750000) scale(-1, 1) rotate(-90.000000) translate(-161.430664, -168.750000) "></line>
                        <line x1="193.305664" y1="136.25" x2="107.055664" y2="287.5" id="Path-3-Copy-5" stroke="url(#linearGradient-6)" opacity="0.699999988" stroke-dasharray="2.5" transform="translate(150.180664, 211.875000) rotate(-90.000000) translate(-150.180664, -211.875000) "></line>
                        <line x1="192.680664" y1="200.625" x2="42.6806641" y2="286.875" id="Path-3-Copy-6" stroke="url(#linearGradient-7)" opacity="0.699999988" stroke-dasharray="2.5" transform="translate(117.680664, 243.750000) rotate(-90.000000) translate(-117.680664, -243.750000) "></line>
                        <line x1="161.430664" y1="255.625" x2="-12.3193359" y2="255.625" id="Path-3-Copy-7" stroke="url(#linearGradient-8)" opacity="0.699999988" stroke-dasharray="2.5" transform="translate(74.555664, 255.625000) rotate(-90.000000) translate(-74.555664, -255.625000) "></line>
                        <g id="Group-7" transform="translate(148.861328, 169.055664) rotate(-90.000000) translate(-148.861328, -169.055664) translate(-9.138672, 85.555664)" fill="#5055FE">
                            <circle id="Oval-Copy-6" opacity="0.200000003" cx="307.055664" cy="9.19433594" r="8.75"></circle>
                            <circle id="Oval-Copy-7" cx="307.055664" cy="9.19433594" r="3.75"></circle>
                            <circle id="Oval-Copy-6" opacity="0.200000003" transform="translate(287.126943, 83.569336) rotate(30.000000) translate(-287.126943, -83.569336) " cx="287.126943" cy="83.5693359" r="8.75"></circle>
                            <circle id="Oval-Copy-6" opacity="0.200000003" transform="translate(232.680664, 138.015615) rotate(60.000000) translate(-232.680664, -138.015615) " cx="232.680664" cy="138.015615" r="8.75"></circle>
                            <circle id="Oval-Copy-6" opacity="0.200000003" transform="translate(158.305664, 157.944336) rotate(90.000000) translate(-158.305664, -157.944336) " cx="158.305664" cy="157.944336" r="8.75"></circle>
                            <circle id="Oval-Copy-6" opacity="0.200000003" transform="translate(83.930664, 138.015615) rotate(120.000000) translate(-83.930664, -138.015615) " cx="83.9306641" cy="138.015615" r="8.75"></circle>
                            <circle id="Oval-Copy-6" opacity="0.200000003" transform="translate(29.484385, 83.569336) rotate(150.000000) translate(-29.484385, -83.569336) " cx="29.4843852" cy="83.5693359" r="8.75"></circle>
                            <circle id="Oval-Copy-6" opacity="0.200000003" transform="translate(9.555664, 9.194336) rotate(180.000000) translate(-9.555664, -9.194336) " cx="9.55566406" cy="9.19433594" r="8.75"></circle>
                            <circle id="Oval-Copy-7" transform="translate(287.126943, 83.569336) rotate(30.000000) translate(-287.126943, -83.569336) " cx="287.126943" cy="83.5693359" r="3.75"></circle>
                            <circle id="Oval-Copy-7" transform="translate(232.680664, 138.015615) rotate(60.000000) translate(-232.680664, -138.015615) " cx="232.680664" cy="138.015615" r="3.75"></circle>
                            <circle id="Oval-Copy-7" transform="translate(158.305664, 157.944336) rotate(90.000000) translate(-158.305664, -157.944336) " cx="158.305664" cy="157.944336" r="3.75"></circle>
                            <circle id="Oval-Copy-7" transform="translate(83.930664, 138.015615) rotate(120.000000) translate(-83.930664, -138.015615) " cx="83.9306641" cy="138.015615" r="3.75"></circle>
                            <circle id="Oval-Copy-7" transform="translate(29.484385, 83.569336) rotate(150.000000) translate(-29.484385, -83.569336) " cx="29.4843852" cy="83.5693359" r="3.75"></circle>
                            <circle id="Oval-Copy-7" transform="translate(9.555664, 9.194336) rotate(180.000000) translate(-9.555664, -9.194336) " cx="9.55566406" cy="9.19433594" r="3.75"></circle>
                        </g>
                    </g>
                    <path d="M99,188.75 C139.648806,188.75 172.75,221.77964 172.75,262.5 C172.75,303.22036 139.648806,336.25 99,336.25 C85.8266677,336.25 73.308919,332.902179 62.75,326.25 L61.5,326.25 L80.25,293.75 C86.0352725,297.043186 92.26694,298.75 99,298.75 C118.819066,298.75 135.07324,282.530962 135.25,262.5 C135.07324,242.469038 118.819066,226.25 99,226.25 C93.3854046,226.25 88.1810066,227.42059 84,230 L82.75,230 L66.5,196.25 C76.1595157,191.37606 87.3074859,188.75 99,188.75 Z" id="Path-Copy-2" fill="url(#linearGradient-9)" fill-rule="nonzero"></path>
                    <path d="M0.768217801,464.981067 C30.4501708,479.407727 63.7800597,487.5 99,487.5 C223.264069,487.5 324,386.764069 324,262.5 C324,138.235931 223.264069,37.5 99,37.5 C63.4936509,37.5 29.908218,45.7244205 0.044820892,60.3721421" id="Path" stroke="url(#linearGradient-10)" opacity="0.568996478"></path>
                    <circle id="Mask-Copy-10" stroke="#ECEAEA" fill="#FFFFFF" cx="99" cy="40" r="40"></circle>
                    <path d="M99.595459,20 C99.8409189,20 100.045067,20.1768752 100.087403,20.4101244 L100.095459,20.5 L100.095572,25.9407324 C107.319719,26.2038163 113.095459,32.1432302 113.095459,39.4316406 L113.095459,39.4316406 L118.679443,39.4316406 C118.955586,39.4316406 119.179443,39.6554983 119.179443,39.9316406 C119.179443,40.1771005 119.002568,40.381249 118.769319,40.423585 L118.679443,40.4316406 L113.058958,40.4319811 C112.559107,47.2563306 106.986222,52.67161 100.095572,52.9225488 L100.095459,58.7924805 C100.095459,59.0686228 99.8716014,59.2924805 99.595459,59.2924805 C99.3499991,59.2924805 99.1458506,59.1156053 99.1035147,58.8823561 L99.095459,58.7924805 L99.095346,52.9225488 C92.2046962,52.67161 86.6318106,47.2563306 86.1319599,40.4319811 L80.5,40.4316406 C80.2238576,40.4316406 80,40.207783 80,39.9316406 C80,39.6861807 80.1768752,39.4820323 80.4101244,39.4396963 L80.5,39.4316406 L86.095459,39.4316406 C86.095459,32.1432302 91.8711992,26.2038163 99.095346,25.9407324 L99.095459,20.5 C99.095459,20.2238576 99.3193166,20 99.595459,20 Z M93.1718928,40.4315477 L87.1348887,40.4317961 C87.631406,46.703585 92.7570997,51.6724529 99.095391,51.9218207 L99.095127,45.9126705 C96.0725902,45.6825876 93.6279435,43.3853114 93.1718928,40.4315477 Z M112.056029,40.4317961 L106.019025,40.4315477 C105.562974,43.3853114 103.118328,45.6825876 100.095791,45.9126705 L100.095527,51.9218207 C106.433818,51.6724529 111.559512,46.703585 112.056029,40.4317961 Z M99.595459,33.9316406 C96.5578929,33.9316406 94.095459,36.3940745 94.095459,39.4316406 C94.095459,42.4692067 96.5578929,44.9316406 99.595459,44.9316406 C102.633025,44.9316406 105.095459,42.4692067 105.095459,39.4316406 C105.095459,36.3940745 102.633025,33.9316406 99.595459,33.9316406 Z M100.095527,26.9414605 L100.095791,32.9506107 C103.451857,33.2060828 106.095459,36.0101386 106.095459,39.4316406 L106.095459,39.4316406 L112.095459,39.4316406 C112.095459,32.6955603 106.767262,27.2039471 100.095527,26.9414605 Z M99.095391,26.9414605 C92.4236562,27.2039471 87.095459,32.6955603 87.095459,39.4316406 L87.095459,39.4316406 L93.095459,39.4316406 C93.095459,36.0101386 95.7390608,33.2060828 99.095127,32.9506107 Z" id="ico-goals" fill="#5055FE"></path>
                    <circle id="Mask-Copy-10" stroke="#ECEAEA" fill="#FFFFFF" transform="translate(211.000000, 70.000000) rotate(30.000000) translate(-211.000000, -70.000000) " cx="211" cy="70" r="40"></circle>
                    <path d="M213.852735,52 L213.852735,55.9353571 C213.852793,56.0186079 213.910948,56.090528 213.992568,56.1080592 C215.669089,56.4688559 217.265639,57.1327468 218.70103,58.0653635 C218.770844,58.1101878 218.862441,58.1004106 218.920418,58.0426617 L218.920418,58.0426617 L221.708407,55.2546719 L225.741744,59.2889596 L222.957231,62.0796899 C222.898311,62.1385791 222.888518,62.2306189 222.932957,62.2993985 C223.867136,63.7374704 224.531005,65.3339675 224.891989,67.0106874 C224.909472,67.0920819 224.981392,67.1502363 225.064236,67.1502945 L225.064236,67.1502945 L229,67.1502945 L229,72.8527349 L225.064643,72.8527348 C224.981392,72.8527932 224.909472,72.9109476 224.891931,72.9926149 C224.531005,74.669062 223.867136,76.265559 222.934636,77.7010302 C222.889812,77.7708445 222.899589,77.862441 222.957338,77.9204177 L222.957338,77.9204177 L225.745328,80.7084074 L221.71104,84.7417443 L218.92031,81.9572307 C218.861421,81.8983106 218.769381,81.8885176 218.700642,81.9329307 C217.26261,82.8672532 215.666059,83.5311441 213.989313,83.8919893 C213.907918,83.909472 213.849764,83.9813921 213.849705,84.0642356 L213.849705,84.0642356 L213.849705,88 L208.147265,88 L208.147265,84.0646429 C208.147207,83.9813921 208.089052,83.909472 208.007465,83.891948 C206.331091,83.531286 204.734722,82.8673594 203.299374,81.9344096 C203.229521,81.8894892 203.137814,81.8992704 203.079648,81.9572729 L203.079648,81.9572729 L200.292657,84.7451516 L196.254789,80.7110861 L199.042012,77.9203101 C199.100932,77.8614209 199.110725,77.7693811 199.066133,77.7003658 C198.133385,76.2629747 197.469922,74.6678807 197.108011,72.9923421 C197.090528,72.9109476 197.018608,72.8527932 196.935764,72.8527349 L196.935764,72.8527349 L193,72.8527349 L193,67.1472651 L196.935357,67.1472652 C197.018608,67.1472068 197.090528,67.0890524 197.10811,67.0071972 C197.469516,65.3312155 198.132991,63.7350207 199.064606,62.2989698 C199.10943,62.2291555 199.099653,62.137559 199.041578,62.0792554 L199.041578,62.0792554 L196.254999,59.2882364 L200.289221,55.2549647 L203.079918,58.0429974 C203.138834,58.1020102 203.230985,58.1118072 203.300029,58.0671255 C204.737752,57.1326406 206.33412,56.468714 208.008365,56.1085145 C208.089478,56.0907446 208.147279,56.0188982 208.147265,55.9357644 L208.147265,55.9357644 L208.147265,52 L213.852735,52 Z M212.690839,53.1612903 L209.308,53.1612903 L209.308555,55.9356678 C209.308652,56.5160158 208.935764,57.0241674 208.393679,57.2050969 L208.393679,57.2050969 L208.254751,57.2433645 C206.716678,57.5742715 205.252012,58.1834236 203.931939,59.0414374 C203.401886,59.3844705 202.704172,59.3102931 202.258622,58.864014 L202.258622,58.864014 L200.289419,56.896 L197.896,59.2882581 L199.863862,61.2592293 C200.270231,61.66719 200.366299,62.2839332 200.116933,62.7928145 L200.116933,62.7928145 L200.040333,62.9286882 C199.183938,64.2488004 198.575004,65.7137808 198.243406,67.2515286 C198.111037,67.8678013 197.5665,68.3081131 196.935764,68.3085554 L196.935764,68.3085554 L194.16129,68.308 L194.16129,71.6908387 L196.936172,71.6914447 C197.518013,71.6918529 198.026754,72.0670612 198.20558,72.6089829 L198.20558,72.6089829 L198.243265,72.7478161 C198.575296,74.2850166 199.184219,75.7489866 200.040908,77.069171 C200.383209,77.5989333 200.309062,78.2958061 199.863322,78.7413123 L199.863322,78.7413123 L197.896,80.7094194 L200.290581,83.1028387 L202.259002,81.1356072 C202.667153,80.7285983 203.284616,80.6324525 203.793898,80.8824096 L203.793898,80.8824096 L203.929873,80.9591872 C205.248982,81.8165764 206.713649,82.4257285 208.251529,82.7565941 C208.867801,82.8889629 209.308113,83.4335004 209.308555,84.0642356 L209.308555,84.0642356 L209.308,86.8387097 L212.687355,86.8387097 L212.688415,84.0638283 C212.688823,83.4819872 213.064032,82.9732455 213.606291,82.794347 L213.606291,82.794347 L213.745216,82.7566427 C215.283526,82.4255897 216.748459,81.8164291 218.069171,80.9583345 C218.598933,80.6160332 219.295806,80.6901805 219.741116,81.1357244 L219.741116,81.1357244 L221.710581,83.0993548 L224.102839,80.7082581 L222.13538,78.7407707 C221.729011,78.33281 221.632944,77.7160668 221.88246,77.2069541 L221.88246,77.2069541 L221.959105,77.0710114 C222.816305,75.7514413 223.425469,74.2865009 223.756594,72.7484714 C223.888963,72.1321987 224.4335,71.6918869 225.064236,71.6914446 L225.064236,71.6914446 L227.83871,71.6908387 L227.83871,68.3114839 L225.063828,68.3115847 C224.481987,68.3111766 223.973246,67.9359682 223.794355,67.3937457 L223.794355,67.3937457 L223.756653,67.2548309 C223.425469,65.7165286 222.816305,64.2515881 221.958335,62.930829 C221.616033,62.4010667 221.69018,61.7041939 222.135724,61.2588842 L222.135724,61.2588842 L224.099355,59.2882581 L221.708258,56.8971613 L219.740771,58.8646197 C219.33281,59.2709887 218.716067,59.367056 218.206923,59.1175196 L218.206923,59.1175196 L218.070971,59.040869 C216.751489,58.1835709 215.286556,57.5744103 213.748471,57.2434059 C213.132199,57.1110371 212.691887,56.5664996 212.691445,55.9357644 L212.691445,55.9357644 L212.690839,53.1612903 Z M211,63.0322581 C214.848178,63.0322581 217.967742,66.1518224 217.967742,70.0007026 C217.963476,73.8467235 214.846724,76.9634753 211,76.9677419 C207.151822,76.9677419 204.032258,73.8481776 204.032258,70 C204.032258,66.1518224 207.151822,63.0322581 211,63.0322581 Z M211,64.1935484 C207.793185,64.1935484 205.193548,66.7931852 205.193548,69.9999998 C205.193548,73.2068144 207.793185,75.8064516 210.999284,75.8064516 C214.20502,75.8028956 216.802896,73.2050201 216.806452,69.9999998 C216.806452,66.7931852 214.206815,64.1935484 211,64.1935484 Z" id="ico-tasks" fill="#5055FE"></path>
                    <circle id="Mask-Copy-10" stroke="#ECEAEA" fill="#FFFFFF" transform="translate(292.000000, 152.000000) rotate(60.000000) translate(-292.000000, -152.000000) " cx="292" cy="152" r="40"></circle>
                    <circle id="Mask-Copy-10" stroke="#ECEAEA" fill="#FFFFFF" transform="translate(322.000000, 263.000000) rotate(90.000000) translate(-322.000000, -263.000000) " cx="322" cy="263" r="40"></circle>
                    <path d="M322,251 C329.301995,251 335.893173,254.909521 341.753774,262.673794 L341.753774,262.673794 L342,263 L341.753774,263.326206 C335.893173,271.090479 329.301995,275 322,275 C314.698005,275 308.106827,271.090479 302.246226,263.326206 L302.246226,263.326206 L302,263 L302.246226,262.673794 C308.106827,254.909521 314.698005,251 322,251 Z M322,252.090909 C315.358101,252.090909 309.301832,255.525567 303.813711,262.44334 L303.813711,262.44334 L303.379242,263 L303.813711,263.55666 C309.187496,270.330312 315.106003,273.764468 321.585644,273.904618 L321.585644,273.904618 L322,273.909091 C328.641899,273.909091 334.698168,270.474433 340.186289,263.55666 L340.186289,263.55666 L340.619654,263 L340.186289,262.44334 C334.812504,255.669688 328.893997,252.235532 322.414356,252.095382 L322.414356,252.095382 Z M322,255.363636 C326.266192,255.363636 329.724624,258.782553 329.724624,263 C329.724624,267.217447 326.266192,270.636364 322,270.636364 C317.733808,270.636364 314.275376,267.217447 314.275376,263 C314.275376,258.782553 317.733808,255.363636 322,255.363636 Z M322,256.454545 C318.343264,256.454545 315.378894,259.385045 315.378894,263 C315.378894,266.614955 318.343264,269.545455 322,269.545455 C325.656736,269.545455 328.621106,266.614955 328.621106,263 C328.621106,259.385045 325.656736,256.454545 322,256.454545 Z M322,258.636364 C324.437824,258.636364 326.414071,260.59003 326.414071,263 C326.414071,265.40997 324.437824,267.363636 322,267.363636 C319.562176,267.363636 317.585929,265.40997 317.585929,263 C317.585929,260.59003 319.562176,258.636364 322,258.636364 Z M322,259.727273 C320.171632,259.727273 318.689447,261.192523 318.689447,263 C318.689447,264.807477 320.171632,266.272727 322,266.272727 C323.828368,266.272727 325.310553,264.807477 325.310553,263 C325.310553,261.192523 323.828368,259.727273 322,259.727273 Z" id="ico-sopervise" fill="#5055FE" transform="translate(322.000000, 263.000000) rotate(-90.000000) translate(-322.000000, -263.000000) "></path>
                    <circle id="Mask-Copy-10" stroke="#ECEAEA" fill="#FFFFFF" transform="translate(292.231918, 374.687500) rotate(120.000000) translate(-292.231918, -374.687500) " cx="292.231918" cy="374.6875" r="40"></circle>
                    <path d="M285.795097,370.317777 C286.351965,375.298366 290.578937,379.103399 295.6315,379.103399 C300.435899,379.103399 304.523255,375.656015 305.370534,370.983084 C305.408045,370.776202 305.606165,370.6389 305.813046,370.676411 C306.019928,370.713922 306.15723,370.912042 306.119719,371.118923 C305.750002,373.157992 304.807779,374.980236 303.473604,376.426712 L312.11979,387.493849 C312.637573,388.156581 312.520069,389.113578 311.857337,389.631361 C311.224729,390.125608 310.324,390.041009 309.793085,389.455892 L309.719825,389.368907 L301.109936,378.349928 C299.501756,379.314334 297.623914,379.864799 295.6315,379.864799 C290.190117,379.864799 285.638251,375.767304 285.038412,370.40238 C285.01505,370.193427 285.1655,370.005099 285.374453,369.981736 C285.583406,369.958374 285.771735,370.108824 285.795097,370.317777 Z M302.932672,376.972497 C302.562531,377.320081 302.167816,377.641222 301.751638,377.933181 L310.319816,388.900143 C310.578708,389.231509 311.057206,389.290261 311.388572,389.031369 C311.696269,388.79097 311.768906,388.361216 311.57043,388.035739 L311.519799,387.962613 L302.932672,376.972497 Z M283.642146,374.092769 C285.613895,378.924429 290.323547,382.148999 295.6315,382.148999 C297.921006,382.148999 300.122943,381.554131 302.064852,380.439634 C302.247208,380.334976 302.479879,380.397963 302.584537,380.58032 C302.689195,380.762676 302.626207,380.995347 302.443851,381.100005 C300.387352,382.280267 298.054883,382.910399 295.6315,382.910399 C290.011485,382.910399 285.024868,379.496199 282.937187,374.380455 C282.857745,374.185786 282.951154,373.963575 283.145823,373.884133 C283.340492,373.80469 283.562703,373.8981 283.642146,374.092769 Z M308.832847,370.383509 L308.909951,370.3847 C309.118795,370.409016 309.268384,370.59803 309.244067,370.806874 C308.917754,373.609451 307.737342,376.212575 305.88433,378.300033 C305.744749,378.457273 305.504129,378.47159 305.346889,378.332009 C305.189649,378.192429 305.175333,377.951809 305.314913,377.794569 C307.065165,375.822873 308.17966,373.365113 308.487777,370.718817 C308.506014,370.562184 308.616894,370.438882 308.7593,370.397279 L308.832847,370.383509 Z M292.2052,361.5912 C293.676983,361.5912 294.8701,362.784316 294.8701,364.2561 C294.8701,365.035571 294.535446,365.736881 294.001979,366.224187 L293.8677,366.338 L293.891285,366.322146 L297.007755,370.78015 C297.178187,370.745945 297.354498,370.728 297.534999,370.728 C298.442415,370.728 299.243902,371.181531 299.72515,371.874282 L307.232272,368.265884 C307.116182,367.966881 307.052499,367.641727 307.052499,367.3017 C307.052499,365.829916 308.245616,364.6368 309.717399,364.6368 C311.189183,364.6368 312.382299,365.829916 312.382299,367.3017 C312.382299,368.773483 311.189183,369.9666 309.717399,369.9666 C308.858933,369.9666 308.095275,369.560679 307.607891,368.930304 L300.065452,372.554835 C300.152684,372.818363 300.199899,373.100117 300.199899,373.3929 C300.199899,374.864683 299.006783,376.057799 297.534999,376.057799 C296.063216,376.057799 294.8701,374.864683 294.8701,373.3929 C294.8701,372.38017 295.435013,371.499384 296.266913,371.048465 L293.267293,366.758453 L293.585628,366.536055 C293.183012,366.780347 292.710531,366.921 292.2052,366.921 C291.379953,366.921 290.642319,366.545886 290.153502,365.956865 L284.012572,370.099007 C284.140161,370.410416 284.2105,370.751343 284.2105,371.1087 C284.2105,372.580483 283.017384,373.7736 281.5456,373.7736 C280.073816,373.7736 278.8807,372.580483 278.8807,371.1087 C278.8807,369.636916 280.073816,368.4438 281.5456,368.4438 C282.386687,368.4438 283.136765,368.833451 283.625169,369.442087 L289.755473,365.306894 C289.616992,364.984476 289.5403,364.629244 289.5403,364.2561 C289.5403,362.784316 290.733416,361.5912 292.2052,361.5912 Z M297.534999,371.4894 C296.483726,371.4894 295.6315,372.341626 295.6315,373.3929 C295.6315,374.444174 296.483726,375.296399 297.534999,375.296399 C298.586273,375.296399 299.438499,374.444174 299.438499,373.3929 C299.438499,372.341626 298.586273,371.4894 297.534999,371.4894 Z M281.5456,369.2052 C280.494326,369.2052 279.6421,370.057426 279.6421,371.1087 C279.6421,372.159974 280.494326,373.0122 281.5456,373.0122 C282.596874,373.0122 283.4491,372.159974 283.4491,371.1087 C283.4491,370.057426 282.596874,369.2052 281.5456,369.2052 Z M309.717399,365.3982 C308.666125,365.3982 307.813899,366.250426 307.813899,367.3017 C307.813899,368.352974 308.666125,369.2052 309.717399,369.2052 C310.768673,369.2052 311.620899,368.352974 311.620899,367.3017 C311.620899,366.250426 310.768673,365.3982 309.717399,365.3982 Z M295.6315,358.5456 C301.067612,358.5456 305.61664,362.635353 306.222995,367.993868 C306.246636,368.202789 306.096437,368.391318 305.887515,368.414959 C305.678594,368.4386 305.490065,368.288401 305.466424,368.079479 C304.903507,363.104845 300.679169,359.307 295.6315,359.307 C290.916906,359.307 286.883003,362.62854 285.939028,367.18749 C285.896397,367.393377 285.694933,367.525723 285.489045,367.483092 C285.283158,367.440461 285.150812,367.238997 285.193443,367.033109 C286.210261,362.122365 290.554126,358.5456 295.6315,358.5456 Z M295.6315,355.5 C301.269522,355.5 306.268912,358.936119 308.344576,364.076167 C308.423305,364.271125 308.329082,364.492993 308.134123,364.571721 C307.939164,364.65045 307.717297,364.556227 307.638568,364.361268 C305.678178,359.506678 300.956454,356.2614 295.6315,356.2614 C289.021701,356.2614 283.492773,361.240967 282.767734,367.757362 C282.744483,367.966327 282.556235,368.116879 282.34727,368.093629 C282.138305,368.070378 281.987753,367.88213 282.011003,367.673165 C282.778825,360.772253 288.632729,355.5 295.6315,355.5 Z M292.2052,362.3526 C291.153926,362.3526 290.3017,363.204826 290.3017,364.2561 C290.3017,365.307374 291.153926,366.1596 292.2052,366.1596 C293.256474,366.1596 294.1087,365.307374 294.1087,364.2561 C294.1087,363.204826 293.256474,362.3526 292.2052,362.3526 Z" id="Combined-Shape" fill="#5055FE" transform="translate(295.661688, 372.727123) scale(-1, -1) translate(-295.661688, -372.727123) "></path>
                    <circle id="Mask-Copy-10" stroke="#ECEAEA" fill="#FFFFFF" transform="translate(211.000000, 456.000000) rotate(150.000000) translate(-211.000000, -456.000000) " cx="211" cy="456" r="40"></circle>
                    <path d="M212.678045,441.761456 C213.091724,441.04003 214.018878,440.786604 214.7489,441.195411 C214.988149,441.329389 215.186116,441.525024 215.32169,441.761456 L215.32169,441.761456 L230.80226,468.758383 C231.215939,469.479808 230.959493,470.396043 230.22947,470.804851 C230.001049,470.932765 229.742983,471 229.480437,471 L229.480437,471 L198.519298,471 C197.680213,471 197,470.327798 197,469.498594 C197,469.23914 197.068036,468.984114 197.197475,468.758383 L197.197475,468.758383 Z M214.166323,442.028913 C213.939639,441.950678 213.681832,442.041175 213.55926,442.25493 L213.55926,442.25493 L198.07869,469.251857 C198.035544,469.327101 198.012865,469.41211 198.012865,469.498594 C198.012865,469.774996 198.239603,469.999063 198.519298,469.999063 L198.519298,469.999063 L229.480437,469.999063 C229.567952,469.999063 229.653974,469.976651 229.730115,469.934013 C229.973456,469.797744 230.058938,469.492332 229.921045,469.251857 L229.921045,469.251857 L214.440475,442.25493 C214.395284,442.17612 214.329295,442.110908 214.249545,442.066249 L214.249545,442.066249 Z M213.999867,463.813341 C214.248485,463.813341 214.45526,463.990382 214.498141,464.223849 L214.5063,464.313809 L214.5063,464.638698 C214.5063,464.915099 214.279563,465.139167 213.999867,465.139167 C213.75125,465.139167 213.544475,464.962126 213.501594,464.728658 L213.493435,464.638698 L213.493435,464.313809 C213.493435,464.037408 213.720172,463.813341 213.999867,463.813341 Z M213.999867,450.662602 C214.248485,450.662602 214.45526,450.839643 214.498141,451.073111 L214.5063,451.163071 L214.5063,461.984236 C214.5063,462.260637 214.279563,462.484704 213.999867,462.484704 C213.75125,462.484704 213.544475,462.307663 213.501594,462.074196 L213.493435,461.984236 L213.493435,451.163071 C213.493435,450.886669 213.720172,450.662602 213.999867,450.662602 Z" id="ico-issues" fill="#5055FE" transform="translate(214.000000, 456.000000) rotate(90.000000) translate(-214.000000, -456.000000) "></path>
                    <circle id="Mask-Copy-10" stroke="#ECEAEA" fill="#FFFFFF" transform="translate(99.000000, 486.000000) rotate(180.000000) translate(-99.000000, -486.000000) " cx="99" cy="486" r="40"></circle>
                    <path d="M99.5,469 C109.164982,469 117,476.835016 117,486.5 C117,496.164982 109.164982,504 99.5,504 C89.8350164,504 82,496.164982 82,486.5 C82,476.835016 89.8350164,469 99.5,469 Z M99.4999999,470 C90.3873011,470 82.9999999,477.387301 82.9999999,486.5 C82.9999999,495.612697 90.3873011,503 99.4999999,503 C108.612697,503 116,495.612697 116,486.5 C116,477.387301 108.612697,470 99.4999999,470 Z M107.642297,481.147483 C107.814875,481.322032 107.83263,481.591562 107.696529,481.78566 L107.638281,481.854578 L97.8466559,491.535608 C97.6700123,491.710256 97.3966062,491.726071 97.20242,491.585542 L97.1336574,491.525519 L93.1385404,487.345466 C92.9477443,487.145838 92.9549041,486.829336 93.1545323,486.63854 C93.3319796,486.468943 93.6017713,486.455757 93.7935365,486.595125 L93.8614582,486.654532 L97.5049991,490.465999 L106.935202,481.143467 C107.13157,480.949317 107.448147,480.951115 107.642297,481.147483 Z" id="ico-recommend" fill="#5055FE" transform="translate(99.500000, 486.500000) rotate(90.000000) translate(-99.500000, -486.500000) "></path>
                    <path d="M304.368344,163.368398 L306.245,165.934 L308.306163,163.368398 L310.075997,163.368398 C311.769346,163.368398 313.142077,164.741128 313.142077,166.434477 L313.142077,166.434477 L313.142077,170.142077 L299.311678,170.142077 L299.311678,166.434477 C299.311678,164.741128 300.684409,163.368398 302.377758,163.368398 L302.377758,163.368398 L304.368344,163.368398 Z M282.556666,163.368398 L284.433,165.934 L286.494485,163.368398 L288.264319,163.368398 C289.957668,163.368398 291.330399,164.741128 291.330399,166.434477 L291.330399,166.434477 L291.330399,170.142077 L277.5,170.142077 L277.5,166.434477 C277.5,164.741128 278.872731,163.368398 280.56608,163.368398 L280.56608,163.368398 L282.556666,163.368398 Z M303.861,164.368 L302.377758,164.368398 C301.286305,164.368398 300.392523,165.214725 300.316866,166.286926 L300.316866,166.286926 L300.311678,166.434477 L300.311,169.142 L312.142077,169.142 L312.142077,166.434477 C312.142077,165.343024 311.295749,164.449242 310.223548,164.373585 L310.223548,164.373585 L310.075997,164.368398 L308.785,164.368 L306.208362,167.576678 L303.861,164.368 Z M282.049,164.368 L280.56608,164.368398 C279.474627,164.368398 278.580845,165.214725 278.505188,166.286926 L278.505188,166.286926 L278.5,166.434477 L278.5,169.142 L290.33,169.142 L290.330399,166.434477 C290.330399,165.343024 289.484071,164.449242 288.41187,164.373585 L288.41187,164.373585 L288.264319,164.368398 L286.973,164.368 L284.396684,167.576678 L282.049,164.368 Z M306.226878,154.387118 C308.276252,154.387118 309.934477,156.070855 309.934477,158.144066 C309.934477,160.411558 308.181709,163.085358 306.226878,163.085358 C304.272046,163.085358 302.519278,160.411558 302.519278,158.144066 C302.519278,156.070855 304.177504,154.387118 306.226878,154.387118 Z M284.415199,154.387118 C286.464573,154.387118 288.122799,156.070855 288.122799,158.144066 C288.122799,160.411558 286.370031,163.085358 284.415199,163.085358 C282.460368,163.085358 280.7076,160.411558 280.7076,158.144066 C280.7076,156.070855 282.365826,154.387118 284.415199,154.387118 Z M306.226878,155.387118 C304.733235,155.387118 303.519278,156.619751 303.519278,158.144066 C303.519278,159.92591 304.934871,162.085358 306.226878,162.085358 C307.518884,162.085358 308.934477,159.92591 308.934477,158.144066 C308.934477,156.619751 307.72052,155.387118 306.226878,155.387118 Z M284.415199,155.387118 C282.921557,155.387118 281.7076,156.619751 281.7076,158.144066 C281.7076,159.92591 283.123193,162.085358 284.415199,162.085358 C285.707206,162.085358 287.122799,159.92591 287.122799,158.144066 C287.122799,156.619751 285.908842,155.387118 284.415199,155.387118 Z M295.321039,151.606781 C295.566498,151.606781 295.770647,151.783656 295.812983,152.016905 L295.821039,152.106781 L295.821,157.8 L301.33754,160.865239 C301.578931,160.999346 301.665903,161.303747 301.531797,161.545139 C301.412591,161.75971 301.158831,161.852269 300.934374,161.776002 L300.851897,161.739396 L295.321,158.666 L289.79018,161.739396 C289.57561,161.858602 289.311254,161.803129 289.16097,161.619792 L289.11028,161.545139 C288.991075,161.330569 289.046548,161.066213 289.229884,160.915929 L289.304538,160.865239 L294.821,157.8 L294.821039,152.106781 C294.821039,151.830639 295.044896,151.606781 295.321039,151.606781 Z M293.462505,143.481279 L295.339,146.046 L297.400324,143.481279 L299.170158,143.481279 C300.863507,143.481279 302.236238,144.85401 302.236238,146.547359 L302.236238,146.547359 L302.236238,150.254959 L288.405839,150.254959 L288.405839,146.547359 C288.405839,144.85401 289.77857,143.481279 291.471919,143.481279 L291.471919,143.481279 L293.462505,143.481279 Z M297.879,144.481 L295.302523,147.68956 L292.955,144.481 L291.471919,144.481279 C290.380466,144.481279 289.486684,145.327607 289.411027,146.399808 L289.411027,146.399808 L289.405839,146.547359 L289.405,149.254 L301.236,149.254 L301.236238,146.547359 C301.236238,145.455906 300.38991,144.562124 299.317709,144.486467 L299.317709,144.486467 L299.170158,144.481279 L297.879,144.481 Z M295.321039,134.5 C297.370412,134.5 299.028638,136.183737 299.028638,138.256947 C299.028638,140.52444 297.27587,143.198239 295.321039,143.198239 C293.366207,143.198239 291.613439,140.52444 291.613439,138.256947 C291.613439,136.183737 293.271665,134.5 295.321039,134.5 Z M295.321039,135.5 C293.827396,135.5 292.613439,136.732633 292.613439,138.256947 C292.613439,140.038792 294.029032,142.198239 295.321039,142.198239 C296.613045,142.198239 298.028638,140.038792 298.028638,138.256947 C298.028638,136.732633 296.814681,135.5 295.321039,135.5 Z" id="Combined-Shape" fill="#5055FE" fill-rule="nonzero" transform="translate(295.321039, 152.321039) rotate(90.000000) translate(-295.321039, -152.321039) "></path>
                </g>
            </g>
        </g>
    </g>
</svg>