<svg xmlns="http://www.w3.org/2000/svg" width="434" height="428" viewBox="0 0 434 428">
  <defs>
    <linearGradient id="img-protection-a" x1="54.245%" x2="46.347%" y1="108.696%" y2="0%">
      <stop offset="0%" stop-color="#1E85E9"/>
      <stop offset="20.276%" stop-color="#8671F3"/>
      <stop offset="70.727%" stop-color="#CFA9FC"/>
      <stop offset="100%" stop-color="#F4D9FB"/>
    </linearGradient>
    <linearGradient id="img-protection-b" x1="100%" x2="0%" y1="100%" y2="0%">
      <stop offset="0%" stop-color="#1E85E9"/>
      <stop offset="20.276%" stop-color="#8671F3"/>
      <stop offset="70.727%" stop-color="#C06CFD" stop-opacity=".99"/>
      <stop offset="100%" stop-color="#FFBEE8"/>
    </linearGradient>
    <linearGradient id="img-protection-c" x1="100%" x2="0%" y1="81.526%" y2="18.474%">
      <stop offset="0%" stop-color="#1E85E9"/>
      <stop offset="20.276%" stop-color="#8671F3"/>
      <stop offset="70.727%" stop-color="#C06CFD" stop-opacity=".99"/>
      <stop offset="100%" stop-color="#FFBEE8"/>
    </linearGradient>
    <linearGradient id="img-protection-d" x1="95.289%" x2="4.711%" y1="100%" y2="0%">
      <stop offset="0%" stop-color="#1E85E9"/>
      <stop offset="20.276%" stop-color="#8671F3"/>
      <stop offset="70.727%" stop-color="#C06CFD" stop-opacity=".99"/>
      <stop offset="100%" stop-color="#FFBEE8"/>
    </linearGradient>
    <linearGradient id="img-protection-e" x1="95.11%" x2="4.89%" y1="100%" y2="0%">
      <stop offset="0%" stop-color="#1E85E9"/>
      <stop offset="20.276%" stop-color="#8671F3"/>
      <stop offset="70.727%" stop-color="#C06CFD" stop-opacity=".99"/>
      <stop offset="100%" stop-color="#FFBEE8"/>
    </linearGradient>
    <linearGradient id="img-protection-f" x1="50.296%" x2="49.704%" y1="100%" y2="0%">
      <stop offset="0%" stop-color="#1E85E9"/>
      <stop offset="20.276%" stop-color="#8671F3"/>
      <stop offset="70.727%" stop-color="#C06CFD" stop-opacity=".99"/>
      <stop offset="100%" stop-color="#FFBEE8"/>
    </linearGradient>
    <linearGradient id="img-protection-g" x1="50.617%" x2="49.383%" y1="100%" y2="0%">
      <stop offset="0%" stop-color="#1E85E9"/>
      <stop offset="20.276%" stop-color="#8671F3"/>
      <stop offset="70.727%" stop-color="#C06CFD" stop-opacity=".99"/>
      <stop offset="100%" stop-color="#FFBEE8"/>
    </linearGradient>
  </defs>
  <g fill="none" fill-rule="evenodd">
    <path fill="#E3E0E0" fill-rule="nonzero" d="M136.663544,275.145622 C147.941478,355.91368 180.290133,411.60336 217.030831,411.60336 C244.125927,411.60336 269.185687,381.362609 285.04649,331.137553 L285.524297,329.609475 L286.479563,329.905223 C270.53162,381.417032 244.967708,412.60336 217.030831,412.60336 C179.978582,412.60336 147.66541,357.612636 136.01971,277.712717 L135.673153,275.283914 L136.663544,275.145622 Z M217.42172,14.553252 C255.793329,14.553252 288.973333,73.7159415 299.520691,157.952481 L299.833362,160.512743 L298.840374,160.63096 C288.704042,75.4883457 255.479579,15.553252 217.42172,15.553252 C189.104598,15.553252 163.051616,48.7182187 147.403634,102.94036 L146.932646,104.589889 L145.970306,104.318039 C161.671636,48.7358381 188.232156,14.553252 217.42172,14.553252 Z" transform="rotate(30 217.753 213.578)"/>
    <path fill="url(#img-protection-a)" fill-rule="nonzero" d="M210.525103,4.30745279 C246.642342,4.30745279 275.775103,101.229907 275.775103,220.807453 C275.775103,340.384998 246.642342,437.307453 210.525103,437.307453 C190.117433,437.307453 171.366361,406.238801 159.101011,354.186894 L158.731324,352.603151 L159.21847,352.490507 C171.42436,405.276914 190.247087,436.807453 210.525103,436.807453 C246.204882,436.807453 275.275103,340.093062 275.275103,220.807453 C275.275103,101.521844 246.204882,4.80745279 210.525103,4.80745279 C191.264762,4.80745279 173.29516,33.2399675 161.052983,81.5481368 L160.683765,83.0180957 L160.198575,82.8973078 C172.499994,33.4839197 190.742137,4.30745279 210.525103,4.30745279 Z" transform="rotate(90 217.253 220.807)"/>
    <path fill="#E3E0E0" fill-rule="nonzero" d="M215.914551,430.613996 C216.49854,430.654743 217.083407,430.675329 217.668932,430.675697 L218.042942,430.673155 L218.407652,430.665436 L218.421859,431.165234 C218.174389,431.172269 217.92872,431.175702 217.66877,431.175697 C217.270643,431.175447 216.872881,431.166034 216.47551,431.147477 L215.879749,431.112784 L215.914551,430.613996 Z M223.309182,430.050107 L223.418152,430.538088 C222.798969,430.676356 222.178497,430.792224 221.556839,430.885605 L220.934789,430.971488 L220.872319,430.475406 C221.482997,430.398505 222.092616,430.299504 222.701091,430.178475 L223.309182,430.050107 Z M210.999754,429.790461 C211.603234,429.951032 212.207936,430.089851 212.813776,430.206843 L213.419992,430.316557 L213.336738,430.809577 C212.71866,430.705205 212.101805,430.578586 211.486275,430.429809 L210.871189,430.273649 L210.999754,429.790461 Z M228.059099,428.532075 L228.251453,428.993594 C227.662304,429.239141 227.071618,429.46415 226.479488,429.668526 L225.88688,429.866021 L225.733892,429.390001 C226.316915,429.202624 226.898684,428.994883 227.479116,428.766858 L228.059099,428.532075 Z M206.319793,428.098583 C206.891489,428.360366 207.464582,428.602378 208.038991,428.824538 L208.613834,429.040078 L208.44316,429.510047 C207.858287,429.297644 207.274867,429.065091 206.692988,428.812481 L206.111626,428.553189 L206.319793,428.098583 Z M232.471675,426.286074 L232.729648,426.714385 C232.182253,427.044082 231.633217,427.355778 231.082615,427.649382 L230.531495,427.936952 L230.304205,427.4916 C230.847954,427.214092 231.390327,426.918643 231.931245,426.605334 L232.471675,426.286074 Z M201.95553,425.699054 C202.427521,426.002475 202.900696,426.292223 203.375002,426.568242 L204.087304,426.971965 L203.845786,427.409765 C203.303509,427.11061 202.762788,426.793885 202.223697,426.459676 L201.685152,426.119644 L201.95553,425.699054 Z M236.594792,423.433889 L236.902911,423.827669 C236.454769,424.178324 236.00531,424.516704 235.554579,424.842749 L234.877534,425.322557 L234.592452,424.911792 C235.039168,424.601758 235.484741,424.279438 235.929121,423.944885 L236.594792,423.433889 Z M197.935465,422.760913 C198.370116,423.117392 198.805982,423.462091 199.243019,423.794955 L199.899447,424.285367 L199.603962,424.688714 C199.160822,424.364077 198.718928,424.02751 198.278324,423.679072 L197.61839,423.147518 L197.935465,422.760913 Z M240.323214,420.20151 L240.668115,420.563508 C240.256894,420.955307 239.844379,421.336577 239.430606,421.707264 L238.80901,422.25535 L238.481333,421.877688 C238.892409,421.52102 239.302326,421.153782 239.711043,420.776026 L240.323214,420.20151 Z M194.243174,419.420555 C194.64273,419.816348 195.043501,420.202015 195.445449,420.577505 L196.049248,421.133101 L195.7135,421.503605 C195.306693,421.13496 194.901116,420.756077 194.496807,420.367009 L193.891297,419.775777 L194.243174,419.420555 Z M243.787858,416.615003 L244.160681,416.948175 C243.783584,417.370149 243.405234,417.783094 243.025662,418.186959 L242.455391,418.785941 L242.09552,418.43882 C242.473344,418.047117 242.850019,417.64633 243.225511,417.236508 L243.787858,416.615003 Z M190.853399,415.786241 C191.221371,416.211299 191.59054,416.627612 191.960873,417.035131 L192.517243,417.639811 L192.151421,417.980654 C191.777141,417.578944 191.404062,417.168401 191.032215,416.749073 L190.475373,416.113497 L190.853399,415.786241 Z M246.992319,412.771606 L247.386481,413.079236 C247.038992,413.524468 246.690291,413.961873 246.340404,414.391405 L245.814689,415.029793 L245.43044,414.709867 C245.779242,414.290937 246.126913,413.864122 246.473424,413.429465 L246.992319,412.771606 Z M187.717488,411.914128 C188.057589,412.361672 188.398862,412.8016 188.741277,413.233868 L189.255755,413.876522 L188.867056,414.191027 C188.521359,413.763777 188.17683,413.328839 187.833496,412.886255 L187.319393,412.216652 L187.717488,411.914128 Z M249.958751,408.737003 L250.36948,409.022137 C250.047691,409.485666 249.724728,409.942338 249.400613,410.39211 L248.913582,411.061589 L248.510594,410.765616 C248.834088,410.325155 249.156473,409.877779 249.477726,409.423529 L249.958751,408.737003 Z M184.804677,407.852828 C185.119769,408.317358 185.436001,408.775217 185.753348,409.226366 L186.230203,409.898052 L185.823773,410.189281 C185.503639,409.742512 185.184637,409.289009 184.86679,408.828813 L184.390888,408.133504 L184.804677,407.852828 Z M252.715678,404.551105 L253.139515,404.816364 C252.84089,405.293516 252.54113,405.764629 252.240257,406.229667 L251.788114,406.922662 L251.370422,406.647829 C251.671006,406.191002 251.970508,405.728082 252.268907,405.259106 L252.715678,404.551105 Z M182.100539,403.656955 C182.393668,404.13496 182.687904,404.607069 182.983228,405.073246 L183.427027,405.768057 L183.006663,406.038786 C182.70892,405.576476 182.412275,405.108213 182.116749,404.634036 L181.674301,403.918338 L182.100539,403.656955 Z M255.285488,400.24609 L255.719876,400.493694 C255.440796,400.983302 255.160612,401.467515 254.87934,401.946297 L254.45662,402.660391 L254.027214,402.404246 C254.308436,401.932802 254.588596,401.45591 254.867678,400.973604 L255.285488,400.24609 Z M179.576243,399.345982 C179.850208,399.835455 180.125253,400.319663 180.401361,400.798572 L180.816319,401.512956 L180.384787,401.765504 C180.106535,401.290049 179.829353,400.809277 179.55326,400.323225 L179.139937,399.590188 L179.576243,399.345982 Z M257.645117,395.927045 L258.087987,396.159136 C257.827055,396.657041 257.565053,397.150118 257.301996,397.638335 L256.906621,398.367011 L256.46785,398.127261 C256.731028,397.645616 256.993171,397.159093 257.254265,396.667726 L257.645117,395.927045 Z M177.215353,394.945702 L177.793706,396.057953 L178.375565,397.154216 L177.934929,397.39052 L177.351083,396.290515 L176.770786,395.174524 L177.215353,394.945702 Z M259.888273,391.472825 L260.338288,391.690739 L259.786066,392.820174 L259.230367,393.934856 L258.783766,393.710028 L259.337741,392.598805 L259.888273,391.472825 Z M174.998733,390.46659 L175.541792,391.596456 L176.088277,392.711885 L175.640113,392.933579 L175.091968,391.814765 L174.547283,390.681517 L174.998733,390.46659 Z M261.993732,386.959899 L262.449747,387.164962 L261.930096,388.310073 L261.407047,389.441786 L260.953916,389.230429 L261.475509,388.101864 L261.993732,386.959899 Z M172.921891,385.941032 L173.433342,387.086392 L173.948149,388.218625 L173.493701,388.427137 L172.977491,387.291817 L172.464663,386.143375 L172.921891,385.941032 Z M263.985145,382.372102 L264.446281,382.565373 L263.957213,383.722221 L263.464829,384.86689 L263.006148,384.667863 L263.497293,383.526074 L263.985145,382.372102 Z M170.957209,381.343633 L171.439143,382.501183 L171.92436,383.646772 L171.464562,383.843205 L170.978147,382.694787 L170.495037,381.534413 L170.957209,381.343633 Z M265.863069,377.737896 L266.328599,377.920328 L265.867172,379.088082 L265.402499,380.244696 L264.939082,380.056962 L265.402689,378.903001 L265.863069,377.737896 Z M169.104894,376.704141 L169.559352,377.87119 L170.017021,379.027313 L169.552645,379.212664 L169.093944,378.053935 L168.638473,376.884284 L169.104894,376.704141 Z M267.638696,373.057565 L268.108034,373.229964 L267.671909,374.407819 L267.232598,375.575437 L266.765094,375.398126 L267.203479,374.232966 L267.638696,373.057565 Z M167.352276,372.018064 L167.782243,373.195743 L168.21537,374.363363 L167.747038,374.538478 L167.313014,373.368438 L166.882164,372.188343 L167.352276,372.018064 Z M269.316623,368.344083 L269.789282,368.507157 L269.377461,369.691576 L268.962522,370.866596 L268.491464,370.698953 L268.905596,369.52622 L269.316623,368.344083 Z M165.696644,367.302683 L166.103361,368.488429 L166.513181,369.664906 L166.041406,369.830521 L165.6308,368.651788 L165.223311,367.46379 L165.696644,367.302683 Z M270.902717,363.604537 L271.378291,363.758906 L270.988256,364.951436 L270.595152,366.135272 L270.120988,365.976624 L270.513382,364.794929 L270.902717,363.604537 Z M164.13227,362.565213 L164.517486,363.758633 L164.905756,364.943479 L164.430967,365.100245 L164.042004,363.913284 L163.656107,362.717754 L164.13227,362.565213 Z M272.408783,358.823654 L272.886939,358.969827 L272.517685,360.168755 L272.145412,361.359636 L271.668504,361.209441 L272.040148,360.020572 L272.408783,358.823654 Z M162.648064,357.792274 L163.012694,358.991424 L163.380327,360.182642 L162.902872,360.33109 L162.534625,359.137883 L162.169392,357.936748 L162.648064,357.792274 Z M273.832533,354.027229 L274.312979,354.16569 L273.963652,355.368956 L273.611357,356.564774 L273.13202,356.422521 L273.483756,355.2286 L273.832533,354.027229 Z M161.24212,352.995468 L161.587371,354.19974 L161.93558,355.396658 L161.455759,355.537272 L161.107004,354.338477 L160.761215,353.13233 L161.24212,352.995468 Z M275.181877,349.206693 L275.664369,349.33785 L275.333191,350.547314 L274.999084,351.749844 L274.517585,351.615091 L274.851192,350.41436 L275.181877,349.206693 Z M159.909822,348.176021 L160.237142,349.386329 L160.567383,350.589789 L160.085454,350.722999 L159.754724,349.517756 L159.426923,348.305668 L159.909822,348.176021 Z M276.46009,344.366255 L276.944415,344.490471 L276.630774,345.704505 L276.314244,346.912084 L275.830809,346.784447 L276.146891,345.578579 L276.46009,344.366255 Z M158.649394,343.34373 L158.959168,344.557565 L159.27182,345.765035 L158.788004,345.891219 L158.474913,344.682055 L158.164708,343.466526 L158.649394,343.34373 Z M277.669301,339.513241 L278.155273,339.630849 L277.858347,340.848888 L277.558568,342.060913 L277.073398,341.940042 L277.372773,340.729649 L277.669301,339.513241 Z M157.455331,338.492582 L157.748095,339.708303 L158.043691,340.91811 L157.558179,341.037598 L157.262188,339.826174 L156.969035,338.60884 L157.455331,338.492582 Z M278.81453,334.641709 L279.301988,334.752993 L279.020997,335.974843 L278.737187,337.191081 L278.250452,337.076673 L278.533898,335.861998 L278.81453,334.641709 Z M279.89705,329.759422 L280.385853,329.864645 L280.120097,331.090092 L279.851553,332.310296 L279.363405,332.202073 L279.631619,330.98337 L279.89705,329.759422 Z M280.920871,324.860686 L281.410893,324.960076 L281.159949,326.188068 L280.906249,327.411164 L280.416821,327.308889 L280.670222,326.087236 L280.920871,324.860686 Z M281.878973,319.994277 L282.370093,320.088092 L282.133195,321.318823 L281.893568,322.544974 L281.402989,322.448374 L281.642343,321.223616 L281.878973,319.994277 Z M282.792236,315.064434 L283.284365,315.152801 L283.061355,316.385122 L282.835647,317.613166 L282.344009,317.522107 L282.792236,315.064434 Z M283.642933,310.177216 L284.135972,310.260362 L283.713295,312.726983 L283.220704,312.641225 L283.433155,311.411226 L283.642933,310.177216 Z M284.444919,305.266676 L284.938788,305.344738 L284.741607,306.581965 L284.541774,307.815442 L284.048313,307.734845 L284.444919,305.266676 Z M285.201287,300.319291 L285.695916,300.392378 L285.51129,301.631221 L285.324034,302.866556 L284.829775,302.791002 L285.201287,300.319291 Z M285.905412,295.387086 L286.400731,295.455347 L286.228328,296.695251 L286.053318,297.931879 L285.558337,297.861214 L285.733176,296.625789 L285.905412,295.387086 Z M286.565165,290.423868 L287.061113,290.487395 L286.737495,292.967334 L286.241853,292.901459 L286.565165,290.423868 Z M287.176585,285.466943 L287.673103,285.525852 L287.524179,286.768809 L287.372685,288.008905 L286.876445,287.947698 L287.176585,285.466943 Z M287.742442,280.503866 L288.239476,280.558251 L287.961808,283.04388 L287.465026,282.987243 L287.605009,281.74689 L287.742442,280.503866 Z M147.428278,278.984002 L147.563581,280.227279 L147.701459,281.467908 L147.204582,281.523704 L147.066578,280.281941 L146.931152,279.037531 L147.428278,278.984002 Z M288.265109,275.520376 L288.762609,275.570312 L288.636208,276.815741 L288.507271,278.05868 L288.009997,278.006535 L288.265109,275.520376 Z M146.915619,274.012399 L147.039691,275.256624 L147.166322,276.498384 L146.668959,276.549667 L146.418031,274.061458 L146.915619,274.012399 Z M288.741579,270.554343 L289.239497,270.599927 L289.124039,271.846153 L289.006061,273.090063 L288.508347,273.042309 L288.626222,271.799485 L288.741579,270.554343 Z M145.949173,269.080274 L146.447174,269.035609 L146.675844,271.523853 L146.178044,271.570705 L146.062335,270.326636 L145.949173,269.080274 Z M288.96565,268.046576 L289.039241,267.195012 L289.537416,267.237695 L289.463761,268.089991 L288.96565,268.046576 Z M146.022236,264.054331 L146.12446,265.300412 L146.229213,266.544364 L145.731022,266.586859 L145.523867,264.094675 L146.022236,264.054331 Z M145.640304,259.071263 L145.731895,260.318555 L145.826004,261.563871 L145.327466,261.60208 L145.141608,259.107351 L145.640304,259.071263 Z M145.300579,254.084647 L145.381656,255.33271 L145.46524,256.578946 L144.966396,256.612929 L144.882742,255.365647 L144.801597,254.116538 L145.300579,254.084647 Z M144.503336,249.123548 L145.002566,249.095801 L145.146442,251.591316 L144.647331,251.621129 L144.503336,249.123548 Z M147.938194,137.852456 L148.434133,137.91605 L148.281567,139.116695 L148.131428,140.320124 L147.635204,140.258787 L147.785484,139.054229 L147.938194,137.852456 Z M148.596837,132.902433 L149.092148,132.970753 L148.756667,135.446971 L148.261034,135.381032 L148.427634,134.140149 L148.596837,132.902433 Z M149.304153,127.952874 L149.79877,128.026041 L149.617705,129.260607 L149.43926,130.49856 L148.944287,130.427833 L149.122909,129.18866 L149.304153,127.952874 Z M150.060999,123.007806 L150.554855,123.085949 L150.170539,125.555413 L149.676293,125.479775 L150.060999,123.007806 Z M150.865774,118.08583 L151.358796,118.169074 L151.152724,119.399377 L150.949316,120.633551 L150.455866,120.552883 L150.865774,118.08583 Z M151.726586,113.148039 L152.218687,113.236563 L151.999446,114.464859 L151.782894,115.697297 L151.290323,115.611429 L151.507108,114.377664 L151.726586,113.148039 Z M152.63423,108.256184 L153.125328,108.350117 L152.892653,109.575879 L152.662694,110.806068 L152.17108,110.714877 L152.401296,109.483318 L152.63423,108.256184 Z M153.591529,103.399847 L154.081529,103.499346 L153.835199,104.721535 L153.591607,105.948448 L153.10104,105.851784 L153.344913,104.623454 L153.591529,103.399847 Z M154.619236,98.4884748 L155.108011,98.5938253 L154.847059,99.8134729 L154.588877,101.038182 L154.099477,100.935776 L154.357969,99.7095955 L154.619236,98.4884748 Z M155.705009,93.59787 L156.192436,93.7092938 L155.916485,94.9252825 L155.643334,96.1466887 L155.155217,96.0383281 L155.42871,94.8153911 L155.705009,93.59787 Z M278.20668,89.6263204 L278.495604,90.8403361 L278.781697,92.0600763 L278.294724,92.1734656 L278.009002,90.9553091 L277.720456,89.7428788 L278.20668,89.6263204 Z M156.852993,88.7211135 L157.338929,88.8388696 L157.047239,90.0513173 L156.758385,91.2695729 L156.271686,91.1550136 L156.560919,89.9351605 L156.852993,88.7211135 Z M277.00701,84.7658101 L277.312104,85.9753975 L277.614334,87.1911203 L277.128899,87.3109252 L276.827081,86.0968582 L276.522405,84.8889283 L277.00701,84.7658101 Z M158.067766,83.8526156 L158.552046,83.9770031 L158.244055,85.1848112 L157.938932,86.3988458 L157.453805,86.2778028 L157.759347,85.062097 L158.067766,83.8526156 Z M275.742424,79.931012 L276.064283,81.1352081 L276.383242,82.3459809 L275.899511,82.4724894 L275.581009,81.2634522 L275.259615,80.0609937 L275.742424,79.931012 Z M159.347547,79.0131592 L159.829992,79.1444856 L159.504645,80.3483846 L159.182209,81.5589787 L158.698822,81.4311654 L159.021725,80.2188158 L159.347547,79.0131592 Z M274.405345,75.1076003 L274.745705,76.3089817 L275.083113,77.5174594 L274.601278,77.6510076 L274.264381,76.4443601 L273.924541,75.2448112 L274.405345,75.1076003 Z M160.700563,74.1862533 L161.180958,74.3248929 L160.837605,75.5233441 L160.497202,76.7289939 L160.015755,76.5940546 L160.35668,75.3865558 L160.700563,74.1862533 Z M272.991407,70.297079 L273.350561,71.4923796 L273.70672,72.6953174 L273.227009,72.8363034 L272.871422,71.6352986 L272.51285,70.4419336 L272.991407,70.297079 Z M162.12867,69.3819285 L162.606769,69.5282914 L162.24441,70.7207115 L161.885045,71.9208847 L161.405767,71.7784337 L161.765717,70.5763058 L162.12867,69.3819285 Z M271.50223,65.5218183 L271.88153,66.7113225 L272.257786,67.9090731 L271.78045,68.0579024 L271.404838,66.8622029 L271.026193,65.6747526 L271.50223,65.5218183 Z M163.637409,64.5991958 L164.112921,64.7537538 L163.730844,65.9380916 L163.3518,67.130778 L162.87496,66.9803679 L163.254662,65.785609 L163.637409,64.5991958 Z M269.927881,60.7680508 L270.328403,61.950255 L270.72583,63.1413733 L270.251174,63.2985415 L269.854476,62.1096076 L269.454695,60.9295911 L269.927881,60.7680508 Z M165.232721,59.8389552 L165.705304,60.0022506 L165.301384,61.1802076 L164.900554,62.3672142 L164.426465,62.2083459 L164.828041,61.0191274 L165.232721,59.8389552 Z M268.26679,56.0511933 L268.689271,57.2232818 L269.108612,58.4049988 L268.636992,58.5710537 L268.218479,57.3916701 L267.79684,56.2219185 L268.26679,56.0511933 Z M166.912973,55.1258431 L167.382233,55.2984548 L166.955836,56.466819 L166.532578,57.6449785 L166.061602,57.477104 L166.485711,56.2965776 L166.912973,55.1258431 Z M266.509534,51.366415 L266.956763,52.5304233 L267.400784,53.7049187 L266.932622,53.8804859 L266.48955,52.7085023 L266.043288,51.5470095 L266.509534,51.366415 Z M168.696483,50.4314805 L169.161922,50.6141453 L168.710807,51.7730183 L168.262891,52.9425527 L167.795482,52.76499 L168.244374,51.5929064 L168.696483,50.4314805 Z M264.6452,46.7106169 L265.119312,47.8653845 L265.590142,49.0316195 L265.125958,49.2174521 L264.656227,48.0539368 L264.183233,46.9018928 L264.6452,46.7106169 Z M170.578035,45.7948626 L171.039077,45.9883558 L170.561449,47.1361245 L170.087085,48.2955296 L169.623763,48.1075593 L170.099256,46.9453947 L170.578035,45.7948626 Z M262.672213,42.1078199 L263.174581,43.2496009 L263.673598,44.4039227 L263.214017,44.600864 L262.716279,43.4494987 L262.215214,42.3106783 L262.672213,42.1078199 Z M172.577391,41.1949912 L173.033301,41.4002851 L172.526474,42.5359271 L172.022984,43.6843396 L171.564411,43.4850652 L172.069219,42.3336449 L172.577391,41.1949912 Z M260.581404,37.5660841 L261.11477,38.6932854 L261.644707,39.8342699 L261.190492,40.043288 L260.662058,38.9055388 L260.130224,37.7815766 L260.581404,37.5660841 Z M174.702707,36.6465177 L175.152574,36.8647366 L174.614295,37.9849688 L174.079428,39.1192547 L173.62642,38.9076332 L174.162842,37.7700505 L174.702707,36.6465177 Z M258.355987,33.0835865 L258.922786,34.1922875 L259.486078,35.3161783 L259.038201,35.5384529 L258.476694,34.4181225 L257.911716,33.3129852 L258.355987,33.0835865 Z M176.953311,32.1850181 L177.396026,32.4174049 L176.823765,33.5186897 L176.25499,34.6354886 L175.808534,34.4103734 L176.379159,33.2899402 L176.953311,32.1850181 Z M255.979629,28.6688899 C256.249374,29.1492192 256.518061,29.6345838 256.785674,30.1249504 L257.186288,30.8642476 L256.74598,31.1011622 C256.480389,30.6075594 256.213731,30.1189425 255.946021,29.6353448 L255.54367,28.9137168 L255.979629,28.6688899 Z M179.337281,27.8294647 L179.771448,28.0774547 C179.499278,28.5539549 179.228156,29.0355976 178.958099,29.5223491 L178.553813,30.2563037 L178.11513,30.0163926 C178.3851,29.5227462 178.656158,29.0341912 178.928287,28.5507614 L179.337281,27.8294647 Z M253.438112,24.3433144 C253.726749,24.8123507 254.014297,25.2870224 254.300739,25.7672935 L254.729571,26.4918953 L254.298422,26.745096 C254.014245,26.2612008 253.728971,25.7828869 253.442618,25.31019 L253.012282,24.6053621 L253.438112,24.3433144 Z M181.896692,23.5488652 L182.32039,23.8143461 C182.029159,24.2791405 181.739003,24.7496971 181.449941,25.2259795 L181.01717,25.944693 L180.587939,25.6882549 C180.877103,25.2042455 181.16739,24.7259442 181.458781,24.2533874 L181.896692,23.5488652 Z M250.714592,20.1324944 C251.02398,20.5869408 251.33225,21.0477209 251.639382,21.514796 L252.099224,22.2201252 L251.679316,22.4915612 C251.374758,22.0204137 251.069075,21.55554 250.762288,21.0969786 L250.301283,20.4138757 L250.714592,20.1324944 Z M184.667358,19.3467261 L185.077952,19.632055 C184.765849,20.0811765 184.454844,20.5367792 184.144959,20.9988238 L183.680974,21.6967173 L183.263491,21.421566 C183.573744,20.9508238 183.885153,20.4865065 184.197696,20.0286532 L184.667358,19.3467261 Z M247.776673,16.0518245 C248.110211,16.4889895 248.442596,16.9333603 248.773804,17.3848946 L249.269729,18.0675635 L248.863866,18.3595815 C248.535649,17.903406 248.206274,17.4543679 247.875766,17.0125091 L247.379159,16.3551107 L247.776673,16.0518245 Z M187.652334,15.2907633 L188.046366,15.5985593 C187.710018,16.0291437 187.374794,16.4671071 187.040719,16.9124069 L186.540473,17.5858535 L186.137692,17.2895974 C186.472503,16.8343982 186.808511,16.3865202 187.14569,15.9460061 L187.652334,15.2907633 Z M244.617359,12.1665312 C244.977547,12.5809022 245.33655,13.0035061 245.69434,13.434297 L246.230111,14.0866179 L245.842014,14.4018656 C245.487765,13.9657546 245.132331,13.5377964 244.775742,13.1180364 L244.239996,12.4945508 L244.617359,12.1665312 Z M190.8798,11.4227998 L191.252514,11.7560932 C190.888706,12.1629306 190.526044,12.5782395 190.16456,13.0019736 L189.623221,13.643888 L189.239187,13.3237035 C189.601932,12.8886226 189.965915,12.4619569 190.331107,12.0437531 L190.8798,11.4227998 Z M241.188905,8.50680714 C241.579962,8.89237456 241.9698,9.28745754 242.358387,9.69200579 L242.940323,10.3059208 L242.575202,10.6475157 C242.190913,10.2367609 241.805415,9.83542326 241.418743,9.44355191 L240.837859,8.86285075 L241.188905,8.50680714 Z M194.37952,7.80238627 L194.724308,8.16449216 C194.330193,8.53976 193.937234,8.92479453 193.545468,9.31954581 L192.958719,9.91895406 L192.599043,9.57163177 C192.992817,9.16385036 193.387867,8.76578718 193.784158,8.37749343 L194.37952,7.80238627 Z M237.459591,5.14917128 C237.885152,5.49648035 238.30947,5.85485009 238.732506,6.22422523 L239.366095,6.78653508 L239.031225,7.1578332 C238.613518,6.78110764 238.194591,6.41531454 237.774486,6.06050679 L237.143451,5.53654081 L237.459591,5.14917128 Z M198.128406,4.55228452 L198.436678,4.94594502 C198.008579,5.28118518 197.581635,5.62776235 197.155889,5.98562298 L196.518174,6.53086981 L196.190101,6.1535531 C196.618905,5.78071134 197.049017,5.41917763 197.480395,5.06900827 L198.128406,4.55228452 Z M233.386224,2.18779031 C233.849555,2.48396596 234.311642,2.79302746 234.772439,3.1149144 L235.46266,3.60735633 L235.168275,4.01150685 C234.714191,3.68074984 234.258901,3.36270169 233.802455,3.05741803 L233.116927,2.60907286 L233.386224,2.18779031 Z M202.305244,1.65976545 L202.563522,2.08789257 C202.099043,2.36809986 201.635683,2.6614493 201.173493,2.9678851 L200.481092,3.4373466 L200.196276,3.0263962 C200.663008,2.70292073 201.13105,2.39260118 201.600352,2.09549871 L202.305244,1.65976545 Z M228.953268,-0.234231028 C229.518313,0.0227035291 230.081843,0.298508568 230.643777,0.593092264 L231.205176,0.893932112 L230.965046,1.33249516 C230.412253,1.02982014 229.858005,0.745695935 229.302381,0.480202863 L228.746302,0.220923142 L228.953268,-0.234231028 Z M206.813146,-0.637376444 L207.005614,-0.175904805 C206.440759,0.0596819755 205.87723,0.314438796 205.31511,0.588285419 L204.753462,0.868492338 L204.526068,0.423192381 C205.095745,0.132285006 205.667029,-0.13933966 206.239836,-0.39158899 L206.813146,-0.637376444 Z M224.193278,-1.94129578 C224.797078,-1.78215516 225.399528,-1.60174285 226.000531,-1.40015032 L226.601049,-1.19150111 L226.431903,-0.720980523 C225.842094,-0.933009321 225.250968,-1.12420596 224.658612,-1.29449287 L224.065848,-1.45780701 L224.193278,-1.94129578 Z M211.618214,-2.17838067 L211.728112,-1.69060785 C211.129492,-1.5557347 210.532036,-1.3995857 209.93583,-1.22223728 L209.340044,-1.03782523 L209.186962,-1.51381482 C209.792926,-1.70869657 210.40032,-1.88206307 211.009046,-2.0338244 L211.618214,-2.17838067 Z M219.187745,-2.76938354 C219.815954,-2.726625 220.443111,-2.66106673 221.069112,-2.57278802 L221.694724,-2.47693877 L221.613129,-1.98364157 C220.999716,-2.0851055 220.385201,-2.16429636 219.769665,-2.22114249 L219.153791,-2.27053772 L219.187745,-2.76938354 Z M216.626183,-2.8173247 L216.641454,-2.31755798 C216.023498,-2.29867474 215.406486,-2.25733132 214.790502,-2.19359782 L214.174862,-2.12240354 L214.111463,-2.61836783 C214.738712,-2.69854883 215.367081,-2.75593201 215.996464,-2.79044195 L216.626183,-2.8173247 Z" transform="rotate(140 217.02 214.18)"/>
    <g fill="#5055FE" transform="translate(331 67)">
      <circle cx="8" cy="8" r="8" opacity=".103"/>
      <circle cx="8" cy="8" r="3.429"/>
    </g>
    <g fill="#5055FE" transform="translate(94 261)">
      <circle cx="8" cy="8" r="8" opacity=".103"/>
      <circle cx="8" cy="8" r="3.429"/>
    </g>
    <g fill="#5055FE" transform="translate(244 371)">
      <circle cx="7.5" cy="7.5" r="7.5" opacity=".103"/>
      <circle cx="7.5" cy="7.5" r="3.214"/>
    </g>
    <g fill="#5055FE" transform="translate(413 185)">
      <circle cx="7.5" cy="7.5" r="7.5" opacity=".103"/>
      <circle cx="7.5" cy="7.5" r="3.214"/>
    </g>
    <g fill="#5055FE" transform="translate(58 75)">
      <circle cx="7.5" cy="7.5" r="7.5" opacity=".103"/>
      <circle cx="7.5" cy="7.5" r="3.214"/>
    </g>
    <circle cx="62" cy="195" r="3" fill="#5055FE"/>
    <circle cx="201" cy="61" r="3" fill="#5055FE"/>
    <circle cx="343" cy="315" r="3" fill="#5055FE"/>
    <path fill="url(#img-protection-b)" fill-rule="nonzero" d="M330.346085,167.808842 C336.363839,182.353358 339.5,197.995147 339.5,214.071586 C339.5,281.135018 284.954854,335.5 217.670832,335.5 C191.421431,335.5 166.426916,327.204646 145.704974,312.060259 C145.482026,311.897321 145.433379,311.584498 145.596318,311.361551 C145.759256,311.138603 146.072079,311.089956 146.295026,311.252895 C166.847057,326.273103 191.635305,334.5 217.670832,334.5 C284.403308,334.5 338.5,280.581991 338.5,214.071586 C338.5,198.126926 335.389874,182.614989 329.422053,168.191158 C329.316479,167.935994 329.437747,167.643558 329.692911,167.537984 C329.948075,167.432411 330.240511,167.553678 330.346085,167.808842 Z M217.987975,92.5 C238.237502,92.5 257.772498,97.4580569 275.23588,106.801704 C275.479363,106.931977 275.571136,107.234966 275.440863,107.478448 C275.31059,107.72193 275.007602,107.813704 274.76412,107.683431 C257.444989,98.4169645 238.071899,93.5 217.987975,93.5 C151.444263,93.5 97.5,147.424575 97.5,213.943818 C97.5,225.197138 99.0438691,236.24445 102.055546,246.863576 C102.130891,247.129241 101.976606,247.405684 101.710941,247.481029 C101.445277,247.556373 101.168834,247.402089 101.093489,247.136424 C98.0566995,236.428752 96.5,225.289631 96.5,213.943818 C96.5,146.872208 150.89206,92.5 217.987975,92.5 Z"/>
    <path fill="url(#img-protection-b)" fill-rule="nonzero" d="M274,95.5 C274.24546,95.5 274.449608,95.6768752 274.491944,95.9101244 L274.5,96 L274.5,110 C274.5,110.276142 274.276142,110.5 274,110.5 C273.75454,110.5 273.550392,110.323125 273.508056,110.089876 L273.5,110 L273.5,96.499 L260,96.5 C259.75454,96.5 259.550392,96.3231248 259.508056,96.0898756 L259.5,96 C259.5,95.7545401 259.676875,95.5503916 259.910124,95.5080557 L260,95.5 L274,95.5 Z" transform="rotate(75 267 103)"/>
    <path fill="url(#img-protection-b)" fill-rule="nonzero" d="M161,308.5 C161.24546,308.5 161.449608,308.676875 161.491944,308.910124 L161.5,309 L161.5,323 C161.5,323.276142 161.276142,323.5 161,323.5 C160.75454,323.5 160.550392,323.323125 160.508056,323.089876 L160.5,323 L160.5,309.499 L147,309.5 C146.75454,309.5 146.550392,309.323125 146.508056,309.089876 L146.5,309 C146.5,308.75454 146.676875,308.550392 146.910124,308.508056 L147,308.5 L161,308.5 Z" transform="rotate(-105 154 316)"/>
    <path fill="url(#img-protection-c)" fill-rule="nonzero" d="M237.884017,191.932772 C253.330984,200.851083 258.764254,220.452881 250.23911,236.016281 L258.257084,240.645585 C258.615803,240.852692 258.73871,241.311385 258.531603,241.670104 C258.341755,241.998931 257.940505,242.129608 257.598643,241.989579 L257.507084,241.944623 L249.48899,237.315526 C240.273258,252.480202 220.580978,257.575743 205.134017,248.657436 C199.71256,245.527357 194.55202,239.191966 189.634146,229.646552 L189.067775,228.530913 L188.503551,227.38678 C188.409692,227.193716 188.315923,226.999466 188.222243,226.804028 L187.661229,225.617153 C187.567904,225.416966 187.474669,225.215591 187.381522,225.013029 L186.823704,223.783408 L186.268008,222.525287 C185.898251,221.67704 185.529904,220.809792 185.162961,219.923541 L184.613596,218.579913 C184.52221,218.353599 184.430912,218.126098 184.339701,217.897409 L183.79348,216.511022 C183.702618,216.277581 183.611842,216.042953 183.521153,215.807137 L182.978063,214.377987 L182.437052,212.920325 C182.347057,212.675006 182.257148,212.428498 182.167325,212.180803 L181.62942,210.680373 L181.09358,209.151428 L180.559796,207.593967 L180.028064,206.007988 L179.498377,204.393489 L178.970728,202.75047 L178.445111,201.078927 L177.921521,199.378861 L177.39995,197.650268 L176.880393,195.893148 C176.793968,195.597918 176.707626,195.301498 176.621368,195.00389 C176.502118,194.592453 176.751112,194.16488 177.167807,194.065547 L180.540624,193.26769 L184.087553,192.448232 L186.495253,191.914607 C186.580971,191.89619 186.664864,191.878251 186.746933,191.860788 C187.152077,191.774582 187.550394,192.033133 187.6366,192.438276 C187.722806,192.84342 187.464256,193.241738 187.059112,193.327943 L185.394599,193.69168 L183.334606,194.158697 L179.973144,194.941966 L178.281091,195.342069 L178.821037,197.166675 C178.905026,197.448019 178.989091,197.72823 179.073232,198.007306 L179.578983,199.668157 C179.663426,199.942698 179.747945,200.216104 179.832539,200.488377 L180.341006,202.108403 C180.425901,202.376139 180.510872,202.642741 180.595917,202.908209 L181.107087,204.487408 L181.620052,206.039385 C181.705695,206.295779 181.791413,206.55104 181.877205,206.805165 L182.39285,208.316309 C182.47894,208.565898 182.565103,208.814352 182.651341,209.061672 L183.169654,210.531978 L183.689738,211.975058 L184.211587,213.390909 L184.735195,214.77953 L185.260557,216.140921 L185.787667,217.475078 C185.875664,217.695168 185.963733,217.914124 186.051875,218.131944 L186.581595,219.42525 L187.113048,220.691319 C187.467926,221.526285 187.823955,222.343093 188.181128,223.141741 L188.717745,224.326091 C188.896902,224.716334 189.076344,225.102036 189.256071,225.483198 L189.7961,226.613061 C194.844306,237.031308 200.11435,243.889456 205.584778,247.181966 L205.884017,247.358398 C220.613441,255.862435 239.388225,251.012695 248.189477,236.565527 L241.351492,232.617461 L216.957195,241.322 C216.567068,241.46119 216.137972,241.257765 215.998782,240.867638 C215.872246,240.512978 216.028862,240.126111 216.351491,239.954127 L216.453143,239.909225 L239.647492,231.633461 L225.775492,223.624461 L208.219768,230.484063 C207.833954,230.634797 207.398996,230.444227 207.248262,230.058414 C207.111231,229.707674 207.256269,229.31632 207.573639,229.134814 L207.67391,229.086908 L224.111492,222.664461 L211.875492,215.599461 L201.248648,218.447752 C200.848549,218.554958 200.437296,218.317521 200.33009,217.917422 C200.232629,217.553695 200.419998,217.180751 200.755471,217.035403 L200.86042,216.998863 L210.038492,214.539461 L199.483382,208.444623 C199.124662,208.237517 199.001756,207.778824 199.208863,207.420104 C199.398711,207.091278 199.799961,206.960601 200.141823,207.100629 L200.233382,207.145585 L210.789492,213.240461 L208.33009,204.061015 C208.232629,203.697289 208.419998,203.324344 208.755471,203.178996 L208.86042,203.142457 C209.224147,203.044996 209.597091,203.232365 209.742439,203.567839 L209.778979,203.672787 L212.626492,214.300461 L224.861492,221.364461 L222.205389,203.917649 C222.143022,203.508157 222.424422,203.125641 222.833913,203.063274 C223.206178,203.006576 223.55615,203.233984 223.663562,203.583456 L223.688289,203.691798 L226.525492,222.325461 L240.397492,230.334461 L235.967407,206.109529 C235.892886,205.702074 236.162782,205.311355 236.570236,205.236834 C236.94065,205.169087 237.297232,205.385983 237.414993,205.732106 L237.442932,205.839664 L242.102492,231.318461 L248.939657,235.266195 C257.050915,220.420447 251.863556,201.735914 237.134017,193.231811 C231.479731,189.967307 222.626292,188.784386 210.591101,189.711728 L209.312488,189.817138 C208.452246,189.89261 207.576338,189.978478 206.68477,190.074753 L205.335674,190.226973 C204.428448,190.333658 203.505565,190.450755 202.567031,190.578274 L201.147494,190.77737 C200.908948,190.811856 200.669424,190.846993 200.428922,190.882783 L198.974179,191.105342 C198.485353,191.182137 197.992616,191.26154 197.49597,191.343553 C197.087291,191.411039 196.701283,191.134448 196.633796,190.725769 C196.566309,190.31709 196.8429,189.931082 197.251579,189.863596 L198.005982,189.740525 L199.497166,189.506341 C199.990311,189.430937 200.479541,189.358191 200.964856,189.288104 L202.409059,189.085822 C202.647802,189.053438 202.885567,189.02172 203.122353,188.990666 L204.531332,188.81233 L205.916833,188.649968 C206.374754,188.59851 206.828764,188.549715 207.278862,188.503586 L208.617423,188.373192 C209.059699,188.332393 209.498065,188.29426 209.93252,188.258794 L211.224159,188.160399 L212.492343,188.078015 C223.800469,187.408624 232.259429,188.685415 237.884017,191.932772 Z M195.811696,204.600629 L195.903255,204.645585 L197.635306,205.645585 C197.994025,205.852692 198.116931,206.311385 197.909825,206.670104 C197.719977,206.998931 197.318727,207.129608 196.976865,206.989579 L196.885306,206.944623 L195.153255,205.944623 C194.794535,205.737517 194.671629,205.278824 194.878736,204.920104 C195.068584,204.591278 195.469834,204.460601 195.811696,204.600629 Z" transform="rotate(60 217.612 220.478)"/>
    <g fill-rule="nonzero" transform="translate(110 104)">
      <path fill="url(#img-protection-d)" d="M108.591895,20.7111223 C102.33024,29.5571237 93.5122282,37.7872536 81.9074077,43.6224412 C65.6646401,51.7897019 46.1537954,54.0148782 23.1161308,48.5136733 C22.8427558,48.4483936 22.5693008,48.6211946 22.5109094,48.8961233 C20.9359655,56.3115528 19.7874755,65.4050877 19.5728512,75.6337547 C19.2706093,90.0381428 20.9012304,104.625882 24.9657002,118.908296 C35.8396416,157.11897 62.4630767,188.273226 108.800316,208.458395 C108.927673,208.513874 109.072369,208.513868 109.199721,208.458379 C155.536659,188.268904 182.160202,157.11196 193.0343,118.900675 C197.098754,104.618293 198.729393,90.0310102 198.427149,75.6279824 C198.212517,65.4000155 197.063759,56.3062902 195.489079,48.8960701 C195.430657,48.6211417 195.157173,48.4483701 194.883801,48.5136896 C171.847941,54.0178818 152.337463,51.7933403 136.093957,43.6249892 C124.488986,37.7892119 115.670376,29.5579934 109.408105,20.7111223 C109.208847,20.4296259 108.791153,20.4296259 108.591895,20.7111223 Z M109,21.858 L109.399184,22.4068904 C115.691952,30.9511834 124.369434,38.8484128 135.644695,44.5183889 L136.213414,44.801333 C152.174169,52.6567789 171.21079,54.8786459 193.517312,49.8573168 L194.615,49.604 L194.807896,50.5476822 C196.216534,57.6257983 197.227894,66.1432524 197.427369,75.6489626 C197.727628,89.957369 196.107975,104.446373 192.072488,118.626965 L191.743995,119.762685 C180.859827,156.793954 154.929255,187.057105 110.176156,206.936321 L109,207.453 L109.199684,207.541605 C63.1406171,187.477611 36.7207063,156.561516 25.9275121,118.634585 C21.8920102,104.453963 20.2723746,89.9645015 20.5726312,75.6547327 L20.5961443,74.6748597 C20.8423062,65.562647 21.8318109,57.3867583 23.192068,50.5485793 L23.384,49.604 L24.482874,49.8571276 C47.0565909,54.9353764 66.2807176,52.599223 82.3566389,44.5158567 C93.6317625,38.8464488 102.308703,30.9502363 108.600891,22.406782 L109,21.858 Z"/>
      <path fill="url(#img-protection-e)" d="M182.032371,60.8968162 C183.346557,67.1279167 184.301859,74.7505995 184.473625,83.349469 C184.716137,95.4900065 183.326252,107.788885 179.878614,119.835997 C170.645729,152.098544 148.08169,178.410149 108.827937,195.458614 C108.700894,195.51379 108.556656,195.513796 108.429609,195.45863 C104.006374,193.537978 99.7852651,191.492128 95.7628044,189.324469 C95.5197123,189.19347 95.4288434,188.890209 95.5598429,188.647116 C95.6908425,188.404024 95.9941036,188.313156 96.2371956,188.444155 C99.7904683,190.358973 103.500411,192.178482 107.369519,193.900281 L108.629,194.454 L109.593863,194.030814 C147.464747,177.262706 169.410792,151.741725 178.638691,120.518454 L178.917208,119.560862 C182.335681,107.615663 183.714444,95.4152068 183.473824,83.3694405 C183.315563,75.4466493 182.487201,68.3611501 181.327298,62.447034 L181.157,61.6 L180.772805,61.6886248 C169.309978,64.2527706 158.799358,64.5933715 149.209188,62.968928 L148.473298,62.8400994 C148.20156,62.7909784 148.021093,62.5308705 148.070214,62.2591321 C148.119335,61.9873938 148.379442,61.8069267 148.651181,61.8560477 C158.54707,63.6448851 169.458346,63.2983306 181.429829,60.5130073 C181.702739,60.449511 181.974547,60.6226477 182.032371,60.8968162 Z M67.3401287,166.633513 C69.5494537,168.683942 71.8722498,170.67608 74.3105227,172.608113 C74.5269561,172.77961 74.5633842,173.094089 74.3918873,173.310523 C74.2203904,173.526956 73.9059107,173.563384 73.6894773,173.391887 C71.2308601,171.443734 68.8883091,169.434654 66.6598713,167.366487 C66.4574663,167.178639 66.4456655,166.862276 66.6335134,166.659871 C66.8213613,166.457466 67.1377237,166.445665 67.3401287,166.633513 Z M109.289101,36.5920532 C109.514404,36.7517193 109.567613,37.0637982 109.407947,37.289101 C104.052675,44.8458572 96.5096183,51.8827084 86.5731527,56.8931236 C72.8652815,63.8052521 56.4377491,65.8091417 37.1163157,61.4660531 L36.83,61.4 L36.7898932,61.5991529 C34.701294,71.8701681 33.746789,84.4925611 35.1140726,98.2950578 L35.2109082,99.237952 C37.4744946,120.52375 45.0095579,140.441607 59.1693017,157.682664 C59.3445613,157.896062 59.313644,158.211132 59.1002461,158.386391 C58.8868481,158.561651 58.5717789,158.530734 58.3965193,158.317336 C44.1042902,140.914963 36.4996303,120.813137 34.2165151,99.3436983 C32.663946,84.7440026 33.6986151,71.4174419 35.9554883,60.6965176 C36.0132263,60.4222422 36.2851097,60.2489969 36.5581009,60.3125302 C55.9924699,64.8354949 72.4396241,62.8999489 86.1229092,56.0002178 C95.8996502,51.0703429 103.324731,44.1435502 108.592053,36.710899 C108.751719,36.4855962 109.063798,36.4323871 109.289101,36.5920532 Z M132.225117,56.5535445 C134.452201,57.6765086 136.76611,58.671415 139.16814,59.5291189 C139.4282,59.6219798 139.563742,59.9080792 139.470881,60.1681397 C139.37802,60.4282002 139.091921,60.5637421 138.83186,60.4708811 C136.390528,59.5991433 134.038591,58.5878858 131.774883,57.4464555 C131.528313,57.3221271 131.429216,57.0214541 131.553544,56.7748835 C131.677873,56.5283129 131.978546,56.429216 132.225117,56.5535445 Z"/>
      <g fill="url(#img-protection-f)" transform="translate(192.5)">
        <path d="M6.5,-0.5 C6.74545989,-0.5 6.94960837,-0.323124839 6.99194433,-0.0898756324 L7,0 L7,12 C7,12.2761424 6.77614237,12.5 6.5,12.5 C6.25454011,12.5 6.05039163,12.3231248 6.00805567,12.0898756 L6,12 L6,0 C6,-0.276142375 6.22385763,-0.5 6.5,-0.5 Z"/>
        <path d="M6.5,-0.5 C6.74545989,-0.5 6.94960837,-0.323124839 6.99194433,-0.0898756324 L7,0 L7,12 C7,12.2761424 6.77614237,12.5 6.5,12.5 C6.25454011,12.5 6.05039163,12.3231248 6.00805567,12.0898756 L6,12 L6,0 C6,-0.276142375 6.22385763,-0.5 6.5,-0.5 Z" transform="rotate(-90 6.5 6)"/>
      </g>
      <g fill="url(#img-protection-f)" transform="translate(193 223)">
        <path d="M6.5,-0.5 C6.74545989,-0.5 6.94960837,-0.323124839 6.99194433,-0.0898756324 L7,0 L7,12 C7,12.2761424 6.77614237,12.5 6.5,12.5 C6.25454011,12.5 6.05039163,12.3231248 6.00805567,12.0898756 L6,12 L6,0 C6,-0.276142375 6.22385763,-0.5 6.5,-0.5 Z"/>
        <path d="M6.5,-0.5 C6.74545989,-0.5 6.94960837,-0.323124839 6.99194433,-0.0898756324 L7,0 L7,12 C7,12.2761424 6.77614237,12.5 6.5,12.5 C6.25454011,12.5 6.05039163,12.3231248 6.00805567,12.0898756 L6,12 L6,0 C6,-0.276142375 6.22385763,-0.5 6.5,-0.5 Z" transform="rotate(-90 6.5 6)"/>
      </g>
      <g fill="url(#img-protection-g)" transform="translate(0 190)">
        <path d="M4.5,-0.5 C4.74545989,-0.5 4.94960837,-0.323124839 4.99194433,-0.0898756324 L5,0 L5,8 C5,8.27614237 4.77614237,8.5 4.5,8.5 C4.25454011,8.5 4.05039163,8.32312484 4.00805567,8.08987563 L4,8 L4,0 C4,-0.276142375 4.22385763,-0.5 4.5,-0.5 Z"/>
        <path d="M4.5,-0.5 C4.74545989,-0.5 4.94960837,-0.323124839 4.99194433,-0.0898756324 L5,0 L5,8 C5,8.27614237 4.77614237,8.5 4.5,8.5 C4.25454011,8.5 4.05039163,8.32312484 4.00805567,8.08987563 L4,8 L4,0 C4,-0.276142375 4.22385763,-0.5 4.5,-0.5 Z" transform="rotate(-90 4.5 4)"/>
      </g>
    </g>
  </g>
</svg>
