<svg xmlns="http://www.w3.org/2000/svg" width="227" height="203" viewBox="0 0 227 203">
  <defs>
    <linearGradient id="img-principles-2-a" x1="58.204%" x2="41.796%" y1="100%" y2="0%">
      <stop offset="0%" stop-color="#1E85E9"/>
      <stop offset="20.276%" stop-color="#8671F3"/>
      <stop offset="70.727%" stop-color="#C06CFD" stop-opacity=".99"/>
      <stop offset="100%" stop-color="#FFBEE8"/>
    </linearGradient>
    <linearGradient id="img-principles-2-b" x1="100%" x2="0%" y1="100%" y2="0%">
      <stop offset="0%" stop-color="#1E85E9"/>
      <stop offset="20.276%" stop-color="#8671F3"/>
      <stop offset="70.727%" stop-color="#C06CFD" stop-opacity=".99"/>
      <stop offset="100%" stop-color="#FFBEE8"/>
    </linearGradient>
  </defs>
  <g fill="none" fill-rule="evenodd">
    <path fill="#FAFAFA" d="M207.250452,59.8969854 C207.250452,91.5981085 227,113.36771 227,128.643096 C227,143.918482 216.43898,176 131.923262,176 C47.4075446,176 35,132.841192 35,116.039642 C35,37.3620103 207.250452,3.7543284 207.250452,59.8969854 Z" opacity=".65" transform="rotate(180 131 104)"/>
    <ellipse cx="124" cy="100" stroke="url(#img-principles-2-a)" rx="32" ry="79"/>
    <g transform="translate(106.875 78)">
      <rect width="53.245" height="46.884" x="1.125" y=".413" fill="#FFF" opacity="0"/>
      <g fill="#000" fill-rule="nonzero" transform="translate(.863 .229)">
        <path d="M8.94277345,12.1636508 C8.23815743,12.6424474 7.29208652,12.7528109 6.43879688,12.7528109 C5.12178719,12.7528109 4.00878451,12.182322 4.00878451,10.525575 C4.00878451,8.74034788 5.28871896,8.28003768 6.84681092,8.28003768 C7.60731928,8.28003768 8.34938317,8.40888756 8.94277345,8.53773745 L8.94277345,12.1636508 Z M6.32738483,0.0528709707 C4.43542932,0.0528709707 2.45069254,0.384331287 0.855339019,0.954635289 L0.855339019,3.8259357 C1.76452099,3.58672228 3.73044068,3.07132275 5.58550725,3.07132275 C7.36623701,3.07132275 8.96159054,3.49447538 8.96159054,5.18801021 L8.96159054,6.0346852 C8.27523267,5.83207477 7.18067446,5.66643704 5.99352129,5.66643704 C2.95148785,5.66643704 0.0948306601,6.73439367 0.0948306601,10.7463021 C0.0948306601,14.6484016 3.17393934,15.8080505 6.32738483,15.8080505 C8.64598516,15.8080505 11.0202915,15.0715542 12.70824,13.7466372 L12.70824,5.59286135 C12.70824,1.15724572 9.59205606,0.0528709707 6.32738483,0.0528709707 L6.32738483,0.0528709707 Z" transform="translate(17.38 23)"/>
        <polygon points="3.691 15.916 .334 15.916 .334 19.008 10.833 19.008 10.833 15.916 7.475 15.916 7.475 .051 .093 1.542 .093 4.45 3.691 3.861" transform="translate(18.292 .142)"/>
        <path d="M8.90793488,12.1636508 C8.20313255,12.6422625 7.25706164,12.752626 6.403772,12.752626 C5.08694861,12.752626 3.97394593,12.1821372 3.97394593,10.525575 C3.97394593,8.74034788 5.25369408,8.28022254 6.81197235,8.28022254 C7.57248071,8.28022254 8.31435829,8.40907243 8.90793488,8.53792231 L8.90793488,12.1636508 Z M5.95868272,5.6666219 C2.91664928,5.6666219 0.059992088,6.73420881 0.059992088,10.7464869 C0.059992088,14.6484016 3.13910077,15.8078656 6.29235995,15.8078656 C8.61133289,15.8078656 10.9854529,15.0717391 12.6734014,13.7466372 L12.6734014,5.59286135 C12.6734014,1.15724572 9.55721749,0.0530558342 6.29235995,0.0530558342 C4.40040444,0.0530558342 2.41566766,0.384331287 0.820500447,0.954820152 L0.820500447,3.82612056 C1.72968241,3.58672228 3.69578842,3.07150761 5.55066868,3.07150761 C7.33121213,3.07150761 8.92675196,3.49466024 8.92675196,5.18819508 L8.92675196,6.0346852 C8.24020779,5.83207477 7.14564958,5.6666219 5.95868272,5.6666219 L5.95868272,5.6666219 Z" transform="translate(1.333 3.748)"/>
        <path d="M9.653166,11.4456408 C8.92973289,12.1449796 7.89088071,12.4764399 7.0932971,12.4764399 C5.16445265,12.4764399 4.01418842,11.1877562 4.01418842,8.05894089 C4.01418842,5.35346308 4.88592252,3.31053616 7.89088071,3.31053616 C8.44738205,3.31053616 9.04095863,3.42108456 9.653166,3.66029797 L9.653166,11.4456408 Z M13.4372633,1.70924823 C11.6934225,0.678634033 10.1166998,0.070987597 7.81673021,0.070987597 C2.40039042,0.070987597 0.100420876,3.47617389 0.100420876,8.39040121 C0.155940595,13.2676558 2.71580949,15.8261671 6.24000747,15.8261671 C7.46423589,15.8261671 8.72553956,15.457919 9.653166,14.8872452 L9.653166,23.3907829 L17.0356118,21.9368312 L17.0356118,19.028743 L13.4372633,19.5809304 L13.4372633,1.70924823 Z" transform="translate(.162 22.981)"/>
      </g>
    </g>
    <circle cx="103" cy="40" r="3" fill="#FFF"/>
    <circle cx="103" cy="40" r="3" stroke="url(#img-principles-2-b)"/>
    <path stroke="url(#img-principles-2-a)" stroke-dasharray="4 5" stroke-linecap="round" stroke-linejoin="round" d="M124,179 C141.673112,179 156,143.630495 156,100 C156,56.3695048 141.673112,21 124,21 C106.326888,21 92,56.3695048 92,100 C92,143.630495 106.326888,179 124,179 Z" transform="rotate(60 124 100)"/>
    <ellipse cx="124" cy="100" stroke="#E3E0E0" stroke-linejoin="round" opacity=".75" rx="32" ry="79" transform="rotate(120 124 100)"/>
    <g transform="rotate(-40 139.403 49.505)">
      <circle cx="26.569" cy="82.58" r="3" fill="#FFF"/>
      <circle cx="26.569" cy="82.58" r="3" stroke="url(#img-principles-2-b)"/>
      <circle cx="135.383" cy="125.585" r="3" fill="#FFF"/>
      <circle cx="135.383" cy="125.585" r="3" stroke="url(#img-principles-2-b)"/>
      <g transform="rotate(-90 26.781 26.252)">
        <path stroke="#E3E0E0" stroke-dasharray="2" d="M52.0169026,61.7320508 C52.0169026,33.0132438 28.7357096,9.73205081 0.0169025616,9.73205081" opacity=".649"/>
        <g fill="#5055FE" transform="rotate(-40 19.798 -2.003)">
          <circle cx="8.725" cy="8.791" r="6" opacity=".152" transform="rotate(45 8.725 8.791)"/>
          <circle cx="8.725" cy="8.791" r="2" transform="rotate(45 8.725 8.791)"/>
        </g>
      </g>
    </g>
    <g transform="rotate(-165 94.247 21.086)">
      <path stroke="#E3E0E0" stroke-dasharray="2" d="M52.0169026,52.7320508 C52.0169026,24.0132438 28.7357096,0.732050808 0.0169025616,0.732050808" opacity=".649"/>
      <g fill="#5055FE" transform="rotate(-40 39.803 -28.21)">
        <circle cx="8.725" cy="8.791" r="6" opacity=".152" transform="rotate(45 8.725 8.791)"/>
        <circle cx="8.725" cy="8.791" r="2" transform="rotate(45 8.725 8.791)"/>
      </g>
    </g>
    <g transform="rotate(75 2.606 181.3)">
      <path stroke="#E3E0E0" stroke-dasharray="2" d="M52.0169026,52.7320508 C52.0169026,24.0132438 28.7357096,0.732050808 0.0169025616,0.732050808" opacity=".649"/>
      <g fill="#5055FE" transform="rotate(-40 54.506 -31.824)">
        <circle cx="8.725" cy="8.791" r="6" opacity=".152" transform="rotate(45 8.725 8.791)"/>
        <circle cx="8.725" cy="8.791" r="2" transform="rotate(45 8.725 8.791)"/>
      </g>
    </g>
  </g>
</svg>
