<svg xmlns="http://www.w3.org/2000/svg" xmlns:xlink="http://www.w3.org/1999/xlink" width="454" height="645" viewBox="0 0 454 645">
  <defs>
    <linearGradient id="img-corporate-social-responsibility--a" x1="108.096%" x2="0%" y1="54.992%" y2="45.747%">
      <stop offset="0%" stop-color="#1E85E9"/>
      <stop offset="20.276%" stop-color="#8671F3"/>
      <stop offset="70.727%" stop-color="#CFA9FC"/>
      <stop offset="100%" stop-color="#F4D9FB"/>
    </linearGradient>
    <linearGradient id="img-corporate-social-responsibility--b" x1="108.096%" x2="0%" y1="56.546%" y2="44.424%">
      <stop offset="0%" stop-color="#1E85E9"/>
      <stop offset="20.276%" stop-color="#8671F3"/>
      <stop offset="70.727%" stop-color="#CFA9FC"/>
      <stop offset="100%" stop-color="#F4D9FB"/>
    </linearGradient>
    <linearGradient id="img-corporate-social-responsibility--c" x1="108.096%" x2="0%" y1="53.473%" y2="47.042%">
      <stop offset="0%" stop-color="#1E85E9"/>
      <stop offset="20.276%" stop-color="#8671F3"/>
      <stop offset="70.727%" stop-color="#CFA9FC"/>
      <stop offset="100%" stop-color="#F4D9FB"/>
    </linearGradient>
    <linearGradient id="img-corporate-social-responsibility--d" x1="108.096%" x2="0%" y1="54.883%" y2="45.84%">
      <stop offset="0%" stop-color="#1E85E9"/>
      <stop offset="20.276%" stop-color="#8671F3"/>
      <stop offset="70.727%" stop-color="#CFA9FC"/>
      <stop offset="100%" stop-color="#F4D9FB"/>
    </linearGradient>
    <linearGradient id="img-corporate-social-responsibility--e" x1="108.096%" x2="0%" y1="108.696%" y2="0%">
      <stop offset="0%" stop-color="#1E85E9"/>
      <stop offset="20.276%" stop-color="#8671F3"/>
      <stop offset="70.727%" stop-color="#CFA9FC"/>
      <stop offset="100%" stop-color="#F4D9FB"/>
    </linearGradient>
    <circle id="img-corporate-social-responsibility--g" cx="60.5" cy="59.763" r="35.5"/>
    <filter id="img-corporate-social-responsibility--f" width="128.2%" height="128.2%" x="-14.1%" y="-11.3%" filterUnits="objectBoundingBox">
      <feMorphology in="SourceAlpha" radius="1" result="shadowSpreadOuter1"/>
      <feOffset dy="2" in="shadowSpreadOuter1" result="shadowOffsetOuter1"/>
      <feGaussianBlur in="shadowOffsetOuter1" result="shadowBlurOuter1" stdDeviation="4"/>
      <feColorMatrix in="shadowBlurOuter1" values="0 0 0 0 0.0415817482   0 0 0 0 0.0415817482   0 0 0 0 0.0415817482  0 0 0 0.1 0"/>
    </filter>
    <linearGradient id="img-corporate-social-responsibility--h" x1="100%" x2="0%" y1="91.711%" y2="8.289%">
      <stop offset="0%" stop-color="#1E85E9"/>
      <stop offset="20.276%" stop-color="#8671F3"/>
      <stop offset="70.727%" stop-color="#C06CFD" stop-opacity=".99"/>
      <stop offset="100%" stop-color="#FFBEE8"/>
    </linearGradient>
    <linearGradient id="img-corporate-social-responsibility--i" x1="108.096%" x2="0%" y1="107.73%" y2=".823%">
      <stop offset="0%" stop-color="#1E85E9"/>
      <stop offset="20.276%" stop-color="#8671F3"/>
      <stop offset="70.727%" stop-color="#CFA9FC"/>
      <stop offset="100%" stop-color="#F4D9FB"/>
    </linearGradient>
    <circle id="img-corporate-social-responsibility--k" cx="60.64" cy="59.64" r="35.64"/>
    <filter id="img-corporate-social-responsibility--j" width="128.1%" height="128.1%" x="-14%" y="-11.2%" filterUnits="objectBoundingBox">
      <feMorphology in="SourceAlpha" radius="1" result="shadowSpreadOuter1"/>
      <feOffset dy="2" in="shadowSpreadOuter1" result="shadowOffsetOuter1"/>
      <feGaussianBlur in="shadowOffsetOuter1" result="shadowBlurOuter1" stdDeviation="4"/>
      <feColorMatrix in="shadowBlurOuter1" values="0 0 0 0 0.0415817482   0 0 0 0 0.0415817482   0 0 0 0 0.0415817482  0 0 0 0.1 0"/>
    </filter>
    <linearGradient id="img-corporate-social-responsibility--l" x1="100%" x2="0%" y1="75.647%" y2="24.353%">
      <stop offset="0%" stop-color="#1E85E9"/>
      <stop offset="20.276%" stop-color="#8671F3"/>
      <stop offset="70.727%" stop-color="#C06CFD" stop-opacity=".99"/>
      <stop offset="100%" stop-color="#FFBEE8"/>
    </linearGradient>
    <circle id="img-corporate-social-responsibility--n" cx="60.64" cy="59.403" r="35.64"/>
    <filter id="img-corporate-social-responsibility--m" width="128.1%" height="128.1%" x="-14%" y="-11.2%" filterUnits="objectBoundingBox">
      <feMorphology in="SourceAlpha" radius="1" result="shadowSpreadOuter1"/>
      <feOffset dy="2" in="shadowSpreadOuter1" result="shadowOffsetOuter1"/>
      <feGaussianBlur in="shadowOffsetOuter1" result="shadowBlurOuter1" stdDeviation="4"/>
      <feColorMatrix in="shadowBlurOuter1" values="0 0 0 0 0.0415817482   0 0 0 0 0.0415817482   0 0 0 0 0.0415817482  0 0 0 0.1 0"/>
    </filter>
    <linearGradient id="img-corporate-social-responsibility--o" x1="100%" x2="0%" y1="88.613%" y2="11.387%">
      <stop offset="0%" stop-color="#1E85E9"/>
      <stop offset="20.276%" stop-color="#8671F3"/>
      <stop offset="70.727%" stop-color="#C06CFD" stop-opacity=".99"/>
      <stop offset="100%" stop-color="#FFBEE8"/>
    </linearGradient>
    <circle id="img-corporate-social-responsibility--q" cx="60.64" cy="59.903" r="35.64"/>
    <filter id="img-corporate-social-responsibility--p" width="128.1%" height="128.1%" x="-14%" y="-11.2%" filterUnits="objectBoundingBox">
      <feMorphology in="SourceAlpha" radius="1" result="shadowSpreadOuter1"/>
      <feOffset dy="2" in="shadowSpreadOuter1" result="shadowOffsetOuter1"/>
      <feGaussianBlur in="shadowOffsetOuter1" result="shadowBlurOuter1" stdDeviation="4"/>
      <feColorMatrix in="shadowBlurOuter1" values="0 0 0 0 0.0415817482   0 0 0 0 0.0415817482   0 0 0 0 0.0415817482  0 0 0 0.1 0"/>
    </filter>
    <linearGradient id="img-corporate-social-responsibility--r" x1="100%" x2="0%" y1="95.457%" y2="4.543%">
      <stop offset="0%" stop-color="#1E85E9"/>
      <stop offset="20.276%" stop-color="#8671F3"/>
      <stop offset="70.727%" stop-color="#C06CFD" stop-opacity=".99"/>
      <stop offset="100%" stop-color="#FFBEE8"/>
    </linearGradient>
    <circle id="img-corporate-social-responsibility--t" cx="60.5" cy="59.5" r="35.5"/>
    <filter id="img-corporate-social-responsibility--s" width="128.2%" height="128.2%" x="-14.1%" y="-11.3%" filterUnits="objectBoundingBox">
      <feMorphology in="SourceAlpha" radius="1" result="shadowSpreadOuter1"/>
      <feOffset dy="2" in="shadowSpreadOuter1" result="shadowOffsetOuter1"/>
      <feGaussianBlur in="shadowOffsetOuter1" result="shadowBlurOuter1" stdDeviation="4"/>
      <feColorMatrix in="shadowBlurOuter1" values="0 0 0 0 0.0415817482   0 0 0 0 0.0415817482   0 0 0 0 0.0415817482  0 0 0 0.1 0"/>
    </filter>
    <linearGradient id="img-corporate-social-responsibility--u" x1="90.845%" x2="9.155%" y1="100%" y2="0%">
      <stop offset="0%" stop-color="#1E85E9"/>
      <stop offset="20.276%" stop-color="#8671F3"/>
      <stop offset="70.727%" stop-color="#C06CFD" stop-opacity=".99"/>
      <stop offset="100%" stop-color="#FFBEE8"/>
    </linearGradient>
  </defs>
  <g fill="none" fill-rule="evenodd">
    <g transform="translate(0 .737)">
      <g fill-rule="nonzero" transform="translate(.509 4.474)">
        <path fill="url(#img-corporate-social-responsibility--a)" d="M64.5652722,105.234598 L64.7270399,105.707706 C25.5306017,119.109961 3.25,136.960712 3.25,155.896141 C3.25,189.562517 73.8496084,218.656874 172.005541,226.247683 C187.362086,227.435268 203.147725,228.073014 219.170103,228.14021 L222,228.146141 L222,228.646141 C204.993531,228.646141 188.23974,228.004634 171.966989,226.746194 C73.5524199,219.135384 2.75,189.957448 2.75,155.896141 C2.75,136.674277 25.185251,118.699625 64.5652722,105.234598 Z M365.124377,100.759628 C413.111999,114.476926 441.25,134.385347 441.25,155.896141 C441.25,167.122806 432.766335,178.296787 417.245609,188.576793 L416.707625,188.93092 L416.433897,188.512503 C420.725517,185.70493 424.484889,182.832081 427.683119,179.912206 L428.470969,179.181268 C436.490942,171.61834 440.75,163.751737 440.75,155.896141 C440.75,134.904984 413.333474,115.297115 366.414699,101.65203 L364.986956,101.240372 L365.124377,100.759628 Z" transform="rotate(30 222 164.703)"/>
        <path fill="url(#img-corporate-social-responsibility--b)" d="M180.229028,498.421799 C194.291826,499.417001 208.694268,499.953834 223.291859,500.017051 L226.213936,500.023375 L226.213936,500.523375 C211.522577,500.523375 197.018159,500.044646 182.846903,499.102609 L180.193732,498.920552 L180.229028,498.421799 Z M10.2325703,439.00373 C20.9026125,461.919882 64.4556611,481.616902 126.486559,492.103086 L128.371924,492.418023 L128.290501,492.911349 C65.7359931,482.586801 21.5416376,462.960824 10.1154975,439.914203 L9.77929575,439.21478 L10.2325703,439.00373 Z M369.602654,372.712545 C417.433173,386.428824 445.463936,406.303321 445.463936,427.773375 C445.463936,439.658163 437.212668,451.388723 421.954837,461.329319 L421.419747,461.675355 L421.149648,461.254586 C436.61986,451.323996 444.963936,439.599637 444.963936,427.773375 C444.963936,406.822194 417.652355,387.248103 370.887876,373.604786 L369.464825,373.193173 L369.602654,372.712545 Z M226.213936,355.023375 C244.649516,355.023375 262.784109,355.777258 280.323668,357.252346 L282.71171,357.457961 L282.667825,357.956031 C264.402875,356.346713 245.472925,355.523375 226.213936,355.523375 C211.181448,355.523375 196.345473,356.024967 181.863278,357.011464 L179.152051,357.202111 L179.115885,356.703421 C194.467656,355.590059 210.229894,355.023375 226.213936,355.023375 Z" transform="rotate(30 227.622 427.773)"/>
        <path fill="url(#img-corporate-social-responsibility--c)" d="M128.459316,246.540602 C155.82679,242.998929 181.958362,245.082899 214.062571,252.134169 L219.137565,253.267614 L221.962782,253.913929 L223.629717,254.303901 L226.723352,255.047869 L231.19528,256.164985 L236.416437,257.508814 L252.753398,261.804894 L261.999896,264.250243 L265.940246,265.285145 L271.551366,266.742067 L275.979081,267.874163 L280.206584,268.937015 L284.257727,269.9356 L285.834146,270.318153 L288.919887,271.056074 L290.432262,271.412078 L293.403652,272.099767 L294.86572,272.432087 L297.033582,272.91706 L299.884965,273.540147 L302.000856,273.991198 L304.103059,274.429502 L306.196727,274.856134 L307.640975,275.144643 C310.288321,275.669155 312.936091,276.169951 315.631402,276.656859 C336.424111,280.41306 356.275245,282.418594 376.638724,282.533317 L378.491401,282.538534 L378.491401,283.038534 C357.446064,283.038534 336.993345,281.023985 315.542516,277.148894 C313.335096,276.750124 311.159601,276.342064 308.990207,275.919329 L306.84639,275.496395 L305.449349,275.21519 L303.349184,274.784152 L301.238897,274.34108 L298.400492,273.72973 L296.246464,273.254379 L293.330957,272.596074 L290.354528,271.90742 L288.074847,271.369475 L286.529634,271.000028 L282.566431,270.036222 L278.440962,269.011005 L275.007659,268.143259 L271.442911,267.230455 L266.783445,266.022189 L260.861955,264.467026 L237.486269,258.303972 L230.785378,256.576799 L225.574572,255.282953 L223.230071,254.723407 L220.35805,254.05777 L215.954794,253.065924 L215.258702,252.910796 C182.607936,245.639924 156.195795,243.455344 128.523487,247.036467 C72.5278419,254.282962 41.0228474,281.065881 33.9459328,327.412956 L33.738958,328.823401 L33.2438447,328.753667 C39.9272544,281.301458 71.68724,253.887576 128.459316,246.540602 Z"/>
        <path fill="url(#img-corporate-social-responsibility--d)" d="M135.386286,513.561706 C141.667791,510.650765 149.44805,509.456506 159.139477,509.827474 L160.335762,509.880711 L161.551319,509.949532 C162.368152,510.000594 163.197945,510.062004 164.040923,510.133679 L165.315305,510.248881 L166.609633,510.37942 C166.827026,510.402452 167.045256,510.426119 167.264329,510.450422 L168.588889,510.60385 L169.933816,510.772461 C170.159677,510.801824 170.386393,510.831818 170.613969,510.86244 L171.989759,511.053708 C172.220785,511.086841 172.452677,511.120599 172.685439,511.154982 L174.092472,511.368769 L175.520543,511.597491 C175.760318,511.636852 176.000976,511.676833 176.242521,511.717433 L177.702467,511.968442 C177.947574,512.01151 178.193576,512.055194 178.440476,512.099493 L179.932673,512.372649 L181.446583,512.660494 L182.982372,512.962964 L184.410535,513.25319 L185.725774,513.527523 L187.057082,513.811799 L189.087092,514.257465 L190.464409,514.567818 L192.569686,515.053908 L194.726128,515.565506 L196.938237,516.103556 L199.210517,516.668996 L201.547471,517.26277 L203.9536,517.885819 L205.598342,518.317913 L208.129772,518.991844 L210.742387,519.697559 L214.359942,520.689583 L218.196034,521.75986 L252.862682,531.663047 L256.010098,532.549044 L260.656737,533.842252 L263.706112,534.680605 L266.717797,535.499987 L269.692666,536.300447 L272.63159,537.082035 L275.535442,537.844799 C276.016543,537.970361 276.496219,538.09514 276.974488,538.219138 L279.827368,538.95376 C280.300082,539.074638 280.771427,539.194736 281.241418,539.314056 L284.045288,540.020646 L286.817575,540.708611 C287.277039,540.821722 287.735224,540.93406 288.192148,541.045624 L290.918697,541.705742 L293.615844,542.347357 C294.062967,542.452754 294.508901,542.557382 294.953665,542.661242 L297.608346,543.275195 C298.0485,543.375988 298.48752,543.476015 298.925424,543.575277 L301.539601,544.161679 C301.973114,544.257886 302.405547,544.353331 302.836918,544.448013 L305.412555,545.006976 C307.548546,545.465175 309.658909,545.904383 311.745915,546.324727 L314.239257,546.820095 C314.652994,546.90115 315.065833,546.981453 315.477793,547.061004 L317.939137,547.529301 C319.164676,547.75895 320.382625,547.981854 321.593474,548.198041 L324.005851,548.621468 C330.013855,549.657688 335.852545,550.526453 341.583263,551.231229 L343.869937,551.504401 C355.275967,552.826615 366.282823,553.49472 377.381237,553.536448 L378.491401,553.538534 L378.491401,554.038534 C365.515333,554.038534 352.688631,553.186335 339.231003,551.438025 L336.917655,551.129528 C332.278015,550.494946 327.558968,549.75473 322.729065,548.90711 L320.30473,548.474342 C319.899086,548.400719 319.492636,548.326349 319.085361,548.25123 L316.631675,547.791519 L314.157328,547.313784 C313.743166,547.232657 313.328108,547.150777 312.912134,547.068142 L310.405159,546.56328 C309.565742,546.391971 308.722518,546.217638 307.875341,546.040272 L305.321805,545.499068 L302.743679,544.939619 C302.311893,544.844855 301.879047,544.749328 301.445121,544.653038 L298.82847,544.06613 L296.185044,543.460855 C295.299343,543.25603 294.409033,543.048135 293.51397,542.837163 L290.814374,542.195005 L288.085382,541.534332 C287.628052,541.422674 287.169461,541.310243 286.70959,541.197037 L283.934867,540.508499 C283.004745,540.275883 282.069359,540.04016 281.128565,539.801323 L278.28981,539.075461 C277.813931,538.952923 277.336663,538.829606 276.857989,538.705506 L273.968916,537.95152 L271.045207,537.178725 L268.085986,536.38707 L265.090382,535.576507 C264.588034,535.439835 264.084134,535.302372 263.578663,535.164119 L260.526845,534.325101 L257.436459,533.467052 L250.653945,531.554025 L218.653261,522.408463 L216.095085,521.689793 L212.400329,520.668661 L209.733325,519.941838 L206.307523,519.022986 L203.020757,518.159516 L200.640514,517.546916 L199.091585,517.154663 L196.821709,516.589804 L195.342194,516.228507 L193.170197,515.708777 L191.050933,515.214871 L188.979907,514.745848 L186.952623,514.300769 L185.623182,514.016886 L184.309852,513.742949 L182.886052,513.453604 L181.357038,513.152451 L179.849894,512.865856 L178.364453,512.593879 L176.90055,512.336579 C176.658352,512.294922 176.417045,512.253879 176.176624,512.213451 L174.744718,511.978276 L173.333937,511.757924 L171.944114,511.552455 L170.575085,511.361927 L169.226683,511.186398 L167.898744,511.025929 L166.591101,510.880576 C166.158585,510.834652 165.729423,510.791257 165.303589,510.750401 L164.036043,510.63546 C163.197631,510.563924 162.372419,510.502584 161.560186,510.451519 L160.351543,510.382636 C150.160354,509.862797 142.061172,511.019546 135.596517,514.015362 C108.666062,526.495328 101.574928,550.658957 114.333646,586.610063 L114.72635,587.703098 L114.256453,587.87397 C100.882439,551.095432 107.922098,526.289013 135.386286,513.561706 Z"/>
      </g>
      <g transform="translate(115 523.263)">
        <path fill="url(#img-corporate-social-responsibility--e)" fill-rule="nonzero" d="M60,0 C26.862915,0 0,26.862915 0,60 C0,93.137085 26.862915,120 60,120 C93.137085,120 120,93.137085 120,60 C120,26.862915 93.137085,0 60,0 Z M60,11 C87.0619527,11 109,32.9380473 109,60 C109,87.0619527 87.0619527,109 60,109 C32.9380473,109 11,87.0619527 11,60 C11,32.9380473 32.9380473,11 60,11 Z"/>
        <use fill="#000" filter="url(#img-corporate-social-responsibility--f)" xlink:href="#img-corporate-social-responsibility--g"/>
        <use fill="#FFF" xlink:href="#img-corporate-social-responsibility--g"/>
        <path fill="url(#img-corporate-social-responsibility--h)" fill-rule="nonzero" d="M42.3865466,15.6826827 L42.4389478,15.7605739 L48.4389478,26.7605739 C48.4995373,26.8716548 48.515223,27.0004297 48.4851385,27.1210227 L48.4539797,27.2095291 L42.4539797,40.2095291 C42.383928,40.3613078 42.2437128,40.4663016 42.0822661,40.4932024 L42,40.5 L32.5,40.5 L32.5,43 C32.5,43.4504745 31.9623763,43.6578371 31.6576184,43.3652578 L31.6,43.3 L25.6,35.3 C25.4857143,35.147619 25.4693878,34.9462585 25.5510204,34.7798834 L25.6,34.7 L31.6,26.7 C31.8702847,26.3396204 32.4248012,26.4963046 32.49306,26.9132227 L32.5,27 L32.5,29.465 L38.454,29.068 L33.5760008,21.2649995 C33.4459074,21.0568499 33.4876987,20.7899887 33.6630556,20.630466 L33.7350005,20.5760008 L41.7350005,15.5760008 C41.9519256,15.4404227 42.2305274,15.4920874 42.3865466,15.6826827 Z M31.5,28.5 L26.625,35 L31.5,41.5 L31.5,40 C31.5,39.7545401 31.6768752,39.5503916 31.9101244,39.5080557 L32,39.5 L41.68,39.5 L46.273,29.549 L32.0332595,30.4988926 C31.7735272,30.5162081 31.5493728,30.3325307 31.5071393,30.0847718 L31.5,30 L31.5,28.5 Z M14.1523552,16.9456064 L14.1970464,17.0279656 L18.1252496,26.2241181 C18.3022052,26.6383813 17.8892545,27.0402646 17.4940634,26.8909193 L17.415442,26.8535409 L15.2806894,25.6210409 L12.6475015,30.9758562 L21.8440977,30.6528853 C22.0894073,30.6442958 22.2996202,30.8139188 22.3500924,31.0455436 L22.3612882,31.1350823 L22.6914152,40.5632856 C22.7003668,40.8189373 22.516323,41.0343812 22.273253,41.0742001 L22.1795966,41.0806352 L9.65331718,40.7767876 C9.5268236,40.7737193 9.40745837,40.7229161 9.31806399,40.6365656 L9.25699466,40.5653281 L0.99866441,28.8691757 C0.902246021,28.7326197 0.881426281,28.5586929 0.938852944,28.4054256 L0.974099068,28.3307823 L5.72409907,20.1035409 L3.55903556,18.8535409 C3.16891319,18.6283037 3.2581438,18.0590266 3.66390379,17.9413881 L3.74922794,17.9241181 L13.6774312,16.7279656 C13.8665398,16.7051818 14.0490864,16.7917229 14.1523552,16.9456064 Z M21.3807624,31.6694045 L12.4508879,31.9823998 C12.3588968,31.9856209 12.2718412,31.9637808 12.1962941,31.9230079 L12.1852572,31.9144867 L8.97841353,38.4369029 L9.92935356,39.7838265 L21.6745396,40.0685676 L21.3807624,31.6694045 Z M13.4247388,17.7656417 L5.35807366,18.7375155 L6.65711177,19.4875155 C6.86968627,19.6102455 6.95804646,19.8654981 6.87808587,20.0886658 L6.84012447,20.1705282 L2.00012447,28.5536541 L8.32144326,37.5068088 L14.6186824,24.6998855 C14.7335529,24.466293 15.0046994,24.3640083 15.2403816,24.4513124 L15.3173658,24.4875155 L16.6164039,25.2375155 L13.4247388,17.7656417 Z M41.815,16.704 L34.688,21.158 L39.4239992,28.7350005 C39.4727842,28.8130566 39.497398,28.899369 39.4998611,28.9851812 L39.498,28.999 L46.75,28.515 L47.441,27.018 L41.815,16.704 Z M32.4007824,0.0315947819 C32.5679458,0.0309387394 32.72236,0.113644501 32.8149706,0.248596186 L32.8558985,0.3202818 L36.870772,8.93020578 L39.1365415,7.87366012 C39.5448101,7.68328137 39.959954,8.08289872 39.8235834,8.48275249 L39.7887903,8.56255165 L35.0740375,17.3813445 C34.9842327,17.5493215 34.808638,17.649217 34.6233515,17.6455458 L34.5302529,17.6349154 L24.744081,15.5780148 C24.3032389,15.4853567 24.2108942,14.9165764 24.5599029,14.6785158 L24.6356169,14.6355523 L26.8696656,13.5937983 L23.9935923,8.36542118 L18.9832037,16.0840803 C18.849536,16.2899529 18.5900158,16.3648575 18.3713301,16.2733473 L18.2915627,16.2311611 L10.3790776,11.0937901 C10.1645256,10.954487 10.0936075,10.6801535 10.200409,10.4582031 L10.2488567,10.3777932 L17.6825328,0.291145642 C17.7576,0.189288087 17.8676806,0.120649364 17.9896893,0.0969503697 L18.0830716,0.0877854623 L32.4007824,0.0315947819 Z M32.0848286,1.03291855 L21.1250741,1.07572121 L28.0039436,13.579867 C28.1294043,13.8079465 28.0576678,14.0887248 27.8509707,14.2317088 L27.7771585,14.2740053 L26.4176968,14.9079327 L34.3689615,16.5791645 L38.1996981,9.4138953 L36.8402364,10.0478227 C36.6177742,10.1515585 36.3580022,10.0775321 36.2210574,9.88402845 L36.1757734,9.80597793 L32.0848286,1.03291855 Z M19.986363,1.08039968 L18.337591,1.08680054 L11.3675828,10.5445729 L18.4162781,15.1214868 L23.2818529,7.62703505 C23.3319783,7.54983285 23.3998017,7.49104801 23.476533,7.45254981 L23.4898436,7.44839651 L19.986363,1.08039968 Z" transform="translate(36 39)"/>
      </g>
      <g transform="translate(111 .411)">
        <path fill="url(#img-corporate-social-responsibility--i)" fill-rule="nonzero" d="M60.5,0 C27.0867726,0 0,26.862915 0,60 C0,93.137085 27.0867726,120 60.5,120 C93.9132274,120 121,93.137085 121,60 C121,26.862915 93.9132274,0 60.5,0 Z M60.5199997,12.5890429 C86.7645709,12.5890429 108.039999,33.8644715 108.039999,60.1090427 C108.039999,86.3536139 86.7645709,107.629042 60.5199997,107.629042 C34.2754286,107.629042 13,86.3536139 13,60.1090427 C13,33.8644715 34.2754286,12.5890429 60.5199997,12.5890429 Z"/>
        <use fill="#000" filter="url(#img-corporate-social-responsibility--j)" xlink:href="#img-corporate-social-responsibility--k"/>
        <use fill="#FFF" xlink:href="#img-corporate-social-responsibility--k"/>
        <path fill="url(#img-corporate-social-responsibility--l)" fill-rule="nonzero" d="M73.421978,59.3226731 L75.4165049,59.4878567 C78.9258159,59.7999365 81.6110751,60.45095 82.2862478,66.1071758 C84.0818068,66.2530884 85.5,67.6829484 85.5,69.4374626 C85.5,70.1559946 85.2606684,70.8451097 84.816429,71.4181788 L84.816429,71.4181788 L84.7462658,71.5087218 L84.609127,71.6611257 C84.5263131,71.7495474 84.4407115,71.8316884 84.3571545,71.9031891 L84.3571545,71.9031891 L80.0001661,76.3037347 L77.9425208,74.2501072 C76.8010582,74.4086007 75.496765,74.4298945 74.0945055,74.4298945 L72.5076923,74.4260455 L61.729304,74.4270434 L60.1759429,74.4287569 C56.6301768,74.4111321 53.7858062,74.1592412 52.7477633,71.6984049 L51.6994505,71.6963901 L42.0429978,71.6978973 C38.5846478,71.6769257 36,71.3483329 36,67.6555177 C36,59.9487728 39.0835165,60.3083769 43.0214286,59.9487728 C43.0521978,61.3596966 45.1412088,62.4984429 47.7153846,62.4984429 C50.2895604,62.4984429 52.3774725,61.3591467 52.4098901,59.9487728 L53.7090761,60.0557906 C54.3954611,60.1130673 55.0441278,60.1799165 55.6411314,60.3114466 C56.7438997,59.7680708 58.06887,59.5983173 59.5316396,59.4730658 L59.8859463,59.4436389 C60.3617804,59.4050929 60.8510853,59.3683992 61.3510989,59.3226731 C61.3906593,61.1366394 64.0769231,62.6003491 67.3857143,62.6003491 C70.6956044,62.6003491 73.3813187,61.1366394 73.421978,59.3226731 Z M81.9834711,67.0952171 C81.6411391,67.0952171 81.1953184,67.3515068 80.7009126,67.8770372 L80.7009126,67.8770372 L80.0001598,68.6219049 L79.2993114,67.8771241 C78.8046866,67.3514939 78.3588599,67.0952171 78.0165289,67.0952171 C76.6197618,67.0952171 75.5,68.1512795 75.5,69.4374626 C75.5,69.9545344 75.6797009,70.4486916 76.0152229,70.857636 L76.0152229,70.857636 L76.0662155,70.9197874 L76.123,71.0232171 L79.995,74.8862171 L83.6489898,71.196228 L83.7878453,71.0696648 C83.8518411,71.0082461 83.9142319,70.9415672 83.9785389,70.8655834 L83.9785389,70.8655834 L83.996,70.8462171 L84.0078781,70.8290023 L84.026088,70.8055115 C84.3353917,70.4065096 84.5,69.9325477 84.5,69.4374626 C84.5,68.1512795 83.3802382,67.0952171 81.9834711,67.0952171 Z M74.203,60.3912171 L74.1552578,60.5076176 C73.3078336,62.3806405 70.5491504,63.6003491 67.3857143,63.6003491 C64.2226729,63.6003491 61.4638045,62.3803511 60.6172011,60.507121 L60.569,60.3912171 L60.2093626,60.4209156 C57.2950279,60.6528713 56.1790186,60.9201823 55.2262141,61.7887926 C53.9836451,62.9215624 53.3236264,65.1928273 53.3236264,69.2315807 C53.3236264,72.5887706 54.776177,73.373348 60.0531341,73.4268597 L74.0945055,73.4298945 C75.2252329,73.4298945 76.1948738,73.4027659 77.0232242,73.3331431 L75.2682776,71.5827479 L75.233,71.4802171 L75.1044461,71.3121744 C74.7551135,70.8228418 74.5492296,70.2556983 74.5077904,69.6614691 L74.5077904,69.6614691 L74.5,69.4374626 C74.5,67.5854754 76.0801474,66.0952171 78.0165289,66.0952171 C78.6846431,66.0952171 79.3621127,66.4846504 80.0275708,67.1918225 L79.999,67.1629986 L80.139121,67.0217056 C80.5223647,66.6461908 80.9090633,66.377473 81.2951124,66.2291725 C81.0332364,64.0042377 80.4403902,62.6016637 79.5465124,61.7874391 C78.6281905,60.9509486 77.5587063,60.6722939 74.8768117,60.4461816 L74.203,60.3912171 Z M53.158,61.0142171 L53.1071238,61.1189701 C52.3321969,62.5797107 50.1664489,63.4984429 47.7153846,63.4984429 C45.2633774,63.4984429 43.0969479,62.5796512 42.3230782,61.1183204 L42.272,61.0142171 L41.7018963,61.0632674 C37.9140538,61.4212651 37.0322624,62.3522217 37.0008818,67.3670686 L37,67.6555177 C37,70.1402401 38.0566111,70.6758024 42.2108346,70.6983782 L43.3656681,70.6969578 L52.097,70.6962171 L52.0943897,70.6428691 L52.0873626,70.2316923 C52.0869209,66.2738344 52.6647161,63.4165882 53.9579739,61.3564689 L54.127,61.0972171 L53.5210388,61.0438459 L53.158,61.0142171 Z M47.7159341,45.5827537 C51.2785714,45.5827537 54.1648352,48.4722332 54.1648352,52.0363828 C54.1648352,55.5994326 51.2785714,60.9594033 47.7159341,60.9594033 C44.1549451,60.9594033 41.2675824,55.5999825 41.2681319,52.0363828 C41.2681319,48.4716834 44.1549451,45.5827537 47.7159341,45.5827537 Z M67.3868132,40.8519986 C71.9664835,40.8519986 75.678022,44.566808 75.6774725,49.149286 C75.6774725,51.5845866 74.628022,54.673113 72.9571429,57.031984 C72.4269231,57.7808842 71.8335165,58.4528051 71.1912088,59.0103564 C70.7164835,59.4221966 70.2164835,59.769154 69.6945055,60.0341834 C68.9615385,60.4064341 68.1873626,60.6214268 67.3862637,60.6214268 C66.5857143,60.6214268 65.8131868,60.4075338 65.0813187,60.0358329 C64.5582418,59.7697039 64.0565934,59.4221966 63.5818681,59.0098065 C62.9401099,58.4522552 62.3461538,57.7803344 61.8159341,57.031984 C60.1450549,54.673113 59.0961538,51.5851364 59.0961538,49.149286 C59.0961538,44.566808 62.8076923,40.8519986 67.3868132,40.8519986 Z M47.7159341,46.5827537 C44.7072504,46.5827537 42.2681319,49.0239478 42.2681319,52.036537 C42.2675847,55.5854749 45.1264337,59.9594033 47.7159341,59.9594033 C50.3064269,59.9594033 53.1648352,55.5859808 53.1648352,52.0363828 C53.1648352,49.0239478 50.7257167,46.5827537 47.7159341,46.5827537 Z M67.3868132,41.8519986 C63.3602665,41.8519986 60.0961538,45.1188034 60.0961538,49.149286 C60.0961538,51.3868892 61.0880744,54.2743814 62.6318875,56.4538663 C63.1261657,57.1514889 63.6683051,57.7602166 64.2376714,58.2548747 C64.6615056,58.6230561 65.0961538,58.9213954 65.5341438,59.1442336 C66.157661,59.4609052 66.7755582,59.6214268 67.3862637,59.6214268 C67.9968085,59.6214268 68.6162928,59.4601986 69.241779,59.1425339 C69.6775608,58.9212699 70.1104852,58.624057 70.5356845,58.2551823 C71.1047646,57.7611957 71.6462523,57.152932 72.1411204,56.4539638 C73.6851138,54.2742242 74.6774725,51.386154 74.6774725,49.1491661 C74.6779558,45.1187571 71.4138894,41.8519986 67.3868132,41.8519986 Z"/>
      </g>
      <g transform="translate(259 131.263)">
        <path fill="url(#img-corporate-social-responsibility--i)" fill-rule="nonzero" d="M60.5,0.762955667 C27.0867726,0.762955667 0,27.6258707 0,60.7629557 C0,93.9000407 27.0867726,120.762956 60.5,120.762956 C93.9132274,120.762956 121,93.9000407 121,60.7629557 C121,27.6258707 93.9132274,0.762955667 60.5,0.762955667 Z M60,13.2629557 C86.509668,13.2629557 108,34.7532877 108,61.2629557 C108,87.7726237 86.509668,109.262956 60,109.262956 C33.490332,109.262956 12,87.7726237 12,61.2629557 C12,34.7532877 33.490332,13.2629557 60,13.2629557 Z"/>
        <use fill="#000" filter="url(#img-corporate-social-responsibility--m)" xlink:href="#img-corporate-social-responsibility--n"/>
        <use fill="#FFF" xlink:href="#img-corporate-social-responsibility--n"/>
        <path fill="url(#img-corporate-social-responsibility--o)" fill-rule="nonzero" d="M21,-0.5 C21.8284271,-0.5 22.5,0.171572875 22.5,1 L22.5,3.5 L31,3.5 C31.7796961,3.5 32.4204487,4.09488808 32.4931334,4.85553999 L32.5,5 L32.5,27 C32.5,27.8284271 31.8284271,28.5 31,28.5 L31,28.5 L1,28.5 C0.171572875,28.5 -0.5,27.8284271 -0.5,27 L-0.5,27 L-0.5,5 C-0.5,4.17157288 0.171572875,3.5 1,3.5 L1,3.5 L9.5,3.5 L9.5,1 C9.5,0.171572875 10.1715729,-0.5 11,-0.5 L21,-0.5 Z M20.2435553,16.5010919 C20.0716415,16.9870798 19.8186074,17.43473 19.5007255,17.8277704 L19.5,23 C19.5,23.3708229 19.1162383,23.6026932 18.7953753,23.4565657 L18.7226499,23.4160251 L16,21.601 L13.2773501,23.4160251 C12.9688068,23.6217207 12.5630063,23.4310302 12.506609,23.0829991 L12.5,23 L12.5000977,17.8287879 C12.1818294,17.4355027 11.9285069,16.9874992 11.7564447,16.5010919 L0.5,16.5 L0.5,27 C0.5,27.2454599 0.676875161,27.4496084 0.910124368,27.4919443 L1,27.5 L31,27.5 C31.2761424,27.5 31.5,27.2761424 31.5,27 L31.5,27 L31.5,16.5 Z M18.5005166,18.7418796 C17.7853652,19.2207297 16.9252961,19.5 16,19.5 C15.0751422,19.5 14.2154497,19.2209942 13.5004998,18.74256 L13.5,22.064 L15.7226499,20.5839749 C15.862608,20.4906695 16.0378793,20.4751186 16.1896085,20.5373222 L16.2773501,20.5839749 L18.5,22.065 Z M16,11.5 C14.0670034,11.5 12.5,13.0670034 12.5,15 C12.5,15.7440296 12.7321604,16.4338351 13.1279917,17.0009273 L13.5,17 L13.4997261,17.4492118 C14.135004,18.0976508 15.0205151,18.5 16,18.5 C16.9799843,18.5 17.8658991,18.0972403 18.5012456,17.4482196 L18.5,17 L18.8720083,17.0009273 C19.2678396,16.4338351 19.5,15.7440296 19.5,15 C19.5,13.0670034 17.9329966,11.5 16,11.5 Z M31,4.5 L1,4.5 C0.723857625,4.5 0.5,4.72385763 0.5,5 L0.5,5 L0.5,15.5 L11.5275426,15.5007074 C11.516979,15.4052846 11.5093989,15.3089623 11.504898,15.2118357 L11.5,15 C11.5,12.5147186 13.5147186,10.5 16,10.5 C18.4852814,10.5 20.5,12.5147186 20.5,15 C20.5,15.1692473 20.4906566,15.3363124 20.4724574,15.5007074 L31.5,15.5 L31.5,5 C31.5,4.75454011 31.3231248,4.55039163 31.0898756,4.50805567 L31,4.5 Z M21,0.5 L11,0.5 L10.9101244,0.508055669 C10.6768752,0.55039163 10.5,0.754540111 10.5,1 L10.5,3.5 L21.5,3.5 L21.5,1 C21.5,0.723857625 21.2761424,0.5 21,0.5 Z" transform="translate(45 47)"/>
      </g>
      <g transform="translate(259 392.263)">
        <path fill="url(#img-corporate-social-responsibility--e)" fill-rule="nonzero" d="M60,0.262955667 C26.862915,0.262955667 0,27.1258707 0,60.2629557 C0,93.4000407 26.862915,120.262956 60,120.262956 C93.137085,120.262956 120,93.4000407 120,60.2629557 C120,27.1258707 93.137085,0.262955667 60,0.262955667 Z M60,11.2629557 C87.0619527,11.2629557 109,33.2010029 109,60.2629557 C109,87.3249084 87.0619527,109.262956 60,109.262956 C32.9380473,109.262956 11,87.3249084 11,60.2629557 C11,33.2010029 32.9380473,11.2629557 60,11.2629557 Z"/>
        <use fill="#000" filter="url(#img-corporate-social-responsibility--p)" xlink:href="#img-corporate-social-responsibility--q"/>
        <use fill="#FFF" xlink:href="#img-corporate-social-responsibility--q"/>
        <path fill="url(#img-corporate-social-responsibility--r)" fill-rule="nonzero" d="M21,-0.5 C26.2467051,-0.5 30.5,3.75329488 30.5,9 C30.5,14.0792356 26.5138935,18.2274662 21.4992662,18.487106 L21.499867,22.661 L26.0789876,24.4923031 C27.8116921,22.6502558 30.2715177,21.5 33,21.5 C38.2467051,21.5 42.5,25.7532949 42.5,31 C42.5,36.2467051 38.2467051,40.5 33,40.5 C27.7532949,40.5 23.5,36.2467051 23.5,31 C23.5,28.8607451 24.2070942,26.8866409 25.4003142,25.2986556 L21,23.538 L16.5996858,25.2986556 C17.7424494,26.8194914 18.4393305,28.6944818 18.4962236,30.7295213 L18.5,31 C18.5,36.2467051 14.2467051,40.5 9,40.5 C3.75329488,40.5 -0.5,36.2467051 -0.5,31 C-0.5,25.7532949 3.75329488,21.5 9,21.5 C11.7284823,21.5 14.1883079,22.6502558 15.9210124,24.4923031 L20.5,22.661 L20.4997378,18.4870543 C15.4855787,18.2269169 11.5,14.0788993 11.5,9 C11.5,3.75329488 15.7532949,-0.5 21,-0.5 Z M9.00325354,34.5950037 C6.96818891,34.5950037 5.16893128,36.0101285 4.50290614,38.0938838 C4.49241306,38.1267129 4.47884636,38.1577045 4.46262533,38.1866424 C5.77428769,39.0189537 7.33096665,39.5 9,39.5 C10.6664981,39.5 12.2209829,39.020414 13.5329677,38.1917286 L13.5465056,38.2345332 C12.9200445,36.0788085 11.0871515,34.5950037 9.00325354,34.5950037 Z M33.0032535,34.5950037 C30.9681889,34.5950037 29.1689313,36.0101285 28.5029061,38.0938838 C28.4924131,38.1267129 28.4788464,38.1577045 28.4626253,38.1866424 C29.7742877,39.0189537 31.3309667,39.5 33,39.5 C34.6664981,39.5 36.2209829,39.020414 37.5329677,38.1917286 L37.5465056,38.2345332 C36.9200445,36.0788085 35.0871515,34.5950037 33.0032535,34.5950037 Z M33,22.5 C28.3055796,22.5 24.5,26.3055796 24.5,31 C24.5,33.6537471 25.7161186,36.0234545 27.6214533,37.5822197 L27.550379,37.7894301 C28.3446743,35.3043632 30.5180361,33.5950037 33.0032535,33.5950037 C35.420978,33.5950037 37.5391183,35.2123383 38.3845737,37.5778418 C40.2859834,36.0193566 41.5,33.6514527 41.5,31 C41.5,26.3055796 37.6944204,22.5 33,22.5 Z M9,22.5 C4.30557963,22.5 0.5,26.3055796 0.5,31 C0.5,33.6537471 1.7161186,36.0234545 3.62145334,37.5822197 L3.550379,37.7894301 C4.34467428,35.3043632 6.51803612,33.5950037 9.00325354,33.5950037 C11.420978,33.5950037 13.5391183,35.2123383 14.3845737,37.5778418 C16.2859834,36.0193566 17.5,33.6514527 17.5,31 C17.5,26.3055796 13.6944204,22.5 9,22.5 Z M9,25.5 C10.9329966,25.5 12.5,27.0670034 12.5,29 C12.5,30.9329966 10.9329966,32.5 9,32.5 C7.06700338,32.5 5.5,30.9329966 5.5,29 C5.5,27.0670034 7.06700338,25.5 9,25.5 Z M33,25.5 C34.9329966,25.5 36.5,27.0670034 36.5,29 C36.5,30.9329966 34.9329966,32.5 33,32.5 C31.0670034,32.5 29.5,30.9329966 29.5,29 C29.5,27.0670034 31.0670034,25.5 33,25.5 Z M9,26.5 C7.61928813,26.5 6.5,27.6192881 6.5,29 C6.5,30.3807119 7.61928813,31.5 9,31.5 C10.3807119,31.5 11.5,30.3807119 11.5,29 C11.5,27.6192881 10.3807119,26.5 9,26.5 Z M33,26.5 C31.6192881,26.5 30.5,27.6192881 30.5,29 C30.5,30.3807119 31.6192881,31.5 33,31.5 C34.3807119,31.5 35.5,30.3807119 35.5,29 C35.5,27.6192881 34.3807119,26.5 33,26.5 Z M21.0032535,12.5950037 C18.9681889,12.5950037 17.1689313,14.0101285 16.5029061,16.0938838 C16.4924131,16.1267129 16.4788464,16.1577045 16.4626253,16.1866424 C17.7742877,17.0189537 19.3309667,17.5 21,17.5 C22.6664981,17.5 24.2209829,17.020414 25.5329677,16.1917286 L25.5465056,16.2345332 C24.9200445,14.0788085 23.0871515,12.5950037 21.0032535,12.5950037 Z M21,0.5 C16.3055796,0.5 12.5,4.30557963 12.5,9 C12.5,11.6537471 13.7161186,14.0234545 15.6214533,15.5822197 L15.550379,15.7894301 C16.3446743,13.3043632 18.5180361,11.5950037 21.0032535,11.5950037 C23.420978,11.5950037 25.5391183,13.2123383 26.3845737,15.5778418 C28.2859834,14.0193566 29.5,11.6514527 29.5,9 C29.5,4.30557963 25.6944204,0.5 21,0.5 Z M21,3.5 C22.9329966,3.5 24.5,5.06700338 24.5,7 C24.5,8.93299662 22.9329966,10.5 21,10.5 C19.0670034,10.5 17.5,8.93299662 17.5,7 C17.5,5.06700338 19.0670034,3.5 21,3.5 Z M21,4.5 C19.6192881,4.5 18.5,5.61928813 18.5,7 C18.5,8.38071187 19.6192881,9.5 21,9.5 C22.3807119,9.5 23.5,8.38071187 23.5,7 C23.5,5.61928813 22.3807119,4.5 21,4.5 Z" transform="translate(40 39.263)"/>
      </g>
      <g transform="translate(111 262.263)">
        <use fill="#000" filter="url(#img-corporate-social-responsibility--s)" xlink:href="#img-corporate-social-responsibility--t"/>
        <use fill="#FFF" xlink:href="#img-corporate-social-responsibility--t"/>
        <path fill="url(#img-corporate-social-responsibility--u)" fill-rule="nonzero" d="M21,0.5 C23.9692699,0.5 26.6433458,2.64534384 28.6640637,6.17082123 L28.6640637,6.17082123 L28.9550729,6.69650816 C29.1882176,7.13253085 29.4118328,7.58762887 29.6253121,8.06050662 C30.1417164,8.00894499 30.647585,7.97505896 31.1417017,7.9589589 L31.1417017,7.9589589 L31.7424645,7.94813678 C35.8059764,7.93539113 39.0009367,9.17853687 40.4855716,11.75 C41.9702065,14.3214631 41.4493222,17.7099527 39.4065282,21.2226845 L39.4065282,21.2226845 L39.0967745,21.7375493 C38.8356676,22.1575866 38.5532643,22.5789096 38.2503842,23.0003441 C38.5537104,23.421756 38.8358738,23.8427452 39.0967745,24.2624507 L39.4065282,24.7773155 C41.4493222,28.2900473 41.9702065,31.6785369 40.4855716,34.25 C39.0009367,36.8214631 35.8059764,38.0646089 31.7424645,38.0518632 L31.1417017,38.0410411 C30.647585,38.024941 30.1417164,37.991055 29.6255205,37.9395056 C29.4118328,38.4123711 29.1882176,38.8674692 28.9550729,39.3034918 L28.9550729,39.3034918 L28.6640637,39.8291788 C26.6433458,43.3546562 23.9692699,45.5 21,45.5 C18.0307301,45.5 15.3566542,43.3546562 13.3359363,39.8291788 L13.3359363,39.8291788 L13.0449271,39.3034918 C12.8117824,38.8674692 12.5881672,38.4123711 12.3746879,37.9394934 C11.8580418,37.9910712 11.3522969,38.0249449 10.8582983,38.0410411 L10.8582983,38.0410411 L10.2575355,38.0518632 C6.19402355,38.0646089 2.99906335,36.8214631 1.51442841,34.25 C0.0297934831,31.6785369 0.550677801,28.2900473 2.59347182,24.7773155 L2.59347182,24.7773155 L2.90322547,24.2624507 C3.16412618,23.8427452 3.44628957,23.421756 3.7488981,23.0006545 C3.4467357,22.5789096 3.16433243,22.1575866 2.90322547,21.7375493 L2.59347182,21.2226845 C0.550677801,17.7099527 0.0297934831,14.3214631 1.51442841,11.75 C2.99906335,9.17853687 6.19402355,7.93539113 10.2575355,7.94813678 L10.8582983,7.9589589 C11.3522969,7.97505511 11.8580418,8.0089288 12.3741095,8.06045746 C12.5881672,7.58762887 12.8117824,7.13253085 13.0449271,6.69650816 L13.0449271,6.69650816 L13.3359363,6.17082123 C15.3566542,2.64534384 18.0307301,0.5 21,0.5 Z M20.9998213,35.744 L20.9591489,35.7613333 C19.7624356,36.2318314 18.5783076,36.6309813 17.4189785,36.9577321 L17.4189785,36.9577321 L16.7264546,37.1450863 L16.0404686,37.3150143 L16.0404686,37.3150143 L15.7001106,37.3934276 L15.0250308,37.5371217 C14.4804302,37.6466026 13.9437339,37.7387491 13.4163512,37.8134399 L13.6769185,38.3495013 L13.9473211,38.8712112 C15.8250871,42.3700565 18.3115422,44.5 21,44.5 C23.6884578,44.5 26.1749129,42.3700565 28.0526789,38.8712112 L28.0526789,38.8712112 L28.3230815,38.3495013 C28.4112442,38.1733816 28.4979279,37.994128 28.5830861,37.8118273 C28.0566874,37.7388215 27.5197835,37.6466456 26.9749692,37.5371217 L26.2998894,37.3934276 C26.1867417,37.3680187 26.073285,37.3418806 25.9595314,37.3150143 L25.2735454,37.1450863 L24.5810215,36.9577321 C23.4216924,36.6309813 22.2375644,36.2318314 21.0408511,35.7613333 L20.9998213,35.744 Z M4.37960618,23.8394015 L4.04540118,24.332776 L3.72878849,24.8278065 C1.63758251,28.2034222 1.03622493,31.4217273 2.38045382,33.75 C3.72468271,36.0782727 6.81249545,37.1666343 10.7814674,37.0434047 L10.7814674,37.0434047 L11.3684827,37.0167253 C11.5651943,37.0050103 11.7638826,36.9904443 11.964449,36.9730306 C11.7639046,36.4800166 11.5754091,35.9692785 11.3979679,35.443036 L11.3979679,35.443036 L11.1848707,34.7865527 C11.1503016,34.6758595 11.1162096,34.564534 11.0825997,34.4525873 L11.0825997,34.4525873 L10.8867687,33.7735421 L10.7027602,33.0801217 C10.4060701,31.9127377 10.1596801,30.6876779 9.96878678,29.4160448 L9.96878678,29.4160448 L9.96182132,29.371 L9.92793564,29.3452885 C8.9221157,28.5441535 7.98437775,27.7182435 7.12173867,26.8776104 L6.61322321,26.3715442 L6.1230683,25.862427 C6.04292457,25.7773466 5.9635599,25.6921593 5.8849813,25.6068749 L5.42299871,25.0940857 C5.05597678,24.6772923 4.70790958,24.2586779 4.37960618,23.8394015 Z M37.6211767,23.8384016 C37.2926438,24.2580124 36.944315,24.676961 36.5770013,25.0940857 L36.5770013,25.0940857 L36.1150187,25.6068749 L36.1150187,25.6068749 L35.8769317,25.862427 L35.3867768,26.3715442 L34.8782613,26.8776104 C34.0156223,27.7182435 33.0778843,28.5441535 32.0720644,29.3452885 L32.0720644,29.3452885 L32.0368213,29.372 L32.0312132,29.4160448 C31.8784986,30.4333512 31.690266,31.4208509 31.4691763,32.372859 L31.2972398,33.0801217 L31.1132313,33.7735421 L30.9174003,34.4525873 C30.8837904,34.564534 30.8496984,34.6758595 30.8151293,34.7865527 L30.8151293,34.7865527 L30.6020321,35.443036 C30.4245909,35.9692785 30.2360954,36.4800166 30.037145,36.9739701 C30.2367841,36.9904932 30.4351357,37.0050299 30.6315173,37.0167253 L31.2185326,37.0434047 C35.1875045,37.1666343 38.2753173,36.0782727 39.6195462,33.75 C40.9637751,31.4217273 40.3624175,28.2034222 38.2712115,24.8278065 L37.9545988,24.332776 Z M30.8781834,30.2622131 L30.8328502,30.2941152 C30.409185,30.6059979 29.9750758,30.9132732 29.5309717,31.215298 L29.5309717,31.215298 L28.8573754,31.6643167 C28.1763952,32.1092365 27.4734315,32.5416188 26.75,32.9592921 C26.0265685,33.3769655 25.3006327,33.7695588 24.5748306,34.136845 L24.5748306,34.136845 L23.8491709,34.4956872 C23.3655577,34.7292803 22.8823949,34.9515922 22.400464,35.1625556 L22.400464,35.1625556 L22.3495981,35.185657 C22.3921877,35.2011151 22.4347529,35.2164777 22.4772929,35.2317449 L23.1708859,35.472987 L23.8594063,35.6971775 C24.5451902,35.9128356 25.2224643,36.1028867 25.8885257,36.2672421 L26.5507495,36.4230289 C27.0993212,36.5457081 27.6394807,36.6505225 28.1696638,36.7374207 L28.8009948,36.8330954 L29.0008213,36.858 L29.0793147,36.6724073 L29.3121234,36.0778213 C29.5019589,35.5752202 29.6812667,35.0550212 29.8493093,34.5186046 L29.8493093,34.5186046 L30.0455058,33.8672085 C30.2362006,33.2082047 30.4102486,32.5266425 30.5663751,31.8249072 L30.5663751,31.8249072 L30.7164806,31.1165358 L30.8543553,30.3952456 C30.8623676,30.3509701 30.8703104,30.3066257 30.8781834,30.2622131 Z M11.1218213,30.26 L11.1456447,30.3952456 L11.2835194,31.1165358 L11.4336249,31.8249072 C11.5897514,32.5266425 11.7637994,33.2082047 11.9544942,33.8672085 L11.9544942,33.8672085 L12.1506907,34.5186046 C12.3187333,35.0550212 12.4980411,35.5752202 12.6878766,36.0778213 L12.6878766,36.0778213 L12.9206853,36.6724073 C12.946234,36.7353704 12.9719528,36.7980316 12.9978402,36.8603882 L13.1990052,36.8330954 L13.8303362,36.7374207 C14.3605193,36.6505225 14.9006788,36.5457081 15.4492505,36.4230289 L15.4492505,36.4230289 L16.1114743,36.2672421 C16.7775357,36.1028867 17.4548098,35.9128356 18.1405937,35.6971775 L18.1405937,35.6971775 L18.8291141,35.472987 L19.5227071,35.2317449 C19.5652471,35.2164777 19.6078123,35.2011151 19.6504019,35.185657 L19.599536,35.1625556 C19.1176051,34.9515922 18.6344423,34.7292803 18.1508291,34.4956872 L17.4251694,34.136845 C16.6993673,33.7695588 15.9734315,33.3769655 15.25,32.9592921 C14.5265685,32.5416188 13.8236048,32.1092365 13.1426246,31.6643167 L12.4690283,31.215298 C12.0249242,30.9132732 11.590815,30.6059979 11.1671498,30.2941152 L11.1218213,30.26 Z M21.0004707,11.3332721 L20.3720851,11.5940939 C19.4298958,11.9951182 18.4805866,12.4414031 17.530564,12.9327382 L17.530564,12.9327382 L16.8180135,13.3096831 C16.4617714,13.5023757 16.1056543,13.7013961 15.75,13.9067333 L15.75,13.9067333 L15.3960986,14.1132461 C15.1613374,14.2516981 14.9289312,14.3916894 14.6989327,14.533135 L14.6989327,14.533135 L14.0162135,14.9617494 C12.9150827,15.6673821 11.8728187,16.4057701 10.8956111,17.1669617 C10.7256032,18.393125 10.6072989,19.6647608 10.5467775,20.9709888 L10.5467775,20.9709888 L10.5169461,21.7765481 C10.5057018,22.1814091 10.5,22.5893258 10.5,23 L10.5,23 L10.5018947,23.409744 C10.504417,23.6822791 10.5094499,23.9535445 10.5169461,24.2234519 L10.5169461,24.2234519 L10.5467775,25.0290112 C10.6072989,26.3352392 10.7256032,27.606875 10.8961696,28.8335872 C11.8728187,29.5942299 12.9150827,30.3326179 14.0162135,31.0382506 L14.6989327,31.466865 C15.0439304,31.6790334 15.3943457,31.8879296 15.75,32.0932667 C16.1056543,32.2986039 16.4617714,32.4976243 16.8180135,32.6903169 L17.530564,33.0672618 C18.6921519,33.6680148 19.8526734,34.2014185 21.0004176,34.6670883 C22.1479254,34.2011433 23.3081478,33.6678598 24.469436,33.0672618 L24.469436,33.0672618 L25.1819865,32.6903169 C25.5382286,32.4976243 25.8943457,32.2986039 26.25,32.0932667 C26.6056543,31.8879296 26.9560696,31.6790334 27.3010673,31.466865 L27.3010673,31.466865 L27.9837865,31.0382506 C29.0848768,30.3326439 30.1271046,29.5942843 31.104281,28.8331223 C31.2743968,27.606875 31.3927011,26.3352392 31.4532225,25.0290112 L31.4532225,25.0290112 L31.4830539,24.2234519 C31.4942982,23.8185909 31.5,23.4106742 31.5,23 C31.5,22.5893258 31.4942982,22.1814091 31.4830539,21.7765481 L31.4830539,21.7765481 L31.4532225,20.9709888 C31.3927011,19.6647608 31.2743968,18.393125 31.1038304,17.1664128 C30.1271046,16.4057157 29.0848768,15.6673561 27.9837865,14.9617494 L27.3010673,14.533135 C27.0710688,14.3916894 26.8386626,14.2516981 26.6039014,14.1132461 L26.25,13.9067333 C25.8943457,13.7013961 25.5382286,13.5023757 25.1819865,13.3096831 L24.469436,12.9327382 C23.3081478,12.3321402 22.1479254,11.7988567 21.0004707,11.3332721 Z M24.0525823,17.8807535 L24.2922137,17.8873245 C25.4002024,17.9467988 26.4466823,18.4075304 27.2113867,19.1815056 C28.9295273,20.926477 28.9295374,23.6349782 27.2075101,25.3838867 L27.2075101,25.3838867 L21.6976342,30.856758 L21.5824725,30.9500971 C21.1866769,31.2250256 20.6340875,31.1849453 20.285475,30.8383982 L20.285475,30.8383982 L14.788667,25.3799547 C13.0704443,23.6348141 13.0704443,20.9261856 14.7890473,19.1806592 C14.8612853,19.1074484 14.9364341,19.0366936 15.0144352,18.968422 C16.7620055,17.4394403 19.4845658,17.5335954 21.1065235,19.177405 L21.001,19.076 L21.0609696,19.0192735 C21.8078893,18.3430362 22.784545,17.9421035 23.8141274,17.8872391 L23.8141274,17.8872391 L24.0525823,17.8807535 Z M24.0524001,18.8807436 L23.8395883,18.88741 C23.0579249,18.9351679 22.3194406,19.2381522 21.7514542,19.7434809 L21.7514542,19.7434809 L21.6008717,19.8862749 L21.0010279,20.4831311 L20.3979459,19.883023 C19.1449588,18.6131781 17.0230135,18.5397943 15.6729787,19.7209646 C15.6133302,19.7731729 15.5559309,19.827216 15.501248,19.8826349 C14.1662507,21.2385465 14.1662507,23.3224533 15.4972692,24.674369 L15.4972692,24.674369 L20.9902881,30.1290051 C20.992508,30.1312119 21.0088259,30.1316285 21.0124638,30.1283837 L21.0124638,30.1283837 L26.4988488,24.6783596 C27.8337252,23.3226115 27.8337175,21.2388535 26.4994278,19.8837263 C25.8698852,19.2465522 24.9832816,18.8821734 24.0524001,18.8807436 L24.0524001,18.8807436 Z M32.2258213,18.076 L32.2333141,18.1315596 C32.2915799,18.6544057 32.3406336,19.1839929 32.3801426,19.7196108 L32.3801426,19.7196108 L32.432206,20.5274716 C32.4770278,21.3396777 32.5,22.1646533 32.5,23 C32.5,23.8353467 32.4770278,24.6603223 32.432206,25.4725284 L32.432206,25.4725284 L32.3801426,26.2803892 C32.3406336,26.8160071 32.2915799,27.3455943 32.2333141,27.8684404 L32.2333141,27.8684404 L32.2258213,27.923 L32.3316482,27.8364992 L32.8873665,27.3564512 L33.4257814,26.8722703 C33.9554387,26.3861931 34.4586649,25.894682 34.9340316,25.4000336 L34.9340316,25.4000336 L35.4000588,24.9044244 C35.780588,24.4906869 36.1414396,24.0753023 36.4817872,23.6595993 L36.4817872,23.6595993 L36.8803094,23.1606881 C36.9218404,23.1073661 36.9630287,23.0540476 37.0038725,23.0007354 C36.9635436,22.9466189 36.9221,22.8929672 36.8803094,22.8393119 L36.4817872,22.3404007 C36.1414396,21.9246977 35.780588,21.5093131 35.4000588,21.0955756 L34.9340316,20.5999664 C34.4586649,20.105318 33.9554387,19.6138069 33.4257814,19.1277297 L32.8873665,18.6435488 L32.3316482,18.1635008 L32.2258213,18.076 Z M9.77282132,18.076 L9.66835175,18.1635008 L9.11263348,18.6435488 L8.57421862,19.1277297 C8.04456125,19.6138069 7.54133509,20.105318 7.06596843,20.5999664 L7.06596843,20.5999664 L6.59994117,21.0955756 C6.21941204,21.5093131 5.8585604,21.9246977 5.51821282,22.3404007 L5.51821282,22.3404007 L5.11969057,22.8393119 C5.07815956,22.8926339 5.03697128,22.9459524 4.99612746,22.9992646 C5.03645644,23.0533811 5.07789999,23.1070328 5.11969057,23.1606881 L5.51821282,23.6595993 C5.8585604,24.0753023 6.21941204,24.4906869 6.59994117,24.9044244 L7.06596843,25.4000336 C7.54133509,25.894682 8.04456125,26.3861931 8.57421862,26.8722703 L9.11263348,27.3564512 L9.66835175,27.8364992 L9.77282132,27.923 L9.76668588,27.8684404 C9.72784204,27.5198764 9.69309246,27.1683162 9.66253568,26.8139706 L9.61985742,26.2803892 L9.56779396,25.4725284 C9.52297215,24.6603223 9.5,23.8353467 9.5,23 L9.5,23 L9.50190915,22.583202 C9.50826432,21.8900161 9.53044245,21.2043101 9.56779396,20.5274716 L9.56779396,20.5274716 L9.61985742,19.7196108 C9.65936644,19.1839929 9.70842012,18.6544057 9.76668588,18.1315596 L9.76668588,18.1315596 L9.77282132,18.076 Z M39.6195462,12.25 C38.2753173,9.92172727 35.1875045,8.83336567 31.2185326,8.95659533 L31.2185326,8.95659533 L30.6315173,8.98327473 C30.4351357,8.99497007 30.2367841,9.00950681 30.0365605,9.02688174 C30.2360954,9.51998336 30.4245909,10.0307215 30.6020321,10.556964 L30.6020321,10.556964 L30.8151293,11.2134473 C30.8496984,11.3241405 30.8837904,11.435466 30.9174003,11.5474127 L30.9174003,11.5474127 L31.1132313,12.2264579 L31.2972398,12.9198783 C31.5939299,14.0872623 31.8403199,15.3123221 32.0312132,16.5839552 L32.0312132,16.5839552 L32.0368213,16.627 L32.0720644,16.6547115 C33.0778843,17.4558465 34.0156223,18.2817565 34.8782613,19.1223896 L35.3867768,19.6284558 L35.8769317,20.137573 L36.1150187,20.3931251 L36.1150187,20.3931251 L36.5770013,20.9059143 C36.944315,21.323039 37.2926438,21.7419876 37.6211767,22.1615984 L37.9545988,21.667224 L38.2712115,21.1721935 C40.3624175,17.7965778 40.9637751,14.5782727 39.6195462,12.25 Z M2.38045382,12.25 C1.03622493,14.5782727 1.63758251,17.7965778 3.72878849,21.1721935 L4.04540118,21.667224 L4.37960618,22.1605985 C4.70790958,21.7413221 5.05597678,21.3227077 5.42299871,20.9059143 L5.42299871,20.9059143 L5.8849813,20.3931251 C5.9635599,20.3078407 6.04292457,20.2226534 6.1230683,20.137573 L6.1230683,20.137573 L6.61322321,19.6284558 L7.12173867,19.1223896 C7.98437775,18.2817565 8.9221157,17.4558465 9.92793564,16.6547115 L9.92793564,16.6547115 L9.96182132,16.628 L9.96878678,16.5839552 C10.1215014,15.5666488 10.309734,14.5791491 10.5308237,13.627141 L10.7027602,12.9198783 L10.8867687,12.2264579 L11.0825997,11.5474127 C11.1162096,11.435466 11.1503016,11.3241405 11.1848707,11.2134473 L11.1848707,11.2134473 L11.3979679,10.556964 C11.5754091,10.0307215 11.7639046,9.51998336 11.962855,9.02602995 C11.7638826,9.00955569 11.5651943,8.99498972 11.3684827,8.98327473 L10.7814674,8.95659533 C6.81249545,8.83336567 3.72468271,9.92172727 2.38045382,12.25 Z M12.9978213,9.141 L12.9206853,9.32759265 L12.6878766,9.92217867 C12.4980411,10.4247798 12.3187333,10.9449788 12.1506907,11.4813954 L12.1506907,11.4813954 L11.9544942,12.1327915 C11.7637994,12.7917953 11.5897514,13.4733575 11.4336249,14.1750928 L11.4336249,14.1750928 L11.2835194,14.8834642 L11.1456447,15.6047544 C11.1375726,15.6493603 11.129571,15.6940361 11.1216403,15.7387813 L11.1671498,15.7058848 C11.590815,15.3940021 12.0249242,15.0867268 12.4690283,14.784702 L12.4690283,14.784702 L13.1426246,14.3356833 C13.8236048,13.8907635 14.5265685,13.4583812 15.25,13.0407079 L15.25,13.0407079 L15.6119122,12.8339622 C16.2154064,12.492873 16.8203343,12.1692268 17.4251694,11.863155 L17.4251694,11.863155 L18.1508291,11.5043128 C18.6344423,11.2707197 19.1176051,11.0484078 19.599536,10.8374444 L19.599536,10.8374444 L19.6504019,10.814343 C19.6078123,10.7988849 19.5652471,10.7835223 19.5227071,10.7682551 L18.8291141,10.527013 L18.1405937,10.3028225 C17.4548098,10.0871644 16.7775357,9.89711327 16.1114743,9.7327579 L15.4492505,9.57697106 C14.9006788,9.45429188 14.3605193,9.34947752 13.8303362,9.26257934 L13.1990052,9.16690458 L12.9978213,9.141 Z M29.0021598,9.13961183 L28.8009948,9.16690458 L28.1696638,9.26257934 C27.6394807,9.34947752 27.0993212,9.45429188 26.5507495,9.57697106 L26.5507495,9.57697106 L25.8885257,9.7327579 C25.2224643,9.89711327 24.5451902,10.0871644 23.8594063,10.3028225 L23.8594063,10.3028225 L23.1708859,10.527013 L22.4772929,10.7682551 C22.4347529,10.7835223 22.3921877,10.7988849 22.3495981,10.814343 L22.400464,10.8374444 C22.8823949,11.0484078 23.3655577,11.2707197 23.8491709,11.5043128 L24.5748306,11.863155 C25.1796657,12.1692268 25.7845936,12.492873 26.3880878,12.8339622 L26.75,13.0407079 C27.4734315,13.4583812 28.1763952,13.8907635 28.8573754,14.3356833 L29.5309717,14.784702 C29.9750758,15.0867268 30.409185,15.3940021 30.8328502,15.7058848 L30.8768213,15.738 L30.8543553,15.6047544 L30.7164806,14.8834642 L30.5663751,14.1750928 C30.4102486,13.4733575 30.2362006,12.7917953 30.0455058,12.1327915 L30.0455058,12.1327915 L29.8493093,11.4813954 C29.6812667,10.9449788 29.5019589,10.4247798 29.3121234,9.92217867 L29.3121234,9.92217867 L29.0793147,9.32759265 C29.053766,9.26462963 29.0280472,9.20196837 29.0021598,9.13961183 Z M21,1.5 C18.3115422,1.5 15.8250871,3.62994348 13.9473211,7.12878883 L13.9473211,7.12878883 L13.6769185,7.65049869 C13.5887558,7.82661836 13.5020721,8.00587199 13.4169139,8.18817271 C13.9437339,8.26125086 14.4804302,8.35339736 15.0250308,8.46287829 L15.7001106,8.60657235 L16.0404686,8.68498574 L16.0404686,8.68498574 L16.7264546,8.85491371 L17.4189785,9.0422679 C18.5783076,9.36901871 19.7624356,9.76816861 20.9591489,10.2386667 L20.9998213,10.255 L21.0408511,10.2386667 C21.9982217,9.86226824 22.9475377,9.5315326 23.8825459,9.24699787 L24.5810215,9.0422679 L25.2735454,8.85491371 L25.9595314,8.68498574 C26.073285,8.6581194 26.1867417,8.63198125 26.2998894,8.60657235 L26.2998894,8.60657235 L26.9749692,8.46287829 C27.5197835,8.35335439 28.0566874,8.26117853 28.5842698,8.18647211 L28.3230815,7.65049869 L28.0526789,7.12878883 C26.1749129,3.62994348 23.6884578,1.5 21,1.5 Z" transform="translate(40 36)"/>
        <path fill="url(#img-corporate-social-responsibility--i)" fill-rule="nonzero" d="M60.5,-0.5 C27.0867726,-0.5 0,26.362915 0,59.5 C0,92.637085 27.0867726,119.5 60.5,119.5 C93.9132274,119.5 121,92.637085 121,59.5 C121,26.362915 93.9132274,-0.5 60.5,-0.5 Z M60.5,11.5 C87.2858104,11.5 109,33.2141896 109,60 C109,86.7858104 87.2858104,108.5 60.5,108.5 C33.7141896,108.5 12,86.7858104 12,60 C12,33.2141896 33.7141896,11.5 60.5,11.5 Z"/>
      </g>
    </g>
    <g fill="#5055FE" transform="translate(30 51)">
      <circle cx="7" cy="7" r="7" opacity=".103"/>
      <circle cx="7" cy="7" r="3"/>
    </g>
    <g fill="#5055FE" transform="translate(260 111)">
      <circle cx="7" cy="7" r="7" opacity=".103"/>
      <circle cx="7" cy="7" r="3"/>
    </g>
    <g fill="#5055FE" transform="translate(308 275)">
      <circle cx="7" cy="7" r="7" opacity=".103"/>
      <circle cx="7" cy="7" r="3"/>
    </g>
    <g fill="#5055FE" transform="translate(98 251)">
      <circle cx="7" cy="7" r="7" opacity=".103"/>
      <circle cx="7" cy="7" r="3"/>
    </g>
    <g fill="#5055FE" transform="translate(163 475)">
      <circle cx="7" cy="7" r="7" opacity=".103"/>
      <circle cx="7" cy="7" r="3"/>
    </g>
    <g fill="#5055FE" transform="translate(373 551)">
      <circle cx="7" cy="7" r="7" opacity=".103"/>
      <circle cx="7" cy="7" r="3"/>
    </g>
  </g>
</svg>
