<svg xmlns="http://www.w3.org/2000/svg" xmlns:xlink="http://www.w3.org/1999/xlink" width="728" height="604" viewBox="0 0 728 604">
  <defs>
    <linearGradient id="img-stages-a" x1="60.955%" x2="39.045%" y1="100%" y2="0%">
      <stop offset="0%" stop-color="#1E85E9"/>
      <stop offset="20.276%" stop-color="#8671F3"/>
      <stop offset="70.727%" stop-color="#C06CFD" stop-opacity=".99"/>
      <stop offset="100%" stop-color="#FFBEE8"/>
    </linearGradient>
    <linearGradient id="img-stages-b" x1="100%" x2="0%" y1="52.999%" y2="47.001%">
      <stop offset="0%" stop-color="#1E85E9"/>
      <stop offset="20.276%" stop-color="#8671F3"/>
      <stop offset="70.727%" stop-color="#C06CFD" stop-opacity=".99"/>
      <stop offset="100%" stop-color="#FFBEE8"/>
    </linearGradient>
    <linearGradient id="img-stages-e" x1="100%" x2="0%" y1="100%" y2="0%">
      <stop offset="0%" stop-color="#1E85E9"/>
      <stop offset="20.276%" stop-color="#8671F3"/>
      <stop offset="70.727%" stop-color="#C06CFD" stop-opacity=".99"/>
      <stop offset="100%" stop-color="#FFBEE8"/>
    </linearGradient>
    <circle id="img-stages-d" cx="60" cy="60" r="60"/>
    <filter id="img-stages-c" width="136.7%" height="136.7%" x="-18.3%" y="-15%" filterUnits="objectBoundingBox">
      <feMorphology in="SourceAlpha" operator="dilate" radius="5" result="shadowSpreadOuter1"/>
      <feOffset dy="4" in="shadowSpreadOuter1" result="shadowOffsetOuter1"/>
      <feGaussianBlur in="shadowOffsetOuter1" result="shadowBlurOuter1" stdDeviation="5"/>
      <feComposite in="shadowBlurOuter1" in2="SourceAlpha" operator="out" result="shadowBlurOuter1"/>
      <feColorMatrix in="shadowBlurOuter1" values="0 0 0 0 0.0415817482   0 0 0 0 0.0415817482   0 0 0 0 0.0415817482  0 0 0 0.1 0"/>
    </filter>
    <circle id="img-stages-g" cx="60" cy="60" r="45"/>
    <filter id="img-stages-f" width="137.8%" height="137.8%" x="-18.9%" y="-14.4%" filterUnits="objectBoundingBox">
      <feOffset dy="4" in="SourceAlpha" result="shadowOffsetOuter1"/>
      <feGaussianBlur in="shadowOffsetOuter1" result="shadowBlurOuter1" stdDeviation="5"/>
      <feColorMatrix in="shadowBlurOuter1" values="0 0 0 0 0.0415817482   0 0 0 0 0.0415817482   0 0 0 0 0.0415817482  0 0 0 0.1 0"/>
    </filter>
    <linearGradient id="img-stages-h" x1="82.286%" x2="17.714%" y1="100%" y2="0%">
      <stop offset="0%" stop-color="#1E85E9"/>
      <stop offset="20.276%" stop-color="#8671F3"/>
      <stop offset="70.727%" stop-color="#C06CFD" stop-opacity=".99"/>
      <stop offset="100%" stop-color="#FFBEE8"/>
    </linearGradient>
    <circle id="img-stages-j" cx="60" cy="60" r="60"/>
    <filter id="img-stages-i" width="136.7%" height="136.7%" x="-18.3%" y="-15%" filterUnits="objectBoundingBox">
      <feMorphology in="SourceAlpha" operator="dilate" radius="5" result="shadowSpreadOuter1"/>
      <feOffset dy="4" in="shadowSpreadOuter1" result="shadowOffsetOuter1"/>
      <feGaussianBlur in="shadowOffsetOuter1" result="shadowBlurOuter1" stdDeviation="5"/>
      <feComposite in="shadowBlurOuter1" in2="SourceAlpha" operator="out" result="shadowBlurOuter1"/>
      <feColorMatrix in="shadowBlurOuter1" values="0 0 0 0 0.0415817482   0 0 0 0 0.0415817482   0 0 0 0 0.0415817482  0 0 0 0.1 0"/>
    </filter>
    <circle id="img-stages-l" cx="60" cy="60" r="45"/>
    <filter id="img-stages-k" width="137.8%" height="137.8%" x="-18.9%" y="-14.4%" filterUnits="objectBoundingBox">
      <feOffset dy="4" in="SourceAlpha" result="shadowOffsetOuter1"/>
      <feGaussianBlur in="shadowOffsetOuter1" result="shadowBlurOuter1" stdDeviation="5"/>
      <feColorMatrix in="shadowBlurOuter1" values="0 0 0 0 0.0415817482   0 0 0 0 0.0415817482   0 0 0 0 0.0415817482  0 0 0 0.1 0"/>
    </filter>
    <linearGradient id="img-stages-m" x1="100%" x2="0%" y1="84.55%" y2="15.45%">
      <stop offset="0%" stop-color="#1E85E9"/>
      <stop offset="20.276%" stop-color="#8671F3"/>
      <stop offset="70.727%" stop-color="#C06CFD" stop-opacity=".99"/>
      <stop offset="100%" stop-color="#FFBEE8"/>
    </linearGradient>
    <circle id="img-stages-o" cx="60" cy="60" r="60"/>
    <filter id="img-stages-n" width="136.7%" height="136.7%" x="-18.3%" y="-15%" filterUnits="objectBoundingBox">
      <feMorphology in="SourceAlpha" operator="dilate" radius="5" result="shadowSpreadOuter1"/>
      <feOffset dy="4" in="shadowSpreadOuter1" result="shadowOffsetOuter1"/>
      <feGaussianBlur in="shadowOffsetOuter1" result="shadowBlurOuter1" stdDeviation="5"/>
      <feComposite in="shadowBlurOuter1" in2="SourceAlpha" operator="out" result="shadowBlurOuter1"/>
      <feColorMatrix in="shadowBlurOuter1" values="0 0 0 0 0.0415817482   0 0 0 0 0.0415817482   0 0 0 0 0.0415817482  0 0 0 0.1 0"/>
    </filter>
    <circle id="img-stages-q" cx="60" cy="60" r="45"/>
    <filter id="img-stages-p" width="137.8%" height="137.8%" x="-18.9%" y="-14.4%" filterUnits="objectBoundingBox">
      <feOffset dy="4" in="SourceAlpha" result="shadowOffsetOuter1"/>
      <feGaussianBlur in="shadowOffsetOuter1" result="shadowBlurOuter1" stdDeviation="5"/>
      <feColorMatrix in="shadowBlurOuter1" values="0 0 0 0 0.0415817482   0 0 0 0 0.0415817482   0 0 0 0 0.0415817482  0 0 0 0.1 0"/>
    </filter>
    <linearGradient id="img-stages-r" x1="77.378%" x2="16.529%" y1="95.932%" y2="0%">
      <stop offset="0%" stop-color="#1E85E9"/>
      <stop offset="20.276%" stop-color="#8671F3"/>
      <stop offset="70.727%" stop-color="#C06CFD" stop-opacity=".99"/>
      <stop offset="100%" stop-color="#FFBEE8"/>
    </linearGradient>
    <circle id="img-stages-t" cx="60" cy="60" r="60"/>
    <filter id="img-stages-s" width="136.7%" height="136.7%" x="-18.3%" y="-15%" filterUnits="objectBoundingBox">
      <feMorphology in="SourceAlpha" operator="dilate" radius="5" result="shadowSpreadOuter1"/>
      <feOffset dy="4" in="shadowSpreadOuter1" result="shadowOffsetOuter1"/>
      <feGaussianBlur in="shadowOffsetOuter1" result="shadowBlurOuter1" stdDeviation="5"/>
      <feComposite in="shadowBlurOuter1" in2="SourceAlpha" operator="out" result="shadowBlurOuter1"/>
      <feColorMatrix in="shadowBlurOuter1" values="0 0 0 0 0.0415817482   0 0 0 0 0.0415817482   0 0 0 0 0.0415817482  0 0 0 0.1 0"/>
    </filter>
    <circle id="img-stages-v" cx="60" cy="60" r="45"/>
    <filter id="img-stages-u" width="137.8%" height="137.8%" x="-18.9%" y="-14.4%" filterUnits="objectBoundingBox">
      <feOffset dy="4" in="SourceAlpha" result="shadowOffsetOuter1"/>
      <feGaussianBlur in="shadowOffsetOuter1" result="shadowBlurOuter1" stdDeviation="5"/>
      <feColorMatrix in="shadowBlurOuter1" values="0 0 0 0 0.0415817482   0 0 0 0 0.0415817482   0 0 0 0 0.0415817482  0 0 0 0.1 0"/>
    </filter>
    <linearGradient id="img-stages-w" x1="90.897%" x2="0%" y1="93.998%" y2="2.105%">
      <stop offset="0%" stop-color="#1E85E9"/>
      <stop offset="20.276%" stop-color="#8671F3"/>
      <stop offset="70.727%" stop-color="#C06CFD" stop-opacity=".99"/>
      <stop offset="100%" stop-color="#FFBEE8"/>
    </linearGradient>
    <circle id="img-stages-y" cx="60" cy="60" r="60"/>
    <filter id="img-stages-x" width="136.7%" height="136.7%" x="-18.3%" y="-15%" filterUnits="objectBoundingBox">
      <feMorphology in="SourceAlpha" operator="dilate" radius="5" result="shadowSpreadOuter1"/>
      <feOffset dy="4" in="shadowSpreadOuter1" result="shadowOffsetOuter1"/>
      <feGaussianBlur in="shadowOffsetOuter1" result="shadowBlurOuter1" stdDeviation="5"/>
      <feComposite in="shadowBlurOuter1" in2="SourceAlpha" operator="out" result="shadowBlurOuter1"/>
      <feColorMatrix in="shadowBlurOuter1" values="0 0 0 0 0.0415817482   0 0 0 0 0.0415817482   0 0 0 0 0.0415817482  0 0 0 0.1 0"/>
    </filter>
    <circle id="img-stages-A" cx="60" cy="60" r="45"/>
    <filter id="img-stages-z" width="137.8%" height="137.8%" x="-18.9%" y="-14.4%" filterUnits="objectBoundingBox">
      <feOffset dy="4" in="SourceAlpha" result="shadowOffsetOuter1"/>
      <feGaussianBlur in="shadowOffsetOuter1" result="shadowBlurOuter1" stdDeviation="5"/>
      <feColorMatrix in="shadowBlurOuter1" values="0 0 0 0 0.0415817482   0 0 0 0 0.0415817482   0 0 0 0 0.0415817482  0 0 0 0.1 0"/>
    </filter>
    <linearGradient id="img-stages-B" x1="90.186%" x2="9.814%" y1="100%" y2="0%">
      <stop offset="0%" stop-color="#1E85E9"/>
      <stop offset="20.276%" stop-color="#8671F3"/>
      <stop offset="70.727%" stop-color="#C06CFD" stop-opacity=".99"/>
      <stop offset="100%" stop-color="#FFBEE8"/>
    </linearGradient>
    <circle id="img-stages-D" cx="60" cy="60" r="60"/>
    <filter id="img-stages-C" width="136.7%" height="136.7%" x="-18.3%" y="-15%" filterUnits="objectBoundingBox">
      <feMorphology in="SourceAlpha" operator="dilate" radius="5" result="shadowSpreadOuter1"/>
      <feOffset dy="4" in="shadowSpreadOuter1" result="shadowOffsetOuter1"/>
      <feGaussianBlur in="shadowOffsetOuter1" result="shadowBlurOuter1" stdDeviation="5"/>
      <feComposite in="shadowBlurOuter1" in2="SourceAlpha" operator="out" result="shadowBlurOuter1"/>
      <feColorMatrix in="shadowBlurOuter1" values="0 0 0 0 0.0415817482   0 0 0 0 0.0415817482   0 0 0 0 0.0415817482  0 0 0 0.1 0"/>
    </filter>
    <circle id="img-stages-F" cx="60" cy="60" r="45"/>
    <filter id="img-stages-E" width="137.8%" height="137.8%" x="-18.9%" y="-14.4%" filterUnits="objectBoundingBox">
      <feOffset dy="4" in="SourceAlpha" result="shadowOffsetOuter1"/>
      <feGaussianBlur in="shadowOffsetOuter1" result="shadowBlurOuter1" stdDeviation="5"/>
      <feColorMatrix in="shadowBlurOuter1" values="0 0 0 0 0.0415817482   0 0 0 0 0.0415817482   0 0 0 0 0.0415817482  0 0 0 0.1 0"/>
    </filter>
    <linearGradient id="img-stages-G" x1="100%" x2="0%" y1="96.549%" y2="3.451%">
      <stop offset="0%" stop-color="#1E85E9"/>
      <stop offset="20.276%" stop-color="#8671F3"/>
      <stop offset="70.727%" stop-color="#C06CFD" stop-opacity=".99"/>
      <stop offset="100%" stop-color="#FFBEE8"/>
    </linearGradient>
    <circle id="img-stages-I" cx="60" cy="60" r="60"/>
    <filter id="img-stages-H" width="136.7%" height="136.7%" x="-18.3%" y="-15%" filterUnits="objectBoundingBox">
      <feMorphology in="SourceAlpha" operator="dilate" radius="5" result="shadowSpreadOuter1"/>
      <feOffset dy="4" in="shadowSpreadOuter1" result="shadowOffsetOuter1"/>
      <feGaussianBlur in="shadowOffsetOuter1" result="shadowBlurOuter1" stdDeviation="5"/>
      <feComposite in="shadowBlurOuter1" in2="SourceAlpha" operator="out" result="shadowBlurOuter1"/>
      <feColorMatrix in="shadowBlurOuter1" values="0 0 0 0 0.0415817482   0 0 0 0 0.0415817482   0 0 0 0 0.0415817482  0 0 0 0.1 0"/>
    </filter>
    <circle id="img-stages-K" cx="60" cy="60" r="45"/>
    <filter id="img-stages-J" width="137.8%" height="137.8%" x="-18.9%" y="-14.4%" filterUnits="objectBoundingBox">
      <feOffset dy="4" in="SourceAlpha" result="shadowOffsetOuter1"/>
      <feGaussianBlur in="shadowOffsetOuter1" result="shadowBlurOuter1" stdDeviation="5"/>
      <feColorMatrix in="shadowBlurOuter1" values="0 0 0 0 0.0415817482   0 0 0 0 0.0415817482   0 0 0 0 0.0415817482  0 0 0 0.1 0"/>
    </filter>
    <linearGradient id="img-stages-L" x1="72.633%" x2="27.367%" y1="100%" y2="0%">
      <stop offset="0%" stop-color="#1E85E9"/>
      <stop offset="20.276%" stop-color="#8671F3"/>
      <stop offset="70.727%" stop-color="#C06CFD" stop-opacity=".99"/>
      <stop offset="100%" stop-color="#FFBEE8"/>
    </linearGradient>
    <circle id="img-stages-N" cx="60" cy="60" r="60"/>
    <filter id="img-stages-M" width="136.7%" height="136.7%" x="-18.3%" y="-15%" filterUnits="objectBoundingBox">
      <feMorphology in="SourceAlpha" operator="dilate" radius="5" result="shadowSpreadOuter1"/>
      <feOffset dy="4" in="shadowSpreadOuter1" result="shadowOffsetOuter1"/>
      <feGaussianBlur in="shadowOffsetOuter1" result="shadowBlurOuter1" stdDeviation="5"/>
      <feComposite in="shadowBlurOuter1" in2="SourceAlpha" operator="out" result="shadowBlurOuter1"/>
      <feColorMatrix in="shadowBlurOuter1" values="0 0 0 0 0.0415817482   0 0 0 0 0.0415817482   0 0 0 0 0.0415817482  0 0 0 0.1 0"/>
    </filter>
    <circle id="img-stages-P" cx="60" cy="60" r="45"/>
    <filter id="img-stages-O" width="137.8%" height="137.8%" x="-18.9%" y="-14.4%" filterUnits="objectBoundingBox">
      <feOffset dy="4" in="SourceAlpha" result="shadowOffsetOuter1"/>
      <feGaussianBlur in="shadowOffsetOuter1" result="shadowBlurOuter1" stdDeviation="5"/>
      <feColorMatrix in="shadowBlurOuter1" values="0 0 0 0 0.0415817482   0 0 0 0 0.0415817482   0 0 0 0 0.0415817482  0 0 0 0.1 0"/>
    </filter>
    <linearGradient id="img-stages-Q" x1="90.897%" x2="0%" y1="86.127%" y2="10.674%">
      <stop offset="0%" stop-color="#1E85E9"/>
      <stop offset="20.276%" stop-color="#8671F3"/>
      <stop offset="70.727%" stop-color="#C06CFD" stop-opacity=".99"/>
      <stop offset="100%" stop-color="#FFBEE8"/>
    </linearGradient>
    <linearGradient id="img-stages-R" x1="100%" x2="0%" y1="100%" y2="0%">
      <stop offset="0%" stop-color="#1E85E9"/>
      <stop offset="20.276%" stop-color="#8671F3"/>
      <stop offset="70.727%" stop-color="#C06CFD" stop-opacity=".4"/>
      <stop offset="100%" stop-color="#FFBEE8" stop-opacity=".3"/>
    </linearGradient>
    <linearGradient id="img-stages-S" x1="100%" x2="0%" y1="97.334%" y2="2.666%">
      <stop offset="0%" stop-color="#1E85E9"/>
      <stop offset="20.276%" stop-color="#8671F3"/>
      <stop offset="70.727%" stop-color="#C06CFD" stop-opacity=".99"/>
      <stop offset="100%" stop-color="#FFBEE8"/>
    </linearGradient>
    <linearGradient id="img-stages-T" x1="95.58%" x2="4.42%" y1="100%" y2="0%">
      <stop offset="0%" stop-color="#1E85E9"/>
      <stop offset="20.276%" stop-color="#8671F3"/>
      <stop offset="70.727%" stop-color="#C06CFD" stop-opacity=".99"/>
      <stop offset="100%" stop-color="#FFBEE8"/>
    </linearGradient>
  </defs>
  <g fill="none" fill-rule="evenodd" transform="translate(15 11)">
    <polyline stroke="url(#img-stages-a)" stroke-width=".5" points="180 121 180 146 202 168" opacity=".5"/>
    <polyline stroke="url(#img-stages-a)" stroke-width=".5" points="180 393 180 418 202 440" opacity=".5" transform="matrix(1 0 0 -1 0 833)"/>
    <polyline stroke="url(#img-stages-a)" stroke-width=".5" points="500 393 500 418 522 440" opacity=".5" transform="rotate(180 511 416.5)"/>
    <polyline stroke="url(#img-stages-a)" stroke-width=".5" points="500 121 500 146 522 168" opacity=".5" transform="matrix(-1 0 0 1 1022 0)"/>
    <polyline stroke="url(#img-stages-b)" stroke-width=".5" points="126 210 153 210 175 222" opacity=".5"/>
    <polyline stroke="url(#img-stages-b)" stroke-width=".5" points="126 345 153 345 175 357" opacity=".5" transform="matrix(1 0 0 -1 0 702)"/>
    <polyline stroke="url(#img-stages-b)" stroke-width=".5" points="525 210 552 210 574 222" opacity=".5" transform="matrix(-1 0 0 1 1099 0)"/>
    <polyline stroke="url(#img-stages-b)" stroke-width=".5" points="525 345 552 345 574 357" opacity=".5" transform="rotate(180 549.5 351)"/>
    <g transform="translate(458)">
      <use fill="#000" filter="url(#img-stages-c)" xlink:href="#img-stages-d"/>
      <use fill="#FFF" stroke="url(#img-stages-e)" stroke-width="10" xlink:href="#img-stages-d"/>
      <use fill="#000" filter="url(#img-stages-f)" xlink:href="#img-stages-g"/>
      <use fill="#FFF" xlink:href="#img-stages-g"/>
      <path fill="url(#img-stages-h)" fill-rule="nonzero" d="M70.9500013,34 C72.7178475,34 74.2211407,35.1326865 74.7737405,36.7119194 C75.8650028,36.8206722 76.7239454,37.7040166 76.7952156,38.8020621 L76.8000015,38.9500002 L76.8,39.4 L77.2500015,39.4000002 C78.4408656,39.4000002 79.4156465,40.3251618 79.4948108,41.4959515 L79.5000016,41.6500003 L79.5000016,73.2282242 C79.5000016,73.3408923 79.4577371,73.4494614 79.3815607,73.532475 L79.3815607,73.532475 L69.542864,84.2542528 C69.4576364,84.3471301 69.3373603,84.4000002 69.2113049,84.4000002 L69.2113049,84.4000002 L43.9500002,84.4000002 C42.7073595,84.4000002 41.7000001,83.3926426 41.7000001,82.1500019 L41.7000001,82.1500019 L41.7,81.7 L41.2500001,81.7000001 C40.057065,81.7000001 39.0809652,80.7716195 39.0047859,79.5979399 L39,79.4500018 L39,38.9500002 C39,37.7570651 39.9283824,36.7809653 41.102062,36.704786 L41.2500001,36.7000001 L67.130448,36.7000166 C67.6864225,35.1269982 69.1865996,34 70.9500013,34 Z M66.9,40.3 L43.9500002,40.3000003 C43.2044158,40.3000003 42.6000001,40.9044159 42.6000001,41.6500003 L42.6000001,41.6500003 L42.6000001,82.1500019 C42.6000001,82.8955864 43.2044158,83.500002 43.9500002,83.500002 L43.9500002,83.500002 L68.7,83.5 L68.7000012,74.9500016 C68.7000012,73.7570665 69.6283836,72.7809667 70.8020631,72.7047874 L70.9500013,72.7000015 L78.6,72.7 L78.6000001,41.6500003 C78.6000001,40.9921317 78.1294356,40.4441696 77.506533,40.3243428 L77.3800155,40.3061802 L77.2500015,40.3000003 L75,40.3 L75.0000014,61.0432691 C75.0000014,61.091585 74.9922216,61.1394244 74.9771032,61.1849878 L74.9489766,61.2514008 L71.3489765,68.1523713 C71.1807439,68.4748624 70.7192586,68.4748624 70.5510261,68.1523713 L70.5510261,68.1523713 L66.9510259,61.2514008 C66.9175057,61.1871447 66.9000011,61.115743 66.9000011,61.0432691 L66.9000011,61.0432691 L66.9,40.3 Z M78.096,73.6 L70.9500013,73.6000016 C70.2482747,73.6000016 69.6715974,74.1354009 69.6061811,74.8199876 L69.6000012,74.9500016 L69.6,82.859 L78.096,73.6 Z M66.92471,37.6000825 L41.2500001,37.6000001 C40.5482736,37.6000001 39.9715962,38.1353994 39.90618,38.8199862 L39.9,38.9500002 L39.9,79.4500018 C39.9,80.1517283 40.4353993,80.7284057 41.1199861,80.7938219 L41.2500001,80.8000019 L41.7,80.8 L41.7000001,41.6500003 C41.7000001,40.4591363 42.6251617,39.4843553 43.7959514,39.405191 L43.9500002,39.4000002 L66.9,39.4 L66.9000011,38.0500002 C66.9000011,37.8979243 66.908383,37.7478062 66.92471,37.6000825 Z M55.7455817,74.0500016 C55.9941099,74.0500016 56.1955817,74.2514735 56.1955817,74.5000016 C56.1955817,74.7209155 56.0363941,74.9046492 55.8264698,74.9427515 L55.7455817,74.9500016 L46.3597415,74.9500016 C46.1112134,74.9500016 45.9097415,74.7485298 45.9097415,74.5000016 C45.9097415,74.2790877 46.0689291,74.0953541 46.2788534,74.0572517 L46.3597415,74.0500016 L55.7455817,74.0500016 Z M61.5000009,70.4500014 C61.748529,70.4500014 61.9500009,70.6514733 61.9500009,70.9000015 C61.9500009,71.1209154 61.7908133,71.304649 61.580889,71.3427514 L61.5000009,71.3500015 L46.3597415,71.3500015 C46.1112134,71.3500015 45.9097415,71.1485296 45.9097415,70.9000015 C45.9097415,70.6790876 46.0689291,70.4953539 46.2788534,70.4572516 L46.3597415,70.4500014 L61.5000009,70.4500014 Z M71.892,65.163 L70.007,65.163 L70.9500013,66.9706013 L71.892,65.163 Z M55.7455817,65.5000013 C55.9941099,65.5000013 56.1955817,65.7014731 56.1955817,65.9500013 C56.1955817,66.1709152 56.0363941,66.3546488 55.8264698,66.3927512 L55.7455817,66.4000013 L46.3597415,66.4000013 C46.1112134,66.4000013 45.9097415,66.1985294 45.9097415,65.9500013 C45.9097415,65.7290874 46.0689291,65.5453537 46.2788534,65.5072514 L46.3597415,65.5000013 L55.7455817,65.5000013 Z M74.1,60.55 L67.8,60.55 L67.8000011,60.9325011 L69.538,64.263 L72.362,64.263 L74.1000014,60.9307011 L74.1,60.55 Z M61.5000009,61.9000011 C61.748529,61.9000011 61.9500009,62.101473 61.9500009,62.3500011 C61.9500009,62.570915 61.7908133,62.7546487 61.580889,62.792751 L61.5000009,62.8000011 L46.3597415,62.8000011 C46.1112134,62.8000011 45.9097415,62.5985293 45.9097415,62.3500011 C45.9097415,62.1290872 46.0689291,61.9453536 46.2788534,61.9072512 L46.3597415,61.9000011 L61.5000009,61.9000011 Z M74.1000014,40.4935003 L67.8000011,40.4935003 L67.8,59.65 L74.1,59.65 L74.1000014,40.4935003 Z M61.9500009,44.8000004 C62.6955854,44.8000004 63.3000003,45.404416 63.3000003,46.1500005 L63.3000003,46.1500005 L63.3000003,55.1500008 C63.3000003,55.8955853 62.6955854,56.5000009 61.9500009,56.5000009 L61.9500009,56.5000009 L46.6500003,56.5000009 C45.9044159,56.5000009 45.3000003,55.8955853 45.3000003,55.1500008 L45.3000003,55.1500008 L45.3000003,46.1500005 C45.3000003,45.404416 45.9044159,44.8000004 46.6500003,44.8000004 L46.6500003,44.8000004 Z M61.9500009,45.7000005 L46.6500003,45.7000005 C46.4014722,45.7000005 46.2000003,45.9014723 46.2000003,46.1500005 L46.2000003,46.1500005 L46.2000003,55.1500008 C46.2000003,55.398529 46.4014722,55.6000009 46.6500003,55.6000009 L46.6500003,55.6000009 L61.9500009,55.6000009 C62.1985291,55.6000009 62.4000009,55.398529 62.4000009,55.1500008 L62.4000009,55.1500008 L62.4000009,46.1500005 C62.4000009,45.9014723 62.1985291,45.7000005 61.9500009,45.7000005 L61.9500009,45.7000005 Z M56.2547117,48.9227122 L56.3200263,48.9802051 L58.3902901,51.1893361 C58.5602339,51.3706792 58.5509929,51.6554536 58.3696497,51.8253974 C58.2084558,51.9764586 57.9655385,51.9859416 57.7941899,51.8588209 L57.7335884,51.8047571 L55.9506007,49.9021006 L54.0487518,51.4582289 C53.939919,51.5472358 53.7972166,51.5792809 53.6631651,51.5484893 L53.5841125,51.5224269 L52.0050005,50.8336007 L50.455801,52.246883 C50.292533,52.3957001 50.0495077,52.4018222 49.8799339,52.2723436 L49.820086,52.2174467 C49.6712689,52.0541788 49.6651467,51.8111535 49.7946253,51.6415797 L49.8495222,51.5817317 L51.6145857,49.9728938 C51.7238575,49.8732937 51.8733994,49.8349466 52.0143395,49.8659454 L52.0974804,49.8929308 L53.6907006,50.5870007 L55.7067914,48.9395752 C55.8671542,48.8084253 56.0924391,48.8056298 56.2547117,48.9227122 Z M74.9835173,37.6711119 L74.9950449,37.8478643 L74.9950449,37.8478643 L75.0000014,38.0500002 L75,39.4 L75.9,39.4 L75.9000015,38.9500002 C75.9000015,38.35606 75.5164467,37.8517039 74.9835173,37.6711119 Z M70.9500013,34.9 C69.2103042,34.9 67.8000011,36.3103031 67.8000011,38.0500002 L67.8000011,38.0500002 L67.8000011,39.4 L74.1000014,39.4 L74.1000014,38.0500002 C74.1000014,36.368293 72.7821515,34.9943862 71.122833,34.904661 L71.122833,34.904661 Z"/>
    </g>
    <g transform="translate(458 454)">
      <use fill="#000" filter="url(#img-stages-i)" xlink:href="#img-stages-j"/>
      <use fill="#FFF" stroke="url(#img-stages-e)" stroke-width="10" xlink:href="#img-stages-j"/>
      <use fill="#000" filter="url(#img-stages-k)" xlink:href="#img-stages-l"/>
      <use fill="#FFF" xlink:href="#img-stages-l"/>
      <path fill="url(#img-stages-m)" fill-rule="nonzero" d="M81.7500021,35 C82.9429372,35 83.9190369,35.9283824 83.9952162,37.102062 L84,37.2500001 L84,63.71 L86.6833297,62.4491745 L89.5362434,67.3795094 L86.3993934,69.5607907 C86.332534,69.6082868 86.2915636,69.707499 86.3053292,69.7876304 C86.4009078,70.3398585 86.4503528,70.8986973 86.4503528,71.4500194 C86.4503528,71.9989575 86.4013949,72.5467355 86.3054236,73.1012193 C86.2915649,73.1818837 86.3325373,73.281101 86.3950401,73.3255353 L86.3950401,73.3255353 L89.5479088,75.5096978 L86.6826206,80.439889 L83.2343217,78.8181669 C83.1592758,78.7834178 83.0514523,78.7976787 82.9879926,78.85077 C82.1400723,79.5599055 81.1708656,80.1176476 80.1158039,80.503704 C80.0374126,80.5320835 79.9706397,80.6194715 79.9638848,80.702592 L79.9638848,80.702592 L79.6532088,84.50002 L73.9467949,84.50002 L73.6360967,80.702319 C73.6293694,80.6194706 73.562597,80.5320856 73.482748,80.5031756 C72.4291382,80.1176476 71.4599314,79.5599055 70.611952,78.8507205 C70.5485514,78.7976787 70.4407279,78.7834178 70.3681115,78.8170332 L70.3681115,78.8170332 L66.9173832,80.439889 L66.139,79.1 L37.6500003,79.1000018 C37.4014722,79.1000018 37.2000003,78.8985299 37.2000003,78.6500017 C37.2000003,78.4290878 37.3591879,78.2453542 37.5691122,78.2072518 L37.6500003,78.2000017 L41.7,78.2 L41.7000005,76.8500017 C41.7000005,75.6570666 42.6283828,74.6809668 43.8020624,74.6047875 L43.9500006,74.6000016 L47.225,74.6 L48.725,70.1 L32.2500001,70.1000014 C31.057065,70.1000014 30.0809652,69.171619 30.0047859,67.9979394 L30,67.8500013 L30,37.2500001 C30,36.057065 30.9283824,35.0809652 32.102062,35.0047859 L32.2500001,35 L81.7500021,35 Z M78.8241019,59.300001 L74.7750018,59.300001 L74.5331419,62.2599472 C74.5010689,62.6546171 74.2521327,63.012465 73.9004807,63.1852595 L73.9004807,63.1852595 L73.7920178,63.231398 C72.8484968,63.5766517 71.968028,64.0884464 71.184062,64.7440253 C70.8498403,65.014934 70.3700638,65.0713423 69.9850906,64.8867931 L69.9850906,64.8867931 L67.2816015,63.6155011 L65.2575014,67.1129013 L67.7218291,68.8270803 C68.0359264,69.0502111 68.2157535,69.4319251 68.1956761,69.8139738 L68.1956761,69.8139738 L68.1814898,69.9411187 C68.0945575,70.4433906 68.0496509,70.9509354 68.0496509,71.4500194 C68.0496509,71.946433 68.0940281,72.4429572 68.1815842,72.9488257 C68.2540611,73.3706759 68.070818,73.8144109 67.7174758,74.0653537 L67.7174758,74.0653537 L65.2476014,75.7754016 L66.7323061,78.3273927 C66.790394,78.383891 66.833276,78.4559426 66.8542286,78.5368241 L67.2807015,79.2737018 L69.9875201,78.0014702 C70.3396088,77.8384396 70.7636894,77.8735693 71.0859746,78.0838412 L71.0859746,78.0838412 L71.1893944,78.1603871 C71.9572127,78.8025313 72.8356352,79.3080305 73.7905626,79.6574523 C74.2001997,79.8057505 74.4978925,80.1953407 74.5331221,80.6292062 L74.5331221,80.6292062 L74.7759018,83.6000019 L78.8232019,83.6000019 L79.0668618,80.6294498 C79.0989341,80.2347882 79.3478609,79.8769467 79.6995227,79.7041276 L79.6995227,79.7041276 L79.8079892,79.6579808 C80.7643685,79.3080305 81.6427911,78.8025313 82.4105502,78.1604365 C82.7411854,77.8838223 83.2212739,77.8203251 83.6149131,78.0026039 L83.6149131,78.0026039 L86.3184022,79.2737018 L88.3515023,75.7754016 L85.8781946,74.0623139 C85.5640866,73.8392012 85.3842489,73.4574646 85.4043271,73.0754195 L85.4043271,73.0754195 L85.4185142,72.9482769 C85.5059757,72.4429572 85.5503528,71.946433 85.5503528,71.4500194 C85.5503528,70.9509354 85.5054462,70.4433906 85.4184185,69.9405653 C85.3459463,69.5187083 85.5291776,69.0750034 85.8818722,68.8244813 L85.8818722,68.8244813 L88.3416023,67.1129013 L86.3175022,63.6155011 L83.6179161,64.8853672 C83.2687375,65.0527448 82.8452007,65.0237919 82.5164504,64.8156345 L82.5164504,64.8156345 L82.4106096,64.739635 C81.6319777,64.0884481 80.7515123,63.5766557 79.8094672,63.2319371 C79.3998161,63.0836625 79.102112,62.6940654 79.0668911,62.2603058 L79.0668911,62.2603058 L78.8241019,59.300001 Z M64.065,75.5 L43.9500006,75.5000016 C43.248274,75.5000016 42.6715967,76.0354009 42.6061804,76.7199876 L42.6000005,76.8500017 L42.6000005,78.2000017 L65.616,78.2 L64.0520949,75.5096978 L64.065,75.5 Z M76.3500018,66.5000013 C79.0838115,66.5000013 81.300002,68.7161918 81.300002,71.4500014 C81.300002,74.1838111 79.0838115,76.4000016 76.3500018,76.4000016 C73.6161922,76.4000016 71.4000016,74.1838111 71.4000016,71.4500014 C71.4000016,68.7161918 73.6161922,66.5000013 76.3500018,66.5000013 Z M76.3500018,67.4000013 C74.1132485,67.4000013 72.3000017,69.2132481 72.3000017,71.4500014 C72.3000017,73.6867548 74.1132485,75.5000016 76.3500018,75.5000016 C78.5867552,75.5000016 80.400002,73.6867548 80.400002,71.4500014 C80.400002,69.2132481 78.5867552,67.4000013 76.3500018,67.4000013 Z M64.3251014,70.1000014 L49.6740008,70.1000014 L48.1737007,74.6000016 L65.364,74.6 L65.739,74.34 L64.3251014,70.1000014 Z M67.247,70.1 L65.274,70.1 L66.51,73.806 L67.2006303,73.3285751 C67.2507574,73.2929695 67.2863361,73.2282584 67.2951858,73.1643294 L67.2946747,73.1017681 C67.1986089,72.5467355 67.1496509,71.9989575 67.1496509,71.4500194 C67.1496509,70.8986973 67.1990959,70.3398585 67.2945791,69.7881837 L67.247,70.1 Z M83.1,43.063 L30.9,43.063 L30.9,67.8500013 C30.9,68.5517278 31.4353993,69.1284052 32.1199861,69.1938214 L32.2500001,69.2000014 L66.682,69.2 L64.0637604,67.3795094 L66.916674,62.4491745 L70.3711146,64.0737897 C70.4455565,64.1094732 70.5532528,64.0968111 70.6120114,64.0492517 C71.4697374,63.3319166 72.4407413,62.767496 73.4842259,62.3856665 C73.562598,62.3572995 73.6293644,62.2699219 73.6361284,62.18669 L73.6361284,62.18669 L73.9469016,58.4000189 L79.6531021,58.4000189 L79.963907,62.187078 C79.970634,62.2699228 80.0373998,62.3572973 80.1172599,62.3862059 C81.1592685,62.7675004 82.1302685,63.3319184 82.9826602,64.0448614 C83.0142125,64.0704366 83.0563334,64.0864898 83.1002104,64.0917701 L83.1,43.063 Z M63.5558763,49.0297326 L63.6181994,49.0818025 L69.0181996,54.4818027 C69.1744093,54.6380124 69.191766,54.8804944 69.0702695,55.0558757 L69.0181996,55.1181989 L63.6181994,60.5181991 C63.4424634,60.693935 63.1575392,60.693935 62.9818033,60.5181991 C62.8255935,60.3619893 62.8082369,60.1195074 62.9297334,59.944126 L62.9818033,59.8818029 L68.0637015,54.8000008 L62.9818033,49.7181986 C62.8255935,49.5619889 62.8082369,49.3195069 62.9297334,49.1441256 L62.9818033,49.0818025 C63.138013,48.9255928 63.380495,48.9082361 63.5558763,49.0297326 Z M49.0941258,49.0297326 C49.2695071,48.9082361 49.5119891,48.9255928 49.6681988,49.0818025 L49.6681988,49.0818025 L49.7202687,49.1441256 C49.8417652,49.3195069 49.8244086,49.5619889 49.6681988,49.7181986 L49.6681988,49.7181986 L44.5863006,54.8000008 L49.6681988,59.8818029 L49.7202687,59.944126 C49.8417652,60.1195074 49.8244086,60.3619893 49.6681988,60.5181991 C49.4924629,60.693935 49.2075386,60.693935 49.0318027,60.5181991 L49.0318027,60.5181991 L43.6318025,55.1181989 L43.5797326,55.0558757 C43.4582361,54.8804944 43.4755928,54.6380124 43.6318025,54.4818027 L43.6318025,54.4818027 L49.0318027,49.0818025 Z M59.1081126,49.8476954 C59.2986607,49.9594736 59.3765932,50.1897458 59.3032404,50.390094 L59.2685661,50.463532 L54.0012808,59.4426583 C53.8755302,59.6570249 53.5998108,59.7288624 53.3854442,59.6031118 C53.1948961,59.4913336 53.1169636,59.2610614 53.1903163,59.0607133 L53.2249906,58.9872753 L58.492276,50.0081489 C58.6180266,49.7937823 58.893746,49.7219448 59.1081126,49.8476954 Z M81.7500021,35.9 L32.2500001,35.9 C31.5482736,35.9 30.9715962,36.4353993 30.90618,37.1199861 L30.9,37.2500001 L30.9,42.163 L83.1,42.163 L83.1000021,37.2500001 C83.1000021,36.5482736 82.5646028,35.9715962 81.8800161,35.90618 L81.7500021,35.9 Z M34.9500002,38.1500001 C35.4470565,38.1500001 35.8500002,38.5529439 35.8500002,39.0500002 C35.8500002,39.5470565 35.4470565,39.9500002 34.9500002,39.9500002 C34.4529439,39.9500002 34.0500002,39.5470565 34.0500002,39.0500002 C34.0500002,38.5529439 34.4529439,38.1500001 34.9500002,38.1500001 Z M38.5500003,38.1500001 C39.0470566,38.1500001 39.4500004,38.5529439 39.4500004,39.0500002 C39.4500004,39.5470565 39.0470566,39.9500002 38.5500003,39.9500002 C38.052944,39.9500002 37.6500003,39.5470565 37.6500003,39.0500002 C37.6500003,38.5529439 38.052944,38.1500001 38.5500003,38.1500001 Z M42.1500005,38.1500001 C42.6470568,38.1500001 43.0500005,38.5529439 43.0500005,39.0500002 C43.0500005,39.5470565 42.6470568,39.9500002 42.1500005,39.9500002 C41.6529442,39.9500002 41.2500004,39.5470565 41.2500004,39.0500002 C41.2500004,38.5529439 41.6529442,38.1500001 42.1500005,38.1500001 Z"/>
    </g>
    <g transform="translate(578 151)">
      <use fill="#000" filter="url(#img-stages-n)" xlink:href="#img-stages-o"/>
      <use fill="#FFF" stroke="url(#img-stages-e)" stroke-width="10" xlink:href="#img-stages-o"/>
      <use fill="#000" filter="url(#img-stages-p)" xlink:href="#img-stages-q"/>
      <use fill="#FFF" xlink:href="#img-stages-q"/>
      <path fill="url(#img-stages-r)" fill-rule="nonzero" d="M44,0.5 C44.8284271,0.5 45.5,1.17157288 45.5,2 L45.5,2 L45.5,54 C45.5,54.8284271 44.8284271,55.5 44,55.5 L44,55.5 L5,55.5 C2.51471863,55.5 0.5,53.4852814 0.5,51 L0.5,51 L0.5,2 C0.5,1.17157288 1.17157288,0.5 2,0.5 L2,0.5 Z M44,46.5 L5.5,46.5 C3.290861,46.5 1.5,48.290861 1.5,50.5 C1.5,52.709139 3.290861,54.5 5.5,54.5 L5.5,54.5 L44,54.5 C44.2761424,54.5 44.5,54.2761424 44.5,54 L44.5,54 L44.5,52.5 L24,52.5 C23.7238576,52.5 23.5,52.2761424 23.5,52 C23.5,51.7545401 23.6768752,51.5503916 23.9101244,51.5080557 L24,51.5 L44.5,51.5 L44.5,49.5 L6,49.5 C5.72385763,49.5 5.5,49.2761424 5.5,49 C5.5,48.7545401 5.67687516,48.5503916 5.91012437,48.5080557 L6,48.5 L44.5,48.5 L44.5,47 C44.5,46.7545401 44.3231248,46.5503916 44.0898756,46.5080557 L44,46.5 Z M25.5,1.5 L2,1.5 C1.72385763,1.5 1.5,1.72385763 1.5,2 L1.5,2 L1.49977979,47.4998057 C2.41199508,46.2854695 3.86426942,45.5 5.5,45.5 L5.5,45.5 L44,45.5 C44.1755804,45.5 44.3441149,45.5301673 44.500703,45.5856015 L44.5,2 C44.5,1.72385763 44.2761424,1.5 44,1.5 L44,1.5 L38.5,1.5 L38.5,13.5857864 C38.5,14.3654826 37.9051119,15.0062351 37.14446,15.0789199 L37,15.0857864 C36.6021753,15.0857864 36.2206444,14.9277512 35.9393398,14.6464466 L35.9393398,14.6464466 L32.3535534,11.0606602 C32.1582912,10.865398 31.8417088,10.865398 31.6464466,11.0606602 L31.6464466,11.0606602 L28.0606602,14.6464466 C27.4748737,15.232233 26.5251263,15.232233 25.9393398,14.6464466 C25.6580353,14.365142 25.5,13.9836112 25.5,13.5857864 L25.5,13.5857864 L25.5,1.5 Z M23,20.5 C28.2467051,20.5 32.5,24.7532949 32.5,30 C32.5,35.2467051 28.2467051,39.5 23,39.5 C17.7532949,39.5 13.5,35.2467051 13.5,30 C13.5,24.7532949 17.7532949,20.5 23,20.5 Z M23,21.5 C18.3055796,21.5 14.5,25.3055796 14.5,30 C14.5,34.6944204 18.3055796,38.5 23,38.5 C27.6944204,38.5 31.5,34.6944204 31.5,30 C31.5,25.3055796 27.6944204,21.5 23,21.5 Z M27.3535534,27.6464466 C27.5271197,27.820013 27.5464049,28.0894374 27.4114088,28.2843055 L27.3535534,28.3535534 L22,33.7071068 L18.6464466,30.3535534 C18.4511845,30.1582912 18.4511845,29.8417088 18.6464466,29.6464466 C18.820013,29.4728803 19.0894374,29.4535951 19.2843055,29.5885912 L19.3535534,29.6464466 L22,32.293 L26.6464466,27.6464466 C26.8417088,27.4511845 27.1582912,27.4511845 27.3535534,27.6464466 Z M37.5,1.5 L26.5,1.5 L26.5,13.5857864 C26.5,13.691873 26.5337142,13.7944836 26.5952092,13.8792937 L26.5952092,13.8792937 L26.6464466,13.9393398 C26.8417088,14.134602 27.1582912,14.134602 27.3535534,13.9393398 L27.3535534,13.9393398 L30.9393398,10.3535534 C31.5251263,9.76776695 32.4748737,9.76776695 33.0606602,10.3535534 L33.0606602,10.3535534 L36.6464466,13.9393398 C36.7402148,14.033108 36.8673918,14.0857864 37,14.0857864 C37.2761424,14.0857864 37.5,13.8619288 37.5,13.5857864 L37.5,13.5857864 L37.5,1.5 Z" transform="translate(37 32)"/>
    </g>
    <g transform="translate(578 302)">
      <use fill="#000" filter="url(#img-stages-s)" xlink:href="#img-stages-t"/>
      <use fill="#FFF" stroke="url(#img-stages-e)" stroke-width="10" xlink:href="#img-stages-t"/>
      <use fill="#000" filter="url(#img-stages-u)" xlink:href="#img-stages-v"/>
      <use fill="#FFF" xlink:href="#img-stages-v"/>
      <path fill="url(#img-stages-w)" fill-rule="nonzero" d="M23,7.5 C23.0516188,7.5 23.1014106,7.50782206 23.1482548,7.52234552 C23.6141385,7.56923188 24.0519948,7.83320872 24.3023647,8.27135603 L24.3023647,8.27135603 L34.9924908,26.9790766 C35.3658411,27.6324398 35.1973108,28.4613102 34.598466,28.9169823 C30.6379994,31.9307412 28.6222994,35.1794986 28.5053991,38.676255 C31.28826,39.3361161 33.3860834,41.7876462 33.4957769,44.7658642 L33.4957769,44.7658642 L33.5092837,45.5 L12.5,45.5 L12.5,45 C12.5,41.9285081 14.6304001,39.3545979 17.4941537,38.6753157 C17.3777003,35.1794943 15.3619958,31.9307335 11.4015201,28.9169718 C10.8026576,28.4612616 10.6341385,27.6323619 11.0075289,26.9790422 L11.0075289,26.9790422 L21.6976353,8.27135603 C21.8305192,8.03880911 22.0232447,7.84608368 22.2557916,7.71319972 L22.2557916,7.71319972 L22.3846248,7.64748935 C22.5357022,7.5793181 22.6932687,7.53822279 22.851349,7.52257377 C22.8978931,7.50793184 22.9480203,7.5 23,7.5 Z M27,39.5 L19,39.5 C16.1846948,39.5 13.8634354,41.6152615 13.5388119,44.3431942 L13.5388119,44.3431942 L13.523,44.5 L32.476,44.5 L32.4627324,44.3558215 C32.1518833,41.6876225 29.9339497,39.6117753 27.2210238,39.5043679 L27.2210238,39.5043679 L27,39.5 Z M22.5,8.881 L11.8757535,27.4752136 C11.7512923,27.6929829 11.8074631,27.9692717 12.0070873,28.1211776 C16.0793679,31.2200183 18.2510807,34.6309566 18.4798134,38.3419976 L18.4798134,38.3419976 L18.486,38.5 L27.513,38.5 L27.5201866,38.3419983 C27.7421913,34.7401096 29.7945605,31.4209289 33.6385233,28.3954177 L33.6385233,28.3954177 L33.9929089,28.1211805 C34.1925225,27.9692908 34.2486985,27.6930046 34.1242476,27.4752156 L34.1242476,27.4752156 L23.5,8.883 L23.5009499,24.5355804 C25.1346576,24.7697216 26.4042014,26.132103 26.4948211,27.8079648 L26.5,28 C26.5,29.9329966 24.9329966,31.5 23,31.5 C21.0670034,31.5 19.5,29.9329966 19.5,28 C19.5,26.2367468 20.8038784,24.7780307 22.5000497,24.5354373 L22.5,8.881 Z M23,25.5 C21.6192881,25.5 20.5,26.6192881 20.5,28 C20.5,29.3807119 21.6192881,30.5 23,30.5 C24.3807119,30.5 25.5,29.3807119 25.5,28 C25.5,26.6192881 24.3807119,25.5 23,25.5 Z M5,-0.5 C5.82842712,-0.5 6.5,0.171572875 6.5,1 L6.5,1 L6.5,2.5 L19.5354373,2.50004975 C19.7691658,0.865860323 21.1317612,-0.404182882 22.8079648,-0.494821137 L23,-0.5 C24.7632532,-0.5 26.2219693,0.803878424 26.4645627,2.50004975 L39.5,2.5 L39.5,1 C39.5,0.220303883 40.0948881,-0.420448678 40.85554,-0.493133422 L41,-0.5 L45,-0.5 C45.8284271,-0.5 46.5,0.171572875 46.5,1 L46.5,1 L46.5,5 C46.5,5.82842712 45.8284271,6.5 45,6.5 L45,6.5 L41,6.5 C40.1715729,6.5 39.5,5.82842712 39.5,5 L39.5,5 L39.5,3.5 L29.1787465,3.49982888 C33.8131539,5.0477475 37.7274698,8.30402376 40.0991608,12.6187653 C40.3866455,12.5406744 40.6885728,12.5 41,12.5 C42.9329966,12.5 44.5,14.0670034 44.5,16 C44.5,17.9329966 42.9329966,19.5 41,19.5 C39.0670034,19.5 37.5,17.9329966 37.5,16 C37.5,14.7361824 38.1698484,13.6288162 39.1738799,13.013567 C36.5075855,8.22196553 31.828146,4.82144533 26.4034766,3.81233689 C26.038474,5.35398509 24.6530701,6.5 23,6.5 C21.3469299,6.5 19.961526,5.35398509 19.594939,3.81310613 C14.1723304,4.82144998 9.49293313,8.2213198 6.82506873,13.0138988 C7.82970507,13.6280783 8.5,14.7357612 8.5,16 C8.5,17.9329966 6.93299662,19.5 5,19.5 C3.06700338,19.5 1.5,17.9329966 1.5,16 C1.5,14.0670034 3.06700338,12.5 5,12.5 C5.3117852,12.5 5.61404853,12.5407679 5.90175013,12.6172639 L5.76104844,12.8776848 C8.11730716,8.43392633 12.0948044,5.07861798 16.8207179,3.49999502 L6.5,3.5 L6.5,5 C6.5,5.77969612 5.90511192,6.42044868 5.14446001,6.49313342 L5,6.5 L1,6.5 C0.171572875,6.5 -0.5,5.82842712 -0.5,5 L-0.5,5 L-0.5,1 C-0.5,0.171572875 0.171572875,-0.5 1,-0.5 L1,-0.5 Z M5,13.5 C3.61928813,13.5 2.5,14.6192881 2.5,16 C2.5,17.3807119 3.61928813,18.5 5,18.5 C6.38071187,18.5 7.5,17.3807119 7.5,16 C7.5,14.6192881 6.38071187,13.5 5,13.5 Z M41,13.5 C39.6192881,13.5 38.5,14.6192881 38.5,16 C38.5,17.3807119 39.6192881,18.5 41,18.5 C42.3807119,18.5 43.5,17.3807119 43.5,16 C43.5,14.6192881 42.3807119,13.5 41,13.5 Z M23,0.5 C21.6192881,0.5 20.5,1.61928813 20.5,3 C20.5,4.38071187 21.6192881,5.5 23,5.5 C24.3807119,5.5 25.5,4.38071187 25.5,3 C25.5,1.61928813 24.3807119,0.5 23,0.5 Z M5,0.5 L1,0.5 C0.723857625,0.5 0.5,0.723857625 0.5,1 L0.5,1 L0.5,5 C0.5,5.27614237 0.723857625,5.5 1,5.5 L1,5.5 L5,5.5 C5.27614237,5.5 5.5,5.27614237 5.5,5 L5.5,5 L5.5,1 C5.5,0.723857625 5.27614237,0.5 5,0.5 L5,0.5 Z M45,0.5 L41,0.5 C40.7238576,0.5 40.5,0.723857625 40.5,1 L40.5,1 L40.5,5 C40.5,5.27614237 40.7238576,5.5 41,5.5 L41,5.5 L45,5.5 C45.2761424,5.5 45.5,5.27614237 45.5,5 L45.5,5 L45.5,1 C45.5,0.723857625 45.2761424,0.5 45,0.5 L45,0.5 Z" transform="translate(37 36)"/>
    </g>
    <g transform="translate(120)">
      <use fill="#000" filter="url(#img-stages-x)" xlink:href="#img-stages-y"/>
      <use fill="#FFF" stroke="url(#img-stages-e)" stroke-width="10" xlink:href="#img-stages-y"/>
      <use fill="#000" filter="url(#img-stages-z)" xlink:href="#img-stages-A"/>
      <use fill="#FFF" xlink:href="#img-stages-A"/>
      <path fill="url(#img-stages-B)" fill-rule="nonzero" d="M43,3.5 C46.4863904,3.5 49.3720453,6.29732628 49.495861,9.76767 L49.5,10 L49.5,46 C49.5,49.4992066 46.6901362,52.3726026 43.2315123,52.4958791 L43,52.5 L14.378,52.4995729 L16.3535534,54.4748737 C16.5271197,54.6484401 16.5464049,54.9178645 16.4114088,55.1127326 L16.3535534,55.1819805 C16.179987,55.3555469 15.9105626,55.374832 15.7156945,55.239836 L15.6464466,55.1819805 L12.8180195,52.3535534 C12.6444531,52.179987 12.625168,51.9105626 12.760164,51.7156945 L12.8180195,51.6464466 L15.6464466,48.8180195 C15.8417088,48.6227573 16.1582912,48.6227573 16.3535534,48.8180195 C16.5271197,48.9915858 16.5464049,49.2610102 16.4114088,49.4558784 L16.3535534,49.5251263 L14.378,51.4995729 L43,51.5 C45.939102,51.5 48.37835,49.1430015 48.4955893,46.2202399 L48.5,46 L48.5,10 C48.5,7.05006984 46.1324374,4.62112179 43.219467,4.50439138 L43,4.5 L40,4.5 C39.7238576,4.5 39.5,4.27614237 39.5,4 C39.5,3.75454011 39.6768752,3.55039163 39.9101244,3.50805567 L40,3.5 L43,3.5 Z M33.6464466,0.818019485 C33.8417088,0.622757339 34.1582912,0.622757339 34.3535534,0.818019485 L34.3535534,0.818019485 L37.1819805,3.64644661 L37.239836,3.7156945 C37.374832,3.91056264 37.3555469,4.17998704 37.1819805,4.35355339 L37.1819805,4.35355339 L34.3535534,7.18198052 L34.2843055,7.23983597 C34.0894374,7.37483202 33.820013,7.35554687 33.6464466,7.18198052 L33.6464466,7.18198052 L33.5885912,7.11273263 C33.4535951,6.91786449 33.4728803,6.64844009 33.6464466,6.47487373 L33.6464466,6.47487373 L35.621,4.49957288 L7,4.5 C4.06089796,4.5 1.62164999,6.85699854 1.50441071,9.77976007 L1.5,10 L1.5,46 C1.5,48.9499302 3.86756255,51.3788782 6.78053304,51.4956086 L7,51.5 L10,51.5 C10.2761424,51.5 10.5,51.7238576 10.5,52 C10.5,52.2454599 10.3231248,52.4496084 10.0898756,52.4919443 L10,52.5 L7,52.5 C3.5136096,52.5 0.627954671,49.7026737 0.504139045,46.23233 L0.5,46 L0.5,10 C0.5,6.50079343 3.30986383,3.62739745 6.76848767,3.50412088 L7,3.5 L35.621,3.49957288 L33.6464466,1.52512627 L33.5885912,1.45587838 C33.4535951,1.26101024 33.4728803,0.991585837 33.6464466,0.818019485 Z M24.7226499,7.58397485 C24.8905996,7.47200838 25.1094004,7.47200838 25.2773501,7.58397485 L25.2773501,7.58397485 L34.2773501,13.5839749 C34.2803077,13.5859466 34.2832358,13.5879419 34.2861344,13.5899605 C34.3560504,13.6383109 34.4143296,13.7048382 34.452268,13.7847007 C34.4542274,13.7898461 34.4563393,13.7944988 34.4583765,13.7991775 C34.4671527,13.8181382 34.4745408,13.8385708 34.4805949,13.859704 C34.4831919,13.8701477 34.4857298,13.8801168 34.4879584,13.8901437 C34.4958915,13.9247806 34.5,13.9616506 34.5,14 L34.4962969,13.9387919 C34.4977944,13.9511156 34.4988376,13.9634864 34.4994268,13.9758756 L34.5,14 L34.5,23.7325729 L43.2773501,29.5839749 C43.2803077,29.5859466 43.2832358,29.5879419 43.2861344,29.5899605 C43.3560504,29.6383109 43.4143296,29.7048382 43.452268,29.7847007 C43.4542274,29.7898461 43.4563393,29.7944988 43.4583765,29.7991775 C43.4671527,29.8181382 43.4745408,29.8385708 43.4805949,29.859704 C43.4831919,29.8701477 43.4857298,29.8801168 43.4879584,29.8901437 C43.4958915,29.9247806 43.5,29.9616506 43.5,30 L43.4962969,29.9387919 C43.4977944,29.9511156 43.4988376,29.9634864 43.4994268,29.9758756 L43.5,30 L43.5,40.1052632 C43.5,40.2738826 43.4150108,40.4311444 43.2739541,40.5235324 L43.2739541,40.5235324 L34.2739541,46.4182692 C34.2703253,46.420646 34.2666836,46.4229684 34.2630295,46.4252368 C34.2488578,46.4339919 34.2341408,46.4421017 34.2190574,46.4494706 C34.2066555,46.455797 34.1945756,46.4611632 34.1824229,46.4660042 C34.1728167,46.4694211 34.1628383,46.4730115 34.1527498,46.476288 C34.1375529,46.481693 34.122532,46.4857931 34.1074739,46.4891512 C34.0994391,46.4905176 34.0908026,46.492232 34.0821156,46.4937184 C34.0665108,46.4967056 34.0514648,46.4984876 34.0364483,46.4995687 C34.0250327,46.5002683 34.0129606,46.5007708 34.0008462,46.5008248 C33.9877071,46.5007983 33.9752994,46.5002942 33.9629602,46.4993293 C33.9485352,46.4984876 33.9334892,46.4967056 33.9184558,46.4941998 C33.9091974,46.492232 33.9005609,46.4905176 33.8919838,46.4885801 C33.877468,46.4857931 33.8624471,46.481693 33.847506,46.4768277 C33.8371617,46.4730115 33.8271833,46.4694211 33.8173307,46.4655252 C33.8054244,46.4611632 33.7933445,46.455797 33.781361,46.4498929 C33.7658592,46.4421017 33.7511422,46.4339919 33.7368547,46.4251754 C33.7333164,46.4229684 33.7296747,46.420646 33.7260459,46.4182692 L25,40.7015729 L16.2739541,46.4182692 C16.2703253,46.420646 16.2666836,46.4229684 16.2630295,46.4252368 C16.2488578,46.4339919 16.2341408,46.4421017 16.2190574,46.4494706 C16.2066555,46.455797 16.1945756,46.4611632 16.1824229,46.4660042 C16.1728167,46.4694211 16.1628383,46.4730115 16.1527498,46.476288 C16.1375529,46.481693 16.122532,46.4857931 16.1074739,46.4891512 C16.0994391,46.4905176 16.0908026,46.492232 16.0821156,46.4937184 C16.0665108,46.4967056 16.0514648,46.4984876 16.0364483,46.4995687 C16.0250327,46.5002683 16.0129606,46.5007708 16.0008462,46.5008248 C15.9877071,46.5007983 15.9752994,46.5002942 15.9629602,46.4993293 C15.9485352,46.4984876 15.9334892,46.4967056 15.9184558,46.4941998 C15.9091974,46.492232 15.9005609,46.4905176 15.8919838,46.4885801 C15.877468,46.4857931 15.8624471,46.481693 15.847506,46.4768277 C15.8371617,46.4730115 15.8271833,46.4694211 15.8173307,46.4655252 C15.8054244,46.4611632 15.7933445,46.455797 15.781361,46.4498929 C15.7658592,46.4421017 15.7511422,46.4339919 15.7368547,46.4251754 C15.7333164,46.4229684 15.7296747,46.420646 15.7260459,46.4182692 L6.72604589,40.5235324 C6.58498921,40.4311444 6.5,40.2738826 6.5,40.1052632 L6.5,30 L6.50019505,29.9859245 C6.50065947,29.9691715 6.5019532,29.9524383 6.50407624,29.9357952 L6.5,30 C6.5,29.9616506 6.50410853,29.9247806 6.51183142,29.889657 C6.51427019,29.8801168 6.51680806,29.8701477 6.51965527,29.8602523 C6.52545921,29.8385708 6.53284726,29.8181382 6.54145157,29.7984699 C6.54366068,29.7944988 6.54577263,29.7898461 6.54795936,29.7852212 C6.58567044,29.7048382 6.64394958,29.6383109 6.71423727,29.5896216 L6.7226499,29.5839749 L15.5,23.7315729 L15.5,14 L15.5001951,13.9859245 C15.5006595,13.9691715 15.5019532,13.9524383 15.5040762,13.9357952 L15.5,14 C15.5,13.9616506 15.5041085,13.9247806 15.5118314,13.889657 C15.5142702,13.8801168 15.5168081,13.8701477 15.5196553,13.8602523 C15.5254592,13.8385708 15.5328473,13.8181382 15.5414516,13.7984699 C15.5436607,13.7944988 15.5457726,13.7898461 15.5479594,13.7852212 C15.5856704,13.7048382 15.6439496,13.6383109 15.7142373,13.5896216 L15.7226499,13.5839749 Z M7.5,30.9345729 L7.5,39.834 L15.5,45.075 L15.5,36.2675729 L7.5,30.9345729 Z M25.5,30.9345729 L25.5,39.834 L33.5,45.075 L33.5,36.2675729 L25.5,30.9345729 Z M24.5,30.9335729 L16.5,36.2665729 L16.5,45.074 L24.5,39.834 L24.5,30.9335729 Z M42.5,30.9335729 L34.5,36.2665729 L34.5,45.074 L42.5,39.834 L42.5,30.9335729 Z M15.922,24.6515729 L7.905,29.9955729 L16,35.2965729 L24.088,29.9995729 L15.922,24.6515729 Z M34,24.6005326 L25.906,29.9955729 L34,35.2965729 L42.094,29.9955729 L34,24.6005326 Z M16.5,14.9345729 L16.5,23.7325729 L24.5,29.0655729 L24.5,20.2675729 L16.5,14.9345729 Z M33.5,14.9335729 L25.5,20.2665729 L25.5,29.064 L33.5,23.731 L33.5,14.9335729 Z M25,8.60053262 L16.905,13.9955729 L25,19.2965729 L33.094,13.9955729 L25,8.60053262 Z" transform="translate(35 32)"/>
    </g>
    <g transform="translate(120 454)">
      <use fill="#000" filter="url(#img-stages-C)" xlink:href="#img-stages-D"/>
      <use fill="#FFF" stroke="url(#img-stages-e)" stroke-width="10" xlink:href="#img-stages-D"/>
      <use fill="#000" filter="url(#img-stages-E)" xlink:href="#img-stages-F"/>
      <use fill="#FFF" xlink:href="#img-stages-F"/>
      <path fill="url(#img-stages-G)" fill-rule="nonzero" d="M26,0 C28.419893,0 30.4115038,1.83369385 30.661135,4.18738399 L47.875,4.1875 C48.1511424,4.1875 48.375,4.41135763 48.375,4.6875 C48.375,4.93295989 48.1981248,5.13710837 47.9648756,5.17944433 L47.875,5.1875 L43.815,5.187 L48.273,24.5 L51.5,24.5 L51.5,25 C51.5,29.590867 47.778367,33.3125 43.1875,33.3125 C38.596633,33.3125 34.875,29.590867 34.875,25 L34.875,25 L34.875,24.5 L38.101,24.5 L42.559,5.187 L30.661135,5.18761601 C30.4288485,7.37776872 28.6882427,9.11767482 26.4977684,9.34888336 L26.5,9.375 L26.5,47.9199626 C26.5,48.0277896 26.4658681,48.1276447 26.407819,48.2093129 L36.9375,48.2083333 C37.2136424,48.2083333 37.4375,48.432191 37.4375,48.7083333 C37.4375,48.9537932 37.2606248,49.1579417 37.0273756,49.2002777 L36.9375,49.2083333 L15.0625,49.2083333 C14.7863576,49.2083333 14.5625,48.9844757 14.5625,48.7083333 C14.5625,48.4628734 14.7393752,48.258725 14.9726244,48.216389 L15.0625,48.2083333 L25.592181,48.2093129 C25.55065,48.1508836 25.5213613,48.0831451 25.5080557,48.0098382 L25.5,47.9199626 L25.5,9.375 L25.5022316,9.34888336 C23.3117573,9.11767482 21.5711515,7.37776872 21.338865,5.18761601 L9.44,5.187 L13.898,24.5 L17.125,24.5 L17.125,25 C17.125,29.590867 13.403367,33.3125 8.8125,33.3125 C4.22163302,33.3125 0.5,29.590867 0.5,25 L0.5,25 L0.5,24.5 L3.726,24.5 L8.184,5.187 L4.125,5.1875 C3.84885763,5.1875 3.625,4.96364237 3.625,4.6875 C3.625,4.44204011 3.80187516,4.23789163 4.03512437,4.19555567 L4.125,4.1875 L21.338865,4.18738399 C21.5884962,1.83369385 23.580107,0 26,0 Z M16.107,25.5 L1.517,25.5 L1.53481631,25.7181444 C1.88794619,29.3409105 4.88469014,32.1890346 8.57112274,32.3085914 L8.57112274,32.3085914 L8.8125,32.3125 C12.6087673,32.3125 15.7293771,29.4196663 16.0901837,25.7181444 L16.0901837,25.7181444 L16.107,25.5 Z M50.482,25.5 L35.892,25.5 L35.9098163,25.7181444 C36.2629462,29.3409105 39.2596901,32.1890346 42.9461227,32.3085914 L42.9461227,32.3085914 L43.1875,32.3125 C46.9837673,32.3125 50.1043771,29.4196663 50.4651837,25.7181444 L50.4651837,25.7181444 L50.482,25.5 Z M8.812,6.91 L4.753,24.5 L12.871,24.5 L8.812,6.91 Z M43.187,6.91 L39.128,24.5 L47.246,24.5 L43.187,6.91 Z M26,1 C24.0454838,1 22.4461288,2.52062556 22.3204535,4.44335809 C22.363029,4.51511791 22.3862305,4.59859946 22.3862305,4.6875 C22.3862305,4.77640054 22.363029,4.85988209 22.322351,4.93221983 C22.4461288,6.85437444 24.0454838,8.375 26,8.375 C28.03655,8.375 29.6875,6.72405001 29.6875,4.6875 C29.6875,2.65094999 28.03655,1 26,1 Z" transform="translate(34 35)"/>
    </g>
    <g transform="translate(0 151)">
      <use fill="#000" filter="url(#img-stages-H)" xlink:href="#img-stages-I"/>
      <use fill="#FFF" stroke="url(#img-stages-e)" stroke-width="10" xlink:href="#img-stages-I"/>
      <use fill="#000" filter="url(#img-stages-J)" xlink:href="#img-stages-K"/>
      <use fill="#FFF" xlink:href="#img-stages-K"/>
      <path fill="url(#img-stages-L)" fill-rule="nonzero" d="M61.1445128,31.3494455 C61.3456448,31.4768291 61.5249621,31.6351205 61.6760217,31.8181674 L61.7839175,31.9599982 L68.9,42.126 L68.9000011,40.8044285 L68.9047813,40.5949443 C68.9908087,38.7036146 70.2375671,36.6508019 72.6105609,34.4167845 C72.7827614,34.2546691 73.0510683,34.2535173 73.2246543,34.4141483 C75.7283652,36.7310035 77.0000014,38.8533251 77.0000014,40.8044285 L77.0000014,40.8044285 L77,62.479 L79.570536,65.7746685 L79.6114329,65.8371726 C79.6468791,65.9026322 79.6657242,65.9762333 79.6657242,66.051451 L79.6657242,66.051451 L79.6657242,69.5141221 L79.6584741,69.5950101 C79.6203717,69.8049344 79.4366381,69.9641221 79.2157242,69.9641221 L79.2157242,69.9641221 L77,69.964 L77.0000014,75.9044299 L76.9927513,75.985318 C76.954649,76.1952423 76.7709153,76.3544299 76.5500014,76.3544299 L76.5500014,76.3544299 L73.4,76.354 L73.4000013,83.4551138 C73.4000013,83.703642 73.1985294,83.9051138 72.9500013,83.9051138 C72.7290874,83.9051138 72.5453537,83.7459262 72.5072514,83.5360019 L72.5000013,83.4551138 L72.5,76.354 L69.3500011,76.3544299 L69.3500011,80.7551137 C69.3500011,81.0036419 69.1485293,81.2051137 68.9000011,81.2051137 C68.6790872,81.2051137 68.4953536,81.0459261 68.4572512,80.8360018 L68.4500011,80.7551137 L68.45,75.52 L67.0015955,77.9359531 C66.9365351,78.0443871 66.8297771,78.1191519 66.7087453,78.1447205 L66.6157237,78.15443 L65.6613516,78.1540243 C66.2165565,79.1976785 66.3789396,80.5413114 66.161784,82.1716188 C65.8820864,84.2714645 63.9961532,86.3347973 60.5474014,88.4059319 C60.4059501,88.4908799 60.2293522,88.4916026 60.0872104,88.4078151 C56.5701597,86.334638 54.6803533,84.2670677 54.4679857,82.1572723 C54.3041564,80.5296866 54.477475,79.1921154 55.0005617,78.1533837 L54.0157232,78.15443 C53.8576549,78.15443 53.7111768,78.0714955 53.6298513,77.9359531 L53.6298513,77.9359531 L52.25,75.636 L52.2500004,80.7551137 C52.2500004,81.0036419 52.0485286,81.2051137 51.8000004,81.2051137 C51.5790865,81.2051137 51.3953529,81.0459261 51.3572505,80.8360018 L51.3500004,80.7551137 L51.35,76.351 L51.3157231,76.3544299 L47.75,76.354 L47.7500003,83.4551138 C47.7500003,83.703642 47.5485284,83.9051138 47.3000003,83.9051138 C47.0790863,83.9051138 46.8953527,83.7459262 46.8572503,83.5360019 L46.8500002,83.4551138 L46.85,76.354 L44.1157228,76.3544299 C43.8948089,76.3544299 43.7110752,76.1952423 43.6729729,75.985318 L43.6657228,75.9044299 L43.665,69.964 L41.45,69.9641221 C41.2290861,69.9641221 41.0453525,69.8049344 41.0072501,69.5950101 L41,69.5141221 L41,66.051451 C41,65.9762333 41.0188451,65.9026322 41.0542913,65.8371726 L41.0951882,65.7746685 L43.665,62.479 L43.6657228,40.8044285 C43.6657228,38.8533251 44.937359,36.7310035 47.4410699,34.4141483 C47.6146558,34.2535173 47.8829628,34.2546691 48.0551633,34.4167845 C50.4281571,36.6508019 51.6749155,38.7036146 51.7609429,40.5949443 L51.7657231,40.8044285 L51.765,41.952 L58.0398026,32.0464213 C58.7046801,30.9966147 60.0947062,30.684568 61.1445128,31.3494455 Z M59.865,78.154 L56.0434233,78.15443 L55.9477416,78.3010244 C55.4349217,79.1378751 55.226601,80.2899695 55.3371047,81.7673248 L55.3371047,81.7673248 L55.3634607,82.0671357 C55.5284819,83.7065621 57.0357704,85.4497546 59.926419,87.2575545 L59.926419,87.2575545 L60.3130234,87.4937304 L60.3925316,87.4464757 C63.3286413,85.6322201 64.9333911,83.8792014 65.2423255,82.2236987 L65.2423255,82.2236987 L65.2696632,82.0527891 C65.4845923,80.4391968 65.2917307,79.198406 64.7095451,78.3119211 L64.7095451,78.3119211 L64.5988236,78.15443 L60.765,78.154 L60.7657234,81.3044301 C60.7657234,81.5529583 60.5642516,81.7544296 60.3157234,81.7544296 C60.0948095,81.7544296 59.9110759,81.5952425 59.8729735,81.3853182 L59.8657234,81.3044301 L59.865,78.154 Z M72.9157239,85.3544303 C73.1366378,85.3544303 73.3203715,85.513618 73.3584738,85.7235423 L73.3657239,85.8044303 L73.3657239,86.7044304 C73.3657239,86.9529585 73.1642521,87.1544304 72.9157239,87.1544304 C72.69481,87.1544304 72.5110764,86.9952427 72.472974,86.7853184 L72.4657239,86.7044304 L72.4657239,85.8044303 C72.4657239,85.5559022 72.6671958,85.3544303 72.9157239,85.3544303 Z M47.2657229,85.3544303 C47.4866368,85.3544303 47.6703705,85.513618 47.7084728,85.7235423 L47.7157229,85.8044303 L47.7157229,86.7044304 C47.7157229,86.9529585 47.5142511,87.1544304 47.2657229,87.1544304 C47.044809,87.1544304 46.8610754,86.9952427 46.822973,86.7853184 L46.8157229,86.7044304 L46.8157229,85.8044303 C46.8157229,85.5559022 47.0171948,85.3544303 47.2657229,85.3544303 Z M68.8657238,82.6544302 C69.0866377,82.6544302 69.2703713,82.8136179 69.3084737,83.0235421 L69.3157238,83.1044302 L69.3157238,84.0044303 C69.3157238,84.2529584 69.1142519,84.4544303 68.8657238,84.4544303 C68.6448099,84.4544303 68.4610762,84.2952426 68.4229738,84.0853183 L68.4157237,84.0044303 L68.4157237,83.1044302 C68.4157237,82.8559021 68.6171956,82.6544302 68.8657238,82.6544302 Z M51.7657231,82.6544302 C51.986637,82.6544302 52.1703706,82.8136179 52.208473,83.0235421 L52.2157231,83.1044302 L52.2157231,84.0044303 C52.2157231,84.2529584 52.0142512,84.4544303 51.7657231,84.4544303 C51.5448092,84.4544303 51.3610755,84.2952426 51.3229732,84.0853183 L51.3157231,84.0044303 L51.3157231,83.1044302 C51.3157231,82.8559021 51.5171949,82.6544302 51.7657231,82.6544302 Z M59.865,73.654 L52.25,73.654 L52.25,73.887 L54.2704232,77.25443 L59.865,77.254 L59.865,73.654 Z M68.45,73.654 L60.765,73.654 L60.765,77.254 L66.3601237,77.25443 L68.45,73.771 L68.45,73.654 Z M76.1,69.964 L69.8,69.964 L69.8008238,75.454134 L76.1008241,75.454134 L76.1,69.964 Z M50.864,69.964 L44.565,69.964 L44.5649001,75.454134 L50.8649004,75.454134 L50.864,69.964 Z M55.028,38.482 L51.7657231,43.6340286 L51.7657231,53.4400247 C51.7596351,53.4996342 51.7431995,53.5583738 51.7145704,53.6129744 L51.6705349,53.6812116 L44.5042846,62.8670999 C44.4872435,62.8961908 44.4670289,62.9231972 44.444116,62.9476438 L41.9,66.2057336 L41.9,69.0632337 L50.8649004,69.0632337 L50.865,66.205 L50.865723,61.4592755 C50.865723,61.2383616 51.0249107,61.054628 51.234835,61.0165256 L51.3157231,61.0092755 C51.536637,61.0092755 51.7203706,61.1684632 51.758473,61.3783875 L51.7657433,61.4592755 L51.7657231,72.7535298 L59.865,72.753 L59.8657234,68.7044296 C59.8657234,68.4559015 60.0671953,68.2544296 60.3157234,68.2544296 C60.5366373,68.2544296 60.720371,68.4136173 60.7584733,68.6235416 L60.7657234,68.7044296 L60.765,72.753 L68.865723,72.7535298 L68.865723,61.6531842 L68.899,61.653 L68.8999809,61.4592755 L68.9072512,61.3783875 C68.9453536,61.1684632 69.1290872,61.0092755 69.3500011,61.0092755 L69.3500011,61.0092755 L69.4308892,61.0165256 C69.6408135,61.054628 69.8000011,61.2383616 69.8000011,61.4592755 L69.8000011,61.4592755 L69.8008238,69.0632337 L78.7657242,69.0632337 L78.7657242,66.2057336 L76.2244864,62.9506862 C76.2003853,62.9254441 76.1791907,62.8974029 76.1614396,62.8670999 L68.9951893,53.6812116 L68.9511538,53.6129744 C68.9191471,53.5519322 68.9023807,53.4857167 68.9002207,53.41946 L68.865723,53.4195902 L68.865723,43.6457286 L65.301,38.554 L55.0282232,38.5544284 L55.028,38.482 Z M76.1,45.754 L69.8,45.754 L69.8,53.25 L76.1,61.326 L76.1,45.754 Z M50.865,45.754 L44.565,45.754 L44.565,61.325 L50.865,53.249 L50.865,45.754 Z M72.9220239,35.3654324 L72.7360675,35.5487555 C70.7685098,37.5180156 69.8000011,39.2757269 69.8000011,40.8044285 L69.8000011,40.8044285 L69.8,44.854 L76.1,44.854 L76.1000014,40.8044285 L76.0952709,40.6201129 C76.0195672,39.1367579 75.0348395,37.4417166 73.1133025,35.5513641 L73.1133025,35.5513641 L72.9220239,35.3654324 Z M47.7437003,35.3654324 L47.5524217,35.5513641 C45.6308847,37.4417166 44.646157,39.1367579 44.5704533,40.6201129 L44.5657228,40.8044285 L44.565,44.854 L50.865,44.854 L50.865723,40.8044285 C50.865723,39.2757269 49.8972144,37.5180156 47.9296567,35.5487555 L47.7437003,35.3654324 Z M63.9157236,41.2544286 C64.1642517,41.2544286 64.3657236,41.4559004 64.3657236,41.7044286 C64.3657236,41.9253425 64.2065359,42.1090761 63.9966116,42.1471785 L63.9157236,42.1544286 L56.7157233,42.1544286 C56.4671951,42.1544286 56.2657233,41.9529567 56.2657233,41.7044286 C56.2657233,41.4835147 56.4249109,41.299781 56.6348352,41.2616787 L56.7157233,41.2544286 L63.9157236,41.2544286 Z M58.874925,32.4214364 L58.8001398,32.5279682 L55.553,37.654 L64.671,37.654 L61.0466087,32.4761143 C60.9698116,32.3664042 60.8772637,32.2689377 60.7721501,32.1867563 L60.6629659,32.1097827 C60.070134,31.7343225 59.2964795,31.8780856 58.874925,32.4214364 Z"/>
    </g>
    <g transform="translate(0 302)">
      <use fill="#000" filter="url(#img-stages-M)" xlink:href="#img-stages-N"/>
      <use fill="#FFF" stroke="url(#img-stages-e)" stroke-width="10" xlink:href="#img-stages-N"/>
      <use fill="#000" filter="url(#img-stages-O)" xlink:href="#img-stages-P"/>
      <use fill="#FFF" xlink:href="#img-stages-P"/>
      <path fill="url(#img-stages-Q)" fill-rule="nonzero" d="M53.1715729,28.6374969 C53.5196695,28.6374969 53.8552912,28.7584926 54.1222097,28.9771937 L54.232233,29.0768367 L62.232233,37.0768367 C62.8180195,37.6626232 62.8180195,38.6123706 62.232233,39.1981571 C61.9860916,39.4442986 61.6632143,39.596062 61.3198294,39.6301569 L61.1715729,39.6374969 L53.085,39.6369369 L53.0857864,55.6374969 L9.08578644,55.6374969 L9.085,39.6369369 L2,39.6374969 C1.17157288,39.6374969 0.5,38.965924 0.5,38.1374969 C0.5,37.7894002 0.620995746,37.4537786 0.839696766,37.1868601 L0.939339828,37.0768367 L8.93933983,29.0768367 C9.00281215,29.0133644 9.07138714,28.9561679 9.14410062,28.9056466 C9.21310629,28.7715203 9.34228032,28.6734373 9.49591081,28.6455526 L9.58578644,28.6374969 L53.1715729,28.6374969 Z M31.586,29.845 L31.585,54.6369369 L52.085,54.637 L52.085,39.6369369 L42,39.6374969 C41.6519034,39.6374969 41.3162817,39.5165011 41.0493632,39.2978001 L40.9393398,39.1981571 L31.586,29.845 Z M30.585,30.8449369 L22.232233,39.1981571 C21.9860916,39.4442986 21.6632143,39.596062 21.3198294,39.6301569 L21.1715729,39.6374969 L10.085,39.6369369 L10.085,54.637 L30.585,54.6369369 L30.585,30.8449369 Z M9.70649276,29.7327061 L9.64644661,29.7839435 L1.64644661,37.7839435 C1.55267842,37.8777117 1.5,38.0048886 1.5,38.1374969 C1.5,38.3829568 1.67687516,38.5871053 1.91012437,38.6294412 L2,38.6374969 L21.1715729,38.6374969 C21.2776595,38.6374969 21.38027,38.6037827 21.4650801,38.5422877 L21.5251263,38.4910503 L30.378,29.637 L10,29.6374969 C9.8939134,29.6374969 9.79130283,29.6712111 9.70649276,29.7327061 Z M53.1715729,29.6374969 L32.793,29.637 L41.6464466,38.4910503 C41.7214612,38.5660648 41.8178573,38.6147819 41.9213106,38.6312682 L42,38.6374969 L61.1715729,38.6374969 C61.3041811,38.6374969 61.4313581,38.5848185 61.5251263,38.4910503 C61.6986926,38.3174839 61.7179778,38.0480595 61.5829817,37.8531914 L61.5251263,37.7839435 L53.5251263,29.7839435 C53.4501117,29.708929 53.3537156,29.6602119 53.2502622,29.6437256 L53.1715729,29.6374969 Z M13.3202942,7.19481291 C13.7650564,6.49590085 14.6921876,6.2898717 15.3910997,6.73463392 C15.5763209,6.85250196 15.7334106,7.00959171 15.8512787,7.19481291 L15.8512787,7.19481291 L21.0296055,15.3321837 C21.4743677,16.0310957 21.2683386,16.9582269 20.5694265,17.4029891 C20.3287501,17.5561468 20.0493893,17.6374969 19.7641133,17.6374969 L19.7641133,17.6374969 L18.085,17.637 L18.0857864,24.1374969 C18.0857864,24.917193 17.4908984,25.5579456 16.7302464,25.6306303 L16.7302464,25.6306303 L16.5857864,25.6374969 L12.5857864,25.6374969 C11.7573593,25.6374969 11.0857864,24.965924 11.0857864,24.1374969 L11.0857864,24.1374969 L11.085,17.637 L9.4074596,17.6374969 C8.62776348,17.6374969 7.98701092,17.0426088 7.91432618,16.2819569 L7.91432618,16.2819569 L7.9074596,16.1374969 C7.9074596,15.8522209 7.98880966,15.5728601 8.14196737,15.3321837 L8.14196737,15.3321837 Z M29.3202942,1.19481291 C29.7650564,0.495900852 30.6921876,0.289871699 31.3910997,0.734633919 C31.5763209,0.852501958 31.7334106,1.00959171 31.8512787,1.19481291 L31.8512787,1.19481291 L37.0296055,9.33218365 C37.4743677,10.0310957 37.2683386,10.9582269 36.5694265,11.4029891 C36.3287501,11.5561468 36.0493893,11.6374969 35.7641133,11.6374969 L35.7641133,11.6374969 L34.085,11.637 L34.0857864,24.1374969 C34.0857864,24.917193 33.4908984,25.5579456 32.7302464,25.6306303 L32.7302464,25.6306303 L32.5857864,25.6374969 L28.5857864,25.6374969 C27.7573593,25.6374969 27.0857864,24.965924 27.0857864,24.1374969 L27.0857864,24.1374969 L27.085,11.637 L25.4074596,11.6374969 C24.6277635,11.6374969 23.9870109,11.0426088 23.9143262,10.2819569 L23.9143262,10.2819569 L23.9074596,10.1374969 C23.9074596,9.85222086 23.9888097,9.57286006 24.1419674,9.33218365 L24.1419674,9.33218365 Z M45.3202942,7.19481291 C45.7650564,6.49590085 46.6921876,6.2898717 47.3910997,6.73463392 C47.5763209,6.85250196 47.7334106,7.00959171 47.8512787,7.19481291 L47.8512787,7.19481291 L53.0296055,15.3321837 C53.4743677,16.0310957 53.2683386,16.9582269 52.5694265,17.4029891 C52.3287501,17.5561468 52.0493893,17.6374969 51.7641133,17.6374969 L51.7641133,17.6374969 L50.085,17.637 L50.0857864,24.1374969 C50.0857864,24.917193 49.4908984,25.5579456 48.7302464,25.6306303 L48.7302464,25.6306303 L48.5857864,25.6374969 L44.5857864,25.6374969 C43.7573593,25.6374969 43.0857864,24.965924 43.0857864,24.1374969 L43.0857864,24.1374969 L43.085,17.637 L41.4074596,17.6374969 C40.6277635,17.6374969 39.9870109,17.0426088 39.9143262,16.2819569 L39.9143262,16.2819569 L39.9074596,16.1374969 C39.9074596,15.8522209 39.9888097,15.5728601 40.1419674,15.3321837 L40.1419674,15.3321837 Z M14.7740747,7.53683964 C14.5545622,7.44733108 14.2957371,7.52460335 14.1639557,7.7316884 L14.1639557,7.7316884 L8.98562886,15.8690591 C8.93457629,15.9492846 8.9074596,16.0424049 8.9074596,16.1374969 C8.9074596,16.4136393 9.13131723,16.6374969 9.4074596,16.6374969 L9.4074596,16.6374969 L12.0857864,16.6374969 L12.0857864,24.1374969 C12.0857864,24.4136393 12.3096441,24.6374969 12.5857864,24.6374969 L12.5857864,24.6374969 L16.5857864,24.6374969 C16.8619288,24.6374969 17.0857864,24.4136393 17.0857864,24.1374969 L17.0857864,24.1374969 L17.0857864,16.6374969 L19.7641133,16.6374969 C19.8592053,16.6374969 19.9523256,16.6103802 20.032551,16.5593276 C20.2655217,16.4110736 20.3341981,16.1020298 20.185944,15.8690591 L20.185944,15.8690591 L15.0076172,7.7316884 C14.9683278,7.669948 14.9159646,7.61758475 14.8542242,7.57829541 L14.8542242,7.57829541 Z M30.7740747,1.53683964 C30.5545622,1.44733108 30.2957371,1.52460335 30.1639557,1.7316884 L30.1639557,1.7316884 L24.9856289,9.86905915 C24.9345763,9.94928461 24.9074596,10.0424049 24.9074596,10.1374969 C24.9074596,10.4136393 25.1313172,10.6374969 25.4074596,10.6374969 L25.4074596,10.6374969 L28.0857864,10.6374969 L28.0857864,24.1374969 C28.0857864,24.4136393 28.3096441,24.6374969 28.5857864,24.6374969 L28.5857864,24.6374969 L32.5857864,24.6374969 C32.8619288,24.6374969 33.0857864,24.4136393 33.0857864,24.1374969 L33.0857864,24.1374969 L33.0857864,10.6374969 L35.7641133,10.6374969 C35.8592053,10.6374969 35.9523256,10.6103802 36.032551,10.5593276 C36.2655217,10.4110736 36.3341981,10.1020298 36.185944,9.86905915 L36.185944,9.86905915 L31.0076172,1.7316884 C30.9683278,1.669948 30.9159646,1.61758475 30.8542242,1.57829541 L30.8542242,1.57829541 Z M46.7740747,7.53683964 C46.5545622,7.44733108 46.2957371,7.52460335 46.1639557,7.7316884 L46.1639557,7.7316884 L40.9856289,15.8690591 C40.9345763,15.9492846 40.9074596,16.0424049 40.9074596,16.1374969 C40.9074596,16.4136393 41.1313172,16.6374969 41.4074596,16.6374969 L41.4074596,16.6374969 L44.0857864,16.6374969 L44.0857864,24.1374969 C44.0857864,24.4136393 44.3096441,24.6374969 44.5857864,24.6374969 L44.5857864,24.6374969 L48.5857864,24.6374969 C48.8619288,24.6374969 49.0857864,24.4136393 49.0857864,24.1374969 L49.0857864,24.1374969 L49.0857864,16.6374969 L51.7641133,16.6374969 C51.8592053,16.6374969 51.9523256,16.6103802 52.032551,16.5593276 C52.2655217,16.4110736 52.3341981,16.1020298 52.185944,15.8690591 L52.185944,15.8690591 L47.0076172,7.7316884 C46.9683278,7.669948 46.9159646,7.61758475 46.8542242,7.57829541 L46.8542242,7.57829541 Z" transform="translate(29 32)"/>
    </g>
    <circle cx="349" cy="287" r="80" stroke="url(#img-stages-R)" stroke-width="30"/>
    <path fill="#000" fill-rule="nonzero" d="M319.205556,282 C320.005556,282 320.405556,281.46 320.405556,280.78 L320.405556,270.34 L323.945556,270.34 C324.665556,270.34 325.105556,269.9 325.105556,269.26 C325.105556,268.6 324.665556,268.2 323.945556,268.2 L314.465556,268.2 C313.765556,268.2 313.325556,268.6 313.325556,269.26 C313.325556,269.9 313.765556,270.34 314.465556,270.34 L318.005556,270.34 L318.005556,280.78 C318.005556,281.46 318.405556,282 319.205556,282 Z M329.921111,282.2 C331.061111,282.2 332.221111,282 333.081111,281.42 C333.601111,281.08 333.721111,280.56 333.501111,280.14 C333.281111,279.76 332.901111,279.6 332.261111,279.86 C331.641111,280.12 331.001111,280.38 330.141111,280.38 C328.601111,280.38 327.601111,279.44 327.541111,277.92 L332.641111,277.92 C333.441111,277.92 333.781111,277.58 333.961111,276.92 C334.021111,276.7 334.061111,276.26 334.061111,275.98 C334.061111,273.64 332.581111,272 329.961111,272 C327.081111,272 325.301111,274.04 325.301111,277.14 C325.301111,280.36 326.921111,282.2 329.921111,282.2 Z M331.961111,276.34 L327.541111,276.34 C327.681111,274.72 328.541111,273.82 329.961111,273.82 C331.341111,273.82 331.981111,274.7 331.981111,275.84 C331.981111,276.02 331.981111,276.14 331.961111,276.34 Z M339.876667,282.2 C342.576667,282.2 343.836667,281.06 343.836667,279.16 C343.836667,275.76 338.796667,276.56 338.796667,274.72 C338.796667,274.16 339.216667,273.82 340.136667,273.82 C340.876667,273.82 341.656667,274.14 342.216667,274.36 C342.856667,274.56 343.256667,274.46 343.476667,273.98 C343.676667,273.52 343.556667,273.02 342.916667,272.66 C342.256667,272.28 341.216667,272 340.056667,272 C337.956667,272 336.516667,272.94 336.516667,274.8 C336.516667,278.34 341.556667,277.46 341.556667,279.36 C341.556667,280.04 341.076667,280.38 340.076667,280.38 C339.336667,280.38 338.516667,280.16 337.756667,279.82 C337.236667,279.58 336.596667,279.44 336.296667,280.06 C336.036667,280.6 336.216667,281.06 336.756667,281.44 C337.556667,281.96 338.856667,282.2 339.876667,282.2 Z M350.772222,282.2 C351.472222,282.2 352.212222,282.06 352.772222,281.74 C353.312222,281.42 353.632222,280.94 353.392222,280.34 C353.192222,279.86 352.692222,279.76 352.192222,279.96 C351.952222,280.06 351.512222,280.2 351.132222,280.2 C350.292222,280.2 349.992222,279.7 349.992222,278.58 L349.992222,274.12 L351.692222,274.12 C352.412222,274.12 352.772222,273.76 352.772222,273.16 C352.772222,272.54 352.412222,272.2 351.692222,272.2 L349.992222,272.2 L349.992222,270.96 C349.992222,270.34 349.612222,269.8 348.852222,269.8 C348.112222,269.8 347.732222,270.34 347.732222,270.96 L347.732222,272.2 L347.212222,272.2 C346.492222,272.2 346.132222,272.54 346.132222,273.16 C346.132222,273.76 346.492222,274.12 347.212222,274.12 L347.732222,274.12 L347.732222,278.82 C347.732222,281.2 348.852222,282.2 350.772222,282.2 Z M356.667778,270.84 C357.447778,270.84 357.987778,270.42 357.987778,269.62 C357.987778,268.86 357.447778,268.4 356.667778,268.4 C355.867778,268.4 355.367778,268.86 355.367778,269.62 C355.367778,270.42 355.867778,270.84 356.667778,270.84 Z M356.667778,282 C357.427778,282 357.807778,281.48 357.807778,280.84 L357.807778,273.36 C357.807778,272.74 357.427778,272.2 356.667778,272.2 C355.927778,272.2 355.547778,272.74 355.547778,273.36 L355.547778,280.84 C355.547778,281.48 355.927778,282 356.667778,282 Z M368.663333,282 C369.423333,282 369.803333,281.48 369.803333,280.84 L369.803333,276.28 C369.803333,273.62 368.983333,272 366.383333,272 C365.203333,272 364.023333,272.52 363.423333,273.66 L363.423333,273.36 C363.423333,272.74 363.043333,272.2 362.283333,272.2 C361.543333,272.2 361.163333,272.74 361.163333,273.36 L361.163333,280.84 C361.163333,281.48 361.543333,282 362.283333,282 C363.043333,282 363.423333,281.48 363.423333,280.84 L363.423333,278.26 C363.463333,276.02 363.903333,274 365.843333,274 C367.123333,274 367.543333,274.92 367.543333,276.24 L367.543333,280.84 C367.543333,281.48 367.923333,282 368.663333,282 Z M376.758889,286.2 C380.098889,286.2 381.778889,284.74 381.778889,282.78 C381.778889,280.9 380.038889,280.34 377.578889,280.24 C375.158889,280.14 374.518889,279.8 374.518889,279.24 C374.518889,278.96 374.718889,278.64 375.058889,278.42 C375.598889,278.62 376.218889,278.72 376.958889,278.72 C379.598889,278.72 380.978889,277.32 380.978889,275.38 C380.978889,274.8 380.818889,274.26 380.578889,273.78 L381.278889,273.78 C381.898889,273.78 382.198889,273.5 382.198889,273 C382.198889,272.46 381.898889,272.2 381.278889,272.2 L378.518889,272.2 C378.058889,272.08 377.538889,272 376.958889,272 C374.338889,272 372.958889,273.38 372.958889,275.38 C372.958889,276.3 373.258889,277.08 373.838889,277.66 C373.198889,278.18 372.758889,278.82 372.758889,279.58 C372.758889,280.14 373.038889,280.8 373.698889,281.16 C372.778889,281.68 372.258889,282.48 372.258889,283.38 C372.258889,284.76 373.258889,286.2 376.758889,286.2 Z M376.958889,277 C375.698889,277 374.978889,276.34 374.978889,275.38 C374.978889,274.4 375.698889,273.72 376.958889,273.72 C378.218889,273.72 378.938889,274.4 378.938889,275.38 C378.938889,276.34 378.218889,277 376.958889,277 Z M376.738889,284.46 C374.918889,284.46 374.298889,283.76 374.298889,283.12 C374.298889,282.5 374.738889,282.04 375.378889,281.74 C375.838889,281.82 376.338889,281.88 376.938889,281.92 C378.898889,282.06 379.618889,282.28 379.618889,282.96 C379.618889,283.76 378.818889,284.46 376.738889,284.46 Z M303.17,304.2 C304.31,304.2 305.47,304 306.33,303.42 C306.85,303.08 306.97,302.56 306.75,302.14 C306.53,301.76 306.15,301.6 305.51,301.86 C304.89,302.12 304.25,302.38 303.39,302.38 C301.85,302.38 300.85,301.44 300.79,299.92 L305.89,299.92 C306.69,299.92 307.03,299.58 307.21,298.92 C307.27,298.7 307.31,298.26 307.31,297.98 C307.31,295.64 305.83,294 303.21,294 C300.33,294 298.55,296.04 298.55,299.14 C298.55,302.36 300.17,304.2 303.17,304.2 Z M305.21,298.34 L300.79,298.34 C300.93,296.72 301.79,295.82 303.21,295.82 C304.59,295.82 305.23,296.7 305.23,297.84 C305.23,298.02 305.23,298.14 305.21,298.34 Z M314.225556,304.2 C315.425556,304.2 316.545556,303.9 317.325556,303.28 C317.865556,302.84 318.005556,302.28 317.725556,301.82 C317.485556,301.42 317.025556,301.3 316.365556,301.62 C315.765556,301.92 315.185556,302.18 314.445556,302.18 C312.965556,302.18 311.945556,301.08 311.945556,299.18 C311.945556,297.22 312.885556,296.02 314.425556,296.02 C315.165556,296.02 315.585556,296.16 316.125556,296.32 C316.825556,296.54 317.225556,296.38 317.445556,295.9 C317.665556,295.42 317.525556,294.92 316.945556,294.56 C316.345556,294.18 315.445556,294 314.365556,294 C311.425556,294 309.625556,295.98 309.625556,299.18 C309.625556,302.36 311.365556,304.2 314.225556,304.2 Z M324.621111,304.2 C327.721111,304.2 329.421111,302 329.421111,299.1 C329.421111,296.22 327.721111,294 324.621111,294 C321.521111,294 319.841111,296.2 319.841111,299.1 C319.841111,302 321.521111,304.2 324.621111,304.2 Z M324.621111,302.28 C323.001111,302.28 322.161111,300.92 322.161111,299.1 C322.161111,297.3 322.981111,295.92 324.621111,295.92 C326.281111,295.92 327.101111,297.3 327.101111,299.1 C327.101111,300.92 326.281111,302.28 324.621111,302.28 Z M335.276667,304.2 C337.976667,304.2 339.236667,303.06 339.236667,301.16 C339.236667,297.76 334.196667,298.56 334.196667,296.72 C334.196667,296.16 334.616667,295.82 335.536667,295.82 C336.276667,295.82 337.056667,296.14 337.616667,296.36 C338.256667,296.56 338.656667,296.46 338.876667,295.98 C339.076667,295.52 338.956667,295.02 338.316667,294.66 C337.656667,294.28 336.616667,294 335.456667,294 C333.356667,294 331.916667,294.94 331.916667,296.8 C331.916667,300.34 336.956667,299.46 336.956667,301.36 C336.956667,302.04 336.476667,302.38 335.476667,302.38 C334.736667,302.38 333.916667,302.16 333.156667,301.82 C332.636667,301.58 331.996667,301.44 331.696667,302.06 C331.436667,302.6 331.616667,303.06 332.156667,303.44 C332.956667,303.96 334.256667,304.2 335.276667,304.2 Z M342.612222,308.2 C344.332222,308.2 345.232222,307.24 346.412222,304.1 L349.532222,295.84 C349.612222,295.6 349.672222,295.36 349.672222,295.12 C349.672222,294.68 349.392222,294.2 348.652222,294.2 C348.152222,294.2 347.832222,294.56 347.612222,295.2 L345.552222,301.32 L343.212222,295.12 C342.992222,294.56 342.632222,294.2 342.132222,294.2 C341.332222,294.2 340.952222,294.78 340.952222,295.3 C340.952222,295.54 341.012222,295.76 341.112222,295.98 L344.512222,304 C344.032222,305.28 343.572222,306.28 342.632222,306.28 C342.012222,306.28 341.552222,305.96 341.072222,305.96 C340.732222,305.96 340.272222,306.2 340.272222,306.84 C340.272222,307.8 341.692222,308.2 342.612222,308.2 Z M355.287778,304.2 C357.987778,304.2 359.247778,303.06 359.247778,301.16 C359.247778,297.76 354.207778,298.56 354.207778,296.72 C354.207778,296.16 354.627778,295.82 355.547778,295.82 C356.287778,295.82 357.067778,296.14 357.627778,296.36 C358.267778,296.56 358.667778,296.46 358.887778,295.98 C359.087778,295.52 358.967778,295.02 358.327778,294.66 C357.667778,294.28 356.627778,294 355.467778,294 C353.367778,294 351.927778,294.94 351.927778,296.8 C351.927778,300.34 356.967778,299.46 356.967778,301.36 C356.967778,302.04 356.487778,302.38 355.487778,302.38 C354.747778,302.38 353.927778,302.16 353.167778,301.82 C352.647778,301.58 352.007778,301.44 351.707778,302.06 C351.447778,302.6 351.627778,303.06 352.167778,303.44 C352.967778,303.96 354.267778,304.2 355.287778,304.2 Z M366.183333,304.2 C366.883333,304.2 367.623333,304.06 368.183333,303.74 C368.723333,303.42 369.043333,302.94 368.803333,302.34 C368.603333,301.86 368.103333,301.76 367.603333,301.96 C367.363333,302.06 366.923333,302.2 366.543333,302.2 C365.703333,302.2 365.403333,301.7 365.403333,300.58 L365.403333,296.12 L367.103333,296.12 C367.823333,296.12 368.183333,295.76 368.183333,295.16 C368.183333,294.54 367.823333,294.2 367.103333,294.2 L365.403333,294.2 L365.403333,292.96 C365.403333,292.34 365.023333,291.8 364.263333,291.8 C363.523333,291.8 363.143333,292.34 363.143333,292.96 L363.143333,294.2 L362.623333,294.2 C361.903333,294.2 361.543333,294.54 361.543333,295.16 C361.543333,295.76 361.903333,296.12 362.623333,296.12 L363.143333,296.12 L363.143333,300.82 C363.143333,303.2 364.263333,304.2 366.183333,304.2 Z M375.178889,304.2 C376.318889,304.2 377.478889,304 378.338889,303.42 C378.858889,303.08 378.978889,302.56 378.758889,302.14 C378.538889,301.76 378.158889,301.6 377.518889,301.86 C376.898889,302.12 376.258889,302.38 375.398889,302.38 C373.858889,302.38 372.858889,301.44 372.798889,299.92 L377.898889,299.92 C378.698889,299.92 379.038889,299.58 379.218889,298.92 C379.278889,298.7 379.318889,298.26 379.318889,297.98 C379.318889,295.64 377.838889,294 375.218889,294 C372.338889,294 370.558889,296.04 370.558889,299.14 C370.558889,302.36 372.178889,304.2 375.178889,304.2 Z M377.218889,298.34 L372.798889,298.34 C372.938889,296.72 373.798889,295.82 375.218889,295.82 C376.598889,295.82 377.238889,296.7 377.238889,297.84 C377.238889,298.02 377.238889,298.14 377.218889,298.34 Z M395.274444,304 C396.034444,304 396.394444,303.48 396.394444,302.84 L396.394444,298.22 C396.394444,295.62 395.714444,294 393.274444,294 C391.874444,294 390.614444,294.7 390.034444,295.94 C389.674444,294.68 388.694444,294 387.394444,294 C385.974444,294 384.974444,294.62 384.354444,295.68 L384.354444,295.36 C384.354444,294.74 383.994444,294.2 383.234444,294.2 C382.494444,294.2 382.134444,294.74 382.134444,295.36 L382.134444,302.84 C382.134444,303.48 382.494444,304 383.234444,304 C383.994444,304 384.354444,303.48 384.354444,302.84 L384.354444,300.18 C384.374444,298.14 384.774444,295.92 386.694444,295.92 C388.014444,295.92 388.154444,297.06 388.154444,298.6 L388.154444,302.84 C388.154444,303.48 388.514444,304 389.254444,304 C390.014444,304 390.374444,303.48 390.374444,302.84 L390.374444,300.36 C390.374444,298.28 390.714444,295.92 392.714444,295.92 C393.934444,295.92 394.174444,296.84 394.174444,298.16 L394.174444,302.84 C394.174444,303.48 394.534444,304 395.274444,304 Z"/>
    <g transform="translate(145 88)">
      <path stroke="url(#img-stages-S)" stroke-width=".5" d="M201,90 C139.696393,90 90,139.34555 90,200.216371 C90,208.382088 90.8943245,216.340398 92.5910223,224 M236,306 C280.134243,291.361755 312,249.436242 312,200" opacity=".75" transform="rotate(-40 201 198)"/>
      <path stroke="url(#img-stages-e)" stroke-width=".5" d="M56.4804976,174 C54.8514638,182.634664 54,191.536834 54,200.634041 C54,229.915527 62.8213766,257.176389 78,280 M201,348 C233.899385,348 264.31554,337.608318 289,320 M348,201 C348,169.668801 338.197589,140.626971 321.492154,116.773759 C300.962001,87.4593421 270.006078,65.9813972 234.00596,57.7212475 C223.394021,55.286361 212.343781,54 200.99308,54 C172.763448,54 146.392269,61.9566088 124,75.7494687" opacity=".75" transform="rotate(-30 201 201)"/>
      <g fill="#5055FE" transform="translate(319 119)">
        <circle cx="9" cy="9" r="6" opacity=".152" transform="rotate(45 9 9)"/>
        <circle cx="9" cy="9" r="2" transform="rotate(45 9 9)"/>
      </g>
      <g fill="#5055FE" transform="translate(264 320)">
        <circle cx="9" cy="9" r="6" opacity=".152" transform="rotate(45 9 9)"/>
        <circle cx="9" cy="9" r="2" transform="rotate(45 9 9)"/>
      </g>
      <g fill="#5055FE" transform="translate(288 249)">
        <circle cx="9" cy="9" r="6" opacity=".152" transform="rotate(45 9 9)"/>
        <circle cx="9" cy="9" r="2" transform="rotate(45 9 9)"/>
      </g>
      <g fill="#5055FE" transform="translate(53 240)">
        <circle cx="9" cy="9" r="6" opacity=".152" transform="rotate(45 9 9)"/>
        <circle cx="9" cy="9" r="2" transform="rotate(45 9 9)"/>
      </g>
    </g>
    <path stroke="url(#img-stages-T)" stroke-dasharray="4 5" stroke-linecap="round" stroke-linejoin="round" d="M514.263004,203.765643 C483.799839,143.399452 421.2346,102 349,102 M287.491908,112.470886 C228.804332,133.153514 183.681658,182.599672 169.051526,243.881719 M164,287 C164,321.007517 173.176011,352.871862 189.187197,380.2522 M320.000246,469.740247 C329.448345,471.227697 339.133982,472 349,472 M415.850674,459.552596 C460.817461,442.119385 497.273633,407.615612 517.266226,363.994241" opacity=".5"/>
  </g>
</svg>
