<svg xmlns="http://www.w3.org/2000/svg" width="121" height="32" viewBox="0 0 121 32">
  <path d="M39.98,8.66 L41.26,8.66 L41.26,10.36 C41.7,9.72 42.16,9.26 42.62,8.98 C43.26,8.6 43.94,8.42 44.64,8.42 C45.12,8.42 45.58,8.52 46,8.7 C46.42,8.9 46.78,9.14 47.06,9.46 C47.32,9.78 47.56,10.22 47.76,10.8 C48.18,10.02 48.72,9.44 49.34,9.02 C49.98,8.62 50.64,8.42 51.38,8.42 C52.06,8.42 52.66,8.6 53.18,8.94 C53.7,9.28 54.1,9.76 54.34,10.38 C54.58,11 54.72,11.92 54.72,13.16 L54.72,18.56 L53.44,18.56 L53.44,13.16 C53.44,12.1 53.36,11.38 53.22,10.98 C53.06,10.58 52.82,10.26 52.44,10.02 C52.08,9.78 51.64,9.66 51.14,9.66 C50.52,9.66 49.96,9.84 49.46,10.2 C48.94,10.56 48.58,11.04 48.34,11.64 C48.1,12.24 47.98,13.26 47.98,14.68 L47.98,18.54 L46.7,18.54 L46.7,13.48 C46.7,12.28 46.62,11.48 46.48,11.06 C46.32,10.64 46.08,10.28 45.7,10.02 C45.34,9.76 44.9,9.64 44.4,9.64 C43.8,9.64 43.26,9.82 42.74,10.16 C42.22,10.52 41.84,11 41.62,11.58 C41.38,12.18 41.26,13.1 41.26,14.32 L41.26,18.5 L39.98,18.5 L39.98,8.66 L39.98,8.66 Z M67.3,8.66 L67.3,18.56 L66,18.56 L66,16.86 C65.48,17.5 64.88,18 64.2,18.32 C63.54,18.64 62.82,18.8 62.04,18.8 C60.64,18.8 59.46,18.3 58.46,17.28 C57.48,16.28 56.98,15.04 56.98,13.58 C56.98,12.16 57.48,10.94 58.48,9.94 C59.48,8.94 60.68,8.42 62.08,8.42 C62.88,8.42 63.62,8.6 64.28,8.94 C64.94,9.28 65.52,9.8 66,10.48 L66,8.64 L67.3,8.64 L67.3,8.66 Z M62.2,9.66 C61.5,9.66 60.84,9.84 60.24,10.18 C59.64,10.52 59.18,11.02 58.82,11.64 C58.46,12.28 58.3,12.92 58.3,13.62 C58.3,14.32 58.48,14.98 58.84,15.62 C59.2,16.26 59.66,16.74 60.26,17.1 C60.86,17.46 61.5,17.62 62.2,17.62 C62.88,17.62 63.54,17.44 64.16,17.1 C64.78,16.74 65.26,16.28 65.58,15.68 C65.92,15.08 66.08,14.42 66.08,13.66 C66.08,12.52 65.7,11.56 64.96,10.8 C64.22,10.06 63.3,9.66 62.2,9.66 M80,4.86 L80,18.56 L78.72,18.56 L78.72,16.86 C78.2,17.5 77.6,18 76.94,18.32 C76.28,18.64 75.56,18.8 74.78,18.8 C73.38,18.8 72.2,18.3 71.22,17.28 C70.24,16.28 69.74,15.04 69.74,13.58 C69.74,12.16 70.24,10.94 71.24,9.94 C72.24,8.94 73.42,8.42 74.84,8.42 C75.64,8.42 76.38,8.6 77.02,8.94 C77.68,9.28 78.24,9.8 78.74,10.5 L78.74,4.84 L80,4.84 L80,4.86 Z M74.92,9.66 C74.22,9.66 73.56,9.84 72.98,10.18 C72.38,10.52 71.92,11.02 71.56,11.64 C71.2,12.28 71.04,12.92 71.04,13.62 C71.04,14.32 71.22,14.98 71.58,15.62 C71.94,16.26 72.4,16.74 73,17.1 C73.6,17.46 74.24,17.62 74.92,17.62 C75.6,17.62 76.26,17.44 76.88,17.1 C77.5,16.74 77.98,16.28 78.3,15.68 C78.64,15.08 78.8,14.42 78.8,13.66 C78.8,12.52 78.42,11.56 77.68,10.8 C76.92,10.06 76,9.66 74.92,9.66 M92.46,10.7 L91.46,11.32 C90.6,10.18 89.4,9.6 87.88,9.6 C86.68,9.6 85.66,9.98 84.88,10.76 C84.08,11.54 83.68,12.48 83.68,13.6 C83.68,14.32 83.86,15 84.22,15.64 C84.58,16.28 85.08,16.76 85.74,17.12 C86.38,17.48 87.1,17.64 87.88,17.64 C89.34,17.64 90.52,17.06 91.44,15.92 L92.44,16.58 C91.96,17.28 91.34,17.84 90.54,18.24 C89.74,18.62 88.84,18.82 87.82,18.82 C86.26,18.82 84.96,18.32 83.92,17.32 C82.88,16.34 82.38,15.12 82.38,13.7 C82.38,12.74 82.62,11.86 83.1,11.04 C83.58,10.22 84.24,9.58 85.08,9.12 C85.92,8.66 86.88,8.44 87.92,8.44 C88.58,8.44 89.2,8.54 89.82,8.74 C90.44,8.94 90.94,9.2 91.38,9.5 C91.82,9.8 92.16,10.22 92.46,10.7 M104.76,8.66 L104.76,18.56 L103.48,18.56 L103.48,16.86 C102.94,17.5 102.36,18 101.68,18.32 C101,18.64 100.3,18.8 99.52,18.8 C98.12,18.8 96.94,18.3 95.94,17.28 C94.96,16.28 94.46,15.04 94.46,13.58 C94.46,12.16 94.96,10.94 95.96,9.94 C96.96,8.94 98.16,8.42 99.56,8.42 C100.36,8.42 101.1,8.6 101.76,8.94 C102.42,9.28 103,9.8 103.48,10.48 L103.48,8.64 L104.76,8.64 L104.76,8.66 Z M99.66,9.66 C98.96,9.66 98.3,9.84 97.72,10.18 C97.12,10.52 96.64,11.02 96.3,11.64 C95.94,12.28 95.78,12.92 95.78,13.62 C95.78,14.32 95.96,14.98 96.32,15.62 C96.68,16.26 97.14,16.74 97.74,17.1 C98.34,17.46 98.98,17.62 99.66,17.62 C100.34,17.62 101,17.44 101.62,17.1 C102.24,16.76 102.72,16.28 103.04,15.68 C103.38,15.08 103.54,14.42 103.54,13.66 C103.54,12.52 103.16,11.56 102.42,10.8 C101.68,10.06 100.76,9.66 99.66,9.66 M107.62,8.66 L108.9,8.66 L108.9,10.48 C109.4,9.8 109.98,9.28 110.62,8.94 C111.28,8.6 112,8.42 112.8,8.42 C114.2,8.42 115.4,8.92 116.4,9.94 C117.4,10.94 117.9,12.16 117.9,13.58 C117.9,15.02 117.4,16.26 116.42,17.28 C115.44,18.28 114.24,18.8 112.84,18.8 C112.06,18.8 111.32,18.64 110.68,18.3 C110.02,17.98 109.42,17.48 108.9,16.84 L108.9,22.16 L107.62,22.16 L107.62,8.66 L107.62,8.66 Z M112.7,9.66 C111.6,9.66 110.68,10.04 109.94,10.8 C109.18,11.56 108.82,12.52 108.82,13.66 C108.82,14.42 108.98,15.08 109.32,15.68 C109.66,16.28 110.14,16.76 110.76,17.1 C111.38,17.46 112.04,17.62 112.74,17.62 C113.42,17.62 114.06,17.44 114.64,17.1 C115.24,16.74 115.72,16.26 116.08,15.62 C116.44,14.98 116.62,14.32 116.62,13.62 C116.62,12.92 116.44,12.26 116.1,11.64 C115.74,11.02 115.28,10.52 114.68,10.18 C114.06,9.84 113.4,9.66 112.7,9.66 M40.16,25.82 C40.58,26.34 41.2,26.72 42.1,26.72 C42.8,26.72 43.44,26.5 43.44,26 C43.44,24.78 39.88,25.82 39.88,24.06 C39.88,23.08 40.88,22.76 41.78,22.76 C43.22,22.76 43.74,23.38 43.96,23.68 L43.5,24.08 C43.14,23.62 42.6,23.3 41.76,23.3 C40.98,23.3 40.52,23.54 40.52,24 C40.52,25.1 44.08,24.1 44.08,25.94 C44.08,26.92 43.12,27.28 42,27.28 C41.06,27.28 40.26,27.02 39.62,26.28 L40.16,25.82 L40.16,25.82 Z M44.72,24.94 C44.72,23.72 45.68,22.74 47.2,22.74 C48.7,22.74 49.66,23.72 49.66,24.94 C49.66,26.46 48.66,27.28 47.2,27.28 C45.74,27.3 44.72,26.46 44.72,24.94 M49,25.04 C49,24.26 48.5,23.32 47.2,23.32 C45.9,23.32 45.38,24.26 45.38,25.04 C45.38,26.06 46.06,26.74 47.2,26.74 C48.32,26.72 49,26.04 49,25.04 M51.18,23.54 L50.1,23.54 L50.1,22.98 L51.18,22.98 L51.18,22.64 C51.18,21.94 51.4,21.06 52.7,21.06 C53.38,21.06 53.64,21.14 53.82,21.18 L53.82,21.78 C53.54,21.7 53.24,21.64 52.9,21.64 C51.98,21.64 51.84,22.06 51.84,22.7 L51.84,22.98 L53.6,22.98 L53.6,23.54 L51.84,23.54 L51.84,27.16 L51.18,27.16 L51.18,23.54 Z M57.58,23.44 L55.88,23.44 L55.88,26.02 C55.88,26.48 56.08,26.72 56.76,26.72 C57.08,26.72 57.34,26.66 57.7,26.6 L57.7,27.16 C57.22,27.24 56.88,27.28 56.62,27.28 C55.22,27.28 55.22,26.44 55.22,26.08 L55.22,23.42 L54.3,23.42 L54.3,22.86 L55.22,22.86 L55.22,21.44 L55.88,21.44 L55.88,22.86 L57.58,22.86 L57.58,23.44 L57.58,23.44 Z M58.14,22.88 L58.82,22.88 L60.24,26.36 L61.58,22.88 L62.2,22.88 L63.54,26.38 L64.94,22.88 L65.64,22.88 L63.82,27.16 L63.2,27.16 L61.9,23.68 L60.6,27.16 L59.96,27.16 L58.14,22.88 Z M70.56,26.5 C70.56,26.76 70.6,26.94 70.64,27.16 L69.98,27.16 C69.94,27.04 69.9,26.82 69.9,26.64 C69.28,27.04 68.58,27.28 67.76,27.28 C67.06,27.28 66.02,27.08 66.02,25.98 C66.02,24.5 68.24,24.44 69.92,24.24 L69.92,24.08 C69.92,23.5 69.22,23.28 68.54,23.28 C67.4,23.28 67,23.76 66.78,24 L66.28,23.66 C66.52,23.36 66.98,22.74 68.48,22.74 C69.46,22.74 70.58,23.02 70.58,24.12 L70.58,26.48 L70.56,26.48 L70.56,26.5 Z M69.9,24.8 C67.94,24.98 66.64,25.16 66.64,26 C66.64,26.68 67.4,26.76 67.72,26.76 C68.64,26.76 69.48,26.32 69.9,26.1 L69.9,24.8 L69.9,24.8 Z M71.84,22.88 L72.5,22.88 L72.5,23.78 C72.88,23.36 73.42,22.76 74.28,22.76 C74.44,22.76 74.54,22.78 74.68,22.8 L74.68,23.46 C74.6,23.44 74.44,23.4 74.14,23.4 C73.2,23.4 72.52,24.5 72.5,24.62 L72.5,27.18 L71.84,27.18 L71.84,22.88 Z M79.86,26.28 C79.4,26.74 79,27.3 77.54,27.3 C76.1,27.3 75.12,26.32 75.12,25 C75.12,23.64 76.14,22.74 77.46,22.74 C78.82,22.74 80.02,23.44 80,25.16 L75.8,25.16 C75.86,25.96 76.5,26.74 77.62,26.74 C78.72,26.74 79.08,26.24 79.36,25.9 L79.86,26.28 Z M79.26,24.6 C79.14,23.9 78.52,23.32 77.5,23.32 C76.52,23.32 75.98,23.82 75.8,24.6 L79.26,24.6 L79.26,24.6 Z"/>
  <path d="M39.98,8.66 L41.26,8.66 L41.26,10.36 C41.7,9.72 42.16,9.26 42.62,8.98 C43.26,8.6 43.94,8.42 44.64,8.42 C45.12,8.42 45.58,8.52 46,8.7 C46.42,8.9 46.78,9.14 47.06,9.46 C47.32,9.78 47.56,10.22 47.76,10.8 C48.18,10.02 48.72,9.44 49.34,9.02 C49.98,8.62 50.64,8.42 51.38,8.42 C52.06,8.42 52.66,8.6 53.18,8.94 C53.7,9.28 54.1,9.76 54.34,10.38 C54.58,11 54.72,11.92 54.72,13.16 L54.72,18.56 L53.44,18.56 L53.44,13.16 C53.44,12.1 53.36,11.38 53.22,10.98 C53.06,10.58 52.82,10.26 52.44,10.02 C52.08,9.78 51.64,9.66 51.14,9.66 C50.52,9.66 49.96,9.84 49.46,10.2 C48.94,10.56 48.58,11.04 48.34,11.64 C48.1,12.24 47.98,13.26 47.98,14.68 L47.98,18.54 L46.7,18.54 L46.7,13.48 C46.7,12.28 46.62,11.48 46.48,11.06 C46.32,10.64 46.08,10.28 45.7,10.02 C45.34,9.76 44.9,9.64 44.4,9.64 C43.8,9.64 43.26,9.82 42.74,10.16 C42.22,10.52 41.84,11 41.62,11.58 C41.38,12.18 41.26,13.1 41.26,14.32 L41.26,18.5 L39.98,18.5 L39.98,8.66 L39.98,8.66 Z M67.3,8.66 L67.3,18.56 L66,18.56 L66,16.86 C65.48,17.5 64.88,18 64.2,18.32 C63.54,18.64 62.82,18.8 62.04,18.8 C60.64,18.8 59.46,18.3 58.46,17.28 C57.48,16.28 56.98,15.04 56.98,13.58 C56.98,12.16 57.48,10.94 58.48,9.94 C59.48,8.94 60.68,8.42 62.08,8.42 C62.88,8.42 63.62,8.6 64.28,8.94 C64.94,9.28 65.52,9.8 66,10.48 L66,8.64 L67.3,8.64 L67.3,8.66 Z M62.2,9.66 C61.5,9.66 60.84,9.84 60.24,10.18 C59.64,10.52 59.18,11.02 58.82,11.64 C58.46,12.28 58.3,12.92 58.3,13.62 C58.3,14.32 58.48,14.98 58.84,15.62 C59.2,16.26 59.66,16.74 60.26,17.1 C60.86,17.46 61.5,17.62 62.2,17.62 C62.88,17.62 63.54,17.44 64.16,17.1 C64.78,16.74 65.26,16.28 65.58,15.68 C65.92,15.08 66.08,14.42 66.08,13.66 C66.08,12.52 65.7,11.56 64.96,10.8 C64.22,10.06 63.3,9.66 62.2,9.66 M80,4.86 L80,18.56 L78.72,18.56 L78.72,16.86 C78.2,17.5 77.6,18 76.94,18.32 C76.28,18.64 75.56,18.8 74.78,18.8 C73.38,18.8 72.2,18.3 71.22,17.28 C70.24,16.28 69.74,15.04 69.74,13.58 C69.74,12.16 70.24,10.94 71.24,9.94 C72.24,8.94 73.42,8.42 74.84,8.42 C75.64,8.42 76.38,8.6 77.02,8.94 C77.68,9.28 78.24,9.8 78.74,10.5 L78.74,4.84 L80,4.84 L80,4.86 Z M74.92,9.66 C74.22,9.66 73.56,9.84 72.98,10.18 C72.38,10.52 71.92,11.02 71.56,11.64 C71.2,12.28 71.04,12.92 71.04,13.62 C71.04,14.32 71.22,14.98 71.58,15.62 C71.94,16.26 72.4,16.74 73,17.1 C73.6,17.46 74.24,17.62 74.92,17.62 C75.6,17.62 76.26,17.44 76.88,17.1 C77.5,16.74 77.98,16.28 78.3,15.68 C78.64,15.08 78.8,14.42 78.8,13.66 C78.8,12.52 78.42,11.56 77.68,10.8 C76.92,10.06 76,9.66 74.92,9.66 M92.46,10.7 L91.46,11.32 C90.6,10.18 89.4,9.6 87.88,9.6 C86.68,9.6 85.66,9.98 84.88,10.76 C84.08,11.54 83.68,12.48 83.68,13.6 C83.68,14.32 83.86,15 84.22,15.64 C84.58,16.28 85.08,16.76 85.74,17.12 C86.38,17.48 87.1,17.64 87.88,17.64 C89.34,17.64 90.52,17.06 91.44,15.92 L92.44,16.58 C91.96,17.28 91.34,17.84 90.54,18.24 C89.74,18.62 88.84,18.82 87.82,18.82 C86.26,18.82 84.96,18.32 83.92,17.32 C82.88,16.34 82.38,15.12 82.38,13.7 C82.38,12.74 82.62,11.86 83.1,11.04 C83.58,10.22 84.24,9.58 85.08,9.12 C85.92,8.66 86.88,8.44 87.92,8.44 C88.58,8.44 89.2,8.54 89.82,8.74 C90.44,8.94 90.94,9.2 91.38,9.5 C91.82,9.8 92.16,10.22 92.46,10.7 M104.76,8.66 L104.76,18.56 L103.48,18.56 L103.48,16.86 C102.94,17.5 102.36,18 101.68,18.32 C101,18.64 100.3,18.8 99.52,18.8 C98.12,18.8 96.94,18.3 95.94,17.28 C94.96,16.28 94.46,15.04 94.46,13.58 C94.46,12.16 94.96,10.94 95.96,9.94 C96.96,8.94 98.16,8.42 99.56,8.42 C100.36,8.42 101.1,8.6 101.76,8.94 C102.42,9.28 103,9.8 103.48,10.48 L103.48,8.64 L104.76,8.64 L104.76,8.66 Z M99.66,9.66 C98.96,9.66 98.3,9.84 97.72,10.18 C97.12,10.52 96.64,11.02 96.3,11.64 C95.94,12.28 95.78,12.92 95.78,13.62 C95.78,14.32 95.96,14.98 96.32,15.62 C96.68,16.26 97.14,16.74 97.74,17.1 C98.34,17.46 98.98,17.62 99.66,17.62 C100.34,17.62 101,17.44 101.62,17.1 C102.24,16.76 102.72,16.28 103.04,15.68 C103.38,15.08 103.54,14.42 103.54,13.66 C103.54,12.52 103.16,11.56 102.42,10.8 C101.68,10.06 100.76,9.66 99.66,9.66 M107.62,8.66 L108.9,8.66 L108.9,10.48 C109.4,9.8 109.98,9.28 110.62,8.94 C111.28,8.6 112,8.42 112.8,8.42 C114.2,8.42 115.4,8.92 116.4,9.94 C117.4,10.94 117.9,12.16 117.9,13.58 C117.9,15.02 117.4,16.26 116.42,17.28 C115.44,18.28 114.24,18.8 112.84,18.8 C112.06,18.8 111.32,18.64 110.68,18.3 C110.02,17.98 109.42,17.48 108.9,16.84 L108.9,22.16 L107.62,22.16 L107.62,8.66 L107.62,8.66 Z M112.7,9.66 C111.6,9.66 110.68,10.04 109.94,10.8 C109.18,11.56 108.82,12.52 108.82,13.66 C108.82,14.42 108.98,15.08 109.32,15.68 C109.66,16.28 110.14,16.76 110.76,17.1 C111.38,17.46 112.04,17.62 112.74,17.62 C113.42,17.62 114.06,17.44 114.64,17.1 C115.24,16.74 115.72,16.26 116.08,15.62 C116.44,14.98 116.62,14.32 116.62,13.62 C116.62,12.92 116.44,12.26 116.1,11.64 C115.74,11.02 115.28,10.52 114.68,10.18 C114.06,9.84 113.4,9.66 112.7,9.66 M40.16,25.82 C40.58,26.34 41.2,26.72 42.1,26.72 C42.8,26.72 43.44,26.5 43.44,26 C43.44,24.78 39.88,25.82 39.88,24.06 C39.88,23.08 40.88,22.76 41.78,22.76 C43.22,22.76 43.74,23.38 43.96,23.68 L43.5,24.08 C43.14,23.62 42.6,23.3 41.76,23.3 C40.98,23.3 40.52,23.54 40.52,24 C40.52,25.1 44.08,24.1 44.08,25.94 C44.08,26.92 43.12,27.28 42,27.28 C41.06,27.28 40.26,27.02 39.62,26.28 L40.16,25.82 L40.16,25.82 Z M44.72,24.94 C44.72,23.72 45.68,22.74 47.2,22.74 C48.7,22.74 49.66,23.72 49.66,24.94 C49.66,26.46 48.66,27.28 47.2,27.28 C45.74,27.3 44.72,26.46 44.72,24.94 M49,25.04 C49,24.26 48.5,23.32 47.2,23.32 C45.9,23.32 45.38,24.26 45.38,25.04 C45.38,26.06 46.06,26.74 47.2,26.74 C48.32,26.72 49,26.04 49,25.04 M51.18,23.54 L50.1,23.54 L50.1,22.98 L51.18,22.98 L51.18,22.64 C51.18,21.94 51.4,21.06 52.7,21.06 C53.38,21.06 53.64,21.14 53.82,21.18 L53.82,21.78 C53.54,21.7 53.24,21.64 52.9,21.64 C51.98,21.64 51.84,22.06 51.84,22.7 L51.84,22.98 L53.6,22.98 L53.6,23.54 L51.84,23.54 L51.84,27.16 L51.18,27.16 L51.18,23.54 Z M57.58,23.44 L55.88,23.44 L55.88,26.02 C55.88,26.48 56.08,26.72 56.76,26.72 C57.08,26.72 57.34,26.66 57.7,26.6 L57.7,27.16 C57.22,27.24 56.88,27.28 56.62,27.28 C55.22,27.28 55.22,26.44 55.22,26.08 L55.22,23.42 L54.3,23.42 L54.3,22.86 L55.22,22.86 L55.22,21.44 L55.88,21.44 L55.88,22.86 L57.58,22.86 L57.58,23.44 L57.58,23.44 Z M58.14,22.88 L58.82,22.88 L60.24,26.36 L61.58,22.88 L62.2,22.88 L63.54,26.38 L64.94,22.88 L65.64,22.88 L63.82,27.16 L63.2,27.16 L61.9,23.68 L60.6,27.16 L59.96,27.16 L58.14,22.88 Z M70.56,26.5 C70.56,26.76 70.6,26.94 70.64,27.16 L69.98,27.16 C69.94,27.04 69.9,26.82 69.9,26.64 C69.28,27.04 68.58,27.28 67.76,27.28 C67.06,27.28 66.02,27.08 66.02,25.98 C66.02,24.5 68.24,24.44 69.92,24.24 L69.92,24.08 C69.92,23.5 69.22,23.28 68.54,23.28 C67.4,23.28 67,23.76 66.78,24 L66.28,23.66 C66.52,23.36 66.98,22.74 68.48,22.74 C69.46,22.74 70.58,23.02 70.58,24.12 L70.58,26.48 L70.56,26.48 L70.56,26.5 Z M69.9,24.8 C67.94,24.98 66.64,25.16 66.64,26 C66.64,26.68 67.4,26.76 67.72,26.76 C68.64,26.76 69.48,26.32 69.9,26.1 L69.9,24.8 L69.9,24.8 Z M71.84,22.88 L72.5,22.88 L72.5,23.78 C72.88,23.36 73.42,22.76 74.28,22.76 C74.44,22.76 74.54,22.78 74.68,22.8 L74.68,23.46 C74.6,23.44 74.44,23.4 74.14,23.4 C73.2,23.4 72.52,24.5 72.5,24.62 L72.5,27.18 L71.84,27.18 L71.84,22.88 Z M79.86,26.28 C79.4,26.74 79,27.3 77.54,27.3 C76.1,27.3 75.12,26.32 75.12,25 C75.12,23.64 76.14,22.74 77.46,22.74 C78.82,22.74 80.02,23.44 80,25.16 L75.8,25.16 C75.86,25.96 76.5,26.74 77.62,26.74 C78.72,26.74 79.08,26.24 79.36,25.9 L79.86,26.28 Z M79.26,24.6 C79.14,23.9 78.52,23.32 77.5,23.32 C76.52,23.32 75.98,23.82 75.8,24.6 L79.26,24.6 L79.26,24.6 Z M7.14,20.22 L7.14,20.24 C7.3,23.34 9.56,25.94 12.52,26.46 C15.68,27 18.78,25.34 19.92,22.54 L19.94,22.48 C19.94,22.46 19.96,22.28 19.96,22.28 C19.96,21.82 19.58,21.44 19.12,21.44 C18.8,21.44 18.52,21.62 18.38,21.88 L18.32,22 C17.48,24.02 15.16,25.18 12.82,24.78 C10.58,24.4 8.94,22.54 8.82,20.24 C8.82,19.76 8.44,19.38 7.98,19.38 C7.5,19.36 7.14,19.76 7.14,20.22"/>
  <path d="M0.46,18.24 C0.46,21.72 1.82,25.04 4.26,27.56 C6.72,30.1 9.98,31.5 13.44,31.5 C20.58,31.5 26.6,25.44 26.6,18.28 C26.6,17.62 26.06,17.08 25.4,17.08 C24.74,17.08 24.2,17.62 24.2,18.28 C24.2,24.24 19.38,29.08 13.42,29.08 C10.56,29.08 7.88,27.96 5.9,25.92 C3.92,23.9 2.84,21.18 2.84,18.3 C2.84,17.62 2.28,17.02 1.64,17.02 C1,17.02 0.46,17.58 0.46,18.24 M13.02,6.22 C12.12,6.22 11.28,5.86 10.62,5.24 C5.98,6.2 2.28,9.4 0.7,13.8 C0.62,14 0.6,14.2 0.6,14.38 C0.6,14.62 0.66,14.86 0.8,15.06 C1.08,15.48 1.68,15.52 1.68,15.52 L32.36,15.52 C32.92,15.48 33.36,15.02 33.36,14.46 C33.36,13.88 32.9,13.4 32.32,13.38 L25.88,13.38 L25.82,13.26 C24.02,8.98 20.06,5.88 15.5,5.14 C14.88,5.82 13.98,6.22 13.02,6.22"/>
  <path d="M15.54,2.68 C15.52,4.06 14.4,5.18 13.02,5.16 C11.64,5.14 10.52,4.02 10.54,2.62 C10.56,1.24 11.68,0.12 13.06,0.14 C14.42,0.16 15.54,1.3 15.54,2.68 M26.02,2.7 C26,3.28 23.9,3.74 21.3,3.7 C18.7,3.66 16.6,3.2 16.6,2.62 C16.6,2.04 18.72,1.58 21.32,1.62 C23.92,1.66 26.02,2.12 26.02,2.7 M0.04,2.7 C0.06,3.28 2.16,3.74 4.76,3.7 C7.36,3.66 9.46,3.2 9.46,2.62 C9.46,2.04 7.34,1.58 4.74,1.62 C2.14,1.62 0.04,2.12 0.04,2.7 M28.36,10.72 C28.36,10.52 28.22,10.48 28.02,10.48 L27.52,10.48 L27.52,11.3 L27.68,11.3 L27.68,10.98 L27.94,10.98 L28.18,11.3 L28.38,11.3 L28.14,10.96 C28.26,10.94 28.36,10.86 28.36,10.72 M27.7,10.84 L27.7,10.62 L28.02,10.62 C28.14,10.62 28.22,10.64 28.22,10.74 C28.22,10.84 28.16,10.86 28.02,10.86 L27.7,10.84 L27.7,10.84 Z"/>
  <path d="M27.92,9.84 C27.36,9.84 26.88,10.3 26.88,10.88 C26.88,11.46 27.34,11.92 27.92,11.92 C28.48,11.92 28.96,11.46 28.96,10.88 C28.96,10.3 28.48,9.84 27.92,9.84 M27.92,11.72 C27.46,11.72 27.08,11.34 27.08,10.88 C27.08,10.42 27.46,10.04 27.92,10.04 C28.38,10.04 28.76,10.42 28.76,10.88 C28.76,11.34 28.38,11.72 27.92,11.72 M117.96,7.78 L117.48,7.78 L117.48,7.6 L118.64,7.6 L118.64,7.78 L118.16,7.78 L118.16,8.68 L117.94,8.68 L117.94,7.78 L117.96,7.78 Z M119,7.86 L119,8.68 L118.8,8.68 L118.8,7.6 L119.08,7.6 L119.42,8.4 L119.76,7.6 L120.02,7.6 L120.02,8.68 L119.84,8.68 L119.84,7.86 L119.5,8.68 L119.32,8.68 L119,7.86 Z"/>
</svg>
