<svg xmlns="http://www.w3.org/2000/svg" width="35" height="34" viewBox="0 0 35 34">
  <g fill="none">
    <rect width="31.53" height="30.67" x="1.43" y="1.46" fill="#FFF"/>
    <path fill="#000" d="M0,0.03 L0,33.57 L34.4,33.57 L34.4,0.03 L0,0.03 Z M1.43,1.46 L32.97,1.46 L32.97,32.13 L1.44,32.13 L1.44,1.46 L1.43,1.46 Z"/>
    <path fill="#000" d="M9.32,24.29 C9.32,24.41 9.27,24.38 9.16,24.38 L7.07,24.38 C6.93,24.38 6.89,24.33 6.89,24.19 L6.89,9.15 C6.89,9.04 6.94,8.94 7.03,8.94 C8.16,8.89 9.17,8.87 10.88,8.87 C14.18,8.87 16.16,10.44 16.16,13.3 C16.16,15.65 14.59,16.97 13.27,17.45 C13.94,18.6 16.2,22.78 16.94,24.17 C17.01,24.29 17.01,24.38 16.85,24.38 L14.45,24.38 C14.29,24.38 14.22,24.4 14.17,24.33 C13.64,23.41 11.98,20.15 10.92,18.21 L9.32,18.21 L9.32,24.29 Z M10.72,15.93 C12.4,15.93 13.61,15.26 13.61,13.53 C13.61,11.84 12.52,11.09 10.81,11.09 C10.21,11.09 9.63,11.11 9.31,11.14 L9.31,15.93 L10.72,15.93 Z M21.5,24.22 C21.5,24.34 21.45,24.38 21.36,24.38 L19.08,24.38 C18.96,24.38 18.92,24.31 18.92,24.22 L18.92,9.04 C18.92,8.95 18.94,8.9 19.08,8.9 L21.36,8.9 C21.45,8.9 21.5,8.95 21.5,9.04 L21.5,13.65 C22.22,13.1 23.11,12.75 24.21,12.75 C25.71,12.75 27.52,13.51 27.52,16.88 L27.52,24.2 C27.52,24.34 27.47,24.39 27.36,24.39 L25.1,24.39 C24.98,24.39 24.94,24.32 24.94,24.2 L24.94,17.14 C24.94,15.76 24.4,14.99 23.29,14.99 C22.57,14.99 22,15.22 21.5,15.68 L21.5,24.22 Z"/>
  </g>
</svg>
