<svg xmlns="http://www.w3.org/2000/svg" width="35" height="34" viewBox="0 0 35 34">
  <g fill="none">
    <rect width="34.608" height="33.743" fill="#000"/>
    <rect width="31.724" height="30.859" x="1.442" y="1.442" fill="#FFF"/>
    <path fill="#000" d="M4.51346,7.94542 C4.51346,7.83006 4.5423,7.77238 4.6865,7.75796 C5.23446,7.72912 6.80624,7.68586 8.42128,7.68586 C13.25198,7.68586 15.66012,10.80058 15.66012,15.37172 C15.66012,21.73094 11.49274,23.6488 8.27708,23.6488 C7.0658,23.6488 5.30656,23.61996 4.65766,23.60554 C4.55672,23.60554 4.51346,23.53344 4.51346,23.41808 C4.49904,23.40366 4.49904,7.94542 4.51346,7.94542 Z M7.10906,21.31276 C7.51282,21.3416 7.87332,21.35602 8.32034,21.35602 C10.98804,21.35602 12.96358,19.48142 12.978,15.4294 C13.00684,11.47832 10.9592,9.9498 8.40686,9.9498 C7.90216,9.9498 7.4984,9.97864 7.09464,9.99306 L7.09464,21.31276 L7.10906,21.31276 Z M25.39362,23.5767 C25.22058,23.5767 25.17732,23.51902 25.1629,23.37482 C24.45632,19.3949 23.85068,16.59742 23.59112,14.6363 L23.56228,14.6363 C23.25946,16.39554 22.68266,19.3228 21.73094,23.38924 C21.68768,23.53344 21.63,23.5767 21.51464,23.5767 L19.1786,23.5767 C19.00556,23.5767 18.9623,23.54786 18.91904,23.40366 L16.3667,12.0407 C16.33786,11.93976 16.39554,11.85324 16.53974,11.85324 L18.87578,11.85324 C18.97672,11.85324 19.04882,11.88208 19.06324,11.98302 C19.9717,17.10212 20.34662,19.74098 20.49082,20.79364 L20.59176,20.79364 C20.7648,19.55352 21.25508,16.97234 22.32216,12.02628 C22.36542,11.88208 22.36542,11.85324 22.50962,11.85324 L24.96102,11.85324 C25.07638,11.85324 25.10522,11.91092 25.13406,12.02628 C25.97042,16.71278 26.51838,19.66888 26.66258,20.86574 L26.73468,20.86574 C26.9654,19.33722 27.28264,17.28958 28.30646,12.01186 C28.3353,11.91092 28.34972,11.85324 28.4795,11.85324 L30.67134,11.85324 C30.77228,11.85324 30.84438,11.8965 30.7867,12.02628 L27.96038,23.40366 C27.93154,23.51902 27.91712,23.5767 27.74408,23.5767 L25.39362,23.5767 L25.39362,23.5767 Z"/>
  </g>
</svg>
