<svg xmlns="http://www.w3.org/2000/svg" width="83" height="29" viewBox="0 0 83 29">
  <path d="M17,14.0632353 C17,14.0632353 16.2216117,14.0632353 16.2216117,14.0632353 C15.9102564,17.2132353 15.474359,21.0426471 9.99450549,21.0426471 C9.99450549,21.0426471 7.47252747,21.0426471 7.47252747,21.0426471 C6.00915751,21.0426471 5.94688645,20.8264706 5.94688645,19.8073529 C5.94688645,19.8073529 5.94688645,3.40882353 5.94688645,3.40882353 C5.94688645,2.35882353 5.94688645,1.92647059 8.87362637,1.92647059 C8.87362637,1.92647059 9.9010989,1.92647059 9.9010989,1.92647059 C9.9010989,1.92647059 9.9010989,1 9.9010989,1 C8.78021978,1.09264706 5.97802198,1.09264706 4.7014652,1.09264706 C3.48717949,1.09264706 1.05860806,1.09264706 0,1 C0,1 0,1.92647059 0,1.92647059 C0,1.92647059 0.716117216,1.92647059 0.716117216,1.92647059 C3.11355311,1.92647059 3.17582418,2.26617647 3.17582418,3.37794118 C3.17582418,3.37794118 3.17582418,19.5911765 3.17582418,19.5911765 C3.17582418,20.7029412 3.11355311,21.0426471 0.716117216,21.0426471 C0.716117216,21.0426471 0,21.0426471 0,21.0426471 C0,21.0426471 0,22 0,22 C0,22 16.1593407,22 16.1593407,22 C16.1593407,22 17,14.0632353 17,14.0632353 Z"/>
  <path d="M20.1164122.515090543C19.9866412.128772636 19.9217557 0 19.5 0 19.0782443 0 18.980916.128772636 18.851145.515090543 18.851145.515090543 13.6278626 13.6498994 13.6278626 13.6498994 13.4007634 14.1971831 13.0114504 15.195171 11 15.195171 11 15.195171 11 16 11 16 11 16 16.028626 16 16.028626 16 16.028626 16 16.028626 15.195171 16.028626 15.195171 15.0229008 15.195171 14.4064885 14.7444668 14.4064885 14.1006036 14.4064885 13.9396378 14.4389313 13.8752515 14.5038168 13.6498994 14.5038168 13.6498994 15.6068702 10.8812877 15.6068702 10.8812877 15.6068702 10.8812877 22.0305344 10.8812877 22.0305344 10.8812877 22.0305344 10.8812877 23.3282443 14.1649899 23.3282443 14.1649899 23.3931298 14.2937626 23.4580153 14.4547284 23.4580153 14.5513078 23.4580153 15.195171 22.2251908 15.195171 21.6087786 15.195171 21.6087786 15.195171 21.6087786 16 21.6087786 16 21.6087786 16 28 16 28 16 28 16 28 15.195171 28 15.195171 28 15.195171 27.5458015 15.195171 27.5458015 15.195171 26.0209924 15.195171 25.8587786 14.9698189 25.6316794 14.3259557 25.6316794 14.3259557 20.1164122.515090543 20.1164122.515090543zM18.8187023 2.80080483C18.8187023 2.80080483 21.7061069 10.0764588 21.7061069 10.0764588 21.7061069 10.0764588 15.9312977 10.0764588 15.9312977 10.0764588 15.9312977 10.0764588 18.8187023 2.80080483 18.8187023 2.80080483zM46.4117647 1C46.4117647 1 27.5572755 1 27.5572755 1 27.5572755 1 27 7.97922849 27 7.97922849 27 7.97922849 27.7430341 7.97922849 27.7430341 7.97922849 28.1764706 2.96290801 28.6408669 1.9347181 33.3157895 1.9347181 33.873065 1.9347181 34.6780186 1.9347181 34.9876161 1.99703264 35.6377709 2.12166172 35.6377709 2.46439169 35.6377709 3.1810089 35.6377709 3.1810089 35.6377709 19.5385757 35.6377709 19.5385757 35.6377709 20.5979228 35.6377709 21.0341246 32.3869969 21.0341246 32.3869969 21.0341246 31.1486068 21.0341246 31.1486068 21.0341246 31.1486068 21.0341246 31.1486068 22 31.1486068 22 32.4179567 21.9065282 35.5448916 21.9065282 36.9690402 21.9065282 38.3931889 21.9065282 41.5820433 21.9065282 42.8513932 22 42.8513932 22 42.8513932 21.0341246 42.8513932 21.0341246 42.8513932 21.0341246 41.6130031 21.0341246 41.6130031 21.0341246 38.3622291 21.0341246 38.3622291 20.5979228 38.3622291 19.5385757 38.3622291 19.5385757 38.3622291 3.1810089 38.3622291 3.1810089 38.3622291 2.5578635 38.3622291 2.12166172 38.9195046 1.99703264 39.2600619 1.9347181 40.0959752 1.9347181 40.6842105 1.9347181 45.3281734 1.9347181 45.7925697 2.96290801 46.2260062 7.97922849 46.2260062 7.97922849 47 7.97922849 47 7.97922849 47 7.97922849 46.4117647 1 46.4117647 1z"/>
  <path d="M63,21.028065 C63,21.028065 62.2288961,21.028065 62.2288961,21.028065 C61.4577922,25.774003 60.7483766,28.0384047 55.474026,28.0384047 C55.474026,28.0384047 51.4025974,28.0384047 51.4025974,28.0384047 C49.9529221,28.0384047 49.8912338,27.8212703 49.8912338,26.7976366 C49.8912338,26.7976366 49.8912338,18.5465288 49.8912338,18.5465288 C49.8912338,18.5465288 52.6363636,18.5465288 52.6363636,18.5465288 C55.6282468,18.5465288 55.9675325,19.5391433 55.9675325,22.1757755 C55.9675325,22.1757755 56.7386364,22.1757755 56.7386364,22.1757755 C56.7386364,22.1757755 56.7386364,13.9867061 56.7386364,13.9867061 C56.7386364,13.9867061 55.9675325,13.9867061 55.9675325,13.9867061 C55.9675325,16.6233383 55.6282468,17.5849335 52.6363636,17.5849335 C52.6363636,17.5849335 49.8912338,17.5849335 49.8912338,17.5849335 C49.8912338,17.5849335 49.8912338,10.1713442 49.8912338,10.1713442 C49.8912338,9.14771049 49.9529221,8.93057607 51.4025974,8.93057607 C51.4025974,8.93057607 55.3506494,8.93057607 55.3506494,8.93057607 C60.0698052,8.93057607 60.8717532,10.6366322 61.3652597,14.9483013 C61.3652597,14.9483013 62.1363636,14.9483013 62.1363636,14.9483013 C62.1363636,14.9483013 61.2727273,8 61.2727273,8 C61.2727273,8 44,8 44,8 C44,8 44,8.93057607 44,8.93057607 C44,8.93057607 44.7094156,8.93057607 44.7094156,8.93057607 C47.0844156,8.93057607 47.1461039,9.2717873 47.1461039,10.3884786 C47.1461039,10.3884786 47.1461039,26.5805022 47.1461039,26.5805022 C47.1461039,27.6971935 47.0844156,28.0384047 44.7094156,28.0384047 C44.7094156,28.0384047 44,28.0384047 44,28.0384047 C44,28.0384047 44,29 44,29 C44,29 61.7045455,29 61.7045455,29 C61.7045455,29 63,21.028065 63,21.028065 Z"/>
  <path d="M72.8340486,10.1102941 C72.8340486,10.1102941 77.1459227,3.93382353 77.1459227,3.93382353 C77.806867,2.94558824 78.8769671,1.95735294 81.6781116,1.92647059 C81.6781116,1.92647059 81.6781116,1 81.6781116,1 C81.6781116,1 74.1874106,1 74.1874106,1 C74.1874106,1 74.1874106,1.92647059 74.1874106,1.92647059 C75.4463519,1.95735294 76.1387697,2.63676471 76.1387697,3.34705882 C76.1387697,3.65588235 76.0758226,3.71764706 75.8555079,4.05735294 C75.8555079,4.05735294 72.267525,9.24558824 72.267525,9.24558824 C72.267525,9.24558824 68.2389127,3.31617647 68.2389127,3.31617647 C68.1759657,3.22352941 68.018598,2.97647059 68.018598,2.85294118 C68.018598,2.48235294 68.7110157,1.95735294 70.0329041,1.92647059 C70.0329041,1.92647059 70.0329041,1 70.0329041,1 C68.962804,1.09264706 66.6652361,1.09264706 65.4692418,1.09264706 C64.4935622,1.09264706 62.5422031,1.06176471 61.3776824,1 C61.3776824,1 61.3776824,1.92647059 61.3776824,1.92647059 C61.3776824,1.92647059 61.9756795,1.92647059 61.9756795,1.92647059 C63.7067239,1.92647059 64.304721,2.14264706 64.9027182,3.00735294 C64.9027182,3.00735294 70.6623748,11.5617647 70.6623748,11.5617647 C70.6623748,11.5617647 65.5321888,19.0044118 65.5321888,19.0044118 C65.0915594,19.6220588 64.1473534,21.0426471 61,21.0426471 C61,21.0426471 61,22 61,22 C61,22 68.490701,22 68.490701,22 C68.490701,22 68.490701,21.0426471 68.490701,21.0426471 C67.0429185,21.0117647 66.5078684,20.1779412 66.5078684,19.6220588 C66.5078684,19.3441176 66.602289,19.2205882 66.8226037,18.8808824 C66.8226037,18.8808824 71.260372,12.4264706 71.260372,12.4264706 C71.260372,12.4264706 76.2331903,19.7764706 76.2331903,19.7764706 C76.2961373,19.9 76.3905579,20.0235294 76.3905579,20.1161765 C76.3905579,20.4867647 75.6981402,21.0117647 74.3447783,21.0426471 C74.3447783,21.0426471 74.3447783,22 74.3447783,22 C75.4463519,21.9073529 77.7439199,21.9073529 78.9084406,21.9073529 C80.230329,21.9073529 81.6781116,21.9382353 83,22 C83,22 83,21.0426471 83,21.0426471 C83,21.0426471 82.4020029,21.0426471 82.4020029,21.0426471 C80.7653791,21.0426471 80.1044349,20.8882353 79.4434907,19.9308824 C79.4434907,19.9308824 72.8340486,10.1102941 72.8340486,10.1102941 Z"/>
</svg>
