<?xml version="1.0" encoding="UTF-8"?>
<svg width="230px" height="50px" viewBox="0 0 230 50" version="1.1" xmlns="http://www.w3.org/2000/svg" xmlns:xlink="http://www.w3.org/1999/xlink">
    <title>salesforce</title>
    <defs>
        <rect id="path-1" x="-8.73114914e-11" y="0" width="230" height="50"></rect>
    </defs>
    <g id="Page-1" stroke="none" stroke-width="1" fill="none" fill-rule="evenodd">
        <g id="a1qa-Software-crm-testing-v4" transform="translate(-845.000000, -2891.000000)">
            <g id="Group-36" transform="translate(374.000000, 2714.000000)">
                <g id="Group-29" transform="translate(1.000000, 152.000000)">
                    <g id="Card-2" transform="translate(400.000000, 0.000000)">
                        <g id="salesforce" transform="translate(70.000000, 25.000000)">
                            <mask id="mask-2" fill="white">
                                <use xlink:href="#path-1"></use>
                            </mask>
                            <use id="Mask" fill-opacity="0" fill="#D8D8D8" xlink:href="#path-1"></use>
                            <path d="M108.545912,44.5467681 C110.835712,46.9472483 114.023632,48.4359734 117.549359,48.4359734 C122.236168,48.4359734 126.325242,45.8065369 128.502778,41.9030852 C130.3951,42.7537852 132.489701,43.2269618 134.693533,43.2269618 C143.146781,43.2269618 150,36.2717763 150,27.6925268 C150,19.1122598 143.146781,12.1570742 134.693533,12.1570742 C133.661909,12.1570742 132.653547,12.2608678 131.678561,12.4592966 C129.760954,9.01782805 126.106781,6.69264897 121.912521,6.69264897 C120.156738,6.69264897 118.496025,7.10070008 117.017365,7.82623736 C115.073461,3.2257408 110.54443,0 105.265954,0 C99.7690171,0 95.0842307,3.49947086 93.2859686,8.40727774 C92.500114,8.2393764 91.6859402,8.1518642 90.8505271,8.1518642 C84.3057835,8.1518642 79,13.5450586 79,20.1990394 C79,24.6580918 81.3838604,28.5513675 84.9257692,30.6343618 C84.1965527,32.3225332 83.7909829,34.1857293 83.7909829,36.1445782 C83.7909829,43.7968088 89.9655555,50 97.5813675,50 C102.052749,50 106.026524,47.8610386 108.545912,44.5467681" id="Path" fill="#000000" fill-rule="nonzero" mask="url(#mask-2)" transform="translate(114.500000, 25.000000) scale(-1, 1) rotate(-180.000000) translate(-114.500000, -25.000000) "></path>
                            <path d="M89.0162558,20.9429175 C88.9711726,20.8213531 89.0326497,20.7959831 89.0469944,20.7748414 C89.182244,20.6733615 89.3195429,20.6004228 89.4578664,20.5190275 C90.1914932,20.1173361 90.8841353,20 91.6085405,20 C93.0839911,20 94,20.8097251 94,22.1131078 L94,22.1384778 C94,23.3435518 92.96616,23.7811839 91.9958463,24.0972516 L91.8698182,24.1395349 C91.1382407,24.384778 90.5070757,24.5961945 90.5070757,25.0930232 L90.5070757,25.1194503 C90.5070757,25.5443974 90.8759383,25.8572939 91.4476754,25.8572939 C92.0829389,25.8572939 92.8370581,25.6395349 93.3227272,25.3625793 C93.3227272,25.3625793 93.4651492,25.2674419 93.5174047,25.410148 C93.546094,25.4862579 93.7920025,26.1691332 93.8176179,26.2431289 C93.8452826,26.3234672 93.7961009,26.3826638 93.7458946,26.4143763 C93.191576,26.7621564 92.4251614,27 91.6321067,27 L91.4845617,26.9989429 C90.1341145,26.9989429 89.1914656,26.1575053 89.1914656,24.9513742 L89.1914656,24.9260042 C89.1914656,23.654334 90.2314533,23.2420719 91.2058655,22.9545454 L91.3626321,22.9048626 C92.0726927,22.679704 92.6843899,22.4862579 92.6843899,21.9704017 L92.6843899,21.9450317 C92.6843899,21.4735729 92.2868379,21.1226216 91.6454268,21.1226216 C91.3964445,21.1226216 90.6023652,21.127907 89.7447595,21.6871036 C89.6412731,21.7494715 89.5808206,21.794926 89.5009003,21.8446089 C89.458891,21.872093 89.3533553,21.9196617 89.3072475,21.7758985 L89.0162558,20.9429175 L89.0162558,20.9429175 Z" id="Path" fill="#FFFFFF" fill-rule="nonzero" mask="url(#mask-2)" transform="translate(91.500000, 23.500000) scale(-1, 1) rotate(-180.000000) translate(-91.500000, -23.500000) "></path>
                            <path d="M111.016256,20.9429175 C110.971173,20.8213531 111.03265,20.7959831 111.046995,20.7748414 C111.182244,20.6733615 111.319543,20.6004228 111.457866,20.5190275 C112.191493,20.1173361 112.884135,20 113.608541,20 C115.083991,20 116,20.8097251 116,22.1131078 L116,22.1384778 C116,23.3435518 114.96616,23.7811839 113.995846,24.0972516 L113.869818,24.1395349 C113.138241,24.384778 112.507076,24.5961945 112.507076,25.0930232 L112.507076,25.1194503 C112.507076,25.5443974 112.875938,25.8572939 113.447676,25.8572939 C114.082939,25.8572939 114.837058,25.6395349 115.322727,25.3625793 C115.322727,25.3625793 115.465149,25.2674419 115.517405,25.410148 C115.546094,25.4862579 115.792002,26.1691332 115.817618,26.2431289 C115.845283,26.3234672 115.796101,26.3826638 115.745895,26.4143763 C115.191576,26.7621564 114.425161,27 113.632107,27 L113.484562,26.9989429 C112.134115,26.9989429 111.191465,26.1575053 111.191465,24.9513742 L111.191465,24.9260042 C111.191465,23.654334 112.231453,23.2420719 113.205865,22.9545454 L113.362632,22.9048626 C114.072693,22.679704 114.685414,22.4862579 114.685414,21.9704017 L114.685414,21.9450317 C114.685414,21.4735729 114.286838,21.1226216 113.645427,21.1226216 C113.396445,21.1226216 112.602365,21.127907 111.74476,21.6871036 C111.641273,21.7494715 111.579796,21.7928118 111.501925,21.8446089 C111.475285,21.8625793 111.350281,21.9122621 111.307247,21.7758985 L111.016256,20.9429175 L111.016256,20.9429175 Z" id="Path" fill="#FFFFFF" fill-rule="nonzero" mask="url(#mask-2)" transform="translate(113.500000, 23.500000) scale(-1, 1) rotate(-180.000000) translate(-113.500000, -23.500000) "></path>
                            <path d="M125.5907,23.493617 C125.5907,22.7521277 125.457844,22.1680851 125.196219,21.7553191 C124.93766,21.3468085 124.546244,21.1478724 124.000511,21.1478724 C123.453756,21.1478724 123.064384,21.3457447 122.809913,21.7553191 C122.552376,22.1670213 122.421564,22.7521277 122.421564,23.493617 C122.421564,24.2340425 122.552376,24.8170213 122.809913,25.2255319 C123.064384,25.6297872 123.453756,25.8265957 124.000511,25.8265957 C124.546244,25.8265957 124.93766,25.6297872 125.197241,25.2255319 C125.457844,24.8170213 125.5907,24.2340425 125.5907,23.493617 M126.819111,24.8680851 C126.698518,25.2925532 126.510475,25.6670213 126.260092,25.9787234 C126.009709,26.2914894 125.692897,26.5425532 125.316811,26.7255319 C124.941748,26.9074468 124.498211,27 124.000511,27 C123.501789,27 123.058252,26.9074468 122.683189,26.7255319 C122.307103,26.5425532 121.990291,26.2914894 121.738886,25.9787234 C121.489525,25.6659574 121.301482,25.2914893 121.179867,24.8680851 C121.060297,24.4457447 121,23.9840426 121,23.493617 C121,23.0031915 121.060297,22.5404255 121.179867,22.1191489 C121.301482,21.6957447 121.488503,21.3212766 121.739908,21.0085106 C121.990291,20.6957447 122.308125,20.4457447 122.683189,20.2680851 C123.059274,20.0904255 123.501789,20 124.000511,20 C124.498211,20 124.940726,20.0904255 125.316811,20.2680851 C125.691875,20.4457447 126.009709,20.6957447 126.260092,21.0085106 C126.510475,21.3202128 126.698518,21.6946809 126.819111,22.1191489 C126.939703,22.5414893 127,23.0042553 127,23.493617 C127,23.9829787 126.939703,24.4457447 126.819111,24.8680851" id="Shape" fill="#FFFFFF" fill-rule="nonzero" mask="url(#mask-2)" transform="translate(124.000000, 23.500000) scale(-1, 1) rotate(-180.000000) translate(-124.000000, -23.500000) "></path>
                            <path d="M136.691294,21.3419414 C136.650756,21.4663527 136.536235,21.4195655 136.536235,21.4195655 C136.35888,21.3483214 136.170377,21.282394 135.969713,21.2494303 C135.766008,21.2164666 135.542034,21.1994531 135.301844,21.1994531 C134.712012,21.1994531 134.243795,21.3834118 133.90834,21.7470758 C133.571873,22.1107398 133.383369,22.6987696 133.385396,23.4941516 C133.387423,24.2182895 133.55363,24.7627222 133.8526,25.1774267 C134.149543,25.5900046 134.601545,25.8016102 135.204552,25.8016102 C135.707227,25.8016102 136.090314,25.7409995 136.491643,25.6080814 C136.491643,25.6080814 136.587921,25.5644843 136.633527,25.696339 C136.73994,26.0068358 136.81899,26.2290749 136.932497,26.5704086 C136.964928,26.667173 136.885878,26.7086435 136.857501,26.7203403 C136.699402,26.7852043 136.32645,26.8904755 136.044708,26.935136 C135.781209,26.9776698 135.473119,27 135.13057,27 C134.618774,27 134.162718,26.9085523 133.772537,26.725657 C133.383369,26.543825 133.052982,26.2928756 132.79151,25.9802522 C132.530038,25.6676287 132.331401,25.2933313 132.198638,24.87012 C132.066888,24.447972 132,23.9843536 132,23.4941516 C132,22.4339966 132.27262,21.5769406 132.810766,20.9495671 C133.349925,20.3200668 134.159678,20 135.2157,20 C135.83999,20 136.480495,20.1329181 136.940605,20.3232569 C136.940605,20.3232569 137.028776,20.3679174 136.990264,20.4753152 L136.691294,21.3419414 L136.691294,21.3419414 Z" id="Path" fill="#FFFFFF" fill-rule="nonzero" mask="url(#mask-2)" transform="translate(134.500000, 23.500000) scale(-1, 1) rotate(-180.000000) translate(-134.500000, -23.500000) "></path>
                            <path d="M139.263112,24.2046783 C139.313743,24.6163168 139.408788,24.958817 139.555351,25.2257969 C139.776529,25.6310534 140.11407,25.8533594 140.588403,25.8533594 C141.062736,25.8533594 141.376294,25.6299897 141.601025,25.2257969 C141.750253,24.958817 141.815097,24.6014254 141.840856,24.2046783 L139.263112,24.2046783 L139.263112,24.2046783 Z M142.857919,25.1098574 C142.767316,25.5193686 142.542585,25.9331343 142.395133,26.1224667 C142.162408,26.4224203 141.935012,26.6319624 141.709393,26.7489656 C141.414489,26.900006 141.06096,27 140.673676,27 C140.222438,27 139.812948,26.909579 139.480737,26.7223739 C139.147638,26.5351689 138.867835,26.2798892 138.648433,25.9618533 C138.429032,25.644881 138.263814,25.2672799 138.158999,24.8386228 C138.053296,24.412093 138,23.9472713 138,23.4569216 C138,22.9580627 138.055072,22.4932409 138.164329,22.0752205 C138.274474,21.6540091 138.45035,21.2827899 138.688405,20.9753906 C138.925572,20.665864 139.231135,20.4233484 139.5971,20.2542256 C139.9604,20.0861665 140.401867,19.9989459 140.909067,20 C141.952778,20.0042643 142.502613,20.2829446 142.729121,20.4329214 C142.769093,20.459513 142.807288,20.5063143 142.759322,20.6403361 L142.523043,21.4327667 C142.487513,21.5508335 142.387139,21.5072233 142.387139,21.5072233 C142.128654,21.3923474 141.760912,21.1859964 140.903737,21.1881237 C140.343242,21.1891873 139.927534,21.3870291 139.667273,21.6965557 C139.399905,22.0135279 139.26933,22.4794133 139.246235,23.1367584 L142.860584,23.1325038 C142.860584,23.1325038 142.955628,23.1346311 142.965399,23.2452523 C142.968952,23.2920535 143.089756,24.1344764 142.857919,25.1098574 L142.857919,25.1098574 Z" id="Shape" fill="#FFFFFF" fill-rule="nonzero" mask="url(#mask-2)" transform="translate(140.500000, 23.499995) scale(-1, 1) rotate(-180.000000) translate(-140.500000, -23.499995) "></path>
                            <path d="M106.263143,24.2046783 C106.314663,24.6163168 106.408822,24.958817 106.555389,25.2257969 C106.776572,25.6310534 107.114121,25.8533594 107.588465,25.8533594 C108.06281,25.8533594 108.376375,25.6299897 108.602,25.2257969 C108.750343,24.958817 108.815188,24.6014254 108.840949,24.2046783 L106.263143,24.2046783 L106.263143,24.2046783 Z M109.857148,25.1098574 C109.766542,25.5193686 109.542695,25.9331343 109.395239,26.1224667 C109.162508,26.4224203 108.935107,26.6319624 108.709482,26.7489656 C108.414571,26.900006 108.061034,27 107.673741,27 C107.22338,27 106.812992,26.909579 106.480773,26.7223739 C106.147665,26.5351689 105.867855,26.2798892 105.648449,25.9618533 C105.429042,25.644881 105.263821,25.2672799 105.159003,24.8386228 C105.054185,24.412093 105,23.9472713 105,23.4569216 C105,22.9580627 105.055074,22.4932409 105.164333,22.0752205 C105.27448,21.6540091 105.450361,21.2827899 105.688422,20.9753906 C105.925594,20.665864 106.231164,20.4233484 106.597138,20.2542256 C106.960447,20.0861665 107.401925,19.9989459 107.909137,20 C108.952873,20.0042643 109.502722,20.2829446 109.729235,20.4329214 C109.769207,20.459513 109.807404,20.5063143 109.759436,20.6403361 L109.52404,21.4327667 C109.487621,21.5508335 109.387244,21.5072233 109.387244,21.5072233 C109.128753,21.3923474 108.761891,21.1859964 107.902919,21.1881237 C107.343299,21.1891873 106.927581,21.3870291 106.667313,21.6965557 C106.399939,22.0135279 106.269361,22.4794133 106.246265,23.1367584 L109.860701,23.1325038 C109.860701,23.1325038 109.955748,23.1346311 109.965518,23.2452523 C109.969072,23.2920535 110.089879,24.1344764 109.857148,25.1098574 L109.857148,25.1098574 Z" id="Shape" fill="#FFFFFF" fill-rule="nonzero" mask="url(#mask-2)" transform="translate(107.500000, 23.499995) scale(-1, 1) rotate(-180.000000) translate(-107.500000, -23.499995) "></path>
                            <path d="M97.5915549,21.3687566 C97.4404759,21.5037195 97.4195719,21.5377258 97.3682621,21.6248672 C97.2922475,21.7577046 97.2532901,21.946865 97.2532901,22.1870351 C97.2532901,22.5674814 97.3654116,22.8405951 97.5982062,23.0244421 C97.5953556,23.0233794 97.9307699,23.3485654 98.719421,23.3368757 C99.2733771,23.3283741 99.7684219,23.2369819 99.7684219,23.2369819 L99.7684219,21.2709883 L99.7693721,21.2709883 C99.7693721,21.2709883 99.278128,21.1530287 98.725122,21.1158342 C97.9383713,21.0626993 97.5887043,21.3698193 97.5915549,21.3687566 M99.1298996,24.4070138 C98.9731196,24.4197662 98.7697806,24.4272051 98.526534,24.4272051 C98.1949205,24.4272051 97.8747091,24.3804463 97.5744516,24.2901169 C97.2722937,24.1997875 97.0005417,24.0584484 96.7667969,23.8714134 C96.5321019,23.6833156 96.3430157,23.4431456 96.2061895,23.1583422 C96.0693633,22.8735388 96,22.5377258 96,22.1615303 C96,21.7789586 96.0589113,21.4463337 96.1767339,21.1742827 C96.2945564,20.901169 96.464639,20.6737513 96.6812805,20.4984059 C96.8960217,20.3230606 97.1611224,20.194474 97.4689814,20.1168969 C97.7720895,20.0393199 98.1160554,20 98.4923275,20 C98.8885534,20 99.2838291,20.0361318 99.6667524,20.109458 C100.045875,20.1817216 100.511464,20.2869288 100.640689,20.3198725 C100.768964,20.3538789 100.911491,20.3974495 100.911491,20.3974495 C101.007459,20.424017 100.999858,20.5387885 100.999858,20.5387885 L100.997957,24.4930925 C100.997957,25.360255 100.790818,26.0031881 100.38319,26.4017003 C99.977462,26.7991498 99.3797975,27 98.6072995,27 C98.317494,27 97.8509546,26.9553666 97.5716011,26.8926674 C97.5716011,26.8926674 96.7268893,26.7098831 96.3791226,26.4059511 C96.3791226,26.4059511 96.3031081,26.3528162 96.3449161,26.2337938 L96.6185685,25.4112646 C96.6527751,25.3049947 96.7449427,25.3411265 96.7449427,25.3411265 C96.7449427,25.3411265 96.7743983,25.3538788 96.8086049,25.3761956 C97.5525974,25.8289054 98.4932776,25.8150903 98.4932776,25.8150903 C98.9113577,25.8150903 99.2325193,25.7215728 99.4491608,25.5356004 C99.6601012,25.3549415 99.7674718,25.0818279 99.7674718,24.5058448 L99.7674718,24.3230606 C99.434908,24.3761955 99.1298996,24.4070138 99.1298996,24.4070138" id="Shape" fill="#FFFFFF" fill-rule="nonzero" mask="url(#mask-2)" transform="translate(98.500000, 23.500000) scale(-1, 1) rotate(-180.000000) translate(-98.500000, -23.500000) "></path>
                            <path d="M131.991292,25.7466755 C132.024225,25.8331907 131.955172,25.8745675 131.926488,25.8839713 C131.853185,25.9093616 131.485608,25.9780095 131.201957,25.993996 C130.659091,26.0231479 130.35738,25.942275 130.08754,25.8350714 C129.819825,25.7278679 129.522364,25.5548375 129.356636,25.3582977 L129.356636,25.8237868 C129.356636,25.8886732 129.30458,25.9403942 129.232339,25.9403942 L128.124296,25.9403942 C128.052055,25.9403942 128,25.8886732 128,25.8237868 L128,20.1166074 C128,20.0526614 128.059492,20 128.131733,20 L129.267397,20 C129.339638,20 129.398068,20.0526614 129.398068,20.1166074 L129.398068,22.9678462 C129.398068,23.3505817 129.445874,23.7323769 129.541486,23.9721743 C129.634974,24.2091506 129.762458,24.3991078 129.919687,24.5354633 C130.077979,24.6708783 130.257518,24.7658569 130.454055,24.8194587 C130.654841,24.8740009 130.876875,24.8918681 131.034104,24.8918681 C131.260388,24.8918681 131.50898,24.8401471 131.50898,24.8401471 C131.591844,24.8316836 131.638588,24.876822 131.66621,24.9435891 C131.740575,25.1185002 131.950923,25.6422931 131.991292,25.7466755" id="Path" fill="#FFFFFF" fill-rule="nonzero" mask="url(#mask-2)" transform="translate(130.000000, 23.000000) scale(-1, 1) rotate(-180.000000) translate(-130.000000, -23.000000) "></path>
                            <path d="M121.918702,28.8617464 C121.790601,28.9018199 121.674324,28.9288694 121.522572,28.9579226 C121.36885,28.9859743 121.185566,29 120.977647,29 C120.252394,29 119.680862,28.791618 119.279805,28.3808648 C118.880719,27.9721155 118.609734,27.3499749 118.473749,26.5314743 L118.424479,26.2559692 L117.513971,26.2559692 C117.513971,26.2559692 117.403607,26.2599766 117.379957,26.1377525 L117.231162,25.2891968 C117.220323,25.2090499 117.254811,25.1579562 117.361235,25.1579562 L118.247108,25.1579562 L117.348424,20.0566037 C117.278461,19.6458507 117.197658,19.3082317 117.107987,19.0517616 C117.020287,18.7992987 116.934557,18.6099516 116.828134,18.4716981 C116.725652,18.3394557 116.629083,18.2412757 116.461565,18.184171 C116.32361,18.1370847 116.163975,18.1150443 115.98956,18.1150443 C115.892991,18.1150443 115.763903,18.1310736 115.66832,18.1511104 C115.573722,18.1701453 115.523466,18.1911838 115.451532,18.2222408 C115.451532,18.2222408 115.348065,18.2623142 115.306678,18.1571214 C115.27416,18.0699616 115.037665,17.4097512 115.009088,17.3286024 C114.981497,17.2474537 115.020913,17.184338 115.071168,17.1653031 C115.189416,17.1232259 115.277117,17.0951745 115.437737,17.0561029 C115.660437,17.0030055 115.848648,17 116.025034,17 C116.393573,17 116.730579,17.0530974 117.009447,17.1552847 C117.2893,17.2584739 117.533679,17.4378026 117.750467,17.6802471 C117.984006,17.9427283 118.130831,18.2172316 118.270757,18.5929203 C118.409698,18.9635999 118.528932,19.4244448 118.62353,19.9614293 L119.52714,25.1579562 L120.847574,25.1579562 C120.847574,25.1579562 120.958924,25.1539488 120.981588,25.2771748 L121.131369,26.1247286 C121.141223,26.2058774 121.10772,26.2559692 121.000311,26.2559692 L119.718307,26.2559692 C119.725205,26.2850225 119.783344,26.7438637 119.930168,27.1756553 C119.993234,27.3589915 120.111482,27.508265 120.211007,27.6104524 C120.309547,27.7106362 120.422867,27.7817664 120.547028,27.8228417 C120.674144,27.8649191 120.818998,27.8849556 120.977647,27.8849556 C121.097865,27.8849556 121.217099,27.8709299 121.30677,27.8518952 C121.43093,27.8248456 121.479215,27.8108196 121.511733,27.8008015 C121.642791,27.760728 121.660528,27.7997997 121.686148,27.8639172 L121.992607,28.7194856 C122.02414,28.8116546 121.946294,28.8507262 121.918702,28.8617464" id="Path" fill="#FFFFFF" fill-rule="nonzero" mask="url(#mask-2)" transform="translate(118.500000, 23.000000) scale(-1, 1) rotate(-180.000000) translate(-118.500000, -23.000000) "></path>
                            <path d="M103,18.1101904 C103,18.0492721 102.925305,18 102.821646,18 L101.176829,18 C101.073171,18 101,18.0492721 101,18.1101904 L101,25.8898096 C101,25.9507279 101.073171,26 101.176829,26 L102.821646,26 C102.925305,26 103,25.9507279 103,25.8898096 L103,18.1101904 L103,18.1101904 Z" id="Path" fill="#FFFFFF" fill-rule="nonzero" mask="url(#mask-2)" transform="translate(102.000000, 22.000000) scale(-1, 1) rotate(-180.000000) translate(-102.000000, -22.000000) "></path>
                        </g>
                    </g>
                </g>
            </g>
        </g>
    </g>
</svg>