<?xml version="1.0" encoding="UTF-8"?>
<svg width="230px" height="50px" viewBox="0 0 230 50" version="1.1" xmlns="http://www.w3.org/2000/svg" xmlns:xlink="http://www.w3.org/1999/xlink">
    <title>sap-business-suite</title>
    <defs>
        <rect id="path-1" x="0" y="0" width="230" height="50"></rect>
    </defs>
    <g id="Page-1" stroke="none" stroke-width="1" fill="none" fill-rule="evenodd">
        <g id="a1qa-ERP-testing-v2" transform="translate(-845.000000, -3394.000000)">
            <g id="Group-2" transform="translate(525.000000, 3172.000000)">
                <g id="Group-6" transform="translate(0.000000, 123.000000)">
                    <g id="Group-27" transform="translate(0.000000, 89.000000)">
                        <g id="Group-5" transform="translate(300.000000, 0.000000)">
                            <g id="sap-business-suite" transform="translate(20.000000, 10.000000)">
                                <mask id="mask-2" fill="white">
                                    <use xlink:href="#path-1"></use>
                                </mask>
                                <use id="Mask" fill-opacity="0" fill="#D8D8D8" xlink:href="#path-1"></use>
                                <path d="M121.22,25.1 C124,25.1 126.76,24.3 126.76,20.86 C126.76,19.28 125.82,18.1 124.28,17.62 C125.42,17.1 126.1,15.94 126.1,14.72 C126.1,11.98 123.96,11.1 121.06,11.1 C119.88,11.1 118.78,11.18 117.84,11.34 C117.04,11.48 116.7,11.94 116.7,12.68 L116.7,23.6 C116.7,24.28 117.02,24.76 117.82,24.88 C118.86,25.04 120.26,25.1 121.22,25.1 Z M121.04,17.04 L119,17.04 L119,13.2 C119.58,13.14 120.16,13.1 120.84,13.1 C122.54,13.1 123.64,13.6 123.64,14.96 C123.64,16.32 122.74,17.04 121.04,17.04 Z M121.32,23.12 C120.62,23.12 119.8,23.1 119,23 L119,18.84 L121.3,18.84 C123.26,18.84 124.3,19.52 124.3,20.96 C124.3,22.56 123.2,23.12 121.32,23.12 Z M132.68,25.2 C133.86,25.2 135.04,24.68 135.64,23.54 L135.64,23.84 C135.64,24.46 136.02,25 136.78,25 C137.52,25 137.9,24.46 137.9,23.84 L137.9,16.36 C137.9,15.72 137.52,15.2 136.78,15.2 C136.02,15.2 135.64,15.72 135.64,16.36 L135.64,18.94 C135.6,21.18 135.16,23.2 133.22,23.2 C131.94,23.2 131.52,22.28 131.52,20.96 L131.52,16.36 C131.52,15.72 131.14,15.2 130.4,15.2 C129.64,15.2 129.26,15.72 129.26,16.36 L129.26,20.92 C129.26,23.58 130.08,25.2 132.68,25.2 Z M143.7,25.2 C146.4,25.2 147.66,24.06 147.66,22.16 C147.66,18.76 142.62,19.56 142.62,17.72 C142.62,17.16 143.04,16.82 143.96,16.82 C144.7,16.82 145.48,17.14 146.04,17.36 C146.68,17.56 147.08,17.46 147.3,16.98 C147.5,16.52 147.38,16.02 146.74,15.66 C146.08,15.28 145.04,15 143.88,15 C141.78,15 140.34,15.94 140.34,17.8 C140.34,21.34 145.38,20.46 145.38,22.36 C145.38,23.04 144.9,23.38 143.9,23.38 C143.16,23.38 142.34,23.16 141.58,22.82 C141.06,22.58 140.42,22.44 140.12,23.06 C139.86,23.6 140.04,24.06 140.58,24.44 C141.38,24.96 142.68,25.2 143.7,25.2 Z M150.88,13.84 C151.66,13.84 152.2,13.42 152.2,12.62 C152.2,11.86 151.66,11.4 150.88,11.4 C150.08,11.4 149.58,11.86 149.58,12.62 C149.58,13.42 150.08,13.84 150.88,13.84 Z M150.88,25 C151.64,25 152.02,24.48 152.02,23.84 L152.02,16.36 C152.02,15.74 151.64,15.2 150.88,15.2 C150.14,15.2 149.76,15.74 149.76,16.36 L149.76,23.84 C149.76,24.48 150.14,25 150.88,25 Z M162.32,25 C163.08,25 163.46,24.48 163.46,23.84 L163.46,19.28 C163.46,16.62 162.64,15 160.04,15 C158.86,15 157.68,15.52 157.08,16.66 L157.08,16.36 C157.08,15.74 156.7,15.2 155.94,15.2 C155.2,15.2 154.82,15.74 154.82,16.36 L154.82,23.84 C154.82,24.48 155.2,25 155.94,25 C156.7,25 157.08,24.48 157.08,23.84 L157.08,21.26 C157.12,19.02 157.56,17 159.5,17 C160.78,17 161.2,17.92 161.2,19.24 L161.2,23.84 C161.2,24.48 161.58,25 162.32,25 Z M170.38,25.2 C171.52,25.2 172.68,25 173.54,24.42 C174.06,24.08 174.18,23.56 173.96,23.14 C173.74,22.76 173.36,22.6 172.72,22.86 C172.1,23.12 171.46,23.38 170.6,23.38 C169.06,23.38 168.06,22.44 168,20.92 L173.1,20.92 C173.9,20.92 174.24,20.58 174.42,19.92 C174.48,19.7 174.52,19.26 174.52,18.98 C174.52,16.64 173.04,15 170.42,15 C167.54,15 165.76,17.04 165.76,20.14 C165.76,23.36 167.38,25.2 170.38,25.2 Z M172.42,19.34 L168,19.34 C168.14,17.72 169,16.82 170.42,16.82 C171.8,16.82 172.44,17.7 172.44,18.84 C172.44,19.02 172.44,19.14 172.42,19.34 Z M179.78,25.2 C182.48,25.2 183.74,24.06 183.74,22.16 C183.74,18.76 178.7,19.56 178.7,17.72 C178.7,17.16 179.12,16.82 180.04,16.82 C180.78,16.82 181.56,17.14 182.12,17.36 C182.76,17.56 183.16,17.46 183.38,16.98 C183.58,16.52 183.46,16.02 182.82,15.66 C182.16,15.28 181.12,15 179.96,15 C177.86,15 176.42,15.94 176.42,17.8 C176.42,21.34 181.46,20.46 181.46,22.36 C181.46,23.04 180.98,23.38 179.98,23.38 C179.24,23.38 178.42,23.16 177.66,22.82 C177.14,22.58 176.5,22.44 176.2,23.06 C175.94,23.6 176.12,24.06 176.66,24.44 C177.46,24.96 178.76,25.2 179.78,25.2 Z M188.84,25.2 C191.54,25.2 192.8,24.06 192.8,22.16 C192.8,18.76 187.76,19.56 187.76,17.72 C187.76,17.16 188.18,16.82 189.1,16.82 C189.84,16.82 190.62,17.14 191.18,17.36 C191.82,17.56 192.22,17.46 192.44,16.98 C192.64,16.52 192.52,16.02 191.88,15.66 C191.22,15.28 190.18,15 189.02,15 C186.92,15 185.48,15.94 185.48,17.8 C185.48,21.34 190.52,20.46 190.52,22.36 C190.52,23.04 190.04,23.38 189.04,23.38 C188.3,23.38 187.48,23.16 186.72,22.82 C186.2,22.58 185.56,22.44 185.26,23.06 C185,23.6 185.18,24.06 185.72,24.44 C186.52,24.96 187.82,25.2 188.84,25.2 Z M120.68,45.2 C124.1,45.2 125.58,43.42 125.58,40.96 C125.58,36.12 118.6,37.38 118.6,34.64 C118.6,33.74 119.24,33.2 120.58,33.2 C121.46,33.2 122.24,33.4 123.04,33.74 C123.72,34.04 124.56,34.26 124.94,33.52 C125.28,32.86 125.02,32.26 124.24,31.84 C123.3,31.3 122.02,31 120.76,31 C117.7,31 116.18,32.5 116.18,34.72 C116.18,39.76 123.16,38.18 123.16,41.26 C123.16,42.42 122.2,43 120.74,43 C119.66,43 118.78,42.74 117.74,42.26 C116.96,41.94 116.34,41.88 116.02,42.5 C115.66,43.2 115.98,43.9 116.88,44.38 C117.94,44.92 119.28,45.2 120.68,45.2 Z M131.24,45.2 C132.42,45.2 133.6,44.68 134.2,43.54 L134.2,43.84 C134.2,44.46 134.58,45 135.34,45 C136.08,45 136.46,44.46 136.46,43.84 L136.46,36.36 C136.46,35.72 136.08,35.2 135.34,35.2 C134.58,35.2 134.2,35.72 134.2,36.36 L134.2,38.94 C134.16,41.18 133.72,43.2 131.78,43.2 C130.5,43.2 130.08,42.28 130.08,40.96 L130.08,36.36 C130.08,35.72 129.7,35.2 128.96,35.2 C128.2,35.2 127.82,35.72 127.82,36.36 L127.82,40.92 C127.82,43.58 128.64,45.2 131.24,45.2 Z M140.38,33.84 C141.16,33.84 141.7,33.42 141.7,32.62 C141.7,31.86 141.16,31.4 140.38,31.4 C139.58,31.4 139.08,31.86 139.08,32.62 C139.08,33.42 139.58,33.84 140.38,33.84 Z M140.38,45 C141.14,45 141.52,44.48 141.52,43.84 L141.52,36.36 C141.52,35.74 141.14,35.2 140.38,35.2 C139.64,35.2 139.26,35.74 139.26,36.36 L139.26,43.84 C139.26,44.48 139.64,45 140.38,45 Z M148.16,45.2 C148.86,45.2 149.6,45.06 150.16,44.74 C150.7,44.42 151.02,43.94 150.78,43.34 C150.58,42.86 150.08,42.76 149.58,42.96 C149.34,43.06 148.9,43.2 148.52,43.2 C147.68,43.2 147.38,42.7 147.38,41.58 L147.38,37.12 L149.08,37.12 C149.8,37.12 150.16,36.76 150.16,36.16 C150.16,35.54 149.8,35.2 149.08,35.2 L147.38,35.2 L147.38,33.96 C147.38,33.34 147,32.8 146.24,32.8 C145.5,32.8 145.12,33.34 145.12,33.96 L145.12,35.2 L144.6,35.2 C143.88,35.2 143.52,35.54 143.52,36.16 C143.52,36.76 143.88,37.12 144.6,37.12 L145.12,37.12 L145.12,41.82 C145.12,44.2 146.24,45.2 148.16,45.2 Z M156.5,45.2 C157.64,45.2 158.8,45 159.66,44.42 C160.18,44.08 160.3,43.56 160.08,43.14 C159.86,42.76 159.48,42.6 158.84,42.86 C158.22,43.12 157.58,43.38 156.72,43.38 C155.18,43.38 154.18,42.44 154.12,40.92 L159.22,40.92 C160.02,40.92 160.36,40.58 160.54,39.92 C160.6,39.7 160.64,39.26 160.64,38.98 C160.64,36.64 159.16,35 156.54,35 C153.66,35 151.88,37.04 151.88,40.14 C151.88,43.36 153.5,45.2 156.5,45.2 Z M158.54,39.34 L154.12,39.34 C154.26,37.72 155.12,36.82 156.54,36.82 C157.92,36.82 158.56,37.7 158.56,38.84 C158.56,39.02 158.56,39.14 158.54,39.34 Z" id="BusinessSuite" fill="#000000" fill-rule="nonzero" mask="url(#mask-2)"></path>
                                <polygon id="path3060" fill="#000000" fill-rule="nonzero" mask="url(#mask-2)" points="39 12 39 46.4379196 74.1791703 46.4379196 108.613213 12.0038768 108.613213 12.0038768 39 12.0038768"></polygon>
                                <path d="M83.5594037,42.917754 L83.5594037,45.4861568 L83.9470871,45.4861568 L83.9470871,44.3715669 L84.3831534,44.3715669 L85.0858684,45.4861568 L85.5220123,45.4861568 L84.7708369,44.3715669 C85.146192,44.3250449 85.4492829,44.1067791 85.4492829,43.6446604 C85.4492829,43.1383459 85.1394463,42.917754 84.5286122,42.917754 L83.5594037,42.917754 Z M83.9470871,43.256977 L84.4800743,43.256977 C84.7422258,43.256977 85.037408,43.2996222 85.037408,43.6203915 C85.037408,44.0213337 84.7385041,44.0566129 84.4074224,44.0566129 L83.9470871,44.0566129 L83.9470871,43.256977 Z M84.4316914,41.9727369 C83.2019595,41.9727369 82.1539737,42.9203127 82.1539737,44.2019166 C82.1539737,45.4929025 83.201882,46.4553653 84.4316914,46.4553653 C85.6443652,46.4553653 86.6608711,45.4930575 86.6608711,44.2019166 C86.6608711,42.9203127 85.6443652,41.9727369 84.4316914,41.9727369 Z M84.4316914,42.3362288 C85.4349386,42.3362288 86.2246497,43.1467198 86.2246497,44.2019166 C86.2246497,45.2751794 85.4349386,46.0676819 84.4316914,46.0676819 C83.4112311,46.0676819 82.5901951,45.2751794 82.5901951,44.2019166 C82.5901951,43.1467198 83.4112311,42.3362288 84.4316914,42.3362288 Z" id="path5384" fill="#000000" fill-rule="nonzero" mask="url(#mask-2)"></path>
                                <path d="M80.7124116,28.4780968 L79.2035476,28.4780968 L79.2035476,22.9598107 L80.7124116,22.9598107 C82.7268147,22.9598107 84.3302734,23.6235248 84.3302734,25.6836745 C84.3302734,27.8112812 82.7268147,28.4780968 80.7124116,28.4780968 M64.4723525,32.4231634 C63.6737246,32.4231634 62.9247202,32.2773944 62.2772888,32.0339292 L64.4506422,25.1796861 L64.4971642,25.1796861 L66.6255463,32.052538 C65.9843179,32.2820466 65.2546976,32.4231634 64.4746786,32.4231634 M80.3123223,18.4766395 L73.4604052,18.4766395 L73.4604052,34.7694235 L67.474573,18.4766395 L61.5414657,18.4766395 L56.4271458,32.0982847 C55.8867151,28.6649602 52.3301073,27.4763228 49.5341343,26.5900784 C47.6910873,25.9969228 45.7294091,25.1254104 45.7472425,24.1600786 C45.7627499,23.3707552 46.8009661,22.6388088 48.84871,22.7481356 C50.228863,22.8179186 51.446189,22.9295714 53.8630076,24.0980493 L56.2433839,19.9513873 C54.0382405,18.8247792 50.9825196,18.1176446 48.4827368,18.112217 L48.4672295,18.112217 C45.5510747,18.112217 43.1210749,19.0628168 41.6137617,20.6189781 C40.5662411,21.7075932 39.9994479,23.0846448 39.9738608,24.6175451 C39.9350924,26.7172386 40.7081332,28.2074937 42.3263239,29.3992326 C43.6956218,30.4025573 45.4425233,31.0484379 46.9855034,31.5322669 C48.8890291,32.1192196 50.4428643,32.6317371 50.4250309,33.724229 C50.4095235,34.1219922 50.2614284,34.4949437 49.9737673,34.7895831 C49.5000182,35.281941 48.7719487,35.4641523 47.7647471,35.4866379 C45.8232285,35.5254062 44.3833722,35.2230132 42.089837,33.8676719 L39.9738608,38.0724864 C42.2604177,39.3743274 44.9672234,40.1357377 47.7298556,40.1357377 L48.0872997,40.1357377 C50.490937,40.0892157 52.4324557,39.403016 53.9839648,38.156226 L54.2351837,37.9367972 L53.5497593,39.7790689 L59.7720785,39.7790689 L60.817273,36.6008401 C61.9105403,36.9706901 63.1557795,37.1784884 64.4739032,37.1784884 C65.7602368,37.1784884 66.973686,36.9846467 68.0475691,36.6310794 L69.0524446,39.7790689 L79.2050984,39.7790689 L79.2050984,33.1962042 L81.4203215,33.1962042 C86.7703529,33.1962042 89.938502,30.4731157 89.938502,25.9031034 C89.938502,20.8166967 86.8618462,18.4836178 80.3115469,18.4836178" id="path3100" fill="#FFFFFF" mask="url(#mask-2)"></path>
                            </g>
                        </g>
                    </g>
                </g>
            </g>
        </g>
    </g>
</svg>