<?xml version="1.0" encoding="UTF-8"?>
<svg width="230px" height="50px" viewBox="0 0 230 50" version="1.1" xmlns="http://www.w3.org/2000/svg" xmlns:xlink="http://www.w3.org/1999/xlink">
    <title>zoho</title>
    <defs>
        <rect id="path-1" x="0" y="0" width="230" height="50"></rect>
    </defs>
    <g id="Page-1" stroke="none" stroke-width="1" fill="none" fill-rule="evenodd">
        <g id="a1qa-Software-crm-testing-v4" transform="translate(-445.000000, -3022.000000)">
            <g id="Group-36" transform="translate(374.000000, 2714.000000)">
                <g id="Group-29-Copy" transform="translate(0.000000, 282.000000)">
                    <g id="Card-3" transform="translate(0.000000, 1.000000)">
                        <g id="zoho" transform="translate(71.000000, 25.000000)">
                            <mask id="mask-2" fill="white">
                                <use xlink:href="#path-1"></use>
                            </mask>
                            <use id="Mask" fill-opacity="0" fill="#D8D8D8" xlink:href="#path-1"></use>
                            <polygon id="XMLID_2_" fill="#000000" fill-rule="nonzero" mask="url(#mask-2)" points="173.96 13.608 173.96 41.32 170.12 45.064 170.12 17.96"></polygon>
                            <polygon id="XMLID_3_" fill="#000000" fill-rule="nonzero" mask="url(#mask-2)" points="148.84 13.64 144.872 17.96 145.064 18.216 169.96 18.12 170.184 17.96 173.96 13.608"></polygon>
                            <rect id="Rectangle" fill="#000000" fill-rule="nonzero" mask="url(#mask-2)" x="144.872" y="17.96" width="25.312" height="27.136"></rect>
                            <path d="M166.344,27.72 C165.832,26.472 165.096,25.32 164.104,24.328 C163.176,23.368 162.12,22.632 160.936,22.152 C159.784,21.672 158.504,21.416 157.16,21.416 C155.784,21.416 154.504,21.672 153.352,22.152 C152.168,22.632 151.112,23.368 150.184,24.328 C149.192,25.32 148.488,26.44 147.976,27.72 C147.464,28.968 147.24,30.344 147.24,31.848 C147.24,33.32 147.496,34.664 148.008,35.944 C148.52,37.224 149.224,38.376 150.216,39.368 C151.144,40.296 152.168,41 153.352,41.48 C154.504,41.96 155.816,42.216 157.192,42.216 C158.536,42.216 159.784,41.96 160.968,41.48 C162.12,41 163.208,40.296 164.136,39.368 C165.128,38.376 165.864,37.224 166.376,35.976 C166.888,34.728 167.144,33.32 167.144,31.88 C167.08,30.344 166.856,28.968 166.344,27.72 Z M161.128,36.648 C160.136,37.8 158.856,38.408 157.16,38.408 C155.464,38.408 154.152,37.8 153.16,36.648 C152.168,35.496 151.688,33.864 151.688,31.816 C151.688,29.704 152.2,28.104 153.16,26.92 C154.152,25.736 155.432,25.16 157.16,25.16 C158.856,25.16 160.136,25.768 161.128,26.92 C162.088,28.104 162.6,29.736 162.6,31.816 C162.568,33.864 162.088,35.496 161.128,36.648 Z" id="XMLID_4_" fill="#FFFFFF" fill-rule="nonzero" mask="url(#mask-2)"></path>
                            <polygon id="XMLID_7_" fill="#000000" fill-rule="nonzero" mask="url(#mask-2)" points="142.376 11.368 142.376 11.496 145.64 36.392 143.72 41.64 143.496 41.448 140.136 17.576 140.232 17.256 142.312 11.496"></polygon>
                            <polygon id="XMLID_8_" fill="#000000" fill-rule="nonzero" mask="url(#mask-2)" points="117.448 14.824 142.376 11.368 140.296 17.32 140.008 17.64 116.68 21.064 116.776 16.808"></polygon>
                            <polygon id="Path" fill="#000000" fill-rule="nonzero" mask="url(#mask-2)" points="140.296 17.32 143.72 41.64 119.176 45.064 115.848 21.608 117.288 20.488"></polygon>
                            <path d="M136.104,21.992 C135.976,21.224 135.752,20.68 135.336,20.296 C134.984,20.008 134.568,19.848 134.12,19.848 C133.992,19.848 133.864,19.848 133.736,19.88 C133.096,19.976 132.616,20.264 132.328,20.744 C132.104,21.096 132.008,21.512 132.008,22.024 C132.008,22.216 132.04,22.408 132.04,22.632 L132.936,28.936 L125.864,29.992 L124.968,23.688 C124.84,22.952 124.616,22.376 124.2,21.992 C123.848,21.672 123.432,21.512 122.984,21.512 C122.856,21.512 122.76,21.512 122.632,21.544 C121.96,21.64 121.48,21.928 121.16,22.408 C120.936,22.76 120.84,23.176 120.84,23.688 C120.84,23.88 120.872,24.072 120.872,24.296 L123.304,40.744 C123.432,41.512 123.656,42.056 124.136,42.44 C124.488,42.728 124.904,42.888 125.384,42.888 C125.512,42.888 125.672,42.888 125.8,42.856 C126.408,42.76 126.888,42.472 127.176,41.992 C127.368,41.64 127.464,41.224 127.464,40.776 C127.464,40.584 127.432,40.392 127.432,40.168 L126.44,33.672 L133.512,32.616 L134.504,39.112 C134.632,39.88 134.856,40.424 135.304,40.808 C135.656,41.096 136.072,41.256 136.52,41.256 C136.648,41.256 136.776,41.256 136.904,41.224 C137.544,41.128 138.024,40.84 138.312,40.36 C138.504,40.008 138.632,39.592 138.632,39.112 C138.632,38.92 138.6,38.728 138.6,38.504 L136.104,21.992 Z" id="XMLID_9_" fill="#FFFFFF" fill-rule="nonzero" mask="url(#mask-2)"></path>
                            <polygon id="XMLID_10_" fill="#000000" fill-rule="nonzero" mask="url(#mask-2)" points="94.12 5.032 85.256 26.088 86.44 35.368 86.504 35.336 96.488 12.904 96.456 12.424 94.312 5.32"></polygon>
                            <polygon id="XMLID_11_" fill="#000000" fill-rule="nonzero" mask="url(#mask-2)" points="94.12 5.032 96.424 12.744 96.456 12.904 118.408 22.728 118.472 22.696 116.616 15.304"></polygon>
                            <polygon id="Path" fill="#000000" fill-rule="nonzero" mask="url(#mask-2)" points="96.424 12.744 118.472 22.696 108.52 45.288 86.44 35.368"></polygon>
                            <path d="M111.784,24.52 C111.304,23.24 110.632,22.152 109.768,21.224 C108.904,20.296 107.848,19.592 106.632,19.048 C105.416,18.536 104.168,18.28 102.92,18.28 L102.856,18.28 C101.576,18.28 100.328,18.568 99.08,19.112 C97.768,19.688 96.648,20.456 95.688,21.48 C94.728,22.472 93.96,23.72 93.352,25.128 C92.744,26.504 92.424,27.944 92.36,29.32 L92.36,29.8 C92.36,31.016 92.552,32.232 93,33.416 C93.448,34.664 94.12,35.752 94.984,36.648 C95.848,37.576 96.936,38.28 98.216,38.824 C99.432,39.336 100.648,39.592 101.896,39.592 L101.928,39.592 C103.176,39.592 104.424,39.304 105.672,38.792 C106.984,38.216 108.104,37.416 109.064,36.392 C110.024,35.4 110.824,34.184 111.4,32.776 C112.008,31.368 112.328,29.96 112.392,28.584 L112.392,28.168 C112.456,26.952 112.264,25.736 111.784,24.52 Z M107.4,31.08 C106.568,33.032 105.448,34.376 104.104,35.112 C103.368,35.496 102.632,35.72 101.864,35.72 C101.192,35.72 100.488,35.56 99.784,35.272 C98.248,34.6 97.288,33.576 96.872,32.04 C96.744,31.528 96.68,31.016 96.68,30.472 C96.68,29.384 96.968,28.168 97.512,26.856 C98.344,24.84 99.464,23.464 100.808,22.728 C101.544,22.312 102.28,22.12 103.048,22.12 C103.72,22.12 104.424,22.28 105.16,22.568 C106.696,23.24 107.656,24.264 108.072,25.8 C108.2,26.28 108.264,26.792 108.264,27.336 C108.232,28.52 107.976,29.736 107.4,31.08 Z" id="XMLID_12_" fill="#FFFFFF" fill-rule="nonzero" mask="url(#mask-2)"></path>
                            <polygon id="XMLID_15_" fill="#000000" fill-rule="nonzero" mask="url(#mask-2)" points="83.496 8.584 87.08 32.744 85.448 41.224 85.224 40.936 81.704 17.608 81.704 17.16 83.272 9"></polygon>
                            <polygon id="XMLID_16_" fill="#000000" fill-rule="nonzero" mask="url(#mask-2)" points="57.16 21.064 58.856 12.552 83.496 8.584 81.832 17.288 81.832 17.864 57.448 21.32"></polygon>
                            <polygon id="Path" fill="#000000" fill-rule="nonzero" mask="url(#mask-2)" points="81.832 17.288 85.448 41.224 61.096 45.032 57.16 21.064"></polygon>
                            <path d="M81.208,37.416 C81.016,37.192 80.76,37.032 80.44,36.904 C80.12,36.776 79.736,36.744 79.256,36.744 C78.808,36.744 78.328,36.776 77.784,36.872 L71.352,37.96 C71.416,37.448 71.672,36.808 72.12,36.008 C72.6,35.112 73.336,34.056 74.264,32.808 C74.584,32.36 74.84,32.04 75.032,31.816 C75.16,31.656 75.32,31.464 75.544,31.144 C77.016,29.192 77.912,27.624 78.296,26.408 C78.488,25.704 78.616,25 78.648,24.296 C78.68,24.104 78.68,23.912 78.68,23.72 C78.68,23.208 78.648,22.728 78.552,22.216 C78.488,21.768 78.36,21.384 78.2,21.096 C78.04,20.808 77.848,20.584 77.624,20.424 C77.368,20.264 76.984,20.2 76.504,20.2 C76.12,20.2 75.64,20.232 75.064,20.328 L67.64,21.608 C66.744,21.768 66.072,22.024 65.656,22.44 C65.304,22.76 65.144,23.176 65.144,23.624 C65.144,23.752 65.144,23.88 65.176,24.008 C65.304,24.648 65.624,25.096 66.136,25.32 C66.456,25.448 66.808,25.512 67.288,25.512 C67.576,25.512 67.928,25.48 68.28,25.416 L74.488,24.328 C74.488,24.456 74.52,24.552 74.52,24.648 C74.52,25.032 74.456,25.416 74.328,25.8 C74.136,26.312 73.688,27.048 72.952,27.976 C72.76,28.232 72.44,28.648 71.992,29.16 C70.296,31.176 69.112,32.936 68.376,34.376 C67.864,35.368 67.512,36.328 67.288,37.32 C67.16,37.896 67.096,38.408 67.096,38.952 C67.096,39.304 67.128,39.688 67.192,40.04 C67.288,40.552 67.384,40.968 67.544,41.256 C67.704,41.576 67.928,41.832 68.184,41.96 C68.44,42.088 68.792,42.152 69.272,42.152 C69.88,42.152 70.744,42.056 71.8,41.864 L78.552,40.712 C79.736,40.52 80.568,40.2 81.048,39.816 C81.432,39.496 81.656,39.048 81.656,38.568 C81.656,38.44 81.624,38.28 81.624,38.152 C81.528,37.928 81.4,37.64 81.208,37.416 Z" id="XMLID_17_" fill="#FFFFFF" fill-rule="nonzero" mask="url(#mask-2)"></path>
                        </g>
                    </g>
                </g>
            </g>
        </g>
    </g>
</svg>