<svg xmlns="http://www.w3.org/2000/svg" width="40" height="40"  xmlns:v="https://vecta.io/nano"><linearGradient id="A" gradientUnits="userSpaceOnUse" x1="30.649" y1="51.393" x2="-12.066" y2="11.561"><stop offset="0" stop-color="#1e85e9"/><stop offset=".203" stop-color="#8671f3"/><stop offset=".707" stop-color="#c06cfd" stop-opacity=".99"/><stop offset="1" stop-color="#ffbee8"/></linearGradient><path d="M10.948 34.457a1.44 1.44 0 0 0 1.44-1.434 1.44 1.44 0 0 0-1.44-1.436 1.44 1.44 0 0 0-1.439 1.436 1.44 1.44 0 0 0 1.439 1.434zm0-2.381a.95.95 0 0 1 .951.947.95.95 0 1 1-1.902 0 .95.95 0 0 1 .951-.947z" fill="url(#A)"/><linearGradient id="B" gradientUnits="userSpaceOnUse" x1="46.37" y1="37.09" x2="2.648" y2="-3.681"><stop offset="0" stop-color="#1e85e9"/><stop offset=".203" stop-color="#8671f3"/><stop offset=".707" stop-color="#c06cfd" stop-opacity=".99"/><stop offset="1" stop-color="#ffbee8"/></linearGradient><path d="M12.228 3.167c0-.135-.11-.244-.244-.244H7.999c-.134 0-.244.109-.244.244s.11.244.244.244h3.985c.134 0 .244-.11.244-.244z" fill="url(#B)"/><linearGradient id="C" gradientUnits="userSpaceOnUse" x1="47.419" y1="34.352" x2="4.735" y2="-5.451"><stop offset="0" stop-color="#1e85e9"/><stop offset=".203" stop-color="#8671f3"/><stop offset=".707" stop-color="#c06cfd" stop-opacity=".99"/><stop offset="1" stop-color="#ffbee8"/></linearGradient><path d="M13.952 3.407c.086.003.148-.016.192-.062.05-.05.074-.111.074-.178s-.024-.128-.064-.168a.24.24 0 0 0-.179-.074c-.066 0-.127.023-.166.064-.085.083-.098.222-.039.309l.01.012c.033.053.098.089.172.097z" fill="url(#C)"/><linearGradient id="D" gradientUnits="userSpaceOnUse" x1="41.682" y1="40.219" x2="-1.035" y2=".385"><stop offset="0" stop-color="#1e85e9"/><stop offset=".203" stop-color="#8671f3"/><stop offset=".707" stop-color="#c06cfd" stop-opacity=".99"/><stop offset="1" stop-color="#ffbee8"/></linearGradient><path d="M39.732 12.701c.134 0 .244-.11.244-.244V6.383c0-1.776-1.45-3.222-3.233-3.222H21.748l-.087-.226C21.185 1.693 19.971.858 18.64.858H3.257C1.474.858.024 2.303.024 4.08v5.558c0 .134.11.244.245.244s.244-.109.244-.244V5.793H7.8c.134 0 .244-.11.244-.244s-.11-.244-.244-.244H.513V4.08c0-1.507 1.231-2.733 2.744-2.733h15.382c1.513 0 2.744 1.226 2.744 2.733v1.225H10.59c-.134 0-.244.109-.244.244s.11.244.244.244h10.794v23.411H.513V12.417c0-.135-.11-.244-.244-.244s-.245.109-.245.244v21.201c0 1.777 1.45 3.222 3.233 3.222h14.995l.086.227c.477 1.26 1.663 2.076 3.024 2.076h12.592c.134 0 .244-.11.244-.244s-.11-.244-.244-.244H21.362c-.972 0-1.879-.516-2.366-1.348l-.253-.432.492-.092c1.528-.284 2.638-1.615 2.638-3.165v-1.622h17.616v3.925c0 1.508-1.232 2.734-2.745 2.734-.134 0-.244.11-.244.244s.11.244.244.244c1.783 0 3.233-1.445 3.233-3.222V15.236c0-.269-.488-.269-.488 0v16.272H21.872V8.095h17.616v4.361c0 .135.11.245.244.245zM21.384 33.618c0 1.508-1.231 2.734-2.744 2.734H3.257c-1.513 0-2.744-1.226-2.744-2.734v-3.925h20.87v3.925zm.488-26.01l-.002-3.602-.005-.356.356-.002h14.521c1.513 0 2.745 1.226 2.745 2.734v1.225H21.872z" fill="url(#D)"/><linearGradient id="E" gradientUnits="userSpaceOnUse" x1="38.147" y1="43.806" x2="-4.568" y2="3.974"><stop offset="0" stop-color="#1e85e9"/><stop offset=".203" stop-color="#8671f3"/><stop offset=".707" stop-color="#c06cfd" stop-opacity=".99"/><stop offset="1" stop-color="#ffbee8"/></linearGradient><path d="M27.613 35.325a1.44 1.44 0 0 0 1.439 1.436 1.44 1.44 0 0 0 1.44-1.436 1.44 1.44 0 0 0-1.44-1.436 1.44 1.44 0 0 0-1.439 1.436zm2.391 0a.95.95 0 1 1-1.904 0 .95.95 0 1 1 1.904 0z" fill="url(#E)"/><linearGradient id="F" gradientUnits="userSpaceOnUse" x1="53.618" y1="29.268" x2="9.896" y2="-11.502"><stop offset="0" stop-color="#1e85e9"/><stop offset=".203" stop-color="#8671f3"/><stop offset=".707" stop-color="#c06cfd" stop-opacity=".99"/><stop offset="1" stop-color="#ffbee8"/></linearGradient><path d="M30.089 5.225h-3.985c-.134 0-.244.11-.244.244s.11.244.244.244h3.985c.134 0 .244-.109.244-.244s-.11-.244-.244-.244z" fill="url(#F)"/><linearGradient id="G" gradientUnits="userSpaceOnUse" x1="54.929" y1="26.777" x2="12.234" y2="-13.036"><stop offset="0" stop-color="#1e85e9"/><stop offset=".203" stop-color="#8671f3"/><stop offset=".707" stop-color="#c06cfd" stop-opacity=".99"/><stop offset="1" stop-color="#ffbee8"/></linearGradient><path d="M32.305 5.376c-.013-.03-.03-.056-.049-.076a.24.24 0 0 0-.176-.073c-.067 0-.127.023-.165.063-.06.057-.082.128-.074.203s.044.14.097.174c.096.068.239.053.31-.021s.095-.183.058-.267l-.001-.003z" fill="url(#G)"/><linearGradient id="H" gradientUnits="userSpaceOnUse" x1="37.523" y1="43.901" x2="-4.683" y2="4.544"><stop offset="0" stop-color="#1e85e9"/><stop offset=".203" stop-color="#8671f3"/><stop offset=".707" stop-color="#c06cfd" stop-opacity=".99"/><stop offset="1" stop-color="#ffbee8"/></linearGradient><path d="M7.603 22.111l.787-2.065h5.125l.777 2.065c.049.125.187.185.315.142a.24.24 0 0 0 .142-.315l-3.367-8.924a.45.45 0 0 0-.418-.285c-.183.001-.347.11-.417.279l-3.4 8.929c-.048.126.016.268.142.316s.268-.018.314-.142zm3.36-8.823l2.366 6.27H8.575l2.388-6.27z" fill="url(#H)"/><linearGradient id="I" gradientUnits="userSpaceOnUse" x1="45.527" y1="36.096" x2="3.139" y2="-3.431"><stop offset="0" stop-color="#1e85e9"/><stop offset=".203" stop-color="#8671f3"/><stop offset=".707" stop-color="#c06cfd" stop-opacity=".99"/><stop offset="1" stop-color="#ffbee8"/></linearGradient><path d="M31.258 17.319c0-1.283-1.05-2.327-2.34-2.327h-2.645c-.134 0-.244.109-.244.244v9.052c-.001.065.025.125.072.172a.26.26 0 0 0 .166.073l.191-.001 2.922-.01c1.486 0 2.695-1.202 2.695-2.68 0-.975-.536-1.876-1.398-2.349l-.406-.222.324-.331c.427-.439.663-1.014.663-1.621zm.329 4.522c0 1.209-.99 2.192-2.207 2.192l-2.864.01v-4.39l2.863-.005c1.218.001 2.208.984 2.208 2.193zm-2.669-2.684l-2.401.003v-3.68h2.401c1.021 0 1.852.825 1.852 1.839s-.831 1.838-1.852 1.838z" fill="url(#I)"/><defs /></svg>