<svg xmlns="http://www.w3.org/2000/svg" width="40" height="40"  xmlns:v="https://vecta.io/nano"><linearGradient id="A" gradientUnits="userSpaceOnUse" x1="39.883" y1="39.772" x2=".177" y2=".007"><stop offset="0" stop-color="#1e85e9"/><stop offset=".203" stop-color="#8671f3"/><stop offset=".707" stop-color="#c06cfd" stop-opacity=".99"/><stop offset="1" stop-color="#ffbee8"/></linearGradient><path d="M40 16.151a8.38 8.38 0 0 0-2.429-5.919c-1.408-1.426-3.279-2.306-5.266-2.475l-.408-.035-.094-.399a9.59 9.59 0 0 0-3.086-5.048C26.999.808 24.807 0 22.544 0c-3.037 0-5.817 1.396-7.63 3.83l-.243.326-.386-.126a7.94 7.94 0 0 0-4.878.005.24.24 0 0 0-.153.3c.027.081.086.122.119.138s.102.04.183.014c1.66-.544 3.503-.474 5.118.193.105.044.227.007.29-.089 1.677-2.576 4.511-4.114 7.58-4.114 4.43 0 8.179 3.166 8.911 7.528a.24.24 0 0 0 .232.199c4.322.059 7.838 3.625 7.838 7.948a7.96 7.96 0 0 1-7.95 7.95H30.12v-5.209c0-1.067-1.055-2.009-3.053-2.723-1.89-.677-4.399-1.049-7.066-1.049s-5.176.373-7.067 1.049c-1.996.714-3.052 1.656-3.052 2.723v5.209H6.195a5.73 5.73 0 0 1-5.719-5.72c0-2.477 1.581-4.66 3.934-5.433.111-.037.179-.148.16-.264a7.48 7.48 0 0 1-.095-1.184 7.35 7.35 0 0 1 .319-2.151c.038-.127-.033-.26-.159-.298-.025-.008-.048-.011-.07-.011-.05 0-.089.016-.111.028-.033.018-.091.059-.115.141C4.114 9.95 4 10.72 4 11.5c0 .216.009.433.027.65l.034.403-.37.163A6.19 6.19 0 0 0 0 18.381c0 3.416 2.779 6.196 6.195 6.196h3.686v11.65c0 1.067 1.055 2.008 3.052 2.723C14.825 39.628 17.334 40 20 40s5.175-.373 7.066-1.049c1.997-.715 3.053-1.656 3.053-2.723v-11.65h1.455A8.44 8.44 0 0 0 40 16.151zM29.643 36.227c0 .824-.997 1.654-2.736 2.275-1.843.659-4.296 1.021-6.907 1.021s-5.064-.363-6.907-1.021c-1.739-.622-2.736-1.451-2.736-2.275v-4.42l.871.558c.46.294 1.034.566 1.706.807 1.892.677 4.401 1.049 7.067 1.049s5.175-.373 7.066-1.049c.672-.241 1.245-.513 1.706-.807l.871-.557v4.419zm0-5.779c0 .824-.997 1.654-2.736 2.275-1.84.659-4.293 1.021-6.907 1.021s-5.067-.363-6.907-1.021c-1.739-.622-2.736-1.451-2.736-2.275v-4.419l.871.558c.461.295 1.034.566 1.705.806 1.889.677 4.399 1.049 7.067 1.049s5.178-.373 7.066-1.049c.671-.24 1.245-.511 1.706-.806l.871-.557v4.418zm0-5.777c0 .824-.997 1.654-2.736 2.275-1.84.659-4.293 1.021-6.907 1.021s-5.067-.363-6.907-1.021c-1.739-.622-2.736-1.451-2.736-2.275v-4.422l.871.561c.459.295 1.033.567 1.705.807 1.892.677 4.402 1.049 7.067 1.049s5.175-.373 7.066-1.049c.672-.24 1.246-.512 1.706-.807l.871-.559v4.42zm-2.736-3.503c-1.843.659-4.295 1.021-6.907 1.021s-5.065-.363-6.907-1.021c-1.739-.623-2.736-1.452-2.736-2.275s.997-1.653 2.736-2.276c1.842-.658 4.294-1.021 6.907-1.021s5.065.363 6.907 1.021c1.739.623 2.736 1.452 2.736 2.276s-.997 1.652-2.736 2.275z" fill="url(#A)"/><linearGradient id="B" gradientUnits="userSpaceOnUse" x1="39.923" y1="39.731" x2=".217" y2="-.033"><stop offset="0" stop-color="#1e85e9"/><stop offset=".203" stop-color="#8671f3"/><stop offset=".707" stop-color="#c06cfd" stop-opacity=".99"/><stop offset="1" stop-color="#ffbee8"/></linearGradient><path d="M6.651 6.171c0-.061-.027-.125-.071-.169s-.106-.069-.167-.069-.125.026-.169.069-.069.107-.069.169.027.125.071.17a.25.25 0 0 0 .335-.002c.043-.043.07-.107.07-.168z" fill="url(#B)"/><defs /></svg>