<svg xmlns="http://www.w3.org/2000/svg" width="40" height="40"  xmlns:v="https://vecta.io/nano"><linearGradient id="A" gradientUnits="userSpaceOnUse" x1="38.968" y1="41.209" x2="-.973" y2="1.033"><stop offset="0" stop-color="#1e85e9"/><stop offset=".203" stop-color="#8671f3"/><stop offset=".707" stop-color="#c06cfd" stop-opacity=".99"/><stop offset="1" stop-color="#ffbee8"/></linearGradient><path d="M0 34.335v1.832c0 1.241 1.01 2.251 2.251 2.251h35.486c1.241 0 2.251-1.01 2.251-2.251v-1.832c0-.483-.393-.876-.876-.876H37.75V15l.117-.11C39.243 13.593 40 11.841 40 9.957a6.79 6.79 0 0 0-6.781-6.782c-1.584 0-3.124.557-4.339 1.568-.094.08-.108.223-.029.318s.224.109.318.029a6.34 6.34 0 0 1 10.38 4.866 6.34 6.34 0 0 1-6.33 6.33 6.34 6.34 0 0 1-6.331-6.33c0-.962.211-1.887.627-2.749.027-.054.03-.115.01-.173a.23.23 0 0 0-.114-.129c-.114-.054-.248-.007-.302.106-.445.923-.67 1.913-.67 2.945l.012.402.023.393h-4.323V2.902c0-.728-.592-1.321-1.32-1.321H10.277c-.728 0-1.321.592-1.321 1.321v7.851H3.522a1.27 1.27 0 0 0-1.268 1.268v14.093c0 .249.451.249.451 0V12.021a.82.82 0 0 1 .818-.818h5.435v2.498h-2.86a1.18 1.18 0 0 0-1.181 1.181v14.899c0 .652.53 1.182 1.181 1.182h27.808c.652 0 1.181-.53 1.181-1.182V16.482l.256-.085a6.78 6.78 0 0 0 1.392-.643l.565-.344v18.048H2.705v-4.587c0-.249-.451-.249-.451 0v4.587H.876a.88.88 0 0 0-.876.877zm22.149-23.132h4.397l.067.288a6.67 6.67 0 0 0 .627 1.662l.294.548H22.15v-2.498zm-3.362-9.171l-.279 1.235c-.047.21-.231.358-.448.358h-5.016c-.216 0-.4-.147-.447-.358l-.28-1.235h6.47zm-9.379.87a.87.87 0 0 1 .869-.87h1.578l.302 1.335c.094.417.459.709.887.709h5.016c.428 0 .793-.291.888-.709l.302-1.335h1.578a.87.87 0 0 1 .869.87v16.425H9.408V2.902zm0 16.875h12.29v2.365a.87.87 0 0 1-.869.869H10.277a.87.87 0 0 1-.869-.869v-2.365zm25.228 10.004a.73.73 0 0 1-.73.731H6.098a.73.73 0 0 1-.731-.731V14.883a.73.73 0 0 1 .731-.73h2.858v7.99a1.32 1.32 0 0 0 1.321 1.32h10.552a1.32 1.32 0 0 0 1.32-1.32v-7.99h5.743l.111.134a6.81 6.81 0 0 0 6.208 2.379l.426-.063v13.178zm-16.984 4.132h4.685v1.671h-4.685v-1.671zm-.451 0v1.392a.73.73 0 0 0 .73.73h4.126a.73.73 0 0 0 .73-.73v-1.392l16.697-.003.054.426v1.832c0 .993-.808 1.8-1.8 1.8H2.251c-.993 0-1.8-.808-1.8-1.8v-2.204l.426-.054 16.324.003z" fill="url(#A)"/><linearGradient id="B" gradientUnits="userSpaceOnUse" x1="52.159" y1="28.096" x2="12.218" y2="-12.081"><stop offset="0" stop-color="#1e85e9"/><stop offset=".203" stop-color="#8671f3"/><stop offset=".707" stop-color="#c06cfd" stop-opacity=".99"/><stop offset="1" stop-color="#ffbee8"/></linearGradient><path d="M29.583 11.061l1.978 1.977a.86.86 0 0 0 1.186 0l4.107-4.107a1.35 1.35 0 0 0 0-1.904c-.507-.507-1.396-.508-1.905 0l-2.795 2.796-.665-.665c-.255-.255-.593-.394-.953-.394a1.34 1.34 0 0 0-.952.394c-.254.254-.394.592-.394.951s.14.696.393.952zm.32-1.585c.338-.34.928-.339 1.266 0l.779.778a.3.3 0 0 0 .41 0l2.912-2.911c.348-.348.917-.348 1.265 0s.349.918 0 1.266l-4.37 4.37-.284-.263-1.977-1.977c-.169-.167-.263-.392-.263-.633s.093-.462.262-.63z" fill="url(#B)"/><linearGradient id="C" gradientUnits="userSpaceOnUse" x1="40.245" y1="39.94" x2=".304" y2="-.236"><stop offset="0" stop-color="#1e85e9"/><stop offset=".203" stop-color="#8671f3"/><stop offset=".707" stop-color="#c06cfd" stop-opacity=".99"/><stop offset="1" stop-color="#ffbee8"/></linearGradient><path d="M11.826 11.986a.54.54 0 0 0 .628.453.55.55 0 0 0 .453-.629c-.048-.298-.327-.507-.628-.453a.55.55 0 0 0-.453.629z" fill="url(#C)"/><linearGradient id="D" gradientUnits="userSpaceOnUse" x1="41.85" y1="38.345" x2="1.909" y2="-1.832"><stop offset="0" stop-color="#1e85e9"/><stop offset=".203" stop-color="#8671f3"/><stop offset=".707" stop-color="#c06cfd" stop-opacity=".99"/><stop offset="1" stop-color="#ffbee8"/></linearGradient><path d="M15.053 11.689a.55.55 0 0 0 .296.716.54.54 0 0 0 .716-.296c.056-.135.056-.284 0-.419a.54.54 0 0 0-.297-.296.55.55 0 0 0-.715.295z" fill="url(#D)"/><linearGradient id="E" gradientUnits="userSpaceOnUse" x1="43.448" y1="36.756" x2="3.507" y2="-3.421"><stop offset="0" stop-color="#1e85e9"/><stop offset=".203" stop-color="#8671f3"/><stop offset=".707" stop-color="#c06cfd" stop-opacity=".99"/><stop offset="1" stop-color="#ffbee8"/></linearGradient><path d="M19.283 11.897c0-.302-.245-.547-.547-.547a.55.55 0 0 0-.548.547.55.55 0 0 0 .548.548.55.55 0 0 0 .547-.548z" fill="url(#E)"/><defs /></svg>