<svg xmlns="http://www.w3.org/2000/svg" width="40" height="40"  xmlns:v="https://vecta.io/nano"><linearGradient id="A" gradientUnits="userSpaceOnUse" x1="31.166" y1="48.723" x2="-8.598" y2="8.959"><stop offset="0" stop-color="#1e85e9"/><stop offset=".203" stop-color="#8671f3"/><stop offset=".707" stop-color="#c06cfd" stop-opacity=".99"/><stop offset="1" stop-color="#ffbee8"/></linearGradient><path d="M37.275 39.774V37.05a2.98 2.98 0 0 0-2.971-2.972h-1.35l.661-.726c.92-1.012 1.187-2.487.68-3.759-.051-.138-.194-.203-.322-.157a.25.25 0 0 0-.139.129c-.027.06-.03.127-.007.189a3.17 3.17 0 0 1-.031 2.449 3.16 3.16 0 0 1-1.748 1.696 3.19 3.19 0 0 1-4.129-1.784 3.16 3.16 0 0 1 1.784-4.131 3.17 3.17 0 0 1 2.346.001c.067.028.133.028.195.002s.108-.073.134-.134c.052-.126-.008-.271-.134-.323a3.63 3.63 0 0 0-2.806.042 3.62 3.62 0 0 0-1.938 2.004c-.511 1.295-.249 2.742.682 3.777l.654.724h-1.344c-.932.003-1.82.454-2.374 1.207l-.35.476-.35-.476c-.554-.753-1.442-1.204-2.376-1.207h-1.349l.661-.726c.92-1.012 1.187-2.487.68-3.759-.051-.138-.196-.203-.322-.157a.25.25 0 0 0-.139.129c-.027.06-.03.127-.007.189a3.17 3.17 0 0 1-.031 2.449c-.336.78-.957 1.383-1.747 1.696s-1.654.3-2.435-.037-1.382-.958-1.696-1.748-.3-1.654.036-2.434a3.16 3.16 0 0 1 1.748-1.696 3.17 3.17 0 0 1 2.346.001c.068.027.134.027.195.002a.25.25 0 0 0 .133-.134c.052-.127-.007-.271-.134-.323-1.886-.742-4.006.178-4.743 2.047-.51 1.295-.248 2.742.683 3.776l.654.724h-1.344c-.933.003-1.821.454-2.375 1.207l-.35.476-.35-.476c-.554-.753-1.442-1.204-2.376-1.207H8.435l.66-.726a3.63 3.63 0 0 0 .679-3.759c-.052-.138-.195-.206-.322-.156-.061.022-.11.068-.138.128s-.03.127-.007.189a3.17 3.17 0 0 1-.031 2.449 3.16 3.16 0 0 1-1.747 1.696c-.789.313-1.653.3-2.435-.037s-1.382-.958-1.696-1.748-.3-1.654.036-2.434a3.16 3.16 0 0 1 1.748-1.696 3.17 3.17 0 0 1 2.346.001c.068.027.135.027.195.002a.25.25 0 0 0 .133-.134c.052-.127-.007-.271-.134-.323-1.887-.742-4.006.178-4.743 2.047-.51 1.295-.248 2.742.683 3.776l.654.724H2.972C1.335 34.08.002 35.413 0 37.051v2.723c0 .273.494.273.494 0V37.05a2.48 2.48 0 0 1 2.477-2.477h6.811a2.48 2.48 0 0 1 2.477 2.477v2.724c0 .273.494.273.494 0V37.05a2.48 2.48 0 0 1 2.477-2.477h6.811a2.48 2.48 0 0 1 2.477 2.477v2.724c0 .271.493.274.494 0V37.05a2.48 2.48 0 0 1 2.477-2.477h6.812a2.48 2.48 0 0 1 2.477 2.477v2.724c.002.271.496.274.497 0z" fill="url(#A)"/><linearGradient id="B" gradientUnits="userSpaceOnUse" x1="54.238" y1="25.651" x2="14.474" y2="-14.113"><stop offset="0" stop-color="#1e85e9"/><stop offset=".203" stop-color="#8671f3"/><stop offset=".707" stop-color="#c06cfd" stop-opacity=".99"/><stop offset="1" stop-color="#ffbee8"/></linearGradient><path d="M32.942 2.746a1.61 1.61 0 0 0-1.609 1.609 1.61 1.61 0 0 0 1.609 1.609 1.61 1.61 0 0 0 1.609-1.609 1.61 1.61 0 0 0-1.609-1.609zm0 2.724c-.616 0-1.115-.5-1.115-1.115s.5-1.115 1.115-1.115 1.114.5 1.114 1.115-.5 1.115-1.114 1.115z" fill="url(#B)"/><linearGradient id="C" gradientUnits="userSpaceOnUse" x1="45.724" y1="34.166" x2="5.959" y2="-5.599"><stop offset="0" stop-color="#1e85e9"/><stop offset=".203" stop-color="#8671f3"/><stop offset=".707" stop-color="#c06cfd" stop-opacity=".99"/><stop offset="1" stop-color="#ffbee8"/></linearGradient><path d="M24.087 10.919a1.61 1.61 0 0 0-1.609 1.609 1.61 1.61 0 0 0 1.609 1.609 1.61 1.61 0 0 0 1.609-1.609 1.61 1.61 0 0 0-1.609-1.609zm0 2.725c-.616 0-1.115-.5-1.115-1.115s.5-1.115 1.115-1.115 1.115.5 1.115 1.115-.5 1.115-1.115 1.115z" fill="url(#C)"/><linearGradient id="D" gradientUnits="userSpaceOnUse" x1="48.112" y1="31.778" x2="8.347" y2="-7.987"><stop offset="0" stop-color="#1e85e9"/><stop offset=".203" stop-color="#8671f3"/><stop offset=".707" stop-color="#c06cfd" stop-opacity=".99"/><stop offset="1" stop-color="#ffbee8"/></linearGradient><path d="M21.254 6.855l.789-.789.789.789c.052.053.133.071.183.08.064 0 .125-.024.172-.069s.074-.108.075-.174-.023-.128-.069-.175l-.801-.8.789-.789a.25.25 0 0 0 .081-.179c.001-.066-.023-.128-.069-.176a.25.25 0 0 0-.35-.006l-.799.799-.79-.786c-.099-.104-.256-.106-.354-.012s-.1.251-.005.349l.801.8-.79.789c-.094.095-.094.252.001.35.092.092.255.092.347-.001z" fill="url(#D)"/><linearGradient id="E" gradientUnits="userSpaceOnUse" x1="51.51" y1="28.38" x2="11.745" y2="-11.384"><stop offset="0" stop-color="#1e85e9"/><stop offset=".203" stop-color="#8671f3"/><stop offset=".707" stop-color="#c06cfd" stop-opacity=".99"/><stop offset="1" stop-color="#ffbee8"/></linearGradient><path d="M34.412 11.623c.052.054.122.085.183.081s.125-.024.172-.069.074-.107.075-.173-.023-.128-.069-.176l-.799-.8.787-.788c.047-.047.073-.109.073-.175s-.026-.128-.072-.174h-.001c-.092-.093-.255-.093-.349 0l-.788.789-.788-.79c-.1-.103-.255-.106-.355-.01s-.1.25-.005.348l.8.8-.789.789c-.104.099-.106.256-.011.354s.251.101.349.006l.799-.8.788.788z" fill="url(#E)"/><linearGradient id="F" gradientUnits="userSpaceOnUse" x1="49.981" y1="29.909" x2="10.216" y2="-9.856"><stop offset="0" stop-color="#1e85e9"/><stop offset=".203" stop-color="#8671f3"/><stop offset=".707" stop-color="#c06cfd" stop-opacity=".99"/><stop offset="1" stop-color="#ffbee8"/></linearGradient><path d="M29.048 14.045l.448-.561a2.62 2.62 0 0 0 .563-1.94 2.62 2.62 0 0 0-.974-1.77 2.63 2.63 0 0 0-.957-.486 2.15 2.15 0 0 1-1.507-2.634c.099-.361.29-.69.553-.953l1.434-1.43v1.445c-.001.271.493.273.494 0V3.674c0-.136-.111-.247-.246-.247h-2.043c-.137 0-.247.111-.247.247s.111.247.247.247h1.448l-1.432 1.431c-1.03 1.029-1.03 2.704-.001 3.733a2.64 2.64 0 0 0 1.17.68 2.15 2.15 0 0 1 1.506 2.634c-.079.286-.212.547-.395.777l-.445.56c-.042.051-.06.116-.053.182s.04.125.091.166c.106.084.26.067.346-.039z" fill="url(#F)"/><linearGradient id="G" gradientUnits="userSpaceOnUse" x1="51.446" y1="28.444" x2="11.682" y2="-11.321"><stop offset="0" stop-color="#1e85e9"/><stop offset=".203" stop-color="#8671f3"/><stop offset=".707" stop-color="#c06cfd" stop-opacity=".99"/><stop offset="1" stop-color="#ffbee8"/></linearGradient><path d="M40 .268c0-.136-.111-.247-.247-.247h-24.52c-.136 0-.247.111-.247.247s.111.247.247.247h1.796v10.262c0 .272.494.272.494 0V.515h19.94v6.564c0 .273.493.271.494 0V.515h1.796c.136 0 .247-.111.247-.247z" fill="url(#G)"/><linearGradient id="H" gradientUnits="userSpaceOnUse" x1="41.126" y1="38.764" x2="1.362" y2="-1.001"><stop offset="0" stop-color="#1e85e9"/><stop offset=".203" stop-color="#8671f3"/><stop offset=".707" stop-color="#c06cfd" stop-opacity=".99"/><stop offset="1" stop-color="#ffbee8"/></linearGradient><path d="M39.753 16.862c.137 0 .247-.111.247-.247s-.111-.247-.247-.247h-1.796V9.804c-.001-.272-.494-.274-.494 0v6.564h-19.14l2.235-1.117a1.43 1.43 0 0 0 .616-1.919 1.43 1.43 0 0 0-1.651-.725l-3.596 1.027-1.866-.749c-.917-.365-1.883-.563-2.869-.59l-.109-.017-1.283.004.655-.725c.604-.669.937-1.533.937-2.434V5.717A2.98 2.98 0 0 0 8.42 2.746H4.334c-.136 0-.247.111-.247.247v2.725c0 .136.111.247.247.247h6.564v3.158c0 1.742-1.417 3.159-3.158 3.159s-3.158-1.417-3.158-3.159v-.681c0-.272-.494-.272-.494 0v.681c0 .901.333 1.765.937 2.434l.655.725H4.334A4.35 4.35 0 0 0 0 16.616v6.811c0 .273.494.273.494 0v-6.811a3.83 3.83 0 0 1 3.2-3.777l.429-.073.649 3.89c.022.134.146.223.284.203l2.437-1.206v7.774c0 .273.494.273.494 0v-7.775l2.368 1.189c.058.028.125.033.188.013s.113-.065.142-.124l.669-3.946.406.042c.727.075 1.439.25 2.118.521l1.945.778c.051.02.107.023.158.008l2.055-.587.69 2.073-1.877.938a3.18 3.18 0 0 1-2.031.272l-2.259-.456c-.017-.003-.034-.005-.051-.005a.24.24 0 0 0-.135.041c-.055.036-.093.092-.106.156l-.005 6.861c0 .273.494.273.494 0v-6.51l1.965.393c.79.157 1.626.046 2.35-.315l.367-.132h10.489v2.91l-.289.103a1.6 1.6 0 0 0-.915.823c-.186.388-.209.825-.066 1.23a1.6 1.6 0 0 0 .824.916 1.59 1.59 0 0 0 1.23.066 1.6 1.6 0 0 0 .915-.824c.186-.388.209-.825.066-1.23a1.6 1.6 0 0 0-.981-.98l-.289-.102v-2.91h11.331zM4.581 5.47V3.24H8.42c1.047.001 1.986.665 2.336 1.651l.206.579H4.581zm.623 10.775l-.578-3.469h.946l1.792 2.39-2.16 1.079zM7.74 14.84l-1.756-2.337 1.105.212a3.44 3.44 0 0 0 1.303 0l1.105-.212L7.74 14.84zm2.535 1.405l-2.161-1.08 1.792-2.39h.946l-.577 3.47zm8.234-2.839l1.153-.329c.497-.141 1.013.147 1.154.641.124.433-.079.892-.481 1.093l-1.165.583-.661-1.988zm10.78 7.977c0 .616-.5 1.115-1.115 1.115s-1.115-.5-1.115-1.115.5-1.115 1.115-1.115 1.115.5 1.115 1.115z" fill="url(#H)"/><linearGradient id="I" gradientUnits="userSpaceOnUse" x1="31.085" y1="48.805" x2="-8.679" y2="9.04"><stop offset="0" stop-color="#1e85e9"/><stop offset=".203" stop-color="#8671f3"/><stop offset=".707" stop-color="#c06cfd" stop-opacity=".99"/><stop offset="1" stop-color="#ffbee8"/></linearGradient><path d="M3.219 23.427v-5.449c0-.136-.111-.247-.247-.247s-.247.111-.247.247v5.449c-.001.273.494.273.494 0z" fill="url(#I)"/><defs /></svg>