<svg xmlns="http://www.w3.org/2000/svg" width="40" height="40"  xmlns:v="https://vecta.io/nano"><linearGradient id="A" gradientUnits="userSpaceOnUse" x1="39.807" y1="40.2" x2=".219" y2=".494"><stop offset="0" stop-color="#1e85e9"/><stop offset=".203" stop-color="#8671f3"/><stop offset=".707" stop-color="#c06cfd" stop-opacity=".99"/><stop offset="1" stop-color="#ffbee8"/></linearGradient><path d="M21.047 19.47c0-.565-.46-1.025-1.025-1.025s-1.025.46-1.025 1.025a1.03 1.03 0 0 0 .588.926l.189.089v1.857c0 .137.111.248.248.248s.248-.111.248-.248v-1.857l.189-.089a1.03 1.03 0 0 0 .588-.926z" fill="url(#A)"/><linearGradient id="B" gradientUnits="userSpaceOnUse" x1="41.637" y1="38.375" x2="2.049" y2="-1.331"><stop offset="0" stop-color="#1e85e9"/><stop offset=".203" stop-color="#8671f3"/><stop offset=".707" stop-color="#c06cfd" stop-opacity=".99"/><stop offset="1" stop-color="#ffbee8"/></linearGradient><path d="M31.438 26.753c2.518-3.965 3.848-8.471 3.848-13.033v-3.527c0-.618-.369-1.163-.941-1.389-2.569-1.016-4.609-2.89-5.745-5.278a1.5 1.5 0 0 0-1.348-.846H12.749a1.5 1.5 0 0 0-1.348.846c-1.135 2.387-3.175 4.261-5.745 5.278-.572.226-.941.771-.941 1.389v3.527c0 4.562 1.33 9.068 3.848 13.033 2.545 4.009 6.235 7.359 10.668 9.689l.074.04c.424.222.966.223 1.392-.001l.073-.038c4.435-2.333 8.124-5.683 10.668-9.69zm-10.899 9.25l-.073.038a1 1 0 0 1-.931.001l-.074-.04c-4.358-2.29-7.982-5.58-10.48-9.516-2.467-3.885-3.771-8.3-3.771-12.766v-3.527a.99.99 0 0 1 .628-.928c2.686-1.063 4.821-3.026 6.01-5.526.162-.342.515-.563.899-.563h14.502a1 1 0 0 1 .9.563c1.188 2.501 3.323 4.463 6.009 5.526a.99.99 0 0 1 .628.928v3.527c0 4.467-1.304 8.882-3.771 12.766-2.495 3.935-6.119 7.226-10.476 9.517z" fill="url(#B)"/><linearGradient id="C" gradientUnits="userSpaceOnUse" x1="38.612" y1="41.392" x2="-.976" y2="1.686"><stop offset="0" stop-color="#1e85e9"/><stop offset=".203" stop-color="#8671f3"/><stop offset=".707" stop-color="#c06cfd" stop-opacity=".99"/><stop offset="1" stop-color="#ffbee8"/></linearGradient><path d="M2.511 19.798c1.808 8.048 7.333 15.023 15.157 19.135l1.766.928a1.24 1.24 0 0 0 1.134 0l1.764-.928c7.812-4.105 13.334-11.067 15.15-19.102.015-.065.004-.132-.032-.188s-.09-.094-.155-.109h-.001c-.066-.015-.13-.003-.187.032s-.095.091-.109.156c-1.785 7.892-7.215 14.734-14.897 18.772l-1.766.928a.73.73 0 0 1-.671 0l-1.766-.928C10.204 34.45 4.772 27.596 2.996 19.689c-.026-.116-.129-.194-.242-.194-.018 0-.036.002-.055.006-.065.015-.12.054-.155.11s-.048.123-.033.187z" fill="url(#C)"/><linearGradient id="D" gradientUnits="userSpaceOnUse" x1="43.978" y1="36.041" x2="4.39" y2="-3.664"><stop offset="0" stop-color="#1e85e9"/><stop offset=".203" stop-color="#8671f3"/><stop offset=".707" stop-color="#c06cfd" stop-opacity=".99"/><stop offset="1" stop-color="#ffbee8"/></linearGradient><path d="M38.128 7.829c0-.625-.463-1.146-1.077-1.21-3.241-.342-5.791-2.627-6.202-5.558a1.23 1.23 0 0 0-1.208-1.062H10.359c-.604 0-1.123.457-1.208 1.062-.41 2.93-2.96 5.216-6.201 5.558a1.21 1.21 0 0 0-1.078 1.21v6.214c0 .89.046 1.791.137 2.68.013.127.119.222.246.222.162-.015.262-.137.248-.274a25.9 25.9 0 0 1-.135-2.629V7.829c0-.364.278-.679.633-.716 3.468-.366 6.2-2.827 6.642-5.983.051-.368.352-.635.716-.635h19.282c.364 0 .666.268.717.636.441 3.155 3.172 5.615 6.641 5.981.354.037.633.352.633.716v6.214c0 .866-.045 1.742-.132 2.602a.25.25 0 0 0 .222.273c.057.008.13-.013.182-.055s.083-.101.09-.167a26.39 26.39 0 0 0 .134-2.653V7.829z" fill="url(#D)"/><linearGradient id="E" gradientUnits="userSpaceOnUse" x1="40.782" y1="39.228" x2="1.193" y2="-.478"><stop offset="0" stop-color="#1e85e9"/><stop offset=".203" stop-color="#8671f3"/><stop offset=".707" stop-color="#c06cfd" stop-opacity=".99"/><stop offset="1" stop-color="#ffbee8"/></linearGradient><path d="M20.022 6.025a5.33 5.33 0 0 0-5.324 5.324v3.093h-1.282a1.51 1.51 0 0 0-1.51 1.51v8.286a1.51 1.51 0 0 0 1.51 1.51h13.213a1.51 1.51 0 0 0 1.51-1.51v-8.286a1.51 1.51 0 0 0-1.51-1.51h-1.283V11.35a5.33 5.33 0 0 0-5.324-5.325zm-4.828 5.325c0-2.662 2.166-4.828 4.828-4.828s4.828 2.166 4.828 4.828v3.093h-9.656V11.35zm11.435 3.589c.559 0 1.014.455 1.014 1.014v8.286c0 .559-.455 1.014-1.014 1.014H13.416c-.559 0-1.014-.455-1.014-1.014v-8.286c0-.559.455-1.014 1.014-1.014h13.213z" fill="url(#E)"/><defs /></svg>