<svg xmlns="http://www.w3.org/2000/svg" width="40" height="40"  xmlns:v="https://vecta.io/nano"><linearGradient id="A" gradientUnits="userSpaceOnUse" x1="41.186" y1="39.755" x2="-.711" y2=".686"><stop offset="0" stop-color="#1e85e9"/><stop offset=".203" stop-color="#8671f3"/><stop offset=".707" stop-color="#c06cfd" stop-opacity=".99"/><stop offset="1" stop-color="#ffbee8"/></linearGradient><path d="M40 22.339v-4.678c-.002-.414-.313-.762-.725-.808l-2.531-.285-.053-.242c-.428-1.969-1.198-3.828-2.287-5.526l-.134-.209 1.588-1.99c.259-.326.232-.793-.062-1.086l-3.305-3.311a.82.82 0 0 0-1.087-.062L29.413 5.73l-.209-.134a16.81 16.81 0 0 0-5.526-2.286l-.242-.053-.285-2.532C23.105.312 22.756 0 22.341 0h-4.68c-.413.001-.761.313-.808.726l-.285 2.531-.243.053c-1.97.429-3.829 1.198-5.526 2.286l-.208.134-1.99-1.588c-.327-.259-.794-.233-1.087.062l-3.31 3.308c-.294.294-.321.761-.061 1.087l1.588 1.988-.134.209a16.83 16.83 0 0 0-2.286 5.526l-.053.242-2.532.285c-.414.046-.726.395-.726.812v4.678a.82.82 0 0 0 .726.809l2.531.285.053.242a16.83 16.83 0 0 0 2.286 5.526l.134.209-1.588 1.99a.82.82 0 0 0 .062 1.088l3.306 3.309c.293.294.76.32 1.086.062l1.99-1.588.209.134c1.699 1.09 3.558 1.859 5.526 2.286l.242.053.285 2.532a.82.82 0 0 0 .813.724h4.678a.82.82 0 0 0 .809-.725l.285-2.532.242-.053c1.968-.427 3.827-1.196 5.526-2.286l.209-.134 1.991 1.588c.328.26.794.232 1.087-.062l3.309-3.305c.295-.294.321-.761.062-1.087l-1.588-1.991.134-.209c1.089-1.698 1.859-3.557 2.287-5.526l.053-.242 2.531-.285c.412-.046.724-.396.724-.812zm-3.482.648c-.104.012-.187.09-.206.192-.422 2.198-1.272 4.253-2.527 6.107-.059.087-.055.2.01.282l1.691 2.121c.112.14.1.342-.026.469l-3.3 3.3c-.127.127-.329.138-.469.026l-2.121-1.691c-.081-.065-.194-.068-.281-.01-1.854 1.254-3.909 2.104-6.109 2.527-.102.02-.18.102-.192.206l-.304 2.699c-.02.178-.171.313-.35.313h-4.667c-.179 0-.33-.135-.35-.313l-.307-2.698c-.012-.105-.09-.188-.194-.208a16.31 16.31 0 0 1-6.103-2.526c-.079-.054-.206-.05-.281.01L8.31 35.485c-.14.112-.342.1-.469-.026l-3.3-3.3c-.127-.127-.138-.329-.026-.469l1.691-2.12c.065-.081.068-.194.01-.281-1.255-1.857-2.106-3.913-2.528-6.11-.02-.102-.101-.179-.204-.191l-2.699-.305c-.178-.02-.313-.171-.313-.35v-4.666c0-.179.135-.33.313-.35l2.698-.307c.104-.012.187-.09.207-.193.423-2.197 1.274-4.252 2.527-6.105.058-.086.055-.199-.01-.28L4.515 8.31c-.112-.14-.1-.342.026-.469l3.3-3.3c.126-.127.328-.138.469-.026l2.124 1.691c.082.065.195.068.281.01 1.853-1.254 3.908-2.104 6.106-2.527.102-.02.179-.102.191-.205l.305-2.7c.02-.178.171-.313.35-.313h4.667c.179 0 .33.135.35.313l.304 2.699c.012.104.089.186.192.206 2.198.422 4.255 1.273 6.109 2.528.086.058.199.055.281-.01l2.121-1.691c.14-.112.342-.1.469.026l3.3 3.302c.127.127.138.329.026.469l-1.691 2.121c-.065.082-.068.195-.01.281 1.253 1.852 2.104 3.907 2.528 6.106.02.102.102.18.206.192l2.698.305c.178.02.313.171.313.35v4.666c0 .179-.135.33-.313.35l-2.699.303z" fill="url(#A)"/><linearGradient id="B" gradientUnits="userSpaceOnUse" x1="41.541" y1="40.068" x2="-.807" y2=".577"><stop offset="0" stop-color="#1e85e9"/><stop offset=".203" stop-color="#8671f3"/><stop offset=".707" stop-color="#c06cfd" stop-opacity=".99"/><stop offset="1" stop-color="#ffbee8"/></linearGradient><path d="M19.651 31.85c.051.007.122-.024.167-.067s.071-.102.072-.166-.023-.122-.067-.168-.102-.07-.165-.071c-6.202-.19-11.052-5.194-11.048-11.392a11.31 11.31 0 0 1 3.341-8.053c2.15-2.148 5.009-3.33 8.049-3.33A11.41 11.41 0 0 1 31.391 20c.003.475-.03.961-.096 1.44-.019.13.071.25.2.268.128.024.248-.071.267-.2a10.37 10.37 0 0 0 .1-1.507c.001-6.451-5.048-11.659-11.494-11.857A11.87 11.87 0 0 0 8.151 19.633c-.097 3.166 1.044 6.181 3.214 8.487s5.108 3.632 8.274 3.729" fill="url(#B)"/><linearGradient id="C" gradientUnits="userSpaceOnUse" x1="41.075" y1="37.478" x2="3.186" y2="2.146"><stop offset="0" stop-color="#1e85e9"/><stop offset=".203" stop-color="#8671f3"/><stop offset=".707" stop-color="#c06cfd" stop-opacity=".99"/><stop offset="1" stop-color="#ffbee8"/></linearGradient><path d="M30.221 25.882c-.015-.061-.054-.112-.108-.144a.23.23 0 0 0-.119-.033c-.02 0-.04.002-.06.007-.061.016-.111.055-.143.108-.298.5-.638.981-1.009 1.431-.034.042-.053.095-.054.151a.25.25 0 0 0 .418.147 12.08 12.08 0 0 0 1.05-1.489.24.24 0 0 0 .025-.178z" fill="url(#C)"/><linearGradient id="D" gradientUnits="userSpaceOnUse" x1="39.055" y1="43.443" x2="-5.531" y2="1.866"><stop offset="0" stop-color="#1e85e9"/><stop offset=".203" stop-color="#8671f3"/><stop offset=".707" stop-color="#c06cfd" stop-opacity=".99"/><stop offset="1" stop-color="#ffbee8"/></linearGradient><path d="M25.985 30.236c.123-.076.157-.222.088-.333-.044-.072-.121-.11-.201-.11-.042 0-.084.011-.123.035-.494.294-1.011.549-1.54.759a.24.24 0 0 0-.151.221.24.24 0 0 0 .322.218 11.11 11.11 0 0 0 1.605-.79z" fill="url(#D)"/><linearGradient id="E" gradientUnits="userSpaceOnUse" x1="42.88" y1="37.84" x2="1.366" y2="-.873"><stop offset="0" stop-color="#1e85e9"/><stop offset=".203" stop-color="#8671f3"/><stop offset=".707" stop-color="#c06cfd" stop-opacity=".99"/><stop offset="1" stop-color="#ffbee8"/></linearGradient><path d="M26.871 19.834l-2.961-2.961a.26.26 0 0 0-.178-.075.23.23 0 0 0-.232.237c.001.063.027.122.072.166L26.37 20l-2.795 2.795c-.044.044-.069.104-.069.165 0 .195.262.304.402.168l2.961-2.96c.093-.093.093-.242.002-.334z" fill="url(#E)"/><linearGradient id="F" gradientUnits="userSpaceOnUse" x1="39.103" y1="41.304" x2="-2.407" y2="2.595"><stop offset="0" stop-color="#1e85e9"/><stop offset=".203" stop-color="#8671f3"/><stop offset=".707" stop-color="#c06cfd" stop-opacity=".99"/><stop offset="1" stop-color="#ffbee8"/></linearGradient><path d="M13.13 19.833c-.091.092-.091.241 0 .333l2.961 2.961c.09.088.245.088.334 0 .044-.045.069-.103.069-.166s-.024-.122-.069-.167L13.629 20l2.796-2.794c.044-.045.069-.104.069-.167a.23.23 0 0 0-.069-.166c-.046-.046-.107-.069-.167-.069s-.121.023-.167.069l-2.961 2.96z" fill="url(#F)"/><linearGradient id="G" gradientUnits="userSpaceOnUse" x1="39.876" y1="38.532" x2=".57" y2="1.879"><stop offset="0" stop-color="#1e85e9"/><stop offset=".203" stop-color="#8671f3"/><stop offset=".707" stop-color="#c06cfd" stop-opacity=".99"/><stop offset="1" stop-color="#ffbee8"/></linearGradient><path d="M20.985 14.139L18.56 25.765c-.013.062-.001.124.033.177a.23.23 0 0 0 .149.101l.048.005c.111 0 .207-.078.229-.187l2.425-11.626c.027-.127-.055-.252-.182-.279-.016-.003-.033-.005-.049-.005a.23.23 0 0 0-.128.039c-.051.034-.088.087-.1.149z" fill="url(#G)"/><defs /></svg>