<svg xmlns="http://www.w3.org/2000/svg" xmlns:xlink="http://www.w3.org/1999/xlink" width="40" height="40" xmlns:v="https://vecta.io/nano"><linearGradient id="A" gradientUnits="userSpaceOnUse" x1="55.51" y1="25.033" x2="15.099" y2="-16.173"><stop offset="0" stop-color="#1e85e9"/><stop offset=".203" stop-color="#8671f3"/><stop offset=".707" stop-color="#c06cfd" stop-opacity=".99"/><stop offset="1" stop-color="#ffbee8"/></linearGradient><path d="M34.586 0c-2.039 0-3.698 1.659-3.698 3.698s1.659 3.698 3.698 3.698 3.697-1.659 3.697-3.698A3.7 3.7 0 0 0 34.586 0zm0 6.864a3.17 3.17 0 0 1-3.166-3.166A3.17 3.17 0 0 1 34.586.532a3.17 3.17 0 0 1 3.166 3.166 3.17 3.17 0 0 1-3.166 3.166z" fill="url(#A)"/><linearGradient id="B" gradientUnits="userSpaceOnUse" x1="55.548" y1="24.997" x2="15.136" y2="-16.209"><stop offset="0" stop-color="#1e85e9"/><stop offset=".203" stop-color="#8671f3"/><stop offset=".707" stop-color="#c06cfd" stop-opacity=".99"/><stop offset="1" stop-color="#ffbee8"/></linearGradient><path d="M39.999 8.847c0-.041-.01-.121-.077-.188l-2.574-2.574c-.067-.067-.147-.077-.188-.077s-.121.01-.187.077-.078.147-.078.189.01.12.077.188l2.574 2.574c.079.079.196.183.374.002.069-.071.079-.15.079-.191z" fill="url(#B)"/><linearGradient id="C" gradientUnits="userSpaceOnUse" x1="44.148" y1="36.177" x2="3.736" y2="-5.029"><stop offset="0" stop-color="#1e85e9"/><stop offset=".203" stop-color="#8671f3"/><stop offset=".707" stop-color="#c06cfd" stop-opacity=".99"/><stop offset="1" stop-color="#ffbee8"/></linearGradient><path d="M0 7.13c0 1.093.889 1.982 1.982 1.982H24.29c1.093 0 1.982-.889 1.982-1.982V1.982C26.272.889 25.383 0 24.29 0H1.982C.889 0 0 .889 0 1.982V7.13zm.531-5.148a1.45 1.45 0 0 1 1.45-1.45H24.29c.799 0 1.45.651 1.45 1.45V7.13c0 .799-.651 1.45-1.45 1.45H1.982a1.45 1.45 0 0 1-1.45-1.45V1.982z" fill="url(#C)"/><linearGradient id="D" gradientUnits="userSpaceOnUse" x1="24.333" y1="55.61" x2="-16.079" y2="14.404"><stop offset="0" stop-color="#1e85e9"/><stop offset=".203" stop-color="#8671f3"/><stop offset=".707" stop-color="#c06cfd" stop-opacity=".99"/><stop offset="1" stop-color="#ffbee8"/></linearGradient><path d="M4.556 30.888C2.044 30.888 0 32.932 0 35.444A4.56 4.56 0 0 0 4.556 40a4.56 4.56 0 0 0 4.556-4.556c0-2.512-2.044-4.556-4.556-4.556zm0 8.58a4.03 4.03 0 0 1-4.024-4.024 4.03 4.03 0 0 1 4.024-4.024 4.03 4.03 0 0 1 4.024 4.024 4.03 4.03 0 0 1-4.024 4.024z" fill="url(#D)"/><linearGradient id="E" gradientUnits="userSpaceOnUse" x1="31.624" y1="48.459" x2="-8.787" y2="7.253"><stop offset="0" stop-color="#1e85e9"/><stop offset=".203" stop-color="#8671f3"/><stop offset=".707" stop-color="#c06cfd" stop-opacity=".99"/><stop offset="1" stop-color="#ffbee8"/></linearGradient><use xlink:href="#L" fill="url(#E)"/><linearGradient id="F" gradientUnits="userSpaceOnUse" x1="29.051" y1="45.835" x2="-11.361" y2="4.629"><stop offset="0" stop-color="#1e85e9"/><stop offset=".203" stop-color="#8671f3"/><stop offset=".707" stop-color="#c06cfd" stop-opacity=".99"/><stop offset="1" stop-color="#ffbee8"/></linearGradient><use xlink:href="#L" y="5.148" fill="url(#F)"/><linearGradient id="G" gradientUnits="userSpaceOnUse" x1="34.198" y1="45.935" x2="-6.214" y2="4.729"><stop offset="0" stop-color="#1e85e9"/><stop offset=".203" stop-color="#8671f3"/><stop offset=".707" stop-color="#c06cfd" stop-opacity=".99"/><stop offset="1" stop-color="#ffbee8"/></linearGradient><path d="M8.846 15.976c.147 0 .266-.119.266-.266s-.119-.265-.266-.265H.266c-.147-.001-.266.118-.266.265s.119.266.266.266h8.58z" fill="url(#G)"/><linearGradient id="H" gradientUnits="userSpaceOnUse" x1="39.993" y1="40.251" x2="-.419" y2="-.955"><stop offset="0" stop-color="#1e85e9"/><stop offset=".203" stop-color="#8671f3"/><stop offset=".707" stop-color="#c06cfd" stop-opacity=".99"/><stop offset="1" stop-color="#ffbee8"/></linearGradient><path d="M40 15.71c0-1.093-.889-1.982-1.982-1.982H15.71c-1.093 0-1.982.889-1.982 1.982v22.309c0 1.093.889 1.982 1.982 1.982h22.308C39.111 40 40 39.111 40 38.018V15.71zm-.532 22.308c0 .799-.651 1.45-1.45 1.45H15.71a1.45 1.45 0 0 1-1.45-1.45V15.71c0-.799.651-1.45 1.45-1.45h22.308c.799 0 1.45.651 1.45 1.45v22.308z" fill="url(#H)"/><linearGradient id="I" gradientUnits="userSpaceOnUse" x1="42.138" y1="38.148" x2="1.726" y2="-3.058"><stop offset="0" stop-color="#1e85e9"/><stop offset=".203" stop-color="#8671f3"/><stop offset=".707" stop-color="#c06cfd" stop-opacity=".99"/><stop offset="1" stop-color="#ffbee8"/></linearGradient><path d="M26.864 20.592c-1.093 0-1.982.889-1.982 1.982s.889 1.982 1.982 1.982 1.982-.889 1.982-1.982-.889-1.982-1.982-1.982zm0 3.432c-.8 0-1.451-.651-1.451-1.45s.651-1.45 1.451-1.45 1.45.651 1.45 1.45a1.45 1.45 0 0 1-1.45 1.45z" fill="url(#I)"/><linearGradient id="J" gradientUnits="userSpaceOnUse" x1="38.331" y1="41.881" x2="-2.08" y2=".675"><stop offset="0" stop-color="#1e85e9"/><stop offset=".203" stop-color="#8671f3"/><stop offset=".707" stop-color="#c06cfd" stop-opacity=".99"/><stop offset="1" stop-color="#ffbee8"/></linearGradient><path d="M31.42 31.154v-.858c0-1.566-1.274-2.839-2.84-2.839h-3.432c-1.566 0-2.839 1.274-2.839 2.839v.858c0 .294.531.294.531 0v-.858c0-1.273 1.036-2.309 2.309-2.309h3.432c1.273 0 2.309 1.036 2.309 2.309v.858c-.002.294.53.294.53 0z" fill="url(#J)"/><defs ><path id="L" d="M8.846 21.124c.147 0 .266-.12.266-.266s-.119-.265-.266-.265H.266c-.147-.001-.266.118-.266.265s.119.266.266.266h8.58z"/></defs></svg>