<svg xmlns="http://www.w3.org/2000/svg" width="40" height="40"  xmlns:v="https://vecta.io/nano"><linearGradient id="A" gradientUnits="userSpaceOnUse" x1="42.065" y1="38.711" x2=".595" y2="-2.848"><stop offset="0" stop-color="#1e85e9"/><stop offset=".203" stop-color="#8671f3"/><stop offset=".707" stop-color="#c06cfd" stop-opacity=".99"/><stop offset="1" stop-color="#ffbee8"/></linearGradient><path d="M.48 12.092V4.895a1.75 1.75 0 0 1 1.748-1.748h18.527a1.75 1.75 0 0 1 1.747 1.748v1.721c0 .264.481.264.481 0V4.895a2.23 2.23 0 0 0-2.228-2.228H2.228A2.23 2.23 0 0 0 0 4.895v7.197c0 .265.48.265.48 0z" fill="url(#A)"/><linearGradient id="B" gradientUnits="userSpaceOnUse" x1="41.187" y1="39.587" x2="-.283" y2="-1.972"><stop offset="0" stop-color="#1e85e9"/><stop offset=".203" stop-color="#8671f3"/><stop offset=".707" stop-color="#c06cfd" stop-opacity=".99"/><stop offset="1" stop-color="#ffbee8"/></linearGradient><path d="M40 25.771V18.23a2.23 2.23 0 0 0-2.228-2.228H22.984V9.397c0-.264-.481-.264-.481 0v6.605h-2.077c-1.764 0-3.257 1.377-3.397 3.135l-.026.328h-6.979c-.548 0-1.063.213-1.45.601L5.069 23.57l-.486-.178-.027-.274v-2.507a1.15 1.15 0 0 0-1.146-1.146H2.228A1.75 1.75 0 0 1 .48 17.717v-2.839c0-.264-.48-.264-.48 0v2.839a2.23 2.23 0 0 0 2.228 2.228h1.181c.367 0 .666.299.666.665v2.507c0 .485.395.881.88.881a.88.88 0 0 0 .623-.258l3.334-3.335a1.56 1.56 0 0 1 1.111-.46h6.993v11.106a2.23 2.23 0 0 0 2.228 2.228h10.732a1.56 1.56 0 0 1 1.111.46l3.334 3.335c.166.166.388.257.623.257.485 0 .881-.396.881-.881v-2.506c0-.368.298-.666.665-.666h1.182A2.23 2.23 0 0 0 40 31.05v-2.52c0-.264-.481-.264-.481 0v2.52a1.75 1.75 0 0 1-1.747 1.747H36.59a1.15 1.15 0 0 0-1.146 1.147v2.746l-.474.219-.213-.182-3.33-3.329a2.04 2.04 0 0 0-1.451-.601H19.244a1.75 1.75 0 0 1-1.748-1.747V19.41c0-1.615 1.314-2.93 2.929-2.93h17.346a1.75 1.75 0 0 1 1.747 1.748v7.541c.001.266.482.266.482.002z" fill="url(#B)"/><linearGradient id="C" gradientUnits="userSpaceOnUse" x1="41.43" y1="39.344" x2="-.04" y2="-2.215"><stop offset="0" stop-color="#1e85e9"/><stop offset=".203" stop-color="#8671f3"/><stop offset=".707" stop-color="#c06cfd" stop-opacity=".99"/><stop offset="1" stop-color="#ffbee8"/></linearGradient><path d="M26.468 24.909a.24.24 0 0 0-.31.139l-1.587 4.169c-.048.123.015.262.139.309.184.018.274-.047.311-.14l.829-2.178h5.403l.822 2.178c.036.094.125.157.225.157.145-.039.193-.083.22-.142s.028-.123.005-.183l-3.466-9.186c-.155-.408-.833-.409-.989-.002l-.921 2.421c-.023.06-.021.124.005.183s.074.103.133.126c.129.049.262-.017.31-.139l.968-2.54 2.507 6.646h-5.038l.575-1.509c.045-.123-.016-.262-.141-.309z" fill="url(#C)"/><linearGradient id="D" gradientUnits="userSpaceOnUse" x1="39.855" y1="40.916" x2="-1.615" y2="-.643"><stop offset="0" stop-color="#1e85e9"/><stop offset=".203" stop-color="#8671f3"/><stop offset=".707" stop-color="#c06cfd" stop-opacity=".99"/><stop offset="1" stop-color="#ffbee8"/></linearGradient><path d="M6.766 15.284a.24.24 0 1 0 0 .48 6.79 6.79 0 0 0 4.452-1.666l.234-.203.234.203c1.235 1.074 2.817 1.666 4.452 1.666a.24.24 0 1 0 0-.48c-1.492 0-2.942-.534-4.082-1.502l-.267-.227.223-.271c.883-1.072 1.409-2.367 1.524-3.745l.027-.327h2.167a.24.24 0 1 0 0-.48h-4.038v-2.34c0-.264-.48-.264-.48 0v2.34H7.174a.24.24 0 1 0 0 .48h2.167l.027.327c.115 1.378.642 2.673 1.524 3.745l.223.271-.267.227c-1.14.968-2.589 1.502-4.082 1.502zm3.091-5.681l-.04-.392h3.269l-.039.392c-.118 1.187-.573 2.314-1.315 3.26l-.28.357-.28-.357c-.742-.946-1.197-2.073-1.315-3.26z" fill="url(#D)"/><defs /></svg>