<svg xmlns="http://www.w3.org/2000/svg" width="40" height="40"  xmlns:v="https://vecta.io/nano"><linearGradient id="A" gradientUnits="userSpaceOnUse" x1="37.671" y1="42.597" x2="-2.212" y2="3.067"><stop offset="0" stop-color="#1e85e9"/><stop offset=".203" stop-color="#8671f3"/><stop offset=".707" stop-color="#c06cfd" stop-opacity=".99"/><stop offset="1" stop-color="#ffbee8"/></linearGradient><path d="M34.23 8.176h-1.717l-.043-.387a5.64 5.64 0 0 0-2.089-3.811 5.64 5.64 0 0 0-4.174-1.216c-.976.108-1.912.467-2.707 1.042l-.337.243-.258-.327C21.289 1.672 18.972.377 16.381.071s-5.147.417-7.195 2.034C7.367 3.541 6.115 5.582 5.66 7.854l-.065.323-.328.025a5.65 5.65 0 0 0-3.885 1.968 5.65 5.65 0 0 0-1.356 4.138c.224 2.949 2.716 5.258 5.673 5.258h12.015v3.592h-3.839c-1.638 0-2.971 1.333-2.971 2.97v8.853a2.49 2.49 0 0 1-2.476 2.476H4.592l-.084-.325a2.27 2.27 0 0 0-1.123-1.438c-.341-.186-.713-.28-1.09-.28a2.31 2.31 0 0 0-.734.121c-1.076.358-1.73 1.47-1.523 2.583.118.635.48 1.174 1.021 1.519s1.184.445 1.803.286a2.29 2.29 0 0 0 1.645-1.645l.084-.325h3.836c1.638 0 2.971-1.333 2.971-2.97V26.13a2.49 2.49 0 0 1 2.476-2.476h3.84v4.52c0 .792.957 1.312 1.759 1.608l.284.105v9.616h-1.796c-.136 0-.247.111-.247.246s.111.247.247.247h2.043c.136 0 .247-.111.247-.247V30.04l.519.104a16.09 16.09 0 0 0 2.653.305l.42.013v7.245c0 .136.111.246.247.246h6.56l.084.325a2.27 2.27 0 0 0 1.123 1.44c.564.306 1.21.363 1.823.159 1.076-.358 1.73-1.469 1.524-2.584-.118-.634-.481-1.172-1.022-1.517s-1.183-.446-1.803-.287c-.806.21-1.437.839-1.645 1.645l-.084.325h-6.314v-6.995l.419-.015c3.361-.119 5.71-1.055 5.71-2.276v-1.796h2.476c.616 0 1.115.5 1.115 1.114v5.448c0 .137.111.247.246.247h2.724c.137 0 .247-.111.247-.247s-.111-.246-.247-.246H34.55V27.49a1.62 1.62 0 0 0-1.61-1.608h-2.475v-6.316h3.838a5.65 5.65 0 0 0 4.095-1.737c1.083-1.119 1.649-2.595 1.596-4.155-.102-3.083-2.635-5.498-5.764-5.498zM2.3 39.501h0c-.496 0-.958-.198-1.3-.556a1.78 1.78 0 0 1-.495-1.325 1.81 1.81 0 0 1 1.71-1.71 1.81 1.81 0 0 1 1.325.496c.359.342.556.803.556 1.299-.004.989-.809 1.794-1.796 1.796zm30.642-3.592h0c.497 0 .959.198 1.301.556s.518.828.495 1.324a1.81 1.81 0 0 1-1.71 1.71l-.086.002a1.78 1.78 0 0 1-1.795-1.796c.004-.989.809-1.794 1.795-1.796zm-2.969-7.737c0 .849-2.416 1.796-5.882 1.796s-5.882-.947-5.882-1.796v-3.024l.603.254c1.652.698 3.468 1.04 5.264.974 1.819.065 3.641-.275 5.294-.974l.603-.254v3.024zm0-4.086c0 .849-2.416 1.796-5.882 1.796s-5.882-.947-5.882-1.796V21.06l.603.255c1.652.699 3.47 1.041 5.264.975 1.819.064 3.642-.275 5.293-.975l.604-.255v3.026zm0-4.086c0 .85-2.416 1.796-5.882 1.796s-5.882-.947-5.882-1.796v-3.025l.603.255a12.43 12.43 0 0 0 5.264.974 12.49 12.49 0 0 0 5.293-.974l.604-.255V20zm-5.882-2.29c-3.467 0-5.882-.946-5.882-1.796s2.416-1.796 5.882-1.796 5.882.946 5.882 1.796-2.416 1.796-5.882 1.796zm13.973-.245c-.991 1.036-2.326 1.606-3.76 1.606h-3.838v-2.23h2.476c.137 0 .247-.111.247-.247v-3.158h.434c.136 0 .246-.111.246-.247s-.111-.247-.246-.247h-.681c-.136 0-.246.111-.246.247v3.158h-2.23v-.434c0-1.221-2.349-2.157-5.71-2.276l-.419-.015v-1.794a1.62 1.62 0 0 0-1.609-1.609h-3.836l-.084-.325c-.16-.622-.559-1.133-1.123-1.44s-1.209-.362-1.822-.159c-1.076.358-1.73 1.469-1.523 2.584.118.634.481 1.173 1.022 1.518s1.181.447 1.803.286a2.29 2.29 0 0 0 1.644-1.644l.084-.326h3.837c.615 0 1.114.5 1.114 1.115v1.794l-.419.015c-3.361.12-5.71 1.056-5.71 2.276v3.158H5.773c-2.828 0-5.14-2.18-5.265-4.963a5.16 5.16 0 0 1 1.436-3.831 5.16 5.16 0 0 1 3.76-1.607c2.691.059 4.821 1.972 5.157 4.546.029.224.366.208.428.137a.25.25 0 0 0 .06-.203c-.331-2.503-2.307-4.52-4.806-4.905l-.461-.07.104-.455A9.3 9.3 0 0 1 17.31.738a9.3 9.3 0 0 1 6.832 6.412c.037.125.162.2.286.174.097-.022.143-.081.163-.114s.05-.107.023-.199c-.231-.773-.561-1.518-.978-2.213l-.205-.34.32-.234c1.122-.819 2.497-1.152 3.869-.937a5.17 5.17 0 0 1 3.398 2.073 5.18 5.18 0 0 1 .234 5.78c-.066.108-.043.246.053.323.057.046.128.063.2.051a.23.23 0 0 0 .158-.107c.435-.712.713-1.526.806-2.353l.043-.386h1.723c2.828 0 5.14 2.18 5.264 4.963a5.15 5.15 0 0 1-1.435 3.834zm-19.668-7h0a1.78 1.78 0 0 1-1.795 1.797c-.028 0-.057 0-.085-.002a1.81 1.81 0 0 1-1.71-1.71c-.023-.496.153-.966.495-1.325A1.78 1.78 0 0 1 16.6 8.67c.988.003 1.793.808 1.796 1.795z" fill="url(#A)"/><linearGradient id="B" gradientUnits="userSpaceOnUse" x1="43.537" y1="36.678" x2="3.655" y2="-2.851"><stop offset="0" stop-color="#1e85e9"/><stop offset=".203" stop-color="#8671f3"/><stop offset=".707" stop-color="#c06cfd" stop-opacity=".99"/><stop offset="1" stop-color="#ffbee8"/></linearGradient><path d="M39.753 32.692c-.136 0-.246.111-.246.246-.001.274.493.272.494 0-.001-.136-.112-.246-.248-.246z" fill="url(#B)"/><linearGradient id="C" gradientUnits="userSpaceOnUse" x1="27.984" y1="52.37" x2="-11.898" y2="12.841"><stop offset="0" stop-color="#1e85e9"/><stop offset=".203" stop-color="#8671f3"/><stop offset=".707" stop-color="#c06cfd" stop-opacity=".99"/><stop offset="1" stop-color="#ffbee8"/></linearGradient><path d="M15.238 39.501c-.136 0-.247.111-.247.246 0 .273.494.273.494 0 0-.135-.111-.246-.247-.246z" fill="url(#C)"/><linearGradient id="D" gradientUnits="userSpaceOnUse" x1="35.747" y1="44.538" x2="-4.135" y2="5.008"><stop offset="0" stop-color="#1e85e9"/><stop offset=".203" stop-color="#8671f3"/><stop offset=".707" stop-color="#c06cfd" stop-opacity=".99"/><stop offset="1" stop-color="#ffbee8"/></linearGradient><path d="M4.957 10.995a2.98 2.98 0 0 0-2.218 3.061c.091 1.51 1.477 2.786 3.027 2.786h4.705c.136 0 .247-.111.247-.247s-.111-.247-.247-.247H5.746c-1.295 0-2.422-1.029-2.512-2.295a2.48 2.48 0 0 1 1.84-2.578c.117-.031.197-.128.197-.241 0-.105-.06-.167-.095-.194-.028-.022-.081-.053-.152-.053-.022-.001-.044.002-.067.008z" fill="url(#D)"/><linearGradient id="E" gradientUnits="userSpaceOnUse" x1="51.724" y1="28.418" x2="11.841" y2="-11.111"><stop offset="0" stop-color="#1e85e9"/><stop offset=".203" stop-color="#8671f3"/><stop offset=".707" stop-color="#c06cfd" stop-opacity=".99"/><stop offset="1" stop-color="#ffbee8"/></linearGradient><path d="M36.595 13.19c0-.136-.111-.247-.246-.247s-.247.111-.247.247c-.001.271.493.273.493 0z" fill="url(#E)"/><defs /></svg>