<svg xmlns="http://www.w3.org/2000/svg" width="40" height="40"  xmlns:v="https://vecta.io/nano"><linearGradient id="A" gradientUnits="userSpaceOnUse" x1="40.415" y1="40.772" x2=".062" y2="-.287"><stop offset="0" stop-color="#1e85e9"/><stop offset=".203" stop-color="#8671f3"/><stop offset=".707" stop-color="#c06cfd" stop-opacity=".99"/><stop offset="1" stop-color="#ffbee8"/></linearGradient><path d="M28.557 0H11.442c-1.225.002-2.223 1-2.225 2.226v35.549A2.23 2.23 0 0 0 11.443 40h17.116a2.23 2.23 0 0 0 2.225-2.226V2.225C30.782 1 29.784.002 28.557 0zm-4.936.5l-.601 2.133h-6.116L16.371.5h7.25zm6.663 37.276a1.73 1.73 0 0 1-1.725 1.725H11.442a1.73 1.73 0 0 1-1.724-1.725V2.225A1.73 1.73 0 0 1 11.442.5h4.414l.611 2.444c.028.112.128.189.243.19h6.501c.112 0 .21-.076.241-.183L24.14.5h4.418a1.73 1.73 0 0 1 1.726 1.724v35.552z" fill="url(#A)"/><linearGradient id="B" gradientUnits="userSpaceOnUse" x1="29.012" y1="51.979" x2="-11.341" y2="10.921"><stop offset="0" stop-color="#1e85e9"/><stop offset=".203" stop-color="#8671f3"/><stop offset=".707" stop-color="#c06cfd" stop-opacity=".99"/><stop offset="1" stop-color="#ffbee8"/></linearGradient><path d="M16.709 36.867h-4.608a.25.25 0 0 0-.251.25.25.25 0 0 0 .251.249h4.608a.25.25 0 0 0 .25-.249.25.25 0 0 0-.25-.25z" fill="url(#B)"/><linearGradient id="C" gradientUnits="userSpaceOnUse" x1="31.356" y1="49.676" x2="-8.997" y2="8.617"><stop offset="0" stop-color="#1e85e9"/><stop offset=".203" stop-color="#8671f3"/><stop offset=".707" stop-color="#c06cfd" stop-opacity=".99"/><stop offset="1" stop-color="#ffbee8"/></linearGradient><path d="M19.342 36.867h-.659a.25.25 0 0 0-.25.25.25.25 0 0 0 .25.249h.659a.25.25 0 0 0 .25-.249.25.25 0 0 0-.25-.25z" fill="url(#C)"/><path d="M21.975 16.458a.25.25 0 0 0-.215.122l-3.95 6.583c-.071.119-.032.273.086.344a.25.25 0 0 0 .343-.086l3.95-6.584a.25.25 0 0 0-.085-.343c-.04-.024-.085-.036-.129-.036z" fill="url(#A)"/><linearGradient id="D" gradientUnits="userSpaceOnUse" x1="42.424" y1="38.797" x2="2.072" y2="-2.261"><stop offset="0" stop-color="#1e85e9"/><stop offset=".203" stop-color="#8671f3"/><stop offset=".707" stop-color="#c06cfd" stop-opacity=".99"/><stop offset="1" stop-color="#ffbee8"/></linearGradient><path d="M24.146 16.552c-.042-.052-.102-.085-.168-.093-.009-.001-.018-.001-.028-.001-.056 0-.111.019-.155.055-.052.042-.085.102-.093.168a.25.25 0 0 0 .054.184L26.263 20l-2.508 3.135a.25.25 0 0 0 .039.351c.052.041.11.063.184.054a.25.25 0 0 0 .167-.093l2.633-3.291c.075-.092.075-.221.001-.312l-2.633-3.292z" fill="url(#D)"/><linearGradient id="E" gradientUnits="userSpaceOnUse" x1="38.406" y1="42.747" x2="-1.947" y2="1.688"><stop offset="0" stop-color="#1e85e9"/><stop offset=".203" stop-color="#8671f3"/><stop offset=".707" stop-color="#c06cfd" stop-opacity=".99"/><stop offset="1" stop-color="#ffbee8"/></linearGradient><path d="M15.854 23.448c.088.109.246.127.352.039.052-.042.085-.102.093-.167s-.012-.133-.054-.184L13.738 20l2.508-3.135a.25.25 0 0 0 .054-.184c-.008-.066-.04-.126-.093-.167a.25.25 0 0 0-.352.039l-2.633 3.291c-.074.092-.074.221 0 .313l2.632 3.291z" fill="url(#E)"/><defs /></svg>