<svg xmlns="http://www.w3.org/2000/svg" width="40" height="40"  xmlns:v="https://vecta.io/nano"><linearGradient id="A" gradientUnits="userSpaceOnUse" x1="40.622" y1="40.209" x2="-.555" y2="-.144"><stop offset="0" stop-color="#1e85e9"/><stop offset=".203" stop-color="#8671f3"/><stop offset=".707" stop-color="#c06cfd" stop-opacity=".99"/><stop offset="1" stop-color="#ffbee8"/></linearGradient><path d="M38.086 3.288H1.915C.861 3.29.001 4.149 0 5.203v29.593c.001 1.054.861 1.913 1.915 1.915h36.17a1.92 1.92 0 0 0 1.914-1.915V5.203a1.92 1.92 0 0 0-1.913-1.915zm1.373 31.51c-.001.757-.617 1.373-1.374 1.373H1.915c-.758 0-1.374-.616-1.374-1.374V7.775h38.918v27.023zm0-27.564H.541V5.203c0-.757.616-1.373 1.373-1.374h36.171c.757 0 1.373.617 1.374 1.373v2.032z" fill="url(#A)"/><linearGradient id="B" gradientUnits="userSpaceOnUse" x1="39.316" y1="41.541" x2="-1.86" y2="1.188"><stop offset="0" stop-color="#1e85e9"/><stop offset=".203" stop-color="#8671f3"/><stop offset=".707" stop-color="#c06cfd" stop-opacity=".99"/><stop offset="1" stop-color="#ffbee8"/></linearGradient><path d="M2.901 5.261h-.658a.27.27 0 1 0 0 .541h.658a.27.27 0 0 0 .271-.271c0-.148-.122-.27-.271-.27z" fill="url(#B)"/><linearGradient id="C" gradientUnits="userSpaceOnUse" x1="40.605" y1="40.226" x2="-.572" y2="-.127"><stop offset="0" stop-color="#1e85e9"/><stop offset=".203" stop-color="#8671f3"/><stop offset=".707" stop-color="#c06cfd" stop-opacity=".99"/><stop offset="1" stop-color="#ffbee8"/></linearGradient><path d="M5.532 5.261h-.658a.27.27 0 1 0 0 .541h.658a.27.27 0 1 0 0-.541z" fill="url(#C)"/><linearGradient id="D" gradientUnits="userSpaceOnUse" x1="41.894" y1="38.911" x2=".717" y2="-1.442"><stop offset="0" stop-color="#1e85e9"/><stop offset=".203" stop-color="#8671f3"/><stop offset=".707" stop-color="#c06cfd" stop-opacity=".99"/><stop offset="1" stop-color="#ffbee8"/></linearGradient><path d="M8.162 5.261h-.658a.27.27 0 1 0 0 .541h.658a.27.27 0 1 0 0-.541z" fill="url(#D)"/><linearGradient id="E" gradientUnits="userSpaceOnUse" x1="43.58" y1="37.19" x2="2.404" y2="-3.163"><stop offset="0" stop-color="#1e85e9"/><stop offset=".203" stop-color="#8671f3"/><stop offset=".707" stop-color="#c06cfd" stop-opacity=".99"/><stop offset="1" stop-color="#ffbee8"/></linearGradient><path d="M18.357 16.982h3.288a1.26 1.26 0 0 0 1.256-1.258v-3.288a1.26 1.26 0 0 0-1.256-1.257h-3.289a1.26 1.26 0 0 0-1.257 1.257v3.288a1.26 1.26 0 0 0 1.258 1.258zm-.717-4.545c0-.395.321-.716.716-.716h3.289c.395 0 .716.321.716.716v3.288c0 .395-.321.716-.716.716h-3.289c-.395 0-.716-.321-.716-.716v-3.288z" fill="url(#E)"/><linearGradient id="F" gradientUnits="userSpaceOnUse" x1="39.635" y1="41.215" x2="-1.541" y2=".862"><stop offset="0" stop-color="#1e85e9"/><stop offset=".203" stop-color="#8671f3"/><stop offset=".707" stop-color="#c06cfd" stop-opacity=".99"/><stop offset="1" stop-color="#ffbee8"/></linearGradient><path d="M18.357 24.874h3.288a1.26 1.26 0 0 0 1.256-1.257v-3.288a1.26 1.26 0 0 0-1.256-1.257h-3.289a1.26 1.26 0 0 0-1.257 1.257v3.288a1.26 1.26 0 0 0 1.258 1.257zm-.717-4.545c0-.395.321-.716.716-.716h3.289c.395 0 .716.321.716.716v3.288a.72.72 0 0 1-.716.717h-3.289a.72.72 0 0 1-.716-.717v-3.288z" fill="url(#F)"/><linearGradient id="G" gradientUnits="userSpaceOnUse" x1="35.69" y1="45.241" x2="-5.486" y2="4.888"><stop offset="0" stop-color="#1e85e9"/><stop offset=".203" stop-color="#8671f3"/><stop offset=".707" stop-color="#c06cfd" stop-opacity=".99"/><stop offset="1" stop-color="#ffbee8"/></linearGradient><path d="M18.357 32.766h3.288a1.26 1.26 0 0 0 1.256-1.257v-3.288a1.26 1.26 0 0 0-1.256-1.257h-3.289a1.26 1.26 0 0 0-1.257 1.257v3.288a1.26 1.26 0 0 0 1.258 1.257zm-.717-4.545c0-.395.321-.716.716-.716h3.289c.395 0 .716.32.716.716v3.288c0 .395-.321.716-.716.716h-3.289c-.395 0-.716-.321-.716-.716v-3.288z" fill="url(#G)"/><linearGradient id="H" gradientUnits="userSpaceOnUse" x1="47.446" y1="33.245" x2="6.27" y2="-7.108"><stop offset="0" stop-color="#1e85e9"/><stop offset=".203" stop-color="#8671f3"/><stop offset=".707" stop-color="#c06cfd" stop-opacity=".99"/><stop offset="1" stop-color="#ffbee8"/></linearGradient><path d="M26.248 16.982h3.288a1.26 1.26 0 0 0 1.257-1.258v-3.288a1.26 1.26 0 0 0-1.257-1.257h-3.288a1.26 1.26 0 0 0-1.256 1.257v3.288a1.26 1.26 0 0 0 1.256 1.258zm-.716-4.545c0-.395.32-.716.716-.716h3.288a.72.72 0 0 1 .717.716v3.288a.72.72 0 0 1-.717.716h-3.288c-.395 0-.716-.321-.716-.716v-3.288z" fill="url(#H)"/><linearGradient id="I" gradientUnits="userSpaceOnUse" x1="43.501" y1="37.27" x2="2.325" y2="-3.083"><stop offset="0" stop-color="#1e85e9"/><stop offset=".203" stop-color="#8671f3"/><stop offset=".707" stop-color="#c06cfd" stop-opacity=".99"/><stop offset="1" stop-color="#ffbee8"/></linearGradient><path d="M26.248 24.874h3.288a1.26 1.26 0 0 0 1.257-1.257v-3.288a1.26 1.26 0 0 0-1.257-1.257h-3.288a1.26 1.26 0 0 0-1.256 1.257v3.288a1.26 1.26 0 0 0 1.256 1.257zm-.716-4.545c0-.395.32-.716.716-.716h3.288a.72.72 0 0 1 .717.716v3.288a.72.72 0 0 1-.717.717h-3.288a.72.72 0 0 1-.716-.717v-3.288z" fill="url(#I)"/><linearGradient id="J" gradientUnits="userSpaceOnUse" x1="39.556" y1="41.296" x2="-1.62" y2=".943"><stop offset="0" stop-color="#1e85e9"/><stop offset=".203" stop-color="#8671f3"/><stop offset=".707" stop-color="#c06cfd" stop-opacity=".99"/><stop offset="1" stop-color="#ffbee8"/></linearGradient><path d="M26.248 32.766h3.288a1.26 1.26 0 0 0 1.257-1.257v-3.288a1.26 1.26 0 0 0-1.257-1.257h-3.288a1.26 1.26 0 0 0-1.256 1.257v3.288a1.26 1.26 0 0 0 1.256 1.257zm-.716-4.545c0-.395.32-.716.716-.716h3.288c.395 0 .717.32.717.716v3.288a.72.72 0 0 1-.717.716h-3.288c-.395 0-.716-.321-.716-.716v-3.288z" fill="url(#J)"/><linearGradient id="K" gradientUnits="userSpaceOnUse" x1="39.714" y1="41.135" x2="-1.463" y2=".782"><stop offset="0" stop-color="#1e85e9"/><stop offset=".203" stop-color="#8671f3"/><stop offset=".707" stop-color="#c06cfd" stop-opacity=".99"/><stop offset="1" stop-color="#ffbee8"/></linearGradient><path d="M10.464 16.982h3.288a1.26 1.26 0 0 0 1.257-1.258v-3.288a1.26 1.26 0 0 0-1.257-1.257h-3.288a1.26 1.26 0 0 0-1.257 1.257v3.288a1.26 1.26 0 0 0 1.257 1.258zm-.716-4.545c0-.395.321-.716.716-.716h3.289c.395 0 .716.321.716.716v3.288c0 .395-.321.716-.716.716h-3.289c-.395 0-.716-.321-.716-.716v-3.288z" fill="url(#K)"/><linearGradient id="L" gradientUnits="userSpaceOnUse" x1="35.769" y1="45.16" x2="-5.407" y2="4.807"><stop offset="0" stop-color="#1e85e9"/><stop offset=".203" stop-color="#8671f3"/><stop offset=".707" stop-color="#c06cfd" stop-opacity=".99"/><stop offset="1" stop-color="#ffbee8"/></linearGradient><path d="M10.464 24.874h3.288a1.26 1.26 0 0 0 1.257-1.257v-3.288a1.26 1.26 0 0 0-1.257-1.257h-3.288a1.26 1.26 0 0 0-1.257 1.257v3.288a1.26 1.26 0 0 0 1.257 1.257zm-.716-4.545c0-.395.321-.716.716-.716h3.289c.395 0 .716.321.716.716v3.288a.72.72 0 0 1-.716.717h-3.289a.72.72 0 0 1-.716-.717v-3.288z" fill="url(#L)"/><linearGradient id="M" gradientUnits="userSpaceOnUse" x1="31.824" y1="49.186" x2="-9.353" y2="8.833"><stop offset="0" stop-color="#1e85e9"/><stop offset=".203" stop-color="#8671f3"/><stop offset=".707" stop-color="#c06cfd" stop-opacity=".99"/><stop offset="1" stop-color="#ffbee8"/></linearGradient><path d="M10.464 32.766h3.288a1.26 1.26 0 0 0 1.257-1.257v-3.288a1.26 1.26 0 0 0-1.257-1.257h-3.288a1.26 1.26 0 0 0-1.257 1.257v3.288a1.26 1.26 0 0 0 1.257 1.257zm-.716-4.545c0-.395.321-.716.716-.716h3.289c.395 0 .716.32.716.716v3.288c0 .395-.321.716-.716.716h-3.289c-.395 0-.716-.321-.716-.716v-3.288z" fill="url(#M)"/><defs /></svg>