<svg xmlns="http://www.w3.org/2000/svg" width="40" height="40"  xmlns:v="https://vecta.io/nano"><linearGradient id="A" gradientUnits="userSpaceOnUse" x1="40.707" y1="39.31" x2="-.821" y2=".584"><stop offset="0" stop-color="#1e85e9"/><stop offset=".203" stop-color="#8671f3"/><stop offset=".707" stop-color="#c06cfd" stop-opacity=".99"/><stop offset="1" stop-color="#ffbee8"/></linearGradient><path d="M37.412 3.156H2.588A2.59 2.59 0 0 0 0 5.744v28.512a2.59 2.59 0 0 0 2.588 2.588h34.825a2.59 2.59 0 0 0 2.588-2.588V5.744C40 4.317 38.84 3.156 37.412 3.156zm2.158 6.637H8.996c-.118 0-.215.097-.215.215s.097.215.215.215H39.57v24.033a2.16 2.16 0 0 1-2.158 2.158H2.588A2.16 2.16 0 0 1 .43 34.256V10.223h5.775c.118 0 .215-.097.215-.215s-.097-.215-.215-.215H.43V5.744a2.16 2.16 0 0 1 2.158-2.158h34.825a2.16 2.16 0 0 1 2.158 2.158v4.049z" fill="url(#A)"/><linearGradient id="B" gradientUnits="userSpaceOnUse" x1="40.31" y1="39.795" x2="-1.238" y2="1.05"><stop offset="0" stop-color="#1e85e9"/><stop offset=".203" stop-color="#8671f3"/><stop offset=".707" stop-color="#c06cfd" stop-opacity=".99"/><stop offset="1" stop-color="#ffbee8"/></linearGradient><path d="M4.798 6.477c-.117 0-.213.096-.213.213 0 .237.426.235.426 0 0-.118-.095-.213-.213-.213z" fill="url(#B)"/><linearGradient id="C" gradientUnits="userSpaceOnUse" x1="41.656" y1="38.433" x2=".108" y2="-.31"><stop offset="0" stop-color="#1e85e9"/><stop offset=".203" stop-color="#8671f3"/><stop offset=".707" stop-color="#c06cfd" stop-opacity=".99"/><stop offset="1" stop-color="#ffbee8"/></linearGradient><path d="M7.817 6.69c0-.117-.096-.213-.213-.213s-.213.096-.213.213c0 .234.426.236.426 0z" fill="url(#C)"/><linearGradient id="D" gradientUnits="userSpaceOnUse" x1="43.001" y1="37.072" x2="1.455" y2="-1.671"><stop offset="0" stop-color="#1e85e9"/><stop offset=".203" stop-color="#8671f3"/><stop offset=".707" stop-color="#c06cfd" stop-opacity=".99"/><stop offset="1" stop-color="#ffbee8"/></linearGradient><path d="M10.41 6.477c-.117 0-.213.096-.213.213 0 .236.426.236.426 0 0-.118-.096-.213-.213-.213z" fill="url(#D)"/><linearGradient id="E" gradientUnits="userSpaceOnUse" x1="54.824" y1="26.063" x2="12.288" y2="-13.603"><stop offset="0" stop-color="#1e85e9"/><stop offset=".203" stop-color="#8671f3"/><stop offset=".707" stop-color="#c06cfd" stop-opacity=".99"/><stop offset="1" stop-color="#ffbee8"/></linearGradient><path d="M35.797 6.904c.118 0 .215-.097.215-.215s-.097-.215-.215-.215h-3.496c-.118 0-.215.097-.215.215s.097.215.215.215h3.496z" fill="url(#E)"/><linearGradient id="F" gradientUnits="userSpaceOnUse" x1="35.977" y1="44.087" x2="-5.573" y2="5.341"><stop offset="0" stop-color="#1e85e9"/><stop offset=".203" stop-color="#8671f3"/><stop offset=".707" stop-color="#c06cfd" stop-opacity=".99"/><stop offset="1" stop-color="#ffbee8"/></linearGradient><path d="M15.847 25.119c-.114 0-.208.093-.208.207 0 .229.415.229.415 0 0-.115-.093-.207-.207-.207z" fill="url(#F)"/><linearGradient id="G" gradientUnits="userSpaceOnUse" x1="39.976" y1="40.045" x2="-1.574" y2="1.299"><stop offset="0" stop-color="#1e85e9"/><stop offset=".203" stop-color="#8671f3"/><stop offset=".707" stop-color="#c06cfd" stop-opacity=".99"/><stop offset="1" stop-color="#ffbee8"/></linearGradient><path d="M24.18 25.119c-.114 0-.207.093-.207.207 0 .229.415.229.415 0 0-.115-.094-.207-.208-.207z" fill="url(#G)"/><linearGradient id="H" gradientUnits="userSpaceOnUse" x1="35.148" y1="44.777" x2="-6.293" y2="6.132"><stop offset="0" stop-color="#1e85e9"/><stop offset=".203" stop-color="#8671f3"/><stop offset=".707" stop-color="#c06cfd" stop-opacity=".99"/><stop offset="1" stop-color="#ffbee8"/></linearGradient><path d="M14.321 21.455c-.11-.039-.234.02-.273.132l-1.08 3.08-1.06-3.106c-.045-.126-.165-.146-.201-.144s-.156.011-.204.14l-1.111 3.118-1.059-3.082c-.019-.055-.057-.099-.109-.123s-.109-.029-.164-.01-.098.057-.123.108-.029.11-.01.164l1.259 3.662c.061.174.346.173.406.003l1.11-3.114 1.061 3.111c.059.174.346.174.407.001l1.285-3.666c.038-.111-.021-.234-.134-.274z" fill="url(#H)"/><linearGradient id="I" gradientUnits="userSpaceOnUse" x1="39.147" y1="40.757" x2="-2.294" y2="2.112"><stop offset="0" stop-color="#1e85e9"/><stop offset=".203" stop-color="#8671f3"/><stop offset=".707" stop-color="#c06cfd" stop-opacity=".99"/><stop offset="1" stop-color="#ffbee8"/></linearGradient><path d="M22.755 21.566c-.025-.052-.069-.091-.123-.11a.22.22 0 0 0-.275.132l-1.079 3.08-1.06-3.106c-.046-.132-.194-.169-.205-.145-.046 0-.154.015-.201.141l-1.111 3.118-1.059-3.082c-.019-.055-.057-.099-.109-.123s-.11-.029-.164-.01-.098.057-.123.108-.028.109-.01.164l1.258 3.662c.06.174.347.173.406.003l1.11-3.114 1.061 3.111c.061.174.345.172.406.002l1.286-3.667c.02-.054.017-.113-.008-.164z" fill="url(#I)"/><linearGradient id="J" gradientUnits="userSpaceOnUse" x1="43.146" y1="36.737" x2="1.704" y2="-1.908"><stop offset="0" stop-color="#1e85e9"/><stop offset=".203" stop-color="#8671f3"/><stop offset=".707" stop-color="#c06cfd" stop-opacity=".99"/><stop offset="1" stop-color="#ffbee8"/></linearGradient><path d="M29.788 25.397l1.286-3.667c.039-.111-.021-.235-.132-.275a.22.22 0 0 0-.275.132l-1.079 3.08-1.06-3.106c-.044-.126-.188-.141-.201-.144-.033 0-.125.008-.181.094v.074l-.053.054-1.081 3.037-1.06-3.082c-.019-.055-.057-.099-.108-.123s-.108-.03-.164-.01-.099.058-.123.108-.029.11-.011.165l1.259 3.661c.06.173.345.173.407.002l1.109-3.113 1.061 3.111c.06.174.344.172.406.002z" fill="url(#J)"/><linearGradient id="K" gradientUnits="userSpaceOnUse" x1="39.185" y1="41.307" x2="-2.879" y2="2.081"><stop offset="0" stop-color="#1e85e9"/><stop offset=".203" stop-color="#8671f3"/><stop offset=".707" stop-color="#c06cfd" stop-opacity=".99"/><stop offset="1" stop-color="#ffbee8"/></linearGradient><path d="M33.576 17.912h-4.528l-.113-.175c-1.967-3.054-5.307-4.878-8.934-4.878a10.59 10.59 0 0 0-8.935 4.878l-.113.175H6.558c-1.026 0-1.861.835-1.861 1.861v7.411c0 1.026.835 1.861 1.861 1.861h4.395l.113.175a10.59 10.59 0 0 0 8.935 4.879 10.58 10.58 0 0 0 8.934-4.879l.113-.175h4.528c1.026 0 1.861-.835 1.861-1.861v-2.381c0-.237-.43-.237-.43 0v2.381c0 .789-.642 1.431-1.431 1.431H6.558c-.789 0-1.431-.642-1.431-1.431v-7.411c0-.789.642-1.431 1.431-1.431h27.018c.789 0 1.431.642 1.431 1.431v2.218c0 .237.43.237.43 0v-2.218c0-1.026-.835-1.861-1.861-1.861zm-8.45 11.133h3.442l-.47.614c-1.13 1.478-2.634 2.617-4.351 3.295l-1.43.565.999-1.169c.69-.805 1.267-1.833 1.718-3.055l.092-.25zm-4.911 0h4.468l-.217.527c-.537 1.305-1.743 3.563-3.785 4.021l-.466.104v-4.652zm-.43 0v4.653l-.466-.104c-2.043-.458-3.248-2.716-3.784-4.021l-.217-.527h4.467zm-4.912 0l.093.25c.451 1.222 1.029 2.25 1.717 3.055l.999 1.168-1.43-.564a10.19 10.19 0 0 1-4.351-3.295l-.469-.614h3.441zm0-11.133h-3.441l.47-.615c1.13-1.477 2.634-2.617 4.351-3.295l1.431-.565-1 1.169c-.688.804-1.266 1.832-1.718 3.056l-.093.25zm4.912 0h-4.467l.217-.527c.537-1.305 1.743-3.563 3.784-4.02l.466-.104v4.651zm.43 0V13.26l.466.104c2.042.457 3.247 2.714 3.785 4.02l.217.527h-4.468zm4.911 0l-.092-.25c-.45-1.221-1.028-2.249-1.718-3.056l-.999-1.168 1.43.565a10.19 10.19 0 0 1 4.351 3.295l.47.614h-3.442z" fill="url(#K)"/><defs /></svg>