<?xml version="1.0" encoding="UTF-8"?>
<svg width="160px" height="50px" viewBox="0 0 160 50" version="1.1" xmlns="http://www.w3.org/2000/svg" xmlns:xlink="http://www.w3.org/1999/xlink">
    <title>acronis</title>
    <defs>
        <rect id="path-1" x="0" y="0" width="160" height="50"></rect>
    </defs>
    <g id="Page-1" stroke="none" stroke-width="1" fill="none" fill-rule="evenodd">
        <g id="a1qa-main" transform="translate(-385.000000, -2120.000000)">
            <g id="3-block-deliver-globally" transform="translate(0.000000, 1849.000000)">
                <g id="logo-1" transform="translate(375.000000, 251.000000)">
                    <g id="acronis" transform="translate(10.000000, 20.000000)">
                        <mask id="mask-2" fill="white">
                            <use xlink:href="#path-1"></use>
                        </mask>
                        <use id="Mask" fill-opacity="0" fill="#D8D8D8" xlink:href="#path-1"></use>
                        <path d="M34.2045455,28.6595745 L35.1205669,26.7021277 L43.3112513,26.7021277 L44.2272727,28.6595745 L34.2045455,28.6595745 Z M39.1462891,16.9148936 L39.285456,16.9148936 L39.4523977,17.3243255 L42.3181818,23.7659574 L36.1136364,23.7659574 L38.9794205,17.3243255 L39.1462891,16.9148936 Z M38.086644,13 L28,36 L31.2332347,36 L33.195303,31.3716542 L45.7414472,31.3716542 L47.7035155,36 L50.9090909,36 L40.8777655,13 L38.086644,13 Z M127.445362,25.6378095 C124.491905,24.9526911 124.627363,24.1819329 124.627363,23.4968145 C124.627363,22.6689881 125.494495,21.6413106 126.930579,21.6413106 C128.122795,21.6413106 129.39623,22.2692857 129.39623,24.3817841 L132.268469,24.3817841 C132.376807,20.9561922 130.236241,18.8723404 126.930579,18.8723404 C124.004171,18.8723404 121.646786,21.0132604 121.646786,23.6395225 C121.646786,26.950828 124.1397,27.9785806 126.84929,28.6066308 C129.721458,29.2631026 129.965325,30.2051403 129.965325,30.8617621 C129.965325,32.1177875 128.745988,33.2025333 127.038917,33.2025333 C125.81958,33.2025333 123.950002,32.4032785 123.950002,29.9767925 L121.077834,29.9767925 C120.888135,33.8020118 123.516507,36 127.038917,36 C130.371699,36 133,33.7448687 133,30.7474757 C132.972951,27.3220338 130.127903,26.237213 127.445362,25.6378095 L127.445362,25.6378095 Z M85.5113636,32.5744681 C82.459814,32.5744681 80.5,30.3198747 80.5,27.2196977 C80.5,24.1195207 82.459814,21.8085106 85.5113636,21.8085106 C88.5629868,21.8085106 90.5227273,24.1195207 90.5227273,27.2196977 C90.5227273,30.3198747 88.5629868,32.5744681 85.5113636,32.5744681 L85.5113636,32.5744681 Z M85.272691,18.8723404 C80.6638872,18.8723404 77.1590909,22.441698 77.1590909,27.1914894 C77.1590909,31.9412807 80.6364102,35.5106383 85.272691,35.5106383 C89.8814224,35.5106383 93.3863636,31.9412807 93.3863636,27.1914894 C93.3863636,22.441698 89.8814224,18.8723404 85.272691,18.8723404 L85.272691,18.8723404 Z M114.863636,36 L117.727273,36 L117.727273,19.3617021 L114.863636,19.3617021 L114.863636,36 Z M104.360897,18.8723404 C101.65724,18.8723404 100.001998,20.0712976 99.2846469,20.8705524 L99.1467282,20.8705524 L98.9811967,19.2719678 L96.25,19.2719678 L96.25,36 L99.2846469,36 L99.2846469,25.4664549 C99.2846469,23.1257587 101.326177,21.8982299 103.836762,21.8982299 C105.988599,21.8982299 107.533462,23.0115473 107.533462,25.3237469 L107.533462,36 L110.568182,36 L110.568182,25.1239707 C110.540642,20.4994966 107.395544,18.8723404 104.360897,18.8723404 L104.360897,18.8723404 Z M72.1565712,20.8705524 L72.0151804,20.8705524 L71.8454818,19.2719678 L69.0454545,19.2719678 L69.0454545,36 L72.1565712,36 L72.1565712,25.4094617 C72.1565712,23.1828269 73.8535574,21.9553731 76.087873,21.9553731 C76.568661,21.9553731 76.6818182,21.9838697 76.6818182,21.9838697 L76.6818182,18.9294836 C76.6818182,18.9294836 76.4838117,18.8723404 76.087873,18.8723404 C75.126297,18.8723404 73.3727694,19.2719678 72.1565712,20.8705524 L72.1565712,20.8705524 Z M58.8031451,21.7671644 C60.9461957,21.7671644 62.329786,22.919468 62.9807825,24.858752 L66.1818182,24.858752 C65.395135,21.1769476 62.5738651,18.8723404 58.8031451,18.8723404 C54.3000451,18.8723404 50.9090909,22.4979584 50.9090909,27.2477497 C50.9090909,31.9974672 54.3000451,35.5106383 58.8031451,35.5106383 C62.5738651,35.5106383 65.3137516,33.0935104 66.1818182,29.5242267 L62.9807825,29.5242267 C62.329786,31.3510638 60.9191154,32.6158143 58.8031451,32.6158143 C55.8462598,32.6158143 54.0015916,30.4235802 54.0015916,27.2757322 C54.0287431,24.0999018 55.8462598,21.7671644 58.8031451,21.7671644 L58.8031451,21.7671644 Z" fill="#000000" opacity="0.900320871" mask="url(#mask-2)"></path>
                    </g>
                </g>
            </g>
        </g>
    </g>
</svg>