<svg xmlns="http://www.w3.org/2000/svg" width="218" height="244" viewBox="0 0 218 244">
  <defs>
    <linearGradient id="bg-cards-2-a" x1="100%" x2="0%" y1="97.85%" y2="2.15%">
      <stop offset="0%" stop-color="#1E85E9"/>
      <stop offset="20.276%" stop-color="#8671F3"/>
      <stop offset="70.727%" stop-color="#C06CFD" stop-opacity=".99"/>
      <stop offset="100%" stop-color="#FFBEE8"/>
    </linearGradient>
    <linearGradient id="bg-cards-2-b" x1="89.912%" x2="10.088%" y1="100%" y2="0%">
      <stop offset="0%" stop-color="#1E85E9"/>
      <stop offset="20.276%" stop-color="#8671F3"/>
      <stop offset="70.727%" stop-color="#C06CFD" stop-opacity=".99"/>
      <stop offset="100%" stop-color="#FFBEE8"/>
    </linearGradient>
  </defs>
  <g fill="none">
    <path stroke="url(#bg-cards-2-a)" stroke-width=".9" d="M185.173565,74.739482 C183.955627,71.9655038 182.323353,69.5755929 180.276428,67.5706697 C178.230763,65.565542 175.784397,63.9688246 172.93922,62.7813357 C170.095092,61.5938467 167.1146,61 164.000367,61 C160.885819,61 157.905852,61.5941536 155.06078,62.7813357 C152.215603,63.9688246 149.769762,65.5652352 147.723467,67.5706697 C145.677066,69.5755929 144.044583,71.9655038 142.82675,74.739482 C141.609021,77.5136648 141,80.4292007 141,83.4853737 C141,86.5416491 141.609021,89.4618899 142.82675,92.2455848 C144.044897,95.0299958 145.676962,97.4237934 147.723467,99.4294325 C149.769762,101.434663 152.215603,103.031482 155.06078,104.218051 C157.905852,105.406051 160.885714,106 164.000367,106 C167.11502,106 170.095092,105.406051 172.93922,104.218051 C175.784397,103.030869 178.230763,101.434663 180.276428,99.4294325 C182.323353,97.4237934 183.955522,95.0298935 185.173565,92.2455848 C186.391503,89.4617876 187,86.5415468 187,83.4853737 C187,80.4292007 186.391503,77.5136648 185.173565,74.739482 Z M150.63586,92 C148.878343,89.4068842 147.999585,86.5750099 148,83.5077596 C148,80.7056307 148.720955,78.1115201 150.162451,75.7255273 C151.603636,73.3397334 153.559002,71.4558297 156.027099,70.0731198 C158.495404,68.6909073 161.19092,68 164.113647,68 C167.372523,68 170.333638,68.8616196 173,70.5846598 L150.63586,92 Z M178.721112,90.4659107 C177.868694,92.3945124 176.720059,94.0526627 175.273436,95.4399621 C173.826189,96.8271616 172.107296,97.9340261 170.115509,98.7598566 C168.123722,99.5861862 166.02792,100 163.828625,100 C160.658008,100 157.715098,99.1548016 155,97.4629073 L177.413904,76 C179.138732,78.5462774 180,81.3492292 180,84.4083561 C179.999479,86.5178579 179.573322,88.53671 178.721112,90.4659107 Z"/>
    <path fill="url(#bg-cards-2-b)" d="M101.818182,169 C103.575451,169 105,170.428878 105,172.191489 L105,240.808511 C105,242.571122 103.575451,244 101.818182,244 L3.18181818,244 C1.42454852,244 0,242.571122 0,240.808511 L0,172.191489 C0,170.428878 1.42454852,169 3.18181818,169 L101.818182,169 Z M104.204,176.382 L0.795,176.382 L0.795454545,240.808511 C0.795454545,242.083256 1.78891361,243.125261 3.04160119,243.198064 L3.18181818,243.202128 L101.818182,243.202128 C103.089064,243.202128 104.127912,242.205649 104.200494,240.949154 L104.204545,240.808511 L104.204,176.382 Z M214.818182,127 C216.575451,127 218,128.428878 218,130.191489 L218,198.808511 C218,200.571122 216.575451,202 214.818182,202 L116.181818,202 C114.424549,202 113,200.571122 113,198.808511 L113,130.191489 C113,128.428878 114.424549,127 116.181818,127 L214.818182,127 Z M217.204,134.382 L113.795,134.382 L113.795455,198.808511 C113.795455,200.083256 114.788914,201.125261 116.041601,201.198064 L116.181818,201.202128 L214.818182,201.202128 C216.089064,201.202128 217.127912,200.205649 217.200494,198.949154 L217.204545,198.808511 L217.204,134.382 Z M101.818182,169.797872 L20.09,169.797 L20.0909091,175.382979 L104.204,175.382 L104.204545,172.191489 C104.204545,170.916744 103.211086,169.874739 101.958399,169.801936 L101.818182,169.797872 Z M19.09,169.797 L3.18181818,169.797872 C1.91093566,169.797872 0.872087937,170.794351 0.799505552,172.050846 L0.795454545,172.191489 L0.795,175.382 L19.0909091,175.382979 L19.09,169.797 Z M101.818182,84 C103.575451,84 105,85.4288785 105,87.1914894 L105,155.808511 C105,157.571122 103.575451,159 101.818182,159 L3.18181818,159 C1.42454852,159 0,157.571122 0,155.808511 L0,87.1914894 C0,85.4288785 1.42454852,84 3.18181818,84 L101.818182,84 Z M104.204,91.382 L0.795,91.382 L0.795454545,155.808511 C0.795454545,157.083256 1.78891361,158.125261 3.04160119,158.198064 L3.18181818,158.202128 L101.818182,158.202128 C103.089064,158.202128 104.127912,157.205649 104.200494,155.949154 L104.204545,155.808511 L104.204,91.382 Z M214.818182,127.797872 L133.09,127.797 L133.090909,133.382979 L217.204,133.382 L217.204545,130.191489 C217.204545,128.916744 216.211086,127.874739 214.958399,127.801936 L214.818182,127.797872 Z M132.09,127.797 L116.181818,127.797872 C114.910936,127.797872 113.872088,128.794351 113.799506,130.050846 L113.795455,130.191489 L113.795,133.382 L132.090909,133.382979 L132.09,127.797 Z M214.818182,42 C216.575451,42 218,43.4288785 218,45.1914894 L218,113.808511 C218,115.571122 216.575451,117 214.818182,117 L116.181818,117 C114.424549,117 113,115.571122 113,113.808511 L113,45.1914894 C113,43.4288785 114.424549,42 116.181818,42 L214.818182,42 Z M217.204,49.382 L113.795,49.382 L113.795455,113.808511 C113.795455,115.083256 114.788914,116.125261 116.041601,116.198064 L116.181818,116.202128 L214.818182,116.202128 C216.089064,116.202128 217.127912,115.205649 217.200494,113.949154 L217.204545,113.808511 L217.204,49.382 Z M101.818182,84.7978723 L20.09,84.797 L20.0909091,90.3829787 L104.204,90.382 L104.204545,87.1914894 C104.204545,85.916744 103.211086,84.8747387 101.958399,84.8019357 L101.818182,84.7978723 Z M19.09,84.797 L3.18181818,84.7978723 C1.91093566,84.7978723 0.872087937,85.794351 0.799505552,87.0508462 L0.795454545,87.1914894 L0.795,90.382 L19.0909091,90.3829787 L19.09,84.797 Z M101.818182,0 C103.575451,0 105,1.42887846 105,3.19148936 L105,71.8085106 C105,73.5711215 103.575451,75 101.818182,75 L3.18181818,75 C1.42454852,75 0,73.5711215 0,71.8085106 L0,3.19148936 C0,1.42887846 1.42454852,0 3.18181818,0 L101.818182,0 Z M104.204,7.382 L0.795,7.382 L0.795454545,71.8085106 C0.795454545,73.083256 1.78891361,74.1252613 3.04160119,74.1980643 L3.18181818,74.2021277 L101.818182,74.2021277 C103.089064,74.2021277 104.127912,73.205649 104.200494,71.9491538 L104.204545,71.8085106 L104.204,7.382 Z M214.818182,42.7978723 L133.09,42.797 L133.090909,48.3829787 L217.204,48.382 L217.204545,45.1914894 C217.204545,43.916744 216.211086,42.8747387 214.958399,42.8019357 L214.818182,42.7978723 Z M132.09,42.797 L116.181818,42.7978723 C114.910936,42.7978723 113.872088,43.794351 113.799506,45.0508462 L113.795455,45.1914894 L113.795,48.382 L132.090909,48.3829787 L132.09,42.797 Z M101.818182,0.79787234 L20.09,0.797 L20.0909091,6.38297872 L104.204,6.382 L104.204545,3.19148936 C104.204545,1.91674398 103.211086,0.87473866 101.958399,0.80193566 L101.818182,0.79787234 Z M19.09,0.797 L3.18181818,0.79787234 C1.91093566,0.79787234 0.872087937,1.79435104 0.799505552,3.05084618 L0.795454545,3.19148936 L0.795,6.382 L19.0909091,6.38297872 L19.09,0.797 Z"/>
  </g>
</svg>
