<svg xmlns="http://www.w3.org/2000/svg" width="314" height="359" viewBox="0 0 314 359">
  <defs>
    <linearGradient id="bg-cards-1-a" x1="107.258%" x2="-14.788%" y1="47.112%" y2="47.112%">
      <stop offset="0%" stop-color="#1E85E9"/>
      <stop offset="20.276%" stop-color="#8671F3"/>
      <stop offset="70.727%" stop-color="#C06CFD" stop-opacity=".99"/>
      <stop offset="100%" stop-color="#FFBEE8"/>
    </linearGradient>
    <linearGradient id="bg-cards-1-b" x1="89.282%" x2="10.718%" y1="100%" y2="0%">
      <stop offset="0%" stop-color="#1E85E9"/>
      <stop offset="20.276%" stop-color="#8671F3"/>
      <stop offset="70.727%" stop-color="#C06CFD" stop-opacity=".99"/>
      <stop offset="100%" stop-color="#FFBEE8"/>
    </linearGradient>
  </defs>
  <g fill="none" fill-rule="evenodd">
    <path fill="url(#bg-cards-1-a)" fill-rule="nonzero" d="M158.204332,-9.34221589e-11 L202,25.6764966 L202,77.21 L223.625,89.324 L270.204332,64 L314,89.6764966 L314,141.949358 L271.2,167.821 L271.2,191.583 L314,216.676497 L314,268.949358 L270.90654,295 L223.973,268.127 L202,281.766 L202,332.949358 L158.90654,359 L111.303572,331.743044 L111.002,281.077 L90.881,269.625 L48.9065401,295 L1.30357194,267.743044 L1,216.664095 L48,191.11 L48,166.942 L47.9065401,167 L0.303571937,139.743044 L9.65023617e-10,88.664095 L47.2043322,63 L90.661,88.477 L111.299,76.042 L111,25.664095 L158.204332,-9.34221589e-11 Z M112.271,282.106 L112.561565,331.01442 L158.251,357.175 L157.56,307.193 L112.271,282.106 Z M200.735,282.225 L158.824,307.179 L159.514,357.162 L200.735753,332.243896 L200.735,282.225 Z M158,256.54 L113.241,280.874 L115,281.87532 L114.871,282.108 L158.17958,306.099976 L200.202,281.08 L159,256.923 L159,257 L158,257 L158,256.54 Z M2.271,218.106 L2.56156538,267.01442 L48.251,293.175 L47.56,243.193 L2.271,218.106 Z M224.271,218.106 L224.561565,267.01442 L270.251,293.175 L269.56,243.193 L224.271,218.106 Z M312.735,218.225 L270.824,243.179 L271.514,293.162 L312.735753,268.243896 L312.735,218.225 Z M90.735,218.225 L48.824,243.179 L49.514,293.162 L90.36,268.47 L90.6195499,268 L90.735,268.065 L90.735,218.225 Z M201.408,206.307 L159,231.942 L159,255.466 L201.662,280.478 L223.299,267.046 L223.007,217.799 L201.408,206.307 Z M111.96,205.119 L92,217.165 L92,268.785 L111.957,280.143 L158,255.11 L158,231.48 L111.96,205.119 Z M48.1808434,192.442963 L2.94,217.039 L48.1795798,242.099976 L90.125,217.125 L90.048,216.989 L48.1808434,192.442963 Z M270.180843,192.442963 L224.94,217.039 L270.17958,242.099976 L312.202,217.08 L270.180843,192.442963 Z M112.271,155.106 L112.561565,204.01442 L158.251,230.175 L157.56,180.193 L112.271,155.106 Z M200.735,155.225 L158.824,180.179 L159.514,230.162 L200.735753,205.243896 L200.735,155.225 Z M223.935,141.105 L202,154.763 L202,205.203 L223.267,216.519 L270,191.11 L270,167.48 L223.935,141.105 Z M90.399,141.312 L49,166.338 L49,191.466 L91.177,216.194 L111.299,204.049 L111.003,154.14 L90.399,141.312 Z M158.180843,129.442963 L112.94,154.039 L158.17958,179.099976 L200.202,154.08 L158.180843,129.442963 Z M270.180843,65.4429625 L224.921,90.05 L244.856445,101.217773 L244.232078,102.328717 L224.271,91.146 L224.561565,140.01442 L270,166.032 L270,145 L271.2,145 L271.2,166.351 L312.735753,141.243896 L312.735,91.337 L292.598128,101.772392 L292,100.618164 L312.265,90.117 L270.180843,65.4429625 Z M1.271,90.106 L1.56156538,139.01442 L47.251,165.175 L46.56,115.193 L1.271,90.106 Z M89.735,90.225 L47.824,115.179 L48.512,164.999 L48.782,164.999 L89.7357534,140.243896 L89.735,90.225 Z M201.381,78.323 L159.3,103.761 L159.3,128.642 L201.699,153.5 L223.299,140.048 L223.005,90.437 L201.381,78.323 Z M111.984,77.133 L91,89.775 L91,140.237 L111.835,153.21 L158,128.11 L158,103.48 L111.984,77.133 Z M47.1808434,64.4429625 L1.94,89.039 L47.1795798,114.099976 L89.202,89.08 L47.1808434,64.4429625 Z M200.735,27.225 L158.824,52.179 L159.514,102.162 L200.735753,77.2438957 L200.735,27.225 Z M112.271,27.106 L112.561565,76.0144201 L158,102.03 L158,102 L158.249,101.999 L157.56,52.193 L112.271,27.106 Z M158.180843,1.44296254 L112.94,26.039 L158.17958,51.0999757 L200.202,26.08 L158.180843,1.44296254 Z"/>
    <path stroke="url(#bg-cards-1-b)" d="M269.663866,91.5 C272.842218,91.5 275.728673,92.6690545 277.832531,94.5710146 C279.840487,96.3862758 281.134797,98.8703438 281.276806,101.628743 L281.288288,101.961042 L281.290063,108 L287.2,108 C287.558985,108 287.883985,108.145507 288.119239,108.380761 C288.320885,108.582407 288.456595,108.849989 288.491254,109.148393 L288.5,109.3 L288.5,133.2 C288.5,133.558985 288.354493,133.883985 288.119239,134.119239 C287.917593,134.320885 287.650011,134.456595 287.351607,134.491254 L287.2,134.5 L251.8,134.5 C251.441015,134.5 251.116015,134.354493 250.880761,134.119239 C250.679115,133.917593 250.543405,133.650011 250.508746,133.351607 L250.5,133.2 L250.5,109.3 C250.5,108.941015 250.645507,108.616015 250.880761,108.380761 C251.082407,108.179115 251.349989,108.043405 251.648393,108.008746 L251.8,108 L258.037815,108 L258.037815,102.145503 C258.037815,99.207898 259.336316,96.5548039 261.426483,94.633654 C263.535962,92.6947536 266.450774,91.5 269.663866,91.5 Z M269.500084,115.5 C268.413137,115.5 267.43138,115.937838 266.72783,116.675064 C266.04967,117.385686 265.627324,118.377324 265.633107,119.564663 C265.689016,120.356411 265.991338,121.100212 266.56013,121.766347 L266.56013,121.766347 L265.387379,127.5 L273.602312,127.5 L272.514361,121.689678 L272.658461,121.503854 C273.118721,120.870904 273.376384,120.105635 273.376384,119.3 C273.376384,118.249376 272.941595,117.29767 272.236979,116.608977 C271.536546,115.924373 270.569164,115.5 269.500084,115.5 Z M269.663866,95.3888889 C267.643091,95.3888889 265.818713,96.1305501 264.490868,97.3376685 C263.151435,98.5553207 262.315464,100.245843 262.281593,102.136547 L262.281593,102.136547 L262.281505,108 L277.046218,108 L277.046218,102.145503 L277.039372,101.852016 C276.957481,100.100068 276.145822,98.5143713 274.865406,97.35037 C273.535708,96.1415668 271.69942,95.3888889 269.663866,95.3888889 Z"/>
  </g>
</svg>
