<?xml version="1.0" encoding="UTF-8"?>
<svg width="160px" height="50px" viewBox="0 0 160 50" version="1.1" xmlns="http://www.w3.org/2000/svg" xmlns:xlink="http://www.w3.org/1999/xlink">
    <title>bitcoinj</title>
    <defs>
        <rect id="path-1" x="0" y="0" width="160" height="50"></rect>
    </defs>
    <g id="Page-1" stroke="none" stroke-width="1" fill="none" fill-rule="evenodd">
        <g id="a1qa-Software-blockchainapp-testing-v7" transform="translate(-1375.000000, -5170.000000)">
            <g id="9" transform="translate(375.000000, 4875.000000)">
                <g id="18" transform="translate(990.000000, 285.000000)">
                    <g id="bitcoinj" transform="translate(10.000000, 10.000000)">
                        <mask id="mask-2" fill="white">
                            <use xlink:href="#path-1"></use>
                        </mask>
                        <use id="Mask" fill-opacity="0" fill="#D8D8D8" xlink:href="#path-1"></use>
                        <path d="M52.41,31.1 C55.19,31.1 57.95,30.3 57.95,26.86 C57.95,25.28 57.01,24.1 55.47,23.62 C56.61,23.1 57.29,21.94 57.29,20.72 C57.29,17.98 55.15,17.1 52.25,17.1 C51.07,17.1 49.97,17.18 49.03,17.34 C48.23,17.48 47.89,17.94 47.89,18.68 L47.89,29.6 C47.89,30.28 48.21,30.76 49.01,30.88 C50.05,31.04 51.45,31.1 52.41,31.1 Z M52.23,23.04 L50.19,23.04 L50.19,19.2 C50.77,19.14 51.35,19.1 52.03,19.1 C53.73,19.1 54.83,19.6 54.83,20.96 C54.83,22.32 53.93,23.04 52.23,23.04 Z M52.51,29.12 C51.81,29.12 50.99,29.1 50.19,29 L50.19,24.84 L52.49,24.84 C54.45,24.84 55.49,25.52 55.49,26.96 C55.49,28.56 54.39,29.12 52.51,29.12 Z M61.57,19.84 C62.35,19.84 62.89,19.42 62.89,18.62 C62.89,17.86 62.35,17.4 61.57,17.4 C60.77,17.4 60.27,17.86 60.27,18.62 C60.27,19.42 60.77,19.84 61.57,19.84 Z M61.57,31 C62.33,31 62.71,30.48 62.71,29.84 L62.71,22.36 C62.71,21.74 62.33,21.2 61.57,21.2 C60.83,21.2 60.45,21.74 60.45,22.36 L60.45,29.84 C60.45,30.48 60.83,31 61.57,31 Z M69.35,31.2 C70.05,31.2 70.79,31.06 71.35,30.74 C71.89,30.42 72.21,29.94 71.97,29.34 C71.77,28.86 71.27,28.76 70.77,28.96 C70.53,29.06 70.09,29.2 69.71,29.2 C68.87,29.2 68.57,28.7 68.57,27.58 L68.57,23.12 L70.27,23.12 C70.99,23.12 71.35,22.76 71.35,22.16 C71.35,21.54 70.99,21.2 70.27,21.2 L68.57,21.2 L68.57,19.96 C68.57,19.34 68.19,18.8 67.43,18.8 C66.69,18.8 66.31,19.34 66.31,19.96 L66.31,21.2 L65.79,21.2 C65.07,21.2 64.71,21.54 64.71,22.16 C64.71,22.76 65.07,23.12 65.79,23.12 L66.31,23.12 L66.31,27.82 C66.31,30.2 67.43,31.2 69.35,31.2 Z M77.67,31.2 C78.87,31.2 79.99,30.9 80.77,30.28 C81.31,29.84 81.45,29.28 81.17,28.82 C80.93,28.42 80.47,28.3 79.81,28.62 C79.21,28.92 78.63,29.18 77.89,29.18 C76.41,29.18 75.39,28.08 75.39,26.18 C75.39,24.22 76.33,23.02 77.87,23.02 C78.61,23.02 79.03,23.16 79.57,23.32 C80.27,23.54 80.67,23.38 80.89,22.9 C81.11,22.42 80.97,21.92 80.39,21.56 C79.79,21.18 78.89,21 77.81,21 C74.87,21 73.07,22.98 73.07,26.18 C73.07,29.36 74.81,31.2 77.67,31.2 Z M87.47,31.2 C90.57,31.2 92.27,29 92.27,26.1 C92.27,23.22 90.57,21 87.47,21 C84.37,21 82.69,23.2 82.69,26.1 C82.69,29 84.37,31.2 87.47,31.2 Z M87.47,29.28 C85.85,29.28 85.01,27.92 85.01,26.1 C85.01,24.3 85.83,22.92 87.47,22.92 C89.13,22.92 89.95,24.3 89.95,26.1 C89.95,27.92 89.13,29.28 87.47,29.28 Z M95.69,19.84 C96.47,19.84 97.01,19.42 97.01,18.62 C97.01,17.86 96.47,17.4 95.69,17.4 C94.89,17.4 94.39,17.86 94.39,18.62 C94.39,19.42 94.89,19.84 95.69,19.84 Z M95.69,31 C96.45,31 96.83,30.48 96.83,29.84 L96.83,22.36 C96.83,21.74 96.45,21.2 95.69,21.2 C94.95,21.2 94.57,21.74 94.57,22.36 L94.57,29.84 C94.57,30.48 94.95,31 95.69,31 Z M107.13,31 C107.89,31 108.27,30.48 108.27,29.84 L108.27,25.28 C108.27,22.62 107.45,21 104.85,21 C103.67,21 102.49,21.52 101.89,22.66 L101.89,22.36 C101.89,21.74 101.51,21.2 100.75,21.2 C100.01,21.2 99.63,21.74 99.63,22.36 L99.63,29.84 C99.63,30.48 100.01,31 100.75,31 C101.51,31 101.89,30.48 101.89,29.84 L101.89,27.26 C101.93,25.02 102.37,23 104.31,23 C105.59,23 106.01,23.92 106.01,25.24 L106.01,29.84 C106.01,30.48 106.39,31 107.13,31 Z M112.27,19.84 C113.05,19.84 113.59,19.42 113.59,18.62 C113.59,17.86 113.05,17.4 112.27,17.4 C111.47,17.4 110.97,17.86 110.97,18.62 C110.97,19.42 111.47,19.84 112.27,19.84 Z M110.31,35.2 C112.47,35.2 113.41,33.92 113.41,31.68 L113.41,22.36 C113.41,21.74 113.03,21.2 112.29,21.2 C111.55,21.2 111.15,21.74 111.15,22.36 L111.15,31.46 C111.15,32.52 110.97,33.18 109.97,33.18 C109.55,33.18 109.19,33.08 108.75,32.98 C108.25,32.88 107.79,32.92 107.61,33.5 C107.43,34.06 107.67,34.54 108.25,34.82 C108.77,35.08 109.63,35.2 110.31,35.2 Z" id="logo-Bitcoinj" fill="#000000" fill-rule="nonzero" mask="url(#mask-2)"></path>
                    </g>
                </g>
            </g>
        </g>
    </g>
</svg>