<?xml version="1.0" encoding="UTF-8"?>
<svg width="160px" height="50px" viewBox="0 0 160 50" version="1.1" xmlns="http://www.w3.org/2000/svg" xmlns:xlink="http://www.w3.org/1999/xlink">
    <title>fiddler</title>
    <defs>
        <rect id="path-1" x="0" y="0" width="160" height="50"></rect>
    </defs>
    <g id="Page-1" stroke="none" stroke-width="1" fill="none" fill-rule="evenodd">
        <g id="a1qa-Software-blockchainapp-testing-v7" transform="translate(-1177.000000, -4990.000000)">
            <g id="9" transform="translate(375.000000, 4875.000000)">
                <g id="5" transform="translate(792.000000, 105.000000)">
                    <g id="fiddler" transform="translate(10.000000, 10.000000)">
                        <mask id="mask-2" fill="white">
                            <use xlink:href="#path-1"></use>
                        </mask>
                        <use id="Mask" fill-opacity="0" fill="#D8D8D8" xlink:href="#path-1"></use>
                        <path d="M49.9,31 C50.68,31 51.1,30.46 51.1,29.78 L51.1,24.96 L55.26,24.96 C55.96,24.96 56.4,24.52 56.4,23.88 C56.4,23.22 55.96,22.82 55.26,22.82 L51.1,22.82 L51.1,19.34 L56.3,19.34 C57,19.34 57.44,18.92 57.44,18.28 C57.44,17.62 57,17.2 56.3,17.2 L49.9,17.2 C49.1,17.2 48.7,17.76 48.7,18.44 L48.7,29.78 C48.7,30.46 49.1,31 49.9,31 Z M60.56,19.84 C61.34,19.84 61.88,19.42 61.88,18.62 C61.88,17.86 61.34,17.4 60.56,17.4 C59.76,17.4 59.26,17.86 59.26,18.62 C59.26,19.42 59.76,19.84 60.56,19.84 Z M60.56,31 C61.32,31 61.7,30.48 61.7,29.84 L61.7,22.36 C61.7,21.74 61.32,21.2 60.56,21.2 C59.82,21.2 59.44,21.74 59.44,22.36 L59.44,29.84 C59.44,30.48 59.82,31 60.56,31 Z M67.8,31.2 C69.22,31.2 70.16,30.62 70.72,29.68 L70.72,29.84 C70.72,30.46 71.1,31 71.86,31 C72.6,31 72.98,30.46 72.98,29.84 L72.98,18.36 C72.98,17.72 72.6,17.2 71.86,17.2 C71.1,17.2 70.72,17.72 70.72,18.36 L70.72,21.38 C70.22,21.18 69.44,21 68.5,21 C65.38,21 64,23.32 64,26.4 C64,29.2 65.28,31.2 67.8,31.2 Z M68.26,29.28 C66.9,29.28 66.32,28.14 66.32,26.44 C66.32,24.44 66.94,22.92 68.74,22.92 C69.5,22.92 70.16,23.06 70.72,23.38 L70.72,24.94 C70.72,27 70.38,29.28 68.26,29.28 Z M79.08,31.2 C80.5,31.2 81.44,30.62 82,29.68 L82,29.84 C82,30.46 82.38,31 83.14,31 C83.88,31 84.26,30.46 84.26,29.84 L84.26,18.36 C84.26,17.72 83.88,17.2 83.14,17.2 C82.38,17.2 82,17.72 82,18.36 L82,21.38 C81.5,21.18 80.72,21 79.78,21 C76.66,21 75.28,23.32 75.28,26.4 C75.28,29.2 76.56,31.2 79.08,31.2 Z M79.54,29.28 C78.18,29.28 77.6,28.14 77.6,26.44 C77.6,24.44 78.22,22.92 80.02,22.92 C80.78,22.92 81.44,23.06 82,23.38 L82,24.94 C82,27 81.66,29.28 79.54,29.28 Z M88.14,31 C88.9,31 89.28,30.46 89.28,29.84 L89.28,18.36 C89.28,17.74 88.9,17.2 88.14,17.2 C87.4,17.2 87.02,17.74 87.02,18.36 L87.02,29.84 C87.02,30.46 87.4,31 88.14,31 Z M96.16,31.2 C97.3,31.2 98.46,31 99.32,30.42 C99.84,30.08 99.96,29.56 99.74,29.14 C99.52,28.76 99.14,28.6 98.5,28.86 C97.88,29.12 97.24,29.38 96.38,29.38 C94.84,29.38 93.84,28.44 93.78,26.92 L98.88,26.92 C99.68,26.92 100.02,26.58 100.2,25.92 C100.26,25.7 100.3,25.26 100.3,24.98 C100.3,22.64 98.82,21 96.2,21 C93.32,21 91.54,23.04 91.54,26.14 C91.54,29.36 93.16,31.2 96.16,31.2 Z M98.2,25.34 L93.78,25.34 C93.92,23.72 94.78,22.82 96.2,22.82 C97.58,22.82 98.22,23.7 98.22,24.84 C98.22,25.02 98.22,25.14 98.2,25.34 Z M103.68,31 C104.44,31 104.82,30.48 104.82,29.84 L104.82,26.46 C104.82,24.12 105.36,23.04 106.54,23.04 C106.88,23.04 107.18,23.12 107.48,23.22 C108.06,23.42 108.52,23.28 108.74,22.78 C109.06,22.04 108.58,21 106.92,21 C106.04,21 105.24,21.52 104.82,22.28 C104.82,21.76 104.44,21.2 103.68,21.2 C102.94,21.2 102.56,21.74 102.56,22.36 L102.56,29.84 C102.56,30.48 102.94,31 103.68,31 Z" id="logo-Fiddler" fill="#000000" fill-rule="nonzero" mask="url(#mask-2)"></path>
                    </g>
                </g>
            </g>
        </g>
    </g>
</svg>