<?xml version="1.0" encoding="UTF-8"?>
<svg width="160px" height="50px" viewBox="0 0 160 50" version="1.1" xmlns="http://www.w3.org/2000/svg" xmlns:xlink="http://www.w3.org/1999/xlink">
    <title>genesys</title>
    <defs>
        <rect id="path-1" x="0" y="0" width="160" height="50"></rect>
    </defs>
    <g id="Page-1" stroke="none" stroke-width="1" fill="none" fill-rule="evenodd">
        <g id="a1qa-Software-crm-testing-v4" transform="translate(-760.000000, -4961.000000)">
            <g id="#7-customers" transform="translate(375.000000, 4725.000000)">
                <g id="Group-31" transform="translate(360.000000, 216.000000)">
                    <g id="genesys" transform="translate(25.000000, 20.000000)">
                        <mask id="mask-2" fill="white">
                            <use xlink:href="#path-1"></use>
                        </mask>
                        <use id="Mask" fill-opacity="0" fill="#D8D8D8" xlink:href="#path-1"></use>
                        <path d="M18.631,10.771 C19.401,10.771 20.017,11.387 20.017,12.157 C20.017,12.927 19.401,13.543 18.631,13.543 C18.631,13.543 18.554,13.543 18.554,13.543 C17.861,13.543 17.245,12.927 17.245,12.234 C17.245,11.849 17.399,11.464 17.63,11.233 C17.861,10.925 18.246,10.771 18.631,10.771 M18.631,9 C16.86,9 15.397,10.54 15.474,12.311 C15.551,13.928 16.86,15.237 18.477,15.314 C18.554,15.314 18.554,15.314 18.631,15.314 C20.402,15.314 21.788,13.851 21.788,12.157 C21.788,10.463 20.325,9 18.631,9 L18.631,9 Z" id="Shape" fill="#000000" fill-rule="nonzero" mask="url(#mask-2)"></path>
                        <path d="M16.475,31.253 C18.246,31.253 19.709,32.716 19.709,34.487 C19.709,36.258 18.246,37.721 16.475,37.721 L13.01,37.721 C11.239,37.721 9.776,36.258 9.776,34.487 C9.776,32.716 11.239,31.253 13.01,31.253 L16.475,31.253 M16.475,29.097 L13.01,29.097 C10.084,29.097 7.697,31.484 7.697,34.41 C7.697,37.336 10.084,39.723 13.01,39.723 L16.475,39.723 C19.401,39.723 21.788,37.336 21.788,34.41 C21.788,31.484 19.401,29.097 16.475,29.097 L16.475,29.097 Z" id="Shape" fill="#000000" fill-rule="nonzero" mask="url(#mask-2)"></path>
                        <path d="M16.475,18.779 C18.246,18.779 19.709,20.242 19.709,22.013 C19.709,23.784 18.246,25.247 16.475,25.247 L8.313,25.247 C6.542,25.247 5.079,23.784 5.079,22.013 C5.079,20.242 6.542,18.779 8.313,18.779 L16.475,18.779 M16.475,16.7 L8.313,16.7 C5.387,16.7 3,19.087 3,22.013 C3,24.939 5.387,27.326 8.313,27.326 L16.475,27.326 C19.401,27.326 21.788,24.939 21.788,22.013 C21.788,19.087 19.401,16.7 16.475,16.7 L16.475,16.7 Z" id="Shape" fill="#000000" fill-rule="nonzero" mask="url(#mask-2)"></path>
                        <path d="M153.227,17.008 L152.457,17.008 L152.457,16.7 L154.305,16.7 L154.305,17.008 L153.535,17.008 L153.535,19.01 L153.227,19.01 L153.227,17.008 Z M155.691,19.01 L155.075,17.008 L155.075,19.01 L154.69,19.01 L154.69,16.7 L155.229,16.7 L155.845,18.625 L156.461,16.7 L157,16.7 L157,19.01 L156.692,19.01 L156.692,17.008 L156.076,19.01 L155.691,19.01 Z M63.137,39.723 L63.137,37.413 L52.511,37.413 L52.511,29.174 L62.059,29.174 L62.059,26.941 L52.511,26.941 L52.511,19.01 L63.137,19.01 L63.137,16.7 L50.201,16.7 L50.201,39.723 L63.137,39.723 Z M101.329,39.723 L101.329,37.413 L90.703,37.413 L90.703,29.174 L100.251,29.174 L100.251,26.941 L90.703,26.941 L90.703,19.01 L101.329,19.01 L101.329,16.7 L88.393,16.7 L88.393,39.723 L101.329,39.723 Z M129.434,39.723 L129.434,30.175 L137.211,16.7 L134.67,16.7 L128.356,27.711 L121.965,16.7 L119.347,16.7 L127.124,30.175 L127.124,39.723 L129.434,39.723 Z M83.619,39.723 L83.619,16.7 L81.309,16.7 L81.309,35.488 L69.913,16.7 L67.603,16.7 L67.603,16.7 L67.603,39.723 L69.913,39.723 L69.913,20.935 L81.309,39.723 L83.619,39.723 Z M38.035,29.867 L43.579,29.867 L43.579,31.715 C43.579,36.258 40.73,37.798 38.035,37.798 C35.34,37.798 32.491,36.181 32.491,31.715 L32.491,24.862 C32.491,20.319 35.34,18.779 38.035,18.779 C40.961,18.779 42.963,20.55 43.425,23.476 L45.735,23.476 C45.196,19.241 42.193,16.469 38.035,16.469 C33.338,16.469 30.181,19.857 30.181,24.862 L30.181,31.792 C30.181,36.797 33.338,40.185 38.035,40.185 C42.732,40.185 45.889,36.797 45.889,31.792 L45.889,27.711 L38.035,27.711 L38.035,29.867 Z M104.178,32.793 C104.255,36.104 106.411,40.108 111.647,40.108 C115.882,40.108 118.5,37.721 118.5,33.794 C118.5,30.252 116.113,28.327 113.88,27.711 L109.876,26.633 C107.951,26.094 106.873,24.708 106.873,22.706 C106.873,20.319 108.567,18.702 111.185,18.702 C113.649,18.702 115.343,20.088 115.882,22.783 L118.192,22.783 C117.73,19.626 115.728,16.469 111.185,16.469 C107.258,16.469 104.563,19.01 104.563,22.706 C104.563,25.786 106.257,28.173 109.106,28.943 L112.956,30.021 C114.958,30.56 116.113,31.946 116.113,33.871 C116.113,36.489 114.496,37.875 111.57,37.875 C108.644,37.875 106.642,35.95 106.411,32.87 L104.178,32.793 Z M138.212,32.793 C138.289,36.104 140.445,40.108 145.681,40.108 C149.916,40.108 152.534,37.721 152.534,33.794 C152.534,30.252 150.147,28.327 147.914,27.711 L143.91,26.633 C141.985,26.094 140.907,24.708 140.907,22.706 C140.907,20.319 142.601,18.702 145.219,18.702 C147.683,18.702 149.377,20.088 149.916,22.783 L152.226,22.783 C151.764,19.626 149.762,16.469 145.219,16.469 C141.292,16.469 138.597,19.01 138.597,22.706 C138.597,25.786 140.291,28.173 143.14,28.943 L146.99,30.021 C148.992,30.56 150.147,31.946 150.147,33.871 C150.147,36.489 148.53,37.875 145.604,37.875 C142.678,37.875 140.676,35.95 140.445,32.87 L138.212,32.793 Z" id="Shape" fill="#000000" fill-rule="nonzero" mask="url(#mask-2)"></path>
                    </g>
                </g>
            </g>
        </g>
    </g>
</svg>