<svg xmlns="http://www.w3.org/2000/svg" width="24" height="29" viewBox="0 0 24 29">
  <path d="M22.8382178 9.80831683C22.3788119 10.1988119 21.9194059 10.5376238 21.5231683 10.9338614 19.4730693 12.9954455 19.3467327 16.0849505 20.3631683 18.209703 21.0120792 19.5649505 22.04 20.5411881 23.3837624 21.1958416 23.590495 21.2992079 23.6364356 21.3853465 23.5560396 21.6093069 22.9013861 23.4124752 22.0112871 25.0835644 20.7881188 26.5708911 20.4091089 27.0360396 20.0128713 27.4954455 19.5821782 27.9146535 18.7035644 28.770297 17.6526733 29.1435644 16.429505 28.8736634 15.9069307 28.7588119 15.3786139 28.6267327 14.8962376 28.4085149 13.3974257 27.7366337 11.8928713 27.6734653 10.3481188 28.2075248 9.67049505 28.4429703 8.99861386 28.6956436 8.30950495 28.8794059 7.23564356 29.1722772 6.28811881 28.8736634 5.46693069 28.1443564 4.2380198 27.0647525 3.28475248 25.7726733 2.46356436 24.3657426 1.40693069 22.5453465.706336634 20.5871287.315841584 18.5255446-.0689108911 16.4926733-.120594059 14.459802.49960396 12.449901.901584158 11.1520792 1.53326733 9.98059406 2.53247525 9.03881188 4.10594059 7.55148515 5.96079208 6.85089109 8.12 7.1839604 8.89524752 7.30455446 9.6590099 7.58019802 10.3825743 7.8960396 11.3817822 8.32673267 12.3293069 8.4760396 13.3629703 7.99940594 14.2358416 7.59742574 15.1546535 7.27584158 16.1136634 7.1150495 18.0144554 6.79920792 19.7372277 7.22415842 21.3221782 8.2980198 21.9366337 8.70574257 22.4592079 9.19960396 22.8382178 9.80831683zM17.6124752.0172277228C17.6584158.936039604 17.5263366 1.78594059 17.2621782 2.61861386 16.8085149 4.04851485 15.8724752 5.12237624 14.689505 5.96653465 13.92 6.51207921 13.0184158 6.74178218 12.0594059 6.72455446 11.8354455 6.71881188 11.7722772 6.64415842 11.7665347 6.42594059 11.7320792 4.95009901 12.1914851 3.64653465 13.110297 2.4980198 14.2071287 1.1370297 15.6312871.338811881 17.3483168.0344554455 17.4229703.0287128713 17.4976238.0287128713 17.6124752.0172277228z"/>
</svg>
