<svg xmlns="http://www.w3.org/2000/svg" width="25" height="29" viewBox="0 0 25 29">
  <path d="M20.4544545,41.8266716 L20.4545455,53.1631854 L20.4488267,53.3117318 C20.377034,54.2404901 19.6377423,54.9821556 18.7100272,55.0576529 L18.5537455,55.0639854 L17.5705455,55.0638322 L17.5699301,58.9264 C17.5699301,60.0218256 16.7205217,60.9188612 15.6444181,60.9947936 L15.4963301,61 L15.4477259,61 C14.3523003,61 13.4552647,60.1505916 13.3793323,59.074488 L13.3741259,58.9264 L13.3745455,55.0638322 L11.6265455,55.0638322 L11.6258741,58.9264 L11.6206677,59.074488 C11.5483512,60.0993486 10.7312698,60.9185899 9.70734666,60.994289 L9.55227413,61 L9.50366993,61 L9.35558189,60.9947936 C8.33072138,60.922477 7.51148002,60.1053956 7.43578098,59.0814725 L7.43006993,58.9264 L7.43054545,55.0638322 L6.44625455,55.0639854 L6.29770814,55.0582666 C5.36894987,54.9864739 4.62728438,54.2471823 4.55178706,53.3194671 L4.54545455,53.1631854 L4.54545455,41.8266716 L20.4544545,41.8266716 Z M22.9264,41.2132847 C24.0716177,41.2132847 25,42.1416671 25,43.2868847 L25,43.2868847 L25,50.5815679 C25,51.7267856 24.0716177,52.6551679 22.9264,52.6551679 L22.9264,52.6551679 L22.8777958,52.6551679 C21.7325781,52.6551679 20.8041958,51.7267856 20.8041958,50.5815679 L20.8041958,50.5815679 L20.8041958,43.2868847 C20.8041958,42.1416671 21.7325781,41.2132847 22.8777958,41.2132847 L22.8777958,41.2132847 Z M2.1222042,41.2132847 C3.26742185,41.2132847 4.1958042,42.1416671 4.1958042,43.2868847 L4.1958042,50.5815679 C4.1958042,51.7267856 3.26742185,52.6551679 2.1222042,52.6551679 L2.0736,52.6551679 C0.928382343,52.6551679 4.47782172e-13,51.7267856 4.47641924e-13,50.5815679 L4.47641924e-13,43.2868847 C4.47501675e-13,42.1416671 0.928382343,41.2132847 2.0736,41.2132847 L2.1222042,41.2132847 Z M17.7012709,32.0644536 L17.7118297,32.0702137 C17.9825957,32.2179265 18.0823501,32.5571706 17.9346373,32.8279367 C17.9334312,32.8301475 17.9322102,32.8323501 17.9309743,32.8345444 L16.6761079,35.0616381 C18.7968391,36.2523564 20.2557339,38.3228632 20.4357507,40.7125958 L20.4504583,40.9794068 L20.4545455,41.2132847 L4.54545455,41.2132847 L4.54954166,40.9794068 C4.63710773,38.4774409 6.12461534,36.296457 8.32389208,35.0616381 L7.06902568,32.8345444 C7.0677898,32.8323501 7.06656877,32.8301475 7.06536269,32.8279367 C6.93406244,32.5872557 6.9982918,32.2924687 7.20435363,32.1261884 L7.28817034,32.0702137 L7.29872906,32.0644536 C7.53844501,31.9336798 7.83201894,31.9956845 8.00017839,32.1990679 L8.05700923,32.2818634 L9.34885224,34.5760324 C10.3151177,34.1969082 11.3805541,33.9868322 12.5,33.9868322 C13.6194459,33.9868322 14.6848823,34.1969082 15.6511478,34.5760324 L16.9429908,32.2818634 C17.093746,32.0141979 17.4315905,31.917333 17.7012709,32.0644536 Z" transform="translate(0 -32)"/>
</svg>
