<svg xmlns="http://www.w3.org/2000/svg" width="40" height="40" viewBox="0 0 40 40">
  <defs>
    <linearGradient id="icon-38-4-a" x1="100%" x2="0%" y1="100%" y2="0%">
      <stop offset="0%" stop-color="#1E85E9"/>
      <stop offset="20.276%" stop-color="#8671F3"/>
      <stop offset="70.727%" stop-color="#C06CFD" stop-opacity=".99"/>
      <stop offset="100%" stop-color="#FFBEE8"/>
    </linearGradient>
  </defs>
  <path fill="url(#icon-38-4-a)" d="M23.595,0 C24.5973968,0 25.41,0.812603179 25.41,1.815 L25.41,1.815 L25.41,14.52 L38.115,14.52 C39.067277,14.52 39.8482652,15.2533744 39.9239833,16.1861418 L39.93,16.335 L39.93,38.115 C39.93,39.1173968 39.1173968,39.93 38.115,39.93 L38.115,39.93 L16.335,39.93 C15.3326032,39.93 14.52,39.1173968 14.52,38.115 L14.52,38.115 L14.52,25.41 L1.815,25.41 C0.86272302,25.41 0.081734802,24.6766256 0.00601667265,23.7438582 L0,23.595 L0,1.815 C0,0.812603179 0.812603179,0 1.815,0 L1.815,0 Z M38.115,15.73 L25.41,15.73 L25.41,23.595 C25.41,24.547277 24.6766256,25.3282652 23.7438582,25.4039833 L23.595,25.41 L15.73,25.41 L15.73,38.115 C15.73,38.415719 15.9494029,38.6651938 16.2368659,38.7120816 L16.335,38.72 L38.115,38.72 C38.4491323,38.72 38.72,38.4491323 38.72,38.115 L38.72,38.115 L38.72,16.335 C38.72,16.0008677 38.4491323,15.73 38.115,15.73 L38.115,15.73 Z M23.595,1.21 L1.815,1.21 C1.48086773,1.21 1.21,1.48086773 1.21,1.815 L1.21,1.815 L1.21,23.595 C1.21,23.9291323 1.48086773,24.2 1.815,24.2 L1.815,24.2 L14.52,24.2 L14.52,16.335 C14.52,15.382723 15.2533744,14.6017348 16.1861418,14.5260167 L16.335,14.52 L24.2,14.52 L24.2,1.815 C24.2,1.51428095 23.9805971,1.26480619 23.6931341,1.21791843 L23.595,1.21 Z M24.2,15.73 L16.335,15.73 C16.0008677,15.73 15.73,16.0008677 15.73,16.335 L15.73,16.335 L15.73,24.2 L23.595,24.2 C23.895719,24.2 24.1451938,23.9805971 24.1920816,23.6931341 L24.2,23.595 L24.2,15.73 Z"/>
</svg>
