<svg xmlns="http://www.w3.org/2000/svg" xmlns:xlink="http://www.w3.org/1999/xlink" width="439" height="392" viewBox="0 0 439 392">
  <defs>
    <linearGradient id="img-regression-illustration-c" x1="108.096%" x2="0%" y1="108.696%" y2="0%">
      <stop offset="0%" stop-color="#1E85E9"/>
      <stop offset="20.276%" stop-color="#8671F3"/>
      <stop offset="70.727%" stop-color="#CFA9FC"/>
      <stop offset="100%" stop-color="#F4D9FB"/>
    </linearGradient>
    <linearGradient id="img-regression-illustration-d" x1="23.767%" x2="100%" y1="81.353%" y2="50%">
      <stop offset="0%" stop-color="#E0C8FE"/>
      <stop offset="100%" stop-color="#AB8DF7"/>
    </linearGradient>
    <linearGradient id="img-regression-illustration-e" x1="108.096%" x2=".79%" y1="108.696%" y2=".795%">
      <stop offset="0%" stop-color="#1E85E9"/>
      <stop offset="20.276%" stop-color="#8671F3"/>
      <stop offset="70.727%" stop-color="#CAB7FB"/>
      <stop offset="100%" stop-color="#CAB7FB"/>
    </linearGradient>
    <linearGradient id="img-regression-illustration-f" x1="64.953%" x2="50%" y1="16.931%" y2="110.755%">
      <stop offset="0%" stop-color="#DFC7FE"/>
      <stop offset="100%" stop-color="#AB8DF7"/>
    </linearGradient>
    <linearGradient id="img-regression-illustration-g" x1="108.096%" x2="0%" y1="108.696%" y2="0%">
      <stop offset="0%" stop-color="#1E85E9"/>
      <stop offset="20.276%" stop-color="#8671F3"/>
      <stop offset="70.727%" stop-color="#CAB7FB"/>
      <stop offset="99.269%" stop-color="#CAB7FB"/>
    </linearGradient>
    <circle id="img-regression-illustration-i" cx="81.559" cy="195.392" r="31.96"/>
    <filter id="img-regression-illustration-h" width="148.5%" height="148.5%" x="-24.2%" y="-18%" filterUnits="objectBoundingBox">
      <feMorphology in="SourceAlpha" radius="2" result="shadowSpreadOuter1"/>
      <feOffset dy="4" in="shadowSpreadOuter1" result="shadowOffsetOuter1"/>
      <feGaussianBlur in="shadowOffsetOuter1" result="shadowBlurOuter1" stdDeviation="6.5"/>
      <feColorMatrix in="shadowBlurOuter1" values="0 0 0 0 0.0415817482   0 0 0 0 0.0415817482   0 0 0 0 0.0415817482  0 0 0 0.1 0"/>
    </filter>
    <circle id="img-regression-illustration-k" cx="219.02" cy="57.714" r="31.96"/>
    <filter id="img-regression-illustration-j" width="148.5%" height="148.5%" x="-24.2%" y="-18%" filterUnits="objectBoundingBox">
      <feMorphology in="SourceAlpha" radius="2" result="shadowSpreadOuter1"/>
      <feOffset dy="4" in="shadowSpreadOuter1" result="shadowOffsetOuter1"/>
      <feGaussianBlur in="shadowOffsetOuter1" result="shadowBlurOuter1" stdDeviation="6.5"/>
      <feColorMatrix in="shadowBlurOuter1" values="0 0 0 0 0.0415817482   0 0 0 0 0.0415817482   0 0 0 0 0.0415817482  0 0 0 0.1 0"/>
    </filter>
    <circle id="img-regression-illustration-m" cx="357.2" cy="194.954" r="31.96"/>
    <filter id="img-regression-illustration-l" width="148.5%" height="148.5%" x="-24.2%" y="-18%" filterUnits="objectBoundingBox">
      <feMorphology in="SourceAlpha" radius="2" result="shadowSpreadOuter1"/>
      <feOffset dy="4" in="shadowSpreadOuter1" result="shadowOffsetOuter1"/>
      <feGaussianBlur in="shadowOffsetOuter1" result="shadowBlurOuter1" stdDeviation="6.5"/>
      <feColorMatrix in="shadowBlurOuter1" values="0 0 0 0 0.0415817482   0 0 0 0 0.0415817482   0 0 0 0 0.0415817482  0 0 0 0.1 0"/>
    </filter>
    <circle id="img-regression-illustration-o" cx="219.02" cy="333.134" r="31.96"/>
    <filter id="img-regression-illustration-n" width="148.5%" height="148.5%" x="-24.2%" y="-18%" filterUnits="objectBoundingBox">
      <feMorphology in="SourceAlpha" radius="2" result="shadowSpreadOuter1"/>
      <feOffset dy="4" in="shadowSpreadOuter1" result="shadowOffsetOuter1"/>
      <feGaussianBlur in="shadowOffsetOuter1" result="shadowBlurOuter1" stdDeviation="6.5"/>
      <feColorMatrix in="shadowBlurOuter1" values="0 0 0 0 0.0415817482   0 0 0 0 0.0415817482   0 0 0 0 0.0415817482  0 0 0 0.1 0"/>
    </filter>
    <linearGradient id="img-regression-illustration-p" x1="105.804%" x2="1.973%" y1="108.696%" y2="0%">
      <stop offset="0%" stop-color="#1E85E9"/>
      <stop offset="20.276%" stop-color="#8671F3"/>
      <stop offset="70.727%" stop-color="#CFA9FC"/>
      <stop offset="100%" stop-color="#F4D9FB"/>
    </linearGradient>
    <path id="img-regression-illustration-a" d="M81.31,114.114363 C36.403727,114.114363 0,150.51809 0,195.424363"/>
    <mask id="img-regression-illustration-q" width="81.31" height="81.31" x="0" y="0" fill="#fff" maskContentUnits="userSpaceOnUse" maskUnits="objectBoundingBox">
      <use xlink:href="#img-regression-illustration-a"/>
    </mask>
    <path id="img-regression-illustration-b" d="M357.67,275.794363 C402.576273,275.794363 438.98,239.390636 438.98,194.484363"/>
    <mask id="img-regression-illustration-r" width="81.31" height="81.31" x="0" y="0" fill="#fff" maskContentUnits="userSpaceOnUse" maskUnits="objectBoundingBox">
      <use xlink:href="#img-regression-illustration-b"/>
    </mask>
  </defs>
  <g fill="none" fill-rule="evenodd">
    <g opacity=".849" transform="translate(24.44 .374)">
      <path fill="url(#img-regression-illustration-c)" d="M195.01723,1.37322331e-11 L195.45784,0.43889861 C226.559612,0.675688819 251.699232,25.96162 251.699232,57.1192241 L251.695,56.68 L251.700365,56.6856417 C251.69961,56.8300802 251.699232,56.974608 251.699232,57.1192241 C251.699232,101.973584 288.060875,138.335227 332.915235,138.335227 L333.348,138.331 C364.457078,138.573152 389.597237,163.859291 389.597237,195.01723 L389.593,194.576 L390.034459,195.01723 L389.595553,195.45884 C389.358228,226.560151 364.072505,251.699232 332.915235,251.699232 L333.353,251.695 L333.348817,251.700365 C333.204379,251.69961 333.059851,251.699232 332.915235,251.699232 C288.060875,251.699232 251.699232,288.060875 251.699232,332.915235 L251.703,333.348 C251.460765,364.457617 226.174834,389.597237 195.01723,389.597237 L195.458,389.593 L195.01723,390.034459 L194.57609,389.595556 C163.474562,389.358483 138.335227,364.072662 138.335227,332.915235 L138.338,333.352 L138.334094,333.348817 C138.334849,333.204379 138.335227,333.059851 138.335227,332.915235 C138.335227,288.060875 101.973584,251.699232 57.1192241,251.699232 L56.686,251.703 L56.6770846,251.697543 C25.5760178,251.459936 0.437221841,226.174323 0.437221841,195.01723 L0.44,195.457 L-2.38474058e-10,195.01723 L0.438895039,194.577089 C0.675434451,163.4751 25.9614633,138.335227 57.1192241,138.335227 L56.681,138.338 L56.6856417,138.334094 C56.8300802,138.334849 56.974608,138.335227 57.1192241,138.335227 C101.973584,138.335227 138.335227,101.973584 138.335227,57.1192241 L138.331,56.686 L138.336908,56.6780841 C138.573982,25.5765563 163.859803,0.437221842 195.01723,0.437221842 L194.577,0.44 L195.01723,1.37322331e-11 Z M195.01723,113.801226 C150.16287,113.801226 113.801226,150.16287 113.801226,195.01723 C113.801226,239.87159 150.16287,276.233233 195.01723,276.233233 C239.87159,276.233233 276.233233,239.87159 276.233233,195.01723 C276.233233,150.16287 239.87159,113.801226 195.01723,113.801226 Z" opacity=".701"/>
      <circle cx="195.017" cy="57.119" r="56.682" fill="url(#img-regression-illustration-d)" opacity=".577"/>
      <circle cx="195.017" cy="332.915" r="56.682" fill="url(#img-regression-illustration-e)" opacity=".782"/>
      <circle cx="57.119" cy="195.017" r="56.682" fill="url(#img-regression-illustration-f)" opacity=".577"/>
      <circle cx="332.915" cy="195.017" r="56.682" fill="url(#img-regression-illustration-g)" opacity=".782"/>
      <circle cx="195.017" cy="57.119" r="45.12" fill="#FFF"/>
      <circle cx="195.017" cy="332.915" r="45.12" fill="#FFF"/>
      <circle cx="57.119" cy="195.017" r="45.12" fill="#FFF"/>
      <circle cx="332.915" cy="195.017" r="45.12" fill="#FFF"/>
    </g>
    <use fill="#000" filter="url(#img-regression-illustration-h)" xlink:href="#img-regression-illustration-i"/>
    <use fill="#FFF" xlink:href="#img-regression-illustration-i"/>
    <use fill="#000" filter="url(#img-regression-illustration-j)" xlink:href="#img-regression-illustration-k"/>
    <use fill="#FFF" xlink:href="#img-regression-illustration-k"/>
    <g transform="translate(200.22 41.734)">
      <path fill="#5055FE" fill-rule="nonzero" d="M6.91439722,14.4370771 C7.47126492,19.4176664 11.6982375,23.2226994 16.7507996,23.2226994 C21.555199,23.2226994 25.6425548,19.7753154 26.4898342,15.1023839 C26.5273452,14.8955023 26.7254646,14.7582003 26.9323462,14.7957113 C27.1392278,14.8332224 27.2765298,15.0313418 27.2390188,15.2382234 C26.869302,17.2772924 25.9270789,19.0995363 24.5929036,20.5460122 L33.2390902,31.6131488 C33.7568734,32.275881 33.6393689,33.2328777 32.9766368,33.7506608 C32.3440288,34.2449084 31.4432996,34.1603092 30.9123851,33.575192 L30.8391247,33.4882074 L22.2292361,22.4692279 C20.6210557,23.4336341 18.7432143,23.9840994 16.7507996,23.9840994 C11.3094174,23.9840994 6.75755141,19.8866041 6.15771219,14.5216802 C6.13434968,14.3127274 6.28480034,14.1243986 6.49375314,14.1010361 C6.70270594,14.0776736 6.89103471,14.2281243 6.91439722,14.4370771 Z M24.0519718,21.0917967 C23.6818306,21.439381 23.2871161,21.7605217 22.8709383,22.0524812 L31.4391161,33.0194427 C31.6980077,33.3508088 32.176506,33.409561 32.5078721,33.1506695 C32.8155692,32.9102702 32.8882064,32.480516 32.6897301,32.1550388 L32.6390989,32.0819135 L24.0519718,21.0917967 Z M13.3244996,5.71049985 C14.7962832,5.71049985 15.9893996,6.90361619 15.9893996,8.37539978 C15.9893996,9.21982743 15.5966463,9.97252264 14.9838489,10.4607764 L15.0105847,10.4414462 L18.1270553,14.8994495 C18.2974874,14.8652452 18.4737977,14.8472996 18.6542995,14.8472996 C19.561715,14.8472996 20.3632025,15.3008309 20.8444503,15.9935815 L28.3515716,12.3851839 C28.2354822,12.0861807 28.1717993,11.7610271 28.1717993,11.4209997 C28.1717993,9.94921611 29.3649156,8.75609977 30.8366992,8.75609977 C32.3084828,8.75609977 33.5015991,9.94921611 33.5015991,11.4209997 C33.5015991,12.8927833 32.3084828,14.0858996 30.8366992,14.0858996 C29.978233,14.0858996 29.2145748,13.6799789 28.7271912,13.0496043 L21.1847519,16.674135 C21.271984,16.9376629 21.3191994,17.2194173 21.3191994,17.5121995 C21.3191994,18.9839831 20.1260831,20.1770995 18.6542995,20.1770995 C17.1825159,20.1770995 15.9893996,18.9839831 15.9893996,17.5121995 C15.9893996,16.4994703 16.5543126,15.6186835 17.3862131,15.1677648 L14.3865926,10.8777532 L14.7049278,10.655355 C14.3023118,10.8996471 13.8298313,11.0402997 13.3244996,11.0402997 C12.4992529,11.0402997 11.7616186,10.6651864 11.2728019,10.0761649 L5.13187203,14.2183067 C5.25946067,14.5297159 5.32979986,14.8706435 5.32979986,15.2279996 C5.32979986,16.6997832 4.13668352,17.8928995 2.66489993,17.8928995 C1.19311634,17.8928995 1.69317885e-11,16.6997832 1.69317885e-11,15.2279996 C1.69317885e-11,13.756216 1.19311634,12.5630997 2.66489993,12.5630997 C3.50598651,12.5630997 4.25606513,12.9527511 4.74446868,13.5613869 L10.8747727,9.42619381 C10.7362915,9.10377646 10.6595997,8.74854428 10.6595997,8.37539978 C10.6595997,6.90361619 11.8527161,5.71049985 13.3244996,5.71049985 Z M18.6542995,15.6086996 C17.6030255,15.6086996 16.7507996,16.4609255 16.7507996,17.5121995 C16.7507996,18.5634735 17.6030255,19.4156995 18.6542995,19.4156995 C19.7055735,19.4156995 20.5577995,18.5634735 20.5577995,17.5121995 C20.5577995,16.4609255 19.7055735,15.6086996 18.6542995,15.6086996 Z M2.66489993,13.3244996 C1.61362594,13.3244996 0.76139998,14.1767256 0.76139998,15.2279996 C0.76139998,16.2792736 1.61362594,17.1314995 2.66489993,17.1314995 C3.71617392,17.1314995 4.56839988,16.2792736 4.56839988,15.2279996 C4.56839988,14.1767256 3.71617392,13.3244996 2.66489993,13.3244996 Z M30.8366992,9.51749975 C29.7854252,9.51749975 28.9331992,10.3697257 28.9331992,11.4209997 C28.9331992,12.4722737 29.7854252,13.3244996 30.8366992,13.3244996 C31.8879732,13.3244996 32.7401991,12.4722737 32.7401991,11.4209997 C32.7401991,10.3697257 31.8879732,9.51749975 30.8366992,9.51749975 Z M16.7507996,2.66489993 C22.1869125,2.66489993 26.7359395,6.75465306 27.3422951,12.1131676 C27.3659361,12.3220891 27.2157367,12.5106182 27.0068152,12.5342592 C26.7978937,12.5579002 26.6093646,12.4077007 26.5857235,12.1987793 C26.0228068,7.22414522 21.7984685,3.42629991 16.7507996,3.42629991 C12.0362061,3.42629991 8.0023033,6.74784009 7.058328,11.3067897 C7.01569697,11.5126773 6.81423286,11.6450228 6.60834533,11.6023918 C6.4024578,11.5597607 6.27011226,11.3582966 6.3127433,11.1524091 C7.32956112,6.2416649 11.6734262,2.66489993 16.7507996,2.66489993 Z M13.3244996,6.47189983 C12.2732257,6.47189983 11.4209997,7.32412578 11.4209997,8.37539978 C11.4209997,9.42667377 12.2732257,10.2788997 13.3244996,10.2788997 C14.3757736,10.2788997 15.2279996,9.42667377 15.2279996,8.37539978 C15.2279996,7.32412578 14.3757736,6.47189983 13.3244996,6.47189983 Z"/>
      <path stroke="#5055FE" stroke-linecap="round" stroke-width=".761" d="M29.1108723,8.33801753 C27.1367671,3.44946575 22.3466163,0 16.7507996,0 C9.89554253,0 4.24942249,5.17693081 3.50866849,11.8345633 M4.40896638,18.3559118 C6.39421662,23.220656 11.1721418,26.6489993 16.7507996,26.6489993 C19.1615263,26.6489993 21.4227246,26.0087916 23.3736515,24.8891192 M26.7189212,22.166601 C28.4828306,20.1795196 29.6616319,17.6613335 29.9852221,14.8821454"/>
    </g>
    <use fill="#000" filter="url(#img-regression-illustration-l)" xlink:href="#img-regression-illustration-m"/>
    <use fill="#FFF" xlink:href="#img-regression-illustration-m"/>
    <use fill="#000" filter="url(#img-regression-illustration-n)" xlink:href="#img-regression-illustration-o"/>
    <use fill="#FFF" xlink:href="#img-regression-illustration-o"/>
    <path stroke="url(#img-regression-illustration-p)" stroke-width=".5" d="M276.139232,17.0127371 C372.407173,-11.7840221 418.373175,-2.11866785 414.037237,46.0087998 C407.53333,118.200001 64.3711772,281.802975 40.655,344.928975 C24.8442152,387.012975 60.1725485,396.631035 146.64,373.783156" opacity=".499"/>
    <circle cx="219.02" cy="194.954" r="61.57" fill="#FFF" stroke="#E3E0E0" stroke-width=".94"/>
    <g fill="#5055FE" transform="translate(174.84 140.434)">
      <circle cx="5.64" cy="5.64" r="5.64" opacity=".103"/>
      <circle cx="5.64" cy="5.64" r="2.417"/>
    </g>
    <g fill="#5055FE" transform="translate(269.78 11.844)">
      <circle cx="5.64" cy="5.64" r="5.64" opacity=".103"/>
      <circle cx="5.64" cy="5.64" r="2.417"/>
    </g>
    <g fill="#5055FE" transform="translate(88.36 379.084)">
      <circle cx="5.64" cy="5.64" r="5.64" opacity=".103"/>
      <circle cx="5.64" cy="5.64" r="2.417"/>
    </g>
    <g fill="#5055FE" transform="translate(250.98 239.134)">
      <circle cx="5.64" cy="5.64" r="5.64" opacity=".103"/>
      <circle cx="5.64" cy="5.64" r="2.417"/>
    </g>
    <path fill="#000" fill-rule="nonzero" d="M178.44396,188.954363 C179.10384,188.954363 179.45916,188.497523 179.45916,187.922243 L179.45916,184.250603 C179.79756,184.301363 180.1698,184.318283 180.45744,184.318283 C180.69432,184.318283 180.96504,184.318283 181.185,184.284443 L183.58764,188.243723 C183.92604,188.802083 184.4844,189.174323 185.12736,188.802083 C185.6688,188.480603 185.70264,187.786883 185.31348,187.177763 L183.16464,183.912203 C184.45056,183.472283 185.29656,182.355563 185.29656,180.714323 C185.29656,178.074803 183.40152,177.194963 180.91428,177.194963 C179.84832,177.194963 178.91772,177.296483 178.37628,177.414923 C177.801,177.533363 177.42876,177.854843 177.42876,178.582403 L177.42876,187.922243 C177.42876,188.497523 177.76716,188.954363 178.44396,188.954363 Z M180.60972,182.795483 C180.28824,182.795483 179.84832,182.778563 179.45916,182.727803 L179.45916,179.106923 C179.88216,179.056163 180.27132,179.005403 180.74508,179.005403 C182.21712,179.005403 183.16464,179.496083 183.16464,180.832763 C183.16464,182.237123 182.31864,182.795483 180.60972,182.795483 Z M191.28248,189.123563 C192.24692,189.123563 193.22828,188.954363 193.95584,188.463683 C194.39576,188.176043 194.49728,187.736123 194.31116,187.380803 C194.12504,187.059323 193.80356,186.923963 193.26212,187.143923 C192.7376,187.363883 192.19616,187.583843 191.4686,187.583843 C190.16576,187.583843 189.31976,186.788603 189.269,185.502683 L193.5836,185.502683 C194.2604,185.502683 194.54804,185.215043 194.70032,184.656683 C194.75108,184.470563 194.78492,184.098323 194.78492,183.861443 C194.78492,181.881803 193.53284,180.494363 191.31632,180.494363 C188.87984,180.494363 187.37396,182.220203 187.37396,184.842803 C187.37396,187.566923 188.74448,189.123563 191.28248,189.123563 Z M193.00832,184.166003 L189.269,184.166003 C189.38744,182.795483 190.115,182.034083 191.31632,182.034083 C192.4838,182.034083 193.02524,182.778563 193.02524,183.743003 C193.02524,183.895283 193.02524,183.996803 193.00832,184.166003 Z M200.21248,192.507563 C203.03812,192.507563 204.4594,191.272403 204.4594,189.614243 C204.4594,188.023763 202.98736,187.550003 200.9062,187.465403 C198.85888,187.380803 198.31744,187.093163 198.31744,186.619403 C198.31744,186.382523 198.48664,186.111803 198.77428,185.925683 C199.23112,186.094883 199.75564,186.179483 200.38168,186.179483 C202.61512,186.179483 203.7826,184.995083 203.7826,183.353843 C203.7826,182.863163 203.64724,182.406323 203.4442,182.000243 L204.0364,182.000243 C204.56092,182.000243 204.81472,181.763363 204.81472,181.340363 C204.81472,180.883523 204.56092,180.663563 204.0364,180.663563 L201.70144,180.663563 C201.31228,180.562043 200.87236,180.494363 200.38168,180.494363 C198.16516,180.494363 196.99768,181.661843 196.99768,183.353843 C196.99768,184.132163 197.25148,184.792043 197.74216,185.282723 C197.20072,185.722643 196.82848,186.264083 196.82848,186.907043 C196.82848,187.380803 197.06536,187.939163 197.62372,188.243723 C196.8454,188.683643 196.40548,189.360443 196.40548,190.121843 C196.40548,191.289323 197.25148,192.507563 200.21248,192.507563 Z M200.38168,184.724363 C199.31572,184.724363 198.7066,184.166003 198.7066,183.353843 C198.7066,182.524763 199.31572,181.949483 200.38168,181.949483 C201.44764,181.949483 202.05676,182.524763 202.05676,183.353843 C202.05676,184.166003 201.44764,184.724363 200.38168,184.724363 Z M200.19556,191.035523 C198.65584,191.035523 198.13132,190.443323 198.13132,189.901883 C198.13132,189.377363 198.50356,188.988203 199.045,188.734403 C199.43416,188.802083 199.85716,188.852843 200.36476,188.886683 C202.02292,189.005123 202.63204,189.191243 202.63204,189.766523 C202.63204,190.443323 201.95524,191.035523 200.19556,191.035523 Z M207.60276,188.954363 C208.24572,188.954363 208.5672,188.514443 208.5672,187.973003 L208.5672,185.113523 C208.5672,183.133883 209.02404,182.220203 210.02232,182.220203 C210.30996,182.220203 210.56376,182.287883 210.81756,182.372483 C211.30824,182.541683 211.6974,182.423243 211.88352,182.000243 C212.15424,181.374203 211.74816,180.494363 210.3438,180.494363 C209.59932,180.494363 208.92252,180.934283 208.5672,181.577243 C208.5672,181.137323 208.24572,180.663563 207.60276,180.663563 C206.97672,180.663563 206.65524,181.120403 206.65524,181.644923 L206.65524,187.973003 C206.65524,188.514443 206.97672,188.954363 207.60276,188.954363 Z M217.02344,189.123563 C217.98788,189.123563 218.96924,188.954363 219.6968,188.463683 C220.13672,188.176043 220.23824,187.736123 220.05212,187.380803 C219.866,187.059323 219.54452,186.923963 219.00308,187.143923 C218.47856,187.363883 217.93712,187.583843 217.20956,187.583843 C215.90672,187.583843 215.06072,186.788603 215.00996,185.502683 L219.32456,185.502683 C220.00136,185.502683 220.289,185.215043 220.44128,184.656683 C220.49204,184.470563 220.52588,184.098323 220.52588,183.861443 C220.52588,181.881803 219.2738,180.494363 217.05728,180.494363 C214.6208,180.494363 213.11492,182.220203 213.11492,184.842803 C213.11492,187.566923 214.48544,189.123563 217.02344,189.123563 Z M218.74928,184.166003 L215.00996,184.166003 C215.1284,182.795483 215.85596,182.034083 217.05728,182.034083 C218.22476,182.034083 218.7662,182.778563 218.7662,183.743003 C218.7662,183.895283 218.7662,183.996803 218.74928,184.166003 Z M225.44584,189.123563 C227.73004,189.123563 228.796,188.159123 228.796,186.551723 C228.796,183.675323 224.53216,184.352123 224.53216,182.795483 C224.53216,182.321723 224.88748,182.034083 225.6658,182.034083 C226.29184,182.034083 226.95172,182.304803 227.42548,182.490923 C227.96692,182.660123 228.30532,182.575523 228.49144,182.169443 C228.66064,181.780283 228.55912,181.357283 228.01768,181.052723 C227.45932,180.731243 226.57948,180.494363 225.59812,180.494363 C223.82152,180.494363 222.60328,181.289603 222.60328,182.863163 C222.60328,185.858003 226.86712,185.113523 226.86712,186.720923 C226.86712,187.296203 226.46104,187.583843 225.61504,187.583843 C224.989,187.583843 224.29528,187.397723 223.65232,187.110083 C223.2124,186.907043 222.67096,186.788603 222.41716,187.313123 C222.1972,187.769963 222.34948,188.159123 222.80632,188.480603 C223.48312,188.920523 224.58292,189.123563 225.44584,189.123563 Z M233.5806,189.123563 C235.8648,189.123563 236.93076,188.159123 236.93076,186.551723 C236.93076,183.675323 232.66692,184.352123 232.66692,182.795483 C232.66692,182.321723 233.02224,182.034083 233.80056,182.034083 C234.4266,182.034083 235.08648,182.304803 235.56024,182.490923 C236.10168,182.660123 236.44008,182.575523 236.6262,182.169443 C236.7954,181.780283 236.69388,181.357283 236.15244,181.052723 C235.59408,180.731243 234.71424,180.494363 233.73288,180.494363 C231.95628,180.494363 230.73804,181.289603 230.73804,182.863163 C230.73804,185.858003 235.00188,185.113523 235.00188,186.720923 C235.00188,187.296203 234.5958,187.583843 233.7498,187.583843 C233.12376,187.583843 232.43004,187.397723 231.78708,187.110083 C231.34716,186.907043 230.80572,186.788603 230.55192,187.313123 C230.33196,187.769963 230.48424,188.159123 230.94108,188.480603 C231.61788,188.920523 232.71768,189.123563 233.5806,189.123563 Z M240.12488,179.513003 C240.78476,179.513003 241.2416,179.157683 241.2416,178.480883 C241.2416,177.837923 240.78476,177.448763 240.12488,177.448763 C239.44808,177.448763 239.02508,177.837923 239.02508,178.480883 C239.02508,179.157683 239.44808,179.513003 240.12488,179.513003 Z M240.12488,188.954363 C240.76784,188.954363 241.08932,188.514443 241.08932,187.973003 L241.08932,181.644923 C241.08932,181.120403 240.76784,180.663563 240.12488,180.663563 C239.49884,180.663563 239.17736,181.120403 239.17736,181.644923 L239.17736,187.973003 C239.17736,188.514443 239.49884,188.954363 240.12488,188.954363 Z M247.549,189.123563 C250.1716,189.123563 251.6098,187.262363 251.6098,184.808963 C251.6098,182.372483 250.1716,180.494363 247.549,180.494363 C244.9264,180.494363 243.50512,182.355563 243.50512,184.808963 C243.50512,187.262363 244.9264,189.123563 247.549,189.123563 Z M247.549,187.499243 C246.17848,187.499243 245.46784,186.348683 245.46784,184.808963 C245.46784,183.286163 246.16156,182.118683 247.549,182.118683 C248.95336,182.118683 249.64708,183.286163 249.64708,184.808963 C249.64708,186.348683 248.95336,187.499243 247.549,187.499243 Z M260.3706,188.954363 C261.01356,188.954363 261.33504,188.514443 261.33504,187.973003 L261.33504,184.115243 C261.33504,181.864883 260.64132,180.494363 258.44172,180.494363 C257.44344,180.494363 256.44516,180.934283 255.93756,181.898723 L255.93756,181.644923 C255.93756,181.120403 255.61608,180.663563 254.97312,180.663563 C254.34708,180.663563 254.0256,181.120403 254.0256,181.644923 L254.0256,187.973003 C254.0256,188.514443 254.34708,188.954363 254.97312,188.954363 C255.61608,188.954363 255.93756,188.514443 255.93756,187.973003 L255.93756,185.790323 C255.9714,183.895283 256.34364,182.186363 257.98488,182.186363 C259.06776,182.186363 259.42308,182.964683 259.42308,184.081403 L259.42308,187.973003 C259.42308,188.514443 259.74456,188.954363 260.3706,188.954363 Z M195.45984,211.683563 C196.05204,211.683563 196.67808,211.565123 197.15184,211.294403 C197.60868,211.023683 197.8794,210.617603 197.67636,210.110003 C197.50716,209.703923 197.08416,209.619323 196.66116,209.788523 C196.45812,209.873123 196.08588,209.991563 195.7644,209.991563 C195.05376,209.991563 194.79996,209.568563 194.79996,208.621043 L194.79996,204.847883 L196.23816,204.847883 C196.84728,204.847883 197.15184,204.543323 197.15184,204.035723 C197.15184,203.511203 196.84728,203.223563 196.23816,203.223563 L194.79996,203.223563 L194.79996,202.174523 C194.79996,201.650003 194.47848,201.193163 193.83552,201.193163 C193.20948,201.193163 192.888,201.650003 192.888,202.174523 L192.888,203.223563 L192.44808,203.223563 C191.83896,203.223563 191.5344,203.511203 191.5344,204.035723 C191.5344,204.543323 191.83896,204.847883 192.44808,204.847883 L192.888,204.847883 L192.888,208.824083 C192.888,210.837563 193.83552,211.683563 195.45984,211.683563 Z M203.07008,211.683563 C204.03452,211.683563 205.01588,211.514363 205.74344,211.023683 C206.18336,210.736043 206.28488,210.296123 206.09876,209.940803 C205.91264,209.619323 205.59116,209.483963 205.04972,209.703923 C204.5252,209.923883 203.98376,210.143843 203.2562,210.143843 C201.95336,210.143843 201.10736,209.348603 201.0566,208.062683 L205.3712,208.062683 C206.048,208.062683 206.33564,207.775043 206.48792,207.216683 C206.53868,207.030563 206.57252,206.658323 206.57252,206.421443 C206.57252,204.441803 205.32044,203.054363 203.10392,203.054363 C200.66744,203.054363 199.16156,204.780203 199.16156,207.402803 C199.16156,210.126923 200.53208,211.683563 203.07008,211.683563 Z M204.79592,206.726003 L201.0566,206.726003 C201.17504,205.355483 201.9026,204.594083 203.10392,204.594083 C204.2714,204.594083 204.81284,205.338563 204.81284,206.303003 C204.81284,206.455283 204.81284,206.556803 204.79592,206.726003 Z M211.49248,211.683563 C213.77668,211.683563 214.84264,210.719123 214.84264,209.111723 C214.84264,206.235323 210.5788,206.912123 210.5788,205.355483 C210.5788,204.881723 210.93412,204.594083 211.71244,204.594083 C212.33848,204.594083 212.99836,204.864803 213.47212,205.050923 C214.01356,205.220123 214.35196,205.135523 214.53808,204.729443 C214.70728,204.340283 214.60576,203.917283 214.06432,203.612723 C213.50596,203.291243 212.62612,203.054363 211.64476,203.054363 C209.86816,203.054363 208.64992,203.849603 208.64992,205.423163 C208.64992,208.418003 212.91376,207.673523 212.91376,209.280923 C212.91376,209.856203 212.50768,210.143843 211.66168,210.143843 C211.03564,210.143843 210.34192,209.957723 209.69896,209.670083 C209.25904,209.467043 208.7176,209.348603 208.4638,209.873123 C208.24384,210.329963 208.39612,210.719123 208.85296,211.040603 C209.52976,211.480523 210.62956,211.683563 211.49248,211.683563 Z M220.71012,211.683563 C221.30232,211.683563 221.92836,211.565123 222.40212,211.294403 C222.85896,211.023683 223.12968,210.617603 222.92664,210.110003 C222.75744,209.703923 222.33444,209.619323 221.91144,209.788523 C221.7084,209.873123 221.33616,209.991563 221.01468,209.991563 C220.30404,209.991563 220.05024,209.568563 220.05024,208.621043 L220.05024,204.847883 L221.48844,204.847883 C222.09756,204.847883 222.40212,204.543323 222.40212,204.035723 C222.40212,203.511203 222.09756,203.223563 221.48844,203.223563 L220.05024,203.223563 L220.05024,202.174523 C220.05024,201.650003 219.72876,201.193163 219.0858,201.193163 C218.45976,201.193163 218.13828,201.650003 218.13828,202.174523 L218.13828,203.223563 L217.69836,203.223563 C217.08924,203.223563 216.78468,203.511203 216.78468,204.035723 C216.78468,204.543323 217.08924,204.847883 217.69836,204.847883 L218.13828,204.847883 L218.13828,208.824083 C218.13828,210.837563 219.0858,211.683563 220.71012,211.683563 Z M225.69776,202.073003 C226.35764,202.073003 226.81448,201.717683 226.81448,201.040883 C226.81448,200.397923 226.35764,200.008763 225.69776,200.008763 C225.02096,200.008763 224.59796,200.397923 224.59796,201.040883 C224.59796,201.717683 225.02096,202.073003 225.69776,202.073003 Z M225.69776,211.514363 C226.34072,211.514363 226.6622,211.074443 226.6622,210.533003 L226.6622,204.204923 C226.6622,203.680403 226.34072,203.223563 225.69776,203.223563 C225.07172,203.223563 224.75024,203.680403 224.75024,204.204923 L224.75024,210.533003 C224.75024,211.074443 225.07172,211.514363 225.69776,211.514363 Z M235.846,211.514363 C236.48896,211.514363 236.81044,211.074443 236.81044,210.533003 L236.81044,206.675243 C236.81044,204.424883 236.11672,203.054363 233.91712,203.054363 C232.91884,203.054363 231.92056,203.494283 231.41296,204.458723 L231.41296,204.204923 C231.41296,203.680403 231.09148,203.223563 230.44852,203.223563 C229.82248,203.223563 229.501,203.680403 229.501,204.204923 L229.501,210.533003 C229.501,211.074443 229.82248,211.514363 230.44852,211.514363 C231.09148,211.514363 231.41296,211.074443 231.41296,210.533003 L231.41296,208.350323 C231.4468,206.455283 231.81904,204.746363 233.46028,204.746363 C234.54316,204.746363 234.89848,205.524683 234.89848,206.641403 L234.89848,210.533003 C234.89848,211.074443 235.21996,211.514363 235.846,211.514363 Z M242.69484,215.067563 C245.52048,215.067563 246.94176,213.832403 246.94176,212.174243 C246.94176,210.583763 245.46972,210.110003 243.38856,210.025403 C241.34124,209.940803 240.7998,209.653163 240.7998,209.179403 C240.7998,208.942523 240.969,208.671803 241.25664,208.485683 C241.71348,208.654883 242.238,208.739483 242.86404,208.739483 C245.09748,208.739483 246.26496,207.555083 246.26496,205.913843 C246.26496,205.423163 246.1296,204.966323 245.92656,204.560243 L246.51876,204.560243 C247.04328,204.560243 247.29708,204.323363 247.29708,203.900363 C247.29708,203.443523 247.04328,203.223563 246.51876,203.223563 L244.1838,203.223563 C243.79464,203.122043 243.35472,203.054363 242.86404,203.054363 C240.64752,203.054363 239.48004,204.221843 239.48004,205.913843 C239.48004,206.692163 239.73384,207.352043 240.22452,207.842723 C239.68308,208.282643 239.31084,208.824083 239.31084,209.467043 C239.31084,209.940803 239.54772,210.499163 240.10608,210.803723 C239.32776,211.243643 238.88784,211.920443 238.88784,212.681843 C238.88784,213.849323 239.73384,215.067563 242.69484,215.067563 Z M242.86404,207.284363 C241.79808,207.284363 241.18896,206.726003 241.18896,205.913843 C241.18896,205.084763 241.79808,204.509483 242.86404,204.509483 C243.93,204.509483 244.53912,205.084763 244.53912,205.913843 C244.53912,206.726003 243.93,207.284363 242.86404,207.284363 Z M242.67792,213.595523 C241.1382,213.595523 240.61368,213.003323 240.61368,212.461883 C240.61368,211.937363 240.98592,211.548203 241.52736,211.294403 C241.91652,211.362083 242.33952,211.412843 242.84712,211.446683 C244.50528,211.565123 245.1144,211.751243 245.1144,212.326523 C245.1144,213.003323 244.4376,213.595523 242.67792,213.595523 Z"/>
    <use stroke="#D7D5D5" stroke-dasharray="2.82" stroke-width="1.88" mask="url(#img-regression-illustration-q)" xlink:href="#img-regression-illustration-a"/>
    <use stroke="#D7D5D5" stroke-dasharray="2.82" stroke-width="1.88" mask="url(#img-regression-illustration-r)" xlink:href="#img-regression-illustration-b"/>
    <path fill="#5055FE" fill-rule="nonzero" d="M355.234525,178.974363 C360.816067,178.974363 365.725654,181.866812 368.561258,186.242142 L367.771811,186.697063 C365.094008,182.595767 360.478849,179.887506 355.234525,179.887506 C346.957839,179.887506 340.248259,186.633168 340.248259,194.954363 C340.248259,203.275559 346.957839,210.021221 355.234525,210.021221 C363.511212,210.021221 370.220792,203.275559 370.220792,194.954363 C370.220792,192.558268 369.664463,190.292809 368.674583,188.281426 L369.464964,187.828108 C370.529945,189.973546 371.129051,192.393614 371.129051,194.954363 C371.129051,203.779874 364.012829,210.934363 355.234525,210.934363 C346.456221,210.934363 339.34,203.779874 339.34,194.954363 C339.34,186.128853 346.456221,178.974363 355.234525,178.974363 Z M355.234525,185.366363 C358.453043,185.366363 361.299176,186.969306 363.026201,189.424452 L362.23335,189.879679 C360.666139,187.698747 358.115186,186.279506 355.234525,186.279506 C350.46916,186.279506 346.606069,190.163372 346.606069,194.954363 C346.606069,199.745355 350.46916,203.629221 355.234525,203.629221 C359.999891,203.629221 363.862982,199.745355 363.862982,194.954363 C363.862982,193.713061 363.60366,192.532652 363.136512,191.46491 L363.928826,191.008613 C364.469993,192.212019 364.771241,193.547822 364.771241,194.954363 C364.771241,200.24967 360.501508,204.542363 355.234525,204.542363 C349.967543,204.542363 345.69781,200.24967 345.69781,194.954363 C345.69781,189.659057 349.967543,185.366363 355.234525,185.366363 Z M355.234525,191.758363 C356.085138,191.758363 356.85772,192.094249 357.428212,192.641293 L356.590619,193.123174 C356.212205,192.839455 355.742874,192.671506 355.234525,192.671506 C353.980482,192.671506 352.963879,193.693576 352.963879,194.954363 C352.963879,196.215151 353.980482,197.237221 355.234525,197.237221 C356.488569,197.237221 357.505172,196.215151 357.505172,194.954363 C357.505172,194.871272 357.500756,194.789218 357.492149,194.708425 L358.330679,194.226737 C358.38481,194.460474 358.413431,194.704058 358.413431,194.954363 C358.413431,196.719465 356.990186,198.150363 355.234525,198.150363 C353.478865,198.150363 352.05562,196.719465 352.05562,194.954363 C352.05562,193.189261 353.478865,191.758363 355.234525,191.758363 Z M376.401334,180.239659 C376.752604,180.044946 377.164779,180.363715 377.062394,180.75091 L377.062394,180.75091 L376.504652,182.859541 L378.498715,183.374075 C378.896875,183.476592 378.963509,184.011728 378.602996,184.211563 L378.602996,184.211563 L373.81108,186.867766 C373.705172,186.926471 373.580406,186.940926 373.464228,186.907949 L373.464228,186.907949 L371.244,186.277363 L355.459913,195.350735 C355.242174,195.475882 354.964752,195.399872 354.840274,195.180963 C354.729627,194.986376 354.777069,194.744379 354.941903,194.60511 L355.009138,194.557992 L370.705,185.536363 L371.391536,183.168714 C371.416736,183.081715 371.467121,183.004757 371.535419,182.946949 L371.609417,182.895861 Z M375.90884,181.551113 L372.215071,183.598603 L371.677591,185.454225 L373.536867,185.981303 L377.165147,183.970115 L375.831224,183.627527 C375.614538,183.571736 375.475442,183.369351 375.492391,183.154191 L375.492391,183.154191 L375.506214,183.073169 L375.90884,181.551113 Z"/>
    <g transform="translate(200.806 316.214)">
      <line x2="36.403" y1="31.02" y2="31.02" stroke="#5055FE" stroke-linecap="round" stroke-width=".94"/>
      <circle cx="17.744" cy="15.51" r="15.51" stroke="#FFF" stroke-width="2.82"/>
      <circle cx="17.744" cy="15.51" r="15.51" stroke="#5055FE" stroke-width=".94"/>
      <line x1="16.848" x2="36.403" y1="31.02" y2="31.02" stroke="#5055FE" stroke-linecap="round" stroke-width=".94"/>
      <polyline stroke="#5055FE" stroke-linecap="round" stroke-linejoin="round" stroke-width=".94" points="30.904 34.31 33.724 27.73 36.544 34.31" transform="rotate(90 33.724 31.02)"/>
    </g>
    <path fill="#5055FE" fill-rule="nonzero" d="M93.5294073,183.674363 L99.7974136,191.925913 L82.3852786,212.319926 C81.9320767,212.85074 81.1343743,212.913657 80.6035603,212.460455 C80.5537496,212.417927 80.5073203,212.371592 80.464692,212.321867 L80.464692,212.321867 L62.98,191.92651 L69.2496951,183.674363 L93.5294073,183.674363 Z M98.297,192.233363 L87.699,192.277363 L82.065,211.247363 L98.297,192.233363 Z M75.111,192.330363 L64.602,192.374363 L80.685,211.134363 L75.111,192.330363 Z M86.717,192.281363 L76.09,192.326363 L81.392,210.209363 L86.717,192.281363 Z M69.485,184.916363 L64.533,191.434363 L74.483,191.392363 L69.485,184.916363 Z M81.3902195,184.917043 L76.465,191.384363 L86.335,191.342363 L81.3902195,184.917043 Z M93.295,184.919363 L88.392,191.334363 L98.137,191.293363 L93.295,184.919363 Z M92.345,184.613363 L82.343,184.613363 L87.3610995,191.136083 L92.345,184.613363 Z M80.441,184.613363 L70.438,184.613363 L75.4729195,191.135143 L80.441,184.613363 Z"/>
  </g>
</svg>
