<svg xmlns="http://www.w3.org/2000/svg" xmlns:xlink="http://www.w3.org/1999/xlink" width="379" height="358" viewBox="0 0 379 358">
  <defs>
    <linearGradient id="img-scheme-a" x1="100%" x2="0%" y1="99.293%" y2=".707%">
      <stop offset="0%" stop-color="#1E85E9"/>
      <stop offset="20.276%" stop-color="#8671F3"/>
      <stop offset="70.727%" stop-color="#C06CFD" stop-opacity=".99"/>
      <stop offset="100%" stop-color="#FFBEE8"/>
    </linearGradient>
    <linearGradient id="img-scheme-b" x1="108.096%" x2="0%" y1="99.036%" y2="8.229%">
      <stop offset="0%" stop-color="#1E85E9"/>
      <stop offset="20.276%" stop-color="#8671F3"/>
      <stop offset="70.727%" stop-color="#CFA9FC"/>
      <stop offset="100%" stop-color="#F4D9FB"/>
    </linearGradient>
    <circle id="img-scheme-d" cx="190.5" cy="101.5" r="41.5"/>
    <filter id="img-scheme-c" width="144.6%" height="144.6%" x="-22.3%" y="-17.5%" filterUnits="objectBoundingBox">
      <feMorphology in="SourceAlpha" radius="2" result="shadowSpreadOuter1"/>
      <feOffset dy="4" in="shadowSpreadOuter1" result="shadowOffsetOuter1"/>
      <feGaussianBlur in="shadowOffsetOuter1" result="shadowBlurOuter1" stdDeviation="7.5"/>
      <feColorMatrix in="shadowBlurOuter1" values="0 0 0 0 0.0415817482   0 0 0 0 0.0415817482   0 0 0 0 0.0415817482  0 0 0 0.1 0"/>
    </filter>
    <circle id="img-scheme-f" cx="273.5" cy="239.5" r="41.5"/>
    <filter id="img-scheme-e" width="144.6%" height="144.6%" x="-22.3%" y="-17.5%" filterUnits="objectBoundingBox">
      <feMorphology in="SourceAlpha" radius="2" result="shadowSpreadOuter1"/>
      <feOffset dy="4" in="shadowSpreadOuter1" result="shadowOffsetOuter1"/>
      <feGaussianBlur in="shadowOffsetOuter1" result="shadowBlurOuter1" stdDeviation="7.5"/>
      <feColorMatrix in="shadowBlurOuter1" values="0 0 0 0 0.0415817482   0 0 0 0 0.0415817482   0 0 0 0 0.0415817482  0 0 0 0.1 0"/>
    </filter>
    <circle id="img-scheme-h" cx="108.5" cy="237.5" r="41.5"/>
    <filter id="img-scheme-g" width="144.6%" height="144.6%" x="-22.3%" y="-17.5%" filterUnits="objectBoundingBox">
      <feMorphology in="SourceAlpha" radius="2" result="shadowSpreadOuter1"/>
      <feOffset dy="4" in="shadowSpreadOuter1" result="shadowOffsetOuter1"/>
      <feGaussianBlur in="shadowOffsetOuter1" result="shadowBlurOuter1" stdDeviation="7.5"/>
      <feColorMatrix in="shadowBlurOuter1" values="0 0 0 0 0.0415817482   0 0 0 0 0.0415817482   0 0 0 0 0.0415817482  0 0 0 0.1 0"/>
    </filter>
  </defs>
  <g fill="none" fill-rule="evenodd" transform="translate(0 1)">
    <ellipse cx="190.5" cy="182" stroke="url(#img-scheme-a)" stroke-width=".5" opacity=".499" rx="70.5" ry="70"/>
    <path stroke="#E3E0E0" stroke-dasharray="3" stroke-linecap="round" d="M190.5,227 C215.628956,227 236,206.852814 236,182 C236,157.147186 215.628956,137 190.5,137 C165.371044,137 145,157.147186 145,182 C145,206.852814 165.371044,227 190.5,227 Z" opacity=".499"/>
    <path fill="url(#img-scheme-b)" fill-rule="nonzero" d="M273.5,165 C314.645214,165 348,198.354786 348,239.5 C348,280.645214 314.645214,314 273.5,314 C232.354786,314 199,280.645214 199,239.5 C199,198.354786 232.354786,165 273.5,165 Z M108.5,165 C149.645214,165 183,198.354786 183,239.5 C183,280.645214 149.645214,314 108.5,314 C67.3547861,314 34,280.645214 34,239.5 C34,198.354786 67.3547861,165 108.5,165 Z M273.5,183 C242.295912,183 217,208.295912 217,239.5 C217,270.704088 242.295912,296 273.5,296 C304.704088,296 330,270.704088 330,239.5 C330,208.295912 304.704088,183 273.5,183 Z M108.5,183 C77.2959116,183 52,208.295912 52,239.5 C52,270.704088 77.2959116,296 108.5,296 C139.704088,296 165,270.704088 165,239.5 C165,208.295912 139.704088,183 108.5,183 Z M190.5,27 C231.645214,27 265,60.3547861 265,101.5 C265,142.645214 231.645214,176 190.5,176 C149.354786,176 116,142.645214 116,101.5 C116,60.3547861 149.354786,27 190.5,27 Z M190.5,45 C159.295912,45 134,70.2959116 134,101.5 C134,132.704088 159.295912,158 190.5,158 C221.704088,158 247,132.704088 247,101.5 C247,70.2959116 221.704088,45 190.5,45 Z"/>
    <use fill="#000" filter="url(#img-scheme-c)" xlink:href="#img-scheme-d"/>
    <use fill="#FFF" xlink:href="#img-scheme-d"/>
    <use fill="#000" filter="url(#img-scheme-e)" xlink:href="#img-scheme-f"/>
    <use fill="#FFF" xlink:href="#img-scheme-f"/>
    <use fill="#000" filter="url(#img-scheme-g)" xlink:href="#img-scheme-h"/>
    <use fill="#FFF" xlink:href="#img-scheme-h"/>
    <path stroke="#E3E0E0" stroke-dasharray="3" stroke-linecap="round" d="M270 350C329.646753 350 378 301.699167 378 242.11707 378 186.907804 336.483759 141.384664 282.935585 135M299 108C299 48.353247 250.646753 0 191 0 131.353247 0 83 48.353247 83 108" opacity=".499"/>
    <g fill="#5055FE" transform="translate(294 100)">
      <circle cx="6" cy="6" r="6" opacity=".103"/>
      <circle cx="6" cy="6" r="2.571"/>
    </g>
    <g fill="#5055FE" transform="translate(250 151)">
      <circle cx="6" cy="6" r="6" opacity=".103"/>
      <circle cx="6" cy="6" r="2.571"/>
    </g>
    <g fill="#5055FE" transform="translate(185 246)">
      <circle cx="6" cy="6" r="6" opacity=".103"/>
      <circle cx="6" cy="6" r="2.571"/>
    </g>
    <g fill="#5055FE" transform="translate(118 151)">
      <circle cx="6" cy="6" r="6" opacity=".103"/>
      <circle cx="6" cy="6" r="2.571"/>
    </g>
    <g fill="#5055FE" transform="translate(264 344)">
      <circle cx="6" cy="6" r="6" opacity=".103"/>
      <circle cx="6" cy="6" r="2.571"/>
    </g>
    <path stroke="#E3E0E0" stroke-dasharray="3" stroke-linecap="round" d="M6,233 C6,292.646753 54.4314364,341 114.174641,341 C149.731916,341 181.282274,323.872043 201,297.429208" opacity=".499"/>
    <g fill="#5055FE" transform="translate(0 226)">
      <circle cx="6" cy="6" r="6" opacity=".103"/>
      <circle cx="6" cy="6" r="2.571"/>
    </g>
    <g stroke="#5055FE" transform="translate(88 218)">
      <g stroke-linecap="round">
        <path d="M35.5683415,31.8780857 C38.3374231,28.5110874 40,24.1997015 40,19.5 C40,8.73044738 31.2695526,0 20.5,0 C16.7122899,0 13.1768104,1.0799276 10.184667,2.94867728 M6.7639831,5.65905083 C3.20429948,9.19191525 1,14.0885368 1,19.5 C1,30.2695526 9.73044738,39 20.5,39 C25.0559394,39 29.2469567,37.4375827 32.5664648,34.819335"/>
        <polyline stroke-linejoin="round" points="1.984 10.287 5.482 3.844 7.916 11.202" transform="rotate(30 4.95 7.523)"/>
        <polyline stroke-linejoin="round" points="34.227 32.83 37.724 26.388 40.159 33.746" transform="rotate(-150 37.193 30.067)"/>
      </g>
      <path stroke-linecap="round" d="M24,25 C26.9184949,23.6539367 29.2041016,20.9248662 29.2041016,17.5 C29.2041016,12.8055796 25.1944204,8.80834961 20.5,8.80834961 C15.8055796,8.80834961 11.7819824,12.8055796 11.7819824,17.5 C11.7819824,20.959588 14.0337453,23.6732956 17,25"/>
      <polyline stroke-linejoin="round" points="24 25 24 29 17 29 17 25"/>
      <line x1="17" x2="24" y1="25" y2="25"/>
      <line x1="20.5" x2="20.5" y1="25" y2="22" stroke-linecap="round"/>
      <polyline stroke-linecap="round" stroke-linejoin="round" points="24 15 20.5 19.5 17 15"/>
    </g>
    <g stroke="#5055FE" transform="translate(254 219)">
      <circle cx="19.5" cy="21.5" r="11.5"/>
      <circle cx="19.5" cy="39.5" r="1.5"/>
      <circle cx="6.5" cy="10.5" r="1.5"/>
      <circle cx="32.5" cy="10.5" r="1.5"/>
      <circle cx="19.5" cy="3.5" r="3.5"/>
      <circle cx="35.5" cy="31.5" r="3.5"/>
      <circle cx="3.5" cy="31.5" r="3.5"/>
      <line x1="7.483" x2="10.595" y1="11.55" y2="14.306"/>
      <line x1="29.363" x2="32.5" y1="27.142" y2="29.438"/>
      <line x1="28.409" x2="31.371" y1="13.952" y2="11.55"/>
      <line x1="6.5" x2="9.724" y1="29.438" y2="27.542"/>
      <path d="M19.7202656,15.085589 C21.0265399,16.3456217 22.6049436,16.9363017 24.6654171,16.9363017 C24.8417498,16.9363017 24.9720883,17.0652801 24.9720883,17.2397727 L24.9739139,17.7354545 C24.9760013,17.9388082 24.9802437,18.0920273 24.9884093,18.2697948 L24.9947005,18.6472321 C25.0281534,21.0407311 24.9121378,22.2893236 24.3900944,23.6822867 L24.3415084,23.8084323 C23.5806478,25.7313067 22.0876544,27.1315235 19.6046816,27.9809649 L19.5020915,28 L19.3747125,27.9747365 C16.0609407,26.8426236 14.5389815,24.7615982 14.1282947,21.6942862 L14.102373,21.4900905 C14.005346,20.6799902 13.9871191,19.9334798 14.0073897,18.6529331 L14.0143169,18.265165 L14.0234082,18.0227893 C14.0291034,17.8205206 14.0304869,17.6009538 14.0304869,17.2397727 C14.0304869,17.0652801 14.1608255,16.9363017 14.3371582,16.9363017 L14.507753,16.9349326 C16.4286178,16.9038801 17.9247879,16.3439148 19.1764492,15.1856483 L19.2823097,15.085589 C19.4081156,14.9714703 19.5944597,14.9714703 19.7202656,15.085589 Z"/>
      <line x1="19.5" x2="19.5" y1="7" y2="10"/>
      <line x1="19.5" x2="19.5" y1="33" y2="38"/>
    </g>
    <g stroke="#5055FE" stroke-linecap="round" transform="rotate(-70 164.554 -60.893)">
      <path d="M35.5683415,31.8780857 C38.3374231,28.5110874 40,24.1997015 40,19.5 C40,8.73044738 31.2695526,0 20.5,0 C16.7122899,0 13.1768104,1.0799276 10.184667,2.94867728 M6.7639831,5.65905083 C3.20429948,9.19191525 1,14.0885368 1,19.5 C1,23.8046018 2.39478456,27.7834341 4.75706718,31.0092106 M18.5490165,38.9036206 C19.1907021,38.9673637 19.8415398,39 20.5,39 C25.0559394,39 29.2469567,37.4375827 32.5664648,34.819335"/>
      <polyline stroke-linejoin="round" points="2.137 10.24 5.634 3.798 7.743 10.634" transform="rotate(30 4.94 7.216)"/>
      <polyline stroke-linejoin="round" points="34.3 33.134 37.797 26.691 40.077 33.766" transform="rotate(-150 37.189 30.228)"/>
    </g>
    <path fill="#5055FE" fill-rule="nonzero" d="M191.5,91 C191.74546,91 191.949608,91.1782599 191.991944,91.4133352 L192,91.5039145 L192,112.496086 C192,112.77439 191.776142,113 191.5,113 C191.25454,113 191.050392,112.82174 191.008056,112.586665 L191,112.496086 L191,91.5039145 C191,91.2256102 191.223858,91 191.5,91 Z"/>
    <path fill="#5055FE" fill-rule="nonzero" d="M190.958188,93 C193.318696,93 194.84054,94.5342117 195.456706,97.4540704 C195.514814,97.7294323 195.347969,98.0018051 195.084046,98.0624322 C194.820123,98.1230592 194.559065,97.9489822 194.500957,97.6736203 C193.97665,95.1890565 192.818065,94.021057 190.958188,94.021057 C188.281602,94.021057 186.97864,95.2137141 186.97864,97.1769605 L186.984767,97.5245886 C187.004088,97.9905097 187.073219,98.2231651 187.249226,98.4463663 L187.476086,98.7008414 C187.77225,99.0037065 188.195465,99.2372049 191.678949,101.18829 L192.680807,101.664417 C193.031338,101.834323 193.391261,102.014149 193.608653,102.138277 C195.113065,102.997272 196,104.016152 196,105.381811 C196,108.535092 194.696614,110 190.734076,110 C187.625096,110 186,108.166848 186,104.701273 C186,104.419316 186.219076,104.190744 186.48932,104.190744 C186.759564,104.190744 186.97864,104.419316 186.97864,104.701273 C186.97864,107.619963 188.183381,108.978943 190.734076,108.978943 C194.13919,108.978943 195.02136,107.98745 195.02136,105.381811 C195.02136,104.490249 194.361283,103.731976 193.138832,103.033976 L192.936183,102.924044 C192.355499,102.620145 191.28557,102.126842 191.216067,102.087914 L188.305846,100.451249 C187.056583,99.7363069 186.965065,99.635517 186.68714,99.3197819 L186.596826,99.2177839 C186.122307,98.6878673 186,98.1855916 186,97.1769605 C186,94.6179034 187.767537,93 190.958188,93 Z"/>
    <path stroke="#FFF" stroke-width="3" d="M200.388696,121.565233 C201.201152,121.556864 201.909065,122.117621 202.086957,122.910442 L202.245217,123.872175 C202.263326,123.942935 202.3245,123.99437 202.397391,124 L203.572174,124 C203.645065,123.99437 203.706239,123.942935 203.724348,123.872175 L203.913043,122.916529 C204.112239,121.975948 205.036087,121.374713 205.976674,121.573907 C206.184543,121.617885 206.382522,121.699602 206.561022,121.814949 L207.352174,122.38088 C207.410761,122.421815 207.488522,122.421815 207.546957,122.38088 L208.374783,121.553211 C208.415565,121.494625 208.415565,121.416864 208.374783,121.358582 L207.808696,120.566826 C207.284152,119.761223 207.511804,118.682773 208.317565,118.158081 C208.498348,118.040451 208.699522,117.957365 208.910435,117.913083 L209.872174,117.754823 C209.942935,117.736866 209.99437,117.675541 210,117.60265 L210,116.415701 C209.99437,116.34281 209.942935,116.281637 209.872174,116.263528 L208.910435,116.087008 C207.969696,115.887813 207.368761,114.963971 207.567957,114.02339 C207.611935,113.815522 207.6935,113.617545 207.808696,113.439199 L208.374935,112.647899 C208.415717,112.589465 208.415717,112.511705 208.374935,112.453118 L207.534783,111.637471 C207.476348,111.596689 207.398435,111.596689 207.34,111.637471 L206.548848,112.203554 C205.736543,112.718051 204.66113,112.476857 204.146478,111.66471 C204.035087,111.488494 203.955957,111.293712 203.913196,111.089648 L203.754935,110.127916 C203.734848,110.050764 203.663935,109.997503 203.584348,110 L202.415652,110 C202.342761,110.005721 202.281587,110.057155 202.263478,110.127916 L202.086957,111.083562 C201.88213,112.022925 200.95463,112.618378 200.015261,112.413705 C199.817435,112.370488 199.628587,112.293184 199.457391,112.185294 L198.666087,111.61921 C198.6075,111.578428 198.529739,111.578428 198.471304,111.61921 L197.637391,112.465292 C197.596609,112.523726 197.596609,112.601487 197.637391,112.660073 L198.203478,113.451372 C198.717978,114.263519 198.476783,115.339078 197.66463,115.853574 C197.488413,115.965269 197.29363,116.044247 197.089565,116.087008 L196.127826,116.245267 C196.057065,116.263376 196.00563,116.324549 196,116.39744 L196,117.572215 C196.00563,117.645106 196.057065,117.70628 196.127826,117.724388 L197.089565,117.913083 C198.030152,118.112277 198.631239,119.036119 198.432196,119.9767 C198.388217,120.184568 198.3065,120.382545 198.191304,120.561044 L197.625217,121.352191 C197.584435,121.410778 197.584435,121.488538 197.625217,121.546972 L198.45913,122.374793 C198.517565,122.415575 198.595326,122.415575 198.653913,122.374793 L199.445217,121.808558 C199.727043,121.632189 200.056652,121.547125 200.388696,121.565233 Z"/>
    <circle cx="203" cy="117" r="2" stroke="#5055FE"/>
    <path stroke="#5055FE" d="M200.388696,121.565233 C201.201152,121.556864 201.909065,122.117621 202.086957,122.910442 L202.245217,123.872175 C202.263326,123.942935 202.3245,123.99437 202.397391,124 L203.572174,124 C203.645065,123.99437 203.706239,123.942935 203.724348,123.872175 L203.913043,122.916529 C204.112239,121.975948 205.036087,121.374713 205.976674,121.573907 C206.184543,121.617885 206.382522,121.699602 206.561022,121.814949 L207.352174,122.38088 C207.410761,122.421815 207.488522,122.421815 207.546957,122.38088 L208.374783,121.553211 C208.415565,121.494625 208.415565,121.416864 208.374783,121.358582 L207.808696,120.566826 C207.284152,119.761223 207.511804,118.682773 208.317565,118.158081 C208.498348,118.040451 208.699522,117.957365 208.910435,117.913083 L209.872174,117.754823 C209.942935,117.736866 209.99437,117.675541 210,117.60265 L210,116.415701 C209.99437,116.34281 209.942935,116.281637 209.872174,116.263528 L208.910435,116.087008 C207.969696,115.887813 207.368761,114.963971 207.567957,114.02339 C207.611935,113.815522 207.6935,113.617545 207.808696,113.439199 L208.374935,112.647899 C208.415717,112.589465 208.415717,112.511705 208.374935,112.453118 L207.534783,111.637471 C207.476348,111.596689 207.398435,111.596689 207.34,111.637471 L206.548848,112.203554 C205.736543,112.718051 204.66113,112.476857 204.146478,111.66471 C204.035087,111.488494 203.955957,111.293712 203.913196,111.089648 L203.754935,110.127916 C203.734848,110.050764 203.663935,109.997503 203.584348,110 L202.415652,110 C202.342761,110.005721 202.281587,110.057155 202.263478,110.127916 L202.086957,111.083562 C201.88213,112.022925 200.95463,112.618378 200.015261,112.413705 C199.817435,112.370488 199.628587,112.293184 199.457391,112.185294 L198.666087,111.61921 C198.6075,111.578428 198.529739,111.578428 198.471304,111.61921 L197.637391,112.465292 C197.596609,112.523726 197.596609,112.601487 197.637391,112.660073 L198.203478,113.451372 C198.717978,114.263519 198.476783,115.339078 197.66463,115.853574 C197.488413,115.965269 197.29363,116.044247 197.089565,116.087008 L196.127826,116.245267 C196.057065,116.263376 196.00563,116.324549 196,116.39744 L196,117.572215 C196.00563,117.645106 196.057065,117.70628 196.127826,117.724388 L197.089565,117.913083 C198.030152,118.112277 198.631239,119.036119 198.432196,119.9767 C198.388217,120.184568 198.3065,120.382545 198.191304,120.561044 L197.625217,121.352191 C197.584435,121.410778 197.584435,121.488538 197.625217,121.546972 L198.45913,122.374793 C198.517565,122.415575 198.595326,122.415575 198.653913,122.374793 L199.445217,121.808558 C199.727043,121.632189 200.056652,121.547125 200.388696,121.565233 Z"/>
  </g>
</svg>
