<svg xmlns="http://www.w3.org/2000/svg" width="1032" height="370" viewBox="0 0 1032 370">
  <defs>
    <linearGradient id="img-devsecops-a" x1="108.096%" x2="0%" y1="54.441%" y2="46.217%">
      <stop offset="0%" stop-color="#1E85E9"/>
      <stop offset="20.276%" stop-color="#8671F3"/>
      <stop offset="70.727%" stop-color="#CFA9FC"/>
      <stop offset="100%" stop-color="#F4D9FB"/>
    </linearGradient>
    <linearGradient id="img-devsecops-b" x1="38.905%" x2="62.984%" y1="96.104%" y2="4.164%">
      <stop offset="0%" stop-color="#B998F9"/>
      <stop offset="100%" stop-color="#B595F8"/>
    </linearGradient>
  </defs>
  <g fill="none" fill-rule="evenodd" transform="translate(1)">
    <path stroke="#E3E0E0" stroke-dasharray="6" stroke-linecap="round" d="M58,14 L972,14 C1004.03252,14 1030,39.9674845 1030,72 L1030,311 C1030,343.032515 1004.03252,369 972,369 L58,369 C25.9674845,369 3.92285176e-15,343.032515 0,311 L0,72 C-3.92285176e-15,39.9674845 25.9674845,14 58,14 Z"/>
    <path fill="url(#img-devsecops-a)" fill-rule="nonzero" stroke="#FFF" d="M237.182683,-0.000948431169 L228.571309,16.8147524 L237.269683,33.9980516 L216.269501,33.9988438 C241.92274,57.5766626 258,91.4108086 258,129 C258,166.589681 241.922321,200.42422 216.268498,224.002078 L236.447683,224.002052 L245.061631,240.822369 L236.365683,257.999052 L129,258 C58.666194,258 1.47910935,201.712195 0.0282327579,131.726072 L16.8863838,140.357066 L34.0369228,131.67454 C35.4530841,182.904887 77.427403,224 129,224 C181.467051,224 224,181.467051 224,129 C224,76.5329488 181.467051,34 129,34 C76.7573782,34 34.3640537,76.1698551 34.0023322,128.32726 L16.894,136.99 L0.00568290628,128.340052 L0.0169388302,126.888041 C1.13348424,57.3271066 57.3085456,1.14506257 126.866749,0.0172823144 L129,5.93445302e-11 L237.182683,-0.000948431169 Z M418.525077,201.388021 L436.277209,208.879192 L440.574561,227.269798 C418.565261,246.006083 390.18258,257.4793 359.133251,257.982718 L357,258 L239.728683,257.999052 L248.428697,240.814752 L239.818683,224.001052 L357,224 C380.468383,224 401.949199,215.490217 418.525077,201.388021 Z M809,5.9458217e-11 L811.133251,0.0172823144 C880.691454,1.14506257 936.866516,57.3271066 937.983061,126.888041 L937.983061,126.888041 L937.994317,128.340052 L921.106,136.99 L903.997668,128.32726 C903.635946,76.1698551 861.242622,34 809,34 C756.532949,34 714,76.5329488 714,129 C714,181.467051 756.532949,224 809,224 C860.572597,224 902.546916,182.904887 903.963077,131.67454 L903.963077,131.67454 L921.113616,140.357066 L937.971767,131.726072 C936.520891,201.712195 879.333806,258 809,258 L809,258 L708.634317,257.999052 L699.938369,240.822369 L708.552317,224.002052 L721.731502,224.002078 C696.077679,200.42422 680,166.589681 680,129 C680,91.4108086 696.07726,57.5766626 721.730499,33.9988438 L721.730499,33.9988438 L700.730317,33.9980516 L709.428691,16.8147524 L700.817317,-0.000948431169 L809,5.9458217e-11 Z M520.210469,201.741234 L520.771268,202.207406 C536.899257,215.510766 557.468219,223.623172 579.920733,223.987206 L579.920733,223.987206 L581.5,224 L705.181317,224.002052 L696.571303,240.814752 L705.271317,257.999052 L581,258 L580.999683,257.997052 L580.550792,257.996594 C549.569608,257.774193 521.175076,246.672669 498.997526,228.322352 L498.320568,227.758348 L502.543882,209.296174 L520.191106,201.749893 L520.210469,201.741234 Z M414.965703,13.7255485 C456.50311,34.6536508 485.180239,77.3721753 485.982718,126.866749 L485.995683,128.499052 L486,128.5 L486.00377,129.357503 C486.252404,157.625651 498.782773,182.96199 518.518218,200.28986 L518.518218,200.28986 L500.821309,207.857111 L496.604189,226.292957 L495.802323,225.590465 C469.437077,202.301223 452.630189,168.439677 452.017349,130.641519 L452.017349,130.641519 L452.003683,128.999052 L452,129 C452,89.9403316 428.427302,56.3863616 394.732082,41.7882647 L396.902839,23.8045336 L414.941441,13.7429109 L414.965703,13.7255485 Z M697.447317,-0.000948431169 L706.061626,16.8223687 L697.368317,33.9980516 L581,34 L580.217621,34.0031545 C557.550269,34.1860012 536.77457,42.3074845 520.534283,55.7238461 L520.534283,55.7238461 L515.997701,35.8831237 L499.63962,28.8873136 L500.291877,28.3600832 C521.873992,11.030047 549.148952,0.499111105 578.866749,0.0172823144 L578.866749,0.0172823144 L581,5.9458217e-11 L697.447317,-0.000948431169 Z M357,5.93445302e-11 C376.545672,5.93445302e-11 395.076053,4.34697638 411.67711,12.1268962 L394.107156,21.9280085 L391.854544,40.5975776 C381.523222,36.5209262 370.305719,34.2029879 358.570999,34.0127273 L357,34 L240.631683,33.9980516 L231.938374,16.8223687 L240.552683,-0.000948431169 L357,5.93445302e-11 Z" transform="translate(46 61)"/>
    <path fill="#EDEDED" fill-rule="nonzero" d="M324.140355,212.584902 C321.711327,218.867377 323.462351,225.985318 328.54366,230.464187 C330.452454,232.208837 330.679381,235.184134 329.031643,237.228011 C325.358558,241.79276 321.182615,245.925692 316.579283,249.552286 C314.701833,251.027556 312.057023,250.943529 310.31575,249.449802 L309.027422,248.193376 C304.319469,243.944424 297.709364,242.64459 291.893796,244.794054 C285.550683,247.424471 281.570593,253.636995 281.825915,260.411079 L281.812234,261.041037 C281.655454,263.307262 279.801444,265.255315 277.414876,265.520555 C274.596737,265.845757 271.770708,266.0054 268.943994,266.001171 C265.97422,265.995842 263.01223,265.825807 260.049006,265.488795 C257.454628,265.175293 255.538672,262.890497 255.680439,260.253476 C256.080936,253.443877 252.14613,247.083008 245.910861,244.452693 C239.78413,242.108941 232.951936,243.4699 228.28785,247.843812 L227.080095,249.034029 C225.368509,250.528059 222.665712,250.592072 220.781831,249.074433 C216.262072,245.442603 212.172674,241.30856 208.59711,236.757566 C206.977279,234.708902 207.216834,231.762709 209.134747,230.018177 L209.975794,229.186548 C214.33682,224.512352 215.590222,217.816034 213.224374,211.955474 C210.74161,205.845413 204.785995,201.878217 198.177822,201.931347 L197.540545,201.898442 C194.95166,201.657651 192.70482,199.755264 192.51404,197.606281 C191.831803,191.736943 191.830078,185.86477 192.500446,180.111208 C192.733346,177.640197 194.711121,175.773958 197.0282,175.649614 L198.821422,175.652133 C205.2252,175.385722 210.901546,171.616675 213.525862,165.923076 C216.208755,159.489102 214.540385,152.166269 209.387732,147.548711 C207.493826,145.794435 207.270266,142.835779 208.906651,140.778081 C212.564905,136.214942 216.742211,132.080446 221.349434,128.464247 C223.228551,126.987666 225.873574,127.069461 227.605925,128.553428 L228.965628,129.865575 C233.705528,134.053831 240.292124,135.307991 246.088739,133.157013 C252.436257,130.529558 256.424313,124.317302 256.181922,117.524686 L256.200232,116.910248 C256.358097,114.82891 257.947225,113.025577 260.066915,112.551504 L260.60737,112.461288 C266.365336,111.830596 272.173609,111.846586 277.941299,112.509558 C280.352019,112.800851 282.177151,114.790952 282.312469,117.17817 L282.29082,118.844947 C282.404506,125.307699 286.242447,131.066868 292.061794,133.558776 C298.176709,135.914072 305.001415,134.566433 309.650039,130.2108 L310.862079,129.010395 C312.567263,127.505286 315.272434,127.429534 317.175983,128.947935 C321.687482,132.578588 325.78554,136.711012 329.380356,141.255951 C331.013213,143.309791 330.767592,146.268348 328.812185,148.03894 C323.798908,152.504302 322.097119,159.640538 324.563075,165.904247 C326.784513,171.546862 331.956492,175.392459 337.913061,176.001313 L508,176 L508,202 L338.774446,201.999858 C332.297563,202.137638 326.500497,206.480591 324.140355,212.584902 Z"/>
    <path fill="#EDEDED" fill-rule="nonzero" d="M647.140355,212.584902 C644.711327,218.867377 646.462351,225.985318 651.54366,230.464187 C653.452454,232.208837 653.679381,235.184134 652.031643,237.228011 C648.358558,241.79276 644.182615,245.925692 639.579283,249.552286 C637.701833,251.027556 635.057023,250.943529 633.31575,249.449802 L632.027422,248.193376 C627.319469,243.944424 620.709364,242.64459 614.893796,244.794054 C608.550683,247.424471 604.570593,253.636995 604.825915,260.411079 L604.812234,261.041037 C604.655454,263.307262 602.801444,265.255315 600.414876,265.520555 C597.596737,265.845757 594.770708,266.0054 591.943994,266.001171 C588.97422,265.995842 586.01223,265.825807 583.049006,265.488795 C580.454628,265.175293 578.538672,262.890497 578.680439,260.253476 C579.080936,253.443877 575.14613,247.083008 568.910861,244.452693 C562.78413,242.108941 555.951936,243.4699 551.28785,247.843812 L550.080095,249.034029 C548.368509,250.528059 545.665712,250.592072 543.781831,249.074433 C539.262072,245.442603 535.172674,241.30856 531.59711,236.757566 C529.977279,234.708902 530.216834,231.762709 532.134747,230.018177 L532.975794,229.186548 C537.33682,224.512352 538.590222,217.816034 536.224374,211.955474 C533.74161,205.845413 527.785995,201.878217 521.177822,201.931347 L520.540545,201.898442 C517.95166,201.657651 515.70482,199.755264 515.51404,197.606281 C514.831803,191.736943 514.830078,185.86477 515.500446,180.111208 C515.733346,177.640197 517.711121,175.773958 520.0282,175.649614 L521.821422,175.652133 C528.2252,175.385722 533.901546,171.616675 536.525862,165.923076 C539.208755,159.489102 537.540385,152.166269 532.387732,147.548711 C530.493826,145.794435 530.270266,142.835779 531.906651,140.778081 C535.564905,136.214942 539.742211,132.080446 544.349434,128.464247 C546.228551,126.987666 548.873574,127.069461 550.605925,128.553428 L551.965628,129.865575 C556.705528,134.053831 563.292124,135.307991 569.088739,133.157013 C575.436257,130.529558 579.424313,124.317302 579.181922,117.524686 L579.200232,116.910248 C579.358097,114.82891 580.947225,113.025577 583.066915,112.551504 L583.60737,112.461288 C589.365336,111.830596 595.173609,111.846586 600.941299,112.509558 C603.352019,112.800851 605.177151,114.790952 605.312469,117.17817 L605.29082,118.844947 C605.404506,125.307699 609.242447,131.066868 615.061794,133.558776 C621.176709,135.914072 628.001415,134.566433 632.650039,130.2108 L633.862079,129.010395 C635.567263,127.505286 638.272434,127.429534 640.175983,128.947935 C644.687482,132.578588 648.78554,136.711012 652.380356,141.255951 C654.013213,143.309791 653.767592,146.268348 651.812185,148.03894 C646.798908,152.504302 645.097119,159.640538 647.563075,165.904247 C649.784513,171.546862 654.956492,175.392459 660.913061,176.001313 L827,176 L827,202 L661.774446,201.999858 C655.297563,202.137638 649.500497,206.480591 647.140355,212.584902 Z" transform="matrix(-1 0 0 1 1342 0)"/>
    <path fill="url(#img-devsecops-b)" fill-rule="nonzero" stroke="#FFF" d="M541.867435,90.5230383 C541.965946,90.6428979 542.093899,90.7415387 542.246403,90.8067595 L542.246403,90.8067595 L558.135,97.602 L562.559441,116.946744 L562.591994,117.058931 C562.632453,117.173156 562.692296,117.27626 562.766858,117.365316 C542.488599,134.476853 529.474838,159.927337 529.012727,188.429001 L529,190 C529,228.957237 511.731191,263.881129 484.430839,287.534408 L480.135118,269.155827 L462.371326,261.659493 C481.997449,244.562802 494.53387,219.535531 494.987273,191.570999 L495,190 C495,150.50192 512.751622,115.149954 540.711972,91.4869949 L541.867435,90.5230383 Z"/>
    <path fill="#000" fill-rule="nonzero" d="M231.109,181 C231.829,181 232.189,180.514 232.189,179.902 L232.189,169.696 C232.189,169.048 231.847,168.58 231.181,168.58 C230.641,168.58 230.335,168.922 230.119,169.264 L226.519,175.078 L222.847,169.282 C222.577,168.85 222.235,168.58 221.731,168.58 C221.155,168.58 220.723,168.922 220.723,169.714 L220.723,179.902 C220.723,180.496 220.993,181 221.731,181 C222.469,181 222.739,180.496 222.739,179.902 L222.739,172.666 L225.403,176.842 C225.637,177.22 225.943,177.472 226.411,177.472 C226.915,177.472 227.185,177.184 227.401,176.824 L230.029,172.576 L230.029,179.902 C230.029,180.514 230.407,181 231.109,181 Z M239.331,181.18 C242.121,181.18 243.651,179.2 243.651,176.59 C243.651,173.998 242.121,172 239.331,172 C236.541,172 235.029,173.98 235.029,176.59 C235.029,179.2 236.541,181.18 239.331,181.18 Z M239.331,179.452 C237.873,179.452 237.117,178.228 237.117,176.59 C237.117,174.97 237.855,173.728 239.331,173.728 C240.825,173.728 241.563,174.97 241.563,176.59 C241.563,178.228 240.825,179.452 239.331,179.452 Z M252.971,181 C253.655,181 253.997,180.532 253.997,179.956 L253.997,175.852 C253.997,173.458 253.259,172 250.919,172 C249.857,172 248.795,172.468 248.255,173.494 L248.255,173.224 C248.255,172.666 247.913,172.18 247.229,172.18 C246.563,172.18 246.221,172.666 246.221,173.224 L246.221,179.956 C246.221,180.532 246.563,181 247.229,181 C247.913,181 248.255,180.532 248.255,179.956 L248.255,177.634 C248.291,175.618 248.687,173.8 250.433,173.8 C251.585,173.8 251.963,174.628 251.963,175.816 L251.963,179.956 C251.963,180.532 252.305,181 252.971,181 Z M258.025,170.956 C258.727,170.956 259.213,170.578 259.213,169.858 C259.213,169.174 258.727,168.76 258.025,168.76 C257.305,168.76 256.855,169.174 256.855,169.858 C256.855,170.578 257.305,170.956 258.025,170.956 Z M258.025,181 C258.709,181 259.051,180.532 259.051,179.956 L259.051,173.224 C259.051,172.666 258.709,172.18 258.025,172.18 C257.359,172.18 257.017,172.666 257.017,173.224 L257.017,179.956 C257.017,180.532 257.359,181 258.025,181 Z M265.527,181.18 C266.157,181.18 266.823,181.054 267.327,180.766 C267.813,180.478 268.101,180.046 267.885,179.506 C267.705,179.074 267.255,178.984 266.805,179.164 C266.589,179.254 266.193,179.38 265.851,179.38 C265.095,179.38 264.825,178.93 264.825,177.922 L264.825,173.908 L266.355,173.908 C267.003,173.908 267.327,173.584 267.327,173.044 C267.327,172.486 267.003,172.18 266.355,172.18 L264.825,172.18 L264.825,171.064 C264.825,170.506 264.483,170.02 263.799,170.02 C263.133,170.02 262.791,170.506 262.791,171.064 L262.791,172.18 L262.323,172.18 C261.675,172.18 261.351,172.486 261.351,173.044 C261.351,173.584 261.675,173.908 262.323,173.908 L262.791,173.908 L262.791,178.138 C262.791,180.28 263.799,181.18 265.527,181.18 Z M273.767,181.18 C276.557,181.18 278.087,179.2 278.087,176.59 C278.087,173.998 276.557,172 273.767,172 C270.977,172 269.465,173.98 269.465,176.59 C269.465,179.2 270.977,181.18 273.767,181.18 Z M273.767,179.452 C272.309,179.452 271.553,178.228 271.553,176.59 C271.553,174.97 272.291,173.728 273.767,173.728 C275.261,173.728 275.999,174.97 275.999,176.59 C275.999,178.228 275.261,179.452 273.767,179.452 Z M281.665,181 C282.349,181 282.691,180.532 282.691,179.956 L282.691,176.914 C282.691,174.808 283.177,173.836 284.239,173.836 C284.545,173.836 284.815,173.908 285.085,173.998 C285.607,174.178 286.021,174.052 286.219,173.602 C286.507,172.936 286.075,172 284.581,172 C283.789,172 283.069,172.468 282.691,173.152 C282.691,172.684 282.349,172.18 281.665,172.18 C280.999,172.18 280.657,172.666 280.657,173.224 L280.657,179.956 C280.657,180.532 280.999,181 281.665,181 Z M289.131,170.956 C289.833,170.956 290.319,170.578 290.319,169.858 C290.319,169.174 289.833,168.76 289.131,168.76 C288.411,168.76 287.961,169.174 287.961,169.858 C287.961,170.578 288.411,170.956 289.131,170.956 Z M289.131,181 C289.815,181 290.157,180.532 290.157,179.956 L290.157,173.224 C290.157,172.666 289.815,172.18 289.131,172.18 C288.465,172.18 288.123,172.666 288.123,173.224 L288.123,179.956 C288.123,180.532 288.465,181 289.131,181 Z M299.927,181 C300.611,181 300.953,180.532 300.953,179.956 L300.953,175.852 C300.953,173.458 300.215,172 297.875,172 C296.813,172 295.751,172.468 295.211,173.494 L295.211,173.224 C295.211,172.666 294.869,172.18 294.185,172.18 C293.519,172.18 293.177,172.666 293.177,173.224 L293.177,179.956 C293.177,180.532 293.519,181 294.185,181 C294.869,181 295.211,180.532 295.211,179.956 L295.211,177.634 C295.247,175.618 295.643,173.8 297.389,173.8 C298.541,173.8 298.919,174.628 298.919,175.816 L298.919,179.956 C298.919,180.532 299.261,181 299.927,181 Z M307.213,184.78 C310.219,184.78 311.731,183.466 311.731,181.702 C311.731,180.01 310.165,179.506 307.951,179.416 C305.773,179.326 305.197,179.02 305.197,178.516 C305.197,178.264 305.377,177.976 305.683,177.778 C306.169,177.958 306.727,178.048 307.393,178.048 C309.769,178.048 311.011,176.788 311.011,175.042 C311.011,174.52 310.867,174.034 310.651,173.602 L311.281,173.602 C311.839,173.602 312.109,173.35 312.109,172.9 C312.109,172.414 311.839,172.18 311.281,172.18 L308.797,172.18 C308.383,172.072 307.915,172 307.393,172 C305.035,172 303.793,173.242 303.793,175.042 C303.793,175.87 304.063,176.572 304.585,177.094 C304.009,177.562 303.613,178.138 303.613,178.822 C303.613,179.326 303.865,179.92 304.459,180.244 C303.631,180.712 303.163,181.432 303.163,182.242 C303.163,183.484 304.063,184.78 307.213,184.78 Z M307.393,176.5 C306.259,176.5 305.611,175.906 305.611,175.042 C305.611,174.16 306.259,173.548 307.393,173.548 C308.527,173.548 309.175,174.16 309.175,175.042 C309.175,175.906 308.527,176.5 307.393,176.5 Z M307.195,183.214 C305.557,183.214 304.999,182.584 304.999,182.008 C304.999,181.45 305.395,181.036 305.971,180.766 C306.385,180.838 306.835,180.892 307.375,180.928 C309.139,181.054 309.787,181.252 309.787,181.864 C309.787,182.584 309.067,183.214 307.195,183.214 Z M223.461,205.18 C225.081,205.18 226.395,204.55 227.367,203.65 C227.709,203.956 228.051,204.226 228.375,204.514 C228.807,204.892 229.563,205.342 230.067,204.676 C230.355,204.298 230.319,203.758 229.707,203.254 C229.347,202.966 228.951,202.606 228.537,202.21 C229.185,201.166 229.563,200.014 229.653,199.078 C229.707,198.484 229.509,198.088 228.969,198.034 C228.465,197.98 228.159,198.196 227.979,198.916 C227.799,199.6 227.601,200.302 227.223,200.932 C226.269,199.996 225.477,199.24 224.649,198.232 C226.359,196.954 227.079,195.946 227.079,194.74 C227.079,193.534 226.215,192.4 224.181,192.4 C222.183,192.4 221.013,193.624 221.013,195.298 C221.013,196.27 221.409,197.134 222.111,198.106 C220.527,199.24 219.573,200.248 219.573,201.868 C219.573,204.154 221.355,205.18 223.461,205.18 Z M223.731,196.99 C223.281,196.342 223.029,195.73 223.029,195.19 C223.029,194.38 223.569,193.912 224.253,193.912 C224.973,193.912 225.369,194.308 225.369,194.866 C225.369,195.496 224.757,196.234 223.731,196.99 Z M223.587,203.452 C222.327,203.452 221.625,202.588 221.625,201.724 C221.625,200.878 221.949,200.266 223.119,199.348 C224.739,201.238 225.657,202.084 226.089,202.48 C225.459,203.074 224.577,203.452 223.587,203.452 Z M246.133,205 C246.853,205 247.177,204.496 247.177,203.974 C247.177,203.794 247.141,203.596 247.069,203.416 L242.893,193.174 C242.713,192.742 242.407,192.4 241.849,192.4 C241.327,192.4 240.985,192.67 240.751,193.282 L236.701,203.434 C236.611,203.668 236.575,203.884 236.557,204.1 C236.557,204.586 236.881,205 237.493,205 C238.033,205.018 238.357,204.532 238.537,204.028 L239.473,201.49 L244.099,201.49 L245.107,204.154 C245.305,204.676 245.665,205 246.133,205 Z M243.487,199.798 L240.049,199.798 L241.741,195.262 L243.487,199.798 Z M256.065,205 C256.749,205 257.091,204.532 257.091,203.956 L257.091,199.852 C257.091,197.458 256.353,196 254.013,196 C252.951,196 251.889,196.468 251.349,197.494 L251.349,197.224 C251.349,196.666 251.007,196.18 250.323,196.18 C249.657,196.18 249.315,196.666 249.315,197.224 L249.315,203.956 C249.315,204.532 249.657,205 250.323,205 C251.007,205 251.349,204.532 251.349,203.956 L251.349,201.634 C251.385,199.618 251.781,197.8 253.527,197.8 C254.679,197.8 255.057,198.628 255.057,199.816 L255.057,203.956 C255.057,204.532 255.399,205 256.065,205 Z M262.181,205.18 C263.675,205.18 264.575,204.478 265.061,203.632 L265.061,203.956 C265.061,204.532 265.367,205 266.033,205 C266.717,205 267.005,204.532 267.005,203.956 L267.005,199.348 C267.005,197.26 265.925,196 263.459,196 C262.325,196 261.173,196.234 260.525,196.666 C260.111,196.936 259.931,197.296 260.075,197.728 C260.219,198.16 260.669,198.268 261.101,198.142 C261.893,197.908 262.397,197.692 263.225,197.692 C264.791,197.692 265.061,198.538 265.061,199.51 L265.061,199.708 C264.737,199.654 264.035,199.582 263.171,199.582 C261.191,199.582 259.301,200.338 259.301,202.534 C259.301,204.136 260.363,205.18 262.181,205.18 Z M262.721,203.596 C261.821,203.596 261.299,203.092 261.299,202.372 C261.299,201.292 262.181,200.86 263.459,200.86 C264.125,200.86 264.593,200.878 265.061,200.95 L265.061,201.256 C265.061,202.39 264.251,203.596 262.721,203.596 Z M270.997,205 C271.681,205 272.023,204.514 272.023,203.956 L272.023,193.624 C272.023,193.066 271.681,192.58 270.997,192.58 C270.331,192.58 269.989,193.066 269.989,193.624 L269.989,203.956 C269.989,204.514 270.331,205 270.997,205 Z M275.475,208.78 C277.023,208.78 277.833,207.916 278.895,205.09 L281.703,197.656 C281.775,197.44 281.829,197.224 281.829,197.008 C281.829,196.612 281.577,196.18 280.911,196.18 C280.461,196.18 280.173,196.504 279.975,197.08 L278.121,202.588 L276.015,197.008 C275.817,196.504 275.493,196.18 275.043,196.18 C274.323,196.18 273.981,196.702 273.981,197.17 C273.981,197.386 274.035,197.584 274.125,197.782 L277.185,205 C276.753,206.152 276.339,207.052 275.493,207.052 C274.935,207.052 274.521,206.764 274.089,206.764 C273.783,206.764 273.369,206.98 273.369,207.556 C273.369,208.42 274.647,208.78 275.475,208.78 Z M287.513,205.18 C288.143,205.18 288.809,205.054 289.313,204.766 C289.799,204.478 290.087,204.046 289.871,203.506 C289.691,203.074 289.241,202.984 288.791,203.164 C288.575,203.254 288.179,203.38 287.837,203.38 C287.081,203.38 286.811,202.93 286.811,201.922 L286.811,197.908 L288.341,197.908 C288.989,197.908 289.313,197.584 289.313,197.044 C289.313,196.486 288.989,196.18 288.341,196.18 L286.811,196.18 L286.811,195.064 C286.811,194.506 286.469,194.02 285.785,194.02 C285.119,194.02 284.777,194.506 284.777,195.064 L284.777,196.18 L284.309,196.18 C283.661,196.18 283.337,196.486 283.337,197.044 C283.337,197.584 283.661,197.908 284.309,197.908 L284.777,197.908 L284.777,202.138 C284.777,204.28 285.785,205.18 287.513,205.18 Z M292.819,194.956 C293.521,194.956 294.007,194.578 294.007,193.858 C294.007,193.174 293.521,192.76 292.819,192.76 C292.099,192.76 291.649,193.174 291.649,193.858 C291.649,194.578 292.099,194.956 292.819,194.956 Z M292.819,205 C293.503,205 293.845,204.532 293.845,203.956 L293.845,197.224 C293.845,196.666 293.503,196.18 292.819,196.18 C292.153,196.18 291.811,196.666 291.811,197.224 L291.811,203.956 C291.811,204.532 292.153,205 292.819,205 Z M300.555,205.18 C301.635,205.18 302.643,204.91 303.345,204.352 C303.831,203.956 303.957,203.452 303.705,203.038 C303.489,202.678 303.075,202.57 302.481,202.858 C301.941,203.128 301.419,203.362 300.753,203.362 C299.421,203.362 298.503,202.372 298.503,200.662 C298.503,198.898 299.349,197.818 300.735,197.818 C301.401,197.818 301.779,197.944 302.265,198.088 C302.895,198.286 303.255,198.142 303.453,197.71 C303.651,197.278 303.525,196.828 303.003,196.504 C302.463,196.162 301.653,196 300.681,196 C298.035,196 296.415,197.782 296.415,200.662 C296.415,203.524 297.981,205.18 300.555,205.18 Z M308.723,205.18 C311.153,205.18 312.287,204.154 312.287,202.444 C312.287,199.384 307.751,200.104 307.751,198.448 C307.751,197.944 308.129,197.638 308.957,197.638 C309.623,197.638 310.325,197.926 310.829,198.124 C311.405,198.304 311.765,198.214 311.963,197.782 C312.143,197.368 312.035,196.918 311.459,196.594 C310.865,196.252 309.929,196 308.885,196 C306.995,196 305.699,196.846 305.699,198.52 C305.699,201.706 310.235,200.914 310.235,202.624 C310.235,203.236 309.803,203.542 308.903,203.542 C308.237,203.542 307.499,203.344 306.815,203.038 C306.347,202.822 305.771,202.696 305.501,203.254 C305.267,203.74 305.429,204.154 305.915,204.496 C306.635,204.964 307.805,205.18 308.723,205.18 Z"/>
    <path fill="#FFF" fill-rule="nonzero" d="M165.042 83.18C166.554 83.18 167.94 82.658 168.696 82.1 169.02 81.848 169.254 81.542 169.02 81.236 168.786 80.948 168.48 81.074 168.174 81.272 167.292 81.848 166.338 82.208 165.132 82.208 162.396 82.208 160.488 80.21 160.488 76.826 160.488 73.766 162.162 71.372 165.204 71.372 166.284 71.372 167.184 71.642 167.976 72.128 168.354 72.362 168.678 72.416 168.858 72.128 169.038 71.84 168.894 71.552 168.552 71.318 167.76 70.778 166.68 70.4 165.24 70.4 161.586 70.4 159.372 73.046 159.372 76.808 159.372 80.516 161.064 83.18 165.042 83.18zM172.418 83C172.76 83 172.922 82.73 172.922 82.424L172.922 79.616C172.922 77.816 173.156 76.484 173.714 75.746 174.074 75.26 174.614 74.936 175.208 74.936 175.496 74.936 175.748 74.99 176.018 75.098 176.306 75.224 176.63 75.26 176.756 74.972 176.864 74.72 176.756 74.468 176.468 74.288 176.234 74.144 175.838 74 175.334 74 174.254 74 173.282 74.666 172.922 75.854L172.922 74.738C172.922 74.432 172.76 74.18 172.418 74.18 172.076 74.18 171.914 74.432 171.914 74.738L171.914 82.424C171.914 82.73 172.076 83 172.418 83zM182.044 83.18C183.034 83.18 184.042 82.964 184.78 82.478 185.014 82.316 185.14 82.046 184.996 81.794 184.852 81.542 184.6 81.542 184.276 81.704 183.61 82.028 182.908 82.244 182.044 82.244 180.172 82.244 179.056 81.128 178.912 79.076L184.42 79.076C185.068 79.076 185.302 78.734 185.374 78.194 185.41 77.96 185.428 77.69 185.428 77.42 185.428 75.692 184.366 74 181.99 74 179.38 74 177.886 75.998 177.886 78.644 177.886 81.452 179.236 83.18 182.044 83.18zM184.438 78.176L178.912 78.176C179.056 76.088 180.172 74.936 181.918 74.936 183.646 74.936 184.438 76.016 184.474 77.492 184.474 77.708 184.474 77.942 184.438 78.176zM190.32 83.18C192.264 83.18 193.326 82.082 193.758 81.074L193.758 82.424C193.758 82.73 193.92 83 194.262 83 194.604 83 194.766 82.73 194.766 82.424L194.766 77.186C194.766 75.206 193.794 74 191.436 74 190.374 74 189.24 74.306 188.574 74.648 188.304 74.792 188.124 74.99 188.268 75.332 188.394 75.638 188.772 75.566 189.078 75.44 189.816 75.152 190.464 74.936 191.346 74.936 193.038 74.936 193.758 75.836 193.758 77.258L193.758 77.762C193.11 77.672 192.408 77.582 191.4 77.582 189.51 77.582 187.404 78.23 187.404 80.552 187.404 82.298 188.592 83.18 190.32 83.18zM190.446 82.244C189.132 82.244 188.448 81.542 188.448 80.516 188.448 79.022 189.762 78.482 191.544 78.482 192.498 78.482 193.02 78.554 193.758 78.662L193.758 79.004C193.758 80.39 192.696 82.244 190.446 82.244zM201.188 83.18C201.8 83.18 202.394 83.054 202.844 82.784 203.114 82.622 203.294 82.334 203.132 82.046 202.97 81.758 202.574 81.92 202.322 82.028 202.088 82.118 201.746 82.244 201.404 82.244 200.198 82.244 199.874 81.578 199.874 79.994L199.874 75.116 202.178 75.116C202.466 75.116 202.664 74.936 202.664 74.648 202.664 74.378 202.466 74.18 202.178 74.18L199.874 74.18 199.874 72.596C199.874 72.29 199.712 72.02 199.37 72.02 199.028 72.02 198.866 72.29 198.866 72.596L198.866 74.18 197.66 74.18C197.372 74.18 197.174 74.378 197.174 74.648 197.174 74.936 197.372 75.116 197.66 75.116L198.866 75.116 198.866 80.228C198.866 82.298 199.46 83.18 201.188 83.18zM208.924 83.18C209.914 83.18 210.922 82.964 211.66 82.478 211.894 82.316 212.02 82.046 211.876 81.794 211.732 81.542 211.48 81.542 211.156 81.704 210.49 82.028 209.788 82.244 208.924 82.244 207.052 82.244 205.936 81.128 205.792 79.076L211.3 79.076C211.948 79.076 212.182 78.734 212.254 78.194 212.29 77.96 212.308 77.69 212.308 77.42 212.308 75.692 211.246 74 208.87 74 206.26 74 204.766 75.998 204.766 78.644 204.766 81.452 206.116 83.18 208.924 83.18zM211.318 78.176L205.792 78.176C205.936 76.088 207.052 74.936 208.798 74.936 210.526 74.936 211.318 76.016 211.354 77.492 211.354 77.708 211.354 77.942 211.318 78.176zM338.618 83C338.978 83 339.158 82.73 339.158 82.424L339.158 78.014C339.698 78.122 340.436 78.176 341.048 78.176 343.676 78.176 345.89 77.024 345.89 74.18 345.89 71.48 344.018 70.49 341.318 70.49 340.364 70.49 339.608 70.526 338.618 70.67 338.24 70.724 338.078 71.012 338.078 71.354L338.078 82.424C338.078 82.73 338.258 83 338.618 83zM341.12 77.204C340.436 77.204 339.68 77.132 339.158 77.042L339.158 71.588C339.932 71.498 340.508 71.462 341.318 71.462 343.478 71.462 344.774 72.29 344.774 74.18 344.774 76.52 343.01 77.204 341.12 77.204zM348.946 83C349.288 83 349.45 82.73 349.45 82.424L349.45 71.156C349.45 70.85 349.288 70.58 348.946 70.58 348.604 70.58 348.442 70.85 348.442 71.156L348.442 82.424C348.442 82.73 348.604 83 348.946 83zM354.648 83.18C356.592 83.18 357.654 82.082 358.086 81.074L358.086 82.424C358.086 82.73 358.248 83 358.59 83 358.932 83 359.094 82.73 359.094 82.424L359.094 77.186C359.094 75.206 358.122 74 355.764 74 354.702 74 353.568 74.306 352.902 74.648 352.632 74.792 352.452 74.99 352.596 75.332 352.722 75.638 353.1 75.566 353.406 75.44 354.144 75.152 354.792 74.936 355.674 74.936 357.366 74.936 358.086 75.836 358.086 77.258L358.086 77.762C357.438 77.672 356.736 77.582 355.728 77.582 353.838 77.582 351.732 78.23 351.732 80.552 351.732 82.298 352.92 83.18 354.648 83.18zM354.774 82.244C353.46 82.244 352.776 81.542 352.776 80.516 352.776 79.022 354.09 78.482 355.872 78.482 356.826 78.482 357.348 78.554 358.086 78.662L358.086 79.004C358.086 80.39 357.024 82.244 354.774 82.244zM369.188 83C369.53 83 369.692 82.73 369.692 82.424L369.692 77.816C369.692 75.476 368.918 74 366.506 74 365.282 74 363.95 74.648 363.338 76.214L363.338 74.756C363.338 74.45 363.176 74.18 362.834 74.18 362.492 74.18 362.33 74.45 362.33 74.756L362.33 82.424C362.33 82.73 362.492 83 362.834 83 363.176 83 363.338 82.73 363.338 82.424L363.338 79.85C363.338 77.258 364.058 74.936 366.416 74.936 368.162 74.936 368.684 76.106 368.684 77.852L368.684 82.424C368.684 82.73 368.846 83 369.188 83zM631.67 83.18C633.182 83.18 634.568 82.658 635.324 82.1 635.648 81.848 635.882 81.542 635.648 81.236 635.414 80.948 635.108 81.074 634.802 81.272 633.92 81.848 632.966 82.208 631.76 82.208 629.024 82.208 627.116 80.21 627.116 76.826 627.116 73.766 628.79 71.372 631.832 71.372 632.912 71.372 633.812 71.642 634.604 72.128 634.982 72.362 635.306 72.416 635.486 72.128 635.666 71.84 635.522 71.552 635.18 71.318 634.388 70.778 633.308 70.4 631.868 70.4 628.214 70.4 626 73.046 626 76.808 626 80.516 627.692 83.18 631.67 83.18zM642.196 83.18C644.968 83.18 646.48 81.128 646.48 78.59 646.48 76.052 644.968 74 642.196 74 639.424 74 637.912 76.052 637.912 78.59 637.912 81.128 639.424 83.18 642.196 83.18zM642.196 82.244C640.18 82.244 638.956 80.822 638.956 78.59 638.956 76.358 640.18 74.936 642.196 74.936 644.212 74.936 645.436 76.358 645.436 78.59 645.436 80.822 644.212 82.244 642.196 82.244zM656.124 83C656.466 83 656.628 82.73 656.628 82.424L656.628 77.816C656.628 75.476 655.854 74 653.442 74 652.218 74 650.886 74.648 650.274 76.214L650.274 74.756C650.274 74.45 650.112 74.18 649.77 74.18 649.428 74.18 649.266 74.45 649.266 74.756L649.266 82.424C649.266 82.73 649.428 83 649.77 83 650.112 83 650.274 82.73 650.274 82.424L650.274 79.85C650.274 77.258 650.994 74.936 653.352 74.936 655.098 74.936 655.62 76.106 655.62 77.852L655.62 82.424C655.62 82.73 655.782 83 656.124 83zM661.232 83C661.574 83 661.736 82.73 661.736 82.424L661.736 75.116 664.04 75.116C664.328 75.116 664.526 74.936 664.526 74.648 664.526 74.378 664.328 74.18 664.04 74.18L661.736 74.18 661.736 73.478C661.736 72.146 662.276 71.336 663.446 71.336 664.094 71.336 664.526 71.48 664.85 71.588 665.102 71.678 665.372 71.696 665.498 71.426 665.624 71.156 665.516 70.94 665.282 70.796 664.976 70.616 664.346 70.4 663.518 70.4 662.546 70.4 661.826 70.688 661.376 71.246 660.908 71.84 660.728 72.704 660.728 73.964L660.728 74.18 659.522 74.18C659.234 74.18 659.036 74.378 659.036 74.648 659.036 74.936 659.234 75.116 659.522 75.116L660.728 75.116 660.728 82.424C660.728 82.73 660.89 83 661.232 83zM667.402 72.632C667.87 72.632 668.176 72.344 668.176 71.876 668.176 71.408 667.87 71.102 667.402 71.102 666.934 71.102 666.646 71.408 666.646 71.876 666.646 72.344 666.934 72.632 667.402 72.632zM667.402 83C667.744 83 667.906 82.73 667.906 82.424L667.906 74.756C667.906 74.45 667.744 74.18 667.402 74.18 667.06 74.18 666.898 74.45 666.898 74.756L666.898 82.424C666.898 82.73 667.06 83 667.402 83zM674.238 86.78C677.226 86.78 678.72 85.574 678.72 83.936 678.72 82.154 677.028 81.866 674.85 81.794 672.438 81.722 671.808 81.236 671.808 80.624 671.808 80.174 672.096 79.832 672.528 79.544 673.05 79.814 673.698 79.958 674.49 79.958 676.776 79.958 677.928 78.644 677.928 76.988 677.928 76.214 677.676 75.512 677.172 74.972L678.594 74.972C678.882 74.972 679.08 74.846 679.08 74.558 679.08 74.288 678.882 74.18 678.594 74.18L675.822 74.18C675.426 74.072 674.976 74 674.49 74 672.204 74 671.052 75.296 671.052 76.988 671.052 77.798 671.304 78.518 671.844 79.04 671.196 79.526 670.836 80.084 670.836 80.786 670.836 81.308 671.088 81.83 671.772 82.208 670.818 82.73 670.332 83.468 670.332 84.296 670.332 85.43 670.962 86.78 674.238 86.78zM674.49 79.076C672.816 79.076 672.06 78.158 672.06 76.988 672.06 75.818 672.816 74.882 674.49 74.882 676.164 74.882 676.92 75.818 676.92 76.988 676.92 78.158 676.164 79.076 674.49 79.076zM674.22 85.898C671.916 85.898 671.304 85.034 671.304 84.278 671.304 83.468 671.88 82.874 672.69 82.532 673.176 82.64 673.788 82.73 674.544 82.748 676.902 82.838 677.748 83.162 677.748 84.062 677.748 84.962 676.74 85.898 674.22 85.898zM684.422 83.18C685.646 83.18 686.978 82.532 687.59 80.966L687.59 82.424C687.59 82.73 687.752 83 688.094 83 688.436 83 688.598 82.73 688.598 82.424L688.598 74.756C688.598 74.45 688.436 74.18 688.094 74.18 687.752 74.18 687.59 74.45 687.59 74.756L687.59 77.33C687.59 79.922 686.87 82.244 684.512 82.244 682.766 82.244 682.244 81.074 682.244 79.328L682.244 74.756C682.244 74.45 682.082 74.18 681.74 74.18 681.398 74.18 681.236 74.45 681.236 74.756L681.236 79.364C681.236 81.704 682.01 83.18 684.422 83.18zM692.338 83C692.68 83 692.842 82.73 692.842 82.424L692.842 79.616C692.842 77.816 693.076 76.484 693.634 75.746 693.994 75.26 694.534 74.936 695.128 74.936 695.416 74.936 695.668 74.99 695.938 75.098 696.226 75.224 696.55 75.26 696.676 74.972 696.784 74.72 696.676 74.468 696.388 74.288 696.154 74.144 695.758 74 695.254 74 694.174 74 693.202 74.666 692.842 75.854L692.842 74.738C692.842 74.432 692.68 74.18 692.338 74.18 691.996 74.18 691.834 74.432 691.834 74.738L691.834 82.424C691.834 82.73 691.996 83 692.338 83zM701.964 83.18C702.954 83.18 703.962 82.964 704.7 82.478 704.934 82.316 705.06 82.046 704.916 81.794 704.772 81.542 704.52 81.542 704.196 81.704 703.53 82.028 702.828 82.244 701.964 82.244 700.092 82.244 698.976 81.128 698.832 79.076L704.34 79.076C704.988 79.076 705.222 78.734 705.294 78.194 705.33 77.96 705.348 77.69 705.348 77.42 705.348 75.692 704.286 74 701.91 74 699.3 74 697.806 75.998 697.806 78.644 697.806 81.452 699.156 83.18 701.964 83.18zM704.358 78.176L698.832 78.176C698.976 76.088 700.092 74.936 701.838 74.936 703.566 74.936 704.358 76.016 704.394 77.492 704.394 77.708 704.394 77.942 704.358 78.176z"/>
    <path fill="#FFF" fill-rule="nonzero" d="M458.349,109 C458.691,109 458.853,108.748 458.853,108.478 C458.853,108.37 458.835,108.262 458.799,108.154 L454.281,96.832 C454.173,96.58 454.011,96.4 453.723,96.4 C453.453,96.4 453.255,96.544 453.111,96.904 L448.719,108.136 C448.665,108.28 448.629,108.406 448.629,108.532 C448.629,108.766 448.809,109 449.133,109 C449.421,109 449.583,108.748 449.691,108.46 L450.969,105.04 L456.423,105.04 L457.809,108.586 C457.917,108.856 458.115,109 458.349,109 Z M456.063,104.068 L451.347,104.068 L453.669,98.02 L456.063,104.068 Z M464.213,109.18 C465.779,109.18 466.913,108.424 467.489,106.966 L467.489,108.424 C467.489,108.73 467.651,109 467.993,109 C468.335,109 468.497,108.73 468.497,108.424 L468.497,97.156 C468.497,96.85 468.335,96.58 467.993,96.58 C467.651,96.58 467.489,96.85 467.489,97.156 L467.489,100.558 C466.805,100.18 465.941,100 464.987,100 C462.017,100 460.757,102.25 460.757,104.86 C460.757,107.38 461.891,109.18 464.213,109.18 Z M464.357,108.244 C462.557,108.244 461.801,106.822 461.801,104.86 C461.801,102.772 462.575,100.936 464.969,100.936 C465.923,100.936 466.715,101.116 467.489,101.566 L467.489,103.33 C467.489,105.562 466.985,108.244 464.357,108.244 Z M473.839,109.18 C475.783,109.18 476.845,108.082 477.277,107.074 L477.277,108.424 C477.277,108.73 477.439,109 477.781,109 C478.123,109 478.285,108.73 478.285,108.424 L478.285,103.186 C478.285,101.206 477.313,100 474.955,100 C473.893,100 472.759,100.306 472.093,100.648 C471.823,100.792 471.643,100.99 471.787,101.332 C471.913,101.638 472.291,101.566 472.597,101.44 C473.335,101.152 473.983,100.936 474.865,100.936 C476.557,100.936 477.277,101.836 477.277,103.258 L477.277,103.762 C476.629,103.672 475.927,103.582 474.919,103.582 C473.029,103.582 470.923,104.23 470.923,106.552 C470.923,108.298 472.111,109.18 473.839,109.18 Z M473.965,108.244 C472.651,108.244 471.967,107.542 471.967,106.516 C471.967,105.022 473.281,104.482 475.063,104.482 C476.017,104.482 476.539,104.554 477.277,104.662 L477.277,105.004 C477.277,106.39 476.215,108.244 473.965,108.244 Z M482.025,112.6 C482.367,112.6 482.529,112.33 482.529,112.024 L482.529,108.622 C483.213,109 484.077,109.18 485.031,109.18 C488.001,109.18 489.261,106.93 489.261,104.32 C489.261,101.8 488.127,100 485.805,100 C484.239,100 483.105,100.756 482.529,102.214 L482.529,100.756 C482.529,100.45 482.367,100.18 482.025,100.18 C481.683,100.18 481.521,100.45 481.521,100.756 L481.521,112.024 C481.521,112.33 481.683,112.6 482.025,112.6 Z M485.049,108.244 C484.095,108.244 483.303,108.064 482.529,107.614 L482.529,105.85 C482.529,103.618 483.033,100.936 485.661,100.936 C487.461,100.936 488.217,102.358 488.217,104.32 C488.217,106.408 487.443,108.244 485.049,108.244 Z M495.233,109.18 C495.845,109.18 496.439,109.054 496.889,108.784 C497.159,108.622 497.339,108.334 497.177,108.046 C497.015,107.758 496.619,107.92 496.367,108.028 C496.133,108.118 495.791,108.244 495.449,108.244 C494.243,108.244 493.919,107.578 493.919,105.994 L493.919,101.116 L496.223,101.116 C496.511,101.116 496.709,100.936 496.709,100.648 C496.709,100.378 496.511,100.18 496.223,100.18 L493.919,100.18 L493.919,98.596 C493.919,98.29 493.757,98.02 493.415,98.02 C493.073,98.02 492.911,98.29 492.911,98.596 L492.911,100.18 L491.705,100.18 C491.417,100.18 491.219,100.378 491.219,100.648 C491.219,100.936 491.417,101.116 491.705,101.116 L492.911,101.116 L492.911,106.228 C492.911,108.298 493.505,109.18 495.233,109.18 Z" transform="rotate(40 472.934 104.5)"/>
    <path fill="#FFF" fill-rule="nonzero" d="M491,188 C491.27,188 491.504,187.766 491.504,187.496 C491.504,187.352 491.45,187.19 491.36,187.046 L488.48,182.492 C490.01,181.97 491.036,180.818 491.036,178.964 C491.036,176.264 488.966,175.49 486.554,175.49 C485.6,175.49 484.88,175.526 483.998,175.67 C483.638,175.724 483.476,175.958 483.476,176.3 L483.476,187.424 C483.476,187.73 483.656,188 484.016,188 C484.376,188 484.556,187.73 484.556,187.424 L484.556,182.726 C485.168,182.816 485.762,182.834 486.248,182.834 C486.626,182.834 487.004,182.816 487.346,182.762 L490.406,187.586 C490.55,187.838 490.766,188 491,188 Z M486.176,181.898 C485.762,181.898 485.132,181.862 484.556,181.79 L484.556,176.57 C485.186,176.516 485.672,176.462 486.446,176.462 C488.462,176.462 489.92,177.002 489.92,178.982 C489.92,180.98 488.786,181.898 486.176,181.898 Z M497.548,188.18 C498.538,188.18 499.546,187.964 500.284,187.478 C500.518,187.316 500.644,187.046 500.5,186.794 C500.356,186.542 500.104,186.542 499.78,186.704 C499.114,187.028 498.412,187.244 497.548,187.244 C495.676,187.244 494.56,186.128 494.416,184.076 L499.924,184.076 C500.572,184.076 500.806,183.734 500.878,183.194 C500.914,182.96 500.932,182.69 500.932,182.42 C500.932,180.692 499.87,179 497.494,179 C494.884,179 493.39,180.998 493.39,183.644 C493.39,186.452 494.74,188.18 497.548,188.18 Z M499.942,183.176 L494.416,183.176 C494.56,181.088 495.676,179.936 497.422,179.936 C499.15,179.936 499.942,181.016 499.978,182.492 C499.978,182.708 499.978,182.942 499.942,183.176 Z M504.078,188 C504.42,188 504.582,187.73 504.582,187.424 L504.582,176.156 C504.582,175.85 504.42,175.58 504.078,175.58 C503.736,175.58 503.574,175.85 503.574,176.156 L503.574,187.424 C503.574,187.73 503.736,188 504.078,188 Z M511.202,188.18 C512.192,188.18 513.2,187.964 513.938,187.478 C514.172,187.316 514.298,187.046 514.154,186.794 C514.01,186.542 513.758,186.542 513.434,186.704 C512.768,187.028 512.066,187.244 511.202,187.244 C509.33,187.244 508.214,186.128 508.07,184.076 L513.578,184.076 C514.226,184.076 514.46,183.734 514.532,183.194 C514.568,182.96 514.586,182.69 514.586,182.42 C514.586,180.692 513.524,179 511.148,179 C508.538,179 507.044,180.998 507.044,183.644 C507.044,186.452 508.394,188.18 511.202,188.18 Z M513.596,183.176 L508.07,183.176 C508.214,181.088 509.33,179.936 511.076,179.936 C512.804,179.936 513.596,181.016 513.632,182.492 C513.632,182.708 513.632,182.942 513.596,183.176 Z M519.478,188.18 C521.422,188.18 522.484,187.082 522.916,186.074 L522.916,187.424 C522.916,187.73 523.078,188 523.42,188 C523.762,188 523.924,187.73 523.924,187.424 L523.924,182.186 C523.924,180.206 522.952,179 520.594,179 C519.532,179 518.398,179.306 517.732,179.648 C517.462,179.792 517.282,179.99 517.426,180.332 C517.552,180.638 517.93,180.566 518.236,180.44 C518.974,180.152 519.622,179.936 520.504,179.936 C522.196,179.936 522.916,180.836 522.916,182.258 L522.916,182.762 C522.268,182.672 521.566,182.582 520.558,182.582 C518.668,182.582 516.562,183.23 516.562,185.552 C516.562,187.298 517.75,188.18 519.478,188.18 Z M519.604,187.244 C518.29,187.244 517.606,186.542 517.606,185.516 C517.606,184.022 518.92,183.482 520.702,183.482 C521.656,183.482 522.178,183.554 522.916,183.662 L522.916,184.004 C522.916,185.39 521.854,187.244 519.604,187.244 Z M529.608,188.18 C531.804,188.18 533.046,187.1 533.046,185.57 C533.046,182.24 527.916,183.608 527.916,181.268 C527.916,180.458 528.528,179.936 529.824,179.936 C530.706,179.936 531.372,180.206 531.984,180.476 C532.272,180.602 532.56,180.62 532.686,180.35 C532.848,180.026 532.65,179.774 532.326,179.594 C531.732,179.252 530.814,179 529.842,179 C528.06,179 526.872,179.846 526.872,181.376 C526.872,184.616 532.002,183.266 532.002,185.66 C532.002,186.632 531.066,187.244 529.752,187.244 C528.906,187.244 528.204,187.082 527.376,186.686 C527.106,186.56 526.782,186.452 526.602,186.758 C526.44,187.028 526.584,187.298 526.872,187.496 C527.538,187.946 528.69,188.18 529.608,188.18 Z M539.36,188.18 C540.35,188.18 541.358,187.964 542.096,187.478 C542.33,187.316 542.456,187.046 542.312,186.794 C542.168,186.542 541.916,186.542 541.592,186.704 C540.926,187.028 540.224,187.244 539.36,187.244 C537.488,187.244 536.372,186.128 536.228,184.076 L541.736,184.076 C542.384,184.076 542.618,183.734 542.69,183.194 C542.726,182.96 542.744,182.69 542.744,182.42 C542.744,180.692 541.682,179 539.306,179 C536.696,179 535.202,180.998 535.202,183.644 C535.202,186.452 536.552,188.18 539.36,188.18 Z M541.754,183.176 L536.228,183.176 C536.372,181.088 537.488,179.936 539.234,179.936 C540.962,179.936 541.754,181.016 541.79,182.492 C541.79,182.708 541.79,182.942 541.754,183.176 Z" transform="rotate(-80 513.11 181.835)"/>
    <path fill="#FFF" fill-rule="nonzero" d="M813.981 83.09C818.175 83.09 820.335 80.714 820.335 76.736 820.335 72.578 818.211 70.49 813.963 70.49 812.667 70.49 811.569 70.598 810.849 70.742 810.489 70.814 810.309 71.12 810.309 71.444L810.309 82.28C810.309 82.586 810.489 82.838 810.849 82.892 811.713 83.036 812.433 83.09 813.981 83.09zM813.873 82.118C812.811 82.118 812.343 82.082 811.389 81.974L811.389 71.624C812.109 71.534 812.757 71.462 813.891 71.462 817.581 71.462 819.219 73.334 819.219 76.736 819.219 80.138 817.545 82.118 813.873 82.118zM827.009 83.18C827.999 83.18 829.007 82.964 829.745 82.478 829.979 82.316 830.105 82.046 829.961 81.794 829.817 81.542 829.565 81.542 829.241 81.704 828.575 82.028 827.873 82.244 827.009 82.244 825.137 82.244 824.021 81.128 823.877 79.076L829.385 79.076C830.033 79.076 830.267 78.734 830.339 78.194 830.375 77.96 830.393 77.69 830.393 77.42 830.393 75.692 829.331 74 826.955 74 824.345 74 822.851 75.998 822.851 78.644 822.851 81.452 824.201 83.18 827.009 83.18zM829.403 78.176L823.877 78.176C824.021 76.088 825.137 74.936 826.883 74.936 828.611 74.936 829.403 76.016 829.439 77.492 829.439 77.708 829.439 77.942 829.403 78.176zM836.365 83.18C836.977 83.18 837.571 83.054 838.021 82.784 838.291 82.622 838.471 82.334 838.309 82.046 838.147 81.758 837.751 81.92 837.499 82.028 837.265 82.118 836.923 82.244 836.581 82.244 835.375 82.244 835.051 81.578 835.051 79.994L835.051 75.116 837.355 75.116C837.643 75.116 837.841 74.936 837.841 74.648 837.841 74.378 837.643 74.18 837.355 74.18L835.051 74.18 835.051 72.596C835.051 72.29 834.889 72.02 834.547 72.02 834.205 72.02 834.043 72.29 834.043 72.596L834.043 74.18 832.837 74.18C832.549 74.18 832.351 74.378 832.351 74.648 832.351 74.936 832.549 75.116 832.837 75.116L834.043 75.116 834.043 80.228C834.043 82.298 834.637 83.18 836.365 83.18zM844.101 83.18C845.091 83.18 846.099 82.964 846.837 82.478 847.071 82.316 847.197 82.046 847.053 81.794 846.909 81.542 846.657 81.542 846.333 81.704 845.667 82.028 844.965 82.244 844.101 82.244 842.229 82.244 841.113 81.128 840.969 79.076L846.477 79.076C847.125 79.076 847.359 78.734 847.431 78.194 847.467 77.96 847.485 77.69 847.485 77.42 847.485 75.692 846.423 74 844.047 74 841.437 74 839.943 75.998 839.943 78.644 839.943 81.452 841.293 83.18 844.101 83.18zM846.495 78.176L840.969 78.176C841.113 76.088 842.229 74.936 843.975 74.936 845.703 74.936 846.495 76.016 846.531 77.492 846.531 77.708 846.531 77.942 846.495 78.176zM853.925 83.18C855.023 83.18 856.067 82.82 856.733 82.352 857.075 82.118 857.165 81.812 857.003 81.578 856.841 81.344 856.589 81.362 856.139 81.632 855.473 82.028 854.807 82.244 853.925 82.244 851.981 82.244 850.865 80.93 850.865 78.662 850.865 76.376 852.287 74.936 854.105 74.936 854.987 74.936 855.419 75.134 856.031 75.404 856.391 75.566 856.625 75.53 856.769 75.296 856.931 75.026 856.823 74.756 856.481 74.558 855.923 74.234 855.167 74 854.213 74 851.657 74 849.821 75.836 849.821 78.644 849.821 81.542 851.243 83.18 853.925 83.18zM862.723 83.18C863.335 83.18 863.929 83.054 864.379 82.784 864.649 82.622 864.829 82.334 864.667 82.046 864.505 81.758 864.109 81.92 863.857 82.028 863.623 82.118 863.281 82.244 862.939 82.244 861.733 82.244 861.409 81.578 861.409 79.994L861.409 75.116 863.713 75.116C864.001 75.116 864.199 74.936 864.199 74.648 864.199 74.378 864.001 74.18 863.713 74.18L861.409 74.18 861.409 72.596C861.409 72.29 861.247 72.02 860.905 72.02 860.563 72.02 860.401 72.29 860.401 72.596L860.401 74.18 859.195 74.18C858.907 74.18 858.709 74.378 858.709 74.648 858.709 74.936 858.907 75.116 859.195 75.116L860.401 75.116 860.401 80.228C860.401 82.298 860.995 83.18 862.723 83.18zM810.383 308C810.653 308 810.887 307.766 810.887 307.496 810.887 307.352 810.833 307.19 810.743 307.046L807.863 302.492C809.393 301.97 810.419 300.818 810.419 298.964 810.419 296.264 808.349 295.49 805.937 295.49 804.983 295.49 804.263 295.526 803.381 295.67 803.021 295.724 802.859 295.958 802.859 296.3L802.859 307.424C802.859 307.73 803.039 308 803.399 308 803.759 308 803.939 307.73 803.939 307.424L803.939 302.726C804.551 302.816 805.145 302.834 805.631 302.834 806.009 302.834 806.387 302.816 806.729 302.762L809.789 307.586C809.933 307.838 810.149 308 810.383 308zM805.559 301.898C805.145 301.898 804.515 301.862 803.939 301.79L803.939 296.57C804.569 296.516 805.055 296.462 805.829 296.462 807.845 296.462 809.303 297.002 809.303 298.982 809.303 300.98 808.169 301.898 805.559 301.898zM816.931 308.18C817.921 308.18 818.929 307.964 819.667 307.478 819.901 307.316 820.027 307.046 819.883 306.794 819.739 306.542 819.487 306.542 819.163 306.704 818.497 307.028 817.795 307.244 816.931 307.244 815.059 307.244 813.943 306.128 813.799 304.076L819.307 304.076C819.955 304.076 820.189 303.734 820.261 303.194 820.297 302.96 820.315 302.69 820.315 302.42 820.315 300.692 819.253 299 816.877 299 814.267 299 812.773 300.998 812.773 303.644 812.773 306.452 814.123 308.18 816.931 308.18zM819.325 303.176L813.799 303.176C813.943 301.088 815.059 299.936 816.805 299.936 818.533 299.936 819.325 301.016 819.361 302.492 819.361 302.708 819.361 302.942 819.325 303.176zM825.549 308.18C827.745 308.18 828.987 307.1 828.987 305.57 828.987 302.24 823.857 303.608 823.857 301.268 823.857 300.458 824.469 299.936 825.765 299.936 826.647 299.936 827.313 300.206 827.925 300.476 828.213 300.602 828.501 300.62 828.627 300.35 828.789 300.026 828.591 299.774 828.267 299.594 827.673 299.252 826.755 299 825.783 299 824.001 299 822.813 299.846 822.813 301.376 822.813 304.616 827.943 303.266 827.943 305.66 827.943 306.632 827.007 307.244 825.693 307.244 824.847 307.244 824.145 307.082 823.317 306.686 823.047 306.56 822.723 306.452 822.543 306.758 822.381 307.028 822.525 307.298 822.813 307.496 823.479 307.946 824.631 308.18 825.549 308.18zM832.097 311.6C832.439 311.6 832.601 311.33 832.601 311.024L832.601 307.622C833.285 308 834.149 308.18 835.103 308.18 838.073 308.18 839.333 305.93 839.333 303.32 839.333 300.8 838.199 299 835.877 299 834.311 299 833.177 299.756 832.601 301.214L832.601 299.756C832.601 299.45 832.439 299.18 832.097 299.18 831.755 299.18 831.593 299.45 831.593 299.756L831.593 311.024C831.593 311.33 831.755 311.6 832.097 311.6zM835.121 307.244C834.167 307.244 833.375 307.064 832.601 306.614L832.601 304.85C832.601 302.618 833.105 299.936 835.733 299.936 837.533 299.936 838.289 301.358 838.289 303.32 838.289 305.408 837.515 307.244 835.121 307.244zM845.953 308.18C848.725 308.18 850.237 306.128 850.237 303.59 850.237 301.052 848.725 299 845.953 299 843.181 299 841.669 301.052 841.669 303.59 841.669 306.128 843.181 308.18 845.953 308.18zM845.953 307.244C843.937 307.244 842.713 305.822 842.713 303.59 842.713 301.358 843.937 299.936 845.953 299.936 847.969 299.936 849.193 301.358 849.193 303.59 849.193 305.822 847.969 307.244 845.953 307.244zM859.881 308C860.223 308 860.385 307.73 860.385 307.424L860.385 302.816C860.385 300.476 859.611 299 857.199 299 855.975 299 854.643 299.648 854.031 301.214L854.031 299.756C854.031 299.45 853.869 299.18 853.527 299.18 853.185 299.18 853.023 299.45 853.023 299.756L853.023 307.424C853.023 307.73 853.185 308 853.527 308 853.869 308 854.031 307.73 854.031 307.424L854.031 304.85C854.031 302.258 854.751 299.936 857.109 299.936 858.855 299.936 859.377 301.106 859.377 302.852L859.377 307.424C859.377 307.73 859.539 308 859.881 308zM866.627 308.18C868.193 308.18 869.327 307.424 869.903 305.966L869.903 307.424C869.903 307.73 870.065 308 870.407 308 870.749 308 870.911 307.73 870.911 307.424L870.911 296.156C870.911 295.85 870.749 295.58 870.407 295.58 870.065 295.58 869.903 295.85 869.903 296.156L869.903 299.558C869.219 299.18 868.355 299 867.401 299 864.431 299 863.171 301.25 863.171 303.86 863.171 306.38 864.305 308.18 866.627 308.18zM866.771 307.244C864.971 307.244 864.215 305.822 864.215 303.86 864.215 301.772 864.989 299.936 867.383 299.936 868.337 299.936 869.129 300.116 869.903 300.566L869.903 302.33C869.903 304.562 869.399 307.244 866.771 307.244zM628.086 308C628.446 308 628.626 307.73 628.626 307.424L628.626 303.014C629.166 303.122 629.904 303.176 630.516 303.176 633.144 303.176 635.358 302.024 635.358 299.18 635.358 296.48 633.486 295.49 630.786 295.49 629.832 295.49 629.076 295.526 628.086 295.67 627.708 295.724 627.546 296.012 627.546 296.354L627.546 307.424C627.546 307.73 627.726 308 628.086 308zM630.588 302.204C629.904 302.204 629.148 302.132 628.626 302.042L628.626 296.588C629.4 296.498 629.976 296.462 630.786 296.462 632.946 296.462 634.242 297.29 634.242 299.18 634.242 301.52 632.478 302.204 630.588 302.204zM638.468 308C638.81 308 638.972 307.73 638.972 307.424L638.972 304.616C638.972 302.816 639.206 301.484 639.764 300.746 640.124 300.26 640.664 299.936 641.258 299.936 641.546 299.936 641.798 299.99 642.068 300.098 642.356 300.224 642.68 300.26 642.806 299.972 642.914 299.72 642.806 299.468 642.518 299.288 642.284 299.144 641.888 299 641.384 299 640.304 299 639.332 299.666 638.972 300.854L638.972 299.738C638.972 299.432 638.81 299.18 638.468 299.18 638.126 299.18 637.964 299.432 637.964 299.738L637.964 307.424C637.964 307.73 638.126 308 638.468 308zM648.094 308.18C649.084 308.18 650.092 307.964 650.83 307.478 651.064 307.316 651.19 307.046 651.046 306.794 650.902 306.542 650.65 306.542 650.326 306.704 649.66 307.028 648.958 307.244 648.094 307.244 646.222 307.244 645.106 306.128 644.962 304.076L650.47 304.076C651.118 304.076 651.352 303.734 651.424 303.194 651.46 302.96 651.478 302.69 651.478 302.42 651.478 300.692 650.416 299 648.04 299 645.43 299 643.936 300.998 643.936 303.644 643.936 306.452 645.286 308.18 648.094 308.18zM650.488 303.176L644.962 303.176C645.106 301.088 646.222 299.936 647.968 299.936 649.696 299.936 650.488 301.016 650.524 302.492 650.524 302.708 650.524 302.942 650.488 303.176zM657.27 308.18C658.836 308.18 659.97 307.424 660.546 305.966L660.546 307.424C660.546 307.73 660.708 308 661.05 308 661.392 308 661.554 307.73 661.554 307.424L661.554 296.156C661.554 295.85 661.392 295.58 661.05 295.58 660.708 295.58 660.546 295.85 660.546 296.156L660.546 299.558C659.862 299.18 658.998 299 658.044 299 655.074 299 653.814 301.25 653.814 303.86 653.814 306.38 654.948 308.18 657.27 308.18zM657.414 307.244C655.614 307.244 654.858 305.822 654.858 303.86 654.858 301.772 655.632 299.936 658.026 299.936 658.98 299.936 659.772 300.116 660.546 300.566L660.546 302.33C660.546 304.562 660.042 307.244 657.414 307.244zM665.294 297.632C665.762 297.632 666.068 297.344 666.068 296.876 666.068 296.408 665.762 296.102 665.294 296.102 664.826 296.102 664.538 296.408 664.538 296.876 664.538 297.344 664.826 297.632 665.294 297.632zM665.294 308C665.636 308 665.798 307.73 665.798 307.424L665.798 299.756C665.798 299.45 665.636 299.18 665.294 299.18 664.952 299.18 664.79 299.45 664.79 299.756L664.79 307.424C664.79 307.73 664.952 308 665.294 308zM672.688 308.18C673.786 308.18 674.83 307.82 675.496 307.352 675.838 307.118 675.928 306.812 675.766 306.578 675.604 306.344 675.352 306.362 674.902 306.632 674.236 307.028 673.57 307.244 672.688 307.244 670.744 307.244 669.628 305.93 669.628 303.662 669.628 301.376 671.05 299.936 672.868 299.936 673.75 299.936 674.182 300.134 674.794 300.404 675.154 300.566 675.388 300.53 675.532 300.296 675.694 300.026 675.586 299.756 675.244 299.558 674.686 299.234 673.93 299 672.976 299 670.42 299 668.584 300.836 668.584 303.644 668.584 306.542 670.006 308.18 672.688 308.18zM681.486 308.18C682.098 308.18 682.692 308.054 683.142 307.784 683.412 307.622 683.592 307.334 683.43 307.046 683.268 306.758 682.872 306.92 682.62 307.028 682.386 307.118 682.044 307.244 681.702 307.244 680.496 307.244 680.172 306.578 680.172 304.994L680.172 300.116 682.476 300.116C682.764 300.116 682.962 299.936 682.962 299.648 682.962 299.378 682.764 299.18 682.476 299.18L680.172 299.18 680.172 297.596C680.172 297.29 680.01 297.02 679.668 297.02 679.326 297.02 679.164 297.29 679.164 297.596L679.164 299.18 677.958 299.18C677.67 299.18 677.472 299.378 677.472 299.648 677.472 299.936 677.67 300.116 677.958 300.116L679.164 300.116 679.164 305.228C679.164 307.298 679.758 308.18 681.486 308.18zM307.11 308C307.47 308 307.65 307.73 307.65 307.424L307.65 303.014C308.19 303.122 308.928 303.176 309.54 303.176 312.168 303.176 314.382 302.024 314.382 299.18 314.382 296.48 312.51 295.49 309.81 295.49 308.856 295.49 308.1 295.526 307.11 295.67 306.732 295.724 306.57 296.012 306.57 296.354L306.57 307.424C306.57 307.73 306.75 308 307.11 308zM309.612 302.204C308.928 302.204 308.172 302.132 307.65 302.042L307.65 296.588C308.424 296.498 309 296.462 309.81 296.462 311.97 296.462 313.266 297.29 313.266 299.18 313.266 301.52 311.502 302.204 309.612 302.204zM317.492 308C317.834 308 317.996 307.73 317.996 307.424L317.996 304.616C317.996 302.816 318.23 301.484 318.788 300.746 319.148 300.26 319.688 299.936 320.282 299.936 320.57 299.936 320.822 299.99 321.092 300.098 321.38 300.224 321.704 300.26 321.83 299.972 321.938 299.72 321.83 299.468 321.542 299.288 321.308 299.144 320.912 299 320.408 299 319.328 299 318.356 299.666 317.996 300.854L317.996 299.738C317.996 299.432 317.834 299.18 317.492 299.18 317.15 299.18 316.988 299.432 316.988 299.738L316.988 307.424C316.988 307.73 317.15 308 317.492 308zM327.118 308.18C328.108 308.18 329.116 307.964 329.854 307.478 330.088 307.316 330.214 307.046 330.07 306.794 329.926 306.542 329.674 306.542 329.35 306.704 328.684 307.028 327.982 307.244 327.118 307.244 325.246 307.244 324.13 306.128 323.986 304.076L329.494 304.076C330.142 304.076 330.376 303.734 330.448 303.194 330.484 302.96 330.502 302.69 330.502 302.42 330.502 300.692 329.44 299 327.064 299 324.454 299 322.96 300.998 322.96 303.644 322.96 306.452 324.31 308.18 327.118 308.18zM329.512 303.176L323.986 303.176C324.13 301.088 325.246 299.936 326.992 299.936 328.72 299.936 329.512 301.016 329.548 302.492 329.548 302.708 329.548 302.942 329.512 303.176zM333.792 311.6C334.134 311.6 334.296 311.33 334.296 311.024L334.296 307.622C334.98 308 335.844 308.18 336.798 308.18 339.768 308.18 341.028 305.93 341.028 303.32 341.028 300.8 339.894 299 337.572 299 336.006 299 334.872 299.756 334.296 301.214L334.296 299.756C334.296 299.45 334.134 299.18 333.792 299.18 333.45 299.18 333.288 299.45 333.288 299.756L333.288 311.024C333.288 311.33 333.45 311.6 333.792 311.6zM336.816 307.244C335.862 307.244 335.07 307.064 334.296 306.614L334.296 304.85C334.296 302.618 334.8 299.936 337.428 299.936 339.228 299.936 339.984 301.358 339.984 303.32 339.984 305.408 339.21 307.244 336.816 307.244zM344.318 308C344.66 308 344.822 307.73 344.822 307.424L344.822 304.616C344.822 302.816 345.056 301.484 345.614 300.746 345.974 300.26 346.514 299.936 347.108 299.936 347.396 299.936 347.648 299.99 347.918 300.098 348.206 300.224 348.53 300.26 348.656 299.972 348.764 299.72 348.656 299.468 348.368 299.288 348.134 299.144 347.738 299 347.234 299 346.154 299 345.182 299.666 344.822 300.854L344.822 299.738C344.822 299.432 344.66 299.18 344.318 299.18 343.976 299.18 343.814 299.432 343.814 299.738L343.814 307.424C343.814 307.73 343.976 308 344.318 308zM354.07 308.18C356.842 308.18 358.354 306.128 358.354 303.59 358.354 301.052 356.842 299 354.07 299 351.298 299 349.786 301.052 349.786 303.59 349.786 306.128 351.298 308.18 354.07 308.18zM354.07 307.244C352.054 307.244 350.83 305.822 350.83 303.59 350.83 301.358 352.054 299.936 354.07 299.936 356.086 299.936 357.31 301.358 357.31 303.59 357.31 305.822 356.086 307.244 354.07 307.244zM364.146 308.18C365.712 308.18 366.846 307.424 367.422 305.966L367.422 307.424C367.422 307.73 367.584 308 367.926 308 368.268 308 368.43 307.73 368.43 307.424L368.43 296.156C368.43 295.85 368.268 295.58 367.926 295.58 367.584 295.58 367.422 295.85 367.422 296.156L367.422 299.558C366.738 299.18 365.874 299 364.92 299 361.95 299 360.69 301.25 360.69 303.86 360.69 306.38 361.824 308.18 364.146 308.18zM364.29 307.244C362.49 307.244 361.734 305.822 361.734 303.86 361.734 301.772 362.508 299.936 364.902 299.936 365.856 299.936 366.648 300.116 367.422 300.566L367.422 302.33C367.422 304.562 366.918 307.244 364.29 307.244zM374.852 308.18C376.076 308.18 377.408 307.532 378.02 305.966L378.02 307.424C378.02 307.73 378.182 308 378.524 308 378.866 308 379.028 307.73 379.028 307.424L379.028 299.756C379.028 299.45 378.866 299.18 378.524 299.18 378.182 299.18 378.02 299.45 378.02 299.756L378.02 302.33C378.02 304.922 377.3 307.244 374.942 307.244 373.196 307.244 372.674 306.074 372.674 304.328L372.674 299.756C372.674 299.45 372.512 299.18 372.17 299.18 371.828 299.18 371.666 299.45 371.666 299.756L371.666 304.364C371.666 306.704 372.44 308.18 374.852 308.18zM385.918 308.18C387.016 308.18 388.06 307.82 388.726 307.352 389.068 307.118 389.158 306.812 388.996 306.578 388.834 306.344 388.582 306.362 388.132 306.632 387.466 307.028 386.8 307.244 385.918 307.244 383.974 307.244 382.858 305.93 382.858 303.662 382.858 301.376 384.28 299.936 386.098 299.936 386.98 299.936 387.412 300.134 388.024 300.404 388.384 300.566 388.618 300.53 388.762 300.296 388.924 300.026 388.816 299.756 388.474 299.558 387.916 299.234 387.16 299 386.206 299 383.65 299 381.814 300.836 381.814 303.644 381.814 306.542 383.236 308.18 385.918 308.18zM394.716 308.18C395.328 308.18 395.922 308.054 396.372 307.784 396.642 307.622 396.822 307.334 396.66 307.046 396.498 306.758 396.102 306.92 395.85 307.028 395.616 307.118 395.274 307.244 394.932 307.244 393.726 307.244 393.402 306.578 393.402 304.994L393.402 300.116 395.706 300.116C395.994 300.116 396.192 299.936 396.192 299.648 396.192 299.378 395.994 299.18 395.706 299.18L393.402 299.18 393.402 297.596C393.402 297.29 393.24 297.02 392.898 297.02 392.556 297.02 392.394 297.29 392.394 297.596L392.394 299.18 391.188 299.18C390.9 299.18 390.702 299.378 390.702 299.648 390.702 299.936 390.9 300.116 391.188 300.116L392.394 300.116 392.394 305.228C392.394 307.298 392.988 308.18 394.716 308.18zM399.194 297.632C399.662 297.632 399.968 297.344 399.968 296.876 399.968 296.408 399.662 296.102 399.194 296.102 398.726 296.102 398.438 296.408 398.438 296.876 398.438 297.344 398.726 297.632 399.194 297.632zM399.194 308C399.536 308 399.698 307.73 399.698 307.424L399.698 299.756C399.698 299.45 399.536 299.18 399.194 299.18 398.852 299.18 398.69 299.45 398.69 299.756L398.69 307.424C398.69 307.73 398.852 308 399.194 308zM406.768 308.18C409.54 308.18 411.052 306.128 411.052 303.59 411.052 301.052 409.54 299 406.768 299 403.996 299 402.484 301.052 402.484 303.59 402.484 306.128 403.996 308.18 406.768 308.18zM406.768 307.244C404.752 307.244 403.528 305.822 403.528 303.59 403.528 301.358 404.752 299.936 406.768 299.936 408.784 299.936 410.008 301.358 410.008 303.59 410.008 305.822 408.784 307.244 406.768 307.244zM420.696 308C421.038 308 421.2 307.73 421.2 307.424L421.2 302.816C421.2 300.476 420.426 299 418.014 299 416.79 299 415.458 299.648 414.846 301.214L414.846 299.756C414.846 299.45 414.684 299.18 414.342 299.18 414 299.18 413.838 299.45 413.838 299.756L413.838 307.424C413.838 307.73 414 308 414.342 308 414.684 308 414.846 307.73 414.846 307.424L414.846 304.85C414.846 302.258 415.566 299.936 417.924 299.936 419.67 299.936 420.192 301.106 420.192 302.852L420.192 307.424C420.192 307.73 420.354 308 420.696 308z"/>
    <path fill="#000" fill-rule="nonzero" d="M385.386 153.09C389.616 153.09 391.722 150.588 391.722 146.736 391.722 142.65 389.598 140.49 385.368 140.49 384.162 140.49 383.028 140.598 382.344 140.742 381.588 140.886 381.354 141.372 381.354 141.984L381.354 151.758C381.354 152.388 381.66 152.784 382.362 152.91 383.208 153.054 384.09 153.09 385.386 153.09zM385.386 151.164C384.63 151.164 384.144 151.146 383.514 151.074L383.514 142.524C384.036 142.47 384.648 142.416 385.368 142.416 388.194 142.416 389.454 143.946 389.454 146.736 389.454 149.544 388.23 151.164 385.386 151.164zM398.18 153.18C399.206 153.18 400.25 153 401.024 152.478 401.492 152.172 401.6 151.704 401.402 151.326 401.204 150.984 400.862 150.84 400.286 151.074 399.728 151.308 399.152 151.542 398.378 151.542 396.992 151.542 396.092 150.696 396.038 149.328L400.628 149.328C401.348 149.328 401.654 149.022 401.816 148.428 401.87 148.23 401.906 147.834 401.906 147.582 401.906 145.476 400.574 144 398.216 144 395.624 144 394.022 145.836 394.022 148.626 394.022 151.524 395.48 153.18 398.18 153.18zM400.016 147.906L396.038 147.906C396.164 146.448 396.938 145.638 398.216 145.638 399.458 145.638 400.034 146.43 400.034 147.456 400.034 147.618 400.034 147.726 400.016 147.906zM407.32 153.18C407.878 153.18 408.094 152.784 408.274 152.352L411.064 145.656C411.154 145.458 411.208 145.26 411.208 145.062 411.208 144.648 410.92 144.18 410.254 144.18 409.84 144.18 409.552 144.468 409.336 145.044L407.338 150.174 405.358 144.99C405.16 144.486 404.854 144.18 404.404 144.18 403.702 144.18 403.396 144.72 403.396 145.188 403.396 145.404 403.45 145.62 403.54 145.8L406.366 152.406C406.582 152.91 406.87 153.18 407.32 153.18zM609.088 153.18C612.994 153.18 615.01 150.372 615.01 146.79 615.01 143.226 612.994 140.4 609.088 140.4 605.182 140.4 603.184 143.226 603.184 146.79 603.184 150.372 605.182 153.18 609.088 153.18zM609.088 151.254C606.658 151.254 605.452 149.292 605.452 146.79 605.452 144.306 606.658 142.326 609.088 142.326 611.536 142.326 612.742 144.306 612.742 146.79 612.742 149.292 611.536 151.254 609.088 151.254zM618.768 156.6C619.452 156.6 619.794 156.132 619.794 155.556L619.794 152.838C620.244 153.018 620.946 153.18 621.792 153.18 624.6 153.18 625.842 151.092 625.842 148.32 625.842 145.8 624.69 144 622.422 144 621.144 144 620.298 144.522 619.794 145.368L619.794 145.224C619.794 144.666 619.452 144.18 618.768 144.18 618.102 144.18 617.76 144.666 617.76 145.224L617.76 155.556C617.76 156.132 618.102 156.6 618.768 156.6zM621.576 151.452C620.928 151.452 620.298 151.326 619.794 151.038L619.794 149.634C619.794 147.78 620.1 145.728 622.008 145.728 623.232 145.728 623.754 146.754 623.754 148.284 623.754 150.084 623.196 151.452 621.576 151.452zM631.112 153.18C633.542 153.18 634.676 152.154 634.676 150.444 634.676 147.384 630.14 148.104 630.14 146.448 630.14 145.944 630.518 145.638 631.346 145.638 632.012 145.638 632.714 145.926 633.218 146.124 633.794 146.304 634.154 146.214 634.352 145.782 634.532 145.368 634.424 144.918 633.848 144.594 633.254 144.252 632.318 144 631.274 144 629.384 144 628.088 144.846 628.088 146.52 628.088 149.706 632.624 148.914 632.624 150.624 632.624 151.236 632.192 151.542 631.292 151.542 630.626 151.542 629.888 151.344 629.204 151.038 628.736 150.822 628.16 150.696 627.89 151.254 627.656 151.74 627.818 152.154 628.304 152.496 629.024 152.964 630.194 153.18 631.112 153.18z"/>
    <rect width="49" height="31" x="487" fill="#FFF"/>
    <path fill="#000" fill-rule="nonzero" d="M497.16,20.18 C500.238,20.18 501.57,18.578 501.57,16.364 C501.57,12.008 495.288,13.142 495.288,10.676 C495.288,9.866 495.864,9.38 497.07,9.38 C497.862,9.38 498.564,9.56 499.284,9.866 C499.896,10.136 500.652,10.334 500.994,9.668 C501.3,9.074 501.066,8.534 500.364,8.156 C499.518,7.67 498.366,7.4 497.232,7.4 C494.478,7.4 493.11,8.75 493.11,10.748 C493.11,15.284 499.392,13.862 499.392,16.634 C499.392,17.678 498.528,18.2 497.214,18.2 C496.242,18.2 495.45,17.966 494.514,17.534 C493.812,17.246 493.254,17.192 492.966,17.75 C492.642,18.38 492.93,19.01 493.74,19.442 C494.694,19.928 495.9,20.18 497.16,20.18 Z M507.794,20.18 C508.82,20.18 509.864,20 510.638,19.478 C511.106,19.172 511.214,18.704 511.016,18.326 C510.818,17.984 510.476,17.84 509.9,18.074 C509.342,18.308 508.766,18.542 507.992,18.542 C506.606,18.542 505.706,17.696 505.652,16.328 L510.242,16.328 C510.962,16.328 511.268,16.022 511.43,15.428 C511.484,15.23 511.52,14.834 511.52,14.582 C511.52,12.476 510.188,11 507.83,11 C505.238,11 503.636,12.836 503.636,15.626 C503.636,18.524 505.094,20.18 507.794,20.18 Z M509.63,14.906 L505.652,14.906 C505.778,13.448 506.552,12.638 507.83,12.638 C509.072,12.638 509.648,13.43 509.648,14.456 C509.648,14.618 509.648,14.726 509.63,14.906 Z M517.744,20.18 C518.824,20.18 519.832,19.91 520.534,19.352 C521.02,18.956 521.146,18.452 520.894,18.038 C520.678,17.678 520.264,17.57 519.67,17.858 C519.13,18.128 518.608,18.362 517.942,18.362 C516.61,18.362 515.692,17.372 515.692,15.662 C515.692,13.898 516.538,12.818 517.924,12.818 C518.59,12.818 518.968,12.944 519.454,13.088 C520.084,13.286 520.444,13.142 520.642,12.71 C520.84,12.278 520.714,11.828 520.192,11.504 C519.652,11.162 518.842,11 517.87,11 C515.224,11 513.604,12.782 513.604,15.662 C513.604,18.524 515.17,20.18 517.744,20.18 Z"/>
    <path fill="#FFF" fill-rule="nonzero" d="M167.454,308.18 C167.706,308.18 167.886,308.036 168.03,307.694 L172.422,296.498 C172.476,296.354 172.512,296.21 172.512,296.066 C172.512,295.814 172.35,295.58 172.008,295.58 C171.738,295.58 171.558,295.796 171.414,296.174 L167.526,306.416 L163.404,296.102 C163.278,295.778 163.08,295.58 162.828,295.58 C162.432,295.58 162.288,295.886 162.288,296.138 C162.288,296.264 162.324,296.426 162.378,296.552 L166.914,307.766 C167.004,308 167.166,308.18 167.454,308.18 Z M178.394,308.18 C179.384,308.18 180.392,307.964 181.13,307.478 C181.364,307.316 181.49,307.046 181.346,306.794 C181.202,306.542 180.95,306.542 180.626,306.704 C179.96,307.028 179.258,307.244 178.394,307.244 C176.522,307.244 175.406,306.128 175.262,304.076 L180.77,304.076 C181.418,304.076 181.652,303.734 181.724,303.194 C181.76,302.96 181.778,302.69 181.778,302.42 C181.778,300.692 180.716,299 178.34,299 C175.73,299 174.236,300.998 174.236,303.644 C174.236,306.452 175.586,308.18 178.394,308.18 Z M180.788,303.176 L175.262,303.176 C175.406,301.088 176.522,299.936 178.268,299.936 C179.996,299.936 180.788,301.016 180.824,302.492 C180.824,302.708 180.824,302.942 180.788,303.176 Z M185.068,308 C185.41,308 185.572,307.73 185.572,307.424 L185.572,304.616 C185.572,302.816 185.806,301.484 186.364,300.746 C186.724,300.26 187.264,299.936 187.858,299.936 C188.146,299.936 188.398,299.99 188.668,300.098 C188.956,300.224 189.28,300.26 189.406,299.972 C189.514,299.72 189.406,299.468 189.118,299.288 C188.884,299.144 188.488,299 187.984,299 C186.904,299 185.932,299.666 185.572,300.854 L185.572,299.738 C185.572,299.432 185.41,299.18 185.068,299.18 C184.726,299.18 184.564,299.432 184.564,299.738 L184.564,307.424 C184.564,307.73 184.726,308 185.068,308 Z M191.994,297.632 C192.462,297.632 192.768,297.344 192.768,296.876 C192.768,296.408 192.462,296.102 191.994,296.102 C191.526,296.102 191.238,296.408 191.238,296.876 C191.238,297.344 191.526,297.632 191.994,297.632 Z M191.994,308 C192.336,308 192.498,307.73 192.498,307.424 L192.498,299.756 C192.498,299.45 192.336,299.18 191.994,299.18 C191.652,299.18 191.49,299.45 191.49,299.756 L191.49,307.424 C191.49,307.73 191.652,308 191.994,308 Z M197.102,308 C197.444,308 197.606,307.73 197.606,307.424 L197.606,300.116 L199.91,300.116 C200.198,300.116 200.396,299.936 200.396,299.648 C200.396,299.378 200.198,299.18 199.91,299.18 L197.606,299.18 L197.606,298.478 C197.606,297.146 198.146,296.336 199.316,296.336 C199.964,296.336 200.396,296.48 200.72,296.588 C200.972,296.678 201.242,296.696 201.368,296.426 C201.494,296.156 201.386,295.94 201.152,295.796 C200.846,295.616 200.216,295.4 199.388,295.4 C198.416,295.4 197.696,295.688 197.246,296.246 C196.778,296.84 196.598,297.704 196.598,298.964 L196.598,299.18 L195.392,299.18 C195.104,299.18 194.906,299.378 194.906,299.648 C194.906,299.936 195.104,300.116 195.392,300.116 L196.598,300.116 L196.598,307.424 C196.598,307.73 196.76,308 197.102,308 Z M202.876,311.78 C204.388,311.78 205.054,310.88 206.098,308.108 L209.212,300.044 C209.266,299.9 209.302,299.756 209.302,299.63 C209.302,299.396 209.158,299.198 208.834,299.198 C208.564,299.198 208.402,299.396 208.294,299.702 L205.684,306.758 L202.858,299.684 C202.75,299.414 202.57,299.18 202.318,299.18 C201.958,299.18 201.796,299.468 201.796,299.702 C201.796,299.828 201.832,299.954 201.886,300.08 L205.144,307.964 C204.568,309.548 204.1,310.844 202.948,310.844 C202.354,310.844 201.868,310.466 201.454,310.466 C201.274,310.466 201.076,310.574 201.076,310.88 C201.076,311.096 201.238,311.294 201.526,311.456 C201.922,311.672 202.498,311.78 202.876,311.78 Z"/>
    <path fill="#000" fill-rule="nonzero" d="M712.109,181 C712.829,181 713.189,180.514 713.189,179.902 L713.189,169.696 C713.189,169.048 712.847,168.58 712.181,168.58 C711.641,168.58 711.335,168.922 711.119,169.264 L707.519,175.078 L703.847,169.282 C703.577,168.85 703.235,168.58 702.731,168.58 C702.155,168.58 701.723,168.922 701.723,169.714 L701.723,179.902 C701.723,180.496 701.993,181 702.731,181 C703.469,181 703.739,180.496 703.739,179.902 L703.739,172.666 L706.403,176.842 C706.637,177.22 706.943,177.472 707.411,177.472 C707.915,177.472 708.185,177.184 708.401,176.824 L711.029,172.576 L711.029,179.902 C711.029,180.514 711.407,181 712.109,181 Z M720.331,181.18 C723.121,181.18 724.651,179.2 724.651,176.59 C724.651,173.998 723.121,172 720.331,172 C717.541,172 716.029,173.98 716.029,176.59 C716.029,179.2 717.541,181.18 720.331,181.18 Z M720.331,179.452 C718.873,179.452 718.117,178.228 718.117,176.59 C718.117,174.97 718.855,173.728 720.331,173.728 C721.825,173.728 722.563,174.97 722.563,176.59 C722.563,178.228 721.825,179.452 720.331,179.452 Z M733.971,181 C734.655,181 734.997,180.532 734.997,179.956 L734.997,175.852 C734.997,173.458 734.259,172 731.919,172 C730.857,172 729.795,172.468 729.255,173.494 L729.255,173.224 C729.255,172.666 728.913,172.18 728.229,172.18 C727.563,172.18 727.221,172.666 727.221,173.224 L727.221,179.956 C727.221,180.532 727.563,181 728.229,181 C728.913,181 729.255,180.532 729.255,179.956 L729.255,177.634 C729.291,175.618 729.687,173.8 731.433,173.8 C732.585,173.8 732.963,174.628 732.963,175.816 L732.963,179.956 C732.963,180.532 733.305,181 733.971,181 Z M739.025,170.956 C739.727,170.956 740.213,170.578 740.213,169.858 C740.213,169.174 739.727,168.76 739.025,168.76 C738.305,168.76 737.855,169.174 737.855,169.858 C737.855,170.578 738.305,170.956 739.025,170.956 Z M739.025,181 C739.709,181 740.051,180.532 740.051,179.956 L740.051,173.224 C740.051,172.666 739.709,172.18 739.025,172.18 C738.359,172.18 738.017,172.666 738.017,173.224 L738.017,179.956 C738.017,180.532 738.359,181 739.025,181 Z M746.527,181.18 C747.157,181.18 747.823,181.054 748.327,180.766 C748.813,180.478 749.101,180.046 748.885,179.506 C748.705,179.074 748.255,178.984 747.805,179.164 C747.589,179.254 747.193,179.38 746.851,179.38 C746.095,179.38 745.825,178.93 745.825,177.922 L745.825,173.908 L747.355,173.908 C748.003,173.908 748.327,173.584 748.327,173.044 C748.327,172.486 748.003,172.18 747.355,172.18 L745.825,172.18 L745.825,171.064 C745.825,170.506 745.483,170.02 744.799,170.02 C744.133,170.02 743.791,170.506 743.791,171.064 L743.791,172.18 L743.323,172.18 C742.675,172.18 742.351,172.486 742.351,173.044 C742.351,173.584 742.675,173.908 743.323,173.908 L743.791,173.908 L743.791,178.138 C743.791,180.28 744.799,181.18 746.527,181.18 Z M754.767,181.18 C757.557,181.18 759.087,179.2 759.087,176.59 C759.087,173.998 757.557,172 754.767,172 C751.977,172 750.465,173.98 750.465,176.59 C750.465,179.2 751.977,181.18 754.767,181.18 Z M754.767,179.452 C753.309,179.452 752.553,178.228 752.553,176.59 C752.553,174.97 753.291,173.728 754.767,173.728 C756.261,173.728 756.999,174.97 756.999,176.59 C756.999,178.228 756.261,179.452 754.767,179.452 Z M762.665,181 C763.349,181 763.691,180.532 763.691,179.956 L763.691,176.914 C763.691,174.808 764.177,173.836 765.239,173.836 C765.545,173.836 765.815,173.908 766.085,173.998 C766.607,174.178 767.021,174.052 767.219,173.602 C767.507,172.936 767.075,172 765.581,172 C764.789,172 764.069,172.468 763.691,173.152 C763.691,172.684 763.349,172.18 762.665,172.18 C761.999,172.18 761.657,172.666 761.657,173.224 L761.657,179.956 C761.657,180.532 761.999,181 762.665,181 Z M770.131,170.956 C770.833,170.956 771.319,170.578 771.319,169.858 C771.319,169.174 770.833,168.76 770.131,168.76 C769.411,168.76 768.961,169.174 768.961,169.858 C768.961,170.578 769.411,170.956 770.131,170.956 Z M770.131,181 C770.815,181 771.157,180.532 771.157,179.956 L771.157,173.224 C771.157,172.666 770.815,172.18 770.131,172.18 C769.465,172.18 769.123,172.666 769.123,173.224 L769.123,179.956 C769.123,180.532 769.465,181 770.131,181 Z M780.927,181 C781.611,181 781.953,180.532 781.953,179.956 L781.953,175.852 C781.953,173.458 781.215,172 778.875,172 C777.813,172 776.751,172.468 776.211,173.494 L776.211,173.224 C776.211,172.666 775.869,172.18 775.185,172.18 C774.519,172.18 774.177,172.666 774.177,173.224 L774.177,179.956 C774.177,180.532 774.519,181 775.185,181 C775.869,181 776.211,180.532 776.211,179.956 L776.211,177.634 C776.247,175.618 776.643,173.8 778.389,173.8 C779.541,173.8 779.919,174.628 779.919,175.816 L779.919,179.956 C779.919,180.532 780.261,181 780.927,181 Z M788.213,184.78 C791.219,184.78 792.731,183.466 792.731,181.702 C792.731,180.01 791.165,179.506 788.951,179.416 C786.773,179.326 786.197,179.02 786.197,178.516 C786.197,178.264 786.377,177.976 786.683,177.778 C787.169,177.958 787.727,178.048 788.393,178.048 C790.769,178.048 792.011,176.788 792.011,175.042 C792.011,174.52 791.867,174.034 791.651,173.602 L792.281,173.602 C792.839,173.602 793.109,173.35 793.109,172.9 C793.109,172.414 792.839,172.18 792.281,172.18 L789.797,172.18 C789.383,172.072 788.915,172 788.393,172 C786.035,172 784.793,173.242 784.793,175.042 C784.793,175.87 785.063,176.572 785.585,177.094 C785.009,177.562 784.613,178.138 784.613,178.822 C784.613,179.326 784.865,179.92 785.459,180.244 C784.631,180.712 784.163,181.432 784.163,182.242 C784.163,183.484 785.063,184.78 788.213,184.78 Z M788.393,176.5 C787.259,176.5 786.611,175.906 786.611,175.042 C786.611,174.16 787.259,173.548 788.393,173.548 C789.527,173.548 790.175,174.16 790.175,175.042 C790.175,175.906 789.527,176.5 788.393,176.5 Z M788.195,183.214 C786.557,183.214 785.999,182.584 785.999,182.008 C785.999,181.45 786.395,181.036 786.971,180.766 C787.385,180.838 787.835,180.892 788.375,180.928 C790.139,181.054 790.787,181.252 790.787,181.864 C790.787,182.584 790.067,183.214 788.195,183.214 Z M704.461,205.18 C706.081,205.18 707.395,204.55 708.367,203.65 C708.709,203.956 709.051,204.226 709.375,204.514 C709.807,204.892 710.563,205.342 711.067,204.676 C711.355,204.298 711.319,203.758 710.707,203.254 C710.347,202.966 709.951,202.606 709.537,202.21 C710.185,201.166 710.563,200.014 710.653,199.078 C710.707,198.484 710.509,198.088 709.969,198.034 C709.465,197.98 709.159,198.196 708.979,198.916 C708.799,199.6 708.601,200.302 708.223,200.932 C707.269,199.996 706.477,199.24 705.649,198.232 C707.359,196.954 708.079,195.946 708.079,194.74 C708.079,193.534 707.215,192.4 705.181,192.4 C703.183,192.4 702.013,193.624 702.013,195.298 C702.013,196.27 702.409,197.134 703.111,198.106 C701.527,199.24 700.573,200.248 700.573,201.868 C700.573,204.154 702.355,205.18 704.461,205.18 Z M704.731,196.99 C704.281,196.342 704.029,195.73 704.029,195.19 C704.029,194.38 704.569,193.912 705.253,193.912 C705.973,193.912 706.369,194.308 706.369,194.866 C706.369,195.496 705.757,196.234 704.731,196.99 Z M704.587,203.452 C703.327,203.452 702.625,202.588 702.625,201.724 C702.625,200.878 702.949,200.266 704.119,199.348 C705.739,201.238 706.657,202.084 707.089,202.48 C706.459,203.074 705.577,203.452 704.587,203.452 Z M727.133,205 C727.853,205 728.177,204.496 728.177,203.974 C728.177,203.794 728.141,203.596 728.069,203.416 L723.893,193.174 C723.713,192.742 723.407,192.4 722.849,192.4 C722.327,192.4 721.985,192.67 721.751,193.282 L717.701,203.434 C717.611,203.668 717.575,203.884 717.557,204.1 C717.557,204.586 717.881,205 718.493,205 C719.033,205.018 719.357,204.532 719.537,204.028 L720.473,201.49 L725.099,201.49 L726.107,204.154 C726.305,204.676 726.665,205 727.133,205 Z M724.487,199.798 L721.049,199.798 L722.741,195.262 L724.487,199.798 Z M737.065,205 C737.749,205 738.091,204.532 738.091,203.956 L738.091,199.852 C738.091,197.458 737.353,196 735.013,196 C733.951,196 732.889,196.468 732.349,197.494 L732.349,197.224 C732.349,196.666 732.007,196.18 731.323,196.18 C730.657,196.18 730.315,196.666 730.315,197.224 L730.315,203.956 C730.315,204.532 730.657,205 731.323,205 C732.007,205 732.349,204.532 732.349,203.956 L732.349,201.634 C732.385,199.618 732.781,197.8 734.527,197.8 C735.679,197.8 736.057,198.628 736.057,199.816 L736.057,203.956 C736.057,204.532 736.399,205 737.065,205 Z M743.181,205.18 C744.675,205.18 745.575,204.478 746.061,203.632 L746.061,203.956 C746.061,204.532 746.367,205 747.033,205 C747.717,205 748.005,204.532 748.005,203.956 L748.005,199.348 C748.005,197.26 746.925,196 744.459,196 C743.325,196 742.173,196.234 741.525,196.666 C741.111,196.936 740.931,197.296 741.075,197.728 C741.219,198.16 741.669,198.268 742.101,198.142 C742.893,197.908 743.397,197.692 744.225,197.692 C745.791,197.692 746.061,198.538 746.061,199.51 L746.061,199.708 C745.737,199.654 745.035,199.582 744.171,199.582 C742.191,199.582 740.301,200.338 740.301,202.534 C740.301,204.136 741.363,205.18 743.181,205.18 Z M743.721,203.596 C742.821,203.596 742.299,203.092 742.299,202.372 C742.299,201.292 743.181,200.86 744.459,200.86 C745.125,200.86 745.593,200.878 746.061,200.95 L746.061,201.256 C746.061,202.39 745.251,203.596 743.721,203.596 Z M751.997,205 C752.681,205 753.023,204.514 753.023,203.956 L753.023,193.624 C753.023,193.066 752.681,192.58 751.997,192.58 C751.331,192.58 750.989,193.066 750.989,193.624 L750.989,203.956 C750.989,204.514 751.331,205 751.997,205 Z M756.475,208.78 C758.023,208.78 758.833,207.916 759.895,205.09 L762.703,197.656 C762.775,197.44 762.829,197.224 762.829,197.008 C762.829,196.612 762.577,196.18 761.911,196.18 C761.461,196.18 761.173,196.504 760.975,197.08 L759.121,202.588 L757.015,197.008 C756.817,196.504 756.493,196.18 756.043,196.18 C755.323,196.18 754.981,196.702 754.981,197.17 C754.981,197.386 755.035,197.584 755.125,197.782 L758.185,205 C757.753,206.152 757.339,207.052 756.493,207.052 C755.935,207.052 755.521,206.764 755.089,206.764 C754.783,206.764 754.369,206.98 754.369,207.556 C754.369,208.42 755.647,208.78 756.475,208.78 Z M768.513,205.18 C769.143,205.18 769.809,205.054 770.313,204.766 C770.799,204.478 771.087,204.046 770.871,203.506 C770.691,203.074 770.241,202.984 769.791,203.164 C769.575,203.254 769.179,203.38 768.837,203.38 C768.081,203.38 767.811,202.93 767.811,201.922 L767.811,197.908 L769.341,197.908 C769.989,197.908 770.313,197.584 770.313,197.044 C770.313,196.486 769.989,196.18 769.341,196.18 L767.811,196.18 L767.811,195.064 C767.811,194.506 767.469,194.02 766.785,194.02 C766.119,194.02 765.777,194.506 765.777,195.064 L765.777,196.18 L765.309,196.18 C764.661,196.18 764.337,196.486 764.337,197.044 C764.337,197.584 764.661,197.908 765.309,197.908 L765.777,197.908 L765.777,202.138 C765.777,204.28 766.785,205.18 768.513,205.18 Z M773.819,194.956 C774.521,194.956 775.007,194.578 775.007,193.858 C775.007,193.174 774.521,192.76 773.819,192.76 C773.099,192.76 772.649,193.174 772.649,193.858 C772.649,194.578 773.099,194.956 773.819,194.956 Z M773.819,205 C774.503,205 774.845,204.532 774.845,203.956 L774.845,197.224 C774.845,196.666 774.503,196.18 773.819,196.18 C773.153,196.18 772.811,196.666 772.811,197.224 L772.811,203.956 C772.811,204.532 773.153,205 773.819,205 Z M781.555,205.18 C782.635,205.18 783.643,204.91 784.345,204.352 C784.831,203.956 784.957,203.452 784.705,203.038 C784.489,202.678 784.075,202.57 783.481,202.858 C782.941,203.128 782.419,203.362 781.753,203.362 C780.421,203.362 779.503,202.372 779.503,200.662 C779.503,198.898 780.349,197.818 781.735,197.818 C782.401,197.818 782.779,197.944 783.265,198.088 C783.895,198.286 784.255,198.142 784.453,197.71 C784.651,197.278 784.525,196.828 784.003,196.504 C783.463,196.162 782.653,196 781.681,196 C779.035,196 777.415,197.782 777.415,200.662 C777.415,203.524 778.981,205.18 781.555,205.18 Z M789.723,205.18 C792.153,205.18 793.287,204.154 793.287,202.444 C793.287,199.384 788.751,200.104 788.751,198.448 C788.751,197.944 789.129,197.638 789.957,197.638 C790.623,197.638 791.325,197.926 791.829,198.124 C792.405,198.304 792.765,198.214 792.963,197.782 C793.143,197.368 793.035,196.918 792.459,196.594 C791.865,196.252 790.929,196 789.885,196 C787.995,196 786.699,196.846 786.699,198.52 C786.699,201.706 791.235,200.914 791.235,202.624 C791.235,203.236 790.803,203.542 789.903,203.542 C789.237,203.542 788.499,203.344 787.815,203.038 C787.347,202.822 786.771,202.696 786.501,203.254 C786.267,203.74 786.429,204.154 786.915,204.496 C787.635,204.964 788.805,205.18 789.723,205.18 Z"/>
  </g>
</svg>
