<svg xmlns="http://www.w3.org/2000/svg" width="570" height="655" viewBox="0 0 570 655">
  <defs>
    <linearGradient id="img-snapshot-a" x1="108.096%" x2="0%" y1="108.696%" y2="0%">
      <stop offset="0%" stop-color="#1E85E9"/>
      <stop offset="20.276%" stop-color="#8671F3"/>
      <stop offset="70.727%" stop-color="#CFA9FC"/>
      <stop offset="100%" stop-color="#F4D9FB"/>
    </linearGradient>
    <linearGradient id="img-snapshot-b" x1="58.858%" x2="42.376%" y1="108.696%" y2="0%">
      <stop offset="0%" stop-color="#1E85E9"/>
      <stop offset="20.276%" stop-color="#8671F3"/>
      <stop offset="70.727%" stop-color="#CFA9FC"/>
      <stop offset="100%" stop-color="#F4D9FB"/>
    </linearGradient>
    <linearGradient id="img-snapshot-c" x1="59.743%" x2="41.615%" y1="108.696%" y2="0%">
      <stop offset="0%" stop-color="#1E85E9"/>
      <stop offset="20.276%" stop-color="#8671F3"/>
      <stop offset="70.727%" stop-color="#CFA9FC"/>
      <stop offset="100%" stop-color="#F4D9FB"/>
    </linearGradient>
  </defs>
  <g fill="none" fill-rule="evenodd" transform="translate(1)">
    <path fill="url(#img-snapshot-a)" d="M299.5,170.085733 L237.847133,134.490433 C237.228331,134.133168 236.847133,133.472914 236.847133,132.758382 L236.847133,61.5677834 C236.847133,60.8532523 237.228331,60.1929982 237.847133,59.8357326 L299.5,24.2404332 C300.118802,23.8831676 300.881198,23.8831676 301.5,24.2404332 L363.152867,59.8357326 C363.771669,60.1929982 364.152867,60.8532523 364.152867,61.5677834 L364.152867,132.758382 C364.152867,133.472914 363.771669,134.133168 363.152867,134.490433 L301.5,170.085733 C300.881198,170.442998 300.118802,170.442998 299.5,170.085733 Z"/>
    <path stroke="#E3E0E0" stroke-dasharray="2" stroke-linecap="round" d="M228,168.394606 C227.377875,168.752575 226.611386,168.752575 225.989262,168.394606 L164.005369,132.729252 C163.383245,132.371283 163,131.70973 163,130.993792 L163,59.6630829" transform="matrix(-1 0 0 1 391 0)"/>
    <path stroke="#E3E0E0" stroke-dasharray="2" stroke-linecap="round" d="M228,599.663083 L166.005541,564.148498 C165.38331,563.792043 165,563.133286 165,562.420375 L165,491.391206 C165,490.678295 165.38331,490.019538 166.005541,489.663083" transform="rotate(180 196.5 544.663)"/>
    <path fill="#FFF" d="M299.5,151.085733 L254.301615,124.990433 C253.682813,124.633168 253.301615,123.972914 253.301615,123.258382 L253.301615,71.0677834 C253.301615,70.3532523 253.682813,69.6929982 254.301615,69.3357326 L299.5,43.2404332 C300.118802,42.8831676 300.881198,42.8831676 301.5,43.2404332 L346.698385,69.3357326 C347.317187,69.6929982 347.698385,70.3532523 347.698385,71.0677834 L347.698385,123.258382 C347.698385,123.972914 347.317187,124.633168 346.698385,124.990433 L301.5,151.085733 C300.881198,151.442998 300.118802,151.442998 299.5,151.085733 Z"/>
    <path fill="url(#img-snapshot-a)" d="M231.5,285.085733 L169.847133,249.490433 C169.228331,249.133168 168.847133,248.472914 168.847133,247.758382 L168.847133,176.567783 C168.847133,175.853252 169.228331,175.192998 169.847133,174.835733 L231.5,139.240433 C232.118802,138.883168 232.881198,138.883168 233.5,139.240433 L295.152867,174.835733 C295.771669,175.192998 296.152867,175.853252 296.152867,176.567783 L296.152867,247.758382 C296.152867,248.472914 295.771669,249.133168 295.152867,249.490433 L233.5,285.085733 C232.881198,285.442998 232.118802,285.442998 231.5,285.085733 Z"/>
    <path fill="#FFF" d="M231.5,266.085733 L186.301615,239.990433 C185.682813,239.633168 185.301615,238.972914 185.301615,238.258382 L185.301615,186.067783 C185.301615,185.353252 185.682813,184.692998 186.301615,184.335733 L231.5,158.240433 C232.118802,157.883168 232.881198,157.883168 233.5,158.240433 L278.698385,184.335733 C279.317187,184.692998 279.698385,185.353252 279.698385,186.067783 L279.698385,238.258382 C279.698385,238.972914 279.317187,239.633168 278.698385,239.990433 L233.5,266.085733 C232.881198,266.442998 232.118802,266.442998 231.5,266.085733 Z"/>
    <path fill="url(#img-snapshot-a)" d="M298.5,401.085733 L236.847133,365.490433 C236.228331,365.133168 235.847133,364.472914 235.847133,363.758382 L235.847133,292.567783 C235.847133,291.853252 236.228331,291.192998 236.847133,290.835733 L298.5,255.240433 C299.118802,254.883168 299.881198,254.883168 300.5,255.240433 L362.152867,290.835733 C362.771669,291.192998 363.152867,291.853252 363.152867,292.567783 L363.152867,363.758382 C363.152867,364.472914 362.771669,365.133168 362.152867,365.490433 L300.5,401.085733 C299.881198,401.442998 299.118802,401.442998 298.5,401.085733 Z"/>
    <path stroke="#E3E0E0" stroke-dasharray="2" stroke-linecap="round" d="M165.010738,256.663083 L226.994631,292.230793 C227.616755,292.587782 228,293.247524 228,293.961502 L228,365.096923 C228,365.8109 227.616755,366.470642 226.994631,366.827631 L165.010738,402.395341 C164.388614,402.75233 163.622125,402.75233 163,402.395341"/>
    <path stroke="#E3E0E0" stroke-dasharray="2" stroke-linecap="round" d="M308.010738 371.663083L369.994631 407.230793C370.616755 407.587782 371 408.247524 371 408.961502L371 480.096923C371 480.8109 370.616755 481.470642 369.994631 481.827631L308.010738 517.395341C307.388614 517.75233 306.622125 517.75233 306 517.395341M308.010738 139.663083L369.994631 175.230793C370.616755 175.587782 371 176.247524 371 176.961502L371 248.096923C371 248.8109 370.616755 249.470642 369.994631 249.827631L308.010738 285.395341C307.388614 285.75233 306.622125 285.75233 306 285.395341" transform="matrix(-1 0 0 1 677 0)"/>
    <path fill="#FFF" d="M298.5,382.085733 L253.301615,355.990433 C252.682813,355.633168 252.301615,354.972914 252.301615,354.258382 L252.301615,302.067783 C252.301615,301.353252 252.682813,300.692998 253.301615,300.335733 L298.5,274.240433 C299.118802,273.883168 299.881198,273.883168 300.5,274.240433 L345.698385,300.335733 C346.317187,300.692998 346.698385,301.353252 346.698385,302.067783 L346.698385,354.258382 C346.698385,354.972914 346.317187,355.633168 345.698385,355.990433 L300.5,382.085733 C299.881198,382.442998 299.118802,382.442998 298.5,382.085733 Z"/>
    <path fill="url(#img-snapshot-a)" d="M231.5,518.085733 L169.847133,482.490433 C169.228331,482.133168 168.847133,481.472914 168.847133,480.758382 L168.847133,409.567783 C168.847133,408.853252 169.228331,408.192998 169.847133,407.835733 L231.5,372.240433 C232.118802,371.883168 232.881198,371.883168 233.5,372.240433 L295.152867,407.835733 C295.771669,408.192998 296.152867,408.853252 296.152867,409.567783 L296.152867,480.758382 C296.152867,481.472914 295.771669,482.133168 295.152867,482.490433 L233.5,518.085733 C232.881198,518.442998 232.118802,518.442998 231.5,518.085733 Z"/>
    <path fill="#FFF" d="M231.5,499.085733 L186.301615,472.990433 C185.682813,472.633168 185.301615,471.972914 185.301615,471.258382 L185.301615,419.067783 C185.301615,418.353252 185.682813,417.692998 186.301615,417.335733 L231.5,391.240433 C232.118802,390.883168 232.881198,390.883168 233.5,391.240433 L278.698385,417.335733 C279.317187,417.692998 279.698385,418.353252 279.698385,419.067783 L279.698385,471.258382 C279.698385,471.972914 279.317187,472.633168 278.698385,472.990433 L233.5,499.085733 C232.881198,499.442998 232.118802,499.442998 231.5,499.085733 Z"/>
    <path fill="url(#img-snapshot-a)" d="M298.5,634.085733 L236.847133,598.490433 C236.228331,598.133168 235.847133,597.472914 235.847133,596.758382 L235.847133,525.567783 C235.847133,524.853252 236.228331,524.192998 236.847133,523.835733 L298.5,488.240433 C299.118802,487.883168 299.881198,487.883168 300.5,488.240433 L362.152867,523.835733 C362.771669,524.192998 363.152867,524.853252 363.152867,525.567783 L363.152867,596.758382 C363.152867,597.472914 362.771669,598.133168 362.152867,598.490433 L300.5,634.085733 C299.881198,634.442998 299.118802,634.442998 298.5,634.085733 Z"/>
    <path fill="#FFF" d="M298.5,615.085733 L253.301615,588.990433 C252.682813,588.633168 252.301615,587.972914 252.301615,587.258382 L252.301615,535.067783 C252.301615,534.353252 252.682813,533.692998 253.301615,533.335733 L298.5,507.240433 C299.118802,506.883168 299.881198,506.883168 300.5,507.240433 L345.698385,533.335733 C346.317187,533.692998 346.698385,534.353252 346.698385,535.067783 L346.698385,587.258382 C346.698385,587.972914 346.317187,588.633168 345.698385,588.990433 L300.5,615.085733 C299.881198,615.442998 299.118802,615.442998 298.5,615.085733 Z"/>
    <path stroke="url(#img-snapshot-b)" stroke-width=".5" d="M178.99403,236.489091 C185.178625,366.375828 228.541855,467 281.115923,467 C337.933933,467 383.99403,349.474747 383.99403,204.5 C383.99403,59.5252532 337.933933,-58 281.115923,-58 C247.396895,-58 217.466705,-16.6086816 198.703863,47.3472193" opacity=".499" transform="rotate(65 281.494 204.5)"/>
    <path stroke="url(#img-snapshot-c)" stroke-width=".5" d="M177.693305,519.422283 C191.044662,628.372195 233.131213,707.93312 282.98411,707.93312 C343.574825,707.93312 392.693305,590.407867 392.693305,445.43312 C392.693305,300.458373 343.574825,182.93312 282.98411,182.93312 C248.663427,182.93312 218.023591,220.640892 197.906414,279.686105" opacity=".499" transform="rotate(65 285.193 445.433)"/>
    <g transform="translate(278 69.663)">
      <circle cx="19" cy="25.41" r="5" stroke="#5055FE"/>
      <circle cx="19" cy="25.41" r="12" stroke="#5055FE"/>
      <circle cx="19" cy="25.41" r="19" stroke="#5055FE"/>
      <line x1="10.466" x2="7" y1="42.975" y2="49.92" stroke="#5055FE" stroke-linecap="round"/>
      <line x1="30.466" x2="27" y1="42.975" y2="49.92" stroke="#5055FE" stroke-linecap="round" transform="matrix(-1 0 0 1 57.466 0)"/>
      <line x1="18.5" x2="41.011" y1="26.268" y2="3.91" stroke="#FFF" stroke-linecap="round" stroke-width="3"/>
      <line x1="18.5" x2="41.011" y1="26.268" y2="3.91" stroke="#5055FE" stroke-linecap="round"/>
      <polyline stroke="#5055FE" stroke-linecap="round" stroke-linejoin="round" points="34.73 10.079 33.786 6.41 39 0 41.011 3.91"/>
      <polyline stroke="#5055FE" stroke-linecap="round" stroke-linejoin="round" points="37.247 12.633 36.303 8.964 41.517 2.554 43.528 6.464" transform="matrix(0 -1 -1 0 47.51 47.51)"/>
    </g>
    <g stroke="#5055FE" transform="translate(210 189.663)">
      <path stroke-linejoin="round" d="M19.3859314,27.916587 L19.3859314,27.916587 L9.31368408,27.916587 L1.45519152e-11,38 L1.45519152e-11,27.916587 L1.45519152e-11,1.8611058 C1.45519152e-11,0.833245447 0.828273213,0 1.85,0 L35.15,0 C36.1717268,0 37,0.833245447 37,1.8611058 L37,20.4567151 L37,20.4567151"/>
      <path stroke-linejoin="round" d="M21,20 L42,20 C43.1045695,20 44,20.8954305 44,22 L44,37.1008227 C44,38.2053922 43.1045695,39.1008227 42,39.1008227 L25.2930298,39.1008227 L25.2930298,39.1008227 L19,46 L19,39.1008227 L19,22 C19,20.8954305 19.8954305,20 21,20 Z" transform="matrix(-1 0 0 1 63 0)"/>
      <line x1="6" x2="31" y1="10.5" y2="10.5" stroke-linecap="round"/>
      <line x1="6" x2="31" y1="14.5" y2="14.5" stroke-linecap="round"/>
      <circle cx="26" cy="30" r="1"/>
      <circle cx="32" cy="30" r="1"/>
      <circle cx="39" cy="30" r="1"/>
    </g>
    <g stroke="#5055FE" transform="translate(278 305.663)">
      <rect width="26" height="24" y="18.965" stroke-linejoin="round"/>
      <line x2="26" y1="34.012" y2="34.012"/>
      <line x2="26" y1="39.965" y2="39.965"/>
      <line x2="26" y1="36.965" y2="36.965"/>
      <circle cx="12.5" cy="26.465" r="3.5"/>
      <path stroke-linecap="round" d="M22 19.4648438C22 21.3978404 23.5670034 22.9648438 25.5 22.9648438M25.5 29.9648438C23.5670034 29.9648438 22 31.5318471 22 33.4648438M.5 22.9648438C2.43299662 22.9648438 4 21.3978404 4 19.4648438M4 33.4648438C4 31.5318471 2.43299662 29.9648438.5 29.9648438"/>
      <path stroke-linejoin="round" d="M26.4191895,42.9648438 L41,42.9648438 C42.1045695,42.9648438 43,42.0694132 43,40.9648438 L43,2 C43,0.8954305 42.1045695,-2.02906125e-16 41,0 L11.9768066,0 L11.9768066,0 L5.28710938,6.08862305 L5.28710938,18.9648438"/>
      <path d="M5.28710938,6.08862305 L10.1623535,6.08862305 C11.266923,6.08862305 12.1623535,5.19319255 12.1623535,4.08862305 L12.1623535,0 L12.1623535,0"/>
      <polyline stroke-linecap="round" stroke-linejoin="round" points="9 14.644 13 10.887 16.5 14.644 23.436 7.507"/>
      <circle cx="33.5" cy="9.465" r="7.5"/>
      <polyline points="33.5 1.965 33.5 9.465 28.328 14.644"/>
      <line x1="33.5" x2="41" y1="9.465" y2="9.465"/>
      <line x1="29.244" x2="40.471" y1="22.965" y2="22.965" stroke-linecap="round"/>
      <line x1="29.244" x2="40.471" y1="26.965" y2="26.965" stroke-linecap="round"/>
      <line x1="29.244" x2="40.471" y1="30.965" y2="30.965" stroke-linecap="round"/>
      <line x1="29.244" x2="36.142" y1="35.965" y2="35.965" stroke-linecap="round"/>
    </g>
    <g stroke="#5055FE" transform="translate(208 450.663)">
      <path stroke-linecap="round" d="M43.1867676,12 C30.220242,12 20.4953478,12 14.012085,12 M4.00102902,11.6589522 C1.67010677,10.83557 0,8.61282216 0,6 C0,2.6862915 2.6862915,0 6,0 C18.9161241,0 28.529853,0 34.987915,0"/>
      <line x1="39.483" x2="39.483" y2="12" stroke-linecap="round"/>
      <line x1="39.483" x2="17" y1="6" y2="6" stroke-linecap="round"/>
      <polygon stroke-linejoin="round" points="4 6 14 6 14 19 9 14.055 4 19"/>
    </g>
    <g stroke="#5055FE" stroke-linecap="round" transform="translate(208 420.663)">
      <path d="M43.1867676,12 C30.220242,12 20.4953478,12 14.012085,12 M4.00102902,11.6589522 C1.67010677,10.83557 0,8.61282216 0,6 C0,2.6862915 2.6862915,0 6,0 L42.9299316,0"/>
      <line x1="39.483" x2="39.483" y2="12"/>
      <line x1="39.483" x2="17" y1="6" y2="6"/>
      <polygon stroke-linejoin="round" points="4 6 14 6 14 19 9 14.055 4 19"/>
    </g>
    <g stroke="#5055FE" transform="matrix(-1 0 0 1 257 435.663)">
      <path stroke-linecap="round" d="M43.1867676,12 C30.220242,12 20.4953478,12 14.012085,12 M4.00102902,11.6589522 C1.67010677,10.83557 0,8.61282216 0,6 C0,2.6862915 2.6862915,0 6,0 C18.7272135,0 28.2726237,0 34.6362305,0"/>
      <line x1="39.483" x2="39.483" y2="12" stroke-linecap="round"/>
      <line x1="39.483" x2="17" y1="6" y2="6" stroke-linecap="round"/>
      <polygon stroke-linejoin="round" points="4 6 14 6 14 19 9 14.055 4 19"/>
    </g>
    <g stroke="#5055FE" transform="translate(272 531.663)">
      <path d="M25.9415146,0.582781485 L25.9280208,0.594916862 C21.6869564,4.52776508 16.6008179,6.35774747 9.86849616,6.35774747 C8.59655457,6.35774747 7.60850781,7.29778714 7.60850781,8.5079278 L7.60134848,10.2095986 C7.59677712,10.5924872 7.58955858,10.9209472 7.57845545,11.2459855 L7.5497994,12.0380525 L7.51500046,14.1665504 C7.46829527,18.1390661 7.56685867,20.5154455 7.95311582,23.2890739 C9.413069,33.7726797 14.8990892,40.9846898 26.7599625,44.8748153 L27.3899028,45 L27.6276782,45 L28.1789374,44.8951051 C37.2652052,41.9120692 42.6737317,36.9215624 45.3453674,30.0677085 C47.290379,25.0779469 47.6402093,20.6925227 47.4640902,11.853634 L47.4277244,10.8550861 C47.412839,10.2463465 47.4090732,9.56446926 47.4090732,8.5079278 C47.4090732,7.29778714 46.4210264,6.35774747 45.1490848,6.35774747 C38.416763,6.35774747 33.3306246,4.52776508 29.0895602,0.594916862 C28.182788,-0.196271335 26.8347929,-0.196271335 25.9415146,0.582781485 Z"/>
      <path d="M26.3322033,5.94032379 L26.3220829,5.94949274 C23.1412846,8.92097806 19.3266808,10.3036314 14.2774395,10.3036314 C13.3234833,10.3036314 12.5824482,11.0138836 12.5824482,11.9282121 L12.5770787,13.213919 C12.5736502,13.5032126 12.5682363,13.7513823 12.5599089,13.9969668 L12.5384169,14.5954175 L12.5123177,16.2036158 C12.4772888,19.2050722 12.5512114,21.0005588 12.8409042,23.0961892 C13.9358691,31.0171358 18.0503842,36.4662101 26.9460393,39.405416 L27.4184944,39.5 L27.596826,39.5 L28.0102704,39.420746 C34.8249713,37.1668968 38.8813661,33.3962916 40.8850929,28.2178242 C42.3438516,24.4477821 42.6062243,21.1343505 42.474135,14.456079 L42.4468606,13.7016206 C42.4356966,13.2416841 42.4328722,12.7264879 42.4328722,11.9282121 C42.4328722,11.0138836 41.6918372,10.3036314 40.737881,10.3036314 C35.6886396,10.3036314 31.8740358,8.92097806 28.6932375,5.94949274 C28.0131584,5.3517061 27.002162,5.3517061 26.3322033,5.94032379 Z"/>
      <polyline stroke-linecap="round" stroke-linejoin="round" points="20.55 24.495 26.004 29.77 37.29 18.518"/>
      <polyline stroke-linejoin="round" points="16.947 35.792 17 53.194 11 48.524 5 53.194 5 37.194" transform="rotate(45 11 44.493)"/>
      <polyline stroke-linejoin="round" points="50.47 35.784 50.523 53.186 44.523 48.516 38.523 53.186 38.501 36.349" transform="scale(-1 1) rotate(45 0 -62.977)"/>
    </g>
    <g fill="#5055FE" transform="translate(384 56.663)">
      <circle cx="6" cy="6" r="6" opacity=".103"/>
      <circle cx="6" cy="6" r="2.571"/>
    </g>
    <g fill="#5055FE" transform="translate(60 331.663)">
      <circle cx="6" cy="6" r="6" opacity=".103"/>
      <circle cx="6" cy="6" r="2.571"/>
    </g>
    <g fill="#5055FE" transform="translate(166 373.663)">
      <circle cx="6" cy="6" r="6" opacity=".103"/>
      <circle cx="6" cy="6" r="2.571"/>
    </g>
    <g fill="#5055FE" transform="translate(510 385)">
      <circle cx="6" cy="6" r="6" opacity=".103"/>
      <circle cx="6" cy="6" r="2.571"/>
    </g>
  </g>
</svg>
