<svg xmlns="http://www.w3.org/2000/svg" xmlns:xlink="http://www.w3.org/1999/xlink" width="438" height="470" viewBox="0 0 438 470">
  <defs>
    <linearGradient id="img-steps-a" x1="80.328%" x2="25.632%" y1="112.867%" y2="0%">
      <stop offset="0%" stop-color="#1E85E9"/>
      <stop offset="20.276%" stop-color="#8671F3"/>
      <stop offset="70.727%" stop-color="#CFA9FC"/>
      <stop offset="100%" stop-color="#F4D9FB"/>
    </linearGradient>
    <circle id="img-steps-c" cx="62" cy="262" r="36"/>
    <filter id="img-steps-b" width="147.2%" height="147.2%" x="-23.6%" y="-18.1%" filterUnits="objectBoundingBox">
      <feMorphology in="SourceAlpha" radius="2" result="shadowSpreadOuter1"/>
      <feOffset dy="4" in="shadowSpreadOuter1" result="shadowOffsetOuter1"/>
      <feGaussianBlur in="shadowOffsetOuter1" result="shadowBlurOuter1" stdDeviation="7"/>
      <feColorMatrix in="shadowBlurOuter1" values="0 0 0 0 0.0415817482   0 0 0 0 0.0415817482   0 0 0 0 0.0415817482  0 0 0 0.1 0"/>
    </filter>
    <circle id="img-steps-e" cx="234" cy="362" r="36"/>
    <filter id="img-steps-d" width="147.2%" height="147.2%" x="-23.6%" y="-18.1%" filterUnits="objectBoundingBox">
      <feMorphology in="SourceAlpha" radius="2" result="shadowSpreadOuter1"/>
      <feOffset dy="4" in="shadowSpreadOuter1" result="shadowOffsetOuter1"/>
      <feGaussianBlur in="shadowOffsetOuter1" result="shadowBlurOuter1" stdDeviation="7"/>
      <feColorMatrix in="shadowBlurOuter1" values="0 0 0 0 0.0415817482   0 0 0 0 0.0415817482   0 0 0 0 0.0415817482  0 0 0 0.1 0"/>
    </filter>
    <circle id="img-steps-g" cx="61" cy="62" r="36"/>
    <filter id="img-steps-f" width="147.2%" height="147.2%" x="-23.6%" y="-18.1%" filterUnits="objectBoundingBox">
      <feMorphology in="SourceAlpha" radius="2" result="shadowSpreadOuter1"/>
      <feOffset dy="4" in="shadowSpreadOuter1" result="shadowOffsetOuter1"/>
      <feGaussianBlur in="shadowOffsetOuter1" result="shadowBlurOuter1" stdDeviation="7"/>
      <feColorMatrix in="shadowBlurOuter1" values="0 0 0 0 0.0415817482   0 0 0 0 0.0415817482   0 0 0 0 0.0415817482  0 0 0 0.1 0"/>
    </filter>
    <circle id="img-steps-i" cx="234" cy="162" r="36"/>
    <filter id="img-steps-h" width="147.2%" height="147.2%" x="-23.6%" y="-18.1%" filterUnits="objectBoundingBox">
      <feMorphology in="SourceAlpha" radius="2" result="shadowSpreadOuter1"/>
      <feOffset dy="4" in="shadowSpreadOuter1" result="shadowOffsetOuter1"/>
      <feGaussianBlur in="shadowOffsetOuter1" result="shadowBlurOuter1" stdDeviation="7"/>
      <feColorMatrix in="shadowBlurOuter1" values="0 0 0 0 0.0415817482   0 0 0 0 0.0415817482   0 0 0 0 0.0415817482  0 0 0 0.1 0"/>
    </filter>
    <linearGradient id="img-steps-j" x1="108.096%" x2="0%" y1="60.217%" y2="41.296%">
      <stop offset="0%" stop-color="#1E85E9"/>
      <stop offset="20.276%" stop-color="#8671F3"/>
      <stop offset="70.727%" stop-color="#CFA9FC"/>
      <stop offset="100%" stop-color="#F4D9FB"/>
    </linearGradient>
    <linearGradient id="img-steps-k" x1="108.096%" x2="0%" y1="57.199%" y2="43.867%">
      <stop offset="0%" stop-color="#1E85E9"/>
      <stop offset="20.276%" stop-color="#8671F3"/>
      <stop offset="70.727%" stop-color="#CFA9FC"/>
      <stop offset="100%" stop-color="#F4D9FB"/>
    </linearGradient>
  </defs>
  <g fill="none" fill-rule="evenodd" transform="translate(1 1)">
    <g transform="matrix(-1 0 0 1 352 22)">
      <path fill="url(#img-steps-a)" fill-rule="nonzero" d="M62.1599984,0 C94.3685464,0 120.855589,24.4812737 124.006199,55.8399653 L124,56.5 L124,56.5 C124,61.2126451 124.537081,65.7905306 125.562532,70.1668702 C126.055235,72.4360179 126.704067,74.6040011 127.499002,76.6760181 C135.216036,97.9162007 155.053573,113 180.5,113 C188.525784,113 195.993613,111.499514 202.699202,108.778633 C203.017028,108.678689 203.27376,108.574442 203.465741,108.465116 L203.513137,108.440798 C204.841097,107.877167 206.138268,107.265226 207.403017,106.607213 C213.646479,104.00316 224.563266,100.576744 233.839994,100.576744 C268.170014,100.576744 296,128.389231 296,162.697674 C296,197.006118 268.170014,224.818605 233.839994,224.818605 C223.509924,224.818605 213.768392,222.30036 205.196532,217.844633 L202.04627,216.549481 C198.968322,215.28269 195.791564,214.333043 192.561419,213.693392 C187.359484,211.946387 181.790262,211 176,211 C147.281193,211 124,234.281193 124,263 C124,291.718807 147.281193,315 176,315 C185.970247,315 195.285124,312.194022 203.198007,307.328687 C212.25606,302.191572 222.663219,299.75814 233.839994,299.75814 C268.170014,299.75814 296,327.570627 296,361.87907 C296,396.187513 268.170014,424 233.839994,424 C199.509974,424 171.679995,396.187513 171.679995,361.87907 L171.41504,360.569038 C168.707236,331.602564 142.470548,309.762695 115.822266,309.762695 C106.373219,309.762695 96.9759212,312.591033 88.6609809,317.508743 L89.3129972,317.198719 C81.1091344,321.18635 71.895961,323.423256 62.1599984,323.423256 C27.8299785,323.423256 0,295.610769 0,261.302326 C0,226.993882 27.8299785,199.181395 62.1599984,199.181395 C72.279201,199.181395 81.8336478,201.597882 90.2770705,205.884929 C92.3007918,207.260744 94.425903,208.498461 96.6379203,209.586485 C96.8994882,209.740405 97.180221,209.899256 97.4786168,210.061373 C97.5316643,210.090194 97.6597422,210.125982 97.8570738,210.167013 C104.595399,213.269647 112.095627,215 120,215 C149.271092,215 173,191.271092 173,162 C173,132.728908 149.271092,109 120,109 C109.803275,109 100.2791,111.879528 92.1962858,116.869773 C91.2982981,117.155819 90.4881524,117.462693 89.7784375,117.788679 C79.8560069,122.34624 72.0805131,124.24186 62.1599984,124.24186 C27.8299785,124.24186 0,96.4293734 0,62.1209302 C0,27.8124871 27.8299785,0 62.1599984,0 Z" opacity=".9"/>
      <path fill="#FFF" d="M62,315 C91.2710917,315 115,291.271092 115,262 C115,232.728908 91.2710917,209 62,209 C32.7289083,209 9,232.728908 9,262 C9,291.271092 32.7289083,315 62,315 Z"/>
      <use fill="#000" filter="url(#img-steps-b)" xlink:href="#img-steps-c"/>
      <use fill="#FFF" xlink:href="#img-steps-c"/>
      <path fill="#FFF" d="M234,415 C263.271092,415 287,391.271092 287,362 C287,332.728908 263.271092,309 234,309 C204.728908,309 181,332.728908 181,362 C181,391.271092 204.728908,415 234,415 Z"/>
      <use fill="#000" filter="url(#img-steps-d)" xlink:href="#img-steps-e"/>
      <use fill="#FFF" xlink:href="#img-steps-e"/>
      <path fill="#FFF" d="M61,115 C90.2710917,115 114,91.2710917 114,62 C114,32.7289083 90.2710917,9 61,9 C31.7289083,9 8,32.7289083 8,62 C8,91.2710917 31.7289083,115 61,115 Z"/>
      <use fill="#000" filter="url(#img-steps-f)" xlink:href="#img-steps-g"/>
      <use fill="#FFF" xlink:href="#img-steps-g"/>
      <path fill="#FFF" d="M234,215 C263.271092,215 287,191.271092 287,162 C287,132.728908 263.271092,109 234,109 C204.728908,109 181,132.728908 181,162 C181,191.271092 204.728908,215 234,215 Z"/>
      <use fill="#000" filter="url(#img-steps-h)" xlink:href="#img-steps-i"/>
      <use fill="#FFF" xlink:href="#img-steps-i"/>
      <path fill="#5055FE" fill-rule="nonzero" d="M242.818648,343.5 L248.5,350.417675 L248.5,373 C248.5,374.380712 247.380712,375.5 246,375.5 L246,375.5 L244.5,375.5 L244.5,377 C244.5,378.325483 243.468464,379.410039 242.164376,379.494682 L242,379.5 L222,379.5 C220.674517,379.5 219.589961,378.468464 219.505318,377.164376 L219.5,377 L219.5,350 C219.5,348.674517 220.531536,347.589961 221.835624,347.505318 L222,347.5 L223.5,347.5 L223.5,346 C223.5,344.674517 224.531536,343.589961 225.835624,343.505318 L226,343.5 L242.818648,343.5 Z M223.5,348.5 L222,348.5 C221.220304,348.5 220.579551,349.094888 220.506867,349.85554 L220.5,350 L220.5,377 C220.5,377.779696 221.094888,378.420449 221.85554,378.493133 L222,378.5 L242,378.5 C242.779696,378.5 243.420449,377.905112 243.493133,377.14446 L243.5,377 L243.5,375.5 L226,375.5 C224.674517,375.5 223.589961,374.468464 223.505318,373.164376 L223.5,373 L223.5,348.5 Z M242.082,344.5 L226,344.5 C225.171573,344.5 224.5,345.171573 224.5,346 L224.5,346 L224.5,373 C224.5,373.828427 225.171573,374.5 226,374.5 L226,374.5 L246,374.5 C246.828427,374.5 247.5,373.828427 247.5,373 L247.5,373 L247.5,351.072 L244.582275,351.072266 C243.256792,351.072266 242.172237,350.04073 242.087593,348.736641 L242.082275,348.572266 L242.082,344.5 Z M242.944092,364.5 C243.220234,364.5 243.444092,364.723858 243.444092,365 C243.444092,365.24546 243.267217,365.449608 243.033967,365.491944 L242.944092,365.5 L229.180055,365.5 C228.903913,365.5 228.680055,365.276142 228.680055,365 C228.680055,364.75454 228.856931,364.550392 229.09018,364.508056 L229.180055,364.5 L242.944092,364.5 Z M242.944092,360.5 C243.220234,360.5 243.444092,360.723858 243.444092,361 C243.444092,361.24546 243.267217,361.449608 243.033967,361.491944 L242.944092,361.5 L229.180055,361.5 C228.903913,361.5 228.680055,361.276142 228.680055,361 C228.680055,360.75454 228.856931,360.550392 229.09018,360.508056 L229.180055,360.5 L242.944092,360.5 Z M242.944092,356.220554 C243.220234,356.220554 243.444092,356.444412 243.444092,356.720554 C243.444092,356.966014 243.267217,357.170163 243.033967,357.212499 L242.944092,357.220554 L229.180055,357.220554 C228.903913,357.220554 228.680055,356.996697 228.680055,356.720554 C228.680055,356.475094 228.856931,356.270946 229.09018,356.22861 L229.180055,356.220554 L242.944092,356.220554 Z M243.082,345.397 L243.082275,348.572266 C243.082275,349.351962 243.677163,349.992714 244.437815,350.065399 L244.582275,350.072266 L246.922,350.072 L243.082,345.397 Z" transform="matrix(-1 0 0 1 468 0)"/>
      <path fill="#5055FE" fill-rule="nonzero" d="M234.58868,143 C235.957992,143 237.09591,143.989123 237.324733,145.290763 L239.783333,145.290956 C240.566641,145.290956 241.233333,145.845638 241.233333,146.577769 L241.233333,146.577769 L241.233,147.221 L245.647778,147.221175 C246.887645,147.221175 247.911387,148.143753 247.994547,149.322321 L248,149.477444 L248,178.743731 C248,179.943299 247.027918,180.915859 245.808214,180.994823 L245.647778,181 L221.352222,181 C220.112355,181 219.088613,180.077422 219.005453,178.898854 L219,178.743731 L219,149.477444 C219,148.277876 219.972082,147.305316 221.191786,147.226352 L221.352222,147.221175 L225.766,147.221 L225.766667,146.577769 C225.766667,145.888705 226.357232,145.356827 227.079758,145.296638 L227.216667,145.290956 L229.675363,145.290214 C229.895243,144.040928 230.952583,143.079651 232.248092,143.004708 L232.41132,143 L234.58868,143 Z M225.766,148.186 L221.352222,148.186284 C220.627005,148.186284 220.039559,148.703326 219.972957,149.353975 L219.966667,149.477444 L219.966667,178.743731 C219.966667,179.409583 220.511452,179.965793 221.217952,180.028925 L221.352222,180.034891 L245.647778,180.034891 C246.372995,180.034891 246.960441,179.517849 247.027043,178.8672 L247.033333,178.743731 L247.033333,149.477444 C247.033333,148.811592 246.488548,148.255382 245.782048,148.19225 L245.647778,148.186284 L241.233,148.186 L241.233333,149.7948 C241.233333,150.483864 240.642768,151.015741 239.920242,151.075931 L239.783333,151.081612 L227.216667,151.081612 C226.433359,151.081612 225.766667,150.52693 225.766667,149.7948 L225.766667,149.7948 L225.766,148.186 Z M226.25,169.418689 C226.516938,169.418689 226.733333,169.634736 226.733333,169.901243 L226.733333,169.901243 L226.733333,173.76168 C226.733333,174.028188 226.516938,174.244235 226.25,174.244235 L226.25,174.244235 L222.383333,174.244235 C222.116396,174.244235 221.9,174.028188 221.9,173.76168 L221.9,173.76168 L221.9,169.901243 C221.9,169.634736 222.116396,169.418689 222.383333,169.418689 L222.383333,169.418689 Z M225.766667,170.383046 L222.866667,170.383046 L222.866667,173.278374 L225.766667,173.278374 L225.766667,170.383046 Z M244.407568,171.348907 C244.674506,171.348907 244.890902,171.564954 244.890902,171.831462 C244.890902,172.068357 244.719922,172.265383 244.494448,172.306242 L244.407568,172.314016 L229.674634,172.314016 C229.407696,172.314016 229.1913,172.097969 229.1913,171.831462 C229.1913,171.594566 229.36228,171.397541 229.587754,171.356682 L229.674634,171.348907 L244.407568,171.348907 Z M226.25,162.662924 C226.516938,162.662924 226.733333,162.878971 226.733333,163.145478 L226.733333,163.145478 L226.733333,167.005915 C226.733333,167.272423 226.516938,167.48847 226.25,167.48847 L226.25,167.48847 L222.383333,167.48847 C222.116396,167.48847 221.9,167.272423 221.9,167.005915 L221.9,167.005915 L221.9,163.145478 C221.9,162.878971 222.116396,162.662924 222.383333,162.662924 L222.383333,162.662924 Z M225.766667,163.627281 L222.866667,163.627281 L222.866667,166.522609 L225.766667,166.522609 L225.766667,163.627281 Z M244.407568,164.593142 C244.674506,164.593142 244.890902,164.809189 244.890902,165.075697 C244.890902,165.312592 244.719922,165.509618 244.494448,165.550477 L244.407568,165.558251 L229.674634,165.558251 C229.407696,165.558251 229.1913,165.342204 229.1913,165.075697 C229.1913,164.838801 229.36228,164.641776 229.587754,164.600917 L229.674634,164.593142 L244.407568,164.593142 Z M226.25,155.907159 C226.516938,155.907159 226.733333,156.123206 226.733333,156.389713 L226.733333,156.389713 L226.733333,160.25015 C226.733333,160.516658 226.516938,160.732705 226.25,160.732705 L226.25,160.732705 L222.383333,160.732705 C222.116396,160.732705 221.9,160.516658 221.9,160.25015 L221.9,160.25015 L221.9,156.389713 C221.9,156.123206 222.116396,155.907159 222.383333,155.907159 L222.383333,155.907159 Z M225.766667,156.871516 L222.866667,156.871516 L222.866667,159.766844 L225.766667,159.766844 L225.766667,156.871516 Z M244.407568,157.647937 C244.674506,157.647937 244.890902,157.863984 244.890902,158.130491 C244.890902,158.367387 244.719922,158.564413 244.494448,158.605271 L244.407568,158.613046 L229.674634,158.613046 C229.407696,158.613046 229.1913,158.396999 229.1913,158.130491 C229.1913,157.893596 229.36228,157.69657 229.587754,157.655711 L229.674634,157.647937 L244.407568,157.647937 Z M239.783333,146.256066 L227.216667,146.256066 C226.932224,146.256066 226.733333,146.421541 226.733333,146.577769 L226.733333,146.577769 L226.733333,149.7948 C226.733333,149.951028 226.932224,150.116503 227.216667,150.116503 L227.216667,150.116503 L239.783333,150.116503 C240.067776,150.116503 240.266667,149.951028 240.266667,149.7948 L240.266667,149.7948 L240.266667,146.577769 C240.266667,146.421541 240.067776,146.256066 239.783333,146.256066 L239.783333,146.256066 Z M234.58868,143.965109 L232.41132,143.965109 C231.578535,143.965109 230.877015,144.526217 230.66535,145.29042 L236.334609,145.290272 C236.135005,144.569856 235.500065,144.029962 234.730234,143.97055 L234.58868,143.965109 Z"/>
      <path fill="#5055FE" fill-rule="nonzero" d="M63.4592,243 C64.36474,243.00646 65.14602,243.6365 65.344,244.52 L65.8,246.9824 C66.0432,247.84576 66.655,248.55788 67.472,248.928 C68.30838,249.2567 69.24964,249.18374 70.0256,248.7304 L71.88,247.332 C72.65938,246.78366 73.72072,246.88018 74.388,247.56 L76.44,249.5968 C77.12818,250.26636 77.22508,251.33796 76.668,252.12 L75.2544,254.096 C74.50428,255.47502 75.01424,257.20098 76.39326,257.9511 C76.59086,258.05864 76.80062,258.14186 77.0176,258.2 L79.48,258.656 C80.35818,258.85284 80.9867,259.62576 81,260.5256 L81,263.4592 C80.9867,264.35866 80.35818,265.13196 79.48,265.3288 L77.0176,265.8 C75.49228,266.17202 74.55748,267.7095 74.9295,269.23482 C74.99752,269.51298 75.10696,269.77974 75.2544,270.0256 L76.668,272.0016 C77.15744,272.75818 77.0632,273.75188 76.44,274.4032 L74.388,276.44 C73.72224,277.07726 72.70042,277.1601 71.94118,276.6376 L69.96518,275.224 C68.60022,274.44842 66.86552,274.92608 66.08994,276.29104 C65.95998,276.51904 65.8627,276.76338 65.80038,277.0176 L65.344,279.48 C65.14602,280.3635 64.36474,280.99354 63.4592,281 L60.5408,281 C59.64096,280.9867 58.86804,280.35818 58.6712,279.48 L58.2,277.0176 C57.82798,275.49228 56.2905,274.55748 54.76518,274.9295 C54.48664,274.99752 54.21988,275.10696 53.97402,275.2544 L52.12,276.668 C51.341,277.21634 50.27928,277.11982 49.612,276.44 L47.56,274.40358 C46.87182,273.73364 46.77492,272.66242 47.332,271.88 L48.7456,269.904 C49.49572,268.52498 48.98538,266.79902 47.60636,266.0489 C47.4746267,265.97746 47.3376578,265.916322 47.1965793,265.866387 L46.98202,265.8 L44.52,265.344 C43.64182,265.14716 43.0133,264.37424 43,263.4744 L43,260.5408 C43.00646,259.63526 43.6365,258.85398 44.52,258.656 L46.9824,258.2 C48.50316,257.81126 49.42086,256.26276 49.03212,254.742 C48.96866,254.49462 48.87252,254.25712 48.74598,254.0352 L47.332,252.12 C46.77492,251.33796 46.87182,250.26636 47.56,249.5968 L49.612,247.56 C50.27928,246.88018 51.341,246.78366 52.12,247.332 L54.096,248.7456 C55.47502,249.49572 57.20098,248.98538 57.9511,247.60636 C58.05864,247.40876 58.14186,247.19938 58.2,246.98202 L58.656,244.52 C58.85284,243.64182 59.62576,243.0133 60.5256,243 L63.4592,243 Z M63.4520663,243.999891 L60.5403788,243.999891 C60.1428341,244.005767 59.7962946,244.258673 59.6702921,244.597915 L59.639277,244.702116 L59.1660384,247.240418 C59.0873334,247.534662 58.9745779,247.817712 58.82955,248.084194 C57.8482126,249.888284 55.6314458,250.592328 53.7999691,249.716878 L53.6181658,249.62405 L53.5141702,249.558911 L51.5443979,248.14973 C51.2002819,247.907506 50.7425494,247.924254 50.4116858,248.1844 L50.3164733,248.269731 L48.257344,250.313537 C47.953267,250.609386 47.8867203,251.066721 48.0730104,251.422591 L48.1364978,251.526044 L49.5504778,253.441244 L49.6146805,253.539862 C49.7853785,253.839225 49.9151339,254.159743 50.0009673,254.494341 C50.5100704,256.485964 49.3616831,258.512553 47.3607612,259.12816 L47.1644893,259.183282 L44.7386632,259.6318 C44.3483435,259.719266 44.059805,260.041009 44.0082288,260.424179 L43.9998908,260.5408 L43.9998908,263.459621 C44.0057667,263.857166 44.2586731,264.203705 44.5979146,264.329708 L44.7021164,264.360723 L47.1641364,264.816723 L47.2776071,264.844684 L47.5302453,264.923696 C47.7202648,264.990954 47.905075,265.073311 48.0841942,265.17045 C49.8882842,266.151787 50.5923284,268.368554 49.7168778,270.200031 L49.62405,270.381834 L49.5589105,270.48583 L48.1466147,272.460002 C47.9003615,272.805866 47.9168694,273.267649 48.1785615,273.598653 L48.2644071,273.693784 L50.3256582,275.739506 C50.6203932,276.03978 51.0736366,276.105846 51.4149245,275.932101 L51.5136818,275.872778 L53.3677018,274.459178 L53.4597192,274.39679 C53.7915619,274.197787 54.1517072,274.049926 54.5282294,273.957978 C56.5256499,273.470815 58.5387388,274.641497 59.1294973,276.634265 L59.182179,276.829652 L59.646988,279.261282 C59.7339959,279.649458 60.0523048,279.937119 60.4269059,279.990987 L60.5408,280.000025 L63.4520663,280.000025 C63.8522788,279.99717 64.2024534,279.743856 64.3294986,279.402612 L64.3607452,279.297764 L64.8291375,276.779508 C64.9135822,276.435035 65.045404,276.104186 65.2204929,275.797014 C66.2350972,274.01139 68.4641155,273.34904 70.2791435,274.258365 L70.459206,274.354553 L70.5470098,274.410689 L72.5080937,275.813823 C72.8431102,276.044377 73.2837813,276.032171 73.5944589,275.804881 L73.6835267,275.730269 L75.717468,273.711863 C75.9900965,273.426932 76.0544787,273.007329 75.9104268,272.686423 L75.8546895,272.58343 L74.3967901,270.539901 C74.1978985,270.208244 74.0500327,269.848217 73.9579783,269.471771 C73.4708147,267.47435 74.6414966,265.461261 76.6342653,264.870503 L76.8296522,264.817821 L79.2612816,264.353012 C79.6493114,264.266037 79.9370925,263.947522 79.9909832,263.573046 L80.0001092,263.4592 L80.0001092,260.540379 C79.9942333,260.142834 79.7413269,259.796295 79.4021058,259.670296 L79.2979107,259.639282 L76.7587794,259.165925 C76.4647467,259.087139 76.1815049,258.974359 75.9154258,258.82955 C74.1113717,257.848232 73.4076309,255.631482 74.2831193,253.799973 L74.37595,253.618166 L74.4410895,253.51417 L75.8535185,251.539811 C76.0996051,251.194349 76.0830732,250.732504 75.8213741,250.40162 L75.7355267,250.306531 L73.6743418,248.260494 C73.379568,247.960181 72.926538,247.894127 72.581949,248.0703 L72.4820922,248.130427 L70.6276922,249.528827 L70.5300493,249.593841 C69.4895733,250.20172 68.2276216,250.299416 67.0593465,249.838888 C66.0415848,249.377818 65.2633531,248.517377 64.8866557,247.392871 L64.816718,247.164489 L64.3681996,244.738663 C64.2719879,244.309312 63.8923,244.003115 63.4520663,243.999891 Z M69.8488507,257.131461 C70.0179778,257.296888 70.0464838,257.564002 69.9277508,257.763347 L69.8763111,257.834594 L62.0792758,266.839344 C61.9395099,267.000758 61.7199841,267.043424 61.5385112,266.954228 L61.4634103,266.907889 L56.1968794,262.926944 C55.9861591,262.767662 55.9368261,262.456981 56.0866912,262.233019 C56.2199047,262.033942 56.465669,261.970394 56.6666343,262.070599 L56.739589,262.115907 L61.6692175,265.842676 L69.1872897,257.160647 C69.3623918,256.958423 69.6585827,256.945356 69.8488507,257.131461 Z" transform="matrix(-1 0 0 1 124 0)"/>
      <path fill="#5055FE" fill-rule="nonzero" d="M61,45 C70.3888407,45 78,52.6111593 78,62 C78,71.3888407 70.3888407,79 61,79 C51.6111593,79 44,71.3888407 44,62 C44,52.6111593 51.6111593,45 61,45 Z M61,45.9444444 C52.1327615,45.9444444 44.9444444,53.1327615 44.9444444,62 C44.9444444,70.8672385 52.1327615,78.0555556 61,78.0555556 C69.8672385,78.0555556 77.0555556,70.8672385 77.0555556,62 C77.0555556,53.1327615 69.8672385,45.9444444 61,45.9444444 Z M70.2206596,51.8682385 C70.6349923,51.6360983 71.0942475,52.0920628 70.8650927,52.5080541 L70.8650927,52.5080541 L64.2232305,64.565218 C64.1801147,64.6434873 64.115676,64.7079167 64.0374005,64.7510212 L64.0374005,64.7510212 L51.9787493,71.391436 C51.5627247,71.6205309 51.1068263,71.1612093 51.3390269,70.7469101 L51.3390269,70.7469101 L58.0550835,58.7639207 C58.0976211,58.6880239 58.1602998,58.6253543 58.2362029,58.5828277 L58.2362029,58.5828277 Z M58.568,59.777 L52.9715024,69.765518 L63.022,64.231 L58.568,59.777 Z M69.2396724,53.5000193 L59.242,59.099 L63.7,63.557 L69.2396724,53.5000193 Z"/>
    </g>
    <path stroke="url(#img-steps-j)" stroke-width=".5" d="M40.5970443,378.162067 C26.7531704,395.283495 15.1874609,411.496764 7.00671011,426.206977 C-45.7667274,521.101508 212.369991,358.206977 352.369991,295.206977 C445.703325,253.206977 445.703325,292.838487 352.369991,414.101508" opacity=".499" transform="matrix(1 0 0 -1 0 734.221)"/>
    <path stroke="url(#img-steps-k)" stroke-width=".5" d="M79.1731874,91.8746353 C65.3293134,108.996063 27.146907,158.371399 18.9661561,173.081612 C-33.8072814,267.976143 226.095062,137.206977 366.095062,74.2069769 C446.162396,38.1766769 457.542823,62.2215467 400.236345,146.341586" opacity=".499" transform="matrix(-1 0 0 1 448.095 0)"/>
    <g fill="#5055FE" transform="rotate(-140 53.432 70.403)">
      <circle cx="8.725" cy="8.791" r="6" opacity=".152" transform="rotate(45 8.725 8.791)"/>
      <circle cx="8.725" cy="8.791" r="2" transform="rotate(45 8.725 8.791)"/>
    </g>
    <g fill="#5055FE" transform="rotate(-140 86.785 176.04)">
      <circle cx="8.725" cy="8.791" r="6" opacity=".152" transform="rotate(45 8.725 8.791)"/>
      <circle cx="8.725" cy="8.791" r="2" transform="rotate(45 8.725 8.791)"/>
    </g>
    <g fill="#5055FE" transform="rotate(-140 205.469 -14.379)">
      <circle cx="8.725" cy="8.791" r="6" opacity=".152" transform="rotate(45 8.725 8.791)"/>
      <circle cx="8.725" cy="8.791" r="2" transform="rotate(45 8.725 8.791)"/>
    </g>
    <g fill="#5055FE" transform="rotate(-140 237.78 102.397)">
      <circle cx="8.725" cy="8.791" r="6" opacity=".152" transform="rotate(45 8.725 8.791)"/>
      <circle cx="8.725" cy="8.791" r="2" transform="rotate(45 8.725 8.791)"/>
    </g>
    <g fill="#5055FE" transform="rotate(-140 181.482 37.952)">
      <circle cx="8.725" cy="8.791" r="6" opacity=".152" transform="rotate(45 8.725 8.791)"/>
      <circle cx="8.725" cy="8.791" r="2" transform="rotate(45 8.725 8.791)"/>
    </g>
    <g fill="#5055FE" transform="rotate(-140 180.379 151.601)">
      <circle cx="8.725" cy="8.791" r="6" opacity=".152" transform="rotate(45 8.725 8.791)"/>
      <circle cx="8.725" cy="8.791" r="2" transform="rotate(45 8.725 8.791)"/>
    </g>
    <path stroke="#E3E0E0" stroke-dasharray="3" d="M282,0 C240.026359,0 206,34.026359 206,76"/>
    <path stroke="#E3E0E0" stroke-dasharray="3" d="M111,190 C69.026359,190 35,224.026359 35,266" transform="matrix(1 0 0 -1 0 456)"/>
    <path stroke="#E3E0E0" stroke-dasharray="3" d="M39.879548,413.518262 C51.3500806,445.290042 81.7729429,468 117.5,468 C146.351585,468 171.74406,453.189791 186.489714,430.757084"/>
  </g>
</svg>
