<svg xmlns="http://www.w3.org/2000/svg" width="384" height="527" viewBox="0 0 384 527">
  <defs>
    <linearGradient id="img-blockchain-a" x1="107.258%" x2="-14.788%" y1="47.112%" y2="47.112%">
      <stop offset="0%" stop-color="#1E85E9"/>
      <stop offset="20.276%" stop-color="#8671F3"/>
      <stop offset="70.727%" stop-color="#C06CFD" stop-opacity=".99"/>
      <stop offset="100%" stop-color="#FFBEE8"/>
    </linearGradient>
    <linearGradient id="img-blockchain-b" x1="107.258%" x2="-14.788%" y1="47.112%" y2="47.112%">
      <stop offset="0%" stop-color="#1E85E9"/>
      <stop offset="20.276%" stop-color="#8671F3"/>
      <stop offset="70.727%" stop-color="#C06CFD" stop-opacity=".99"/>
      <stop offset="100%" stop-color="#FFBEE8"/>
    </linearGradient>
  </defs>
  <g fill="none" fill-rule="evenodd">
    <path fill="url(#img-blockchain-a)" fill-rule="nonzero" d="M184.460856,1.20792265e-13 L222,21.9731558 L222,66.282 L239.14,76.886 L279.460856,55 L317,76.9731558 L317,121.706662 L280.999,143.434 L280.999,164.315 L318,185.973156 L318,230.706662 L281.062749,253 L240.887,230.032 L221.542928,242 L221,241.037182 L240.257,229.123 L240.005,186.762 L221.346,177.101 L185.062749,199 L185,198.965 L185,220 L184,220 L184,198.393 L144.865,176.02 L128,186.121 L128,230.706662 L127.864,230.788 L147,242.025278 L146.479578,243 L126.789,231.437 L91.0627486,253 L50.2602045,229.674336 L50,185.962543 L90,164.25 L90,142.965 L49.2602045,119.674336 L49,75.9625428 L89.4608562,54 L126.549,75.709 L144.257,65.119 L144,21.9625428 L184.460856,1.20792265e-13 Z M241.09,187.196 L241.338485,229.050802 L280.5,251.438 L279.909,208.665 L241.09,187.196 Z M51.09,187.196 L51.3384846,229.050802 L90.5,251.438 L89.909,208.665 L51.09,187.196 Z M126.916,187.299 L90.992,208.654 L91.583,251.427 L126.251,230.503 L126.520422,230 L126.807,230.168 L126.91636,230.102949 L126.916,187.299 Z M316.916,187.299 L280.992,208.654 L281.583,251.427 L316.91636,230.102949 L316.916,187.299 Z M90.4407229,165.234843 L51.662,186.283 L90.4396398,207.729787 L126.226,186.457 L126,186.060666 L126.009,186.055 L90.4407229,165.234843 Z M280.440723,165.234843 L241.662,186.283 L280.43964,207.729787 L316.459,186.318 L280.440723,165.234843 Z M145.09,133.196 L145.338485,175.050802 L184.5,197.438 L183.909,154.665 L145.09,133.196 Z M220.916,133.299 L184.992,154.654 L185.583,197.427 L220.91636,176.102949 L220.916,133.299 Z M239.857,121.015 L222,132.696 L222,176.239 L240.38,185.756 L279.999,164.25 L279.999,143.964 L239.857,121.015 Z M126.317,121.118 L91,142.434 L91,164.316 L127.062,185.424 L144.257,175.124 L144.001,132.092 L126.317,121.118 Z M184.440723,111.234843 L145.981,132.11 L145.827,132.374 L184.43964,153.729787 L220.459,132.318 L184.440723,111.234843 Z M240.715,78.542 L240.457072,79 L240.093,78.774 L240.338485,120.050802 L279.5,142.438 L278.909,99.665 L240.715,78.542 Z M315.916,78.299 L279.992,99.654 L280.583,142.427 L315.91636,121.102949 L315.916,78.299 Z M50.09,77.196 L50.3384846,119.050802 L89.5,141.438 L88.909,98.665 L50.09,77.196 Z M125.916,77.299 L89.992,98.654 L90.583,141.427 L125.91636,120.102949 L125.916,77.299 Z M221.284,67.138 L185.062749,89 L185,88.965 L185,110.316 L221.556,131.713 L239.257,120.134 L239.007,78.102 L221.284,67.138 Z M144.885,66.031 L127,76.725 L127,120.287 L144.968,131.437 L184,110.25 L184,88.393 L144.885,66.031 Z M279.440723,56.2348429 L240.662,77.283 L279.43964,98.7297869 L315.459,77.318 L279.440723,56.2348429 Z M89.4407229,55.2348429 L50.662,76.283 L89.4396398,97.7297869 L125.459,76.318 L89.4407229,55.2348429 Z M145.09,23.196 L145.338485,65.0508018 L184.5,87.438 L183.909,44.665 L145.09,23.196 Z M220.916,23.299 L184.992,44.654 L185.583,87.427 L220.91636,66.1029492 L220.916,23.299 Z M184.440723,1.23484294 L145.662,22.283 L184.43964,43.7297869 L220.459,22.318 L184.440723,1.23484294 Z"/>
    <path fill="url(#img-blockchain-b)" fill-rule="nonzero" d="M184.460856,219 L222,240.973156 L222,285.282 L239.14,295.886 L279.460856,274 L317,295.973156 L317,340.706662 L280.999,362.434 L280.999,383.315 L318,404.973156 L318,449.706662 L281.062749,472 L240.887,449.032 L222,460.716 L222,504.706662 L185.062749,527 L144.260205,503.674336 L144.003,460.545 L126.789,450.437 L91.0627486,472 L50.2602045,448.674336 L50,404.962543 L90,383.25 L90,361.965 L49.2602045,338.674336 L49,294.962543 L89.4608562,273 L126.549,294.709 L144.257,284.119 L144,240.962543 L184.460856,219 Z M145.09,461.196 L145.338485,503.050802 L184.5,525.438 L183.909,482.665 L146.494,461.971 L146.479578,462 L145.43,461.383 L145.09,461.196 Z M220.916,461.299 L184.992,482.654 L185.583,525.427 L220.91636,504.102949 L220.916,461.299 Z M184.440723,439.234843 L145.7,460.261 L146.913,460.974 L184.43964,481.729787 L220.459,460.318 L184.440723,439.234843 Z M241.09,406.196 L241.338485,448.050802 L280.5,470.438 L279.909,427.665 L241.09,406.196 Z M51.09,406.196 L51.3384846,448.050802 L90.5,470.438 L89.909,427.665 L51.09,406.196 Z M126.916,406.299 L90.992,427.654 L91.583,470.427 L126.251,449.503 L126.520422,449 L126.807,449.168 L126.91636,449.102949 L126.916,406.299 Z M316.916,406.299 L280.992,427.654 L281.583,470.427 L316.91636,449.102949 L316.916,406.299 Z M221.346,396.101 L185.062749,418 L185,417.965 L185,438.315 L221.539,459.703 L240.257,448.123 L240.005,405.762 L221.346,396.101 Z M144.865,395.02 L128,405.121 L128,449.706662 L127.864,449.788 L144.618,459.626 L184,438.249 L184,417.393 L144.865,395.02 Z M90.4407229,384.234843 L51.662,405.283 L90.4396398,426.729787 L126.226,405.457 L126,405.060666 L126.009,405.055 L90.4407229,384.234843 Z M280.440723,384.234843 L241.662,405.283 L280.43964,426.729787 L316.459,405.318 L280.440723,384.234843 Z M145.09,352.196 L145.338485,394.050802 L184.5,416.438 L183.909,373.665 L145.09,352.196 Z M220.916,352.299 L184.992,373.654 L185.583,416.427 L220.91636,395.102949 L220.916,352.299 Z M239.857,340.015 L222,351.696 L222,395.239 L240.38,404.756 L279.999,383.25 L279.999,362.964 L239.857,340.015 Z M126.317,340.118 L91,361.434 L91,383.316 L127.062,404.424 L144.257,394.124 L144.001,351.092 L126.317,340.118 Z M184.440723,330.234843 L145.981,351.11 L145.827,351.374 L184.43964,372.729787 L220.459,351.318 L184.440723,330.234843 Z M240.715,297.542 L240.457072,298 L240.093,297.774 L240.338485,339.050802 L279.5,361.438 L278.909,318.665 L240.715,297.542 Z M315.916,297.299 L279.992,318.654 L280.583,361.427 L315.91636,340.102949 L315.916,297.299 Z M50.09,296.196 L50.3384846,338.050802 L89.5,360.438 L88.909,317.665 L50.09,296.196 Z M125.916,296.299 L89.992,317.654 L90.583,360.427 L125.91636,339.102949 L125.916,296.299 Z M221.284,286.138 L185.062749,308 L185,307.965 L185,329.316 L221.556,350.713 L239.257,339.134 L239.007,297.102 L221.284,286.138 Z M144.885,285.031 L127,295.725 L127,339.287 L144.968,350.437 L184,329.25 L184,307.393 L144.885,285.031 Z M279.440723,275.234843 L240.662,296.283 L279.43964,317.729787 L315.459,296.318 L279.440723,275.234843 Z M89.4407229,274.234843 L50.662,295.283 L89.4396398,316.729787 L125.459,295.318 L89.4407229,274.234843 Z M145.09,242.196 L145.338485,284.050802 L184.5,306.438 L183.909,263.665 L145.09,242.196 Z M220.916,242.299 L184.992,263.654 L185.583,306.427 L220.91636,285.102949 L220.916,242.299 Z M184.440723,220.234843 L145.662,241.283 L184.43964,262.729787 L220.459,241.318 L184.440723,220.234843 Z"/>
    <g fill="#5055FE" transform="translate(0 6)">
      <circle cx="376.5" cy="294.5" r="3.5" transform="rotate(51 376.5 294.5)"/>
      <circle cx="376.5" cy="294.5" r="7.5" opacity=".103"/>
      <circle cx="184.5" cy="149.5" r="3.5" transform="rotate(51 184.5 149.5)"/>
      <circle cx="184.5" cy="149.5" r="7.5" opacity=".103"/>
      <g transform="translate(1 277)">
        <circle cx="7.5" cy="7.5" r="3.5" transform="rotate(51 7.5 7.5)"/>
        <circle cx="7.5" cy="7.5" r="7.5" opacity=".103"/>
      </g>
      <circle cx="7.5" cy="7.5" r="3.5" transform="rotate(51 7.5 7.5)"/>
      <circle cx="7.5" cy="7.5" r="7.5" opacity=".103"/>
      <circle cx="376.5" cy="7.5" r="3.5" transform="rotate(51 376.5 7.5)"/>
      <circle cx="376.5" cy="7.5" r="7.5" opacity=".103"/>
    </g>
    <g fill="#5055FE" transform="translate(1 365)">
      <circle cx="375.5" cy="142.5" r="3.5" transform="rotate(51 375.5 142.5)"/>
      <circle cx="375.5" cy="142.5" r="7.5" opacity=".103"/>
      <circle cx="183.5" cy="7.5" r="3.5" transform="rotate(51 183.5 7.5)"/>
      <circle cx="183.5" cy="7.5" r="7.5" opacity=".103"/>
      <circle cx="7.5" cy="142.5" r="3.5" transform="rotate(51 7.5 142.5)"/>
      <circle cx="7.5" cy="142.5" r="7.5" opacity=".103"/>
    </g>
  </g>
</svg>
