<svg xmlns="http://www.w3.org/2000/svg" width="387" height="413" viewBox="0 0 387 413">
  <defs>
    <linearGradient id="img-stages-a" x1="50%" x2="50%" y1="0%" y2="100%">
      <stop offset="0%" stop-color="#E3E0E0"/>
      <stop offset="100%" stop-color="#FFF"/>
    </linearGradient>
    <linearGradient id="img-stages-b" x1="100%" x2="23.944%" y1="66.478%" y2="41.45%">
      <stop offset="0%" stop-color="#E3E0E0"/>
      <stop offset="100%" stop-color="#FFF"/>
    </linearGradient>
    <linearGradient id="img-stages-c" x1="50%" x2="50%" y1="0%" y2="100%">
      <stop offset="0%" stop-color="#FFF"/>
      <stop offset="100%" stop-color="#E3E0E0"/>
    </linearGradient>
    <linearGradient id="img-stages-d" x1="66.808%" x2="35.534%" y1="108.696%" y2="0%">
      <stop offset="0%" stop-color="#1E85E9"/>
      <stop offset="20.276%" stop-color="#8671F3"/>
      <stop offset="70.727%" stop-color="#CFA9FC"/>
      <stop offset="100%" stop-color="#F4D9FB"/>
    </linearGradient>
    <linearGradient id="img-stages-e" x1="100%" x2="0%" y1="66.672%" y2="36.417%">
      <stop offset="0%" stop-color="#FFF"/>
      <stop offset="100%" stop-color="#E3E0E0"/>
    </linearGradient>
    <linearGradient id="img-stages-f" x1="72.633%" x2="27.367%" y1="100%" y2="0%">
      <stop offset="0%" stop-color="#1E85E9"/>
      <stop offset="20.276%" stop-color="#8671F3"/>
      <stop offset="70.727%" stop-color="#C06CFD" stop-opacity=".99"/>
      <stop offset="100%" stop-color="#FFBEE8"/>
    </linearGradient>
    <linearGradient id="img-stages-g" x1="100%" x2="0%" y1="84.55%" y2="15.45%">
      <stop offset="0%" stop-color="#1E85E9"/>
      <stop offset="20.276%" stop-color="#8671F3"/>
      <stop offset="70.727%" stop-color="#C06CFD" stop-opacity=".99"/>
      <stop offset="100%" stop-color="#FFBEE8"/>
    </linearGradient>
    <linearGradient id="img-stages-h" x1="82.286%" x2="17.714%" y1="100%" y2="0%">
      <stop offset="0%" stop-color="#1E85E9"/>
      <stop offset="20.276%" stop-color="#8671F3"/>
      <stop offset="70.727%" stop-color="#C06CFD" stop-opacity=".99"/>
      <stop offset="100%" stop-color="#FFBEE8"/>
    </linearGradient>
  </defs>
  <g fill="none" fill-rule="evenodd" transform="translate(1)">
    <polyline stroke="#EDEDED" points="215 74 269.5 43 324 74 324 136 269.5 167"/>
    <polyline stroke="#EDEDED" points="215 257 269.5 226 324 257 324 319 269.5 350 215 318"/>
    <path stroke="url(#img-stages-a)" stroke-dasharray="2" d="M162.5,351 L162.5,413 M54,351 L108,320"/>
    <polyline stroke="#EDEDED" points="108 259 54 228 54 166 109.25 134"/>
    <line x1="54" y1="165" y2="134" stroke="url(#img-stages-b)" stroke-dasharray="2"/>
    <line x1="163" x2="163" y1="41" y2="12" stroke="url(#img-stages-c)" stroke-dasharray="2"/>
    <g fill="#5055FE" transform="translate(47 159)">
      <circle cx="7" cy="7" r="7" opacity=".103"/>
      <circle cx="7" cy="7" r="3"/>
    </g>
    <g fill="#5055FE" transform="translate(47 343)">
      <circle cx="7" cy="7" r="7" opacity=".103"/>
      <circle cx="7" cy="7" r="3"/>
    </g>
    <g fill="#5055FE" transform="translate(156)">
      <circle cx="7" cy="7" r="7" opacity=".103"/>
      <circle cx="7" cy="7" r="3"/>
    </g>
    <path fill="url(#img-stages-d)" fill-rule="nonzero" d="M162.5,36.3904077 L220.626588,69.6813336 L220.626412,130.320408 L275.693575,162.113249 L275.693575,229.886751 L221.626412,261.102408 L221.626588,322.898333 L162.5,356.76199 L103.373412,322.898333 L103.373412,255.101667 L158.306412,223.638408 L158.306412,167.207408 L104.373412,136.318666 L104.373412,69.6813336 L162.5,36.3904077 Z M162.894412,232.535408 L113.373,260.898 L113.373,317.101 L162.5,345.238 L211.626,317.101 L211.626412,260.671408 L162.894412,232.535408 Z M217,139.773 L168.306,167.887 L168.306,224.112 L217,252.226 L265.693,224.112 L265.693,167.887 L217,139.773 Z M162.5,45.609 L112.373,74.319 L112.373,131.68 L161.892412,160.042408 L212.626412,130.751408 L212.626,74.319 L162.5,45.609 Z"/>
    <line x1="324.5" x2="379" y1="137" y2="168.471" stroke="url(#img-stages-e)" stroke-dasharray="2"/>
    <g fill="#5055FE" transform="translate(372 162)">
      <circle cx="7" cy="7" r="7" opacity=".103"/>
      <circle cx="7" cy="7" r="3"/>
    </g>
    <g fill="#5055FE" transform="translate(317 311)">
      <circle cx="7" cy="7" r="7" opacity=".103"/>
      <circle cx="7" cy="7" r="3"/>
    </g>
    <g fill="#5055FE" transform="translate(156 399)">
      <circle cx="7" cy="7" r="7" opacity=".103"/>
      <circle cx="7" cy="7" r="3"/>
    </g>
    <g fill="#5055FE" transform="translate(317 130)">
      <circle cx="7" cy="7" r="7" opacity=".103"/>
      <circle cx="7" cy="7" r="3"/>
    </g>
    <path fill="url(#img-stages-f)" fill-rule="nonzero" d="M164.594513,258.105013 C164.795645,258.232397 164.974962,258.390688 165.126022,258.573735 L165.233918,258.715566 L172.35,268.881568 L172.350001,267.559996 L172.354781,267.350512 C172.440809,265.459182 173.687567,263.40637 176.060561,261.172352 C176.232761,261.010237 176.501068,261.009085 176.674654,261.169716 C179.178365,263.486571 180.450001,265.608893 180.450001,267.559996 L180.450001,267.559996 L180.45,289.234568 L183.020536,292.530236 L183.061433,292.59274 C183.096879,292.6582 183.115724,292.731801 183.115724,292.807019 L183.115724,292.807019 L183.115724,296.26969 L183.108474,296.350578 C183.070372,296.560502 182.886638,296.71969 182.665724,296.71969 L182.665724,296.71969 L180.45,296.719568 L180.450001,302.659998 L180.442751,302.740886 C180.404649,302.95081 180.220915,303.109998 180.000001,303.109998 L180.000001,303.109998 L176.85,303.109568 L176.850001,310.210682 C176.850001,310.45921 176.648529,310.660682 176.400001,310.660682 C176.179087,310.660682 175.995354,310.501494 175.957251,310.29157 L175.950001,310.210682 L175.95,303.109568 L172.800001,303.109998 L172.800001,307.510682 C172.800001,307.75921 172.598529,307.960682 172.350001,307.960682 C172.129087,307.960682 171.945354,307.801494 171.907251,307.59157 L171.900001,307.510682 L171.9,302.275568 L170.451596,304.691521 C170.386535,304.799955 170.279777,304.87472 170.158745,304.900288 L170.065724,304.909998 L169.111352,304.909592 C169.666557,305.953246 169.82894,307.296879 169.611784,308.927187 C169.332086,311.027032 167.446153,313.090365 163.997401,315.1615 C163.85595,315.246448 163.679352,315.24717 163.53721,315.163383 C160.02016,313.090206 158.130353,311.022636 157.917986,308.91284 C157.754156,307.285254 157.927475,305.947683 158.450562,304.908951 L157.465723,304.909998 C157.307655,304.909998 157.161177,304.827063 157.079851,304.691521 L157.079851,304.691521 L155.7,302.391568 L155.7,307.510682 C155.7,307.75921 155.498529,307.960682 155.25,307.960682 C155.029087,307.960682 154.845353,307.801494 154.807251,307.59157 L154.8,307.510682 L154.8,303.106568 L154.765723,303.109998 L151.2,303.109568 L151.2,310.210682 C151.2,310.45921 150.998528,310.660682 150.75,310.660682 C150.529086,310.660682 150.345353,310.501494 150.30725,310.29157 L150.3,310.210682 L150.3,303.109568 L147.565723,303.109998 C147.344809,303.109998 147.161075,302.95081 147.122973,302.740886 L147.115723,302.659998 L147.115,296.719568 L144.9,296.71969 C144.679086,296.71969 144.495352,296.560502 144.45725,296.350578 L144.45,296.26969 L144.45,292.807019 C144.45,292.731801 144.468845,292.6582 144.504291,292.59274 L144.545188,292.530236 L147.115,289.234568 L147.115723,267.559996 C147.115723,265.608893 148.387359,263.486571 150.89107,261.169716 C151.064656,261.009085 151.332963,261.010237 151.505163,261.172352 C153.878157,263.40637 155.124916,265.459182 155.210943,267.350512 L155.215723,267.559996 L155.215,268.707568 L161.489803,258.801989 C162.15468,257.752182 163.544706,257.440136 164.594513,258.105013 Z M163.315,304.909568 L159.493423,304.909998 L159.397742,305.056592 C158.884922,305.893443 158.676601,307.045537 158.787105,308.522893 L158.787105,308.522893 L158.813461,308.822703 C158.978482,310.46213 160.48577,312.205322 163.376419,314.013122 L163.376419,314.013122 L163.763023,314.249298 L163.842532,314.202043 C166.778641,312.387788 168.383391,310.634769 168.692325,308.979266 L168.692325,308.979266 L168.719663,308.808357 C168.934592,307.194765 168.741731,305.953974 168.159545,305.067489 L168.159545,305.067489 L168.048824,304.909998 L164.215,304.909568 L164.215723,308.059998 C164.215723,308.308526 164.014252,308.509997 163.765723,308.509997 C163.54481,308.509997 163.361076,308.35081 163.322974,308.140886 L163.315723,308.059998 L163.315,304.909568 Z M176.365724,312.109998 C176.586638,312.109998 176.770371,312.269186 176.808474,312.47911 L176.815724,312.559998 L176.815724,313.459998 C176.815724,313.708526 176.614252,313.909998 176.365724,313.909998 C176.14481,313.909998 175.961076,313.750811 175.922974,313.540886 L175.915724,313.459998 L175.915724,312.559998 C175.915724,312.31147 176.117196,312.109998 176.365724,312.109998 Z M150.715723,312.109998 C150.936637,312.109998 151.12037,312.269186 151.158473,312.47911 L151.165723,312.559998 L151.165723,313.459998 C151.165723,313.708526 150.964251,313.909998 150.715723,313.909998 C150.494809,313.909998 150.311075,313.750811 150.272973,313.540886 L150.265723,313.459998 L150.265723,312.559998 C150.265723,312.31147 150.467195,312.109998 150.715723,312.109998 Z M172.315724,309.409998 C172.536638,309.409998 172.720371,309.569186 172.758474,309.77911 L172.765724,309.859998 L172.765724,310.759998 C172.765724,311.008526 172.564252,311.209998 172.315724,311.209998 C172.09481,311.209998 171.911076,311.05081 171.872974,310.840886 L171.865724,310.759998 L171.865724,309.859998 C171.865724,309.61147 172.067196,309.409998 172.315724,309.409998 Z M155.215723,309.409998 C155.436637,309.409998 155.620371,309.569186 155.658473,309.77911 L155.665723,309.859998 L155.665723,310.759998 C155.665723,311.008526 155.464251,311.209998 155.215723,311.209998 C154.994809,311.209998 154.811076,311.05081 154.772973,310.840886 L154.765723,310.759998 L154.765723,309.859998 C154.765723,309.61147 154.967195,309.409998 155.215723,309.409998 Z M163.315,300.409568 L155.7,300.409568 L155.7,300.642568 L157.720423,304.009998 L163.315,304.009568 L163.315,300.409568 Z M171.9,300.409568 L164.215,300.409568 L164.215,304.009568 L169.810124,304.009998 L171.9,300.526568 L171.9,300.409568 Z M179.55,296.719568 L173.25,296.719568 L173.250824,302.209702 L179.550824,302.209702 L179.55,296.719568 Z M154.314,296.719568 L148.015,296.719568 L148.0149,302.209702 L154.3149,302.209702 L154.314,296.719568 Z M158.478,265.237568 L155.215723,270.389596 L155.215723,280.195593 C155.209635,280.255202 155.1932,280.313942 155.16457,280.368542 L155.120535,280.436779 L147.954285,289.622668 C147.937244,289.651759 147.917029,289.678765 147.894116,289.703212 L145.35,292.961301 L145.35,295.818802 L154.3149,295.818802 L154.315,292.960568 L154.315723,288.214843 C154.315723,287.993929 154.474911,287.810196 154.684835,287.772093 L154.765723,287.764843 C154.986637,287.764843 155.170371,287.924031 155.208473,288.133955 L155.215743,288.214843 L155.215723,299.509098 L163.315,299.508568 L163.315723,295.459997 C163.315723,295.211469 163.517195,295.009997 163.765723,295.009997 C163.986637,295.009997 164.170371,295.169185 164.208473,295.379109 L164.215723,295.459997 L164.215,299.508568 L172.315723,299.509098 L172.315723,288.408752 L172.349,288.408568 L172.349981,288.214843 L172.357251,288.133955 C172.395354,287.924031 172.579087,287.764843 172.800001,287.764843 L172.800001,287.764843 L172.880889,287.772093 C173.090814,287.810196 173.250001,287.993929 173.250001,288.214843 L173.250001,288.214843 L173.250824,295.818802 L182.215724,295.818802 L182.215724,292.961301 L179.674486,289.706254 C179.650385,289.681012 179.629191,289.652971 179.61144,289.622668 L172.445189,280.436779 L172.401154,280.368542 C172.369147,280.3075 172.352381,280.241285 172.350221,280.175028 L172.315723,280.175158 L172.315723,270.401296 L168.751,265.309568 L158.478223,265.309996 L158.478,265.237568 Z M179.55,272.509568 L173.25,272.509568 L173.25,280.005568 L179.55,288.081568 L179.55,272.509568 Z M154.315,272.509568 L148.015,272.509568 L148.015,288.080568 L154.315,280.004568 L154.315,272.509568 Z M176.372024,262.121 L176.186068,262.304323 C174.21851,264.273583 173.250001,266.031295 173.250001,267.559996 L173.250001,267.559996 L173.25,271.609568 L179.55,271.609568 L179.550001,267.559996 L179.545271,267.375681 C179.469567,265.892326 178.48484,264.197284 176.563303,262.306932 L176.563303,262.306932 L176.372024,262.121 Z M151.1937,262.121 L151.002422,262.306932 C149.080885,264.197284 148.096157,265.892326 148.020453,267.375681 L148.015723,267.559996 L148.015,271.609568 L154.315,271.609568 L154.315723,267.559996 C154.315723,266.031295 153.347214,264.273583 151.379657,262.304323 L151.1937,262.121 Z M167.365724,268.009996 C167.614252,268.009996 167.815724,268.211468 167.815724,268.459996 C167.815724,268.68091 167.656536,268.864644 167.446612,268.902746 L167.365724,268.909996 L160.165723,268.909996 C159.917195,268.909996 159.715723,268.708525 159.715723,268.459996 C159.715723,268.239082 159.874911,268.055349 160.084835,268.017246 L160.165723,268.009996 L167.365724,268.009996 Z M162.324925,259.177004 L162.25014,259.283536 L159.003,264.409568 L168.121,264.409568 L164.496609,259.231682 C164.419812,259.121972 164.327264,259.024505 164.22215,258.942324 L164.112966,258.865351 C163.520134,258.48989 162.746479,258.633653 162.324925,259.177004 Z"/>
    <path fill="url(#img-stages-g)" fill-rule="nonzero" d="M185.750002,78 C186.942937,78 187.919037,78.9283824 187.995216,80.102062 L188,80.2500001 L188,106.71 L190.68333,105.449175 L193.536243,110.379509 L190.399393,112.560791 C190.332534,112.608287 190.291564,112.707499 190.305329,112.78763 C190.400908,113.339858 190.450353,113.898697 190.450353,114.450019 C190.450353,114.998957 190.401395,115.546736 190.305424,116.101219 C190.291565,116.181884 190.332537,116.281101 190.39504,116.325535 L190.39504,116.325535 L193.547909,118.509698 L190.682621,123.439889 L187.234322,121.818167 C187.159276,121.783418 187.051452,121.797679 186.987993,121.85077 C186.140072,122.559905 185.170866,123.117648 184.115804,123.503704 C184.037413,123.532083 183.97064,123.619472 183.963885,123.702592 L183.963885,123.702592 L183.653209,127.50002 L177.946795,127.50002 L177.636097,123.702319 C177.629369,123.619471 177.562597,123.532086 177.482748,123.503176 C176.429138,123.117648 175.459931,122.559905 174.611952,121.850721 C174.548551,121.797679 174.440728,121.783418 174.368112,121.817033 L174.368112,121.817033 L170.917383,123.439889 L170.139,122.1 L141.65,122.100002 C141.401472,122.100002 141.2,121.89853 141.2,121.650002 C141.2,121.429088 141.359188,121.245354 141.569112,121.207252 L141.65,121.200002 L145.7,121.2 L145.7,119.850002 C145.7,118.657067 146.628383,117.680967 147.802062,117.604787 L147.950001,117.600002 L151.225,117.6 L152.725,113.1 L136.25,113.100001 C135.057065,113.100001 134.080965,112.171619 134.004786,110.997939 L134,110.850001 L134,80.2500001 C134,79.057065 134.928382,78.0809652 136.102062,78.0047859 L136.25,78 L185.750002,78 Z M182.824102,102.300001 L178.775002,102.300001 L178.533142,105.259947 C178.501069,105.654617 178.252133,106.012465 177.900481,106.185259 L177.900481,106.185259 L177.792018,106.231398 C176.848497,106.576652 175.968028,107.088446 175.184062,107.744025 C174.84984,108.014934 174.370064,108.071342 173.985091,107.886793 L173.985091,107.886793 L171.281601,106.615501 L169.257501,110.112901 L171.721829,111.82708 C172.035926,112.050211 172.215753,112.431925 172.195676,112.813974 L172.195676,112.813974 L172.18149,112.941119 C172.094558,113.443391 172.049651,113.950935 172.049651,114.450019 C172.049651,114.946433 172.094028,115.442957 172.181584,115.948826 C172.254061,116.370676 172.070818,116.814411 171.717476,117.065354 L171.717476,117.065354 L169.247601,118.775402 L170.732306,121.327393 C170.790394,121.383891 170.833276,121.455943 170.854229,121.536824 L171.280701,122.273702 L173.98752,121.00147 C174.339609,120.83844 174.763689,120.873569 175.085975,121.083841 L175.085975,121.083841 L175.189394,121.160387 C175.957213,121.802531 176.835635,122.308031 177.790563,122.657452 C178.2002,122.80575 178.497892,123.195341 178.533122,123.629206 L178.533122,123.629206 L178.775902,126.600002 L182.823202,126.600002 L183.066862,123.62945 C183.098934,123.234788 183.347861,122.876947 183.699523,122.704128 L183.699523,122.704128 L183.807989,122.657981 C184.764369,122.308031 185.642791,121.802531 186.41055,121.160437 C186.741185,120.883822 187.221274,120.820325 187.614913,121.002604 L187.614913,121.002604 L190.318402,122.273702 L192.351502,118.775402 L189.878195,117.062314 C189.564087,116.839201 189.384249,116.457465 189.404327,116.075419 L189.404327,116.075419 L189.418514,115.948277 C189.505976,115.442957 189.550353,114.946433 189.550353,114.450019 C189.550353,113.950935 189.505446,113.443391 189.418419,112.940565 C189.345946,112.518708 189.529178,112.075003 189.881872,111.824481 L189.881872,111.824481 L192.341602,110.112901 L190.317502,106.615501 L187.617916,107.885367 C187.268738,108.052745 186.845201,108.023792 186.51645,107.815635 L186.51645,107.815635 L186.41061,107.739635 C185.631978,107.088448 184.751512,106.576656 183.809467,106.231937 C183.399816,106.083662 183.102112,105.694065 183.066891,105.260306 L183.066891,105.260306 L182.824102,102.300001 Z M168.065,118.5 L147.950001,118.500002 C147.248274,118.500002 146.671597,119.035401 146.60618,119.719988 L146.600001,119.850002 L146.600001,121.200002 L169.616,121.2 L168.052095,118.509698 L168.065,118.5 Z M180.350002,109.500001 C183.083811,109.500001 185.300002,111.716192 185.300002,114.450001 C185.300002,117.183811 183.083811,119.400002 180.350002,119.400002 C177.616192,119.400002 175.400002,117.183811 175.400002,114.450001 C175.400002,111.716192 177.616192,109.500001 180.350002,109.500001 Z M180.350002,110.400001 C178.113249,110.400001 176.300002,112.213248 176.300002,114.450001 C176.300002,116.686755 178.113249,118.500002 180.350002,118.500002 C182.586755,118.500002 184.400002,116.686755 184.400002,114.450001 C184.400002,112.213248 182.586755,110.400001 180.350002,110.400001 Z M168.325101,113.100001 L153.674001,113.100001 L152.173701,117.600002 L169.364,117.6 L169.739,117.34 L168.325101,113.100001 Z M171.247,113.1 L169.274,113.1 L170.51,116.806 L171.20063,116.328575 C171.250757,116.29297 171.286336,116.228258 171.295186,116.164329 L171.294675,116.101768 C171.198609,115.546736 171.149651,114.998957 171.149651,114.450019 C171.149651,113.898697 171.199096,113.339858 171.294579,112.788184 L171.247,113.1 Z M187.1,86.063 L134.9,86.063 L134.9,110.850001 C134.9,111.551728 135.435399,112.128405 136.119986,112.193821 L136.25,112.200001 L170.682,112.2 L168.06376,110.379509 L170.916674,105.449175 L174.371115,107.07379 C174.445556,107.109473 174.553253,107.096811 174.612011,107.049252 C175.469737,106.331917 176.440741,105.767496 177.484226,105.385667 C177.562598,105.357299 177.629364,105.269922 177.636128,105.18669 L177.636128,105.18669 L177.946902,101.400019 L183.653102,101.400019 L183.963907,105.187078 C183.970634,105.269923 184.0374,105.357297 184.11726,105.386206 C185.159268,105.7675 186.130269,106.331918 186.98266,107.044861 C187.014213,107.070437 187.056333,107.08649 187.10021,107.09177 L187.1,86.063 Z M167.555876,92.0297326 L167.618199,92.0818025 L173.0182,97.4818027 C173.174409,97.6380124 173.191766,97.8804944 173.07027,98.0558757 L173.0182,98.1181989 L167.618199,103.518199 C167.442463,103.693935 167.157539,103.693935 166.981803,103.518199 C166.825594,103.361989 166.808237,103.119507 166.929733,102.944126 L166.981803,102.881803 L172.063702,97.8000008 L166.981803,92.7181986 C166.825594,92.5619889 166.808237,92.3195069 166.929733,92.1441256 L166.981803,92.0818025 C167.138013,91.9255928 167.380495,91.9082361 167.555876,92.0297326 Z M153.094126,92.0297326 C153.269507,91.9082361 153.511989,91.9255928 153.668199,92.0818025 L153.668199,92.0818025 L153.720269,92.1441256 C153.841765,92.3195069 153.824409,92.5619889 153.668199,92.7181986 L153.668199,92.7181986 L148.586301,97.8000008 L153.668199,102.881803 L153.720269,102.944126 C153.841765,103.119507 153.824409,103.361989 153.668199,103.518199 C153.492463,103.693935 153.207539,103.693935 153.031803,103.518199 L153.031803,103.518199 L147.631802,98.1181989 L147.579733,98.0558757 C147.458236,97.8804944 147.475593,97.6380124 147.631802,97.4818027 L147.631802,97.4818027 L153.031803,92.0818025 Z M163.108113,92.8476954 C163.298661,92.9594736 163.376593,93.1897458 163.30324,93.390094 L163.268566,93.463532 L158.001281,102.442658 C157.87553,102.657025 157.599811,102.728862 157.385444,102.603112 C157.194896,102.491334 157.116964,102.261061 157.190316,102.060713 L157.224991,101.987275 L162.492276,93.0081489 C162.618027,92.7937823 162.893746,92.7219448 163.108113,92.8476954 Z M185.750002,78.9 L136.25,78.9 C135.548274,78.9 134.971596,79.4353993 134.90618,80.1199861 L134.9,80.2500001 L134.9,85.163 L187.1,85.163 L187.100002,80.2500001 C187.100002,79.5482736 186.564603,78.9715962 185.880016,78.90618 L185.750002,78.9 Z M138.95,81.1500001 C139.447056,81.1500001 139.85,81.5529439 139.85,82.0500002 C139.85,82.5470565 139.447056,82.9500002 138.95,82.9500002 C138.452944,82.9500002 138.05,82.5470565 138.05,82.0500002 C138.05,81.5529439 138.452944,81.1500001 138.95,81.1500001 Z M142.55,81.1500001 C143.047057,81.1500001 143.45,81.5529439 143.45,82.0500002 C143.45,82.5470565 143.047057,82.9500002 142.55,82.9500002 C142.052944,82.9500002 141.65,82.5470565 141.65,82.0500002 C141.65,81.5529439 142.052944,81.1500001 142.55,81.1500001 Z M146.15,81.1500001 C146.647057,81.1500001 147.050001,81.5529439 147.050001,82.0500002 C147.050001,82.5470565 146.647057,82.9500002 146.15,82.9500002 C145.652944,82.9500002 145.25,82.5470565 145.25,82.0500002 C145.25,81.5529439 145.652944,81.1500001 146.15,81.1500001 Z"/>
    <path fill="url(#img-stages-h)" fill-rule="nonzero" d="M227.950001,170 C229.717848,170 231.221141,171.132687 231.773741,172.711919 C232.865003,172.820672 233.723945,173.704017 233.795216,174.802062 L233.800002,174.95 L233.8,175.4 L234.250002,175.4 C235.440866,175.4 236.415647,176.325162 236.494811,177.495951 L236.500002,177.65 L236.500002,209.228224 C236.500002,209.340892 236.457737,209.449461 236.381561,209.532475 L236.381561,209.532475 L226.542864,220.254253 C226.457636,220.34713 226.33736,220.4 226.211305,220.4 L226.211305,220.4 L200.95,220.4 C199.707359,220.4 198.7,219.392643 198.7,218.150002 L198.7,218.150002 L198.7,217.7 L198.25,217.7 C197.057065,217.7 196.080965,216.77162 196.004786,215.59794 L196,215.450002 L196,174.95 C196,173.757065 196.928382,172.780965 198.102062,172.704786 L198.25,172.7 L224.130448,172.700017 C224.686423,171.126998 226.1866,170 227.950001,170 Z M223.9,176.3 L200.95,176.3 C200.204416,176.3 199.6,176.904416 199.6,177.65 L199.6,177.65 L199.6,218.150002 C199.6,218.895586 200.204416,219.500002 200.95,219.500002 L200.95,219.500002 L225.7,219.5 L225.700001,210.950002 C225.700001,209.757067 226.628384,208.780967 227.802063,208.704787 L227.950001,208.700002 L235.6,208.7 L235.6,177.65 C235.6,176.992132 235.129436,176.44417 234.506533,176.324343 L234.380016,176.30618 L234.250002,176.3 L232,176.3 L232.000001,197.043269 C232.000001,197.091585 231.992222,197.139424 231.977103,197.184988 L231.948977,197.251401 L228.348976,204.152371 C228.180744,204.474862 227.719259,204.474862 227.551026,204.152371 L227.551026,204.152371 L223.951026,197.251401 C223.917506,197.187145 223.900001,197.115743 223.900001,197.043269 L223.900001,197.043269 L223.9,176.3 Z M235.096,209.6 L227.950001,209.600002 C227.248275,209.600002 226.671597,210.135401 226.606181,210.819988 L226.600001,210.950002 L226.6,218.859 L235.096,209.6 Z M223.92471,173.600083 L198.25,173.6 C197.548274,173.6 196.971596,174.135399 196.90618,174.819986 L196.9,174.95 L196.9,215.450002 C196.9,216.151728 197.435399,216.728406 198.119986,216.793822 L198.25,216.800002 L198.7,216.8 L198.7,177.65 C198.7,176.459136 199.625162,175.484355 200.795951,175.405191 L200.95,175.4 L223.9,175.4 L223.900001,174.05 C223.900001,173.897924 223.908383,173.747806 223.92471,173.600083 Z M212.745582,210.050002 C212.99411,210.050002 213.195582,210.251473 213.195582,210.500002 C213.195582,210.720916 213.036394,210.904649 212.82647,210.942752 L212.745582,210.950002 L203.359742,210.950002 C203.111213,210.950002 202.909741,210.74853 202.909741,210.500002 C202.909741,210.279088 203.068929,210.095354 203.278853,210.057252 L203.359742,210.050002 L212.745582,210.050002 Z M218.500001,206.450001 C218.748529,206.450001 218.950001,206.651473 218.950001,206.900001 C218.950001,207.120915 218.790813,207.304649 218.580889,207.342751 L218.500001,207.350001 L203.359742,207.350001 C203.111213,207.350001 202.909741,207.14853 202.909741,206.900001 C202.909741,206.679088 203.068929,206.495354 203.278853,206.457252 L203.359742,206.450001 L218.500001,206.450001 Z M228.892,201.163 L227.007,201.163 L227.950001,202.970601 L228.892,201.163 Z M212.745582,201.500001 C212.99411,201.500001 213.195582,201.701473 213.195582,201.950001 C213.195582,202.170915 213.036394,202.354649 212.82647,202.392751 L212.745582,202.400001 L203.359742,202.400001 C203.111213,202.400001 202.909741,202.198529 202.909741,201.950001 C202.909741,201.729087 203.068929,201.545354 203.278853,201.507251 L203.359742,201.500001 L212.745582,201.500001 Z M231.1,196.55 L224.8,196.55 L224.800001,196.932501 L226.538,200.263 L229.362,200.263 L231.100001,196.930701 L231.1,196.55 Z M218.500001,197.900001 C218.748529,197.900001 218.950001,198.101473 218.950001,198.350001 C218.950001,198.570915 218.790813,198.754649 218.580889,198.792751 L218.500001,198.800001 L203.359742,198.800001 C203.111213,198.800001 202.909741,198.598529 202.909741,198.350001 C202.909741,198.129087 203.068929,197.945354 203.278853,197.907251 L203.359742,197.900001 L218.500001,197.900001 Z M231.100001,176.4935 L224.800001,176.4935 L224.8,195.65 L231.1,195.65 L231.100001,176.4935 Z M218.950001,180.8 C219.695585,180.8 220.3,181.404416 220.3,182.15 L220.3,182.15 L220.3,191.150001 C220.3,191.895585 219.695585,192.500001 218.950001,192.500001 L218.950001,192.500001 L203.65,192.500001 C202.904416,192.500001 202.3,191.895585 202.3,191.150001 L202.3,191.150001 L202.3,182.15 C202.3,181.404416 202.904416,180.8 203.65,180.8 L203.65,180.8 Z M218.950001,181.7 L203.65,181.7 C203.401472,181.7 203.2,181.901472 203.2,182.15 L203.2,182.15 L203.2,191.150001 C203.2,191.398529 203.401472,191.600001 203.65,191.600001 L203.65,191.600001 L218.950001,191.600001 C219.198529,191.600001 219.400001,191.398529 219.400001,191.150001 L219.400001,191.150001 L219.400001,182.15 C219.400001,181.901472 219.198529,181.7 218.950001,181.7 L218.950001,181.7 Z M213.254712,184.922712 L213.320026,184.980205 L215.39029,187.189336 C215.560234,187.370679 215.550993,187.655454 215.36965,187.825397 C215.208456,187.976459 214.965538,187.985942 214.79419,187.858821 L214.733588,187.804757 L212.950601,185.902101 L211.048752,187.458229 C210.939919,187.547236 210.797217,187.579281 210.663165,187.548489 L210.584113,187.522427 L209.005001,186.833601 L207.455801,188.246883 C207.292533,188.3957 207.049508,188.401822 206.879934,188.272344 L206.820086,188.217447 C206.671269,188.054179 206.665147,187.811154 206.794625,187.64158 L206.849522,187.581732 L208.614586,185.972894 C208.723858,185.873294 208.873399,185.834947 209.014339,185.865945 L209.09748,185.892931 L210.690701,186.587001 L212.706791,184.939575 C212.867154,184.808425 213.092439,184.80563 213.254712,184.922712 Z M231.983517,173.671112 L231.995045,173.847864 L231.995045,173.847864 L232.000001,174.05 L232,175.4 L232.9,175.4 L232.900001,174.95 C232.900001,174.35606 232.516447,173.851704 231.983517,173.671112 Z M227.950001,170.9 C226.210304,170.9 224.800001,172.310303 224.800001,174.05 L224.800001,174.05 L224.800001,175.4 L231.100001,175.4 L231.100001,174.05 C231.100001,172.368293 229.782152,170.994386 228.122833,170.904661 L228.122833,170.904661 Z"/>
  </g>
</svg>
