<svg xmlns="http://www.w3.org/2000/svg" xmlns:xlink="http://www.w3.org/1999/xlink" width="358" height="506" viewBox="0 0 358 506">
  <defs>
    <linearGradient id="img-medical-systems-a" x1="-35.777%" x2="110.906%" y1="111.256%" y2="-6.443%">
      <stop offset="0%" stop-color="#1E85E9"/>
      <stop offset="20.276%" stop-color="#8671F3"/>
      <stop offset="70.537%" stop-color="#C06CFD" stop-opacity=".521"/>
      <stop offset="100%" stop-color="#C4549C" stop-opacity=".284"/>
    </linearGradient>
    <linearGradient id="img-medical-systems-b" x1="64.316%" x2="35.684%" y1="100%" y2="0%">
      <stop offset="0%" stop-color="#1E85E9" stop-opacity=".3"/>
      <stop offset="20.276%" stop-color="#8671F3" stop-opacity=".397"/>
      <stop offset="70.727%" stop-color="#C06CFD" stop-opacity=".4"/>
      <stop offset="100%" stop-color="#FFBEE8" stop-opacity=".3"/>
    </linearGradient>
    <circle id="img-medical-systems-d" cx="138" cy="84" r="34"/>
    <filter id="img-medical-systems-c" width="150%" height="150%" x="-25%" y="-19.1%" filterUnits="objectBoundingBox">
      <feOffset dy="4" in="SourceAlpha" result="shadowOffsetOuter1"/>
      <feGaussianBlur in="shadowOffsetOuter1" result="shadowBlurOuter1" stdDeviation="5"/>
      <feColorMatrix in="shadowBlurOuter1" values="0 0 0 0 0.0415817482   0 0 0 0 0.0415817482   0 0 0 0 0.0415817482  0 0 0 0.1 0"/>
    </filter>
    <linearGradient id="img-medical-systems-e" x1="86.735%" x2="13.265%" y1="100%" y2="0%">
      <stop offset="0%" stop-color="#1E85E9"/>
      <stop offset="20.276%" stop-color="#8671F3"/>
      <stop offset="70.727%" stop-color="#C06CFD" stop-opacity=".99"/>
      <stop offset="100%" stop-color="#FFBEE8"/>
    </linearGradient>
    <circle id="img-medical-systems-g" cx="226" cy="190" r="34"/>
    <filter id="img-medical-systems-f" width="150%" height="150%" x="-25%" y="-19.1%" filterUnits="objectBoundingBox">
      <feOffset dy="4" in="SourceAlpha" result="shadowOffsetOuter1"/>
      <feGaussianBlur in="shadowOffsetOuter1" result="shadowBlurOuter1" stdDeviation="5"/>
      <feColorMatrix in="shadowBlurOuter1" values="0 0 0 0 0.0415817482   0 0 0 0 0.0415817482   0 0 0 0 0.0415817482  0 0 0 0.1 0"/>
    </filter>
    <linearGradient id="img-medical-systems-h" x1="100%" x2="0%" y1="85.596%" y2="14.404%">
      <stop offset="0%" stop-color="#1E85E9"/>
      <stop offset="20.276%" stop-color="#8671F3"/>
      <stop offset="70.727%" stop-color="#C06CFD" stop-opacity=".99"/>
      <stop offset="100%" stop-color="#FFBEE8"/>
    </linearGradient>
    <circle id="img-medical-systems-j" cx="239" cy="412" r="34"/>
    <filter id="img-medical-systems-i" width="150%" height="150%" x="-25%" y="-19.1%" filterUnits="objectBoundingBox">
      <feOffset dy="4" in="SourceAlpha" result="shadowOffsetOuter1"/>
      <feGaussianBlur in="shadowOffsetOuter1" result="shadowBlurOuter1" stdDeviation="5"/>
      <feColorMatrix in="shadowBlurOuter1" values="0 0 0 0 0.0415817482   0 0 0 0 0.0415817482   0 0 0 0 0.0415817482  0 0 0 0.1 0"/>
    </filter>
    <linearGradient id="img-medical-systems-k" x1="100%" x2="0%" y1="100%" y2="0%">
      <stop offset="0%" stop-color="#1E85E9"/>
      <stop offset="20.276%" stop-color="#8671F3"/>
      <stop offset="70.727%" stop-color="#C06CFD" stop-opacity=".99"/>
      <stop offset="100%" stop-color="#FFBEE8"/>
    </linearGradient>
    <circle id="img-medical-systems-m" cx="151" cy="306" r="34"/>
    <filter id="img-medical-systems-l" width="150%" height="150%" x="-25%" y="-19.1%" filterUnits="objectBoundingBox">
      <feOffset dy="4" in="SourceAlpha" result="shadowOffsetOuter1"/>
      <feGaussianBlur in="shadowOffsetOuter1" result="shadowBlurOuter1" stdDeviation="5"/>
      <feColorMatrix in="shadowBlurOuter1" values="0 0 0 0 0.0415817482   0 0 0 0 0.0415817482   0 0 0 0 0.0415817482  0 0 0 0.1 0"/>
    </filter>
    <linearGradient id="img-medical-systems-n" x1="100%" x2="0%" y1="97.184%" y2="2.816%">
      <stop offset="0%" stop-color="#1E85E9"/>
      <stop offset="20.276%" stop-color="#8671F3"/>
      <stop offset="70.727%" stop-color="#C06CFD" stop-opacity=".99"/>
      <stop offset="100%" stop-color="#FFBEE8"/>
    </linearGradient>
    <linearGradient id="img-medical-systems-o" x1="-35.331%" x2="110.59%" y1="111.256%" y2="-6.443%">
      <stop offset="0%" stop-color="#1E85E9"/>
      <stop offset="20.276%" stop-color="#8671F3"/>
      <stop offset="70.537%" stop-color="#C06CFD" stop-opacity=".521"/>
      <stop offset="100%" stop-color="#C4549C" stop-opacity=".284"/>
    </linearGradient>
    <linearGradient id="img-medical-systems-p" x1="-4.636%" x2="46.134%" y1="18.647%" y2="124.839%">
      <stop offset="0%" stop-color="#E3E0E0"/>
      <stop offset="100%" stop-color="#FFF" stop-opacity="0"/>
    </linearGradient>
    <linearGradient id="img-medical-systems-q" x1="6.617%" x2="33.265%" y1="-9.117%" y2="107.373%">
      <stop offset="0%" stop-color="#E3E0E0"/>
      <stop offset="100%" stop-color="#FFF" stop-opacity="0"/>
    </linearGradient>
    <linearGradient id="img-medical-systems-r" x1="50%" x2="8.528%" y1="-24.85%" y2="73.718%">
      <stop offset="0%" stop-color="#E3E0E0"/>
      <stop offset="100%" stop-color="#FFF" stop-opacity="0"/>
    </linearGradient>
    <linearGradient id="img-medical-systems-s" x1="53.287%" x2="32.11%" y1="-7.747%" y2="75.854%">
      <stop offset="0%" stop-color="#E3E0E0"/>
      <stop offset="100%" stop-color="#FFF" stop-opacity="0"/>
    </linearGradient>
  </defs>
  <g fill="none" fill-rule="evenodd" transform="translate(1 1)">
    <path stroke="url(#img-medical-systems-a)" stroke-dasharray="2" d="M308.734541,14.0276894 C252.908552,73.2728743 188.202465,102.895467 114.616281,102.895467 C-22.7588147,102.895467 -50.7415503,24.7130458 114.616281,24.7130458 C191.892939,24.7130458 293.632249,53.033879 340.68999,140.206175 C402.151213,254.060259 271.455809,354.976378 117.972054,354.976378 C-35.5117013,354.976378 -42.5313841,277.047538 117.972054,277.047538 C278.475491,277.047538 355.697312,369.312103 355.697312,443.242605" opacity=".3"/>
    <path fill="url(#img-medical-systems-b)" fill-rule="nonzero" d="M142.593343,20.6244616 C170.949193,25.1155871 192.18404,47.1412152 197.067032,73.9499597 L197.216579,73.8141671 C199.92497,96.3118422 215.298929,115.693775 237.002649,123.240456 C240.004799,123.81844 242.921241,124.596163 245.741535,125.556092 C246.286458,125.660041 246.835197,125.754684 247.386892,125.842064 L247.927194,125.922596 L247.596612,126.21884 C272.510425,135.545377 289.484333,159.254603 290.290532,185.980732 C291.446143,213.218795 275.570362,237.981169 251.308216,248.836776 L250.903558,249.505704 C231.111694,256.616272 217.873393,276.002995 218.874969,297.447177 L218.898736,297.599038 C219.294493,300.414999 219.505315,303.214446 219.540428,305.985178 C225.093615,323.831577 238.848202,338.496347 257.059225,344.828569 C260.061375,345.406553 262.977816,346.184276 265.79811,347.144205 C266.343034,347.248154 266.891773,347.342796 267.443468,347.430176 L267.98377,347.510709 L267.653188,347.806953 C296.381241,358.561358 314.552128,388.43947 309.551008,420.015299 C303.841118,456.066124 270.088049,480.678258 234.161417,474.988038 C204.529117,470.294743 182.67336,446.452768 179.128546,418.014207 L178.607158,417.431655 C177.593869,396.425672 162.924759,378.097693 142.124753,372.785833 L141.972579,372.764161 C106.045947,367.073942 81.5504375,333.236139 87.2603273,297.185314 C90.7383757,275.22578 104.621448,257.51041 123.062804,248.302542 L122.901443,248.207164 C143.62422,239.039433 157.664344,218.670514 158.535717,195.708708 C158.42182,194.643398 158.334458,193.580982 158.27304,192.522111 C155.962394,172.928119 141.763874,156.227564 122.068177,151.19772 L121.916003,151.176048 C85.9893712,145.485829 61.4938619,111.648027 67.2037517,75.5972013 C72.9136415,39.546376 106.666711,14.9342421 142.593343,20.6244616 Z M205.644167,403.558072 C202.233562,425.091786 216.865108,445.303628 238.32464,448.702484 C259.784171,452.10134 279.945401,437.400132 283.356006,415.866418 C286.766612,394.332704 272.135066,374.120862 250.675534,370.722006 C229.216002,367.32315 209.054773,382.024357 205.644167,403.558072 Z M134.347391,272.386408 L134.028542,272.553137 C120.327398,280.287144 112.044952,295.815872 114.360372,312.290947 C117.38419,333.806528 137.337598,348.788591 158.927556,345.75432 C164.562993,344.962311 169.752905,343.021097 174.292146,340.201942 C183.023517,334.289616 189.38421,324.899697 191.167168,313.642541 C194.577773,292.108826 179.946228,271.896984 158.486696,268.498129 C149.902883,267.138586 141.526799,268.675054 134.347391,272.386408 Z M218.781115,149.791513 C204.954563,151.734708 193.809919,160.595739 188.377051,172.368238 C187.073194,175.370738 186.123561,178.585983 185.587592,181.969959 C182.176986,203.503674 196.808532,223.715515 218.268064,227.114371 C239.727596,230.513227 259.888825,215.81202 263.299431,194.278305 C263.435855,193.416957 263.543412,192.557723 263.622819,191.701596 L263.636547,191.530623 C263.82903,188.821661 263.741395,186.051912 263.348299,183.254887 C260.324481,161.739305 240.371073,146.757243 218.781115,149.791513 Z M93.3987536,79.746082 C89.9881483,101.279796 104.619694,121.491638 126.079226,124.890494 C147.538758,128.28935 167.699987,113.588142 171.110593,92.0544281 C174.521198,70.5207137 159.889652,50.3088719 138.43012,46.910016 C116.970588,43.5111601 96.8093589,58.2123676 93.3987536,79.746082 Z" transform="rotate(2 188.377 247.806)"/>
    <use fill="#000" filter="url(#img-medical-systems-c)" xlink:href="#img-medical-systems-d"/>
    <use fill="#FFF" xlink:href="#img-medical-systems-d"/>
    <path fill="url(#img-medical-systems-e)" fill-rule="nonzero" d="M136.827934,67.4532745 C137.497893,66.8473445 138.508889,66.8473445 139.188968,67.4627131 C142.369766,70.5215951 146.18437,71.9449147 151.233612,71.9449147 C152.187568,71.9449147 152.928603,72.6760567 152.928603,73.6172772 C152.928603,74.4390316 152.931427,74.9693806 152.942591,75.4428447 L152.942591,75.4428447 L152.969866,76.2194931 C153.101955,83.0941843 152.839582,86.5050698 151.380823,90.3859955 C149.377097,95.7167708 145.320702,99.5982761 138.506001,101.918415 L138.506001,101.918415 L138.092557,102 L137.914225,102 L137.44177,101.902634 C128.546115,98.876981 124.4316,93.2676397 123.336635,85.1137241 C123.046942,82.9564576 122.973019,81.1081625 123.008048,78.0184281 L123.008048,78.0184281 L123.034147,76.3629297 L123.05564,75.7468776 C123.063967,75.49407 123.069381,75.2386012 123.072809,74.9407989 L123.072809,74.9407989 L123.078179,73.6172772 C123.078179,72.6760567 123.819214,71.9449147 124.77317,71.9449147 C129.822411,71.9449147 133.637015,70.5215951 136.817814,67.4627131 L136.817814,67.4627131 Z M138.5644,68.1146318 C138.242093,67.8231273 137.764689,67.8231273 137.442381,68.1146318 L137.442381,68.1146318 L137.171172,68.3702234 C133.964484,71.3288984 130.131377,72.7592735 125.210225,72.8385939 L125.210225,72.8385939 L124.77317,72.8420911 C124.321415,72.8420911 123.987495,73.1715535 123.987495,73.6172772 C123.987495,74.5398781 123.98395,75.1007392 123.96936,75.6174143 L123.96936,75.6174143 L123.946068,76.2365386 L123.928321,77.2270532 C123.876389,80.4980806 123.923085,82.4049664 124.171663,84.4742859 L124.171663,84.4742859 L124.238073,84.9958833 C125.290231,92.8310228 129.189408,98.1467926 137.679112,101.038661 L137.679112,101.038661 L138.00545,101.103194 L138.26828,101.054571 C144.629523,98.8847584 148.454491,95.3080455 150.403775,90.3962565 L150.403775,90.3962565 L150.52825,90.0740304 C151.865697,86.5158464 152.162922,83.3264427 152.077218,77.2124905 L152.077218,77.2124905 L152.0611,76.248365 C152.04018,75.7942759 152.029311,75.4028929 152.023964,74.8834463 L152.023964,74.8834463 L152.019287,73.6172772 C152.019287,73.1715535 151.685366,72.8420911 151.233612,72.8420911 C145.95479,72.8420911 141.911005,71.3332585 138.5644,68.1146318 Z M145.861304,80.1410802 C146.018232,80.2976817 146.034376,80.5394973 145.910618,80.7136377 L145.857652,80.7754694 L136.953969,89.461061 C136.793344,89.6177514 136.544732,89.6319398 136.368155,89.5058602 L136.305628,89.4520096 L132.672804,85.7017643 C132.49931,85.5226625 132.50582,85.2387048 132.687346,85.067527 C132.848701,84.915369 133.094027,84.903538 133.268402,85.0285762 L133.330165,85.0818746 L136.643295,88.5014327 L145.218331,80.1374771 C145.396891,79.9632903 145.68476,79.9649035 145.861304,80.1410802 Z"/>
    <use fill="#000" filter="url(#img-medical-systems-f)" xlink:href="#img-medical-systems-g"/>
    <use fill="#FFF" xlink:href="#img-medical-systems-g"/>
    <path fill="url(#img-medical-systems-h)" fill-rule="nonzero" d="M239.777778,176 C241.005077,176 242,176.839466 242,177.875 L242,177.875 L242,201.125 C242,202.160534 241.005077,203 239.777778,203 L239.777778,203 L212.222222,203 C210.994923,203 210,202.160534 210,201.125 L210,201.125 L210,177.875 C210,176.839466 210.994923,176 212.222222,176 L212.222222,176 Z M241.111,181.4 L210.888889,181.4 L210.888889,201.125 C210.888889,201.74632 211.485843,202.25 212.222222,202.25 L212.222222,202.25 L239.777778,202.25 C240.514157,202.25 241.111111,201.74632 241.111111,201.125 L241.111111,201.125 L241.111,181.4 Z M216.360778,183.823192 L216.416176,183.874619 L222.816176,190.98573 C222.955029,191.140012 222.970457,191.3795 222.86246,191.552716 L222.816176,191.61427 L216.416176,198.725381 C216.259966,198.898947 216.0067,198.898947 215.850491,198.725381 C215.711638,198.5711 215.696209,198.331611 215.804206,198.158395 L215.850491,198.096841 L221.967801,191.3 L215.850491,184.503159 C215.711638,184.348877 215.696209,184.109389 215.804206,183.936173 L215.850491,183.874619 C215.989344,183.720338 216.204883,183.703196 216.360778,183.823192 Z M236.222222,196.7 C236.467682,196.7 236.666667,196.901472 236.666667,197.15 C236.666667,197.370914 236.509444,197.554648 236.302112,197.59275 L236.222222,197.6 L225.555556,197.6 C225.310096,197.6 225.111111,197.398528 225.111111,197.15 C225.111111,196.929086 225.268333,196.745352 225.475666,196.70725 L225.555556,196.7 L236.222222,196.7 Z M239.777778,176.75 L218.011,176.75 L218.011111,180.5 L241.111,180.5 L241.111111,177.875 C241.111111,177.292512 240.586445,176.813419 239.914103,176.755808 L239.777778,176.75 Z M217.111,176.75 L212.222222,176.75 C211.485843,176.75 210.888889,177.25368 210.888889,177.875 L210.888889,177.875 L210.888889,180.5 L217.111111,180.5 L217.111,176.75 Z"/>
    <use fill="#000" filter="url(#img-medical-systems-i)" xlink:href="#img-medical-systems-j"/>
    <use fill="#FFF" xlink:href="#img-medical-systems-j"/>
    <path fill="url(#img-medical-systems-k)" fill-rule="nonzero" d="M245.036914,397 L232.963086,397 C232.38584,397 231.917889,397.467951 231.917889,398.045198 L231.917889,404.840433 C231.917889,404.88321 231.88321,404.917889 231.840433,404.917889 L225.045198,404.917889 C224.467951,404.917889 224,405.38584 224,405.963086 L224,418.036914 L224.006133,418.1508 C224.062879,418.674474 224.506434,419.082111 225.045198,419.082111 L231.917097,419.081935 L231.917889,425.954802 C231.917889,426.532049 232.38584,427 232.963086,427 L245.036914,427 L245.1508,426.993867 C245.674474,426.937121 246.082111,426.493566 246.082111,425.954802 L246.081935,419.081935 L252.954802,419.082111 C253.532049,419.082111 254,418.61416 254,418.036914 L254,405.963086 C254,405.385864 253.532079,404.918006 252.954953,404.917826 L246.159621,404.917071 C246.116868,404.917058 246.08212,404.882306 246.082111,404.839456 L246.082111,398.045198 C246.082111,397.467951 245.61416,397 245.036914,397 Z M232.976964,398 L245.023036,398 C245.065715,398 245.100313,398.034598 245.100313,398.077278 L245.100313,404.856014 C245.100429,405.43191 245.567159,405.898691 246.142958,405.898871 L252.922669,405.899624 C252.965323,405.899638 253,405.93431 253,405.977061 L253,418.023036 C253,418.065715 252.965402,418.100313 252.922722,418.100313 L245.100313,418.100313 L245.100313,425.922722 C245.100313,425.965402 245.065715,426 245.023036,426 L232.976964,426 C232.934285,426 232.899687,425.965402 232.899687,425.922722 L232.899687,418.100313 L225.077278,418.100313 C225.034598,418.100313 225,418.065715 225,418.023036 L225,405.976964 C225,405.934285 225.034598,405.899687 225.077278,405.899687 L231.856892,405.899687 C232.432811,405.899687 232.899687,405.432811 232.899687,404.856892 L232.899687,398.077278 C232.899687,398.034598 232.934285,398 232.976964,398 Z"/>
    <use fill="#000" filter="url(#img-medical-systems-l)" xlink:href="#img-medical-systems-m"/>
    <use fill="#FFF" xlink:href="#img-medical-systems-m"/>
    <polygon fill="url(#img-medical-systems-n)" fill-rule="nonzero" points="147.344 317.649 160.672 289.374 159.311 309.84 167.206 312.249 166.876 313.325 158.128 310.656 159.151 295.24 145.893 323.374 147.376 297.004 141.424 306.23 132.206 303.417 132.535 302.341 140.938 304.905 148.742 292.81" transform="rotate(-17 149.706 306.374)"/>
    <path stroke="url(#img-medical-systems-o)" stroke-dasharray="2" d="M309.784113,12.909225 C253.720029,72.9000528 188.664085,102.895467 114.616281,102.895467 C-11.8555388,102.895467 -45.610542,36.6310112 78.8554038,26.1123704 M202.054357,36.6258427 C256.867234,52.0172529 310.232261,83.7846355 340.68999,140.206175 C402.151213,254.060259 271.455809,354.976378 117.972054,354.976378 C-15.8203863,354.976378 -38.3194234,295.760724 64.4240434,280.566489 M228.177029,294.440326 C313.992247,324.678873 355.697312,388.911563 355.697312,443.242605" opacity=".3"/>
    <circle cx="136" cy="85" r="85" stroke="url(#img-medical-systems-p)" stroke-width=".891" opacity=".569"/>
    <ellipse cx="212.568" cy="51.57" fill="#5055FE" rx="3.065" ry="3.065" transform="rotate(51 212.568 51.57)"/>
    <ellipse cx="212.568" cy="51.57" fill="#5055FE" opacity=".2" rx="6.568" ry="6.57"/>
    <circle cx="234" cy="190" r="80" stroke="url(#img-medical-systems-q)" stroke-width=".891" opacity=".569" transform="rotate(107 234 190)"/>
    <ellipse cx="313.568" cy="187.57" fill="#5055FE" rx="3.065" ry="3.065" transform="rotate(51 313.568 187.57)"/>
    <ellipse cx="313.568" cy="187.57" fill="#5055FE" opacity=".2" rx="6.568" ry="6.57"/>
    <circle cx="244" cy="417" r="80" stroke="url(#img-medical-systems-r)" stroke-width=".891" opacity=".77" transform="rotate(107 244 417)"/>
    <ellipse cx="245.568" cy="497.57" fill="#5055FE" rx="3.065" ry="3.065" transform="rotate(51 245.568 497.57)"/>
    <ellipse cx="245.568" cy="497.57" fill="#5055FE" opacity=".2" rx="6.568" ry="6.57"/>
    <circle cx="140" cy="307" r="80" stroke="url(#img-medical-systems-s)" stroke-width=".891" opacity=".569" transform="rotate(-102 140 307)"/>
    <ellipse cx="115.568" cy="233.57" fill="#5055FE" rx="3.065" ry="3.065" transform="rotate(51 115.568 233.57)"/>
    <ellipse cx="115.568" cy="233.57" fill="#5055FE" opacity=".2" rx="6.568" ry="6.57"/>
  </g>
</svg>
