<svg xmlns="http://www.w3.org/2000/svg" xmlns:xlink="http://www.w3.org/1999/xlink" width="404" height="352" viewBox="0 0 404 352">
  <defs>
    <rect id="img-illustration-a" width="402" height="350" x=".745" y=".313"/>
    <linearGradient id="img-illustration-c" x1="100%" x2="0%" y1="100%" y2="0%">
      <stop offset="0%" stop-color="#1E85E9"/>
      <stop offset="20.276%" stop-color="#8671F3"/>
      <stop offset="70.727%" stop-color="#C06CFD" stop-opacity=".4"/>
      <stop offset="100%" stop-color="#FFBEE8" stop-opacity=".3"/>
    </linearGradient>
    <linearGradient id="img-illustration-d" x1="100%" x2="0%" y1="97.334%" y2="2.666%">
      <stop offset="0%" stop-color="#1E85E9"/>
      <stop offset="20.276%" stop-color="#8671F3"/>
      <stop offset="70.727%" stop-color="#C06CFD" stop-opacity=".99"/>
      <stop offset="100%" stop-color="#FFBEE8"/>
    </linearGradient>
    <linearGradient id="img-illustration-e" x1="100%" x2="0%" y1="100%" y2="0%">
      <stop offset="0%" stop-color="#1E85E9"/>
      <stop offset="20.276%" stop-color="#8671F3"/>
      <stop offset="70.727%" stop-color="#C06CFD" stop-opacity=".99"/>
      <stop offset="100%" stop-color="#FFBEE8"/>
    </linearGradient>
    <linearGradient id="img-illustration-f" x1="36.816%" x2="60.832%" y1="100%" y2="0%">
      <stop offset="0%" stop-color="#FFF"/>
      <stop offset="100%" stop-color="#E3E0E0"/>
    </linearGradient>
    <linearGradient id="img-illustration-g" x1="107.288%" x2="4.453%" y1="74.781%" y2="32.979%">
      <stop offset="0%" stop-color="#FFF"/>
      <stop offset="100%" stop-color="#E3E0E0"/>
    </linearGradient>
    <linearGradient id="img-illustration-h" x1="50%" x2="50%" y1="0%" y2="100%">
      <stop offset="0%" stop-color="#FFF"/>
      <stop offset="100%" stop-color="#E3E0E0"/>
    </linearGradient>
    <linearGradient id="img-illustration-i" x1="50%" x2="50%" y1="0%" y2="100%">
      <stop offset="0%" stop-color="#FFF"/>
      <stop offset="100%" stop-color="#E3E0E0"/>
    </linearGradient>
  </defs>
  <g fill="none" fill-rule="evenodd" transform="translate(.255 .687)">
    <mask id="img-illustration-b" fill="#fff">
      <use xlink:href="#img-illustration-a"/>
    </mask>
    <g mask="url(#img-illustration-b)">
      <g transform="translate(0 -27)">
        <circle cx="26" cy="26" r="26" fill="#000" fill-rule="nonzero" transform="translate(175.745 63.313)"/>
        <circle cx="26" cy="26" r="26" fill="#FFF" fill-rule="nonzero" transform="translate(175.745 63.313)"/>
        <circle cx="26" cy="26" r="26" fill="#000" fill-rule="nonzero" transform="translate(322.745 175.313)"/>
        <circle cx="26" cy="26" r="26" fill="#FFF" fill-rule="nonzero" transform="translate(322.745 175.313)"/>
        <circle cx="26" cy="26" r="26" fill="#000" fill-rule="nonzero" transform="translate(175.745 286.313)"/>
        <circle cx="26" cy="26" r="26" fill="#FFF" fill-rule="nonzero" transform="translate(175.745 286.313)"/>
        <circle cx="26" cy="26" r="26" fill="#000" fill-rule="nonzero" transform="translate(28.745 175.313)"/>
        <circle cx="26" cy="26" r="26" fill="#FFF" fill-rule="nonzero" transform="translate(28.745 175.313)"/>
        <circle cx="201.745" cy="201.313" r="66" stroke="url(#img-illustration-c)" stroke-width="30"/>
        <path fill="#000" fill-rule="nonzero" d="M176.756539,198.31331 C177.476539,198.31331 177.800539,197.80931 177.800539,197.28731 C177.800539,197.10731 177.764539,196.90931 177.692539,196.72931 L173.516539,186.48731 C173.336539,186.05531 173.030539,185.71331 172.472539,185.71331 C171.950539,185.71331 171.608539,185.98331 171.374539,186.59531 L167.324539,196.74731 C167.234539,196.98131 167.198539,197.19731 167.180539,197.41331 C167.180539,197.89931 167.504539,198.31331 168.116539,198.31331 C168.656539,198.33131 168.980539,197.84531 169.160539,197.34131 L170.096539,194.80331 L174.722539,194.80331 L175.730539,197.46731 C175.928539,197.98931 176.288539,198.31331 176.756539,198.31331 Z M174.110539,193.11131 L170.672539,193.11131 L172.364539,188.57531 L174.110539,193.11131 Z M181.288539,198.31331 C181.990539,198.31331 182.368539,197.82731 182.368539,197.21531 L182.368539,193.30931 C182.728539,193.36331 183.124539,193.38131 183.430539,193.38131 C183.682539,193.38131 183.970539,193.38131 184.204539,193.34531 L186.760539,197.55731 C187.120539,198.15131 187.714539,198.54731 188.398539,198.15131 C188.974539,197.80931 189.010539,197.07131 188.596539,196.42331 L186.310539,192.94931 C187.678539,192.48131 188.578539,191.29331 188.578539,189.54731 C188.578539,186.73931 186.562539,185.80331 183.916539,185.80331 C182.782539,185.80331 181.792539,185.91131 181.216539,186.03731 C180.604539,186.16331 180.208539,186.50531 180.208539,187.27931 L180.208539,197.21531 C180.208539,197.82731 180.568539,198.31331 181.288539,198.31331 Z M183.592539,191.76131 C183.250539,191.76131 182.782539,191.74331 182.368539,191.68931 L182.368539,187.83731 C182.818539,187.78331 183.232539,187.72931 183.736539,187.72931 C185.302539,187.72931 186.310539,188.25131 186.310539,189.67331 C186.310539,191.16731 185.410539,191.76131 183.592539,191.76131 Z M200.252539,198.49331 C201.872539,198.49331 203.186539,197.86331 204.158539,196.96331 C204.500539,197.26931 204.842539,197.53931 205.166539,197.82731 C205.598539,198.20531 206.354539,198.65531 206.858539,197.98931 C207.146539,197.61131 207.110539,197.07131 206.498539,196.56731 C206.138539,196.27931 205.742539,195.91931 205.328539,195.52331 C205.976539,194.47931 206.354539,193.32731 206.444539,192.39131 C206.498539,191.79731 206.300539,191.40131 205.760539,191.34731 C205.256539,191.29331 204.950539,191.50931 204.770539,192.22931 C204.590539,192.91331 204.392539,193.61531 204.014539,194.24531 C203.060539,193.30931 202.268539,192.55331 201.440539,191.54531 C203.150539,190.26731 203.870539,189.25931 203.870539,188.05331 C203.870539,186.84731 203.006539,185.71331 200.972539,185.71331 C198.974539,185.71331 197.804539,186.93731 197.804539,188.61131 C197.804539,189.58331 198.200539,190.44731 198.902539,191.41931 C197.318539,192.55331 196.364539,193.56131 196.364539,195.18131 C196.364539,197.46731 198.146539,198.49331 200.252539,198.49331 Z M200.522539,190.30331 C200.072539,189.65531 199.820539,189.04331 199.820539,188.50331 C199.820539,187.69331 200.360539,187.22531 201.044539,187.22531 C201.764539,187.22531 202.160539,187.62131 202.160539,188.17931 C202.160539,188.80931 201.548539,189.54731 200.522539,190.30331 Z M200.378539,196.76531 C199.118539,196.76531 198.416539,195.90131 198.416539,195.03731 C198.416539,194.19131 198.740539,193.57931 199.910539,192.66131 C201.530539,194.55131 202.448539,195.39731 202.880539,195.79331 C202.250539,196.38731 201.368539,196.76531 200.378539,196.76531 Z M218.694539,198.49331 C219.198539,198.49331 219.576539,198.22331 219.792539,197.66531 L223.770539,187.47731 C223.860539,187.22531 223.932539,186.99131 223.932539,186.77531 C223.932539,186.32531 223.590539,185.89331 222.942539,185.89331 C222.438539,185.89331 222.114539,186.30731 221.898539,186.90131 L218.820539,195.25331 L215.472539,186.81131 C215.256539,186.25331 214.896539,185.91131 214.428539,185.91131 C213.672539,185.91131 213.348539,186.46931 213.348539,186.97331 C213.348539,187.18931 213.402539,187.42331 213.492539,187.62131 L217.650539,197.70131 C217.848539,198.20531 218.136539,198.49331 218.694539,198.49331 Z M227.402539,198.31331 C228.104539,198.31331 228.482539,197.82731 228.482539,197.21531 L228.482539,193.30931 C228.842539,193.36331 229.238539,193.38131 229.544539,193.38131 C229.796539,193.38131 230.084539,193.38131 230.318539,193.34531 L232.874539,197.55731 C233.234539,198.15131 233.828539,198.54731 234.512539,198.15131 C235.088539,197.80931 235.124539,197.07131 234.710539,196.42331 L232.424539,192.94931 C233.792539,192.48131 234.692539,191.29331 234.692539,189.54731 C234.692539,186.73931 232.676539,185.80331 230.030539,185.80331 C228.896539,185.80331 227.906539,185.91131 227.330539,186.03731 C226.718539,186.16331 226.322539,186.50531 226.322539,187.27931 L226.322539,197.21531 C226.322539,197.82731 226.682539,198.31331 227.402539,198.31331 Z M229.706539,191.76131 C229.364539,191.76131 228.896539,191.74331 228.482539,191.68931 L228.482539,187.83731 C228.932539,187.78331 229.346539,187.72931 229.850539,187.72931 C231.416539,187.72931 232.424539,188.25131 232.424539,189.67331 C232.424539,191.16731 231.524539,191.76131 229.706539,191.76131 Z M176.180539,220.49331 C176.810539,220.49331 177.476539,220.36731 177.980539,220.07931 C178.466539,219.79131 178.754539,219.35931 178.538539,218.81931 C178.358539,218.38731 177.908539,218.29731 177.458539,218.47731 C177.242539,218.56731 176.846539,218.69331 176.504539,218.69331 C175.748539,218.69331 175.478539,218.24331 175.478539,217.23531 L175.478539,213.22131 L177.008539,213.22131 C177.656539,213.22131 177.980539,212.89731 177.980539,212.35731 C177.980539,211.79931 177.656539,211.49331 177.008539,211.49331 L175.478539,211.49331 L175.478539,210.37731 C175.478539,209.81931 175.136539,209.33331 174.452539,209.33331 C173.786539,209.33331 173.444539,209.81931 173.444539,210.37731 L173.444539,211.49331 L172.976539,211.49331 C172.328539,211.49331 172.004539,211.79931 172.004539,212.35731 C172.004539,212.89731 172.328539,213.22131 172.976539,213.22131 L173.444539,213.22131 L173.444539,217.45131 C173.444539,219.59331 174.452539,220.49331 176.180539,220.49331 Z M184.276539,220.49331 C185.302539,220.49331 186.346539,220.31331 187.120539,219.79131 C187.588539,219.48531 187.696539,219.01731 187.498539,218.63931 C187.300539,218.29731 186.958539,218.15331 186.382539,218.38731 C185.824539,218.62131 185.248539,218.85531 184.474539,218.85531 C183.088539,218.85531 182.188539,218.00931 182.134539,216.64131 L186.724539,216.64131 C187.444539,216.64131 187.750539,216.33531 187.912539,215.74131 C187.966539,215.54331 188.002539,215.14731 188.002539,214.89531 C188.002539,212.78931 186.670539,211.31331 184.312539,211.31331 C181.720539,211.31331 180.118539,213.14931 180.118539,215.93931 C180.118539,218.83731 181.576539,220.49331 184.276539,220.49331 Z M186.112539,215.21931 L182.134539,215.21931 C182.260539,213.76131 183.034539,212.95131 184.312539,212.95131 C185.554539,212.95131 186.130539,213.74331 186.130539,214.76931 C186.130539,214.93131 186.130539,215.03931 186.112539,215.21931 Z M193.236539,220.49331 C195.666539,220.49331 196.800539,219.46731 196.800539,217.75731 C196.800539,214.69731 192.264539,215.41731 192.264539,213.76131 C192.264539,213.25731 192.642539,212.95131 193.470539,212.95131 C194.136539,212.95131 194.838539,213.23931 195.342539,213.43731 C195.918539,213.61731 196.278539,213.52731 196.476539,213.09531 C196.656539,212.68131 196.548539,212.23131 195.972539,211.90731 C195.378539,211.56531 194.442539,211.31331 193.398539,211.31331 C191.508539,211.31331 190.212539,212.15931 190.212539,213.83331 C190.212539,217.01931 194.748539,216.22731 194.748539,217.93731 C194.748539,218.54931 194.316539,218.85531 193.416539,218.85531 C192.750539,218.85531 192.012539,218.65731 191.328539,218.35131 C190.860539,218.13531 190.284539,218.00931 190.014539,218.56731 C189.780539,219.05331 189.942539,219.46731 190.428539,219.80931 C191.148539,220.27731 192.318539,220.49331 193.236539,220.49331 Z M203.042539,220.49331 C203.672539,220.49331 204.338539,220.36731 204.842539,220.07931 C205.328539,219.79131 205.616539,219.35931 205.400539,218.81931 C205.220539,218.38731 204.770539,218.29731 204.320539,218.47731 C204.104539,218.56731 203.708539,218.69331 203.366539,218.69331 C202.610539,218.69331 202.340539,218.24331 202.340539,217.23531 L202.340539,213.22131 L203.870539,213.22131 C204.518539,213.22131 204.842539,212.89731 204.842539,212.35731 C204.842539,211.79931 204.518539,211.49331 203.870539,211.49331 L202.340539,211.49331 L202.340539,210.37731 C202.340539,209.81931 201.998539,209.33331 201.314539,209.33331 C200.648539,209.33331 200.306539,209.81931 200.306539,210.37731 L200.306539,211.49331 L199.838539,211.49331 C199.190539,211.49331 198.866539,211.79931 198.866539,212.35731 C198.866539,212.89731 199.190539,213.22131 199.838539,213.22131 L200.306539,213.22131 L200.306539,217.45131 C200.306539,219.59331 201.314539,220.49331 203.042539,220.49331 Z M208.348539,210.26931 C209.050539,210.26931 209.536539,209.89131 209.536539,209.17131 C209.536539,208.48731 209.050539,208.07331 208.348539,208.07331 C207.628539,208.07331 207.178539,208.48731 207.178539,209.17131 C207.178539,209.89131 207.628539,210.26931 208.348539,210.26931 Z M208.348539,220.31331 C209.032539,220.31331 209.374539,219.84531 209.374539,219.26931 L209.374539,212.53731 C209.374539,211.97931 209.032539,211.49331 208.348539,211.49331 C207.682539,211.49331 207.340539,211.97931 207.340539,212.53731 L207.340539,219.26931 C207.340539,219.84531 207.682539,220.31331 208.348539,220.31331 Z M219.144539,220.31331 C219.828539,220.31331 220.170539,219.84531 220.170539,219.26931 L220.170539,215.16531 C220.170539,212.77131 219.432539,211.31331 217.092539,211.31331 C216.030539,211.31331 214.968539,211.78131 214.428539,212.80731 L214.428539,212.53731 C214.428539,211.97931 214.086539,211.49331 213.402539,211.49331 C212.736539,211.49331 212.394539,211.97931 212.394539,212.53731 L212.394539,219.26931 C212.394539,219.84531 212.736539,220.31331 213.402539,220.31331 C214.086539,220.31331 214.428539,219.84531 214.428539,219.26931 L214.428539,216.94731 C214.464539,214.93131 214.860539,213.11331 216.606539,213.11331 C217.758539,213.11331 218.136539,213.94131 218.136539,215.12931 L218.136539,219.26931 C218.136539,219.84531 218.478539,220.31331 219.144539,220.31331 Z M226.430539,224.09331 C229.436539,224.09331 230.948539,222.77931 230.948539,221.01531 C230.948539,219.32331 229.382539,218.81931 227.168539,218.72931 C224.990539,218.63931 224.414539,218.33331 224.414539,217.82931 C224.414539,217.57731 224.594539,217.28931 224.900539,217.09131 C225.386539,217.27131 225.944539,217.36131 226.610539,217.36131 C228.986539,217.36131 230.228539,216.10131 230.228539,214.35531 C230.228539,213.83331 230.084539,213.34731 229.868539,212.91531 L230.498539,212.91531 C231.056539,212.91531 231.326539,212.66331 231.326539,212.21331 C231.326539,211.72731 231.056539,211.49331 230.498539,211.49331 L228.014539,211.49331 C227.600539,211.38531 227.132539,211.31331 226.610539,211.31331 C224.252539,211.31331 223.010539,212.55531 223.010539,214.35531 C223.010539,215.18331 223.280539,215.88531 223.802539,216.40731 C223.226539,216.87531 222.830539,217.45131 222.830539,218.13531 C222.830539,218.63931 223.082539,219.23331 223.676539,219.55731 C222.848539,220.02531 222.380539,220.74531 222.380539,221.55531 C222.380539,222.79731 223.280539,224.09331 226.430539,224.09331 Z M226.610539,215.81331 C225.476539,215.81331 224.828539,215.21931 224.828539,214.35531 C224.828539,213.47331 225.476539,212.86131 226.610539,212.86131 C227.744539,212.86131 228.392539,213.47331 228.392539,214.35531 C228.392539,215.21931 227.744539,215.81331 226.610539,215.81331 Z M226.412539,222.52731 C224.774539,222.52731 224.216539,221.89731 224.216539,221.32131 C224.216539,220.76331 224.612539,220.34931 225.188539,220.07931 C225.602539,220.15131 226.052539,220.20531 226.592539,220.24131 C228.356539,220.36731 229.004539,220.56531 229.004539,221.17731 C229.004539,221.89731 228.284539,222.52731 226.412539,222.52731 Z"/>
        <path stroke="url(#img-illustration-d)" stroke-width=".5" d="M201.744539,90.3133102 C140.440932,90.3133102 90.7445393,139.65886 90.7445393,200.529681 C90.7445393,208.695398 91.6388638,216.653708 93.3355616,224.31331 M236.744539,306.31331 C280.878782,291.675065 312.744539,249.749552 312.744539,200.31331" opacity=".499" transform="rotate(-40 201.745 198.313)"/>
        <path stroke="url(#img-illustration-e)" stroke-width=".5" d="M57.2250369,174.31331 C55.5960031,182.947974 54.7445393,191.850144 54.7445393,200.947351 C54.7445393,230.228837 63.5659159,257.489699 78.7445393,280.31331 M201.744539,348.31331 C234.643924,348.31331 265.060079,337.921628 289.744539,320.31331 M348.744539,201.31331 C348.744539,169.982111 338.942128,140.940281 322.236693,117.087069 C301.70654,87.7726523 270.750617,66.2947074 234.750499,58.0345577 C224.13856,55.5996712 213.08832,54.3133102 201.737619,54.3133102 C173.507987,54.3133102 147.136808,62.269919 124.744539,76.0627789" opacity=".499" transform="rotate(-30 201.745 201.313)"/>
        <path fill="url(#img-illustration-f)" fill-rule="nonzero" d="M345.990238,320.516349 C347.346149,318.874482 348.669299,317.20501 349.958793,315.509002 L349.451316,315.123161 C348.166996,316.812364 346.849157,318.475135 345.49869,320.110411 L345.990238,320.516349 Z M353.721521,310.348007 C354.940596,308.603322 356.12486,306.833822 357.273506,305.0406 L356.736692,304.696744 C355.592652,306.482776 354.413136,308.24518 353.198951,309.982869 L353.721521,310.348007 Z M360.612038,299.590417 C361.687159,297.753356 362.725619,295.894298 363.726703,294.01434 L363.164009,293.714704 C362.166941,295.587122 361.132645,297.438724 360.061836,299.268417 L360.612038,299.590417 Z M366.623403,288.29979 C367.547195,286.38246 368.432751,284.445975 369.279449,282.491421 L368.694477,282.238016 C367.851177,284.184727 366.969174,286.113441 366.049089,288.023078 L366.623403,288.29979 Z M371.696183,276.590597 C372.463073,274.605434 373.190439,272.603927 373.877753,270.587128 L373.274332,270.381486 C372.589774,272.390194 371.865326,274.383672 371.101513,276.36087 L371.696183,276.590597 Z M375.820293,264.487599 C376.425036,262.447603 376.989287,260.394018 377.512607,258.327851 L376.894621,258.171327 C376.373396,260.229224 375.811405,262.274586 375.209083,264.30641 L375.820293,264.487599 Z M378.961088,252.084311 C379.360569,250.190373 379.726,248.287371 380.05711,246.376023 L379.428965,246.267207 C379.099174,248.170941 378.735201,250.066357 378.337312,251.95274 L378.961088,252.084311 Z" transform="rotate(10 362.778 283.392)"/>
        <path fill="url(#img-illustration-g)" fill-rule="nonzero" d="M362.986733,105.105987 C361.602455,103.488247 360.18871,101.895745 358.74627,100.329325 L358.277313,100.761165 C359.714509,102.321891 361.123114,103.908603 362.502359,105.520459 L362.986733,105.105987 Z M354.333152,95.7086591 C352.83533,94.1965032 351.310039,92.71164 349.758099,91.254872 L349.321796,91.7196793 C350.868099,93.1711557 352.387849,94.6506252 353.88023,96.1572879 L354.333152,95.7086591 Z M345.010051,86.9582298 C343.405036,85.5582153 341.774611,84.1874938 340.119633,82.8468183 L339.718351,83.3421755 C341.367314,84.6779782 342.991814,86.0437183 344.590997,87.4386456 L345.010051,86.9582298 Z M335.086315,78.9190017 C333.384059,77.6398153 331.658582,76.3917313 329.910768,75.1754431 L329.54663,75.6987116 C331.28808,76.910571 333.007276,78.1541119 334.703338,79.4286431 L335.086315,78.9190017 Z M324.586757,71.6133784 C322.795687,70.4619694 320.983642,69.3433252 319.151518,68.2580739 L318.826619,68.8065691 C320.652055,69.8878584 322.457487,71.0024203 324.242023,72.1496288 L324.586757,71.6133784 Z M313.614223,65.1131494 C311.744271,64.0958024 309.855626,63.1126814 307.949183,62.1643457 L307.665255,62.735127 C309.564719,63.6799905 311.446451,64.6595133 313.309561,65.6731382 L313.614223,65.1131494 Z M302.170329,59.4210777 C300.23065,58.5436398 298.274565,57.7017048 296.302955,56.8957625 L296.061737,57.4858643 C298.026111,58.2888484 299.975018,59.1276939 301.907581,60.001913 L302.170329,59.4210777 Z M290.323444,54.5794468 C288.325015,53.8474708 286.312464,53.1520237 284.286647,52.4935255 L284.089575,53.0998003 C286.107947,53.7558783 288.113103,54.4487697 290.104188,55.178056 L290.323444,54.5794468 Z M278.152074,50.6241231 C276.105874,50.0416912 274.047789,49.4965639 271.978641,48.9890948 L271.826791,49.6082457 C273.88834,50.1138512 275.938865,50.656976 277.977548,51.2372682 L278.152074,50.6241231 Z M265.802985,47.5932799 C264.805425,47.3868342 263.805617,47.1890633 262.803649,47 L262.685443,47.6264454 C263.683742,47.8148162 264.679887,48.0118625 265.673791,48.2175517 L265.802985,47.5932799 Z" transform="rotate(11 312.836 76.26)"/>
        <path fill="url(#img-illustration-h)" fill-rule="nonzero" d="M79.547448,77.0627925 C77.8740909,78.3793736 76.2265257,79.7290358 74.6057544,81.110914 L75.0193635,81.5960261 C76.63377,80.2195745 78.2748625,78.8752147 79.9416424,77.5638085 L79.547448,77.0627925 Z M69.8262035,85.3510592 C68.2621954,86.7944659 66.7264009,88.2686798 65.2197758,89.7727723 L65.670177,90.2239319 C67.1709017,88.7257299 68.70068,87.257291 70.2585597,85.8195402 L69.8262035,85.3510592 Z M60.7840162,94.3784529 C59.3379895,95.9400892 57.9224908,97.5301351 56.5384166,99.1476109 L57.0227878,99.5620874 C58.4014479,97.9509388 59.8114092,96.367113 61.2517786,94.8115863 L60.7840162,94.3784529 Z M52.4728339,104.092146 C51.1527302,105.763506 49.8653527,107.460794 48.6115285,109.182993 L49.1269103,109.55821 C50.3758283,107.84275 51.6581688,106.152103 52.973108,104.487281 L52.4728339,104.092146 Z M44.9590685,114.412062 C43.7740951,116.181374 42.6237952,117.974004 41.5089155,119.788916 L42.0521133,120.122596 C43.1626239,118.314797 44.3084171,116.52919 45.4887488,114.766808 L44.9590685,114.412062 Z M38.2686412,125.304169 C37.2265137,127.160676 36.2207816,129.03784 35.252106,130.93462 L35.8198539,131.224566 C36.7847255,129.335234 37.7865092,127.46544 38.8245464,125.616219 L38.2686412,125.304169 Z M32.4520391,136.695486 C31.5594573,138.628045 30.7047482,140.578587 29.8884853,142.546088 L30.4773211,142.79038 C31.2903726,140.830619 32.1417197,138.88775 33.0307912,136.962792 L32.4520391,136.695486 Z M27.5491359,148.515978 C26.812038,150.512483 26.1140047,152.524318 25.455523,154.550488 L26.0618093,154.747524 C26.7176985,152.729331 27.4129836,150.725417 28.1471795,148.736772 L27.5491359,148.515978 Z M23.6134084,160.620707 C23.035517,162.668477 22.4975792,164.728997 22,166.801317 L22.6198818,166.950155 C23.1155049,164.885982 23.6513272,162.833565 24.2269454,160.79385 L23.6134084,160.620707 Z" transform="rotate(-2 50.97 122.006)"/>
        <path fill="url(#img-illustration-i)" fill-rule="nonzero" d="M148.500284,331.518019 C149.870104,333.14989 151.271334,334.754852 152.7031,336.331938 L153.175102,335.903428 C151.74888,334.33245 150.353077,332.733703 148.98856,331.108151 L148.500284,331.518019 Z M157.089112,340.978572 C158.580644,342.498494 160.101362,343.989119 161.650336,345.449528 L162.087661,344.985682 C160.544694,343.530937 159.029872,342.046091 157.544122,340.532061 L157.089112,340.978572 Z M166.38246,349.74038 C167.988079,351.140336 169.620567,352.508688 171.278947,353.844579 L171.678864,353.348119 C170.026935,352.017425 168.400794,350.654393 166.801415,349.259877 L166.38246,349.74038 Z M176.339199,357.760258 C178.048819,359.030519 179.782846,360.267062 181.540274,361.469102 L181.900176,360.942911 C180.149613,359.745567 178.422355,358.513851 176.719405,357.248546 L176.339199,357.760258 Z M186.872671,364.965221 C188.67637,366.097933 190.501947,367.195004 192.348381,368.255726 L192.665936,367.702947 C190.82675,366.646388 189.008334,365.553621 187.211707,364.42535 L186.872671,364.965221 Z M197.961325,371.334468 C199.848016,372.321358 201.753992,373.270931 203.678232,374.182566 L203.951175,373.606451 C202.034525,372.698412 200.136064,371.752582 198.256806,370.769581 L197.961325,371.334468 Z M209.518252,376.808795 C211.476868,377.643237 213.452167,378.438936 215.443152,379.195356 L215.669563,378.599417 C213.686464,377.845992 211.718984,377.053443 209.768119,376.222304 L209.518252,376.808795 Z M221.481255,381.352644 C223.499531,382.028659 225.531912,382.664805 227.57743,383.26063 L227.755714,382.648567 C225.718313,382.055106 223.693997,381.421484 221.683727,380.748151 L221.481255,381.352644 Z M233.72398,384.919614 C234.704498,385.163525 235.687646,385.398268 236.673325,385.623805 L236.815519,385.002365 C235.833749,384.777723 234.8545,384.543911 233.877872,384.300968 L233.72398,384.919614 Z" transform="rotate(-30 192.658 358.366)"/>
        <path fill="#5055FE" fill-rule="nonzero" d="M219.367156,315.529174 L219.435783,315.53647 C219.642992,315.577716 219.777987,315.781449 219.737303,315.991521 C218.088257,324.506297 210.550945,330.750554 201.715079,330.750554 C199.199871,330.750554 196.756003,330.247702 194.496798,329.28727 L195.391398,330.7266 C195.491613,330.888206 195.459491,331.093238 195.3245,331.214244 L195.269114,331.255433 C195.108867,331.353442 194.903376,331.318503 194.780507,331.18184 L194.738553,331.125884 L193.115983,328.509349 C192.982587,328.294236 193.087205,328.020894 193.314068,327.944815 L193.378883,327.929149 L196.43803,327.45941 C196.647744,327.427208 196.846192,327.571485 196.881274,327.781661 C196.912458,327.968484 196.804067,328.144491 196.632305,328.203914 L196.565073,328.220526 L194.658861,328.514851 C196.861999,329.473066 199.252202,329.975294 201.715079,329.975294 C210.186482,329.975294 217.408518,323.992227 218.986932,315.842155 C219.018575,315.678766 219.147174,315.559666 219.30026,315.534208 L219.367156,315.529174 Z M201.715079,297.801982 C209.739374,297.801982 216.24435,304.396806 216.24435,312.531932 C216.24435,320.667059 209.739374,327.261882 201.715079,327.261882 C193.690785,327.261882 187.185809,320.667059 187.185809,312.531932 C187.185809,304.396806 193.690785,297.801982 201.715079,297.801982 Z M215.303921,314.767776 L215.202984,314.879233 C213.768424,316.413526 210.956874,317.617154 207.431498,318.247879 C206.748286,322.064852 205.393868,325.045105 203.675304,326.34695 C209.626479,325.486046 214.35103,320.766565 215.303921,314.767776 Z M188.125867,314.767735 L188.166326,315.00685 C189.205235,320.891633 193.882968,325.497506 199.755037,326.346218 C198.036262,325.044932 196.681967,322.06497 195.999137,318.248374 C192.38906,317.602274 189.526817,316.355384 188.125867,314.767735 Z M206.61473,318.381079 L206.437483,318.407711 C205.167648,318.589549 203.81889,318.699399 202.419099,318.727074 L201.715079,318.734016 L201.403919,318.732664 C199.797834,318.718687 198.254673,318.596714 196.815736,318.381832 C197.704358,323.064726 199.610799,326.296504 201.715079,326.296504 C203.819495,326.296504 205.726045,323.064311 206.61473,318.381079 Z M201.715079,307.105109 C199.93446,307.105109 198.234429,307.242996 196.674548,307.491349 C196.640233,307.706643 196.608178,307.923777 196.578284,308.143404 L195.793355,308.143697 C195.816007,307.971876 195.839966,307.801425 195.865206,307.632412 C191.182506,308.521081 187.950508,310.42758 187.950508,312.531932 C187.950508,314.636284 191.182506,316.542783 195.86551,317.431503 C195.818566,317.119095 195.776382,316.802493 195.738711,316.48142 C195.974987,316.446892 196.197589,316.389087 196.404459,316.309415 L196.496984,316.270343 C196.547646,316.714148 196.607031,317.148783 196.674589,317.573048 C198.039449,317.789891 199.511643,317.922566 201.051241,317.952347 L201.715079,317.958756 L202.031724,317.9573 C203.697223,317.941975 205.288304,317.806119 206.755414,317.572547 C206.817534,317.183857 206.872554,316.786518 206.920293,316.381401 C207.198784,316.47049 207.505368,316.516771 207.838784,316.516771 L207.687688,316.513323 C207.650928,316.82388 207.609942,317.130234 207.56487,317.432004 C212.247326,316.542977 215.479651,314.636391 215.479651,312.531932 C215.479651,310.427729 212.248111,308.521351 207.565644,307.632551 C207.585273,307.76849 207.60471,307.905119 207.623309,308.042641 C207.347758,308.059372 207.092555,308.109906 206.857234,308.191608 C206.825467,307.954911 206.79119,307.721087 206.754493,307.490329 C205.195001,307.242936 203.495317,307.105109 201.715079,307.105109 Z M207.838784,308.423051 C209.690884,308.423051 210.483112,310.061952 210.483112,312.276096 C210.483112,314.49024 209.690884,316.129141 207.838784,316.129141 C205.986685,316.129141 205.194457,314.49024 205.194457,312.276096 C205.194457,310.061952 205.986685,308.423051 207.838784,308.423051 Z M202.293191,308.423051 C203.010479,308.423051 203.417298,308.585856 203.535062,308.650978 C203.674237,308.726954 203.781295,308.846344 203.706354,309.041709 C203.631414,309.247929 203.417298,309.19366 203.256711,309.139392 C203.053302,309.07427 202.721423,308.987441 202.303897,308.987441 C201.672256,308.987441 201.10485,309.204514 200.698031,309.714635 C200.226976,310.300732 199.991449,311.223292 199.93792,312.221828 C200.376857,311.516341 201.094144,311.179878 201.918489,311.179878 C203.299535,311.179878 204.123879,312.16756 204.123879,313.513412 C204.123879,314.81585 203.406592,316.129141 201.757903,316.129141 C200.248388,316.129141 199.349102,315.108898 199.349102,312.894754 C199.349102,311.429512 199.595335,310.224757 200.205565,309.421587 C200.676619,308.802929 201.372495,308.423051 202.293191,308.423051 Z M197.036654,308.531588 C197.475591,308.531588 197.475591,308.889758 197.261476,309.150246 L197.261476,309.150246 L195.141732,311.538048 C196.683364,311.570609 197.65759,312.330364 197.65759,313.828168 C197.65759,315.239142 196.661952,316.129141 195.227378,316.129141 C194.424445,316.129141 193.803509,315.890361 193.375278,315.586459 C193.203986,315.467069 193.11834,315.282557 193.225397,315.119752 C193.364573,314.902679 193.6001,315.043776 193.739275,315.130605 C194.242446,315.445361 194.777735,315.564751 195.24879,315.564751 C196.544189,315.564751 197.036654,314.739874 197.036654,313.806461 C197.036654,312.76451 196.340779,312.102438 194.734912,312.102438 C194.338798,312.102438 194.242446,311.787682 194.499385,311.494634 L194.499385,311.494634 L196.608423,309.095978 L193.889156,309.095978 C193.717863,309.095978 193.589394,308.987441 193.589394,308.813783 C193.589394,308.650978 193.717863,308.531588 193.889156,308.531588 L193.889156,308.531588 L197.036654,308.531588 Z M207.838784,308.987441 C206.457739,308.987441 205.815392,310.224757 205.815392,312.276096 C205.815392,314.327436 206.564797,315.564751 207.838784,315.564751 C209.112772,315.564751 209.862177,314.327436 209.862177,312.276096 C209.862177,310.224757 209.112772,308.987441 207.838784,308.987441 Z M201.811431,311.744268 C200.976381,311.744268 199.991449,312.28695 199.991449,313.469997 C199.991449,314.208045 200.301917,315.564751 201.800726,315.564751 C203.021184,315.564751 203.502944,314.522801 203.502944,313.524266 C203.502944,312.52573 202.871303,311.744268 201.811431,311.744268 Z M207.773539,309.37731 C207.868101,310.393037 207.917164,311.448918 207.917164,312.531932 C207.917164,313.434513 207.883087,314.318248 207.817573,315.175915 C207.530384,315.172622 207.275251,315.084948 207.056838,314.918258 C207.113043,314.144303 207.141903,313.346551 207.141903,312.531932 C207.141903,311.536436 207.098805,310.566129 207.0174,309.631418 C207.207491,309.488539 207.429636,309.405773 207.683015,309.382153 L207.773539,309.37731 Z M195.512995,312.531932 L195.514338,312.556366 C195.850816,312.622512 196.10761,312.737726 196.291498,312.900075 C196.296971,313.530975 196.321031,314.151389 196.361155,314.758317 C196.189959,314.960926 195.941488,315.09436 195.61238,315.149047 C195.546331,314.298944 195.512995,313.424656 195.512995,312.531932 Z M196.333475,310.775108 C196.323885,310.960174 196.315784,311.146404 196.309207,311.333722 L196.138333,311.282573 L195.96043,311.239991 L195.926312,311.234146 L196.333475,310.775108 Z M203.676124,298.717791 L203.759216,298.78204 C205.438034,300.116414 206.759602,303.061718 207.431238,306.816699 C211.041683,307.461883 213.903285,308.708581 215.304117,310.295932 C214.350668,304.297221 209.626748,299.57831 203.676124,298.717791 Z M199.753892,298.717644 L199.572082,298.745364 C193.707304,299.674842 189.069756,304.358486 188.126364,310.295297 C189.526874,308.708581 192.388476,307.461883 195.998661,306.815985 C196.68151,303.000243 198.035636,300.019986 199.753892,298.717644 Z M201.715079,294.31331 C205.057937,294.31331 208.530442,295.402714 211.540573,297.260847 L210.894428,295.358752 C210.833431,295.179042 210.911606,294.987396 211.071077,294.900775 L211.134576,294.873444 C211.313467,294.814907 211.506203,294.895719 211.595019,295.056393 L211.623224,295.120273 L212.734545,298.394488 C212.81689,298.637094 212.646609,298.88071 212.404089,298.897846 L212.336292,298.896734 L208.98375,298.554819 C208.771945,298.533218 208.6154,298.344228 208.634098,298.1327 C208.650718,297.944674 208.800207,297.802129 208.981979,297.787946 L209.051461,297.788805 L211.290539,298.01631 L211.065094,297.875247 C208.187615,296.116988 204.881628,295.088571 201.715079,295.088571 C193.351248,295.088571 186.193627,300.922753 184.500841,308.937097 C184.456625,309.146433 184.253392,309.279795 184.046907,309.234968 C183.840423,309.190142 183.708878,308.984102 183.753094,308.774765 C185.521575,300.402048 192.991496,294.31331 201.715079,294.31331 Z M201.715079,298.76736 C199.610721,298.76736 197.704217,301.999377 196.815501,306.682403 C198.346996,306.453335 199.996892,306.329848 201.715079,306.329848 C203.433267,306.329848 205.083163,306.453335 206.614941,306.68211 C205.725771,301.999089 203.819344,298.76736 201.715079,298.76736 Z M63.198348,215.678796 C63.2817735,215.848035 63.2309277,216.049766 63.0867659,216.159366 L63.0284111,216.195903 L61.500131,216.972333 C61.6847819,216.956175 61.8685842,216.935217 62.0514098,216.909496 C62.2621417,216.879849 62.4573513,217.024237 62.4874226,217.231995 C62.5174938,217.439754 62.3710394,217.632209 62.1603075,217.661856 C61.8964352,217.698979 61.6307108,217.72686 61.3634797,217.745401 L63.0284111,218.589861 C63.1952619,218.67448 63.2739161,218.866809 63.2234186,219.042224 L63.198348,219.106968 C63.1149226,219.276207 62.9253074,219.355987 62.7523679,219.304767 L62.6885372,219.279337 L59.6486126,217.73762 C59.390085,217.606507 59.3701983,217.250994 59.5889524,217.085357 L59.6486126,217.048144 L62.6885372,215.506427 C62.8762444,215.41123 63.1044945,215.488402 63.198348,215.678796 Z M65.4136456,216.27018 C65.502418,216.460923 65.4175416,216.686499 65.2240689,216.774019 C64.740174,216.992915 64.2404741,217.177497 63.7282874,217.326088 C63.5240785,217.385331 63.309821,217.270149 63.2497301,217.068821 C63.1896391,216.867494 63.3064698,216.65626 63.5106788,216.597016 C63.98728,216.45875 64.4522732,216.286987 64.9025956,216.083279 C65.0960683,215.995759 65.3248731,216.079437 65.4136456,216.27018 Z M53.6299685,185.853706 C54.694302,185.853706 55.5571148,186.704344 55.5571148,187.753659 C55.5571148,187.966952 55.5214647,188.172037 55.4557186,188.363437 L64.5205271,193.33432 C64.8735944,192.941291 65.3893022,192.693536 65.9637044,192.693536 C67.0280379,192.693536 67.8908506,193.544174 67.8908506,194.593489 C67.8908506,195.511293 67.2307588,196.277099 66.3530871,196.454641 L66.3530871,206.411998 C67.2307588,206.58954 67.8908506,207.355346 67.8908506,208.27315 C67.8908506,209.322465 67.0280379,210.173103 65.9637044,210.173103 C65.421908,210.173103 64.9323315,209.952677 64.5822055,209.597826 L55.5192265,214.736217 C55.5440758,214.857995 55.5571148,214.983986 55.5571148,215.11298 C55.5571148,216.162295 54.694302,217.012933 53.6299685,217.012933 C52.5656351,217.012933 51.7028223,216.162295 51.7028223,215.11298 C51.7028223,215.01021 51.7110986,214.909346 51.7270299,214.811001 L42.6043144,209.668401 C42.2607064,209.981667 41.8011456,210.173103 41.2962327,210.173103 C40.2318992,210.173103 39.3690865,209.322465 39.3690865,208.27315 C39.3690865,207.353958 40.0311763,206.587224 40.9108333,206.411197 L40.9108333,196.455442 C40.0311763,196.279415 39.3690865,195.512681 39.3690865,194.593489 C39.3690865,193.544174 40.2318992,192.693536 41.2962327,192.693536 C41.832454,192.693536 42.3175246,192.909448 42.666879,193.257901 L51.7522009,188.183033 C51.7200993,188.04665 51.7028223,187.902143 51.7028223,187.753659 C51.7028223,186.704344 52.5656351,185.853706 53.6299685,185.853706 Z M53.6299685,213.973008 C52.9913685,213.973008 52.4736808,214.483391 52.4736808,215.11298 C52.4736808,215.742569 52.9913685,216.252952 53.6299685,216.252952 C54.2685686,216.252952 54.7862563,215.742569 54.7862563,215.11298 C54.7862563,214.483391 54.2685686,213.973008 53.6299685,213.973008 Z M67.9438179,214.52916 C68.0836406,214.6874 68.0668743,214.927428 67.9063693,215.065278 C67.5045838,215.410352 67.0783446,215.726877 66.6309836,216.012191 C66.4522539,216.126179 66.2136365,216.07574 66.0980168,215.899532 C65.982397,215.723325 66.0335576,215.488074 66.2122873,215.374086 C66.6288701,215.108402 67.025823,214.813625 67.4000266,214.49224 C67.5605316,214.35439 67.8039952,214.37092 67.9438179,214.52916 Z M42.8023689,195.778905 C42.5264679,196.119184 42.1343972,196.363912 41.6853969,196.454685 L41.6852098,206.411916 C42.0837886,206.492455 42.4375156,206.694311 42.7049552,206.976632 C42.8081548,206.929559 42.9379881,206.868027 43.0893104,206.793871 L43.2476051,206.715575 L43.6441243,206.513821 C43.8325456,206.416175 44.065582,206.487608 44.1646257,206.67337 C44.2636694,206.859133 44.1912145,207.088881 44.0027932,207.186527 C43.6344397,207.37742 43.3411667,207.524054 43.1075926,207.630845 C43.1833648,207.83042 43.2233789,208.047178 43.2233789,208.27315 C43.2233789,208.549326 43.1636097,208.81174 43.0561281,209.048503 L52.0047906,214.091446 C52.2809437,213.665308 52.7248046,213.355017 53.2446388,213.251013 L53.2450186,203.295362 C52.7929765,203.205016 52.3983593,202.958683 52.1214757,202.615823 L52.1170219,202.61984 L52.0539894,202.665256 L50.7227027,203.433468 C50.5388631,203.539263 50.3028405,203.478098 50.1955315,203.296853 C50.101636,203.138263 50.1373987,202.940284 50.2709646,202.822393 L50.3341022,202.77712 L51.663867,202.009786 C51.701082,201.988257 51.7404569,201.973583 51.7804844,201.965378 C51.7297538,201.79789 51.7028223,201.618706 51.7028223,201.433319 C51.7028223,201.215041 51.7401582,201.00536 51.8088775,200.810144 L51.7482089,200.915593 L42.8023689,195.778905 Z M69.8950861,212.121871 C70.074862,212.234249 70.1281952,212.46903 70.0142091,212.646269 C69.7289383,213.089842 69.4118186,213.512865 69.0655234,213.912046 C68.927166,214.071533 68.6838648,214.090245 68.5220951,213.95384 C68.3603254,213.817434 68.341346,213.577566 68.4797034,213.418079 C68.8022206,213.046308 69.0975451,212.652358 69.3631828,212.239313 C69.4771689,212.062074 69.7153101,212.009494 69.8950861,212.121871 Z M64.3421349,195.62057 C63.4290085,196.066465 60.497244,197.734407 56.0195035,200.388088 L55.4252582,200.741214 C55.5103842,200.955677 55.5571148,201.189118 55.5571148,201.433319 C55.5571148,201.73678 55.4849527,202.023624 55.3566235,202.278082 L56.1887813,202.730999 C56.3752051,202.832303 56.4430329,203.06342 56.3402788,203.247213 C56.2503691,203.408032 56.0596487,203.479333 55.8884841,203.426779 L55.816676,203.396573 L54.8739534,202.884471 C54.6328005,203.085607 54.340838,203.22937 54.0197337,203.294392 L54.0197337,213.251906 C54.5132604,213.351843 54.9379589,213.637795 55.2151328,214.032174 L64.165289,208.957328 C64.0821456,208.745044 64.0365582,208.514346 64.0365582,208.27315 C64.0365582,208.125359 64.0536741,207.981509 64.0860582,207.843423 C64.047957,207.843235 64.0097045,207.836407 63.9725745,207.823256 L63.9178804,207.798828 L62.5676797,207.065119 C62.3812558,206.963815 62.3134281,206.732698 62.4161821,206.548904 C62.5060919,206.388085 62.6968122,206.316785 62.8679768,206.369339 L62.9397849,206.399545 L64.2899856,207.133254 C64.3223509,207.150841 64.3511415,207.172342 64.3760856,207.196827 C64.652967,206.799319 65.0804576,206.510981 65.5776773,206.411322 L65.5776773,196.455316 C65.0604015,196.351627 64.6184134,196.043663 64.3421349,195.62057 Z M70.9683918,209.328071 L71.0451975,209.341874 C71.2497291,209.400025 71.3677193,209.610631 71.308736,209.812277 C71.1607995,210.318026 70.9763024,210.811623 70.7569276,211.289804 C70.6692045,211.481018 70.4408628,211.565918 70.246912,211.479433 C70.0529613,211.392947 69.9668467,211.167828 70.0545697,210.976614 C70.258722,210.531613 70.4304034,210.072303 70.5680614,209.601693 C70.6122989,209.450459 70.7435201,209.347218 70.8926527,209.329582 L70.9683918,209.328071 Z M65.9637044,207.133178 C65.3251043,207.133178 64.8074167,207.643561 64.8074167,208.27315 C64.8074167,208.902739 65.3251043,209.413122 65.9637044,209.413122 C66.6023045,209.413122 67.1199921,208.902739 67.1199921,208.27315 C67.1199921,207.643561 66.6023045,207.133178 65.9637044,207.133178 Z M41.2962327,207.133178 C40.6576326,207.133178 40.139945,207.643561 40.139945,208.27315 C40.139945,208.902739 40.6576326,209.413122 41.2962327,209.413122 C41.9348328,209.413122 42.4525204,208.902739 42.4525204,208.27315 C42.4525204,208.124338 42.4235984,207.982186 42.3709937,207.851859 C42.1801174,207.830571 42.033592,207.670928 42.033592,207.477545 C42.033592,207.451993 42.03615,207.427031 42.0410274,207.402892 C41.8405583,207.234214 41.5803635,207.133178 41.2962327,207.133178 Z M71.3551632,206.261388 C71.5414117,206.259536 71.6981638,206.388209 71.7359096,206.56099 L71.7445393,206.637488 L71.738208,207.144921 C71.725246,207.510462 71.6941445,207.873504 71.6451613,208.233153 C71.6168328,208.441149 71.4228403,208.587123 71.211867,208.559194 C71.0008938,208.531265 70.8528309,208.34001 70.8811595,208.132014 C70.9217096,207.834283 70.9491056,207.533994 70.9631732,207.231916 L70.9742565,206.777552 L70.9737216,206.645311 C70.9715306,206.435459 71.1423078,206.263589 71.3551632,206.261388 Z M46.8575466,205.195481 C46.9625019,205.378061 46.8974561,205.609955 46.7122627,205.713429 L46.5656358,205.795278 L46.5656358,205.795278 L46.4216382,205.875504 L45.3642931,206.458896 C45.1780837,206.560583 44.943518,206.494194 44.8403758,206.310612 C44.7372337,206.12703 44.804573,205.895775 44.9907824,205.794088 L45.2379773,205.658725 L45.2379773,205.658725 L45.4957168,205.516859 L46.3321857,205.052248 C46.5173791,204.948773 46.7525912,205.012901 46.8575466,205.195481 Z M60.1675754,204.90192 L60.2393834,204.932126 L61.5895842,205.665835 C61.776008,205.76714 61.8438358,205.998257 61.7410817,206.18205 C61.651172,206.342869 61.4604516,206.414169 61.289287,206.361616 L61.2174789,206.33141 L59.8672782,205.597701 C59.6808544,205.496396 59.6130266,205.265279 59.7157806,205.081486 C59.8056904,204.920667 59.9964107,204.849367 60.1675754,204.90192 Z M71.2602846,203.533111 C71.4153809,204.034299 71.5341217,204.54706 71.6152667,205.068345 C71.6475567,205.275779 71.5031673,205.469745 71.2927639,205.501579 C71.0823605,205.533414 70.8856187,205.391062 70.8533287,205.183627 C70.7778027,204.69844 70.6673025,204.221264 70.5229772,203.754882 C70.4608602,203.554154 70.5755563,203.341785 70.7791581,203.280545 C70.98276,203.219304 71.1981676,203.332382 71.2602846,203.533111 Z M49.5311589,203.67801 C49.6245813,203.836871 49.588229,204.034745 49.4543123,204.152249 L49.3910401,204.197339 L48.0545371,204.957974 C47.8699594,205.062512 47.6343717,204.999739 47.5283373,204.817765 C47.4223028,204.635792 47.4859747,204.403529 47.6705524,204.298991 L47.8293265,204.209009 L47.8293265,204.209009 L47.990374,204.117625 L49.0043969,203.539868 C49.1885509,203.434606 49.4243903,203.496454 49.5311589,203.67801 Z M57.4671739,203.434502 L57.538982,203.464708 L58.8891827,204.198417 C59.0756065,204.299721 59.1434343,204.530838 59.0406803,204.714632 C58.9507705,204.875451 58.7600502,204.946751 58.5888855,204.894197 L58.5170775,204.863991 L57.1668768,204.130282 C56.9804529,204.028978 56.9126252,203.797861 57.0153792,203.614068 C57.105289,203.453249 57.2960093,203.381948 57.4671739,203.434502 Z M53.6299685,200.293348 C52.9913685,200.293348 52.4736808,200.80373 52.4736808,201.433319 C52.4736808,202.062908 52.9913685,202.573291 53.6299685,202.573291 C53.8677772,202.573291 54.0888183,202.502514 54.2726021,202.38116 C54.2597594,202.303087 54.2734123,202.220996 54.3149777,202.146649 C54.3860493,202.019526 54.5201125,201.948338 54.6577149,201.950046 C54.7405476,201.79695 54.7862563,201.620397 54.7862563,201.433319 C54.7862563,200.80373 54.2685686,200.293348 53.6299685,200.293348 Z M35.6357499,198.442993 C35.7112759,198.92818 35.8217761,199.405356 35.9661014,199.871738 C36.0282184,200.072466 35.9135223,200.284835 35.7099205,200.346075 C35.5063186,200.407316 35.290911,200.294238 35.228794,200.093509 C35.0736977,199.592321 34.9549569,199.07956 34.8738119,198.558275 C34.8415219,198.350841 34.9859113,198.156875 35.1963147,198.125041 C35.4067181,198.093206 35.6034599,198.235558 35.6357499,198.442993 Z M52.0743489,188.875341 L43.0891553,193.89545 C43.1757816,194.111538 43.2233789,194.347033 43.2233789,194.593489 C43.2233789,194.769099 43.199213,194.939144 43.1539809,195.100569 L52.1214757,200.250816 C52.4745487,199.813611 53.0190629,199.533367 53.6299685,199.533367 C54.168724,199.533367 54.6558441,199.751324 55.0055588,200.102681 L57.1348852,198.841697 C60.8496501,196.650534 63.0702073,195.394619 64.0692076,194.937604 C64.0473401,194.825605 64.0365582,194.710788 64.0365582,194.593489 C64.0365582,194.3831 64.0712439,194.180698 64.1352851,193.991538 L55.0660032,189.020734 C54.7955654,189.318442 54.4312792,189.531561 54.0190022,189.614881 L54.0189579,190.793583 C54.0189579,191.003446 53.8455984,191.173574 53.6317486,191.173574 C53.4178988,191.173574 53.2445393,191.003446 53.2445393,190.793583 L53.2445393,190.793583 L53.2443125,189.61556 C52.7662652,189.519832 52.3524921,189.249643 52.0743489,188.875341 Z M53.6317486,198.013404 C53.8455984,198.013404 54.0189579,198.183532 54.0189579,198.393395 L54.0189579,198.393395 L54.0189579,199.153376 C54.0189579,199.363239 53.8455984,199.533367 53.6317486,199.533367 C53.4178988,199.533367 53.2445393,199.363239 53.2445393,199.153376 L53.2445393,199.153376 L53.2445393,198.393395 C53.2445393,198.183532 53.4178988,198.013404 53.6317486,198.013404 Z M35.199183,195.064886 L35.2772116,195.067426 C35.4881848,195.095355 35.6362477,195.28661 35.6079191,195.494606 C35.567369,195.792337 35.539973,196.092626 35.5259054,196.394704 L35.5148221,196.849068 L35.515357,196.981309 C35.517548,197.191161 35.3467708,197.363031 35.1339154,197.365232 C34.9476669,197.367084 34.7909148,197.238411 34.753169,197.06563 L34.7445393,196.989132 L34.7508706,196.481699 C34.7638326,196.116158 34.7949341,195.753116 34.8439173,195.393467 C34.8651637,195.23747 34.9795961,195.11636 35.1244887,195.077338 L35.199183,195.064886 Z M53.6317486,194.97348 C53.8455984,194.97348 54.0189579,195.143607 54.0189579,195.35347 L54.0189579,195.35347 L54.0189579,196.873432 C54.0189579,197.083295 53.8455984,197.253423 53.6317486,197.253423 C53.4178988,197.253423 53.2445393,197.083295 53.2445393,196.873432 L53.2445393,196.873432 L53.2445393,195.35347 C53.2445393,195.143607 53.4178988,194.97348 53.6317486,194.97348 Z M65.9637044,193.453517 C65.3251043,193.453517 64.8074167,193.9639 64.8074167,194.593489 C64.8074167,195.223078 65.3251043,195.733461 65.9637044,195.733461 C66.6023045,195.733461 67.1199921,195.223078 67.1199921,194.593489 C67.1199921,193.9639 66.6023045,193.453517 65.9637044,193.453517 Z M41.2962327,193.453517 C40.6576326,193.453517 40.139945,193.9639 40.139945,194.593489 C40.139945,195.223078 40.6576326,195.733461 41.2962327,195.733461 C41.9348328,195.733461 42.4525204,195.223078 42.4525204,194.593489 C42.4525204,193.9639 41.9348328,193.453517 41.2962327,193.453517 Z M36.2421666,192.147187 C36.4361173,192.233673 36.5222319,192.458792 36.4345089,192.650006 C36.2303566,193.095007 36.0586752,193.554317 35.9210172,194.024927 C35.8620339,194.226572 35.6484128,194.342897 35.4438811,194.284746 C35.2393495,194.226595 35.1213593,194.015989 35.1803426,193.814343 C35.3282791,193.308594 35.5127762,192.814997 35.732151,192.336816 C35.8198741,192.145602 36.0482158,192.060702 36.2421666,192.147187 Z M53.6317486,191.933555 C53.8455984,191.933555 54.0189579,192.103683 54.0189579,192.313546 L54.0189579,192.313546 L54.0189579,193.833508 C54.0189579,194.043371 53.8455984,194.213498 53.6317486,194.213498 C53.4178988,194.213498 53.2445393,194.043371 53.2445393,193.833508 L53.2445393,193.833508 L53.2445393,192.313546 C53.2445393,192.103683 53.4178988,191.933555 53.6317486,191.933555 Z M37.9669835,189.67278 C38.1287532,189.809186 38.1477326,190.049054 38.0093752,190.208541 C37.686858,190.580312 37.3915335,190.974262 37.1258958,191.387307 C37.0119097,191.564546 36.7737685,191.617126 36.5939925,191.504749 C36.4142166,191.392371 36.3608834,191.15759 36.4748695,190.980351 C36.7601403,190.536778 37.07726,190.113755 37.4235552,189.714574 C37.5619126,189.555087 37.8052138,189.536375 37.9669835,189.67278 Z M40.3910618,187.727088 C40.5066816,187.903295 40.455521,188.138546 40.2767913,188.252534 C39.8602085,188.518218 39.4632556,188.812995 39.089052,189.13438 C38.928547,189.27223 38.6850834,189.2557 38.5452607,189.09746 C38.405438,188.93922 38.4222043,188.699192 38.5827093,188.561342 C38.9844948,188.216268 39.410734,187.899743 39.858095,187.614429 C40.0368247,187.500441 40.2754421,187.55088 40.3910618,187.727088 Z M53.6299685,186.613687 C52.9913685,186.613687 52.4736808,187.12407 52.4736808,187.753659 C52.4736808,188.383248 52.9913685,188.89363 53.6299685,188.89363 C54.2685686,188.89363 54.7862563,188.383248 54.7862563,187.753659 C54.7862563,187.12407 54.2685686,186.613687 53.6299685,186.613687 Z M43.7367107,184.321853 L43.8005414,184.347283 L46.840466,185.889 C47.0989936,186.020113 47.1188803,186.375626 46.9001262,186.541263 L46.840466,186.578476 L43.8005414,188.120193 C43.6128342,188.21539 43.3845841,188.138218 43.2907306,187.947824 C43.2073051,187.778585 43.2581509,187.576854 43.4023127,187.467254 L43.4606675,187.430717 L44.9889476,186.654287 C44.8042967,186.670445 44.6204944,186.691403 44.4376688,186.717124 C44.2269369,186.746771 44.0317273,186.602383 44.001656,186.394625 C43.9715848,186.186866 44.1180392,185.994411 44.3287711,185.964764 C44.5926434,185.927641 44.8583678,185.89976 45.1255989,185.881219 L43.4606675,185.036759 C43.2938167,184.95214 43.2151625,184.759811 43.26566,184.584396 L43.2907306,184.519652 C43.374156,184.350413 43.5637712,184.270633 43.7367107,184.321853 Z M43.2393485,186.557799 C43.2994395,186.759126 43.1826088,186.97036 42.9783998,187.029604 C42.5017986,187.16787 42.0368054,187.339633 41.586483,187.543341 C41.3930103,187.630861 41.1642055,187.547183 41.075433,187.35644 C40.9866606,187.165697 41.071537,186.940121 41.2650097,186.852601 C41.7489046,186.633705 42.2486045,186.449123 42.7607912,186.300532 C42.9650001,186.241289 43.1792576,186.356471 43.2393485,186.557799 Z M360.162437,186.31331 L360.161539,193.64231 L360.793675,193.643306 L364.281539,198.29131 L364.744539,198.291958 L364.744539,215.201542 C364.744539,215.815555 364.243813,216.31331 363.626136,216.31331 L363.626136,216.31331 L355.550875,216.31331 C355.145862,216.31331 354.772495,216.095643 354.574784,215.744262 L354.574784,215.744262 L352.114678,211.372558 L345.866534,211.372558 L343.983854,215.647488 C343.820524,216.018274 343.469036,216.268761 343.069435,216.307934 L343.069435,216.307934 L342.959366,216.31331 L334.862942,216.31331 C334.245265,216.31331 333.744539,215.815555 333.744539,215.201542 L333.744539,215.201542 L333.744539,198.291958 L333.929539,198.29131 L337.419169,193.643306 L338.348539,193.64231 L338.349213,186.31331 L360.162437,186.31331 Z M363.998937,199.032676 L334.490141,199.032676 L334.490141,215.201542 C334.490141,215.383472 334.622019,215.534782 334.79593,215.566161 L334.79593,215.566161 L334.862942,215.572131 L342.959366,215.572131 C343.107435,215.572131 343.241469,215.485022 343.300862,215.350191 L343.300862,215.350191 L345.379468,210.631423 L352.552252,210.631423 L355.225512,215.382449 C355.291415,215.499576 355.415871,215.572131 355.550875,215.572131 L355.550875,215.572131 L363.626136,215.572131 C363.832028,215.572131 363.998937,215.406213 363.998937,215.201542 L363.998937,215.201542 L363.998937,199.032676 Z M341.895191,201.4369 C344.160006,201.4369 345.996001,203.262003 345.996001,205.513382 C345.996001,207.764761 344.160006,209.589865 341.895191,209.589865 C339.630376,209.589865 337.79438,207.764761 337.79438,205.513382 C337.79438,203.262003 339.630376,201.4369 341.895191,201.4369 Z M356.061626,201.4369 C358.326442,201.4369 360.162437,203.262003 360.162437,205.513382 C360.162437,207.764761 358.326442,209.589865 356.061626,209.589865 C353.796811,209.589865 351.960816,207.764761 351.960816,205.513382 C351.960816,203.262003 353.796811,201.4369 356.061626,201.4369 Z M341.895191,202.178079 C340.04216,202.178079 338.539982,203.671345 338.539982,205.513382 C338.539982,207.35542 340.04216,208.848686 341.895191,208.848686 C343.748221,208.848686 345.250399,207.35542 345.250399,205.513382 C345.250399,203.671345 343.748221,202.178079 341.895191,202.178079 Z M356.061626,202.178079 C354.208596,202.178079 352.706418,203.671345 352.706418,205.513382 C352.706418,207.35542 354.208596,208.848686 356.061626,208.848686 C357.914657,208.848686 359.416835,207.35542 359.416835,205.513382 C359.416835,203.671345 357.914657,202.178079 356.061626,202.178079 Z M360.420164,194.384004 L360.161539,194.38331 L360.162437,196.70881 L338.349213,196.70881 L338.348539,194.38431 L337.792412,194.384004 L334.859539,198.29131 L363.352539,198.29131 L360.420164,194.384004 Z M359.416357,187.054489 L339.094232,187.054489 L339.094232,195.967161 L340.295539,195.96631 L345.310527,188.289071 C345.450315,188.075057 345.75381,188.066268 345.909385,188.253044 L345.947913,188.308825 L349.447539,194.47731 L352.043437,191.278406 C352.179809,191.110327 352.426229,191.096294 352.581295,191.233904 L352.629324,191.285388 L356.243539,195.96631 L359.416357,195.967161 L359.416357,187.054489 Z M352.325683,192.109327 L349.841539,195.17131 L350.292539,195.96631 L355.304539,195.96631 L352.325683,192.109327 Z M345.600354,189.204648 L341.183539,195.96631 L349.436539,195.96631 L345.600354,189.204648 Z M356.061626,188.095685 C357.091088,188.095685 357.925631,188.925278 357.925631,189.948632 C357.925631,190.971986 357.091088,191.801578 356.061626,191.801578 C355.032165,191.801578 354.197622,190.971986 354.197622,189.948632 C354.197622,188.925278 355.032165,188.095685 356.061626,188.095685 Z M356.061626,188.836864 C355.44395,188.836864 354.943224,189.334619 354.943224,189.948632 C354.943224,190.562644 355.44395,191.0604 356.061626,191.0604 C356.679303,191.0604 357.180029,190.562644 357.180029,189.948632 C357.180029,189.334619 356.679303,188.836864 356.061626,188.836864 Z M214.717835,79.7533973 L214.482753,79.6581333 C217.191647,80.7337028 218.744539,82.1367117 218.744539,83.7151614 L218.744539,83.7151614 L218.744539,99.3975309 L218.684305,99.3977734 C218.196797,101.533191 214.784359,103.302058 209.702008,104.240207 L209.680517,104.244851 C209.621786,104.280182 209.552683,104.300553 209.478727,104.300553 L209.406539,104.29331 L209.400157,104.294601 L209.478727,104.300553 C209.289053,104.300553 209.131302,104.166563 209.098588,103.989867 L209.092363,103.921782 L209.091539,94.1543102 L208.76381,94.0987473 C206.591916,93.7481715 204.207672,93.5632027 201.744539,93.5632027 C199.329114,93.5632027 196.989197,93.7410582 194.850237,94.0788005 L194.590539,94.1213102 L194.590623,103.921782 C194.590623,104.130971 194.417642,104.300553 194.204259,104.300553 L194.197539,104.29931 L194.196248,104.31331 C188.890666,103.396684 185.305795,101.59055 184.804855,99.3980663 L184.744539,99.3975309 L184.744539,83.7151614 C184.744539,82.0173419 186.541723,80.5222483 189.634172,79.4221942 C190.370443,77.0448539 192.62426,75.3138851 195.29047,75.3138851 C195.447487,75.3138851 195.604411,75.32002 195.760868,75.332268 L195.995156,75.355222 L200.241954,75.8552471 C201.339895,75.9845206 202.448193,76.0006798 203.548724,75.9037247 L204.019852,75.8552471 L208.266649,75.355222 C211.27676,75.0008065 214.029689,76.9308849 214.717835,79.7533973 Z M185.515785,85.5726766 L185.517266,98.8659941 C185.517266,100.707407 188.733028,102.517533 193.817529,103.474729 L193.81764,89.0950241 C189.817189,88.360407 186.845641,87.110899 185.515785,85.5726766 Z M209.865817,89.0587399 L209.865909,103.437551 C214.744818,102.489292 217.850546,100.751271 217.968338,98.9708997 L217.971812,98.8659941 L217.971669,85.574687 C216.662988,87.0866563 213.767644,88.3195339 209.865817,89.0587399 Z M203.718616,86.0318036 L199.029995,86.0318036 C198.427502,86.0318036 197.932375,86.4824561 197.87621,87.0586816 L197.870904,87.1681161 L197.870904,88.6611907 C197.870904,90.474296 196.41767,91.9546507 194.59081,92.0438629 L194.590539,93.3543102 L194.845372,93.3124545 C196.993553,92.9801564 199.33294,92.805661 201.744539,92.805661 C204.287956,92.805661 206.750697,92.9997718 208.992745,93.3681083 L209.091539,93.3843102 L209.091539,92.0473102 L208.33253,92.0481194 C206.478999,92.0481194 204.966389,90.6171522 204.881467,88.820629 L204.877707,88.6611907 L204.877707,87.1681161 C204.877707,86.5774638 204.41802,86.0920671 203.830244,86.0370053 L203.718616,86.0318036 Z M208.538215,76.0893003 L208.358793,76.1073585 L204.111995,76.6073836 C202.942218,76.7451152 201.761231,76.7604187 200.588963,76.6532941 L200.14981,76.6073836 L195.903013,76.1073585 C195.699745,76.0834254 195.495199,76.0714267 195.29047,76.0714267 C192.513833,76.0714267 190.251739,78.2311502 190.156736,80.9305232 L190.15363,81.1073177 L190.152916,87.3845538 C191.278535,87.767632 192.582181,88.1002344 194.033475,88.3638319 L194.330359,88.4164322 L194.327811,88.4304642 C194.459315,88.4739459 194.559136,88.5849255 194.584398,88.7213703 L194.590623,88.7894548 L194.590649,91.2850976 C195.941979,91.1999882 197.02094,90.1338041 197.094208,88.8054578 L197.098177,88.6611907 L197.098177,87.1681161 C197.098177,86.1640072 197.895273,85.3424114 198.902977,85.2782903 L199.029995,85.274262 L203.718616,85.274262 C204.742853,85.274262 205.580918,86.0556934 205.646325,87.0435946 L205.650434,87.1681161 L205.650434,88.6611907 C205.650434,90.0649554 206.772529,91.2117911 208.18537,91.2866871 L208.33253,91.2905778 L209.091539,91.2903102 L209.092363,88.7894548 C209.092363,88.6530795 209.165881,88.5335376 209.276182,88.466841 L209.263713,88.3981302 C211.140927,88.0679902 212.777142,87.6232076 214.108866,87.1028486 L214.108175,81.1073177 C214.108175,80.9066123 214.095936,80.7060864 214.071523,80.506813 C213.740423,77.804165 211.283381,75.8598844 208.538215,76.0893003 Z M189.436985,80.3059049 L189.374431,80.3294855 C186.887982,81.3020232 185.517266,82.5180478 185.517266,83.7151614 C185.517266,84.9384753 186.936511,86.1479813 189.380057,87.1027754 L189.380903,81.1073177 C189.380903,80.8353979 189.400012,80.5678535 189.436985,80.3059049 Z M214.863188,80.6448015 L214.838737,80.41648 C214.857461,80.5693131 214.86996,80.7227868 214.876212,80.876535 L214.880903,81.1073177 L214.88107,86.777226 C216.849449,85.8802046 217.971812,84.8028401 217.971812,83.7151614 C217.971812,82.6477774 216.882497,81.5616695 214.863188,80.6448015 Z M209.085448,78.4123699 C210.152362,78.4123699 211.017266,79.2602773 211.017266,80.306224 C211.017266,81.3521708 210.152362,82.2000781 209.085448,82.2000781 C208.018534,82.2000781 207.15363,81.3521708 207.15363,80.306224 C207.15363,79.2602773 208.018534,78.4123699 209.085448,78.4123699 Z M195.174848,78.4123699 C195.364521,78.4123699 195.522273,78.5463602 195.554987,78.7230562 L195.561212,78.7911408 L195.560539,79.9273102 L196.760863,79.9274532 C196.974246,79.9274532 197.147227,80.1001265 197.147227,80.3131297 C197.147227,80.5024659 197.010551,80.6599364 196.830312,80.6925924 L196.760863,80.6988061 L195.560539,80.6983102 L195.561212,81.8213073 C195.561212,82.0304967 195.388231,82.2000781 195.174848,82.2000781 C194.985174,82.2000781 194.827423,82.0660878 194.794709,81.8893918 L194.788484,81.8213073 L194.787539,80.6983102 L193.731078,80.6988061 C193.517695,80.6988061 193.344714,80.5261329 193.344714,80.3131297 C193.344714,80.1237935 193.481391,79.966323 193.661629,79.933667 L193.731078,79.9274532 L194.787539,79.9273102 L194.788484,78.7911408 C194.788484,78.5819514 194.961465,78.4123699 195.174848,78.4123699 Z M209.085448,79.1699116 C208.4453,79.1699116 207.926357,79.678656 207.926357,80.306224 C207.926357,80.9337921 208.4453,81.4425365 209.085448,81.4425365 C209.725596,81.4425365 210.244539,80.9337921 210.244539,80.306224 C210.244539,79.678656 209.725596,79.1699116 209.085448,79.1699116 Z"/>
        <g transform="translate(319.745 119.313)">
          <circle cx="9" cy="9" r="6" fill="#5055FE" fill-rule="nonzero" opacity=".152" transform="rotate(45 9 9)"/>
          <circle cx="9" cy="9" r="2" fill="#5055FE" fill-rule="nonzero" transform="rotate(45 9 9)"/>
        </g>
        <g transform="translate(264.745 320.313)">
          <circle cx="9" cy="9" r="6" fill="#5055FE" fill-rule="nonzero" opacity=".152" transform="rotate(45 9 9)"/>
          <circle cx="9" cy="9" r="2" fill="#5055FE" fill-rule="nonzero" transform="rotate(45 9 9)"/>
        </g>
        <g transform="translate(288.745 249.313)">
          <circle cx="9" cy="9" r="6" fill="#5055FE" fill-rule="nonzero" opacity=".152" transform="rotate(45 9 9)"/>
          <circle cx="9" cy="9" r="2" fill="#5055FE" fill-rule="nonzero" transform="rotate(45 9 9)"/>
        </g>
        <g transform="translate(53.745 240.313)">
          <circle cx="9" cy="9" r="6" fill="#5055FE" fill-rule="nonzero" opacity=".152" transform="rotate(45 9 9)"/>
          <circle cx="9" cy="9" r="2" fill="#5055FE" fill-rule="nonzero" transform="rotate(45 9 9)"/>
        </g>
      </g>
    </g>
  </g>
</svg>
