<svg xmlns="http://www.w3.org/2000/svg" width="409" height="404" viewBox="0 0 409 404">
  <defs>
    <linearGradient id="img-a1qa-a" x1="100%" x2="0%" y1="100%" y2="0%">
      <stop offset="0%" stop-color="#1E85E9"/>
      <stop offset="20.276%" stop-color="#8671F3"/>
      <stop offset="70.727%" stop-color="#C06CFD" stop-opacity=".99"/>
      <stop offset="100%" stop-color="#FFBEE8"/>
    </linearGradient>
  </defs>
  <g fill="none" fill-rule="evenodd">
    <g transform="translate(170.75 156.898)">
      <rect width="106.49" height="94.724" x="2.25" y=".835" fill="#FFF" opacity="0"/>
      <g fill="#000" fill-rule="nonzero" transform="translate(1.726 .462)">
        <path d="M17.8855469,24.5755394 C16.4763149,25.5429038 14.584173,25.7658832 12.8775938,25.7658832 C10.2435744,25.7658832 8.01756901,24.6132629 8.01756901,21.2659577 C8.01756901,17.6590702 10.5774379,16.7290557 13.6936218,16.7290557 C15.2146386,16.7290557 16.6987663,16.9893851 17.8855469,17.2497144 L17.8855469,24.5755394 Z M12.6547697,0.106820941 C8.87085865,0.106820941 4.90138508,0.776506069 1.71067804,1.92875293 L1.71067804,7.72995171 C3.52904197,7.24664298 7.46088137,6.20532556 11.1710145,6.20532556 C14.732474,6.20532556 17.9231811,7.06026658 17.9231811,10.4818982 L17.9231811,12.1925272 C16.5504653,11.7831715 14.3613489,11.4485157 11.9870426,11.4485157 C5.90297571,11.4485157 0.18966132,13.606224 0.18966132,21.7119165 C0.18966132,29.5957501 6.34787869,31.9387143 12.6547697,31.9387143 C17.2919703,31.9387143 22.040583,30.4506911 25.41648,27.7738181 L25.41648,11.2998627 C25.41648,2.3381087 19.1841121,0.106820941 12.6547697,0.106820941 L12.6547697,0.106820941 Z" transform="translate(34.761 46.469)"/>
        <polygon points="7.383 32.158 .668 32.158 .668 38.404 21.665 38.404 21.665 32.158 14.951 32.158 14.951 .103 .186 3.115 .186 8.99 7.383 7.8" transform="translate(36.583 .287)"/>
        <path d="M17.8158698,24.5755394 C16.4062651,25.5425303 14.5141233,25.7655097 12.807544,25.7655097 C10.1738972,25.7655097 7.94789187,24.6128894 7.94789187,21.2659577 C7.94789187,17.6590702 10.5073882,16.7294292 13.6239447,16.7294292 C15.1449614,16.7294292 16.6287166,16.9897586 17.8158698,17.2500879 L17.8158698,24.5755394 Z M11.9173654,11.4488892 C5.83329856,11.4488892 0.119984176,13.6058505 0.119984176,21.71229 C0.119984176,29.5957501 6.27820154,31.9383408 12.5847199,31.9383408 C17.2226658,31.9383408 21.9709059,30.4510646 25.3468028,27.7738181 L25.3468028,11.2998627 C25.3468028,2.3381087 19.114435,0.107194441 12.5847199,0.107194441 C8.80080889,0.107194441 4.83133532,0.776506069 1.64100089,1.92912643 L1.64100089,7.73032521 C3.45936483,7.24664298 7.39157684,6.20569906 11.1013374,6.20569906 C14.6624243,6.20569906 17.8535039,7.06064008 17.8535039,10.4822717 L17.8535039,12.1925272 C16.4804156,11.7831715 14.2912992,11.4488892 11.9173654,11.4488892 L11.9173654,11.4488892 Z" transform="translate(2.666 7.572)"/>
        <path d="M19.306332,23.1248662 C17.8594658,24.5378159 15.7817614,25.207501 14.1865942,25.207501 C10.3289053,25.207501 8.02837683,22.603834 8.02837683,16.28235 C8.02837683,10.8161805 9.77184504,6.68863429 15.7817614,6.68863429 C16.8947641,6.68863429 18.0819173,6.91198717 19.306332,7.3952959 L19.306332,23.1248662 Z M26.8745266,3.45337908 C23.386845,1.37111774 20.2333995,0.14342392 15.6334604,0.14342392 C4.80078085,0.14342392 0.200841753,7.02329011 0.200841753,16.9520351 C0.31188119,26.8060801 5.43161899,31.9753173 12.4800149,31.9753173 C14.9284718,31.9753173 17.4510791,31.2313057 19.306332,30.0783118 L19.306332,47.2589288 L34.0712236,44.3213529 L34.0712236,38.4458277 L26.8745266,39.5614716 L26.8745266,3.45337908 Z" transform="translate(.323 46.432)"/>
      </g>
    </g>
    <circle cx="202.5" cy="201.5" r="120.5" stroke="url(#img-a1qa-a)" stroke-linecap="square" stroke-width="50" opacity=".5"/>
    <path fill="#FFF" fill-rule="nonzero" d="M276.050592,138.941882 L301.69645,128.76027 L327.711213,138.939697 C328.280999,139.162651 328.539089,139.753003 328.287673,140.258285 C328.054215,140.727476 327.46353,140.958333 326.924136,140.81041 L326.800756,140.769486 L301.70325,130.947591 L276.972138,140.7673 C276.444315,140.97685 275.831415,140.797216 275.542801,140.366894 L275.482141,140.263202 C275.24584,139.795132 275.448407,139.251616 275.933663,138.995675 L276.050592,138.941882 Z" transform="scale(1 -1) rotate(31 787.984 0)"/>
    <path fill="#FFF" fill-rule="nonzero" d="M265.13441,289.395873 L289.812509,279.21426 L314.845592,289.393688 C315.393876,289.616641 315.642227,290.206993 315.400298,290.712275 C315.175651,291.181466 314.607255,291.412324 314.088215,291.2644 L313.969492,291.223476 L289.819052,281.401582 L266.02118,291.221291 C265.513275,291.430841 264.923503,291.251206 264.645781,290.820884 L264.58741,290.717192 C264.360026,290.249122 264.554948,289.705606 265.021893,289.449666 L265.13441,289.395873 Z" transform="scale(1 -1) rotate(-35 -614.741 0)"/>
    <path fill="#FFF" fill-rule="nonzero" d="M90.287328,289.743202 L115.449306,279.56159 L140.973229,289.741017 C141.532264,289.963971 141.785485,290.554323 141.538812,291.059605 C141.30976,291.528795 140.73022,291.759653 140.201002,291.611729 L140.079951,291.570805 L115.455977,281.748911 L91.1914858,291.56862 C90.6736217,291.77817 90.0722856,291.598535 89.7891179,291.168213 L89.7296022,291.064521 C89.49776,290.596451 89.6965044,290.052935 90.1726049,289.796995 L90.287328,289.743202 Z" transform="scale(-1 1) rotate(44 0 -.593)"/>
    <path fill="#FFF" fill-rule="nonzero" d="M78.2460404,132.989136 L103.891898,122.807524 L129.906661,132.986951 C130.476447,133.209905 130.734537,133.800257 130.483121,134.305539 C130.249663,134.774729 129.658978,135.005587 129.119584,134.857664 L128.996204,134.816739 L103.898698,124.994845 L79.1675856,134.814554 C78.6397627,135.024104 78.0268626,134.84447 77.7382493,134.414148 L77.6775892,134.310455 C77.4412885,133.842386 77.6438549,133.29887 78.1291111,133.042929 L78.2460404,132.989136 Z" transform="scale(-1 1) rotate(-24 0 618.509)"/>
    <circle cx="202" cy="202" r="201.449" stroke="#E3E0E0" stroke-width="1.102"/>
    <circle cx="381" cy="111" r="3" fill="#5055FE" transform="rotate(51 381 111)"/>
    <circle cx="402" cy="188" r="3" fill="#5055FE" transform="rotate(51 402 188)"/>
    <circle cx="393" cy="265" r="3" fill="#5055FE" transform="rotate(51 393 265)"/>
    <circle cx="353" cy="335" r="3" fill="#5055FE" transform="rotate(51 353 335)"/>
    <circle cx="335" cy="50" r="3" fill="#5055FE" transform="rotate(51 335 50)"/>
    <circle cx="335" cy="50" r="7" fill="#5055FE" opacity=".103"/>
    <circle cx="381" cy="111" r="7" fill="#5055FE" opacity=".103"/>
    <circle cx="402" cy="188" r="7" fill="#5055FE" opacity=".103"/>
    <circle cx="393" cy="265" r="7" fill="#5055FE" opacity=".103"/>
    <circle cx="353" cy="335" r="7" fill="#5055FE" opacity=".103"/>
  </g>
</svg>
