<svg xmlns="http://www.w3.org/2000/svg" xmlns:xlink="http://www.w3.org/1999/xlink" width="468" height="537" viewBox="0 0 468 537">
  <defs>
    <linearGradient id="img-steps-a" x1="78.314%" x2="25.632%" y1="108.696%" y2="0%">
      <stop offset="0%" stop-color="#1E85E9"/>
      <stop offset="20.276%" stop-color="#8671F3"/>
      <stop offset="70.727%" stop-color="#CFA9FC"/>
      <stop offset="100%" stop-color="#F4D9FB"/>
    </linearGradient>
    <circle id="img-steps-c" cx="62" cy="262" r="36"/>
    <filter id="img-steps-b" width="147.2%" height="147.2%" x="-23.6%" y="-18.1%" filterUnits="objectBoundingBox">
      <feMorphology in="SourceAlpha" radius="2" result="shadowSpreadOuter1"/>
      <feOffset dy="4" in="shadowSpreadOuter1" result="shadowOffsetOuter1"/>
      <feGaussianBlur in="shadowOffsetOuter1" result="shadowBlurOuter1" stdDeviation="7"/>
      <feColorMatrix in="shadowBlurOuter1" values="0 0 0 0 0.0415817482   0 0 0 0 0.0415817482   0 0 0 0 0.0415817482  0 0 0 0.1 0"/>
    </filter>
    <circle id="img-steps-e" cx="234" cy="362" r="36"/>
    <filter id="img-steps-d" width="147.2%" height="147.2%" x="-23.6%" y="-18.1%" filterUnits="objectBoundingBox">
      <feMorphology in="SourceAlpha" radius="2" result="shadowSpreadOuter1"/>
      <feOffset dy="4" in="shadowSpreadOuter1" result="shadowOffsetOuter1"/>
      <feGaussianBlur in="shadowOffsetOuter1" result="shadowBlurOuter1" stdDeviation="7"/>
      <feColorMatrix in="shadowBlurOuter1" values="0 0 0 0 0.0415817482   0 0 0 0 0.0415817482   0 0 0 0 0.0415817482  0 0 0 0.1 0"/>
    </filter>
    <linearGradient id="img-steps-f" x1="58.976%" x2="42.275%" y1="108.696%" y2="0%">
      <stop offset="0%" stop-color="#1E85E9"/>
      <stop offset="20.276%" stop-color="#8671F3"/>
      <stop offset="70.727%" stop-color="#CFA9FC"/>
      <stop offset="100%" stop-color="#F4D9FB"/>
    </linearGradient>
    <circle id="img-steps-h" cx="135" cy="125.743" r="36"/>
    <filter id="img-steps-g" width="147.2%" height="147.2%" x="-23.6%" y="-18.1%" filterUnits="objectBoundingBox">
      <feMorphology in="SourceAlpha" radius="2" result="shadowSpreadOuter1"/>
      <feOffset dy="4" in="shadowSpreadOuter1" result="shadowOffsetOuter1"/>
      <feGaussianBlur in="shadowOffsetOuter1" result="shadowBlurOuter1" stdDeviation="7"/>
      <feColorMatrix in="shadowBlurOuter1" values="0 0 0 0 0.0415817482   0 0 0 0 0.0415817482   0 0 0 0 0.0415817482  0 0 0 0.1 0"/>
    </filter>
    <circle id="img-steps-j" cx="308" cy="225.743" r="36"/>
    <filter id="img-steps-i" width="147.2%" height="147.2%" x="-23.6%" y="-18.1%" filterUnits="objectBoundingBox">
      <feMorphology in="SourceAlpha" radius="2" result="shadowSpreadOuter1"/>
      <feOffset dy="4" in="shadowSpreadOuter1" result="shadowOffsetOuter1"/>
      <feGaussianBlur in="shadowOffsetOuter1" result="shadowBlurOuter1" stdDeviation="7"/>
      <feColorMatrix in="shadowBlurOuter1" values="0 0 0 0 0.0415817482   0 0 0 0 0.0415817482   0 0 0 0 0.0415817482  0 0 0 0.1 0"/>
    </filter>
  </defs>
  <g fill="none" fill-rule="evenodd" transform="translate(0 .257)">
    <g transform="translate(74 63.743)">
      <path fill="url(#img-steps-a)" fill-rule="nonzero" d="M62.1599984,0 C96.4900182,0 124.319997,27.8124871 124.319997,62.1209302 L124.892376,66.3328476 C127.094409,82.789254 136.798137,97.2988692 151.170853,105.625993 C165.392423,113.865575 182.418538,115.716916 198.058252,110.757142 C198.923588,110.789255 200.726084,110.025247 203.465741,108.465116 C207.575226,106.12492 222.035431,100.576744 233.839994,100.576744 C268.170014,100.576744 296,128.389231 296,162.697674 C296,197.006118 268.170014,224.818605 233.839994,224.818605 C223.509924,224.818605 213.768392,222.30036 205.196532,217.844633 L202.04627,216.549481 C198.968322,215.28269 195.791564,214.333043 192.561419,213.693392 C187.359484,211.946387 181.790262,211 176,211 C147.281193,211 124,234.281193 124,263 C124,291.718807 147.281193,315 176,315 C184.806564,315 193.101812,312.8108 200.371226,308.94692 L202.465994,308.239855 C211.675029,302.848567 222.396382,299.75814 233.839994,299.75814 C268.170014,299.75814 296,327.570627 296,361.87907 C296,396.187513 268.170014,424 233.839994,424 C201.542475,424 174.998114,399.383288 171.968218,367.900008 C171.989407,367.268971 172,366.635722 172,366 C172,335.072054 146.927946,310 116,310 C104.998125,310 94.7372597,313.172643 86.0824003,318.652934 C78.7200495,321.726958 70.6382455,323.423256 62.1599984,323.423256 C27.8299785,323.423256 0,295.610769 0,261.302326 C0,226.993882 27.8299785,199.181395 62.1599984,199.181395 C72.279201,199.181395 81.8336478,201.597882 90.2770705,205.884929 C92.3007918,207.260744 94.425903,208.498461 96.6379203,209.586485 C96.8994882,209.740405 97.180221,209.899256 97.4786168,210.061373 C97.5316643,210.090194 97.6597422,210.125982 97.8570738,210.167013 C104.595399,213.269647 112.095627,215 120,215 C149.271092,215 173,191.271092 173,162 C173,132.728908 149.271092,109 120,109 C109.803275,109 100.2791,111.879528 92.1962858,116.869773 C91.2982981,117.155819 90.4881524,117.462693 89.7784375,117.788679 C79.8560069,122.34624 72.0805131,124.24186 62.1599984,124.24186 C27.8299785,124.24186 0,96.4293734 0,62.1209302 C0,27.8124871 27.8299785,0 62.1599984,0 Z"/>
      <path stroke="#FFF" stroke-dasharray="3" stroke-linecap="round" d="M62,312 C89.6142375,312 112,289.614237 112,262 C112,234.385763 89.6142375,212 62,212 C34.3857625,212 12,234.385763 12,262 C12,289.614237 34.3857625,312 62,312 Z" opacity=".403"/>
      <use fill="#000" filter="url(#img-steps-b)" xlink:href="#img-steps-c"/>
      <use fill="#FFF" xlink:href="#img-steps-c"/>
      <path stroke="#FFF" stroke-dasharray="3" stroke-linecap="round" d="M234,412 C261.614237,412 284,389.614237 284,362 C284,334.385763 261.614237,312 234,312 C206.385763,312 184,334.385763 184,362 C184,389.614237 206.385763,412 234,412 Z" opacity=".403"/>
      <use fill="#000" filter="url(#img-steps-d)" xlink:href="#img-steps-e"/>
      <use fill="#FFF" xlink:href="#img-steps-e"/>
      <path fill="#5055FE" fill-rule="nonzero" d="M243.441182,344 L246.76579,347.444695 L249.184,350.127 L249.244141,350.127734 L249.244,350.194 L249.613281,350.603138 L249.613281,370.947266 C249.613281,372.782102 248.125852,374.269531 246.291016,374.269531 L246.291016,374.269531 L244.363,374.269 L244.363281,376.197266 C244.363281,377.968832 242.976665,379.416537 241.22954,379.514272 L241.041016,379.519531 L223.322266,379.519531 C221.550699,379.519531 220.102994,378.132915 220.005259,376.38579 L220,376.197266 L220,352.572266 C220,350.800699 221.386616,349.352994 223.133741,349.255259 L223.322266,349.25 L225.25,349.25 L225.25,347.322266 C225.25,345.550699 226.636616,344.102994 228.383741,344.005259 L228.572266,344 L243.441182,344 Z M225.25,349.988 L223.322266,349.988281 C221.950059,349.988281 220.827672,351.05789 220.743365,352.40885 L220.738281,352.572266 L220.738281,376.197266 C220.738281,377.569473 221.80789,378.691859 223.15885,378.776166 L223.322266,378.78125 L241.041016,378.78125 C242.413223,378.78125 243.535609,377.711641 243.619916,376.360681 L243.625,376.197266 L243.625,374.269 L228.572266,374.269531 C226.800699,374.269531 225.352994,372.882915 225.255259,371.13579 L225.25,370.947266 L225.25,349.988 Z M242.968,344.738 L228.572266,344.738141 C227.14517,344.738141 225.988281,345.89517 225.988281,347.322266 L225.988281,347.322266 L225.988281,370.947266 C225.988281,372.374361 227.14517,373.53125 228.572266,373.53125 L228.572266,373.53125 L246.291016,373.53125 C247.718111,373.53125 248.875,372.374361 248.875,370.947266 L248.875,370.947266 L248.874141,350.887141 L248.855,350.866 L243.707031,350.866016 C243.333268,350.866016 243.024376,350.58827 242.97549,350.227915 L242.96875,350.127734 L242.968,344.738 Z M243.707031,363.564453 C243.910902,363.564453 244.076172,363.729723 244.076172,363.933594 C244.076172,364.111981 243.949637,364.260814 243.781426,364.295235 L243.707031,364.302734 L230.417969,364.302734 C230.214098,364.302734 230.048828,364.137464 230.048828,363.933594 C230.048828,363.755207 230.175363,363.606374 230.343574,363.571953 L230.417969,363.564453 L243.707031,363.564453 Z M243.707031,359.873047 C243.910902,359.873047 244.076172,360.038317 244.076172,360.242188 C244.076172,360.420574 243.949637,360.569408 243.781426,360.603828 L243.707031,360.611328 L230.417969,360.611328 C230.214098,360.611328 230.048828,360.446058 230.048828,360.242188 C230.048828,360.063801 230.175363,359.914967 230.343574,359.880547 L230.417969,359.873047 L243.707031,359.873047 Z M243.707031,356.181641 C243.910902,356.181641 244.076172,356.346911 244.076172,356.550781 C244.076172,356.729168 243.949637,356.878001 243.781426,356.912422 L243.707031,356.919922 L230.417969,356.919922 C230.214098,356.919922 230.048828,356.754652 230.048828,356.550781 C230.048828,356.372394 230.175363,356.223561 230.343574,356.18914 L230.417969,356.181641 L243.707031,356.181641 Z M243.707,345.339 L243.707031,350.127734 L248.189,350.127 L246.226022,347.948234 L243.707,345.339 Z"/>
    </g>
    <g transform="translate(46 22.743)">
      <path stroke="#DBDBDB" stroke-dasharray="2" d="M89.5,13 C40.0705149,13 0,53.0705149 0,102.5" opacity=".499"/>
      <g fill="#5055FE" transform="rotate(-140 50.228 -3.74)">
        <circle cx="8.725" cy="8.791" r="6" opacity=".152" transform="rotate(45 8.725 8.791)"/>
        <circle cx="8.725" cy="8.791" r="2" transform="rotate(45 8.725 8.791)"/>
      </g>
      <path stroke="#DBDBDB" stroke-dasharray="2" d="M309.075815 280.941179C334.817327 265.223237 352 236.868232 352 204.5M344.199665 167.902397C330.209648 136.719325 298.891234 115 262.5 115M51.0810272 221.642257C36.1911869 228.729678 23.5681043 239.80885 14.5954372 253.496114 5.36695 267.573616 0 284.410049 0 302.5M32.6318561 371.613809C48.0936823 384.350778 67.9035554 392 89.5 392 106.032981 392 121.518934 387.517141 134.808656 379.700627M321.886904 469.459858C340.359403 453.064509 352 429.141658 352 402.5 352 378.944749 342.900276 357.514853 328.024412 341.533894" opacity=".499"/>
    </g>
    <g fill="#5055FE" transform="rotate(-140 235.139 93.586)">
      <circle cx="8.725" cy="8.791" r="6" opacity=".152" transform="rotate(45 8.725 8.791)"/>
      <circle cx="8.725" cy="8.791" r="2" transform="rotate(45 8.725 8.791)"/>
    </g>
    <g fill="#5055FE" transform="rotate(-140 84.96 160.138)">
      <circle cx="8.725" cy="8.791" r="6" opacity=".152" transform="rotate(45 8.725 8.791)"/>
      <circle cx="8.725" cy="8.791" r="2" transform="rotate(45 8.725 8.791)"/>
    </g>
    <g fill="#5055FE" transform="rotate(-140 166.155 174.752)">
      <circle cx="8.725" cy="8.791" r="6" opacity=".152" transform="rotate(45 8.725 8.791)"/>
      <circle cx="8.725" cy="8.791" r="2" transform="rotate(45 8.725 8.791)"/>
    </g>
    <g fill="#5055FE" transform="rotate(-140 276.352 185.039)">
      <circle cx="8.725" cy="8.791" r="6" opacity=".152" transform="rotate(45 8.725 8.791)"/>
      <circle cx="8.725" cy="8.791" r="2" transform="rotate(45 8.725 8.791)"/>
    </g>
    <g fill="#5055FE" transform="rotate(-140 182.43 18.776)">
      <circle cx="8.725" cy="8.791" r="6" opacity=".152" transform="rotate(45 8.725 8.791)"/>
      <circle cx="8.725" cy="8.791" r="2" transform="rotate(45 8.725 8.791)"/>
    </g>
    <path stroke="url(#img-steps-f)" stroke-width=".5" d="M103.106602,171 C103.106602,266.545262 133.551239,344 171.106602,344 C208.661965,344 239.106602,266.545262 239.106602,171 C239.106602,75.4547383 208.661965,-2 171.106602,-2" opacity=".499" transform="rotate(45 171.107 171)"/>
    <path stroke="url(#img-steps-f)" stroke-width=".5" d="M229,364.742641 C229,460.287902 259.444637,537.742641 297,537.742641 C334.555363,537.742641 365,460.287902 365,364.742641 C365,269.197379 334.555363,191.742641 297,191.742641" opacity=".499" transform="scale(1 -1) rotate(-45 -583.567 0)"/>
    <path stroke="#FFF" stroke-dasharray="3" stroke-linecap="round" d="M135,175.742641 C162.614237,175.742641 185,153.356878 185,125.742641 C185,98.1284032 162.614237,75.7426407 135,75.7426407 C107.385763,75.7426407 85,98.1284032 85,125.742641 C85,153.356878 107.385763,175.742641 135,175.742641 Z" opacity=".403"/>
    <use fill="#000" filter="url(#img-steps-g)" xlink:href="#img-steps-h"/>
    <use fill="#FFF" xlink:href="#img-steps-h"/>
    <path stroke="#FFF" stroke-dasharray="3" stroke-linecap="round" d="M308,275.742641 C335.614237,275.742641 358,253.356878 358,225.742641 C358,198.128403 335.614237,175.742641 308,175.742641 C280.385763,175.742641 258,198.128403 258,225.742641 C258,253.356878 280.385763,275.742641 308,275.742641 Z" opacity=".403"/>
    <use fill="#000" filter="url(#img-steps-i)" xlink:href="#img-steps-j"/>
    <use fill="#FFF" xlink:href="#img-steps-j"/>
    <g transform="translate(116 108.743)">
      <path fill="#5055FE" fill-rule="nonzero" d="M7.35574172,15.3585926 C7.94815417,20.657092 12.4449335,24.7049993 17.8199995,24.7049993 C22.9310628,24.7049993 27.2793136,21.0375696 28.1806747,16.0663658 C28.22058,15.846279 28.4313453,15.7002131 28.6514321,15.7401184 C28.871519,15.7800238 29.0175849,15.9907891 28.9776795,16.2108759 C28.584403,18.3798824 27.5821984,20.3182696 26.1630872,21.8570002 L35.3607343,33.6310094 C35.9115674,34.3360436 35.7865627,35.3541252 35.0815285,35.9049583 C34.4085413,36.4307536 33.4503187,36.3407544 32.885516,35.7182893 L32.8075795,35.6257525 L23.6488584,23.9029932 C21.9378654,24.9292303 19.9398932,25.5149993 17.8199995,25.5149993 C12.0312951,25.5149993 7.18888447,21.1559618 6.55075765,15.448596 C6.52590391,15.2263058 6.68595781,15.025956 6.90824802,15.0011023 C7.13053824,14.9762485 7.33088799,15.1363024 7.35574172,15.3585926 Z M25.5868855,22.4383807 C25.19328,22.807971 24.7735567,23.1494542 24.33102,23.4599218 L33.4458682,35.1270667 C33.7212848,35.4795838 34.2303256,35.5420862 34.5828427,35.2666696 C34.91018,35.0109257 34.9874536,34.5537404 34.7763087,34.2074881 L34.7224456,34.1296952 L25.5868855,22.4383807 Z M14.1749996,6.07499984 C15.7407268,6.07499984 17.0099995,7.34427254 17.0099995,8.90999976 C17.0099995,9.80884317 16.5916967,10.6099867 15.9391409,11.1293805 L15.9687072,11.1079215 L19.2851598,15.850266 C19.466142,15.8140164 19.6533499,15.7949996 19.8449995,15.7949996 C20.8097405,15.7949996 21.661931,16.2768855 22.1740008,17.013087 L30.1611875,13.1755758 C30.0377254,12.857529 29.9699992,12.5116735 29.9699992,12.1499997 C29.9699992,10.5842725 31.2392719,9.31499975 32.8049991,9.31499975 C34.3707264,9.31499975 35.6399991,10.5842725 35.6399991,12.1499997 C35.6399991,13.7157269 34.3707264,14.9849996 32.8049991,14.9849996 C31.8918884,14.9849996 31.0796037,14.5533119 30.561099,13.8828905 L22.537267,17.739339 C22.6298773,18.0194299 22.6799994,18.3188614 22.6799994,18.6299995 C22.6799994,20.1957267 21.4107267,21.4649994 19.8449995,21.4649994 C18.2792723,21.4649994 17.0099995,20.1957267 17.0099995,18.6299995 C17.0099995,17.5526942 17.6108969,16.6157361 18.4958081,16.1360086 L15.3048858,11.5720779 L15.6562653,11.3277171 C15.2251945,11.5923857 14.7179195,11.7449997 14.1749996,11.7449997 C13.2973271,11.7449997 12.5128064,11.3461698 11.992786,10.7198587 L5.45922209,15.1253306 C5.59509144,15.4567595 5.66999985,15.8196316 5.66999985,16.1999996 C5.66999985,17.7657268 4.40072715,19.0349995 2.83499992,19.0349995 C1.2692727,19.0349995 1.44112987e-11,17.7657268 1.44112987e-11,16.1999996 C1.44112987e-11,14.6342723 1.2692727,13.3649996 2.83499992,13.3649996 C3.7297012,13.3649996 4.52760099,13.779456 5.04718221,14.4268517 L11.5691212,10.0283641 C11.4216658,9.68523462 11.3399997,9.30715426 11.3399997,8.90999976 C11.3399997,7.34427254 12.6092724,6.07499984 14.1749996,6.07499984 Z M19.8449995,16.6049996 C18.7266229,16.6049996 17.8199995,17.5116229 17.8199995,18.6299995 C17.8199995,19.7483761 18.7266229,20.6549995 19.8449995,20.6549995 C20.9633761,20.6549995 21.8699994,19.7483761 21.8699994,18.6299995 C21.8699994,17.5116229 20.9633761,16.6049996 19.8449995,16.6049996 Z M2.83499992,14.1749996 C1.71662334,14.1749996 0.809999979,15.081623 0.809999979,16.1999996 C0.809999979,17.3183762 1.71662334,18.2249995 2.83499992,18.2249995 C3.95337651,18.2249995 4.85999987,17.3183762 4.85999987,16.1999996 C4.85999987,15.081623 3.95337651,14.1749996 2.83499992,14.1749996 Z M32.8049991,10.1249997 C31.6866225,10.1249997 30.7799992,11.0316231 30.7799992,12.1499997 C30.7799992,13.2683763 31.6866225,14.1749996 32.8049991,14.1749996 C33.9233757,14.1749996 34.8299991,13.2683763 34.8299991,12.1499997 C34.8299991,11.0316231 33.9233757,10.1249997 32.8049991,10.1249997 Z M17.8199995,2.83499992 C23.6030984,2.83499992 28.4424889,7.18580113 29.087548,12.8863485 C29.112698,13.1086054 28.9529113,13.3091683 28.7306544,13.3343183 C28.5083976,13.3594683 28.3078346,13.1996816 28.2826846,12.9774248 C27.6838371,7.68526087 23.1898601,3.6449999 17.8199995,3.6449999 C12.8044746,3.6449999 8.51308862,7.17855329 7.50885958,12.0284997 C7.46350741,12.247529 7.2491839,12.3883221 7.03015461,12.34297 C6.81112532,12.2976178 6.6703322,12.0832943 6.71568436,11.864265 C7.79740544,6.64006904 12.4185385,2.83499992 17.8199995,2.83499992 Z M14.1749996,6.88499982 C13.056623,6.88499982 12.1499997,7.79162318 12.1499997,8.90999976 C12.1499997,10.0283764 13.056623,10.9349997 14.1749996,10.9349997 C15.2933762,10.9349997 16.1999996,10.0283764 16.1999996,8.90999976 C16.1999996,7.79162318 15.2933762,6.88499982 14.1749996,6.88499982 Z"/>
      <path stroke="#5055FE" stroke-linecap="round" stroke-width=".81" d="M30.9690131,8.87023142 C28.8689012,3.66964442 23.772996,0 17.8199995,0 C10.5271729,0 4.52066222,5.5073732 3.73262606,12.589961 M4.69038977,19.5275658 C6.8023581,24.7028255 11.8852573,28.3499992 17.8199995,28.3499992 C20.3846025,28.3499992 22.7901326,27.6689273 24.8655867,26.4777864 M28.4243842,23.5814904 C30.3008837,21.467574 31.5549275,18.7886526 31.8991724,15.8320696"/>
    </g>
    <path fill="#5055FE" fill-rule="nonzero" d="M291 239.742641L291 207.780277 312.432746 207.780277C312.525567 207.780277 312.611806 207.808956 312.683371 207.858081 312.712609 207.87112 312.74167 207.887585 312.769254 207.907685 312.970738 208.05451 313.017105 208.33974 312.872817 208.544766 312.656431 208.852238 312.538462 209.219838 312.538462 209.606697 312.538462 210.615402 313.342053 211.433118 314.333333 211.433118 315.324614 211.433118 316.128205 210.615402 316.128205 209.606697 316.128205 209.192261 315.992708 208.800066 315.746871 208.480985 315.593969 208.282529 315.628119 207.995518 315.823147 207.839929 315.957383 207.732839 316.132847 207.71592 316.279049 207.78049L316.311592 207.780277 322.410256 207.780277 322.409784 228.940279C322.694458 228.837857 322.997267 228.784116 323.307692 228.784116 324.794613 228.784116 326 230.010691 326 231.523747 326 233.036804 324.794613 234.263378 323.307692 234.263378 322.997466 234.263378 322.694746 234.209718 322.410012 234.107297L322.410256 239.742641 291 239.742641zM306.285 223.775641L301.199058 223.775288C301.300308 224.058499 301.353419 224.359572 301.353419 224.668171 301.353419 226.155091 300.126844 227.360478 298.613788 227.360478 297.100731 227.360478 295.874156 226.155091 295.874156 224.668171 295.874156 224.377901 295.921135 224.094202 296.011079 223.82566L291.897 223.825641 291.897436 238.82943 306.285 238.828641 306.285214 233.392975C306.285214 233.140799 306.486686 232.936369 306.735214 232.936369 306.795571 232.936369 306.853152 232.948427 306.905746 232.970297 306.952326 232.982566 306.99784 233.003622 307.040163 233.033051 307.335848 233.238658 307.684798 233.350168 308.051282 233.350168 309.042562 233.350168 309.846154 232.532451 309.846154 231.523747 309.846154 230.515043 309.042562 229.697326 308.051282 229.697326 307.666838 229.697326 307.301765 229.820095 306.997681 230.044908L306.962337 230.069771C306.950591 230.076753 306.938505 230.08321 306.926111 230.08911L306.997681 230.044908C306.97083 230.064759 306.942541 230.081141 306.913332 230.094136 306.891764 230.104429 306.868645 230.112424 306.844771 230.118484 306.840742 230.119131 306.836714 230.120113 306.832678 230.121037 306.813048 230.125766 306.793052 230.128848 306.772672 230.130552 306.762394 230.131373 306.752011 230.131911 306.741634 230.132083L306.735214 230.132111 306.676624 230.128373C306.671976 230.127763 306.667338 230.12708 306.662712 230.126323L306.735214 230.132111C306.686889 230.132111 306.640343 230.124382 306.596712 230.110076 306.582015 230.105496 306.567145 230.099771 306.552576 230.093239 306.51088 230.074106 306.472677 230.049162 306.438928 230.019182 306.428961 230.010835 306.419306 230.001453 306.410014 229.991567 306.399129 229.979544 306.389119 229.967766 306.379713 229.955487 306.37677 229.95196 306.373814 229.947957 306.370911 229.943892L306.35873 229.925714C306.348984 229.910647 306.340094 229.89496 306.332128 229.878724L306.370911 229.943892C306.350132 229.91479 306.333222 229.884029 306.320081 229.852244 306.314097 229.837614 306.308689 229.82236 306.304081 229.806755 306.299723 229.792127 306.296239 229.777715 306.293461 229.763217 306.29321 229.761673 306.29283 229.75963 306.292464 229.757581L306.28742 229.72147C306.286106 229.708135 306.285373 229.69477 306.285215 229.681418L306.285214 229.675506 306.285 223.775641zM312.182292 223.775488L307.185 223.775641 307.185447 228.928972C307.460749 228.833906 307.752488 228.784116 308.051282 228.784116 309.538203 228.784116 310.74359 230.010691 310.74359 231.523747 310.74359 233.036804 309.538203 234.263378 308.051282 234.263378 307.752304 234.263378 307.460298 234.213539 307.184644 234.118245L307.185 238.828641 321.512821 238.82943 321.512821 233.489178C321.512821 233.337962 321.585059 233.203914 321.696335 233.120818L321.672928 233.152427C321.812748 232.94422 322.091963 232.890774 322.296573 233.033051 322.592258 233.238658 322.941209 233.350168 323.307692 233.350168 324.298973 233.350168 325.102564 232.532451 325.102564 231.523747 325.102564 230.515043 324.298973 229.697326 323.307692 229.697326 322.923248 229.697326 322.558175 229.820095 322.254092 230.044908 322.053601 230.193133 321.772986 230.147907 321.627321 229.943892 321.584491 229.883905 321.558097 229.816868 321.547273 229.748347 321.535522 229.718253 321.526003 229.686141 321.52005 229.652765L321.512821 229.57069 321.512 223.825641 317.370371 223.825747C317.460253 224.094155 317.507265 224.377832 317.507265 224.668171 317.507265 226.155091 316.28069 227.360478 314.767634 227.360478 313.254577 227.360478 312.028002 226.155091 312.028002 224.668171 312.028002 224.359759 312.081037 224.058765 312.182292 223.775488zM311.794764 208.692221L307.185 208.692641 307.185214 213.118188C307.185214 213.217368 307.154049 213.309163 307.101115 213.38404 307.087416 213.42641 307.066733 213.467702 307.039313 213.506105 306.893648 213.710119 306.613034 213.755346 306.412543 213.60712 306.10846 213.382308 305.743387 213.259539 305.358943 213.259539 304.367662 213.259539 303.564071 214.077256 303.564071 215.08596 303.564071 216.094664 304.367662 216.912381 305.358943 216.912381 305.725426 216.912381 306.074377 216.800871 306.370062 216.595264 306.574672 216.452987 306.853887 216.506433 306.993707 216.714639L306.951772 216.66319C307.06832 216.728235 307.153401 216.844154 307.177964 216.981467L307.185214 217.063542 307.185 222.862641 312.794152 222.862903C312.939144 222.862903 313.068074 222.932881 313.150105 223.041456L313.138954 223.033407C313.347161 223.173226 313.400607 223.452441 313.25833 223.657052 313.052723 223.952736 312.941213 224.301687 312.941213 224.668171 312.941213 225.659451 313.758929 226.463042 314.767634 226.463042 315.776338 226.463042 316.594054 225.659451 316.594054 224.668171 316.594054 224.342542 316.505977 224.030811 316.342415 223.758267 316.213292 223.677531 316.128205 223.533639 316.128205 223.369524 316.128205 223.150529 316.279713 222.967543 316.481887 222.92318 316.556828 222.899136 316.635623 222.896256 316.710622 222.911865L321.512 222.912641 321.512821 208.693487 316.872123 208.692858C316.972744 208.982421 317.025641 209.290614 317.025641 209.606697 317.025641 211.119754 315.820254 212.346329 314.333333 212.346329 312.846413 212.346329 311.641026 211.119754 311.641026 209.606697 311.641026 209.290559 311.693922 208.982158 311.794764 208.692221zM306.285 208.692641L291.897436 208.693487 291.897 222.912641 296.572713 222.912919C296.641945 222.912919 296.707516 222.928873 296.766067 222.957367 296.841623 222.962796 296.917382 222.987925 296.985108 223.033407 297.193314 223.173226 297.246761 223.452441 297.104484 223.657052 296.898877 223.952736 296.787367 224.301687 296.787367 224.668171 296.787367 225.659451 297.605083 226.463042 298.613788 226.463042 299.622492 226.463042 300.440208 225.659451 300.440208 224.668171 300.440208 224.291103 300.322106 223.932672 300.105457 223.632143 300.027843 223.550967 299.981401 223.440757 299.981401 223.319508 299.981401 223.095352 300.140135 222.908921 300.349461 222.87026L300.430118 222.862903 306.285 222.862641 306.28621 217.658667C306.055559 217.744753 305.81276 217.79867 305.563458 217.817778L305.358943 217.825591C303.872022 217.825591 302.666635 216.599016 302.666635 215.08596 302.666635 213.572903 303.872022 212.346329 305.358943 212.346329 305.679959 212.346329 305.99283 212.4038 306.285924 212.513144L306.285 208.692641zM138.709677 306.742641C139.457934 306.742641 140.064516 307.348694 140.064516 308.096299L140.064516 308.096299 140.064 308.546641 147.741935 308.547519C148.936662 308.547519 149.918546 309.456869 149.995185 310.611747L150 310.757337 150 341.532822C150 342.707008 149.065905 343.663326 147.890118 343.737953L147.741935 343.742641 124.258065 343.742641C123.063338 343.742641 122.081454 342.83329 122.004815 341.678412L122 341.532822 122 310.757337C122 309.583152 122.934095 308.626834 124.109882 308.552207L124.258065 308.547519 131.935 308.546641 131.935484 308.096299C131.935484 307.392671 132.472802 306.814431 133.159843 306.748837L133.290323 306.742641zM131.935 309.449641L124.258065 309.449958C123.551387 309.449958 122.974792 309.970811 122.909403 310.631844L122.903226 310.757337 122.903226 341.532822C122.903226 342.20989 123.438252 342.770571 124.12718 342.834191L124.258065 342.840202 147.741935 342.840202C148.448613 342.840202 149.025208 342.319348 149.090597 341.658315L149.096774 341.532822 149.096774 310.757337C149.096774 310.080269 148.561748 309.519588 147.87282 309.455969L147.741935 309.449958 140.064 309.449641 140.064516 313.510933C140.064516 313.732446 139.904758 313.916678 139.694081 313.954883L139.612903 313.962153 132.387097 313.962153C132.137678 313.962153 131.935484 313.760135 131.935484 313.510933L131.935484 313.510933 131.935 309.449641zM147.884388 340.584104C148.133807 340.584104 148.336001 340.786122 148.336001 341.035324 148.336001 341.256836 148.176242 341.441068 147.965566 341.479273L147.884388 341.486543 124.258065 341.486543C124.008646 341.486543 123.806452 341.284525 123.806452 341.035324 123.806452 340.813811 123.96621 340.629579 124.176887 340.591374L124.258065 340.584104 147.884388 340.584104zM132.706147 332.142805C132.863058 332.299297 132.880696 332.54242 132.758923 332.718387L132.706723 332.780926 129.528894 335.961715C129.365623 336.125138 129.10987 336.136433 128.933729 336.000571L128.871744 335.942734 127.725732 334.654731C127.560017 334.468484 127.576794 334.18328 127.763203 334.01771 127.9289 333.870536 128.172854 333.867427 128.341407 333.99936L128.40078 334.055148 129.227613 334.98447 132.067471 332.14338C132.243677 331.967009 132.529623 331.966752 132.706147 332.142805zM144.622322 333.439722C144.871741 333.439722 145.073935 333.64174 145.073935 333.890941 145.073935 334.112454 144.914177 334.296685 144.7035 334.334891L144.622322 334.342161 136 334.342161C135.750581 334.342161 135.548387 334.140143 135.548387 333.890941 135.548387 333.669429 135.708145 333.485197 135.918822 333.446991L136 333.439722 144.622322 333.439722zM132.706147 324.923293C132.863058 325.079785 132.880696 325.322908 132.758923 325.498874L132.706723 325.561413 129.528894 328.742202C129.365623 328.905626 129.10987 328.916921 128.933729 328.781058L128.871744 328.723222 127.725732 327.435219C127.560017 327.248972 127.576794 326.963768 127.763203 326.798197 127.9289 326.651024 128.172854 326.647915 128.341407 326.779848L128.40078 326.835635 129.227613 327.764958 132.067471 324.923868C132.243677 324.747497 132.529623 324.74724 132.706147 324.923293zM144.622322 326.22021C144.871741 326.22021 145.073935 326.422227 145.073935 326.671429 145.073935 326.892942 144.914177 327.077173 144.7035 327.115379L144.622322 327.122649 136 327.122649C135.750581 327.122649 135.548387 326.920631 135.548387 326.671429 135.548387 326.449916 135.708145 326.265685 135.918822 326.227479L136 326.22021 144.622322 326.22021zM132.706147 318.07987C132.863058 318.236362 132.880696 318.479486 132.758923 318.655452L132.706723 318.717991 129.528894 321.89878C129.365623 322.062203 129.10987 322.073498 128.933729 321.937636L128.871744 321.879799 127.725732 320.591797C127.560017 320.40555 127.576794 320.120345 127.763203 319.954775 127.9289 319.807601 128.172854 319.804492 128.341407 319.936425L128.40078 319.992213 129.227613 320.921763 132.067471 318.080446C132.243677 317.904075 132.529623 317.903817 132.706147 318.07987zM144.622322 319.376787C144.871741 319.376787 145.073935 319.578805 145.073935 319.828007 145.073935 320.049519 144.914177 320.233751 144.7035 320.271956L144.622322 320.279226 136 320.279226C135.750581 320.279226 135.548387 320.077208 135.548387 319.828007 135.548387 319.606494 135.708145 319.422262 135.918822 319.384057L136 319.376787 144.622322 319.376787zM147.886813 312.522348C148.136232 312.522348 148.338426 312.724366 148.338426 312.973568 148.338426 313.195081 148.178668 313.379312 147.967991 313.417518L147.886813 313.424787 142.322581 313.424787C142.073162 313.424787 141.870968 313.22277 141.870968 312.973568 141.870968 312.752055 142.030726 312.567824 142.241403 312.529618L142.322581 312.522348 147.886813 312.522348zM138.709677 307.64508L133.290323 307.64508C133.040904 307.64508 132.83871 307.847098 132.83871 308.096299L132.83871 308.096299 132.83871 313.059714 139.16129 313.059714 139.16129 308.096299C139.16129 307.874787 139.001532 307.690555 138.790855 307.652349L138.790855 307.652349 138.709677 307.64508zM129.822297 312.157275C130.071716 312.157275 130.27391 312.359293 130.27391 312.608494 130.27391 312.830007 130.114152 313.014238 129.903475 313.052444L129.822297 313.059714 124.258065 313.059714C124.008646 313.059714 123.806452 312.857696 123.806452 312.608494 123.806452 312.386982 123.96621 312.20275 124.176887 312.164545L124.258065 312.157275 129.822297 312.157275zM136 308.998738C136.498838 308.998738 136.903226 309.402774 136.903226 309.901177 136.903226 310.399581 136.498838 310.803616 136 310.803616 135.501162 310.803616 135.096774 310.399581 135.096774 309.901177 135.096774 309.402774 135.501162 308.998738 136 308.998738z"/>
  </g>
</svg>
