<svg xmlns="http://www.w3.org/2000/svg" xmlns:xlink="http://www.w3.org/1999/xlink" width="372" height="436" viewBox="0 0 372 436">
  <defs>
    <linearGradient id="img-stages-a" x1="78.268%" x2="21.732%" y1="55.452%" y2="59.645%">
      <stop offset="0%" stop-color="#1E85E9" stop-opacity=".3"/>
      <stop offset="20.276%" stop-color="#8671F3" stop-opacity=".397"/>
      <stop offset="70.727%" stop-color="#C06CFD" stop-opacity=".4"/>
      <stop offset="100%" stop-color="#FFBEE8" stop-opacity=".3"/>
    </linearGradient>
    <linearGradient id="img-stages-b" x1="78.125%" x2="21.875%" y1="55.452%" y2="59.645%">
      <stop offset="0%" stop-color="#1E85E9" stop-opacity=".3"/>
      <stop offset="20.276%" stop-color="#8671F3" stop-opacity=".397"/>
      <stop offset="70.727%" stop-color="#C06CFD" stop-opacity=".4"/>
      <stop offset="100%" stop-color="#FFBEE8" stop-opacity=".3"/>
    </linearGradient>
    <linearGradient id="img-stages-c" x1="34.573%" x2="-14.868%" y1="30.518%" y2="30.518%">
      <stop offset="0%" stop-color="#E3E0E0"/>
      <stop offset="100%" stop-color="#FFF" stop-opacity="0"/>
    </linearGradient>
    <linearGradient id="img-stages-d" x1="34.573%" x2="-14.868%" y1="30.518%" y2="30.518%">
      <stop offset="0%" stop-color="#E3E0E0"/>
      <stop offset="100%" stop-color="#FFF" stop-opacity="0"/>
    </linearGradient>
    <linearGradient id="img-stages-e" x1="34.573%" x2="-14.868%" y1="30.518%" y2="30.518%">
      <stop offset="0%" stop-color="#E3E0E0"/>
      <stop offset="100%" stop-color="#FFF" stop-opacity="0"/>
    </linearGradient>
    <linearGradient id="img-stages-f" x1="34.573%" x2="-14.868%" y1="30.518%" y2="30.518%">
      <stop offset="0%" stop-color="#E3E0E0"/>
      <stop offset="100%" stop-color="#FFF" stop-opacity="0"/>
    </linearGradient>
    <linearGradient id="img-stages-g" x1="310.067%" x2="0%" y1="59.645%" y2="59.645%">
      <stop offset="0%" stop-color="#1E85E9" stop-opacity=".3"/>
      <stop offset="20.276%" stop-color="#8671F3" stop-opacity=".397"/>
      <stop offset="70.727%" stop-color="#C06CFD" stop-opacity=".4"/>
      <stop offset="100%" stop-color="#FFBEE8" stop-opacity=".3"/>
    </linearGradient>
    <linearGradient id="img-stages-h" x1="57.5%" x2="42.5%" y1="100%" y2="0%">
      <stop offset="0%" stop-color="#1E85E9" stop-opacity=".3"/>
      <stop offset="20.276%" stop-color="#8671F3" stop-opacity=".397"/>
      <stop offset="70.727%" stop-color="#C06CFD" stop-opacity=".4"/>
      <stop offset="100%" stop-color="#FFBEE8" stop-opacity=".3"/>
    </linearGradient>
    <circle id="img-stages-j" cx="267" cy="67" r="34"/>
    <filter id="img-stages-i" width="150%" height="150%" x="-25%" y="-19.1%" filterUnits="objectBoundingBox">
      <feOffset dy="4" in="SourceAlpha" result="shadowOffsetOuter1"/>
      <feGaussianBlur in="shadowOffsetOuter1" result="shadowBlurOuter1" stdDeviation="5"/>
      <feColorMatrix in="shadowBlurOuter1" values="0 0 0 0 0.0415817482   0 0 0 0 0.0415817482   0 0 0 0 0.0415817482  0 0 0 0.1 0"/>
    </filter>
    <linearGradient id="img-stages-k" x1="87.521%" x2="12.479%" y1="100%" y2="0%">
      <stop offset="0%" stop-color="#1E85E9"/>
      <stop offset="20.276%" stop-color="#8671F3"/>
      <stop offset="70.727%" stop-color="#C06CFD"/>
      <stop offset="100%" stop-color="#FFBEE8"/>
    </linearGradient>
    <circle id="img-stages-m" cx="318" cy="162" r="34"/>
    <filter id="img-stages-l" width="150%" height="150%" x="-25%" y="-19.1%" filterUnits="objectBoundingBox">
      <feOffset dy="4" in="SourceAlpha" result="shadowOffsetOuter1"/>
      <feGaussianBlur in="shadowOffsetOuter1" result="shadowBlurOuter1" stdDeviation="5"/>
      <feColorMatrix in="shadowBlurOuter1" values="0 0 0 0 0.0415817482   0 0 0 0 0.0415817482   0 0 0 0 0.0415817482  0 0 0 0.1 0"/>
    </filter>
    <linearGradient id="img-stages-n" x1="100%" x2="0%" y1="97.102%" y2="2.898%">
      <stop offset="0%" stop-color="#1E85E9"/>
      <stop offset="20.276%" stop-color="#8671F3"/>
      <stop offset="70.727%" stop-color="#C06CFD" stop-opacity=".99"/>
      <stop offset="100%" stop-color="#FFBEE8"/>
    </linearGradient>
    <circle id="img-stages-p" cx="318" cy="274" r="34"/>
    <filter id="img-stages-o" width="150%" height="150%" x="-25%" y="-19.1%" filterUnits="objectBoundingBox">
      <feOffset dy="4" in="SourceAlpha" result="shadowOffsetOuter1"/>
      <feGaussianBlur in="shadowOffsetOuter1" result="shadowBlurOuter1" stdDeviation="5"/>
      <feColorMatrix in="shadowBlurOuter1" values="0 0 0 0 0.0415817482   0 0 0 0 0.0415817482   0 0 0 0 0.0415817482  0 0 0 0.1 0"/>
    </filter>
    <linearGradient id="img-stages-q" x1="100%" x2="0%" y1="84.722%" y2="15.278%">
      <stop offset="0%" stop-color="#1E85E9"/>
      <stop offset="20.276%" stop-color="#8671F3"/>
      <stop offset="70.727%" stop-color="#C06CFD" stop-opacity=".99"/>
      <stop offset="100%" stop-color="#FFBEE8"/>
    </linearGradient>
    <circle id="img-stages-s" cx="266" cy="371" r="34"/>
    <filter id="img-stages-r" width="150%" height="150%" x="-25%" y="-19.1%" filterUnits="objectBoundingBox">
      <feOffset dy="4" in="SourceAlpha" result="shadowOffsetOuter1"/>
      <feGaussianBlur in="shadowOffsetOuter1" result="shadowBlurOuter1" stdDeviation="5"/>
      <feColorMatrix in="shadowBlurOuter1" values="0 0 0 0 0.0415817482   0 0 0 0 0.0415817482   0 0 0 0 0.0415817482  0 0 0 0.1 0"/>
    </filter>
    <linearGradient id="img-stages-t" x1="77.244%" x2="21.026%" y1="97.147%" y2="2.5%">
      <stop offset="0%" stop-color="#1E85E9"/>
      <stop offset="20.276%" stop-color="#8671F3"/>
      <stop offset="70.727%" stop-color="#C06CFD" stop-opacity=".99"/>
      <stop offset="100%" stop-color="#FFBEE8"/>
    </linearGradient>
    <linearGradient id="img-stages-u" x1="78.901%" x2="-263.562%" y1="461.438%" y2="10.296%">
      <stop offset="0%" stop-color="#1E85E9"/>
      <stop offset="20.276%" stop-color="#8671F3"/>
      <stop offset="70.727%" stop-color="#C06CFD" stop-opacity=".99"/>
      <stop offset="100%" stop-color="#FFBEE8"/>
    </linearGradient>
    <linearGradient id="img-stages-v" x1="132.697%" x2="-28.711%" y1="57.071%" y2="44.895%">
      <stop offset="0%" stop-color="#1E85E9"/>
      <stop offset="20.276%" stop-color="#8671F3"/>
      <stop offset="70.727%" stop-color="#C06CFD" stop-opacity=".99"/>
      <stop offset="100%" stop-color="#FFBEE8"/>
    </linearGradient>
    <linearGradient id="img-stages-w" x1="131.203%" x2="-26.29%" y1="55.49%" y2="43.359%">
      <stop offset="0%" stop-color="#1E85E9"/>
      <stop offset="20.276%" stop-color="#8671F3"/>
      <stop offset="70.727%" stop-color="#C06CFD" stop-opacity=".99"/>
      <stop offset="100%" stop-color="#FFBEE8"/>
    </linearGradient>
    <linearGradient id="img-stages-x" x1="100%" x2="-23.516%" y1="52.754%" y2="41.907%">
      <stop offset="0%" stop-color="#1E85E9"/>
      <stop offset="20.276%" stop-color="#8671F3"/>
      <stop offset="70.727%" stop-color="#C06CFD" stop-opacity=".99"/>
      <stop offset="100%" stop-color="#FFBEE8"/>
    </linearGradient>
  </defs>
  <g fill="none" fill-rule="evenodd" transform="translate(0 1)">
    <path stroke="url(#img-stages-a)" stroke-width=".891" d="M0.672669834,404.488239 C32.776739,423.249067 70.132862,434 110,434 C229.845791,434 327,336.845791 327,217 C327,97.1542093 229.845791,0 110,0 C75.5493901,0 42.973831,8.02804651 14.0420494,22.3154128" opacity=".569"/>
    <path stroke="url(#img-stages-b)" stroke-width=".891" d="M53.8363349,320.680132 C71.5447274,331.054783 92.1501181,337 114.140568,337 C180.246715,337 233.836335,283.27417 233.836335,217 C233.836335,150.72583 180.246715,97 114.140568,97 C95.1378393,97 77.169376,101.439473 61.2107964,109.34032" opacity=".569"/>
    <line x1="112.645" x2="226.256" y1="217" y2="106.759" stroke="url(#img-stages-c)" stroke-dasharray="2" stroke-width=".891" opacity=".7"/>
    <line x1="112.645" x2="264.65" y1="217" y2="180" stroke="url(#img-stages-d)" stroke-dasharray="2" stroke-width=".891" opacity=".7"/>
    <line x1="112.645" x2="259.962" y1="217" y2="259" stroke="url(#img-stages-e)" stroke-dasharray="2" stroke-width=".891" opacity=".7"/>
    <line x1="112.645" x2="226.256" y1="217" y2="331.209" stroke="url(#img-stages-f)" stroke-dasharray="2" stroke-width=".891" opacity=".7"/>
    <ellipse cx="199.568" cy="132.57" fill="#5055FE" rx="3.065" ry="3.065" transform="rotate(51 199.568 132.57)"/>
    <ellipse cx="199.568" cy="132.57" fill="#5055FE" opacity=".2" rx="6.568" ry="6.57"/>
    <ellipse cx="230.568" cy="188.57" fill="#5055FE" rx="3.065" ry="3.065" transform="rotate(51 230.568 188.57)"/>
    <ellipse cx="230.568" cy="188.57" fill="#5055FE" opacity=".2" rx="6.568" ry="6.57"/>
    <ellipse cx="229.568" cy="250.57" fill="#5055FE" rx="3.065" ry="3.065" transform="rotate(51 229.568 250.57)"/>
    <ellipse cx="229.568" cy="250.57" fill="#5055FE" opacity=".2" rx="6.568" ry="6.57"/>
    <ellipse cx="197.568" cy="302.57" fill="#5055FE" rx="3.065" ry="3.065" transform="rotate(51 197.568 302.57)"/>
    <ellipse cx="197.568" cy="302.57" fill="#5055FE" opacity=".2" rx="6.568" ry="6.57"/>
    <path fill="url(#img-stages-g)" fill-rule="nonzero" d="M112.947887,158 C145.479615,158 171.836335,184.423712 171.836335,217 C171.836335,249.576288 145.479615,276 112.947887,276 C102.623909,276 92.6566913,273.321743 83.8653113,268.311783 L83.2538773,267.958472 L98.4187926,242.073625 C102.79001,244.634549 107.751955,246 112.947887,246 C128.894,246 141.836335,233.02477 141.836335,217 C141.836335,200.97523 128.894,188 112.947887,188 C108.642529,188 104.498544,188.936472 100.709994,190.719184 L100.195595,190.967518 L86.8850129,164.08205 C94.9264699,160.100848 103.803006,158 112.947887,158 Z"/>
    <path fill="url(#img-stages-h)" d="M287.308821,19.2295456 C308.405063,28.1843691 320.585668,49.3778008 319.171567,71.1309408 L319.313661,71.055133 C317.050663,89.0430169 325.204314,107.05463 340.556276,117.098254 C342.769372,118.125324 344.87746,119.291322 346.875786,120.580171 C347.277605,120.765723 347.684073,120.944887 348.094233,121.118989 L348.49561,121.285499 L348.183237,121.451632 C355.124896,126.23135 360.658854,132.528223 364.524475,139.691709 C374.071803,156.777679 373.123874,177.651382 362.751041,193.796716 L362.912071,193.799302 C352.21211,208.434737 350.61125,228.141017 359.169133,244.368147 C360.606817,246.339373 361.885305,248.381199 363.008234,250.477259 C363.269716,250.834353 363.53836,251.188112 363.812688,251.539235 L364.083014,251.879459 L363.729264,251.873321 C369.846159,264.168541 370.741428,278.174802 366.793308,290.884055 C363.477982,302.326876 356.337601,312.559477 346.187525,319.548368 L346.187525,319.548368 L346.499898,319.714501 L346.098521,319.881011 C345.688361,320.055113 345.281894,320.234277 344.880074,320.419829 C342.881748,321.708678 340.77366,322.874676 338.560564,323.901746 C323.208602,333.94537 315.054952,351.956983 317.317949,369.944867 L317.317949,369.944867 L317.175856,369.869059 C318.589956,391.622199 306.409351,412.815631 285.313109,421.770454 C258.584248,433.116183 227.664973,420.519126 216.252974,393.634142 C204.840975,366.749157 217.257744,335.75704 243.986605,324.411312 L243.986605,324.411312 L244.101498,324.364491 C259.184624,316.229316 266.995149,299.172689 263.707901,282.670715 L263.707901,282.670715 L263.999028,282.118852 C262.36987,268.718164 265.966988,255.330289 273.700513,244.675532 L273.712318,244.140328 C284.587726,231.301065 286.025704,212.596386 276.777715,198.168757 L276.699927,198.072105 C269.008814,188.227929 265.397554,176.487591 265.611929,164.872831 C265.624787,162.882032 265.751523,160.881733 265.99474,158.881148 L265.703613,158.329285 C268.99086,141.827311 261.180336,124.770684 246.097209,116.635509 L245.982317,116.588688 C219.253456,105.24296 206.836686,74.2508432 218.248685,47.3658585 C229.660684,20.4808737 260.57996,7.88381736 287.308821,19.2295456 Z M293.558062,360.820078 C286.741499,344.761262 268.272939,337.236845 252.307378,344.013824 C236.341817,350.790803 228.925088,369.302872 235.741651,385.361689 C242.558215,401.420505 261.026775,408.944921 276.992336,402.167943 C292.957897,395.390964 300.374626,376.878894 293.558062,360.820078 Z M345.159102,263.685464 C338.342539,247.626648 319.873978,240.102231 303.908417,246.87921 C296.791546,249.900142 291.373375,255.252901 288.157409,261.680744 C282.976042,272.183082 283.862412,285.132082 291.520416,294.93388 C302.198665,308.601417 321.999542,310.97415 335.746911,300.233528 C340.931633,296.182779 344.514861,290.845343 346.394302,285.034739 C348.400536,278.244264 348.148861,270.728895 345.159102,263.685464 Z M299.038057,140.766472 C290.378353,147.532174 286.186313,157.88733 286.938564,168.0414 C287.962062,179.211464 294.903988,189.451508 305.904128,194.12079 C321.86969,200.897769 340.33825,193.373352 347.154813,177.314536 C350.730425,168.890924 350.389744,159.792299 346.953207,152.066455 C345.973708,149.975702 344.745805,147.962037 343.264553,146.06612 C332.586303,132.398583 312.785426,130.02585 299.038057,140.766472 Z M237.737363,55.6383115 C230.9208,71.6971278 238.337528,90.2091973 254.303089,96.9861759 C270.26865,103.763155 288.737211,96.2387383 295.553774,80.1799219 C302.370337,64.1211055 294.953609,45.609036 278.988048,38.8320574 C263.022487,32.0550788 244.553926,39.5794951 237.737363,55.6383115 Z" opacity=".7"/>
    <use fill="#000" filter="url(#img-stages-i)" xlink:href="#img-stages-j"/>
    <use fill="#FFF" xlink:href="#img-stages-j"/>
    <path fill="url(#img-stages-k)" fill-rule="nonzero" d="M282.724138,62.362069 C283.00028,62.362069 283.224138,62.5859266 283.224138,62.862069 C283.224138,72.6603622 275.281052,80.6034483 265.482759,80.6034483 C261.841034,80.6034483 258.363026,79.5032291 255.429296,77.4819631 L258.241672,84.6777137 C258.330996,84.9063439 258.240538,85.1608609 258.038688,85.2851746 L257.957906,85.3253842 C257.729276,85.4147082 257.474759,85.3242508 257.350445,85.1224003 L257.310235,85.0416184 L254.096267,76.8152714 C253.991326,76.5466685 254.134952,76.2528644 254.395648,76.1616195 L254.486702,76.1390191 L263.217911,74.8092238 C263.490905,74.7676458 263.745917,74.9552457 263.787495,75.22824 C263.824453,75.4709016 263.680332,75.6993543 263.456117,75.7763274 L263.368479,75.7978235 L256.315597,76.8729053 C259.015331,78.6433714 262.176471,79.6034483 265.482759,79.6034483 C274.728767,79.6034483 282.224138,72.1080774 282.224138,62.862069 C282.224138,62.5859266 282.447996,62.362069 282.724138,62.362069 Z M276.373693,47.8212773 L276.413903,47.9020592 L279.627871,56.1284063 C279.732812,56.3970091 279.589186,56.6908133 279.32849,56.7820582 L279.237436,56.8046585 L270.506227,58.1344538 C270.233232,58.1760319 269.978221,57.9884319 269.936643,57.7154377 C269.899685,57.4727761 270.043806,57.2443233 270.268021,57.1673503 L270.355659,57.1458541 L277.408775,56.0709257 C274.708989,54.3003616 271.547763,53.3402294 268.241379,53.3402294 C258.995371,53.3402294 251.5,60.8356002 251.5,70.0816087 C251.5,70.3577511 251.276142,70.5816087 251,70.5816087 C250.723858,70.5816087 250.5,70.3577511 250.5,70.0816087 C250.5,60.2833154 258.443086,52.3402294 268.241379,52.3402294 C271.883104,52.3402294 275.361112,53.4404486 278.294842,55.4617145 L275.482466,48.2659639 C275.393142,48.0373337 275.4836,47.7828167 275.68545,47.658503 L275.766232,47.6182935 C275.994862,47.5289695 276.249379,47.6194268 276.373693,47.8212773 Z"/>
    <use fill="#000" filter="url(#img-stages-l)" xlink:href="#img-stages-m"/>
    <use fill="#FFF" xlink:href="#img-stages-m"/>
    <path fill="url(#img-stages-n)" fill-rule="nonzero" d="M304,145.5 C305.763253,145.5 307.221969,146.803878 307.464563,148.50005 L326,148.5 C330.134197,148.5 333.5,151.625388 333.5,155.5 C333.5,159.297119 330.267483,162.374685 326.247109,162.496269 L326,162.5 L309.5,162.5 L309.261202,162.50397 C305.774657,162.620075 303,165.268356 303,168.5 C303,171.80509 305.902211,174.5 309.5,174.5 L309.5,174.5 L327.535437,174.50005 C327.778031,172.803878 329.236747,171.5 331,171.5 C332.932997,171.5 334.5,173.067003 334.5,175 C334.5,176.932997 332.932997,178.5 331,178.5 C329.237093,178.5 327.778604,177.196634 327.53558,175.50095 L308.572266,175.5 L308.572598,175.446972 C304.874025,175.021006 302,172.08038 302,168.5 C302,164.782605 305.098202,161.754866 309.00072,161.515278 L309,161.5 L326,161.5 C329.597789,161.5 332.5,158.80509 332.5,155.5 C332.5,152.268356 329.725343,149.620075 326.238798,149.50397 L326,149.5 L307.46442,149.50095 C307.221396,151.196634 305.762907,152.5 304,152.5 C302.067003,152.5 300.5,150.932997 300.5,149 C300.5,147.067003 302.067003,145.5 304,145.5 Z M331,172.5 C329.619288,172.5 328.5,173.619288 328.5,175 C328.5,176.380712 329.619288,177.5 331,177.5 C332.380712,177.5 333.5,176.380712 333.5,175 C333.5,173.619288 332.380712,172.5 331,172.5 Z M304,146.5 C302.619288,146.5 301.5,147.619288 301.5,149 C301.5,150.380712 302.619288,151.5 304,151.5 C305.380712,151.5 306.5,150.380712 306.5,149 C306.5,147.619288 305.380712,146.5 304,146.5 Z"/>
    <use fill="#000" filter="url(#img-stages-o)" xlink:href="#img-stages-p"/>
    <use fill="#FFF" xlink:href="#img-stages-p"/>
    <path fill="url(#img-stages-q)" fill-rule="nonzero" d="M333.5,259 C334.880712,259 336,259.93274 336,261.083333 L336,261.083333 L336,286.916667 C336,288.06726 334.880712,289 333.5,289 L333.5,289 L302.5,289 C301.119288,289 300,288.06726 300,286.916667 L300,286.916667 L300,261.083333 C300,259.93274 301.119288,259 302.5,259 L302.5,259 Z M335,265 L301,265 L301,286.916667 C301,287.607023 301.671573,288.166667 302.5,288.166667 L302.5,288.166667 L333.5,288.166667 C334.328427,288.166667 335,287.607023 335,286.916667 L335,286.916667 L335,265 Z M307.19716,267.588591 L307.258714,267.646447 L314.369825,275.646447 C314.524106,275.820013 314.541249,276.089437 314.421252,276.284306 L314.369825,276.353553 L307.258714,284.353553 C307.085148,284.548816 306.803741,284.548816 306.630175,284.353553 C306.475894,284.179987 306.458751,283.910563 306.578748,283.715694 L306.630175,283.646447 L313.427187,276 L306.630175,268.353553 C306.475894,268.179987 306.458751,267.910563 306.578748,267.715694 L306.630175,267.646447 C306.784456,267.47288 307.023944,267.453595 307.19716,267.588591 Z M329.5,282 C329.776142,282 330,282.223858 330,282.5 C330,282.74546 329.823125,282.949608 329.589876,282.991944 L329.5,283 L317.5,283 C317.223858,283 317,282.776142 317,282.5 C317,282.25454 317.176875,282.050392 317.410124,282.008056 L317.5,282 L329.5,282 Z M333.5,259.833333 L309,259.833 L309,264 L335,264 L335,261.083333 C335,260.433587 334.405112,259.899626 333.64446,259.839055 L333.5,259.833333 Z M308,259.833 L302.5,259.833333 C301.671573,259.833333 301,260.392977 301,261.083333 L301,261.083333 L301,264 L308,264 L308,259.833 Z"/>
    <use fill="#000" filter="url(#img-stages-r)" xlink:href="#img-stages-s"/>
    <use fill="#FFF" xlink:href="#img-stages-s"/>
    <path fill="url(#img-stages-t)" fill-rule="nonzero" d="M277.433961,357.199247 L273.50392,353 L255.927273,353 C253.7583,353 252,354.813247 252,357.05 L252,385.85 C252,388.086753 253.7583,389.9 255.927273,389.9 L276.872727,389.9 C279.0417,389.9 280.8,388.086753 280.8,385.85 L280.8,361.049539 L277.433961,357.199247 Z M273.133091,353.9 L276.795898,357.813086 L279.927273,361.3952 L279.927273,385.85 C279.927273,387.589697 278.559706,389 276.872727,389 L255.927273,389 C254.240294,389 252.872727,387.589697 252.872727,385.85 L252.872727,357.05 C252.872727,355.310303 254.240294,353.9 255.927273,353.9 L273.133091,353.9 Z"/>
    <path fill="url(#img-stages-u)" fill-rule="nonzero" d="M271.8,353 L272.752941,353 L272.752941,360.359034 L279.9,360.359034 L279.9,361.3025 L272.752941,361.3025 C272.264239,361.3025 271.861458,360.938284 271.806411,360.469062 L271.8,360.359034 L271.8,353 Z"/>
    <path fill="url(#img-stages-v)" fill-rule="nonzero" d="M273.173684,368.66 C273.409132,368.66 273.6,368.866509 273.6,369.12125 C273.6,369.347687 273.449191,369.536014 273.250315,369.575069 L273.173684,369.5825 L257.826316,369.5825 C257.590868,369.5825 257.4,369.375991 257.4,369.12125 C257.4,368.894813 257.550809,368.706486 257.749685,368.667431 L257.826316,368.66 L273.173684,368.66 Z"/>
    <path fill="url(#img-stages-w)" fill-rule="nonzero" d="M273.173684,372.35 C273.409132,372.35 273.6,372.556509 273.6,372.81125 C273.6,373.037687 273.449191,373.226014 273.250315,373.265069 L273.173684,373.2725 L257.826316,373.2725 C257.590868,373.2725 257.4,373.065991 257.4,372.81125 C257.4,372.584813 257.550809,372.396486 257.749685,372.357431 L257.826316,372.35 L273.173684,372.35 Z"/>
    <path fill="url(#img-stages-x)" fill-rule="nonzero" d="M273.173684,376.0625 C273.409132,376.0625 273.6,376.269009 273.6,376.52375 C273.6,376.750187 273.449191,376.938514 273.250315,376.977569 L273.173684,376.985 L257.826316,376.985 C257.590868,376.985 257.4,376.778491 257.4,376.52375 C257.4,376.297313 257.550809,376.108986 257.749685,376.069931 L257.826316,376.0625 L273.173684,376.0625 Z"/>
  </g>
</svg>
