<svg xmlns="http://www.w3.org/2000/svg" xmlns:xlink="http://www.w3.org/1999/xlink" width="480" height="587" viewBox="0 0 480 587">
  <defs>
    <linearGradient id="img-fundamentals-a" x1="56.498%" x2="45.817%" y1="108.696%" y2="11.524%">
      <stop offset="0%" stop-color="#1E85E9"/>
      <stop offset="20.276%" stop-color="#8671F3"/>
      <stop offset="90.838%" stop-color="#CFA9FC"/>
      <stop offset="100%" stop-color="#8973F4"/>
    </linearGradient>
    <linearGradient id="img-fundamentals-b" x1="108.096%" x2="0%" y1="108.696%" y2="0%">
      <stop offset="0%" stop-color="#1E85E9"/>
      <stop offset="20.276%" stop-color="#8671F3"/>
      <stop offset="70.727%" stop-color="#CFA9FC"/>
      <stop offset="100%" stop-color="#F4D9FB"/>
    </linearGradient>
    <circle id="img-fundamentals-d" cx="94.44" cy="302.648" r="35.64"/>
    <filter id="img-fundamentals-c" width="128.1%" height="128.1%" x="-14%" y="-11.2%" filterUnits="objectBoundingBox">
      <feMorphology in="SourceAlpha" radius="1" result="shadowSpreadOuter1"/>
      <feOffset dy="2" in="shadowSpreadOuter1" result="shadowOffsetOuter1"/>
      <feGaussianBlur in="shadowOffsetOuter1" result="shadowBlurOuter1" stdDeviation="4"/>
      <feColorMatrix in="shadowBlurOuter1" values="0 0 0 0 0.0415817482   0 0 0 0 0.0415817482   0 0 0 0 0.0415817482  0 0 0 0.1 0"/>
    </filter>
    <linearGradient id="img-fundamentals-e" x1="56.193%" x2="44.67%" y1="108.696%" y2="0%">
      <stop offset="0%" stop-color="#1E85E9"/>
      <stop offset="20.276%" stop-color="#8671F3"/>
      <stop offset="70.727%" stop-color="#CFA9FC"/>
      <stop offset="100%" stop-color="#F4D9FB"/>
    </linearGradient>
    <linearGradient id="img-fundamentals-f" x1="54.791%" x2="45.876%" y1="108.696%" y2="0%">
      <stop offset="0%" stop-color="#1E85E9"/>
      <stop offset="20.276%" stop-color="#8671F3"/>
      <stop offset="70.727%" stop-color="#CFA9FC"/>
      <stop offset="100%" stop-color="#F4D9FB"/>
    </linearGradient>
    <circle id="img-fundamentals-h" cx="200.44" cy="530.385" r="35.64"/>
    <filter id="img-fundamentals-g" width="128.1%" height="128.1%" x="-14%" y="-11.2%" filterUnits="objectBoundingBox">
      <feMorphology in="SourceAlpha" radius="1" result="shadowSpreadOuter1"/>
      <feOffset dy="2" in="shadowSpreadOuter1" result="shadowOffsetOuter1"/>
      <feGaussianBlur in="shadowOffsetOuter1" result="shadowBlurOuter1" stdDeviation="4"/>
      <feColorMatrix in="shadowBlurOuter1" values="0 0 0 0 0.0415817482   0 0 0 0 0.0415817482   0 0 0 0 0.0415817482  0 0 0 0.1 0"/>
    </filter>
    <circle id="img-fundamentals-j" cx="363.44" cy="421.385" r="35.64"/>
    <filter id="img-fundamentals-i" width="128.1%" height="128.1%" x="-14%" y="-11.2%" filterUnits="objectBoundingBox">
      <feMorphology in="SourceAlpha" radius="1" result="shadowSpreadOuter1"/>
      <feOffset dy="2" in="shadowSpreadOuter1" result="shadowOffsetOuter1"/>
      <feGaussianBlur in="shadowOffsetOuter1" result="shadowBlurOuter1" stdDeviation="4"/>
      <feColorMatrix in="shadowBlurOuter1" values="0 0 0 0 0.0415817482   0 0 0 0 0.0415817482   0 0 0 0 0.0415817482  0 0 0 0.1 0"/>
    </filter>
    <circle id="img-fundamentals-l" cx="163.52" cy="67.609" r="35.64"/>
    <filter id="img-fundamentals-k" width="128.1%" height="128.1%" x="-14%" y="-11.2%" filterUnits="objectBoundingBox">
      <feMorphology in="SourceAlpha" radius="1" result="shadowSpreadOuter1"/>
      <feOffset dy="2" in="shadowSpreadOuter1" result="shadowOffsetOuter1"/>
      <feGaussianBlur in="shadowOffsetOuter1" result="shadowBlurOuter1" stdDeviation="4"/>
      <feColorMatrix in="shadowBlurOuter1" values="0 0 0 0 0.0415817482   0 0 0 0 0.0415817482   0 0 0 0 0.0415817482  0 0 0 0.1 0"/>
    </filter>
    <circle id="img-fundamentals-n" cx="327.44" cy="168.385" r="35.64"/>
    <filter id="img-fundamentals-m" width="128.1%" height="128.1%" x="-14%" y="-11.2%" filterUnits="objectBoundingBox">
      <feMorphology in="SourceAlpha" radius="1" result="shadowSpreadOuter1"/>
      <feOffset dy="2" in="shadowSpreadOuter1" result="shadowOffsetOuter1"/>
      <feGaussianBlur in="shadowOffsetOuter1" result="shadowBlurOuter1" stdDeviation="4"/>
      <feColorMatrix in="shadowBlurOuter1" values="0 0 0 0 0.0415817482   0 0 0 0 0.0415817482   0 0 0 0 0.0415817482  0 0 0 0.1 0"/>
    </filter>
  </defs>
  <g fill="none" fill-rule="evenodd">
    <g transform="translate(108 11.737)">
      <path fill="url(#img-fundamentals-a)" d="M200,409.648 L207.04,432.611328 L235.111328,460.378906 L233.801621,461.252942 C226.224093,457.876661 217.831205,456 209,456 C175.31063,456 148,483.31063 148,517 C148,517.519587 148.006496,518.037657 148.019412,518.554133 L147.879999,518.648 L133.206055,486.916016 L116.696146,469.79376 C123.604478,472.508909 131.128108,474 139,474 C172.68937,474 200,446.68937 200,413 C200,411.896546 199.970701,410.799936 199.912838,409.710904 L200,409.648 Z M147.879999,302.648 L150.008987,304.057829 C150.573545,337.25921 177.66395,364 211,364 C219.095797,364 226.823238,362.422878 233.891847,359.55911 L235.111328,360.366211 L214.379883,378.003906 L200,409.648 L199.98507,409.636869 C199.260224,376.577014 172.233809,350 139,350 C131.380235,350 124.086781,351.397105 117.361828,353.949126 L139,333 L147.879999,302.648 Z M165.859375,170.363238 L179.824219,192.287999 L206,211 C172.31063,211 145,238.31063 145,272 C145,276.29619 145.444133,280.488647 146.28899,284.533963 L145,286.123047 L128.474609,262.068359 L98.4545391,250.683594 L100.184887,248.623566 C102.422301,248.872291 104.696237,249 107,249 C140.68937,249 168,221.68937 168,188 C168,182.012033 167.137211,176.225582 165.529168,170.758181 L165.859375,170.363238 Z M110.001969,52.223 L110,52 C110,85.6893697 137.31063,113 171,113 C179.131824,113 186.892006,111.40881 193.986176,108.520801 L194.756836,109.04 L175.560547,129.230469 L164,158.577189 L163.951463,158.544075 C162.662588,125.993301 135.866824,100 103,100 C94.6891889,100 86.7665603,101.662007 79.5463531,104.671781 L79.0429688,104.351999 L100.412109,79.7099609 L110.001969,52.223 Z" opacity=".753"/>
      <path fill="url(#img-fundamentals-b)" fill-rule="nonzero" d="M55.4399997,9.09494702e-13 C24.8213333,9.09494702e-13 0,24.8213333 0,55.4399997 C0,86.0586661 24.8213333,110.879999 55.4399997,110.879999 C86.0586661,110.879999 110.879999,86.0586661 110.879999,55.4399997 C110.879999,24.8213333 86.0586661,9.09494702e-13 55.4399997,9.09494702e-13 Z M55.4399997,7.03999996 C82.1705814,7.03999996 103.839999,28.709418 103.839999,55.4399997 C103.839999,82.1705814 82.1705814,103.839999 55.4399997,103.839999 C28.709418,103.839999 7.03999996,82.1705814 7.03999996,55.4399997 C7.03999996,28.709418 28.709418,7.03999996 55.4399997,7.03999996 Z" transform="translate(37 464)"/>
      <path fill="url(#img-fundamentals-b)" fill-rule="nonzero" d="M55.5199997,0.960000038 C25.387344,0.960000038 0.960000038,25.387344 0.960000038,55.5199997 C0.960000038,85.6526555 25.387344,110.079999 55.5199997,110.079999 C85.6526555,110.079999 110.079999,85.6526555 110.079999,55.5199997 C110.079999,25.387344 85.6526555,0.960000038 55.5199997,0.960000038 Z M55.5199997,8 C81.7645709,8 103.039999,29.2754286 103.039999,55.5199997 C103.039999,81.7645709 81.7645709,103.039999 55.5199997,103.039999 C29.2754286,103.039999 8,81.7645709 8,55.5199997 C8,29.2754286 29.2754286,8 55.5199997,8 Z" transform="translate(0 .352)"/>
      <path fill="url(#img-fundamentals-b)" fill-rule="nonzero" d="M55.4399997,9.09494702e-13 C24.8213333,9.09494702e-13 0,24.8213333 0,55.4399997 C0,86.0586661 24.8213333,110.879999 55.4399997,110.879999 C86.0586661,110.879999 110.879999,86.0586661 110.879999,55.4399997 C110.879999,24.8213333 86.0586661,9.09494702e-13 55.4399997,9.09494702e-13 Z M55.4399997,7.03999996 C82.1705814,7.03999996 103.839999,28.709418 103.839999,55.4399997 C103.839999,82.1705814 82.1705814,103.839999 55.4399997,103.839999 C28.709418,103.839999 7.03999996,82.1705814 7.03999996,55.4399997 C7.03999996,28.709418 28.709418,7.03999996 55.4399997,7.03999996 Z" transform="translate(164 102)"/>
      <path fill="url(#img-fundamentals-b)" fill-rule="nonzero" d="M55.4399997,9.09494702e-13 C24.8213333,9.09494702e-13 0,24.8213333 0,55.4399997 C0,86.0586661 24.8213333,110.879999 55.4399997,110.879999 C86.0586661,110.879999 110.879999,86.0586661 110.879999,55.4399997 C110.879999,24.8213333 86.0586661,9.09494702e-13 55.4399997,9.09494702e-13 Z M55.4399997,7.03999996 C82.1705814,7.03999996 103.839999,28.709418 103.839999,55.4399997 C103.839999,82.1705814 82.1705814,103.839999 55.4399997,103.839999 C28.709418,103.839999 7.03999996,82.1705814 7.03999996,55.4399997 C7.03999996,28.709418 28.709418,7.03999996 55.4399997,7.03999996 Z" transform="translate(200 355)"/>
      <use fill="#000" filter="url(#img-fundamentals-c)" xlink:href="#img-fundamentals-d"/>
      <use fill="#FFF" xlink:href="#img-fundamentals-d"/>
      <g stroke="#5055FE" stroke-width=".631" transform="translate(77.368 282.848)">
        <circle cx="16.406" cy="16.406" r="8.203"/>
        <circle cx="16.406" cy="16.406" r="3.155"/>
        <path stroke-linecap="round" d="M16.4060839,10.7270548 C13.2696427,10.7270548 10.7270548,13.2696427 10.7270548,16.4060839 C10.7270548,19.542525 13.2696427,22.0851129 16.4060839,22.0851129 C19.542525,22.0851129 22.0851129,19.542525 22.0851129,16.4060839"/>
        <polyline stroke-linecap="round" stroke-linejoin="round" points="15.144 15.383 17.037 17.318 21.087 13.251"/>
        <path d="M13.2669156,29.3868352 C12.151107,30.1604639 10.6194155,29.8830722 9.84578683,28.7672636 C9.64561133,28.4785494 9.50963998,28.1502855 9.44703369,27.8045883 C9.03761486,25.543874 7.2682937,23.7745528 5.00757939,23.365134 C3.67154549,23.1231762 2.78462156,21.8439612 3.02657935,20.5079273 C3.08918564,20.1622301 3.225157,19.8339663 3.42533249,19.5452521 C4.73439608,17.6571828 4.73439608,15.1549849 3.42533249,13.2669156 C2.65170385,12.151107 2.92909553,10.6194155 4.04490415,9.84578683 C4.33361831,9.64561133 4.6618822,9.50963998 5.00757939,9.44703369 C7.2682937,9.03761486 9.03761486,7.2682937 9.44703369,5.00757939 C9.68899147,3.67154549 10.9682065,2.78462156 12.3042404,3.02657935 C12.6499376,3.08918564 12.9782015,3.225157 13.2669156,3.42533249 C15.1549849,4.73439608 17.6571828,4.73439608 19.5452521,3.42533249 C20.6610607,2.65170385 22.1927522,2.92909553 22.9663809,4.04490415 C23.1665564,4.33361831 23.3025277,4.6618822 23.365134,5.00757939 C23.7745528,7.2682937 25.543874,9.03761486 27.8045883,9.44703369 C29.1406222,9.68899147 30.0275461,10.9682065 29.7855884,12.3042404 C29.7229821,12.6499376 29.5870107,12.9782015 29.3868352,13.2669156 C28.0777716,15.1549849 28.0777716,17.6571828 29.3868352,19.5452521 C30.1604639,20.6610607 29.8830722,22.1927522 28.7672636,22.9663809 C28.4785494,23.1665564 28.1502855,23.3025277 27.8045883,23.365134 C25.543874,23.7745528 23.7745528,25.543874 23.365134,27.8045883 C23.1231762,29.1406222 21.8439612,30.0275461 20.5079273,29.7855884 C20.1622301,29.7229821 19.8339663,29.5870107 19.5452521,29.3868352 C17.6571828,28.0777716 15.1549849,28.0777716 13.2669156,29.3868352 Z"/>
        <polyline stroke-linejoin="round" points="9.701 28.709 7.444 38.198 16.406 34.677 25.232 38.198 23.16 28.709"/>
        <line x1="16.338" x2="16.338" y1="34.559" y2="31.763"/>
      </g>
      <path fill="url(#img-fundamentals-b)" fill-rule="nonzero" d="M94.4399997,248 C63.8213333,248 39,272.821333 39,303.44 C39,334.058666 63.8213333,358.879999 94.4399997,358.879999 C125.058666,358.879999 149.879999,334.058666 149.879999,303.44 C149.879999,272.821333 125.058666,248 94.4399997,248 Z M94.4399997,255.04 C121.170581,255.04 142.839999,276.709418 142.839999,303.44 C142.839999,330.170581 121.170581,351.839999 94.4399997,351.839999 C67.709418,351.839999 46.04,330.170581 46.04,303.44 C46.04,276.709418 67.709418,255.04 94.4399997,255.04 Z"/>
    </g>
    <path stroke="url(#img-fundamentals-e)" stroke-width=".5" d="M309.191544,250.202951 C307.68188,244.73037 306.085982,239.486486 304.410234,234.49078 C291.467741,195.906882 273.762163,172.127117 254.235866,172.127117 C214.58624,172.127117 182.443867,270.176757 182.443867,391.127117 C182.443867,512.077477 214.58624,610.127117 254.235866,610.127117 C271.803074,610.127117 287.896584,590.879663 300.373775,558.92078 M323.166694,452.540615 C324.198506,441.74577 324.965211,430.606217 325.443867,419.191937" opacity=".499" transform="rotate(-60 253.944 391.127)"/>
    <path stroke="url(#img-fundamentals-f)" stroke-width=".5" d="M281.504661,-1.48134719 C268.526227,-34.4764889 251.637013,-54.4212688 233.17088,-54.4212688 C192.227439,-54.4212688 159.036222,43.628371 159.036222,164.578731 C159.036222,285.529091 192.227439,383.578731 233.17088,383.578731 C253.253286,383.578731 271.470647,359.989772 284.821079,321.679673" opacity=".499" transform="rotate(-60 221.929 164.579)"/>
    <use fill="#000" filter="url(#img-fundamentals-g)" xlink:href="#img-fundamentals-h"/>
    <use fill="#FFF" xlink:href="#img-fundamentals-h"/>
    <g transform="translate(187.24 511.817)">
      <circle cx="10.852" cy="14.463" r="7.11" stroke="#5055FE" stroke-width=".642"/>
      <circle cx="10.852" cy="15.96" r="8.607" stroke="#5055FE" stroke-width=".642"/>
      <path stroke="#5055FE" stroke-linecap="round" stroke-width=".642" d="M11.226599,29.8064012 C17.4268785,29.8064012 22.4531981,24.7800816 22.4531981,18.5798022 C22.4531981,12.3795227 17.4268785,7.35320311 11.226599,7.35320311 C5.0263196,7.35320311 0,12.3795227 0,18.5798022 L0,35.6897677"/>
      <line x1="11.227" x2="30.656" y1="7.353" y2="7.353" stroke="#5055FE" stroke-linecap="round" stroke-width=".642"/>
      <line x1="2.245" x2="2.245" y1="14.463" y2="1.497" stroke="#FFF" stroke-linecap="round" stroke-width="2.245"/>
      <line x1="2.245" x2="2.245" y1="15.96" y2="1.497" stroke="#5055FE" stroke-linecap="round" stroke-width=".642"/>
      <polyline stroke="#5055FE" stroke-linecap="round" stroke-linejoin="round" stroke-width=".642" points="0 5.108 2.245 .617 4.491 5.108"/>
      <polyline stroke="#5055FE" stroke-linecap="round" stroke-linejoin="round" stroke-width=".642" points="26.195 9.599 28.441 5.108 30.686 9.599" transform="rotate(90 28.44 7.353)"/>
      <polyline stroke="#5055FE" stroke-linecap="round" stroke-linejoin="round" stroke-width=".642" points="10.478 32.052 12.723 27.561 14.969 32.052" transform="matrix(0 1 1 0 -17.083 17.083)"/>
    </g>
    <use fill="#000" filter="url(#img-fundamentals-i)" xlink:href="#img-fundamentals-j"/>
    <use fill="#FFF" xlink:href="#img-fundamentals-j"/>
    <g stroke="#5055FE" stroke-width=".642" transform="translate(351.648 400.705)">
      <path d="M6.42542473,29.059162 L6.42542473,13.0542235 C6.42542473,10.6953804 7.07570116,8.38219037 8.30479094,6.36886495 L10.5085645,2.75894692 C11.0623977,1.85173367 12.2468099,1.56526256 13.1540232,2.1190958 C13.4274251,2.2860015 13.6548438,2.51850879 13.8156595,2.7955366 L15.9429516,6.46009736 C17.0788183,8.41678789 17.6770832,10.6390414 17.6770832,12.9015247 L17.6770832,29.059162 L17.6770832,29.059162"/>
      <path d="M6.42542473,20.6315011 L0.705820441,25.3114041 C0.259082981,25.6769343 -4.66767193e-12,26.2236791 -4.66767193e-12,26.8009023 L-4.66767193e-12,30.3544184 C-4.66767193e-12,31.0630217 0.574436526,31.6374583 1.28303989,31.6374583 L9.85229397,31.6374583 L9.85229397,31.6374583 M13.7352438,31.6374583 L22.1448561,31.6374583 C22.8534595,31.6374583 23.427896,31.0630217 23.427896,30.3544184 L23.427896,26.7370775 C23.427896,26.1967138 23.2007273,25.6812429 22.8019072,25.3166397 L17.6770832,20.6315011 L17.6770832,20.6315011"/>
      <path stroke-linecap="round" d="M13.7104977,26.2951132 L13.7104977,32.7103127 C13.7104977,33.7732177 12.8488429,34.6348725 11.7859378,34.6348725 C10.7230328,34.6348725 9.86137799,33.7732177 9.86137799,32.7103127 L9.86137799,26.2951132"/>
      <path stroke-linejoin="round" d="M9.62933754,9.3501126 L9.86137799,9.22576474 C11.063549,8.58153492 12.5083267,8.58153492 13.7104977,9.22576474 L13.9425381,9.3501126 C14.9846515,9.90856937 15.6350575,10.9950249 15.6350575,12.1773423 L15.6350575,14.1062342 L15.6350575,14.1062342 C13.2565291,12.7187593 10.3153466,12.7187593 7.93681816,14.1062342 L7.93681816,14.1062342 L7.93681816,14.1062342 L7.93681816,12.1773423 C7.93681816,10.9950249 8.58722413,9.90856937 9.62933754,9.3501126 Z"/>
      <line x1="7.937" x2="7.937" y1="33.301" y2="40.409" stroke-linecap="round"/>
      <line x1="5.371" x2="5.371" y1="33.301" y2="37.385" stroke-linecap="round"/>
      <line x1="15.635" x2="15.635" y1="33.301" y2="40.409" stroke-linecap="round"/>
      <line x1="18.843" x2="18.843" y1="33.301" y2="37.385" stroke-linecap="round"/>
    </g>
    <use fill="#000" filter="url(#img-fundamentals-k)" xlink:href="#img-fundamentals-l"/>
    <use fill="#FFF" xlink:href="#img-fundamentals-l"/>
    <g stroke="#5055FE" stroke-width=".642" transform="translate(150.32 48.777)">
      <path stroke-linejoin="round" d="M4.974912,0 L20.3713907,0 L20.3713907,9.62279918 C20.3713907,13.5201177 17.2119898,16.6795186 13.3146713,16.6795186 L12.0316314,16.6795186 C8.13431289,16.6795186 4.974912,13.5201177 4.974912,9.62279918 L4.974912,0 L4.974912,0 Z"/>
      <path stroke-linecap="round" stroke-linejoin="round" d="M5.64822602,12.6782368 C2.45951088,12.6782368 -5.90802892e-12,10.1264025 -5.90802892e-12,6.93768738 L-5.90802892e-12,1.53238065 L4.93041763,1.53238065 M20.4473906,1.53238065 L25.025856,1.53238065 L25.025856,6.93768738 C25.025856,9.91620507 22.7704565,12.367946 19.8743308,12.6782368"/>
      <path d="M15.8807511,16.0379986 L15.8807511,17.3210385 C15.8807511,18.0296419 15.3063145,18.6040784 14.5977112,18.6040784 L10.7485915,18.6040784 C10.0399881,18.6040784 9.46555162,18.0296419 9.46555162,17.3210385 L9.46555162,16.0379986 L9.46555162,16.0379986"/>
      <rect width="2.566" height="4.491" x="11.39" y="18.604"/>
      <polygon stroke-linejoin="round" points="12.673 10.193 10.411 11.382 10.843 8.863 9.012 7.079 11.542 6.711 12.673 4.419 13.804 6.711 16.334 7.079 14.504 8.863 14.936 11.382"/>
      <rect width="15.396" height="9.623" x="4.975" y="27.585" rx=".642"/>
      <path d="M10.7485915,23.094718 L14.5977112,23.094718 C16.0149179,23.094718 17.163791,24.2435911 17.163791,25.6607978 L17.163791,27.5853577 L17.163791,27.5853577 L8.18251173,27.5853577 L8.18251173,25.6607978 C8.18251173,24.2435911 9.33138478,23.094718 10.7485915,23.094718 Z"/>
    </g>
    <use fill="#000" filter="url(#img-fundamentals-m)" xlink:href="#img-fundamentals-n"/>
    <use fill="#FFF" xlink:href="#img-fundamentals-n"/>
    <g stroke="#5055FE" stroke-width=".642" transform="translate(309.488 150.345)">
      <path d="M17.3210385,7.69823935 C19.0925469,7.69823935 20.5286383,5.0557098 20.5286383,3.25694742 C20.5286383,1.45818503 19.0925469,0 17.3210385,0 C15.5495301,0 14.1134388,1.45818503 14.1134388,3.25694742 C14.1134388,5.0557098 15.5495301,7.69823935 17.3210385,7.69823935 Z"/>
      <path stroke-linejoin="round" d="M13.4719189,8.98127924 L15.2087972,8.98127924 L15.2087972,8.98127924 L17.3210385,11.868119 L19.6400197,8.98127924 L21.1701582,8.98127924 C22.5873649,8.98127924 23.736238,10.1301523 23.736238,11.547359 L23.736238,14.7549587 L23.736238,14.7549587 L10.9058391,14.7549587 L10.9058391,11.547359 C10.9058391,10.1301523 12.0547121,8.98127924 13.4719189,8.98127924 Z"/>
      <path d="M28.2268776,27.5853577 C29.998386,27.5853577 31.4344773,24.9428281 31.4344773,23.1440657 C31.4344773,21.3453033 29.998386,19.8871183 28.2268776,19.8871183 C26.4553692,19.8871183 25.0192779,21.3453033 25.0192779,23.1440657 C25.0192779,24.9428281 26.4553692,27.5853577 28.2268776,27.5853577 Z"/>
      <path stroke-linejoin="round" d="M24.3777579,28.8683975 L26.1146363,28.8683975 L26.1146363,28.8683975 L28.2268776,31.7552373 L30.5458588,28.8683975 L32.0759973,28.8683975 C33.493204,28.8683975 34.6420771,30.0172706 34.6420771,31.4344773 L34.6420771,34.6420771 L34.6420771,34.6420771 L21.8116781,34.6420771 L21.8116781,31.4344773 C21.8116781,30.0172706 22.9605512,28.8683975 24.3777579,28.8683975 Z"/>
      <path d="M6.41519946,27.5853577 C8.18670787,27.5853577 9.62279918,24.9428281 9.62279918,23.1440657 C9.62279918,21.3453033 8.18670787,19.8871183 6.41519946,19.8871183 C4.64369104,19.8871183 3.20759973,21.3453033 3.20759973,23.1440657 C3.20759973,24.9428281 4.64369104,27.5853577 6.41519946,27.5853577 Z"/>
      <path stroke-linejoin="round" d="M2.56607978,28.8683975 L4.30295811,28.8683975 L4.30295811,28.8683975 L6.41519946,31.7552373 L8.73418063,28.8683975 L10.2643191,28.8683975 C11.6815259,28.8683975 12.8303989,30.0172706 12.8303989,31.4344773 L12.8303989,34.6420771 L12.8303989,34.6420771 L0,34.6420771 L0,31.4344773 C-1.73557769e-16,30.0172706 1.14887305,28.8683975 2.56607978,28.8683975 Z"/>
      <line x1="17.321" x2="17.321" y1="17.107" y2="22.832" stroke-linecap="round"/>
      <polyline stroke-linecap="round" points="11.547 26.302 17.321 23.095 23.095 26.302"/>
    </g>
    <g fill="#5055FE" transform="translate(54 23)">
      <circle cx="7" cy="7" r="7" opacity=".103"/>
      <circle cx="7" cy="7" r="3"/>
    </g>
    <g fill="#5055FE" transform="translate(410 226)">
      <circle cx="7" cy="7" r="7" opacity=".103"/>
      <circle cx="7" cy="7" r="3"/>
    </g>
    <g fill="#5055FE" transform="translate(309 337)">
      <circle cx="7" cy="7" r="7" opacity=".103"/>
      <circle cx="7" cy="7" r="3"/>
    </g>
    <g fill="#5055FE" transform="translate(61 311)">
      <circle cx="7" cy="7" r="7" opacity=".103"/>
      <circle cx="7" cy="7" r="3"/>
    </g>
    <g fill="#5055FE" transform="translate(189 432)">
      <circle cx="7" cy="7" r="7" opacity=".103"/>
      <circle cx="7" cy="7" r="3"/>
    </g>
    <g fill="#5055FE" transform="translate(149 191)">
      <circle cx="7" cy="7" r="7" opacity=".103"/>
      <circle cx="7" cy="7" r="3"/>
    </g>
  </g>
</svg>
