<svg xmlns="http://www.w3.org/2000/svg" xmlns:xlink="http://www.w3.org/1999/xlink" width="356" height="371" viewBox="0 0 356 371">
  <defs>
    <linearGradient id="img-sheme-a" x1="33.48%" x2="58.623%" y1="58.97%" y2="57.444%">
      <stop offset="0%" stop-color="#FFF"/>
      <stop offset="100%" stop-color="#E3E0E0"/>
    </linearGradient>
    <linearGradient id="img-sheme-b" x1="36.463%" x2="57.065%" y1="58.97%" y2="57.444%">
      <stop offset="0%" stop-color="#FFF"/>
      <stop offset="100%" stop-color="#E3E0E0"/>
    </linearGradient>
    <linearGradient id="img-sheme-c" x1="38.506%" x2="55.999%" y1="58.97%" y2="57.444%">
      <stop offset="0%" stop-color="#FFF"/>
      <stop offset="100%" stop-color="#E3E0E0"/>
    </linearGradient>
    <linearGradient id="img-sheme-d" x1="108.096%" x2="0%" y1="108.696%" y2="0%">
      <stop offset="0%" stop-color="#A086F5"/>
      <stop offset="20.276%" stop-color="#9C83F5"/>
      <stop offset="70.727%" stop-color="#D4B1FC"/>
      <stop offset="100%" stop-color="#EED7FD"/>
    </linearGradient>
    <linearGradient id="img-sheme-e" x1="50%" x2="50%" y1="0%" y2="100%">
      <stop offset="0%" stop-color="#E3E0E0"/>
      <stop offset="100%" stop-color="#E3E0E0"/>
    </linearGradient>
    <circle id="img-sheme-g" cx="28.8" cy="28.8" r="27.9"/>
    <filter id="img-sheme-f" width="141.2%" height="141.2%" x="-20.6%" y="-17%" filterUnits="objectBoundingBox">
      <feMorphology in="SourceAlpha" radius="1" result="shadowSpreadOuter1"/>
      <feOffset dy="2" in="shadowSpreadOuter1" result="shadowOffsetOuter1"/>
      <feGaussianBlur in="shadowOffsetOuter1" result="shadowBlurOuter1" stdDeviation="4.5"/>
      <feColorMatrix in="shadowBlurOuter1" values="0 0 0 0 0.0415817482   0 0 0 0 0.0415817482   0 0 0 0 0.0415817482  0 0 0 0.1 0"/>
    </filter>
    <circle id="img-sheme-i" cx="28.8" cy="28.8" r="27.9"/>
    <filter id="img-sheme-h" width="141.2%" height="141.2%" x="-20.6%" y="-17%" filterUnits="objectBoundingBox">
      <feMorphology in="SourceAlpha" radius="1" result="shadowSpreadOuter1"/>
      <feOffset dy="2" in="shadowSpreadOuter1" result="shadowOffsetOuter1"/>
      <feGaussianBlur in="shadowOffsetOuter1" result="shadowBlurOuter1" stdDeviation="4.5"/>
      <feColorMatrix in="shadowBlurOuter1" values="0 0 0 0 0.0415817482   0 0 0 0 0.0415817482   0 0 0 0 0.0415817482  0 0 0 0.1 0"/>
    </filter>
    <circle id="img-sheme-k" cx="28.8" cy="28.8" r="27.9"/>
    <filter id="img-sheme-j" width="141.2%" height="141.2%" x="-20.6%" y="-17%" filterUnits="objectBoundingBox">
      <feMorphology in="SourceAlpha" radius="1" result="shadowSpreadOuter1"/>
      <feOffset dy="2" in="shadowSpreadOuter1" result="shadowOffsetOuter1"/>
      <feGaussianBlur in="shadowOffsetOuter1" result="shadowBlurOuter1" stdDeviation="4.5"/>
      <feColorMatrix in="shadowBlurOuter1" values="0 0 0 0 0.0415817482   0 0 0 0 0.0415817482   0 0 0 0 0.0415817482  0 0 0 0.1 0"/>
    </filter>
    <circle id="img-sheme-m" cx="28.8" cy="28.8" r="27.9"/>
    <filter id="img-sheme-l" width="141.2%" height="141.2%" x="-20.6%" y="-17%" filterUnits="objectBoundingBox">
      <feMorphology in="SourceAlpha" radius="1" result="shadowSpreadOuter1"/>
      <feOffset dy="2" in="shadowSpreadOuter1" result="shadowOffsetOuter1"/>
      <feGaussianBlur in="shadowOffsetOuter1" result="shadowBlurOuter1" stdDeviation="4.5"/>
      <feColorMatrix in="shadowBlurOuter1" values="0 0 0 0 0.0415817482   0 0 0 0 0.0415817482   0 0 0 0 0.0415817482  0 0 0 0.1 0"/>
    </filter>
    <circle id="img-sheme-o" cx="28.8" cy="28.8" r="27.9"/>
    <filter id="img-sheme-n" width="141.2%" height="141.2%" x="-20.6%" y="-17%" filterUnits="objectBoundingBox">
      <feMorphology in="SourceAlpha" radius="1" result="shadowSpreadOuter1"/>
      <feOffset dy="2" in="shadowSpreadOuter1" result="shadowOffsetOuter1"/>
      <feGaussianBlur in="shadowOffsetOuter1" result="shadowBlurOuter1" stdDeviation="4.5"/>
      <feColorMatrix in="shadowBlurOuter1" values="0 0 0 0 0.0415817482   0 0 0 0 0.0415817482   0 0 0 0 0.0415817482  0 0 0 0.1 0"/>
    </filter>
    <circle id="img-sheme-q" cx="28.8" cy="28.8" r="27.9"/>
    <filter id="img-sheme-p" width="141.2%" height="141.2%" x="-20.6%" y="-17%" filterUnits="objectBoundingBox">
      <feMorphology in="SourceAlpha" radius="1" result="shadowSpreadOuter1"/>
      <feOffset dy="2" in="shadowSpreadOuter1" result="shadowOffsetOuter1"/>
      <feGaussianBlur in="shadowOffsetOuter1" result="shadowBlurOuter1" stdDeviation="4.5"/>
      <feColorMatrix in="shadowBlurOuter1" values="0 0 0 0 0.0415817482   0 0 0 0 0.0415817482   0 0 0 0 0.0415817482  0 0 0 0.1 0"/>
    </filter>
  </defs>
  <g fill="none" fill-rule="evenodd" transform="translate(1 5)">
    <path stroke="url(#img-sheme-a)" stroke-width=".5" d="M133,285.519701 C144.348468,312.400501 159.956915,329 177.18534,329 C211.876919,329 240,261.694284 240,178.668476 C240,148.129813 236.195157,119.717961 229.658103,96 M223,73.7855877 C211.574305,45.5494004 195.572635,28 177.859848,28 C143.143313,28 115,95.4157323 115,178.577253 C115,210.298302 119.094732,239.728406 126.087104,264"/>
    <path stroke="url(#img-sheme-b)" stroke-width=".5" d="M127.99167,291.762291 C139.409222,322.927176 155.463965,342.324029 173.246473,342.324029 C207.899688,342.324029 235.99167,268.663919 235.99167,177.799568 M222.405445,69.798056 C210.904894,35.3322707 193.99533,13.5599457 175.143814,13.5599457 C140.49437,13.5599457 112.405445,87.1136977 112.405445,177.846849 C112.405445,193.583244 113.250361,208.802882 114.82788,223.21166" transform="rotate(120 174.199 177.942)"/>
    <path stroke="url(#img-sheme-c)" stroke-width=".5" d="M124,284.776792 C135.616185,325.564286 154.244798,352 175.244795,352 C210.455822,352 239,277.679268 239,186 C239,94.3207315 210.455822,20 175.244795,20 C154.895943,20 136.773695,44.8217512 125.100633,83.4708829" transform="scale(1 -1) rotate(-60 -140.661 0)"/>
    <circle cx="177" cy="179" r="88" fill="#FFF"/>
    <circle cx="177" cy="179" r="79" fill="#FFF" stroke="url(#img-sheme-d)" stroke-width="20" opacity=".8"/>
    <ellipse cx="177" cy="178.616" stroke="url(#img-sheme-e)" stroke-width=".5" rx="48.25" ry="47.866"/>
    <path fill="#000" fill-rule="nonzero" d="M166.058002,173.44 C166.760002,173.44 167.138002,172.954 167.138002,172.342 L167.138002,162.136 C167.138002,161.524 166.760002,161.02 166.058002,161.02 C165.338002,161.02 164.978002,161.524 164.978002,162.136 L164.978002,172.342 C164.978002,172.954 165.338002,173.44 166.058002,173.44 Z M174.280002,173.62 C177.070002,173.62 178.600002,171.64 178.600002,169.03 C178.600002,166.438 177.070002,164.44 174.280002,164.44 C171.490002,164.44 169.978002,166.42 169.978002,169.03 C169.978002,171.64 171.490002,173.62 174.280002,173.62 Z M174.280002,171.892 C172.822002,171.892 172.066002,170.668 172.066002,169.03 C172.066002,167.41 172.804002,166.168 174.280002,166.168 C175.774002,166.168 176.512002,167.41 176.512002,169.03 C176.512002,170.668 175.774002,171.892 174.280002,171.892 Z M185.472002,173.44 C186.192002,173.44 186.552002,172.954 186.552002,172.342 L186.552002,162.946 L189.738002,162.946 C190.386002,162.946 190.782002,162.55 190.782002,161.974 C190.782002,161.38 190.386002,161.02 189.738002,161.02 L181.206002,161.02 C180.576002,161.02 180.180002,161.38 180.180002,161.974 C180.180002,162.55 180.576002,162.946 181.206002,162.946 L184.392002,162.946 L184.392002,172.342 C184.392002,172.954 184.752002,173.44 185.472002,173.44 Z M151.936002,193.060001 C152.566002,193.060001 153.232002,192.934001 153.736002,192.646001 C154.222002,192.358001 154.510002,191.926001 154.294002,191.386001 C154.114002,190.954001 153.664002,190.864001 153.214002,191.044001 C152.998002,191.134001 152.602002,191.260001 152.260002,191.260001 C151.504002,191.260001 151.234002,190.810001 151.234002,189.802001 L151.234002,185.788001 L152.764002,185.788001 C153.412002,185.788001 153.736002,185.464001 153.736002,184.924001 C153.736002,184.366001 153.412002,184.060001 152.764002,184.060001 L151.234002,184.060001 L151.234002,182.944001 C151.234002,182.386001 150.892002,181.900001 150.208002,181.900001 C149.542002,181.900001 149.200002,182.386001 149.200002,182.944001 L149.200002,184.060001 L148.732002,184.060001 C148.084002,184.060001 147.760002,184.366001 147.760002,184.924001 C147.760002,185.464001 148.084002,185.788001 148.732002,185.788001 L149.200002,185.788001 L149.200002,190.018001 C149.200002,192.160001 150.208002,193.060001 151.936002,193.060001 Z M160.032002,193.060001 C161.058002,193.060001 162.102002,192.880001 162.876002,192.358001 C163.344002,192.052001 163.452002,191.584001 163.254002,191.206001 C163.056002,190.864001 162.714002,190.720001 162.138002,190.954001 C161.580002,191.188001 161.004002,191.422001 160.230002,191.422001 C158.844002,191.422001 157.944002,190.576001 157.890002,189.208001 L162.480002,189.208001 C163.200002,189.208001 163.506002,188.902001 163.668002,188.308001 C163.722002,188.110001 163.758002,187.714001 163.758002,187.462001 C163.758002,185.356001 162.426002,183.880001 160.068002,183.880001 C157.476002,183.880001 155.874002,185.716001 155.874002,188.506001 C155.874002,191.404001 157.332002,193.060001 160.032002,193.060001 Z M161.868002,187.786001 L157.890002,187.786001 C158.016002,186.328001 158.790002,185.518001 160.068002,185.518001 C161.310002,185.518001 161.886002,186.310001 161.886002,187.336001 C161.886002,187.498001 161.886002,187.606001 161.868002,187.786001 Z M168.992002,193.060001 C171.422002,193.060001 172.556002,192.034001 172.556002,190.324001 C172.556002,187.264001 168.020002,187.984001 168.020002,186.328001 C168.020002,185.824001 168.398002,185.518001 169.226002,185.518001 C169.892002,185.518001 170.594002,185.806001 171.098002,186.004001 C171.674002,186.184001 172.034002,186.094001 172.232002,185.662001 C172.412002,185.248001 172.304002,184.798001 171.728002,184.474001 C171.134002,184.132001 170.198002,183.880001 169.154002,183.880001 C167.264002,183.880001 165.968002,184.726001 165.968002,186.400001 C165.968002,189.586001 170.504002,188.794001 170.504002,190.504001 C170.504002,191.116001 170.072002,191.422001 169.172002,191.422001 C168.506002,191.422001 167.768002,191.224001 167.084002,190.918001 C166.616002,190.702001 166.040002,190.576001 165.770002,191.134001 C165.536002,191.620001 165.698002,192.034001 166.184002,192.376001 C166.904002,192.844001 168.074002,193.060001 168.992002,193.060001 Z M178.798002,193.060001 C179.428002,193.060001 180.094002,192.934001 180.598002,192.646001 C181.084002,192.358001 181.372002,191.926001 181.156002,191.386001 C180.976002,190.954001 180.526002,190.864001 180.076002,191.044001 C179.860002,191.134001 179.464002,191.260001 179.122002,191.260001 C178.366002,191.260001 178.096002,190.810001 178.096002,189.802001 L178.096002,185.788001 L179.626002,185.788001 C180.274002,185.788001 180.598002,185.464001 180.598002,184.924001 C180.598002,184.366001 180.274002,184.060001 179.626002,184.060001 L178.096002,184.060001 L178.096002,182.944001 C178.096002,182.386001 177.754002,181.900001 177.070002,181.900001 C176.404002,181.900001 176.062002,182.386001 176.062002,182.944001 L176.062002,184.060001 L175.594002,184.060001 C174.946002,184.060001 174.622002,184.366001 174.622002,184.924001 C174.622002,185.464001 174.946002,185.788001 175.594002,185.788001 L176.062002,185.788001 L176.062002,190.018001 C176.062002,192.160001 177.070002,193.060001 178.798002,193.060001 Z M184.104002,182.836001 C184.806002,182.836001 185.292002,182.458001 185.292002,181.738001 C185.292002,181.054001 184.806002,180.640001 184.104002,180.640001 C183.384002,180.640001 182.934002,181.054001 182.934002,181.738001 C182.934002,182.458001 183.384002,182.836001 184.104002,182.836001 Z M184.104002,192.880001 C184.788002,192.880001 185.130002,192.412001 185.130002,191.836001 L185.130002,185.104001 C185.130002,184.546001 184.788002,184.060001 184.104002,184.060001 C183.438002,184.060001 183.096002,184.546001 183.096002,185.104001 L183.096002,191.836001 C183.096002,192.412001 183.438002,192.880001 184.104002,192.880001 Z M194.900002,192.880001 C195.584002,192.880001 195.926002,192.412001 195.926002,191.836001 L195.926002,187.732001 C195.926002,185.338001 195.188002,183.880001 192.848002,183.880001 C191.786002,183.880001 190.724002,184.348001 190.184002,185.374001 L190.184002,185.104001 C190.184002,184.546001 189.842002,184.060001 189.158002,184.060001 C188.492002,184.060001 188.150002,184.546001 188.150002,185.104001 L188.150002,191.836001 C188.150002,192.412001 188.492002,192.880001 189.158002,192.880001 C189.842002,192.880001 190.184002,192.412001 190.184002,191.836001 L190.184002,189.514001 C190.220002,187.498001 190.616002,185.680001 192.362002,185.680001 C193.514002,185.680001 193.892002,186.508001 193.892002,187.696001 L193.892002,191.836001 C193.892002,192.412001 194.234002,192.880001 194.900002,192.880001 Z M202.186002,196.660001 C205.192002,196.660001 206.704002,195.346001 206.704002,193.582001 C206.704002,191.890001 205.138002,191.386001 202.924002,191.296001 C200.746002,191.206001 200.170002,190.900001 200.170002,190.396001 C200.170002,190.144001 200.350002,189.856001 200.656002,189.658001 C201.142002,189.838001 201.700002,189.928001 202.366002,189.928001 C204.742002,189.928001 205.984002,188.668001 205.984002,186.922001 C205.984002,186.400001 205.840002,185.914001 205.624002,185.482001 L206.254002,185.482001 C206.812002,185.482001 207.082002,185.230001 207.082002,184.780001 C207.082002,184.294001 206.812002,184.060001 206.254002,184.060001 L203.770002,184.060001 C203.356002,183.952001 202.888002,183.880001 202.366002,183.880001 C200.008002,183.880001 198.766002,185.122001 198.766002,186.922001 C198.766002,187.750001 199.036002,188.452001 199.558002,188.974001 C198.982002,189.442001 198.586002,190.018001 198.586002,190.702001 C198.586002,191.206001 198.838002,191.800001 199.432002,192.124001 C198.604002,192.592001 198.136002,193.312001 198.136002,194.122001 C198.136002,195.364001 199.036002,196.660001 202.186002,196.660001 Z M202.366002,188.380001 C201.232002,188.380001 200.584002,187.786001 200.584002,186.922001 C200.584002,186.040001 201.232002,185.428001 202.366002,185.428001 C203.500002,185.428001 204.148002,186.040001 204.148002,186.922001 C204.148002,187.786001 203.500002,188.380001 202.366002,188.380001 Z M202.168002,195.094001 C200.530002,195.094001 199.972002,194.464001 199.972002,193.888001 C199.972002,193.330001 200.368002,192.916001 200.944002,192.646001 C201.358002,192.718001 201.808002,192.772001 202.348002,192.808001 C204.112002,192.934001 204.760002,193.132001 204.760002,193.744001 C204.760002,194.464001 204.040002,195.094001 202.168002,195.094001 Z"/>
    <g transform="translate(291 62)">
      <circle cx="28.8" cy="28.8" r="28.8" fill="#FFF"/>
      <use fill="#000" filter="url(#img-sheme-f)" xlink:href="#img-sheme-g"/>
      <use fill="#FFF" xlink:href="#img-sheme-g"/>
      <path fill="#5055FE" fill-rule="nonzero" d="M42.1976744,15 C43.1930714,15 44,15.8284937 44,16.8504925 L44,16.8504925 L44,36.8358112 C44,37.8578099 43.1930714,38.6863036 42.1976744,38.6863036 L42.1976744,38.6863036 L31.7263293,38.6866693 C31.7124474,39.4945354 31.8797456,40.323561 32.230534,41.1763986 C32.5969443,42.0672161 33.0579037,42.7276384 33.6103689,43.1645877 L33.663,43.204 L34.9883721,43.2042882 C35.1874515,43.2042882 35.3488372,43.3824144 35.3488372,43.6021441 C35.3488372,43.7974594 35.2213226,43.9599028 35.0531662,43.99359 L34.9883721,44 L22.0116279,44 C21.8125485,44 21.6511628,43.8218739 21.6511628,43.6021441 C21.6511628,43.4068288 21.7786774,43.2443854 21.9468338,43.2106982 L22.0116279,43.2042882 L23.304,43.204 L23.3745332,43.1322068 C23.8165548,42.6516324 24.2010686,42.0174163 24.5259674,41.2275217 C24.8479392,40.4447432 25.0746239,39.5982422 25.2057228,38.6873489 L14.8023256,38.6863036 C13.8069286,38.6863036 13,37.8578099 13,36.8358112 L13,36.8358112 L13,16.8504925 C13,15.8284937 13.8069286,15 14.8023256,15 L14.8023256,15 Z M25.1901028,41.5154894 C24.9214239,42.1687019 24.6111555,42.7322848 24.2584029,43.2053735 L32.6010253,43.2048425 C32.1968414,42.7403819 31.8523027,42.159457 31.5663986,41.4643663 C31.1793288,40.5233213 30.9915375,39.596493 31.0052955,38.686489 L25.933,38.686 L25.9210504,38.7806055 C25.7815678,39.7577771 25.53802,40.6696323 25.1901028,41.5154894 Z M43.279,33.19 L13.72,33.19 L13.7209302,36.8358112 C13.7209302,37.4081305 14.1426849,37.8793111 14.6844956,37.9395916 L14.8023256,37.9461067 L42.1976744,37.9461067 C42.7949126,37.9461067 43.2790698,37.4490104 43.2790698,36.8358112 L43.2790698,36.8358112 L43.279,33.19 Z M28.5,34.6152202 C28.8981588,34.6152202 29.2209302,34.9466177 29.2209302,35.3554172 C29.2209302,35.7642167 28.8981588,36.0956142 28.5,36.0956142 C28.1018412,36.0956142 27.7790698,35.7642167 27.7790698,35.3554172 C27.7790698,34.9466177 28.1018412,34.6152202 28.5,34.6152202 Z M42.1976744,15.740197 L14.8023256,15.740197 C14.2050874,15.740197 13.7209302,16.2372932 13.7209302,16.8504925 L13.7209302,16.8504925 L13.72,32.394 L43.279,32.394 L43.2790698,16.8504925 C43.2790698,16.2781732 42.8573151,15.8069925 42.3155044,15.7467121 L42.1976744,15.740197 Z"/>
    </g>
    <g transform="translate(149)">
      <circle cx="28.8" cy="28.8" r="28.8" fill="#FFF"/>
      <use fill="#000" filter="url(#img-sheme-h)" xlink:href="#img-sheme-i"/>
      <use fill="#FFF" xlink:href="#img-sheme-i"/>
      <path fill="#5055FE" fill-rule="nonzero" d="M35,14 C36.0543618,14 36.9181651,14.8269032 36.9945143,15.8757476 L37,16.027027 L37,41.972973 C37,43.0415829 36.1841222,43.9170592 35.1492623,43.9944401 L35,44 L23,44 C21.9456382,44 21.0818349,43.1730968 21.0054857,42.1242524 L21,41.972973 L21,16.027027 C21,14.9584171 21.8158778,14.0829408 22.8507377,14.0055599 L23,14 L35,14 Z M36.2,38.324 L21.799,38.324 L21.8,41.972973 C21.8,42.6026895 22.2721997,43.1206276 22.877307,43.18291 L23,43.1891892 L35,43.1891892 C35.6213203,43.1891892 36.1323525,42.7106084 36.1938045,42.097324 L36.2,41.972973 L36.2,38.324 Z M29,39.1351351 C29.8836556,39.1351351 30.6,39.8611599 30.6,40.7567568 C30.6,41.6523536 29.8836556,42.3783784 29,42.3783784 C28.1163444,42.3783784 27.4,41.6523536 27.4,40.7567568 C27.4,39.8611599 28.1163444,39.1351351 29,39.1351351 Z M29,39.9459459 C28.5581722,39.9459459 28.2,40.3089583 28.2,40.7567568 C28.2,41.2045552 28.5581722,41.5675676 29,41.5675676 C29.4418278,41.5675676 29.8,41.2045552 29.8,40.7567568 C29.8,40.3089583 29.4418278,39.9459459 29,39.9459459 Z M35,14.8108108 L23,14.8108108 C22.3786797,14.8108108 21.8676475,15.2893916 21.8061955,15.902676 L21.8,16.027027 L21.799,37.513 L36.2,37.513 L36.2,16.027027 C36.2,15.3973105 35.7278003,14.8793724 35.122693,14.81709 L35,14.8108108 Z M33.6618763,22.6465012 C33.8250862,22.7571687 33.8821453,22.9684068 33.806535,23.144681 L33.7719105,23.2088801 L28.5324574,31.1461558 C28.3986053,31.3489291 28.1253845,31.3827755 27.9475769,31.2354344 L27.8921635,31.1795932 L24.3521245,26.8553349 C24.2110628,26.683024 24.2345328,26.4274401 24.4045462,26.2844721 C24.5556692,26.1573895 24.7717109,26.162064 24.9169266,26.2856911 L24.9677974,26.3376022 L28.1648,30.2437838 L33.1069957,22.7580223 C33.2298367,22.5719299 33.4782652,22.5220002 33.6618763,22.6465012 Z M31.4,16.8378378 C31.6209139,16.8378378 31.8,17.019344 31.8,17.2432432 C31.8,17.4422648 31.6584999,17.6077906 31.4719005,17.642117 L31.4,17.6486486 L26.6,17.6486486 C26.3790861,17.6486486 26.2,17.4671425 26.2,17.2432432 C26.2,17.0442217 26.3415001,16.8786959 26.5280995,16.8443695 L26.6,16.8378378 L31.4,16.8378378 Z"/>
    </g>
    <g transform="translate(291 227)">
      <circle cx="28.8" cy="28.8" r="28.8" fill="#FFF"/>
      <use fill="#000" filter="url(#img-sheme-j)" xlink:href="#img-sheme-k"/>
      <use fill="#FFF" xlink:href="#img-sheme-k"/>
      <path fill="#5055FE" fill-rule="nonzero" d="M31.7980365,15 L31.7980364,18.1701488 C31.7980834,18.237212 31.84493,18.2951476 31.9106798,18.3092699 C33.2612102,18.5999117 34.5473203,19.1347127 35.7036076,19.8859873 C35.759847,19.9220957 35.833633,19.9142196 35.8803364,19.8676997 L35.8803364,19.8676997 L38.1262171,17.6218191 L41.3752941,20.8716619 L39.1322136,23.1197502 C39.0847502,23.1671887 39.0768614,23.2413319 39.1126597,23.2967377 C39.8651931,24.4551845 40.3999762,25.7412516 40.6907692,27.0919426 C40.7048524,27.1575104 40.762788,27.204357 40.8295231,27.2044039 L40.8295231,27.2044039 L44,27.2044039 L44,31.7980365 L40.8298512,31.7980364 C40.762788,31.7980834 40.7048524,31.84493 40.6907219,31.9107175 C40.3999762,33.2611888 39.8651931,34.5472559 39.1140127,35.7036076 C39.0779043,35.759847 39.0857804,35.833633 39.1323003,35.8803364 L39.1323003,35.8803364 L41.3781809,38.1262171 L38.1283381,41.3752941 L35.8802498,39.1322136 C35.8328113,39.0847502 35.7586681,39.0768614 35.7032947,39.1126386 C34.5448799,39.8652873 33.2587698,40.4000883 31.9080574,40.6907692 C31.8424896,40.7048524 31.795643,40.762788 31.7955961,40.8295231 L31.7955961,40.8295231 L31.7955961,44 L27.2019635,44 L27.2019636,40.8298512 C27.2019166,40.762788 27.15507,40.7048524 27.0893471,40.6907359 C25.7389344,40.4002026 24.4529707,39.8653728 23.2967181,39.11383 C23.2404476,39.0776441 23.1665724,39.0855233 23.1197162,39.1322476 L23.1197162,39.1322476 L20.8746405,41.3780388 L17.621913,38.1283749 L19.8671763,35.8802498 C19.9146397,35.8328113 19.9225285,35.7586681 19.8866069,35.7030724 C19.1352265,34.5451741 18.6007704,33.2602373 18.3092308,31.9104978 C18.2951476,31.84493 18.237212,31.7980834 18.1704769,31.7980365 L18.1704769,31.7980365 L15,31.7980365 L15,27.2019635 L18.1701488,27.2019636 C18.237212,27.2019166 18.2951476,27.15507 18.3093107,27.0891311 C18.6004433,25.7390347 19.1349096,24.4532111 19.8853772,23.2963924 C19.9214856,23.240153 19.9136096,23.166367 19.8668264,23.1194002 L19.8668264,23.1194002 L17.6220823,20.8710793 L20.8718726,17.6220549 L23.1199338,19.8679701 C23.1673942,19.9155082 23.2416269,19.9234002 23.2972456,19.8874067 C24.4554111,19.1346272 25.7413748,18.5997974 27.0900715,18.3096367 C27.155413,18.295322 27.2019747,18.2374458 27.2019635,18.1704769 L27.2019635,18.1704769 L27.2019635,15 L31.7980365,15 Z M30.8620645,15.9354839 L28.137,15.9354839 L28.1374474,18.1703991 C28.1375252,18.6379016 27.8371435,19.047246 27.4004636,19.1929947 L27.4004636,19.1929947 L27.2885491,19.2238214 C26.0495465,19.4903854 24.8696759,19.9810913 23.8062843,20.672269 C23.379297,20.9486012 22.8172494,20.8888472 22.4583346,20.5293446 L22.4583346,20.5293446 L20.8720323,18.944 L18.944,20.8710968 L20.5292224,22.4588236 C20.8565752,22.7874586 20.9339628,23.2842795 20.7330846,23.6942117 L20.7330846,23.6942117 L20.6713792,23.8036655 C19.9815058,24.8670892 19.4909751,26.0472123 19.2238547,27.2859536 C19.1172244,27.7823955 18.6785691,28.1370911 18.1704769,28.1374474 L18.1704769,28.1374474 L15.9354839,28.137 L15.9354839,30.8620645 L18.170805,30.8625527 C18.6395103,30.8628815 19.04933,31.1651327 19.193384,31.6016807 L19.193384,31.6016807 L19.223741,31.7135185 C19.4912104,32.9518189 19.9817318,34.1311281 20.6718427,35.19461 C20.9475854,35.6213629 20.8878556,36.1827327 20.5287872,36.5416127 L20.5287872,36.5416127 L18.944,38.1270323 L20.8729677,40.0550645 L22.4586403,38.4703502 C22.7874285,38.142482 23.2848292,38.0650312 23.6950847,38.2663855 L23.6950847,38.2663855 L23.8046197,38.3282342 C24.8672355,39.0189087 26.0471061,39.5096146 27.2859536,39.7761453 C27.7823955,39.8827756 28.1370911,40.3214309 28.1374474,40.8295231 L28.1374474,40.8295231 L28.137,43.0645161 L30.8592581,43.0645161 L30.8601123,40.829195 C30.8604411,40.3604897 31.1626923,39.95067 31.5995123,39.8065573 L31.5995123,39.8065573 L31.711424,39.7761844 C32.9506184,39.5095028 34.1307031,39.0187901 35.19461,38.3275473 C35.6213629,38.0518045 36.1827327,38.1115343 36.5414544,38.4704447 L36.5414544,38.4704447 L38.1279677,40.0522581 L40.0550645,38.1260968 L38.4701675,36.5411764 C38.1428147,36.2125414 38.0654271,35.7157205 38.2664263,35.3056019 L38.2664263,35.3056019 L38.3281678,35.1960925 C39.01869,34.1331055 39.5094052,32.9530146 39.7761453,31.7140464 C39.8827756,31.2176045 40.3214309,30.8629089 40.8295231,30.8625526 L40.8295231,30.8625526 L43.0645161,30.8620645 L43.0645161,28.1398065 L40.829195,28.1398877 C40.3604897,28.1395589 39.95067,27.8373077 39.8065637,27.4005174 L39.8065637,27.4005174 L39.7761925,27.2886138 C39.5094052,26.0494258 39.01869,24.8693349 38.3275473,23.80539 C38.0518045,23.3786371 38.1115343,22.8172673 38.4704447,22.4585456 L38.4704447,22.4585456 L40.0522581,20.8710968 L38.1260968,18.9449355 L36.5411764,20.5298325 C36.2125414,20.8571853 35.7157205,20.9345729 35.3055769,20.7335575 L35.3055769,20.7335575 L35.1960601,20.6718111 C34.1331435,19.9812099 32.9530588,19.4904972 31.7140464,19.2238547 C31.2176045,19.1172244 30.8629089,18.6785691 30.8625526,18.1704769 L30.8625526,18.1704769 L30.8620645,15.9354839 Z M29.5000002,23.8870968 C32.5999211,23.8870968 35.1129032,26.4000791 35.1129032,29.500566 C35.1094665,32.5987494 32.5987497,35.1094662 29.5000002,35.1129032 C26.4000792,35.1129032 23.8870968,32.5999209 23.8870968,29.5 C23.8870968,26.4000791 26.4000792,23.8870968 29.5000002,23.8870968 Z M29.5,24.8225806 C26.9167326,24.8225806 24.8225806,26.9167326 24.8225806,29.4999998 C24.8225806,32.0832671 26.9167326,34.1774194 29.4994235,34.1774194 C32.081822,34.1745548 34.1745551,32.0818217 34.1774194,29.4999998 C34.1774194,26.9167326 32.0832674,24.8225806 29.5,24.8225806 Z"/>
    </g>
    <g transform="translate(150 300)">
      <circle cx="28.8" cy="28.8" r="28.8" fill="#FFF"/>
      <use fill="#000" filter="url(#img-sheme-l)" xlink:href="#img-sheme-m"/>
      <use fill="#FFF" xlink:href="#img-sheme-m"/>
      <path fill="#5055FE" fill-rule="nonzero" d="M29,13 C37.836556,13 45,20.163444 45,29 C45,37.836556 37.836556,45 29,45 C20.163444,45 13,37.836556 13,29 C13,20.163444 20.163444,13 29,13 Z M29,13.8205128 C20.6166007,13.8205128 13.8205128,20.6166007 13.8205128,29 C13.8205128,37.3833993 20.6166007,44.1794872 29,44.1794872 C37.3833993,44.1794872 44.1794872,37.3833993 44.1794872,29 C44.1794872,20.6166007 37.3833993,13.8205128 29,13.8205128 Z M33.9230769,20.3846154 C35.5091254,20.3846154 36.7948718,21.6703617 36.7948718,23.2564103 C36.7948718,24.8424588 35.5091254,26.1282051 33.9230769,26.1282051 C32.8678092,26.1282051 31.94548,25.5590277 31.4463382,24.7109217 L25.2539691,28.4443011 C25.2892189,28.6240879 25.3076923,28.8098866 25.3076923,29 C25.3076923,29.1901134 25.2892189,29.3759121 25.2539691,29.5556989 L31.4463382,33.2890783 C31.94548,32.4409723 32.8678092,31.8717949 33.9230769,31.8717949 C35.5091254,31.8717949 36.7948718,33.1575412 36.7948718,34.7435897 C36.7948718,36.3296383 35.5091254,37.6153846 33.9230769,37.6153846 C32.3370284,37.6153846 31.0512821,36.3296383 31.0512821,34.7435897 C31.0512821,34.5076308 31.0797395,34.2783183 31.1334095,34.0588974 L24.9737416,30.3453025 C24.491362,31.2533971 23.535847,31.8717949 22.4358974,31.8717949 C20.8498489,31.8717949 19.5641026,30.5860485 19.5641026,29 C19.5641026,27.4139515 20.8498489,26.1282051 22.4358974,26.1282051 C23.535847,26.1282051 24.491362,26.7466029 24.9737416,27.6546975 L31.1334095,23.9411026 C31.0797395,23.7216817 31.0512821,23.4923692 31.0512821,23.2564103 C31.0512821,21.6703617 32.3370284,20.3846154 33.9230769,20.3846154 Z M33.9230769,32.6923077 C32.7901851,32.6923077 31.8717949,33.6106979 31.8717949,34.7435897 C31.8717949,35.8764815 32.7901851,36.7948718 33.9230769,36.7948718 C35.0559687,36.7948718 35.974359,35.8764815 35.974359,34.7435897 C35.974359,33.6106979 35.0559687,32.6923077 33.9230769,32.6923077 Z M22.4358974,26.9487179 C21.3030056,26.9487179 20.3846154,27.8671082 20.3846154,29 C20.3846154,30.1328918 21.3030056,31.0512821 22.4358974,31.0512821 C23.5687892,31.0512821 24.4871795,30.1328918 24.4871795,29 C24.4871795,27.8671082 23.5687892,26.9487179 22.4358974,26.9487179 Z M33.9230769,21.2051282 C32.7901851,21.2051282 31.8717949,22.1235185 31.8717949,23.2564103 C31.8717949,24.3893021 32.7901851,25.3076923 33.9230769,25.3076923 C35.0559687,25.3076923 35.974359,24.3893021 35.974359,23.2564103 C35.974359,22.1235185 35.0559687,21.2051282 33.9230769,21.2051282 Z"/>
    </g>
    <g transform="translate(6 67)">
      <use fill="#000" filter="url(#img-sheme-n)" xlink:href="#img-sheme-o"/>
      <use fill="#FFF" xlink:href="#img-sheme-o"/>
      <path fill="#5055FE" fill-rule="nonzero" d="M40.4375,37.7678571 C40.4375,38.4483509 39.9128337,39 39.265625,39 L39.265625,39 L18.171875,39 C17.5246663,39 17,38.4483509 17,37.7678571 L17,37.7678571 L17,18.875 C17,18.1945063 17.5246663,17.6428571 18.171875,17.6428571 L18.171875,17.6428571 L25.0851577,17.6428571 C25.6398641,17.6428571 26.1185854,18.0517796 26.2321922,18.6226507 L26.2321922,18.6226507 L26.6023438,20.4833571 L39.265625,20.4840937 C39.8747626,20.4840937 40.3753505,20.9727518 40.4321355,21.597573 L40.4321355,21.597573 L40.4375,21.7162366 Z M17.78125,24.625 L17.78125,37.7678571 C17.78125,37.9946884 17.9561388,38.1785714 18.171875,38.1785714 L18.171875,38.1785714 L39.265625,38.1785714 C39.4813612,38.1785714 39.65625,37.9946884 39.65625,37.7678571 L39.65625,37.7678571 L39.656,24.6248571 L17.78125,24.625 Z M17.78125,23.8035714 L39.656,23.8028571 L39.65625,21.7162366 C39.65625,21.5177592 39.5223508,21.3521641 39.3443496,21.3138665 L39.265625,21.3055223 L25.9679305,21.3055223 L25.4675025,18.7908836 C25.4296336,18.6005932 25.2700598,18.4642857 25.0851577,18.4642857 L25.0851577,18.4642857 L18.171875,18.4642857 C17.9561388,18.4642857 17.78125,18.6481688 17.78125,18.875 L17.78125,18.875 L17.78125,23.8035714 Z"/>
    </g>
    <g transform="translate(6 236)">
      <circle cx="28.8" cy="28.8" r="28.8" fill="#FFF"/>
      <use fill="#000" filter="url(#img-sheme-p)" xlink:href="#img-sheme-q"/>
      <use fill="#FFF" xlink:href="#img-sheme-q"/>
      <path fill="#5055FE" fill-rule="nonzero" d="M29.2570024,25.7420452 C29.4401283,25.7420452 29.5924338,25.8777299 29.6240187,26.0566603 L29.6300287,26.1256057 L29.63,39.963 L31.8903729,35.3079382 L31.9256698,35.2490351 C32.0315476,35.103519 32.2264283,35.0521955 32.38992,35.1364047 C32.5738481,35.23114 32.6483997,35.4615345 32.5564357,35.6510051 L32.5564357,35.6510051 L29.5777123,41.787973 L29.5417623,41.8481937 C29.3817504,42.0690029 29.0383108,42.0489293 28.9116495,41.787973 L28.9116495,41.787973 L25.932926,35.6510051 L25.9083602,35.5865747 C25.8588793,35.4120105 25.93595,35.2206139 26.0994417,35.1364047 L26.0994417,35.1364047 L26.1619874,35.1110986 C26.3314452,35.0601266 26.517243,35.1395198 26.5989888,35.3079382 L26.5989888,35.3079382 L28.883,40.014 L28.8839761,26.1256057 C28.8839761,25.9137711 29.0509856,25.7420452 29.2570024,25.7420452 Z M30.3617021,14 C34.6874093,14 38.3483673,17.1835189 39.1400228,21.4737537 L39.184,21.737 C43.0551144,22.2488768 46,25.6548804 46,29.7259802 C46,34.174507 42.4992478,37.7807506 38.1808511,37.7807506 L32.355,37.78 L32.727,37.013 L38.1808511,37.0136296 C42.0879719,37.0136296 45.2553191,33.7508378 45.2553191,29.7259802 C45.2553191,25.9643783 42.4761231,22.8300509 38.8675961,22.4722008 L38.845,22.468 L38.8286023,22.4682861 C38.6559151,22.4547667 38.510431,22.3178666 38.4878211,22.1339805 C37.9726343,17.9439873 34.4986241,14.767121 30.3617021,14.767121 C26.8909423,14.767121 23.8437304,17.0107339 22.6730598,20.2871923 L22.585,20.545 L22.5828619,20.5928992 C22.5740795,20.6473081 22.5541042,20.6980724 22.5253425,20.7424292 C22.4661537,20.9393713 22.2580247,21.0534409 22.0613567,20.9915584 C22.0220231,20.979182 21.9861269,20.9607047 21.9543471,20.9374414 C19.6851653,21.1802532 17.7859141,22.8357767 17.167761,25.0877014 C17.1717415,25.0961904 17.1727551,25.1047745 17.1734937,25.1134516 C17.1914564,25.3244764 17.0399528,25.5105464 16.8351009,25.5290504 C13.9650893,25.7882946 11.7446809,28.272319 11.7446809,31.2602222 C11.7446809,34.4377413 14.2452182,37.0136296 17.3297872,37.0136296 L25.761,37.013 L26.133,37.78 L16.7763672,37.7807506 L16.7765231,37.7561866 C13.5397649,37.4674686 11,34.6693799 11,31.2602222 C11,27.9776052 13.3643308,25.231926 16.4728986,24.7989492 L16.42,24.996 L16.4774964,24.7857408 C17.2089904,22.265086 19.3613149,20.4243585 21.9242188,20.1677371 C23.1619797,16.5137633 26.5244279,14 30.3617021,14 Z"/>
    </g>
    <g fill="#5055FE" transform="translate(145 213)">
      <circle cx="5" cy="5" r="5" opacity=".103"/>
      <circle cx="5" cy="5" r="2.143"/>
    </g>
    <g fill="#5055FE" transform="translate(219 275)">
      <circle cx="5" cy="5" r="5" opacity=".103"/>
      <circle cx="5" cy="5" r="2.143"/>
    </g>
    <g fill="#5055FE" transform="translate(127 70)">
      <circle cx="5" cy="5" r="5" opacity=".103"/>
      <circle cx="5" cy="5" r="2.143"/>
    </g>
    <g fill="#5055FE" transform="translate(198 133)">
      <circle cx="5" cy="5" r="5" opacity=".103"/>
      <circle cx="5" cy="5" r="2.143"/>
    </g>
  </g>
</svg>
