<?xml version="1.0" encoding="UTF-8"?>
<svg width="160px" height="50px" viewBox="0 0 160 50" version="1.1" xmlns="http://www.w3.org/2000/svg" xmlns:xlink="http://www.w3.org/1999/xlink">
    <title>less</title>
    <defs>
        <rect id="path-1" x="0" y="0" width="160" height="50"></rect>
    </defs>
    <g id="Page-1" stroke="none" stroke-width="1" fill="none" fill-rule="evenodd">
        <g id="a1qa-Agile-testing-V5-" transform="translate(-979.000000, -811.000000)">
            <g id="Group" transform="translate(375.000000, 707.000000)">
                <g id="less" transform="translate(604.000000, 104.000000)">
                    <mask id="mask-2" fill="white">
                        <use xlink:href="#path-1"></use>
                    </mask>
                    <use id="Mask" fill-opacity="0" fill="#D8D8D8" xlink:href="#path-1"></use>
                    <path d="M38.782701,30.101215 C38.782701,28.588135 37.810007,26.966978 35,26.858899 L35,23.076199 C37.810007,22.968122 38.782701,21.346964 38.782701,19.833884 C38.782701,17.131952 38.350392,15.402718 38.350392,12.268478 C38.350392,7.513081 40.079628,6 43.970408,6 L54.345817,6 L54.345817,9.458471 L45.915797,9.458471 C44.078483,9.458471 43.538099,10.106934 43.538099,12.484631 C43.538099,14.862331 43.754252,17.023876 43.754252,19.617727 C43.754252,22.968121 42.67348,24.265048 40.511936,24.805432 L40.511936,25.021588 C42.67348,25.561974 43.754252,26.858899 43.754252,30.209292 C43.754252,32.911221 43.538099,34.964688 43.538099,37.342386 C43.538099,39.720084 44.078483,40.476627 45.915797,40.476627 L46.780415,40.476627 L46.780415,43.827018 L43.970408,43.827018 C40.079628,43.827018 38.350392,42.313939 38.350392,37.558543 C38.350392,34.424305 38.782701,32.803147 38.782701,30.101215 Z M47.969262,6.324232 L54.453896,6.324232 L54.453896,30.641601 C54.453896,32.046605 55.102357,32.478913 55.642743,32.478913 C55.858897,32.478913 56.075053,32.478913 56.399284,32.370837 L57.155822,37.126232 C56.399284,37.450463 55.318511,37.666617 53.913507,37.666617 C49.482342,37.666617 47.969262,34.748534 47.969262,30.317369 L47.969262,6.324232 Z M66.234308,14.754253 C72.394707,14.754253 75.528948,19.293497 75.528948,25.237741 C75.528948,26.42659 75.420871,27.399285 75.312792,27.939673 L62.019297,27.939673 C62.559684,31.290063 64.829305,32.695069 67.747389,32.695069 C69.368548,32.695069 70.881629,32.26276 72.502785,31.290063 L74.66433,35.180843 C72.394707,36.693922 69.476624,37.666619 66.882772,37.666619 C60.614294,37.666619 55.858897,33.451607 55.858897,26.210438 C55.750821,19.185419 60.938527,14.754253 66.234308,14.754253 L66.234308,14.754253 Z M70.017009,23.940816 C70.017009,21.45504 68.936239,19.617727 66.342385,19.617727 C64.288917,19.617727 62.559684,21.022732 62.127376,23.940816 L70.017009,23.940816 Z M79.20357,30.641601 C81.148961,32.154681 82.986272,32.911221 84.823585,32.911221 C86.768975,32.911221 87.633591,32.154681 87.633591,31.07391 C87.633591,29.668906 85.472047,28.912367 83.202428,28.047749 C80.608575,27.075055 77.474339,25.237741 77.474339,21.671195 C77.474339,17.672338 80.824729,14.862331 85.796279,14.862331 C89.146671,14.862331 91.632448,16.267336 93.46976,17.672338 L90.551675,21.563117 C88.930518,20.374269 87.525515,19.725805 85.904357,19.725805 C84.283199,19.725805 83.418581,20.374269 83.418581,21.455042 C83.418581,22.860043 85.472047,23.40043 87.741669,24.265048 C90.551675,25.237741 93.685914,26.858899 93.685914,30.857757 C93.685914,34.856613 90.551675,37.882773 84.715508,37.882773 C81.905501,37.882773 78.555108,36.693924 76.393564,34.856613 L79.20357,30.641601 Z M96.820154,30.641601 C98.765541,32.154681 100.602855,32.911221 102.440168,32.911221 C104.385557,32.911221 105.250174,32.154681 105.250174,31.07391 C105.250174,29.668906 103.088629,28.912367 100.819008,28.047749 C98.225156,27.075055 95.090916,25.237741 95.090916,21.671195 C95.090916,17.672338 98.441311,14.862331 103.412859,14.862331 C106.763255,14.862331 109.249028,16.267336 111.08634,17.672338 L108.168258,21.563117 C106.547099,20.374269 105.142097,19.725805 103.520937,19.725805 C101.89978,19.725805 101.035162,20.374269 101.035162,21.455042 C101.035162,22.860043 103.088629,23.40043 105.250174,24.265048 C108.060182,25.237741 111.194418,26.858899 111.194418,30.857757 C111.194418,34.856613 108.060182,37.882773 102.224012,37.882773 C99.414006,37.882773 96.063613,36.693924 93.90207,34.856613 L96.820154,30.641601 Z M112.815574,40.368549 C114.652887,40.368549 115.193271,39.720085 115.193271,37.234311 C115.193271,34.856613 114.977121,32.695069 114.977121,30.101215 C114.977121,26.750823 116.057891,25.453895 118.219442,24.91351 L118.219442,24.697357 C116.057891,24.156969 114.977121,22.860043 114.977121,19.509653 C114.977121,16.915799 115.193271,14.646179 115.193271,12.376555 C115.193271,9.998855 114.760969,9.350393 112.815574,9.350393 L111.95096,9.350393 L111.95096,6 L114.760969,6 C118.651741,6 120.380996,7.513081 120.380996,12.268477 C120.380996,15.29464 119.948676,17.023875 119.948676,19.833883 C119.948676,21.346963 120.921366,22.96812 123.731376,23.076198 L123.731376,26.858899 C120.921366,26.966975 119.948676,28.588133 119.948676,30.101214 C119.948676,32.911221 120.380996,34.532379 120.380996,37.66662 C120.380996,42.422016 118.651742,43.935096 114.760969,43.935096 L111.95096,43.935096 L111.95096,40.476628 L112.815574,40.368549 Z" id="path2" fill="#000000" fill-rule="nonzero" mask="url(#mask-2)"></path>
                </g>
            </g>
        </g>
    </g>
</svg>