<svg xmlns="http://www.w3.org/2000/svg" width="123" height="39" viewBox="0 0 123 39">
  <path d="M12.8182755,5.60975721 L12.162159,8.789238 L6.20621055,8.789238 L5.85339974,10.2527753 L10.9001282,10.2527753 L10.3960132,12.7761396 L5.24748553,12.7761396 L4.84377514,14.6942869 L10.7990263,14.6942869 L10.143607,17.8730704 L0.200757019,17.8730704 L2.92632509,5.60975721 L12.8182755,5.60975721 L12.8182755,5.60975721 Z M23.9220544,5.60975721 L13.4241898,5.60975721 L12.7680732,8.789238 L15.947554,8.789238 L13.9290021,17.8730704 L17.966106,17.8730704 L19.8842533,8.789238 L23.164836,8.789238 L23.9220544,5.60975721 L23.9220544,5.60975721 Z M39.1640391,5.50865529 L36.4886733,17.8730704 L32.4508722,17.8730704 L35.2273398,5.50865529 L39.1640391,5.50865529 Z"/>
  <polygon points="29.423 9.294 29.423 8.991 29.322 8.637 29.17 8.284 28.969 8.032 28.919 7.982 28.716 7.982 28.464 7.881 27.707 7.881 27.454 7.982 27.203 7.982 27.051 8.032 26.95 8.234 26.899 8.284 26.799 8.487 26.799 8.991 26.95 9.243 27.303 9.496 27.657 9.647 28.161 9.748 28.716 10 29.221 10.051 30.432 10.404 30.987 10.656 31.492 11.01 31.946 11.313 32.35 11.767 32.602 12.322 32.703 13.029 32.602 13.786 32.602 14.291 32.451 14.795 32.098 15.603 31.846 16.057 30.836 17.066 29.978 17.57 29.574 17.621 29.07 17.823 28.464 17.975 27.454 18.126 26.799 18.126 26.042 18.075 25.284 18.075 24.679 17.873 23.669 17.369 23.265 17.117 22.912 16.864 22.609 16.46 22.357 16.107 22.155 15.703 22.004 15.35 21.853 14.946 21.853 14.542 21.752 14.038 21.752 13.18 25.436 13.18 25.436 13.685 25.537 13.836 25.789 14.593 25.941 14.846 26.142 14.946 26.395 15.047 26.445 15.098 26.647 15.098 26.799 15.199 27.657 15.199 27.909 15.098 28.161 14.946 28.313 14.946 28.665 14.291 28.665 13.937 28.464 13.685 28.212 13.432 27.909 13.331 27.454 13.281 26.899 13.029 26.395 12.927 25.789 12.776 25.284 12.574 24.679 12.322 24.174 12.019 23.77 11.665 23.417 11.06 23.265 10.555 23.114 9.798 23.114 8.991 23.265 8.487 23.366 7.982 23.518 7.628 23.77 7.275 24.022 6.871 24.174 6.619 24.527 6.265 24.881 6.013 25.284 5.76 25.688 5.61 26.142 5.509 26.546 5.357 27.555 5.206 29.928 5.206 30.432 5.357 30.937 5.458 31.442 5.61 31.745 5.76 32.098 6.013 32.35 6.265 32.602 6.619 32.754 6.871 32.855 7.275 33.007 7.628 33.007 7.982 33.208 8.386 33.208 9.294"/>
  <polygon points="73.735 38.162 73.332 38.162 72.827 38.061 72.222 38.061 71.565 37.91 70.708 37.809 69.951 37.658 69.042 37.405 68.083 37.153 67.073 36.8 66.064 36.548 65.054 36.144 63.995 35.79 62.884 35.387 61.724 34.882 59.503 33.873 58.443 33.267 56.222 31.955 55.314 31.198 54.305 30.491 52.538 28.724 51.68 27.816 50.923 26.908 50.267 25.898 49.661 24.889 49.157 23.778 48.501 21.407 48.349 20.246 48.349 18.883 48.4 17.57 48.601 16.309 48.905 15.098 49.359 13.937 49.863 12.826 50.418 11.817 51.125 10.808 51.933 9.899 52.689 8.991 54.557 7.275 55.566 6.619 56.576 5.861 59.856 4.095 61.017 3.49 62.026 3.086 63.238 2.582 65.407 1.925 67.427 1.218 68.436 .966 69.345 .815 70.202 .562 70.96 .411 71.818 .31 72.373 .159 72.979 .159 73.383 .058 73.735 .058 73.332 .058 72.827 .159 72.222 .21 71.565 .31 70.859 .461 70.202 .714 69.345 .916 68.537 1.218 67.679 1.421 66.821 1.824 65.812 2.178 64.904 2.582 64.046 3.086 63.037 3.49 62.026 4.095 61.219 4.6 60.21 5.206 59.251 5.861 58.443 6.518 57.585 7.275 56.727 7.982 55.97 8.789 55.213 9.546 53.901 11.414 52.892 13.281 52.437 14.341 52.134 15.451 51.882 16.46 51.68 17.57 51.63 18.832 51.68 20.346 51.882 21.76 52.185 23.123 53.043 25.646 53.699 26.706 54.305 27.816 55.061 28.826 55.819 29.734 57.687 31.45 58.696 32.207 59.604 32.863 60.614 33.519 61.623 34.125 62.733 34.629 64.753 35.639 65.762 36.043 66.77 36.396 67.679 36.75 68.587 37.002 69.445 37.254 70.303 37.506 71.061 37.658 71.717 37.809 72.323 37.91 72.827 38.061 73.231 38.061 73.483 38.162 73.735 38.162"/>
  <polygon points="67.679 38.162 67.427 38.162 67.175 38.061 66.77 38.061 66.267 37.91 65.56 37.91 64.904 37.658 64.247 37.506 63.389 37.254 62.481 37.002 61.522 36.75 60.614 36.396 59.503 36.043 58.494 35.639 55.213 34.125 54.154 33.519 53.144 32.964 52.033 32.257 51.125 31.601 50.116 30.844 48.248 29.178 47.39 28.22 46.633 27.21 45.977 26.201 45.371 25.192 44.867 24.031 44.463 22.87 44.11 21.507 43.857 20.246 43.807 18.883 43.857 17.57 44.059 16.208 44.362 14.946 44.816 13.786 45.321 12.574 45.877 11.514 46.583 10.555 47.34 9.546 48.147 8.637 49.106 7.78 50.923 6.265 51.933 5.61 53.043 4.953 54.154 4.348 55.213 3.843 56.323 3.237 58.494 2.43 59.503 2.077 60.614 1.673 61.522 1.421 62.531 1.168 63.389 .916 64.247 .663 65.004 .562 65.762 .31 66.267 .21 66.821 .159 67.276 .159 67.528 .058 67.679 .058 67.427 .058 67.175 .159 66.821 .159 66.317 .31 65.762 .411 65.156 .562 64.499 .815 63.792 .966 62.986 1.32 62.229 1.673 61.27 1.925 60.462 2.329 59.503 2.733 58.696 3.187 57.737 3.692 56.727 4.196 55.819 4.751 54.96 5.357 54.053 6.013 53.194 6.72 51.528 8.234 50.873 9.042 50.116 10 49.51 10.909 48.905 11.918 48.4 12.826 47.996 13.937 47.643 15.098 47.39 16.309 47.239 17.469 47.239 18.731 47.34 20.095 47.491 21.356 47.744 22.618 48.097 23.678 48.501 24.889 49.106 25.898 49.661 26.958 50.267 27.917 51.024 28.826 51.781 29.684 52.639 30.491 54.305 32.005 55.213 32.712 56.071 33.267 56.98 33.973 57.938 34.377 58.847 34.983 59.705 35.487 60.614 35.79 61.522 36.244 62.38 36.548 63.137 36.901 63.995 37.153 64.65 37.506 65.307 37.658 65.913 37.809 66.418 37.91 66.821 38.061 67.276 38.061 67.528 38.162 67.679 38.162"/>
  <polygon points="63.641 38.162 63.137 38.162 62.733 38.061 62.229 38.01 61.623 37.91 60.109 37.557 59.251 37.405 58.342 37.153 57.333 36.8 56.323 36.548 55.314 36.144 54.204 35.79 53.144 35.387 51.933 34.983 50.873 34.377 49.863 33.873 48.753 33.267 47.592 32.611 46.583 31.854 45.472 31.097 43.605 29.431 42.696 28.473 41.94 27.412 41.183 26.403 40.577 25.293 40.072 24.132 39.668 22.87 39.264 21.507 39.063 20.246 39.012 18.731 39.063 17.319 39.264 15.956 39.517 14.593 39.921 13.432 40.577 12.271 41.183 11.161 41.839 10.152 42.696 9.143 43.605 8.234 44.614 7.376 46.633 5.861 47.744 5.206 48.905 4.6 50.015 3.994 51.176 3.439 52.387 2.985 53.548 2.48 55.718 1.824 56.828 1.421 57.837 1.218 58.847 .966 59.705 .815 60.614 .562 61.27 .411 61.975 .31 62.531 .21 62.986 .159 63.389 .159 63.54 .058 63.641 .058 63.49 .058 63.288 .159 62.986 .159 61.975 .461 61.37 .562 60.714 .815 59.957 1.067 59.2 1.32 58.342 1.673 57.434 1.976 55.566 2.833 54.557 3.237 53.648 3.742 52.639 4.247 51.68 4.953 50.671 5.509 48.854 6.871 47.895 7.628 47.088 8.386 46.33 9.294 45.573 10.152 44.867 11.06 44.211 12.069 43.807 13.029 43.302 14.088 42.949 15.199 42.696 16.359 42.545 17.57 42.545 18.883 42.596 20.246 43.101 22.618 43.555 23.88 44.059 24.939 45.22 26.958 45.977 27.917 46.633 28.826 47.39 29.684 48.349 30.491 49.157 31.248 50.116 32.005 51.024 32.712 51.933 33.267 52.942 33.873 53.901 34.377 54.91 34.983 56.727 35.79 57.585 36.244 58.494 36.548 59.251 36.901 60.008 37.153 60.765 37.506 61.471 37.658 62.026 37.809 62.531 37.91 62.986 38.061 63.288 38.061 63.49 38.162 63.641 38.162"/>
  <path d="M37.9020083,19.8421173 L38.0031103,21.1034508 L38.1544145,22.2643796 L38.4068206,23.4253085 L38.810531,24.5353377 L39.3153433,25.5449623 L39.9205603,26.5545869 L41.283693,28.4218347 L43.8070572,30.9458962 L45.6241026,32.257432 L46.5828276,32.8633462 L47.5924522,33.5194627 L48.6013796,34.1246797 L49.6110042,34.629492 L50.6206288,35.0332024 L51.5284542,35.4871151 L52.5380788,35.9926247 L53.4466015,36.2945359 L55.162545,37.001552 L55.9197634,37.2539582 L56.6762846,37.5063643 L57.8372135,37.8089728 L58.3420258,37.9100747 L58.7464334,38.0613789 L58.9981423,38.0613789 L59.2003461,38.1624809 L59.2505485,38.1624809 L59.0992442,38.1624809 L58.8468381,38.0613789 L58.4431277,38.0613789 L57.989215,38.0104794 L57.4335031,37.9100747 L56.0710677,37.5572639 L55.2134446,37.3048577 L54.3049219,37.0517543 L53.4466015,36.8000454 L52.4369769,36.5476393 L51.4280496,36.1439289 L50.418425,35.7904208 L48.2478715,34.9830001 L46.0780153,33.9733755 L44.9672888,33.2670566 L43.8572595,32.712042 L42.7974326,32.0050258 L41.787808,31.3489093 L40.7781834,30.5923881 L39.8194584,29.8351696 L38.810531,28.926647 L38.0533126,28.0690238 L36.5388757,26.0497746 L35.8827591,25.04015 L35.3779468,23.9301208 L34.9742364,22.66809 L34.5203237,21.5071612 L34.2679176,20.2458277 L0.0494527797,20.2458277 L0.0494527797,19.8421173 L37.9020083,19.8421173 L37.9020083,19.8421173 Z M83.5770628,0.0575191434 L83.9814705,0.0575191434 L84.4855855,0.158621055 L85.0914997,0.158621055 L87.3631551,0.663433356 L88.2709805,0.814737596 L89.2297055,1.06714375 L90.2393301,1.42065181 L91.1471556,1.67305796 L92.2585793,2.07676835 L93.3184063,2.43027641 L94.3273336,2.83328955 L97.6079163,4.34772645 L98.7179456,4.95294341 L99.7282674,5.60975721 L100.838297,6.26517649 L101.847224,7.02239494 L102.755747,7.7796134 L103.61337,8.63723651 L104.521893,9.49555687 L105.379516,10.4040796 L106.036329,11.2623999 L106.642244,12.3222269 L107.29836,13.3311542 L107.701373,14.4418807 L108.156681,15.6028096 L108.408389,16.7128388 L108.559694,18.0752742 L108.559694,20.6495381 L108.408389,21.9115688 L108.055579,23.1227 L107.651171,24.2836288 L107.045257,25.3936581 L106.541142,26.4032827 L105.885025,27.41221 L105.127807,28.3207327 L103.411863,29.9864739 L102.503341,30.844097 L101.494413,31.6013154 L99.475164,32.9637509 L97.3053079,34.1246797 L94.0247251,35.6391166 L92.9133014,35.9926247 L91.8039694,36.3963351 L90.7943448,36.7498431 L89.8865193,37.001552 L88.8768947,37.2539582 L87.9690693,37.5063643 L87.1093544,37.6576686 L86.3535305,37.9100747 L85.596312,37.9100747 L84.9903978,38.0613789 L84.4346859,38.0613789 L83.9814705,38.1624809 L83.5770628,38.1624809 L83.9814705,38.1624809 L84.4855855,38.0613789 L85.0914997,38.0613789 L86.4546324,37.7587705 L87.2118508,37.5572639 L87.9690693,37.3048577 L88.7764901,37.001552 L89.6341132,36.7498431 L90.4924335,36.3963351 L91.4009562,36.042827 L92.3087817,35.6391166 L94.1760294,34.629492 L95.0845521,34.2257816 L96.0432771,33.5194627 L96.9511025,33.0139532 L98.6168437,31.7024174 L99.5755687,30.9458962 L100.332787,30.23888 L101.847224,28.5731389 L102.503341,27.7155158 L103.109255,26.8069931 L103.61337,25.8984704 L104.118879,24.8888458 L104.521893,23.8799184 L104.876098,22.8702938 L105.127807,21.7602646 L105.279111,20.5993357 L105.279111,17.8730704 L105.127807,16.4604327 L104.774996,15.0979973 L104.370588,13.8359665 L103.866473,12.5739358 L103.361661,11.5141088 L102.654645,10.4040796 L101.897426,9.39445496 L101.140208,8.48662952 L100.332787,7.52720725 L98.4655394,6.0134676 L97.4566121,5.3566538 L96.5480894,4.70123451 L94.5288402,3.49010334 L93.5199128,2.98529104 L92.4098836,2.58158065 L91.5013609,2.17787026 L90.4924335,1.8243622 L89.532314,1.47085414 L88.6237913,1.21844799 L87.7661682,0.966041835 L87.0089498,0.814737596 L86.2517313,0.562331445 L85.596312,0.411027205 L84.9903978,0.309925294 L84.4855855,0.209520637 L84.182977,0.158621055 L83.8301662,0.158621055 L83.6774675,0.0575191434 L83.5770628,0.0575191434 L83.5770628,0.0575191434 Z"/>
  <polygon points="89.23 .058 89.381 .058 89.735 .159 90.138 .159 90.744 .31 91.298 .411 92.005 .562 92.763 .714 93.52 .966 94.428 1.218 95.437 1.471 96.347 1.824 97.356 2.178 98.466 2.582 99.576 3.086 100.637 3.49 101.646 4.095 103.866 5.256 105.885 6.619 106.894 7.376 108.711 9.042 109.468 10 110.326 11.01 110.932 11.918 111.589 13.029 112.092 14.189 112.496 15.35 112.849 16.612 113.002 17.975 113.103 19.337 113.103 20.65 112.849 21.912 112.597 23.274 112.194 24.435 111.083 26.655 110.427 27.665 109.67 28.674 108.811 29.582 107.904 30.44 106.944 31.198 105.935 31.955 104.926 32.611 103.866 33.267 102.756 33.873 101.646 34.377 100.637 34.983 98.466 35.79 97.356 36.144 96.347 36.548 95.336 36.8 94.428 37.153 93.52 37.305 92.662 37.557 91.904 37.759 91.248 37.91 90.644 38.01 90.138 38.061 89.735 38.061 89.381 38.162 89.23 38.162 89.381 38.162 89.735 38.061 90.138 38.061 90.543 37.91 91.147 37.809 91.753 37.658 92.41 37.506 93.066 37.254 93.924 37.002 96.448 35.993 97.356 35.487 98.315 35.033 99.223 34.528 100.131 33.973 101.09 33.469 101.999 32.863 102.856 32.207 103.765 31.5 106.137 29.178 107.45 27.312 107.954 26.301 108.56 25.293 108.964 24.182 109.216 23.123 109.468 21.912 109.67 20.75 109.67 18.126 109.417 16.864 109.216 15.603 108.811 14.442 108.408 13.331 107.904 12.322 107.298 11.262 105.935 9.394 105.128 8.537 104.371 7.729 103.513 6.871 102.604 6.265 101.746 5.509 100.838 4.953 99.98 4.247 98.971 3.742 98.063 3.237 97.205 2.733 96.295 2.329 93.773 1.32 93.014 .966 92.259 .815 91.653 .562 91.047 .411 90.492 .31 90.037 .159 89.634 .159 89.381 .058 89.23 .058"/>
  <polygon points="93.318 .058 93.52 .058 93.823 .159 94.176 .159 95.336 .31 96.851 .663 97.708 .916 98.617 1.067 99.576 1.421 100.637 1.673 101.646 1.976 104.926 3.237 106.036 3.843 107.148 4.348 108.207 4.953 109.417 5.61 111.437 7.123 112.446 7.982 114.212 9.748 115.02 10.757 115.727 11.767 116.282 12.826 116.887 14.088 117.291 15.3 117.644 16.612 117.796 17.975 117.998 19.489 117.897 20.852 117.745 22.264 117.393 23.526 116.988 24.788 116.384 25.949 115.777 27.059 115.02 28.069 114.212 29.078 112.346 30.743 111.336 31.601 110.326 32.257 109.166 33.014 108.056 33.62 106.894 34.226 105.684 34.731 104.522 35.286 103.412 35.74 102.353 36.043 101.14 36.396 100.131 36.75 99.122 37.002 98.113 37.254 97.205 37.506 96.347 37.658 95.589 37.809 94.933 37.91 94.327 38.061 93.924 38.061 93.57 38.162 93.318 38.162 93.419 38.162 93.671 38.061 94.025 38.061 94.428 37.91 95.034 37.809 95.589 37.658 96.951 37.153 97.809 36.901 98.617 36.548 99.576 36.244 100.383 35.79 101.394 35.387 102.353 34.983 103.261 34.377 104.27 33.973 105.279 33.267 106.188 32.712 107.148 32.005 108.157 31.349 108.964 30.592 109.923 29.835 110.68 28.927 111.336 28.069 111.992 27.16 112.698 26.151 113.203 25.141 113.606 24.132 113.961 22.92 114.212 21.76 114.364 20.599 114.364 19.337 114.263 18.075 114.112 16.713 113.455 14.341 112.95 13.281 112.346 12.17 111.739 11.262 110.983 10.303 110.326 9.294 109.417 8.537 108.66 7.729 107.701 6.871 106.894 6.265 105.935 5.509 104.926 4.953 104.018 4.247 103.009 3.742 101.14 2.733 100.131 2.329 97.608 1.32 96.851 1.067 95.539 .562 94.933 .411 94.428 .31 93.924 .159 93.671 .159 93.419 .058 93.318 .058"/>
  <polygon points="100.637 19.994 100.586 21.154 100.383 22.365 100.131 23.526 99.728 24.636 99.324 25.646 98.818 26.555 98.214 27.462 97.457 28.422 96.699 29.229 96.043 30.087 94.327 31.601 93.419 32.207 91.552 33.519 90.644 34.024 89.634 34.629 87.766 35.487 86.858 35.993 85.999 36.295 85.091 36.648 84.334 37.002 83.577 37.254 82.82 37.506 81.66 37.809 81.154 37.91 80.701 38.061 80.397 38.061 80.145 38.162 80.044 38.162 80.296 38.162 80.651 38.061 81.154 38.061 81.66 38.01 82.316 37.91 82.973 37.658 84.688 37.305 85.496 37.052 86.505 36.8 87.464 36.396 88.472 36.043 89.482 35.639 90.543 35.235 91.653 34.731 92.662 34.125 93.773 33.519 94.782 32.863 95.842 32.207 97.708 30.693 98.617 29.835 99.576 28.826 100.333 27.816 101.09 26.706 101.646 25.696 102.353 24.535 102.756 23.274 103.16 21.912 103.412 20.599 103.613 19.135 103.664 17.57 56.475 17.57 56.475 16.359 56.727 15.199 56.929 14.088 57.333 13.029 57.737 12.019 58.948 10.152 59.604 9.294 60.361 8.386 61.118 7.628 61.975 6.871 62.884 6.215 63.792 5.61 64.65 4.953 65.56 4.348 66.569 3.843 67.528 3.439 68.537 2.934 70.354 2.077 71.314 1.723 72.121 1.421 72.979 1.218 73.735 .966 74.391 .714 75.098 .562 75.654 .31 76.158 .31 76.613 .159 76.915 .159 77.168 .058 77.269 .058 77.016 .058 76.663 .159 76.158 .159 74.997 .31 73.483 .663 72.625 .916 71.717 1.168 70.708 1.421 69.699 1.673 68.688 2.077 67.679 2.43 66.569 2.833 65.51 3.439 64.499 3.843 63.389 4.499 62.279 5.105 60.26 6.467 59.251 7.275 58.443 8.133 57.484 8.991 55.97 11.01 55.314 12.069 54.709 13.281 54.204 14.442 53.901 15.703 53.548 17.066 53.396 18.48 53.295 19.994 100.637 19.994"/>
  <polygon points="119.007 18.328 118.907 17.066 118.754 15.855 118.503 14.795 117.644 12.574 116.988 11.665 116.282 10.656 115.626 9.748 114.768 8.89 113.961 8.133 113.103 7.275 112.194 6.619 111.184 5.963 110.225 5.256 109.216 4.701 108.157 4.095 107.148 3.591 106.188 3.187 105.178 2.682 104.27 2.329 103.261 1.925 101.596 1.218 100.838 .966 100.081 .815 99.374 .562 98.818 .411 98.315 .31 97.961 .159 97.608 .159 97.457 .058 97.356 .058 97.558 .058 97.809 .159 98.214 .159 98.617 .31 99.223 .31 99.88 .562 100.637 .714 101.494 .966 102.353 1.218 103.261 1.421 105.279 2.077 106.391 2.48 107.45 2.985 108.56 3.439 109.67 3.944 110.73 4.499 111.84 5.004 114.011 6.366 115.02 7.123 116.13 7.881 117.038 8.637 117.998 9.496 118.907 10.404 120.42 12.423 121.026 13.432 122.035 15.804 122.339 16.965 122.591 18.328 119.007 18.328"/>
</svg>
