<svg xmlns="http://www.w3.org/2000/svg" xmlns:xlink="http://www.w3.org/1999/xlink" width="204" height="126" viewBox="0 0 204 126">
  <defs>
    <polygon id="logo-world-economic-forum-a" points="0 .894 203.084 .894 203.084 126 0 126"/>
    <polygon id="logo-world-economic-forum-c" points="0 .894 203.084 .894 203.084 126 0 126"/>
    <polygon id="logo-world-economic-forum-e" points="0 .894 203.084 .894 203.084 126 0 126"/>
    <polygon id="logo-world-economic-forum-g" points="0 .894 203.084 .894 203.084 126 0 126"/>
    <polygon id="logo-world-economic-forum-i" points="0 .894 203.084 .894 203.084 126 0 126"/>
    <polygon id="logo-world-economic-forum-k" points="0 .894 203.084 .894 203.084 126 0 126"/>
    <polygon id="logo-world-economic-forum-m" points="0 .894 203.084 .894 203.084 126 0 126"/>
    <polygon id="logo-world-economic-forum-o" points="0 .894 203.084 .894 203.084 126 0 126"/>
    <polygon id="logo-world-economic-forum-q" points="0 .894 203.084 .894 203.084 126 0 126"/>
    <polygon id="logo-world-economic-forum-s" points="0 .894 203.084 .894 203.084 126 0 126"/>
    <polygon id="logo-world-economic-forum-u" points="0 .894 203.084 .894 203.084 126 0 126"/>
    <polygon id="logo-world-economic-forum-w" points="0 .894 203.084 .894 203.084 126 0 126"/>
  </defs>
  <g fill="none" fill-rule="evenodd">
    <mask id="logo-world-economic-forum-b" fill="#fff">
      <use xlink:href="#logo-world-economic-forum-a"/>
    </mask>
    <path fill="#004B86" fill-rule="nonzero" d="M163.235943,108.499985 C163.215127,108.5166 163.19431,108.531831 163.173494,108.548446 L162.621167,107.8866 C151.236024,117.250754 136.774229,122.315677 121.85031,122.315677 C104.772596,122.315677 88.7717796,115.868908 76.7718612,104.048446 C64.7719428,92.3830616 58.1551266,76.7258308 58.1551266,60.1464462 C58.1551266,47.4066 62.0019836,34.9727538 69.5402694,24.5341384 C76.925902,14.2492154 87.0801062,6.5742923 99.0800244,2.12275384 L98.6192898,0.8946 C86.4639428,5.49983076 76.0030448,13.3284462 68.6174122,23.7670616 C60.9250858,34.511677 56.7715346,47.0992154 56.7715346,60.1464462 C56.7715346,77.0318308 63.541004,92.9964462 75.849004,104.969215 C77.0063918,106.096292 78.2109632,107.158292 79.436351,108.188446 L77.8487592,110.035523 C90.0027184,120.320446 105.695453,126.000138 121.85031,126.000138 C137.697086,126.000138 152.927698,120.474138 165.083045,110.650292 L163.235943,108.499985 Z" mask="url(#logo-world-economic-forum-b)"/>
    <path fill="#141414" fill-rule="nonzero" d="M70.1560164 21.771277C69.8493224 20.6968154 69.6952816 19.7760462 69.6952816 18.7015846 69.6952816 14.0963538 72.7719346 9.95081538 78.3104654 9.95081538 79.541404 9.95081538 80.618302 10.1045077 81.5411592 10.4118923 82.4640164 9.64481538 83.5409142 8.87635384 84.6178122 8.26296924 82.772098 7.1885077 80.618302 6.57512308 78.3104654 6.57512308 71.540996 6.57512308 65.8484244 11.9474308 65.8484244 18.7015846 65.8484244 21.0042 66.6186286 23.3068154 67.6941388 25.1483538 68.0022204 24.6886616 68.310302 24.2275846 68.616996 23.9202 69.0791184 23.1517384 69.6952816 22.3860462 70.1560164 21.771277M86.7720244 9.7980923C85.6951266 10.4114769 84.7722694 11.0262462 83.8494122 11.7933231 85.8491674 13.3288615 86.9260654 15.9374769 86.9260654 18.7011692 86.9260654 23.3064 83.5413306 27.2968616 78.3108816 27.2968616 75.3868816 27.2968616 73.0790448 26.0687076 71.5414122 24.073477 71.2333306 24.5345538 70.925249 24.8419384 70.6171674 25.3016308 70.1564326 25.9164 69.695698 26.5297846 69.3862286 27.1431692 71.695453 29.293477 74.7721062 30.675323 78.3108816 30.675323 85.233004 30.675323 90.7729224 25.455323 90.7729224 18.7011692 90.7729224 15.1704 89.233902 11.9470154 86.7720244 9.7980923M64.7715266 50.0156308C64.7715266 53.7000924 62.6177306 56.923477 59.3870368 58.1516308L59.3870368 60.1468616 59.3870368 61.8360924C64.6174858 60.4542462 68.616996 55.8490154 68.616996 50.0156308 68.616996 45.871477 66.310547 42.1870154 62.9258122 39.8844 62.4636898 41.1125538 62.1556082 42.1870154 61.6948734 43.261477 63.6946286 44.9507076 64.7715266 47.4070154 64.7715266 50.0156308M56.9247428 58.7654308L56.1559266 58.7654308C50.9254776 58.7654308 47.3853142 54.7749692 47.3853142 50.0160462 47.3853142 45.5645076 50.4633552 41.4203538 56.1559266 41.4203538 57.3868654 41.4203538 58.617804 41.5726616 59.5392734 42.0337384 59.8487428 40.9578924 60.1554368 39.8848154 60.6175592 38.8103538 59.2325796 38.349277 57.6935592 38.0418924 56.1559266 38.0418924 49.2324164 38.0418924 43.6938858 43.4155846 43.6938858 50.0160462 43.6938858 56.9238924 49.2324164 62.1425076 56.1559266 62.1425076L56.9247428 62.1425076C56.9247428 61.529123 56.770702 60.7606616 56.770702 60.147277 56.770702 59.6862 56.9247428 59.2265076 56.9247428 58.7654308M65.079053 73.0413692C70.6175836 73.0413692 73.6942368 77.185523 73.6942368 81.6370616 73.6942368 85.627523 71.233747 89.1582924 67.3868898 90.0804462 68.0016654 91.1549076 68.6178286 92.075677 69.232604 93.1501384 74.0023184 91.4622924 77.5410938 87.1630616 77.5410938 81.6370616 77.5410938 75.0366 71.8485224 69.6642924 65.079053 69.6642924 63.3873796 69.6642924 61.6943184 69.971677 60.3107266 70.5850616 60.4633796 71.659523 60.6174204 72.887677 60.925502 73.9621384 62.1564408 73.3487538 63.5400326 73.0413692 65.079053 73.0413692M56.462898 81.636923C56.462898 79.3343076 57.233102 77.1853846 58.7707346 75.4975384 58.462653 74.2693846 58.1559592 73.0412308 58.0019184 71.813077 54.7712244 73.962 52.6174286 77.6464616 52.6174286 81.636923 52.6174286 88.5461538 58.1559592 93.7633846 65.0794694 93.7633846 65.540204 93.7633846 66.1563674 93.7633846 66.6184898 93.611077 66.0023266 92.5366154 65.2335102 91.4621538 64.617347 90.3876924 59.6949796 90.0803076 56.462898 86.3958462 56.462898 81.636923M125.54271 70.1248154L125.54271 84.0942C125.54271 87.3175846 124.465812 90.387277 120.312261 90.387277 116.157322 90.387277 115.080424 87.3175846 115.080424 84.0942L115.080424 70.1248154 111.234955 70.1248154 111.234955 84.861277C111.234955 89.9262 114.465649 93.7643538 120.312261 93.7643538 126.158873 93.7643538 129.38818 89.9262 129.38818 84.861277L129.38818 70.1248154 125.54271 70.1248154z"/>
    <polygon fill="#141414" fill-rule="nonzero" points="128.62 26.991 139.082 26.991 139.082 30.214 124.773 30.214 124.773 7.036 128.62 7.036"/>
    <polygon fill="#141414" fill-rule="nonzero" points="0 38.503 13.539 38.503 13.539 41.879 3.845 41.879 3.845 47.406 13.385 47.406 13.385 50.783 3.845 50.783 3.845 58.305 13.539 58.305 13.539 61.682 0 61.682"/>
    <polygon fill="#141414" fill-rule="nonzero" points="76.464 37.275 92.465 53.699 92.465 38.503 96.311 38.503 96.311 62.602 80.31 46.486 80.31 61.682 76.464 61.682"/>
    <mask id="logo-world-economic-forum-d" fill="#fff">
      <use xlink:href="#logo-world-economic-forum-c"/>
    </mask>
    <polygon fill="#141414" fill-rule="nonzero" points="171.853 38.503 175.7 38.503 175.7 61.682 171.853 61.682" mask="url(#logo-world-economic-forum-d)"/>
    <mask id="logo-world-economic-forum-f" fill="#fff">
      <use xlink:href="#logo-world-economic-forum-e"/>
    </mask>
    <polygon fill="#141414" fill-rule="nonzero" points="37.386 73.502 37.386 79.028 45.693 79.028 45.693 82.253 37.386 82.253 37.386 93.303 33.54 93.303 33.54 70.125 46.002 70.125 46.002 73.502" mask="url(#logo-world-economic-forum-f)"/>
    <mask id="logo-world-economic-forum-h" fill="#fff">
      <use xlink:href="#logo-world-economic-forum-g"/>
    </mask>
    <polygon fill="#141414" fill-rule="nonzero" points="52.771 21.464 52.925 21.464 56.617 7.035 60.311 7.035 53.848 31.136 45.694 13.79 37.54 31.136 30.925 7.035 34.77 7.035 38.463 21.464 45.694 6.574" mask="url(#logo-world-economic-forum-h)"/>
    <mask id="logo-world-economic-forum-j" fill="#fff">
      <use xlink:href="#logo-world-economic-forum-i"/>
    </mask>
    <polygon fill="#141414" fill-rule="nonzero" points="141.697 47.252 141.543 47.252 137.85 61.682 134.159 61.682 140.62 37.582 148.775 55.081 156.929 37.582 163.545 61.682 159.698 61.682 156.005 47.252 155.851 47.252 148.775 62.296" mask="url(#logo-world-economic-forum-j)"/>
    <mask id="logo-world-economic-forum-l" fill="#fff">
      <use xlink:href="#logo-world-economic-forum-k"/>
    </mask>
    <polygon fill="#141414" fill-rule="nonzero" points="143.697 78.874 140.004 93.303 136.159 93.303 142.62 69.203 150.929 86.549 159.083 69.203 165.543 93.303 161.698 93.303 158.005 78.874 150.929 93.764" mask="url(#logo-world-economic-forum-l)"/>
    <mask id="logo-world-economic-forum-n" fill="#fff">
      <use xlink:href="#logo-world-economic-forum-m"/>
    </mask>
    <path fill="#141414" fill-rule="nonzero" d="M92.0031674,70.1248154 C94.1569632,70.1248154 96.6188408,70.1248154 98.4645552,71.199277 C100.465698,72.2737384 101.695249,74.5763538 101.695249,76.725277 C101.695249,80.1023538 99.3888,82.8660462 96.0026776,83.1720462 L103.38831,93.303277 L99.0807184,93.303277 L92.1572082,83.4794308 L89.5412898,83.4794308 L89.5412898,93.303277 L85.6958204,93.303277 L85.6958204,70.1248154 L92.0031674,70.1248154 Z M89.5412898,80.4097384 L91.234351,80.4097384 C94.311004,80.4097384 98.0038204,80.5620462 98.0038204,76.8789692 C98.0038204,73.1945076 94.1569632,73.3482 91.0803102,73.3482 L89.5412898,73.3482 L89.5412898,80.4097384 Z" mask="url(#logo-world-economic-forum-n)"/>
    <mask id="logo-world-economic-forum-p" fill="#fff">
      <use xlink:href="#logo-world-economic-forum-o"/>
    </mask>
    <path fill="#141414" fill-rule="nonzero" d="M105.080261,7.03481538 C107.234057,7.03481538 109.695935,7.03481538 111.541649,8.10927692 C113.542792,9.18373846 114.618302,11.4863538 114.618302,13.6352769 C114.618302,17.0137385 112.465894,19.7760462 108.927118,20.0820462 L116.465404,30.213277 L112.157812,30.213277 L105.080261,20.3894308 L102.618384,20.3894308 L102.618384,30.213277 L98.7729142,30.213277 L98.7729142,7.03481538 L105.080261,7.03481538 Z M102.618384,17.3197385 L104.311445,17.3197385 C107.388098,17.3197385 110.926873,17.4734308 110.926873,13.7889692 C110.926873,10.1045077 107.080016,10.2595846 104.157404,10.2595846 L102.618384,10.2595846 L102.618384,17.3197385 Z" mask="url(#logo-world-economic-forum-p)"/>
    <mask id="logo-world-economic-forum-r" fill="#fff">
      <use xlink:href="#logo-world-economic-forum-q"/>
    </mask>
    <path fill="#141414" fill-rule="nonzero" d="M149.697282,26.9905846 L151.851078,26.9905846 C156.928873,26.9905846 161.6972,25.1476616 161.6972,18.5472 C161.6972,11.7930462 156.928873,10.2588923 151.851078,10.2588923 L149.697282,10.2588923 L149.697282,26.9905846 Z M145.850424,7.0355077 L152.157771,7.0355077 C159.543404,7.0355077 165.544057,10.5648923 165.544057,18.5472 C165.544057,26.5295076 159.697445,30.2139692 152.157771,30.2139692 L145.850424,30.2139692 L145.850424,7.0355077 Z" mask="url(#logo-world-economic-forum-r)"/>
    <mask id="logo-world-economic-forum-t" fill="#fff">
      <use xlink:href="#logo-world-economic-forum-s"/>
    </mask>
    <path fill="#141414" fill-rule="nonzero" d="M201.083772,57.6912462 C199.852833,58.458323 198.467853,58.7657076 196.77618,58.7657076 C191.698384,58.7657076 188.160996,54.9275538 188.160996,50.1686308 C188.160996,45.5647846 191.237649,41.4192462 196.77618,41.4192462 C198.467853,41.4192462 199.852833,41.7266308 201.083772,42.3400154 L202.929486,39.5777076 C201.237812,38.6569384 199.084016,38.0421692 196.77618,38.0421692 C190.00671,38.0421692 184.314139,43.4158616 184.314139,50.1686308 C184.314139,56.9241692 190.00671,62.1427846 196.77618,62.1427846 C199.084016,62.1427846 201.237812,61.6817076 203.083526,60.6072462 L201.083772,57.6912462 Z" mask="url(#logo-world-economic-forum-t)"/>
    <mask id="logo-world-economic-forum-v" fill="#fff">
      <use xlink:href="#logo-world-economic-forum-u"/>
    </mask>
    <path fill="#141414" fill-rule="nonzero" d="M37.5398858,57.6912462 C36.308947,58.458323 34.9239674,58.7657076 33.3863346,58.7657076 C28.154498,58.7657076 24.6157224,54.9275538 24.6157224,50.1686308 C24.6157224,45.5647846 27.6923756,41.4192462 33.3863346,41.4192462 C34.9239674,41.4192462 36.308947,41.7266308 37.5398858,42.3400154 L39.5396408,39.5777076 C37.6939266,38.6569384 35.5387428,38.0421692 33.3863346,38.0421692 C26.4628244,38.0421692 20.9242938,43.4158616 20.9242938,50.1686308 C20.9242938,56.9241692 26.4628244,62.1427846 33.3863346,62.1427846 C35.5387428,62.1427846 37.6939266,61.6817076 39.5396408,60.6072462 L37.5398858,57.6912462 Z" mask="url(#logo-world-economic-forum-v)"/>
    <mask id="logo-world-economic-forum-x" fill="#fff">
      <use xlink:href="#logo-world-economic-forum-w"/>
    </mask>
    <path fill="#141414" fill-rule="nonzero" d="M125.388947,50.1690462 C125.388947,45.5638154 122.312294,41.4196616 116.773763,41.4196616 C111.081192,41.4196616 108.003151,45.5638154 108.003151,50.1690462 C108.003151,54.9279692 111.541927,58.7647384 116.773763,58.7647384 C121.850171,58.7647384 125.388947,54.9279692 125.388947,50.1690462 M129.235804,50.1690462 C129.235804,56.9232 123.541845,62.1432 116.773763,62.1432 C109.850253,62.1432 104.311722,56.9232 104.311722,50.1690462 C104.311722,43.4148924 109.850253,38.0425846 116.773763,38.0425846 C123.541845,38.0425846 129.235804,43.4148924 129.235804,50.1690462" mask="url(#logo-world-economic-forum-x)"/>
  </g>
</svg>
