<svg xmlns="http://www.w3.org/2000/svg" width="91" height="27" viewBox="0 0 91 27">
  <path fill="#1A1918" d="M30.0636576,3.47887478 L35.5717576,3.47887478 L35.5717576,23.3870748 L30.0636576,23.3870748 L30.0636576,3.47887478 Z M38.4863576,23.3870748 L38.4863576,3.47887478 L53.6521576,3.47887478 L53.6521576,7.33207478 L43.9944576,7.33207478 L43.9944576,11.4322748 L52.8864576,11.4322748 L52.8864576,15.2854748 L43.9944576,15.2854748 L43.9944576,19.5091748 L53.6521576,19.5091748 L53.6521576,23.3623748 L38.4863576,23.3623748 L38.4863576,23.3870748 Z M56.7396576,23.3870748 L56.7396576,3.47887478 L71.9054576,3.47887478 L71.9054576,7.33207478 L62.2477576,7.33207478 L62.2477576,11.4322748 L71.1150576,11.4322748 L71.1150576,15.2854748 L62.2477576,15.2854748 L62.2477576,19.5091748 L71.9054576,19.5091748 L71.9054576,23.3623748 L56.7396576,23.3623748 L56.7396576,23.3870748 Z M74.9929576,23.3870748 L74.9929576,3.47887478 L90.1587576,3.47887478 L90.1587576,7.33207478 L80.5010576,7.33207478 L80.5010576,11.4322748 L89.3683576,11.4322748 L89.3683576,15.2854748 L80.5010576,15.2854748 L80.5010576,19.5091748 L90.1587576,19.5091748 L90.1587576,23.3623748 L74.9929576,23.3623748 L74.9929576,23.3870748 Z M12.5760576,15.4336748 C12.5019576,16.8415748 12.4772576,18.1506748 12.3784576,19.5585748 C12.9465576,19.6079748 13.5640576,19.6573748 14.1568576,19.5832748 L13.9839576,15.6559748 L13.9592576,15.4583748 C13.5146576,15.4583748 13.0700576,15.4830748 12.5760576,15.4336748 Z M9.11805762,11.4816748 C8.42645762,11.8274748 7.41375762,12.3461748 7.53725762,13.2847748 C7.68545762,13.8034748 8.22885762,14.1245748 8.67345762,14.3468748 C11.0940576,15.4089748 14.3297576,15.4583748 16.8985576,14.6432748 C17.5407576,14.3962748 18.3805576,14.0504748 18.5040576,13.2600748 C18.5040576,12.6178748 17.8124576,12.2226748 17.3184576,11.9756748 L17.3184576,11.9509748 C17.4913576,11.8768748 17.6889576,11.8274748 17.8618576,11.8027748 L17.8618576,11.7780748 C16.9973576,11.6298748 16.1822576,11.4075748 15.3424576,11.1852748 C15.4906576,11.5557748 15.6141576,11.9262748 15.7623576,12.3214748 C16.0093576,12.2473748 16.2810576,12.1732748 16.5280576,12.1485748 C16.9726576,12.3214748 17.5901576,12.5684748 17.6642576,13.1118748 C17.7136576,13.6305748 17.1455576,13.8775748 16.7997576,14.0751748 C14.9225576,14.7667748 12.7983576,14.8161748 10.8470576,14.2974748 C10.3036576,14.1245748 9.51325762,13.9022748 9.46385762,13.2106748 C9.85905762,12.2967748 10.8470576,12.1238748 11.6868576,11.9015748 C11.2669576,11.6298748 10.8223576,11.3828748 10.4024576,11.0864748 C9.93315762,11.1111748 9.51325762,11.3087748 9.11805762,11.4816748 Z M13.2676576,5.99827478 L13.0206576,6.78867478 L11.8103576,10.2960748 C12.1067576,10.3207748 12.5019576,10.2960748 12.7983576,10.3207748 L12.7983576,10.3454748 L12.6254576,14.2974748 L12.6501576,14.3468748 C13.0453576,14.3962748 13.5393576,14.3962748 13.9345576,14.3468748 L13.9345576,14.2727748 L13.7863576,10.4442748 L13.8110576,10.3207748 L14.8978576,10.2960748 C14.3544576,8.88817478 13.8357576,7.45557478 13.3417576,6.02297478 L13.2676576,6.02297478 L13.2676576,5.99827478 Z M12.6995576,4.24457478 C13.5887576,3.62707478 14.4038576,4.49157478 15.0954576,4.98557478 C17.7877576,7.15917478 20.3318576,9.62917478 22.2584576,12.4449748 C22.5054576,12.8154748 22.6042576,13.3588748 22.3819576,13.7787748 C21.8879576,14.6185748 21.1963576,15.3842748 20.5541576,16.1499748 L20.5541576,16.1993748 C18.9486576,17.9036748 17.2690576,19.6573748 15.4412576,21.0899748 C14.5520576,21.6333748 13.7369576,22.8189748 12.5760576,22.0779748 C9.95785762,20.1760748 7.46315762,17.7801748 5.33895762,15.2360748 C4.96845762,14.6679748 4.42505762,14.2233748 4.17805762,13.5811748 C3.83225762,12.7166748 4.59795762,12.0991748 5.04255762,11.4569748 C7.21615762,8.78937478 9.90845762,6.17117478 12.6995576,4.24457478 Z M14.9472576,1.67577478 L13.9592576,0.267874777 C13.8357576,0.193774777 13.6875576,0.0702747771 13.5393576,0.0455747771 C13.2429576,-0.0779252229 12.9218576,0.0702747771 12.6995576,0.243174777 L10.8964576,2.58967478 C8.00655762,6.17117478 4.57325762,9.50567478 0.843557619,12.0744748 C0.547157619,12.2967748 0.102557619,12.5190748 0.0284576195,12.9142748 C-0.0703423805,13.2600748 0.102557619,13.5317748 0.324857619,13.7540748 C3.31355762,15.8041748 6.17875762,18.2494748 8.72285762,21.0405748 C9.16745762,21.5098748 9.53795762,21.9791748 9.98255762,22.4237748 C10.7235576,23.4117748 11.5880576,24.3997748 12.2796576,25.4618748 C12.5019576,25.6841748 12.5266576,26.0546748 12.8724576,26.1534748 C13.1441576,26.2522748 13.4652576,26.3016748 13.7122576,26.1534748 L13.9592576,25.9064748 C17.0467576,21.5345748 20.9740576,17.5825748 25.3459576,14.4209748 C25.7905576,14.0257748 26.6303576,13.8775748 26.6303576,13.1612748 C26.6056576,12.8154748 26.4080576,12.4943748 26.1116576,12.3214748 L26.0375576,12.3214748 C23.7898576,10.7900748 21.6903576,9.06107478 19.6896576,7.08507478 L17.4913576,4.78797478 C16.6268576,3.82467478 15.7870576,2.71317478 14.9472576,1.67577478 Z M12.3784576,3.70117478 C13.2676576,3.00957478 14.3544576,3.57767478 15.0954576,4.21987478 C15.8611576,4.81267478 16.6762576,5.47957478 17.3925576,6.17117478 L17.5160576,6.24527478 C19.4673576,8.07307478 21.2951576,10.0984748 22.8018576,12.2226748 C23.0488576,12.5931748 23.2711576,13.0130748 23.1229576,13.5070748 C22.6289576,14.7667748 21.6162576,15.7547748 20.7270576,16.8415748 C18.8004576,18.9163748 16.7750576,20.8923748 14.5273576,22.4978748 C14.0580576,22.8189748 13.4405576,23.1153748 12.8971576,22.8683748 C11.2175576,22.0038748 9.83435762,20.5712748 8.35235762,19.2621748 C6.64805762,17.6813748 4.96845762,15.8535748 3.68405762,13.9516748 C3.48645762,13.6799748 3.43705762,13.3588748 3.43705762,12.9883748 C3.60995762,12.3214748 4.05455762,11.7780748 4.47445762,11.2346748 C5.98115762,9.30807478 7.85835762,7.48027478 9.71085762,5.80067478 C9.76025762,5.75127478 9.83435762,5.67717478 9.90845762,5.62777478 C10.7235576,4.91147478 11.5386576,4.29397478 12.3784576,3.70117478 Z"/>
</svg>
