<?xml version="1.0" encoding="UTF-8"?>
<svg width="160px" height="50px" viewBox="0 0 160 50" version="1.1" xmlns="http://www.w3.org/2000/svg" xmlns:xlink="http://www.w3.org/1999/xlink">
    <title>national-commercial-bank</title>
    <defs>
        <rect id="path-1" x="0" y="0" width="160" height="50"></rect>
    </defs>
    <g id="Page-1" stroke="none" stroke-width="1" fill="none" fill-rule="evenodd">
        <g id="a1qa-Cyber-testing-V2" transform="translate(-579.000000, -7193.000000)">
            <g id="8-block" transform="translate(0.000000, 7004.000000)">
                <g id="logo-2" transform="translate(569.000000, 169.000000)">
                    <g id="national-commercial-bank" transform="translate(10.000000, 20.000000)">
                        <mask id="mask-2" fill="white">
                            <use xlink:href="#path-1"></use>
                        </mask>
                        <use id="Mask" fill-opacity="0" fill="#D8D8D8" xlink:href="#path-1"></use>
                        <path d="M27.0438208,10 L31.3677932,15.2308254 L33.3045726,14.1665449 L33.3045726,13.4192841 L37.2456933,10.0226443 L62.9868417,10.0226443 C66.52259,10.0226443 70.4186693,12.0379839 70.7114383,17.2461651 C70.6037307,21.9463271 67.6113313,23.4766342 67.3513262,23.6008194 L67.3333348,23.6092038 C70.733959,25.3075237 70.8916038,28.6135866 70.8916038,28.6135866 C71.6122659,32.8027757 68.5044107,35.9956172 68.48189,35.972973 L68.48189,35.972973 L64.7884969,39.3696129 C63.2796107,40.9320672 61.1626658,41 61.1626658,41 L61.1626658,41 L44.9477692,41 L44.9477692,40.0489408 L43.506445,41 L35.1287484,41 L26.9086966,31.6705625 L26.9086966,37.5354273 L22.4045587,41 L12,41 L12,13.4645727 L16.3915345,10 L27.0438208,10 Z M94.8141328,37 C95.6993576,37 96.6753747,37.5263158 96.6980728,38.4526316 L96.6980728,38.4526316 L96.6980728,38.4736842 L95.6312634,38.4736842 C95.5631692,38.0947368 95.2453961,37.8842105 94.7914347,37.8842105 C94.1104925,37.8842105 93.8381156,38.4526316 93.8381156,39.0210526 C93.8381156,39.5894737 94.0877944,40.1578947 94.7914347,40.1578947 C95.2907923,40.1578947 95.5858672,39.8842105 95.6312634,39.4421053 L95.6312634,39.4421053 L96.6980728,39.4421053 C96.6526767,40.4315789 95.8582441,41 94.8141328,41 C93.5657388,41 92.7486081,40.1157895 92.7486081,39 C92.7486081,37.8842105 93.5657388,37 94.8141328,37 Z M76.9053533,37.0842105 L76.9053533,39.6947368 C76.9053533,40.5368421 76.4286938,40.9789474 75.4526767,40.9789474 C74.3631692,40.9789474 74,40.3894737 74,39.5473684 L74,39.5473684 L74,39.3789474 L75.0214133,39.3789474 L75.0214133,39.7368421 C75.0214133,39.9894737 75.1576017,40.1368421 75.4299786,40.1368421 C75.6796574,40.1368421 75.8158458,40.0105263 75.8158458,39.6315789 L75.8158458,39.6315789 L75.8158458,37.0842105 L76.9053533,37.0842105 Z M109.999143,37.0842105 L110.702784,39.6315789 L111.406424,37.0842105 L112.995289,37.0842105 L112.995289,40.9157895 L111.973876,40.9157895 L111.973876,38.0105263 L111.951178,38.0105263 L111.088651,40.9157895 L110.27152,40.9157895 L109.408994,38.0105263 L109.386296,38.0105263 L109.386296,40.9157895 L108.410278,40.9157895 L108.410278,37.0842105 L109.999143,37.0842105 Z M114.811135,37.0842105 L114.811135,40.9157895 L113.744325,40.9157895 L113.744325,37.0842105 L114.811135,37.0842105 Z M118.7606,37.0842105 L118.7606,37.9473684 L117.534904,37.9473684 L117.534904,40.9157895 L116.468094,40.9157895 L116.468094,37.9473684 L115.242398,37.9473684 L115.242398,37.0842105 L118.7606,37.0842105 Z M122.505782,37.0842105 L122.505782,37.8842105 L120.28137,37.8842105 L120.28137,38.5368421 L122.301499,38.5368421 L122.301499,39.3157895 L120.28137,39.3157895 L120.28137,40.0526316 L122.551178,40.0526316 L122.551178,40.9157895 L119.191863,40.9157895 L119.191863,37.0842105 L122.505782,37.0842105 Z M124.979872,37.0842105 C126.250964,37.0842105 127,37.8 127,38.9789474 C127,40.2421053 126.228266,40.9157895 124.979872,40.9157895 L124.979872,40.9157895 L123.209422,40.9157895 L123.209422,37.0842105 Z M107.593148,37.0842105 L107.593148,40.9157895 L106.526338,40.9157895 L106.526338,37.0842105 L107.593148,37.0842105 Z M104.120343,37.0842105 L104.120343,40.0526316 L106.049679,40.0526316 L106.049679,40.9157895 L103.053533,40.9157895 L103.053533,37.0842105 L104.120343,37.0842105 Z M99.3764454,37.0842105 L100.919914,40.9157895 L99.8077088,40.9157895 L99.55803,40.2210526 L98.1053533,40.2210526 L97.8556745,40.9157895 L96.743469,40.9157895 L98.2869379,37.0842105 L99.3764454,37.0842105 Z M92.1584582,37.0842105 L92.1584582,40.9157895 L91.0916488,40.9157895 L91.0916488,37.0842105 L92.1584582,37.0842105 Z M89.2077088,37.0842105 L90.7511777,40.9157895 L89.6389722,40.9157895 L89.3892934,40.2210526 L87.9593148,40.2210526 L87.6869379,40.9157895 L86.5747323,40.9157895 L88.1182013,37.0842105 L89.2077088,37.0842105 Z M83.1700214,37.0842105 L83.8736617,39.6315789 L83.8963597,39.6315789 L84.6,37.0842105 L86.1888651,37.0842105 L86.1888651,40.9157895 L85.1674518,40.9157895 L85.1674518,38.0105263 L84.3049251,40.9157895 L83.4877944,40.9157895 L82.6252677,38.0105263 L82.6252677,40.9157895 L81.5811563,40.9157895 L81.5811563,37.0842105 L83.1700214,37.0842105 Z M79.6972163,37.0842105 L81.2406852,40.9157895 L80.1284797,40.9157895 L79.8788009,40.2210526 L78.4488223,40.2210526 L78.1764454,40.9157895 L77.0642398,40.9157895 L78.6077088,37.0842105 L79.6972163,37.0842105 Z M124.775589,37.9473684 L124.276231,37.9473684 L124.276231,40.0526316 L124.775589,40.0526316 C125.592719,40.0315789 125.910493,39.7368421 125.910493,38.9789474 C125.910493,38.2842105 125.501927,37.9473684 124.775589,37.9473684 L124.775589,37.9473684 Z M79.1524625,38.1578947 L78.6985011,39.5052632 L79.6291221,39.5052632 L79.1524625,38.1578947 Z M88.640257,38.1578947 L88.1862955,39.5052632 L89.1169165,39.5052632 L88.640257,38.1578947 Z M98.8316916,38.1578947 L98.3777302,39.5052632 L99.3083512,39.5052632 L98.8316916,38.1578947 Z M98.8306998,27 L98.8306998,29.4054983 L98.8532731,29.4054983 L100.839729,27 L103.593679,27 L100.952596,29.742268 L104,34 L101.223476,34 L99.4401806,31.2817869 L98.8306998,31.9312715 L98.8306998,34 L96.5959368,34 L96.5959368,27 L98.8306998,27 Z M91.0880361,27 L93.2099323,30.7525773 L93.2325056,30.7525773 L93.2325056,27 L95.3544018,27 L95.3544018,34 L93.1873589,34 L90.9525959,30.1752577 L90.9300226,30.1752577 L90.9300226,34 L88.8081264,34 L88.8081264,27 L91.0880361,27 Z M85.6252822,27 L88.2663657,34 L85.9187359,34 L85.6027088,32.9896907 L83.3002257,32.9896907 L82.9841986,34 L80.7494357,34 L83.4356659,27 L85.6252822,27 Z M77.972912,27.024055 C79.8916479,27.024055 80.2979684,28.0584192 80.2979684,28.7800687 C80.2979684,29.4776632 79.9367946,29.862543 79.3950339,30.1512027 C80.0496614,30.3436426 80.6591422,30.8487973 80.6591422,31.8831615 C80.6591422,33.2783505 79.3950339,34 78.1083521,34 L78.1083521,34 L74,34 L74,27.024055 Z M77.6343115,31.0412371 L76.234763,31.0412371 L76.234763,32.3402062 L77.5440181,32.3402062 C78.0180587,32.3402062 78.4243792,32.1958763 78.4243792,31.6666667 C78.4243792,31.257732 78.1534989,31.0412371 77.6343115,31.0412371 L77.6343115,31.0412371 Z M84.5417607,29.3333333 L84.5191874,29.3333333 L83.8194131,31.4982818 L85.1963883,31.4982818 L84.5417607,29.3333333 Z M77.4085779,28.6838488 L76.234763,28.6838488 L76.234763,29.742268 L77.4085779,29.742268 C77.8826185,29.742268 78.1760722,29.6219931 78.1760722,29.1649485 C78.1760722,28.8041237 77.8600451,28.6838488 77.4085779,28.6838488 L77.4085779,28.6838488 Z M41.186814,22.0014609 C37.2917356,22.0014609 37.2831277,24.8754488 37.2900565,25.1309144 L37.2907346,25.1490139 C37.2907346,27.6851717 39.3626381,28.9985391 41.7498312,28.9985391 C44.1370243,28.9985391 44.8802071,27.9342586 44.8802071,27.9342586 L44.8802071,27.9342586 L44.8802071,27.5493061 L47.2448795,25.6018992 L45.0603726,25.6018992 C45.0603726,24.65084 45.2630588,22.0014609 41.186814,22.0014609 Z M85.283928,19 C87.4955779,19 88.9624886,20.4506579 88.9624886,22.5 C88.9624886,24.5263158 87.4955779,26 85.283928,26 C83.0722781,26 81.6053675,24.5493421 81.6053675,22.5 C81.6053675,20.4506579 83.094846,19 85.283928,19 Z M77.6785605,19 C79.6645319,19 80.747789,19.9671053 80.9508997,21.6480263 L80.947,21.624 L78.8069533,21.625 C78.7644727,21.3866099 78.5820557,20.7198825 77.7893281,20.6422689 L77.6334248,20.6348684 C76.5953034,20.6348684 76.2567856,21.5789474 76.2567856,22.4769737 C76.2567856,23.375 76.5953034,24.3190789 77.6334248,24.3190789 C78.3781641,24.3190789 78.6715462,23.8355263 78.8069533,23.2138158 L78.8069533,23.2138158 L80.9960354,23.2138158 C80.9960354,24.5723684 79.799939,26 77.6785605,26 C75.3315035,26 74,24.4802632 74,22.5 C74,20.4046053 75.4443428,19 77.6785605,19 Z M127.508387,19 C129.494358,19 130.577615,19.9671053 130.780726,21.6480263 L130.777,21.624 L128.63678,21.625 C128.594299,21.3866099 128.411882,20.7198825 127.619154,20.6422689 L127.463251,20.6348684 C126.42513,20.6348684 126.086612,21.5789474 126.086612,22.4769737 C126.086612,23.375 126.42513,24.3190789 127.463251,24.3190789 C128.20799,24.3190789 128.501372,23.8355263 128.63678,23.2138158 L128.63678,23.2138158 L130.825862,23.2138158 C130.825862,24.5723684 129.629765,26 127.508387,26 C125.16133,26 123.829826,24.4802632 123.829826,22.5 C123.829826,20.4046053 125.274169,19 127.508387,19 Z M120.783166,19.1842105 C122.046966,19.1842105 123.15279,19.8289474 123.15279,21.0953947 C123.15279,21.7861842 122.814273,22.5230263 122.069533,22.7763158 C122.678866,22.9835526 123.039951,23.6052632 123.130223,24.4342105 C123.175358,24.7565789 123.175358,25.5625 123.378469,25.8618421 L123.378469,25.8618421 L121.144251,25.8618421 C121.031412,25.5164474 120.986276,25.1710526 120.963708,24.8256579 C120.896005,24.1809211 120.828301,23.5131579 119.948155,23.5131579 L119.948155,23.5131579 L118.752059,23.5131579 L118.752059,25.8388158 L116.517841,25.8388158 L116.517841,19.1842105 Z M139.356511,19.1381579 L141.99695,25.8388158 L139.672461,25.8388158 L139.379079,24.8717105 L137.077158,24.8717105 L136.761208,25.8388158 L134.504422,25.8388158 L137.167429,19.1381579 L139.356511,19.1381579 Z M93.1149741,19.1381579 L94.1530955,23.0756579 L94.1756633,23.0756579 L95.2137847,19.1381579 L98.3958524,19.1381579 L98.3958524,25.8388158 L96.2744739,25.8388158 L96.2744739,21.5328947 L96.2519061,21.5328947 L94.9881061,25.8388158 L93.3180848,25.8388158 L92.0542848,21.5328947 L92.031717,21.5328947 L92.031717,25.8388158 L89.9329064,25.8388158 L89.9329064,19.1381579 L93.1149741,19.1381579 Z M102.774016,19.1381579 L103.812138,23.0756579 L103.857274,23.0756579 L104.895395,19.1381579 L108.077463,19.1381579 L108.077463,25.8388158 L105.956084,25.8388158 L105.956084,21.5328947 L105.933516,21.5328947 L104.669716,25.8388158 L102.999695,25.8388158 L101.735895,21.5328947 L101.713327,21.5328947 L101.713327,25.8388158 L99.5919488,25.8388158 L99.5919488,19.1381579 L102.774016,19.1381579 Z M134.007929,19.1381579 L134.007929,25.8388158 L131.773711,25.8388158 L131.773711,19.1381579 L134.007929,19.1381579 Z M144.795364,19.1381579 L144.795364,24.1118421 L148,24.1118421 L148,25.8388158 L142.561147,25.8388158 L142.561147,19.1381579 L144.795364,19.1381579 Z M115.299177,19.1381579 L115.299177,20.8651316 L111.530345,20.8651316 L111.530345,21.6940789 L114.960659,21.6940789 L114.960659,23.2828947 L111.530345,23.2828947 L111.530345,24.1118421 L115.412016,24.1118421 L115.412016,25.8388158 L109.296127,25.8388158 L109.296127,19.1381579 L115.299177,19.1381579 Z M85.283928,20.6578947 C84.7197316,20.6578947 83.8395852,21.0032895 83.8395852,22.5 C83.8395852,23.9967105 84.7197316,24.3421053 85.283928,24.3421053 C85.8481244,24.3421053 86.7282708,23.9967105 86.7282708,22.5 C86.7282708,21.0032895 85.8481244,20.6578947 85.283928,20.6578947 Z M138.295822,21.3947368 L138.273254,21.3947368 L137.573651,23.4671053 L138.95029,23.4671053 L138.295822,21.3947368 Z M119.79018,20.75 L118.729491,20.75 L118.729491,22.0855263 L119.903019,22.0855263 C120.331808,22.0855263 120.896005,22.0164474 120.896005,21.4177632 C120.896005,21.0032895 120.647758,20.75 119.79018,20.75 L119.79018,20.75 Z M101.787724,10 C104.001705,10 105.470162,11.4506579 105.470162,13.5 C105.470162,15.5263158 104.001705,17 101.787724,17 C99.5737425,17 98.1052856,15.5493421 98.1052856,13.5 C98.1052856,11.4506579 99.5963342,10 101.787724,10 Z M123.791986,10.1611842 L123.791986,15.1348684 L127,15.1348684 L127,16.8618421 L121.555413,16.8618421 L121.555413,10.1611842 L123.791986,10.1611842 Z M85.9283887,10.1611842 L88.5716113,16.8618421 L86.2446718,16.8618421 L85.9509804,15.8947368 L83.6466326,15.8947368 L83.3303495,16.8618421 L81.071185,16.8618421 L83.7369991,10.1611842 L85.9283887,10.1611842 Z M94.2421142,10.1611842 L94.2421142,11.8881579 L92.2088662,11.8881579 L92.2088662,16.8618421 L89.9722933,16.8618421 L89.9722933,11.8881579 L87.9390452,11.8881579 L87.9390452,10.1611842 L94.2421142,10.1611842 Z M97.1790281,10.1611842 L97.1790281,16.8618421 L94.9424552,16.8618421 L94.9424552,10.1611842 L97.1790281,10.1611842 Z M108.700767,10.1611842 L110.824382,13.7532895 L110.846974,13.7532895 L110.846974,10.1611842 L112.970588,10.1611842 L112.970588,16.8618421 L110.80179,16.8618421 L108.565217,13.2006579 L108.542626,13.2006579 L108.542626,16.8618421 L106.419011,16.8618421 L106.419011,10.1611842 L108.700767,10.1611842 Z M76.2817562,10.1611842 L78.4053708,13.7532895 L78.4279625,13.7532895 L78.4279625,10.1611842 L80.5515772,10.1611842 L80.5515772,16.8618421 L78.3827792,16.8618421 L76.1462063,13.2006579 L76.1236147,13.2006579 L76.1236147,16.8618421 L74,16.8618421 L74,10.1611842 L76.2817562,10.1611842 Z M118.369991,10.1611842 L121.013214,16.8618421 L118.686275,16.8618421 L118.392583,15.8947368 L116.088235,15.8947368 L115.771952,16.8618421 L113.512788,16.8618421 L116.178602,10.1611842 L118.369991,10.1611842 Z M101.787724,11.6578947 C101.222933,11.6578947 100.341858,12.0032895 100.341858,13.5 C100.341858,14.9967105 101.222933,15.3421053 101.787724,15.3421053 C102.352515,15.3421053 103.233589,14.9967105 103.233589,13.5 C103.233589,12.0032895 102.352515,11.6578947 101.787724,11.6578947 Z M117.285592,12.3947368 L117.263001,12.3947368 L116.56266,14.4671053 L117.94075,14.4671053 L117.285592,12.3947368 Z M84.8665814,12.3947368 L84.8439898,12.3947368 L84.1436488,14.4671053 L85.5217391,14.4671053 L84.8665814,12.3947368 Z" id="Combined-Shape" fill="#000000" opacity="0.900320871" mask="url(#mask-2)"></path>
                        <path d="M65.2366606,24.1018216 C68.7847948,22.577825 69.7279698,19.6208167 69.615687,17.1414789 C69.4809478,14.6621411 67.4374021,11.2502084 63.1706584,11.1364773 L38.0642401,11.1364773 L38.0642401,13.5475764 C35.9982378,13.8660235 32.5623863,15.3217814 31.1251674,16.6410621 L26.4991189,11 L17,11 L17,36.9989273 L25.9377053,36.9989273 L25.9377053,23.1464805 L37.8621311,36.9989273 L47.1591411,36.9989273 L47.1591411,34.8380366 L47.1591411,34.3376198 L47.6531851,34.3376198 C50.7297319,34.3148736 53.5143436,33.1548165 55.5354328,31.0394182 C57.107391,29.4016905 58.095479,27.3090384 58.3649575,25.0344166 L48.5739035,25.0344166 C48.3493381,27.9686787 45.632096,30.288793 42.3309838,30.288793 C38.8726757,30.288793 36.0656075,27.7639628 36.0656075,24.6477309 C36.0656075,21.531499 38.8726757,19.0066688 42.3309838,19.0066688 C45.0482258,19.0066688 47.3612501,20.5761578 48.2370553,22.7597948 L58.4772403,22.7597948 C57.9158266,17.6873881 52.5037991,14.7986184 47.8328375,13.820531 C47.563359,13.7750386 47.3837066,13.502084 47.4510762,13.2291294 C47.4959893,12.9561748 47.7654679,12.774205 48.0349464,12.8424437 C53.3346913,13.9342621 59.4877848,17.3916873 59.4877848,23.5786586 C59.5102414,26.6948905 58.3874141,29.6064064 56.2764988,31.7672972 C54.1655835,33.9281879 51.3136021,35.2019761 48.1696857,35.3384534 L48.1696857,36.9989273 L63.1706584,36.9989273 C63.1706584,36.9989273 69.615687,37.2491357 69.9749918,30.1068232 C70.31184,26.6948905 67.1679235,24.3065376 65.2366606,24.1018216" id="Path" fill="#4A4A4A" fill-rule="nonzero" mask="url(#mask-2)"></path>
                    </g>
                </g>
            </g>
        </g>
    </g>
</svg>