<?xml version="1.0" encoding="UTF-8"?>
<svg width="160px" height="50px" viewBox="0 0 160 50" version="1.1" xmlns="http://www.w3.org/2000/svg" xmlns:xlink="http://www.w3.org/1999/xlink">
    <title>postman</title>
    <defs>
        <rect id="path-1" x="0" y="0" width="160" height="50"></rect>
    </defs>
    <g id="Page-1" stroke="none" stroke-width="1" fill="none" fill-rule="evenodd">
        <g id="a1qa-Software-blockchainapp-testing-v7" transform="translate(-385.000000, -4990.000000)">
            <g id="9" transform="translate(375.000000, 4875.000000)">
                <g id="1" transform="translate(0.000000, 105.000000)">
                    <g id="postman" transform="translate(10.000000, 10.000000)">
                        <mask id="mask-2" fill="white">
                            <use xlink:href="#path-1"></use>
                        </mask>
                        <use id="Mask" fill-opacity="0" fill="#D8D8D8" xlink:href="#path-1"></use>
                        <path d="M64.9,31 C65.68,31 66.1,30.46 66.1,29.78 L66.1,26.1 C66.58,26.18 67.32,26.2 67.84,26.2 C70.84,26.2 73.18,24.74 73.18,21.52 C73.18,18.34 71,17.1 67.9,17.1 C66.82,17.1 65.84,17.16 64.82,17.36 C64.04,17.52 63.7,18.06 63.7,18.76 L63.7,29.78 C63.7,30.46 64.1,31 64.9,31 Z M67.7,24.12 C67.16,24.12 66.54,24.1 66.1,24.04 L66.1,19.32 C66.68,19.24 67.2,19.2 67.84,19.2 C69.64,19.2 70.66,19.98 70.66,21.58 C70.66,23.5 69.32,24.12 67.7,24.12 Z M79.66,31.2 C82.76,31.2 84.46,29 84.46,26.1 C84.46,23.22 82.76,21 79.66,21 C76.56,21 74.88,23.2 74.88,26.1 C74.88,29 76.56,31.2 79.66,31.2 Z M79.66,29.28 C78.04,29.28 77.2,27.92 77.2,26.1 C77.2,24.3 78.02,22.92 79.66,22.92 C81.32,22.92 82.14,24.3 82.14,26.1 C82.14,27.92 81.32,29.28 79.66,29.28 Z M89.76,31.2 C92.46,31.2 93.72,30.06 93.72,28.16 C93.72,24.76 88.68,25.56 88.68,23.72 C88.68,23.16 89.1,22.82 90.02,22.82 C90.76,22.82 91.54,23.14 92.1,23.36 C92.74,23.56 93.14,23.46 93.36,22.98 C93.56,22.52 93.44,22.02 92.8,21.66 C92.14,21.28 91.1,21 89.94,21 C87.84,21 86.4,21.94 86.4,23.8 C86.4,27.34 91.44,26.46 91.44,28.36 C91.44,29.04 90.96,29.38 89.96,29.38 C89.22,29.38 88.4,29.16 87.64,28.82 C87.12,28.58 86.48,28.44 86.18,29.06 C85.92,29.6 86.1,30.06 86.64,30.44 C87.44,30.96 88.74,31.2 89.76,31.2 Z M99.66,31.2 C100.36,31.2 101.1,31.06 101.66,30.74 C102.2,30.42 102.52,29.94 102.28,29.34 C102.08,28.86 101.58,28.76 101.08,28.96 C100.84,29.06 100.4,29.2 100.02,29.2 C99.18,29.2 98.88,28.7 98.88,27.58 L98.88,23.12 L100.58,23.12 C101.3,23.12 101.66,22.76 101.66,22.16 C101.66,21.54 101.3,21.2 100.58,21.2 L98.88,21.2 L98.88,19.96 C98.88,19.34 98.5,18.8 97.74,18.8 C97,18.8 96.62,19.34 96.62,19.96 L96.62,21.2 L96.1,21.2 C95.38,21.2 95.02,21.54 95.02,22.16 C95.02,22.76 95.38,23.12 96.1,23.12 L96.62,23.12 L96.62,27.82 C96.62,30.2 97.74,31.2 99.66,31.2 Z M117.02,31 C117.78,31 118.14,30.48 118.14,29.84 L118.14,25.22 C118.14,22.62 117.46,21 115.02,21 C113.62,21 112.36,21.7 111.78,22.94 C111.42,21.68 110.44,21 109.14,21 C107.72,21 106.72,21.62 106.1,22.68 L106.1,22.36 C106.1,21.74 105.74,21.2 104.98,21.2 C104.24,21.2 103.88,21.74 103.88,22.36 L103.88,29.84 C103.88,30.48 104.24,31 104.98,31 C105.74,31 106.1,30.48 106.1,29.84 L106.1,27.18 C106.12,25.14 106.52,22.92 108.44,22.92 C109.76,22.92 109.9,24.06 109.9,25.6 L109.9,29.84 C109.9,30.48 110.26,31 111,31 C111.76,31 112.12,30.48 112.12,29.84 L112.12,27.36 C112.12,25.28 112.46,22.92 114.46,22.92 C115.68,22.92 115.92,23.84 115.92,25.16 L115.92,29.84 C115.92,30.48 116.28,31 117.02,31 Z M123.24,31.2 C124.9,31.2 125.9,30.42 126.44,29.48 L126.44,29.84 C126.44,30.48 126.78,31 127.52,31 C128.28,31 128.6,30.48 128.6,29.84 L128.6,24.72 C128.6,22.4 127.4,21 124.66,21 C123.4,21 122.12,21.26 121.4,21.74 C120.94,22.04 120.74,22.44 120.9,22.92 C121.06,23.4 121.56,23.52 122.04,23.38 C122.92,23.12 123.48,22.88 124.4,22.88 C126.14,22.88 126.44,23.82 126.44,24.9 L126.44,25.12 C126.08,25.06 125.3,24.98 124.34,24.98 C122.14,24.98 120.04,25.82 120.04,28.26 C120.04,30.04 121.22,31.2 123.24,31.2 Z M123.84,29.44 C122.84,29.44 122.26,28.88 122.26,28.08 C122.26,26.88 123.24,26.4 124.66,26.4 C125.4,26.4 125.92,26.42 126.44,26.5 L126.44,26.84 C126.44,28.1 125.54,29.44 123.84,29.44 Z M138.9,31 C139.66,31 140.04,30.48 140.04,29.84 L140.04,25.28 C140.04,22.62 139.22,21 136.62,21 C135.44,21 134.26,21.52 133.66,22.66 L133.66,22.36 C133.66,21.74 133.28,21.2 132.52,21.2 C131.78,21.2 131.4,21.74 131.4,22.36 L131.4,29.84 C131.4,30.48 131.78,31 132.52,31 C133.28,31 133.66,30.48 133.66,29.84 L133.66,27.26 C133.7,25.02 134.14,23 136.08,23 C137.36,23 137.78,23.92 137.78,25.24 L137.78,29.84 C137.78,30.48 138.16,31 138.9,31 Z" id="Postman" fill="#000000" fill-rule="nonzero" mask="url(#mask-2)"></path>
                        <polygon id="Path" fill="#000000" fill-rule="nonzero" mask="url(#mask-2)" points="22.6313142 42.8618437 16 43.0512821 19.3993096 40.2051282 22.6315789 42.8620616"></polygon>
                        <path d="M51.8590877,26.2508488 C50.6610656,35.6051084 42.1168562,42.2139531 32.7774834,41.0129309 C23.4365663,39.8129398 16.8371479,31.2567839 18.03517,21.9032979 C19.2339644,12.5492961 27.7763718,5.93967802 37.1180613,7.14095807 C46.4584636,8.34043361 53.0594266,16.8973628 51.8590877,26.2505912" id="Path" fill="#000000" fill-rule="nonzero" mask="url(#mask-2)"></path>
                        <path d="M39.1563085,19.3333333 C40.3350168,20.5363172 39.1717429,23.380347 39.1717429,23.380347 C39.1717429,23.380347 38.022008,27.4012435 31.4393292,32.6153846 L30.2105263,31.4574954 L38.5668189,23.2581629 L38.7282041,23.0488901 C38.9505151,22.7010554 39.1346459,19.3100569 39.1563085,19.3333333" id="Path" fill="#999999" fill-rule="nonzero" mask="url(#mask-2)"></path>
                        <path d="M39.1563085,19.3333333 C40.3350168,20.5363172 39.1717429,23.380347 39.1717429,23.380347 C39.1717429,23.380347 38.022008,27.4012435 31.4393292,32.6153846 L30.2105263,31.4574954 L38.5668189,23.2581629 L38.7282041,23.0488901 C38.9505151,22.7010554 39.1346459,19.3100569 39.1563085,19.3333333 L39.1563085,19.3333333 Z" id="Path" stroke="#FFFFFF" stroke-width="0.959" stroke-linecap="round" stroke-linejoin="round" mask="url(#mask-2)"></path>
                        <path d="M28.3157895,29.9368711 L39.1131213,19.3333333 C39.6612009,19.963573 39.7777905,20.6426173 39.6187057,21.6100048 C39.5116503,22.2800796 38.316608,23.6191739 38.316608,23.6191739 L30.1313712,31.6666667" id="Path" fill="#666666" fill-rule="nonzero" mask="url(#mask-2)"></path>
                        <path d="M28.3157895,29.9368711 L39.1131213,19.3333333 C39.6612009,19.963573 39.7777905,20.6426173 39.6187057,21.6100048 C39.5116503,22.2800796 38.316608,23.6191739 38.316608,23.6191739 L30.1313712,31.6666667" id="Path" stroke="#FFFFFF" stroke-width="0.6005" stroke-linecap="round" stroke-linejoin="round" mask="url(#mask-2)"></path>
                        <path d="M39.6842105,19.7802098 L29.0435595,29.7692308 L29.0650006,29.7497779 L29.0609804,29.7512744 L26.4210526,27.3306457 C31.926307,20.9583522 35.4857874,19.770234 35.4857874,19.770234 C35.4857874,19.770234 37.8030275,18.9285256 39.4561314,19.5816913 C39.5831696,19.6450377 39.6383803,19.6814494 39.6839425,19.7804592" id="Path" fill="#000000" fill-rule="nonzero" mask="url(#mask-2)"></path>
                        <path d="M39.6842105,19.7802098 L29.0435595,29.7692308 L29.0650006,29.7497779 L29.0609804,29.7512744 L26.4210526,27.3306457 C31.926307,20.9583522 35.4857874,19.770234 35.4857874,19.770234 C35.4857874,19.770234 37.8030275,18.9285256 39.4561314,19.5816913 C39.5831696,19.6450377 39.6383803,19.6814494 39.6839425,19.7804592 L39.6842105,19.7802098 Z" id="Path" stroke="#FFFFFF" stroke-width="0.959" stroke-linecap="round" stroke-linejoin="round" mask="url(#mask-2)"></path>
                        <path d="M32.1052632,32.6035428 C29.5896718,34.6117598 26.3702886,37.7663156 21.9942963,39.9665757 L22.9676538,44 L18.8421053,40.0613102 L29.129684,29.7692308" id="Path" fill="#999999" fill-rule="nonzero" mask="url(#mask-2)"></path>
                        <path d="M32.1052632,32.6035428 C29.5896718,34.6117598 26.3702886,37.7663156 21.9942963,39.9665757 L22.9676538,44 L18.8421053,40.0613102 L29.129684,29.7692308" id="Path" stroke="#FFFFFF" stroke-width="0.959" stroke-linecap="round" stroke-linejoin="round" mask="url(#mask-2)"></path>
                        <polygon id="Path" fill="#000000" fill-rule="nonzero" mask="url(#mask-2)" points="26.8026677 27.9168448 29.2631579 30.41282 23.5789474 31.6666667 26.748206 27.8717949 26.8029234 27.9168448"></polygon>
                        <polygon id="Path" stroke="#FFFFFF" stroke-width="0.959" stroke-linecap="round" stroke-linejoin="round" mask="url(#mask-2)" points="26.8026677 27.9168448 29.2631579 30.41282 23.5789474 31.6666667 26.748206 27.8717949 26.8029234 27.9168448"></polygon>
                        <path d="M38.7602479,16.4899891 C38.5297703,18.8333993 40.0273865,20.9430186 42.1075446,21.2043143 C44.1859937,21.4645099 46.0603335,19.7759893 46.292276,17.4334042 C46.523486,15.0908192 45.0234284,12.9789995 42.9442468,12.7185289 C40.8638445,12.4597086 38.9909697,14.1460288 38.7602479,16.4899891" id="Path" fill="#999999" fill-rule="nonzero" mask="url(#mask-2)"></path>
                        <path d="M38.7602479,16.4899891 C38.5297703,18.8333993 40.0273865,20.9430186 42.1075446,21.2043143 C44.1859937,21.4645099 46.0603335,19.7759893 46.292276,17.4334042 C46.523486,15.0908192 45.0234284,12.9789995 42.9442468,12.7185289 C40.8638445,12.4597086 38.9909697,14.1460288 38.7602479,16.4899891 L38.7602479,16.4899891 Z" id="Path" stroke="#FFFFFF" stroke-width="0.959" stroke-linecap="round" stroke-linejoin="round" mask="url(#mask-2)"></path>
                        <path d="M45.7269003,18.9037443 C46.4075668,17.8126483 46.3723804,16.1803083 46.2356764,15.6967099 C46.0680656,15.1046019 45.6929026,14.1415786 45.0386259,13.6410256 L41.5789474,17.1373322 C41.5789474,17.1373322 44.2378976,20.2715921 44.3070817,20.2820513 C44.335849,20.2856775 45.1061457,19.8985901 45.7269003,18.9037443" id="Path" fill="#666666" fill-rule="nonzero" mask="url(#mask-2)"></path>
                        <path d="M45.7269003,18.9037243 C46.4075668,17.8126325 46.3723804,16.1802986 46.2356764,15.6967021 C46.0680656,15.1045963 45.6929026,14.1415767 45.0386259,13.6410256 L41.5789474,17.1373189 C41.5789474,17.1373189 44.2378976,20.2715669 44.3070817,20.2820261 C44.335849,20.2856522 45.1061457,19.8985664 45.7269003,18.9037243 L45.7269003,18.9037243 Z M45.0288782,16.1649091 C45.0288782,16.1649091 45.3614848,17.0611538 44.9394858,17.7583779 L45.0288782,16.1649091 Z" id="Shape" stroke="#FFFFFF" stroke-width="0.959" stroke-linecap="round" stroke-linejoin="round" mask="url(#mask-2)"></path>
                        <polyline id="Path" fill="#666666" fill-rule="nonzero" mask="url(#mask-2)" points="31.1578947 30.8590507 27.3684211 31.6666667 29.6557908 28.8205128"></polyline>
                        <path d="M31.1164586,31.8560153 L27.3904615,32.5615673 L29.6395161,30.0751016 M27.3684211,27.8717949 L32.1052632,32.6153846" id="Shape" stroke="#FFFFFF" stroke-width="0.959" stroke-linecap="round" stroke-linejoin="round" mask="url(#mask-2)"></path>
                    </g>
                </g>
            </g>
        </g>
    </g>
</svg>