<?xml version="1.0" encoding="UTF-8"?>
<svg width="160px" height="50px" viewBox="0 0 160 50" version="1.1" xmlns="http://www.w3.org/2000/svg" xmlns:xlink="http://www.w3.org/1999/xlink">
    <title>redis</title>
    <defs>
        <rect id="path-1" x="0" y="0" width="160" height="50"></rect>
    </defs>
    <g id="Page-1" stroke="none" stroke-width="1" fill="none" fill-rule="evenodd">
        <g id="a1qa-Software-blockchainapp-testing-v7" transform="translate(-979.000000, -4990.000000)">
            <g id="9" transform="translate(375.000000, 4875.000000)">
                <g id="4" transform="translate(594.000000, 105.000000)">
                    <g id="redis" transform="translate(10.000000, 10.000000)">
                        <mask id="mask-2" fill="white">
                            <use xlink:href="#path-1"></use>
                        </mask>
                        <use id="Mask" fill-opacity="0" fill="#D8D8D8" xlink:href="#path-1"></use>
                        <path d="M80.9,33 C81.68,33 82.1,32.46 82.1,31.78 L82.1,27.44 C82.5,27.5 82.94,27.52 83.28,27.52 C83.56,27.52 83.88,27.52 84.14,27.48 L86.98,32.16 C87.38,32.82 88.04,33.26 88.8,32.82 C89.44,32.44 89.48,31.62 89.02,30.9 L86.48,27.04 C88,26.52 89,25.2 89,23.26 C89,20.14 86.76,19.1 83.82,19.1 C82.56,19.1 81.46,19.22 80.82,19.36 C80.14,19.5 79.7,19.88 79.7,20.74 L79.7,31.78 C79.7,32.46 80.1,33 80.9,33 Z M83.46,25.72 C83.08,25.72 82.56,25.7 82.1,25.64 L82.1,21.36 C82.6,21.3 83.06,21.24 83.62,21.24 C85.36,21.24 86.48,21.82 86.48,23.4 C86.48,25.06 85.48,25.72 83.46,25.72 Z M96.16,33.2 C97.3,33.2 98.46,33 99.32,32.42 C99.84,32.08 99.96,31.56 99.74,31.14 C99.52,30.76 99.14,30.6 98.5,30.86 C97.88,31.12 97.24,31.38 96.38,31.38 C94.84,31.38 93.84,30.44 93.78,28.92 L98.88,28.92 C99.68,28.92 100.02,28.58 100.2,27.92 C100.26,27.7 100.3,27.26 100.3,26.98 C100.3,24.64 98.82,23 96.2,23 C93.32,23 91.54,25.04 91.54,28.14 C91.54,31.36 93.16,33.2 96.16,33.2 Z M98.2,27.34 L93.78,27.34 C93.92,25.72 94.78,24.82 96.2,24.82 C97.58,24.82 98.22,25.7 98.22,26.84 C98.22,27.02 98.22,27.14 98.2,27.34 Z M105.86,33.2 C107.28,33.2 108.22,32.62 108.78,31.68 L108.78,31.84 C108.78,32.46 109.16,33 109.92,33 C110.66,33 111.04,32.46 111.04,31.84 L111.04,20.36 C111.04,19.72 110.66,19.2 109.92,19.2 C109.16,19.2 108.78,19.72 108.78,20.36 L108.78,23.38 C108.28,23.18 107.5,23 106.56,23 C103.44,23 102.06,25.32 102.06,28.4 C102.06,31.2 103.34,33.2 105.86,33.2 Z M106.32,31.28 C104.96,31.28 104.38,30.14 104.38,28.44 C104.38,26.44 105,24.92 106.8,24.92 C107.56,24.92 108.22,25.06 108.78,25.38 L108.78,26.94 C108.78,29 108.44,31.28 106.32,31.28 Z M114.96,21.84 C115.74,21.84 116.28,21.42 116.28,20.62 C116.28,19.86 115.74,19.4 114.96,19.4 C114.16,19.4 113.66,19.86 113.66,20.62 C113.66,21.42 114.16,21.84 114.96,21.84 Z M114.96,33 C115.72,33 116.1,32.48 116.1,31.84 L116.1,24.36 C116.1,23.74 115.72,23.2 114.96,23.2 C114.22,23.2 113.84,23.74 113.84,24.36 L113.84,31.84 C113.84,32.48 114.22,33 114.96,33 Z M121.9,33.2 C124.6,33.2 125.86,32.06 125.86,30.16 C125.86,26.76 120.82,27.56 120.82,25.72 C120.82,25.16 121.24,24.82 122.16,24.82 C122.9,24.82 123.68,25.14 124.24,25.36 C124.88,25.56 125.28,25.46 125.5,24.98 C125.7,24.52 125.58,24.02 124.94,23.66 C124.28,23.28 123.24,23 122.08,23 C119.98,23 118.54,23.94 118.54,25.8 C118.54,29.34 123.58,28.46 123.58,30.36 C123.58,31.04 123.1,31.38 122.1,31.38 C121.36,31.38 120.54,31.16 119.78,30.82 C119.26,30.58 118.62,30.44 118.32,31.06 C118.06,31.6 118.24,32.06 118.78,32.44 C119.58,32.96 120.88,33.2 121.9,33.2 Z" id="Redis" fill="#000000" fill-rule="nonzero" mask="url(#mask-2)"></path>
                        <path d="M60.6287109,34.3080928 C58.7608594,35.2568291 49.085,39.1337111 47.0250586,40.1802388 C44.9651172,41.2268996 43.8207812,41.2167741 42.193418,40.4586911 C40.5661914,39.700608 30.2693555,35.6474617 28.4144922,34.7834601 C27.4875391,34.3517925 27,33.9872731 27,33.6430048 L27,30.1955255 C27,30.1955255 40.4052734,27.3517148 42.5693945,26.5950973 C44.7333789,25.8384798 45.4842383,25.8111675 47.3258398,26.4685281 C49.1677148,27.1261551 60.1798633,29.0622646 62,29.7118978 L61.9991797,33.1106147 C61.9994531,33.451419 61.5794531,33.8252645 60.6287109,34.3080928" id="Path" fill="#000000" fill-rule="nonzero" mask="url(#mask-2)"></path>
                        <path d="M60.6280304,30.9965731 C58.7603137,31.9891088 49.0847181,36.0468203 47.0247746,37.141984 C44.9649678,38.2375661 43.8206308,38.2268292 42.1934026,37.4334141 C40.5660376,36.6405569 30.2696015,32.3978082 28.4148731,31.4940959 C26.5601447,30.5898259 26.5213165,29.967504 28.3432324,29.2399048 C30.1651483,28.5120267 40.4051195,24.4145748 42.5695162,23.6226936 C44.7335028,22.8310912 45.4842262,22.8022271 47.3258296,23.4905042 C49.1675697,24.1785024 58.78547,28.082969 60.6053351,28.7627402 C62.4258838,29.4433481 62.4957471,30.0037585 60.6280304,30.9965731" id="Path" fill="#262626" fill-rule="nonzero" mask="url(#mask-2)"></path>
                        <path d="M60.6287109,28.3080349 C58.7608594,29.256907 49.085,33.1336664 47.0250586,34.1805966 C44.9651172,35.2268607 43.8207812,35.2167351 42.193418,34.45865 C40.5660547,33.7009646 30.2693555,29.6474074 28.4144922,28.7834035 C27.4875391,28.3517347 27,27.9877472 27,27.6433447 L27,24.1954563 C27,24.1954563 40.4052734,21.3517711 42.5693945,20.5951515 C44.7333789,19.8385319 45.4842383,19.8110863 47.3258398,20.4685819 C49.1678516,21.1260775 60.18,23.0617926 62,23.7115608 L61.9991797,27.1106867 C61.9994531,27.4513587 61.5794531,27.8252052 60.6287109,28.3080349" id="Path" fill="#000000" fill-rule="nonzero" mask="url(#mask-2)"></path>
                        <path d="M60.6280304,24.9965185 C58.7603137,25.989335 49.0847181,30.0467751 47.0247746,31.1423593 C44.9649678,32.2375251 43.8206308,32.2267882 42.1934026,31.4333717 C40.5660376,30.6405129 30.2696015,26.3978957 28.4148731,25.4940422 C26.5601447,24.5900494 26.5213165,23.9675869 28.3432324,23.2397074 C30.1651483,22.5122462 40.4052562,18.4145077 42.5695162,17.6227645 C44.7335028,16.8310212 45.4842262,16.8022965 47.3258296,17.4904354 C49.1675697,18.1784349 58.78547,22.08263 60.6053351,22.7626814 C62.4258838,23.4431511 62.4957471,24.003702 60.6280304,24.9965185" id="Path" fill="#262626" fill-rule="nonzero" mask="url(#mask-2)"></path>
                        <path d="M60.6287109,22.3078881 C58.7608594,23.256508 49.085,27.1335923 47.0250586,28.1805383 C44.9651172,29.2269514 43.8207812,29.2166924 42.193418,28.4585959 C40.5660547,27.700899 30.2693555,23.6471476 28.4144922,22.7835304 C27.4875391,22.3514553 27,21.9873292 27,21.6433212 L27,18.1952476 C27,18.1952476 40.4052734,15.3516528 42.5693945,14.595155 C44.7333789,13.8383908 45.4842383,13.8112112 47.3258398,14.4685835 C49.1678516,15.1260891 60.18,17.0618333 62,17.7116113 L61.9991797,21.1106551 C61.9994531,21.4510658 61.5794531,21.824918 60.6287109,22.3078881" id="Path" fill="#000000" fill-rule="nonzero" mask="url(#mask-2)"></path>
                        <path d="M60.6280277,18.9964809 C58.7603074,19.9893133 49.0846928,24.0470973 47.0247453,25.1422807 C44.9649346,26.237464 43.8205952,26.2267269 42.1933639,25.433716 C40.5661325,24.6402868 30.2695396,20.3978806 28.4149442,19.4938732 C26.5600755,18.5900053 26.521384,17.9673934 28.3431667,17.2396417 C30.1650861,16.5120295 40.4052141,12.4147832 42.5694783,11.6227483 C44.733469,10.830853 45.4841939,10.8024066 47.3258009,11.4905566 C49.1675446,12.1787066 58.7854637,16.0829641 60.6053324,16.7630264 C62.4258846,17.4429492 62.4957481,18.0036485 60.6280277,18.9964809" id="Path" fill="#262626" fill-rule="nonzero" mask="url(#mask-2)"></path>
                        <path d="M50,15.6999265 L46.7926728,16.029661 L46.0747036,17.7405284 L44.915053,15.8313874 L41.2115446,15.5017972 L43.9750045,14.5149027 L43.1458499,13 L45.7331328,14.0020465 L48.1722169,13.211261 L47.5129735,14.7776801 L50,15.6999265 M45.8832258,24 L39.8974293,21.5414939 L48.4745888,20.2377079 L45.8832258,24 M37.5843941,16.6508894 C40.1163028,16.6508894 42.1687882,17.4387889 42.1687882,18.4105316 C42.1687882,19.3825628 40.1163028,20.170318 37.5843941,20.170318 C35.0524854,20.170318 33,19.3824185 33,18.4105316 C33,17.4387889 35.0524854,16.6508894 37.5843941,16.6508894" id="Shape" fill="#FFFFFF" fill-rule="nonzero" mask="url(#mask-2)"></path>
                        <polyline id="Path" fill="#474747" fill-rule="nonzero" mask="url(#mask-2)" points="52 17.000109 57 18.5007631 52.0043059 20 52 17"></polyline>
                        <polyline id="Path" fill="#000000" fill-rule="nonzero" mask="url(#mask-2)" points="47 18.1029762 51.996111 16 52 19.7961168 51.5101115 20 47 18.1029762"></polyline>
                    </g>
                </g>
            </g>
        </g>
    </g>
</svg>