<?xml version="1.0" encoding="UTF-8"?>
<svg width="160px" height="50px" viewBox="0 0 160 50" version="1.1" xmlns="http://www.w3.org/2000/svg" xmlns:xlink="http://www.w3.org/1999/xlink">
    <title>scrum-of-scrums</title>
    <defs>
        <rect id="path-1" x="0" y="0" width="160" height="50"></rect>
    </defs>
    <g id="Page-1" stroke="none" stroke-width="1" fill="none" fill-rule="evenodd">
        <g id="a1qa-Agile-testing-V5-" transform="translate(-781.000000, -811.000000)">
            <g id="Group" transform="translate(375.000000, 707.000000)">
                <g id="scrum-of-scrums" transform="translate(406.000000, 104.000000)">
                    <mask id="mask-2" fill="white">
                        <use xlink:href="#path-1"></use>
                    </mask>
                    <use id="Mask" fill-opacity="0" fill="#D8D8D8" xlink:href="#path-1"></use>
                    <path d="M38.06,19.24 C42.164,19.24 43.94,17.104 43.94,14.152 C43.94,8.344 35.564,9.856 35.564,6.568 C35.564,5.488 36.332,4.84 37.94,4.84 C38.996,4.84 39.932,5.08 40.892,5.488 C41.708,5.848 42.716,6.112 43.172,5.224 C43.58,4.432 43.268,3.712 42.332,3.208 C41.204,2.56 39.668,2.2 38.156,2.2 C34.484,2.2 32.66,4 32.66,6.664 C32.66,12.712 41.036,10.816 41.036,14.512 C41.036,15.904 39.884,16.6 38.132,16.6 C36.836,16.6 35.78,16.288 34.532,15.712 C33.596,15.328 32.852,15.256 32.468,16 C32.036,16.84 32.42,17.68 33.5,18.256 C34.772,18.904 36.38,19.24 38.06,19.24 Z M51.548,19.24 C52.988,19.24 54.332,18.88 55.268,18.136 C55.916,17.608 56.084,16.936 55.748,16.384 C55.46,15.904 54.908,15.76 54.116,16.144 C53.396,16.504 52.7,16.816 51.812,16.816 C50.036,16.816 48.812,15.496 48.812,13.216 C48.812,10.864 49.94,9.424 51.788,9.424 C52.676,9.424 53.18,9.592 53.828,9.784 C54.668,10.048 55.148,9.856 55.412,9.28 C55.676,8.704 55.508,8.104 54.812,7.672 C54.092,7.216 53.012,7 51.716,7 C48.188,7 46.028,9.376 46.028,13.216 C46.028,17.032 48.116,19.24 51.548,19.24 Z M59.516,19 C60.428,19 60.884,18.376 60.884,17.608 L60.884,13.552 C60.884,10.744 61.532,9.448 62.948,9.448 C63.356,9.448 63.716,9.544 64.076,9.664 C64.772,9.904 65.324,9.736 65.588,9.136 C65.972,8.248 65.396,7 63.404,7 C62.348,7 61.388,7.624 60.884,8.536 C60.884,7.912 60.428,7.24 59.516,7.24 C58.628,7.24 58.172,7.888 58.172,8.632 L58.172,17.608 C58.172,18.376 58.628,19 59.516,19 Z M71.564,19.24 C72.98,19.24 74.396,18.616 75.116,17.248 L75.116,17.608 C75.116,18.352 75.572,19 76.484,19 C77.372,19 77.828,18.352 77.828,17.608 L77.828,8.632 C77.828,7.864 77.372,7.24 76.484,7.24 C75.572,7.24 75.116,7.864 75.116,8.632 L75.116,11.728 C75.068,14.416 74.54,16.84 72.212,16.84 C70.676,16.84 70.172,15.736 70.172,14.152 L70.172,8.632 C70.172,7.864 69.716,7.24 68.828,7.24 C67.916,7.24 67.46,7.864 67.46,8.632 L67.46,14.104 C67.46,17.296 68.444,19.24 71.564,19.24 Z M96.956,19 C97.868,19 98.3,18.376 98.3,17.608 L98.3,12.064 C98.3,8.944 97.484,7 94.556,7 C92.876,7 91.364,7.84 90.668,9.328 C90.236,7.816 89.06,7 87.5,7 C85.796,7 84.596,7.744 83.852,9.016 L83.852,8.632 C83.852,7.888 83.42,7.24 82.508,7.24 C81.62,7.24 81.188,7.888 81.188,8.632 L81.188,17.608 C81.188,18.376 81.62,19 82.508,19 C83.42,19 83.852,18.376 83.852,17.608 L83.852,14.416 C83.876,11.968 84.356,9.304 86.66,9.304 C88.1893793,9.304 88.3987301,10.5792818 88.4113495,12.3305762 L88.412,17.608 C88.412,18.376 88.844,19 89.732,19 C90.644,19 91.076,18.376 91.076,17.608 L91.076,14.632 C91.076,12.136 91.484,9.304 93.884,9.304 C95.348,9.304 95.636,10.408 95.636,11.992 L95.636,17.608 C95.636,18.376 96.068,19 96.956,19 Z M112.556,19.24 C116.276,19.24 118.316,16.6 118.316,13.12 C118.316,9.664 116.276,7 112.556,7 C108.836,7 106.82,9.64 106.82,13.12 C106.82,16.6 108.836,19.24 112.556,19.24 Z M112.556,16.936 C110.612,16.936 109.604,15.304 109.604,13.12 C109.604,10.96 110.588,9.304 112.556,9.304 C114.548,9.304 115.532,10.96 115.532,13.12 C115.532,15.304 114.548,16.936 112.556,16.936 Z M123.38,19 C124.292,19 124.748,18.376 124.748,17.608 L124.748,9.544 L126.788,9.544 C127.652,9.544 128.084,9.112 128.084,8.392 C128.084,7.648 127.652,7.24 126.788,7.24 L124.748,7.24 L124.748,6.376 C124.748,5.2 125.204,4.504 126.236,4.504 C126.86,4.504 127.412,4.648 127.82,4.768 C128.54,4.96 129.116,4.888 129.356,4.192 C129.572,3.592 129.332,3.112 128.732,2.752 C128.228,2.44 127.268,2.2 126.116,2.2 C124.748,2.2 123.572,2.68 122.9,3.52 C122.252,4.336 122.036,5.488 122.036,7.144 L122.036,7.24 L121.412,7.24 C120.548,7.24 120.116,7.648 120.116,8.392 C120.116,9.112 120.548,9.544 121.412,9.544 L122.036,9.544 L122.036,17.608 C122.036,18.376 122.492,19 123.38,19 Z M47.012,43.24 C51.116,43.24 52.892,41.104 52.892,38.152 C52.892,32.344 44.516,33.856 44.516,30.568 C44.516,29.488 45.284,28.84 46.892,28.84 C47.948,28.84 48.884,29.08 49.844,29.488 C50.66,29.848 51.668,30.112 52.124,29.224 C52.532,28.432 52.22,27.712 51.284,27.208 C50.156,26.56 48.62,26.2 47.108,26.2 C43.436,26.2 41.612,28 41.612,30.664 C41.612,36.712 49.988,34.816 49.988,38.512 C49.988,39.904 48.836,40.6 47.084,40.6 C45.788,40.6 44.732,40.288 43.484,39.712 C42.548,39.328 41.804,39.256 41.42,40 C40.988,40.84 41.372,41.68 42.452,42.256 C43.724,42.904 45.332,43.24 47.012,43.24 Z M60.5,43.24 C61.94,43.24 63.284,42.88 64.22,42.136 C64.868,41.608 65.036,40.936 64.7,40.384 C64.412,39.904 63.86,39.76 63.068,40.144 C62.348,40.504 61.652,40.816 60.764,40.816 C58.988,40.816 57.764,39.496 57.764,37.216 C57.764,34.864 58.892,33.424 60.74,33.424 C61.628,33.424 62.132,33.592 62.78,33.784 C63.62,34.048 64.1,33.856 64.364,33.28 C64.628,32.704 64.46,32.104 63.764,31.672 C63.044,31.216 61.964,31 60.668,31 C57.14,31 54.98,33.376 54.98,37.216 C54.98,41.032 57.068,43.24 60.5,43.24 Z M68.468,43 C69.38,43 69.836,42.376 69.836,41.608 L69.836,37.552 C69.836,34.744 70.484,33.448 71.9,33.448 C72.308,33.448 72.668,33.544 73.028,33.664 C73.724,33.904 74.276,33.736 74.54,33.136 C74.924,32.248 74.348,31 72.356,31 C71.3,31 70.34,31.624 69.836,32.536 C69.836,31.912 69.38,31.24 68.468,31.24 C67.58,31.24 67.124,31.888 67.124,32.632 L67.124,41.608 C67.124,42.376 67.58,43 68.468,43 Z M80.516,43.24 C81.932,43.24 83.348,42.616 84.068,41.248 L84.068,41.608 C84.068,42.352 84.524,43 85.436,43 C86.324,43 86.78,42.352 86.78,41.608 L86.78,32.632 C86.78,31.864 86.324,31.24 85.436,31.24 C84.524,31.24 84.068,31.864 84.068,32.632 L84.068,35.728 C84.02,38.416 83.492,40.84 81.164,40.84 C79.628,40.84 79.124,39.736 79.124,38.152 L79.124,32.632 C79.124,31.864 78.668,31.24 77.78,31.24 C76.868,31.24 76.412,31.864 76.412,32.632 L76.412,38.104 C76.412,41.296 77.396,43.24 80.516,43.24 Z M105.908,43 C106.82,43 107.252,42.376 107.252,41.608 L107.252,36.064 C107.252,32.944 106.436,31 103.508,31 C101.828,31 100.316,31.84 99.62,33.328 C99.188,31.816 98.012,31 96.452,31 C94.748,31 93.548,31.744 92.804,33.016 L92.804,32.632 C92.804,31.888 92.372,31.24 91.46,31.24 C90.572,31.24 90.14,31.888 90.14,32.632 L90.14,41.608 C90.14,42.376 90.572,43 91.46,43 C92.372,43 92.804,42.376 92.804,41.608 L92.804,38.416 C92.828,35.968 93.308,33.304 95.612,33.304 C97.1413793,33.304 97.3507301,34.5792818 97.3633495,36.3305762 L97.364,41.608 C97.364,42.376 97.796,43 98.684,43 C99.596,43 100.028,42.376 100.028,41.608 L100.028,38.632 C100.028,36.136 100.436,33.304 102.836,33.304 C104.3,33.304 104.588,34.408 104.588,35.992 L104.588,41.608 C104.588,42.376 105.02,43 105.908,43 Z M114.212,43.24 C117.452,43.24 118.964,41.872 118.964,39.592 C118.964,35.512 112.916,36.472 112.916,34.264 C112.916,33.592 113.42,33.184 114.524,33.184 C115.412,33.184 116.348,33.568 117.02,33.832 C117.788,34.072 118.268,33.952 118.532,33.376 C118.772,32.824 118.628,32.224 117.86,31.792 C117.068,31.336 115.82,31 114.428,31 C111.908,31 110.18,32.128 110.18,34.36 C110.18,38.608 116.228,37.552 116.228,39.832 C116.228,40.648 115.652,41.056 114.452,41.056 C113.564,41.056 112.58,40.792 111.668,40.384 C111.044,40.096 110.276,39.928 109.916,40.672 C109.604,41.32 109.82,41.872 110.468,42.328 C111.428,42.952 112.988,43.24 114.212,43.24 Z" id="ScrumofScrums" fill="#000000" fill-rule="nonzero" mask="url(#mask-2)"></path>
                </g>
            </g>
        </g>
    </g>
</svg>