<?xml version="1.0" encoding="UTF-8"?>
<svg width="160px" height="50px" viewBox="0 0 160 50" version="1.1" xmlns="http://www.w3.org/2000/svg" xmlns:xlink="http://www.w3.org/1999/xlink">
    <title>swagger</title>
    <defs>
        <rect id="path-1" x="0" y="0" width="160" height="50"></rect>
    </defs>
    <g id="Page-1" stroke="none" stroke-width="1" fill="none" fill-rule="evenodd">
        <g id="a1qa-Software-blockchainapp-testing-v7" transform="translate(-583.000000, -4990.000000)">
            <g id="9" transform="translate(375.000000, 4875.000000)">
                <g id="2" transform="translate(198.000000, 105.000000)">
                    <g id="swagger" transform="translate(10.000000, 10.000000)">
                        <mask id="mask-2" fill="white">
                            <use xlink:href="#path-1"></use>
                        </mask>
                        <use id="Mask" fill-opacity="0" fill="#D8D8D8" xlink:href="#path-1"></use>
                        <path d="M35.8530714,44.9995189 C25.1954147,44.9260113 15.9285822,36.0810066 16.0004149,24.8434849 C16.0694765,14.0306036 25.0549468,4.92672382 36.1734406,5.00044462 C46.9792387,5.07224783 56.0957982,14.041683 55.9992399,25.0303436 C56.0887641,35.9192896 46.9272293,45.0764358 35.8530714,44.9995189 Z M35.8530714,44.9995189 C25.1954147,44.9260113 15.9285822,36.0810066 16.0004149,24.8434849 C16.0694765,14.0306036 25.0549468,4.92672382 36.1734406,5.00044462 C46.9792387,5.07224783 56.0957982,14.041683 55.9992399,25.0303436 C56.0887641,35.9192896 46.9272293,45.0764358 35.8530714,44.9995189 Z" id="Shape" fill="#FFFFFF" fill-rule="nonzero" mask="url(#mask-2)"></path>
                        <path d="M35.8751257,41.9995907 C26.8157694,41.9370956 18.9392915,34.4187266 19.0003527,24.8669755 C19.0591215,15.6758209 26.696773,7.93746919 36.1475044,8.00038092 C45.3323176,8.0614178 53.0814629,15.6856118 52.9993534,25.0259214 C53.0754194,34.2814458 45.2883451,42.0650023 35.8751257,41.9995907 Z M35.8751257,41.9995907 C26.8157694,41.9370956 18.9392915,34.4187266 19.0003527,24.8669755 C19.0591215,15.6758209 26.696773,7.93746919 36.1475044,8.00038092 C45.3323176,8.0614178 53.0814629,15.6856118 52.9993534,25.0259214 C53.0754194,34.2814458 45.2883451,42.0650023 35.8751257,41.9995907 Z" id="Shape" fill="#000000" fill-rule="nonzero" mask="url(#mask-2)"></path>
                        <path d="M42.2564583,25.0186228 C42.2129166,25.8221965 41.5058333,26.4894627 40.8089584,26.3730118 C40.8056251,26.3730118 40.8020834,26.3730118 40.7985417,26.3730118 C40.0266666,26.374046 39.4002083,25.7535256 39.399375,24.987183 C39.4256251,24.2187719 40.0675,23.6131442 40.8416667,23.6261751 C41.6135416,23.6298981 42.2981251,24.2775146 42.2564583,25.0186228 Z M29.8445833,32.8055326 C30.135625,32.8140129 30.426875,32.8078077 30.7625,32.8078077 L30.7625,34.9018571 C28.6764583,35.2520373 26.958125,34.6639909 26.5364583,32.9132962 C26.3920833,32.2696097 26.3033333,31.6147539 26.2708333,30.9559682 C26.2260417,30.2585034 26.3035417,29.5531785 26.25,28.8569547 C26.1016667,26.9412016 25.8516667,26.2871732 24,26.1965771 L24,23.8123312 C24.1327083,23.7815119 24.2672917,23.7587596 24.4027083,23.7436603 C25.4179167,23.6940186 25.8458333,23.3849994 26.0729167,22.3921669 C26.17625,21.8343191 26.2375,21.2696455 26.255625,20.7026968 C26.3360417,19.6064442 26.3075,18.4924034 26.4914583,17.413939 C26.7572917,15.8543646 27.7325,15.0967092 29.3433333,15.0119048 C29.8016667,14.9874976 30.2614583,15.0081816 30.7808333,15.0081816 L30.7808333,17.1485632 C30.5670833,17.1636625 30.37125,17.1944817 30.1766667,17.1886901 C28.8639583,17.14877 28.7960417,17.5926489 28.7002083,18.6715269 C28.6404167,19.3481009 28.7229167,20.036258 28.6764583,20.7151073 C28.6279167,21.390647 28.536875,22.0626705 28.4039583,22.7270411 C28.2145833,23.6898818 27.6183333,24.4059623 26.7920833,25.0136586 C28.3960417,26.0499275 28.5785417,27.6601777 28.6827083,29.295249 C28.73875,30.1739057 28.713125,31.0587677 28.8029167,31.9330809 C28.8729167,32.6117234 29.13875,32.7848484 29.8445833,32.8055326 Z M31.1964583,23.6261751 C31.2047917,23.6261751 31.2129167,23.6261751 31.22125,23.6261751 C31.9881251,23.6387923 32.5997917,24.2661383 32.5870833,25.0277236 C32.5870833,25.0527513 32.5862499,25.0775722 32.5847917,25.102393 C32.5416666,25.8466036 31.8991667,26.4150004 31.1495833,26.3721844 C31.119375,26.3728049 31.089375,26.3721844 31.0591667,26.3707365 C30.2958333,26.3330917 29.7077083,25.6881641 29.745625,24.930302 C29.7835417,24.1724398 30.433125,23.5885301 31.1964583,23.6261751 Z M35.9754167,23.6261751 C36.8141666,23.619763 37.37125,24.1594089 37.3756251,24.9826325 C37.3802083,25.8279881 36.8520833,26.368875 36.01875,26.3724107 C35.1712499,26.3761144 34.6133333,25.8439147 34.60875,25.0256552 C34.60625,24.9838736 34.605625,24.9420919 34.6068749,24.9003102 C34.6304167,24.1732671 35.243125,23.602802 35.9754167,23.6261751 Z M45.9812499,22.5832872 C46.2043749,23.4106476 46.63875,23.7014648 47.5160417,23.7411781 C47.6597918,23.7477971 47.8029167,23.7719973 48,23.7937156 L48,26.177341 C47.8933334,26.2120902 47.7839583,26.238152 47.6729167,26.2551129 C46.4972917,26.3277137 45.9614584,26.8065487 45.8427084,27.97685 C45.766875,28.7239564 45.773125,29.4793367 45.7210418,30.2291321 C45.6991667,31.0523556 45.6237501,31.8733041 45.4952083,32.6868064 C45.1952083,34.160749 44.2683334,34.8960656 42.736875,34.9858342 C42.2439583,35.0147918 41.7475,34.9903846 41.2160417,34.9903846 L41.2160417,32.8599314 C41.5020834,32.8423501 41.7545834,32.8181497 42.0077084,32.8121514 C42.9227084,32.7904331 43.24625,32.4975476 43.2910417,31.5953109 C43.340625,30.6041332 43.3622917,29.6117143 43.406875,28.6203297 C43.4716667,27.1873412 43.8668751,25.9072078 45.2114583,25.0134517 C44.4420833,24.4688416 43.824375,23.8092285 43.664375,22.919816 C43.4708334,21.8417654 43.4083333,20.7399281 43.3041667,19.6467781 C43.2527084,19.1003065 43.2552083,18.5490776 43.2014583,18.0030197 C43.1435417,17.4135253 42.735625,17.209581 42.1952084,17.1963432 C41.885625,17.188897 41.5747917,17.1948953 41.1789584,17.1948953 L41.1789584,15.1144975 C43.7047916,14.6981283 45.4495834,15.5325213 45.6116667,17.9318667 C45.6795834,18.9393849 45.6695833,19.9516604 45.7345833,20.9591787 C45.763125,21.5073049 45.845625,22.0512944 45.9812499,22.5832872 Z" id="Shape" fill="#FFFFFF" fill-rule="nonzero" mask="url(#mask-2)"></path>
                        <path d="M70.68,31.2 C74.1,31.2 75.58,29.42 75.58,26.96 C75.58,22.12 68.6,23.38 68.6,20.64 C68.6,19.74 69.24,19.2 70.58,19.2 C71.46,19.2 72.24,19.4 73.04,19.74 C73.72,20.04 74.56,20.26 74.94,19.52 C75.28,18.86 75.02,18.26 74.24,17.84 C73.3,17.3 72.02,17 70.76,17 C67.7,17 66.18,18.5 66.18,20.72 C66.18,25.76 73.16,24.18 73.16,27.26 C73.16,28.42 72.2,29 70.74,29 C69.66,29 68.78,28.74 67.74,28.26 C66.96,27.94 66.34,27.88 66.02,28.5 C65.66,29.2 65.98,29.9 66.88,30.38 C67.94,30.92 69.28,31.2 70.68,31.2 Z M85.78,31.2 C86.54,31.2 86.8,30.68 87.02,29.98 L89.24,22.8 C89.32,22.56 89.36,22.34 89.36,22.14 C89.36,21.64 89.04,21.2 88.32,21.2 C87.78,21.2 87.48,21.62 87.28,22.34 L85.72,27.88 L84.18,23.34 C84,22.84 83.76,22.46 83.18,22.46 C82.64,22.46 82.36,22.84 82.2,23.34 L80.78,27.84 L79.22,22.6 C78.94,21.68 78.58,21.2 78.02,21.2 C77.2,21.2 76.92,21.78 76.92,22.32 C76.92,22.6 77,22.92 77.08,23.18 L79.34,30.02 C79.56,30.7 79.8,31.2 80.54,31.2 C81.24,31.2 81.54,30.76 81.76,30.04 L83.12,25.58 L84.58,30.1 C84.8,30.8 85.12,31.2 85.78,31.2 Z M93.56,31.2 C95.22,31.2 96.22,30.42 96.76,29.48 L96.76,29.84 C96.76,30.48 97.1,31 97.84,31 C98.6,31 98.92,30.48 98.92,29.84 L98.92,24.72 C98.92,22.4 97.72,21 94.98,21 C93.72,21 92.44,21.26 91.72,21.74 C91.26,22.04 91.06,22.44 91.22,22.92 C91.38,23.4 91.88,23.52 92.36,23.38 C93.24,23.12 93.8,22.88 94.72,22.88 C96.46,22.88 96.76,23.82 96.76,24.9 L96.76,25.12 C96.4,25.06 95.62,24.98 94.66,24.98 C92.46,24.98 90.36,25.82 90.36,28.26 C90.36,30.04 91.54,31.2 93.56,31.2 Z M94.16,29.44 C93.16,29.44 92.58,28.88 92.58,28.08 C92.58,26.88 93.56,26.4 94.98,26.4 C95.72,26.4 96.24,26.42 96.76,26.5 L96.76,26.84 C96.76,28.1 95.86,29.44 94.16,29.44 Z M105.32,35.2 C108.66,35.2 110.34,33.74 110.34,31.78 C110.34,29.9 108.6,29.34 106.14,29.24 C103.72,29.14 103.08,28.8 103.08,28.24 C103.08,27.96 103.28,27.64 103.62,27.42 C104.16,27.62 104.78,27.72 105.52,27.72 C108.16,27.72 109.54,26.32 109.54,24.38 C109.54,23.8 109.38,23.26 109.14,22.78 L109.84,22.78 C110.46,22.78 110.76,22.5 110.76,22 C110.76,21.46 110.46,21.2 109.84,21.2 L107.08,21.2 C106.62,21.08 106.1,21 105.52,21 C102.9,21 101.52,22.38 101.52,24.38 C101.52,25.3 101.82,26.08 102.4,26.66 C101.76,27.18 101.32,27.82 101.32,28.58 C101.32,29.14 101.6,29.8 102.26,30.16 C101.34,30.68 100.82,31.48 100.82,32.38 C100.82,33.76 101.82,35.2 105.32,35.2 Z M105.52,26 C104.26,26 103.54,25.34 103.54,24.38 C103.54,23.4 104.26,22.72 105.52,22.72 C106.78,22.72 107.5,23.4 107.5,24.38 C107.5,25.34 106.78,26 105.52,26 Z M105.3,33.46 C103.48,33.46 102.86,32.76 102.86,32.12 C102.86,31.5 103.3,31.04 103.94,30.74 C104.4,30.82 104.9,30.88 105.5,30.92 C107.46,31.06 108.18,31.28 108.18,31.96 C108.18,32.76 107.38,33.46 105.3,33.46 Z M115.98,35.2 C119.32,35.2 121,33.74 121,31.78 C121,29.9 119.26,29.34 116.8,29.24 C114.38,29.14 113.74,28.8 113.74,28.24 C113.74,27.96 113.94,27.64 114.28,27.42 C114.82,27.62 115.44,27.72 116.18,27.72 C118.82,27.72 120.2,26.32 120.2,24.38 C120.2,23.8 120.04,23.26 119.8,22.78 L120.5,22.78 C121.12,22.78 121.42,22.5 121.42,22 C121.42,21.46 121.12,21.2 120.5,21.2 L117.74,21.2 C117.28,21.08 116.76,21 116.18,21 C113.56,21 112.18,22.38 112.18,24.38 C112.18,25.3 112.48,26.08 113.06,26.66 C112.42,27.18 111.98,27.82 111.98,28.58 C111.98,29.14 112.26,29.8 112.92,30.16 C112,30.68 111.48,31.48 111.48,32.38 C111.48,33.76 112.48,35.2 115.98,35.2 Z M116.18,26 C114.92,26 114.2,25.34 114.2,24.38 C114.2,23.4 114.92,22.72 116.18,22.72 C117.44,22.72 118.16,23.4 118.16,24.38 C118.16,25.34 117.44,26 116.18,26 Z M115.96,33.46 C114.14,33.46 113.52,32.76 113.52,32.12 C113.52,31.5 113.96,31.04 114.6,30.74 C115.06,30.82 115.56,30.88 116.16,30.92 C118.12,31.06 118.84,31.28 118.84,31.96 C118.84,32.76 118.04,33.46 115.96,33.46 Z M127.16,31.2 C128.3,31.2 129.46,31 130.32,30.42 C130.84,30.08 130.96,29.56 130.74,29.14 C130.52,28.76 130.14,28.6 129.5,28.86 C128.88,29.12 128.24,29.38 127.38,29.38 C125.84,29.38 124.84,28.44 124.78,26.92 L129.88,26.92 C130.68,26.92 131.02,26.58 131.2,25.92 C131.26,25.7 131.3,25.26 131.3,24.98 C131.3,22.64 129.82,21 127.2,21 C124.32,21 122.54,23.04 122.54,26.14 C122.54,29.36 124.16,31.2 127.16,31.2 Z M129.2,25.34 L124.78,25.34 C124.92,23.72 125.78,22.82 127.2,22.82 C128.58,22.82 129.22,23.7 129.22,24.84 C129.22,25.02 129.22,25.14 129.2,25.34 Z M134.68,31 C135.44,31 135.82,30.48 135.82,29.84 L135.82,26.46 C135.82,24.12 136.36,23.04 137.54,23.04 C137.88,23.04 138.18,23.12 138.48,23.22 C139.06,23.42 139.52,23.28 139.74,22.78 C140.06,22.04 139.58,21 137.92,21 C137.04,21 136.24,21.52 135.82,22.28 C135.82,21.76 135.44,21.2 134.68,21.2 C133.94,21.2 133.56,21.74 133.56,22.36 L133.56,29.84 C133.56,30.48 133.94,31 134.68,31 Z" id="Swagger" fill="#000000" fill-rule="nonzero" mask="url(#mask-2)"></path>
                    </g>
                </g>
            </g>
        </g>
    </g>
</svg>