<?xml version="1.0" encoding="UTF-8"?>
<svg width="160px" height="50px" viewBox="0 0 160 50" version="1.1" xmlns="http://www.w3.org/2000/svg" xmlns:xlink="http://www.w3.org/1999/xlink">
    <title>turkcell</title>
    <defs>
        <rect id="path-1" x="0" y="0" width="160" height="50"></rect>
    </defs>
    <g id="Page-1" stroke="none" stroke-width="1" fill="none" fill-rule="evenodd">
        <g id="a1qa-main" transform="translate(-775.000000, -2330.000000)">
            <g id="3-block-deliver-globally" transform="translate(0.000000, 1849.000000)">
                <g id="logo-9" transform="translate(765.000000, 461.000000)">
                    <g id="turkcell" transform="translate(10.000000, 20.000000)">
                        <mask id="mask-2" fill="white">
                            <use xlink:href="#path-1"></use>
                        </mask>
                        <use id="Mask" fill-opacity="0" fill="#D8D8D8" xlink:href="#path-1"></use>
                        <path d="M26.0954695,12 C33.3310251,12 39.1923917,17.8217568 39.1938443,24.9985527 C39.1938443,32.1825717 33.3324778,38 26.0983748,38 C24.671181,38.000906 23.2534926,37.7691023 21.9017235,37.3138074 C22.0542498,33.5217202 25.4592171,28.0495578 30.8019944,25.6081759 C31.5708486,26.6549793 32.9296735,27.0909824 34.1687518,26.68846 C35.40783,26.2859375 36.2458061,25.1362895 36.2450032,23.8399798 C36.2450032,22.1902413 34.8955089,20.8496481 33.229341,20.8496481 C31.5660783,20.8496481 30.216584,22.1887967 30.216584,23.8414244 L30.216584,23.8414244 L30.2223945,23.959882 C23.3064178,26.2091314 19.7314926,29.8206431 17.5903143,34.8767594 C16.6122867,34.0491041 15.7625302,33.0823463 15.0685467,32.0077745 C15.3343782,26.7046308 17.2460408,22.2711391 20.9342712,20.1071213 C21.78636,21.2301635 23.3098945,21.6115071 24.5950542,21.0234222 C25.8802139,20.4353374 26.5800965,19.0365655 26.2767478,17.6624216 C25.9733991,16.2882778 24.7487019,15.3096838 23.3340178,15.3110339 C21.6678499,15.3110339 20.3169029,16.6501824 20.3169029,18.3042547 C20.3169029,18.3865972 20.3256187,18.4674951 20.3314293,18.5455037 C16.7768409,20.2486926 14.2783154,23.0671163 13.0145263,25.5186104 C13.0058105,25.3467024 13,25.1733499 13,25.0014419 C13,17.8217568 18.8613666,12 26.0954695,12 Z M104.572413,16.8407127 C106.132539,16.8407127 107.44136,17.2742516 108.500328,18.1467928 C109.575275,19.019334 110.250748,20.2746955 110.523843,21.9114326 L107.320791,21.9114326 C106.943107,20.3945977 106.035213,19.6361802 104.595655,19.6361802 C103.641277,19.6361802 102.861214,19.8687616 102.242393,20.488497 C101.426014,21.3090324 100.865298,22.5831737 100.865298,24.8829844 C100.865298,26.3882624 101.074477,27.569949 101.353383,28.1795722 C101.597425,28.735745 101.901024,29.1590141 102.219151,29.5071639 C103.023908,30.2554691 103.744413,30.3667036 104.595655,30.3667036 C106.029402,30.3667036 106.941654,29.6082862 107.320791,28.0914513 L110.523843,28.0914513 C110.250748,29.7281884 109.562201,30.9922175 108.455296,31.8777601 C107.409402,32.7387445 106.11656,33.1663475 104.572413,33.1663475 C102.846687,33.1663475 101.391151,32.5812826 100.208709,31.406819 C100.086213,31.283075 99.9693992,31.153892 99.8586251,31.0196649 C99.0131938,30.1211208 98.4030888,28.9553249 98.0588152,27.6205102 C97.8612747,26.7373911 97.7618995,25.8353613 97.7624759,24.9306563 C97.7624759,23.9107654 97.8670679,22.8576486 98.1256362,21.986552 C98.8287097,19.6751846 100.154962,17.7336359 102.810372,17.0691178 C103.384516,16.9135421 103.977351,16.8367487 104.572413,16.8407127 Z M60.6157955,17.0532271 L60.6157955,27.3893734 C60.6157955,28.2994744 60.8627427,29.0131091 61.3566373,29.5331668 C61.8505319,30.0532271 62.527458,30.3132533 63.3830577,30.3132533 C64.2357522,30.3132533 64.9126783,30.0532271 65.4065729,29.5331668 C65.9164464,29.0102199 66.1706569,28.2994744 66.1706569,27.3893734 L66.1706569,17.0532271 L69.2734769,17.0532271 L69.2734769,27.500608 L69.2749296,27.500608 C69.2749296,29.1561249 68.7127613,30.5010519 67.5898775,31.545501 C66.4626357,32.5711704 65.0622993,33.084005 63.3830577,33.084005 C61.7038162,33.084005 60.3034798,32.5697257 59.176238,31.5440564 C58.0519015,30.5010519 57.4911859,29.1561249 57.4911859,27.500608 L57.4911859,17.0532271 L60.6157955,17.0532271 Z M55.8918391,17.0532271 L55.8918391,19.8225342 L51.7068088,19.8225342 L51.7068088,32.9496568 L48.5807466,32.9496568 L48.5807466,19.8225342 L44.397169,19.8225342 L44.397169,17.0532271 L55.8918391,17.0532271 Z M77.8120426,17.0532271 C79.4012211,17.0532271 80.6737259,17.5299466 81.6324625,18.4833857 C82.5505254,19.392042 83.0081042,20.5376135 83.0081042,21.9215448 C83.0081042,22.9789954 82.7161253,23.8847625 82.130715,24.6460692 C81.6063151,25.3149211 80.9235785,25.7974191 80.0825051,26.0964523 L83.6574303,32.9496568 L80.0389261,32.9496568 L76.9114113,26.6121761 L74.6627384,26.6121761 L74.6627384,32.9496568 L71.5381288,32.9496568 L71.5381288,17.0532271 L77.8120426,17.0532271 Z M88.4714498,17.0532271 L88.4714498,23.9757726 L94.1149217,17.0561163 L97.91791,17.0561163 L92.6114485,23.3748171 L98.3014046,32.9496568 L94.6567531,32.9496568 L90.5414491,25.7165212 L88.4714498,28.1723492 L88.4714498,32.9496568 L85.343935,32.9496568 L85.343935,17.0532271 L88.4714498,17.0532271 Z M122.884281,17.0532271 L122.884281,19.8225342 L115.464241,19.8225342 L115.464241,23.5496143 L121.783187,23.5496143 L121.783187,26.3189214 L115.464241,26.3189214 L115.464241,30.1832388 L122.884281,30.1832388 L122.884281,32.9496568 L112.338179,32.9496568 L112.338179,17.0532271 L122.884281,17.0532271 Z M128.007711,17.0532271 L128.007711,30.1817942 L134.580867,30.1817942 L134.580867,32.9496568 L124.884554,32.9496568 L124.884554,17.0532271 L128.007711,17.0532271 Z M139.10436,17.0532271 L139.10436,30.1817942 L146,30.1817942 L145.998547,32.9496568 L135.981203,32.9496568 L135.981203,17.0532271 L139.10436,17.0532271 Z M77.6115795,19.8254234 L74.6627384,19.8254234 L74.6627384,24.022 L77.6115795,24.022 C78.287053,24.022 78.8317897,23.828423 79.2530527,23.4412689 C79.6699578,23.0512256 79.882042,22.545614 79.882042,21.9201002 C79.882042,21.296031 79.6714105,20.7904194 79.2530527,20.4032653 C78.8317897,20.0175559 78.2856004,19.8254234 77.6115795,19.8254234 Z" id="Combined-Shape" fill="#000000" fill-rule="nonzero" mask="url(#mask-2)"></path>
                    </g>
                </g>
            </g>
        </g>
    </g>
</svg>