<?xml version="1.0" encoding="UTF-8"?>
<svg width="160px" height="50px" viewBox="0 0 160 50" version="1.1" xmlns="http://www.w3.org/2000/svg" xmlns:xlink="http://www.w3.org/1999/xlink">
    <title>shell</title>
    <defs>
        <rect id="path-1" x="0" y="0" width="160" height="50"></rect>
    </defs>
    <g id="Page-1" stroke="none" stroke-width="1" fill="none" fill-rule="evenodd">
        <g id="a1qa-Clients-V1" transform="translate(-1365.000000, -1698.000000)">
            <g id="4-block" transform="translate(375.000000, 1462.000000)">
                <g id="Group-37" transform="translate(960.000000, 216.000000)">
                    <g id="shell" transform="translate(30.000000, 20.000000)">
                        <mask id="mask-2" fill="white">
                            <use xlink:href="#path-1"></use>
                        </mask>
                        <use id="Mask" fill-opacity="0" fill="#D8D8D8" xlink:href="#path-1"></use>
                        <polygon id="Path" fill="#FFFFFF" mask="url(#mask-2)" points="44 -3 103 -3 103 56 44 56"></polygon>
                        <path d="M96.6813181,11.7247715 C97.6599505,13.1848389 98.4968277,14.7350787 99.1805399,16.354355 C99.1805399,16.3546663 99.1811625,16.3537325 99.181785,16.3540438 C99.8987654,18.024384 100.443311,19.7635708 100.806948,21.5445438 C101.171479,23.3366225 101.354396,25.1608888 101.352933,26.9896662 C101.351437,27.8989366 101.304167,28.8075556 101.211294,29.7120717 C101.116896,30.6382487 100.981567,31.5597956 100.805703,32.4740091 L100.742515,32.8045825 L92.6288372,38.6811312 L91.3161932,49.1190944 L77.3178739,49.1190944 L76.8089403,49.4583834 C76.41703,49.762304 75.9760307,49.9969633 75.505012,50.152214 L75.5018992,50.152214 C75.0253382,50.3090963 74.524809,50.3844247 74.0000004,50.3844247 C73.4642973,50.3844247 72.9643906,50.3090963 72.4881409,50.152214 L72.4847169,50.152214 C72.0277661,50.0021797 71.6003864,49.7765058 71.1910606,49.4717682 L70.6183158,49.1190944 L56.7491753,49.1190944 L55.4156759,38.6829988 L47.2596651,32.8045825 L47.1939862,32.4805459 C47.0092921,31.5641065 46.8715293,30.6388312 46.7812364,29.7083364 C46.6921855,28.8048448 46.6470772,27.8975357 46.6470772,26.9896662 C46.6470772,25.1469219 46.8266825,23.3346826 47.1849593,21.5597962 C47.546806,19.77598 48.0872018,18.033094 48.797983,16.3574678 C49.4813771,14.7341869 50.3182509,13.1798884 51.2972049,11.7157445 C52.2788986,10.2505263 53.4016199,8.88489096 54.6493185,7.63836164 C55.8893447,6.39903684 57.2462754,5.28249046 58.7011768,4.30430195 C60.1656673,3.319961 61.7204217,2.47707712 63.3444565,1.78702619 C65.0552204,1.05864418 66.793999,0.515159143 68.5651501,0.155325981 C70.354089,-0.20631469 72.1748764,-0.387037741 74.0000004,-0.384147436 C75.837453,-0.384147436 77.6534276,-0.202950809 79.4451229,0.161551468 C81.232437,0.526145281 82.978249,1.07074685 84.6558557,1.78702619 C86.273714,2.47396389 87.8221024,3.31419001 89.2798363,4.29620882 C90.7291298,5.27392159 92.0813056,6.38859508 93.3301383,7.63836164 C93.3313834,7.63898419 93.3295158,7.64085184 93.3301383,7.64147438 C94.5741282,8.89324991 95.6962407,10.2605053 96.6813181,11.7247715 L96.6813181,11.7247715 Z" id="Path" fill="#FFFFFF" fill-rule="nonzero" mask="url(#mask-2)"></path>
                        <path d="M98.4014202,16.6858622 C97.0548473,13.5030819 95.1573188,10.687294 92.7296901,8.23912116 C90.3014388,5.81118114 87.4859622,3.91365263 84.3234147,2.56707974 C81.0186148,1.15949707 77.5703174,0.46566652 74.0000004,0.46566652 C70.4091394,0.46566652 66.9816974,1.15949707 63.676275,2.56707974 C60.5137274,3.91365263 57.6777067,5.81118114 55.250078,8.23912116 C52.8019051,10.687294 50.9246095,13.5030819 49.5780366,16.6858622 C48.1906867,19.9707406 47.4971675,23.4187267 47.4971675,26.9893549 C47.4971675,28.7440085 47.6602752,30.4983508 48.027579,32.3143254 L56.208803,38.2101731 L57.4940549,48.2686928 L70.8576858,48.2686928 L71.653303,48.7580161 C72.3471336,49.2887389 73.1019739,49.5330893 73.9996892,49.5330893 C74.8771716,49.5330893 75.652556,49.2887389 76.3255312,48.7580161 L77.0598274,48.2686928 L90.5666445,48.2686928 L91.8316635,38.2101731 L99.9721107,32.3143254 C100.319182,30.4983508 100.502833,28.7436972 100.502833,26.9893549 C100.502833,23.4187267 99.8093142,19.9707406 98.4014202,16.6858622 Z" id="Path" fill="#000000" mask="url(#mask-2)"></path>
                        <path d="M94.4843437,19.7055348 C93.9536209,17.4612467 92.811244,15.5431741 91.0360463,13.9927165 L78.6112188,35.3950078 L89.6079195,11.9320802 C88.1390158,9.99377474 86.2822642,8.66774595 83.9361894,7.91259435 L76.3258425,34.5175253 L81.8960972,6.83122722 C80.1616764,5.87219091 78.325469,5.38255634 76.3666194,5.38255634 L75.1221445,5.46411022 L74.0205446,34.2722411 L72.8576235,5.46411022 L71.6333815,5.38255634 C69.6748432,5.38255634 67.8180916,5.87219091 66.104215,6.83122722 L71.6128374,34.5175253 L64.0641228,7.91290563 C61.7177367,8.66805723 59.8205194,9.99408601 58.3923927,11.9323915 L69.4504144,35.395319 L56.9639546,13.9930277 C55.1890682,15.5434853 54.04638,17.461558 53.5159685,19.7058461 L67.430555,36.8029017 L53.1078878,22.4189134 C52.4548342,23.8881284 52.1286187,25.4183532 52.1286187,26.9893549 C52.1286187,27.866526 52.2307167,28.804707 52.4753783,29.8048315 L60.5140387,35.6807576 L61.575173,43.5762318 L71.3479429,43.5762318 L72.7352927,44.6370548 C73.1231406,44.9022606 73.5312213,45.0249027 74.0003117,45.0451355 C74.4491694,45.025214 74.8777941,44.9022606 75.2245538,44.6370548 L76.6934575,43.5762318 L86.5070043,43.5762318 L87.5071288,35.6807576 L95.5249338,29.8048315 C95.7493627,28.804707 95.8720048,27.866526 95.8720048,26.9893549 C95.8720048,25.4183532 95.5249338,23.8881284 94.8927356,22.4189134 L80.6519336,36.8022792 L94.4843437,19.7055348 Z" id="Path" fill="#FFFFFF" mask="url(#mask-2)"></path>
                    </g>
                </g>
            </g>
        </g>
    </g>
</svg>