<svg xmlns="http://www.w3.org/2000/svg" width="15" height="23" viewBox="0 0 15 23">
  <defs>
    <linearGradient id="ico-coins-a" x1="71.267%" x2="28.733%" y1="100%" y2="0%">
      <stop offset="0%" stop-color="#1E85E9"/>
      <stop offset="20.276%" stop-color="#8671F3"/>
      <stop offset="70.727%" stop-color="#C06CFD" stop-opacity=".99"/>
      <stop offset="100%" stop-color="#FFBEE8"/>
    </linearGradient>
  </defs>
  <path fill="url(#ico-coins-a)" d="M37.5,17 C41.6421356,17 45,20.3578644 45,24.5 C45,27.2790621 43.48849,29.7050921 41.2427218,31.0008383 L45,31 L45,40 L30,40 L30,31 L33.7572782,31.0008383 C31.51151,29.7050921 30,27.2790621 30,24.5 C30,20.3578644 33.3578644,17 37.5,17 Z M44,36 L31,36 L31,39 L44,39 L44,36 Z M44,32 L31,32 L31,35 L44,35 L44,32 Z M37.5,18 C33.9101491,18 31,20.9101491 31,24.5 C31,28.0898509 33.9101491,31 37.5,31 C41.0898509,31 44,28.0898509 44,24.5 C44,20.9101491 41.0898509,18 37.5,18 Z M37.5,20 C39.9852814,20 42,22.0147186 42,24.5 C42,26.9852814 39.9852814,29 37.5,29 C35.0147186,29 33,26.9852814 33,24.5 C33,22.0147186 35.0147186,20 37.5,20 Z M37.5,21 C35.5670034,21 34,22.5670034 34,24.5 C34,26.4329966 35.5670034,28 37.5,28 C39.4329966,28 41,26.4329966 41,24.5 C41,22.5670034 39.4329966,21 37.5,21 Z" transform="translate(-30 -17)"/>
</svg>
