<svg xmlns="http://www.w3.org/2000/svg" width="40" height="40"  xmlns:v="https://vecta.io/nano"><linearGradient id="A" gradientUnits="userSpaceOnUse" x1="31.131" y1="48.396" x2="-10.058" y2="9.986"><stop offset="0" stop-color="#1e85e9"/><stop offset=".203" stop-color="#8671f3"/><stop offset=".707" stop-color="#c06cfd" stop-opacity=".99"/><stop offset="1" stop-color="#ffbee8"/></linearGradient><path d="M17.629 34.694a1.11 1.11 0 0 0 0 2.22 1.11 1.11 0 0 0 1.109-1.11c-.001-.611-.499-1.109-1.109-1.11zm0 1.737a.63.63 0 0 1-.627-.627.63.63 0 0 1 .627-.628.63.63 0 0 1 .627.628.63.63 0 0 1-.627.627z" fill="url(#A)"/><linearGradient id="B" gradientUnits="userSpaceOnUse" x1="44.251" y1="35.808" x2="2.762" y2="-2.88"><stop offset="0" stop-color="#1e85e9"/><stop offset=".203" stop-color="#8671f3"/><stop offset=".707" stop-color="#c06cfd" stop-opacity=".99"/><stop offset="1" stop-color="#ffbee8"/></linearGradient><path d="M9.458 3.046h-.165c-.133 0-.241.108-.241.241s.108.241.241.241h.165c.133 0 .241-.108.241-.241s-.108-.241-.241-.241z" fill="url(#B)"/><linearGradient id="C" gradientUnits="userSpaceOnUse" x1="47.76" y1="33.937" x2="5.16" y2="-5.789"><stop offset="0" stop-color="#1e85e9"/><stop offset=".203" stop-color="#8671f3"/><stop offset=".707" stop-color="#c06cfd" stop-opacity=".99"/><stop offset="1" stop-color="#ffbee8"/></linearGradient><path d="M18.679 3.046h-7.574c-.133 0-.241.108-.241.241s.108.241.241.241h7.574c.133 0 .241-.108.241-.241s-.108-.241-.241-.241z" fill="url(#C)"/><linearGradient id="D" gradientUnits="userSpaceOnUse" x1="38.367" y1="43.116" x2="-4.125" y2="3.492"><stop offset="0" stop-color="#1e85e9"/><stop offset=".203" stop-color="#8671f3"/><stop offset=".707" stop-color="#c06cfd" stop-opacity=".99"/><stop offset="1" stop-color="#ffbee8"/></linearGradient><path d="M3.66 12.749h3.767c.133 0 .241-.108.241-.241s-.108-.241-.241-.241H3.66c-.133 0-.241.108-.241.241s.108.241.241.241z" fill="url(#D)"/><linearGradient id="E" gradientUnits="userSpaceOnUse" x1="41.341" y1="40.021" x2="-1.192" y2=".358"><stop offset="0" stop-color="#1e85e9"/><stop offset=".203" stop-color="#8671f3"/><stop offset=".707" stop-color="#c06cfd" stop-opacity=".99"/><stop offset="1" stop-color="#ffbee8"/></linearGradient><path d="M9.242 12.508c0 .133.108.241.241.241h4.709c.133 0 .241-.108.241-.241s-.108-.241-.241-.241H9.483c-.133 0-.241.108-.241.241z" fill="url(#E)"/><linearGradient id="F" gradientUnits="userSpaceOnUse" x1="38.181" y1="43.327" x2="-4.419" y2="3.601"><stop offset="0" stop-color="#1e85e9"/><stop offset=".203" stop-color="#8671f3"/><stop offset=".707" stop-color="#c06cfd" stop-opacity=".99"/><stop offset="1" stop-color="#ffbee8"/></linearGradient><path d="M11.436 14.648c0-.133-.108-.241-.241-.241H3.66c-.133 0-.241.108-.241.241s.108.241.241.241h7.535c.133 0 .241-.108.241-.241z" fill="url(#F)"/><linearGradient id="G" gradientUnits="userSpaceOnUse" x1="40.785" y1="39.886" x2="-1.296" y2=".644"><stop offset="0" stop-color="#1e85e9"/><stop offset=".203" stop-color="#8671f3"/><stop offset=".707" stop-color="#c06cfd" stop-opacity=".99"/><stop offset="1" stop-color="#ffbee8"/></linearGradient><path d="M14.192 14.408h-.942c-.133 0-.241.108-.241.241s.108.241.241.241h.942c.133 0 .241-.108.241-.241s-.108-.241-.241-.241z" fill="url(#G)"/><linearGradient id="H" gradientUnits="userSpaceOnUse" x1="36.168" y1="45.187" x2="-6.341" y2="5.547"><stop offset="0" stop-color="#1e85e9"/><stop offset=".203" stop-color="#8671f3"/><stop offset=".707" stop-color="#c06cfd" stop-opacity=".99"/><stop offset="1" stop-color="#ffbee8"/></linearGradient><path d="M7.77 16.548H3.66c-.133 0-.241.108-.241.241s.108.241.241.241h4.11c.133 0 .241-.108.241-.241s-.108-.241-.241-.241z" fill="url(#H)"/><linearGradient id="I" gradientUnits="userSpaceOnUse" x1="39.12" y1="42.071" x2="-3.4" y2="2.42"><stop offset="0" stop-color="#1e85e9"/><stop offset=".203" stop-color="#8671f3"/><stop offset=".707" stop-color="#c06cfd" stop-opacity=".99"/><stop offset="1" stop-color="#ffbee8"/></linearGradient><path d="M14.192 16.548H9.825c-.133 0-.241.108-.241.241s.108.241.241.241h4.367c.133 0 .241-.108.241-.241s-.108-.241-.241-.241z" fill="url(#I)"/><linearGradient id="J" gradientUnits="userSpaceOnUse" x1="39.436" y1="40.328" x2="-1.655" y2="2.01"><stop offset="0" stop-color="#1e85e9"/><stop offset=".203" stop-color="#8671f3"/><stop offset=".707" stop-color="#c06cfd" stop-opacity=".99"/><stop offset="1" stop-color="#ffbee8"/></linearGradient><path d="M38.824 27.113l-2.073-6.767c-.196-.644-.697-1.149-1.34-1.35a1.96 1.96 0 0 0-.837-.081c-.576.066-1.097.372-1.432.842l-.217.304-.202-.314a2.03 2.03 0 0 0-1.282-.89 2.01 2.01 0 0 0-1.536.277 2.03 2.03 0 0 0-.799.98l-.117.298-.263-.182c-.088-.06-.181-.114-.278-.16l-.143-.07V3.714A3.74 3.74 0 0 0 24.576 0H10.681a3.7 3.7 0 0 0-3.687 3.704v5.023H2.846c-1.072 0-1.944.872-1.944 1.944v7.622c-.001.52.201 1.008.567 1.376a1.93 1.93 0 0 0 1.374.572h4.152v16.045c-.004.988.376 1.919 1.071 2.62s1.621 1.09 2.608 1.095h13.903a3.74 3.74 0 0 0 3.729-3.715v-.821l.332.11c1.224.402 2.524.414 3.756.035l2.293-.703a6.26 6.26 0 0 0 4.137-7.794zM7.476 3.714A3.22 3.22 0 0 1 10.668.481h13.908a3.26 3.26 0 0 1 3.248 3.231v1.556H7.476V3.714zm20.347 32.573a3.26 3.26 0 0 1-3.248 3.232H10.681a3.19 3.19 0 0 1-2.27-.947c-.605-.608-.938-1.416-.936-2.275v-3.871h16.551l1.601 1.03c.551.71 1.263 1.303 2.059 1.718l.136.071v1.042zm-7.651-6.869l.197-.223c.798-.9 2.134-1.122 3.181-.528l.233.134.819 2.67.089.269.245.69-4.764-3.012zm14.374 5.027l-2.294.703a5.74 5.74 0 0 1-1.676.25c-2.464 0-4.754-1.595-5.514-4.068l-1.948-6.363c-.039-.126-.172-.192-.299-.16-.128.038-.2.172-.162.301l.915 2.986-.448-.128c-1.349-.383-2.777.197-3.473 1.417a.24.24 0 0 0 .081.323l3.539 2.238H7.476V20.241h1.176l-.002.254c-.012 1.725.752 2.764 1.394 3.332a4.13 4.13 0 0 0 1.522.865c.145-.006.222-.043.265-.121.028-.052.036-.12.02-.18-.007-.029-.579-2.431.307-3.561.307-.392.768-.59 1.37-.59h1.477a1.94 1.94 0 0 0 1.939-1.939v-7.634c0-1.07-.87-1.941-1.94-1.941H12.34c-.133 0-.241.108-.241.241s.108.241.241.241h2.666a1.46 1.46 0 0 1 1.457 1.457v7.624a1.47 1.47 0 0 1-1.47 1.47h-1.465c-.759 0-1.348.261-1.751.776-.674.863-.633 2.284-.548 3.054l.058.524-.446-.283c-.673-.428-1.791-1.455-1.705-3.521a.52.52 0 0 0-.489-.549H2.843c-.807-.001-1.462-.658-1.461-1.464v-7.624c0-.807.656-1.463 1.463-1.463H8.88c.133 0 .241-.108.241-.241s-.108-.241-.241-.241H7.476V5.751h20.348v14.116h-.253c-.632 0-1.214.283-1.603.777l-.299.381-2.261-7.378a2.02 2.02 0 0 0-.994-1.204c-.482-.256-1.032-.31-1.554-.149s-.949.512-1.205.994-.309 1.033-.148 1.554l2.132 6.962c.039.126.171.193.299.16.061-.019.112-.059.142-.117s.038-.122.02-.183l-.01-.031-2.123-6.933c-.171-.561-.017-1.164.401-1.575.051-.052.109-.101.171-.144.694-.503 1.673-.349 2.18.349a1.52 1.52 0 0 1 .229.457l3.899 12.73c.019.061.06.113.118.142s.121.035.183.018a.24.24 0 0 0 .159-.301l-1.229-4.014a1.56 1.56 0 0 1 1.025-1.951 1.55 1.55 0 0 1 1.188.107 1.54 1.54 0 0 1 .763.916l1.234 4.029c.039.126.17.205.301.159.127-.039.199-.174.16-.302l-1.23-4.013c-.246-.825.223-1.696 1.044-1.942a1.56 1.56 0 0 1 1.935 1.028l1.231 4.015c.019.061.059.112.116.141s.122.04.185.018a.24.24 0 0 0 .159-.301l-.878-2.867c-.172-.564-.016-1.17.405-1.581.053-.052.112-.101.174-.144.484-.346 1.114-.387 1.641-.107.364.192.641.528.759.921l2.073 6.765c.925 3.035-.788 6.261-3.817 7.192z" fill="url(#J)"/><defs /></svg>