<svg xmlns="http://www.w3.org/2000/svg" width="40" height="40"  xmlns:v="https://vecta.io/nano"><linearGradient id="A" gradientUnits="userSpaceOnUse" x1="29.064" y1="50.826" x2="-10.819" y2="10.944"><stop offset="0" stop-color="#1e85e9"/><stop offset=".203" stop-color="#8671f3"/><stop offset=".707" stop-color="#c06cfd" stop-opacity=".99"/><stop offset="1" stop-color="#ffbee8"/></linearGradient><path d="M20.411 32.331c.133 0 .242-.109.242-.242s-.109-.241-.242-.241H.242c-.133 0-.242.108-.242.241s.109.242.242.242h20.169z" fill="url(#A)"/><linearGradient id="B" gradientUnits="userSpaceOnUse" x1="40.878" y1="39.012" x2=".995" y2="-.87"><stop offset="0" stop-color="#1e85e9"/><stop offset=".203" stop-color="#8671f3"/><stop offset=".707" stop-color="#c06cfd" stop-opacity=".99"/><stop offset="1" stop-color="#ffbee8"/></linearGradient><path d="M20.411 15.49a3.06 3.06 0 0 0-3.056 3.056 3.06 3.06 0 0 0 3.056 3.056 3.06 3.06 0 0 0 3.056-3.056 3.06 3.06 0 0 0-3.056-3.056zm0 5.629c-1.418 0-2.572-1.155-2.572-2.573s1.154-2.573 2.572-2.573 2.572 1.154 2.572 2.573-1.154 2.573-2.572 2.573z" fill="url(#B)"/><path d="M28.919 19.415v-1.74a1.01 1.01 0 0 0-.756-.977l-2.03-.523 1.066-1.806a1.01 1.01 0 0 0-.156-1.225l-1.23-1.23c-.325-.326-.829-.39-1.225-.156l-1.806 1.066-.522-2.031a1.01 1.01 0 0 0-.977-.755h-1.74a1.01 1.01 0 0 0-.977.757l-.523 2.029-1.806-1.066c-.397-.234-.899-.17-1.225.156l-1.231 1.231a1.01 1.01 0 0 0-.155 1.225l1.065 1.805-2.03.523a1.01 1.01 0 0 0-.756.977v1.74a1.01 1.01 0 0 0 .757.977l2.03.522-1.066 1.807c-.233.397-.17.899.156 1.224l1.231 1.231c.325.326.829.389 1.225.155l1.805-1.065.523 2.03a1.01 1.01 0 0 0 .977.756h1.74c.46 0 .862-.311.976-.756l.523-2.03 1.806 1.065a1.01 1.01 0 0 0 1.225-.156l1.23-1.23a1.01 1.01 0 0 0 .156-1.225l-1.066-1.806 2.03-.522a1.01 1.01 0 0 0 .756-.977zm-.483 0c0 .239-.162.449-.394.509l-2.341.603c-.074.019-.134.071-.165.143s-.023.148.016.213l1.229 2.082c.122.206.088.469-.081.638l-1.231 1.231a.52.52 0 0 1-.637.08l-2.082-1.227c-.063-.039-.144-.044-.216-.016a.24.24 0 0 0-.14.163l-.605 2.342c-.058.231-.268.394-.509.394h-1.74c-.239 0-.448-.162-.509-.394l-.603-2.341c-.019-.074-.071-.134-.142-.165-.067-.025-.15-.022-.214.016l-2.082 1.229c-.205.12-.467.089-.637-.08l-1.231-1.232c-.169-.169-.203-.431-.082-.636l1.229-2.083c.039-.066.045-.145.015-.216s-.09-.122-.163-.141l-2.34-.603c-.232-.06-.394-.27-.394-.509v-1.74c0-.24.162-.449.394-.509l2.341-.604c.073-.019.134-.071.163-.141s.023-.151-.015-.216l-1.228-2.081c-.122-.206-.089-.469.081-.639l1.23-1.23c.171-.17.434-.203.639-.082l2.081 1.229c.066.039.147.044.216.015s.121-.089.141-.163l.603-2.34c.059-.232.268-.394.509-.394h1.74c.241 0 .45.162.51.394l.603 2.341c.019.073.072.134.142.163s.15.023.215-.015l2.081-1.229c.207-.123.47-.087.639.082l1.229 1.229c.17.169.203.431.082.637l-1.228 2.083c-.039.065-.045.146-.016.216s.089.122.163.141l2.342.604c.232.06.394.27.394.509v1.74z" fill="url(#B)"/><linearGradient id="C" gradientUnits="userSpaceOnUse" x1="42.278" y1="37.612" x2="2.395" y2="-2.27"><stop offset="0" stop-color="#1e85e9"/><stop offset=".203" stop-color="#8671f3"/><stop offset=".707" stop-color="#c06cfd" stop-opacity=".99"/><stop offset="1" stop-color="#ffbee8"/></linearGradient><path d="M20.411 32.331c7.601 0 13.785-6.184 13.785-13.785S28.013 4.761 20.411 4.761c-3.596 0-7 1.377-9.584 3.877a13.77 13.77 0 0 0-4.145 8.674l-.058.65-2.497-2.498a.25.25 0 0 0-.342 0c-.094.094-.094.248 0 .342l2.911 2.911a.25.25 0 0 0 .342 0l2.911-2.911c.094-.094.094-.248 0-.342s-.248-.094-.342 0l-2.51 2.51.09-.856c.714-6.769 6.398-11.874 13.223-11.874a13.32 13.32 0 0 1 13.302 13.302A13.32 13.32 0 0 1 20.41 31.848c-.133 0-.241.108-.241.241s.11.242.242.242z" fill="url(#C)"/><linearGradient id="D" gradientUnits="userSpaceOnUse" x1="41.218" y1="38.671" x2="1.336" y2="-1.211"><stop offset="0" stop-color="#1e85e9"/><stop offset=".203" stop-color="#8671f3"/><stop offset=".707" stop-color="#c06cfd" stop-opacity=".99"/><stop offset="1" stop-color="#ffbee8"/></linearGradient><path d="M39.93 32.26c.045-.045.07-.107.07-.172a.24.24 0 0 0-.07-.17l-2.912-2.913c-.096-.093-.247-.093-.342 0s-.094.248 0 .342l2.498 2.499h-9.661c-.133 0-.241.108-.241.241s.108.242.241.242h9.662l-2.499 2.498c-.046.046-.07.106-.07.171s.025.126.07.172a.25.25 0 0 0 .341.001l2.913-2.911z" fill="url(#D)"/><defs /></svg>