<svg xmlns="http://www.w3.org/2000/svg" width="40" height="40"  xmlns:v="https://vecta.io/nano"><linearGradient id="A" gradientUnits="userSpaceOnUse" x1="40.194" y1="39.96" x2=".312" y2=".343"><stop offset="0" stop-color="#1e85e9"/><stop offset=".203" stop-color="#8671f3"/><stop offset=".707" stop-color="#c06cfd" stop-opacity=".99"/><stop offset="1" stop-color="#ffbee8"/></linearGradient><path d="M39.999 31.851v-19.75a2.23 2.23 0 0 0-2.224-2.225h-1.769l.61-.681a5.48 5.48 0 0 0 1.401-3.983 5.48 5.48 0 0 0-1.826-3.807c-2.266-2.031-5.759-1.839-7.79.425a5.51 5.51 0 0 0 0 7.365l.61.681h-9.418v-6.99a.25.25 0 0 0-.25-.25H16.71a.25.25 0 0 0-.25.25v6.991h-1.474V.252a.25.25 0 0 0-.25-.25h-2.633a.25.25 0 0 0-.251.25v9.624h-1.474V4.86a.25.25 0 0 0-.25-.25H7.493a.25.25 0 0 0-.25.25v5.016H2.227a2.23 2.23 0 0 0-2.225 2.225V31.85a2.23 2.23 0 0 0 2.226 2.224h14.135l-1.151 3.45H12.76a.25.25 0 0 0-.25.25v1.725H5.518a.25.25 0 0 0-.25.249.25.25 0 0 0 .25.25h28.965a.25.25 0 0 0 .25-.25.25.25 0 0 0-.25-.249h-6.991v-1.725a.25.25 0 0 0-.25-.25h-2.453l-1.15-3.45h14.135a2.23 2.23 0 0 0 2.225-2.223zM32.758.486l.467.068a5.06 5.06 0 0 1 4.247 4.247l.069.467h-4.784V.486zm4.782 5.283l-.068.466c-.358 2.495-2.508 4.3-4.959 4.3-.237 0-.476-.017-.717-.051a5.02 5.02 0 0 1-2.292-.95l-.377-.283 3.483-3.483h4.93zm-8.765 3.129l-.282-.376a5.02 5.02 0 0 1-1.002-3.004C27.495 3.045 29.343.911 31.79.554l.467-.068v4.929l-3.482 3.483zM16.959 3.136h2.133V16.46h-2.133V3.136zm-1.975 7.241h1.474v6.083h-1.474v-6.083zM12.351.502h2.133v15.957h-2.133V.502zm-1.975 9.875h1.474v6.083h-1.474v-6.083zM7.743 5.11h2.133v11.349H7.743V5.11zM.502 12.101a1.73 1.73 0 0 1 1.725-1.725h5.017v6.083H5.768v-4.358a.25.25 0 0 0-.25-.25H2.885a.25.25 0 0 0-.25.25v4.608a.25.25 0 0 0 .25.25H23.95a.25.25 0 0 0 .25-.25v-4.608a.25.25 0 0 0-.25-.25h-2.633a.25.25 0 0 0-.25.25v4.358h-1.474v-6.083l10.394.045c1.579.816 3.465.816 5.044 0l.187-.045h2.557A1.73 1.73 0 0 1 39.5 12.1v17.525H.502V12.101zm4.766.251v4.107H3.135v-4.107h2.133zm16.299 4.107v-4.107h2.134v4.107h-2.134zm5.425 21.566v1.476H13.01v-1.476h13.982zm-2.731-.499h-8.522l1.151-3.45h6.221l1.15 3.45zm13.514-3.95H2.227a1.73 1.73 0 0 1-1.725-1.724v-1.727H39.5v1.727a1.73 1.73 0 0 1-1.725 1.724z" fill="url(#A)"/><linearGradient id="B" gradientUnits="userSpaceOnUse" x1="26.699" y1="53.545" x2="-13.183" y2="13.928"><stop offset="0" stop-color="#1e85e9"/><stop offset=".203" stop-color="#8671f3"/><stop offset=".707" stop-color="#c06cfd" stop-opacity=".99"/><stop offset="1" stop-color="#ffbee8"/></linearGradient><path d="M6.835 32.1a.25.25 0 0 0 .25-.249.25.25 0 0 0-.25-.25h-3.95a.25.25 0 0 0-.25.25.25.25 0 0 0 .25.249h3.95z" fill="url(#B)"/><linearGradient id="C" gradientUnits="userSpaceOnUse" x1="28.825" y1="51.406" x2="-11.058" y2="11.788"><stop offset="0" stop-color="#1e85e9"/><stop offset=".203" stop-color="#8671f3"/><stop offset=".707" stop-color="#c06cfd" stop-opacity=".99"/><stop offset="1" stop-color="#ffbee8"/></linearGradient><path d="M9.468 32.1a.25.25 0 0 0 .25-.249.25.25 0 0 0-.25-.25h-.659a.25.25 0 0 0-.25.25.25.25 0 0 0 .25.249h.659z" fill="url(#C)"/><linearGradient id="D" gradientUnits="userSpaceOnUse" x1="48.828" y1="31.269" x2="8.946" y2="-8.349"><stop offset="0" stop-color="#1e85e9"/><stop offset=".203" stop-color="#8671f3"/><stop offset=".707" stop-color="#c06cfd" stop-opacity=".99"/><stop offset="1" stop-color="#ffbee8"/></linearGradient><path d="M27.244 15.643c.065 0 .129-.026.173-.072l2.561-2.561h5.821a.25.25 0 1 0 0-.501h-5.925a.25.25 0 0 0-.177.074l-2.632 2.633a.25.25 0 0 0 0 .354c.047.047.11.073.176.073h.003z" fill="url(#D)"/><linearGradient id="E" gradientUnits="userSpaceOnUse" x1="38.003" y1="42.166" x2="-1.879" y2="2.548"><stop offset="0" stop-color="#1e85e9"/><stop offset=".203" stop-color="#8671f3"/><stop offset=".707" stop-color="#c06cfd" stop-opacity=".99"/><stop offset="1" stop-color="#ffbee8"/></linearGradient><path d="M37.333 24.948a1.57 1.57 0 0 0-2.887-.466l-.205.355-7.403-4.319-.037-.178c-.086-.41-.325-.762-.676-.991s-.766-.308-1.178-.224a1.56 1.56 0 0 0-1.222 1.254l-.029.157-7.413 5.56-.238-.367c-.228-.351-.579-.592-.987-.679a1.56 1.56 0 0 0-1.178.218c-.23.149-.417.358-.542.603l-.172.337-7.395-3.081-.049-.201a1.56 1.56 0 0 0-.705-.972 1.57 1.57 0 0 0-2.344 1.704c.098.407.348.751.705.97a1.56 1.56 0 0 0 1.185.188 1.57 1.57 0 0 0 1.03-.812l.172-.337 7.395 3.081.048.201c.202.84 1.051 1.355 1.89 1.158a1.57 1.57 0 0 0 1.175-1.244l.028-.157 7.413-5.56.238.367c.469.725 1.441.93 2.164.46a1.56 1.56 0 0 0 .502-.529l.205-.355 7.403 4.319.037.178a1.57 1.57 0 0 0 1.854 1.214c.847-.175 1.392-1.006 1.216-1.852zM5.268 23.297A1.07 1.07 0 0 1 4.2 24.362a1.07 1.07 0 0 1-1.068-1.071A1.07 1.07 0 0 1 4.2 22.226a1.07 1.07 0 0 1 1.068 1.065v.006zm9.466 4.354h0a1.07 1.07 0 0 1-1.066-1.066 1.07 1.07 0 0 1 1.066-1.067 1.06 1.06 0 0 1 .757.316c.201.202.31.47.309.755a1.07 1.07 0 0 1-1.066 1.062zm10.533-5.924h0A1.07 1.07 0 0 1 24.2 20.66c0-.588.478-1.066 1.066-1.066a1.07 1.07 0 0 1 1.067 1.066 1.07 1.07 0 0 1-1.066 1.067zM35.8 26.335h0a1.07 1.07 0 0 1-1.067-1.067 1.07 1.07 0 0 1 1.066-1.067 1.07 1.07 0 0 1 1.067 1.067 1.07 1.07 0 0 1-1.066 1.067z" fill="url(#E)"/><linearGradient id="F" gradientUnits="userSpaceOnUse" x1="40.281" y1="39.873" x2=".399" y2=".255"><stop offset="0" stop-color="#1e85e9"/><stop offset=".203" stop-color="#8671f3"/><stop offset=".707" stop-color="#c06cfd" stop-opacity=".99"/><stop offset="1" stop-color="#ffbee8"/></linearGradient><path d="M30.533 27.651h-4.608a.25.25 0 0 0-.25.249.25.25 0 0 0 .25.25h4.608a.25.25 0 0 0 .25-.25.25.25 0 0 0-.25-.249z" fill="url(#F)"/><linearGradient id="G" gradientUnits="userSpaceOnUse" x1="41.923" y1="38.22" x2="2.04" y2="-1.397"><stop offset="0" stop-color="#1e85e9"/><stop offset=".203" stop-color="#8671f3"/><stop offset=".707" stop-color="#c06cfd" stop-opacity=".99"/><stop offset="1" stop-color="#ffbee8"/></linearGradient><path d="M30.533 25.676h-1.975a.25.25 0 0 0-.249.25.25.25 0 0 0 .249.249h1.975a.25.25 0 0 0 .25-.249.25.25 0 0 0-.25-.25z" fill="url(#G)"/><linearGradient id="H" gradientUnits="userSpaceOnUse" x1="34.099" y1="46.096" x2="-5.783" y2="6.478"><stop offset="0" stop-color="#1e85e9"/><stop offset=".203" stop-color="#8671f3"/><stop offset=".707" stop-color="#c06cfd" stop-opacity=".99"/><stop offset="1" stop-color="#ffbee8"/></linearGradient><path d="M10.126 18.935a.25.25 0 1 0 0-.5H2.885a.25.25 0 1 0 0 .5h7.241z" fill="url(#H)"/><linearGradient id="I" gradientUnits="userSpaceOnUse" x1="37.042" y1="43.133" x2="-2.84" y2="3.516"><stop offset="0" stop-color="#1e85e9"/><stop offset=".203" stop-color="#8671f3"/><stop offset=".707" stop-color="#c06cfd" stop-opacity=".99"/><stop offset="1" stop-color="#ffbee8"/></linearGradient><path d="M12.759 18.935a.25.25 0 1 0 0-.5h-.658a.25.25 0 1 0 0 .5h.658z" fill="url(#I)"/><defs /></svg>