<svg xmlns="http://www.w3.org/2000/svg" width="40" height="40"  xmlns:v="https://vecta.io/nano"><linearGradient id="A" gradientUnits="userSpaceOnUse" x1="40.387" y1="40.252" x2="-.245" y2="-.11"><stop offset="0" stop-color="#1e85e9"/><stop offset=".203" stop-color="#8671f3"/><stop offset=".707" stop-color="#c06cfd" stop-opacity=".99"/><stop offset="1" stop-color="#ffbee8"/></linearGradient><path d="M38.604 25.211l-2.326-1.689a.89.89 0 0 1-.36-.869c.144-.872.217-1.765.217-2.653s-.073-1.781-.217-2.653a.89.89 0 0 1 .359-.868l2.329-1.69a1.43 1.43 0 0 0 .398-1.874l-3.366-5.829c-.367-.636-1.152-.889-1.824-.592l-2.628 1.171a.9.9 0 0 1-.931-.123 16.1 16.1 0 0 0-4.596-2.656c-.312-.116-.535-.409-.57-.746l-.3-2.857A1.43 1.43 0 0 0 23.365 0h-6.731a1.43 1.43 0 0 0-1.424 1.283l-.299 2.857a.9.9 0 0 1-.572.746l-.51.202c-.135.057-.198.212-.142.348s.213.199.347.142l.49-.195c.5-.187.858-.653.914-1.188l.299-2.857a.9.9 0 0 1 .896-.808h6.731a.9.9 0 0 1 .897.807l.299 2.857a1.43 1.43 0 0 0 .912 1.187c1.615.606 3.11 1.47 4.443 2.569a1.42 1.42 0 0 0 1.487.198l2.628-1.17a.9.9 0 0 1 1.147.372l3.365 5.83a.9.9 0 0 1-.25 1.18l-2.327 1.69a1.42 1.42 0 0 0-.573 1.384c.14.845.211 1.709.211 2.567a15.78 15.78 0 0 1-.211 2.567 1.42 1.42 0 0 0 .572 1.384l2.328 1.69a.9.9 0 0 1 .25 1.18l-3.365 5.828a.9.9 0 0 1-1.149.372l-2.627-1.17c-.5-.222-1.069-.145-1.486.199-1.334 1.099-2.828 1.964-4.442 2.568a1.43 1.43 0 0 0-.913 1.186l-.3 2.858a.9.9 0 0 1-.896.808h-6.731a.9.9 0 0 1-.896-.807l-.299-2.857a1.43 1.43 0 0 0-.912-1.188c-1.614-.605-3.109-1.469-4.443-2.568a1.42 1.42 0 0 0-1.487-.199l-2.628 1.17a.9.9 0 0 1-1.147-.372l-3.366-5.83a.9.9 0 0 1 .25-1.179l2.328-1.69c.441-.321.66-.851.571-1.384A15.91 15.91 0 0 1 4.394 20c0-.857.071-1.721.211-2.568a1.42 1.42 0 0 0-.572-1.384L1.707 14.36a.9.9 0 0 1-.251-1.18l3.365-5.83c.232-.4.726-.558 1.148-.372l2.628 1.17c.499.222 1.069.146 1.486-.198a15.77 15.77 0 0 1 1.87-1.323c.125-.075.165-.239.09-.364a.27.27 0 0 0-.163-.121c-.069-.016-.139-.006-.201.031a16.31 16.31 0 0 0-1.933 1.368.9.9 0 0 1-.933.123L6.184 6.493a1.43 1.43 0 0 0-1.822.592L.996 12.914a1.43 1.43 0 0 0 .399 1.875l2.326 1.688c.277.202.415.535.361.868A16.26 16.26 0 0 0 3.864 20c0 .889.073 1.782.218 2.653a.89.89 0 0 1-.36.868l-2.327 1.69a1.43 1.43 0 0 0-.399 1.875l3.366 5.829a1.43 1.43 0 0 0 1.823.592l2.628-1.171a.9.9 0 0 1 .366-.076.89.89 0 0 1 .566.2c1.381 1.138 2.926 2.031 4.595 2.655a.9.9 0 0 1 .571.746l.299 2.858A1.43 1.43 0 0 0 16.634 40h6.731a1.43 1.43 0 0 0 1.425-1.283l.3-2.858a.9.9 0 0 1 .57-.746c1.668-.624 3.213-1.518 4.596-2.655a.9.9 0 0 1 .932-.123l2.628 1.171a1.43 1.43 0 0 0 1.823-.593l3.366-5.828a1.43 1.43 0 0 0-.401-1.874z" fill="url(#A)"/><linearGradient id="B" gradientUnits="userSpaceOnUse" x1="37.382" y1="43.277" x2="-3.25" y2="2.915"><stop offset="0" stop-color="#1e85e9"/><stop offset=".203" stop-color="#8671f3"/><stop offset=".707" stop-color="#c06cfd" stop-opacity=".99"/><stop offset="1" stop-color="#ffbee8"/></linearGradient><path d="M13.949 16.649A3.33 3.33 0 0 0 10.597 20a3.33 3.33 0 0 0 .982 2.371c.631.632 1.473.98 2.37.98a3.33 3.33 0 0 0 2.371-.98l2.182-2.183c.051-.05.078-.116.078-.187s-.027-.137-.078-.188L16.32 17.63a3.33 3.33 0 0 0-2.371-.981zm1.996 5.346c-.533.532-1.241.825-1.996.825a2.8 2.8 0 0 1-1.995-.825c-.533-.534-.826-1.242-.826-1.995a2.81 2.81 0 0 1 .826-1.996 2.9 2.9 0 0 1 3.991 0L17.94 20l-1.995 1.995z" fill="url(#B)"/><linearGradient id="C" gradientUnits="userSpaceOnUse" x1="43.392" y1="37.227" x2="2.761" y2="-3.135"><stop offset="0" stop-color="#1e85e9"/><stop offset=".203" stop-color="#8671f3"/><stop offset=".707" stop-color="#c06cfd" stop-opacity=".99"/><stop offset="1" stop-color="#ffbee8"/></linearGradient><path d="M23.68 22.371c.632.631 1.474.98 2.371.98s1.738-.348 2.371-.98.982-1.476.982-2.371-.348-1.737-.982-2.37a3.33 3.33 0 0 0-2.371-.98c-.896 0-1.738.348-2.371.98l-2.183 2.182a.26.26 0 0 0-.077.188c0 .071.027.137.077.187l2.183 2.184zm.375-4.367a2.83 2.83 0 0 1 3.991 0c.533.533.827 1.242.827 1.996a2.8 2.8 0 0 1-.827 1.995c-.55.55-1.273.825-1.995.825a2.81 2.81 0 0 1-1.995-.825L22.06 20l1.995-1.996z" fill="url(#C)"/><linearGradient id="D" gradientUnits="userSpaceOnUse" x1="40.387" y1="40.252" x2="-.244" y2="-.11"><stop offset="0" stop-color="#1e85e9"/><stop offset=".203" stop-color="#8671f3"/><stop offset=".707" stop-color="#c06cfd" stop-opacity=".99"/><stop offset="1" stop-color="#ffbee8"/></linearGradient><path d="M24.378 25.485c.543.164 1.106.247 1.673.247 1.534 0 2.973-.596 4.055-1.677s1.677-2.521 1.677-4.055-.596-2.974-1.677-4.055c-2.236-2.236-5.875-2.236-8.11 0L20 17.94l-1.996-1.995a5.74 5.74 0 0 0-8.11 0C8.81 17.029 8.214 18.468 8.214 20s.596 2.971 1.68 4.055a5.7 5.7 0 0 0 4.055 1.677c1.534 0 2.974-.596 4.055-1.677L20 22.059l1.995 1.996.264.247c.054.047.121.08.192.065.07-.004.135-.036.182-.088s.07-.122.066-.193-.037-.136-.09-.183l-.236-.223-2.184-2.184c-.103-.103-.271-.104-.375.001l-2.183 2.183c-.981.982-2.288 1.522-3.68 1.522a5.17 5.17 0 0 1-3.68-1.522c-.984-.983-1.526-2.29-1.526-3.68s.542-2.697 1.524-3.68a5.21 5.21 0 0 1 7.36 0l2.183 2.183c.103.103.271.103.375 0l2.183-2.183c2.028-2.029 5.331-2.027 7.359 0a5.21 5.21 0 0 1 0 7.36 5.17 5.17 0 0 1-3.68 1.522 5.2 5.2 0 0 1-1.519-.225c-.025-.007-.051-.011-.076-.011a.26.26 0 0 0-.125.032c-.063.033-.108.088-.128.156-.042.14.038.289.177.331z" fill="url(#D)"/><linearGradient id="E" gradientUnits="userSpaceOnUse" x1="44.028" y1="36.587" x2="3.396" y2="-3.775"><stop offset="0" stop-color="#1e85e9"/><stop offset=".203" stop-color="#8671f3"/><stop offset=".707" stop-color="#c06cfd" stop-opacity=".99"/><stop offset="1" stop-color="#ffbee8"/></linearGradient><path d="M26.574 12.913c.105.095.279.088.375-.014.099-.107.093-.275-.014-.375-1.89-1.756-4.353-2.723-6.935-2.723a10.17 10.17 0 0 0-6.937 2.722c-.052.048-.082.114-.085.185s.023.138.071.19.114.082.185.085a.3.3 0 0 0 .19-.071c1.792-1.664 4.128-2.581 6.576-2.581s4.783.917 6.574 2.582z" fill="url(#E)"/><linearGradient id="F" gradientUnits="userSpaceOnUse" x1="36.746" y1="43.917" x2="-3.886" y2="3.555"><stop offset="0" stop-color="#1e85e9"/><stop offset=".203" stop-color="#8671f3"/><stop offset=".707" stop-color="#c06cfd" stop-opacity=".99"/><stop offset="1" stop-color="#ffbee8"/></linearGradient><path d="M26.937 27.476c.106-.099.113-.268.013-.374s-.266-.113-.375-.015A9.63 9.63 0 0 1 20 29.668c-2.448 0-4.783-.917-6.576-2.581a.26.26 0 0 0-.18-.07c-.071 0-.142.029-.195.084-.099.107-.093.276.014.376 1.89 1.754 4.354 2.721 6.936 2.721a10.17 10.17 0 0 0 6.938-2.722z" fill="url(#F)"/><defs /></svg>