<svg xmlns="http://www.w3.org/2000/svg" width="40" height="40"  xmlns:v="https://vecta.io/nano"><linearGradient id="A" gradientUnits="userSpaceOnUse" x1="43.078" y1="36.9" x2="3.372" y2="-2.806"><stop offset="0" stop-color="#1e85e9"/><stop offset=".203" stop-color="#8671f3"/><stop offset=".707" stop-color="#c06cfd" stop-opacity=".99"/><stop offset="1" stop-color="#ffbee8"/></linearGradient><path d="M8.652 2.067c-.147 0-.266.119-.266.266v.284c0 .147.119.266.266.266s.266-.119.266-.266v-.285c0-.146-.119-.265-.266-.265z" fill="url(#A)"/><linearGradient id="B" gradientUnits="userSpaceOnUse" x1="49.251" y1="30.727" x2="9.545" y2="-8.979"><stop offset="0" stop-color="#1e85e9"/><stop offset=".203" stop-color="#8671f3"/><stop offset=".707" stop-color="#c06cfd" stop-opacity=".99"/><stop offset="1" stop-color="#ffbee8"/></linearGradient><path d="M28.084 9.62c-.146 0-.266.119-.266.266s.12.266.266.266h.653c.146 0 .266-.119.266-.266s-.12-.266-.266-.266h-.653z" fill="url(#B)"/><linearGradient id="C" gradientUnits="userSpaceOnUse" x1="47.058" y1="32.92" x2="7.352" y2="-6.785"><stop offset="0" stop-color="#1e85e9"/><stop offset=".203" stop-color="#8671f3"/><stop offset=".707" stop-color="#c06cfd" stop-opacity=".99"/><stop offset="1" stop-color="#ffbee8"/></linearGradient><path d="M25.325 10.152c.147 0 .267-.119.267-.266s-.12-.266-.267-.266h-2.603c-.147 0-.267.119-.267.266s.12.266.267.266h2.603z" fill="url(#C)"/><linearGradient id="D" gradientUnits="userSpaceOnUse" x1="42.909" y1="37.069" x2="3.203" y2="-2.637"><stop offset="0" stop-color="#1e85e9"/><stop offset=".203" stop-color="#8671f3"/><stop offset=".707" stop-color="#c06cfd" stop-opacity=".99"/><stop offset="1" stop-color="#ffbee8"/></linearGradient><path d="M11.263 9.62c-.147 0-.266.119-.266.266s.119.266.266.266h8.927c.147 0 .266-.119.266-.266s-.12-.266-.267-.266h-8.926z" fill="url(#D)"/><linearGradient id="E" gradientUnits="userSpaceOnUse" x1="50.032" y1="29.946" x2="10.326" y2="-9.76"><stop offset="0" stop-color="#1e85e9"/><stop offset=".203" stop-color="#8671f3"/><stop offset=".707" stop-color="#c06cfd" stop-opacity=".99"/><stop offset="1" stop-color="#ffbee8"/></linearGradient><path d="M28.736 7.356c.146 0 .266-.119.266-.266s-.12-.266-.266-.266h-3.12c-.147 0-.267.119-.267.266s.12.266.267.266h3.12z" fill="url(#E)"/><linearGradient id="F" gradientUnits="userSpaceOnUse" x1="45.988" y1="33.99" x2="6.282" y2="-5.716"><stop offset="0" stop-color="#1e85e9"/><stop offset=".203" stop-color="#8671f3"/><stop offset=".707" stop-color="#c06cfd" stop-opacity=".99"/><stop offset="1" stop-color="#ffbee8"/></linearGradient><path d="M22.858 6.825h-7.539c-.147 0-.266.119-.266.266s.119.266.266.266h7.539c.147 0 .267-.119.267-.266s-.12-.266-.267-.266z" fill="url(#F)"/><linearGradient id="G" gradientUnits="userSpaceOnUse" x1="42.456" y1="37.522" x2="2.75" y2="-2.184"><stop offset="0" stop-color="#1e85e9"/><stop offset=".203" stop-color="#8671f3"/><stop offset=".707" stop-color="#c06cfd" stop-opacity=".99"/><stop offset="1" stop-color="#ffbee8"/></linearGradient><path d="M12.787 6.825h-1.524c-.147 0-.266.119-.266.266s.119.266.266.266h1.524c.147 0 .266-.119.266-.266s-.12-.266-.266-.266z" fill="url(#G)"/><linearGradient id="H" gradientUnits="userSpaceOnUse" x1="40.997" y1="38.982" x2="1.291" y2="-.724"><stop offset="0" stop-color="#1e85e9"/><stop offset=".203" stop-color="#8671f3"/><stop offset=".707" stop-color="#c06cfd" stop-opacity=".99"/><stop offset="1" stop-color="#ffbee8"/></linearGradient><path d="M8.652 3.933c-.147 0-.266.119-.266.266v4.876c0 .147.119.266.266.266s.266-.119.266-.266V4.199c0-.147-.119-.266-.266-.266z" fill="url(#H)"/><linearGradient id="I" gradientUnits="userSpaceOnUse" x1="38.292" y1="41.686" x2="-1.414" y2="1.98"><stop offset="0" stop-color="#1e85e9"/><stop offset=".203" stop-color="#8671f3"/><stop offset=".707" stop-color="#c06cfd" stop-opacity=".99"/><stop offset="1" stop-color="#ffbee8"/></linearGradient><path d="M33.513 4.719L28.949.079A.26.26 0 0 0 28.762 0H6.669c-.068 0-.132.027-.181.076s-.075.113-.075.182v11.089h-.671c-1.851 0-3.357 1.482-3.357 3.305v22.025C2.384 38.509 3.89 40 5.742 40h28.516c1.852 0 3.358-1.491 3.358-3.323V19.254c0-1.821-1.506-3.302-3.358-3.302h-.672V4.907c.001-.072-.026-.139-.073-.188zM29.063.905l3.635 3.781h-3.635V.905zM6.945.531h21.586v4.388c0 .144.089.299.231.299h4.291v10.733h-12.9c-.724-.003-1.41-.282-1.93-.786l-3.037-2.901c-.618-.593-1.43-.918-2.285-.918H6.945V.531zm27.312 15.952c1.559 0 2.826 1.243 2.826 2.77v17.423c0 1.539-1.267 2.791-2.826 2.791H5.742c-1.558 0-2.826-1.252-2.826-2.791V14.652c0-1.529 1.268-2.773 2.826-2.773h7.147a2.77 2.77 0 0 1 1.93.765l3.038 2.912a3.3 3.3 0 0 0 2.297.928h14.103z" fill="url(#I)"/><linearGradient id="J" gradientUnits="userSpaceOnUse" x1="35.863" y1="44.115" x2="-3.843" y2="4.409"><stop offset="0" stop-color="#1e85e9"/><stop offset=".203" stop-color="#8671f3"/><stop offset=".707" stop-color="#c06cfd" stop-opacity=".99"/><stop offset="1" stop-color="#ffbee8"/></linearGradient><path d="M7.779 35.989c.242-.255.42-.574.512-.919l.045-.169h.521c1.075-.001 1.95-.877 1.951-1.952.001-.782.638-1.418 1.42-1.419h.864l.064.122a8.77 8.77 0 0 0 .941 1.446c1.269 1.554 3.144 2.556 5.144 2.748l.763.037a7.6 7.6 0 0 0 6.819-4.227l.063-.125h.887c.782.001 1.418.637 1.419 1.419a1.96 1.96 0 0 0 1.952 1.952h.521l.045.169c.091.344.27.664.516.922.746.746 1.964.746 2.714-.002.363-.362.564-.845.564-1.358s-.199-.997-.562-1.36-.845-.564-1.358-.564a1.91 1.91 0 0 0-1.294.499v.029l-.109.068a1.77 1.77 0 0 0-.468.884l-.039.181h-.531c-.782-.001-1.418-.637-1.419-1.419a1.96 1.96 0 0 0-1.952-1.952h-.653l.097-.297a8.16 8.16 0 0 0 .36-1.71l.021-.283.008-.219h4.443l.038.181c.073.355.248.675.507.925a1.91 1.91 0 0 0 1.357.563 1.9 1.9 0 0 0 1.357-.563c.362-.362.561-.845.561-1.357a1.9 1.9 0 0 0-.563-1.356 1.92 1.92 0 0 0-2.71 0c-.243.251-.422.566-.513.907l-.045.168h-4.422l-.015-.211c-.043-.651-.172-1.295-.38-1.917l-.101-.299h.654a1.96 1.96 0 0 0 1.952-1.953c.001-.782.637-1.418 1.419-1.419h.531l.038.18a1.75 1.75 0 0 0 .506.907c.754.755 1.971.755 2.721.005s.749-1.968 0-2.717c-.727-.728-1.896-.748-2.65-.065v.043l-.095.047c-.244.243-.41.549-.482.887l-.038.18h-.531a1.96 1.96 0 0 0-1.952 1.952 1.42 1.42 0 0 1-1.419 1.419h-.887l-.064-.122a9.01 9.01 0 0 0-.94-1.454c-2.671-3.246-7.488-3.716-10.738-1.045-.836.686-1.504 1.526-1.987 2.496l-.063.125h-.865c-.782 0-1.419-.636-1.42-1.419a1.96 1.96 0 0 0-1.952-1.952h-.53l-.038-.181c-.073-.349-.248-.663-.506-.909a1.92 1.92 0 0 0-2.716 0 1.91 1.91 0 0 0 .003 2.713 1.92 1.92 0 0 0 2.709 0c.261-.25.436-.563.509-.911l.039-.18h.53c.782.001 1.419.638 1.42 1.419a1.96 1.96 0 0 0 1.952 1.953h.632l-.1.299c-.181.541-.302 1.101-.36 1.665-.009.091-.015.172-.021.252l-.015.211H7.964l-.045-.168a2.1 2.1 0 0 0-.515-.91c-.75-.745-1.97-.739-2.719.013a1.93 1.93 0 0 0 .011 2.723 1.91 1.91 0 0 0 1.351.559c.507-.005 1.002-.214 1.359-.577.261-.255.436-.574.51-.927l.038-.181h4.414l.011.215a7.54 7.54 0 0 0 .381 1.995l.1.299h-.632c-1.075.001-1.95.877-1.951 1.952-.001.782-.638 1.418-1.42 1.419h-.532l-.038-.181c-.073-.349-.248-.665-.506-.913a1.92 1.92 0 0 0-2.711.005 1.9 1.9 0 0 0 .007 2.708 1.92 1.92 0 0 0 2.702.001zm24.812-2.34l.005-.006a1.43 1.43 0 0 1 1.964 0 1.39 1.39 0 0 1 0 1.964c-.271.271-.626.406-.983.406s-.711-.135-.982-.406c-.518-.527-.52-1.406-.004-1.958zm.373-6.37l.005-.005a1.39 1.39 0 0 1 1.964 0 1.38 1.38 0 0 1-.001 1.965c-.271.271-.626.406-.982.406s-.711-.135-.982-.406c-.263-.261-.408-.608-.409-.979a1.38 1.38 0 0 1 .405-.981zm-.437-6.348a.29.29 0 0 1 .129-.083c.545-.484 1.384-.464 1.904.056a1.39 1.39 0 0 1 0 1.964c-.271.271-.626.406-.983.406s-.711-.135-.982-.406a1.4 1.4 0 0 1-.44-.952 1.34 1.34 0 0 1 .372-.985zM7.406 22.866l-.003.003a1.38 1.38 0 0 1-.982.407h0a1.38 1.38 0 0 1-.982-.408 1.39 1.39 0 0 1 .001-1.963c.541-.539 1.422-.54 1.963 0a1.42 1.42 0 0 1 .003 1.961zm5.524 4.695h0a7.08 7.08 0 0 1 7.053-6.397 6.93 6.93 0 0 1 .702.035c3.892.384 6.745 3.863 6.361 7.755a7.07 7.07 0 0 1-7.051 6.395 7.2 7.2 0 0 1-.701-.035c-3.889-.387-6.742-3.865-6.364-7.753zm-5.9 1.677c-.271.271-.626.406-.982.406s-.711-.135-.982-.406c-.541-.538-.543-1.417-.004-1.958l.01-.014-.005.008c.543-.54 1.424-.54 1.964 0a1.38 1.38 0 0 1-.001 1.964zm-1.592 4.405a1.39 1.39 0 0 1 1.964 0c.54.542.54 1.423 0 1.964-.271.271-.627.406-.982.406a1.38 1.38 0 0 1-.982-.406c-.262-.263-.407-.611-.407-.983s.145-.718.407-.981z" fill="url(#J)"/><linearGradient id="K" gradientUnits="userSpaceOnUse" x1="35.754" y1="44.224" x2="-3.951" y2="4.518"><stop offset="0" stop-color="#1e85e9"/><stop offset=".203" stop-color="#8671f3"/><stop offset=".707" stop-color="#c06cfd" stop-opacity=".99"/><stop offset="1" stop-color="#ffbee8"/></linearGradient><path d="M24.048 31.072v-.364h1.182c.147 0 .267-.12.267-.266s-.12-.267-.267-.267h-1.182v-1.441h1.182c.147 0 .267-.12.267-.266s-.12-.267-.267-.267h-1.182V26.76h1.182c.147 0 .267-.12.267-.266s-.12-.267-.267-.267h-1.182v-.366c-.01-.798-.644-1.432-1.445-1.442h-.363v-1.182c0-.146-.12-.266-.267-.266s-.266.12-.266.266v1.182h-1.442v-1.182c0-.146-.119-.266-.266-.266s-.266.12-.266.266v1.182h-1.442v-1.182c0-.146-.119-.266-.266-.266s-.266.12-.266.266v1.182h-.367a1.45 1.45 0 0 0-1.441 1.445v.363h-1.183c-.147 0-.266.12-.266.267s.119.266.266.266h1.183v1.441h-1.183c-.147 0-.266.12-.266.267s.119.266.266.266h1.183v1.441h-1.183c-.147 0-.266.12-.266.267s.119.266.266.266h1.183v.365a1.45 1.45 0 0 0 1.444 1.444h.365V33.7c0 .146.119.266.266.266s.266-.12.266-.266v-1.183h1.442V33.7c0 .146.119.266.266.266s.266-.12.266-.266v-1.183h1.442V33.7c0 .146.12.266.266.266s.267-.12.267-.266v-1.183h.366c.797-.009 1.431-.644 1.441-1.445zm-6.68.831c-.488 0-.885-.397-.885-.885v-5.18c0-.488.397-.885.885-.885h5.18c.488 0 .885.397.885.885v5.18c0 .488-.397.885-.885.885h-5.18z" fill="url(#K)"/><linearGradient id="L" gradientUnits="userSpaceOnUse" x1="35.755" y1="44.223" x2="-3.951" y2="4.518"><stop offset="0" stop-color="#1e85e9"/><stop offset=".203" stop-color="#8671f3"/><stop offset=".707" stop-color="#c06cfd" stop-opacity=".99"/><stop offset="1" stop-color="#ffbee8"/></linearGradient><path d="M21.644 30.379c.147 0 .267-.12.267-.266v-3.289c0-.147-.12-.267-.267-.267h-3.289c-.147 0-.266.12-.266.267v3.289c0 .146.119.266.266.266h3.289zm-3.023-3.289h2.758v2.757h-2.758V27.09z" fill="url(#L)"/><defs /></svg>