<svg xmlns="http://www.w3.org/2000/svg" width="40" height="40"  xmlns:v="https://vecta.io/nano"><linearGradient id="A" gradientUnits="userSpaceOnUse" x1="40.793" y1="39.36" x2=".469" y2="-.875"><stop offset="0" stop-color="#1e85e9"/><stop offset=".203" stop-color="#8671f3"/><stop offset=".707" stop-color="#c06cfd" stop-opacity=".99"/><stop offset="1" stop-color="#ffbee8"/></linearGradient><path d="M14.809.672a2.29 2.29 0 0 0-2.767-.365 2.27 2.27 0 0 0-1.066 1.391 2.28 2.28 0 0 0 .229 1.738l.377.652H9.443c-2.949.003-5.351 2.406-5.355 5.356v5.108c.002 1.261 1.029 2.289 2.29 2.29a2.3 2.3 0 0 0 2.291-2.291V9.443c0-.428.347-.775.774-.775h2.139l-.376.651c-.518.897-.368 2.035.364 2.767.433.432 1.007.67 1.618.67a2.27 2.27 0 0 0 1.62-.672l4.087-4.086a2.3 2.3 0 0 0 0-3.24L14.809.672zm3.738 6.976l-4.087 4.086c-.354.352-.799.555-1.287.532a1.78 1.78 0 0 1-1.267-.533 1.8 1.8 0 0 1 .015-2.541l.596-.597c.047-.047.073-.109.073-.175 0-.136-.111-.247-.247-.247h-2.9c-.698.001-1.268.57-1.269 1.269v5.108a1.8 1.8 0 0 1-1.796 1.796 1.8 1.8 0 0 1-1.796-1.796V9.443c.002-2.678 2.183-4.859 4.861-4.862h2.901c.065 0 .129-.026.174-.072s.072-.109.072-.175a.24.24 0 0 0-.072-.174l-.599-.599c-.339-.339-.526-.79-.526-1.27s.187-.931.526-1.27.79-.526 1.27-.526a1.78 1.78 0 0 1 1.27.527l4.086 4.086a1.8 1.8 0 0 1 .002 2.54z" fill="url(#A)"/><linearGradient id="B" gradientUnits="userSpaceOnUse" x1="50.532" y1="29.599" x2="10.209" y2="-10.636"><stop offset="0" stop-color="#1e85e9"/><stop offset=".203" stop-color="#8671f3"/><stop offset=".707" stop-color="#c06cfd" stop-opacity=".99"/><stop offset="1" stop-color="#ffbee8"/></linearGradient><path d="M39.33 11.569a2.3 2.3 0 0 0-2.765-.364l-.651.375V9.443c-.004-2.949-2.407-5.352-5.356-5.356H25.45c-1.262 0-2.29 1.028-2.29 2.29s1.028 2.29 2.29 2.29h5.11c.427 0 .774.347.774.775v2.139l-.652-.377c-.357-.206-.752-.307-1.144-.307a2.29 2.29 0 0 0-1.621.671c-.433.433-.671 1.008-.671 1.62s.239 1.187.673 1.619l4.087 4.087c.424.427 1.012.671 1.612.671h.008a2.29 2.29 0 0 0 1.617-.671l4.087-4.087c.891-.891.891-2.345 0-3.238zm-.352 2.894l-4.083 4.083c-.339.339-.79.526-1.27.526a1.79 1.79 0 0 1-1.271-.526l-4.086-4.087c-.335-.335-.528-.799-.526-1.272a1.8 1.8 0 0 1 1.796-1.795c.474 0 .936.192 1.269.526l.599.598a.26.26 0 0 0 .422-.175v-2.9c-.001-.698-.571-1.268-1.269-1.269H25.45a1.8 1.8 0 0 1-1.796-1.796A1.8 1.8 0 0 1 25.45 4.58h5.11c2.679.003 4.859 2.184 4.861 4.861v2.9c0 .066.026.128.073.175.095.095.251.097.35 0l.598-.598c.372-.364.829-.534 1.306-.539a1.78 1.78 0 0 1 1.263.543c.335.344.516.797.51 1.277a1.79 1.79 0 0 1-.543 1.264z" fill="url(#B)"/><linearGradient id="C" gradientUnits="userSpaceOnUse" x1="39.407" y1="40.748" x2="-.916" y2=".513"><stop offset="0" stop-color="#1e85e9"/><stop offset=".203" stop-color="#8671f3"/><stop offset=".707" stop-color="#c06cfd" stop-opacity=".99"/><stop offset="1" stop-color="#ffbee8"/></linearGradient><path d="M33.625 23.159c-1.263 0-2.291 1.028-2.291 2.291v5.109c0 .427-.347.774-.774.774h-2.14l.377-.652a2.29 2.29 0 0 0-.364-2.767 2.27 2.27 0 0 0-1.617-.67 2.27 2.27 0 0 0-1.621.673l-4.087 4.087c-.891.892-.891 2.346.001 3.239l4.086 4.086c.423.427 1.011.671 1.611.671h.007c.402 0 .798-.107 1.145-.307a2.29 2.29 0 0 0 .838-3.128l-.376-.652h2.139c2.949-.004 5.352-2.407 5.355-5.355v-5.109a2.29 2.29 0 0 0-2.289-2.29zm1.796 7.399c-.003 2.677-2.184 4.858-4.86 4.861h-2.902a.25.25 0 0 0-.175.073c-.046.046-.072.108-.072.175s.026.127.072.174l.6.599c.339.339.526.791.526 1.271a1.78 1.78 0 0 1-.528 1.27c-.349.35-.809.525-1.269.525a1.79 1.79 0 0 1-1.27-.525l-4.087-4.087a1.8 1.8 0 0 1 0-2.54l4.087-4.088c.332-.334.793-.526 1.266-.526.484 0 .935.187 1.274.526s.527.79.527 1.27-.187.932-.526 1.271l-.599.599a.25.25 0 0 0-.073.175c0 .136.111.246.246.246h2.901c.698-.001 1.267-.57 1.268-1.268V25.45a1.8 1.8 0 0 1 1.797-1.796 1.8 1.8 0 0 1 1.796 1.796v5.108z" fill="url(#C)"/><linearGradient id="D" gradientUnits="userSpaceOnUse" x1="29.668" y1="50.509" x2="-10.656" y2="10.274"><stop offset="0" stop-color="#1e85e9"/><stop offset=".203" stop-color="#8671f3"/><stop offset=".707" stop-color="#c06cfd" stop-opacity=".99"/><stop offset="1" stop-color="#ffbee8"/></linearGradient><path d="M14.553 31.332H9.444c-.427 0-.774-.347-.774-.774v-2.137l.651.375c.896.514 2.03.366 2.762-.364a2.27 2.27 0 0 0 .673-1.619 2.28 2.28 0 0 0-.67-1.621L8 21.106c-.894-.893-2.346-.893-3.24 0L.673 25.193c-.733.732-.883 1.871-.364 2.767.306.53.8.909 1.391 1.067s1.209.076 1.738-.23l.652-.376v2.139c.004 2.948 2.407 5.351 5.356 5.355h5.108c1.263 0 2.29-1.028 2.29-2.291s-1.029-2.292-2.291-2.292zm-.001 4.087H9.443c-2.678-.003-4.859-2.184-4.861-4.861v-2.901a.26.26 0 0 0-.422-.174l-.599.598a1.92 1.92 0 0 1-1.314.542 1.79 1.79 0 0 1-1.262-.547c-.334-.344-.513-.798-.506-1.278s.202-.928.547-1.262l4.082-4.082c.7-.698 1.84-.698 2.54 0l4.086 4.087a1.78 1.78 0 0 1 .527 1.27 1.79 1.79 0 0 1-.526 1.271c-.339.339-.79.526-1.27.526s-.932-.188-1.271-.528l-.598-.597a.26.26 0 0 0-.422.174v2.901c.001.698.57 1.267 1.269 1.268h5.108a1.8 1.8 0 0 1 1.796 1.796 1.8 1.8 0 0 1-1.795 1.797z" fill="url(#D)"/><defs /></svg>